<?xml version="1.0" encoding="UTF-8" standalone="no"?>
<svg xmlns:ffdec="https://www.free-decompiler.com/flash"
     ffdec:objectType="shape" height="14.05px" width="14.0px" xmlns="http://www.w3.org/2000/svg">
    <g transform="matrix(1.0, 0.0, 0.0, 1.0, 7.0, 19.1)">
        <path d="M6.4 -18.45 Q7.0 -17.85 7.0 -17.05 L4.85 -5.05 3.0 -17.05 Q3.0 -17.85 3.6 -18.45 4.15 -19.0 4.85 -19.05 L5.0 -19.05 Q5.8 -19.05 6.4 -18.45"
              fill="url(#gradient0)" fill-rule="evenodd" stroke="none"/>
        <path d="M-3.0 -17.1 L-5.15 -5.1 -7.0 -17.1 Q-7.0 -17.9 -6.4 -18.5 -5.85 -19.05 -5.15 -19.1 L-5.0 -19.1 Q-4.2 -19.1 -3.6 -18.5 -3.0 -17.9 -3.0 -17.1"
              fill="url(#gradient1)" fill-rule="evenodd" stroke="none"/>
    </g>
    <defs>
        <linearGradient gradientTransform="matrix(0.0, 0.0085, -0.0024, 0.0, 5.0, -12.05)"
                        gradientUnits="userSpaceOnUse" id="gradient0" spreadMethod="pad" x1="-819.2" x2="819.2">
            <stop offset="0.0" stop-color="#dcda6c"/>
            <stop offset="0.22745098039215686" stop-color="#ffff00"/>
            <stop offset="0.6823529411764706" stop-color="#ff6633"/>
            <stop offset="1.0" stop-color="#a42204"/>
        </linearGradient>
        <linearGradient gradientTransform="matrix(0.0, 0.0085, -0.0024, 0.0, -5.0, -12.1)"
                        gradientUnits="userSpaceOnUse" id="gradient1" spreadMethod="pad" x1="-819.2" x2="819.2">
            <stop offset="0.0" stop-color="#dcda6c"/>
            <stop offset="0.22745098039215686" stop-color="#ffff00"/>
            <stop offset="0.6823529411764706" stop-color="#ff6633"/>
            <stop offset="1.0" stop-color="#a42204"/>
        </linearGradient>
    </defs>
</svg>
