<?xml version="1.0" encoding="UTF-8" standalone="no"?>
<svg xmlns:ffdec="https://www.free-decompiler.com/flash"
     ffdec:objectType="shape" height="14.0px" width="29.0px" xmlns="http://www.w3.org/2000/svg">
    <g transform="matrix(1.0, 0.0, 0.0, 1.0, 14.5, 14.0)">
        <path d="M12.35 -14.0 L12.5 -14.0 Q13.3 -14.0 13.9 -13.4 14.5 -12.8 14.5 -12.0 L12.35 0.0 10.5 -12.0 Q10.5 -12.8 11.1 -13.4 11.65 -13.95 12.35 -14.0"
              fill="url(#gradient0)" fill-rule="evenodd" stroke="none"/>
        <path d="M3.85 -14.0 L4.0 -14.0 Q4.8 -14.0 5.4 -13.4 6.0 -12.8 6.0 -12.0 L3.85 0.0 2.0 -12.0 Q2.0 -12.8 2.6 -13.4 3.15 -13.95 3.85 -14.0"
              fill="url(#gradient1)" fill-rule="evenodd" stroke="none"/>
        <path d="M-4.15 -14.0 L-4.0 -14.0 Q-3.2 -14.0 -2.6 -13.4 -2.0 -12.8 -2.0 -12.0 L-4.15 0.0 -6.0 -12.0 Q-6.0 -12.8 -5.4 -13.4 -4.85 -13.95 -4.15 -14.0"
              fill="url(#gradient2)" fill-rule="evenodd" stroke="none"/>
        <path d="M-12.65 -14.0 L-12.5 -14.0 Q-11.7 -14.0 -11.1 -13.4 -10.5 -12.8 -10.5 -12.0 L-12.65 0.0 -14.5 -12.0 Q-14.5 -12.8 -13.9 -13.4 -13.35 -13.95 -12.65 -14.0"
              fill="url(#gradient3)" fill-rule="evenodd" stroke="none"/>
    </g>
    <defs>
        <linearGradient gradientTransform="matrix(0.0, 0.0085, -0.0024, 0.0, 12.5, -7.0)" gradientUnits="userSpaceOnUse"
                        id="gradient0" spreadMethod="pad" x1="-819.2" x2="819.2">
            <stop offset="0.0" stop-color="#dcda6c"/>
            <stop offset="0.22745098039215686" stop-color="#ffff00"/>
            <stop offset="0.6823529411764706" stop-color="#ff6633"/>
            <stop offset="1.0" stop-color="#a42204"/>
        </linearGradient>
        <linearGradient gradientTransform="matrix(0.0, 0.0085, -0.0024, 0.0, 4.0, -7.0)" gradientUnits="userSpaceOnUse"
                        id="gradient1" spreadMethod="pad" x1="-819.2" x2="819.2">
            <stop offset="0.0" stop-color="#dcda6c"/>
            <stop offset="0.22745098039215686" stop-color="#ffff00"/>
            <stop offset="0.6823529411764706" stop-color="#ff6633"/>
            <stop offset="1.0" stop-color="#a42204"/>
        </linearGradient>
        <linearGradient gradientTransform="matrix(0.0, 0.0085, -0.0024, 0.0, -4.0, -7.0)" gradientUnits="userSpaceOnUse"
                        id="gradient2" spreadMethod="pad" x1="-819.2" x2="819.2">
            <stop offset="0.0" stop-color="#dcda6c"/>
            <stop offset="0.22745098039215686" stop-color="#ffff00"/>
            <stop offset="0.6823529411764706" stop-color="#ff6633"/>
            <stop offset="1.0" stop-color="#a42204"/>
        </linearGradient>
        <linearGradient gradientTransform="matrix(0.0, 0.0085, -0.0024, 0.0, -12.5, -7.0)"
                        gradientUnits="userSpaceOnUse" id="gradient3" spreadMethod="pad" x1="-819.2" x2="819.2">
            <stop offset="0.0" stop-color="#dcda6c"/>
            <stop offset="0.22745098039215686" stop-color="#ffff00"/>
            <stop offset="0.6823529411764706" stop-color="#ff6633"/>
            <stop offset="1.0" stop-color="#a42204"/>
        </linearGradient>
    </defs>
</svg>
