<?xml version="1.0" encoding="UTF-8" standalone="no"?>
<svg xmlns:ffdec="https://www.free-decompiler.com/flash"
     ffdec:objectType="shape" height="14.0px" width="21.0px" xmlns="http://www.w3.org/2000/svg">
    <g transform="matrix(1.0, 0.0, 0.0, 1.0, 10.5, 14.0)">
        <path d="M8.5 -14.0 Q9.3 -14.0 9.9 -13.4 10.5 -12.8 10.5 -12.0 L8.35 0.0 6.5 -12.0 Q6.5 -12.8 7.1 -13.4 7.65 -13.95 8.35 -14.0 L8.5 -14.0"
              fill="url(#gradient0)" fill-rule="evenodd" stroke="none"/>
        <path d="M0.0 -14.0 Q0.8 -14.0 1.4 -13.4 2.0 -12.8 2.0 -12.0 L-0.15 0.0 -2.0 -12.0 Q-2.0 -12.8 -1.4 -13.4 -0.85 -13.95 -0.15 -14.0 L0.0 -14.0"
              fill="url(#gradient1)" fill-rule="evenodd" stroke="none"/>
        <path d="M-8.5 -14.0 Q-7.7 -14.0 -7.1 -13.4 -6.5 -12.8 -6.5 -12.0 L-8.65 0.0 -10.5 -12.0 Q-10.5 -12.8 -9.9 -13.4 -9.35 -13.95 -8.65 -14.0 L-8.5 -14.0"
              fill="url(#gradient2)" fill-rule="evenodd" stroke="none"/>
    </g>
    <defs>
        <linearGradient gradientTransform="matrix(0.0, 0.0085, -0.0024, 0.0, 8.5, -7.0)" gradientUnits="userSpaceOnUse"
                        id="gradient0" spreadMethod="pad" x1="-819.2" x2="819.2">
            <stop offset="0.0" stop-color="#dcda6c"/>
            <stop offset="0.22745098039215686" stop-color="#ffff00"/>
            <stop offset="0.6823529411764706" stop-color="#ff6633"/>
            <stop offset="1.0" stop-color="#a42204"/>
        </linearGradient>
        <linearGradient gradientTransform="matrix(0.0, 0.0085, -0.0024, 0.0, 0.0, -7.0)" gradientUnits="userSpaceOnUse"
                        id="gradient1" spreadMethod="pad" x1="-819.2" x2="819.2">
            <stop offset="0.0" stop-color="#dcda6c"/>
            <stop offset="0.22745098039215686" stop-color="#ffff00"/>
            <stop offset="0.6823529411764706" stop-color="#ff6633"/>
            <stop offset="1.0" stop-color="#a42204"/>
        </linearGradient>
        <linearGradient gradientTransform="matrix(0.0, 0.0085, -0.0024, 0.0, -8.5, -7.0)" gradientUnits="userSpaceOnUse"
                        id="gradient2" spreadMethod="pad" x1="-819.2" x2="819.2">
            <stop offset="0.0" stop-color="#dcda6c"/>
            <stop offset="0.22745098039215686" stop-color="#ffff00"/>
            <stop offset="0.6823529411764706" stop-color="#ff6633"/>
            <stop offset="1.0" stop-color="#a42204"/>
        </linearGradient>
    </defs>
</svg>
