<?xml version="1.0" encoding="UTF-8" standalone="no"?>
<svg xmlns:ffdec="https://www.free-decompiler.com/flash"
     ffdec:objectType="shape" height="87.85px" width="73.95px" xmlns="http://www.w3.org/2000/svg">
    <g transform="matrix(1.0, 0.0, 0.0, 1.0, 30.45, 32.45)">
        <path d="M14.95 49.05 L16.15 43.6 14.75 41.35 15.8 37.8 25.5 38.85 21.7 29.4 28.65 29.55 29.9 24.0 30.3 30.15 37.15 29.15 37.5 33.4 34.4 35.95 35.7 39.35 43.5 38.7 43.4 50.25 35.35 47.8 29.55 55.4 25.75 48.95 14.95 49.05"
              fill="#000000" fill-opacity="0.2509804" fill-rule="evenodd" stroke="none"/>
        <path d="M14.75 -19.35 L14.5 -16.6 13.1 -16.3 13.3 -13.1 11.8 -12.25 Q9.25 -10.75 8.55 -8.1 8.3 -9.3 7.35 -10.35 L6.7 -11.0 7.15 -11.45 Q7.4 -12.1 7.0 -12.75 6.15 -14.15 4.75 -14.55 4.1 -14.6 3.55 -14.25 L0.95 -12.2 0.2 -17.95 8.45 -19.1 14.75 -19.35 M-10.75 -10.35 L-11.15 -10.85 Q-12.7 -12.25 -14.7 -13.25 L-14.6 -18.35 -9.75 -18.25 -1.95 -17.7 -2.5 -10.9 -6.55 -10.9 -6.55 -10.95 Q-5.5 -11.2 -5.9 -12.15 -6.5 -13.65 -8.0 -14.75 -10.4 -13.2 -10.75 -10.35"
              fill="#776a40" fill-rule="evenodd" stroke="none"/>
        <path d="M-1.95 -18.55 L-1.95 -18.5 -1.95 -17.7 -9.75 -18.25 -9.6 -22.55 -9.75 -18.25 -14.6 -18.35 -14.2 -22.65 -9.6 -22.55 Q-6.45 -22.55 -4.2 -21.35 -1.95 -20.2 -1.95 -18.55 M0.2 -17.95 L1.25 -19.15 Q4.1 -21.9 8.0 -22.65 L11.65 -22.5 13.6 -21.75 Q14.8 -20.85 14.75 -19.35 L8.45 -19.1 0.2 -17.95 M8.0 -22.65 L8.45 -19.1 8.0 -22.65"
              fill="#a59262" fill-rule="evenodd" stroke="none"/>
        <path d="M-1.95 -18.5 L0.15 -18.4 0.2 -17.95 0.95 -12.2 0.95 -11.95 0.6 -7.1 -0.5 -7.15 -2.5 -10.9 -1.95 -17.7 -1.95 -18.5"
              fill="url(#gradient0)" fill-rule="evenodd" stroke="none"/>
        <path d="M8.55 -8.1 L7.7 -5.1 5.75 -4.95 5.15 -4.7 3.2 -6.2 3.9 -10.2 Q5.0 -10.1 5.95 -10.6 L6.7 -11.0 7.35 -10.35 Q8.3 -9.3 8.55 -8.1"
              fill="url(#gradient1)" fill-rule="evenodd" stroke="none"/>
        <path d="M1.1 -12.05 L0.95 -11.95 0.95 -12.2 1.1 -12.05" fill="url(#gradient2)" fill-rule="evenodd"
              stroke="none"/>
        <path d="M0.6 -7.1 L1.65 -6.85 1.2 -3.8 0.9 -3.65 Q-0.25 -2.9 -1.55 -3.45 -2.5 -3.85 -2.45 -4.95 L-2.55 -6.75 -0.5 -7.15 0.6 -7.1"
              fill="url(#gradient3)" fill-rule="evenodd" stroke="none"/>
        <path d="M3.2 -6.2 L5.15 -4.7 Q4.5 -4.7 4.05 -3.8 3.55 -2.95 3.55 -1.75 L3.15 -1.2 Q2.9 -2.55 1.85 -3.35 L1.2 -3.8 1.65 -6.85 3.2 -6.2"
              fill="#aa9263" fill-rule="evenodd" stroke="none"/>
        <path d="M7.7 -5.1 Q9.35 -5.1 10.5 -3.95 11.65 -2.8 11.65 -1.15 L11.75 2.35 10.25 3.9 Q8.75 4.85 7.05 4.55 L6.15 4.4 Q4.3 3.9 3.35 2.15 L3.0 1.6 3.4 1.25 3.55 0.7 6.05 2.0 7.1 2.1 8.2 1.75 9.3 0.4 9.9 -0.55 8.2 -1.85 7.45 -2.2 6.45 -1.45 3.55 -1.75 Q3.55 -2.95 4.05 -3.8 4.5 -4.7 5.15 -4.7 L5.75 -4.95 7.7 -5.1"
              fill="#cf2424" fill-rule="evenodd" stroke="none"/>
        <path d="M3.15 -1.2 L3.55 -1.75 6.45 -1.45 7.45 -2.2 8.2 -1.85 9.9 -0.55 9.3 0.4 8.2 1.75 7.1 2.1 6.05 2.0 3.55 0.7 2.95 0.45 3.15 -1.2"
              fill="url(#gradient4)" fill-rule="evenodd" stroke="none"/>
        <path d="M1.2 -3.8 L1.85 -3.35 Q2.9 -2.55 3.15 -1.2 L2.95 0.45 3.55 0.7 3.4 1.25 3.0 1.6 Q1.45 2.55 -0.4 2.7 -2.45 2.85 -3.05 0.85 -3.95 -1.95 -1.55 -3.45 -0.25 -2.9 0.9 -3.65 L1.2 -3.8"
              fill="#9d8a5c" fill-rule="evenodd" stroke="none"/>
        <path d="M11.65 -1.15 L12.4 -1.8 Q15.0 -4.3 18.6 -3.7 20.95 -3.2 22.9 -2.05 23.85 -1.5 24.55 -0.6 25.2 0.25 25.25 1.5 25.4 3.65 24.2 5.4 22.75 7.4 23.75 9.55 L25.05 11.85 Q26.05 13.5 25.7 15.6 25.2 18.3 22.7 19.05 L20.45 19.0 18.05 18.75 17.05 18.05 Q14.3 16.1 11.1 15.9 L11.0 15.75 12.2 15.15 Q13.7 15.35 15.1 14.65 L15.35 14.45 15.5 12.35 16.05 6.2 Q16.15 4.95 15.65 3.9 14.65 2.1 12.45 2.15 L11.75 2.35 11.65 -1.15"
              fill="url(#gradient5)" fill-rule="evenodd" stroke="none"/>
        <path d="M18.6 -3.7 Q20.85 -4.75 23.45 -4.35 25.2 -4.05 26.45 -3.1 28.0 -1.95 28.25 0.1 28.6 2.65 27.7 5.0 L26.95 6.45 25.75 8.65 Q27.15 8.9 28.1 9.8 L29.05 11.0 Q30.25 13.25 29.9 15.9 29.65 18.1 27.9 19.9 26.25 21.55 23.75 21.6 L21.4 21.2 19.1 19.7 18.05 18.75 20.45 19.0 22.7 19.05 Q25.2 18.3 25.7 15.6 26.05 13.5 25.05 11.85 L23.75 9.55 Q22.75 7.4 24.2 5.4 25.4 3.65 25.25 1.5 25.2 0.25 24.55 -0.6 23.85 -1.5 22.9 -2.05 20.95 -3.2 18.6 -3.7"
              fill="url(#gradient6)" fill-rule="evenodd" stroke="none"/>
        <path d="M12.65 5.4 L15.65 3.9 Q16.15 4.95 16.05 6.2 L15.5 12.35 12.45 10.55 12.2 15.15 11.0 15.75 10.85 15.9 10.5 14.45 Q9.9 10.55 10.45 6.35 L12.65 5.4"
              fill="url(#gradient7)" fill-rule="evenodd" stroke="none"/>
        <path d="M5.55 27.05 L4.55 29.2 Q3.5 31.05 1.7 31.75 -0.6 32.6 -2.85 31.4 -5.55 29.95 -7.0 27.25 -6.4 27.3 -6.35 26.75 L-6.2 25.5 -6.05 24.85 Q-5.6 23.85 -4.45 23.5 L-3.65 23.25 Q-1.2 24.65 1.55 24.05 L2.55 23.7 3.85 23.05 4.5 23.4 Q5.65 24.15 5.6 25.55 L5.55 27.05 M-0.2 29.55 Q1.65 29.85 2.7 28.45 L3.5 26.9 Q3.7 26.2 3.4 25.65 3.0 25.25 2.6 25.45 L-0.55 26.05 -4.0 25.05 Q-4.2 26.65 -3.5 28.0 -3.0 29.05 -1.8 29.3 L-0.2 29.55"
              fill="url(#gradient8)" fill-rule="evenodd" stroke="none"/>
        <path d="M-22.1 20.75 Q-24.25 22.25 -26.6 21.05 -29.35 19.75 -29.7 16.65 -30.05 13.35 -28.05 11.0 L-27.05 9.55 Q-26.75 8.85 -26.8 8.15 -26.95 6.1 -28.6 4.7 -29.5 3.95 -29.75 2.75 -30.35 0.15 -29.25 -2.1 -28.25 -4.25 -25.85 -4.85 -22.35 -5.55 -19.95 -3.25 -23.35 -2.9 -25.55 -0.3 -26.55 0.9 -26.25 2.35 -25.8 4.65 -24.75 6.85 -24.3 7.75 -24.25 8.85 -24.15 10.0 -24.35 11.15 -24.7 13.3 -25.55 15.2 -25.95 16.1 -25.8 17.2 L-25.3 18.55 Q-24.2 20.3 -22.1 20.75"
              fill="url(#gradient9)" fill-rule="evenodd" stroke="none"/>
        <path d="M-14.7 -13.25 Q-17.35 -15.55 -17.05 -19.05 -16.8 -21.8 -14.2 -22.65 L-14.6 -18.35 -14.7 -13.25"
              fill="#cccabf" fill-rule="evenodd" stroke="none"/>
        <path d="M-11.25 15.85 L-13.3 17.95 Q-17.05 21.65 -22.1 20.75 -24.2 20.3 -25.3 18.55 L-25.8 17.2 Q-25.95 16.1 -25.55 15.2 -24.7 13.3 -24.35 11.15 -24.15 10.0 -24.25 8.85 -24.3 7.75 -24.75 6.85 -25.8 4.65 -26.25 2.35 -26.55 0.9 -25.55 -0.3 -23.35 -2.9 -19.95 -3.25 -18.1 -3.15 -16.65 -2.3 -13.8 -0.45 -10.45 -1.0 -10.65 0.25 -11.7 1.25 L-12.25 1.8 Q-13.7 1.4 -15.0 2.1 L-15.8 2.6 -16.05 10.6 Q-16.1 12.05 -15.25 13.05 L-11.25 15.85"
              fill="url(#gradient10)" fill-rule="evenodd" stroke="none"/>
        <path d="M-7.15 -2.15 Q-8.4 -2.3 -9.15 -3.0 -10.35 -4.1 -10.2 -5.75 L-10.05 -7.75 Q-9.95 -9.2 -10.7 -10.3 L-7.1 -10.75 -6.55 -10.95 -6.55 -10.9 Q-5.0 -9.4 -4.9 -7.3 L-4.85 -5.8 -5.4 -5.25 Q-6.7 -3.9 -7.15 -2.15"
              fill="url(#gradient11)" fill-rule="evenodd" stroke="none"/>
        <path d="M-10.0 17.1 L-11.25 15.85 -15.25 13.05 Q-14.3 9.8 -10.95 9.2 L-10.0 9.05 -10.0 17.1"
              fill="url(#gradient12)" fill-rule="evenodd" stroke="none"/>
        <path d="M-10.25 6.15 Q-13.55 6.15 -15.3 3.4 L-15.8 2.6 -15.0 2.1 Q-13.7 1.4 -12.25 1.8 -10.9 2.25 -10.65 3.75 L-10.25 6.15"
              fill="url(#gradient13)" fill-rule="evenodd" stroke="none"/>
        <path d="M-15.25 13.05 Q-16.1 12.05 -16.05 10.6 L-15.8 2.6 -15.3 3.4 Q-13.55 6.15 -10.25 6.15 L-10.0 9.05 -10.95 9.2 Q-14.3 9.8 -15.25 13.05"
              fill="url(#gradient14)" fill-rule="evenodd" stroke="none"/>
        <path d="M7.45 19.85 L5.75 19.4 2.2 18.45 2.55 23.7 1.55 24.05 Q-1.2 24.65 -3.65 23.25 -4.85 22.6 -5.6 21.15 L-6.1 20.1 -6.1 20.05 -6.0 20.05 -6.0 20.0 -5.0 18.5 -4.3 18.5 -5.0 18.5 -6.0 20.0 -6.15 20.05 -6.65 20.2 -7.1 20.05 -7.3 19.65 -7.75 16.35 -6.55 15.9 -6.85 12.15 -6.95 11.0 -7.2 3.15 -7.55 1.35 -7.15 -2.15 Q-6.7 -3.9 -5.4 -5.25 L-4.85 -5.8 -2.55 -6.75 -2.45 -4.95 Q-2.5 -3.85 -1.55 -3.45 -3.95 -1.95 -3.05 0.85 -2.45 2.85 -0.4 2.7 1.45 2.55 3.0 1.6 L3.35 2.15 Q4.3 3.9 6.15 4.4 L7.2 6.95 7.7 11.35 7.45 19.85 M0.0 5.0 Q1.65 5.0 2.85 6.2 4.0 7.35 4.0 9.0 4.0 10.65 2.85 11.85 1.65 13.0 0.0 13.0 -1.65 13.0 -2.8 11.85 -4.0 10.65 -4.0 9.0 -4.0 7.35 -2.8 6.2 -1.65 5.0 0.0 5.0 -1.65 5.0 -2.8 6.2 -4.0 7.35 -4.0 9.0 -4.0 10.65 -2.8 11.85 -1.65 13.0 0.0 13.0 1.65 13.0 2.85 11.85 4.0 10.65 4.0 9.0 4.0 7.35 2.85 6.2 1.65 5.0 0.0 5.0 M-4.3 15.9 L-6.55 15.9 -4.3 15.9 M7.7 11.35 L6.5 9.85 6.1 10.15 5.95 11.55 Q5.9 12.05 6.5 12.3 L7.7 11.35 M6.45 16.1 L2.15 16.1 2.2 18.45 2.15 16.1 6.45 16.1 M-2.0 16.5 L-0.55 16.5 -2.0 16.5 M1.3 20.0 L-6.0 20.05 1.3 20.0"
              fill="url(#gradient15)" fill-rule="evenodd" stroke="none"/>
        <path d="M5.75 19.4 L5.8 20.15 Q5.95 21.2 6.8 22.1 L7.9 24.0 5.55 27.05 5.6 25.55 Q5.65 24.15 4.5 23.4 L3.85 23.05 2.55 23.7 2.2 18.45 5.75 19.4 M-7.85 27.05 L-8.35 26.85 Q-10.15 25.55 -8.95 23.5 L-8.65 22.95 -9.25 21.9 -9.1 21.55 -7.1 20.05 -6.65 20.2 -6.15 20.05 -6.1 20.1 -5.6 21.15 Q-4.85 22.6 -3.65 23.25 L-4.45 23.5 Q-5.6 23.85 -6.05 24.85 L-6.2 25.5 -6.35 26.75 Q-6.4 27.3 -7.0 27.25 L-7.85 27.05 M-7.75 16.35 L-8.0 17.55 Q-8.15 18.15 -8.7 18.2 L-10.0 17.1 -10.0 9.05 -10.25 6.15 -10.65 3.75 Q-10.9 2.25 -12.25 1.8 L-11.7 1.25 Q-10.65 0.25 -10.45 -1.0 L-7.15 -2.15 -7.55 1.35 -8.05 0.6 -8.5 0.7 Q-9.0 1.6 -9.3 2.65 -9.55 3.4 -9.05 3.95 L-7.2 3.15 -6.95 11.0 -7.6 9.5 -8.25 10.3 Q-9.0 11.35 -8.4 12.25 L-6.85 12.15 -6.55 15.9 -7.75 16.35 -8.55 16.2 -7.75 16.35 M6.8 22.1 L4.5 23.4 6.8 22.1 M-8.95 23.5 L-6.05 24.85 -8.95 23.5"
              fill="#9c8a5f" fill-rule="evenodd" stroke="none"/>
        <path d="M-7.55 1.35 L-7.2 3.15 -9.05 3.95 Q-9.55 3.4 -9.3 2.65 -9.0 1.6 -8.5 0.7 L-8.05 0.6 -7.55 1.35 M-6.95 11.0 L-6.85 12.15 -8.4 12.25 Q-9.0 11.35 -8.25 10.3 L-7.6 9.5 -6.95 11.0 M7.7 11.35 L6.5 12.3 Q5.9 12.05 5.95 11.55 L6.1 10.15 6.5 9.85 7.7 11.35"
              fill="#a9a297" fill-rule="evenodd" stroke="none"/>
        <path d="M14.5 -16.6 L14.85 -13.75 14.5 -12.85 13.3 -13.1 13.1 -16.3 14.5 -16.6" fill="#989ca2"
              fill-rule="evenodd" stroke="none"/>
        <path d="M-1.95 -18.55 L-1.75 -31.95 Q-0.85 -32.05 -0.3 -31.5 0.55 -30.65 0.4 -29.4 L0.05 -25.25 0.15 -18.4 -1.95 -18.5 -1.95 -18.55"
              fill="#b9bdc0" fill-rule="evenodd" stroke="none"/>
        <path d="M3.9 -10.2 L3.2 -6.2 1.65 -6.85 0.6 -7.1 0.95 -11.95 1.1 -12.05 Q1.95 -10.9 3.25 -10.45 L3.9 -10.2 M12.65 5.4 L11.75 2.35 12.65 5.4 10.45 6.35 10.1 6.5 Q8.7 7.1 7.2 6.95 L10.25 3.9 7.2 6.95 6.15 4.4 7.05 4.55 Q8.75 4.85 10.25 3.9 L11.75 2.35 12.45 2.15 Q14.65 2.1 15.65 3.9 L12.65 5.4 M12.2 15.15 L12.45 10.55 15.5 12.35 15.35 14.45 15.1 14.65 Q13.7 15.35 12.2 15.15 M-2.55 -6.75 L-4.85 -5.8 -4.9 -7.3 Q-5.0 -9.4 -6.55 -10.9 L-2.5 -10.9 -0.5 -7.15 -2.55 -6.75"
              fill="#52514f" fill-rule="evenodd" stroke="none"/>
        <path d="M-0.55 26.05 L2.6 25.45 Q3.0 25.25 3.4 25.65 3.7 26.2 3.5 26.9 L2.7 28.45 Q1.65 29.85 -0.2 29.55 L-0.55 26.05 -0.2 29.55 -1.8 29.3 Q-3.0 29.05 -3.5 28.0 -4.2 26.65 -4.0 25.05 L-0.55 26.05"
              fill="#90989e" fill-rule="evenodd" stroke="none"/>
        <path d="M-7.0 27.25 L-6.9 31.1 -7.6 30.65 -8.05 29.9 Q-8.3 28.55 -7.85 27.05 L-7.0 27.25" fill="#c64c25"
              fill-rule="evenodd" stroke="none"/>
        <path d="M-10.7 -10.3 L-10.75 -10.35 Q-10.4 -13.2 -8.0 -14.75 -6.5 -13.65 -5.9 -12.15 -5.5 -11.2 -6.55 -10.95 L-7.1 -10.75 -10.7 -10.3 M0.95 -12.2 L3.55 -14.25 Q4.1 -14.6 4.75 -14.55 6.15 -14.15 7.0 -12.75 7.4 -12.1 7.15 -11.45 L6.7 -11.0 5.95 -10.6 Q5.0 -10.1 3.9 -10.2 L3.25 -10.45 Q1.95 -10.9 1.1 -12.05 L0.95 -12.2"
              fill="#abc8cf" fill-rule="evenodd" stroke="none"/>
        <path d="M10.85 15.9 Q10.55 16.0 10.4 16.2 L7.45 19.85 7.7 11.35 7.2 6.95 Q8.7 7.1 10.1 6.5 L10.45 6.35 Q9.9 10.55 10.5 14.45 L10.85 15.9"
              fill="#575337" fill-rule="evenodd" stroke="none"/>
        <path d="M0.15 -18.4 L0.05 -25.25 0.4 -29.4 Q0.55 -30.65 -0.3 -31.5 -0.85 -32.05 -1.75 -31.95 L-1.95 -18.55 -1.95 -18.5 0.15 -18.4 0.2 -17.95 1.25 -19.15 Q4.1 -21.9 8.0 -22.65 L11.65 -22.5 13.6 -21.75 Q14.8 -20.85 14.75 -19.35 L14.5 -16.6 14.85 -13.75 14.5 -12.85 13.3 -13.1 11.8 -12.25 Q9.25 -10.75 8.55 -8.1 L7.7 -5.1 Q9.35 -5.1 10.5 -3.95 11.65 -2.8 11.65 -1.15 L12.4 -1.8 Q15.0 -4.3 18.6 -3.7 20.85 -4.75 23.45 -4.35 25.2 -4.05 26.45 -3.1 28.0 -1.95 28.25 0.1 28.6 2.65 27.7 5.0 L26.95 6.45 25.75 8.65 Q27.15 8.9 28.1 9.8 L29.05 11.0 Q30.25 13.25 29.9 15.9 29.65 18.1 27.9 19.9 26.25 21.55 23.75 21.6 L21.4 21.2 19.1 19.7 18.05 18.75 17.05 18.05 Q14.3 16.1 11.1 15.9 L10.85 15.9 Q10.55 16.0 10.4 16.2 L7.45 19.85 5.75 19.4 5.8 20.15 Q5.95 21.2 6.8 22.1 L7.9 24.0 5.55 27.05 4.55 29.2 Q3.5 31.05 1.7 31.75 -0.6 32.6 -2.85 31.4 -5.55 29.95 -7.0 27.25 L-6.9 31.1 -7.6 30.65 -8.05 29.9 Q-8.3 28.55 -7.85 27.05 L-8.35 26.85 Q-10.15 25.55 -8.95 23.5 L-8.65 22.95 -9.25 21.9 -9.1 21.55 -7.1 20.05 -7.3 19.65 -7.75 16.35 -8.0 17.55 Q-8.15 18.15 -8.7 18.2 L-10.0 17.1 -11.25 15.85 -13.3 17.95 Q-17.05 21.65 -22.1 20.75 -24.25 22.25 -26.6 21.05 -29.35 19.75 -29.7 16.65 -30.05 13.35 -28.05 11.0 L-27.05 9.55 Q-26.75 8.85 -26.8 8.15 -26.95 6.1 -28.6 4.7 -29.5 3.95 -29.75 2.75 -30.35 0.15 -29.25 -2.1 -28.25 -4.25 -25.85 -4.85 -22.35 -5.55 -19.95 -3.25 -18.1 -3.15 -16.65 -2.3 -13.8 -0.45 -10.45 -1.0 L-7.15 -2.15 Q-8.4 -2.3 -9.15 -3.0 -10.35 -4.1 -10.2 -5.75 L-10.05 -7.75 Q-9.95 -9.2 -10.7 -10.3 L-10.75 -10.35 -11.15 -10.85 Q-12.7 -12.25 -14.7 -13.25 -17.35 -15.55 -17.05 -19.05 -16.8 -21.8 -14.2 -22.65 L-9.6 -22.55 Q-6.45 -22.55 -4.2 -21.35 -1.95 -20.2 -1.95 -18.55 M13.3 -13.1 L13.1 -16.3 14.5 -16.6 M0.95 -12.2 L3.55 -14.25 Q4.1 -14.6 4.75 -14.55 6.15 -14.15 7.0 -12.75 7.4 -12.1 7.15 -11.45 L6.7 -11.0 7.35 -10.35 Q8.3 -9.3 8.55 -8.1 M8.45 -19.1 L8.0 -22.65 M0.2 -17.95 L8.45 -19.1 14.75 -19.35 M6.7 -11.0 L5.95 -10.6 Q5.0 -10.1 3.9 -10.2 L3.2 -6.2 5.15 -4.7 5.75 -4.95 7.7 -5.1 M3.9 -10.2 L3.25 -10.45 Q1.95 -10.9 1.1 -12.05 L0.95 -12.2 0.95 -11.95 0.6 -7.1 1.65 -6.85 3.2 -6.2 M1.2 -3.8 L1.85 -3.35 Q2.9 -2.55 3.15 -1.2 L3.55 -1.75 Q3.55 -2.95 4.05 -3.8 4.5 -4.7 5.15 -4.7 M-1.55 -3.45 Q-0.25 -2.9 0.9 -3.65 L1.2 -3.8 1.65 -6.85 M3.55 0.7 L6.05 2.0 7.1 2.1 8.2 1.75 9.3 0.4 9.9 -0.55 8.2 -1.85 7.45 -2.2 6.45 -1.45 3.55 -1.75 M0.2 -17.95 L0.95 -12.2 M18.05 18.75 L20.45 19.0 22.7 19.05 Q25.2 18.3 25.7 15.6 26.05 13.5 25.05 11.85 L23.75 9.55 Q22.75 7.4 24.2 5.4 25.4 3.65 25.25 1.5 25.2 0.25 24.55 -0.6 23.85 -1.5 22.9 -2.05 20.95 -3.2 18.6 -3.7 M11.75 2.35 L12.65 5.4 15.65 3.9 Q14.65 2.1 12.45 2.15 L11.75 2.35 11.65 -1.15 M11.75 2.35 L10.25 3.9 7.2 6.95 Q8.7 7.1 10.1 6.5 L10.45 6.35 12.65 5.4 M15.5 12.35 L16.05 6.2 Q16.15 4.95 15.65 3.9 M15.5 12.35 L12.45 10.55 12.2 15.15 Q13.7 15.35 15.1 14.65 L15.35 14.45 15.5 12.35 M10.25 3.9 Q8.75 4.85 7.05 4.55 L6.15 4.4 7.2 6.95 7.7 11.35 7.45 19.85 M0.0 5.0 Q-1.65 5.0 -2.8 6.2 -4.0 7.35 -4.0 9.0 -4.0 10.65 -2.8 11.85 -1.65 13.0 0.0 13.0 1.65 13.0 2.85 11.85 4.0 10.65 4.0 9.0 4.0 7.35 2.85 6.2 1.65 5.0 0.0 5.0 M6.15 4.4 Q4.3 3.9 3.35 2.15 L3.0 1.6 Q1.45 2.55 -0.4 2.7 -2.45 2.85 -3.05 0.85 -3.95 -1.95 -1.55 -3.45 -2.5 -3.85 -2.45 -4.95 L-2.55 -6.75 -4.85 -5.8 -5.4 -5.25 Q-6.7 -3.9 -7.15 -2.15 L-7.55 1.35 -7.2 3.15 -6.95 11.0 -6.85 12.15 -6.55 15.9 -4.3 15.9 M3.15 -1.2 L2.95 0.45 3.55 0.7 3.4 1.25 3.0 1.6 M7.7 11.35 L6.5 9.85 6.1 10.15 5.95 11.55 Q5.9 12.05 6.5 12.3 L7.7 11.35 M2.2 18.45 L2.15 16.1 6.45 16.1 M2.55 23.7 L1.55 24.05 Q-1.2 24.65 -3.65 23.25 L-4.45 23.5 Q-5.6 23.85 -6.05 24.85 L-6.2 25.5 -6.35 26.75 Q-6.4 27.3 -7.0 27.25 L-7.85 27.05 M2.55 23.7 L3.85 23.05 4.5 23.4 6.8 22.1 M5.75 19.4 L2.2 18.45 2.55 23.7 M12.2 15.15 L11.0 15.75 10.85 15.9 10.5 14.45 Q9.9 10.55 10.45 6.35 M-0.2 29.55 Q1.65 29.85 2.7 28.45 L3.5 26.9 Q3.7 26.2 3.4 25.65 3.0 25.25 2.6 25.45 L-0.55 26.05 -0.2 29.55 -1.8 29.3 Q-3.0 29.05 -3.5 28.0 -4.2 26.65 -4.0 25.05 L-0.55 26.05 M4.5 23.4 Q5.65 24.15 5.6 25.55 L5.55 27.05 M-1.95 -17.7 L-1.95 -18.5 M-9.75 -18.25 L-1.95 -17.7 -2.5 -10.9 -0.5 -7.15 0.6 -7.1 M-9.6 -22.55 L-9.75 -18.25 -14.6 -18.35 -14.7 -13.25 M-14.6 -18.35 L-14.2 -22.65 M-0.5 -7.15 L-2.55 -6.75 M-10.7 -10.3 L-7.1 -10.75 -6.55 -10.95 Q-5.5 -11.2 -5.9 -12.15 -6.5 -13.65 -8.0 -14.75 -10.4 -13.2 -10.75 -10.35 M-6.55 -10.9 L-6.55 -10.95 M-6.55 -10.9 Q-5.0 -9.4 -4.9 -7.3 L-4.85 -5.8 M-2.5 -10.9 L-6.55 -10.9 M-22.1 20.75 Q-24.2 20.3 -25.3 18.55 L-25.8 17.2 Q-25.95 16.1 -25.55 15.2 -24.7 13.3 -24.35 11.15 -24.15 10.0 -24.25 8.85 -24.3 7.75 -24.75 6.85 -25.8 4.65 -26.25 2.35 -26.55 0.9 -25.55 -0.3 -23.35 -2.9 -19.95 -3.25 M-7.55 1.35 L-8.05 0.6 -8.5 0.7 Q-9.0 1.6 -9.3 2.65 -9.55 3.4 -9.05 3.95 L-7.2 3.15 M-6.95 11.0 L-7.6 9.5 -8.25 10.3 Q-9.0 11.35 -8.4 12.25 L-6.85 12.15 M-15.8 2.6 L-16.05 10.6 Q-16.1 12.05 -15.25 13.05 -14.3 9.8 -10.95 9.2 L-10.0 9.05 -10.25 6.15 Q-13.55 6.15 -15.3 3.4 L-15.8 2.6 -15.0 2.1 Q-13.7 1.4 -12.25 1.8 L-11.7 1.25 Q-10.65 0.25 -10.45 -1.0 M-12.25 1.8 Q-10.9 2.25 -10.65 3.75 L-10.25 6.15 M-15.25 13.05 L-11.25 15.85 M-4.3 18.5 L-5.0 18.5 -6.0 20.0 -6.15 20.05 -6.1 20.05 -6.0 20.05 1.3 20.0 M-0.55 16.5 L-2.0 16.5 M-7.75 16.35 L-8.55 16.2 M-6.55 15.9 L-7.75 16.35 M-6.15 20.05 L-6.1 20.1 -5.6 21.15 Q-4.85 22.6 -3.65 23.25 M-7.1 20.05 L-6.65 20.2 -6.15 20.05 M-10.0 9.05 L-10.0 17.1 M-6.05 24.85 L-8.95 23.5"
              fill="none" stroke="#221100" stroke-linecap="round" stroke-linejoin="round" stroke-width="1.0"/>
    </g>
    <defs>
        <linearGradient gradientTransform="matrix(0.002, 0.0, 0.0, 0.007, -0.6, -12.8)" gradientUnits="userSpaceOnUse"
                        id="gradient0" spreadMethod="pad" x1="-819.2" x2="819.2">
            <stop offset="0.0" stop-color="#ceac7c"/>
            <stop offset="0.4823529411764706" stop-color="#5f5833"/>
            <stop offset="1.0" stop-color="#000000"/>
        </linearGradient>
        <radialGradient cx="0" cy="0" gradientTransform="matrix(0.0049, 0.0, 0.0, 0.0051, 5.85, -7.65)"
                        gradientUnits="userSpaceOnUse" id="gradient1" r="819.2" spreadMethod="pad">
            <stop offset="0.0" stop-color="#c6bc92"/>
            <stop offset="1.0" stop-color="#000000"/>
        </radialGradient>
        <radialGradient cx="0" cy="0" gradientTransform="matrix(0.0044, 0.0, 0.0, 0.0046, 2.35, -8.75)"
                        gradientUnits="userSpaceOnUse" id="gradient2" r="819.2" spreadMethod="pad">
            <stop offset="0.0" stop-color="#5d5c5a"/>
            <stop offset="1.0" stop-color="#000000"/>
        </radialGradient>
        <radialGradient cx="0" cy="0" gradientTransform="matrix(0.004, 0.0, 0.0, 0.0042, -0.3, -5.55)"
                        gradientUnits="userSpaceOnUse" id="gradient3" r="819.2" spreadMethod="pad">
            <stop offset="0.0" stop-color="#a7a4a0"/>
            <stop offset="1.0" stop-color="#000000"/>
        </radialGradient>
        <linearGradient gradientTransform="matrix(0.0, -0.0027, 0.0043, 0.0, 6.4, -0.4)" gradientUnits="userSpaceOnUse"
                        id="gradient4" spreadMethod="pad" x1="-819.2" x2="819.2">
            <stop offset="0.0" stop-color="#000000"/>
            <stop offset="0.47058823529411764" stop-color="#9b9890"/>
            <stop offset="1.0" stop-color="#000000"/>
        </linearGradient>
        <radialGradient cx="0" cy="0" gradientTransform="matrix(0.0154, 0.0, 0.0, 0.0159, 17.0, 7.7)"
                        gradientUnits="userSpaceOnUse" id="gradient5" r="819.2" spreadMethod="pad">
            <stop offset="0.21568627450980393" stop-color="#d4d0b7"/>
            <stop offset="0.5294117647058824" stop-color="#998959"/>
            <stop offset="1.0" stop-color="#000000"/>
        </radialGradient>
        <linearGradient gradientTransform="matrix(-0.0023, 0.0, 0.0, -0.0159, 27.1, 8.55)"
                        gradientUnits="userSpaceOnUse" id="gradient6" spreadMethod="pad" x1="-819.2" x2="819.2">
            <stop offset="0.0" stop-color="#265394"/>
            <stop offset="1.0" stop-color="#bce8e4"/>
        </linearGradient>
        <radialGradient cx="0" cy="0" gradientTransform="matrix(0.0083, 0.0, 0.0, 0.0086, 12.15, 9.0)"
                        gradientUnits="userSpaceOnUse" id="gradient7" r="819.2" spreadMethod="pad">
            <stop offset="0.0" stop-color="#b6bbc2"/>
            <stop offset="1.0" stop-color="#000000"/>
        </radialGradient>
        <linearGradient gradientTransform="matrix(0.0, -0.0049, 0.0078, 0.0, -0.75, 27.75)"
                        gradientUnits="userSpaceOnUse" id="gradient8" spreadMethod="pad" x1="-819.2" x2="819.2">
            <stop offset="0.0" stop-color="#afa481"/>
            <stop offset="1.0" stop-color="#41331b"/>
        </linearGradient>
        <linearGradient gradientTransform="matrix(0.0023, 0.0, 0.0, 0.0163, -27.05, 8.25)"
                        gradientUnits="userSpaceOnUse" id="gradient9" spreadMethod="pad" x1="-819.2" x2="819.2">
            <stop offset="0.0" stop-color="#265394"/>
            <stop offset="1.0" stop-color="#bce8e4"/>
        </linearGradient>
        <radialGradient cx="0" cy="0" gradientTransform="matrix(0.0167, 0.0, 0.0, 0.0173, -17.2, 8.1)"
                        gradientUnits="userSpaceOnUse" id="gradient10" r="819.2" spreadMethod="pad">
            <stop offset="0.21568627450980393" stop-color="#d4d0b7"/>
            <stop offset="0.5294117647058824" stop-color="#998959"/>
            <stop offset="1.0" stop-color="#000000"/>
        </radialGradient>
        <radialGradient cx="0" cy="0" gradientTransform="matrix(0.0063, 0.0, 0.0, 0.0065, -7.65, -7.2)"
                        gradientUnits="userSpaceOnUse" id="gradient11" r="819.2" spreadMethod="pad">
            <stop offset="0.0" stop-color="#c6bc92"/>
            <stop offset="1.0" stop-color="#000000"/>
        </radialGradient>
        <radialGradient cx="0" cy="0" gradientTransform="matrix(0.0064, 0.0, 0.0, 0.0066, -11.85, 12.05)"
                        gradientUnits="userSpaceOnUse" id="gradient12" r="819.2" spreadMethod="pad">
            <stop offset="0.0" stop-color="#b6bbc2"/>
            <stop offset="1.0" stop-color="#000000"/>
        </radialGradient>
        <radialGradient cx="0" cy="0" gradientTransform="matrix(0.0049, 0.0, 0.0, 0.0051, -12.15, 3.95)"
                        gradientUnits="userSpaceOnUse" id="gradient13" r="819.2" spreadMethod="pad">
            <stop offset="0.0" stop-color="#b6bbc2"/>
            <stop offset="1.0" stop-color="#000000"/>
        </radialGradient>
        <radialGradient cx="0" cy="0" gradientTransform="matrix(0.0073, 0.0, 0.0, 0.0075, -13.4, 8.2)"
                        gradientUnits="userSpaceOnUse" id="gradient14" r="819.2" spreadMethod="pad">
            <stop offset="0.0" stop-color="#b6bbc2"/>
            <stop offset="1.0" stop-color="#000000"/>
        </radialGradient>
        <linearGradient gradientTransform="matrix(0.0088, 0.0, 0.0, 0.0189, 0.05, 8.7)" gradientUnits="userSpaceOnUse"
                        id="gradient15" spreadMethod="pad" x1="-819.2" x2="819.2">
            <stop offset="0.0" stop-color="#d6d9d5"/>
            <stop offset="0.3137254901960784" stop-color="#c8a875"/>
            <stop offset="0.6941176470588235" stop-color="#c8a875"/>
            <stop offset="1.0" stop-color="#70663f"/>
        </linearGradient>
    </defs>
</svg>
