<?xml version="1.0" encoding="UTF-8" standalone="no"?>
<svg xmlns:ffdec="https://www.free-decompiler.com/flash"
     ffdec:objectType="shape" height="33.95px" width="22.0px" xmlns="http://www.w3.org/2000/svg">
    <g transform="matrix(1.0, 0.0, 0.0, 1.0, 11.0, 16.95)">
        <path d="M4.45 -6.65 L5.65 -8.1 Q8.45 -9.3 9.65 -7.0 L10.15 -5.85 Q11.1 -3.55 9.9 -1.45 L9.3 -0.55 8.8 0.05 7.95 0.7 Q6.9 1.3 5.7 1.0 L5.2 0.95 4.75 0.3 4.6 -0.25 Q4.5 -1.1 4.65 -1.85 L4.7 -1.9 Q4.75 -2.1 5.0 -2.1 5.95 -2.15 5.85 -1.2 5.8 -0.25 6.65 -0.1 7.45 0.05 8.0 -0.35 8.35 -0.65 8.35 -1.05 L8.55 -2.2 Q9.5 -2.1 9.7 -2.95 L9.9 -4.45 Q9.95 -5.35 9.4 -5.8 L9.15 -5.95 Q8.7 -6.15 8.65 -6.55 8.55 -7.25 7.85 -7.2 L7.65 -7.2 6.25 -7.0 Q5.5 -6.9 5.0 -6.35 L4.15 -6.3 4.45 -6.65 M-5.2 0.95 L-5.65 1.0 Q-6.95 1.3 -7.95 0.7 L-8.8 0.05 -9.3 -0.55 -9.9 -1.45 Q-11.1 -3.55 -10.15 -5.85 L-9.65 -7.0 Q-8.5 -9.3 -5.65 -8.1 L-4.4 -6.65 -4.15 -6.3 -4.95 -6.35 Q-5.5 -6.9 -6.25 -7.0 L-7.65 -7.2 -7.85 -7.2 Q-8.55 -7.25 -8.65 -6.55 -8.7 -6.15 -9.1 -5.95 L-9.4 -5.8 Q-9.95 -5.35 -9.9 -4.45 L-9.7 -2.95 Q-9.55 -2.1 -8.55 -2.2 L-8.35 -1.05 Q-8.35 -0.65 -8.0 -0.35 -7.45 0.05 -6.65 -0.1 -5.85 -0.25 -5.85 -1.2 -5.95 -2.15 -5.0 -2.1 L-4.65 -1.9 -4.65 -1.85 Q-4.5 -1.1 -4.6 -0.25 L-4.7 0.3 -5.2 0.95"
              fill="#88c0e8" fill-rule="evenodd" stroke="none"/>
        <path d="M4.1 1.5 L3.85 1.85 Q3.95 2.95 3.1 3.4 L1.75 1.45 1.8 0.4 1.8 -0.25 1.7 -1.55 Q1.65 -2.4 1.75 -3.05 2.05 -4.8 3.5 -5.6 L3.8 -5.95 4.15 -6.3 5.0 -6.35 Q5.5 -6.9 6.25 -7.0 L7.65 -7.2 7.85 -7.2 Q8.0 -6.4 7.7 -5.65 7.3 -4.65 6.75 -5.4 L6.45 -5.85 5.95 -5.8 5.55 -5.15 4.6 -5.15 4.65 -4.85 4.5 -3.1 3.15 -3.0 2.45 -3.05 2.4 -1.6 2.4 -0.25 3.05 -0.25 4.6 -0.25 4.75 0.3 3.25 0.4 2.4 0.4 2.4 1.5 2.65 1.5 4.1 1.5 M-1.75 1.45 Q-2.65 2.45 -3.05 3.4 -3.95 2.95 -3.85 1.85 L-4.1 1.5 -2.65 1.5 -2.4 1.5 -2.4 0.4 -3.2 0.4 -4.7 0.3 -4.6 -0.25 -3.0 -0.25 -2.4 -0.25 -2.4 -1.6 -2.45 -3.05 -3.15 -3.0 -4.5 -3.1 -4.6 -4.85 -4.6 -5.15 -5.55 -5.15 -5.95 -5.8 -6.45 -5.85 -6.75 -5.4 Q-7.3 -4.65 -7.7 -5.65 -8.0 -6.4 -7.85 -7.2 L-7.65 -7.2 -6.25 -7.0 Q-5.5 -6.9 -4.95 -6.35 L-4.15 -6.3 -3.8 -5.95 -3.5 -5.6 Q-2.05 -4.8 -1.75 -3.05 -1.65 -2.4 -1.7 -1.55 L-1.8 -0.25 -1.8 0.4 -1.75 1.45 M4.55 -3.1 Q4.6 -3.45 4.95 -3.6 5.6 -4.0 5.85 -3.05 5.9 -2.8 6.1 -2.7 6.55 -2.55 6.75 -3.2 6.95 -4.25 7.7 -3.6 L7.95 -3.25 Q8.0 -2.45 8.55 -2.2 L8.35 -1.05 Q8.35 -0.65 8.0 -0.35 7.45 0.05 6.65 -0.1 5.8 -0.25 5.85 -1.2 5.95 -2.15 5.0 -2.1 4.75 -2.1 4.7 -1.9 L4.55 -2.75 4.55 -3.1 M-8.55 -2.2 Q-8.0 -2.45 -7.9 -3.25 L-7.7 -3.6 Q-6.95 -4.25 -6.7 -3.2 -6.55 -2.55 -6.1 -2.7 L-5.8 -3.05 Q-5.6 -4.0 -4.95 -3.6 L-4.5 -3.1 -4.55 -2.75 -4.65 -1.9 -5.0 -2.1 Q-5.95 -2.15 -5.85 -1.2 -5.85 -0.25 -6.65 -0.1 -7.45 0.05 -8.0 -0.35 -8.35 -0.65 -8.35 -1.05 L-8.55 -2.2"
              fill="#283040" fill-rule="evenodd" stroke="none"/>
        <path d="M5.2 0.95 Q4.55 0.9 4.1 1.5 L2.65 1.5 2.4 1.5 2.4 0.4 3.25 0.4 4.75 0.3 5.2 0.95 M-4.1 1.5 Q-4.55 0.9 -5.2 0.95 L-4.7 0.3 -3.2 0.4 -2.4 0.4 -2.4 1.5 -2.65 1.5 -4.1 1.5 M4.5 -3.1 L4.55 -3.1 4.55 -2.75 4.7 -1.9 4.65 -1.85 Q4.5 -1.1 4.6 -0.25 L3.05 -0.25 2.4 -0.25 2.4 -1.6 2.45 -3.05 3.15 -3.0 4.5 -3.1 M-4.5 -3.1 L-3.15 -3.0 -2.45 -3.05 -2.4 -1.6 -2.4 -0.25 -3.0 -0.25 -4.6 -0.25 Q-4.5 -1.1 -4.65 -1.85 L-4.65 -1.9 -4.55 -2.75 -4.5 -3.1"
              fill="#d8e0d8" fill-rule="evenodd" stroke="none"/>
        <path d="M1.25 -6.35 L1.3 -8.0 1.35 -9.55 Q1.4 -10.55 0.5 -10.6 L0.3 -12.15 0.1 -12.45 0.0 -12.5 -0.1 -12.45 -0.3 -12.15 -0.5 -10.6 Q-1.4 -10.55 -1.3 -9.55 L-1.25 -8.0 -1.25 -6.35 -1.45 -6.35 -1.9 -6.4 -2.1 -8.3 Q-2.2 -10.15 -1.75 -11.6 L-1.45 -12.5 -0.65 -15.45 0.0 -16.95 0.65 -15.45 Q1.1 -13.45 1.75 -11.6 2.4 -9.45 1.9 -6.4 L1.5 -6.35 1.25 -6.35"
              fill="url(#gradient0)" fill-rule="evenodd" stroke="none"/>
        <path d="M-1.25 -6.35 L-1.25 -8.0 -1.3 -9.55 Q-1.4 -10.55 -0.5 -10.6 L-0.3 -12.15 -0.1 -12.45 0.0 -12.5 0.1 -12.45 0.3 -12.15 0.5 -10.6 Q1.4 -10.55 1.35 -9.55 L1.3 -8.0 1.25 -6.35 Q0.75 -6.4 0.65 -6.9 0.6 -7.55 0.0 -7.65 -0.6 -7.55 -0.65 -6.9 -0.75 -6.4 -1.25 -6.35"
              fill="url(#gradient1)" fill-rule="evenodd" stroke="none"/>
        <path d="M7.85 -7.2 Q8.55 -7.25 8.65 -6.55 8.7 -6.15 9.15 -5.95 L9.4 -5.8 Q9.95 -5.35 9.9 -4.45 L9.7 -2.95 Q9.5 -2.1 8.55 -2.2 8.0 -2.45 7.95 -3.25 L7.7 -3.6 Q6.95 -4.25 6.75 -3.2 6.55 -2.55 6.1 -2.7 5.9 -2.8 5.85 -3.05 5.6 -4.0 4.95 -3.6 4.6 -3.45 4.55 -3.1 L4.5 -3.1 4.65 -4.85 4.6 -5.15 5.55 -5.15 5.95 -5.8 6.45 -5.85 6.75 -5.4 Q7.3 -4.65 7.7 -5.65 8.0 -6.4 7.85 -7.2 M-7.85 -7.2 Q-8.0 -6.4 -7.7 -5.65 -7.3 -4.65 -6.75 -5.4 L-6.45 -5.85 -5.95 -5.8 -5.55 -5.15 -4.6 -5.15 -4.6 -4.85 -4.5 -3.1 -4.95 -3.6 Q-5.6 -4.0 -5.8 -3.05 L-6.1 -2.7 Q-6.55 -2.55 -6.7 -3.2 -6.95 -4.25 -7.7 -3.6 L-7.9 -3.25 Q-8.0 -2.45 -8.55 -2.2 -9.55 -2.1 -9.7 -2.95 L-9.9 -4.45 Q-9.95 -5.35 -9.4 -5.8 L-9.1 -5.95 Q-8.7 -6.15 -8.65 -6.55 -8.55 -7.25 -7.85 -7.2"
              fill="#7e8a82" fill-rule="evenodd" stroke="none"/>
        <path d="M1.25 -6.35 L1.5 -6.35 1.9 -6.4 2.4 -6.3 Q2.95 -6.15 3.5 -5.6 2.05 -4.8 1.75 -3.05 1.65 -2.4 1.7 -1.55 L1.8 -0.25 1.8 0.4 1.75 1.45 1.6 3.15 Q1.3 5.4 1.5 7.7 2.15 7.6 2.4 8.05 3.2 10.2 1.8 12.35 0.5 14.25 0.0 17.0 -0.5 14.25 -1.8 12.35 -3.2 10.2 -2.35 8.05 -2.2 7.6 -1.5 7.7 -1.3 5.4 -1.6 3.15 L-1.75 1.45 -1.8 0.4 -1.8 -0.25 -1.7 -1.55 Q-1.65 -2.4 -1.75 -3.05 -2.05 -4.8 -3.5 -5.6 -2.95 -6.15 -2.4 -6.3 L-1.9 -6.4 -1.45 -6.35 -1.25 -6.35 Q-0.75 -6.4 -0.65 -6.9 -0.6 -7.55 0.0 -7.65 0.6 -7.55 0.65 -6.9 0.75 -6.4 1.25 -6.35"
              fill="url(#gradient2)" fill-rule="evenodd" stroke="none"/>
        <path d="M-1.45 -12.5 L-1.75 -11.6 Q-2.2 -10.15 -2.1 -8.3 -2.8 -8.1 -3.0 -8.9 L-3.15 -9.4 -3.65 -10.25 -3.7 -12.05 Q-3.7 -12.8 -2.85 -12.7 L-1.45 -12.5 M8.8 0.05 Q9.25 0.55 10.05 0.5 10.95 0.4 10.9 1.45 L10.95 2.95 Q11.15 3.9 10.25 3.85 L9.8 3.75 Q9.15 3.35 9.0 2.7 L8.7 1.65 Q8.55 1.0 7.95 0.7 L8.8 0.05 M-7.95 0.7 Q-8.55 1.0 -8.7 1.65 L-8.95 2.7 Q-9.15 3.35 -9.8 3.75 L-10.25 3.85 Q-11.15 3.9 -10.95 2.95 L-10.85 1.45 Q-10.95 0.4 -10.05 0.5 -9.25 0.55 -8.8 0.05 L-7.95 0.7"
              fill="#c07018" fill-rule="evenodd" stroke="none"/>
        <path d="M2.4 -6.3 L2.4 -7.55 Q2.35 -8.3 2.75 -8.75 L2.9 -8.9 Q2.5 -9.2 2.5 -9.85 L2.65 -9.95 2.65 -11.2 Q1.75 -11.5 1.95 -12.25 L2.2 -12.4 2.55 -12.4 2.5 -13.05 2.4 -14.65 Q2.25 -15.7 3.3 -15.35 3.65 -14.75 3.6 -13.85 L3.5 -12.3 3.65 -12.3 Q4.5 -12.3 4.15 -11.35 L3.85 -11.3 3.55 -11.25 Q3.5 -10.7 3.6 -10.05 4.55 -9.9 3.6 -9.1 4.4 -9.1 4.45 -8.2 L4.45 -6.65 4.15 -6.3 3.8 -5.95 3.5 -5.6 Q2.95 -6.15 2.4 -6.3"
              fill="#f8d868" fill-rule="evenodd" stroke="none"/>
    </g>
    <defs>
        <linearGradient gradientTransform="matrix(-0.0026, 0.0, 0.0, -0.0065, 0.0, -11.65)"
                        gradientUnits="userSpaceOnUse" id="gradient0" spreadMethod="pad" x1="-819.2" x2="819.2">
            <stop offset="0.0" stop-color="#343f46"/>
            <stop offset="0.5058823529411764" stop-color="#d8e0d8"/>
            <stop offset="1.0" stop-color="#343f46"/>
        </linearGradient>
        <radialGradient cx="0" cy="0" gradientTransform="matrix(0.0056, 0.0, 0.0, 0.0056, 0.0, -10.35)"
                        gradientUnits="userSpaceOnUse" id="gradient1" r="819.2" spreadMethod="pad">
            <stop offset="0.0" stop-color="#ffffff"/>
            <stop offset="0.28627450980392155" stop-color="#ac83e9"/>
        </radialGradient>
        <linearGradient gradientTransform="matrix(-0.0043, 0.0, 0.0, -0.0151, 0.0, 4.65)" gradientUnits="userSpaceOnUse"
                        id="gradient2" spreadMethod="pad" x1="-819.2" x2="819.2">
            <stop offset="0.0" stop-color="#683010"/>
            <stop offset="0.14901960784313725" stop-color="#d0b080"/>
            <stop offset="0.38823529411764707" stop-color="#d07800"/>
            <stop offset="0.5058823529411764" stop-color="#f8d868"/>
            <stop offset="0.6274509803921569" stop-color="#c07018"/>
            <stop offset="1.0" stop-color="#502000"/>
        </linearGradient>
    </defs>
</svg>
