<?xml version="1.0" encoding="UTF-8" standalone="no"?>
<svg xmlns:ffdec="https://www.free-decompiler.com/flash"
     ffdec:objectType="shape" height="37.35px" width="58.8px" xmlns="http://www.w3.org/2000/svg">
    <g transform="matrix(1.0, 0.0, 0.0, 1.0, 29.4, 15.65)">
        <path d="M12.2 -9.9 L13.35 -9.5 Q17.2 -8.05 21.4 -8.3 L21.65 -4.7 Q22.05 -1.6 20.3 0.6 19.65 1.35 19.3 2.3 17.25 7.8 18.15 13.95 L12.9 14.1 12.8 11.8 11.7 0.55 11.9 0.0 Q12.9 -4.85 12.2 -9.9 M-12.85 14.1 L-18.1 13.95 Q-17.25 7.8 -19.25 2.3 -19.6 1.35 -20.25 0.6 -22.05 -1.6 -21.6 -4.7 L-21.4 -8.3 Q-17.2 -8.05 -13.3 -9.5 L-12.2 -9.9 Q-12.9 -4.85 -11.85 0.0 L-11.65 0.55 -12.75 11.8 -12.85 14.1 M15.1 -4.4 Q14.2 -3.55 14.2 -2.3 14.2 -1.05 15.1 -0.15 15.95 0.7 17.2 0.7 18.45 0.7 19.3 -0.15 L19.35 -0.15 Q20.2 -1.05 20.2 -2.3 20.2 -3.55 19.35 -4.4 18.45 -5.3 17.2 -5.3 15.95 -5.3 15.1 -4.4 M-20.15 -2.3 Q-20.15 -1.05 -19.3 -0.15 -18.45 0.7 -17.15 0.7 -15.9 0.7 -15.05 -0.15 -14.2 -1.05 -14.15 -2.3 -14.2 -3.55 -15.05 -4.4 -15.9 -5.3 -17.15 -5.3 -18.45 -5.3 -19.3 -4.4 -20.15 -3.55 -20.15 -2.3 M-15.2 4.9 Q-16.05 4.9 -16.65 5.5 -17.25 6.05 -17.2 6.9 -17.25 7.75 -16.65 8.3 -16.05 8.9 -15.2 8.9 -14.4 8.9 -13.8 8.3 -13.25 7.75 -13.2 6.9 -13.25 6.05 -13.8 5.5 -14.4 4.9 -15.2 4.9 M16.7 5.5 Q16.1 4.9 15.25 4.9 14.4 4.9 13.85 5.5 13.25 6.05 13.25 6.9 13.25 7.75 13.85 8.3 14.4 8.9 15.25 8.9 16.1 8.9 16.7 8.3 17.25 7.75 17.25 6.9 17.25 6.05 16.7 5.5"
              fill="#502000" fill-rule="evenodd" stroke="none"/>
        <path d="M0.4 -13.5 L0.8 -13.45 Q3.05 -13.0 4.6 -11.05 L4.45 -10.2 Q4.3 -8.85 4.6 -7.35 3.25 -5.25 0.65 -5.35 L0.2 -5.4 -0.2 -5.4 -0.65 -5.35 Q-3.25 -5.25 -4.55 -7.35 -4.3 -8.85 -4.45 -10.2 L-4.55 -11.05 Q-3.0 -13.0 -0.75 -13.45 L-0.35 -13.5 0.05 -13.55 0.4 -13.5"
              fill="#d09828" fill-rule="evenodd" stroke="none"/>
        <path d="M19.3 -0.15 Q18.45 0.7 17.2 0.7 15.95 0.7 15.1 -0.15 14.2 -1.05 14.2 -2.3 14.2 -3.55 15.1 -4.4 L19.3 -0.15 15.1 -4.4 Q15.95 -5.3 17.2 -5.3 18.45 -5.3 19.35 -4.4 20.2 -3.55 20.2 -2.3 20.2 -1.05 19.35 -0.15 L19.3 -0.15 M-20.15 -2.3 Q-20.15 -3.55 -19.3 -4.4 -18.45 -5.3 -17.15 -5.3 -15.9 -5.3 -15.05 -4.4 -14.2 -3.55 -14.15 -2.3 -14.2 -1.05 -15.05 -0.15 -15.9 0.7 -17.15 0.7 -18.45 0.7 -19.3 -0.15 -20.15 -1.05 -20.15 -2.3 M-19.3 -0.15 L-15.05 -4.4 -19.3 -0.15 M-15.2 4.9 Q-14.4 4.9 -13.8 5.5 -13.25 6.05 -13.2 6.9 -13.25 7.75 -13.8 8.3 -14.4 8.9 -15.2 8.9 -16.05 8.9 -16.65 8.3 -17.25 7.75 -17.2 6.9 -17.25 6.05 -16.65 5.5 -16.05 4.9 -15.2 4.9 M-16.65 5.5 L-13.8 8.3 -16.65 5.5 M13.85 8.3 Q13.25 7.75 13.25 6.9 13.25 6.05 13.85 5.5 14.4 4.9 15.25 4.9 16.1 4.9 16.7 5.5 L13.85 8.3 16.7 5.5 Q17.25 6.05 17.25 6.9 17.25 7.75 16.7 8.3 16.1 8.9 15.25 8.9 14.4 8.9 13.85 8.3"
              fill="#98a880" fill-rule="evenodd" stroke="none"/>
        <path d="M-0.35 10.8 Q-3.85 10.85 -3.9 6.9 L-3.7 3.9 Q-2.95 6.65 -0.35 8.05 L-0.35 10.8 M0.35 10.8 L0.35 8.1 Q3.0 6.8 3.75 4.0 L3.95 6.9 Q3.85 10.85 0.35 10.8"
              fill="#7878a0" fill-rule="evenodd" stroke="none"/>
        <path d="M6.5 14.7 L5.5 14.95 Q5.5 14.05 4.65 13.4 3.75 12.7 2.6 12.7 L3.1 12.25 Q5.0 10.5 6.3 8.35 L6.35 8.35 6.5 14.7 M-5.45 14.95 L-6.45 14.7 -6.3 8.35 Q-5.0 10.5 -3.1 12.25 L-2.55 12.7 Q-3.75 12.7 -4.6 13.4 -5.45 14.05 -5.45 14.95"
              fill="#101010" fill-rule="evenodd" stroke="none"/>
        <path d="M4.6 -11.05 Q5.25 -12.5 5.3 -14.05 L5.35 -14.15 11.0 -13.85 Q11.95 -12.45 12.15 -10.85 L12.2 -9.9 Q12.9 -4.85 11.9 0.0 L11.7 0.55 Q8.85 3.2 6.5 0.45 L6.2 0.05 Q5.0 -2.85 4.8 -6.15 L4.6 -7.35 Q4.3 -8.85 4.45 -10.2 L4.6 -11.05"
              fill="url(#gradient0)" fill-rule="evenodd" stroke="none"/>
        <path d="M4.6 -7.35 L4.8 -6.15 Q5.0 -2.85 6.2 0.05 L6.0 1.3 Q5.6 4.8 6.35 8.3 L6.3 8.35 Q5.0 10.5 3.1 12.25 L2.6 12.7 1.4 13.2 0.0 13.5 -1.35 13.2 -2.55 12.7 -3.1 12.25 Q-5.0 10.5 -6.3 8.35 L-6.3 8.3 Q-5.6 4.8 -6.0 1.3 L-6.15 0.05 Q-5.0 -2.85 -4.75 -6.15 L-4.55 -7.35 Q-3.25 -5.25 -0.65 -5.35 L-0.2 -5.4 0.2 -5.4 0.65 -5.35 Q3.25 -5.25 4.6 -7.35 M-0.35 10.8 L-0.35 8.05 Q-2.95 6.65 -3.7 3.9 L-3.9 6.9 Q-3.85 10.85 -0.35 10.8 M0.35 10.8 Q3.85 10.85 3.95 6.9 L3.75 4.0 Q3.0 6.8 0.35 8.1 L0.35 10.8"
              fill="url(#gradient1)" fill-rule="evenodd" stroke="none"/>
        <path d="M21.4 -8.3 L21.25 -15.15 26.45 -14.9 Q27.2 -14.3 27.4 -13.25 29.0 -4.7 28.9 3.9 28.9 7.55 27.8 11.05 26.1 16.75 20.95 19.55 L19.0 19.6 18.85 18.95 18.4 16.65 18.15 13.95 Q17.25 7.8 19.3 2.3 19.65 1.35 20.3 0.6 22.05 -1.6 21.65 -4.7 L21.4 -8.3"
              fill="url(#gradient2)" fill-rule="evenodd" stroke="none"/>
        <path d="M12.9 14.1 L12.35 18.6 12.25 19.1 11.05 18.55 Q10.05 18.05 9.4 17.2 L9.2 17.1 8.5 17.25 7.25 18.1 6.5 14.7 6.35 8.35 6.35 8.3 Q5.6 4.8 6.0 1.3 L6.2 0.05 6.5 0.45 Q8.85 3.2 11.7 0.55 L12.8 11.8 12.9 14.1"
              fill="url(#gradient3)" fill-rule="evenodd" stroke="none"/>
        <path d="M5.5 14.95 Q4.45 20.05 0.0 21.2 -4.45 20.05 -5.45 14.95 -5.45 14.05 -4.6 13.4 -3.75 12.7 -2.55 12.7 L-1.35 13.2 -1.0 13.45 0.0 13.5 1.05 13.45 1.4 13.2 2.6 12.7 Q3.75 12.7 4.65 13.4 5.5 14.05 5.5 14.95"
              fill="url(#gradient4)" fill-rule="evenodd" stroke="none"/>
        <path d="M-18.1 13.95 L-18.35 16.65 -18.8 18.95 -18.95 19.6 -20.9 19.55 Q-26.05 16.75 -27.8 11.05 -28.85 7.55 -28.9 3.9 -28.95 -4.7 -27.4 -13.25 -27.2 -14.3 -26.45 -14.9 L-21.2 -15.15 -21.4 -8.3 -21.6 -4.7 Q-22.05 -1.6 -20.25 0.6 -19.6 1.35 -19.25 2.3 -17.25 7.8 -18.1 13.95"
              fill="url(#gradient5)" fill-rule="evenodd" stroke="none"/>
        <path d="M-12.2 -9.9 L-12.1 -10.85 Q-11.9 -12.45 -10.95 -13.85 L-5.35 -14.15 -5.3 -14.05 Q-5.25 -12.5 -4.55 -11.05 L-4.45 -10.2 Q-4.3 -8.85 -4.55 -7.35 L-4.75 -6.15 Q-5.0 -2.85 -6.15 0.05 L-6.45 0.45 Q-8.85 3.2 -11.65 0.55 L-11.85 0.0 Q-12.9 -4.85 -12.2 -9.9"
              fill="url(#gradient6)" fill-rule="evenodd" stroke="none"/>
        <path d="M-6.45 14.7 L-7.2 18.1 Q-7.8 17.6 -8.45 17.25 -8.75 17.0 -9.2 17.1 L-9.35 17.2 -11.0 18.55 -12.2 19.1 -12.35 18.6 -12.85 14.1 -12.75 11.8 -11.65 0.55 Q-8.85 3.2 -6.45 0.45 L-6.15 0.05 -6.0 1.3 Q-5.6 4.8 -6.3 8.3 L-6.3 8.35 -6.45 14.7"
              fill="url(#gradient7)" fill-rule="evenodd" stroke="none"/>
        <path d="M-0.35 -13.5 L-0.3 -13.55 0.05 -13.55 0.3 -13.55 0.4 -13.5 0.8 -13.45 Q3.05 -13.0 4.6 -11.05 5.25 -12.5 5.3 -14.05 L5.35 -14.15 11.0 -13.85 Q11.95 -12.45 12.15 -10.85 L12.2 -9.9 13.35 -9.5 Q17.2 -8.05 21.4 -8.3 L21.25 -15.15 26.45 -14.9 Q27.2 -14.3 27.4 -13.25 29.0 -4.7 28.9 3.9 28.9 7.55 27.8 11.05 26.1 16.75 20.95 19.55 L19.0 19.6 18.85 18.95 18.4 16.65 18.15 13.95 12.9 14.1 12.35 18.6 12.25 19.1 11.05 18.55 Q10.05 18.05 9.4 17.2 L9.2 17.1 8.5 17.25 7.25 18.1 6.5 14.7 5.5 14.95 Q4.45 20.05 0.0 21.2 -4.45 20.05 -5.45 14.95 L-6.45 14.7 -7.2 18.1 Q-7.8 17.6 -8.45 17.25 -8.75 17.0 -9.2 17.1 L-9.35 17.2 -11.0 18.55 -12.2 19.1 -12.35 18.6 -12.85 14.1 -18.1 13.95 -18.35 16.65 -18.8 18.95 -18.95 19.6 -20.9 19.55 Q-26.05 16.75 -27.8 11.05 -28.85 7.55 -28.9 3.9 -28.95 -4.7 -27.4 -13.25 -27.2 -14.3 -26.45 -14.9 L-21.2 -15.15 -21.4 -8.3 Q-17.2 -8.05 -13.3 -9.5 L-12.2 -9.9 -12.1 -10.85 Q-11.9 -12.45 -10.95 -13.85 L-5.35 -14.15 -5.3 -14.05 Q-5.25 -12.5 -4.55 -11.05 -3.0 -13.0 -0.75 -13.45 L-0.35 -13.5 0.05 -13.55 0.4 -13.5 M4.6 -11.05 L4.45 -10.2 Q4.3 -8.85 4.6 -7.35 L4.8 -6.15 Q5.0 -2.85 6.2 0.05 L6.5 0.45 Q8.85 3.2 11.7 0.55 L11.9 0.0 Q12.9 -4.85 12.2 -9.9 M4.6 -7.35 Q3.25 -5.25 0.65 -5.35 L0.2 -5.4 -0.2 -5.4 -0.65 -5.35 Q-3.25 -5.25 -4.55 -7.35 L-4.75 -6.15 Q-5.0 -2.85 -6.15 0.05 L-6.0 1.3 Q-5.6 4.8 -6.3 8.3 L-6.3 8.35 Q-5.0 10.5 -3.1 12.25 L-2.55 12.7 -1.35 13.2 0.0 13.5 1.4 13.2 2.6 12.7 3.1 12.25 Q5.0 10.5 6.3 8.35 L6.35 8.3 Q5.6 4.8 6.0 1.3 L6.2 0.05 M15.1 -4.4 Q14.2 -3.55 14.2 -2.3 14.2 -1.05 15.1 -0.15 15.95 0.7 17.2 0.7 18.45 0.7 19.3 -0.15 L15.1 -4.4 Q15.95 -5.3 17.2 -5.3 18.45 -5.3 19.35 -4.4 20.2 -3.55 20.2 -2.3 20.2 -1.05 19.35 -0.15 L19.3 -0.15 M21.4 -8.3 L21.65 -4.7 Q22.05 -1.6 20.3 0.6 19.65 1.35 19.3 2.3 17.25 7.8 18.15 13.95 M-18.1 13.95 Q-17.25 7.8 -19.25 2.3 -19.6 1.35 -20.25 0.6 -22.05 -1.6 -21.6 -4.7 L-21.4 -8.3 M-20.15 -2.3 Q-20.15 -3.55 -19.3 -4.4 -18.45 -5.3 -17.15 -5.3 -15.9 -5.3 -15.05 -4.4 -14.2 -3.55 -14.15 -2.3 -14.2 -1.05 -15.05 -0.15 -15.9 0.7 -17.15 0.7 -18.45 0.7 -19.3 -0.15 -20.15 -1.05 -20.15 -2.3 M-15.05 -4.4 L-19.3 -0.15 M-4.55 -7.35 Q-4.3 -8.85 -4.45 -10.2 L-4.55 -11.05 M-6.15 0.05 L-6.45 0.45 Q-8.85 3.2 -11.65 0.55 L-12.75 11.8 -12.85 14.1 M-6.3 8.3 L-6.3 8.35 -6.45 14.7 M-0.35 10.8 Q-3.85 10.85 -3.9 6.9 L-3.7 3.9 Q-2.95 6.65 -0.35 8.05 L-0.35 10.8 M-12.2 -9.9 Q-12.9 -4.85 -11.85 0.0 L-11.65 0.55 M-15.2 4.9 Q-14.4 4.9 -13.8 5.5 -13.25 6.05 -13.2 6.9 -13.25 7.75 -13.8 8.3 -14.4 8.9 -15.2 8.9 -16.05 8.9 -16.65 8.3 -17.25 7.75 -17.2 6.9 -17.25 6.05 -16.65 5.5 -16.05 4.9 -15.2 4.9 M-13.8 8.3 L-16.65 5.5 M-2.55 12.7 Q-3.75 12.7 -4.6 13.4 -5.45 14.05 -5.45 14.95 M-1.35 13.2 L-1.0 13.45 0.0 13.5 1.05 13.45 1.4 13.2 M16.7 5.5 Q16.1 4.9 15.25 4.9 14.4 4.9 13.85 5.5 13.25 6.05 13.25 6.9 13.25 7.75 13.85 8.3 L16.7 5.5 Q17.25 6.05 17.25 6.9 17.25 7.75 16.7 8.3 16.1 8.9 15.25 8.9 14.4 8.9 13.85 8.3 M12.9 14.1 L12.8 11.8 11.7 0.55 M0.35 10.8 Q3.85 10.85 3.95 6.9 L3.75 4.0 Q3.0 6.8 0.35 8.1 L0.35 10.8 M6.35 8.35 L6.35 8.3 M5.5 14.95 Q5.5 14.05 4.65 13.4 3.75 12.7 2.6 12.7 M6.35 8.35 L6.5 14.7"
              fill="none" stroke="#000000" stroke-linecap="round" stroke-linejoin="round" stroke-width="1.0"/>
    </g>
    <defs>
        <radialGradient cx="0" cy="0" gradientTransform="matrix(-0.0062, 0.0, 0.0, 0.0121, 9.5, -8.0)"
                        gradientUnits="userSpaceOnUse" id="gradient0" r="819.2" spreadMethod="pad">
            <stop offset="0.0" stop-color="#d8c8a0"/>
            <stop offset="0.48627450980392156" stop-color="#c07018"/>
            <stop offset="1.0" stop-color="#101010"/>
            <stop offset="1.0" stop-color="#705000"/>
        </radialGradient>
        <linearGradient gradientTransform="matrix(0.0077, 0.0, 0.0, 0.0127, 0.0, 3.05)" gradientUnits="userSpaceOnUse"
                        id="gradient1" spreadMethod="pad" x1="-819.2" x2="819.2">
            <stop offset="0.0" stop-color="#d8c8a0"/>
            <stop offset="0.48627450980392156" stop-color="#c07018"/>
            <stop offset="1.0" stop-color="#101010"/>
            <stop offset="1.0" stop-color="#705000"/>
        </linearGradient>
        <radialGradient cx="0" cy="0" gradientTransform="matrix(-0.007, 0.0, 0.0, 0.0235, 24.85, 3.75)"
                        gradientUnits="userSpaceOnUse" id="gradient2" r="819.2" spreadMethod="pad">
            <stop offset="0.0" stop-color="#d8c8a0"/>
            <stop offset="0.48627450980392156" stop-color="#c07018"/>
            <stop offset="1.0" stop-color="#101010"/>
            <stop offset="1.0" stop-color="#705000"/>
        </radialGradient>
        <linearGradient gradientTransform="matrix(0.0, 0.0116, 0.0043, 0.0, 9.35, 9.6)" gradientUnits="userSpaceOnUse"
                        id="gradient3" spreadMethod="pad" x1="-819.2" x2="819.2">
            <stop offset="0.0" stop-color="#c07018"/>
            <stop offset="0.788235294117647" stop-color="#502000"/>
            <stop offset="1.0" stop-color="#101010"/>
        </linearGradient>
        <linearGradient gradientTransform="matrix(0.0067, 0.0, 0.0, 0.0052, 0.0, 16.95)" gradientUnits="userSpaceOnUse"
                        id="gradient4" spreadMethod="pad" x1="-819.2" x2="819.2">
            <stop offset="0.0" stop-color="#707870"/>
            <stop offset="0.23137254901960785" stop-color="#98a880"/>
            <stop offset="0.47058823529411764" stop-color="#e8f0e8"/>
            <stop offset="1.0" stop-color="#101010"/>
        </linearGradient>
        <radialGradient cx="0" cy="0" gradientTransform="matrix(0.007, 0.0, 0.0, 0.0235, -24.85, 3.75)"
                        gradientUnits="userSpaceOnUse" id="gradient5" r="819.2" spreadMethod="pad">
            <stop offset="0.0" stop-color="#d8c8a0"/>
            <stop offset="0.48627450980392156" stop-color="#c07018"/>
            <stop offset="1.0" stop-color="#101010"/>
            <stop offset="1.0" stop-color="#705000"/>
        </radialGradient>
        <radialGradient cx="0" cy="0" gradientTransform="matrix(0.0062, 0.0, 0.0, 0.0121, -9.45, -8.0)"
                        gradientUnits="userSpaceOnUse" id="gradient6" r="819.2" spreadMethod="pad">
            <stop offset="0.0" stop-color="#d8c8a0"/>
            <stop offset="0.48627450980392156" stop-color="#c07018"/>
            <stop offset="1.0" stop-color="#101010"/>
            <stop offset="1.0" stop-color="#705000"/>
        </radialGradient>
        <linearGradient gradientTransform="matrix(0.0, 0.0116, -0.0043, 0.0, -9.35, 9.6)" gradientUnits="userSpaceOnUse"
                        id="gradient7" spreadMethod="pad" x1="-819.2" x2="819.2">
            <stop offset="0.0" stop-color="#c07018"/>
            <stop offset="0.788235294117647" stop-color="#502000"/>
            <stop offset="1.0" stop-color="#101010"/>
        </linearGradient>
    </defs>
</svg>
