<?xml version="1.0" encoding="UTF-8" standalone="no"?>
<svg xmlns:ffdec="https://www.free-decompiler.com/flash" xmlns:xlink="http://www.w3.org/1999/xlink" ffdec:objectType="morphshape" height="29.6px" width="21.5px" xmlns="http://www.w3.org/2000/svg">
  <g transform="matrix(1.0, 0.0, 0.0, 1.0, 10.7, 10.85)">
    <path d="M-10.45 7.85 Q-11.45 12.15 -8.2 13.4 -7.65 13.55 -7.3 14.45 -6.15 17.8 -3.4 18.4 L-1.0 18.7 0.05 18.75 1.15 18.7 3.55 18.4 Q6.25 17.8 7.35 14.45 7.7 13.55 8.3 13.4 11.55 12.15 10.55 7.85 9.0 8.4 6.9 8.55 6.05 6.05 6.4 3.1 6.75 0.0 6.15 -2.7 4.3 -1.65 2.35 -0.1 1.05 -1.55 0.9 -4.65 0.7 -7.8 0.0 -10.85 -0.6 -7.8 -0.8 -4.65 -0.9 -1.55 -2.15 -0.1 -4.15 -1.65 -6.0 -2.7 -6.65 0.0 -6.3 3.1 -5.95 6.05 -6.75 8.55 L-10.45 7.85" fill="url(#gradient0)" fill-rule="evenodd" stroke="none">
      <animate attributeName="d" dur="2s" repeatCount="indefinite" values="M-10.45 7.85 Q-11.45 12.15 -8.2 13.4 -7.65 13.55 -7.3 14.45 -6.15 17.8 -3.4 18.4 L-1.0 18.7 0.05 18.75 1.15 18.7 3.55 18.4 Q6.25 17.8 7.35 14.45 7.7 13.55 8.3 13.4 11.55 12.15 10.55 7.85 9.0 8.4 6.9 8.55 6.05 6.05 6.4 3.1 6.75 0.0 6.15 -2.7 4.3 -1.65 2.35 -0.1 1.05 -1.55 0.9 -4.65 0.7 -7.8 0.0 -10.85 -0.6 -7.8 -0.8 -4.65 -0.9 -1.55 -2.15 -0.1 -4.15 -1.65 -6.0 -2.7 -6.65 0.0 -6.3 3.1 -5.95 6.05 -6.75 8.55 L-10.45 7.85;M-3.25 15.75 Q-3.55 16.9 -2.55 17.25 -2.4 17.4 -2.25 17.55 -1.9 18.45 -1.05 18.65 L-0.3 18.75 0.05 18.75 0.4 18.75 1.15 18.65 Q2.0 18.45 2.35 17.55 2.5 17.4 2.6 17.25 3.6 16.9 3.3 15.75 2.7 15.85 2.15 15.95 1.9 15.25 2.0 14.45 1.95 13.65 1.95 12.85 1.35 13.2 0.75 13.55 0.35 13.2 0.3 12.35 0.15 11.5 0.0 10.65 -0.15 11.5 -0.25 12.35 -0.3 13.2 -0.65 13.55 -1.3 13.15 -1.85 12.85 -1.9 13.65 -1.95 14.45 -1.85 15.25 -2.1 15.95 L-3.25 15.75"/>
    </path>
    <path d="M-10.45 7.85 L-6.75 8.55 Q-5.95 6.05 -6.3 3.1 -6.65 0.0 -6.0 -2.7 -4.15 -1.65 -2.15 -0.1 -0.9 -1.55 -0.8 -4.65 -0.6 -7.8 0.0 -10.85 0.7 -7.8 0.9 -4.65 1.05 -1.55 2.35 -0.1 4.3 -1.65 6.15 -2.7 6.75 0.0 6.4 3.1 6.05 6.05 6.9 8.55 9.0 8.4 10.55 7.85 11.55 12.15 8.3 13.4 7.7 13.55 7.35 14.45 6.25 17.8 3.55 18.4 L1.15 18.7 0.05 18.75 -1.0 18.7 -3.4 18.4 Q-6.15 17.8 -7.3 14.45 -7.65 13.55 -8.2 13.4 -11.45 12.15 -10.45 7.85 Z" fill="none" stroke="#000000" stroke-linecap="round" stroke-linejoin="round" stroke-opacity="0.0" stroke-width="0.0">
      <animate attributeName="stroke" dur="2s" repeatCount="indefinite" values="#000000;#000001"/>
      <animate attributeName="stroke-width" dur="2s" repeatCount="indefinite" values="0.0;0.0"/>
      <animate attributeName="fill-opacity" dur="2s" repeatCount="indefinite" values="0.0;0.0"/>
      <animate attributeName="d" dur="2s" repeatCount="indefinite" values="M-10.45 7.85 L-6.75 8.55 Q-5.95 6.05 -6.3 3.1 -6.65 0.0 -6.0 -2.7 -4.15 -1.65 -2.15 -0.1 -0.9 -1.55 -0.8 -4.65 -0.6 -7.8 0.0 -10.85 0.7 -7.8 0.9 -4.65 1.05 -1.55 2.35 -0.1 4.3 -1.65 6.15 -2.7 6.75 0.0 6.4 3.1 6.05 6.05 6.9 8.55 9.0 8.4 10.55 7.85 11.55 12.15 8.3 13.4 7.7 13.55 7.35 14.45 6.25 17.8 3.55 18.4 L1.15 18.7 0.05 18.75 -1.0 18.7 -3.4 18.4 Q-6.15 17.8 -7.3 14.45 -7.65 13.55 -8.2 13.4 -11.45 12.15 -10.45 7.85 Z;M-3.25 15.75 L-2.1 15.95 Q-1.85 15.25 -1.95 14.45 -1.9 13.65 -1.85 12.85 -1.3 13.15 -0.65 13.55 -0.3 13.2 -0.25 12.35 -0.15 11.5 0.0 10.65 0.15 11.5 0.3 12.35 0.35 13.2 0.75 13.55 1.35 13.2 1.95 12.85 1.95 13.65 2.0 14.45 1.9 15.25 2.15 15.95 2.7 15.85 3.3 15.75 3.6 16.9 2.6 17.25 2.5 17.4 2.35 17.55 2.0 18.45 1.15 18.65 L0.4 18.75 0.05 18.75 -0.3 18.75 -1.05 18.65 Q-1.9 18.45 -2.25 17.55 -2.4 17.4 -2.55 17.25 -3.55 16.9 -3.25 15.75 Z"/>
    </path>
  </g>
  <defs>
    <radialGradient cx="0" cy="0" gradientTransform="matrix(0.0291, 0.0, 0.0, 0.0344, 0.35, 17.3)" gradientUnits="userSpaceOnUse" id="gradient0" r="819.2" spreadMethod="pad">
      <animateTransform additive="replace" attributeName="gradientTransform" dur="2s" from="1" repeatCount="indefinite" to="1" type="scale"/>
      <animateTransform additive="sum" attributeName="gradientTransform" dur="2s" from="0.35 17.3" repeatCount="indefinite" to="0.1 18.35" type="translate"/>
      <animateTransform additive="sum" attributeName="gradientTransform" dur="2s" from="0.0" repeatCount="indefinite" to="0.0" type="rotate"/>
      <animateTransform additive="sum" attributeName="gradientTransform" dur="2s" from="0.0291 0.0344" repeatCount="indefinite" to="0.0091 0.0094" type="scale"/>
      <animateTransform additive="sum" attributeName="gradientTransform" dur="2s" from="0.0" repeatCount="indefinite" to="0.0" type="skewX"/>
      <stop offset="0.0" stop-color="#ffffcc">
        <animate attributeName="offset" dur="2s" repeatCount="indefinite" values="0.0;0.0"/>
        <animate attributeName="stop-color" dur="2s" repeatCount="indefinite" values="#ffffcc;#ffffcd"/>
        <animate attributeName="stop-opacity" dur="2s" repeatCount="indefinite" values="1.0;0.8"/>
      </stop>
      <stop offset="1.0" stop-color="#ffd700">
        <animate attributeName="offset" dur="2s" repeatCount="indefinite" values="1.0;1.0"/>
        <animate attributeName="stop-color" dur="2s" repeatCount="indefinite" values="#ffd700;#ffd701"/>
        <animate attributeName="stop-opacity" dur="2s" repeatCount="indefinite" values="1.0;0.8"/>
      </stop>
    </radialGradient>
  </defs>
</svg>
