<?xml version="1.0" encoding="UTF-8" standalone="no"?>
<svg xmlns:ffdec="https://www.free-decompiler.com/flash" xmlns:xlink="http://www.w3.org/1999/xlink" ffdec:objectType="morphshape" height="40.0px" width="40.0px" xmlns="http://www.w3.org/2000/svg">
  <g transform="matrix(1.0, 0.0, 0.0, 1.0, 20.0, 20.0)">
    <path d="M-5.0 0.0 Q-5.0 2.05 -3.5 3.55 -2.05 5.0 0.0 5.0 2.05 5.0 3.55 3.55 5.0 2.05 5.0 0.0 5.0 -2.05 3.55 -3.5 2.05 -5.0 0.0 -5.0 -2.05 -5.0 -3.5 -3.5 -5.0 -2.05 -5.0 0.0" fill="#202020" fill-rule="evenodd" stroke="none">
      <animate attributeName="fill" dur="2s" repeatCount="indefinite" values="#202020;#202021"/>
      <animate attributeName="fill-opacity" dur="2s" repeatCount="indefinite" values="1.0;1.0"/>
      <animate attributeName="d" dur="2s" repeatCount="indefinite" values="M-5.0 0.0 Q-5.0 2.05 -3.5 3.55 -2.05 5.0 0.0 5.0 2.05 5.0 3.55 3.55 5.0 2.05 5.0 0.0 5.0 -2.05 3.55 -3.5 2.05 -5.0 0.0 -5.0 -2.05 -5.0 -3.5 -3.5 -5.0 -2.05 -5.0 0.0;M-20.0 0.0 Q-20.0 8.3 -14.15 14.15 -8.35 19.95 0.0 20.0 8.3 19.95 14.15 14.15 19.95 8.3 20.0 0.0 19.95 -8.35 14.15 -14.15 8.3 -20.0 0.0 -20.0 -8.35 -20.0 -14.15 -14.15 -20.0 -8.35 -20.0 0.0"/>
    </path>
    <path d="M-5.0 0.0 Q-5.0 -2.05 -3.5 -3.5 -2.05 -5.0 0.0 -5.0 2.05 -5.0 3.55 -3.5 5.0 -2.05 5.0 0.0 5.0 2.05 3.55 3.55 2.05 5.0 0.0 5.0 -2.05 5.0 -3.5 3.55 -5.0 2.05 -5.0 0.0 Z" fill="none" stroke="#000000" stroke-linecap="round" stroke-linejoin="round" stroke-opacity="0.0" stroke-width="0.0">
      <animate attributeName="stroke" dur="2s" repeatCount="indefinite" values="#000000;#000001"/>
      <animate attributeName="stroke-width" dur="2s" repeatCount="indefinite" values="0.0;0.0"/>
      <animate attributeName="fill-opacity" dur="2s" repeatCount="indefinite" values="0.0;0.0"/>
      <animate attributeName="d" dur="2s" repeatCount="indefinite" values="M-5.0 0.0 Q-5.0 -2.05 -3.5 -3.5 -2.05 -5.0 0.0 -5.0 2.05 -5.0 3.55 -3.5 5.0 -2.05 5.0 0.0 5.0 2.05 3.55 3.55 2.05 5.0 0.0 5.0 -2.05 5.0 -3.5 3.55 -5.0 2.05 -5.0 0.0 Z;M-20.0 0.0 Q-20.0 -8.35 -14.15 -14.15 -8.35 -20.0 0.0 -20.0 8.3 -20.0 14.15 -14.15 19.95 -8.35 20.0 0.0 19.95 8.3 14.15 14.15 8.3 19.95 0.0 20.0 -8.35 19.95 -14.15 14.15 -20.0 8.3 -20.0 0.0 Z"/>
    </path>
  </g>
</svg>
