<?xml version="1.0" encoding="UTF-8" standalone="no"?>
<svg xmlns:ffdec="https://www.free-decompiler.com/flash" xmlns:xlink="http://www.w3.org/1999/xlink" ffdec:objectType="morphshape" height="27.45px" width="32.4px" xmlns="http://www.w3.org/2000/svg">
  <g transform="matrix(1.0, 0.0, 0.0, 1.0, 16.45, 7.0)">
    <path d="M-3.0 -6.0 L-3.0 -6.0 -3.0 -6.0 Q-3.0 -5.1 -3.0 -4.2 L-3.0 -4.0 -3.0 -3.6 -3.0 -1.8 Q-3.0 -1.55 -3.0 -1.3 -3.0 -0.5 -3.0 0.3 L-3.0 0.7 Q-3.0 0.9 -3.0 1.1 L-3.0 1.4 -3.0 2.0 -1.9 2.0 Q-1.65 2.0 -1.4 2.0 L-1.1 2.0 0.2 2.0 Q0.65 2.0 1.1 2.0 L1.9 2.0 2.0 2.0 2.0 2.0 2.0 2.0 2.2 2.0 3.0 2.0 3.0 0.8 3.0 -0.3 Q3.0 -0.9 3.0 -1.5 L3.0 -1.7 3.0 -2.0 3.0 -2.1 3.0 -2.4 3.0 -2.8 Q3.0 -3.35 3.0 -3.9 L3.0 -4.4 3.0 -6.0 Q2.3 -6.0 1.6 -6.0 1.3 -6.0 1.0 -6.0 L-0.7 -6.0 Q-1.4 -6.0 -2.1 -6.0 -2.55 -6.0 -3.0 -6.0" fill="url(#gradient0)" fill-rule="evenodd" stroke="none">
      <animate attributeName="d" dur="2s" repeatCount="indefinite" values="M-3.0 -6.0 L-3.0 -6.0 -3.0 -6.0 Q-3.0 -5.1 -3.0 -4.2 L-3.0 -4.0 -3.0 -3.6 -3.0 -1.8 Q-3.0 -1.55 -3.0 -1.3 -3.0 -0.5 -3.0 0.3 L-3.0 0.7 Q-3.0 0.9 -3.0 1.1 L-3.0 1.4 -3.0 2.0 -1.9 2.0 Q-1.65 2.0 -1.4 2.0 L-1.1 2.0 0.2 2.0 Q0.65 2.0 1.1 2.0 L1.9 2.0 2.0 2.0 2.0 2.0 2.0 2.0 2.2 2.0 3.0 2.0 3.0 0.8 3.0 -0.3 Q3.0 -0.9 3.0 -1.5 L3.0 -1.7 3.0 -2.0 3.0 -2.1 3.0 -2.4 3.0 -2.8 Q3.0 -3.35 3.0 -3.9 L3.0 -4.4 3.0 -6.0 Q2.3 -6.0 1.6 -6.0 1.3 -6.0 1.0 -6.0 L-0.7 -6.0 Q-1.4 -6.0 -2.1 -6.0 -2.55 -6.0 -3.0 -6.0;M-15.85 2.25 L-15.8 2.4 -15.55 2.95 Q-14.3 4.95 -12.45 6.45 L-12.2 6.9 -11.35 7.7 -8.05 11.25 Q-7.55 11.8 -7.2 12.55 -6.25 14.6 -4.35 15.3 L-3.6 14.7 Q-3.2 14.95 -3.15 15.45 L-3.0 16.15 -2.45 17.7 -1.2 19.4 Q-0.65 20.0 0.0 19.95 L-0.15 19.15 -0.25 15.7 Q-0.25 14.3 -0.5 13.05 L-0.8 11.0 -1.25 10.85 -1.4 10.7 -1.5 10.65 -1.8 10.3 -1.8 8.3 -1.7 5.05 -1.8 2.4 Q-1.95 0.9 -1.5 -0.65 L-1.5 -1.2 -1.95 -0.6 -2.2 -0.45 -3.25 0.2 -4.25 0.25 Q-5.85 0.25 -6.9 -0.9 L-7.75 -2.05 -7.65 2.0 Q-7.65 3.55 -8.55 5.25 -8.7 5.05 -9.8 4.35 L-12.45 1.2 Q-13.2 0.1 -15.35 0.25 -16.2 1.0 -15.85 2.25"/>
    </path>
    <path d="M-3.0 2.0 L-3.0 2.0 -3.0 6.0 3.0 6.0 3.0 2.0 -3.0 2.0 -3.0 2.1 -3.0 6.0 Q-1.5 6.0 0.0 6.0 1.5 6.0 3.0 6.0 3.0 4.0 1.0 2.0 -1.0 2.0 -3.0 2.0" fill="url(#gradient1)" fill-rule="evenodd" stroke="none">
      <animate attributeName="d" dur="2s" repeatCount="indefinite" values="M-3.0 2.0 L-3.0 2.0 -3.0 6.0 3.0 6.0 3.0 2.0 -3.0 2.0 -3.0 2.1 -3.0 6.0 Q-1.5 6.0 0.0 6.0 1.5 6.0 3.0 6.0 3.0 4.0 1.0 2.0 -1.0 2.0 -3.0 2.0;M-7.0 7.55 L-3.75 10.25 -4.7 10.1 -5.8 9.45 -6.4 8.75 -7.0 7.55 -3.65 12.05 -3.45 13.25 Q-3.15 13.85 -2.6 13.45 -2.25 13.2 -2.2 12.75 -2.1 12.05 -2.95 11.1 -3.7 11.25 -3.65 12.05"/>
    </path>
    <path d="M-3.0 2.0 L-3.0 2.1 -3.0 6.0 Q-1.5 6.0 0.0 6.0 1.5 6.0 3.0 6.0 3.0 4.0 1.0 2.0 -1.0 2.0 -3.0 2.0 L-3.0 2.0 -3.0 4.2 Q-3.0 5.1 -1.4 6.0 L3.0 6.0 Q3.0 4.0 3.0 2.0 0.0 2.0 -3.0 2.0" fill="#cccccc" fill-rule="evenodd" stroke="none">
      <animate attributeName="fill" dur="2s" repeatCount="indefinite" values="#cccccc;#9c8a5d"/>
      <animate attributeName="fill-opacity" dur="2s" repeatCount="indefinite" values="1.0;1.0"/>
      <animate attributeName="d" dur="2s" repeatCount="indefinite" values="M-3.0 2.0 L-3.0 2.1 -3.0 6.0 Q-1.5 6.0 0.0 6.0 1.5 6.0 3.0 6.0 3.0 4.0 1.0 2.0 -1.0 2.0 -3.0 2.0 L-3.0 2.0 -3.0 4.2 Q-3.0 5.1 -1.4 6.0 L3.0 6.0 Q3.0 4.0 3.0 2.0 0.0 2.0 -3.0 2.0;M-3.65 12.05 L-3.65 12.05 -3.45 13.25 Q-3.15 13.85 -2.6 13.45 -2.25 13.2 -2.2 12.75 -2.1 12.05 -2.95 11.1 -3.7 11.25 -3.65 12.05 L2.2 12.95 2.6 13.45 Q2.9 13.65 3.45 13.15 L3.65 11.85 Q3.6 11.25 2.85 11.2 2.05 11.65 2.2 12.75"/>
    </path>
    <path d="M-3.0 2.0 L-3.0 2.0 -3.0 3.0 -3.0 5.3 -3.0 5.4 -3.0 5.5 -3.0 5.5 -3.0 5.6 -3.0 5.8 -3.0 6.0 -2.2 6.0 Q-1.55 6.0 -0.9 6.0 L0.6 6.0 0.9 6.0 1.2 6.0 2.7 6.0 3.0 6.0 Q3.0 5.55 3.0 5.1 L3.0 4.2 3.0 4.0 3.0 3.9 3.0 3.9 3.0 3.7 3.0 2.0 2.2 2.0 1.0 2.0 Q0.2 2.0 -0.6 2.0 L-1.6 2.0 Q-2.3 2.0 -3.0 2.0" fill="#cccccc" fill-rule="evenodd" stroke="none">
      <animate attributeName="fill" dur="2s" repeatCount="indefinite" values="#cccccc;#979a92"/>
      <animate attributeName="fill-opacity" dur="2s" repeatCount="indefinite" values="1.0;1.0"/>
      <animate attributeName="d" dur="2s" repeatCount="indefinite" values="M-3.0 2.0 L-3.0 2.0 -3.0 3.0 -3.0 5.3 -3.0 5.4 -3.0 5.5 -3.0 5.5 -3.0 5.6 -3.0 5.8 -3.0 6.0 -2.2 6.0 Q-1.55 6.0 -0.9 6.0 L0.6 6.0 0.9 6.0 1.2 6.0 2.7 6.0 3.0 6.0 Q3.0 5.55 3.0 5.1 L3.0 4.2 3.0 4.0 3.0 3.9 3.0 3.9 3.0 3.7 3.0 2.0 2.2 2.0 1.0 2.0 Q0.2 2.0 -0.6 2.0 L-1.6 2.0 Q-2.3 2.0 -3.0 2.0;M-1.8 2.4 L-1.8 2.7 -1.7 5.05 -1.8 10.3 -1.65 10.45 -1.5 10.65 -1.4 10.7 -1.25 10.85 -0.8 11.0 -0.75 11.4 -0.5 13.05 Q-0.25 14.3 -0.25 15.7 L-0.15 19.15 0.0 19.95 0.15 19.15 0.25 15.7 0.25 15.0 Q0.3 14.0 0.5 13.05 L0.8 11.0 1.25 10.85 1.4 10.7 1.5 10.65 1.8 10.3 1.8 6.65 1.7 5.05 1.8 2.4 Q1.95 0.9 0.85 -0.9 L-1.5 -0.65 Q-1.95 0.9 -1.8 2.4"/>
    </path>
    <path d="M-3.0 2.0 L-3.0 2.0 -3.0 4.2 Q-3.0 5.1 -1.4 6.0 L3.0 6.0 Q3.0 4.0 3.0 2.0 0.0 2.0 -3.0 2.0 L-3.0 2.1 Q-3.0 2.25 -3.0 2.4 -3.0 2.9 -3.0 3.4 L-3.0 3.6 Q-3.0 3.7 -3.0 3.8 L-3.0 4.1 Q-3.0 4.65 -3.0 5.2 -3.0 5.4 -3.0 5.6 L-3.0 6.0 -2.3 6.0 -2.1 6.0 -1.9 6.0 Q-1.25 6.0 -0.6 6.0 L-0.4 6.0 Q-0.15 6.0 0.1 6.0 L0.4 6.0 Q0.8 6.0 1.2 6.0 L2.3 6.0 2.6 6.0 2.8 6.0 3.0 6.0 3.0 6.0 Q3.0 4.9 3.0 3.8 L3.0 3.5 Q3.0 3.1 3.0 2.7 L3.0 2.5 3.0 2.2 3.0 2.2 3.0 2.0 3.0 2.0 3.0 2.0 Q2.6 2.0 2.2 2.0 L1.5 2.0 0.1 2.0 0.0 2.0 -0.1 2.0 -0.2 2.0 -0.4 2.0 -1.7 2.0 -2.7 2.0 -3.0 2.0 -3.0 2.0 -3.0 6.0 3.0 6.0 3.0 2.0 -3.0 2.0" fill="url(#gradient2)" fill-rule="evenodd" stroke="none">
      <animate attributeName="d" dur="2s" repeatCount="indefinite" values="M-3.0 2.0 L-3.0 2.0 -3.0 4.2 Q-3.0 5.1 -1.4 6.0 L3.0 6.0 Q3.0 4.0 3.0 2.0 0.0 2.0 -3.0 2.0 L-3.0 2.1 Q-3.0 2.25 -3.0 2.4 -3.0 2.9 -3.0 3.4 L-3.0 3.6 Q-3.0 3.7 -3.0 3.8 L-3.0 4.1 Q-3.0 4.65 -3.0 5.2 -3.0 5.4 -3.0 5.6 L-3.0 6.0 -2.3 6.0 -2.1 6.0 -1.9 6.0 Q-1.25 6.0 -0.6 6.0 L-0.4 6.0 Q-0.15 6.0 0.1 6.0 L0.4 6.0 Q0.8 6.0 1.2 6.0 L2.3 6.0 2.6 6.0 2.8 6.0 3.0 6.0 3.0 6.0 Q3.0 4.9 3.0 3.8 L3.0 3.5 Q3.0 3.1 3.0 2.7 L3.0 2.5 3.0 2.2 3.0 2.2 3.0 2.0 3.0 2.0 3.0 2.0 Q2.6 2.0 2.2 2.0 L1.5 2.0 0.1 2.0 0.0 2.0 -0.1 2.0 -0.2 2.0 -0.4 2.0 -1.7 2.0 -2.7 2.0 -3.0 2.0 -3.0 2.0 -3.0 6.0 3.0 6.0 3.0 2.0 -3.0 2.0;M2.2 12.75 L2.2 12.95 2.6 13.45 Q2.9 13.65 3.45 13.15 L3.65 11.85 Q3.6 11.25 2.85 11.2 2.05 11.65 2.2 12.75 L0.0 19.95 Q0.65 20.0 1.2 19.4 2.5 18.1 3.0 16.15 L3.15 15.45 Q3.2 14.95 3.6 14.7 L4.35 15.3 Q6.25 14.6 7.2 12.55 7.55 11.8 8.05 11.25 L9.0 10.15 11.35 7.7 12.2 6.9 12.45 6.45 Q14.3 4.95 15.55 2.95 L15.85 2.25 Q16.2 1.0 15.35 0.25 L14.55 0.0 Q13.2 0.1 12.45 1.2 L9.8 4.35 8.9 5.0 8.55 5.25 7.8 5.1 7.8 5.0 Q7.45 1.45 7.75 -2.05 L6.9 -0.9 Q5.85 0.25 4.25 0.25 L3.25 0.2 2.2 -0.45 2.0 -0.6 1.5 -1.2 1.5 -1.0 1.55 -0.65 Q1.95 0.9 1.8 2.4 L1.7 5.05 1.8 10.3 1.65 10.45 1.5 10.65 1.4 10.7 0.8 11.0 0.25 15.7 0.15 19.15 0.0 19.95 7.0 7.55 6.8 8.15 5.85 9.45 5.15 9.95 3.75 10.25"/>
    </path>
    <path d="M-3.0 -6.0 Q-2.6 -6.0 -2.2 -6.0 -1.55 -6.0 -0.9 -6.0 L0.6 -6.0 Q0.8 -6.0 1.0 -6.0 2.0 -6.0 3.0 -6.0 L3.0 -5.3 3.0 -4.9 Q3.0 -4.45 3.0 -4.0 L3.0 -3.6 3.0 -3.3 3.0 -3.2 3.0 -2.9 3.0 -2.7 3.0 -2.4 3.0 -2.1 3.0 -1.8 3.0 -1.5 3.0 -1.3 3.0 -1.0 3.0 -1.0 3.0 -0.6 3.0 -0.3 Q3.0 0.25 3.0 0.8 L3.0 1.3 3.0 2.0 3.0 3.5 3.0 3.8 3.0 4.0 3.0 4.4 3.0 5.7 3.0 6.0 Q2.8 6.0 2.6 6.0 L2.3 6.0 Q2.0 6.0 1.7 6.0 L1.4 6.0 Q0.6 6.0 -0.2 6.0 L-0.4 6.0 -0.7 6.0 -2.3 6.0 Q-2.6 6.0 -2.9 6.0 L-3.0 6.0 Q-3.0 5.4 -3.0 4.8 L-3.0 4.5 Q-3.0 4.35 -3.0 4.2 L-3.0 4.0 Q-3.0 3.4 -3.0 2.8 -3.0 2.6 -3.0 2.4 -3.0 2.2 -3.0 2.0 L-3.0 1.9 Q-3.0 1.25 -3.0 0.6 L-3.0 0.4 Q-3.0 0.25 -3.0 0.1 L-3.0 -0.2 Q-3.0 -0.85 -3.0 -1.5 -3.0 -1.7 -3.0 -1.9 L-3.0 -3.5 -3.0 -3.8 -3.0 -4.0 Q-3.0 -4.75 -3.0 -5.5 L-3.0 -5.7 M-3.0 2.0 Q-1.0 2.0 1.0 2.0 3.0 4.0 3.0 6.0 1.5 6.0 0.0 6.0 -1.5 6.0 -3.0 6.0 L-3.0 2.1 -3.0 2.0 Q-1.0 2.0 1.0 2.0 3.0 4.0 3.0 6.0 1.5 6.0 0.0 6.0 -1.5 6.0 -3.0 6.0 L-3.0 2.1 -3.0 2.0 -2.7 2.0 -1.7 2.0 -0.4 2.0 -0.2 2.0 -0.1 2.0 0.0 2.0 0.1 2.0 1.5 2.0 2.2 2.0 Q2.6 2.0 3.0 2.0 L3.0 2.0 3.0 2.0 3.0 2.2 3.0 2.2 3.0 2.5 3.0 2.7 Q3.0 3.1 3.0 3.5 L3.0 3.8 Q3.0 4.9 3.0 6.0 L3.0 6.0 2.8 6.0 2.6 6.0 2.3 6.0 1.2 6.0 Q0.8 6.0 0.4 6.0 L0.1 6.0 Q-0.15 6.0 -0.4 6.0 L-0.6 6.0 Q-1.25 6.0 -1.9 6.0 L-2.1 6.0 -2.3 6.0 -3.0 6.0 -3.0 5.6 Q-3.0 5.4 -3.0 5.2 -3.0 4.65 -3.0 4.1 L-3.0 3.8 Q-3.0 3.7 -3.0 3.6 L-3.0 3.4 Q-3.0 2.9 -3.0 2.4 -3.0 2.25 -3.0 2.1 L-3.0 2.0 Q0.0 2.0 3.0 2.0 3.0 4.0 3.0 6.0 L-1.4 6.0 Q-3.0 5.1 -3.0 4.2 L-3.0 2.0 -3.0 2.0 Q0.0 2.0 3.0 2.0 3.0 4.0 3.0 6.0 L-1.4 6.0 Q-3.0 5.1 -3.0 4.2 L-3.0 2.0 -3.0 2.0" fill="none" stroke="#000000" stroke-linecap="round" stroke-linejoin="round" stroke-width="2.0">
      <animate attributeName="stroke" dur="2s" repeatCount="indefinite" values="#000000;#000001"/>
      <animate attributeName="stroke-width" dur="2s" repeatCount="indefinite" values="2.0;0.0"/>
      <animate attributeName="fill-opacity" dur="2s" repeatCount="indefinite" values="1.0;0.0"/>
      <animate attributeName="d" dur="2s" repeatCount="indefinite" values="M-3.0 -6.0 Q-2.6 -6.0 -2.2 -6.0 -1.55 -6.0 -0.9 -6.0 L0.6 -6.0 Q0.8 -6.0 1.0 -6.0 2.0 -6.0 3.0 -6.0 L3.0 -5.3 3.0 -4.9 Q3.0 -4.45 3.0 -4.0 L3.0 -3.6 3.0 -3.3 3.0 -3.2 3.0 -2.9 3.0 -2.7 3.0 -2.4 3.0 -2.1 3.0 -1.8 3.0 -1.5 3.0 -1.3 3.0 -1.0 3.0 -1.0 3.0 -0.6 3.0 -0.3 Q3.0 0.25 3.0 0.8 L3.0 1.3 3.0 2.0 3.0 3.5 3.0 3.8 3.0 4.0 3.0 4.4 3.0 5.7 3.0 6.0 Q2.8 6.0 2.6 6.0 L2.3 6.0 Q2.0 6.0 1.7 6.0 L1.4 6.0 Q0.6 6.0 -0.2 6.0 L-0.4 6.0 -0.7 6.0 -2.3 6.0 Q-2.6 6.0 -2.9 6.0 L-3.0 6.0 Q-3.0 5.4 -3.0 4.8 L-3.0 4.5 Q-3.0 4.35 -3.0 4.2 L-3.0 4.0 Q-3.0 3.4 -3.0 2.8 -3.0 2.6 -3.0 2.4 -3.0 2.2 -3.0 2.0 L-3.0 1.9 Q-3.0 1.25 -3.0 0.6 L-3.0 0.4 Q-3.0 0.25 -3.0 0.1 L-3.0 -0.2 Q-3.0 -0.85 -3.0 -1.5 -3.0 -1.7 -3.0 -1.9 L-3.0 -3.5 -3.0 -3.8 -3.0 -4.0 Q-3.0 -4.75 -3.0 -5.5 L-3.0 -5.7 M-3.0 2.0 Q-1.0 2.0 1.0 2.0 3.0 4.0 3.0 6.0 1.5 6.0 0.0 6.0 -1.5 6.0 -3.0 6.0 L-3.0 2.1 -3.0 2.0 Q-1.0 2.0 1.0 2.0 3.0 4.0 3.0 6.0 1.5 6.0 0.0 6.0 -1.5 6.0 -3.0 6.0 L-3.0 2.1 -3.0 2.0 -2.7 2.0 -1.7 2.0 -0.4 2.0 -0.2 2.0 -0.1 2.0 0.0 2.0 0.1 2.0 1.5 2.0 2.2 2.0 Q2.6 2.0 3.0 2.0 L3.0 2.0 3.0 2.0 3.0 2.2 3.0 2.2 3.0 2.5 3.0 2.7 Q3.0 3.1 3.0 3.5 L3.0 3.8 Q3.0 4.9 3.0 6.0 L3.0 6.0 2.8 6.0 2.6 6.0 2.3 6.0 1.2 6.0 Q0.8 6.0 0.4 6.0 L0.1 6.0 Q-0.15 6.0 -0.4 6.0 L-0.6 6.0 Q-1.25 6.0 -1.9 6.0 L-2.1 6.0 -2.3 6.0 -3.0 6.0 -3.0 5.6 Q-3.0 5.4 -3.0 5.2 -3.0 4.65 -3.0 4.1 L-3.0 3.8 Q-3.0 3.7 -3.0 3.6 L-3.0 3.4 Q-3.0 2.9 -3.0 2.4 -3.0 2.25 -3.0 2.1 L-3.0 2.0 Q0.0 2.0 3.0 2.0 3.0 4.0 3.0 6.0 L-1.4 6.0 Q-3.0 5.1 -3.0 4.2 L-3.0 2.0 -3.0 2.0 Q0.0 2.0 3.0 2.0 3.0 4.0 3.0 6.0 L-1.4 6.0 Q-3.0 5.1 -3.0 4.2 L-3.0 2.0 -3.0 2.0;M-15.85 2.25 Q-16.2 1.0 -15.35 0.25 -13.2 0.1 -12.45 1.2 L-9.8 4.35 Q-8.7 5.05 -8.55 5.25 -7.55 2.5 -7.6 -0.05 L-7.75 -2.05 -6.9 -0.9 Q-5.85 0.25 -4.25 0.25 L-3.25 0.2 -2.2 -0.45 -1.95 -0.6 -1.5 -1.2 -1.5 -0.65 -0.85 -0.9 0.0 -0.75 0.85 -0.9 1.55 -0.65 1.5 -1.2 2.0 -0.6 2.2 -0.45 3.25 0.2 4.25 0.25 Q5.85 0.25 6.9 -0.9 L7.75 -2.05 7.65 0.75 7.8 5.1 8.55 5.25 8.9 5.0 9.8 4.35 12.45 1.2 13.4 0.35 Q13.9 0.05 14.55 0.0 L15.35 0.25 Q16.2 1.0 15.85 2.25 L15.55 2.95 Q14.3 4.95 12.45 6.45 L12.2 6.9 11.35 7.7 8.05 11.25 Q7.55 11.8 7.2 12.55 L7.0 12.95 Q6.05 14.65 4.35 15.3 L3.6 14.7 Q3.2 14.95 3.15 15.45 L3.0 16.15 Q2.5 18.1 1.2 19.4 0.65 20.0 0.0 19.95 -0.5 20.0 -0.9 19.65 L-1.2 19.4 Q-2.5 18.1 -3.0 16.15 L-3.15 15.45 Q-3.2 14.95 -3.6 14.7 L-4.35 15.3 Q-6.25 14.6 -7.2 12.55 -7.55 11.8 -8.05 11.25 L-11.35 7.7 -12.2 6.9 -12.45 6.45 Q-14.3 4.95 -15.55 2.95 L-15.85 2.25 M-3.65 12.05 Q-3.7 11.25 -2.95 11.1 -2.1 12.05 -2.2 12.75 -2.25 13.2 -2.6 13.45 -3.15 13.85 -3.45 13.25 L-3.65 12.05 -3.65 12.05 Q-3.7 11.25 -2.95 11.1 -2.1 12.05 -2.2 12.75 -2.25 13.2 -2.6 13.45 -3.15 13.85 -3.45 13.25 L-3.65 12.05 -3.65 12.05 0.15 19.15 0.25 15.7 0.8 11.0 1.4 10.7 1.5 10.65 1.65 10.45 1.8 10.3 1.7 5.05 1.8 2.4 Q1.95 0.9 1.55 -0.65 L1.5 -1.0 1.5 -1.2 2.0 -0.6 2.2 -0.45 3.25 0.2 4.25 0.25 Q5.85 0.25 6.9 -0.9 L7.75 -2.05 Q7.45 1.45 7.8 5.0 L7.8 5.1 8.55 5.25 8.9 5.0 9.8 4.35 12.45 1.2 Q13.2 0.1 14.55 0.0 L15.35 0.25 Q16.2 1.0 15.85 2.25 L15.55 2.95 Q14.3 4.95 12.45 6.45 L12.2 6.9 11.35 7.7 9.0 10.15 8.05 11.25 Q7.55 11.8 7.2 12.55 6.25 14.6 4.35 15.3 L3.6 14.7 Q3.2 14.95 3.15 15.45 L3.0 16.15 Q2.5 18.1 1.2 19.4 0.65 20.0 0.0 19.95 L0.0 19.95 Q2.05 11.65 2.85 11.2 3.6 11.25 3.65 11.85 L3.45 13.15 Q2.9 13.65 2.6 13.45 L2.2 12.95 2.2 12.75 Q2.05 11.65 2.85 11.2 3.6 11.25 3.65 11.85 L3.45 13.15 Q2.9 13.65 2.6 13.45 L2.2 12.95 2.2 12.75"/>
    </path>
    <path d="M-3.0 -6.0 Q-2.55 -6.0 -2.1 -6.0 -1.4 -6.0 -0.7 -6.0 L1.0 -6.0 Q1.3 -6.0 1.6 -6.0 2.3 -6.0 3.0 -6.0 L3.0 -4.4 3.0 -3.9 Q3.0 -3.35 3.0 -2.8 L3.0 -2.4 3.0 -2.1 3.0 -2.0 3.0 -1.7 3.0 -1.5 Q3.0 -0.9 3.0 -0.3 L3.0 0.8 3.0 2.0 2.2 2.0 2.0 2.0 2.0 2.0 2.0 2.0 1.9 2.0 1.1 2.0 Q0.65 2.0 0.2 2.0 L-1.1 2.0 -1.4 2.0 Q-1.65 2.0 -1.9 2.0 L-3.0 2.0 -3.0 1.4 -3.0 1.1 Q-3.0 0.9 -3.0 0.7 L-3.0 0.3 Q-3.0 -0.5 -3.0 -1.3 -3.0 -1.55 -3.0 -1.8 L-3.0 -3.6 -3.0 -4.0 -3.0 -4.2 Q-3.0 -5.1 -3.0 -6.0 L-3.0 -6.0 -3.0 -6.0 M-3.0 2.0 L3.0 2.0 3.0 6.0 -3.0 6.0 -3.0 2.0 -3.0 2.0 Q-2.3 2.0 -1.6 2.0 L-0.6 2.0 Q0.2 2.0 1.0 2.0 L2.2 2.0 3.0 2.0 3.0 3.7 3.0 3.9 3.0 3.9 3.0 4.0 3.0 4.2 3.0 5.1 Q3.0 5.55 3.0 6.0 L2.7 6.0 1.2 6.0 0.9 6.0 0.6 6.0 -0.9 6.0 Q-1.55 6.0 -2.2 6.0 L-3.0 6.0 -3.0 5.8 -3.0 5.6 -3.0 5.5 -3.0 5.5 -3.0 5.4 -3.0 5.3 -3.0 3.0 -3.0 2.0 -3.0 2.0 3.0 2.0 3.0 6.0 -3.0 6.0 -3.0 2.0 -3.0 2.0 Z" fill="none" stroke="#000000" stroke-linecap="round" stroke-linejoin="round" stroke-width="2.0">
      <animate attributeName="stroke" dur="2s" repeatCount="indefinite" values="#000000;#101011"/>
      <animate attributeName="stroke-width" dur="2s" repeatCount="indefinite" values="2.0;1.0"/>
      <animate attributeName="fill-opacity" dur="2s" repeatCount="indefinite" values="1.0;1.0"/>
      <animate attributeName="d" dur="2s" repeatCount="indefinite" values="M-3.0 -6.0 Q-2.55 -6.0 -2.1 -6.0 -1.4 -6.0 -0.7 -6.0 L1.0 -6.0 Q1.3 -6.0 1.6 -6.0 2.3 -6.0 3.0 -6.0 L3.0 -4.4 3.0 -3.9 Q3.0 -3.35 3.0 -2.8 L3.0 -2.4 3.0 -2.1 3.0 -2.0 3.0 -1.7 3.0 -1.5 Q3.0 -0.9 3.0 -0.3 L3.0 0.8 3.0 2.0 2.2 2.0 2.0 2.0 2.0 2.0 2.0 2.0 1.9 2.0 1.1 2.0 Q0.65 2.0 0.2 2.0 L-1.1 2.0 -1.4 2.0 Q-1.65 2.0 -1.9 2.0 L-3.0 2.0 -3.0 1.4 -3.0 1.1 Q-3.0 0.9 -3.0 0.7 L-3.0 0.3 Q-3.0 -0.5 -3.0 -1.3 -3.0 -1.55 -3.0 -1.8 L-3.0 -3.6 -3.0 -4.0 -3.0 -4.2 Q-3.0 -5.1 -3.0 -6.0 L-3.0 -6.0 -3.0 -6.0 M-3.0 2.0 L3.0 2.0 3.0 6.0 -3.0 6.0 -3.0 2.0 -3.0 2.0 Q-2.3 2.0 -1.6 2.0 L-0.6 2.0 Q0.2 2.0 1.0 2.0 L2.2 2.0 3.0 2.0 3.0 3.7 3.0 3.9 3.0 3.9 3.0 4.0 3.0 4.2 3.0 5.1 Q3.0 5.55 3.0 6.0 L2.7 6.0 1.2 6.0 0.9 6.0 0.6 6.0 -0.9 6.0 Q-1.55 6.0 -2.2 6.0 L-3.0 6.0 -3.0 5.8 -3.0 5.6 -3.0 5.5 -3.0 5.5 -3.0 5.4 -3.0 5.3 -3.0 3.0 -3.0 2.0 -3.0 2.0 3.0 2.0 3.0 6.0 -3.0 6.0 -3.0 2.0 -3.0 2.0 Z;M-15.85 2.25 Q-16.2 1.0 -15.35 0.25 -13.2 0.1 -12.45 1.2 L-9.8 4.35 Q-8.7 5.05 -8.55 5.25 -7.65 3.55 -7.65 2.0 L-7.75 -2.05 -6.9 -0.9 Q-5.85 0.25 -4.25 0.25 L-3.25 0.2 -2.2 -0.45 -1.95 -0.6 -1.5 -1.2 -1.5 -0.65 Q-1.95 0.9 -1.8 2.4 L-1.7 5.05 -1.8 8.3 -1.8 10.3 -1.5 10.65 -1.4 10.7 -1.25 10.85 -0.8 11.0 -0.5 13.05 Q-0.25 14.3 -0.25 15.7 L-0.15 19.15 0.0 19.95 Q-0.65 20.0 -1.2 19.4 L-2.45 17.7 -3.0 16.15 -3.15 15.45 Q-3.2 14.95 -3.6 14.7 L-4.35 15.3 Q-6.25 14.6 -7.2 12.55 -7.55 11.8 -8.05 11.25 L-11.35 7.7 -12.2 6.9 -12.45 6.45 Q-14.3 4.95 -15.55 2.95 L-15.8 2.4 -15.85 2.25 M-7.0 7.55 L-6.4 8.75 -5.8 9.45 -4.7 10.1 -3.75 10.25 -7.0 7.55 Q-1.95 0.9 -1.5 -0.65 L0.85 -0.9 Q1.95 0.9 1.8 2.4 L1.7 5.05 1.8 6.65 1.8 10.3 1.5 10.65 1.4 10.7 1.25 10.85 0.8 11.0 0.5 13.05 Q0.3 14.0 0.25 15.0 L0.25 15.7 0.15 19.15 0.0 19.95 -0.15 19.15 -0.25 15.7 Q-0.25 14.3 -0.5 13.05 L-0.75 11.4 -0.8 11.0 -1.25 10.85 -1.4 10.7 -1.5 10.65 -1.65 10.45 -1.8 10.3 -1.7 5.05 -1.8 2.7 -1.8 2.4 5.15 9.95 5.85 9.45 6.8 8.15 7.0 7.55 3.75 10.25 Z"/>
    </path>
  </g>
  <defs>
    <radialGradient cx="0" cy="0" gradientTransform="matrix(0.0214, 0.0, 0.0, 0.0214, -4.7, 3.1)" gradientUnits="userSpaceOnUse" id="gradient0" r="819.2" spreadMethod="pad">
      <animateTransform additive="replace" attributeName="gradientTransform" dur="2s" from="1" repeatCount="indefinite" to="1" type="scale"/>
      <animateTransform additive="sum" attributeName="gradientTransform" dur="2s" from="-4.7 3.1" repeatCount="indefinite" to="-4.7 3.1" type="translate"/>
      <animateTransform additive="sum" attributeName="gradientTransform" dur="2s" from="0.0" repeatCount="indefinite" to="0.0" type="rotate"/>
      <animateTransform additive="sum" attributeName="gradientTransform" dur="2s" from="0.0214 0.0214" repeatCount="indefinite" to="0.0214 0.0214" type="scale"/>
      <animateTransform additive="sum" attributeName="gradientTransform" dur="2s" from="0.0" repeatCount="indefinite" to="0.0" type="skewX"/>
      <stop offset="0.0" stop-color="#979f9f">
        <animate attributeName="offset" dur="2s" repeatCount="indefinite" values="0.0;0.0"/>
        <animate attributeName="stop-color" dur="2s" repeatCount="indefinite" values="#979f9f;#d5d3b6"/>
        <animate attributeName="stop-opacity" dur="2s" repeatCount="indefinite" values="1.0;1.0"/>
      </stop>
      <stop offset="0.2196078431372549" stop-color="#979f9f">
        <animate attributeName="offset" dur="2s" repeatCount="indefinite" values="0.2196078431372549;0.2196078431372549"/>
        <animate attributeName="stop-color" dur="2s" repeatCount="indefinite" values="#979f9f;#3c3e4d"/>
        <animate attributeName="stop-opacity" dur="2s" repeatCount="indefinite" values="1.0;1.0"/>
      </stop>
    </radialGradient>
    <radialGradient cx="0" cy="0" gradientTransform="matrix(0.0214, 0.0, 0.0, 0.0214, -4.7, 3.1)" gradientUnits="userSpaceOnUse" id="gradient1" r="819.2" spreadMethod="pad">
      <animateTransform additive="replace" attributeName="gradientTransform" dur="2s" from="1" repeatCount="indefinite" to="1" type="scale"/>
      <animateTransform additive="sum" attributeName="gradientTransform" dur="2s" from="-4.7 3.1" repeatCount="indefinite" to="-4.7 3.1" type="translate"/>
      <animateTransform additive="sum" attributeName="gradientTransform" dur="2s" from="0.0" repeatCount="indefinite" to="0.0" type="rotate"/>
      <animateTransform additive="sum" attributeName="gradientTransform" dur="2s" from="0.0214 0.0214" repeatCount="indefinite" to="0.0214 0.0214" type="scale"/>
      <animateTransform additive="sum" attributeName="gradientTransform" dur="2s" from="0.0" repeatCount="indefinite" to="0.0" type="skewX"/>
      <stop offset="0.0" stop-color="#cccccc">
        <animate attributeName="offset" dur="2s" repeatCount="indefinite" values="0.0;0.0"/>
        <animate attributeName="stop-color" dur="2s" repeatCount="indefinite" values="#cccccc;#d5d3b6"/>
        <animate attributeName="stop-opacity" dur="2s" repeatCount="indefinite" values="1.0;1.0"/>
      </stop>
      <stop offset="0.2196078431372549" stop-color="#cccccc">
        <animate attributeName="offset" dur="2s" repeatCount="indefinite" values="0.2196078431372549;0.2196078431372549"/>
        <animate attributeName="stop-color" dur="2s" repeatCount="indefinite" values="#cccccc;#3c3e4d"/>
        <animate attributeName="stop-opacity" dur="2s" repeatCount="indefinite" values="1.0;1.0"/>
      </stop>
    </radialGradient>
    <radialGradient cx="0" cy="0" gradientTransform="matrix(-0.0214, 0.0, 0.0, 0.0214, 4.7, 3.1)" gradientUnits="userSpaceOnUse" id="gradient2" r="819.2" spreadMethod="pad">
      <animateTransform additive="replace" attributeName="gradientTransform" dur="2s" from="1" repeatCount="indefinite" to="1" type="scale"/>
      <animateTransform additive="sum" attributeName="gradientTransform" dur="2s" from="4.7 3.1" repeatCount="indefinite" to="4.7 3.1" type="translate"/>
      <animateTransform additive="sum" attributeName="gradientTransform" dur="2s" from="0.0" repeatCount="indefinite" to="0.0" type="rotate"/>
      <animateTransform additive="sum" attributeName="gradientTransform" dur="2s" from="0.0214 -0.0214" repeatCount="indefinite" to="0.0214 -0.0214" type="scale"/>
      <animateTransform additive="sum" attributeName="gradientTransform" dur="2s" from="0.0" repeatCount="indefinite" to="0.0" type="skewX"/>
      <stop offset="0.0" stop-color="#cccccc">
        <animate attributeName="offset" dur="2s" repeatCount="indefinite" values="0.0;0.0"/>
        <animate attributeName="stop-color" dur="2s" repeatCount="indefinite" values="#cccccc;#d5d3b6"/>
        <animate attributeName="stop-opacity" dur="2s" repeatCount="indefinite" values="1.0;1.0"/>
      </stop>
      <stop offset="0.2196078431372549" stop-color="#cccccc">
        <animate attributeName="offset" dur="2s" repeatCount="indefinite" values="0.2196078431372549;0.2196078431372549"/>
        <animate attributeName="stop-color" dur="2s" repeatCount="indefinite" values="#cccccc;#3c3e4d"/>
        <animate attributeName="stop-opacity" dur="2s" repeatCount="indefinite" values="1.0;1.0"/>
      </stop>
    </radialGradient>
  </defs>
</svg>
