<?xml version="1.0" encoding="UTF-8" standalone="no"?>
<svg xmlns:ffdec="https://www.free-decompiler.com/flash" xmlns:xlink="http://www.w3.org/1999/xlink" ffdec:objectType="morphshape" height="20.0px" width="15.95px" xmlns="http://www.w3.org/2000/svg">
  <g transform="matrix(1.0, 0.0, 0.0, 1.0, 7.95, 19.95)">
    <path d="M1.0 -1.3 L1.1 -1.2 Q2.85 -0.4 4.0 -2.4 3.7 -7.7 2.35 -10.95 0.85 -6.65 1.0 -1.3 M-3.95 -2.4 Q-2.85 -0.4 -1.1 -1.2 L-0.95 -1.25 -0.95 -1.3 Q-0.85 -6.65 -2.3 -10.95 -3.65 -7.7 -3.95 -2.4" fill="#9fd8ef" fill-rule="evenodd" stroke="none">
      <animate attributeName="fill" dur="2s" repeatCount="indefinite" values="#9fd8ef;#9fd8f0"/>
      <animate attributeName="fill-opacity" dur="2s" repeatCount="indefinite" values="1.0;1.0"/>
      <animate attributeName="d" dur="2s" repeatCount="indefinite" values="M1.0 -1.3 L1.1 -1.2 Q2.85 -0.4 4.0 -2.4 3.7 -7.7 2.35 -10.95 0.85 -6.65 1.0 -1.3 M-3.95 -2.4 Q-2.85 -0.4 -1.1 -1.2 L-0.95 -1.25 -0.95 -1.3 Q-0.85 -6.65 -2.3 -10.95 -3.65 -7.7 -3.95 -2.4;M2.0 -0.6 L2.2 -0.45 Q5.7 1.25 8.0 -2.8 7.35 -13.45 4.65 -19.95 1.7 -11.3 2.0 -0.6 M-7.95 -2.8 Q-5.7 1.25 -2.2 -0.45 L-1.95 -0.55 -1.95 -0.6 Q-1.7 -11.3 -4.6 -19.95 -7.35 -13.45 -7.95 -2.8"/>
    </path>
    <path d="M-3.95 -2.4 Q-3.65 -7.7 -2.3 -10.95 -0.85 -6.65 -0.95 -1.3 L-0.95 -1.25 -1.1 -1.2 Q-2.85 -0.4 -3.95 -2.4 M1.0 -1.3 Q0.85 -6.65 2.35 -10.95 3.7 -7.7 4.0 -2.4 2.85 -0.4 1.1 -1.2 L1.0 -1.3 Z" fill="none" stroke="#000000" stroke-linecap="round" stroke-linejoin="round" stroke-opacity="0.0" stroke-width="0.0">
      <animate attributeName="stroke" dur="2s" repeatCount="indefinite" values="#000000;#000001"/>
      <animate attributeName="stroke-width" dur="2s" repeatCount="indefinite" values="0.0;0.0"/>
      <animate attributeName="fill-opacity" dur="2s" repeatCount="indefinite" values="0.0;0.0"/>
      <animate attributeName="d" dur="2s" repeatCount="indefinite" values="M-3.95 -2.4 Q-3.65 -7.7 -2.3 -10.95 -0.85 -6.65 -0.95 -1.3 L-0.95 -1.25 -1.1 -1.2 Q-2.85 -0.4 -3.95 -2.4 M1.0 -1.3 Q0.85 -6.65 2.35 -10.95 3.7 -7.7 4.0 -2.4 2.85 -0.4 1.1 -1.2 L1.0 -1.3 Z;M-7.95 -2.8 Q-7.35 -13.45 -4.6 -19.95 -1.7 -11.3 -1.95 -0.6 L-1.95 -0.55 -2.2 -0.45 Q-5.7 1.25 -7.95 -2.8 M2.0 -0.6 Q1.7 -11.3 4.65 -19.95 7.35 -13.45 8.0 -2.8 5.7 1.25 2.2 -0.45 L2.0 -0.6 Z"/>
    </path>
  </g>
</svg>
