<?xml version="1.0" encoding="UTF-8" standalone="no"?>
<svg xmlns:ffdec="https://www.free-decompiler.com/flash" xmlns:xlink="http://www.w3.org/1999/xlink" ffdec:objectType="shape" height="78.0px" width="38.0px" xmlns="http://www.w3.org/2000/svg">
  <g transform="matrix(1.0, 0.0, 0.0, 1.0, 19.0, 39.0)">
    <path d="M0.3 -37.8 L0.3 -39.0 2.85 -34.55 2.75 -34.55 2.65 -34.55 Q1.1 -34.5 1.95 -33.75 0.75 -33.95 1.05 -32.9 L1.1 -32.5 0.3 -32.5 0.3 -33.75 0.3 -34.55 0.3 -35.75 0.3 -37.0 0.3 -37.8 M1.95 -32.5 L1.95 -31.3 1.1 -31.3 1.1 -32.5 1.95 -32.5 M0.3 -31.3 L1.1 -31.3 1.1 -30.5 Q0.0 -30.7 0.25 -29.6 L0.3 -29.25 -0.5 -29.25 -2.1 -29.25 -2.1 -31.3 -1.3 -31.3 -1.15 -30.7 -0.9 -30.45 -0.6 -30.7 -0.5 -31.3 0.3 -31.3 M-9.4 -20.85 L-8.65 -22.4 -7.8 -21.55 -7.8 -20.75 -8.6 -20.75 -9.4 -20.75 -9.4 -20.85 M-8.45 -22.75 L-7.45 -24.8 -6.95 -24.8 -6.95 -24.0 Q-8.1 -24.2 -7.85 -23.1 L-7.8 -22.75 -8.45 -22.75 M-2.0 -35.75 L-1.3 -37.25 -1.3 -37.0 -1.3 -35.75 -2.0 -35.75 M6.8 -24.8 L7.6 -24.8 7.6 -24.75 7.6 -24.0 6.8 -24.0 6.8 -24.8 M7.6 -22.75 L7.6 -24.0 8.0 -23.9 10.0 -19.65 10.0 -19.5 9.2 -19.5 8.4 -19.5 Q8.85 -20.45 7.95 -20.8 L7.6 -20.75 7.6 -19.5 6.8 -19.5 6.8 -20.75 5.95 -20.75 5.95 -21.55 6.8 -21.55 6.8 -20.75 7.6 -20.75 8.45 -22.05 7.6 -22.75 M10.8 -17.5 L10.8 -18.0 12.65 -14.25 12.45 -14.25 11.65 -14.25 Q11.9 -14.85 11.2 -15.1 L10.8 -15.05 10.0 -15.05 10.0 -16.25 10.8 -16.35 10.8 -17.5 M9.2 -18.3 L9.3 -18.3 Q10.25 -18.55 10.0 -17.5 L10.0 -16.25 9.2 -16.25 9.2 -18.3 M7.6 -18.3 L7.6 -19.5 8.4 -19.5 8.4 -18.3 7.6 -18.3 M15.65 -5.3 L16.5 -5.3 16.95 -5.3 17.3 -4.65 17.3 -4.5 16.5 -4.5 15.65 -4.5 15.65 -5.3 M12.45 -4.5 L13.25 -4.5 13.25 -3.25 12.45 -3.25 12.45 -4.5 M13.25 -2.05 L13.25 -1.25 12.45 -1.25 12.45 -2.05 13.25 -2.05 M13.25 0.0 L13.25 -1.25 14.05 -1.25 14.05 -2.05 18.1 -2.05 18.55 -2.0 19.0 -1.15 17.3 0.0 16.5 0.0 14.85 0.0 Q15.15 -0.9 14.5 -1.15 L14.05 -1.25 14.05 0.0 13.25 0.0 M13.25 1.2 L15.65 1.2 15.65 2.0 15.65 3.25 14.85 3.25 Q15.15 2.4 14.5 2.1 L14.05 2.0 13.25 2.0 13.25 1.2 M16.75 5.25 L16.5 5.85 16.5 5.25 16.75 5.25 M13.3 11.75 L13.25 11.9 13.25 11.75 Q12.15 11.55 12.4 12.6 L12.45 13.0 11.65 13.0 Q12.05 12.1 11.3 11.75 L10.8 11.75 10.8 10.95 11.65 10.95 12.45 10.95 13.25 10.95 13.25 11.75 13.3 11.75 M10.4 18.25 L10.0 19.05 10.0 18.25 10.4 18.25 M7.65 23.95 L7.6 24.05 7.6 23.95 7.65 23.95 M5.95 27.2 L5.65 28.0 5.55 28.0 Q4.8 28.1 5.2 29.0 L4.35 30.75 3.55 30.45 3.55 28.0 3.95 28.1 Q4.6 27.95 4.35 27.2 L5.15 27.2 5.95 27.2 M3.5 32.5 L2.9 33.7 2.75 33.7 2.75 34.05 2.5 34.5 1.95 34.5 Q1.65 33.75 2.35 33.7 L2.75 33.7 2.75 32.5 3.5 32.5 M1.3 36.95 L1.1 37.35 1.1 36.95 0.3 36.95 0.3 35.75 1.1 35.75 1.1 36.95 1.3 36.95 M0.9 37.75 L0.3 39.0 0.3 37.75 0.9 37.75 M-0.5 37.75 L-0.5 37.85 -0.65 37.75 -0.5 37.75 -0.5 36.95 0.3 36.95 0.3 37.75 -0.5 37.75 M-1.05 36.95 L-1.3 36.4 -1.3 35.75 -1.65 35.75 -2.1 34.75 -2.1 34.5 -1.3 34.5 -1.3 35.75 -0.5 35.75 -0.5 36.95 -1.05 36.95 M-2.2 34.5 L-2.6 33.7 -2.1 33.7 -2.1 34.5 -2.2 34.5 M-3.75 31.35 L-3.8 31.25 -3.75 31.25 -3.75 30.45 -4.2 30.45 -4.55 29.75 -4.55 29.25 -3.75 29.25 -3.75 28.0 -3.75 27.2 -2.95 27.2 -2.95 28.0 -2.95 29.25 -3.75 29.25 -3.75 30.45 -2.95 30.45 -2.95 31.25 -3.75 31.25 -3.75 31.35 M-4.8 29.25 L-5.35 28.0 -4.55 28.0 -4.55 29.25 -4.8 29.25 M-5.35 27.85 L-5.7 27.2 -5.35 27.2 -5.35 27.85 M-6.2 26.3 L-6.35 26.0 -6.15 26.0 -6.15 24.75 -6.2 24.35 Q-6.75 23.35 -6.95 24.5 L-6.95 24.75 -7.95 22.75 -7.8 22.75 -7.3 22.75 Q-6.5 22.3 -6.95 21.5 L-6.55 21.6 Q-5.9 21.45 -6.15 20.7 L-5.7 20.7 Q-5.0 20.35 -5.35 19.5 L-5.35 18.25 -3.75 18.25 -3.75 20.7 Q-5.4 20.5 -4.6 22.35 L-4.55 22.75 -4.55 23.95 -5.35 26.0 -6.15 26.0 -6.2 26.3 M-8.6 21.4 L-8.9 20.7 -8.6 20.7 -8.6 21.4 M16.5 4.45 L16.5 5.25 15.65 5.25 15.65 4.45 16.5 4.45 M13.25 4.45 L13.25 3.25 14.05 3.25 14.05 4.45 13.25 4.45 M13.25 5.25 L14.05 5.25 14.05 6.5 13.25 6.5 13.25 5.25 M14.05 6.5 L14.85 6.5 14.85 7.7 14.85 8.5 14.05 8.5 13.25 8.5 13.25 7.7 13.7 7.65 Q14.35 7.5 14.05 6.5 M13.25 3.25 L12.45 3.25 12.45 2.0 13.25 2.0 13.25 3.25 M13.25 9.75 L12.45 9.75 12.45 8.5 13.25 8.5 13.25 9.75 M9.2 13.0 L10.0 13.0 10.0 14.2 9.2 14.2 9.2 13.0 M10.0 13.0 L10.0 11.75 10.8 11.75 10.8 13.0 11.65 13.0 11.65 14.2 10.8 14.2 10.8 13.0 10.0 13.0 M6.8 16.25 L7.6 16.25 7.6 17.45 6.8 17.45 6.8 16.25 M6.8 17.45 L6.8 18.25 7.6 18.25 7.6 17.45 8.4 17.45 8.4 16.25 7.6 16.25 7.6 15.0 8.4 15.0 8.4 16.25 9.2 16.25 9.2 17.45 10.0 17.45 10.0 18.25 9.2 18.25 9.2 17.45 8.4 17.45 8.4 18.25 9.2 18.25 9.2 19.5 8.4 19.5 8.4 18.25 7.6 18.25 7.6 19.5 6.8 19.5 6.8 18.25 Q5.95 18.5 5.9 17.85 L5.95 17.45 6.8 17.45 M5.95 19.5 L6.8 19.5 6.8 20.7 5.95 20.7 5.95 19.5 M4.35 20.7 L4.35 19.5 5.15 19.5 5.15 20.7 5.15 21.5 4.35 21.5 4.35 20.7 M3.55 22.75 L4.35 22.75 4.35 23.95 4.25 23.95 Q2.6 24.05 3.55 24.75 L2.75 24.75 2.75 23.95 2.75 22.75 3.55 22.75 M-0.5 26.0 L1.95 26.0 1.95 27.2 Q0.4 27.25 1.55 27.9 L1.95 28.0 1.95 29.25 0.3 32.5 0.3 30.45 0.3 29.25 0.0 27.4 -1.3 28.0 -1.3 29.25 -2.1 29.25 -2.1 28.0 -2.1 27.2 -1.65 27.2 Q-0.9 26.85 -1.3 26.0 L-0.5 26.0 M5.15 22.75 L5.95 22.75 5.95 23.95 5.15 23.95 5.15 22.75 M5.95 23.95 L6.8 23.95 6.8 24.75 5.95 24.75 5.95 23.95 M-1.3 -34.55 L-0.5 -34.55 -0.5 -33.75 -1.3 -33.75 -1.3 -34.55 M-6.15 -27.25 L-5.75 -27.15 Q-5.0 -27.35 -5.35 -28.05 L-4.55 -28.05 -4.55 -27.7 Q-4.45 -27.1 -3.75 -27.25 L-3.75 -26.0 Q-4.9 -26.3 -4.6 -25.2 L-4.55 -24.8 -5.35 -24.8 -6.15 -24.8 -6.15 -26.0 -6.15 -27.25 M-6.15 -24.0 L-5.35 -24.0 -4.55 -24.0 -4.55 -22.75 Q-5.7 -23.0 -5.4 -21.9 L-5.35 -21.55 -6.15 -21.55 -6.15 -22.75 -6.15 -24.0 M-3.75 -29.25 L-3.75 -28.05 -2.95 -28.05 -2.95 -27.25 -3.75 -27.25 -3.75 -28.05 -4.55 -28.05 -4.55 -29.25 -3.75 -29.25 M-2.1 -27.25 L-2.1 -26.0 -2.95 -26.0 -2.95 -27.25 -2.1 -27.25 M-3.75 -24.0 L-2.95 -24.0 -2.95 -22.75 -3.75 -22.75 -3.75 -24.0 M-2.1 -21.55 L-1.3 -21.55 -1.3 -20.75 -2.1 -20.75 -2.1 -21.55 M-5.35 -21.55 L-4.55 -21.55 -4.55 -20.75 Q-5.35 -20.6 -5.4 -21.15 L-5.35 -21.55 M-6.95 -20.75 Q-6.5 -19.8 -7.3 -19.55 L-7.8 -19.5 -7.8 -20.75 -6.95 -20.75 M-18.4 1.2 L-19.0 0.0 -18.3 0.0 -18.3 1.2 -18.4 1.2 M-18.4 -2.05 L-16.85 -5.3 -16.65 -5.3 -15.85 -5.3 -15.05 -5.3 -15.05 -4.5 -14.25 -4.5 -14.25 -3.25 -15.05 -3.25 -15.05 -4.5 -15.45 -4.5 Q-16.2 -4.5 -15.85 -3.25 L-17.5 -3.25 -17.5 -2.05 -18.3 -2.05 -18.4 -2.05 M-15.85 -7.35 L-15.3 -8.55 -15.05 -8.55 -15.05 -7.75 -15.05 -6.5 -15.85 -6.5 -15.85 -7.35 M-13.45 -2.05 L-13.45 -3.25 -11.8 -3.25 -11.8 -2.05 -12.65 -2.05 -13.45 -2.05 M-13.65 10.95 L-14.8 8.55 -14.65 8.6 Q-13.95 8.6 -14.25 7.7 L-13.45 7.7 -12.65 7.7 -12.65 8.5 -13.45 10.95 -13.65 10.95 M-15.05 8.05 L-15.25 7.7 -15.05 7.7 -15.05 8.05 M-7.8 16.25 L-7.8 15.0 -6.95 15.0 -6.2 15.9 -6.95 17.45 -6.15 17.45 -6.15 18.25 -6.95 18.25 Q-6.5 19.15 -7.3 19.45 L-7.8 19.5 -7.8 20.7 -8.6 20.7 -8.6 19.5 -7.8 19.5 -7.8 18.25 -6.95 18.25 -6.95 17.45 -7.8 17.45 -7.8 16.25" fill="#101010" fill-rule="evenodd" stroke="none"/>
    <path d="M-0.5 -38.9 L-0.5 -37.8 -1.05 -37.8 -0.5 -38.9 M0.3 -37.0 L0.3 -35.75 -0.5 -35.75 -0.5 -37.0 0.3 -37.0 M-5.9 -28.05 L-4.55 -30.5 -4.55 -30.55 -4.55 -30.5 -4.55 -29.25 -4.55 -28.05 -5.35 -28.05 -5.9 -28.05 M-3.8 -32.5 L-3.2 -33.75 -2.1 -33.75 -2.1 -31.3 -2.95 -31.3 -2.95 -32.35 -3.75 -32.5 -3.8 -32.5 M9.2 -16.25 L8.55 -16.35 8.4 -17.5 8.4 -18.3 9.2 -18.3 9.2 -16.25 M3.55 -19.5 L3.55 -20.75 4.35 -20.75 4.35 -19.5 3.55 -19.5 M5.15 -22.75 L6.8 -22.75 6.8 -21.55 5.95 -21.55 5.15 -21.55 5.15 -22.75 M5.15 -21.55 L5.15 -20.75 4.35 -20.75 4.35 -21.55 5.15 -21.55 M14.0 10.95 L13.3 11.75 13.25 11.75 13.25 10.95 14.0 10.95 M13.0 13.0 L12.45 14.1 12.45 13.0 13.0 13.0 M12.4 14.2 L12.0 15.0 11.65 15.0 11.65 15.75 10.8 17.4 10.8 15.0 11.65 15.0 11.65 14.2 12.4 14.2 M8.95 20.7 L8.6 21.5 8.4 21.5 8.4 20.7 8.95 20.7 M8.25 22.75 L7.65 23.95 7.6 23.95 7.6 24.05 6.8 25.75 6.8 24.75 6.8 23.95 7.6 23.95 7.55 23.6 Q7.25 22.45 8.25 22.75 M4.1 31.25 L3.5 32.5 2.75 32.5 2.75 30.45 3.55 30.45 Q3.45 30.6 3.5 30.8 3.5 31.25 4.1 31.25 M4.35 11.75 L5.15 11.75 Q5.5 12.7 4.8 12.95 L4.35 13.0 4.35 11.75 M-1.3 -34.55 L-1.3 -33.75 -2.1 -33.75 -2.1 -34.55 -1.3 -34.55" fill="#283040" fill-rule="evenodd" stroke="none"/>
    <path d="M0.3 -39.0 L0.3 -37.8 -0.5 -37.8 -0.5 -38.9 0.3 -39.0 M0.3 -35.75 L0.3 -34.55 -0.5 -34.55 -0.5 -35.75 0.3 -35.75 M1.95 -33.75 Q1.1 -34.5 2.65 -34.55 L2.75 -34.55 2.75 -33.75 1.95 -33.75 M1.1 -31.3 L1.95 -31.3 1.95 -30.5 1.1 -30.5 1.1 -31.3 M1.95 -28.05 L1.95 -27.25 1.1 -27.25 0.3 -27.25 -0.5 -27.25 -0.5 -28.05 0.9 -28.1 1.1 -29.25 1.95 -29.25 1.95 -28.05 M-0.5 -24.8 L-0.5 -24.0 -1.3 -24.0 Q-2.1 -23.9 -2.1 -24.4 L-2.1 -24.8 -1.3 -24.8 -0.5 -24.8 M-0.5 -21.55 L-0.5 -19.5 -1.3 -19.5 -1.3 -20.75 -1.3 -21.55 -0.5 -21.55 M-4.55 -20.75 L-5.35 -18.3 -5.4 -19.4 Q-6.6 -19.9 -6.15 -18.3 L-6.95 -18.3 -7.8 -18.3 -7.8 -19.5 -7.3 -19.55 Q-6.5 -19.8 -6.95 -20.75 L-6.55 -20.65 Q-5.9 -20.85 -6.15 -21.55 L-5.35 -21.55 -5.4 -21.15 Q-5.35 -20.6 -4.55 -20.75 M-6.15 -16.25 L-6.25 -15.4 -6.55 -15.05 Q-6.75 -15.05 -6.8 -15.4 L-6.95 -16.25 -6.15 -16.25 M-7.8 -16.25 L-8.45 -16.35 -8.6 -17.5 -7.8 -17.5 -7.8 -16.25 M-8.6 -19.5 L-9.4 -19.5 -10.05 -19.5 -9.45 -20.75 -9.4 -20.75 -8.6 -20.75 -8.6 -19.5 M-10.2 -17.5 L-11.0 -17.5 -10.6 -18.3 -10.2 -18.3 -10.2 -17.5 M-11.0 -16.25 L-11.0 -15.05 -11.8 -15.05 -11.8 -15.8 -11.6 -16.25 -11.0 -16.25 M-8.65 -22.4 L-8.45 -22.75 -7.8 -22.75 -7.8 -21.55 -6.95 -21.55 -6.95 -20.75 -7.8 -20.75 -7.8 -21.55 -8.65 -22.4 M-1.3 -37.25 Q-1.5 -37.5 -1.2 -37.75 L-1.05 -37.8 -0.5 -37.8 -0.5 -37.0 -1.3 -37.0 -1.3 -37.25 M7.6 -24.0 L7.6 -24.75 8.0 -23.9 7.6 -24.0 M6.8 -22.75 L7.6 -22.75 8.45 -22.05 7.6 -20.75 6.8 -20.75 6.8 -21.55 6.8 -22.75 M10.0 -16.25 L10.0 -15.05 10.8 -15.05 10.8 -14.25 Q10.15 -14.05 10.0 -14.65 L10.0 -15.05 9.35 -15.15 9.2 -16.25 10.0 -16.25 M11.65 -14.25 L12.45 -14.25 12.45 -13.0 11.8 -13.1 11.65 -14.25 M10.1 -19.5 L10.0 -19.5 10.0 -19.65 10.1 -19.5 M5.95 -19.5 L5.15 -19.5 Q5.5 -18.65 4.8 -18.3 L4.35 -18.3 4.35 -19.5 5.15 -19.5 5.15 -20.75 5.15 -21.55 5.95 -21.55 5.95 -20.75 5.95 -19.5 M3.55 -22.75 L4.35 -22.75 4.35 -21.55 3.55 -21.55 3.55 -22.75 M10.0 -7.75 L10.0 -8.55 11.65 -8.55 11.65 -7.75 10.0 -7.75 M14.85 -8.55 L14.05 -8.9 14.0 -9.25 Q14.05 -10.0 14.8 -9.75 L14.85 -9.75 14.85 -9.65 14.85 -8.55 M15.65 -4.5 L16.5 -4.5 Q16.45 -4.0 16.65 -3.6 16.7 -3.25 16.9 -3.25 17.05 -3.25 17.2 -3.6 L17.3 -4.5 17.3 -4.65 18.1 -2.95 18.1 -2.05 14.05 -2.05 14.05 -3.25 14.05 -4.5 14.85 -4.5 Q14.85 -4.0 15.0 -3.6 15.1 -3.25 15.25 -3.25 L15.55 -3.6 15.65 -4.5 M14.05 0.0 L14.85 0.0 16.5 0.0 16.5 1.2 15.65 1.2 13.25 1.2 13.25 0.0 14.05 0.0 M18.1 2.5 L17.75 3.25 17.3 3.25 17.3 2.0 18.1 2.0 18.1 2.5 M13.25 11.9 L13.0 13.0 12.45 13.0 12.4 12.6 Q12.15 11.55 13.25 11.75 L13.25 11.9 M10.8 17.45 L10.4 18.25 10.0 18.25 10.0 17.45 10.8 17.45 M8.4 21.9 L8.25 22.75 Q7.25 22.45 7.55 23.6 L7.6 23.95 6.8 23.95 Q7.1 23.15 6.4 22.85 L5.95 22.75 Q6.3 21.9 5.6 21.6 L5.15 21.5 5.15 20.7 5.95 20.7 6.8 20.7 8.4 21.5 8.4 21.9 M-6.35 26.0 L-6.95 24.75 -6.85 24.75 -6.15 24.75 -6.15 26.0 -6.35 26.0 M-8.55 21.5 L-8.6 21.4 -8.6 20.7 -8.9 20.7 -9.4 19.7 -9.4 19.5 -9.5 19.5 -10.1 18.25 -9.4 18.25 -9.4 19.5 -8.6 19.5 -8.6 20.7 -7.8 20.7 -7.8 19.5 -7.3 19.45 Q-6.5 19.15 -6.95 18.25 L-6.15 18.25 -6.15 19.5 -6.15 20.7 -6.95 20.7 -7.8 20.7 -7.8 21.5 -8.55 21.5 M-9.4 17.45 L-9.45 17.05 Q-9.7 15.95 -8.6 16.25 L-7.8 16.25 -7.8 17.45 -7.8 18.25 -7.8 19.5 -8.6 19.5 -8.6 18.25 Q-8.45 17.5 -9.0 17.4 L-9.4 17.45 M-4.55 16.25 L-4.1 16.35 Q-3.35 16.65 -3.75 17.45 L-4.55 17.45 -4.55 16.25 M-2.95 21.5 L-2.95 22.75 -4.55 22.75 -4.6 22.35 Q-5.4 20.5 -3.75 20.7 L-3.75 21.1 Q-3.65 21.75 -2.95 21.5 M-2.95 23.95 L-2.5 23.9 Q-1.85 24.0 -2.1 24.75 L-1.3 24.75 -1.3 26.0 -2.1 26.0 -2.1 24.75 -2.95 24.75 -2.95 23.95 M8.4 14.2 L8.4 13.0 9.2 13.0 9.2 14.2 8.4 14.2 M2.75 13.0 L2.7 12.6 Q2.45 11.55 3.55 11.75 L3.55 13.0 2.75 13.0 M1.1 18.25 L1.55 18.4 Q2.2 18.55 2.0 19.25 L1.95 19.5 1.1 19.5 1.1 18.25 M4.35 21.5 L5.15 21.5 5.15 22.75 5.15 23.95 5.15 24.75 4.35 24.75 4.35 23.95 4.35 22.75 4.35 21.5 M2.75 21.5 L3.2 21.6 Q3.85 21.9 3.55 22.75 L2.75 22.75 2.75 21.5 M0.3 20.7 L0.3 19.5 1.1 19.5 1.1 20.7 0.3 20.7 M0.3 21.5 L1.95 21.5 1.95 22.75 Q0.75 22.5 1.05 23.6 L1.1 23.95 0.3 23.95 0.3 21.5 M5.95 26.0 L5.15 26.0 5.15 24.75 5.95 24.75 5.95 26.0 M5.15 26.0 L5.15 27.2 4.35 27.2 4.35 26.0 5.15 26.0 M0.3 32.5 L1.95 29.25 2.1 30.35 2.75 30.45 2.75 32.5 2.75 33.7 2.35 33.7 Q1.65 33.75 1.95 34.5 L1.95 35.75 1.1 35.75 0.3 32.5 M-3.75 -26.0 L-3.75 -27.25 -2.95 -27.25 -2.95 -26.0 -2.95 -24.8 -3.75 -24.8 -3.75 -26.0 M-6.95 -24.0 L-6.15 -24.0 -6.15 -22.75 -6.8 -22.85 -6.95 -24.0 M-13.45 -12.4 L-13.15 -13.0 -12.65 -13.0 -12.65 -11.8 -12.65 -11.0 -12.65 -9.75 -13.45 -9.75 -13.45 -11.0 -13.45 -11.8 -13.45 -12.4 M-11.8 -9.75 Q-11.45 -9.8 -11.2 -9.55 L-10.95 -9.15 -11.2 -8.7 -11.8 -8.55 -11.8 -9.75 M-15.3 -8.55 L-15.05 -9.05 -15.05 -8.55 -15.3 -8.55 M-15.05 -5.3 L-13.45 -5.3 -13.45 -4.5 -14.25 -4.5 -15.05 -4.5 -15.05 -5.3 M-11.8 -3.25 Q-11.45 -3.3 -11.2 -3.05 L-10.95 -2.65 -11.2 -2.2 -11.8 -2.05 -11.8 -3.25 M-13.45 -1.25 L-13.45 0.0 -14.25 0.0 -15.05 0.0 -15.05 -1.25 -13.45 -1.25 M-19.0 0.0 L-18.4 -2.05 -18.3 -2.05 -18.3 0.0 -19.0 0.0 M-16.85 -5.3 L-16.65 -5.7 -16.65 -5.3 -16.85 -5.3 M-10.2 10.95 L-9.8 10.9 Q-9.25 10.95 -9.4 11.75 L-10.2 11.75 -10.2 10.95 M-15.85 6.4 L-16.4 5.25 -15.85 5.25 -15.85 6.4 M-14.25 7.7 L-14.3 7.3 Q-14.6 6.2 -13.45 6.5 L-13.45 7.7 -14.25 7.7 M-15.05 4.45 L-14.25 4.45 -14.8 5.3 -15.05 4.45 M-5.35 26.0 L-4.55 23.95 -3.75 23.95 -3.75 24.75 -3.75 27.2 -3.75 28.0 -4.55 28.0 -4.55 27.2 Q-4.25 26.25 -4.85 26.0 L-5.35 26.0 M-2.1 27.2 L-2.1 28.0 -2.95 28.0 -2.95 27.2 -2.1 27.2" fill="#7878a0" fill-rule="evenodd" stroke="none"/>
    <path d="M2.75 -34.55 L2.85 -34.55 4.35 -31.45 4.35 -31.3 2.75 -31.3 1.95 -31.3 1.95 -32.5 2.4 -32.55 Q3.15 -32.8 2.75 -33.75 L2.75 -34.55 M-1.3 -19.5 L-2.1 -19.5 -2.1 -20.75 -2.95 -20.75 -2.95 -21.55 -3.75 -21.55 -3.75 -22.75 -2.95 -22.75 -2.95 -21.55 -2.1 -21.55 -2.1 -20.75 -1.3 -20.75 -1.3 -19.5 M-3.75 -20.75 L-4.55 -20.75 -4.55 -21.55 -5.35 -21.55 -5.4 -21.9 Q-5.7 -23.0 -4.55 -22.75 L-4.55 -21.55 -3.75 -21.55 -3.75 -20.75 M-6.15 -18.3 L-6.15 -17.5 -6.95 -17.5 -6.95 -18.3 -6.15 -18.3 M16.5 -5.3 L16.5 -6.3 16.95 -5.3 16.5 -5.3 M2.75 17.45 L3.6 17.85 3.55 19.5 3.55 20.7 3.45 20.7 Q1.85 20.75 2.75 21.5 L1.95 21.5 1.95 20.7 1.95 19.5 2.0 19.25 2.75 17.45 M9.2 14.2 L10.0 14.2 10.0 13.0 10.8 13.0 10.8 14.2 10.0 14.2 10.0 16.25 9.2 16.25 Q9.5 15.5 8.85 15.1 L8.4 15.0 8.4 14.2 9.2 14.2 M3.55 24.75 Q2.6 24.05 4.25 23.95 L4.35 23.95 4.35 24.75 4.35 26.0 4.35 27.2 3.55 27.2 2.9 27.1 2.75 26.0 3.2 25.95 Q4.0 25.65 3.55 24.75 M-2.95 30.45 L-2.1 30.45 -2.1 31.25 -2.95 31.25 -2.95 30.45 M-4.55 -24.8 L-4.6 -25.2 Q-4.9 -26.3 -3.75 -26.0 L-3.75 -24.8 -4.55 -24.8 M-3.75 -27.25 Q-4.45 -27.1 -4.55 -27.7 L-4.55 -28.05 -3.75 -28.05 -3.75 -27.25 M-2.95 -28.05 L-2.1 -28.05 -2.1 -27.25 -2.95 -27.25 -2.95 -28.05 M-2.1 -26.0 L-2.1 -24.8 -2.95 -24.8 -2.95 -26.0 -2.1 -26.0 M-13.15 -13.0 L-12.65 -14.1 -12.65 -13.0 -13.15 -13.0 M-12.65 -11.0 L-12.15 -10.9 Q-11.5 -10.6 -11.8 -9.75 L-12.65 -9.75 -12.65 -11.0 M-12.65 -8.55 L-13.3 -8.65 -13.45 -9.75 -12.65 -9.75 -12.65 -8.55" fill="#182020" fill-rule="evenodd" stroke="none"/>
    <path d="M0.3 -32.5 L1.1 -32.5 1.05 -32.9 Q0.75 -33.95 1.95 -33.75 L1.95 -32.5 1.1 -32.5 1.1 -31.3 0.3 -31.3 0.3 -32.5 M6.8 -24.8 L6.8 -24.0 Q5.35 -24.15 6.4 -24.7 L6.8 -24.8 M9.2 -19.5 L9.2 -18.3 8.4 -18.3 8.4 -19.5 7.6 -19.5 7.6 -18.3 6.95 -18.4 6.8 -19.5 5.95 -19.5 5.95 -20.75 6.8 -20.75 6.8 -19.5 7.6 -19.5 7.6 -20.75 7.95 -20.8 Q8.85 -20.45 8.4 -19.5 L9.2 -19.5 M4.35 -18.3 L3.55 -19.5 4.35 -19.5 4.35 -20.75 3.55 -20.75 3.55 -21.55 2.75 -22.75 3.55 -22.75 Q3.6 -23.35 3.95 -23.75 4.5 -24.5 4.35 -22.75 L5.15 -22.75 5.15 -21.55 4.35 -21.55 4.35 -20.75 5.15 -20.75 5.15 -19.5 4.35 -19.5 4.35 -18.3 M3.55 -22.75 L3.55 -21.55 4.35 -21.55 4.35 -22.75 3.55 -22.75 M11.7 -6.35 Q12.9 -5.1 11.75 -6.2 L11.7 -6.35 M13.25 -7.75 L13.25 -6.5 Q11.65 -7.05 12.9 -7.75 L13.25 -7.75 M14.05 -5.3 L14.85 -5.3 14.85 -4.5 14.05 -4.5 14.05 -5.3 M13.25 -2.05 L14.05 -2.05 14.05 -1.25 13.25 -1.25 13.25 0.0 12.45 0.0 12.45 -1.25 13.25 -1.25 13.25 -2.05 M12.45 -2.05 L12.45 -1.25 11.65 -1.25 11.65 -2.05 12.45 -2.05 M14.05 0.0 L14.05 -1.25 14.5 -1.15 Q15.15 -0.9 14.85 0.0 L14.05 0.0 M16.5 0.0 L17.3 0.0 17.3 1.2 16.5 1.2 16.5 0.0 M18.3 2.0 L18.1 2.5 18.1 2.0 18.3 2.0 M14.9 8.5 L14.85 8.6 14.85 8.5 14.9 8.5 M12.0 15.0 L11.65 15.75 11.65 15.0 12.0 15.0 M9.2 20.7 L8.95 20.7 8.4 20.7 8.4 19.5 9.2 19.5 9.2 20.7 M8.6 21.5 L8.4 21.9 8.4 21.5 8.6 21.5 M5.65 28.0 L5.2 29.0 Q4.8 28.1 5.55 28.0 L5.65 28.0 M2.9 33.7 L2.75 34.05 2.75 33.7 2.9 33.7 M2.5 34.5 L1.95 35.75 1.3 36.95 1.1 36.95 1.1 35.75 1.95 35.75 1.95 34.5 2.5 34.5 M1.1 37.35 L0.9 37.75 0.3 37.75 0.3 39.0 -0.5 37.75 0.3 37.75 0.3 36.95 1.1 36.95 1.1 37.35 M-0.65 37.75 L-1.05 36.95 -0.5 36.95 -0.5 35.75 0.3 35.75 0.3 36.95 -0.5 36.95 -0.5 37.75 -0.65 37.75 M-1.3 36.4 L-1.65 35.75 -1.3 35.75 -1.3 36.4 M-2.1 34.75 L-2.2 34.5 -2.1 34.5 -2.1 33.7 -2.6 33.7 -2.95 33.05 -2.95 32.5 -3.2 32.5 -3.75 31.35 -3.75 31.25 -2.95 31.25 -2.95 32.5 -2.45 32.6 Q-1.85 32.95 -2.1 33.7 L-1.3 33.7 -1.3 34.5 -2.1 34.5 -2.1 34.75 M-4.55 29.75 L-4.8 29.25 -4.55 29.25 -4.55 29.75 M-5.35 28.0 L-5.35 27.85 -5.35 27.2 -4.55 27.2 -4.55 28.0 -5.35 28.0 M-2.95 20.7 L-2.95 21.5 Q-3.65 21.75 -3.75 21.1 L-3.75 20.7 -2.95 20.7 M5.15 14.2 Q4.7 12.7 5.9 13.1 L5.95 14.2 6.35 14.15 Q7.0 14.25 6.8 15.0 L7.6 15.0 Q7.4 14.1 8.0 14.2 L8.4 14.2 8.4 15.0 7.6 15.0 7.6 16.25 8.4 16.25 8.4 17.45 7.6 17.45 7.6 18.25 6.8 18.25 6.8 17.45 7.6 17.45 7.6 16.25 6.8 16.25 6.8 15.0 5.95 15.0 5.95 14.2 5.15 14.2 M8.4 10.95 L8.8 10.9 Q9.35 10.95 9.2 11.75 L10.0 11.75 10.0 13.0 9.2 13.0 9.2 11.75 8.4 11.75 8.4 10.95 M10.8 10.95 L10.75 10.55 Q10.45 9.45 11.65 9.75 L11.65 10.95 10.8 10.95 M12.45 8.5 Q12.1 7.65 12.85 7.7 L13.25 7.7 13.25 6.5 Q11.65 5.9 12.95 5.4 13.0 5.25 13.25 5.25 L13.25 6.5 14.05 6.5 Q14.35 7.5 13.7 7.65 L13.25 7.7 13.25 8.5 14.05 8.5 Q14.35 9.35 13.7 9.75 L13.25 9.75 13.25 8.5 12.45 8.5 M13.25 4.45 L12.45 4.45 12.45 3.25 13.25 3.25 13.25 2.0 12.45 2.0 12.45 1.2 13.25 1.2 13.25 2.0 14.05 2.0 14.05 3.25 14.85 3.25 14.85 4.45 15.65 4.45 15.65 5.25 14.85 5.25 14.85 4.45 14.05 4.45 14.05 3.25 13.25 3.25 13.25 4.45 M7.6 18.25 L8.4 18.25 8.4 19.5 7.6 19.5 7.6 18.25 M5.15 23.95 L5.95 23.95 5.95 24.75 5.15 24.75 5.15 26.0 4.35 26.0 4.35 24.75 5.15 24.75 5.15 23.95 M10.8 15.0 L10.8 14.2 11.65 14.2 11.65 15.0 10.8 15.0 M1.95 28.0 L2.4 28.15 Q3.15 28.35 2.75 29.25 L1.95 29.25 1.95 28.0 M-5.35 16.25 L-4.55 16.25 -4.55 17.45 -5.35 17.45 -5.35 16.25" fill="#000000" fill-rule="evenodd" stroke="none"/>
    <path d="M2.75 -33.75 Q3.15 -32.8 2.4 -32.55 L1.95 -32.5 1.95 -33.75 2.75 -33.75 M1.95 -30.5 L2.75 -30.5 3.5 -28.55 1.95 -28.05 1.95 -29.25 1.95 -30.5 M0.3 -29.25 L0.25 -29.6 Q0.0 -30.7 1.1 -30.5 L1.1 -29.25 0.3 -29.25 M-9.4 -18.3 Q-9.15 -17.5 -9.8 -17.4 L-10.2 -17.5 -10.2 -18.3 -9.4 -18.3 M-4.55 -30.55 L-4.35 -31.3 -3.75 -31.3 -3.75 -30.5 -4.55 -30.5 -4.55 -30.55 M-0.5 -28.05 L-0.5 -27.25 -0.5 -24.8 -1.3 -24.8 -1.3 -28.05 -0.5 -28.05 M7.6 -24.8 L6.8 -24.8 6.8 -26.45 7.6 -24.8 M7.95 -14.8 Q8.7 -14.15 7.6 -15.05 L7.95 -14.8 M13.25 -3.25 L14.05 -3.25 14.05 -2.05 13.25 -2.05 13.25 -3.25 M15.65 1.2 L16.5 1.2 16.5 2.0 15.65 2.0 15.65 1.2 M17.75 3.25 L17.3 4.2 17.3 3.25 17.75 3.25 M17.15 4.45 L16.75 5.25 16.5 5.25 16.5 4.45 17.15 4.45 M15.7 7.45 L15.3 7.7 14.85 7.7 14.85 6.5 15.25 6.45 Q15.95 6.55 15.7 7.45 M12.45 14.1 L12.4 14.2 11.65 14.2 11.65 13.0 12.45 13.0 12.45 14.1 M6.8 25.75 L6.65 26.0 5.95 26.0 5.95 24.75 6.8 24.75 6.8 25.75 M-6.95 14.2 L-5.35 14.2 -5.35 16.25 -5.35 17.45 -6.15 17.45 -6.95 17.45 -6.2 15.9 -6.95 15.0 -6.95 14.2 M-4.55 13.0 Q-4.2 12.95 -3.95 13.2 L-3.7 13.6 -3.95 14.05 -4.55 14.2 -4.55 13.0 M0.3 18.25 L0.3 17.45 1.1 17.45 1.95 17.45 2.75 17.45 2.0 19.25 Q2.2 18.55 1.55 18.4 L1.1 18.25 0.3 18.25 M3.55 19.5 L4.35 19.5 4.35 20.7 3.55 20.7 3.55 19.5 M5.15 18.25 Q4.85 17.45 5.55 17.45 L5.95 17.45 5.9 17.85 Q5.95 18.5 6.8 18.25 L6.8 19.5 5.95 19.5 5.15 19.5 5.15 18.25 M5.95 16.25 L5.95 15.0 Q5.25 15.2 5.15 14.6 L5.15 14.2 5.95 14.2 5.95 15.0 6.8 15.0 6.8 16.25 5.95 16.25 M8.4 13.0 L8.4 11.75 Q6.9 11.65 8.05 11.05 L8.4 10.95 8.4 11.75 9.2 11.75 9.2 13.0 8.4 13.0 M11.65 9.75 L11.6 9.35 Q11.25 8.3 12.45 8.5 L12.45 9.75 13.25 9.75 13.25 10.95 12.45 10.95 12.45 9.75 11.65 9.75 M14.05 2.0 L14.5 2.1 Q15.15 2.4 14.85 3.25 L15.65 3.25 15.65 4.45 14.85 4.45 14.85 3.25 14.05 3.25 14.05 2.0 M18.1 1.2 L18.75 1.2 18.3 2.0 18.1 2.0 18.1 1.2 M11.15 7.95 Q11.9 8.7 10.8 7.7 L11.15 7.95 M10.0 7.7 L9.2 7.35 Q9.0 6.25 10.0 6.5 L10.0 7.7 M1.95 21.5 L2.75 21.5 2.75 22.75 1.95 22.75 1.95 21.5 M1.1 23.95 L1.95 23.95 1.95 24.75 1.95 26.0 -0.5 26.0 -0.5 24.75 -0.1 24.85 Q0.45 24.7 0.3 23.95 L1.1 23.95 M8.4 19.5 L8.4 20.7 6.8 20.7 6.8 19.5 7.6 19.5 8.4 19.5 M1.95 27.2 L1.95 28.0 1.55 27.9 Q0.4 27.25 1.95 27.2 M-1.3 -35.75 L-1.3 -37.0 -0.5 -37.0 -0.5 -35.75 -1.3 -35.75 M-15.05 -8.55 L-14.65 -8.6 Q-14.1 -8.45 -14.25 -7.75 L-15.05 -7.75 -15.05 -8.55 M-12.65 -1.25 L-13.45 -1.25 -15.05 -1.25 -15.05 0.0 Q-16.2 -0.3 -15.9 0.8 L-15.85 1.2 -17.5 1.2 -15.85 -1.25 -15.05 -1.25 -15.05 -2.05 -13.45 -2.05 -12.65 -2.05 -12.65 -1.25 M-13.45 0.0 L-13.55 0.85 -13.85 1.2 -14.1 0.85 -14.25 0.0 -13.45 0.0 M-16.25 -6.5 L-15.85 -7.35 -15.85 -6.5 -16.25 -6.5 M-17.5 -2.05 L-17.5 -3.25 -15.85 -3.25 Q-16.2 -4.5 -15.45 -4.5 L-15.05 -4.5 -15.05 -3.25 -15.85 -3.25 -15.85 -2.05 -17.5 -2.05 M-11.0 14.2 Q-10.75 15.25 -11.5 15.1 L-11.6 15.05 -12.65 13.0 -13.25 11.75 -12.65 11.75 -12.65 13.0 -11.8 13.0 -11.0 13.0 -11.0 11.75 -10.2 11.75 -10.2 13.0 -11.0 13.0 -11.0 14.2 M-13.45 11.35 L-13.65 10.95 -13.45 10.95 -13.45 11.35 M-14.8 8.55 L-15.05 8.05 -15.05 7.7 -14.25 7.7 Q-13.95 8.6 -14.65 8.6 L-14.8 8.55 M-15.25 7.7 L-15.8 6.5 -15.05 6.5 -15.05 7.7 -15.25 7.7 M-16.4 5.25 L-16.8 4.45 -16.65 4.45 -16.25 4.4 Q-15.65 4.55 -15.85 5.25 L-16.4 5.25 M-13.45 6.5 Q-13.2 6.45 -13.0 6.65 -12.35 6.85 -12.65 7.7 L-11.8 7.7 -11.8 9.75 -12.65 9.75 -12.65 8.5 -12.65 7.7 -13.45 7.7 -13.45 6.5 M-11.8 2.0 L-11.0 2.0 -11.35 4.2 -11.8 2.0 M-7.8 18.25 L-7.8 17.45 -6.95 17.45 -6.95 18.25 -7.8 18.25 M-6.15 19.5 L-5.35 19.5 Q-5.0 20.35 -5.7 20.7 L-6.15 20.7 -6.15 19.5 M-6.95 20.7 L-6.95 21.5 Q-6.5 22.3 -7.3 22.75 L-7.8 22.75 -7.8 21.5 -7.8 20.7 -6.95 20.7 M-1.3 33.7 L-0.5 33.7 -0.5 34.5 -0.5 35.75 -1.3 35.75 -1.3 34.5 -1.3 33.7" fill="#686870" fill-rule="evenodd" stroke="none"/>
    <path d="M-0.5 -37.8 L0.3 -37.8 0.3 -37.0 -0.5 -37.0 -0.5 -37.8 M0.3 -33.75 L0.3 -32.5 0.3 -31.3 -0.5 -31.3 -0.6 -30.7 -0.9 -30.45 -1.15 -30.7 -1.3 -31.3 -2.1 -31.3 -2.1 -29.25 -2.1 -28.05 -1.3 -28.05 -1.3 -24.8 -2.1 -24.8 -2.1 -26.0 -2.1 -27.25 -2.1 -28.05 -2.95 -28.05 -3.75 -28.05 -3.75 -29.25 -3.75 -30.5 -3.35 -30.4 Q-2.8 -30.55 -2.95 -31.3 L-2.1 -31.3 -2.1 -33.75 -3.2 -33.75 -2.75 -34.65 -2.1 -34.55 -2.1 -33.75 -1.3 -33.75 -0.5 -33.75 0.3 -33.75 M-0.5 -29.25 L0.3 -29.25 1.1 -29.25 0.9 -28.1 -0.5 -28.05 -0.5 -29.25 M1.95 -27.25 L1.95 -26.1 1.1 -26.0 0.9 -24.25 -0.5 -24.8 -0.5 -27.25 0.3 -27.25 0.45 -26.1 1.1 -26.0 1.1 -27.25 1.95 -27.25 M-0.5 -24.0 L-0.5 -22.75 -1.3 -22.75 -1.3 -21.55 -2.1 -21.55 -2.95 -21.55 -2.95 -22.75 -1.3 -22.75 -1.3 -24.0 -0.5 -24.0 M-0.5 -19.5 L-0.5 -17.5 -1.3 -17.5 -1.3 -19.5 -0.5 -19.5 M-2.1 -19.5 L-2.75 -19.6 -2.95 -20.75 -3.75 -20.75 -3.75 -21.55 -4.55 -21.55 -4.55 -22.75 -4.55 -24.0 -3.75 -24.0 -3.75 -22.75 -3.75 -21.55 -2.95 -21.55 -2.95 -20.75 -2.1 -20.75 -2.1 -19.5 M-5.35 -18.3 L-6.15 -18.3 Q-6.6 -19.9 -5.4 -19.4 L-5.35 -18.3 M-6.15 -17.5 L-6.15 -16.25 -6.95 -16.25 -6.95 -17.5 -6.15 -17.5 M-7.8 -19.5 L-8.6 -19.5 -8.6 -20.75 -7.8 -20.75 -7.8 -19.5 M-9.4 -19.5 L-9.4 -18.3 -10.2 -18.3 -10.6 -18.3 -10.05 -19.5 -9.4 -19.5 M-9.45 -20.75 L-9.4 -20.85 -9.4 -20.75 -9.45 -20.75 M-6.95 -25.85 L-6.9 -26.0 -6.15 -26.0 -6.15 -24.8 -5.35 -24.8 -5.35 -24.0 -6.15 -24.0 -6.15 -24.8 -6.95 -24.8 -6.95 -25.85 M-6.15 -27.55 L-5.9 -28.05 -5.35 -28.05 Q-5.0 -27.35 -5.75 -27.15 L-6.15 -27.25 -6.15 -27.55 M-4.35 -31.3 L-3.8 -32.5 -3.75 -32.5 -3.75 -31.3 -4.35 -31.3 M15.65 -6.5 L16.4 -6.5 16.5 -6.3 16.5 -5.3 15.65 -5.3 15.65 -6.5 M13.25 -3.25 L13.25 -4.5 14.05 -4.5 14.05 -3.25 13.25 -3.25 13.25 -2.05 12.45 -2.05 12.45 -3.25 13.25 -3.25 M4.35 30.75 L4.1 31.25 Q3.5 31.25 3.5 30.8 3.45 30.6 3.55 30.45 L2.75 30.45 2.75 29.25 Q3.15 28.35 2.4 28.15 L1.95 28.0 1.95 27.2 1.95 26.0 1.95 24.75 2.75 24.75 2.75 26.0 2.9 27.1 3.55 27.2 3.55 28.0 3.55 30.45 4.35 30.75 M-10.1 18.25 L-10.25 18.0 -10.25 17.95 Q-10.5 17.4 -9.8 17.45 L-9.4 17.45 -9.0 17.4 Q-8.45 17.5 -8.6 18.25 L-9.4 18.25 -10.1 18.25 M-0.5 24.75 L-0.5 23.95 0.3 23.95 Q0.45 24.7 -0.1 24.85 L-0.5 24.75 M0.3 21.5 L0.3 20.7 1.1 20.7 1.95 20.7 1.95 21.5 0.3 21.5 M-0.5 20.7 L-1.3 20.35 -1.35 20.0 Q-1.45 19.15 -0.5 19.5 L-0.5 20.7 M13.25 5.25 L13.25 4.45 14.05 4.45 14.05 5.25 14.85 5.25 14.85 6.5 14.05 6.5 14.05 5.25 13.25 5.25 M11.65 3.25 L11.65 2.0 12.45 2.0 12.45 3.25 11.65 3.25 M18.1 1.2 L18.1 2.0 17.3 2.0 16.5 2.0 16.5 1.2 17.3 1.2 18.1 1.2 M4.35 13.0 L3.55 13.0 3.55 11.75 4.35 11.75 4.35 13.0 M4.35 20.7 L4.35 21.5 4.35 22.75 3.55 22.75 Q3.85 21.9 3.2 21.6 L2.75 21.5 Q1.85 20.75 3.45 20.7 L3.55 20.7 4.35 20.7 M1.95 22.75 L2.75 22.75 2.75 23.95 1.95 23.95 1.95 22.75 M0.3 29.25 L0.3 30.45 -0.5 30.45 -2.1 30.45 -2.95 30.45 -2.95 29.25 -2.1 29.25 -1.3 29.25 0.3 29.25 M1.1 35.75 L0.3 35.75 Q0.55 34.95 -0.05 34.6 L-0.5 34.5 -0.5 33.7 -0.55 33.35 Q-0.75 32.25 0.3 32.5 L1.1 35.75 M-1.3 -31.3 L-0.5 -31.3 Q-0.75 -33.45 -1.2 -31.85 L-1.3 -31.3 M-6.15 -22.75 L-6.15 -21.55 -6.95 -21.55 -7.8 -21.55 -7.8 -22.75 -7.85 -23.1 Q-8.1 -24.2 -6.95 -24.0 L-6.8 -22.85 -6.15 -22.75 M-6.95 -18.3 L-6.95 -17.5 -7.8 -17.5 -7.8 -18.3 -6.95 -18.3 M-15.05 -6.5 L-15.05 -5.3 -15.85 -5.3 -15.85 -6.5 -15.05 -6.5 M-9.4 11.75 Q-9.05 12.7 -9.75 12.95 L-10.2 13.0 Q-9.85 13.75 -10.6 14.1 L-11.0 14.2 -11.0 13.0 -10.2 13.0 -10.2 11.75 -9.4 11.75 M-13.45 10.95 L-12.65 8.5 -12.65 9.75 -12.65 10.95 -13.45 10.95 M-3.75 24.75 L-2.95 24.75 -2.1 24.75 -2.1 26.0 -2.1 27.2 -2.95 27.2 -3.75 27.2 -3.75 24.75 M-5.35 26.0 L-4.85 26.0 Q-4.25 26.25 -4.55 27.2 L-5.35 27.2 -5.35 26.0" fill="#989898" fill-rule="evenodd" stroke="none"/>
    <path d="M2.75 -31.3 L4.35 -31.3 4.35 -31.45 4.45 -31.3 4.35 -31.3 2.75 -30.5 2.75 -31.3 M-11.0 -17.5 L-11.0 -16.25 -11.6 -16.25 -11.0 -17.5 M-11.0 -15.05 L-9.4 -14.25 -10.2 -14.25 -11.0 -14.25 -11.0 -15.05 M10.8 -18.0 L10.8 -17.5 10.0 -17.5 Q10.25 -18.55 9.3 -18.3 L9.2 -18.3 9.2 -19.5 10.0 -19.5 10.1 -19.5 10.8 -18.0 M10.8 -15.05 L11.2 -15.1 Q11.9 -14.85 11.65 -14.25 L10.8 -14.25 10.8 -15.05 M12.45 -14.25 L12.65 -14.25 13.2 -13.1 12.45 -13.0 12.45 -14.25 M8.4 -17.5 Q7.65 -17.35 7.6 -17.95 L7.6 -18.3 8.4 -18.3 8.4 -17.5 M16.4 -6.5 L15.65 -6.5 15.8 -7.75 16.4 -6.5 M14.85 -9.65 L15.4 -8.55 14.85 -8.55 14.85 -9.65 M13.25 -4.5 L13.25 -5.3 14.05 -5.3 14.05 -4.5 13.25 -4.5 M17.3 0.0 L19.0 -1.15 18.75 1.2 18.1 1.2 17.3 1.2 17.3 0.0 M16.5 5.85 L15.7 7.45 Q15.95 6.55 15.25 6.45 L14.85 6.5 14.85 5.25 14.05 5.25 14.05 4.45 14.85 4.45 14.85 5.25 15.65 5.25 16.5 5.25 16.5 5.85 M15.3 7.7 L14.9 8.5 14.85 8.5 14.85 8.6 14.0 10.95 13.25 10.95 13.25 9.75 13.7 9.75 Q14.35 9.35 14.05 8.5 L14.85 8.5 14.85 7.7 15.3 7.7 M10.8 17.4 L10.8 17.45 10.0 17.45 10.0 16.25 10.0 14.2 10.8 14.2 10.8 15.0 10.8 17.4 M6.65 26.0 L5.95 27.2 5.15 27.2 5.15 26.0 5.95 26.0 6.65 26.0 M-2.95 33.05 L-3.2 32.5 -2.95 32.5 -2.95 33.05 M-4.55 14.2 L-4.55 16.25 -5.35 16.25 -5.35 14.2 -4.55 14.2 M-2.95 22.75 L-2.95 23.95 -3.75 23.95 -4.55 23.95 -4.55 22.75 -2.95 22.75 M1.95 17.45 Q1.5 15.9 2.7 16.35 L2.75 17.45 1.95 17.45 M10.0 11.75 Q9.7 11.0 10.4 10.95 L10.8 10.95 10.8 11.75 11.3 11.75 Q12.05 12.1 11.65 13.0 L10.8 13.0 10.8 11.75 10.0 11.75 M12.45 4.45 L11.8 4.35 11.65 3.25 12.45 3.25 12.45 4.45 M11.65 2.0 Q10.75 1.2 12.35 1.2 L12.45 1.2 12.45 2.0 11.65 2.0 M16.5 2.0 L17.3 2.0 17.3 3.25 16.65 3.15 16.5 2.0 M11.65 9.75 L12.45 9.75 12.45 10.95 11.65 10.95 11.65 9.75 M2.75 23.95 L2.75 24.75 3.55 24.75 Q4.0 25.65 3.2 25.95 L2.75 26.0 2.75 24.75 1.95 24.75 1.95 23.95 2.75 23.95 M3.55 27.2 L4.35 27.2 Q4.6 27.95 3.95 28.1 L3.55 28.0 3.55 27.2 M2.75 29.25 L2.75 30.45 2.1 30.35 1.95 29.25 2.75 29.25 M-2.1 30.45 L-0.5 30.45 -2.1 31.25 -2.1 30.45 M-6.95 -24.8 L-6.15 -24.8 -6.15 -24.0 -6.95 -24.0 -6.95 -24.8 M-4.55 -30.5 L-3.75 -30.5 -3.75 -29.25 -4.55 -29.25 -4.55 -30.5 M-12.65 -13.0 L-12.0 -12.8 -11.75 -12.4 -12.0 -11.95 -12.65 -11.8 -12.65 -13.0 M-13.7 -11.8 L-13.45 -12.4 -13.45 -11.8 -13.7 -11.8 M-11.8 11.75 L-11.0 11.75 -11.0 13.0 -11.8 13.0 -11.8 11.75 M-6.95 24.5 Q-6.75 23.35 -6.2 24.35 L-6.15 24.75 -6.85 24.75 -6.95 24.5" fill="#484858" fill-rule="evenodd" stroke="none"/>
    <path d="M0.3 -34.55 L0.3 -33.75 -0.5 -33.75 -0.5 -34.55 -1.3 -34.55 -2.1 -34.55 -2.75 -34.65 -2.0 -35.75 -1.3 -35.75 -0.5 -35.75 -0.5 -34.55 0.3 -34.55 M1.95 -31.3 L2.75 -31.3 2.75 -30.5 1.95 -30.5 1.95 -31.3 M-2.1 -29.25 L-0.5 -29.25 -0.5 -28.05 -1.3 -28.05 -2.1 -28.05 -2.1 -29.25 M-0.5 -22.75 L-0.5 -21.55 -1.3 -21.55 -1.3 -22.75 -0.5 -22.75 M-0.5 -17.5 L-0.85 -15.3 -1.3 -17.5 -0.5 -17.5 M-6.95 -16.25 L-7.8 -16.25 -7.8 -17.5 -6.95 -17.5 -6.95 -16.25 M-8.6 -17.5 Q-9.4 -18.35 -7.9 -18.3 L-7.8 -18.3 -7.8 -17.5 -8.6 -17.5 M-9.4 -14.25 L-9.5 -13.35 -9.8 -13.0 -10.05 -13.35 -10.2 -14.25 -9.4 -14.25 M-11.0 -14.25 Q-11.8 -14.05 -11.8 -14.65 L-11.8 -15.05 -12.15 -15.05 -11.8 -15.8 -11.8 -15.05 -11.0 -15.05 -11.0 -14.25 M-7.45 -24.8 L-6.95 -25.85 -6.95 -24.8 -7.45 -24.8 M-6.9 -26.0 L-6.15 -27.55 -6.15 -27.25 -6.15 -26.0 -6.9 -26.0 M1.1 -29.25 L1.1 -30.5 1.95 -30.5 1.95 -29.25 1.1 -29.25 M0.3 -27.25 L1.1 -27.25 1.1 -26.0 0.45 -26.1 0.3 -27.25 M6.8 -24.0 L7.6 -24.0 7.6 -22.75 6.8 -22.75 6.8 -24.0 M10.8 -17.5 L10.8 -16.35 10.0 -16.25 10.0 -17.5 10.8 -17.5 M10.0 -8.55 L10.0 -7.75 9.25 -7.8 9.2 -8.0 Q9.05 -8.9 10.0 -8.55 M11.65 -7.75 L11.65 -8.55 12.5 -8.25 11.65 -7.75 M13.25 -6.5 L13.25 -7.75 13.85 -7.55 14.1 -7.1 13.85 -6.65 13.25 -6.5 M14.85 -5.3 L15.65 -5.3 15.65 -4.5 15.55 -3.6 15.25 -3.25 Q15.1 -3.25 15.0 -3.6 14.85 -4.0 14.85 -4.5 L14.85 -5.3 M16.5 -4.5 L17.3 -4.5 17.2 -3.6 Q17.05 -3.25 16.9 -3.25 16.7 -3.25 16.65 -3.6 16.45 -4.0 16.5 -4.5 M12.45 -4.5 Q12.1 -5.3 12.85 -5.3 L13.25 -5.3 13.25 -4.5 12.45 -4.5 12.45 -3.25 12.45 -2.05 11.65 -2.05 Q10.7 -2.0 11.0 -2.6 11.55 -3.65 12.45 -4.5 M12.45 -1.25 L12.45 0.0 11.8 -0.1 11.65 -1.25 12.45 -1.25 M18.1 -2.05 L18.1 -2.95 18.55 -2.0 18.1 -2.05 M-7.95 22.75 L-8.55 21.5 -7.8 21.5 -7.8 22.75 -7.95 22.75 M-9.4 19.7 L-9.5 19.5 -9.4 19.5 -9.4 19.7 M-8.6 16.25 L-8.65 15.85 Q-8.95 14.8 -7.8 15.0 -8.1 14.1 -7.35 14.2 L-6.95 14.2 -6.95 15.0 -7.8 15.0 -7.8 16.25 -8.6 16.25 M-5.35 14.2 L-5.4 13.85 Q-5.7 12.75 -4.55 13.0 L-4.55 14.2 -5.35 14.2 M-3.75 17.45 L-3.75 18.25 -2.95 20.7 -3.75 20.7 -3.75 18.25 -5.35 18.25 -5.35 19.5 -6.15 19.5 -6.15 18.25 -6.15 17.45 -5.35 17.45 -4.55 17.45 -3.75 17.45 M-1.3 24.75 L-0.5 24.75 -0.5 26.0 -1.3 26.0 Q-0.9 26.85 -1.65 27.2 L-2.1 27.2 -2.1 26.0 -1.3 26.0 -1.3 24.75 M-0.5 23.95 L0.3 21.5 0.3 23.95 -0.5 23.95 M0.3 20.7 L-0.5 20.7 -0.5 19.5 0.3 19.5 0.3 18.25 1.1 18.25 1.1 19.5 1.95 19.5 1.95 20.7 1.1 20.7 1.1 19.5 0.3 19.5 0.3 20.7 M0.3 17.45 L0.65 15.1 1.1 17.45 0.3 17.45 M10.0 6.5 L10.6 6.7 10.85 7.1 10.6 7.55 10.0 7.7 10.0 6.5 M3.55 13.0 L3.45 13.85 3.15 14.2 Q2.95 14.2 2.9 13.85 2.7 13.5 2.75 13.0 L3.55 13.0 M8.4 15.0 L8.85 15.1 Q9.5 15.5 9.2 16.25 L10.0 16.25 10.0 17.45 9.2 17.45 9.2 16.25 8.4 16.25 8.4 15.0 M5.15 20.7 L5.15 19.5 5.95 19.5 5.95 20.7 5.15 20.7 M1.95 23.95 L1.1 23.95 1.05 23.6 Q0.75 22.5 1.95 22.75 L1.95 23.95 M8.4 20.7 L8.4 21.5 6.8 20.7 8.4 20.7 M0.3 29.25 L-1.3 29.25 -1.3 28.0 0.0 27.4 0.3 29.25 M-2.1 29.25 L-2.95 29.25 -2.95 30.45 -3.75 30.45 -3.75 29.25 -2.95 29.25 -2.95 28.0 -2.1 28.0 -2.1 29.25 M-0.5 30.45 L0.3 30.45 0.3 32.5 Q-0.75 32.25 -0.55 33.35 L-0.5 33.7 -1.3 33.7 -2.1 33.7 Q-1.85 32.95 -2.45 32.6 L-2.95 32.5 -2.95 31.25 -2.1 31.25 -0.5 30.45 M-3.75 -31.3 L-3.75 -32.5 -2.95 -32.35 -2.95 -31.3 Q-2.8 -30.55 -3.35 -30.4 L-3.75 -30.5 -3.75 -31.3 M-1.3 -31.3 L-1.2 -31.85 Q-0.75 -33.45 -0.5 -31.3 L-1.3 -31.3 M-5.35 -24.8 L-4.55 -24.8 -3.75 -24.8 -3.75 -24.0 -4.55 -24.0 -5.35 -24.0 -5.35 -24.8 M-2.95 -24.0 L-2.95 -24.8 -2.1 -24.8 -2.1 -24.4 Q-2.1 -23.9 -1.3 -24.0 L-1.3 -22.75 -2.95 -22.75 -2.95 -24.0 M-6.95 -21.55 L-6.15 -21.55 Q-5.9 -20.85 -6.55 -20.65 L-6.95 -20.75 -6.95 -21.55 M-13.45 -5.3 Q-12.8 -5.3 -12.25 -4.7 -11.8 -4.15 -11.8 -3.25 L-13.45 -3.25 -13.45 -2.05 -15.05 -2.05 -15.05 -3.25 -14.25 -3.25 -13.45 -3.25 -13.45 -4.5 -13.45 -5.3 M-16.65 -5.7 L-16.25 -6.5 -15.85 -6.5 -15.85 -5.3 -16.65 -5.3 -16.65 -5.7 M-8.6 -11.0 Q-10.0 -11.1 -8.95 -11.7 L-8.6 -11.8 -8.6 -11.0 M-10.15 -9.6 Q-8.95 -8.3 -10.1 -9.45 L-10.15 -9.6 M-11.0 11.75 Q-11.3 11.0 -10.6 10.95 L-10.2 10.95 -10.2 11.75 -11.0 11.75 M-11.8 2.0 Q-11.75 0.6 -11.05 1.65 L-11.0 2.0 -11.8 2.0 M-10.95 0.15 Q-9.75 1.45 -10.9 0.3 L-10.95 0.15 M-15.05 4.45 L-15.05 3.85 Q-14.65 3.85 -14.25 4.45 L-15.05 4.45 M-2.05 16.4 Q-0.85 17.75 -2.0 16.55 L-2.05 16.4 M-8.6 18.25 L-8.6 19.5 -9.4 19.5 -9.4 18.25 -8.6 18.25 M-6.95 21.5 L-6.95 20.7 -6.15 20.7 Q-5.9 21.45 -6.55 21.6 L-6.95 21.5 M-3.75 23.95 L-2.95 23.95 -2.95 24.75 -3.75 24.75 -3.75 23.95 M-0.5 34.5 L-0.05 34.6 Q0.55 34.95 0.3 35.75 L-0.5 35.75 -0.5 34.5" fill="#a8a888" fill-rule="evenodd" stroke="none"/>
    <path d="M17.3 4.2 L17.15 4.45 16.5 4.45 15.65 4.45 15.65 3.25 15.65 2.0 16.5 2.0 16.65 3.15 17.3 3.25 17.3 4.2 M10.0 19.05 L9.2 20.7 9.2 19.5 9.2 18.25 8.4 18.25 8.4 17.45 9.2 17.45 9.2 18.25 10.0 18.25 10.0 19.05 M-3.8 31.25 L-4.2 30.45 -3.75 30.45 -3.75 31.25 -3.8 31.25 M-5.7 27.2 L-6.05 26.95 -6.2 26.3 -6.15 26.0 -5.35 26.0 -5.35 27.2 -5.7 27.2 M4.35 19.5 L4.3 19.1 Q4.0 18.05 5.15 18.25 L5.15 19.5 4.35 19.5 M5.95 17.45 L5.95 16.25 6.8 16.25 6.8 17.45 5.95 17.45 M4.35 11.75 Q4.5 10.3 5.05 11.4 L5.15 11.75 4.35 11.75 M5.15 21.5 L5.6 21.6 Q6.3 21.9 5.95 22.75 L6.4 22.85 Q7.1 23.15 6.8 23.95 L5.95 23.95 5.95 22.75 5.15 22.75 5.15 21.5 M-3.75 -24.8 L-2.95 -24.8 -2.95 -24.0 -3.75 -24.0 -3.75 -24.8 M-17.5 1.2 L-18.3 1.2 -18.3 0.0 -18.3 -2.05 -17.5 -2.05 -15.85 -2.05 -15.85 -3.25 -15.05 -3.25 -15.05 -2.05 -15.85 -2.05 -15.85 -1.25 -17.5 1.2 M-8.6 -11.0 L-8.6 -11.8 -8.0 -11.65 -7.75 -11.4 -8.0 -11.1 -8.6 -11.0 M-13.25 11.75 L-13.45 11.35 -13.45 10.95 -12.65 10.95 -12.65 9.75 -11.8 9.75 -11.8 7.7 Q-11.4 8.35 -11.4 9.1 L-11.8 9.75 Q-11.4 10.65 -12.15 10.9 L-12.65 10.95 -12.65 11.75 -11.8 11.75 -11.8 13.0 -12.65 13.0 -12.65 11.75 -13.25 11.75 M-16.8 4.45 L-17.5 3.1 -17.15 2.1 -16.65 4.45 -16.8 4.45 M-4.55 28.0 L-3.75 28.0 -3.75 29.25 -4.55 29.25 -4.55 28.0" fill="#384048" fill-rule="evenodd" stroke="none"/>
    <path d="M-11.8 -8.55 L-12.65 -8.55 -12.65 -9.75 -11.8 -9.75 -11.8 -8.55 M-13.45 -11.0 L-14.1 -11.0 -13.7 -11.8 -13.45 -11.8 -13.45 -11.0 M-14.25 -7.75 L-13.7 -6.5 -15.05 -6.5 -15.05 -7.75 -14.25 -7.75 M-11.8 -2.05 Q-11.5 -1.25 -12.2 -1.15 L-12.65 -1.25 -12.65 -2.05 -11.8 -2.05 M-15.05 0.0 Q-14.65 1.0 -15.4 1.1 L-15.85 1.2 -15.9 0.8 Q-16.2 -0.3 -15.05 0.0 M-14.25 -4.5 L-13.45 -4.5 -13.45 -3.25 -14.25 -3.25 -14.25 -4.5 M-15.85 -1.25 L-15.85 -2.05 -15.05 -2.05 -15.05 -1.25 -15.85 -1.25 M-15.8 6.5 L-15.85 6.4 -15.85 5.25 -15.4 5.35 Q-14.8 5.7 -15.05 6.5 L-15.8 6.5" fill="#889098" fill-rule="evenodd" stroke="none"/>
    <path d="M-18.3 1.2 L-18.3 1.4 -18.4 1.2 -18.3 1.2" fill="#000050" fill-rule="evenodd" stroke="none"/>
  </g>
</svg>
