<?xml version="1.0" encoding="UTF-8" standalone="no"?>
<svg xmlns:ffdec="https://www.free-decompiler.com/flash" xmlns:xlink="http://www.w3.org/1999/xlink" ffdec:objectType="shape" height="350.0px" width="300.3px" xmlns="http://www.w3.org/2000/svg">
  <g transform="matrix(1.0, 0.0, 0.0, 1.0, 0.0, 0.0)">
    <path d="M284.9 26.0 L289.95 22.2 Q290.8 20.5 290.2 18.55 289.5 16.3 287.95 14.7 L287.3 13.9 Q286.0 12.15 284.2 10.95 L282.95 10.6 258.65 7.35 260.7 5.7 261.05 4.9 261.2 3.95 Q265.3 1.7 269.55 0.0 L300.0 0.0 300.0 60.65 299.5 58.7 Q297.3 57.1 297.7 54.65 298.95 47.4 294.25 41.8 L294.25 41.05 294.25 39.95 294.6 39.55 295.1 38.8 295.35 37.35 Q295.4 36.5 295.0 35.8 L294.2 35.1 Q291.0 32.5 288.85 29.05 287.65 28.65 286.75 27.95 L286.25 27.2 286.1 26.8 285.6 26.45 284.9 26.0 M243.95 19.0 L251.8 24.3 253.1 25.25 Q248.8 27.85 246.2 32.2 L245.0 32.75 Q243.35 33.55 242.7 35.0 241.1 33.05 240.2 30.7 230.55 27.25 220.45 26.2 L220.3 25.5 218.8 23.3 Q227.6 19.15 239.35 19.8 240.2 20.5 241.95 20.45 L243.95 19.0 M257.8 28.0 Q264.85 31.4 271.85 30.75 271.7 32.35 272.7 34.2 276.15 37.7 278.45 41.7 L278.3 42.35 274.95 48.15 274.5 47.65 Q271.65 44.05 268.2 40.95 258.0 37.15 247.2 38.95 L246.3 38.35 Q248.7 37.45 250.8 36.05 257.0 31.9 257.8 28.0 M208.6 31.0 Q214.3 42.1 210.75 55.2 L211.55 55.7 Q213.35 56.35 214.45 57.95 218.0 59.4 221.45 57.95 227.7 54.35 230.2 47.7 231.45 45.1 233.7 47.2 L234.1 48.0 Q236.7 57.45 241.45 65.95 249.3 68.85 255.8 66.2 L255.45 66.7 255.45 68.2 255.45 70.45 Q256.35 72.95 258.95 72.2 L259.9 70.8 Q260.95 68.15 262.7 65.7 276.7 60.1 282.95 46.45 L283.85 44.35 Q286.25 37.6 279.45 33.95 L279.4 33.2 278.95 31.7 278.4 30.85 277.7 29.5 Q280.1 28.7 282.55 27.4 284.4 29.4 286.85 30.95 287.0 31.55 287.45 31.95 290.5 34.6 292.75 37.7 L292.55 38.0 Q292.0 38.5 291.75 39.2 L291.75 41.05 291.75 42.95 Q292.85 43.9 293.55 45.15 294.65 47.3 295.25 49.7 294.45 51.2 294.35 53.05 294.2 57.3 297.25 60.2 L297.25 61.7 Q297.3 62.95 298.25 63.95 299.35 64.45 300.0 63.6 L300.0 116.9 Q297.9 118.6 296.15 120.75 L296.2 119.15 Q295.75 115.45 295.75 111.7 L295.0 110.55 Q294.05 109.0 293.75 107.2 L293.5 106.8 Q287.4 95.7 279.0 87.15 L284.2 86.95 Q286.0 84.3 288.25 82.25 L293.95 77.2 294.3 76.4 294.4 74.95 294.2 74.2 293.9 73.75 Q283.25 71.4 272.7 74.2 272.35 72.8 271.15 72.05 L269.95 71.45 262.95 71.45 262.9 71.6 Q260.0 73.05 257.25 75.25 L256.45 75.95 249.55 76.15 Q244.45 77.85 239.45 79.95 L238.55 81.5 238.2 82.2 Q235.55 83.0 234.5 85.45 L234.2 86.2 Q232.4 86.7 231.2 88.15 L230.45 88.95 230.35 89.65 Q228.95 93.25 225.7 95.7 223.25 97.5 222.2 100.2 217.45 102.25 212.95 104.7 208.2 107.25 207.25 112.2 205.7 113.6 203.5 113.5 199.4 113.4 196.15 115.1 202.9 96.1 196.65 76.9 191.1 59.85 198.75 46.7 L200.65 42.7 Q203.55 36.5 207.5 31.95 L208.6 31.0 M211.1 123.1 L213.55 122.35 Q212.15 128.4 211.5 134.7 L211.1 135.05 210.75 135.45 Q210.75 136.7 210.35 137.85 208.4 143.7 205.85 148.55 205.15 147.35 205.65 146.1 208.05 140.35 207.75 133.95 208.6 132.95 208.8 131.7 209.5 127.25 211.1 123.1 M219.3 119.55 Q222.15 117.75 224.55 115.35 237.6 119.8 244.75 130.95 L245.4 131.8 246.1 132.8 246.75 133.2 247.25 133.55 247.3 134.3 247.5 134.7 249.8 138.2 254.25 145.55 254.25 146.7 254.25 147.45 254.85 148.2 255.1 148.55 Q255.45 151.5 257.2 153.85 L267.25 166.95 Q274.85 169.55 282.25 169.55 281.1 179.1 281.35 189.05 L282.0 189.6 Q281.5 192.2 281.85 195.05 L282.2 195.45 282.75 196.2 Q284.3 216.35 294.6 233.3 L294.7 234.05 294.75 234.45 Q297.95 238.05 300.0 242.3 L300.0 250.75 Q292.65 247.35 284.25 246.45 280.1 249.95 274.2 248.5 267.9 246.95 265.6 241.0 264.65 238.55 264.05 235.85 261.9 226.55 255.6 218.8 L255.45 218.7 255.55 218.45 255.75 217.3 255.75 216.95 Q256.7 215.8 257.1 214.4 257.45 213.3 257.25 212.05 258.0 211.15 259.2 210.9 268.0 208.85 273.25 203.2 269.1 200.25 265.25 196.95 L265.25 196.55 265.2 196.2 265.0 195.8 264.3 195.1 263.75 194.7 Q258.6 186.0 249.0 183.3 L247.8 184.5 243.25 190.45 Q243.15 191.65 242.6 192.7 L241.25 194.55 241.25 194.95 241.2 196.05 241.1 196.45 240.3 197.7 Q238.9 199.7 236.75 200.55 L236.75 198.3 Q236.8 194.9 234.25 192.7 228.85 184.15 218.75 180.95 218.3 179.85 217.3 179.1 216.7 178.65 216.75 177.95 L217.2 175.3 Q217.5 173.25 218.75 171.55 L218.6 168.6 Q218.2 162.8 220.0 157.7 222.95 156.35 225.75 154.45 230.1 154.45 232.75 157.95 236.4 160.0 240.25 159.95 L241.95 158.15 242.1 157.8 242.2 155.55 Q242.85 142.0 238.1 128.95 L236.0 128.8 235.25 128.95 233.35 130.6 232.25 131.45 Q232.35 132.9 231.85 134.2 L230.25 137.8 Q229.05 138.3 228.8 139.35 L228.75 139.7 Q224.45 143.15 219.5 144.7 219.05 143.45 219.15 142.05 L219.25 139.45 219.95 138.65 220.1 138.3 Q220.35 137.05 219.95 135.8 217.25 127.5 219.3 119.55 M260.45 53.95 Q261.2 54.2 261.75 54.65 263.4 56.1 264.45 57.9 261.55 59.5 259.3 61.75 258.8 56.7 260.45 53.95 M204.7 222.75 L207.35 224.75 Q213.85 229.6 221.25 229.95 221.95 229.4 222.2 228.55 L222.25 228.2 222.75 227.75 Q228.25 220.35 232.0 212.05 L232.85 211.35 233.35 210.95 241.75 210.45 Q245.35 215.9 251.25 218.95 L253.45 219.4 Q253.1 220.5 254.55 222.05 260.8 228.75 261.75 237.5 262.05 239.95 263.1 241.95 270.35 255.45 285.25 248.95 287.6 249.05 289.55 250.05 294.6 252.65 300.0 253.95 L300.0 265.05 Q291.85 267.3 283.6 270.4 256.6 280.65 227.0 283.4 224.1 283.7 222.85 282.4 197.7 256.4 164.0 266.95 L163.6 266.6 Q161.0 263.15 159.8 259.1 159.3 257.4 157.75 256.2 156.7 249.55 154.1 243.4 150.8 235.6 144.25 229.95 L135.5 228.1 135.25 227.95 134.95 227.45 Q129.05 219.55 119.0 221.45 115.6 222.75 111.0 222.6 L110.0 222.7 Q107.1 224.85 103.95 226.55 99.7 228.85 95.75 231.7 95.95 235.75 95.05 239.3 94.7 240.6 93.5 241.45 90.15 243.3 87.45 245.9 L85.5 248.2 85.5 249.7 Q85.5 252.7 83.45 254.9 L82.75 255.7 82.4 257.15 Q81.8 259.3 80.4 260.85 L79.75 261.45 74.85 256.85 64.55 247.75 Q61.65 240.95 54.0 237.45 L53.75 235.95 Q53.75 234.65 53.0 233.7 L49.75 231.2 Q49.1 221.45 51.1 211.95 52.9 203.45 50.75 196.65 55.0 198.9 61.5 198.6 65.5 198.45 68.65 200.35 76.85 205.25 84.0 204.95 L84.0 205.45 Q67.6 212.55 56.25 225.2 L55.05 225.75 Q53.6 226.6 52.5 227.95 52.0 230.9 55.0 231.45 60.65 229.65 63.5 223.95 L67.25 222.95 Q78.05 214.4 89.5 207.45 L89.55 206.7 89.6 206.6 Q93.55 207.85 96.5 209.7 96.5 210.45 96.15 210.65 80.55 219.9 66.5 232.95 L66.5 235.95 66.7 237.35 67.5 238.95 70.05 238.5 Q70.85 238.2 71.2 237.35 L71.5 235.95 Q73.85 233.6 76.6 231.5 80.55 228.6 83.5 224.95 L89.2 223.3 Q103.35 219.8 101.25 205.95 L100.65 205.3 Q97.35 202.9 93.55 201.95 96.1 200.35 98.5 197.95 L99.8 197.45 99.75 197.8 99.95 198.4 Q104.3 203.35 106.75 209.45 L107.1 209.85 107.75 210.55 107.75 211.3 107.75 211.7 Q108.15 212.85 109.5 212.7 116.1 204.8 126.6 206.3 L126.8 206.65 Q130.5 211.25 133.5 216.05 L134.1 217.5 135.5 221.7 Q136.25 222.75 137.5 222.7 L138.15 222.35 Q138.75 221.85 138.85 221.05 145.95 216.5 151.6 210.95 155.7 214.9 160.1 218.45 160.55 220.2 160.0 221.85 158.05 227.95 158.85 234.55 L159.15 235.0 Q159.85 236.65 161.5 236.55 L161.65 236.4 Q164.4 231.15 169.25 227.05 L169.25 226.3 169.25 225.55 Q174.7 217.95 183.6 218.3 L192.25 226.45 Q196.45 227.05 199.6 223.95 L204.0 223.55 204.35 223.3 204.7 222.75 M300.0 167.7 Q293.1 172.15 285.75 175.95 L285.5 176.7 285.0 178.2 284.5 178.9 Q286.5 155.95 292.75 134.2 L293.3 133.75 293.75 133.05 293.95 131.65 Q294.95 128.05 296.85 124.8 L297.5 124.0 Q298.55 122.35 300.0 121.15 L300.0 167.7 M300.0 171.45 L300.0 192.0 298.75 191.55 298.65 191.3 Q293.15 185.3 285.6 183.45 286.55 180.3 288.35 177.3 291.3 175.95 293.75 173.95 L300.0 171.45 M300.0 194.65 L300.0 237.7 298.6 235.8 298.45 235.1 298.1 233.95 297.8 233.6 297.25 233.2 Q296.65 231.1 294.85 229.8 L294.7 229.45 Q293.0 226.15 292.0 222.7 L291.6 222.3 291.25 221.95 291.1 221.25 Q286.65 208.05 285.0 194.2 L284.65 193.8 284.25 193.05 284.25 192.7 Q284.85 189.85 283.65 188.0 L283.9 186.6 284.0 186.55 284.9 185.55 Q291.8 187.65 296.25 192.7 L300.0 194.65 M0.0 35.8 Q5.7 43.2 10.25 51.95 12.05 55.0 11.15 58.6 7.1 74.4 11.75 90.2 13.3 91.35 13.9 93.15 L16.5 100.7 Q15.1 102.3 15.2 104.45 L15.5 114.95 16.25 115.7 17.0 116.45 17.6 120.25 Q18.15 126.75 19.5 132.95 L20.55 134.0 Q20.6 145.55 22.15 157.0 22.5 159.55 21.25 161.35 18.55 165.2 16.7 169.1 L15.75 167.3 15.75 166.95 Q15.7 163.95 13.5 162.2 13.1 162.3 13.05 162.55 12.3 165.4 13.25 168.8 L15.2 172.5 14.15 175.45 13.95 175.2 Q12.75 173.95 12.5 172.2 L12.1 171.8 11.75 171.45 11.6 170.8 Q10.5 169.1 10.0 167.3 L9.65 166.9 Q8.8 165.8 7.5 165.2 7.0 165.25 6.75 165.8 6.15 167.2 7.0 168.7 L7.75 169.45 Q9.3 170.85 9.25 172.8 L9.85 173.6 Q10.3 174.25 10.35 175.05 11.5 177.45 13.4 178.3 12.6 181.85 12.5 185.45 10.4 189.05 7.5 192.2 L7.45 193.7 Q7.3 196.0 7.75 198.2 15.5 203.3 25.0 201.2 25.1 202.5 22.25 203.2 21.85 203.55 21.6 204.0 20.25 206.35 20.5 209.2 18.25 210.1 15.5 211.95 L15.55 212.7 Q16.2 216.8 14.25 220.2 L4.5 220.95 0.0 221.65 0.0 35.8 M0.0 228.35 L6.0 228.2 6.5 227.75 Q10.2 229.6 14.25 230.7 L14.75 232.2 15.75 234.55 17.0 237.45 18.5 238.95 21.5 241.95 27.25 242.7 28.6 243.7 Q37.6 248.65 43.5 254.7 48.8 259.25 55.0 262.35 42.9 269.65 31.25 278.3 29.6 278.5 28.1 279.05 L23.5 282.45 Q18.55 284.8 15.1 289.2 8.2 280.15 0.0 272.1 L0.0 228.35 M57.55 263.55 Q61.8 265.45 66.5 266.7 L73.15 272.5 73.75 282.1 Q72.85 284.15 72.35 286.5 70.55 295.4 65.0 303.2 L64.6 303.55 64.25 303.95 Q61.1 311.55 55.35 317.8 52.3 323.05 48.85 328.3 L48.75 328.7 48.0 331.7 47.6 332.05 47.25 332.45 41.75 342.55 41.55 343.6 39.2 350.0 0.0 350.0 0.0 275.4 Q4.8 280.15 8.25 285.95 L8.6 286.35 Q11.7 290.05 15.25 293.45 L17.35 293.3 17.6 292.55 17.75 290.3 Q20.7 288.15 22.6 285.45 24.85 285.15 26.0 283.3 30.3 281.1 34.75 279.45 L34.95 279.2 35.35 278.45 35.95 278.15 Q46.45 270.55 57.35 263.8 L57.55 263.55 M75.25 282.95 Q85.1 287.65 96.0 290.95 L96.45 291.7 Q97.8 293.9 100.25 294.7 102.95 299.65 108.25 302.7 L108.4 303.45 108.5 304.2 108.5 304.95 110.8 306.75 111.85 307.55 110.25 307.95 109.95 308.35 109.6 309.05 Q102.25 311.5 94.5 312.3 91.6 314.1 89.15 316.35 L78.75 325.95 77.25 330.1 73.25 338.7 Q72.4 341.9 72.1 345.1 L71.8 350.0 42.0 350.0 Q45.15 340.6 50.75 332.05 L50.85 331.35 51.25 329.45 Q61.65 314.7 70.5 299.05 L70.7 298.3 70.75 297.95 71.7 296.95 71.15 298.9 Q69.3 305.55 68.5 312.45 70.2 315.85 73.25 313.2 75.1 310.6 76.25 307.95 80.65 297.45 76.0 292.45 L75.95 292.6 74.2 293.75 Q77.15 288.4 75.25 282.95 M113.45 308.75 Q122.0 315.55 127.5 323.95 L130.45 326.95 Q142.65 339.5 156.8 350.0 L74.35 350.0 Q74.3 346.3 75.45 342.9 L79.75 330.3 80.1 329.95 80.5 329.55 Q84.65 322.6 92.0 318.0 99.5 313.3 108.75 311.7 113.35 310.9 113.45 308.75 M176.55 350.0 Q176.55 348.3 176.0 346.7 L175.05 345.9 Q175.1 343.25 174.4 340.2 L174.0 338.7 Q173.6 338.3 173.15 338.2 169.05 337.1 165.25 336.7 L162.25 333.7 161.5 332.95 165.0 333.35 167.0 333.45 167.95 333.15 Q169.05 332.8 169.3 331.7 L169.5 330.95 Q168.8 328.2 165.95 328.0 163.4 327.85 162.25 325.7 161.25 323.55 160.55 321.1 158.95 315.25 154.25 316.2 153.85 316.55 153.8 317.0 153.5 319.2 153.5 321.45 L153.5 322.2 Q151.25 321.5 150.05 318.7 145.2 307.1 136.5 300.2 136.8 297.1 135.9 294.2 135.45 292.75 134.25 291.95 L133.3 291.7 133.65 291.05 Q134.95 289.0 134.5 286.45 L133.95 285.7 Q132.8 284.0 131.0 284.7 130.5 285.05 130.3 285.55 129.65 287.55 128.25 289.2 124.5 291.75 120.25 291.95 113.7 288.1 108.25 282.95 94.25 275.05 78.75 270.2 64.3 257.1 52.1 242.55 56.85 245.95 60.95 250.35 62.3 253.9 66.0 256.45 72.2 260.7 76.5 266.95 80.75 268.4 84.45 265.9 L85.0 265.45 85.25 264.7 Q87.1 260.35 89.45 256.4 90.85 254.0 90.5 251.2 93.35 246.85 97.2 243.55 101.15 240.15 100.75 234.7 103.4 233.25 106.3 232.05 L109.25 230.95 Q110.4 230.05 110.95 228.75 111.1 228.3 111.5 227.95 119.55 226.1 127.2 227.7 123.3 230.55 119.75 234.7 L119.35 236.15 Q117.1 242.5 112.5 247.45 101.45 252.6 95.25 263.2 91.65 264.6 90.5 267.95 90.0 270.9 93.0 271.45 99.95 266.2 106.0 259.45 110.6 251.85 120.0 248.45 L120.25 247.7 Q122.1 243.35 124.5 239.45 L124.6 237.95 125.0 236.45 Q127.6 233.4 131.0 231.45 L132.75 232.7 Q130.35 240.25 131.75 249.2 134.35 252.75 136.5 256.7 L136.05 257.45 135.0 260.45 Q128.2 263.7 123.5 269.45 L123.5 270.95 123.5 273.2 Q116.6 276.25 108.75 278.7 L108.5 280.2 Q108.3 281.75 108.75 283.2 110.35 285.15 112.5 283.95 120.3 281.8 128.0 277.2 L128.3 275.65 128.5 271.95 Q141.0 266.05 141.5 253.45 140.1 251.45 139.55 249.4 137.45 241.15 135.15 233.95 138.25 235.25 142.0 235.2 147.25 240.95 149.8 248.1 151.8 253.55 152.75 259.2 L153.5 259.95 154.25 260.7 154.45 261.45 Q155.1 265.15 157.8 268.15 159.35 269.9 160.5 271.95 170.95 272.5 180.5 267.95 197.8 268.35 209.2 281.7 212.2 285.25 216.1 285.5 259.65 288.6 300.0 271.75 L300.0 350.0 262.7 350.0 260.6 346.45 Q258.5 344.75 257.4 342.3 252.3 330.7 242.6 322.45 235.1 319.25 226.85 319.05 L224.35 317.15 Q215.65 310.5 207.65 303.35 198.05 294.65 185.5 290.2 L180.6 291.1 161.25 294.3 161.45 294.75 Q174.0 297.55 185.75 293.05 L186.25 293.4 Q187.9 294.15 189.25 295.45 196.15 296.75 201.25 301.25 213.15 311.7 225.25 321.45 245.2 321.55 252.85 339.55 253.95 340.45 254.4 341.75 255.6 345.35 258.35 347.8 L259.4 350.0 176.55 350.0 M16.0 147.65 Q16.4 144.15 14.1 141.3 L13.6 141.05 12.5 140.7 12.5 140.8 Q11.5 143.25 13.75 147.7 14.25 149.1 15.6 148.45 L16.0 147.65 M6.0 140.2 Q5.75 140.25 5.7 140.4 4.9 143.8 8.25 147.45 L9.5 147.45 Q10.05 147.4 10.1 146.8 L10.15 146.45 Q9.4 142.45 6.0 140.2 M12.6 134.95 L12.7 134.55 Q12.8 132.1 10.5 131.7 L10.45 131.8 Q8.05 133.1 10.75 135.45 11.95 136.1 12.6 134.95 M16.85 154.6 L16.25 153.8 16.25 153.45 Q16.4 152.05 15.0 151.7 14.75 151.85 14.45 152.15 13.45 153.2 13.75 154.8 L14.0 155.2 Q16.1 158.0 15.75 160.8 L15.85 161.15 Q16.9 163.05 18.35 161.3 L18.55 160.6 Q18.4 157.65 17.1 154.95 L16.85 154.6 M103.8 240.5 L103.8 240.9 Q103.75 242.1 105.05 242.25 108.0 238.85 110.15 239.15 109.95 239.5 109.9 239.9 L109.8 241.75 Q110.3 243.15 111.65 242.5 L111.95 242.1 112.55 240.25 113.05 239.9 Q118.3 236.15 115.05 233.25 108.4 235.5 103.8 240.5 M139.3 239.9 Q139.2 240.6 139.85 240.85 L141.9 241.65 Q142.75 242.65 143.1 243.8 144.05 246.5 144.3 249.5 L145.5 250.55 146.55 251.25 Q147.4 251.05 147.75 250.25 L147.8 249.9 147.75 249.5 Q147.7 248.8 147.2 248.4 L146.8 248.0 Q146.95 246.95 146.75 246.05 145.75 242.1 143.15 239.0 L142.55 238.85 140.55 238.75 140.55 238.8 Q139.75 238.8 139.35 239.55 L139.3 239.9 M127.55 238.25 Q126.95 238.35 126.9 238.9 126.6 245.9 125.8 252.75 126.3 254.15 127.65 253.5 L127.9 253.1 Q130.55 245.05 127.55 238.25 M85.0 292.45 Q84.5 292.55 84.4 292.85 81.05 301.65 79.5 311.45 80.8 314.3 84.0 313.2 L84.3 312.85 Q89.4 301.55 85.0 292.45 M84.5 287.85 Q83.75 288.1 83.75 288.8 91.15 297.8 101.5 303.2 L102.0 303.15 Q102.85 303.0 103.25 302.2 L103.15 301.95 85.0 287.7 84.5 287.85 M10.0 239.7 L9.75 239.85 Q8.8 245.75 4.6 250.55 3.55 250.9 2.85 251.8 L2.8 252.2 Q2.65 253.3 1.75 254.05 L1.65 254.8 Q1.0 257.1 1.25 259.7 1.75 261.1 3.1 260.45 L3.35 260.05 4.35 254.8 4.75 254.45 5.35 253.3 6.0 253.05 6.5 252.7 Q7.65 250.0 10.0 248.2 L10.1 247.8 Q10.55 246.6 11.25 245.55 L11.3 245.2 Q12.0 241.7 10.0 239.7 M40.25 264.2 Q35.45 265.95 32.5 270.2 L32.4 271.7 Q32.3 273.1 33.5 273.95 39.55 271.75 45.75 266.7 L46.1 265.9 46.5 264.45 47.45 263.5 Q49.7 259.85 45.0 259.45 L44.1 259.85 Q41.65 261.55 40.25 264.2 M34.0 288.45 L33.3 288.9 Q30.65 293.35 35.5 298.45 L35.3 298.95 Q33.95 299.95 33.5 301.45 L33.4 302.2 Q32.75 305.6 36.0 306.45 36.75 306.2 37.15 305.65 L40.25 301.7 40.45 300.2 Q40.65 297.5 40.25 294.95 L39.8 294.15 Q37.95 289.75 34.0 288.45 M66.0 290.2 L65.95 290.3 59.35 303.3 59.25 303.7 58.0 307.8 Q55.95 309.95 54.25 312.3 54.2 313.55 55.5 313.7 58.65 311.9 60.6 308.8 L60.8 308.1 61.75 304.7 64.55 300.75 Q67.85 294.85 66.0 290.2 M52.6 319.3 Q53.15 317.7 51.5 317.2 L46.5 322.7 46.35 323.05 Q46.35 323.95 45.75 324.55 44.2 325.4 42.55 324.5 L36.8 324.35 Q26.7 329.2 19.25 337.45 19.0 338.9 20.5 339.2 26.6 333.65 33.3 328.2 34.75 327.0 36.5 327.25 42.85 328.15 48.1 326.45 L48.2 326.05 Q48.45 324.6 49.25 323.45 51.15 321.9 52.5 319.7 L52.6 319.3 M158.25 311.8 L158.4 312.2 174.75 311.3 Q175.3 312.1 176.2 312.5 L176.75 312.8 176.5 313.2 Q175.45 314.55 174.0 315.35 L173.6 315.55 Q170.95 318.25 170.2 321.95 170.05 322.85 170.75 323.45 L177.4 322.05 177.5 322.2 174.3 329.95 Q173.65 331.4 173.85 333.05 177.2 335.0 180.85 336.65 183.25 337.75 184.6 336.3 183.6 333.8 180.0 333.2 177.4 332.75 176.25 330.7 L179.55 324.35 180.25 323.2 180.1 322.1 179.4 319.85 179.1 319.45 Q176.4 318.7 173.95 319.55 L174.1 319.45 178.55 314.5 179.1 313.8 179.2 313.05 179.2 311.95 179.1 311.55 176.6 309.35 176.1 308.95 175.5 308.8 168.5 308.7 163.3 309.4 Q160.05 310.05 158.25 311.8 M116.0 316.7 L116.5 316.7 Q117.3 316.65 117.6 315.95 L117.6 315.65 Q116.0 312.95 113.0 311.7 110.65 314.5 116.0 316.7 M105.5 305.7 Q104.1 305.45 103.1 306.45 L99.75 306.45 99.35 306.1 Q95.8 303.5 92.0 301.7 L91.5 301.85 Q90.75 302.1 90.75 302.8 90.65 303.55 91.25 303.9 95.1 306.2 98.75 308.95 103.2 310.1 106.6 307.45 107.0 306.1 105.5 305.7 M123.5 321.2 Q123.15 321.3 123.05 321.65 122.55 323.75 124.35 326.05 L124.75 326.45 125.25 326.8 Q125.05 327.75 125.15 328.4 125.95 332.25 127.25 335.8 127.9 336.5 128.45 336.7 136.85 339.65 143.25 345.45 144.6 347.6 147.0 348.7 L147.5 348.7 Q148.25 348.65 148.6 347.95 141.85 338.2 129.75 334.95 L129.55 333.45 Q128.15 329.5 127.5 325.2 L127.1 324.75 Q125.9 322.4 123.5 321.2 M82.75 336.8 L82.95 337.55 83.25 337.95 84.35 337.6 88.8 334.55 Q97.8 329.05 109.5 333.55 L109.7 333.4 110.15 332.45 110.1 332.05 109.95 331.75 Q109.55 331.3 109.05 331.15 L107.0 330.55 106.6 330.3 106.1 329.95 105.5 329.8 91.5 328.7 Q87.85 329.95 85.15 333.4 L84.05 334.9 82.75 336.45 82.75 336.8 M89.45 345.5 L88.35 346.3 88.25 346.7 Q87.95 348.0 88.85 348.85 L89.5 349.2 92.15 346.95 Q96.7 342.5 102.1 339.7 99.95 341.15 99.2 343.45 98.6 345.25 98.25 347.2 98.5 348.1 99.5 348.1 L100.1 347.95 100.55 347.5 Q101.7 345.9 101.95 343.85 L102.1 343.45 Q103.45 342.3 104.85 341.4 107.7 339.65 109.25 337.2 L108.95 336.85 Q106.8 334.95 103.5 336.2 101.7 336.65 99.95 337.65 L97.1 339.05 96.3 340.15 96.0 340.55 Q93.85 341.0 92.8 342.7 L92.6 343.05 89.45 345.5 M121.0 333.35 L120.1 331.8 119.6 331.5 119.0 331.2 118.75 331.3 118.5 340.7 114.5 342.7 114.25 343.05 Q112.85 344.9 112.75 347.2 113.8 349.0 115.25 347.45 L115.5 346.7 Q115.5 345.55 116.35 344.8 119.65 344.15 121.25 341.2 L121.25 340.05 121.25 333.7 121.0 333.35 M249.0 261.85 L248.75 261.95 248.05 262.3 Q241.6 263.5 237.6 257.45 L237.0 257.3 234.0 257.2 Q230.9 258.9 227.25 259.45 L226.8 259.75 Q224.1 260.95 221.0 261.3 L220.65 261.6 220.3 262.35 220.25 262.7 Q220.45 263.6 221.4 263.4 L236.85 260.05 239.0 262.1 Q245.15 268.8 250.75 263.05 L250.65 262.7 Q250.15 261.5 249.0 261.85 M247.55 226.35 L248.15 225.65 248.25 225.3 248.05 225.0 Q245.0 222.15 241.0 221.7 L240.3 222.05 Q239.55 222.5 239.65 223.35 L239.75 224.8 240.0 225.15 240.95 226.0 241.25 226.3 241.25 226.7 241.25 227.05 241.25 227.45 241.5 227.8 242.05 229.0 242.1 229.7 230.25 232.45 230.25 233.2 230.25 234.3 230.25 234.7 231.8 236.9 234.35 239.55 Q230.0 238.55 224.5 237.7 L224.0 237.9 Q223.6 238.15 223.3 238.5 L223.25 238.8 Q230.1 242.35 239.0 242.7 L239.45 242.5 240.05 241.9 240.25 241.55 Q239.65 240.1 238.15 239.15 235.15 237.2 233.1 234.3 239.05 234.2 244.6 230.95 245.05 229.15 244.2 227.65 243.6 226.6 243.6 225.3 L243.95 225.4 247.0 226.7 247.55 226.35 M289.25 236.45 L289.45 236.05 Q290.45 234.1 288.5 233.2 284.4 235.15 278.5 235.3 277.5 236.1 276.75 237.05 L276.75 237.8 276.75 239.7 Q277.25 241.1 278.6 240.45 L278.9 240.05 279.5 238.2 Q284.55 237.8 289.25 236.45 M219.25 344.05 L219.15 343.8 Q214.55 340.35 208.5 341.2 204.95 342.05 202.25 344.7 200.55 346.35 200.75 348.7 L200.95 349.0 Q201.4 349.4 202.05 349.55 L202.5 349.55 202.65 349.4 Q207.25 340.05 218.5 345.55 L218.7 345.4 219.1 344.8 219.2 344.45 219.25 344.05 M186.0 296.2 L185.75 296.35 Q186.45 300.8 191.85 304.05 194.4 307.3 198.5 308.95 L198.8 309.25 214.75 321.3 214.6 323.95 Q214.3 327.05 215.35 329.55 L215.75 329.9 217.85 329.8 218.0 329.1 Q217.95 328.05 217.25 327.2 L217.3 324.55 Q217.4 321.85 217.0 319.3 208.35 313.9 200.6 307.3 L200.1 306.95 186.0 296.2 M195.0 275.7 L194.5 275.3 Q192.9 273.8 191.0 273.2 L190.5 273.35 Q189.7 273.6 189.75 274.3 190.25 275.6 191.05 276.9 194.95 283.1 199.0 288.7 204.5 286.4 210.1 286.3 L210.75 287.1 214.25 291.95 223.6 292.3 223.95 292.7 225.75 294.95 226.95 294.95 Q227.5 294.9 227.6 294.3 227.8 293.75 227.6 293.25 226.5 290.75 224.5 289.2 219.6 289.85 215.85 289.05 213.75 285.95 210.6 283.45 L198.75 285.05 Q198.85 284.0 198.4 283.05 L195.0 275.7 M203.6 235.8 L203.1 235.45 202.5 235.3 196.5 235.2 195.6 235.55 194.75 235.95 Q192.15 239.85 189.75 243.9 188.65 245.7 186.85 245.5 169.1 243.8 162.75 259.2 162.95 260.1 164.0 260.1 L164.6 259.95 Q167.05 255.2 171.25 251.7 172.55 250.65 174.05 250.55 182.6 250.1 190.35 247.3 L193.45 242.35 Q194.8 239.9 196.75 237.95 L202.35 238.25 202.75 238.45 Q204.6 240.3 205.55 243.2 207.3 248.75 211.25 253.45 L211.25 254.55 211.3 257.2 211.35 257.55 Q212.0 258.45 212.95 258.05 L213.35 257.8 Q213.8 257.35 213.8 256.7 L213.75 252.55 213.75 252.2 213.45 251.85 Q211.7 250.25 211.1 248.05 L211.0 247.7 Q208.4 245.6 207.5 242.5 207.15 241.4 207.25 240.2 206.15 237.4 203.6 235.8" fill="#507838" fill-rule="evenodd" stroke="none"/>
    <path d="M258.65 7.35 L282.95 10.6 284.2 10.95 Q286.0 12.15 287.3 13.9 L287.95 14.7 Q289.5 16.3 290.2 18.55 290.8 20.5 289.95 22.2 L284.9 26.0 283.0 24.7 Q282.6 24.8 282.3 25.05 281.55 25.5 281.75 26.45 L282.0 26.8 282.55 27.4 Q280.1 28.7 277.7 29.5 L278.4 30.85 278.95 31.7 279.4 33.2 279.45 33.95 Q286.25 37.6 283.85 44.35 L282.95 46.45 Q276.7 60.1 262.7 65.7 260.95 68.15 259.9 70.8 L258.95 72.2 Q256.35 72.95 255.45 70.45 L255.45 68.2 255.45 66.7 255.8 66.2 Q249.3 68.85 241.45 65.95 236.7 57.45 234.1 48.0 L233.7 47.2 Q231.45 45.1 230.2 47.7 227.7 54.35 221.45 57.95 218.0 59.4 214.45 57.95 213.35 56.35 211.55 55.7 L210.75 55.2 Q214.3 42.1 208.6 31.0 213.35 26.85 218.45 22.9 L218.8 23.3 220.3 25.5 220.45 26.2 Q230.55 27.25 240.2 30.7 241.1 33.05 242.7 35.0 L242.45 35.7 Q242.6 38.75 245.95 38.45 L246.3 38.35 247.2 38.95 Q258.0 37.15 268.2 40.95 271.65 44.05 274.5 47.65 L274.95 48.15 278.3 42.35 278.45 41.7 Q276.15 37.7 272.7 34.2 271.7 32.35 271.85 30.75 264.85 31.4 257.8 28.0 258.3 25.65 256.95 23.45 L256.0 23.75 Q254.45 24.4 253.1 25.25 L251.8 24.3 243.95 19.0 Q249.75 14.55 254.45 8.95 256.75 8.5 258.65 7.35 M260.45 53.95 Q258.8 56.7 259.3 61.75 261.55 59.5 264.45 57.9 263.4 56.1 261.75 54.65 261.2 54.2 260.45 53.95 M0.0 27.75 Q2.75 28.35 5.2 30.05 L6.0 30.7 Q7.7 36.35 9.8 41.8 L11.0 45.7 Q20.65 57.95 15.9 75.35 13.95 82.55 18.0 88.45 22.8 97.9 20.85 108.0 20.5 109.8 20.5 111.7 20.5 112.05 20.65 112.3 L22.25 113.95 Q22.6 125.9 28.05 136.4 L30.5 140.95 31.05 141.35 33.25 142.7 Q34.6 144.7 35.45 147.1 36.05 148.85 37.25 150.2 37.65 156.15 37.65 162.2 37.65 164.5 37.25 166.7 L36.9 167.35 35.5 168.95 Q34.15 173.2 34.4 177.95 L34.5 181.7 35.1 182.3 37.25 183.7 Q41.2 192.45 41.75 202.4 L41.75 203.45 Q44.1 207.6 44.35 212.45 L44.25 213.95 Q42.45 215.9 39.75 216.7 38.55 219.2 36.65 221.35 36.5 221.55 36.5 221.95 L44.7 233.3 45.95 234.9 48.35 237.95 52.1 242.55 Q64.3 257.1 78.75 270.2 94.25 275.05 108.25 282.95 113.7 288.1 120.25 291.95 124.5 291.75 128.25 289.2 129.65 287.55 130.3 285.55 130.5 285.05 131.0 284.7 132.8 284.0 133.95 285.7 L134.5 286.45 Q134.95 289.0 133.65 291.05 L133.3 291.7 134.25 291.95 Q135.45 292.75 135.9 294.2 136.8 297.1 136.5 300.2 145.2 307.1 150.05 318.7 151.25 321.5 153.5 322.2 L153.5 321.45 Q153.5 319.2 153.8 317.0 153.85 316.55 154.25 316.2 158.95 315.25 160.55 321.1 161.25 323.55 162.25 325.7 163.4 327.85 165.95 328.0 168.8 328.2 169.5 330.95 L169.3 331.7 Q169.05 332.8 167.95 333.15 L167.0 333.45 165.0 333.35 161.5 332.95 162.25 333.7 165.25 336.7 Q169.05 337.1 173.15 338.2 173.6 338.3 174.0 338.7 L174.4 340.2 Q175.1 343.25 175.05 345.9 L176.0 346.7 Q176.55 348.3 176.55 350.0 L169.6 350.0 Q167.85 348.1 167.0 345.45 L162.4 342.0 Q160.7 340.55 160.0 338.45 158.85 337.8 158.0 336.95 156.05 334.85 153.5 333.95 L149.6 327.85 147.0 323.45 Q146.25 323.2 145.65 322.75 L142.5 319.95 140.7 313.85 138.25 307.95 Q137.35 307.45 136.4 307.2 133.7 306.5 132.0 304.45 L131.7 303.65 131.5 298.45 131.5 297.7 Q129.25 297.3 126.9 295.95 122.5 297.55 117.5 296.95 100.25 282.3 78.5 276.25 L78.5 277.7 Q96.55 282.4 108.5 296.95 L111.2 298.05 112.25 298.7 131.85 321.5 Q137.05 327.65 142.5 332.95 154.6 338.95 164.65 348.5 L166.4 350.0 156.8 350.0 Q142.65 339.5 130.45 326.95 L127.5 323.95 Q122.0 315.55 113.45 308.75 L113.0 307.2 111.85 307.55 110.8 306.75 108.5 304.95 108.5 304.2 108.4 303.45 108.25 302.7 Q102.95 299.65 100.25 294.7 97.8 293.9 96.45 291.7 L96.0 290.95 Q85.1 287.65 75.25 282.95 L74.5 281.2 Q74.1 281.3 74.0 281.55 L73.75 282.1 73.15 272.5 66.5 266.7 Q61.8 265.45 57.55 263.55 L57.55 263.45 Q57.95 261.75 56.0 261.7 L55.0 262.35 Q48.8 259.25 43.5 254.7 37.6 248.65 28.6 243.7 L27.25 242.7 21.5 241.95 18.5 238.95 17.0 237.45 15.75 234.55 14.75 232.2 14.25 230.7 Q10.2 229.6 6.5 227.75 L6.0 228.2 0.0 228.35 0.0 221.65 4.5 220.95 14.25 220.2 Q16.2 216.8 15.55 212.7 L15.5 211.95 Q18.25 210.1 20.5 209.2 20.25 206.35 21.6 204.0 21.85 203.55 22.25 203.2 25.1 202.5 25.0 201.2 15.5 203.3 7.75 198.2 7.3 196.0 7.45 193.7 L7.5 192.2 Q10.4 189.05 12.5 185.45 12.6 181.85 13.4 178.3 L14.0 178.55 Q14.55 178.4 14.7 177.85 14.9 176.9 14.6 175.95 L14.15 175.45 15.2 172.5 16.25 174.45 Q17.55 175.05 18.25 173.7 L18.15 173.0 16.7 169.1 Q18.55 165.2 21.25 161.35 22.5 159.55 22.15 157.0 20.6 145.55 20.55 134.0 L19.5 132.95 Q18.15 126.75 17.6 120.25 L17.0 116.45 16.25 115.7 15.5 114.95 15.2 104.45 Q15.1 102.3 16.5 100.7 L13.9 93.15 Q13.3 91.35 11.75 90.2 7.1 74.4 11.15 58.6 12.05 55.0 10.25 51.95 5.7 43.2 0.0 35.8 L0.0 27.75 M32.5 163.7 L32.5 157.7 32.5 153.2 Q30.1 148.4 26.95 144.2 L27.95 151.65 Q29.95 169.15 16.5 180.2 18.45 182.5 19.5 185.45 16.75 190.4 12.5 194.95 19.0 196.65 26.0 195.45 L33.0 199.7 Q33.8 201.4 33.5 203.45 L33.25 204.95 Q30.35 207.35 26.25 207.7 25.1 210.15 25.2 212.95 L25.0 214.45 Q22.3 215.7 20.5 216.7 19.85 223.35 15.4 225.45 20.25 227.7 22.1 234.1 22.5 235.3 23.25 236.45 26.6 237.65 30.25 237.95 36.65 242.95 43.6 246.8 L46.25 247.95 Q47.8 249.55 48.85 251.5 50.2 254.2 52.5 255.95 L56.2 256.1 Q48.35 247.1 42.25 236.95 36.6 232.5 31.5 226.95 L31.5 220.95 31.5 218.7 Q34.6 214.45 38.75 210.45 36.9 207.7 37.0 205.4 L36.8 205.15 36.5 204.45 Q36.6 198.1 35.1 192.3 L34.25 188.7 Q33.2 187.25 31.65 186.55 30.75 186.2 30.0 185.45 28.55 176.6 30.35 168.2 30.9 165.7 32.5 163.7" fill="#185068" fill-rule="evenodd" stroke="none"/>
    <path d="M284.9 26.0 L285.6 26.45 286.1 26.8 286.25 27.2 286.75 27.95 Q287.65 28.65 288.85 29.05 291.0 32.5 294.2 35.1 L295.0 35.8 Q295.4 36.5 295.35 37.35 L295.1 38.8 294.6 39.55 294.25 39.95 294.25 41.05 294.25 41.8 Q298.95 47.4 297.7 54.65 297.3 57.1 299.5 58.7 L300.0 60.65 300.15 61.25 300.25 63.2 300.0 63.6 Q299.35 64.45 298.25 63.95 297.3 62.95 297.25 61.7 L297.25 60.2 Q294.2 57.3 294.35 53.05 294.45 51.2 295.25 49.7 294.65 47.3 293.55 45.15 292.85 43.9 291.75 42.95 L291.75 41.05 291.75 39.2 Q292.0 38.5 292.55 38.0 L292.75 37.7 Q290.5 34.6 287.45 31.95 287.0 31.55 286.85 30.95 284.4 29.4 282.55 27.4 L282.0 26.8 281.75 26.45 Q281.55 25.5 282.3 25.05 282.6 24.8 283.0 24.7 L284.9 26.0 M224.55 115.35 L224.3 115.25 Q223.65 115.05 223.75 114.3 L224.2 113.7 Q224.65 113.3 225.0 113.2 L226.1 113.65 Q227.9 111.5 229.45 108.95 232.4 107.3 234.9 105.1 L235.45 104.45 235.45 103.7 235.45 99.95 235.45 99.2 Q237.75 96.8 241.6 95.25 258.3 88.55 277.25 87.25 L276.6 85.35 277.0 85.2 279.0 87.15 Q287.4 95.7 293.5 106.8 L293.75 107.2 Q294.05 109.0 295.0 110.55 L295.75 111.7 Q295.75 115.45 296.2 119.15 L296.15 120.75 295.85 121.8 295.15 122.1 294.25 123.45 Q294.4 124.35 293.85 125.05 291.2 128.0 291.1 132.05 L290.75 132.45 290.25 133.2 Q287.75 139.6 286.55 146.3 L284.4 156.65 Q283.25 161.85 282.55 167.15 L283.25 168.05 283.1 168.8 Q283.0 169.4 282.5 169.55 L282.25 169.55 Q274.85 169.55 267.25 166.95 L257.2 153.85 Q255.45 151.5 255.1 148.55 L254.85 148.2 254.25 147.45 254.25 146.7 254.25 145.55 249.8 138.2 247.5 134.7 247.3 134.3 247.25 133.55 246.75 133.2 246.1 132.8 245.4 131.8 244.75 130.95 Q237.6 119.8 224.55 115.35 M170.3 173.15 Q170.45 173.55 170.95 173.8 L171.25 174.4 171.6 175.4 171.85 176.05 172.85 177.35 Q174.35 179.9 176.75 182.05 176.3 183.3 175.45 184.3 L174.75 185.05 174.7 185.8 Q172.65 198.7 182.85 205.55 184.1 208.0 186.7 209.0 189.45 210.0 191.55 211.85 197.3 216.95 203.3 221.65 204.0 221.85 204.75 222.2 L204.7 222.75 204.35 223.3 204.0 223.55 199.6 223.95 Q196.45 227.05 192.25 226.45 L183.6 218.3 Q174.7 217.95 169.25 225.55 L169.25 226.3 169.25 227.05 Q164.4 231.15 161.65 236.4 L161.5 236.55 Q159.85 236.65 159.15 235.0 L158.85 234.55 Q158.05 227.95 160.0 221.85 160.55 220.2 160.1 218.45 155.7 214.9 151.6 210.95 145.95 216.5 138.85 221.05 138.75 221.85 138.15 222.35 L137.5 222.7 Q136.25 222.75 135.5 221.7 L134.1 217.5 133.5 216.05 Q130.5 211.25 126.8 206.65 L126.6 206.3 Q116.1 204.8 109.5 212.7 108.15 212.85 107.75 211.7 L107.75 211.3 107.75 210.55 107.1 209.85 106.75 209.45 Q104.3 203.35 99.95 198.4 L99.75 197.8 99.8 197.45 Q99.95 197.05 100.5 196.85 L101.0 196.7 101.3 196.95 Q106.45 195.3 112.0 195.2 117.45 192.8 120.2 188.65 127.8 195.5 138.0 195.2 147.55 188.75 159.75 189.7 L160.55 189.05 Q163.55 187.25 165.5 184.45 L165.4 181.45 Q165.3 179.5 165.75 177.7 L166.45 176.9 Q167.35 175.9 167.75 174.7 L168.95 174.1 170.3 173.15 M55.5 135.8 Q57.3 142.4 53.8 148.6 L52.75 150.8 Q53.05 152.0 53.65 153.1 L53.75 153.45 53.2 154.35 52.5 154.7 Q51.3 154.3 50.35 153.55 50.15 151.7 50.25 149.8 L50.25 149.05 Q53.5 144.35 53.3 138.6 L52.85 137.05 Q50.75 136.75 49.1 135.3 L47.25 134.95 Q35.25 127.55 31.9 114.9 31.75 114.25 32.5 114.2 34.15 114.85 33.8 116.7 L33.75 117.05 Q40.25 128.1 51.25 133.95 53.65 134.3 55.5 135.8 M69.25 170.7 L67.85 173.75 67.6 174.45 66.75 175.2 66.1 178.15 65.75 178.95 Q64.3 180.5 63.25 178.7 63.45 176.75 64.05 174.9 L64.35 173.8 Q70.75 164.5 79.25 156.75 80.5 155.65 82.0 154.95 85.35 151.75 89.45 149.75 L89.5 149.7 Q91.45 149.7 91.05 151.45 L90.85 151.8 Q86.9 153.8 83.85 156.8 76.45 162.3 70.55 169.7 70.0 170.35 69.25 170.7 M74.75 183.8 Q74.9 185.05 74.4 186.05 L74.1 186.45 Q72.75 187.1 72.25 185.7 76.8 172.7 87.95 163.8 L88.0 163.7 Q89.65 164.2 89.1 165.8 L89.0 166.2 Q80.8 173.9 75.0 183.45 L74.75 183.8 M116.0 156.7 Q118.7 161.05 117.75 167.05 L117.75 167.45 Q116.6 168.65 117.75 169.7 117.8 170.35 117.35 170.8 L117.0 171.05 Q114.45 172.05 113.25 170.2 113.45 168.1 115.1 166.45 114.8 161.2 115.7 156.85 L116.0 156.7 M96.5 179.7 Q103.45 177.6 104.65 183.1 L104.6 183.45 104.3 183.75 Q102.95 184.75 102.25 183.2 90.45 180.15 84.7 190.2 83.5 192.25 82.6 194.45 L82.0 194.6 Q81.0 194.6 80.75 193.7 81.6 188.75 85.2 185.05 89.85 180.3 96.5 179.7 M149.5 164.05 Q149.55 180.1 134.15 183.55 L133.75 183.2 Q142.05 179.25 145.7 170.3 147.0 167.1 147.45 163.55 147.7 161.75 149.25 160.45 150.65 159.2 150.75 157.45 151.75 155.0 153.45 153.8 L153.5 153.7 Q155.05 154.2 154.75 155.85 L154.75 156.2 Q152.7 160.55 149.5 164.05 M141.5 157.7 Q143.7 163.4 138.6 169.7 L135.25 173.7 Q135.4 175.25 134.85 176.65 L134.5 177.05 Q133.15 177.45 132.75 176.2 133.75 169.15 138.75 163.45 L139.1 163.05 Q139.4 160.1 141.1 157.9 141.25 157.75 141.5 157.7 M66.0 290.2 Q67.85 294.85 64.55 300.75 L61.75 304.7 60.8 308.1 60.6 308.8 Q58.65 311.9 55.5 313.7 54.2 313.55 54.25 312.3 55.95 309.95 58.0 307.8 L59.25 303.7 59.35 303.3 65.95 290.3 66.0 290.2 M52.6 319.3 L52.5 319.7 Q51.15 321.9 49.25 323.45 48.45 324.6 48.2 326.05 L48.1 326.45 Q42.85 328.15 36.5 327.25 34.75 327.0 33.3 328.2 26.6 333.65 20.5 339.2 19.0 338.9 19.25 337.45 26.7 329.2 36.8 324.35 L42.55 324.5 Q44.2 325.4 45.75 324.55 46.35 323.95 46.35 323.05 L46.5 322.7 51.5 317.2 Q53.15 317.7 52.6 319.3 M158.25 311.8 Q160.05 310.05 163.3 309.4 L168.5 308.7 175.5 308.8 176.1 308.95 176.6 309.35 179.1 311.55 179.2 311.95 179.2 313.05 179.1 313.8 178.55 314.5 174.1 319.45 173.95 319.55 Q176.4 318.7 179.1 319.45 L179.4 319.85 180.1 322.1 180.25 323.2 179.55 324.35 176.25 330.7 Q177.4 332.75 180.0 333.2 183.6 333.8 184.6 336.3 183.25 337.75 180.85 336.65 177.2 335.0 173.85 333.05 173.65 331.4 174.3 329.95 L177.5 322.2 177.4 322.05 170.75 323.45 Q170.05 322.85 170.2 321.95 170.95 318.25 173.6 315.55 L174.0 315.35 Q175.45 314.55 176.5 313.2 L176.75 312.8 176.2 312.5 Q175.3 312.1 174.75 311.3 L158.4 312.2 158.25 311.8 M82.75 336.8 L82.75 336.45 84.05 334.9 85.15 333.4 Q87.85 329.95 91.5 328.7 L105.5 329.8 106.1 329.95 106.6 330.3 107.0 330.55 109.05 331.15 Q109.55 331.3 109.95 331.75 L110.1 332.05 110.15 332.45 109.7 333.4 109.5 333.55 Q97.8 329.05 88.8 334.55 L84.35 337.6 83.25 337.95 82.95 337.55 82.75 336.8 M289.25 236.45 Q284.55 237.8 279.5 238.2 L278.9 240.05 278.6 240.45 Q277.25 241.1 276.75 239.7 L276.75 237.8 276.75 237.05 Q277.5 236.1 278.5 235.3 284.4 235.15 288.5 233.2 290.45 234.1 289.45 236.05 L289.25 236.45 M247.55 226.35 L247.0 226.7 243.95 225.4 243.6 225.3 Q243.6 226.6 244.2 227.65 245.05 229.15 244.6 230.95 239.05 234.2 233.1 234.3 235.15 237.2 238.15 239.15 239.65 240.1 240.25 241.55 L240.05 241.9 239.45 242.5 239.0 242.7 Q230.1 242.35 223.25 238.8 L223.3 238.5 Q223.6 238.15 224.0 237.9 L224.5 237.7 Q230.0 238.55 234.35 239.55 L231.8 236.9 230.25 234.7 230.25 234.3 230.25 233.2 230.25 232.45 242.1 229.7 242.05 229.0 241.5 227.8 241.25 227.45 241.25 227.05 241.25 226.7 241.25 226.3 240.95 226.0 240.0 225.15 239.75 224.8 239.65 223.35 Q239.55 222.5 240.3 222.05 L241.0 221.7 Q245.0 222.15 248.05 225.0 L248.25 225.3 248.15 225.65 247.55 226.35 M249.0 261.85 Q250.15 261.5 250.65 262.7 L250.75 263.05 Q245.15 268.8 239.0 262.1 L236.85 260.05 221.4 263.4 Q220.45 263.6 220.25 262.7 L220.3 262.35 220.65 261.6 221.0 261.3 Q224.1 260.95 226.8 259.75 L227.25 259.45 Q230.9 258.9 234.0 257.2 L237.0 257.3 237.6 257.45 Q241.6 263.5 248.05 262.3 L248.75 261.95 249.0 261.85 M203.6 235.8 Q206.15 237.4 207.25 240.2 207.15 241.4 207.5 242.5 208.4 245.6 211.0 247.7 L211.1 248.05 Q211.7 250.25 213.45 251.85 L213.75 252.2 213.75 252.55 213.8 256.7 Q213.8 257.35 213.35 257.8 L212.95 258.05 Q212.0 258.45 211.35 257.55 L211.3 257.2 211.25 254.55 211.25 253.45 Q207.3 248.75 205.55 243.2 204.6 240.3 202.75 238.45 L202.35 238.25 196.75 237.95 Q194.8 239.9 193.45 242.35 L190.35 247.3 Q182.6 250.1 174.05 250.55 172.55 250.65 171.25 251.7 167.05 255.2 164.6 259.95 L164.0 260.1 Q162.95 260.1 162.75 259.2 169.1 243.8 186.85 245.5 188.65 245.7 189.75 243.9 192.15 239.85 194.75 235.95 L195.6 235.55 196.5 235.2 202.5 235.3 203.1 235.45 203.6 235.8 M195.0 275.7 L198.4 283.05 Q198.85 284.0 198.75 285.05 L210.6 283.45 Q213.75 285.95 215.85 289.05 219.6 289.85 224.5 289.2 226.5 290.75 227.6 293.25 227.8 293.75 227.6 294.3 227.5 294.9 226.95 294.95 L225.75 294.95 223.95 292.7 223.6 292.3 214.25 291.95 210.75 287.1 210.1 286.3 Q204.5 286.4 199.0 288.7 194.95 283.1 191.05 276.9 190.25 275.6 189.75 274.3 189.7 273.6 190.5 273.35 L191.0 273.2 Q192.9 273.8 194.5 275.3 L195.0 275.7 M186.0 296.2 L200.1 306.95 200.6 307.3 Q208.35 313.9 217.0 319.3 217.4 321.85 217.3 324.55 L217.25 327.2 Q217.95 328.05 218.0 329.1 L217.85 329.8 215.75 329.9 215.35 329.55 Q214.3 327.05 214.6 323.95 L214.75 321.3 198.8 309.25 198.5 308.95 Q194.4 307.3 191.85 304.05 186.45 300.8 185.75 296.35 L186.0 296.2 M219.25 344.05 L219.2 344.45 219.1 344.8 218.7 345.4 218.5 345.55 Q207.25 340.05 202.65 349.4 L202.5 349.55 202.05 349.55 Q201.4 349.4 200.95 349.0 L200.75 348.7 Q200.55 346.35 202.25 344.7 204.95 342.05 208.5 341.2 214.55 340.35 219.15 343.8 L219.25 344.05" fill="#155065" fill-rule="evenodd" stroke="none"/>
    <path d="M269.55 0.0 Q265.3 1.7 261.2 3.95 L261.05 4.9 260.7 5.7 258.65 7.35 Q256.75 8.5 254.45 8.95 249.75 14.55 243.95 19.0 L241.95 20.45 Q240.2 20.5 239.35 19.8 227.6 19.15 218.8 23.3 L218.45 22.9 Q213.35 26.85 208.6 31.0 L207.5 31.95 Q203.55 36.5 200.65 42.7 L198.75 46.7 Q191.1 59.85 196.65 76.9 202.9 96.1 196.15 115.1 199.4 113.4 203.5 113.5 205.7 113.6 207.25 112.2 208.2 107.25 212.95 104.7 217.45 102.25 222.2 100.2 223.25 97.5 225.7 95.7 228.95 93.25 230.35 89.65 L230.45 88.95 231.2 88.15 Q232.4 86.7 234.2 86.2 L234.5 85.45 Q235.55 83.0 238.2 82.2 L238.55 81.5 239.45 79.95 Q244.45 77.85 249.55 76.15 L256.45 75.95 257.25 75.25 Q260.0 73.05 262.9 71.6 L262.95 71.45 269.95 71.45 271.15 72.05 Q272.35 72.8 272.7 74.2 283.25 71.4 293.9 73.75 L294.2 74.2 294.4 74.95 294.3 76.4 293.95 77.2 288.25 82.25 Q286.0 84.3 284.2 86.95 L279.0 87.15 277.0 85.2 276.6 85.35 277.25 87.25 Q258.3 88.55 241.6 95.25 237.75 96.8 235.45 99.2 L235.45 99.95 235.45 103.7 235.45 104.45 234.9 105.1 Q232.4 107.3 229.45 108.95 227.9 111.5 226.1 113.65 L225.0 113.2 Q224.65 113.3 224.2 113.7 L223.75 114.3 Q223.65 115.05 224.3 115.25 L224.55 115.35 Q222.15 117.75 219.3 119.55 L219.5 118.8 219.1 118.6 216.0 118.2 Q214.55 118.45 214.15 119.9 L213.55 122.35 211.1 123.1 211.25 122.7 Q210.7 121.6 209.5 121.75 L209.0 121.8 Q208.1 122.65 207.75 123.85 201.85 124.8 194.9 124.05 192.35 123.8 191.55 121.6 L191.5 121.45 191.5 120.7 191.55 120.25 190.6 119.75 Q189.3 118.95 189.35 117.45 L189.35 116.95 189.5 115.45 189.8 114.75 190.5 113.95 191.5 113.2 191.6 112.5 Q191.95 111.3 192.6 110.25 L194.25 107.95 Q193.8 95.55 191.75 84.25 189.45 71.45 189.45 57.7 L189.5 48.7 Q189.5 48.3 189.65 48.1 L191.4 45.65 192.25 44.2 193.0 43.75 194.25 43.2 194.5 42.45 Q194.6 42.05 194.85 41.8 L196.5 40.2 Q197.55 36.55 200.05 33.5 203.8 29.05 207.85 25.15 210.35 21.65 213.7 19.1 214.45 18.3 215.5 17.85 217.55 16.5 219.95 15.45 222.6 15.5 223.1 17.1 232.55 16.7 238.45 14.2 L239.0 13.5 240.45 11.95 241.2 11.2 Q241.35 9.1 242.75 7.7 247.25 3.05 253.2 0.0 L269.55 0.0" fill="#789b51" fill-rule="evenodd" stroke="none"/>
    <path d="M253.1 25.25 Q254.45 24.4 256.0 23.75 L256.95 23.45 Q258.3 25.65 257.8 28.0 257.0 31.9 250.8 36.05 248.7 37.45 246.3 38.35 L245.95 38.45 Q242.6 38.75 242.45 35.7 L242.7 35.0 Q243.35 33.55 245.0 32.75 L246.2 32.2 Q248.8 27.85 253.1 25.25 M189.35 117.45 Q189.3 118.95 190.6 119.75 L191.55 120.25 191.5 120.7 191.5 121.45 191.55 121.6 190.15 123.9 189.75 124.7 189.1 125.35 Q186.05 131.15 183.8 137.35 L182.75 139.7 Q177.5 142.8 172.05 145.2 L166.9 147.35 Q144.85 155.8 119.5 153.95 L118.75 153.2 118.0 152.45 Q110.95 151.25 104.55 149.1 101.65 148.1 98.9 146.95 88.55 142.55 80.0 135.45 76.75 133.7 74.25 130.7 L70.5 129.95 Q56.15 119.25 44.75 104.2 33.1 92.3 27.15 78.05 L23.75 74.2 Q19.45 62.95 19.0 50.9 18.85 47.0 18.0 43.45 L17.45 42.75 Q16.25 41.4 14.5 40.95 L13.55 39.4 Q12.3 37.35 10.5 35.7 9.65 25.05 4.7 15.35 3.2 12.45 2.0 9.45 L1.25 8.7 0.0 7.45 0.0 1.6 1.0 1.65 2.25 1.95 Q11.4 13.25 15.1 27.4 15.8 30.0 15.5 32.7 L18.55 35.85 Q20.9 38.0 23.0 40.7 22.45 58.6 31.85 73.15 L35.5 78.95 36.05 79.4 38.25 80.7 Q57.35 109.35 86.05 127.7 88.85 129.5 92.1 131.25 120.95 146.4 154.5 138.95 171.35 133.65 184.6 122.45 186.0 120.25 187.8 118.2 L189.0 117.45 189.35 117.45 M300.0 242.3 Q297.95 238.05 294.75 234.45 L294.7 234.05 294.6 233.3 Q284.3 216.35 282.75 196.2 L282.2 195.45 281.85 195.05 Q281.5 192.2 282.0 189.6 L281.35 189.05 Q281.1 179.1 282.25 169.55 L282.5 169.55 Q283.0 169.4 283.1 168.8 L283.25 168.05 282.55 167.15 Q283.25 161.85 284.4 156.65 L286.55 146.3 Q287.75 139.6 290.25 133.2 L290.75 132.45 291.1 132.05 Q291.2 128.0 293.85 125.05 294.4 124.35 294.25 123.45 L295.15 122.1 295.85 121.8 296.15 120.75 Q297.9 118.6 300.0 116.9 L300.0 121.15 Q298.55 122.35 297.5 124.0 L296.85 124.8 Q294.95 128.05 293.95 131.65 L293.75 133.05 293.3 133.75 292.75 134.2 Q286.5 155.95 284.5 178.9 L285.0 178.2 285.5 176.7 285.75 175.95 Q293.1 172.15 300.0 167.7 L300.0 171.45 293.75 173.95 Q291.3 175.95 288.35 177.3 286.55 180.3 285.6 183.45 293.15 185.3 298.65 191.3 L298.75 191.55 300.0 192.0 300.0 194.65 296.25 192.7 Q291.8 187.65 284.9 185.55 L284.0 186.55 283.9 186.6 283.65 188.0 Q284.85 189.85 284.25 192.7 L284.25 193.05 284.65 193.8 285.0 194.2 Q286.65 208.05 291.1 221.25 L291.25 221.95 291.6 222.3 292.0 222.7 Q293.0 226.15 294.7 229.45 L294.85 229.8 Q296.65 231.1 297.25 233.2 L297.8 233.6 298.1 233.95 298.45 235.1 298.6 235.8 300.0 237.7 300.0 242.3 M55.0 262.35 L56.0 261.7 Q57.95 261.75 57.55 263.45 L57.55 263.55 57.35 263.8 Q46.45 270.55 35.95 278.15 L35.35 278.45 34.95 279.2 34.75 279.45 Q30.3 281.1 26.0 283.3 24.85 285.15 22.6 285.45 20.7 288.15 17.75 290.3 L17.6 292.55 17.35 293.3 15.25 293.45 Q11.7 290.05 8.6 286.35 L8.25 285.95 Q4.8 280.15 0.0 275.4 L0.0 272.1 Q8.2 280.15 15.1 289.2 18.55 284.8 23.5 282.45 L28.1 279.05 Q29.6 278.5 31.25 278.3 42.9 269.65 55.0 262.35 M73.75 282.1 L74.0 281.55 Q74.1 281.3 74.5 281.2 L75.25 282.95 Q77.15 288.4 74.2 293.75 72.75 294.9 71.75 296.7 L71.7 296.95 70.75 297.95 70.7 298.3 70.5 299.05 Q61.65 314.7 51.25 329.45 L50.85 331.35 50.75 332.05 Q45.15 340.6 42.0 350.0 L39.2 350.0 41.55 343.6 41.75 342.55 47.25 332.45 47.6 332.05 48.0 331.7 48.75 328.7 48.85 328.3 Q52.3 323.05 55.35 317.8 61.1 311.55 64.25 303.95 L64.6 303.55 65.0 303.2 Q70.55 295.4 72.35 286.5 72.85 284.15 73.75 282.1 M111.85 307.55 L113.0 307.2 113.45 308.75 Q113.35 310.9 108.75 311.7 99.5 313.3 92.0 318.0 84.65 322.6 80.5 329.55 L80.1 329.95 79.75 330.3 75.45 342.9 Q74.3 346.3 74.35 350.0 L71.8 350.0 72.1 345.1 Q72.4 341.9 73.25 338.7 L77.25 330.1 78.75 325.95 89.15 316.35 Q91.6 314.1 94.5 312.3 102.25 311.5 109.6 309.05 L109.95 308.35 110.25 307.95 111.85 307.55 M259.4 350.0 L258.35 347.8 Q255.6 345.35 254.4 341.75 253.95 340.45 252.85 339.55 245.2 321.55 225.25 321.45 213.15 311.7 201.25 301.25 196.15 296.75 189.25 295.45 187.9 294.15 186.25 293.4 L185.75 293.05 Q174.0 297.55 161.45 294.75 L161.25 294.3 180.6 291.1 185.5 290.2 Q198.05 294.65 207.65 303.35 215.65 310.5 224.35 317.15 L226.85 319.05 Q235.1 319.25 242.6 322.45 252.3 330.7 257.4 342.3 258.5 344.75 260.6 346.45 L262.7 350.0 259.4 350.0" fill="#98a880" fill-rule="evenodd" stroke="none"/>
    <path d="M253.2 0.0 Q247.25 3.05 242.75 7.7 241.35 9.1 241.2 11.2 L240.45 11.95 239.0 13.5 238.45 14.2 Q232.55 16.7 223.1 17.1 222.6 15.5 219.95 15.45 217.55 16.5 215.5 17.85 214.45 18.3 213.7 19.1 210.35 21.65 207.85 25.15 203.8 29.05 200.05 33.5 197.55 36.55 196.5 40.2 L194.85 41.8 Q194.6 42.05 194.5 42.45 L194.25 43.2 193.0 43.75 192.25 44.2 191.4 45.65 189.65 48.1 Q189.5 48.3 189.5 48.7 L189.45 57.7 Q189.45 71.45 191.75 84.25 193.8 95.55 194.25 107.95 L192.6 110.25 Q191.95 111.3 191.6 112.5 L191.5 113.2 190.5 113.95 189.8 114.75 189.5 115.45 189.35 116.95 189.35 117.45 189.0 117.45 187.8 118.2 Q186.0 120.25 184.6 122.45 171.35 133.65 154.5 138.95 120.95 146.4 92.1 131.25 88.85 129.5 86.05 127.7 57.35 109.35 38.25 80.7 L36.05 79.4 35.5 78.95 31.85 73.15 Q22.45 58.6 23.0 40.7 20.9 38.0 18.55 35.85 L15.5 32.7 Q15.8 30.0 15.1 27.4 11.4 13.25 2.25 1.95 L1.0 1.65 0.0 1.6 0.0 0.0 253.2 0.0 M170.3 98.2 L171.8 95.95 Q165.95 95.95 159.8 91.2 L152.55 90.95 151.8 91.7 151.05 92.45 Q143.45 95.8 137.05 101.45 L134.55 101.6 134.55 101.45 133.7 100.25 Q132.45 98.7 130.55 97.95 L130.45 96.45 130.3 95.7 Q129.1 94.7 128.4 93.4 L126.8 91.2 123.55 90.95 Q106.35 94.2 97.75 108.7 108.9 99.15 122.8 97.95 123.2 99.2 124.05 100.15 L125.55 101.7 125.75 103.2 125.8 103.95 128.25 105.5 Q129.4 106.35 129.8 107.7 L134.05 107.7 Q140.25 101.95 147.8 98.95 L148.55 98.2 149.3 97.45 155.55 97.7 Q161.55 102.75 168.8 100.45 L170.3 98.2 M179.8 39.45 L180.8 37.95 182.8 34.95 Q174.5 32.95 164.3 35.7 L163.75 35.35 Q161.9 34.8 160.8 33.2 L158.55 32.95 Q151.35 34.95 144.05 37.45 L143.05 38.95 Q142.05 40.4 141.3 41.95 139.8 44.55 145.05 42.7 L155.8 39.2 Q167.0 43.95 179.8 39.45 M89.25 47.7 L88.5 46.95 87.75 46.2 Q81.5 46.55 75.5 48.7 L75.05 47.15 Q74.25 44.0 72.5 41.2 L70.5 40.95 Q62.8 44.15 55.0 48.45 L54.0 49.9 Q51.7 53.1 50.75 56.7 L51.45 56.45 53.75 53.7 Q58.25 52.35 61.5 49.2 65.35 47.5 68.0 47.7 L68.4 48.45 Q69.8 53.55 72.75 56.95 76.6 52.55 83.0 52.2 L83.75 52.95 84.5 53.7 87.75 53.45 88.75 51.95 90.75 48.95 89.25 47.7" fill="#002550" fill-rule="evenodd" stroke="none"/>
    <path d="M179.8 39.45 Q167.0 43.95 155.8 39.2 L145.05 42.7 Q139.8 44.55 141.3 41.95 142.05 40.4 143.05 38.95 L144.05 37.45 Q151.35 34.95 158.55 32.95 L160.8 33.2 Q161.9 34.8 163.75 35.35 L164.3 35.7 Q174.5 32.95 182.8 34.95 L180.8 37.95 179.8 39.45 M170.3 98.2 L168.8 100.45 Q161.55 102.75 155.55 97.7 L149.3 97.45 148.55 98.2 147.8 98.95 Q140.25 101.95 134.05 107.7 L129.8 107.7 Q129.4 106.35 128.25 105.5 L125.8 103.95 125.75 103.2 125.55 101.7 124.05 100.15 Q123.2 99.2 122.8 97.95 108.9 99.15 97.75 108.7 106.35 94.2 123.55 90.95 L126.8 91.2 128.4 93.4 Q129.1 94.7 130.3 95.7 L130.45 96.45 130.55 97.95 Q132.45 98.7 133.7 100.25 L134.55 101.45 134.55 101.6 137.05 101.45 Q143.45 95.8 151.05 92.45 L151.8 91.7 152.55 90.95 159.8 91.2 Q165.95 95.95 171.8 95.95 L170.3 98.2 M89.25 47.7 L90.75 48.95 88.75 51.95 87.75 53.45 84.5 53.7 83.75 52.95 83.0 52.2 Q76.6 52.55 72.75 56.95 69.8 53.55 68.4 48.45 L68.0 47.7 Q65.35 47.5 61.5 49.2 58.25 52.35 53.75 53.7 L51.45 56.45 50.75 56.7 Q51.7 53.1 54.0 49.9 L55.0 48.45 Q62.8 44.15 70.5 40.95 L72.5 41.2 Q74.25 44.0 75.05 47.15 L75.5 48.7 Q81.5 46.55 87.75 46.2 L88.5 46.95 89.25 47.7" fill="#005075" fill-rule="evenodd" stroke="none"/>
    <path d="M191.55 121.6 Q192.35 123.8 194.9 124.05 201.85 124.8 207.75 123.85 208.1 122.65 209.0 121.8 L209.5 121.75 Q210.7 121.6 211.25 122.7 L211.1 123.1 Q209.5 127.25 208.8 131.7 208.6 132.95 207.75 133.95 208.05 140.35 205.65 146.1 205.15 147.35 205.85 148.55 208.4 143.7 210.35 137.85 210.75 136.7 210.75 135.45 L211.1 135.05 211.5 134.7 Q212.15 128.4 213.55 122.35 L214.15 119.9 Q214.55 118.45 216.0 118.2 L219.1 118.6 219.5 118.8 219.3 119.55 Q217.25 127.5 219.95 135.8 220.35 137.05 220.1 138.3 L219.95 138.65 219.25 139.45 219.15 142.05 Q219.05 143.45 219.5 144.7 224.45 143.15 228.75 139.7 L228.8 139.35 Q229.05 138.3 230.25 137.8 L231.85 134.2 Q232.35 132.9 232.25 131.45 L233.35 130.6 235.25 128.95 236.0 128.8 238.1 128.95 Q242.85 142.0 242.2 155.55 L242.1 157.8 241.95 158.15 240.25 159.95 Q236.4 160.0 232.75 157.95 230.1 154.45 225.75 154.45 222.95 156.35 220.0 157.7 218.2 162.8 218.6 168.6 L218.75 171.55 Q217.5 173.25 217.2 175.3 L216.75 177.95 Q216.7 178.65 217.3 179.1 218.3 179.85 218.75 180.95 228.85 184.15 234.25 192.7 236.8 194.9 236.75 198.3 L236.75 200.55 Q238.9 199.7 240.3 197.7 L241.1 196.45 241.2 196.05 241.25 194.95 241.25 194.55 242.6 192.7 Q243.15 191.65 243.25 190.45 L247.8 184.5 249.0 183.3 Q258.6 186.0 263.75 194.7 L264.3 195.1 265.0 195.8 265.2 196.2 265.25 196.55 265.25 196.95 Q269.1 200.25 273.25 203.2 268.0 208.85 259.2 210.9 258.0 211.15 257.25 212.05 257.45 213.3 257.1 214.4 256.7 215.8 255.75 216.95 L255.75 217.3 255.55 218.45 255.45 218.7 255.1 218.5 254.5 218.2 Q253.65 218.7 253.45 219.4 L251.25 218.95 Q245.35 215.9 241.75 210.45 L233.35 210.95 232.85 211.35 232.0 212.05 Q228.25 220.35 222.75 227.75 L222.25 228.2 222.2 228.55 Q221.95 229.4 221.25 229.95 213.85 229.6 207.35 224.75 L204.7 222.75 204.75 222.2 Q204.0 221.85 203.3 221.65 197.3 216.95 191.55 211.85 189.45 210.0 186.7 209.0 184.1 208.0 182.85 205.55 172.65 198.7 174.7 185.8 L174.75 185.05 175.45 184.3 Q176.3 183.3 176.75 182.05 174.35 179.9 172.85 177.35 L171.85 176.05 171.6 175.4 171.25 174.4 170.95 173.8 Q170.45 173.55 170.3 173.15 170.1 172.5 171.1 171.4 171.25 171.25 171.5 171.2 L171.9 171.3 172.25 170.7 172.7 165.45 Q172.85 155.25 172.05 145.2 177.5 142.8 182.75 139.7 L183.8 137.35 Q186.05 131.15 189.1 125.35 L189.75 124.7 190.15 123.9 191.55 121.6 M127.55 238.25 Q130.55 245.05 127.9 253.1 L127.65 253.5 Q126.3 254.15 125.8 252.75 126.6 245.9 126.9 238.9 126.95 238.35 127.55 238.25 M139.3 239.9 L139.35 239.55 Q139.75 238.8 140.55 238.8 L140.55 238.75 142.55 238.85 143.15 239.0 Q145.75 242.1 146.75 246.05 146.95 246.95 146.8 248.0 L147.2 248.4 Q147.7 248.8 147.75 249.5 L147.8 249.9 147.75 250.25 Q147.4 251.05 146.55 251.25 L145.5 250.55 144.3 249.5 Q144.05 246.5 143.1 243.8 142.75 242.65 141.9 241.65 L139.85 240.85 Q139.2 240.6 139.3 239.9 M103.8 240.5 Q108.4 235.5 115.05 233.25 118.3 236.15 113.05 239.9 L112.55 240.25 111.95 242.1 111.65 242.5 Q110.3 243.15 109.8 241.75 L109.9 239.9 Q109.95 239.5 110.15 239.15 108.0 238.85 105.05 242.25 103.75 242.1 103.8 240.9 L103.8 240.5 M84.5 287.85 L85.0 287.7 103.15 301.95 103.25 302.2 Q102.85 303.0 102.0 303.15 L101.5 303.2 Q91.15 297.8 83.75 288.8 83.75 288.1 84.5 287.85 M123.5 321.2 Q125.9 322.4 127.1 324.75 L127.5 325.2 Q128.15 329.5 129.55 333.45 L129.75 334.95 Q141.85 338.2 148.6 347.95 148.25 348.65 147.5 348.7 L147.0 348.7 Q144.6 347.6 143.25 345.45 136.85 339.65 128.45 336.7 127.9 336.5 127.25 335.8 125.95 332.25 125.15 328.4 125.05 327.75 125.25 326.8 L124.75 326.45 124.35 326.05 Q122.55 323.75 123.05 321.65 123.15 321.3 123.5 321.2 M105.5 305.7 Q107.0 306.1 106.6 307.45 103.2 310.1 98.75 308.95 95.1 306.2 91.25 303.9 90.65 303.55 90.75 302.8 90.75 302.1 91.5 301.85 L92.0 301.7 Q95.8 303.5 99.35 306.1 L99.75 306.45 103.1 306.45 Q104.1 305.45 105.5 305.7 M116.0 316.7 Q110.65 314.5 113.0 311.7 116.0 312.95 117.6 315.65 L117.6 315.95 Q117.3 316.65 116.5 316.7 L116.0 316.7 M121.0 333.35 L121.25 333.7 121.25 340.05 121.25 341.2 Q119.65 344.15 116.35 344.8 115.5 345.55 115.5 346.7 L115.25 347.45 Q113.8 349.0 112.75 347.2 112.85 344.9 114.25 343.05 L114.5 342.7 118.5 340.7 118.75 331.3 119.0 331.2 119.6 331.5 120.1 331.8 121.0 333.35" fill="#688890" fill-rule="evenodd" stroke="none"/>
    <path d="M98.9 146.95 Q101.65 148.1 104.55 149.1 L104.55 152.2 104.5 155.2 Q101.45 158.5 100.2 162.7 L99.75 164.2 100.5 165.7 101.25 167.2 Q113.5 170.65 120.8 181.85 123.25 180.9 124.5 183.45 124.1 184.9 125.2 185.75 L126.5 186.95 Q131.4 188.9 136.5 189.95 147.6 183.75 160.5 182.7 159.2 175.9 164.0 171.45 L167.0 168.45 Q167.85 161.15 167.6 153.45 L167.5 148.2 166.9 147.35 172.05 145.2 Q172.85 155.25 172.7 165.45 L172.25 170.7 171.9 171.3 171.5 171.2 Q171.25 171.25 171.1 171.4 170.1 172.5 170.3 173.15 L168.95 174.1 167.75 174.7 Q167.35 175.9 166.45 176.9 L165.75 177.7 Q165.3 179.5 165.4 181.45 L165.5 184.45 Q163.55 187.25 160.55 189.05 L159.75 189.7 Q147.55 188.75 138.0 195.2 127.8 195.5 120.2 188.65 117.45 192.8 112.0 195.2 106.45 195.3 101.3 196.95 L101.0 196.7 100.5 196.85 Q99.95 197.05 99.8 197.45 L98.5 197.95 Q96.1 200.35 93.55 201.95 97.35 202.9 100.65 205.3 L101.25 205.95 Q103.35 219.8 89.2 223.3 L83.5 224.95 Q80.55 228.6 76.6 231.5 73.85 233.6 71.5 235.95 L71.2 237.35 Q70.85 238.2 70.05 238.5 L67.5 238.95 66.7 237.35 66.5 235.95 66.5 232.95 Q80.55 219.9 96.15 210.65 96.5 210.45 96.5 209.7 93.55 207.85 89.6 206.6 L89.55 206.7 89.5 207.45 Q78.05 214.4 67.25 222.95 L63.5 223.95 Q60.65 229.65 55.0 231.45 52.0 230.9 52.5 227.95 53.6 226.6 55.05 225.75 L56.25 225.2 Q67.6 212.55 84.0 205.45 L84.0 204.95 Q76.85 205.25 68.65 200.35 65.5 198.45 61.5 198.6 55.0 198.9 50.75 196.65 52.9 203.45 51.1 211.95 49.1 221.45 49.75 231.2 L53.0 233.7 Q53.75 234.65 53.75 235.95 L54.0 237.45 Q61.65 240.95 64.55 247.75 L74.85 256.85 79.75 261.45 80.4 260.85 Q81.8 259.3 82.4 257.15 L82.75 255.7 83.45 254.9 Q85.5 252.7 85.5 249.7 L85.5 248.2 87.45 245.9 Q90.15 243.3 93.5 241.45 94.7 240.6 95.05 239.3 95.95 235.75 95.75 231.7 99.7 228.85 103.95 226.55 107.1 224.85 110.0 222.7 L111.0 222.6 Q115.6 222.75 119.0 221.45 129.05 219.55 134.95 227.45 L135.25 227.95 135.5 228.1 144.25 229.95 Q150.8 235.6 154.1 243.4 156.7 249.55 157.75 256.2 159.3 257.4 159.8 259.1 161.0 263.15 163.6 266.6 L164.0 266.95 Q197.7 256.4 222.85 282.4 224.1 283.7 227.0 283.4 256.6 280.65 283.6 270.4 291.85 267.3 300.0 265.05 L300.0 271.75 Q259.65 288.6 216.1 285.5 212.2 285.25 209.2 281.7 197.8 268.35 180.5 267.95 170.95 272.5 160.5 271.95 159.35 269.9 157.8 268.15 155.1 265.15 154.45 261.45 L154.25 260.7 153.5 259.95 152.75 259.2 Q151.8 253.55 149.8 248.1 147.25 240.95 142.0 235.2 138.25 235.25 135.15 233.95 137.45 241.15 139.55 249.4 140.1 251.45 141.5 253.45 141.0 266.05 128.5 271.95 L128.3 275.65 128.0 277.2 Q120.3 281.8 112.5 283.95 110.35 285.15 108.75 283.2 108.3 281.75 108.5 280.2 L108.75 278.7 Q116.6 276.25 123.5 273.2 L123.5 270.95 123.5 269.45 Q128.2 263.7 135.0 260.45 L136.05 257.45 136.5 256.7 Q134.35 252.75 131.75 249.2 130.35 240.25 132.75 232.7 L131.0 231.45 Q127.6 233.4 125.0 236.45 L124.6 237.95 124.5 239.45 Q122.1 243.35 120.25 247.7 L120.0 248.45 Q110.6 251.85 106.0 259.45 99.95 266.2 93.0 271.45 90.0 270.9 90.5 267.95 91.65 264.6 95.25 263.2 101.45 252.6 112.5 247.45 117.1 242.5 119.35 236.15 L119.75 234.7 Q123.3 230.55 127.2 227.7 119.55 226.1 111.5 227.95 111.1 228.3 110.95 228.75 110.4 230.05 109.25 230.95 L106.3 232.05 Q103.4 233.25 100.75 234.7 101.15 240.15 97.2 243.55 93.35 246.85 90.5 251.2 90.85 254.0 89.45 256.4 87.1 260.35 85.25 264.7 L85.0 265.45 84.45 265.9 Q80.75 268.4 76.5 266.95 72.2 260.7 66.0 256.45 62.3 253.9 60.95 250.35 56.85 245.95 52.1 242.55 L48.35 237.95 48.25 236.7 45.95 234.9 44.7 233.3 Q43.2 213.2 47.8 194.55 45.75 192.6 44.5 189.7 44.75 187.7 47.0 187.7 L48.25 187.95 Q68.25 195.45 89.5 198.95 93.15 196.75 95.5 192.95 107.0 191.7 115.75 185.45 114.4 181.4 110.55 179.75 L109.75 179.2 Q109.6 177.55 108.9 176.1 L108.5 174.95 Q103.7 173.4 98.5 172.95 L95.15 167.75 94.5 166.95 Q93.8 160.2 97.7 155.1 98.35 154.2 99.25 153.45 99.65 151.6 99.55 149.7 L99.5 147.45 98.9 146.95 M85.0 292.45 Q89.4 301.55 84.3 312.85 L84.0 313.2 Q80.8 314.3 79.5 311.45 81.05 301.65 84.4 292.85 84.5 292.55 85.0 292.45 M40.25 264.2 Q41.65 261.55 44.1 259.85 L45.0 259.45 Q49.7 259.85 47.45 263.5 L46.5 264.45 46.1 265.9 45.75 266.7 Q39.55 271.75 33.5 273.95 32.3 273.1 32.4 271.7 L32.5 270.2 Q35.45 265.95 40.25 264.2 M34.0 288.45 Q37.95 289.75 39.8 294.15 L40.25 294.95 Q40.65 297.5 40.45 300.2 L40.25 301.7 37.15 305.65 Q36.75 306.2 36.0 306.45 32.75 305.6 33.4 302.2 L33.5 301.45 Q33.95 299.95 35.3 298.95 L35.5 298.45 Q30.65 293.35 33.3 288.9 L34.0 288.45 M74.2 293.75 L75.95 292.6 76.0 292.45 Q80.65 297.45 76.25 307.95 75.1 310.6 73.25 313.2 70.2 315.85 68.5 312.45 69.3 305.55 71.15 298.9 L71.7 296.95 71.75 296.7 Q72.75 294.9 74.2 293.75 M89.45 345.5 L92.6 343.05 92.8 342.7 Q93.85 341.0 96.0 340.55 L96.3 340.15 97.1 339.05 99.95 337.65 Q101.7 336.65 103.5 336.2 106.8 334.95 108.95 336.85 L109.25 337.2 Q107.7 339.65 104.85 341.4 103.45 342.3 102.1 343.45 L101.95 343.85 Q101.7 345.9 100.55 347.5 L100.1 347.95 99.5 348.1 Q98.5 348.1 98.25 347.2 98.6 345.25 99.2 343.45 99.95 341.15 102.1 339.7 96.7 342.5 92.15 346.95 L89.5 349.2 88.85 348.85 Q87.95 348.0 88.25 346.7 L88.35 346.3 89.45 345.5" fill="#b0c0d0" fill-rule="evenodd" stroke="none"/>
    <path d="M0.0 7.45 L1.25 8.7 2.0 9.45 Q3.2 12.45 4.7 15.35 9.65 25.05 10.5 35.7 12.3 37.35 13.55 39.4 L14.5 40.95 Q16.25 41.4 17.45 42.75 L18.0 43.45 Q18.85 47.0 19.0 50.9 19.45 62.95 23.75 74.2 L27.15 78.05 Q33.1 92.3 44.75 104.2 56.15 119.25 70.5 129.95 L74.25 130.7 Q76.75 133.7 80.0 135.45 88.55 142.55 98.9 146.95 L99.5 147.45 99.55 149.7 Q99.65 151.6 99.25 153.45 98.35 154.2 97.7 155.1 93.8 160.2 94.5 166.95 L95.15 167.75 98.5 172.95 Q103.7 173.4 108.5 174.95 L108.9 176.1 Q109.6 177.55 109.75 179.2 L110.55 179.75 Q114.4 181.4 115.75 185.45 107.0 191.7 95.5 192.95 93.15 196.75 89.5 198.95 68.25 195.45 48.25 187.95 L47.0 187.7 Q44.75 187.7 44.5 189.7 45.75 192.6 47.8 194.55 43.2 213.2 44.7 233.3 L36.5 221.95 Q36.5 221.55 36.65 221.35 38.55 219.2 39.75 216.7 42.45 215.9 44.25 213.95 L44.35 212.45 Q44.1 207.6 41.75 203.45 L41.75 202.4 Q41.2 192.45 37.25 183.7 L35.1 182.3 34.5 181.7 34.4 177.95 Q34.15 173.2 35.5 168.95 L36.9 167.35 37.25 166.7 Q37.65 164.5 37.65 162.2 37.65 156.15 37.25 150.2 36.05 148.85 35.45 147.1 34.6 144.7 33.25 142.7 L31.05 141.35 30.5 140.95 28.05 136.4 Q22.6 125.9 22.25 113.95 L20.65 112.3 Q20.5 112.05 20.5 111.7 20.5 109.8 20.85 108.0 22.8 97.9 18.0 88.45 13.95 82.55 15.9 75.35 20.65 57.95 11.0 45.7 L9.8 41.8 Q7.7 36.35 6.0 30.7 L5.2 30.05 Q2.75 28.35 0.0 27.75 L0.0 7.45 M104.55 149.1 Q110.95 151.25 118.0 152.45 L118.75 153.2 119.5 153.95 Q144.85 155.8 166.9 147.35 L167.5 148.2 167.6 153.45 Q167.85 161.15 167.0 168.45 L164.0 171.45 Q159.2 175.9 160.5 182.7 147.6 183.75 136.5 189.95 131.4 188.9 126.5 186.95 L125.2 185.75 Q124.1 184.9 124.5 183.45 123.25 180.9 120.8 181.85 113.5 170.65 101.25 167.2 L100.5 165.7 99.75 164.2 100.2 162.7 Q101.45 158.5 104.5 155.2 L104.55 152.2 104.55 149.1 M55.5 135.8 Q53.65 134.3 51.25 133.95 40.25 128.1 33.75 117.05 L33.8 116.7 Q34.15 114.85 32.5 114.2 31.75 114.25 31.9 114.9 35.25 127.55 47.25 134.95 L49.1 135.3 Q50.75 136.75 52.85 137.05 L53.3 138.6 Q53.5 144.35 50.25 149.05 L50.25 149.8 Q50.15 151.7 50.35 153.55 51.3 154.3 52.5 154.7 L53.2 154.35 53.75 153.45 53.65 153.1 Q53.05 152.0 52.75 150.8 L53.8 148.6 Q57.3 142.4 55.5 135.8 M69.25 170.7 Q70.0 170.35 70.55 169.7 76.45 162.3 83.85 156.8 86.9 153.8 90.85 151.8 L91.05 151.45 Q91.45 149.7 89.5 149.7 L89.45 149.75 Q85.35 151.75 82.0 154.95 80.5 155.65 79.25 156.75 70.75 164.5 64.35 173.8 L64.05 174.9 Q63.45 176.75 63.25 178.7 64.3 180.5 65.75 178.95 L66.1 178.15 66.75 175.2 67.6 174.45 67.85 173.75 69.25 170.7 M62.0 167.7 Q61.75 167.75 61.6 167.9 L59.25 170.45 59.25 170.8 59.2 171.2 59.1 171.55 58.75 171.95 Q57.75 173.1 57.6 174.55 L57.3 175.0 52.75 182.45 52.6 183.15 Q52.0 184.5 52.25 186.2 52.7 187.45 54.0 187.05 L54.3 186.65 Q54.9 183.15 57.5 180.7 L57.75 179.95 Q58.45 177.6 60.1 175.8 60.25 175.05 60.65 174.6 64.8 170.2 62.0 167.7 M116.0 156.7 L115.7 156.85 Q114.8 161.2 115.1 166.45 113.45 168.1 113.25 170.2 114.45 172.05 117.0 171.05 L117.35 170.8 Q117.8 170.35 117.75 169.7 116.6 168.65 117.75 167.45 L117.75 167.05 Q118.7 161.05 116.0 156.7 M74.75 183.8 L75.0 183.45 Q80.8 173.9 89.0 166.2 L89.1 165.8 Q89.65 164.2 88.0 163.7 L87.95 163.8 Q76.8 172.7 72.25 185.7 72.75 187.1 74.1 186.45 L74.4 186.05 Q74.9 185.05 74.75 183.8 M141.5 157.7 Q141.25 157.75 141.1 157.9 139.4 160.1 139.1 163.05 L138.75 163.45 Q133.75 169.15 132.75 176.2 133.15 177.45 134.5 177.05 L134.85 176.65 Q135.4 175.25 135.25 173.7 L138.6 169.7 Q143.7 163.4 141.5 157.7 M149.5 164.05 Q152.7 160.55 154.75 156.2 L154.75 155.85 Q155.05 154.2 153.5 153.7 L153.45 153.8 Q151.75 155.0 150.75 157.45 150.65 159.2 149.25 160.45 147.7 161.75 147.45 163.55 147.0 167.1 145.7 170.3 142.05 179.25 133.75 183.2 L134.15 183.55 Q149.55 180.1 149.5 164.05 M96.5 179.7 Q89.85 180.3 85.2 185.05 81.6 188.75 80.75 193.7 81.0 194.6 82.0 194.6 L82.6 194.45 Q83.5 192.25 84.7 190.2 90.45 180.15 102.25 183.2 102.95 184.75 104.3 183.75 L104.6 183.45 104.65 183.1 Q103.45 177.6 96.5 179.7" fill="#a0b0b8" fill-rule="evenodd" stroke="none"/>
    <path d="M16.7 169.1 L18.15 173.0 18.25 173.7 Q17.55 175.05 16.25 174.45 L15.2 172.5 13.25 168.8 Q12.3 165.4 13.05 162.55 13.1 162.3 13.5 162.2 15.7 163.95 15.75 166.95 L15.75 167.3 16.7 169.1 M14.15 175.45 L14.6 175.95 Q14.9 176.9 14.7 177.85 14.55 178.4 14.0 178.55 L13.4 178.3 Q11.5 177.45 10.35 175.05 10.3 174.25 9.85 173.6 L9.25 172.8 Q9.3 170.85 7.75 169.45 L7.0 168.7 Q6.15 167.2 6.75 165.8 7.0 165.25 7.5 165.2 8.8 165.8 9.65 166.9 L10.0 167.3 Q10.5 169.1 11.6 170.8 L11.75 171.45 12.1 171.8 12.5 172.2 Q12.75 173.95 13.95 175.2 L14.15 175.45 M12.6 134.95 Q11.95 136.1 10.75 135.45 8.05 133.1 10.45 131.8 L10.5 131.7 Q12.8 132.1 12.7 134.55 L12.6 134.95 M6.0 140.2 Q9.4 142.45 10.15 146.45 L10.1 146.8 Q10.05 147.4 9.5 147.45 L8.25 147.45 Q4.9 143.8 5.7 140.4 5.75 140.25 6.0 140.2 M16.0 147.65 L15.6 148.45 Q14.25 149.1 13.75 147.7 11.5 143.25 12.5 140.8 L12.5 140.7 13.6 141.05 14.1 141.3 Q16.4 144.15 16.0 147.65 M16.85 154.6 L17.1 154.95 Q18.4 157.65 18.55 160.6 L18.35 161.3 Q16.9 163.05 15.85 161.15 L15.75 160.8 Q16.1 158.0 14.0 155.2 L13.75 154.8 Q13.45 153.2 14.45 152.15 14.75 151.85 15.0 151.7 16.4 152.05 16.25 153.45 L16.25 153.8 16.85 154.6 M62.0 167.7 Q64.8 170.2 60.65 174.6 60.25 175.05 60.1 175.8 58.45 177.6 57.75 179.95 L57.5 180.7 Q54.9 183.15 54.3 186.65 L54.0 187.05 Q52.7 187.45 52.25 186.2 52.0 184.5 52.6 183.15 L52.75 182.45 57.3 175.0 57.6 174.55 Q57.75 173.1 58.75 171.95 L59.1 171.55 59.2 171.2 59.25 170.8 59.25 170.45 61.6 167.9 Q61.75 167.75 62.0 167.7 M10.0 239.7 Q12.0 241.7 11.3 245.2 L11.25 245.55 Q10.55 246.6 10.1 247.8 L10.0 248.2 Q7.65 250.0 6.5 252.7 L6.0 253.05 5.35 253.3 4.75 254.45 4.35 254.8 3.35 260.05 3.1 260.45 Q1.75 261.1 1.25 259.7 1.0 257.1 1.65 254.8 L1.75 254.05 Q2.65 253.3 2.8 252.2 L2.85 251.8 Q3.55 250.9 4.6 250.55 8.8 245.75 9.75 239.85 L10.0 239.7" fill="#005050" fill-rule="evenodd" stroke="none"/>
    <path d="M32.5 163.7 Q30.9 165.7 30.35 168.2 28.55 176.6 30.0 185.45 30.75 186.2 31.65 186.55 33.2 187.25 34.25 188.7 L35.1 192.3 Q36.6 198.1 36.5 204.45 L36.8 205.15 37.0 205.4 Q36.9 207.7 38.75 210.45 34.6 214.45 31.5 218.7 L31.5 220.95 31.5 226.95 Q36.6 232.5 42.25 236.95 48.35 247.1 56.2 256.1 L52.5 255.95 Q50.2 254.2 48.85 251.5 47.8 249.55 46.25 247.95 L43.6 246.8 Q36.65 242.95 30.25 237.95 26.6 237.65 23.25 236.45 22.5 235.3 22.1 234.1 20.25 227.7 15.4 225.45 19.85 223.35 20.5 216.7 22.3 215.7 25.0 214.45 L25.2 212.95 Q25.1 210.15 26.25 207.7 30.35 207.35 33.25 204.95 L33.5 203.45 Q33.8 201.4 33.0 199.7 L26.0 195.45 Q19.0 196.65 12.5 194.95 16.75 190.4 19.5 185.45 18.45 182.5 16.5 180.2 29.95 169.15 27.95 151.65 L26.95 144.2 Q30.1 148.4 32.5 153.2 L32.5 157.7 32.5 163.7" fill="#182020" fill-rule="evenodd" stroke="none"/>
    <path d="M166.4 350.0 L164.65 348.5 Q154.6 338.95 142.5 332.95 137.05 327.65 131.85 321.5 L112.25 298.7 111.2 298.05 108.5 296.95 Q96.55 282.4 78.5 277.7 L78.5 276.25 Q100.25 282.3 117.5 296.95 122.5 297.55 126.9 295.95 129.25 297.3 131.5 297.7 L131.5 298.45 131.7 303.65 132.0 304.45 Q133.7 306.5 136.4 307.2 137.35 307.45 138.25 307.95 L140.7 313.85 142.5 319.95 145.65 322.75 Q146.25 323.2 147.0 323.45 L149.6 327.85 153.5 333.95 Q156.05 334.85 158.0 336.95 158.85 337.8 160.0 338.45 160.7 340.55 162.4 342.0 L167.0 345.45 Q167.85 348.1 169.6 350.0 L166.4 350.0" fill="#283040" fill-rule="evenodd" stroke="none"/>
    <path d="M253.45 219.4 Q253.65 218.7 254.5 218.2 L255.1 218.5 255.45 218.7 255.6 218.8 Q261.9 226.55 264.05 235.85 264.65 238.55 265.6 241.0 267.9 246.95 274.2 248.5 280.1 249.95 284.25 246.45 292.65 247.35 300.0 250.75 L300.0 253.95 Q294.6 252.65 289.55 250.05 287.6 249.05 285.25 248.95 270.35 255.45 263.1 241.95 262.05 239.95 261.75 237.5 260.8 228.75 254.55 222.05 253.1 220.5 253.45 219.4" fill="#607840" fill-rule="evenodd" stroke="none"/>
  </g>
</svg>
