<?xml version="1.0" encoding="UTF-8" standalone="no"?>
<svg xmlns:ffdec="https://www.free-decompiler.com/flash" xmlns:xlink="http://www.w3.org/1999/xlink" ffdec:objectType="shape" height="109.05px" width="188.85px" xmlns="http://www.w3.org/2000/svg">
  <g transform="matrix(1.0, 0.0, 0.0, 1.0, 94.4, 54.55)">
    <path d="M5.7 -54.55 Q20.05 -51.3 27.45 -38.55 L27.75 -38.2 Q72.6 -37.2 92.85 -3.75 96.95 3.05 90.6 7.6 85.1 11.5 77.85 12.4 75.45 12.7 73.65 13.85 74.0 25.0 63.6 31.75 57.9 35.4 52.15 36.4 55.2 50.5 38.05 53.4 4.4 59.1 -11.3 35.5 -39.8 44.1 -61.75 28.35 -69.7 22.7 -67.75 14.0 -96.55 1.75 -94.25 -24.0 -93.95 -27.45 -90.35 -29.4 -72.0 -39.35 -53.7 -33.35 -50.45 -35.95 -44.95 -37.1 L-31.8 -37.5 Q-19.2 -51.1 2.95 -54.15 L5.7 -54.55" fill="url(#gradient0)" fill-rule="evenodd" stroke="none"/>
  </g>
  <defs>
    <radialGradient cx="0" cy="0" gradientTransform="matrix(0.0, 0.0723, -0.1153, 0.0, 0.0, 0.0)" gradientUnits="userSpaceOnUse" id="gradient0" r="819.2" spreadMethod="pad">
      <stop offset="0.0" stop-color="#ffffff" stop-opacity="0.8"/>
      <stop offset="1.0" stop-color="#ffffff" stop-opacity="0.0"/>
    </radialGradient>
  </defs>
</svg>
