<?xml version="1.0" encoding="UTF-8" standalone="no"?>
<svg xmlns:ffdec="https://www.free-decompiler.com/flash" xmlns:xlink="http://www.w3.org/1999/xlink" ffdec:objectType="shape" height="44.0px" width="84.0px" xmlns="http://www.w3.org/2000/svg">
  <g transform="matrix(1.0, 0.0, 0.0, 1.0, 42.0, 22.0)">
    <path d="M37.85 -3.4 Q43.65 1.65 41.35 8.7 30.25 15.3 17.7 13.5 1.9 29.25 -17.1 15.75 -40.0 19.2 -41.95 -0.95 -42.15 -3.15 -41.5 -5.4 -31.85 -22.15 -11.75 -19.0 L-10.8 -18.2 -9.15 -16.85 -7.7 -15.95 Q-5.4 -16.65 -3.05 -18.0 2.1 -21.05 7.8 -21.5 18.6 -23.5 27.1 -17.7 L28.1 -16.95 Q31.2 -9.15 37.85 -3.4" fill="url(#gradient0)" fill-rule="evenodd" stroke="none"/>
  </g>
  <defs>
    <radialGradient cx="0" cy="0" gradientTransform="matrix(0.0, 0.0259, -0.0514, 0.0, 0.0, 0.0)" gradientUnits="userSpaceOnUse" id="gradient0" r="819.2" spreadMethod="pad">
      <stop offset="0.0" stop-color="#ffffff" stop-opacity="0.6"/>
      <stop offset="1.0" stop-color="#ffffff" stop-opacity="0.0"/>
    </radialGradient>
  </defs>
</svg>
