<?xml version="1.0" encoding="UTF-8" standalone="no"?>
<svg xmlns:ffdec="https://www.free-decompiler.com/flash" xmlns:xlink="http://www.w3.org/1999/xlink" ffdec:objectType="shape" height="69.95px" width="149.9px" xmlns="http://www.w3.org/2000/svg">
  <g transform="matrix(1.0, 0.0, 0.0, 1.0, 75.05, 34.95)">
    <path d="M38.6 -22.3 Q41.85 -19.55 43.2 -15.55 43.75 -13.8 43.6 -11.9 56.0 -4.3 68.1 3.5 L72.0 6.3 Q73.45 7.5 74.6 9.0 76.7 22.8 59.7 23.75 46.1 24.5 34.45 23.15 L33.95 23.9 Q32.4 26.05 31.15 28.35 30.5 29.65 29.45 30.6 L28.7 30.9 Q25.15 31.45 22.3 33.35 7.9 37.7 -3.8 30.55 -6.4 28.95 -7.75 26.4 -22.5 30.2 -38.25 28.1 -39.15 27.35 -40.1 26.8 -44.8 23.7 -46.85 18.4 L-47.2 16.95 Q-59.65 15.85 -68.8 7.25 L-71.8 4.75 Q-72.35 2.0 -73.25 -0.6 -74.75 -5.25 -75.0 -10.15 L-75.0 -11.65 -74.9 -15.4 -74.8 -16.1 -74.4 -16.75 -73.0 -18.3 -72.05 -19.1 Q-62.65 -20.85 -53.9 -20.35 -52.5 -24.9 -48.9 -27.65 -42.75 -32.5 -35.55 -34.5 -21.1 -36.9 -11.15 -26.6 L-10.45 -26.05 Q5.7 -34.85 24.75 -31.05 32.15 -27.65 38.6 -22.3" fill="url(#gradient0)" fill-rule="evenodd" stroke="none"/>
  </g>
  <defs>
    <radialGradient cx="0" cy="0" gradientTransform="matrix(-0.012, 0.0448, -0.0902, -0.0242, -0.1, 0.0)" gradientUnits="userSpaceOnUse" id="gradient0" r="819.2" spreadMethod="pad">
      <stop offset="0.0" stop-color="#ffffff" stop-opacity="0.7019608"/>
      <stop offset="1.0" stop-color="#ffffff" stop-opacity="0.0"/>
    </radialGradient>
  </defs>
</svg>
