<?xml version="1.0" encoding="UTF-8" standalone="no"?>
<svg xmlns:ffdec="https://www.free-decompiler.com/flash" xmlns:xlink="http://www.w3.org/1999/xlink" ffdec:objectType="shape" height="35.95px" width="50.0px" xmlns="http://www.w3.org/2000/svg">
  <g transform="matrix(1.0, 0.0, 0.0, 1.0, 25.0, 17.95)">
    <path d="M20.0 -8.55 Q24.65 -4.4 24.95 1.85 25.4 10.7 18.05 14.8 13.95 16.35 9.4 15.35 L6.95 14.8 Q-12.75 24.45 -24.0 5.2 L-24.65 4.4 -24.75 3.65 -25.0 -1.6 -24.65 -3.8 -24.05 -4.45 Q-21.85 -6.25 -19.15 -7.55 -15.4 -12.45 -9.65 -15.7 -6.95 -17.25 -4.4 -17.95 L3.45 -17.75 5.2 -17.45 6.1 -16.65 Q8.5 -14.15 9.5 -10.75 L9.9 -10.0 Q10.25 -9.65 10.7 -9.6 L20.0 -8.55" fill="url(#gradient0)" fill-rule="evenodd" stroke="none"/>
  </g>
  <defs>
    <radialGradient cx="0" cy="0" gradientTransform="matrix(0.0, 0.0244, -0.0315, 0.0, 0.0, 0.05)" gradientUnits="userSpaceOnUse" id="gradient0" r="819.2" spreadMethod="pad">
      <stop offset="0.1450980392156863" stop-color="#ffffff" stop-opacity="0.5019608"/>
      <stop offset="1.0" stop-color="#ffffff" stop-opacity="0.0"/>
    </radialGradient>
  </defs>
</svg>
