<?xml version="1.0" encoding="UTF-8" standalone="no"?>
<svg xmlns:ffdec="https://www.free-decompiler.com/flash" xmlns:xlink="http://www.w3.org/1999/xlink" ffdec:objectType="shape" height="184.25px" width="221.0px" xmlns="http://www.w3.org/2000/svg">
  <g transform="matrix(1.0, 0.0, 0.0, 1.0, 106.15, 89.5)">
    <path d="M73.1 -42.8 Q104.05 -32.5 104.15 -0.65 104.15 3.65 101.5 7.05 122.05 33.1 111.0 62.2 108.15 69.4 100.65 71.25 66.45 79.8 41.9 57.0 33.8 83.65 8.7 92.55 -1.05 96.0 -11.2 94.05 -38.0 88.9 -47.85 65.0 -80.85 71.25 -87.0 40.15 -89.65 26.9 -89.1 13.15 -111.85 0.55 -104.25 -22.95 -102.2 -29.35 -95.2 -31.1 -87.8 -32.9 -80.95 -33.45 -73.0 -63.0 -41.1 -56.3 -34.45 -54.95 -28.9 -50.6 -6.85 -80.7 30.0 -89.5 52.95 -88.3 66.45 -67.75 73.95 -56.4 73.1 -42.8" fill="url(#gradient0)" fill-rule="evenodd" stroke="none"/>
  </g>
  <defs>
    <radialGradient cx="0" cy="0" gradientTransform="matrix(0.0, 0.1186, -0.1492, 0.0, 4.4, 2.65)" gradientUnits="userSpaceOnUse" id="gradient0" r="819.2" spreadMethod="pad">
      <stop offset="0.0" stop-color="#ffffff" stop-opacity="0.8"/>
      <stop offset="1.0" stop-color="#ffffff" stop-opacity="0.0"/>
    </radialGradient>
  </defs>
</svg>
