<?xml version="1.0" encoding="UTF-8" standalone="no"?>
<svg xmlns:ffdec="https://www.free-decompiler.com/flash" xmlns:xlink="http://www.w3.org/1999/xlink" ffdec:objectType="shape" height="818.0px" width="620.2px" xmlns="http://www.w3.org/2000/svg">
  <g transform="matrix(1.0, 0.0, 0.0, 1.0, 171.75, 254.25)">
    <path d="M448.45 563.75 L-120.55 58.8 -120.55 -254.25 448.45 259.85 448.45 563.75" fill="url(#gradient0)" fill-rule="evenodd" stroke="none"/>
    <path d="M49.2 160.4 L49.2 119.6 84.6 99.1 120.0 119.5 120.0 160.3 84.6 180.8 49.2 160.4" fill="url(#gradient1)" fill-rule="evenodd" stroke="none"/>
    <path d="M33.75 84.85 L60.3 69.5 86.85 84.8 86.85 115.4 60.35 130.75 33.8 115.5 33.75 84.85" fill="url(#gradient2)" fill-rule="evenodd" stroke="none"/>
    <path d="M23.4 80.55 L23.4 57.55 43.3 46.05 63.2 57.5 63.2 80.45 43.3 92.0 23.4 80.55" fill="url(#gradient3)" fill-rule="evenodd" stroke="none"/>
    <path d="M3.3 -128.5 L15.75 -127.95 Q60.8 -124.0 93.85 -91.05 129.55 -55.25 131.2 -5.35 L131.25 -0.5 Q131.25 52.5 93.85 89.95 56.3 127.5 3.3 127.5 -49.8 127.5 -87.2 89.95 -124.75 52.5 -124.7 -0.5 -124.75 -53.55 -87.2 -91.05 -49.8 -128.5 3.3 -128.5" fill="url(#gradient4)" fill-rule="evenodd" stroke="none"/>
    <path d="M178.25 -95.65 L173.35 -104.15 -171.75 95.1 -166.9 103.6 178.25 -95.65" fill="url(#gradient5)" fill-rule="evenodd" stroke="none"/>
    <path d="M-91.8 -175.45 L-100.25 -170.6 99.0 174.55 107.45 169.65 -91.8 -175.45" fill="url(#gradient6)" fill-rule="evenodd" stroke="none"/>
    <path d="M44.25 -138.45 L37.45 -140.3 -37.05 137.8 -30.25 139.65 44.25 -138.45" fill="url(#gradient7)" fill-rule="evenodd" stroke="none"/>
    <path d="M-134.45 -41.25 L-136.3 -34.35 141.7 40.15 143.55 33.25 -134.45 -41.25" fill="url(#gradient8)" fill-rule="evenodd" stroke="none"/>
    <path d="M-80.35 -68.35 L-83.6 -64.15 87.65 67.3 90.95 63.05 -80.35 -68.35" fill="url(#gradient9)" fill-rule="evenodd" stroke="none"/>
    <path d="M-12.25 -149.1 L-19.45 -148.15 19.55 148.15 26.75 147.25 -12.25 -149.1" fill="url(#gradient10)" fill-rule="evenodd" stroke="none"/>
  </g>
  <defs>
    <radialGradient cx="0" cy="0" gradientTransform="matrix(-0.3624, -0.3145, -0.1766, 0.1459, 112.65, 260.95)" gradientUnits="userSpaceOnUse" id="gradient0" r="819.2" spreadMethod="pad">
      <stop offset="0.6862745098039216" stop-color="#ff0000" stop-opacity="0.0"/>
      <stop offset="0.7372549019607844" stop-color="#ffd700" stop-opacity="0.2"/>
      <stop offset="0.788235294117647" stop-color="#ffff66" stop-opacity="0.4"/>
      <stop offset="0.8352941176470589" stop-color="#99ff20" stop-opacity="0.5019608"/>
      <stop offset="0.8823529411764706" stop-color="#99ffff" stop-opacity="0.5019608"/>
      <stop offset="0.9215686274509803" stop-color="#6699ff" stop-opacity="0.4"/>
      <stop offset="0.9686274509803922" stop-color="#ff99ff" stop-opacity="0.4"/>
      <stop offset="1.0" stop-color="#ff9999" stop-opacity="0.0"/>
    </radialGradient>
    <radialGradient cx="0" cy="0" gradientTransform="matrix(-0.0499, 0.0, 0.0, 0.0499, 84.55, 139.95)" gradientUnits="userSpaceOnUse" id="gradient1" r="819.2" spreadMethod="pad">
      <stop offset="0.0" stop-color="#ffffff" stop-opacity="0.15294118"/>
      <stop offset="1.0" stop-color="#cccccc" stop-opacity="0.3019608"/>
    </radialGradient>
    <radialGradient cx="0" cy="0" gradientTransform="matrix(-0.0375, 0.0, 0.0, 0.0375, 60.25, 100.1)" gradientUnits="userSpaceOnUse" id="gradient2" r="819.2" spreadMethod="pad">
      <stop offset="0.0" stop-color="#ffffff" stop-opacity="0.3019608"/>
      <stop offset="1.0" stop-color="#cccccc" stop-opacity="0.5019608"/>
    </radialGradient>
    <radialGradient cx="0" cy="0" gradientTransform="matrix(-0.0281, 0.0, 0.0, 0.0281, 43.25, 69.0)" gradientUnits="userSpaceOnUse" id="gradient3" r="819.2" spreadMethod="pad">
      <stop offset="0.0" stop-color="#ffffff" stop-opacity="0.4"/>
      <stop offset="1.0" stop-color="#cccccc" stop-opacity="0.5019608"/>
    </radialGradient>
    <radialGradient cx="0" cy="0" gradientTransform="matrix(-0.1593, 0.0, 0.0, 0.1593, 3.25, -0.5)" gradientUnits="userSpaceOnUse" id="gradient4" r="819.2" spreadMethod="pad">
      <stop offset="0.09803921568627451" stop-color="#ffff99"/>
      <stop offset="0.5529411764705883" stop-color="#ffffff" stop-opacity="0.7529412"/>
      <stop offset="1.0" stop-color="#ffffff" stop-opacity="0.0"/>
    </radialGradient>
    <linearGradient gradientTransform="matrix(-0.2106, 0.1216, 0.003, 0.0052, 3.3, -0.55)" gradientUnits="userSpaceOnUse" id="gradient5" spreadMethod="pad" x1="-819.2" x2="819.2">
      <stop offset="0.0" stop-color="#ffffff" stop-opacity="0.0"/>
      <stop offset="0.4980392156862745" stop-color="#ffffff" stop-opacity="0.5019608"/>
      <stop offset="1.0" stop-color="#ffffff" stop-opacity="0.0"/>
    </linearGradient>
    <linearGradient gradientTransform="matrix(0.1216, 0.2106, 0.0052, -0.003, 3.4, -0.55)" gradientUnits="userSpaceOnUse" id="gradient6" spreadMethod="pad" x1="-819.2" x2="819.2">
      <stop offset="0.0" stop-color="#ffffff" stop-opacity="0.0"/>
      <stop offset="0.4980392156862745" stop-color="#ffffff" stop-opacity="0.5019608"/>
      <stop offset="1.0" stop-color="#ffffff" stop-opacity="0.0"/>
    </linearGradient>
    <linearGradient gradientTransform="matrix(-0.0455, 0.1697, 0.0042, 0.0011, 3.5, -0.55)" gradientUnits="userSpaceOnUse" id="gradient7" spreadMethod="pad" x1="-819.2" x2="819.2">
      <stop offset="0.0" stop-color="#ffffff" stop-opacity="0.0"/>
      <stop offset="0.4980392156862745" stop-color="#ffffff" stop-opacity="0.5019608"/>
      <stop offset="1.0" stop-color="#ffffff" stop-opacity="0.0"/>
    </linearGradient>
    <linearGradient gradientTransform="matrix(0.1697, 0.0455, 0.0011, -0.0042, 3.25, -0.25)" gradientUnits="userSpaceOnUse" id="gradient8" spreadMethod="pad" x1="-819.2" x2="819.2">
      <stop offset="0.0" stop-color="#ffffff" stop-opacity="0.0"/>
      <stop offset="0.4980392156862745" stop-color="#ffffff" stop-opacity="0.5019608"/>
      <stop offset="1.0" stop-color="#ffffff" stop-opacity="0.0"/>
    </linearGradient>
    <linearGradient gradientTransform="matrix(0.1045, 0.0802, 0.002, -0.0026, 3.35, -0.45)" gradientUnits="userSpaceOnUse" id="gradient9" spreadMethod="pad" x1="-819.2" x2="819.2">
      <stop offset="0.0" stop-color="#ffffff" stop-opacity="0.0"/>
      <stop offset="0.4980392156862745" stop-color="#ffffff" stop-opacity="0.5019608"/>
      <stop offset="1.0" stop-color="#ffffff" stop-opacity="0.0"/>
    </linearGradient>
    <linearGradient gradientTransform="matrix(0.0238, 0.1809, 0.0044, -6.0E-4, 3.5, -0.6)" gradientUnits="userSpaceOnUse" id="gradient10" spreadMethod="pad" x1="-819.2" x2="819.2">
      <stop offset="0.0" stop-color="#ffffff" stop-opacity="0.0"/>
      <stop offset="0.4980392156862745" stop-color="#ffffff" stop-opacity="0.5019608"/>
      <stop offset="1.0" stop-color="#ffffff" stop-opacity="0.0"/>
    </linearGradient>
  </defs>
</svg>
