<?xml version="1.0" encoding="UTF-8" standalone="no"?>
<svg xmlns:ffdec="https://www.free-decompiler.com/flash" xmlns:xlink="http://www.w3.org/1999/xlink" ffdec:objectType="shape" height="48.0px" width="80.5px" xmlns="http://www.w3.org/2000/svg">
  <g transform="matrix(1.0, 0.0, 0.0, 1.0, 40.25, 20.45)">
    <path d="M11.95 -13.95 Q15.7 -16.4 17.7 -19.95 17.7 -16.05 16.95 -11.4 15.3 -9.05 14.2 -6.25 L13.45 -4.1 10.7 4.7 10.9 3.05 11.55 -4.35 11.85 -9.65 11.9 -11.25 11.95 -13.95 M-16.95 -11.4 Q-17.7 -16.05 -17.7 -19.95 -15.7 -16.4 -11.95 -13.95 L-11.85 -11.25 -11.8 -9.65 -11.55 -4.35 -10.85 3.05 -10.7 4.7 -13.45 -4.1 -14.2 -6.25 Q-15.3 -9.05 -16.95 -11.4" fill="#9cb1bd" fill-rule="evenodd" stroke="none"/>
    <path d="M4.35 -12.9 L5.25 -15.6 5.95 -19.45 Q8.1 -17.6 11.5 -18.45 L11.95 -13.95 11.9 -11.25 Q9.1 -13.25 4.35 -12.9" fill="url(#gradient0)" fill-rule="evenodd" stroke="none"/>
    <path d="M-4.35 -12.9 Q-3.25 -15.85 0.2 -15.85 3.25 -15.85 4.35 -12.9 3.7 -11.4 3.5 -9.65 3.25 -7.95 3.4 -6.05 3.7 -2.2 3.5 1.55 3.55 -1.0 0.15 -1.0 -3.55 -1.0 -3.5 1.55 -3.7 -2.2 -3.4 -6.05 -3.25 -7.95 -3.45 -9.65 -3.7 -11.4 -4.35 -12.9 M-1.95 -9.9 L0.2 -9.9 1.95 -9.9 0.2 -9.9 -1.95 -9.9 M1.95 -12.9 L-0.45 -12.65 -1.95 -12.9 -0.45 -12.65 1.95 -12.9" fill="url(#gradient1)" fill-rule="evenodd" stroke="none"/>
    <path d="M6.5 -8.5 L5.4 -8.5 6.5 -8.5 M3.5 1.55 Q3.7 -2.2 3.4 -6.05 3.25 -7.95 3.5 -9.65 L11.85 -9.65 11.55 -4.35 10.9 3.05 3.3 2.85 3.5 1.55 M9.5 1.7 L8.15 1.7 9.5 1.7" fill="url(#gradient2)" fill-rule="evenodd" stroke="none"/>
    <path d="M30.0 -1.3 L28.45 -0.6 Q25.1 2.15 21.95 5.45 18.7 8.95 16.15 12.3 L13.3 16.05 Q11.6 18.4 10.2 21.0 10.0 20.05 9.4 19.6 5.0 21.6 2.55 25.95 1.85 27.2 -0.2 27.05 -1.85 27.2 -2.55 25.95 -5.0 21.6 -9.4 19.6 -10.0 20.05 -10.2 21.0 -11.6 18.4 -13.3 16.05 L-16.15 12.3 Q-18.7 8.95 -21.95 5.45 -25.1 2.15 -28.45 -0.6 L-30.0 -1.3 Q-29.55 -3.95 -26.45 -5.85 L-24.45 -6.1 -23.25 -6.1 -21.45 -6.1 -21.3 -5.95 -21.25 -5.5 -21.3 -5.95 -21.45 -6.1 -21.25 -6.1 -21.3 -5.95 -21.25 -6.1 -18.75 -6.15 -18.75 -5.25 -18.75 -6.15 -14.2 -6.25 -13.45 -4.1 -10.7 4.7 Q-11.4 5.6 -12.9 5.65 -14.8 10.45 -9.45 9.95 L-8.75 9.95 -7.3 9.65 Q-5.4 9.05 -4.4 7.85 L-3.8 7.0 Q-2.9 5.1 -3.3 2.85 L-3.5 1.55 Q-3.55 -1.0 0.15 -1.0 3.55 -1.0 3.5 1.55 L3.3 2.85 Q2.9 5.1 3.85 7.0 2.6 7.8 1.45 7.7 2.6 7.8 3.85 7.0 L4.4 7.85 Q5.4 9.05 7.3 9.65 L9.45 9.95 Q14.8 10.45 12.9 5.65 11.4 5.6 10.7 4.7 L13.45 -4.1 14.2 -6.25 17.75 -6.15 19.8 -6.1 19.75 -5.6 19.8 -6.1 21.9 -6.1 24.45 -6.1 26.45 -5.85 Q29.55 -3.95 30.0 -1.3 M19.1 -1.85 L18.85 -1.85 18.6 -1.85 Q18.55 -0.35 19.5 -0.7 18.55 -0.35 18.6 -1.85 L18.85 -1.85 19.1 -1.85 M17.75 -5.6 L17.75 -6.15 17.75 -5.6 M21.9 -5.35 L21.9 -6.1 21.9 -5.35 M20.85 -0.6 L20.3 -1.8 20.6 -1.85 20.3 -1.8 20.85 -0.6 M20.3 -1.8 L20.05 -2.85 20.3 -1.8 M15.45 8.75 Q13.75 10.7 11.15 11.75 13.75 10.7 15.45 8.75 M1.2 9.95 Q3.55 10.2 4.4 7.85 3.55 10.2 1.2 9.95 M5.5 19.75 Q5.35 19.2 5.35 18.65 L5.5 12.75 5.35 18.65 Q5.35 19.2 5.5 19.75 M0.15 22.05 Q2.8 20.85 4.45 19.25 L4.45 17.25 Q2.55 18.5 0.15 19.2 L-4.45 17.25 -4.45 19.25 Q-2.75 20.9 0.15 22.05 M7.2 19.0 Q8.6 18.9 9.4 19.6 8.6 18.9 7.2 19.0 M10.75 15.25 Q9.95 14.0 8.4 13.75 9.95 14.0 10.75 15.25 M-1.45 7.7 Q-2.6 7.8 -3.8 7.0 -2.6 7.8 -1.45 7.7 M-23.25 -5.35 L-23.25 -6.1 -23.25 -5.35 M-21.7 -0.6 L-21.95 -1.35 -22.15 -1.4 Q-22.65 -1.65 -22.95 -2.35 -22.65 -1.65 -22.15 -1.4 L-21.95 -1.35 -21.7 -0.6 M-19.15 -0.6 L-19.55 -1.35 -19.7 -1.35 -19.95 -1.35 -19.7 -1.35 -19.55 -1.35 -19.7 -2.1 -19.55 -1.35 -19.15 -0.6 M-7.2 19.0 Q-8.6 18.9 -9.4 19.6 -8.6 18.9 -7.2 19.0 M-12.95 11.45 Q-14.6 9.6 -15.85 7.1 -14.6 9.6 -12.95 11.45 M-1.2 9.95 Q-3.55 10.2 -4.4 7.85 -3.55 10.2 -1.2 9.95 M-9.3 14.1 Q-10.1 14.7 -10.35 15.65 -10.1 14.7 -9.3 14.1 M-6.95 12.9 Q-8.75 11.95 -8.75 9.95 -8.75 11.95 -6.95 12.9" fill="url(#gradient3)" fill-rule="evenodd" stroke="none"/>
    <path d="M16.95 -11.4 Q20.2 -10.35 23.15 -8.85 L26.75 -8.95 Q26.3 -7.35 26.45 -5.85 L24.45 -6.1 21.9 -6.1 21.9 -7.0 21.9 -6.1 19.8 -6.1 17.75 -6.15 14.2 -6.25 Q15.3 -9.05 16.95 -11.4 M-26.75 -8.95 L-23.15 -8.85 Q-20.2 -10.35 -16.95 -11.4 -15.3 -9.05 -14.2 -6.25 L-18.75 -6.15 -21.25 -6.1 -21.45 -6.1 -23.25 -6.1 -24.45 -6.1 -26.45 -5.85 Q-26.3 -7.35 -26.75 -8.95 M19.65 -6.85 L19.8 -6.1 19.65 -6.85 M17.75 -7.1 L17.75 -6.15 17.75 -7.1 M-21.5 -6.75 Q-21.2 -6.55 -21.25 -6.1 -21.2 -6.55 -21.5 -6.75 M-23.25 -6.75 L-23.25 -6.1 -23.25 -6.75 M-18.75 -7.0 L-18.75 -6.15 -18.75 -7.0" fill="#5a7384" fill-rule="evenodd" stroke="none"/>
    <path d="M4.35 -12.9 Q9.1 -13.25 11.9 -11.25 L11.85 -9.65 3.5 -9.65 Q3.7 -11.4 4.35 -12.9" fill="url(#gradient4)" fill-rule="evenodd" stroke="none"/>
    <path d="M26.75 -8.95 L33.2 -8.95 38.2 -8.9 Q39.35 -8.7 39.75 -7.35 36.05 -4.65 32.15 -2.45 L30.0 -1.3 Q29.55 -3.95 26.45 -5.85 26.3 -7.35 26.75 -8.95 M-30.0 -1.3 L-32.15 -2.45 Q-36.05 -4.65 -39.75 -7.35 -39.35 -8.7 -38.2 -8.9 L-33.2 -8.95 -26.75 -8.95 Q-26.3 -7.35 -26.45 -5.85 -29.55 -3.95 -30.0 -1.3" fill="#7b94a5" fill-rule="evenodd" stroke="none"/>
    <path d="M3.3 2.85 L10.9 3.05 10.7 4.7 Q11.4 5.6 12.9 5.65 14.8 10.45 9.45 9.95 L7.3 9.65 Q5.4 9.05 4.4 7.85 L3.85 7.0 Q2.9 5.1 3.3 2.85" fill="url(#gradient5)" fill-rule="evenodd" stroke="none"/>
    <path d="M0.15 19.2 Q2.55 18.5 4.45 17.25 L4.45 19.25 Q2.8 20.85 0.15 22.05 L0.15 19.2 0.15 22.05 Q-2.75 20.9 -4.45 19.25 L-4.45 17.25 0.15 19.2" fill="#5e577a" fill-rule="evenodd" stroke="none"/>
    <path d="M-11.95 -13.95 L-11.5 -18.45 Q-8.1 -17.6 -5.95 -19.45 L-5.3 -15.85 -4.35 -12.9 Q-9.1 -13.25 -11.85 -11.25 L-11.95 -13.95" fill="url(#gradient6)" fill-rule="evenodd" stroke="none"/>
    <path d="M-3.5 1.55 L-3.3 2.85 -10.85 3.05 -11.55 -4.35 -11.8 -9.65 -3.45 -9.65 Q-3.25 -7.95 -3.4 -6.05 -3.7 -2.2 -3.5 1.55 M-5.75 -8.6 L-6.5 -8.6 -5.75 -8.6 M-6.1 1.7 L-7.75 1.8 -6.1 1.7" fill="url(#gradient7)" fill-rule="evenodd" stroke="none"/>
    <path d="M-11.8 -9.65 L-11.85 -11.25 Q-9.1 -13.25 -4.35 -12.9 -3.7 -11.4 -3.45 -9.65 L-11.8 -9.65" fill="url(#gradient8)" fill-rule="evenodd" stroke="none"/>
    <path d="M-3.3 2.85 Q-2.9 5.1 -3.8 7.0 L-4.4 7.85 Q-5.4 9.05 -7.3 9.65 L-8.75 9.95 -9.45 9.95 Q-14.8 10.45 -12.9 5.65 -11.4 5.6 -10.7 4.7 L-10.85 3.05 -3.3 2.85 M-8.5 8.1 L-8.75 9.95 -8.5 8.1" fill="url(#gradient9)" fill-rule="evenodd" stroke="none"/>
    <path d="M4.35 -12.9 L5.25 -15.6 5.95 -19.45 Q8.1 -17.6 11.5 -18.45 L11.95 -13.95 Q15.7 -16.4 17.7 -19.95 17.7 -16.05 16.95 -11.4 20.2 -10.35 23.15 -8.85 L26.75 -8.95 33.2 -8.95 38.2 -8.9 Q39.35 -8.7 39.75 -7.35 36.05 -4.65 32.15 -2.45 L30.0 -1.3 28.45 -0.6 Q25.1 2.15 21.95 5.45 18.7 8.95 16.15 12.3 L13.3 16.05 Q11.6 18.4 10.2 21.0 10.0 20.05 9.4 19.6 5.0 21.6 2.55 25.95 1.85 27.2 -0.2 27.05 -1.85 27.2 -2.55 25.95 -5.0 21.6 -9.4 19.6 -10.0 20.05 -10.2 21.0 -11.6 18.4 -13.3 16.05 L-16.15 12.3 Q-18.7 8.95 -21.95 5.45 -25.1 2.15 -28.45 -0.6 L-30.0 -1.3 -32.15 -2.45 Q-36.05 -4.65 -39.75 -7.35 -39.35 -8.7 -38.2 -8.9 L-33.2 -8.95 -26.75 -8.95 -23.15 -8.85 Q-20.2 -10.35 -16.95 -11.4 -17.7 -16.05 -17.7 -19.95 -15.7 -16.4 -11.95 -13.95 L-11.5 -18.45 Q-8.1 -17.6 -5.95 -19.45 L-5.3 -15.85 -4.35 -12.9 Q-3.25 -15.85 0.2 -15.85 3.25 -15.85 4.35 -12.9 9.1 -13.25 11.9 -11.25 L11.95 -13.95 M1.95 -9.9 L0.2 -9.9 -1.95 -9.9 M5.4 -8.5 L6.5 -8.5 M3.5 -9.65 Q3.25 -7.95 3.4 -6.05 3.7 -2.2 3.5 1.55 L3.3 2.85 10.9 3.05 11.55 -4.35 11.85 -9.65 3.5 -9.65 Q3.7 -11.4 4.35 -12.9 M11.9 -11.25 L11.85 -9.65 M17.75 -6.15 L19.8 -6.1 19.65 -6.85 M19.8 -6.1 L19.75 -5.6 M17.75 -6.15 L17.75 -5.6 M14.2 -6.25 Q15.3 -9.05 16.95 -11.4 M10.7 4.7 L13.45 -4.1 14.2 -6.25 17.75 -6.15 17.75 -7.1 M26.45 -5.85 L24.45 -6.1 21.9 -6.1 21.9 -5.35 M26.45 -5.85 Q29.55 -3.95 30.0 -1.3 M21.9 -6.1 L21.9 -7.0 M26.75 -8.95 Q26.3 -7.35 26.45 -5.85 M19.8 -6.1 L21.9 -6.1 M10.9 3.05 L10.7 4.7 Q11.4 5.6 12.9 5.65 14.8 10.45 9.45 9.95 L7.3 9.65 Q5.4 9.05 4.4 7.85 3.55 10.2 1.2 9.95 M11.15 11.75 Q13.75 10.7 15.45 8.75 M3.85 7.0 Q2.6 7.8 1.45 7.7 M8.15 1.7 L9.5 1.7 M3.85 7.0 Q2.9 5.1 3.3 2.85 M4.4 7.85 L3.85 7.0 M0.15 22.05 Q2.8 20.85 4.45 19.25 L4.45 17.25 Q2.55 18.5 0.15 19.2 L-4.45 17.25 -4.45 19.25 Q-2.75 20.9 0.15 22.05 M9.4 19.6 Q8.6 18.9 7.2 19.0 M3.5 1.55 Q3.55 -1.0 0.15 -1.0 -3.55 -1.0 -3.5 1.55 L-3.3 2.85 Q-2.9 5.1 -3.8 7.0 -2.6 7.8 -1.45 7.7 M-30.0 -1.3 Q-29.55 -3.95 -26.45 -5.85 -26.3 -7.35 -26.75 -8.95 M-21.25 -5.5 L-21.3 -5.95 -21.45 -6.1 -23.25 -6.1 -23.25 -5.35 M-21.25 -6.1 L-21.3 -5.95 M-21.45 -6.1 L-21.25 -6.1 Q-21.2 -6.55 -21.5 -6.75 M-26.45 -5.85 L-24.45 -6.1 -23.25 -6.1 -23.25 -6.75 M-1.95 -12.9 L-0.45 -12.65 1.95 -12.9 M-11.8 -9.65 L-11.85 -11.25 -11.95 -13.95 M-18.75 -6.15 L-18.75 -5.25 M-16.95 -11.4 Q-15.3 -9.05 -14.2 -6.25 L-13.45 -4.1 -10.7 4.7 -10.85 3.05 -11.55 -4.35 -11.8 -9.65 -3.45 -9.65 Q-3.7 -11.4 -4.35 -12.9 -9.1 -13.25 -11.85 -11.25 M-18.75 -6.15 L-18.75 -7.0 M-18.75 -6.15 L-14.2 -6.25 M-6.5 -8.6 L-5.75 -8.6 M-3.5 1.55 Q-3.7 -2.2 -3.4 -6.05 -3.25 -7.95 -3.45 -9.65 M-21.25 -6.1 L-18.75 -6.15 M-7.75 1.8 L-6.1 1.7 M-10.7 4.7 Q-11.4 5.6 -12.9 5.65 -14.8 10.45 -9.45 9.95 L-8.75 9.95 -7.3 9.65 Q-5.4 9.05 -4.4 7.85 L-3.8 7.0 M-4.4 7.85 Q-3.55 10.2 -1.2 9.95 M-15.85 7.1 Q-14.6 9.6 -12.95 11.45 M-9.4 19.6 Q-8.6 18.9 -7.2 19.0 M-10.85 3.05 L-3.3 2.85" fill="none" stroke="#333333" stroke-linecap="round" stroke-linejoin="round" stroke-width="1.0"/>
    <path d="M19.5 -0.7 Q18.55 -0.35 18.6 -1.85 L18.85 -1.85 19.1 -1.85 M20.6 -1.85 L20.3 -1.8 20.85 -0.6 M20.05 -2.85 L20.3 -1.8 M0.15 19.2 L0.15 22.05 M8.4 13.75 Q9.95 14.0 10.75 15.25 M-22.95 -2.35 Q-22.65 -1.65 -22.15 -1.4 L-21.95 -1.35 -21.7 -0.6 M-19.95 -1.35 L-19.7 -1.35 -19.55 -1.35 -19.7 -2.1 M-19.55 -1.35 L-19.15 -0.6 M-10.35 15.65 Q-10.1 14.7 -9.3 14.1" fill="none" stroke="#333333" stroke-linecap="round" stroke-linejoin="round" stroke-width="1.0"/>
    <path d="M5.5 12.75 L5.35 18.65 Q5.35 19.2 5.5 19.75 M-8.75 9.95 L-8.5 8.1 M-8.75 9.95 Q-8.75 11.95 -6.95 12.9" fill="none" stroke="#617482" stroke-linecap="round" stroke-linejoin="round" stroke-width="1.0"/>
  </g>
  <defs>
    <linearGradient gradientTransform="matrix(0.0046, 0.0, 0.0, 0.005, 8.15, -15.35)" gradientUnits="userSpaceOnUse" id="gradient0" spreadMethod="pad" x1="-819.2" x2="819.2">
      <stop offset="0.0" stop-color="#5d6c64"/>
      <stop offset="0.2627450980392157" stop-color="#d6dcd6"/>
      <stop offset="1.0" stop-color="#394239"/>
    </linearGradient>
    <linearGradient gradientTransform="matrix(0.0053, 0.0, 0.0, 0.0106, 0.0, -7.15)" gradientUnits="userSpaceOnUse" id="gradient1" spreadMethod="pad" x1="-819.2" x2="819.2">
      <stop offset="0.0" stop-color="#bdd6de"/>
      <stop offset="1.0" stop-color="#324253"/>
    </linearGradient>
    <linearGradient gradientTransform="matrix(0.0052, 0.0, 0.0, 0.0078, 7.55, -3.3)" gradientUnits="userSpaceOnUse" id="gradient2" spreadMethod="pad" x1="-819.2" x2="819.2">
      <stop offset="0.0" stop-color="#bdd6de"/>
      <stop offset="1.0" stop-color="#324253"/>
    </linearGradient>
    <linearGradient gradientTransform="matrix(0.0366, 0.0, 0.0, 0.0203, 0.0, 10.4)" gradientUnits="userSpaceOnUse" id="gradient3" spreadMethod="pad" x1="-819.2" x2="819.2">
      <stop offset="0.0" stop-color="#b8d1db"/>
      <stop offset="1.0" stop-color="#5a7384"/>
    </linearGradient>
    <linearGradient gradientTransform="matrix(0.0051, 0.0, 0.0, 0.002, 7.7, -11.3)" gradientUnits="userSpaceOnUse" id="gradient4" spreadMethod="pad" x1="-819.2" x2="819.2">
      <stop offset="0.0" stop-color="#698091"/>
      <stop offset="0.2627450980392157" stop-color="#b8cfd6"/>
      <stop offset="1.0" stop-color="#2c3c4d"/>
    </linearGradient>
    <radialGradient cx="0" cy="0" gradientTransform="matrix(0.0123, 0.0, 0.0, 0.0123, 4.55, 3.7)" gradientUnits="userSpaceOnUse" id="gradient5" r="819.2" spreadMethod="pad">
      <stop offset="0.0" stop-color="#93a0a5"/>
      <stop offset="1.0" stop-color="#1e2a37"/>
    </radialGradient>
    <linearGradient gradientTransform="matrix(0.0046, 0.0, 0.0, 0.005, -8.15, -15.35)" gradientUnits="userSpaceOnUse" id="gradient6" spreadMethod="pad" x1="-819.2" x2="819.2">
      <stop offset="0.0" stop-color="#5d6c64"/>
      <stop offset="0.2627450980392157" stop-color="#d6dcd6"/>
      <stop offset="1.0" stop-color="#394239"/>
    </linearGradient>
    <linearGradient gradientTransform="matrix(0.0052, 0.0, 0.0, 0.0078, -7.55, -3.3)" gradientUnits="userSpaceOnUse" id="gradient7" spreadMethod="pad" x1="-819.2" x2="819.2">
      <stop offset="0.0" stop-color="#bdd6de"/>
      <stop offset="1.0" stop-color="#324253"/>
    </linearGradient>
    <linearGradient gradientTransform="matrix(0.0051, 0.0, 0.0, 0.002, -7.65, -11.3)" gradientUnits="userSpaceOnUse" id="gradient8" spreadMethod="pad" x1="-819.2" x2="819.2">
      <stop offset="0.0" stop-color="#698091"/>
      <stop offset="0.2627450980392157" stop-color="#b8cfd6"/>
      <stop offset="1.0" stop-color="#2c3c4d"/>
    </linearGradient>
    <radialGradient cx="0" cy="0" gradientTransform="matrix(0.0081, 0.0, 0.0, 0.0081, -9.6, 3.95)" gradientUnits="userSpaceOnUse" id="gradient9" r="819.2" spreadMethod="pad">
      <stop offset="0.0" stop-color="#93a0a5"/>
      <stop offset="1.0" stop-color="#1e2a37"/>
    </radialGradient>
  </defs>
</svg>
