<?xml version="1.0" encoding="UTF-8" standalone="no"?>
<svg xmlns:ffdec="https://www.free-decompiler.com/flash" xmlns:xlink="http://www.w3.org/1999/xlink" ffdec:objectType="shape" height="156.25px" width="158.75px" xmlns="http://www.w3.org/2000/svg">
  <g transform="matrix(1.0, 0.0, 0.0, 1.0, 79.35, 63.15)">
    <path d="M29.0 -12.0 L37.3 -13.15 35.95 -14.7 Q39.05 -11.4 41.55 -7.4 48.9 4.25 48.9 18.15 48.9 32.4 41.15 44.3 L41.1 44.4 41.0 44.55 38.4 48.15 Q28.4 60.6 13.05 64.65 L12.95 64.25 12.5 62.35 Q11.9 59.15 12.4 55.6 12.7 53.1 20.65 42.45 29.35 30.75 31.4 24.6 39.7 -0.8 31.25 -9.75 L29.0 -12.0 M-31.5 48.95 Q-29.35 51.5 -26.3 52.75 -15.5 57.15 -7.1 54.3 L-6.8 54.5 Q-6.15 55.2 -5.8 56.6 -4.45 61.9 -5.95 65.7 -21.25 63.5 -32.25 52.8 L-32.0 53.05 -31.5 48.95 M-43.05 37.35 L-41.05 41.3 -38.0 46.15 Q-41.05 42.0 -43.05 37.35" fill="#f19900" fill-rule="evenodd" stroke="none"/>
    <path d="M2.9 -29.85 L3.35 -29.85 3.6 -29.85 3.65 -29.85 Q13.6 -29.25 22.45 -24.8 31.05 -20.5 37.3 -13.15 L29.0 -12.0 Q24.9 -15.7 22.85 -16.25 L10.4 -27.05 13.1 -19.45 1.3 -24.0 3.2 -20.75 Q-9.7 -20.6 -16.55 -16.7 -25.75 -11.4 -29.7 3.25 L-31.2 9.4 Q-35.9 10.55 -37.9 14.05 -40.65 18.7 -38.75 23.0 L-37.1 25.75 -37.9 26.4 Q-38.75 27.0 -38.5 28.0 L-37.8 29.35 -36.0 30.8 -34.1 39.5 -34.15 39.5 Q-34.9 39.95 -35.0 40.7 -35.25 42.6 -33.35 46.2 L-31.5 48.95 -32.0 53.05 Q-45.0 40.65 -46.75 22.9 L-46.8 22.3 -46.8 22.25 -46.85 22.0 -46.85 21.95 -46.85 21.7 -46.85 21.65 -46.9 21.4 -46.9 21.0 -46.95 20.75 -46.95 20.4 -46.95 20.15 -46.95 19.4 -47.0 19.2 -47.0 18.15 Q-47.0 8.35 -43.2 -0.55 -39.6 -9.2 -32.95 -15.85 -26.3 -22.5 -17.7 -26.15 -8.8 -29.9 0.95 -29.9 L1.6 -29.9 1.7 -29.9 2.7 -29.9 2.9 -29.85" fill="#f8cc80" fill-rule="evenodd" stroke="none"/>
    <path d="M37.1 -18.05 Q44.15 -11.0 48.0 -1.8 52.0 7.7 52.0 18.15 52.0 28.55 48.0 38.1 44.15 47.25 37.1 54.35 30.0 61.45 20.8 65.3 11.35 69.35 0.95 69.35 -9.45 69.35 -18.95 65.3 -28.1 61.45 -35.15 54.35 -42.25 47.25 -46.1 38.1 -50.1 28.55 -50.1 18.15 -50.1 7.7 -46.1 -1.8 -42.25 -10.95 -35.15 -18.05 -28.1 -25.15 -18.95 -29.05 -9.45 -33.05 0.95 -33.05 11.35 -33.05 20.8 -29.05 30.0 -25.15 37.1 -18.05 M19.6 -26.15 Q10.7 -29.9 0.95 -29.9 -8.8 -29.9 -17.7 -26.15 -26.3 -22.5 -32.95 -15.85 -39.6 -9.2 -43.2 -0.55 -47.0 8.35 -47.0 18.15 -47.0 27.9 -43.2 36.85 -39.6 45.45 -32.95 52.1 -21.65 63.45 -5.95 65.7 L-6.4 66.7 -5.6 66.85 -3.2 67.15 4.05 67.5 Q9.35 67.5 12.85 65.7 L13.4 65.4 13.15 64.9 13.15 64.85 13.1 64.7 13.05 64.65 Q25.65 61.35 34.85 52.1 41.5 45.45 45.1 36.85 48.9 27.9 48.9 18.15 48.9 8.35 45.1 -0.55 41.5 -9.2 34.85 -15.85 28.2 -22.5 19.6 -26.15" fill="#000000" fill-rule="evenodd" stroke="none"/>
    <path d="M11.9 83.5 L16.2 86.45 13.3 90.75 9.0 87.85 11.9 83.5" fill="#f19900" fill-rule="evenodd" stroke="none"/>
    <path d="M-55.7 58.25 L-55.75 58.05 -55.7 58.05 -56.9 56.4 -55.75 56.05 -50.75 61.6 -57.5 66.45 Q-59.45 65.55 -61.0 63.95 L-61.05 63.95 Q-67.8 57.0 -63.2 50.2 L-61.65 48.45 -58.2 53.0 Q-60.7 55.65 -58.45 58.9 L-57.85 59.65 -57.65 59.75 -57.4 59.65 -55.8 58.5 -55.7 58.25 M-44.65 68.4 L-44.35 68.55 -44.1 68.5 -43.9 68.25 -39.4 72.0 -45.05 78.75 -48.95 75.5 -47.9 74.25 -47.85 74.05 Q-47.85 73.7 -48.15 73.7 L-48.2 73.7 -48.7 73.8 Q-51.85 74.0 -53.5 71.8 -55.5 69.15 -54.05 66.4 L-54.0 66.4 Q-52.25 63.1 -48.9 63.7 L-48.7 63.75 -45.0 67.3 -44.65 68.4 M-34.2 75.7 L-34.25 75.85 -34.35 75.95 -34.55 76.4 -34.6 76.45 -37.5 83.0 -42.6 81.1 -38.75 72.5 -34.2 75.7 M-49.95 70.25 Q-50.0 71.4 -48.9 72.0 L-48.85 72.05 -47.55 72.25 -47.5 72.25 Q-46.4 72.0 -46.35 70.85 -46.25 69.75 -47.35 69.05 L-47.45 69.0 -48.65 68.8 -48.75 68.8 -49.55 69.35 -49.95 70.25 M-32.05 77.05 L-27.75 79.5 -30.65 86.05 -35.35 84.35 -32.1 77.15 -32.1 77.1 -32.05 77.05 M-25.05 80.75 L-20.25 82.7 -20.25 82.75 -23.25 89.45 -28.1 87.6 -25.05 80.75 M-12.4 86.55 L-12.25 86.8 -11.45 87.2 -8.7 87.35 -8.65 87.35 -7.1 86.85 -7.05 86.8 -6.95 86.8 -5.35 90.75 Q-7.4 91.85 -10.25 91.85 L-10.55 91.85 Q-13.85 91.75 -16.2 89.85 -19.6 87.0 -19.15 83.05 -14.75 84.55 -10.2 85.2 L-12.25 86.25 -12.4 86.55 M-0.45 85.7 L6.65 84.95 Q7.3 85.6 7.55 87.0 L7.55 87.05 Q7.9 89.2 6.3 90.65 4.55 92.25 1.0 92.45 L0.2 92.5 -2.4 92.35 -3.5 92.15 -3.55 92.15 -3.7 92.15 -3.35 88.05 -3.3 88.05 -2.9 88.1 -2.85 88.1 -2.45 88.15 -2.4 88.15 -1.8 88.2 0.2 88.15 0.25 88.15 Q1.25 87.8 1.45 87.35 L1.5 87.3 Q1.8 86.65 1.4 86.35 L1.35 86.35 1.3 86.3 1.25 86.2 1.2 86.2 0.55 85.95 -0.05 85.8 -0.1 85.8 -0.45 85.7" fill="#f19900" fill-rule="evenodd" stroke="none"/>
    <path d="M-51.95 52.9 Q-52.7 52.2 -54.25 52.05 -55.9 51.9 -56.8 52.6 L-56.85 52.6 Q-60.05 55.15 -57.95 58.6 L-57.6 59.0 -56.45 58.15 -57.7 56.4 -57.7 56.25 -57.45 55.9 -53.85 54.8 Q-53.65 54.8 -53.6 54.95 L-49.3 60.95 -49.25 61.15 -49.4 61.45 -57.25 67.05 -57.45 67.15 -57.6 67.1 Q-59.75 66.15 -61.45 64.4 L-61.5 64.35 Q-64.95 60.85 -65.5 57.0 -66.05 53.3 -63.7 49.85 -60.7 45.45 -54.7 45.5 -50.0 45.45 -47.5 47.95 -44.25 51.2 -43.75 54.85 L-43.75 54.95 -43.6 56.85 -43.6 56.9 Q-43.6 57.2 -43.9 57.2 L-49.95 57.65 -50.0 57.65 Q-50.35 57.65 -50.35 57.35 L-50.3 56.1 -50.35 56.0 -50.3 56.0 Q-50.5 54.25 -51.95 52.95 L-51.95 52.9 M-58.0 53.25 L-57.0 52.35 Q-56.0 51.55 -54.25 51.75 -52.6 51.85 -51.75 52.7 -50.2 54.15 -50.0 56.0 L-50.0 57.35 -43.9 56.9 -44.1 54.95 Q-44.5 51.35 -47.75 48.15 -50.15 45.8 -54.7 45.8 -59.15 45.8 -61.85 48.15 L-61.65 48.45 -63.2 50.2 Q-67.8 57.0 -61.05 63.95 L-61.0 63.95 Q-59.45 65.55 -57.5 66.45 L-50.75 61.6 -50.55 61.85 -49.55 61.15 -53.85 55.1 -55.95 55.8 -55.75 56.05 -56.9 56.4 -55.7 58.05 -55.75 58.05 -55.7 58.25 -55.8 58.5 -57.4 59.65 -57.65 59.75 -57.85 59.65 -58.45 58.9 Q-60.7 55.65 -58.2 53.0 L-58.0 53.25 M-48.75 63.1 Q-45.5 63.8 -44.25 67.5 L-44.25 67.55 -44.2 67.65 -43.9 67.25 -43.65 66.55 -43.6 66.5 Q-43.4 65.25 -45.2 63.9 L-45.75 63.5 -45.8 63.5 -46.15 63.3 -47.95 62.2 -48.55 61.9 -48.75 61.6 -48.6 61.35 -45.25 58.9 -45.1 58.85 -44.9 58.9 -43.8 59.55 -43.75 59.6 Q-37.65 63.3 -37.0 67.15 L-36.8 67.0 -31.55 68.9 -31.3 69.2 -31.35 69.35 -31.8 70.4 -31.0 70.1 -30.95 70.1 Q-28.8 69.55 -26.9 70.85 -25.55 71.6 -25.4 73.85 L-25.4 73.9 -25.4 73.85 Q-23.0 72.5 -20.3 73.75 L-20.2 73.8 Q-17.4 75.05 -18.15 78.9 -15.8 75.55 -11.55 75.7 -7.15 75.8 -4.65 80.15 -4.15 78.35 -1.85 77.15 -0.25 76.3 2.65 76.15 L6.15 76.45 6.2 76.45 6.85 76.6 7.1 76.9 7.1 77.0 6.6 81.5 Q6.6 81.85 6.3 81.85 L6.25 81.85 5.65 81.75 3.15 81.7 2.9 81.75 Q2.3 81.85 2.2 82.05 L2.2 82.15 2.25 82.35 2.25 82.4 2.3 82.45 3.35 82.75 Q7.8 83.95 8.2 86.9 8.6 89.4 6.7 91.1 4.8 92.85 1.05 93.1 L0.2 93.1 -2.45 92.95 -2.45 92.9 -2.5 92.95 -3.55 92.8 -3.6 92.8 -4.1 92.75 -4.4 92.4 -4.4 92.35 -3.95 87.6 -3.65 87.3 -3.55 87.35 -3.55 87.3 -2.8 87.5 -2.3 87.55 -1.7 87.6 0.05 87.55 0.1 87.55 Q0.85 87.3 0.95 87.05 L0.95 86.8 0.85 86.75 0.85 86.7 0.4 86.55 0.35 86.55 -0.2 86.4 Q-4.05 85.5 -4.7 83.0 L-11.45 86.55 -11.3 86.6 -11.25 86.6 -8.8 86.75 -7.4 86.3 -7.35 86.25 -7.15 86.15 -7.0 86.1 -6.8 86.05 Q-6.55 86.05 -6.5 86.3 L-4.65 90.8 -4.65 90.9 -4.8 91.2 Q-7.3 92.6 -10.55 92.5 -14.05 92.4 -16.55 90.35 L-16.55 90.3 -16.6 90.35 Q-20.15 87.4 -19.8 83.2 L-22.8 90.0 -23.05 90.15 -23.2 90.15 -28.6 88.05 -28.8 87.75 -28.8 87.65 -25.25 79.65 -25.25 79.6 -25.2 79.55 -25.05 79.1 Q-24.85 78.6 -24.95 78.4 L-25.4 78.05 -25.5 78.05 Q-26.15 77.9 -26.7 78.8 L-26.95 79.3 -27.0 79.3 -30.2 86.55 -30.5 86.75 -30.65 86.7 -35.8 84.85 -36.05 84.55 -36.0 84.4 -32.5 76.45 -32.45 76.45 -32.4 76.25 -32.4 76.2 -32.3 76.05 -32.25 76.0 -32.1 75.3 -32.25 75.05 -32.85 74.9 -33.55 75.8 -33.75 76.2 -33.85 76.3 -37.05 83.5 -37.35 83.7 -37.5 83.7 -43.1 81.6 -43.35 81.3 -43.3 81.15 -39.95 73.65 -44.75 79.4 -45.0 79.5 -45.25 79.45 -49.6 75.75 -49.7 75.55 -49.6 75.3 -48.85 74.45 Q-52.2 74.55 -54.0 72.2 L-54.0 72.15 Q-56.25 69.1 -54.6 66.1 L-54.55 66.05 Q-52.5 62.35 -48.8 63.1 L-48.75 63.1 M-47.8 61.9 L-45.95 63.0 -45.0 63.65 Q-43.1 65.05 -43.35 66.55 L-43.65 67.45 -44.15 68.05 -43.9 68.25 -44.1 68.5 -44.35 68.55 -44.65 68.4 -45.0 67.3 -44.5 67.75 -44.55 67.6 Q-45.75 64.05 -48.85 63.4 L-49.1 63.35 -48.7 63.75 -48.9 63.7 Q-52.25 63.1 -54.0 66.4 L-54.05 66.4 Q-55.5 69.15 -53.5 71.8 -51.85 74.0 -48.7 73.8 L-48.2 73.7 -48.15 73.7 Q-47.85 73.7 -47.85 74.05 L-47.9 74.25 -48.95 75.5 -45.05 78.75 -39.4 72.0 -39.15 72.2 -38.75 71.75 -39.0 72.3 -38.75 72.5 -42.6 81.1 -37.5 83.0 -34.6 76.45 -34.55 76.4 -34.35 75.95 -34.25 75.85 -34.2 75.7 -33.9 75.9 -33.85 75.65 Q-33.05 74.1 -32.05 74.8 -31.6 75.05 -32.0 76.15 L-32.1 76.4 -32.35 76.9 -32.05 77.05 -32.1 77.1 -32.1 77.15 -35.35 84.35 -30.65 86.05 -27.75 79.5 -27.45 79.6 -27.25 79.15 -27.0 78.7 Q-26.35 77.45 -25.4 77.75 -24.3 78.05 -24.75 79.25 L-24.9 79.65 -24.95 79.75 -25.3 80.65 -25.05 80.75 -28.1 87.6 -23.25 89.45 -20.25 82.75 -20.25 82.7 -19.95 82.8 -19.3 81.4 Q-16.9 75.55 -20.4 74.05 -23.0 72.9 -25.25 74.15 L-25.75 74.45 -25.75 73.9 Q-25.9 71.85 -27.05 71.1 -28.9 69.85 -30.9 70.4 -31.85 70.7 -32.5 71.25 L-31.6 69.2 -36.8 67.35 -37.3 68.45 Q-36.85 64.15 -43.9 59.85 L-45.1 59.15 -48.45 61.6 -47.8 61.9 M-47.35 69.05 Q-46.25 69.75 -46.35 70.85 -46.4 72.0 -47.5 72.25 L-47.55 72.25 -47.9 72.3 -48.85 72.05 -48.9 72.0 Q-50.0 71.4 -49.95 70.25 L-49.55 69.35 -48.75 68.8 -48.65 68.8 -47.45 69.0 -47.35 69.05 M-49.3 70.35 Q-49.35 71.05 -48.55 71.5 L-47.7 71.7 Q-47.0 71.45 -46.95 70.75 -46.9 70.1 -47.7 69.6 L-47.7 69.55 -48.5 69.4 -48.6 69.4 Q-48.85 69.5 -49.1 69.75 L-49.3 70.35 M-10.15 81.1 L-13.9 83.0 -14.0 82.5 Q-14.0 81.2 -13.15 80.55 -12.3 79.9 -11.15 80.35 -10.55 80.5 -10.15 81.1 M-11.25 80.6 Q-12.2 80.25 -12.95 80.8 -13.7 81.35 -13.65 82.5 L-10.65 81.0 Q-10.9 80.75 -11.25 80.6 M-12.25 86.25 L-10.2 85.2 -9.65 85.3 -4.45 82.6 Q-4.1 84.8 -1.4 85.7 L-0.45 85.7 -0.1 85.8 -0.05 85.8 0.55 85.95 1.2 86.2 1.25 86.2 1.3 86.3 1.35 86.35 1.4 86.35 Q1.8 86.65 1.5 87.3 L1.45 87.35 Q1.25 87.8 0.25 88.15 L0.2 88.15 -1.8 88.2 -2.4 88.15 -2.45 88.15 -2.85 88.1 -2.9 88.1 -3.3 88.05 -3.35 88.05 -3.7 92.15 -3.55 92.15 -3.5 92.15 -2.4 92.35 1.0 92.45 Q4.55 92.25 6.3 90.65 7.9 89.2 7.55 87.05 L7.55 87.0 Q7.3 85.6 6.65 84.95 L6.95 84.85 Q6.0 83.85 3.25 83.05 L2.4 82.8 Q1.95 82.65 1.9 82.15 L1.9 82.0 Q1.95 81.6 2.9 81.4 L5.65 81.4 6.3 81.5 6.8 76.9 6.15 76.8 2.65 76.45 Q-0.25 76.65 -1.7 77.4 -4.3 78.8 -4.55 81.1 -6.85 76.15 -11.55 75.95 -17.25 75.8 -19.15 81.5 L-19.45 82.95 -19.15 83.05 Q-19.6 87.0 -16.2 89.85 -13.85 91.75 -10.55 91.85 -7.55 91.95 -5.35 90.75 L-6.95 86.8 -7.05 86.8 -7.1 86.85 -8.65 87.35 -8.7 87.35 -11.45 87.2 -12.25 86.8 -12.4 86.55 -12.25 86.25" fill="#000000" fill-rule="evenodd" stroke="none"/>
    <path d="M46.85 63.25 L52.35 68.75 48.9 72.6 42.9 66.55 46.8 63.2 46.85 63.25 M52.7 57.45 L52.7 57.5 58.15 62.95 54.4 67.05 48.75 61.35 52.7 57.45 M58.0 51.85 L58.45 52.25 58.45 52.3 63.65 57.55 60.1 61.45 54.35 55.7 57.95 51.75 58.0 51.85 M42.65 68.5 Q44.25 70.95 43.95 73.6 43.65 76.2 41.6 78.2 L41.55 78.25 Q39.0 80.6 35.9 80.6 L35.0 80.55 Q31.55 80.15 29.4 77.05 L29.0 76.45 33.65 73.55 33.95 74.1 Q35.15 76.0 37.05 75.15 L37.75 74.7 37.8 74.7 Q39.1 73.45 38.35 71.95 L37.6 70.85 41.9 67.45 42.6 68.4 42.65 68.5 M27.0 80.15 L31.35 83.0 30.55 83.85 Q27.35 86.9 23.5 86.9 L22.8 86.85 Q18.75 86.55 16.8 83.2 L16.8 83.15 16.4 82.35 22.0 80.1 Q22.3 80.9 23.0 81.25 L25.5 81.3 Q26.4 81.0 27.0 80.15" fill="#f19900" fill-rule="evenodd" stroke="none"/>
    <path d="M48.9 54.2 L48.35 54.05 Q46.45 53.5 44.95 54.65 43.4 55.7 43.25 57.7 43.15 58.65 43.45 59.5 L42.0 58.0 38.25 62.3 42.7 66.8 42.9 66.55 48.9 72.6 52.35 68.75 46.85 63.25 46.8 63.2 47.05 62.95 46.75 62.65 Q45.6 61.35 46.55 60.6 47.05 60.25 47.9 61.0 L48.5 61.6 48.75 61.35 54.4 67.05 58.15 62.95 52.7 57.5 52.7 57.45 52.95 57.25 52.6 56.8 Q51.7 55.8 52.25 55.0 52.6 54.55 53.5 55.3 L54.15 55.9 54.35 55.7 60.1 61.45 63.65 57.55 58.45 52.3 58.45 52.25 58.0 51.85 57.95 51.75 58.1 51.55 57.5 50.95 Q52.9 46.5 50.25 49.25 48.4 51.2 48.75 53.65 L48.9 54.2 M52.6 55.15 L52.5 55.2 Q52.15 55.8 52.85 56.6 L52.85 56.65 53.45 57.3 58.8 62.7 58.9 62.95 58.8 63.2 54.6 67.75 54.4 67.8 54.2 67.75 48.35 61.9 48.3 61.8 48.05 61.55 47.9 61.45 47.85 61.35 47.7 61.2 Q47.05 60.6 46.75 60.85 46.35 61.15 46.4 61.45 L47.0 62.4 47.3 62.75 47.35 62.85 52.95 68.5 53.1 68.75 53.0 69.0 49.15 73.25 48.9 73.35 48.65 73.25 38.05 62.55 37.95 62.3 38.05 62.1 41.75 57.8 42.0 57.7 42.25 57.8 42.9 58.5 42.9 57.6 Q43.15 55.45 44.75 54.4 L44.8 54.35 Q46.4 53.1 48.45 53.7 48.05 51.15 50.05 49.05 51.5 47.5 53.35 47.9 55.3 48.35 57.7 50.65 L58.85 51.85 58.9 51.85 64.25 57.25 64.4 57.5 64.3 57.75 60.35 62.1 60.1 62.2 59.85 62.1 54.0 56.25 54.0 56.2 53.7 55.9 53.65 55.9 53.65 55.85 53.25 55.55 52.7 55.15 52.6 55.15 M43.15 68.15 Q44.9 70.75 44.6 73.65 44.25 76.55 42.0 78.65 38.85 81.65 34.95 81.15 31.25 80.75 28.9 77.4 L28.85 77.4 Q27.3 75.0 27.4 72.45 L26.05 76.8 25.75 77.05 25.6 77.0 Q24.75 76.65 23.75 77.0 22.2 77.65 22.35 79.15 22.45 80.2 23.3 80.65 L25.25 80.75 Q26.15 80.35 26.6 79.55 L26.65 79.55 Q26.7 79.4 26.9 79.4 L27.05 79.5 31.95 82.7 32.1 82.95 32.0 83.2 31.05 84.25 31.0 84.3 Q27.6 87.5 23.5 87.5 L22.75 87.45 Q18.3 87.15 16.3 83.45 13.3 78.05 17.25 73.7 19.3 71.4 22.95 70.7 24.3 70.45 26.25 70.65 L26.3 70.7 27.05 70.75 27.65 70.9 28.2 69.5 28.25 69.4 Q29.2 67.2 31.45 65.8 L31.5 65.75 Q34.65 63.7 37.9 64.35 41.2 65.05 43.15 68.05 L43.15 68.15 M42.6 68.4 L41.9 67.45 42.1 67.25 Q40.15 64.95 37.3 64.6 34.4 64.2 31.65 66.05 29.5 67.35 28.5 69.6 26.9 73.2 28.75 76.6 L29.0 76.45 29.4 77.05 Q31.55 80.15 35.0 80.55 38.55 81.0 41.55 78.25 L41.6 78.2 Q43.65 76.2 43.95 73.6 44.25 70.95 42.65 68.5 L42.6 68.4 M16.4 82.35 L16.8 83.15 16.8 83.2 Q18.75 86.55 22.8 86.85 27.05 87.15 30.55 83.85 L31.35 83.0 27.0 80.15 Q26.4 81.0 25.5 81.3 L23.0 81.25 Q22.3 80.9 22.0 80.1 L22.25 80.0 22.05 79.15 Q21.8 77.5 23.65 76.7 24.7 76.3 25.75 76.7 L27.5 71.2 27.05 71.1 26.25 71.0 Q24.3 70.75 23.0 71.0 19.5 71.7 17.45 73.95 14.05 77.75 16.15 82.45 L16.4 82.35 M37.6 70.85 L38.35 71.95 Q39.1 73.45 37.8 74.7 L37.75 74.7 37.05 75.15 36.1 75.35 Q34.8 75.35 33.95 74.1 L33.65 73.55 33.95 73.35 Q33.45 72.05 34.5 71.1 L35.1 70.65 Q36.35 70.15 37.3 71.0 L37.6 70.85 M35.25 70.95 L34.7 71.3 34.65 71.35 Q33.65 72.35 34.5 73.75 L34.5 73.8 Q35.45 75.1 36.8 74.6 L36.85 74.6 37.35 74.25 37.35 74.2 Q38.3 73.35 37.8 72.2 L37.75 72.15 Q36.85 70.3 35.25 70.95" fill="#000000" fill-rule="evenodd" stroke="none"/>
    <path d="M-11.05 80.0 Q-12.4 79.55 -13.35 80.3 -14.3 81.1 -14.3 82.5 L-14.25 83.05 -13.9 83.35 -13.8 83.3 -10.05 81.35 -9.85 81.1 -9.9 80.9 Q-10.35 80.25 -11.05 80.0 M-18.85 81.65 L-18.8 81.6 Q-17.05 76.15 -11.55 76.3 -7.05 76.4 -4.8 81.25 L-4.55 81.4 -4.2 81.15 Q-4.0 79.0 -1.6 77.7 L-1.55 77.7 Q-0.2 76.9 2.7 76.8 L6.1 77.1 6.45 77.15 6.0 81.15 5.95 81.15 3.15 81.1 2.9 81.1 2.8 81.1 Q1.8 81.3 1.6 81.9 L1.6 82.2 1.75 82.75 2.2 83.1 2.3 83.1 2.5 83.2 3.15 83.35 Q5.75 84.1 6.65 84.95 L-0.45 85.7 Q-3.7 84.8 -4.2 82.5 -4.2 82.25 -4.45 82.25 L-4.65 82.3 -10.2 85.2 Q-14.75 84.55 -19.15 83.05 L-18.85 81.65" fill="#f7c266" fill-rule="evenodd" stroke="none"/>
    <path d="M-9.85 81.1 L-10.05 81.35 -13.8 83.3 -13.9 83.35 -14.25 83.05 -14.3 82.5 Q-14.3 81.1 -13.35 80.3 -12.4 79.55 -11.05 80.0 -10.35 80.25 -9.9 80.9 L-9.85 81.1 M-11.15 80.35 L-12.0 80.15 Q-14.05 80.15 -14.0 82.5 L-13.9 83.0 -10.15 81.1 Q-10.55 80.5 -11.15 80.35 M-10.2 85.2 L-4.65 82.3 -4.45 82.25 Q-4.2 82.25 -4.2 82.5 -3.7 84.8 -0.45 85.7 L-1.4 85.7 Q-4.1 84.8 -4.45 82.6 L-9.65 85.3 -10.2 85.2 M-18.85 81.65 L-19.15 83.05 -19.45 82.95 -19.15 81.5 Q-17.25 75.8 -11.55 75.95 -6.85 76.15 -4.55 81.1 -4.3 78.8 -1.7 77.4 -0.25 76.65 2.65 76.45 L6.15 76.8 6.8 76.9 6.3 81.5 5.95 81.45 2.9 81.4 Q1.95 81.6 1.9 82.0 L1.9 82.15 Q1.95 82.65 2.4 82.8 L3.25 83.05 Q6.0 83.85 6.95 84.85 L6.65 84.95 Q5.75 84.1 3.15 83.35 L2.5 83.2 2.3 83.1 2.2 83.1 1.75 82.75 1.6 82.2 1.6 81.9 Q1.8 81.3 2.8 81.1 L2.9 81.1 3.15 81.1 6.0 81.15 6.45 77.15 6.1 77.1 2.7 76.8 Q-0.2 76.9 -1.55 77.7 L-1.6 77.7 Q-4.0 79.0 -4.2 81.15 L-4.55 81.4 -4.8 81.25 Q-7.05 76.4 -11.55 76.3 -17.05 76.15 -18.8 81.6 L-18.85 81.65" fill="#666666" fill-rule="evenodd" stroke="none"/>
    <path d="M-44.1 60.1 Q-37.2 64.3 -37.6 68.4 L-37.6 68.45 -37.3 68.75 -37.0 68.55 -36.6 67.75 -32.05 69.4 -32.8 71.1 -32.85 71.25 -32.5 71.6 -32.35 71.5 Q-31.65 70.95 -30.8 70.7 -29.0 70.25 -27.25 71.35 -26.2 72.1 -26.05 73.9 L-26.05 74.45 -25.75 74.8 -25.55 74.7 -25.55 74.75 -25.05 74.45 -20.5 74.35 Q-17.35 75.75 -19.6 81.3 L-20.0 82.15 -20.25 82.7 -25.05 80.75 -24.65 79.9 -24.65 79.8 -24.6 79.8 -24.45 79.35 -24.4 79.3 Q-24.2 78.65 -24.35 78.2 -24.55 77.7 -25.3 77.45 -26.5 77.0 -27.25 78.55 L-27.75 79.5 -32.05 77.05 -31.9 76.7 -31.7 76.3 -31.7 76.25 -31.45 75.3 Q-31.45 74.75 -31.85 74.55 L-31.9 74.5 Q-32.6 74.05 -33.1 74.35 -33.65 74.6 -34.1 75.55 L-34.2 75.7 -38.75 72.5 -38.45 71.85 -38.4 71.75 Q-38.4 71.45 -38.75 71.45 L-39.0 71.55 -39.4 72.0 -43.9 68.25 -43.4 67.65 -43.0 66.65 -43.0 66.6 Q-42.75 64.95 -44.85 63.4 L-45.4 63.0 -45.45 62.95 -45.75 62.8 -45.8 62.75 Q-46.25 62.4 -47.65 61.65 L-47.85 61.55 -45.05 59.55 -44.1 60.1" fill="#f7c266" fill-rule="evenodd" stroke="none"/>
    <path d="M-48.45 61.6 L-45.1 59.15 -43.9 59.85 Q-36.85 64.15 -37.3 68.45 L-36.8 67.35 -31.6 69.2 -32.5 71.25 Q-31.85 70.7 -30.9 70.4 -28.9 69.85 -27.05 71.1 -25.9 71.85 -25.75 73.9 L-25.75 74.45 -25.25 74.15 Q-23.0 72.9 -20.4 74.05 -16.9 75.55 -19.3 81.4 L-19.95 82.8 -20.25 82.7 -20.0 82.15 -19.6 81.3 Q-17.35 75.75 -20.5 74.35 L-25.05 74.45 -25.55 74.75 -25.55 74.7 -25.75 74.8 -26.05 74.45 -26.05 73.9 Q-26.2 72.1 -27.25 71.35 -29.0 70.25 -30.8 70.7 -31.65 70.95 -32.35 71.5 L-32.5 71.6 -32.85 71.25 -32.8 71.1 -32.05 69.4 -36.6 67.75 -37.0 68.55 -37.3 68.75 -37.6 68.45 -37.6 68.4 Q-37.2 64.3 -44.1 60.1 L-45.05 59.55 -47.85 61.55 -47.65 61.65 Q-46.25 62.4 -45.8 62.75 L-45.75 62.8 -45.45 62.95 -45.4 63.0 -44.85 63.4 Q-42.75 64.95 -43.0 66.6 L-43.0 66.65 -43.4 67.65 -43.9 68.25 -44.15 68.05 -43.65 67.45 -43.35 66.55 Q-43.1 65.05 -45.0 63.65 L-45.95 63.0 -47.8 61.9 -48.45 61.6 M-38.45 71.85 L-38.75 72.5 -39.0 72.3 -38.75 71.75 -39.15 72.2 -39.4 72.0 -39.0 71.55 -38.75 71.45 Q-38.4 71.45 -38.4 71.75 L-38.45 71.85 M-34.1 75.55 Q-33.65 74.6 -33.1 74.35 -32.6 74.05 -31.9 74.5 L-31.85 74.55 Q-31.45 74.75 -31.45 75.3 L-31.7 76.25 -31.7 76.3 -31.9 76.7 -32.05 77.05 -32.35 76.9 -32.1 76.4 -32.0 76.15 Q-31.6 75.05 -32.05 74.8 -33.05 74.1 -33.85 75.65 L-33.9 75.9 -34.2 75.7 -34.1 75.55 M-27.0 78.7 L-27.25 79.15 -27.45 79.6 -27.75 79.5 -27.25 78.55 Q-26.5 77.0 -25.3 77.45 -24.55 77.7 -24.35 78.2 -24.2 78.65 -24.4 79.3 L-24.45 79.35 -24.6 79.8 -24.65 79.8 -24.65 79.9 -25.05 80.75 -25.3 80.65 -24.95 79.75 -24.9 79.65 -24.75 79.25 Q-24.3 78.05 -25.4 77.75 -26.35 77.45 -27.0 78.7" fill="#666666" fill-rule="evenodd" stroke="none"/>
    <path d="M27.0 71.4 L27.1 71.45 25.55 76.3 23.5 76.45 Q21.5 77.3 21.75 79.2 21.8 79.75 22.0 80.1 L16.4 82.35 Q14.45 77.8 17.7 74.15 19.65 71.95 23.05 71.35 L26.2 71.3 27.0 71.4" fill="#f7c266" fill-rule="evenodd" stroke="none"/>
    <path d="M16.15 82.45 Q14.05 77.75 17.45 73.95 19.5 71.7 23.0 71.0 24.3 70.75 26.25 71.0 L27.05 71.1 27.5 71.2 25.75 76.7 Q24.7 76.3 23.65 76.7 21.8 77.5 22.05 79.15 L22.25 80.0 22.0 80.1 Q21.8 79.75 21.75 79.2 21.5 77.3 23.5 76.45 L25.55 76.3 27.1 71.45 27.0 71.4 26.2 71.3 23.05 71.35 Q19.65 71.95 17.7 74.15 14.45 77.8 16.4 82.35 L16.15 82.45" fill="#666666" fill-rule="evenodd" stroke="none"/>
    <path d="M34.25 70.9 Q33.05 72.0 33.65 73.55 L29.0 76.45 Q27.25 73.25 28.75 69.7 29.75 67.55 31.8 66.3 34.5 64.55 37.25 64.9 39.95 65.25 41.9 67.45 L37.6 70.85 Q36.4 69.75 35.0 70.35 L34.25 70.85 34.25 70.9" fill="#f7c266" fill-rule="evenodd" stroke="none"/>
    <path d="M37.25 64.9 Q34.5 64.55 31.8 66.3 29.75 67.55 28.75 69.7 27.25 73.25 29.0 76.45 L28.75 76.6 Q26.9 73.2 28.5 69.6 29.5 67.35 31.65 66.05 34.4 64.2 37.3 64.6 40.15 64.95 42.1 67.25 L41.9 67.45 Q39.95 65.25 37.25 64.9 M37.3 71.0 Q36.35 70.15 35.1 70.65 L34.5 71.1 Q33.45 72.05 33.95 73.35 L33.65 73.55 Q33.05 72.0 34.25 70.9 L34.25 70.85 35.0 70.35 Q36.4 69.75 37.6 70.85 L37.3 71.0" fill="#666666" fill-rule="evenodd" stroke="none"/>
    <path d="M-45.0 67.3 L-48.7 63.75 Q-46.15 64.35 -45.0 67.3" fill="#f7c266" fill-rule="evenodd" stroke="none"/>
    <path d="M-48.7 63.75 L-49.1 63.35 -48.85 63.4 Q-45.75 64.05 -44.55 67.6 L-44.5 67.75 -45.0 67.3 Q-46.15 64.35 -48.7 63.75" fill="#666666" fill-rule="evenodd" stroke="none"/>
    <path d="M50.5 49.45 Q51.75 48.2 53.25 48.5 54.95 48.85 57.3 51.1 L57.3 51.15 57.95 51.75 54.35 55.7 53.7 55.05 52.85 54.5 Q52.25 54.3 52.0 54.85 51.2 55.8 52.35 57.0 L52.7 57.45 48.75 61.35 48.5 61.1 48.35 61.0 48.35 60.95 48.1 60.75 Q47.1 59.8 46.35 60.35 45.65 60.85 45.75 61.5 45.8 62.0 46.5 62.8 L46.75 63.1 46.8 63.2 42.9 66.55 38.7 62.25 42.0 58.5 43.25 59.75 43.45 59.85 43.75 59.5 43.75 59.4 Q43.5 58.6 43.55 57.75 L43.55 57.65 Q43.75 55.85 45.1 54.9 L45.15 54.85 Q46.5 53.85 48.25 54.3 L48.3 54.35 48.75 54.5 48.9 54.55 49.2 54.2 49.2 54.15 49.1 53.65 Q48.75 51.3 50.5 49.5 L50.5 49.45" fill="#f7c266" fill-rule="evenodd" stroke="none"/>
    <path d="M50.5 49.5 Q48.75 51.3 49.1 53.65 L49.2 54.15 49.2 54.2 48.9 54.55 48.75 54.5 48.3 54.35 48.25 54.3 Q46.5 53.85 45.15 54.85 L45.1 54.9 Q43.75 55.85 43.55 57.65 L43.55 57.75 Q43.5 58.6 43.75 59.4 L43.75 59.5 43.45 59.85 43.25 59.75 42.0 58.5 38.7 62.25 42.9 66.55 42.7 66.8 38.25 62.3 42.0 58.0 43.45 59.5 Q43.15 58.65 43.25 57.7 43.4 55.7 44.95 54.65 46.45 53.5 48.35 54.05 L48.9 54.2 48.75 53.65 Q48.4 51.2 50.25 49.25 52.9 46.5 57.5 50.95 L58.1 51.55 57.95 51.75 57.3 51.15 57.3 51.1 Q54.95 48.85 53.25 48.5 51.75 48.2 50.5 49.45 L50.5 49.5 M53.7 55.05 L54.35 55.7 54.15 55.9 53.5 55.3 Q52.6 54.55 52.25 55.0 51.7 55.8 52.6 56.8 L52.95 57.25 52.7 57.45 52.35 57.0 Q51.2 55.8 52.0 54.85 52.25 54.3 52.85 54.5 L53.7 55.05 M45.75 61.5 Q45.65 60.85 46.35 60.35 47.1 59.8 48.1 60.75 L48.35 60.95 48.35 61.0 48.5 61.1 48.75 61.35 48.5 61.6 47.9 61.0 Q47.05 60.25 46.55 60.6 45.6 61.35 46.75 62.65 L47.05 62.95 46.8 63.2 46.75 63.1 46.5 62.8 Q45.8 62.0 45.75 61.5" fill="#666666" fill-rule="evenodd" stroke="none"/>
    <path d="M-54.0 55.45 L-50.0 61.05 -50.75 61.6 -55.75 56.05 -54.0 55.45" fill="#f7c266" fill-rule="evenodd" stroke="none"/>
    <path d="M-50.0 61.05 L-54.0 55.45 -55.75 56.05 -55.95 55.8 -53.85 55.1 -49.55 61.15 -50.55 61.85 -50.75 61.6 -50.0 61.05" fill="#666666" fill-rule="evenodd" stroke="none"/>
    <path d="M-47.95 48.4 Q-44.85 51.55 -44.4 54.95 L-44.2 56.6 -49.7 57.0 -49.7 56.0 Q-49.85 54.05 -51.5 52.45 L-51.55 52.45 Q-52.55 51.55 -54.2 51.45 -56.0 51.25 -57.2 52.1 L-57.25 52.1 -58.2 53.0 -61.65 48.45 Q-59.1 46.15 -54.7 46.15 -50.25 46.15 -48.0 48.35 L-47.95 48.4" fill="#f7c266" fill-rule="evenodd" stroke="none"/>
    <path d="M-51.5 52.45 Q-49.85 54.05 -49.7 56.0 L-49.7 57.0 -44.2 56.6 -44.4 54.95 Q-44.85 51.55 -47.95 48.4 L-48.0 48.35 Q-50.25 46.15 -54.7 46.15 -59.1 46.15 -61.65 48.45 L-61.85 48.15 Q-59.15 45.8 -54.7 45.8 -50.15 45.8 -47.75 48.15 -44.5 51.35 -44.1 54.95 L-43.9 56.9 -50.0 57.35 -50.0 56.0 Q-50.2 54.15 -51.75 52.7 -52.6 51.85 -54.25 51.75 -56.0 51.55 -57.0 52.35 L-58.0 53.25 -58.2 53.0 -57.25 52.1 -57.2 52.1 Q-56.0 51.25 -54.2 51.45 -52.55 51.55 -51.55 52.45 L-51.5 52.45" fill="#666666" fill-rule="evenodd" stroke="none"/>
    <path d="M-66.85 25.5 L-72.2 29.4 -70.35 23.75 Q-66.8 21.9 -64.45 19.25 L-58.25 19.25 -63.6 23.15 -61.55 29.4 -66.85 25.5" fill="#f19900" fill-rule="evenodd" stroke="none"/>
    <path d="M-61.55 29.4 L-63.6 23.15 -58.25 19.25 -64.45 19.25 -63.95 18.6 -64.4 18.6 -66.85 10.95 -69.35 18.6 -77.4 18.6 -70.9 23.35 -71.15 24.15 -70.35 23.75 -72.2 29.4 -66.85 25.5 -61.55 29.4 M-69.8 18.0 L-66.85 8.9 -63.95 18.0 -54.4 18.0 -62.1 23.6 -59.2 32.65 -66.85 27.1 -74.55 32.65 -71.6 23.6 -79.35 18.0 -69.8 18.0" fill="#000000" fill-rule="evenodd" stroke="none"/>
    <path d="M-70.15 23.15 L-75.5 19.25 -68.9 19.25 -66.85 13.0 -64.85 19.25 -64.45 19.25 Q-66.8 21.9 -70.35 23.75 L-70.15 23.15" fill="#f7c266" fill-rule="evenodd" stroke="none"/>
    <path d="M-70.35 23.75 L-71.15 24.15 -70.9 23.35 -77.4 18.6 -69.35 18.6 -66.85 10.95 -64.4 18.6 -63.95 18.6 -64.45 19.25 -64.85 19.25 -66.85 13.0 -68.9 19.25 -75.5 19.25 -70.15 23.15 -70.35 23.75" fill="#666666" fill-rule="evenodd" stroke="none"/>
    <path d="M-64.35 18.6 L-56.35 18.6 -62.85 23.35 -60.35 31.05 -66.85 26.3 -73.35 31.05 -70.9 23.35 -77.4 18.6 -69.35 18.6 -66.85 10.95 -64.35 18.6 Z" fill="none" stroke="#000000" stroke-linecap="round" stroke-linejoin="round" stroke-width="2.0"/>
    <path d="M61.6 29.4 L63.45 23.75 Q67.05 21.85 69.3 19.25 L75.55 19.25 70.2 23.15 72.25 29.4 66.95 25.5 61.6 29.4" fill="#f19900" fill-rule="evenodd" stroke="none"/>
    <path d="M62.65 24.15 L63.45 23.75 61.6 29.4 66.95 25.5 72.25 29.4 70.2 23.15 75.55 19.25 69.3 19.25 69.85 18.6 69.45 18.6 66.95 10.95 64.45 18.6 56.4 18.6 62.9 23.35 62.65 24.15 M66.95 8.9 L69.85 18.0 79.4 18.0 71.7 23.6 74.6 32.65 66.95 27.1 59.25 32.65 62.2 23.6 54.45 18.0 64.0 18.0 66.95 8.9" fill="#000000" fill-rule="evenodd" stroke="none"/>
    <path d="M58.3 19.25 L64.9 19.25 66.95 12.95 68.95 19.25 69.3 19.25 Q67.05 21.85 63.45 23.75 L63.65 23.15 58.3 19.25" fill="#f7c266" fill-rule="evenodd" stroke="none"/>
    <path d="M63.65 23.15 L63.45 23.75 62.65 24.15 62.9 23.35 56.4 18.6 64.45 18.6 66.95 10.95 69.45 18.6 69.85 18.6 69.3 19.25 68.95 19.25 66.95 12.95 64.9 19.25 58.3 19.25 63.65 23.15" fill="#666666" fill-rule="evenodd" stroke="none"/>
    <path d="M60.45 31.05 L62.9 23.35 56.4 18.6 64.45 18.6 66.95 10.95 69.45 18.6 77.45 18.6 70.95 23.35 73.45 31.05 66.95 26.3 60.45 31.05 Z" fill="none" stroke="#000000" stroke-linecap="round" stroke-linejoin="round" stroke-width="2.0"/>
    <path d="M-62.95 -11.5 L-62.2 -11.45 Q-60.0 -11.45 -58.75 -13.1 L-58.7 -13.2 Q-57.6 -14.7 -57.45 -16.55 L-53.0 -13.65 -53.5 -11.55 -53.55 -11.5 Q-54.2 -9.6 -55.6 -8.25 L-55.6 -8.2 Q-58.85 -5.0 -62.6 -5.0 -64.1 -5.0 -65.7 -5.65 -64.5 -8.65 -62.95 -11.5" fill="#f19900" fill-rule="evenodd" stroke="none"/>
    <path d="M-70.35 -22.5 L-70.1 -22.85 -69.85 -23.05 -69.7 -23.0 -63.65 -20.45 -63.45 -20.15 -63.55 -19.9 Q-65.35 -18.6 -65.7 -17.6 -66.8 -14.55 -64.2 -12.55 L-64.15 -12.5 Q-63.45 -12.05 -62.2 -12.1 -60.3 -12.1 -59.25 -13.5 L-59.25 -13.55 Q-58.15 -15.1 -58.05 -17.15 L-57.75 -17.45 -57.55 -17.4 -52.45 -14.05 -52.3 -13.75 -52.35 -13.7 -52.95 -11.3 -52.95 -11.25 Q-53.7 -9.2 -55.1 -7.85 L-55.2 -7.75 Q-58.6 -4.4 -62.6 -4.4 -65.8 -4.4 -68.6 -6.65 L-68.6 -6.7 Q-74.1 -11.15 -72.2 -18.45 -71.7 -20.3 -70.7 -21.85 L-70.7 -21.9 -70.35 -22.45 -70.35 -22.5 M-71.9 -18.35 Q-73.75 -11.25 -68.4 -6.9 -67.1 -5.9 -65.8 -5.4 L-65.7 -5.65 Q-60.45 -3.45 -55.6 -8.2 L-55.6 -8.25 Q-54.2 -9.6 -53.55 -11.5 L-53.5 -11.55 -53.0 -13.65 -57.45 -16.55 Q-57.6 -14.7 -58.7 -13.2 L-58.75 -13.1 Q-60.0 -11.45 -62.2 -11.45 L-62.95 -11.5 -62.8 -11.8 Q-63.85 -11.95 -64.35 -12.3 -67.2 -14.45 -66.0 -17.75 -65.6 -18.9 -63.75 -20.15 L-69.85 -22.7 -70.45 -21.7 Q-71.4 -20.25 -71.9 -18.35" fill="#000000" fill-rule="evenodd" stroke="none"/>
    <path d="M-51.45 -14.25 L-58.1 -19.2 -54.55 -23.85 -54.45 -23.7 -54.4 -23.65 -53.2 -22.35 -53.15 -22.35 -48.45 -18.9 -51.45 -14.25" fill="#f19900" fill-rule="evenodd" stroke="none"/>
    <path d="M-58.0 -31.45 L-58.95 -29.95 Q-59.4 -28.6 -58.5 -26.5 L-58.35 -26.05 -60.55 -27.75 -63.6 -22.9 -58.3 -18.95 -58.1 -19.2 -51.45 -14.25 -48.45 -18.9 -53.15 -22.35 -53.2 -22.35 -54.4 -23.65 -54.45 -23.7 -54.55 -23.85 -54.35 -24.1 Q-55.4 -25.7 -54.15 -27.45 L-53.85 -27.75 -57.6 -31.75 -58.0 -31.45 M-59.25 -30.05 Q-58.95 -30.95 -58.2 -31.7 L-57.8 -32.0 -57.6 -32.1 -57.35 -32.0 -54.45 -28.85 -54.4 -28.8 -54.2 -28.6 -53.65 -28.0 -53.55 -27.75 -53.65 -27.55 -53.85 -27.3 -53.9 -27.25 Q-55.0 -25.65 -53.95 -24.05 L-52.8 -22.85 -52.45 -22.6 -52.4 -22.55 -47.85 -19.25 -47.75 -18.95 -47.8 -18.8 -51.1 -13.65 -51.35 -13.5 -51.55 -13.55 -63.8 -22.6 -63.95 -22.9 -63.9 -23.05 -60.85 -27.9 -60.55 -28.05 -60.35 -27.95 -59.05 -27.0 Q-59.7 -28.75 -59.25 -30.05" fill="#000000" fill-rule="evenodd" stroke="none"/>
    <path d="M-46.75 -32.15 L-42.9 -35.6 -37.9 -30.4 -37.85 -29.4 -41.05 -26.3 -42.15 -27.45 -42.4 -27.55 -42.75 -27.25 -42.7 -26.7 -42.75 -26.7 Q-42.8 -25.05 -43.15 -24.3 -43.6 -23.5 -44.75 -22.8 -45.9 -22.1 -47.2 -22.1 -48.75 -22.1 -50.2 -23.1 -52.25 -24.6 -52.35 -26.45 L-46.95 -32.0 -46.75 -32.15" fill="#f19900" fill-rule="evenodd" stroke="none"/>
    <path d="M-55.65 -33.8 Q-52.05 -38.55 -48.95 -39.2 -46.2 -39.8 -43.55 -37.15 L-43.55 -37.05 -42.95 -36.45 -42.9 -36.45 -38.1 -31.45 -37.95 -30.4 -42.95 -35.6 -42.7 -35.8 -43.8 -36.9 Q-46.3 -39.4 -48.9 -38.9 -51.85 -38.25 -55.4 -33.6 L-56.2 -32.55 -54.15 -28.9 -53.8 -29.5 -52.5 -31.25 -51.75 -32.1 Q-50.15 -33.9 -48.65 -33.5 L-47.85 -33.1 -47.1 -32.3 -47.8 -32.15 Q-51.4 -31.4 -52.4 -28.35 L-52.65 -26.15 -52.4 -26.45 Q-52.3 -24.6 -50.25 -23.15 -47.55 -21.2 -44.8 -22.8 -43.65 -23.5 -43.2 -24.3 -42.85 -25.05 -42.8 -26.75 L-42.75 -26.75 -42.8 -27.25 -42.45 -27.6 -42.2 -27.45 -41.1 -26.3 -37.85 -29.45 -37.8 -29.15 -37.55 -28.9 -40.9 -25.65 Q-40.95 -25.55 -41.1 -25.55 L-41.35 -25.65 -42.15 -26.5 Q-42.3 -23.55 -44.45 -22.25 -45.8 -21.45 -47.2 -21.45 -48.95 -21.45 -50.65 -22.6 -53.8 -24.8 -52.7 -28.4 L-52.7 -28.45 Q-51.65 -31.65 -47.85 -32.45 L-47.7 -32.5 -47.95 -32.75 -48.05 -32.85 -48.75 -33.2 Q-50.0 -33.55 -51.55 -31.85 L-52.25 -31.0 -52.3 -31.0 -53.55 -29.35 -53.9 -28.75 Q-53.95 -28.6 -54.15 -28.6 L-54.45 -28.8 -56.45 -32.35 -56.5 -32.55 -56.45 -32.7 -55.65 -33.8 M-44.9 -30.25 Q-43.7 -29.0 -44.9 -27.55 -45.45 -26.9 -46.2 -26.75 L-46.6 -26.7 Q-47.3 -26.7 -47.85 -27.2 L-47.9 -27.25 Q-48.35 -27.75 -48.3 -28.5 -48.25 -29.35 -47.6 -30.05 -46.3 -31.35 -44.95 -30.3 L-44.9 -30.25" fill="#000000" fill-rule="evenodd" stroke="none"/>
    <path d="M-34.25 -41.95 L-33.85 -38.3 Q-33.85 -37.95 -33.5 -37.95 L-33.35 -38.05 -29.5 -40.5 -27.7 -35.85 -37.25 -29.7 -38.4 -39.1 -34.25 -41.95" fill="#f19900" fill-rule="evenodd" stroke="none"/>
    <path d="M-34.35 -48.0 L-33.25 -38.8 -29.5 -41.25 -29.3 -41.3 Q-29.1 -41.3 -29.0 -41.1 L-27.0 -35.75 Q-27.0 -35.55 -27.15 -35.5 L-37.25 -28.95 -37.5 -28.9 -37.75 -29.15 -39.1 -39.55 -42.05 -37.7 -42.25 -37.65 -42.5 -37.8 -44.45 -42.95 -44.5 -43.05 -44.35 -43.3 -35.0 -49.4 -34.75 -49.45 -34.5 -49.25 -34.75 -49.05 -34.75 -49.15 -44.15 -43.05 -42.25 -37.95 -38.85 -40.1 -38.7 -38.9 -38.4 -39.1 -37.25 -29.7 -27.7 -35.85 -29.5 -40.5 -33.35 -38.05 -33.5 -37.95 Q-33.85 -37.95 -33.85 -38.3 L-34.25 -41.95 -33.95 -42.15 -34.7 -48.4 -34.35 -48.0" fill="#000000" fill-rule="evenodd" stroke="none"/>
    <path d="M-24.65 -45.05 L-24.9 -46.95 -20.3 -48.8 -19.45 -34.55 -24.8 -33.45 -24.95 -38.4 -25.05 -38.65 -30.2 -44.35 -26.25 -46.35 -25.25 -44.85 -25.0 -44.65 Q-24.65 -44.65 -24.65 -44.95 L-24.65 -45.05" fill="#f19900" fill-rule="evenodd" stroke="none"/>
    <path d="M-34.75 -49.05 L-29.55 -52.15 -29.4 -52.15 -29.1 -52.0 -25.5 -46.35 -26.35 -53.05 -26.35 -53.15 -26.1 -53.45 -20.35 -54.5 -20.3 -54.55 -20.0 -54.25 -18.8 -34.3 -19.05 -33.95 -25.05 -32.75 -25.15 -32.75 Q-25.45 -32.75 -25.45 -33.1 L-25.55 -38.3 -34.7 -48.4 -34.75 -49.05 M-20.3 -54.2 L-26.05 -53.15 -25.25 -46.85 -24.9 -46.95 -24.65 -45.05 -24.65 -44.95 Q-24.65 -44.65 -25.0 -44.65 L-25.25 -44.85 -26.25 -46.35 Q-26.05 -46.45 -25.95 -46.5 L-29.4 -51.85 -34.65 -48.8 -30.5 -44.2 -30.2 -44.35 -25.05 -38.65 -24.95 -38.4 -24.8 -33.45 -19.45 -34.55 -20.3 -48.8 -20.0 -48.9 -20.3 -54.2" fill="#000000" fill-rule="evenodd" stroke="none"/>
    <path d="M0.9 -51.1 L-1.8 -42.85 -5.25 -51.3 0.9 -51.1 M7.85 -50.5 L8.75 -43.45 3.2 -42.7 2.2 -51.0 7.85 -50.5 M-6.8 -42.3 L-12.4 -42.65 -11.9 -50.8 -6.3 -51.3 -6.8 -42.3" fill="#f19900" fill-rule="evenodd" stroke="none"/>
    <path d="M0.35 -62.55 L-2.2 -54.45 -5.3 -62.35 -11.55 -62.1 -12.2 -50.8 -11.9 -50.8 -12.4 -42.65 -6.8 -42.3 -6.3 -51.3 -6.0 -51.3 -5.95 -52.2 -5.6 -51.3 -5.25 -51.3 -1.8 -42.85 0.9 -51.1 1.25 -51.05 1.7 -52.5 1.85 -51.05 2.2 -51.0 3.2 -42.7 8.75 -43.45 7.85 -50.5 8.15 -50.4 6.6 -62.85 0.35 -62.55 M-5.0 -62.45 L-2.2 -55.4 0.05 -62.65 0.35 -62.9 6.6 -63.15 6.9 -62.85 9.4 -43.25 9.4 -43.2 9.15 -42.9 2.95 -42.0 2.95 -42.05 2.9 -42.0 Q2.65 -42.0 2.6 -42.3 L1.55 -51.05 -1.45 -41.85 -1.75 -41.65 -2.05 -41.85 -5.7 -50.8 -6.15 -41.95 Q-6.2 -41.65 -6.45 -41.65 L-6.5 -41.65 -12.7 -42.0 -12.7 -42.05 -13.0 -42.35 -11.9 -62.15 -11.55 -62.4 -5.3 -62.65 Q-5.05 -62.65 -5.0 -62.45" fill="#000000" fill-rule="evenodd" stroke="none"/>
    <path d="M9.75 -49.95 L9.8 -50.2 15.35 -49.2 15.1 -48.5 Q14.45 -46.45 16.35 -45.6 L16.4 -45.55 17.15 -45.35 17.2 -45.35 Q18.85 -45.3 19.5 -46.7 L19.55 -46.8 Q19.85 -47.5 19.8 -48.15 L25.15 -46.5 25.05 -45.9 25.0 -45.85 Q23.45 -40.05 17.8 -40.05 L17.05 -40.1 Q13.05 -40.5 10.95 -43.4 8.95 -46.25 9.75 -49.95" fill="#f19900" fill-rule="evenodd" stroke="none"/>
    <path d="M14.55 -55.95 Q16.9 -56.7 19.5 -56.0 23.15 -55.0 24.9 -52.1 26.55 -49.2 25.65 -45.7 L25.5 -45.25 23.85 -42.2 Q21.5 -39.45 17.8 -39.45 L17.05 -39.5 17.0 -39.5 Q12.7 -39.9 10.45 -43.0 8.25 -46.1 9.15 -50.05 L9.15 -50.1 Q10.3 -54.5 14.55 -55.9 L14.55 -55.95 M9.8 -50.2 L9.75 -49.95 Q8.95 -46.25 10.95 -43.4 13.05 -40.5 17.05 -40.1 L17.15 -40.1 Q20.0 -39.9 22.15 -41.45 24.25 -43.0 25.0 -45.85 L25.05 -45.9 25.15 -46.5 25.45 -46.35 Q26.1 -49.55 24.5 -52.15 22.8 -54.75 19.45 -55.7 L14.7 -55.6 Q10.7 -54.3 9.55 -50.25 L9.8 -50.2 M16.65 -46.1 L17.2 -45.95 Q18.45 -45.9 18.95 -46.95 L19.0 -47.05 Q19.7 -48.95 18.2 -49.6 L18.15 -49.65 17.55 -49.8 Q16.15 -49.9 15.7 -48.35 15.3 -46.8 16.6 -46.15 L16.65 -46.1 M15.1 -48.5 L15.35 -49.2 15.7 -49.15 Q16.3 -50.2 17.6 -50.1 L18.3 -49.9 Q19.4 -49.4 19.5 -48.2 L19.8 -48.15 Q19.85 -47.5 19.55 -46.8 L19.5 -46.7 Q18.9 -45.35 17.35 -45.35 L17.2 -45.35 17.15 -45.35 16.4 -45.55 16.35 -45.6 Q14.45 -46.45 15.1 -48.5" fill="#000000" fill-rule="evenodd" stroke="none"/>
    <path d="M22.8 -38.9 L26.6 -45.95 31.4 -44.0 31.4 -43.95 31.35 -43.95 27.55 -36.9 22.8 -38.9 M33.8 -42.85 L38.5 -40.25 34.5 -32.9 29.75 -35.25 33.4 -42.0 33.75 -42.7 33.8 -42.75 33.8 -42.85" fill="#f19900" fill-rule="evenodd" stroke="none"/>
    <path d="M35.15 -49.8 L35.1 -49.65 34.5 -48.6 38.05 -48.45 38.1 -48.4 Q40.2 -47.35 40.55 -45.3 40.9 -43.3 39.6 -40.95 L39.55 -40.95 35.6 -33.55 34.65 -32.5 34.6 -32.25 34.6 -32.2 34.5 -32.2 29.2 -34.8 29.0 -35.1 29.05 -35.25 33.5 -43.6 33.55 -44.25 33.25 -44.5 Q32.55 -44.75 31.9 -43.65 L31.9 -43.6 31.4 -42.7 28.0 -36.4 27.7 -36.2 27.55 -36.2 22.25 -38.5 22.05 -38.75 22.05 -38.9 29.35 -52.35 Q29.4 -52.5 29.6 -52.5 L29.75 -52.5 34.95 -50.1 35.15 -49.8 M33.75 -47.85 L34.85 -49.8 29.6 -52.2 26.3 -46.1 26.6 -45.95 22.8 -38.9 27.55 -36.9 31.35 -43.95 31.4 -43.95 31.4 -44.0 31.65 -43.85 Q32.5 -45.1 33.35 -44.8 34.25 -44.5 33.8 -43.5 L33.55 -42.95 33.8 -42.85 33.8 -42.75 33.75 -42.7 33.4 -42.0 29.75 -35.25 34.5 -32.9 38.5 -40.25 38.75 -40.1 39.3 -41.1 Q42.1 -46.1 37.95 -48.15 36.1 -49.05 34.25 -48.15 L33.75 -47.85" fill="#000000" fill-rule="evenodd" stroke="none"/>
    <path d="M45.9 -35.0 L49.1 -32.15 48.9 -32.1 48.65 -31.85 46.5 -23.15 42.45 -26.05 45.1 -34.35 45.1 -34.45 44.8 -34.75 44.6 -34.65 39.75 -29.0 35.35 -32.35 40.85 -38.75 45.3 -35.5 45.15 -35.3 45.05 -35.1 Q45.05 -34.8 45.35 -34.8 L45.5 -34.8 45.9 -35.0" fill="#f19900" fill-rule="evenodd" stroke="none"/>
    <path d="M48.15 -47.9 L53.05 -44.2 53.2 -43.95 53.1 -43.75 53.1 -43.7 46.6 -36.05 52.0 -38.65 52.1 -38.7 52.35 -38.55 52.35 -38.6 55.95 -34.55 56.0 -34.3 55.8 -34.0 49.25 -31.5 47.9 -26.15 Q47.45 -25.1 47.3 -23.7 L47.05 -22.6 46.75 -22.35 46.5 -22.4 41.9 -25.65 Q41.75 -25.75 41.75 -25.95 L41.75 -26.05 44.05 -33.05 40.0 -28.4 39.75 -28.25 39.6 -28.3 34.7 -32.0 34.6 -32.25 34.65 -32.5 47.75 -47.85 47.75 -47.8 48.0 -47.95 48.15 -47.9 M45.9 -35.0 L45.5 -34.8 45.35 -34.8 Q45.05 -34.8 45.05 -35.1 L45.15 -35.3 45.3 -35.5 45.55 -35.3 52.85 -43.95 48.0 -47.65 40.6 -38.95 40.85 -38.75 35.35 -32.35 39.75 -29.0 44.6 -34.65 44.8 -34.75 45.1 -34.45 45.1 -34.35 42.45 -26.05 46.5 -23.15 48.65 -31.85 48.9 -32.1 49.1 -32.15 49.35 -31.9 55.7 -34.3 52.1 -38.4 45.65 -35.2 45.9 -35.0" fill="#000000" fill-rule="evenodd" stroke="none"/>
    <path d="M56.55 -17.75 L54.95 -13.8 Q52.5 -14.5 50.45 -16.65 48.3 -18.9 47.95 -21.85 47.4 -27.05 51.75 -29.5 L54.6 -26.1 Q54.1 -25.9 53.65 -25.4 L53.6 -25.4 53.25 -25.0 53.2 -24.8 53.45 -24.5 56.45 -23.55 58.7 -20.1 53.2 -21.85 53.15 -21.85 53.05 -21.85 Q52.75 -21.85 52.75 -21.55 L52.75 -21.5 53.05 -20.65 53.05 -20.6 Q53.65 -19.45 54.95 -18.55 55.55 -18.15 56.45 -17.8 L56.55 -17.75" fill="#f19900" fill-rule="evenodd" stroke="none"/>
    <path d="M51.65 -30.15 Q54.2 -31.5 56.75 -31.1 59.4 -30.65 61.3 -28.65 64.35 -25.5 63.3 -20.9 L62.85 -20.4 Q64.25 -25.15 61.1 -28.45 57.05 -32.6 51.75 -29.85 L51.5 -29.7 51.75 -29.5 Q47.4 -27.05 47.95 -21.85 48.3 -18.9 50.45 -16.65 52.5 -14.5 54.95 -13.8 L56.55 -17.75 56.45 -17.8 Q55.55 -18.15 54.95 -18.55 53.65 -19.45 53.05 -20.6 L53.05 -20.65 52.75 -21.5 52.75 -21.55 Q52.75 -21.85 53.05 -21.85 L53.15 -21.85 53.2 -21.85 58.7 -20.1 58.95 -19.7 61.45 -18.9 61.2 -18.65 53.55 -21.1 53.6 -20.9 Q54.2 -19.85 55.25 -19.1 L55.3 -19.1 56.65 -18.4 56.7 -18.4 56.85 -18.35 57.05 -18.25 57.25 -17.95 55.45 -13.3 55.15 -13.05 55.05 -13.1 Q52.35 -13.8 50.0 -16.2 L50.0 -16.25 Q47.75 -18.6 47.35 -21.75 L47.35 -21.85 Q46.75 -27.45 51.55 -30.1 L51.65 -30.15 M55.6 -25.65 Q54.8 -25.7 54.1 -24.95 L57.0 -24.05 56.85 -24.65 56.8 -24.7 Q56.4 -25.5 55.6 -25.65 M57.1 -24.8 L57.25 -23.65 56.2 -24.0 56.45 -23.55 53.45 -24.5 53.2 -24.8 53.25 -25.0 53.6 -25.4 53.65 -25.4 Q54.1 -25.9 54.6 -26.1 L54.8 -25.85 Q56.3 -26.4 57.1 -24.8" fill="#000000" fill-rule="evenodd" stroke="none"/>
    <path d="M50.1 -10.85 L55.15 -11.35 Q55.25 -11.35 55.35 -11.45 L60.45 -16.9 62.35 -12.65 61.4 -11.9 61.3 -11.65 Q61.3 -11.35 61.6 -11.35 L61.7 -11.35 62.75 -11.6 64.1 -7.35 51.6 -5.55 50.1 -10.85" fill="#f19900" fill-rule="evenodd" stroke="none"/>
    <path d="M68.3 -16.65 L62.9 -12.3 69.6 -13.95 69.7 -14.0 70.0 -13.75 70.0 -13.8 71.55 -8.1 71.55 -8.0 71.3 -7.75 51.45 -4.9 51.35 -4.9 51.1 -5.1 49.35 -11.0 49.35 -11.1 Q49.35 -11.4 49.65 -11.4 L54.95 -11.95 61.45 -18.9 61.75 -18.8 60.3 -17.2 60.45 -16.9 55.35 -11.45 Q55.25 -11.35 55.15 -11.35 L50.1 -10.85 51.6 -5.55 64.1 -7.35 64.2 -7.0 71.3 -8.0 69.7 -13.7 62.65 -11.9 62.75 -11.6 61.7 -11.35 61.6 -11.35 Q61.3 -11.35 61.3 -11.65 L61.4 -11.9 62.35 -12.65 62.5 -12.35 68.15 -16.9 64.65 -21.85 62.6 -19.7 62.85 -20.4 64.45 -22.1 64.65 -22.2 64.9 -22.05 68.4 -17.05 68.45 -16.9 68.3 -16.65" fill="#000000" fill-rule="evenodd" stroke="none"/>
    <path d="M-66.3 -17.8 Q-67.6 -14.3 -64.6 -12.05 L-64.55 -12.05 Q-64.1 -11.7 -62.95 -11.5 -64.5 -8.65 -65.7 -5.65 -67.05 -6.25 -68.15 -7.15 L-68.2 -7.15 Q-73.35 -11.4 -71.6 -18.25 L-71.6 -18.3 Q-71.15 -20.0 -70.2 -21.55 L-70.15 -21.6 -69.7 -22.35 -64.35 -20.1 Q-65.85 -19.0 -66.3 -17.9 L-66.3 -17.8" fill="#f7c266" fill-rule="evenodd" stroke="none"/>
    <path d="M-66.3 -17.9 Q-65.85 -19.0 -64.35 -20.1 L-69.7 -22.35 -70.15 -21.6 -70.2 -21.55 Q-71.15 -20.0 -71.6 -18.3 L-71.6 -18.25 Q-73.35 -11.4 -68.2 -7.15 L-68.15 -7.15 Q-67.05 -6.25 -65.7 -5.65 L-65.8 -5.4 Q-67.1 -5.9 -68.4 -6.9 -73.75 -11.25 -71.9 -18.35 -71.4 -20.25 -70.45 -21.7 L-69.85 -22.7 -63.75 -20.15 Q-65.6 -18.9 -66.0 -17.75 -67.2 -14.45 -64.35 -12.3 -63.85 -11.95 -62.8 -11.8 L-62.95 -11.5 Q-64.1 -11.7 -64.55 -12.05 L-64.6 -12.05 Q-67.6 -14.3 -66.3 -17.8 L-66.3 -17.9" fill="#666666" fill-rule="evenodd" stroke="none"/>
    <path d="M60.85 -28.25 Q64.15 -24.8 62.35 -19.85 L61.7 -19.15 58.7 -20.1 56.45 -23.55 57.25 -23.35 57.55 -23.6 57.4 -24.95 57.35 -24.95 Q56.85 -26.15 55.7 -26.25 L54.6 -26.1 51.75 -29.5 51.9 -29.6 Q57.0 -32.25 60.85 -28.25" fill="#f7c266" fill-rule="evenodd" stroke="none"/>
    <path d="M60.85 -28.25 Q57.0 -32.25 51.9 -29.6 L51.75 -29.5 51.5 -29.7 51.75 -29.85 Q57.05 -32.6 61.1 -28.45 64.25 -25.15 62.85 -20.4 L62.35 -19.85 Q64.15 -24.8 60.85 -28.25 M57.4 -24.95 L57.55 -23.6 57.25 -23.35 56.45 -23.55 56.2 -24.0 57.25 -23.65 57.1 -24.8 Q56.3 -26.4 54.8 -25.85 L54.6 -26.1 55.7 -26.25 Q56.85 -26.15 57.35 -24.95 L57.4 -24.95 M58.7 -20.1 L61.7 -19.15 61.45 -18.9 58.95 -19.7 58.7 -20.1" fill="#666666" fill-rule="evenodd" stroke="none"/>
    <path d="M-58.65 -29.9 Q-58.4 -30.65 -57.8 -31.2 L-57.75 -31.25 -57.6 -31.35 -54.25 -27.75 -54.4 -27.65 Q-55.85 -25.65 -54.55 -23.85 L-58.1 -19.2 -63.2 -22.95 -60.5 -27.3 -58.5 -25.8 -58.35 -25.75 Q-58.0 -25.75 -58.0 -26.05 L-58.05 -26.25 -58.25 -26.6 -58.25 -26.65 Q-59.05 -28.55 -58.7 -29.85 L-58.65 -29.9" fill="#f7c266" fill-rule="evenodd" stroke="none"/>
    <path d="M-58.0 -31.45 L-57.6 -31.75 -53.85 -27.75 -54.15 -27.45 Q-55.4 -25.7 -54.35 -24.1 L-54.55 -23.85 Q-55.85 -25.65 -54.4 -27.65 L-54.25 -27.75 -57.6 -31.35 -57.75 -31.25 -57.8 -31.2 Q-58.4 -30.65 -58.65 -29.9 L-58.7 -29.85 Q-59.05 -28.55 -58.25 -26.65 L-58.25 -26.6 -58.05 -26.25 -58.0 -26.05 Q-58.0 -25.75 -58.35 -25.75 L-58.5 -25.8 -60.5 -27.3 -63.2 -22.95 -58.1 -19.2 -58.3 -18.95 -63.6 -22.9 -60.55 -27.75 -58.35 -26.05 -58.5 -26.5 Q-59.4 -28.6 -58.95 -29.95 L-58.0 -31.45" fill="#666666" fill-rule="evenodd" stroke="none"/>
    <path d="M-55.15 -33.4 L-55.1 -33.4 Q-51.6 -38.0 -48.8 -38.55 -46.45 -39.05 -43.95 -36.7 L-43.95 -36.65 -42.9 -35.6 -46.75 -32.15 -46.75 -32.3 -46.85 -32.5 -47.6 -33.3 -48.5 -33.8 -48.55 -33.8 Q-50.2 -34.25 -51.95 -32.3 L-52.45 -31.75 -52.45 -31.7 -52.7 -31.4 -54.0 -29.65 -54.1 -29.5 -55.8 -32.5 -55.15 -33.4 M-46.95 -32.0 L-52.35 -26.45 -52.05 -28.25 Q-51.1 -31.1 -47.7 -31.85 L-47.0 -32.0 -46.95 -32.0" fill="#f7c266" fill-rule="evenodd" stroke="none"/>
    <path d="M-55.8 -32.5 L-54.1 -29.5 -54.0 -29.65 -52.7 -31.4 -52.45 -31.7 -52.45 -31.75 -51.95 -32.3 Q-50.2 -34.25 -48.55 -33.8 L-48.5 -33.8 -47.6 -33.3 -46.85 -32.5 -46.75 -32.3 -46.75 -32.15 -46.95 -32.0 -47.0 -32.0 -47.7 -31.85 Q-51.1 -31.1 -52.05 -28.25 L-52.35 -26.45 -52.6 -26.15 -52.35 -28.3 Q-51.35 -31.4 -47.75 -32.15 L-47.05 -32.3 -47.8 -33.1 -48.6 -33.5 Q-50.1 -33.85 -51.7 -32.1 L-52.45 -31.25 -53.75 -29.5 -54.1 -28.9 -56.15 -32.5 -55.35 -33.6 Q-51.8 -38.25 -48.85 -38.9 -46.25 -39.4 -43.75 -36.9 L-42.65 -35.8 -42.9 -35.6 -43.95 -36.65 -43.95 -36.7 Q-46.45 -39.05 -48.8 -38.55 -51.6 -38.0 -55.1 -33.4 L-55.15 -33.4 -55.8 -32.5" fill="#666666" fill-rule="evenodd" stroke="none"/>
    <path d="M52.0 -38.0 L55.2 -34.45 49.1 -32.15 45.9 -35.0 52.0 -38.0" fill="#f7c266" fill-rule="evenodd" stroke="none"/>
    <path d="M55.2 -34.45 L52.0 -38.0 45.9 -35.0 45.65 -35.2 52.1 -38.4 55.7 -34.3 49.35 -31.9 49.1 -32.15 55.2 -34.45" fill="#666666" fill-rule="evenodd" stroke="none"/>
    <path d="M52.45 -43.85 L45.3 -35.5 40.85 -38.75 48.05 -47.2 52.45 -43.85" fill="#f7c266" fill-rule="evenodd" stroke="none"/>
    <path d="M52.45 -43.85 L48.05 -47.2 40.85 -38.75 40.6 -38.95 48.0 -47.65 52.85 -43.95 45.55 -35.3 45.3 -35.5 52.45 -43.85" fill="#666666" fill-rule="evenodd" stroke="none"/>
    <path d="M-35.0 -48.6 L-34.25 -41.95 -38.4 -39.1 -38.55 -40.1 Q-38.55 -40.4 -38.85 -40.4 L-39.0 -40.4 -42.1 -38.4 -43.8 -42.95 -35.0 -48.6" fill="#f7c266" fill-rule="evenodd" stroke="none"/>
    <path d="M-34.75 -49.05 L-34.95 -48.8 -34.85 -48.55 -34.7 -48.4 -33.95 -42.15 -34.25 -41.95 -35.0 -48.6 -43.8 -42.95 -42.1 -38.4 -39.0 -40.4 -38.85 -40.4 Q-38.55 -40.4 -38.55 -40.1 L-38.4 -39.1 -38.7 -38.9 -38.85 -40.1 -42.25 -37.95 -44.15 -43.05 -34.75 -49.15 -34.75 -49.05" fill="#666666" fill-rule="evenodd" stroke="none"/>
    <path d="M-34.95 -48.8 L-34.75 -49.05 -34.7 -48.4 -34.85 -48.55 -34.95 -48.8" fill="#666666" fill-rule="evenodd" stroke="none"/>
    <path d="M37.8 -47.85 Q39.65 -46.95 39.9 -45.2 40.25 -43.5 39.0 -41.25 L39.0 -41.2 38.5 -40.25 33.8 -42.85 33.9 -42.95 33.9 -43.0 34.05 -43.35 34.1 -43.35 Q34.4 -44.1 34.1 -44.55 33.9 -44.95 33.5 -45.1 32.3 -45.55 31.4 -44.0 L26.6 -45.95 29.75 -51.8 34.4 -49.7 33.5 -48.0 33.45 -47.85 Q33.45 -47.55 33.75 -47.55 L33.95 -47.6 34.3 -47.8 34.4 -47.85 Q36.1 -48.65 37.8 -47.85" fill="#f7c266" fill-rule="evenodd" stroke="none"/>
    <path d="M33.75 -47.55 Q33.45 -47.55 33.45 -47.85 L33.5 -48.0 34.4 -49.7 29.75 -51.8 26.6 -45.95 26.3 -46.1 29.6 -52.2 34.85 -49.8 33.75 -47.85 34.25 -48.15 Q36.1 -49.05 37.95 -48.15 42.1 -46.1 39.3 -41.1 L38.75 -40.1 38.5 -40.25 39.0 -41.2 39.0 -41.25 Q40.25 -43.5 39.9 -45.2 39.65 -46.95 37.8 -47.85 36.1 -48.65 34.4 -47.85 L34.3 -47.8 33.95 -47.6 33.75 -47.55 M34.1 -43.35 L34.05 -43.35 33.9 -43.0 33.9 -42.95 33.8 -42.85 33.55 -42.95 33.8 -43.5 Q34.25 -44.5 33.35 -44.8 32.5 -45.1 31.65 -43.85 L31.4 -44.0 Q32.3 -45.55 33.5 -45.1 33.9 -44.95 34.1 -44.55 34.4 -44.1 34.1 -43.35" fill="#666666" fill-rule="evenodd" stroke="none"/>
    <path d="M-26.25 -46.35 L-30.2 -44.35 -34.15 -48.7 -29.5 -51.45 -26.25 -46.35" fill="#f7c266" fill-rule="evenodd" stroke="none"/>
    <path d="M-25.95 -46.5 Q-26.05 -46.45 -26.25 -46.35 L-29.5 -51.45 -34.15 -48.7 -30.2 -44.35 -30.5 -44.2 -34.65 -48.8 -29.4 -51.85 -25.95 -46.5" fill="#666666" fill-rule="evenodd" stroke="none"/>
    <path d="M9.8 -50.2 Q10.95 -54.0 14.75 -55.3 L14.8 -55.35 Q16.95 -56.05 19.35 -55.35 L19.4 -55.35 Q22.6 -54.5 24.2 -52.0 25.75 -49.55 25.15 -46.5 L19.8 -48.15 Q19.8 -49.6 18.45 -50.2 L18.4 -50.2 17.6 -50.4 Q16.1 -50.55 15.35 -49.2 L9.8 -50.2" fill="#f7c266" fill-rule="evenodd" stroke="none"/>
    <path d="M15.35 -49.2 Q16.1 -50.55 17.6 -50.4 L18.4 -50.2 18.45 -50.2 Q19.8 -49.6 19.8 -48.15 L19.5 -48.2 Q19.4 -49.4 18.3 -49.9 L17.6 -50.1 Q16.3 -50.2 15.7 -49.15 L15.35 -49.2 M14.75 -55.3 Q10.95 -54.0 9.8 -50.2 L9.55 -50.25 Q10.7 -54.3 14.7 -55.6 L19.45 -55.7 Q22.8 -54.75 24.5 -52.15 26.1 -49.55 25.45 -46.35 L25.15 -46.5 Q25.75 -49.55 24.2 -52.0 22.6 -54.5 19.4 -55.35 L19.35 -55.35 Q16.95 -56.05 14.8 -55.35 L14.75 -55.3" fill="#666666" fill-rule="evenodd" stroke="none"/>
    <path d="M-20.6 -53.85 L-20.3 -48.8 -24.9 -46.95 -25.7 -52.9 -20.6 -53.85" fill="#f7c266" fill-rule="evenodd" stroke="none"/>
    <path d="M-20.3 -54.2 L-20.0 -48.9 -20.3 -48.8 -20.6 -53.85 -25.7 -52.9 -24.9 -46.95 -25.25 -46.85 -26.05 -53.15 -20.3 -54.2" fill="#666666" fill-rule="evenodd" stroke="none"/>
    <path d="M6.3 -62.5 L7.85 -50.5 2.2 -51.0 2.0 -52.5 2.05 -52.5 1.7 -52.85 1.4 -52.6 0.9 -51.1 -5.25 -51.3 -5.7 -52.35 -5.95 -52.5 Q-6.3 -52.5 -6.3 -52.25 L-6.3 -51.3 -11.9 -50.8 -11.25 -61.8 -5.5 -62.05 -2.5 -54.35 -2.45 -54.35 -2.2 -54.15 -1.9 -54.4 0.6 -62.25 6.3 -62.5" fill="#f7c266" fill-rule="evenodd" stroke="none"/>
    <path d="M0.6 -62.25 L-1.9 -54.4 -2.2 -54.15 -2.45 -54.35 -2.5 -54.35 -5.5 -62.05 -11.25 -61.8 -11.9 -50.8 -12.2 -50.8 -11.55 -62.1 -5.3 -62.35 -2.2 -54.45 0.35 -62.55 6.6 -62.85 8.15 -50.4 7.85 -50.5 6.3 -62.5 0.6 -62.25 M-5.95 -52.5 L-5.7 -52.35 -5.25 -51.3 -5.6 -51.3 -5.95 -52.2 -6.0 -51.3 -6.3 -51.3 -6.3 -52.25 Q-6.3 -52.5 -5.95 -52.5 M2.0 -52.5 L2.2 -51.0 1.85 -51.05 1.7 -52.5 1.25 -51.05 0.9 -51.1 1.4 -52.6 1.7 -52.85 2.05 -52.5 2.0 -52.5" fill="#666666" fill-rule="evenodd" stroke="none"/>
    <path d="M70.85 -8.3 L64.1 -7.35 62.75 -11.6 69.45 -13.3 70.85 -8.3 M64.6 -21.4 L67.7 -16.95 62.35 -12.65 60.45 -16.9 64.6 -21.4" fill="#f7c266" fill-rule="evenodd" stroke="none"/>
    <path d="M69.45 -13.3 L62.75 -11.6 62.65 -11.9 69.7 -13.7 71.3 -8.0 64.2 -7.0 64.1 -7.35 70.85 -8.3 69.45 -13.3 M64.65 -21.85 L68.15 -16.9 62.5 -12.35 62.35 -12.65 67.7 -16.95 64.6 -21.4 60.45 -16.9 60.3 -17.2 61.75 -18.8 61.45 -18.9 62.85 -20.4 62.6 -19.7 64.65 -21.85" fill="#666666" fill-rule="evenodd" stroke="none"/>
    <path d="M-37.4 14.35 Q-35.5 11.25 -31.35 10.1 L-31.7 11.75 Q-33.35 12.5 -34.55 13.6 -37.35 16.15 -37.35 19.9 L-37.2 21.1 Q-36.9 22.6 -35.65 24.1 L-36.65 25.3 -38.2 22.75 Q-39.95 18.7 -37.4 14.35" fill="#d79358" fill-rule="evenodd" stroke="none"/>
    <path d="M-37.9 14.05 Q-35.9 10.55 -31.2 9.4 L-31.35 10.1 Q-35.5 11.25 -37.4 14.35 -39.95 18.7 -38.2 22.75 L-36.65 25.3 -37.1 25.75 -38.75 23.0 Q-40.65 18.7 -37.9 14.05" fill="#000000" fill-rule="evenodd" stroke="none"/>
    <path d="M-37.2 21.1 Q-36.65 16.9 -33.15 14.4 L-32.1 13.75 Q-32.85 17.35 -33.55 19.45 -34.65 22.6 -35.65 24.1 -36.9 22.6 -37.2 21.1" fill="#ebc9ac" fill-rule="evenodd" stroke="none"/>
    <path d="M-36.8 17.1 Q-36.05 14.95 -34.55 13.6 -33.35 12.5 -31.7 11.75 L-32.1 13.75 -33.15 14.4 Q-36.65 16.9 -37.2 21.1 -37.6 19.3 -36.8 17.1" fill="#88572c" fill-rule="evenodd" stroke="none"/>
    <path d="M22.3 -15.05 L22.45 -15.05 22.5 -15.05 22.8 -14.95 24.15 -14.2 Q26.7 -12.65 30.35 -8.9 34.8 -4.4 34.15 5.85 33.65 13.9 30.2 24.15 28.25 30.1 19.65 41.7 L14.05 49.5 Q11.5 53.3 11.15 55.4 10.45 60.5 11.8 64.8 L11.7 64.8 10.05 65.4 Q7.05 66.2 4.05 66.2 L-3.05 65.9 -4.65 65.75 Q-3.3 61.6 -4.55 56.3 -5.15 53.85 -6.65 53.1 L-6.3 52.95 Q0.35 51.0 6.85 47.15 19.8 39.5 18.85 30.15 18.65 28.1 16.0 25.5 L13.45 23.25 Q18.95 15.45 18.95 10.4 18.95 6.0 16.05 2.8 13.05 -0.6 7.95 -1.55 1.3 -2.75 -7.65 2.15 -12.15 4.6 -15.3 7.3 -15.3 2.6 -18.2 0.3 -19.15 -0.45 -20.05 -0.8 -20.3 -8.25 -16.9 -11.95 -13.75 -15.35 -8.5 -17.5 -5.9 -18.6 -3.9 -19.0 L-6.0 -18.7 -3.1 -19.1 2.2 -19.5 5.45 -19.45 4.2 -21.5 15.2 -17.3 13.2 -22.95 22.15 -15.2 22.3 -15.05 M-11.9 53.95 L-13.9 54.05 Q-18.3 54.05 -23.2 52.55 -17.25 54.25 -11.9 53.95 M-32.9 39.35 L-34.75 30.7 Q-34.0 32.95 -32.9 39.35" fill="#774519" fill-rule="evenodd" stroke="none"/>
    <path d="M31.25 -9.75 Q39.7 -0.8 31.4 24.6 29.35 30.75 20.65 42.45 12.7 53.1 12.4 55.6 11.9 59.15 12.5 62.35 L12.95 64.25 13.15 64.85 13.15 64.9 13.4 65.4 12.85 65.7 Q9.35 67.5 4.05 67.5 L-3.2 67.15 -5.6 66.85 -6.4 66.7 -6.05 66.0 Q-4.35 62.25 -5.8 56.6 -6.15 55.2 -6.8 54.5 L-7.1 54.3 Q-15.5 57.15 -26.3 52.75 -30.8 50.95 -33.35 46.2 -35.25 42.6 -35.0 40.7 -34.9 39.95 -34.15 39.5 L-34.1 39.5 -36.0 30.8 -37.8 29.35 -38.5 28.0 Q-38.75 27.0 -37.9 26.4 -35.15 24.3 -33.55 19.45 -32.85 17.3 -31.85 12.4 L-29.7 3.25 Q-25.75 -11.4 -16.55 -16.7 -9.7 -20.6 3.2 -20.75 L1.3 -24.0 13.1 -19.45 10.4 -27.05 22.85 -16.25 Q25.65 -15.5 31.25 -9.75 M22.15 -15.2 L13.2 -22.95 15.2 -17.3 4.2 -21.5 5.45 -19.45 2.2 -19.5 -3.1 -19.1 Q-7.8 -18.6 -11.3 -17.55 -14.05 -16.75 -15.7 -15.75 L-16.0 -15.65 Q-24.05 -10.9 -27.8 1.15 L-28.5 3.55 -29.0 5.55 -29.35 6.0 Q-30.4 7.05 -30.75 8.65 L-30.75 8.6 -30.85 8.95 Q-31.45 11.1 -30.65 12.75 L-31.45 16.6 -32.35 19.85 Q-34.1 25.1 -37.15 27.4 L-37.25 27.6 -37.3 27.65 Q-37.5 28.25 -35.25 29.95 L-35.05 30.1 -34.75 30.7 -32.75 40.0 -33.75 40.75 -33.8 40.9 -33.8 41.05 Q-33.9 42.75 -32.15 45.9 -29.75 50.0 -25.9 51.65 L-23.2 52.55 Q-17.15 54.45 -11.9 53.95 -9.2 53.9 -7.2 53.25 L-6.65 53.1 Q-5.15 53.85 -4.55 56.3 -3.3 61.6 -4.65 65.75 L-3.05 65.9 4.05 66.2 Q7.05 66.2 10.05 65.4 L11.7 64.8 11.8 64.8 Q10.45 60.5 11.15 55.4 11.5 53.3 14.05 49.5 L19.65 41.7 Q28.25 30.1 30.2 24.15 33.65 13.9 34.15 5.85 34.8 -4.4 30.35 -8.9 26.7 -12.65 24.15 -14.2 L22.8 -14.95 22.5 -15.05 22.45 -15.05 22.3 -15.05 22.15 -15.2" fill="#000000" fill-rule="evenodd" stroke="none"/>
    <path d="M24.05 -14.2 Q26.55 -12.6 30.25 -8.9 35.25 -3.95 34.4 6.05 33.8 13.05 30.0 24.0 27.2 32.1 19.55 42.1 L14.4 49.0 Q12.0 52.75 11.2 55.9 10.2 59.65 11.95 65.0 8.75 66.2 3.6 66.2 3.5 62.8 3.9 57.75 4.8 47.65 7.5 39.35 10.35 30.65 15.8 25.15 28.3 12.65 29.55 3.6 30.7 -4.55 26.55 -10.6 25.3 -12.5 23.65 -13.95 L22.25 -15.05 24.05 -14.2" fill="#47290f" fill-rule="evenodd" stroke="none"/>
    <path d="M-8.5 -17.5 Q-13.75 -15.35 -16.9 -11.95 -20.3 -8.25 -20.05 -0.8 L-24.2 -0.7 Q-26.4 0.4 -27.8 3.45 L-28.55 5.25 -28.8 5.3 -29.0 5.5 -28.6 3.95 Q-26.75 -2.8 -24.5 -6.8 -21.15 -12.7 -15.7 -15.75 -11.9 -17.9 -3.9 -19.0 -5.9 -18.6 -8.5 -17.5" fill="#47290f" fill-rule="evenodd" stroke="none"/>
    <path d="M23.8 20.45 Q25.75 17.5 27.55 16.25 31.7 13.45 36.0 13.45 41.25 13.45 44.75 17.65 48.8 22.55 44.95 29.65 40.65 37.5 33.5 37.5 26.95 37.5 20.65 32.65 L23.55 27.95 21.5 28.1 25.05 22.35 22.3 23.15 23.8 20.45" fill="#d79358" fill-rule="evenodd" stroke="none"/>
    <path d="M23.8 20.45 Q25.75 17.5 27.55 16.25 31.7 13.45 36.0 13.45 41.25 13.45 44.75 17.65 48.8 22.55 44.95 29.65 40.65 37.5 33.5 37.5 26.95 37.5 20.65 32.65 L23.55 27.95 21.5 28.1 25.05 22.35 22.3 23.15 23.8 20.45 Z" fill="none" stroke="#000000" stroke-linecap="round" stroke-linejoin="round" stroke-width="1.0"/>
    <path d="M29.9 18.0 Q32.75 16.25 35.3 16.25 38.0 16.25 40.35 17.55 42.55 18.8 43.4 20.65 45.25 24.3 42.6 28.85 39.3 34.6 33.9 34.6 29.05 34.6 25.2 32.05 23.8 31.15 26.35 29.25 27.55 28.3 28.0 26.7 28.5 24.95 27.55 23.5 26.75 22.2 26.75 21.4 L27.0 20.8 Q27.4 19.55 29.9 18.0" fill="#ebc9ac" fill-rule="evenodd" stroke="none"/>
    <path d="M28.95 19.9 L26.75 21.3 Q27.15 19.55 29.8 17.9 32.55 16.25 35.3 16.25 38.0 16.25 40.35 17.55 42.55 18.8 43.4 20.65 45.25 24.3 42.6 28.85 40.95 31.8 38.15 33.4 L40.05 31.15 Q42.65 27.45 41.85 23.65 41.25 20.9 38.9 19.45 36.75 18.1 33.9 18.3 31.6 18.4 28.95 19.9" fill="#88572c" fill-rule="evenodd" stroke="none"/>
    <path d="M5.35 6.1 Q-0.15 10.95 -4.2 13.2 L-5.3 13.85 -9.8 15.7 -9.4 16.25 -9.45 16.25 -9.35 16.25 Q-7.65 18.15 -5.45 18.85 -0.65 20.3 4.45 17.5 L4.5 17.5 4.7 17.4 4.9 17.25 Q9.8 14.4 8.65 8.1 L8.6 7.95 Q9.9 8.6 11.15 10.2 12.05 9.35 10.25 6.7 9.05 5.0 8.05 4.85 L8.0 4.7 7.75 4.85 Q6.8 4.85 5.35 6.1 M16.0 25.5 Q18.65 28.1 18.85 30.15 19.8 39.5 6.85 47.15 0.35 51.0 -6.3 52.95 -9.2 54.0 -13.15 54.0 -19.1 54.0 -25.05 51.95 -29.4 50.5 -32.05 46.05 -34.1 42.6 -33.8 41.0 -33.7 40.55 -33.25 40.2 L-32.75 40.0 -33.65 35.25 Q-34.65 30.4 -35.05 30.1 -37.8 28.0 -37.15 27.45 -34.05 25.0 -32.25 19.7 L-30.65 12.75 -30.3 13.5 Q-29.7 14.7 -27.45 15.7 -25.35 16.6 -23.3 16.8 L-22.7 16.85 Q-20.6 16.7 -19.5 15.15 -22.8 11.1 -23.2 10.15 L-24.8 6.75 -25.45 5.75 Q-25.9 5.25 -26.8 5.2 L-27.4 5.1 -27.9 5.15 -28.55 5.25 -27.8 3.45 Q-26.05 -0.35 -23.25 -1.05 -20.65 -1.7 -18.2 0.3 -15.3 2.6 -15.3 7.3 -12.15 4.6 -7.65 2.15 1.3 -2.75 7.95 -1.55 13.05 -0.6 16.05 2.8 18.95 6.0 18.95 10.4 18.95 15.45 13.45 23.25 L16.0 25.5" fill="#d79358" fill-rule="evenodd" stroke="none"/>
    <path d="M13.5 23.25 L16.05 25.5 Q18.7 28.1 18.9 30.15 19.9 39.5 6.9 47.15 0.45 51.0 -6.25 52.95 -9.95 54.3 -15.4 53.95 -20.3 53.55 -25.0 51.95 -30.55 50.1 -33.05 43.9 L-32.05 45.05 -29.1 47.6 Q-23.9 51.3 -17.55 51.3 -11.3 51.3 -6.75 50.15 -2.95 49.2 1.25 46.9 5.9 44.45 9.7 40.5 12.95 37.1 13.7 34.8 14.9 31.05 11.45 27.7 L8.9 25.8 7.7 25.15 Q15.6 15.15 16.5 11.1 17.3 7.55 16.15 4.2 L14.9 1.55 Q19.0 5.05 19.0 10.4 19.0 15.45 13.5 23.25" fill="#a76e3d" fill-rule="evenodd" stroke="none"/>
    <path d="M-32.4 31.65 Q-28.9 33.2 -24.8 33.4 -14.5 34.0 -7.1 33.15 -3.65 32.7 3.0 29.95 0.3 35.8 -2.0 39.45 -5.4 44.9 -11.85 45.3 -21.9 46.05 -25.55 45.05 -30.45 43.7 -32.45 40.8 -32.9 40.1 -35.05 30.1 L-32.4 31.65" fill="#ffffff" fill-rule="evenodd" stroke="none"/>
    <path d="M8.65 8.1 Q9.65 13.6 6.05 16.45 7.65 15.15 8.35 13.2 7.85 9.9 4.65 9.05 6.5 7.6 7.6 7.65 L8.6 7.95 8.65 8.1 M8.05 4.85 L7.75 4.85 8.0 4.7 8.05 4.85 M-1.7 13.9 Q-1.7 17.5 1.7 18.7 L-2.3 19.3 -5.45 18.85 Q-7.65 18.15 -9.35 16.25 -4.95 15.5 -1.7 13.75 L-1.7 13.9 M-9.8 15.7 L-5.3 13.85 -9.4 16.25 -9.8 15.7" fill="#ffffff" fill-rule="evenodd" stroke="none"/>
    <path d="M-25.45 5.75 L-24.8 6.75 Q-25.75 5.45 -26.8 5.2 -25.9 5.25 -25.45 5.75 M-27.9 5.15 Q-28.65 5.3 -29.35 6.0 L-28.8 5.3 -27.9 5.15 M-30.75 8.6 Q-29.2 7.55 -27.55 8.05 -26.3 8.45 -25.5 9.8 -27.1 11.05 -27.1 13.05 -27.1 15.1 -25.5 16.4 L-24.65 16.6 -27.45 15.7 Q-29.7 14.7 -30.3 13.5 -31.5 11.15 -30.85 8.95 L-30.75 8.6" fill="#ffffff" fill-rule="evenodd" stroke="none"/>
    <path d="M-1.7 13.75 L0.35 12.5 4.65 9.05 Q7.85 9.9 8.35 13.2 7.4 15.75 4.9 17.25 3.55 18.1 1.7 18.7 -1.7 17.5 -1.7 13.9 L-1.7 13.75" fill="#000000" fill-rule="evenodd" stroke="none"/>
    <path d="M7.75 4.85 L2.15 9.0 0.1 10.75 Q-1.0 11.9 -5.3 13.85 L-4.2 13.2 Q-0.15 10.95 5.35 6.1 6.8 4.85 7.75 4.85 M8.05 4.85 Q9.05 5.0 10.25 6.7 12.05 9.35 11.15 10.2 9.9 8.6 8.6 7.95 L8.05 4.85" fill="#8f5e33" fill-rule="evenodd" stroke="none"/>
    <path d="M8.05 4.85 L8.6 7.95 7.6 7.65 Q6.5 7.6 4.65 9.05 L3.35 8.85 2.15 9.0 7.75 4.85 8.05 4.85 M-1.2 11.75 Q-1.65 12.65 -1.7 13.75 -4.95 15.5 -9.35 16.25 L-9.4 16.25 -5.3 13.85 Q-1.85 12.3 -0.45 11.25 L-1.2 11.75" fill="#a39487" fill-rule="evenodd" stroke="none"/>
    <path d="M0.1 10.75 L2.15 9.0 3.35 8.85 4.65 9.05 0.35 12.5 -1.7 13.75 Q-1.65 12.65 -1.2 11.75 L0.1 10.75" fill="#241508" fill-rule="evenodd" stroke="none"/>
    <path d="M-14.3 11.65 L-14.35 13.85 Q-13.9 16.0 -11.6 16.0 -6.65 16.0 -1.05 11.45 L5.75 5.65 Q8.25 3.4 10.05 6.45 11.05 8.1 11.4 10.15" fill="none" stroke="#47290f" stroke-linecap="round" stroke-linejoin="round" stroke-width="2.0"/>
    <path d="M-18.8 10.85 L-19.0 11.75 -18.75 13.85 Q-18.1 15.4 -17.0 16.0" fill="none" stroke="#47290f" stroke-linecap="round" stroke-linejoin="round" stroke-width="2.0"/>
    <path d="M-25.5 16.4 Q-27.1 15.1 -27.1 13.05 -27.1 11.05 -25.5 9.8 L-24.2 12.0 Q-23.05 13.75 -19.5 15.15 -20.7 16.85 -22.9 16.85 L-23.3 16.8 -25.5 16.4" fill="#000000" fill-rule="evenodd" stroke="none"/>
    <path d="M-30.75 8.6 L-30.75 8.65 Q-30.4 7.05 -29.35 6.0 -30.25 7.2 -30.75 8.6" fill="#241508" fill-rule="evenodd" stroke="none"/>
    <path d="M-22.95 10.95 L-23.0 10.9 -23.8 8.95 -24.8 6.75 -23.2 10.15 Q-22.8 11.1 -19.5 15.15 L-22.8 11.25 -22.95 10.95" fill="#8f5e33" fill-rule="evenodd" stroke="none"/>
    <path d="M-29.35 6.0 Q-28.65 5.3 -27.9 5.15 L-26.8 5.2 Q-25.75 5.45 -24.8 6.75 L-23.8 8.95 Q-24.8 9.2 -25.5 9.8 -26.3 8.45 -27.55 8.05 -29.2 7.55 -30.75 8.6 -30.25 7.2 -29.35 6.0" fill="#a39487" fill-rule="evenodd" stroke="none"/>
    <path d="M-25.5 9.8 Q-24.8 9.2 -23.8 8.95 L-22.8 11.25 -19.5 15.15 Q-23.05 13.75 -24.2 12.0 L-25.5 9.8" fill="#241508" fill-rule="evenodd" stroke="none"/>
    <path d="M-18.4 15.0 Q-20.05 15.25 -21.25 13.25 -23.55 8.3 -24.6 6.95 -26.65 4.35 -28.45 5.05 L-29.65 5.6" fill="none" stroke="#47290f" stroke-linecap="round" stroke-linejoin="round" stroke-width="2.0"/>
    <path d="M6.15 14.0 Q5.15 14.4 4.55 12.8 3.95 11.25 4.95 10.8 6.05 10.4 6.6 12.0 7.2 13.6 6.15 14.0" fill="#ffffff" fill-rule="evenodd" stroke="none"/>
    <path d="M-26.7 24.25 Q-26.7 23.05 -25.0 22.15 -23.25 21.3 -20.8 21.3 -18.4 21.3 -16.65 22.15 -14.9 23.05 -14.9 24.25 -14.9 25.5 -16.65 26.35 -18.4 27.25 -20.8 27.25 -23.25 27.25 -25.0 26.35 -26.7 25.5 -26.7 24.25 M-25.4 23.8 Q-25.4 24.9 -24.0 25.6 -22.55 26.35 -20.6 26.35 -18.6 26.35 -17.2 25.6 -15.8 24.9 -15.8 23.8 -15.8 22.8 -17.2 22.05 -18.6 21.3 -20.6 21.3 -22.55 21.3 -24.0 22.05 -25.4 22.8 -25.4 23.8" fill="#774519" fill-rule="evenodd" stroke="none"/>
    <path d="M-23.0 31.4 L-22.55 26.7 -20.4 26.6 -23.0 31.4" fill="#774519" fill-rule="evenodd" stroke="none"/>
    <path d="M-35.15 30.0 L-33.95 30.8 -32.85 35.25 Q-31.35 36.75 -27.55 38.6 L-32.5 37.1 -31.4 42.1 -32.85 40.1 -35.15 30.0" fill="#7f7f7f" fill-rule="evenodd" stroke="none"/>
    <path d="M-21.3 39.2 L-11.4 39.0 Q-4.8 38.75 0.0 35.95 L-1.25 38.25 -6.7 39.2 -15.8 39.5 -21.3 39.2" fill="#7f7f7f" fill-rule="evenodd" stroke="none"/>
  </g>
</svg>
