<?xml version="1.0" encoding="UTF-8" standalone="no"?>
<svg xmlns:ffdec="https://www.free-decompiler.com/flash" xmlns:xlink="http://www.w3.org/1999/xlink" ffdec:objectType="shape" height="71.75px" width="30.75px" xmlns="http://www.w3.org/2000/svg">
  <g transform="matrix(1.0, 0.0, 0.0, 1.0, 21.25, 64.25)">
    <path d="M3.55 -54.9 L5.8 -43.6 7.3 -33.8 Q8.5 -24.95 9.05 -16.0 L9.15 -14.5 9.5 -5.2 9.45 4.75 Q5.35 2.05 1.85 2.35 2.55 0.2 1.65 -1.75 0.7 -3.75 -0.85 -3.1 -2.5 -2.45 -1.95 -0.25 -1.5 1.6 -0.4 2.85 -3.3 4.0 -5.7 7.5 L-8.35 1.75 -8.7 0.95 Q-11.4 -5.7 -13.8 -14.5 L-14.2 -16.0 Q-15.75 -21.7 -17.15 -28.3 L-19.2 -38.9 -20.45 -46.0 -21.25 -51.0 Q-20.6 -56.55 -16.75 -60.7 L-16.15 -61.3 Q-11.8 -65.65 -4.9 -63.6 L-3.95 -63.3 Q2.05 -61.25 3.05 -57.0 L3.55 -54.9" fill="url(#gradient0)" fill-rule="evenodd" stroke="none"/>
  </g>
  <defs>
    <radialGradient cx="0" cy="0" gradientTransform="matrix(0.025, -0.005, 0.0145, 0.0734, -8.0, -38.0)" gradientUnits="userSpaceOnUse" id="gradient0" r="819.2" spreadMethod="pad">
      <stop offset="0.0" stop-color="#ffd700"/>
      <stop offset="0.3215686274509804" stop-color="#804000"/>
      <stop offset="0.5333333333333333" stop-color="#000000"/>
      <stop offset="0.7333333333333333" stop-color="#391d00"/>
      <stop offset="0.9372549019607843" stop-color="#000000"/>
    </radialGradient>
  </defs>
</svg>
