<?xml version="1.0" encoding="UTF-8" standalone="no"?>
<svg xmlns:ffdec="https://www.free-decompiler.com/flash" xmlns:xlink="http://www.w3.org/1999/xlink" ffdec:objectType="shape" height="156.9px" width="359.5px" xmlns="http://www.w3.org/2000/svg">
  <g transform="matrix(1.0, 0.0, 0.0, 1.0, 179.75, 79.4)">
    <path d="M23.5 -77.0 L24.0 -75.45 20.0 -75.45 19.8 -76.6 20.0 -75.45 24.0 -75.45 27.7 -63.75 35.7 -38.5 38.95 -28.25 40.95 -21.9 42.4 -17.3 43.95 -12.4 37.2 -10.9 43.95 -12.4 45.5 -7.5 50.5 1.05 Q45.8 1.3 41.75 3.05 L40.7 3.55 37.2 -10.85 37.2 -10.9 30.2 -38.05 23.55 -64.0 23.55 -64.05 20.0 -75.25 19.95 -75.45 19.8 -76.6 19.7 -77.0 Q20.4 -80.8 23.5 -77.0 M178.0 -1.15 L176.5 1.25 154.5 3.05 120.45 5.85 120.4 5.85 93.5 8.05 81.7 6.5 78.55 6.05 85.95 5.5 119.7 3.05 154.05 0.6 154.5 3.05 154.05 0.6 178.0 -1.15 M139.75 14.25 L139.75 18.75 126.05 20.3 125.9 20.3 86.65 24.75 86.5 24.75 77.5 25.75 Q77.45 23.0 76.85 20.5 L85.15 19.7 124.85 15.75 139.75 14.25 M28.7 37.05 L22.25 36.5 20.1 36.95 1.25 41.0 -15.3 44.5 -16.5 44.75 Q-21.0 46.55 -22.8 49.25 L-22.65 46.05 Q-22.65 43.9 -22.95 41.9 -18.5 43.2 -16.0 41.9 L-15.3 44.5 -16.0 41.9 0.45 38.45 1.25 41.0 0.45 38.45 19.95 34.3 21.25 34.0 Q24.9 33.2 26.8 30.65 27.15 32.95 27.9 35.1 L28.7 37.05 M-70.4 57.9 L-80.3 60.4 -122.55 71.05 -138.25 75.0 -135.5 70.0 -122.45 66.7 -122.55 71.05 -122.45 66.7 -80.95 56.2 -80.3 60.4 -80.95 56.2 -72.05 53.95 -70.4 57.9 M-93.85 47.4 L-115.7 55.6 -153.7 69.85 -172.75 77.0 -179.25 76.5 -153.85 66.75 -153.7 69.85 -153.85 66.75 -115.85 52.15 -88.55 41.65 -88.65 44.55 -93.85 47.4 M-58.1 -8.3 L-59.15 -20.75 -59.3 -22.5 -59.45 -24.0 -60.5 -35.2 -61.5 -45.55 -63.75 -67.25 -59.7 -46.45 -54.85 -21.25 -50.0 4.0 -57.1 6.3 -50.0 4.0 -47.0 19.5 -57.0 21.5 Q-56.75 20.2 -56.7 17.2 -56.7 14.45 -57.0 8.85 L-57.1 6.3 -57.45 0.75 -58.1 -8.3 M20.0 -75.25 L20.0 -75.45 19.95 -75.45 20.0 -75.45 20.0 -75.25 M27.7 -63.75 L23.55 -64.05 27.7 -63.75 M35.7 -38.5 L30.2 -38.05 35.7 -38.5 M125.9 20.3 L124.85 15.75 125.9 20.3 M120.4 5.85 L119.7 3.05 120.4 5.85 M86.5 24.75 L85.15 19.7 86.5 24.75 M20.1 36.95 L19.95 34.3 20.1 36.95 M-54.85 -21.25 L-59.15 -20.75 -54.85 -21.25 M-61.5 -45.55 L-59.7 -46.45 -61.5 -45.55 M-115.7 55.6 L-115.85 52.15 -115.7 55.6" fill="#999999" fill-rule="evenodd" stroke="none"/>
    <path d="M-63.75 -67.25 Q-62.5 -68.9 -61.25 -67.25 L-56.65 -45.6 -51.85 -22.75 -49.8 -13.05 Q-48.1 -4.9 -46.65 -0.25 L-50.0 4.0 -46.65 -0.25 -45.7 2.6 Q-44.95 4.7 -44.25 5.5 L-45.95 14.1 -47.0 19.5 -50.0 4.0 -54.85 -21.25 -59.7 -46.45 -63.75 -67.25 M28.5 -27.85 L27.95 -30.95 27.95 -31.0 27.85 -31.4 22.6 -60.55 20.0 -75.25 23.55 -64.05 23.55 -64.0 30.2 -38.05 27.85 -31.4 30.2 -38.05 37.2 -10.9 37.2 -10.85 35.2 -5.65 37.2 -10.85 40.7 3.55 36.0 -4.5 35.2 -5.65 31.5 -11.0 30.75 -15.2 30.75 -15.25 30.0 -19.45 28.5 -27.85 M23.55 -64.0 L22.6 -60.55 23.55 -64.0 M-54.85 -21.25 L-51.85 -22.75 -54.85 -21.25 M-56.65 -45.6 L-59.7 -46.45 -56.65 -45.6" fill="#dddddd" fill-rule="evenodd" stroke="none"/>
    <path d="M-39.55 -27.1 Q-40.9 -30.15 -40.5 -33.35 L-40.0 -35.65 -39.35 -37.45 Q-37.85 -40.8 -36.0 -42.85 L-35.0 -43.85 Q-33.3 -45.4 -31.25 -45.75 L-35.1 -37.05 -37.55 -31.55 -38.1 -30.3 -39.55 -27.1 M3.25 -54.25 L4.5 -53.45 Q8.5 -50.85 11.05 -47.85 14.95 -43.35 15.5 -38.0 L11.05 -41.95 4.7 -47.6 -0.55 -52.3 -1.5 -54.0 Q-0.3 -55.4 3.25 -54.25 M11.05 -41.95 Q10.1 -45.2 11.05 -47.85 10.1 -45.2 11.05 -41.95 M4.5 -53.45 Q5.45 -50.1 4.7 -47.6 5.45 -50.1 4.5 -53.45 M-35.1 -37.05 Q-36.55 -39.75 -36.0 -42.85 -36.55 -39.75 -35.1 -37.05 M-40.0 -35.65 Q-38.15 -34.35 -37.55 -31.55 -38.15 -34.35 -40.0 -35.65" fill="#cccccc" fill-rule="evenodd" stroke="none"/>
    <path d="M38.95 -28.25 Q51.6 -27.25 62.55 -24.0 L67.15 -22.5 Q75.8 -19.45 83.25 -14.85 L155.25 -12.8 174.25 -12.25 178.5 -9.15 Q171.6 -7.95 164.75 -7.65 L162.15 -7.55 Q153.0 -7.5 143.9 -9.1 129.9 -11.8 118.2 -8.8 113.6 -7.65 108.5 -7.4 100.55 -7.1 91.35 -9.15 L94.4 -6.55 Q86.1 -12.05 85.25 -9.25 L83.45 -11.0 Q76.4 -17.3 67.25 -18.75 63.3 -13.95 50.5 -21.9 L49.35 -22.5 Q44.95 -24.55 41.8 -22.5 L40.95 -21.9 38.95 -28.25 M93.5 8.05 L113.5 10.75 108.5 11.4 93.35 12.0 Q82.65 11.65 81.7 6.5 L93.5 8.05 M77.5 25.75 L77.5 26.5 Q77.5 31.15 76.05 35.2 74.2 40.35 70.0 44.5 62.55 52.0 52.0 52.0 L47.55 51.65 Q39.8 50.35 33.95 44.5 30.55 41.1 28.7 37.05 L27.9 35.1 Q27.15 32.95 26.8 30.65 26.5 28.65 26.5 26.5 L26.55 24.8 Q26.65 22.8 27.1 20.9 L27.3 19.9 Q28.85 13.8 33.45 8.95 L33.95 8.45 Q37.05 5.35 40.7 3.55 L41.75 3.05 Q45.8 1.3 50.5 1.05 L52.0 1.0 53.0 1.05 Q56.95 1.15 60.45 2.35 49.5 -11.8 43.95 -12.4 L42.4 -17.3 46.8 -14.7 Q53.55 -10.4 58.15 -5.25 62.05 -0.85 64.45 4.15 67.4 5.85 70.0 8.45 L71.8 10.4 Q73.8 12.8 75.1 15.5 76.25 17.9 76.85 20.5 77.45 23.0 77.5 25.75 M-22.8 49.25 Q-23.8 57.7 -30.05 63.95 L-31.5 65.3 Q-38.45 71.35 -47.95 71.35 -58.45 71.35 -65.85 63.95 -68.65 61.15 -70.4 57.9 L-72.05 53.95 Q-72.85 51.55 -73.1 49.0 L-73.25 46.05 -73.15 44.1 -72.85 41.5 -72.25 38.8 Q-71.65 36.7 -70.65 34.75 -71.65 36.7 -72.25 38.8 L-72.85 41.5 -73.15 44.1 -84.05 45.9 -87.35 49.3 Q-92.05 54.6 -105.25 53.6 L-93.85 47.4 -88.65 44.55 -70.65 34.75 -69.0 31.95 -67.35 29.75 -65.85 28.15 Q-62.85 25.15 -59.35 23.4 -54.2 20.75 -47.95 20.75 L-46.65 20.8 Q-39.8 21.1 -34.3 24.7 -32.05 26.15 -30.05 28.15 L-27.95 30.5 -27.95 21.85 -27.95 19.0 Q-27.25 12.7 -31.25 9.5 -34.0 7.4 -36.4 6.3 -41.05 4.05 -44.25 5.5 -44.95 4.7 -45.7 2.6 -39.85 0.9 -29.8 7.15 -27.8 8.4 -26.6 10.65 L-25.9 12.35 -25.4 14.05 Q-25.05 15.85 -24.95 18.05 -24.65 26.15 -22.45 34.65 L-25.25 34.7 -26.75 32.1 -27.95 30.5 -26.75 32.1 -25.25 34.7 Q-23.55 38.05 -22.95 41.9 -22.65 43.9 -22.65 46.05 L-22.8 49.25 M-162.95 55.35 L-91.05 20.05 Q-79.5 -2.95 -58.1 -8.3 L-57.45 0.75 Q-63.3 -4.75 -76.75 9.25 -78.75 11.25 -80.75 9.25 -89.95 19.0 -93.7 31.25 -94.85 34.95 -95.5 38.85 L-98.75 41.25 Q-97.5 36.3 -95.95 31.85 -98.65 33.95 -102.0 35.1 -104.45 35.95 -107.25 36.25 -124.9 39.85 -168.65 64.0 L-162.95 55.35 M15.5 -38.0 Q21.55 -30.45 28.5 -27.85 L30.0 -19.45 22.75 -28.0 Q18.2 -30.85 15.5 -28.0 12.5 -33.7 8.3 -38.5 5.2 -41.9 4.65 -30.15 L4.55 -27.15 4.5 -24.0 4.5 -22.5 4.6 -17.05 Q4.85 -7.05 4.2 2.45 3.15 18.0 -0.25 32.25 -7.85 28.15 -12.95 18.25 L-16.35 11.3 Q-23.85 -4.5 -29.95 -22.5 L-30.45 -24.0 -32.5 -30.3 Q-35.8 -34.75 -38.1 -30.3 L-37.55 -31.55 -35.1 -37.05 -31.25 -45.75 -30.45 -54.0 -29.2 -46.9 -27.15 -36.3 Q-31.85 -37.25 -30.4 -31.25 -29.5 -27.5 -28.25 -24.0 L-27.65 -22.5 Q-24.35 -14.0 -18.7 -7.05 L-18.35 -6.25 Q-17.1 -3.15 -15.7 -0.5 -9.2 11.95 -2.25 23.5 -0.8 10.15 -0.55 -3.25 -0.45 -8.25 -0.5 -13.2 L0.9 -22.5 1.05 -24.0 Q1.65 -31.15 0.8 -36.15 -0.7 -44.6 -2.7 -41.8 L-4.2 -51.6 -6.45 -62.9 -1.5 -54.0 -0.55 -52.3 4.7 -47.6 11.05 -41.95 15.5 -38.0 M30.75 -15.2 L31.5 -11.0 Q29.85 -10.05 28.5 -9.0 L26.25 -6.9 Q20.8 -1.15 21.55 8.0 L19.0 2.0 Q20.7 -6.95 25.95 -11.85 28.05 -13.9 30.75 -15.2 M28.5 -9.0 L25.95 -11.85 28.5 -9.0 M91.35 -9.15 L83.25 -14.85 91.35 -9.15 M155.25 -12.8 L162.15 -7.55 155.25 -12.8 M64.45 4.15 Q62.5 3.05 60.45 2.35 62.5 3.05 64.45 4.15 M62.55 7.55 L62.4 7.45 Q57.95 4.95 52.5 4.85 L52.0 4.85 Q47.3 4.85 43.3 6.6 39.7 8.15 36.65 11.2 L35.85 12.05 Q32.05 16.25 30.9 21.5 30.3 23.9 30.35 26.55 30.3 30.4 31.55 33.85 33.05 38.25 36.65 41.85 43.05 48.2 52.0 48.2 60.95 48.2 67.3 41.85 73.65 35.5 73.7 26.55 L73.7 25.9 Q73.5 18.85 69.35 13.5 L67.3 11.2 Q65.1 8.95 62.55 7.55 M-60.6 19.05 Q-63.7 20.75 -66.35 23.25 -65.55 19.7 -64.0 16.1 -62.4 12.55 -58.9 8.4 L-57.1 6.3 -57.0 8.85 Q-60.15 10.1 -60.6 19.05 M-32.75 30.8 Q-34.45 29.1 -36.35 27.9 -41.1 24.75 -47.05 24.55 L-47.95 24.55 Q-53.2 24.5 -57.5 26.7 -60.6 28.2 -63.2 30.8 -64.8 32.4 -65.95 34.15 -68.6 38.0 -69.25 42.75 L-69.5 46.05 Q-69.5 49.35 -68.6 52.3 -67.15 57.3 -63.2 61.25 -56.9 67.55 -47.95 67.55 -39.05 67.55 -32.75 61.25 -26.5 54.95 -26.45 46.05 -26.5 44.0 -26.8 42.15 -27.55 37.7 -30.1 34.0 -31.25 32.3 -32.75 30.8 M-91.05 20.05 Q-93.8 25.45 -95.95 31.85 -93.8 25.45 -91.05 20.05 M-72.25 38.8 Q-78.45 40.65 -84.05 45.9 -78.45 40.65 -72.25 38.8" fill="#d9735a" fill-rule="evenodd" stroke="none"/>
    <path d="M4.65 -30.15 Q5.2 -41.9 8.3 -38.5 12.5 -33.7 15.5 -28.0 18.2 -30.85 22.75 -28.0 L30.0 -19.45 30.75 -15.25 30.75 -15.2 Q28.05 -13.9 25.95 -11.85 20.7 -6.95 19.0 2.0 L19.0 -2.0 14.7 -10.4 Q17.95 -16.6 24.75 -21.0 L20.0 -26.5 Q17.5 -26.0 15.05 -24.0 L13.45 -22.5 Q11.9 -20.95 10.45 -18.8 L4.65 -30.15" fill="url(#gradient0)" fill-rule="evenodd" stroke="none"/>
    <path d="M14.7 -10.4 L10.45 -18.8 Q11.9 -20.95 13.45 -22.5 L15.05 -24.0 Q17.5 -26.0 20.0 -26.5 L24.75 -21.0 Q17.95 -16.6 14.7 -10.4" fill="url(#gradient1)" fill-rule="evenodd" stroke="none"/>
    <path d="M4.2 2.45 Q4.85 -7.05 4.6 -17.05 L4.5 -22.5 4.5 -24.0 4.55 -27.15 15.4 2.45 Q9.55 9.15 4.2 2.45" fill="url(#gradient2)" fill-rule="evenodd" stroke="none"/>
    <path d="M-2.7 -41.8 Q-0.7 -44.6 0.8 -36.15 1.65 -31.15 1.05 -24.0 L0.9 -22.5 -0.5 -13.2 -0.85 -22.5 -0.95 -24.0 Q-1.5 -32.95 -2.7 -41.8" fill="url(#gradient3)" fill-rule="evenodd" stroke="none"/>
    <path d="M31.5 -11.0 L35.2 -5.65 36.0 -4.5 31.75 -0.65 26.25 -6.9 28.5 -9.0 Q29.85 -10.05 31.5 -11.0" fill="url(#gradient4)" fill-rule="evenodd" stroke="none"/>
    <path d="M31.75 -0.65 L36.0 -4.5 40.7 3.55 Q37.05 5.35 33.95 8.45 L33.45 8.95 Q28.85 13.8 27.3 19.9 L27.1 20.9 24.3 14.45 Q25.3 6.05 31.75 -0.65" fill="url(#gradient5)" fill-rule="evenodd" stroke="none"/>
    <path d="M26.25 -6.9 L31.75 -0.65 Q25.3 6.05 24.3 14.45 L21.55 8.0 Q20.8 -1.15 26.25 -6.9" fill="url(#gradient6)" fill-rule="evenodd" stroke="none"/>
    <path d="M42.4 -17.3 L40.95 -21.9 41.8 -22.5 Q44.95 -24.55 49.35 -22.5 L50.5 -21.9 Q63.3 -13.95 67.25 -18.75 76.4 -17.3 83.45 -11.0 65.4 -15.4 46.8 -14.7 L42.4 -17.3" fill="url(#gradient7)" fill-rule="evenodd" stroke="none"/>
    <path d="M46.8 -14.7 Q65.4 -15.4 83.45 -11.0 L85.25 -9.25 Q86.1 -12.05 94.4 -6.55 L96.35 -4.75 101.2 0.3 103.5 3.0 Q92.6 0.55 80.1 0.05 73.55 -0.2 66.6 0.15 62.85 -4.5 58.15 -5.25 53.55 -10.4 46.8 -14.7" fill="url(#gradient8)" fill-rule="evenodd" stroke="none"/>
    <path d="M50.5 1.05 L45.5 -7.5 43.95 -12.4 Q49.5 -11.8 60.45 2.35 56.95 1.15 53.0 1.05 L52.0 1.0 50.5 1.05" fill="url(#gradient9)" fill-rule="evenodd" stroke="none"/>
    <path d="M96.35 -4.75 L94.4 -6.55 91.35 -9.15 Q100.55 -7.1 108.5 -7.4 113.6 -7.65 118.2 -8.8 129.9 -11.8 143.9 -9.1 153.0 -7.5 162.15 -7.55 L96.35 -4.75" fill="url(#gradient10)" fill-rule="evenodd" stroke="none"/>
    <path d="M178.5 -9.15 L179.25 -3.25 166.7 -2.65 Q164.6 -7.4 163.5 -2.5 L151.5 -2.0 117.0 -0.4 101.2 0.3 96.35 -4.75 162.15 -7.55 164.75 -7.65 Q171.6 -7.95 178.5 -9.15" fill="url(#gradient11)" fill-rule="evenodd" stroke="none"/>
    <path d="M179.25 -3.25 L178.0 -1.15 154.05 0.6 119.7 3.05 117.0 -0.4 119.7 3.05 85.95 5.5 78.55 6.05 69.65 4.85 64.45 4.15 Q62.05 -0.85 58.15 -5.25 62.85 -4.5 66.6 0.15 73.55 -0.2 80.1 0.05 92.6 0.55 103.5 3.0 L101.2 0.3 117.0 -0.4 151.5 -2.0 154.0 0.25 154.05 0.6 154.0 0.25 151.5 -2.0 163.5 -2.5 166.7 -2.65 179.25 -3.25 M123.55 12.1 L139.75 14.25 124.85 15.75 123.55 12.1 124.85 15.75 85.15 19.7 81.5 15.05 85.15 19.7 76.85 20.5 Q76.25 17.9 75.1 15.5 L81.5 15.05 123.55 12.1 M-135.5 70.0 L-120.3 61.75 -111.0 56.7 -116.5 62.75 -79.55 51.05 -73.1 49.0 Q-72.85 51.55 -72.05 53.95 L-80.95 56.2 -79.55 51.05 -80.95 56.2 -122.45 66.7 -135.5 70.0 M-179.25 76.5 L-177.75 72.65 -174.4 72.65 -152.3 63.5 -153.85 66.75 -152.3 63.5 -113.95 47.6 -98.75 41.25 -95.5 38.85 Q-91.05 35.6 -85.95 32.65 -80.25 29.4 -73.75 26.5 -70.55 20.5 -64.0 16.1 -65.55 19.7 -66.35 23.25 -67.15 26.5 -67.35 29.75 L-69.0 31.95 -70.65 34.75 -77.25 37.3 -73.75 26.5 -77.25 37.3 -88.55 41.65 -115.85 52.15 -113.95 47.6 -115.85 52.15 -153.85 66.75 -179.25 76.5 M66.6 0.15 Q68.2 2.15 69.65 4.85 68.2 2.15 66.6 0.15 M26.55 24.8 L26.5 26.5 Q26.5 28.65 26.8 30.65 24.9 33.2 21.25 34.0 L19.95 34.3 0.45 38.45 -0.25 32.25 0.45 38.45 -16.0 41.9 Q-18.5 43.2 -22.95 41.9 -23.55 38.05 -25.25 34.7 L-22.45 34.65 -16.1 34.25 -16.0 41.9 -16.1 34.25 Q-8.05 33.65 -0.25 32.25 8.75 30.6 17.35 28.0 L23.75 25.85 26.55 24.8 M17.35 28.0 L19.95 34.3 17.35 28.0 M80.1 0.05 L85.95 5.5 80.1 0.05 M-85.95 32.65 L-88.55 41.65 -85.95 32.65 M-120.3 61.75 L-122.45 66.7 -120.3 61.75" fill="#eeeeee" fill-rule="evenodd" stroke="none"/>
    <path d="M163.5 -2.5 Q164.6 -7.4 166.7 -2.65 L163.5 -2.5" fill="url(#gradient12)" fill-rule="evenodd" stroke="none"/>
    <path d="M113.5 10.75 L123.55 12.1 81.5 15.05 75.1 15.5 Q73.8 12.8 71.8 10.4 L70.0 8.45 Q67.4 5.85 64.45 4.15 L69.65 4.85 78.55 6.05 81.7 6.5 Q82.65 11.65 93.35 12.0 L108.5 11.4 113.5 10.75" fill="url(#gradient13)" fill-rule="evenodd" stroke="none"/>
    <path d="M62.4 7.45 L62.55 7.55 Q65.1 8.95 67.3 11.2 L69.35 13.5 Q73.5 18.85 73.7 25.9 L73.7 26.55 Q73.65 35.5 67.3 41.85 60.95 48.2 52.0 48.2 43.05 48.2 36.65 41.85 33.05 38.25 31.55 33.85 30.3 30.4 30.35 26.55 30.3 23.9 30.9 21.5 32.05 16.25 35.85 12.05 L36.65 11.2 Q39.7 8.15 43.3 6.6 47.3 4.85 52.0 4.85 L52.5 4.85 Q57.95 4.95 62.4 7.45" fill="url(#gradient14)" fill-rule="evenodd" stroke="none"/>
    <path d="M19.0 2.0 L21.55 8.0 24.3 14.45 27.1 20.9 Q26.65 22.8 26.55 24.8 L23.75 25.85 19.0 7.1 19.0 2.0" fill="url(#gradient15)" fill-rule="evenodd" stroke="none"/>
    <path d="M-0.25 32.25 Q3.15 18.0 4.2 2.45 9.55 9.15 15.4 2.45 L19.0 12.25 19.0 7.1 23.75 25.85 17.35 28.0 Q8.75 30.6 -0.25 32.25" fill="url(#gradient16)" fill-rule="evenodd" stroke="none"/>
    <path d="M-35.0 -43.85 Q-35.5 -55.25 -31.25 -59.0 L-30.45 -54.0 -31.25 -45.75 Q-33.3 -45.4 -35.0 -43.85" fill="url(#gradient17)" fill-rule="evenodd" stroke="none"/>
    <path d="M-6.95 -65.0 Q-2.9 -65.4 3.25 -54.25 -0.3 -55.4 -1.5 -54.0 L-6.45 -62.9 -6.95 -65.0" fill="url(#gradient18)" fill-rule="evenodd" stroke="none"/>
    <path d="M-49.8 -13.05 Q-45.4 -16.15 -41.8 -22.5 L-41.0 -24.0 -39.55 -27.1 -38.1 -30.3 Q-35.8 -34.75 -32.5 -30.3 L-30.45 -24.0 -29.95 -22.5 Q-23.85 -4.5 -16.35 11.3 L-17.25 11.6 -19.7 7.35 -26.9 -5.3 -26.6 10.65 Q-27.8 8.4 -29.8 7.15 -39.85 0.9 -45.7 2.6 L-46.65 -0.25 Q-48.1 -4.9 -49.8 -13.05 M-42.5 -11.75 L-42.5 -5.5 Q-35.65 -6.35 -29.75 -1.25 L-29.75 -8.75 Q-35.15 -12.75 -42.5 -11.75" fill="url(#gradient19)" fill-rule="evenodd" stroke="none"/>
    <path d="M-42.5 -11.75 Q-35.15 -12.75 -29.75 -8.75 L-29.75 -1.25 Q-35.65 -6.35 -42.5 -5.5 L-42.5 -11.75" fill="url(#gradient20)" fill-rule="evenodd" stroke="none"/>
    <path d="M-18.7 -7.05 Q-24.35 -14.0 -27.65 -22.5 L-28.25 -24.0 Q-29.5 -27.5 -30.4 -31.25 -31.85 -37.25 -27.15 -36.3 -25.75 -29.7 -24.2 -24.0 L-23.8 -22.5 Q-21.4 -13.7 -18.7 -7.05" fill="url(#gradient21)" fill-rule="evenodd" stroke="none"/>
    <path d="M-2.25 23.5 Q-9.2 11.95 -15.7 -0.5 -13.3 -4.0 -10.4 -5.15 L-9.4 -5.45 -2.25 23.5" fill="url(#gradient22)" fill-rule="evenodd" stroke="none"/>
    <path d="M-10.4 -5.15 Q-11.5 -6.4 -11.95 -8.25 -12.5 -10.45 -10.85 -11.1 -9.3 -11.75 -8.35 -9.75 -7.45 -7.8 -8.15 -5.65 L-9.4 -5.45 -10.4 -5.15" fill="url(#gradient23)" fill-rule="evenodd" stroke="none"/>
    <path d="M-0.55 -3.25 Q-0.8 10.15 -2.25 23.5 L-9.4 -5.45 -8.15 -5.65 Q-4.65 -5.95 -0.55 -3.25" fill="url(#gradient24)" fill-rule="evenodd" stroke="none"/>
    <path d="M-16.35 11.3 L-12.95 18.25 Q-7.85 28.15 -0.25 32.25 -8.05 33.65 -16.1 34.25 L-22.45 34.65 Q-24.65 26.15 -24.95 18.05 -25.05 15.85 -25.4 14.05 -21.95 10.75 -17.25 11.6 L-16.35 11.3" fill="url(#gradient25)" fill-rule="evenodd" stroke="none"/>
    <path d="M-19.7 7.35 L-17.25 11.6 Q-21.95 10.75 -25.4 14.05 L-25.9 12.35 Q-23.75 7.65 -19.7 7.35" fill="url(#gradient26)" fill-rule="evenodd" stroke="none"/>
    <path d="M-19.7 7.35 Q-23.75 7.65 -25.9 12.35 L-26.6 10.65 -26.9 -5.3 -19.7 7.35" fill="url(#gradient27)" fill-rule="evenodd" stroke="none"/>
    <path d="M-36.4 6.3 Q-34.0 7.4 -31.25 9.5 -27.25 12.7 -27.95 19.0 L-27.95 21.85 Q-32.5 17.25 -37.95 15.4 L-36.4 6.3" fill="url(#gradient28)" fill-rule="evenodd" stroke="none"/>
    <path d="M-177.75 72.65 L-173.0 60.25 -162.95 55.35 -168.65 64.0 -174.4 72.65 -177.75 72.65 M-44.25 5.5 Q-41.05 4.05 -36.4 6.3 L-37.95 15.4 Q-41.75 14.1 -45.95 14.1 L-44.25 5.5 M-56.7 17.2 Q-58.75 17.95 -60.6 19.05 -60.15 10.1 -57.0 8.85 -56.7 14.45 -56.7 17.2" fill="#c93f19" fill-rule="evenodd" stroke="none"/>
    <path d="M-27.95 21.85 L-27.95 30.5 -30.05 28.15 Q-32.05 26.15 -34.3 24.7 -39.8 21.1 -46.65 20.8 L-47.95 20.75 Q-54.2 20.75 -59.35 23.4 -62.85 25.15 -65.85 28.15 L-67.35 29.75 Q-67.15 26.5 -66.35 23.25 -63.7 20.75 -60.6 19.05 -58.75 17.95 -56.7 17.2 -56.75 20.2 -57.0 21.5 L-47.0 19.5 -45.95 14.1 Q-41.75 14.1 -37.95 15.4 -32.5 17.25 -27.95 21.85" fill="url(#gradient29)" fill-rule="evenodd" stroke="none"/>
    <path d="M-32.75 30.8 Q-31.25 32.3 -30.1 34.0 -27.55 37.7 -26.8 42.15 -26.5 44.0 -26.45 46.05 -26.5 54.95 -32.75 61.25 -39.05 67.55 -47.95 67.55 -56.9 67.55 -63.2 61.25 -67.15 57.3 -68.6 52.3 -69.5 49.35 -69.5 46.05 L-69.25 42.75 Q-68.6 38.0 -65.95 34.15 -64.8 32.4 -63.2 30.8 -60.6 28.2 -57.5 26.7 -53.2 24.5 -47.95 24.55 L-47.05 24.55 Q-41.1 24.75 -36.35 27.9 -34.45 29.1 -32.75 30.8" fill="url(#gradient30)" fill-rule="evenodd" stroke="none"/>
    <path d="M-57.45 0.75 L-57.1 6.3 -58.9 8.4 Q-80.6 13.8 -93.7 31.25 -89.95 19.0 -80.75 9.25 -78.75 11.25 -76.75 9.25 -63.3 -4.75 -57.45 0.75" fill="url(#gradient31)" fill-rule="evenodd" stroke="none"/>
    <path d="M-111.0 56.7 L-105.25 53.6 Q-92.05 54.6 -87.35 49.3 L-84.05 45.9 -73.15 44.1 -73.25 46.05 -73.1 49.0 -79.55 51.05 -116.5 62.75 -111.0 56.7" fill="url(#gradient32)" fill-rule="evenodd" stroke="none"/>
    <path d="M-93.7 31.25 Q-80.6 13.8 -58.9 8.4 -62.4 12.55 -64.0 16.1 -70.55 20.5 -73.75 26.5 -80.25 29.4 -85.95 32.65 -91.05 35.6 -95.5 38.85 -94.85 34.95 -93.7 31.25" fill="url(#gradient33)" fill-rule="evenodd" stroke="none"/>
    <path d="M-168.65 64.0 Q-124.9 39.85 -107.25 36.25 -104.45 35.95 -102.0 35.1 -98.65 33.95 -95.95 31.85 -97.5 36.3 -98.75 41.25 L-113.95 47.6 -152.3 63.5 -174.4 72.65 -168.65 64.0" fill="url(#gradient34)" fill-rule="evenodd" stroke="none"/>
    <path d="M4.55 -27.15 L4.65 -30.15 10.45 -18.8 14.7 -10.4 19.0 -2.0 19.0 2.0 19.0 7.1 19.0 12.25 15.4 2.45 4.55 -27.15" fill="#5c0e06" fill-rule="evenodd" stroke="none"/>
    <path d="M24.0 -75.45 L23.5 -77.0 M19.7 -77.0 L19.8 -76.6 20.0 -75.45 24.0 -75.45 27.7 -63.75 35.7 -38.5 38.95 -28.25 Q51.6 -27.25 62.55 -24.0 L67.15 -22.5 Q75.8 -19.45 83.25 -14.85 L155.25 -12.8 174.25 -12.25 178.5 -9.15 179.25 -3.25 166.7 -2.65 Q164.6 -7.4 163.5 -2.5 L166.7 -2.65 M176.5 1.25 L154.5 3.05 120.45 5.85 120.4 5.85 93.5 8.05 113.5 10.75 123.55 12.1 139.75 14.25 139.75 18.75 126.05 20.3 125.9 20.3 86.65 24.75 M86.5 24.75 L77.5 25.75 77.5 26.5 Q77.5 31.15 76.05 35.2 74.2 40.35 70.0 44.5 62.55 52.0 52.0 52.0 L47.55 51.65 Q39.8 50.35 33.95 44.5 30.55 41.1 28.7 37.05 L22.25 36.5 20.1 36.95 1.25 41.0 -15.3 44.5 -16.5 44.75 Q-21.0 46.55 -22.8 49.25 -23.8 57.7 -30.05 63.95 L-31.5 65.3 Q-38.45 71.35 -47.95 71.35 -58.45 71.35 -65.85 63.95 -68.65 61.15 -70.4 57.9 L-80.3 60.4 -122.55 71.05 -138.25 75.0 -135.5 70.0 -120.3 61.75 -111.0 56.7 -105.25 53.6 -93.85 47.4 -115.7 55.6 -153.7 69.85 -172.75 77.0 -179.25 76.5 -177.75 72.65 -173.0 60.25 -162.95 55.35 -91.05 20.05 Q-79.5 -2.95 -58.1 -8.3 L-59.15 -20.75 -59.3 -22.5 -59.45 -24.0 -60.5 -35.2 -61.5 -45.55 -63.75 -67.25 Q-62.5 -68.9 -61.25 -67.25 L-56.65 -45.6 -51.85 -22.75 -49.8 -13.05 Q-45.4 -16.15 -41.8 -22.5 L-41.0 -24.0 -39.55 -27.1 Q-40.9 -30.15 -40.5 -33.35 L-40.0 -35.65 -39.35 -37.45 Q-37.85 -40.8 -36.0 -42.85 L-35.0 -43.85 Q-35.5 -55.25 -31.25 -59.0 -30.6 -64.55 -26.75 -68.7 L-26.15 -69.3 Q-21.8 -73.65 -14.9 -71.6 L-13.95 -71.3 Q-7.95 -69.25 -6.95 -65.0 -2.9 -65.4 3.25 -54.25 L4.5 -53.45 Q8.5 -50.85 11.05 -47.85 14.95 -43.35 15.5 -38.0 21.55 -30.45 28.5 -27.85 L27.95 -30.95 27.95 -31.0 27.85 -31.4 22.6 -60.55 20.0 -75.25 19.95 -75.45 19.8 -76.6 M19.95 -75.45 L20.0 -75.45 20.0 -75.25 23.55 -64.05 27.7 -63.75 M23.55 -64.0 L23.55 -64.05 23.55 -64.0 30.2 -38.05 35.7 -38.5 M22.6 -60.55 L23.55 -64.0 M30.2 -38.05 L27.85 -31.4 M15.5 -38.0 L11.05 -41.95 4.7 -47.6 -0.55 -52.3 -1.5 -54.0 -6.45 -62.9 -4.2 -51.6 -2.7 -41.8 Q-0.7 -44.6 0.8 -36.15 1.65 -31.15 1.05 -24.0 L0.9 -22.5 -0.5 -13.2 Q-0.45 -8.25 -0.55 -3.25 -0.8 10.15 -2.25 23.5 -9.2 11.95 -15.7 -0.5 -17.1 -3.15 -18.35 -6.25 L-18.7 -7.05 Q-24.35 -14.0 -27.65 -22.5 L-28.25 -24.0 Q-29.5 -27.5 -30.4 -31.25 -31.85 -37.25 -27.15 -36.3 L-29.2 -46.9 -30.45 -54.0 -31.25 -45.75 -35.1 -37.05 -37.55 -31.55 -38.1 -30.3 Q-35.8 -34.75 -32.5 -30.3 L-30.45 -24.0 -29.95 -22.5 Q-23.85 -4.5 -16.35 11.3 L-12.95 18.25 Q-7.85 28.15 -0.25 32.25 3.15 18.0 4.2 2.45 4.85 -7.05 4.6 -17.05 L4.5 -22.5 4.5 -24.0 4.55 -27.15 4.65 -30.15 Q5.2 -41.9 8.3 -38.5 12.5 -33.7 15.5 -28.0 18.2 -30.85 22.75 -28.0 L30.0 -19.45 28.5 -27.85 M11.05 -47.85 Q10.1 -45.2 11.05 -41.95 M19.0 2.0 L19.0 -2.0 14.7 -10.4 10.45 -18.8 4.65 -30.15 M14.7 -10.4 Q17.95 -16.6 24.75 -21.0 L20.0 -26.5 Q17.5 -26.0 15.05 -24.0 L13.45 -22.5 Q11.9 -20.95 10.45 -18.8 M30.0 -19.45 L30.75 -15.25 30.75 -15.2 31.5 -11.0 35.2 -5.65 37.2 -10.85 37.2 -10.9 30.2 -38.05 M25.95 -11.85 L28.5 -9.0 Q29.85 -10.05 31.5 -11.0 M28.5 -9.0 L26.25 -6.9 31.75 -0.65 36.0 -4.5 35.2 -5.65 M37.2 -10.9 L43.95 -12.4 42.4 -17.3 40.95 -21.9 38.95 -28.25 M37.2 -10.85 L37.2 -10.9 M30.75 -15.2 Q28.05 -13.9 25.95 -11.85 20.7 -6.95 19.0 2.0 L21.55 8.0 Q20.8 -1.15 26.25 -6.9 M43.95 -12.4 L45.5 -7.5 50.5 1.05 52.0 1.0 53.0 1.05 Q56.95 1.15 60.45 2.35 49.5 -11.8 43.95 -12.4 M42.4 -17.3 L46.8 -14.7 Q65.4 -15.4 83.45 -11.0 76.4 -17.3 67.25 -18.75 63.3 -13.95 50.5 -21.9 L49.35 -22.5 Q44.95 -24.55 41.8 -22.5 L40.95 -21.9 M46.8 -14.7 Q53.55 -10.4 58.15 -5.25 62.85 -4.5 66.6 0.15 73.55 -0.2 80.1 0.05 92.6 0.55 103.5 3.0 L101.2 0.3 96.35 -4.75 94.4 -6.55 Q86.1 -12.05 85.25 -9.25 L83.45 -11.0 M4.7 -47.6 Q5.45 -50.1 4.5 -53.45 M162.15 -7.55 Q153.0 -7.5 143.9 -9.1 129.9 -11.8 118.2 -8.8 113.6 -7.65 108.5 -7.4 100.55 -7.1 91.35 -9.15 L94.4 -6.55 M83.25 -14.85 L91.35 -9.15 M151.5 -2.0 L117.0 -0.4 119.7 3.05 154.05 0.6 154.0 0.25 151.5 -2.0 163.5 -2.5 M162.15 -7.55 L164.75 -7.65 Q171.6 -7.95 178.5 -9.15 M96.35 -4.75 L162.15 -7.55 155.25 -12.8 M154.5 3.05 L154.05 0.6 178.0 -1.15 M124.85 15.75 L139.75 14.25 M124.85 15.75 L125.9 20.3 M123.55 12.1 L124.85 15.75 85.15 19.7 86.5 24.75 M119.7 3.05 L120.4 5.85 M113.5 10.75 L108.5 11.4 93.35 12.0 Q82.65 11.65 81.7 6.5 L78.55 6.05 69.65 4.85 64.45 4.15 Q67.4 5.85 70.0 8.45 L71.8 10.4 Q73.8 12.8 75.1 15.5 L81.5 15.05 123.55 12.1 M81.7 6.5 L93.5 8.05 M81.5 15.05 L85.15 19.7 76.85 20.5 Q77.45 23.0 77.5 25.75 M119.7 3.05 L85.95 5.5 78.55 6.05 M60.45 2.35 Q62.5 3.05 64.45 4.15 62.05 -0.85 58.15 -5.25 M69.65 4.85 Q68.2 2.15 66.6 0.15 M62.4 7.45 L62.55 7.55 Q65.1 8.95 67.3 11.2 L69.35 13.5 Q73.5 18.85 73.7 25.9 L73.7 26.55 Q73.65 35.5 67.3 41.85 60.95 48.2 52.0 48.2 43.05 48.2 36.65 41.85 33.05 38.25 31.55 33.85 30.3 30.4 30.35 26.55 30.3 23.9 30.9 21.5 32.05 16.25 35.85 12.05 L36.65 11.2 Q39.7 8.15 43.3 6.6 47.3 4.85 52.0 4.85 L52.5 4.85 Q57.95 4.95 62.4 7.45 M76.85 20.5 Q76.25 17.9 75.1 15.5 M50.5 1.05 Q45.8 1.3 41.75 3.05 L40.7 3.55 Q37.05 5.35 33.95 8.45 L33.45 8.95 Q28.85 13.8 27.3 19.9 L27.1 20.9 Q26.65 22.8 26.55 24.8 L26.5 26.5 Q26.5 28.65 26.8 30.65 27.15 32.95 27.9 35.1 L28.7 37.05 M27.1 20.9 L24.3 14.45 21.55 8.0 M19.0 2.0 L19.0 7.1 23.75 25.85 26.55 24.8 M4.2 2.45 Q9.55 9.15 15.4 2.45 L4.55 -27.15 M15.4 2.45 L19.0 12.25 19.0 7.1 M0.45 38.45 L1.25 41.0 M19.95 34.3 L17.35 28.0 Q8.75 30.6 -0.25 32.25 L0.45 38.45 19.95 34.3 21.25 34.0 Q24.9 33.2 26.8 30.65 M19.95 34.3 L20.1 36.95 M17.35 28.0 L23.75 25.85 M85.95 5.5 L80.1 0.05 M40.7 3.55 L37.2 -10.85 M31.75 -0.65 Q25.3 6.05 24.3 14.45 M36.0 -4.5 L40.7 3.55 M101.2 0.3 L117.0 -0.4 M-31.25 -59.0 L-30.45 -54.0 M-6.95 -65.0 L-6.45 -62.9 M-59.7 -46.45 L-56.65 -45.6 M-51.85 -22.75 L-54.85 -21.25 -50.0 4.0 -46.65 -0.25 Q-48.1 -4.9 -49.8 -13.05 M-59.15 -20.75 L-54.85 -21.25 -59.7 -46.45 -61.5 -45.55 M-42.5 -11.75 Q-35.15 -12.75 -29.75 -8.75 L-29.75 -1.25 Q-35.65 -6.35 -42.5 -5.5 L-42.5 -11.75 M-31.25 -45.75 Q-33.3 -45.4 -35.0 -43.85 M-39.55 -27.1 L-38.1 -30.3 M-37.55 -31.55 Q-38.15 -34.35 -40.0 -35.65 M-36.0 -42.85 Q-36.55 -39.75 -35.1 -37.05 M-18.7 -7.05 Q-21.4 -13.7 -23.8 -22.5 L-24.2 -24.0 Q-25.75 -29.7 -27.15 -36.3 M-0.5 -13.2 L-0.85 -22.5 -0.95 -24.0 Q-1.5 -32.95 -2.7 -41.8 M-10.4 -5.15 Q-13.3 -4.0 -15.7 -0.5 M-8.15 -5.65 Q-7.45 -7.8 -8.35 -9.75 -9.3 -11.75 -10.85 -11.1 -12.5 -10.45 -11.95 -8.25 -11.5 -6.4 -10.4 -5.15 L-9.4 -5.45 -8.15 -5.65 Q-4.65 -5.95 -0.55 -3.25 M-59.7 -46.45 L-63.75 -67.25 M-17.25 11.6 L-19.7 7.35 Q-23.75 7.65 -25.9 12.35 L-25.4 14.05 Q-21.95 10.75 -17.25 11.6 L-16.35 11.3 M-25.9 12.35 L-26.6 10.65 Q-27.8 8.4 -29.8 7.15 -39.85 0.9 -45.7 2.6 -44.95 4.7 -44.25 5.5 -41.05 4.05 -36.4 6.3 -34.0 7.4 -31.25 9.5 -27.25 12.7 -27.95 19.0 L-27.95 21.85 -27.95 30.5 -26.75 32.1 -25.25 34.7 -22.45 34.65 Q-24.65 26.15 -24.95 18.05 -25.05 15.85 -25.4 14.05 M-37.95 15.4 Q-32.5 17.25 -27.95 21.85 M-36.4 6.3 L-37.95 15.4 Q-41.75 14.1 -45.95 14.1 L-47.0 19.5 -57.0 21.5 Q-56.75 20.2 -56.7 17.2 -58.75 17.95 -60.6 19.05 -63.7 20.75 -66.35 23.25 -67.15 26.5 -67.35 29.75 L-65.85 28.15 Q-62.85 25.15 -59.35 23.4 -54.2 20.75 -47.95 20.75 L-46.65 20.8 Q-39.8 21.1 -34.3 24.7 -32.05 26.15 -30.05 28.15 L-27.95 30.5 M-32.75 30.8 Q-31.25 32.3 -30.1 34.0 -27.55 37.7 -26.8 42.15 -26.5 44.0 -26.45 46.05 -26.5 54.95 -32.75 61.25 -39.05 67.55 -47.95 67.55 -56.9 67.55 -63.2 61.25 -67.15 57.3 -68.6 52.3 -69.5 49.35 -69.5 46.05 L-69.25 42.75 Q-68.6 38.0 -65.95 34.15 -64.8 32.4 -63.2 30.8 -60.6 28.2 -57.5 26.7 -53.2 24.5 -47.95 24.55 L-47.05 24.55 Q-41.1 24.75 -36.35 27.9 -34.45 29.1 -32.75 30.8 M-22.95 41.9 Q-22.65 43.9 -22.65 46.05 L-22.8 49.25 M-25.25 34.7 Q-23.55 38.05 -22.95 41.9 -18.5 43.2 -16.0 41.9 L-16.1 34.25 -22.45 34.65 M-0.25 32.25 Q-8.05 33.65 -16.1 34.25 M-15.3 44.5 L-16.0 41.9 0.45 38.45 M-57.1 6.3 L-57.45 0.75 Q-63.3 -4.75 -76.75 9.25 -78.75 11.25 -80.75 9.25 -89.95 19.0 -93.7 31.25 -80.6 13.8 -58.9 8.4 L-57.1 6.3 -50.0 4.0 -47.0 19.5 M-57.0 8.85 L-57.1 6.3 M-60.6 19.05 Q-60.15 10.1 -57.0 8.85 -56.7 14.45 -56.7 17.2 M-44.25 5.5 L-45.95 14.1 M-66.35 23.25 Q-65.55 19.7 -64.0 16.1 -70.55 20.5 -73.75 26.5 L-77.25 37.3 -70.65 34.75 -69.0 31.95 -67.35 29.75 M-70.65 34.75 Q-71.65 36.7 -72.25 38.8 L-72.85 41.5 -73.15 44.1 -73.25 46.05 -73.1 49.0 Q-72.85 51.55 -72.05 53.95 L-70.4 57.9 M-58.9 8.4 Q-62.4 12.55 -64.0 16.1 M-80.95 56.2 L-80.3 60.4 M-79.55 51.05 L-80.95 56.2 -72.05 53.95 M-73.1 49.0 L-79.55 51.05 -116.5 62.75 -111.0 56.7 M-168.65 64.0 Q-124.9 39.85 -107.25 36.25 -104.45 35.95 -102.0 35.1 -98.65 33.95 -95.95 31.85 -93.8 25.45 -91.05 20.05 M-88.65 44.55 L-93.85 47.4 M-95.5 38.85 Q-91.05 35.6 -85.95 32.65 -80.25 29.4 -73.75 26.5 M-93.7 31.25 Q-94.85 34.95 -95.5 38.85 L-98.75 41.25 -113.95 47.6 -115.85 52.15 -88.55 41.65 -85.95 32.65 M-98.75 41.25 Q-97.5 36.3 -95.95 31.85 M-88.65 44.55 L-88.55 41.65 -77.25 37.3 M-105.25 53.6 Q-92.05 54.6 -87.35 49.3 L-84.05 45.9 Q-78.45 40.65 -72.25 38.8 M-153.7 69.85 L-153.85 66.75 -179.25 76.5 M-153.85 66.75 L-152.3 63.5 -174.4 72.65 -177.75 72.65 M-135.5 70.0 L-122.45 66.7 -120.3 61.75 M-122.55 71.05 L-122.45 66.7 -80.95 56.2 M-115.85 52.15 L-115.7 55.6 M-115.85 52.15 L-153.85 66.75 M-113.95 47.6 L-152.3 63.5 M-84.05 45.9 L-73.15 44.1 M-70.65 34.75 L-88.65 44.55 M-174.4 72.65 L-168.65 64.0 -162.95 55.35 M-46.65 -0.25 L-45.7 2.6 M-58.1 -8.3 L-57.45 0.75 M-2.25 23.5 L-9.4 -5.45 M-26.6 10.65 L-26.9 -5.3 -19.7 7.35 M3.25 -54.25 Q-0.3 -55.4 -1.5 -54.0" fill="none" stroke="#000000" stroke-linecap="round" stroke-linejoin="round" stroke-width="1.0"/>
    <path d="M23.5 -77.0 Q20.4 -80.8 19.7 -77.0 M179.25 -3.25 L178.0 -1.15 176.5 1.25" fill="none" stroke="#000000" stroke-linecap="round" stroke-linejoin="round" stroke-width="1.0"/>
  </g>
  <defs>
    <radialGradient cx="0" cy="0" gradientTransform="matrix(0.0387, 0.0, 0.0, 0.0387, 24.5, -13.5)" gradientUnits="userSpaceOnUse" id="gradient0" r="819.2" spreadMethod="pad">
      <stop offset="0.0" stop-color="#bf3c19"/>
      <stop offset="1.0" stop-color="#5c0e06"/>
    </radialGradient>
    <radialGradient cx="0" cy="0" gradientTransform="matrix(0.0174, 0.0, 0.0, 0.0174, 20.25, -23.5)" gradientUnits="userSpaceOnUse" id="gradient1" r="819.2" spreadMethod="pad">
      <stop offset="0.0" stop-color="#c04e42"/>
      <stop offset="1.0" stop-color="#6e1f08"/>
    </radialGradient>
    <radialGradient cx="0" cy="0" gradientTransform="matrix(0.0378, 0.0, 0.0, 0.0378, 10.0, 3.0)" gradientUnits="userSpaceOnUse" id="gradient2" r="819.2" spreadMethod="pad">
      <stop offset="0.0" stop-color="#c04e42"/>
      <stop offset="1.0" stop-color="#6e1f08"/>
    </radialGradient>
    <radialGradient cx="0" cy="0" gradientTransform="matrix(0.0336, 0.0, 0.0, 0.0336, -1.5, -40.75)" gradientUnits="userSpaceOnUse" id="gradient3" r="819.2" spreadMethod="pad">
      <stop offset="0.0" stop-color="#bf3c19"/>
      <stop offset="1.0" stop-color="#5c0e06"/>
    </radialGradient>
    <radialGradient cx="0" cy="0" gradientTransform="matrix(0.0084, 0.0, 0.0, 0.0084, 29.25, -4.5)" gradientUnits="userSpaceOnUse" id="gradient4" r="819.2" spreadMethod="pad">
      <stop offset="0.0" stop-color="#c04e42"/>
      <stop offset="1.0" stop-color="#6e1f08"/>
    </radialGradient>
    <radialGradient cx="0" cy="0" gradientTransform="matrix(0.0203, 0.0, 0.0, 0.0203, 32.75, 5.25)" gradientUnits="userSpaceOnUse" id="gradient5" r="819.2" spreadMethod="pad">
      <stop offset="0.0" stop-color="#c04e42"/>
      <stop offset="1.0" stop-color="#6e1f08"/>
    </radialGradient>
    <radialGradient cx="0" cy="0" gradientTransform="matrix(0.0228, 0.0, 0.0, 0.0228, 28.25, -3.75)" gradientUnits="userSpaceOnUse" id="gradient6" r="819.2" spreadMethod="pad">
      <stop offset="0.0" stop-color="#c04e42"/>
      <stop offset="1.0" stop-color="#6e1f08"/>
    </radialGradient>
    <radialGradient cx="0" cy="0" gradientTransform="matrix(0.0405, 0.0, 0.0, 0.0405, 73.25, -14.5)" gradientUnits="userSpaceOnUse" id="gradient7" r="819.2" spreadMethod="pad">
      <stop offset="0.0" stop-color="#c04e42"/>
      <stop offset="1.0" stop-color="#6e1f08"/>
    </radialGradient>
    <radialGradient cx="0" cy="0" gradientTransform="matrix(0.041, 0.0, 0.0, 0.041, 73.25, -11.5)" gradientUnits="userSpaceOnUse" id="gradient8" r="819.2" spreadMethod="pad">
      <stop offset="0.0" stop-color="#c04e42"/>
      <stop offset="1.0" stop-color="#6e1f08"/>
    </radialGradient>
    <radialGradient cx="0" cy="0" gradientTransform="matrix(0.0259, 0.0, 0.0, 0.0259, 45.0, -11.25)" gradientUnits="userSpaceOnUse" id="gradient9" r="819.2" spreadMethod="pad">
      <stop offset="0.0" stop-color="#c04e42"/>
      <stop offset="1.0" stop-color="#6e1f08"/>
    </radialGradient>
    <radialGradient cx="0" cy="0" gradientTransform="matrix(0.0441, 0.0, 0.0, 0.0441, 126.0, -8.25)" gradientUnits="userSpaceOnUse" id="gradient10" r="819.2" spreadMethod="pad">
      <stop offset="0.0" stop-color="#bf3c19"/>
      <stop offset="1.0" stop-color="#5c0e06"/>
    </radialGradient>
    <radialGradient cx="0" cy="0" gradientTransform="matrix(0.0549, 0.0, 0.0, 0.0549, 134.25, -2.5)" gradientUnits="userSpaceOnUse" id="gradient11" r="819.2" spreadMethod="pad">
      <stop offset="0.0" stop-color="#bf3c19"/>
      <stop offset="1.0" stop-color="#5c0e06"/>
    </radialGradient>
    <linearGradient gradientTransform="matrix(0.0, 0.0727, -0.2404, 0.0, -1.0, 38.5)" gradientUnits="userSpaceOnUse" id="gradient12" spreadMethod="pad" x1="-819.2" x2="819.2">
      <stop offset="0.0" stop-color="#5f8689"/>
      <stop offset="1.0" stop-color="#66ffff"/>
    </linearGradient>
    <radialGradient cx="0" cy="0" gradientTransform="matrix(0.0394, 0.0, 0.0, 0.0394, 91.25, 13.25)" gradientUnits="userSpaceOnUse" id="gradient13" r="819.2" spreadMethod="pad">
      <stop offset="0.0" stop-color="#c04e42"/>
      <stop offset="1.0" stop-color="#6e1f08"/>
    </radialGradient>
    <radialGradient cx="0" cy="0" gradientTransform="matrix(0.0426, 0.0, 0.0, 0.0426, 48.05, 14.0)" gradientUnits="userSpaceOnUse" id="gradient14" r="819.2" spreadMethod="pad">
      <stop offset="0.3686274509803922" stop-color="#000000"/>
      <stop offset="1.0" stop-color="#999999"/>
    </radialGradient>
    <radialGradient cx="0" cy="0" gradientTransform="matrix(0.0244, 0.0, 0.0, 0.0244, 19.75, 6.25)" gradientUnits="userSpaceOnUse" id="gradient15" r="819.2" spreadMethod="pad">
      <stop offset="0.0" stop-color="#bf3c19"/>
      <stop offset="1.0" stop-color="#5c0e06"/>
    </radialGradient>
    <radialGradient cx="0" cy="0" gradientTransform="matrix(0.0327, 0.0, 0.0, 0.0327, 12.5, 8.75)" gradientUnits="userSpaceOnUse" id="gradient16" r="819.2" spreadMethod="pad">
      <stop offset="0.0" stop-color="#c04e42"/>
      <stop offset="1.0" stop-color="#6e1f08"/>
    </radialGradient>
    <radialGradient cx="0" cy="0" gradientTransform="matrix(0.0196, 0.0, 0.0, 0.0196, -31.25, -59.0)" gradientUnits="userSpaceOnUse" id="gradient17" r="819.2" spreadMethod="pad">
      <stop offset="0.0" stop-color="#bf3c19"/>
      <stop offset="1.0" stop-color="#5c0e06"/>
    </radialGradient>
    <radialGradient cx="0" cy="0" gradientTransform="matrix(0.015, 0.0, 0.0, 0.015, -4.75, -63.5)" gradientUnits="userSpaceOnUse" id="gradient18" r="819.2" spreadMethod="pad">
      <stop offset="0.0" stop-color="#bf3c19"/>
      <stop offset="1.0" stop-color="#5c0e06"/>
    </radialGradient>
    <radialGradient cx="0" cy="0" gradientTransform="matrix(0.0397, 0.0, 0.0, 0.0397, -36.25, 0.0)" gradientUnits="userSpaceOnUse" id="gradient19" r="819.2" spreadMethod="pad">
      <stop offset="0.0" stop-color="#bf3c19"/>
      <stop offset="1.0" stop-color="#5c0e06"/>
    </radialGradient>
    <radialGradient cx="0" cy="0" gradientTransform="matrix(0.0172, 0.0, 0.0, 0.0172, -41.5, -9.0)" gradientUnits="userSpaceOnUse" id="gradient20" r="819.2" spreadMethod="pad">
      <stop offset="0.0" stop-color="#c04e42"/>
      <stop offset="1.0" stop-color="#6e1f08"/>
    </radialGradient>
    <radialGradient cx="0" cy="0" gradientTransform="matrix(0.0371, 0.0, 0.0, 0.0371, -28.75, -35.25)" gradientUnits="userSpaceOnUse" id="gradient21" r="819.2" spreadMethod="pad">
      <stop offset="0.0" stop-color="#bf3c19"/>
      <stop offset="1.0" stop-color="#5c0e06"/>
    </radialGradient>
    <radialGradient cx="0" cy="0" gradientTransform="matrix(0.0201, 0.0, 0.0, 0.0201, -7.25, 7.75)" gradientUnits="userSpaceOnUse" id="gradient22" r="819.2" spreadMethod="pad">
      <stop offset="0.0" stop-color="#bf3c19"/>
      <stop offset="1.0" stop-color="#5c0e06"/>
    </radialGradient>
    <radialGradient cx="0" cy="0" gradientTransform="matrix(0.0054, 0.0, 0.0, 0.0054, -10.25, -9.5)" gradientUnits="userSpaceOnUse" id="gradient23" r="819.2" spreadMethod="pad">
      <stop offset="0.0" stop-color="#bf3c19"/>
      <stop offset="1.0" stop-color="#5c0e06"/>
    </radialGradient>
    <radialGradient cx="0" cy="0" gradientTransform="matrix(0.0205, 0.0, 0.0, 0.0205, -5.5, 7.0)" gradientUnits="userSpaceOnUse" id="gradient24" r="819.2" spreadMethod="pad">
      <stop offset="0.0" stop-color="#bf3c19"/>
      <stop offset="1.0" stop-color="#5c0e06"/>
    </radialGradient>
    <radialGradient cx="0" cy="0" gradientTransform="matrix(0.0322, 0.0, 0.0, 0.0322, -19.25, 15.0)" gradientUnits="userSpaceOnUse" id="gradient25" r="819.2" spreadMethod="pad">
      <stop offset="0.0" stop-color="#c04e42"/>
      <stop offset="1.0" stop-color="#6e1f08"/>
    </radialGradient>
    <radialGradient cx="0" cy="0" gradientTransform="matrix(0.0068, 0.0, 0.0, 0.0068, -21.5, 10.0)" gradientUnits="userSpaceOnUse" id="gradient26" r="819.2" spreadMethod="pad">
      <stop offset="0.0" stop-color="#c04e42"/>
      <stop offset="1.0" stop-color="#6e1f08"/>
    </radialGradient>
    <radialGradient cx="0" cy="0" gradientTransform="matrix(0.0181, 0.0, 0.0, 0.0181, -26.0, -2.25)" gradientUnits="userSpaceOnUse" id="gradient27" r="819.2" spreadMethod="pad">
      <stop offset="0.0" stop-color="#bf3c19"/>
      <stop offset="1.0" stop-color="#5c0e06"/>
    </radialGradient>
    <radialGradient cx="0" cy="0" gradientTransform="matrix(0.0162, 0.0, 0.0, 0.0162, -36.5, 11.75)" gradientUnits="userSpaceOnUse" id="gradient28" r="819.2" spreadMethod="pad">
      <stop offset="0.0" stop-color="#bf3c19"/>
      <stop offset="1.0" stop-color="#5c0e06"/>
    </radialGradient>
    <radialGradient cx="0" cy="0" gradientTransform="matrix(0.0316, 0.0, 0.0, 0.0316, -45.0, 17.75)" gradientUnits="userSpaceOnUse" id="gradient29" r="819.2" spreadMethod="pad">
      <stop offset="0.0" stop-color="#bf3c19"/>
      <stop offset="1.0" stop-color="#5c0e06"/>
    </radialGradient>
    <radialGradient cx="0" cy="0" gradientTransform="matrix(0.04, 0.0, 0.0, 0.04, -50.0, 35.0)" gradientUnits="userSpaceOnUse" id="gradient30" r="819.2" spreadMethod="pad">
      <stop offset="0.3686274509803922" stop-color="#000000"/>
      <stop offset="1.0" stop-color="#999999"/>
    </radialGradient>
    <radialGradient cx="0" cy="0" gradientTransform="matrix(0.0475, 0.0, 0.0, 0.0475, -89.25, 22.5)" gradientUnits="userSpaceOnUse" id="gradient31" r="819.2" spreadMethod="pad">
      <stop offset="0.0" stop-color="#bf3c19"/>
      <stop offset="1.0" stop-color="#5c0e06"/>
    </radialGradient>
    <radialGradient cx="0" cy="0" gradientTransform="matrix(0.0492, 0.0, 0.0, 0.0492, -111.0, 58.0)" gradientUnits="userSpaceOnUse" id="gradient32" r="819.2" spreadMethod="pad">
      <stop offset="0.0" stop-color="#bf3c19"/>
      <stop offset="1.0" stop-color="#5c0e06"/>
    </radialGradient>
    <radialGradient cx="0" cy="0" gradientTransform="matrix(0.0508, 0.0, 0.0, 0.0508, -93.7, 31.25)" gradientUnits="userSpaceOnUse" id="gradient33" r="819.2" spreadMethod="pad">
      <stop offset="0.0" stop-color="#bf3c19"/>
      <stop offset="1.0" stop-color="#5c0e06"/>
    </radialGradient>
    <radialGradient cx="0" cy="0" gradientTransform="matrix(0.0671, 0.0, 0.0, 0.0671, -145.75, 55.25)" gradientUnits="userSpaceOnUse" id="gradient34" r="819.2" spreadMethod="pad">
      <stop offset="0.0" stop-color="#bf3c19"/>
      <stop offset="1.0" stop-color="#5c0e06"/>
    </radialGradient>
  </defs>
</svg>
