<?xml version="1.0" encoding="UTF-8" standalone="no"?>
<svg xmlns:ffdec="https://www.free-decompiler.com/flash" xmlns:xlink="http://www.w3.org/1999/xlink" ffdec:objectType="shape" height="424.35px" width="511.15px" xmlns="http://www.w3.org/2000/svg">
  <g transform="matrix(1.0, 0.0, 0.0, 1.0, 255.6, 212.2)">
    <path d="M195.15 179.8 L195.95 181.9 161.0 165.0 Q163.0 154.9 168.0 149.85 L168.0 149.8 168.2 149.6 Q175.8 142.4 190.2 146.75 L190.25 146.8 Q190.85 147.0 190.85 147.35 198.25 154.65 205.75 161.8 L210.75 166.65 207.45 166.9 Q191.35 166.6 195.0 179.3 L195.15 179.8" fill="url(#gradient0)" fill-rule="evenodd" stroke="none"/>
    <path d="M195.15 179.8 L195.0 179.3 Q191.35 166.6 207.45 166.9 L253.4 204.15 253.3 204.15 252.65 203.8 252.5 203.65 251.3 203.1 Q247.6 201.5 245.85 201.95 L242.35 202.95 Q241.0 203.5 240.55 204.2 239.8 205.5 239.85 207.1 239.85 208.8 240.75 210.05 L241.1 210.45 239.45 209.15 195.15 179.8 M240.75 210.05 L239.45 209.15 Q238.7 208.3 238.7 207.25 238.65 205.55 240.55 204.2 238.65 205.55 238.7 207.25 238.7 208.3 239.45 209.15 L240.75 210.05" fill="url(#gradient1)" fill-rule="evenodd" stroke="none"/>
    <path d="M205.75 161.8 Q198.25 154.65 190.85 147.35 190.85 147.0 190.25 146.8 L190.2 146.75 Q187.2 139.2 182.15 130.9 198.15 141.35 212.15 154.65 L213.9 156.45 212.35 156.3 Q205.7 156.1 205.8 161.7 L205.75 161.8" fill="url(#gradient2)" fill-rule="evenodd" stroke="none"/>
    <path d="M213.9 156.45 Q222.7 162.95 226.1 169.65 219.55 168.4 213.65 165.85 209.55 164.1 205.8 161.7 205.7 156.1 212.35 156.3 L213.9 156.45" fill="url(#gradient3)" fill-rule="evenodd" stroke="none"/>
    <path d="M190.2 146.75 Q175.8 142.4 168.2 149.6 L167.65 149.75 159.65 142.0 150.8 134.05 148.25 131.7 78.15 68.3 Q77.15 58.05 72.5 49.75 L72.35 49.45 31.3 18.95 -26.9 -0.2 -30.55 1.25 -42.2 -5.35 -37.55 -7.05 Q-26.9 -10.45 -11.3 -9.65 L9.35 4.0 9.25 4.1 35.35 10.95 42.4 15.0 44.0 10.35 65.3 26.1 65.35 26.15 65.4 26.2 65.65 26.35 65.7 26.5 67.55 27.05 Q69.6 27.25 71.55 26.1 72.9 25.4 73.7 24.35 155.6 86.95 182.15 130.9 187.2 139.2 190.2 146.75 M112.05 92.0 Q117.65 92.15 119.4 89.45 88.85 62.2 82.95 61.35 96.4 81.55 112.05 92.0" fill="url(#gradient4)" fill-rule="evenodd" stroke="none"/>
    <path d="M168.0 149.85 Q163.0 154.9 161.0 165.0 95.5 139.75 53.0 107.0 L52.9 106.85 52.9 106.7 Q52.15 87.85 74.8 72.95 L74.7 72.8 74.65 72.65 Q70.9 55.25 56.75 42.4 L56.75 42.35 Q25.55 15.35 -12.25 10.8 L-30.55 1.25 -26.9 -0.2 31.3 18.95 72.35 49.45 72.5 49.75 Q77.15 58.05 78.15 68.3 L148.25 131.7 Q128.2 115.15 101.0 100.0 126.8 128.5 167.7 149.8 L168.0 149.85" fill="url(#gradient5)" fill-rule="evenodd" stroke="none"/>
    <path d="M168.2 149.6 L168.0 149.8 167.7 149.8 167.65 149.75 168.2 149.6" fill="url(#gradient6)" fill-rule="evenodd" stroke="none"/>
    <path d="M167.65 149.75 L167.7 149.8 Q126.8 128.5 101.0 100.0 128.2 115.15 148.25 131.7 L150.8 134.05 159.65 142.0 167.65 149.75" fill="url(#gradient7)" fill-rule="evenodd" stroke="none"/>
    <path d="M52.6 106.85 Q40.9 104.3 30.55 100.7 11.45 93.9 -2.9 83.25 L-3.15 83.1 -8.65 78.75 -8.8 78.35 -9.55 78.0 Q-15.55 72.8 -20.65 66.85 L-20.85 66.5 Q-37.15 46.9 -43.2 19.05 -19.75 74.9 52.9 106.7 L52.85 106.85 52.6 106.85" fill="url(#gradient8)" fill-rule="evenodd" stroke="none"/>
    <path d="M161.0 165.0 Q77.4 139.65 26.9 102.55 L20.75 97.9 30.55 100.7 Q40.9 104.3 52.6 106.85 L52.9 106.95 53.0 107.0 Q95.5 139.75 161.0 165.0" fill="url(#gradient9)" fill-rule="evenodd" stroke="none"/>
    <path d="M52.9 106.7 Q-19.75 74.9 -43.2 19.05 L-43.35 18.4 -37.55 10.25 Q31.3 27.8 74.65 72.65 L74.7 72.8 74.8 72.95 Q52.15 87.85 52.9 106.7 M-21.6 23.55 Q9.65 49.45 52.8 68.5 21.85 39.9 -21.6 23.55" fill="url(#gradient10)" fill-rule="evenodd" stroke="none"/>
    <path d="M112.05 92.0 Q96.4 81.55 82.95 61.35 88.85 62.2 119.4 89.45 117.65 92.15 112.05 92.0" fill="url(#gradient11)" fill-rule="evenodd" stroke="none"/>
    <path d="M80.6 -20.45 L112.95 6.5 Q118.0 12.7 112.95 18.85 108.0 24.95 96.5 24.95 85.55 24.85 75.15 19.6 L74.2 19.1 73.6 18.55 72.55 18.15 51.5 4.2 51.35 4.15 51.15 3.95 Q46.95 0.6 47.6 -1.75 48.25 -4.15 53.55 -14.0 58.85 -23.85 80.6 -20.45 M97.9 22.8 Q102.7 23.1 106.7 20.55 110.75 18.1 111.75 14.3 112.8 10.55 110.15 7.75 107.55 4.9 102.7 4.7 97.85 4.5 93.8 6.95 89.8 9.45 88.85 13.2 87.95 17.0 90.5 19.85 93.2 22.65 97.9 22.8" fill="url(#gradient12)" fill-rule="evenodd" stroke="none"/>
    <path d="M19.75 103.2 L20.3 103.7 20.5 104.05 Q20.95 104.65 21.0 105.3 21.0 106.65 19.8 107.65 18.55 108.55 16.75 108.6 L15.6 108.55 Q14.65 108.4 13.8 107.85 L13.05 107.1 Q12.55 106.45 12.5 105.55 12.5 104.25 13.7 103.3 14.9 102.35 16.65 102.25 18.45 102.25 19.75 103.2 M27.5 132.05 Q29.7 134.0 29.75 136.65 29.85 139.65 27.1 141.9 24.45 144.15 20.6 144.25 16.9 144.35 14.15 142.45 L14.0 142.3 13.95 142.3 Q11.2 140.2 11.1 137.15 11.05 135.35 12.0 133.75 L13.1 132.65 13.7 131.95 Q16.45 129.75 20.3 129.6 24.1 129.5 26.9 131.5 L27.5 132.05 M104.7 -24.65 L105.3 -23.9 Q106.25 -22.65 105.4 -21.1 104.65 -19.4 102.6 -18.4 100.7 -17.4 98.85 -17.65 97.75 -17.75 96.95 -18.2 L95.9 -19.2 Q95.2 -20.5 96.0 -22.05 96.85 -23.7 98.75 -24.65 100.7 -25.7 102.55 -25.45 103.95 -25.3 104.7 -24.65 M74.2 19.1 L74.7 19.8 Q75.5 21.25 74.5 23.2 L73.7 24.35 Q72.9 25.4 71.55 26.1 69.6 27.25 67.55 27.05 L65.7 26.5 65.65 26.35 65.4 26.2 65.35 26.15 65.3 26.1 64.65 25.35 Q63.95 23.95 64.85 22.1 65.8 20.2 67.75 19.05 69.9 17.9 72.0 18.15 L72.55 18.15 73.6 18.55 74.2 19.1 M97.9 22.8 Q93.2 22.65 90.5 19.85 87.95 17.0 88.85 13.2 89.8 9.45 93.8 6.95 97.85 4.5 102.7 4.7 107.55 4.9 110.15 7.75 112.8 10.55 111.75 14.3 110.75 18.1 106.7 20.55 102.7 23.1 97.9 22.8 M253.4 204.15 Q255.05 205.3 255.05 206.75 255.1 208.7 252.7 210.15 250.35 211.6 247.0 211.65 244.2 211.7 242.0 210.85 L240.75 210.05 Q239.85 208.8 239.85 207.1 239.8 205.5 240.55 204.2 L240.95 203.95 Q243.4 202.55 246.8 202.4 248.85 202.35 250.55 202.85 L253.3 204.15 253.4 204.15" fill="#000000" fill-rule="evenodd" stroke="none"/>
    <path d="M72.55 18.15 L72.0 18.15 Q69.9 17.9 67.75 19.05 65.8 20.2 64.85 22.1 63.95 23.95 64.65 25.35 L65.3 26.1 44.0 10.35 43.35 9.85 Q44.85 4.85 51.15 3.95 L51.35 4.15 51.5 4.2 72.55 18.15" fill="url(#gradient13)" fill-rule="evenodd" stroke="none"/>
    <path d="M-12.25 10.8 Q25.55 15.35 56.75 42.35 L56.75 42.4 Q70.9 55.25 74.65 72.65 31.3 27.8 -37.55 10.25 -29.6 9.7 -21.85 9.95 L-12.25 10.8" fill="url(#gradient14)" fill-rule="evenodd" stroke="none"/>
    <path d="M-1.6 134.05 Q0.7 137.6 -1.5 137.85 -3.9 138.55 -18.9 127.9 L-99.05 151.85 -108.8 149.05 -153.85 163.0 -164.75 146.15 -164.65 146.1 -150.9 120.35 -144.5 124.8 -123.7 85.15 -116.35 92.3 -101.85 66.3 -94.95 73.75 -94.3 74.35 -94.15 74.55 Q-61.1 109.35 -54.6 110.15 L-54.45 110.1 -36.2 117.95 -29.65 107.95 -26.25 110.1 Q-34.0 115.95 -1.6 134.05" fill="url(#gradient15)" fill-rule="evenodd" stroke="none"/>
    <path d="M13.05 111.7 Q21.25 121.15 27.5 132.05 L26.9 131.5 Q24.1 129.5 20.3 129.6 16.45 129.75 13.7 131.95 L13.1 132.65 Q13.65 131.25 12.55 129.8 L-23.0 98.95 -21.7 96.9 -23.0 98.95 -23.35 98.65 -21.7 96.9 Q-12.15 87.9 1.9 100.55 7.85 105.85 13.05 111.7" fill="url(#gradient16)" fill-rule="evenodd" stroke="none"/>
    <path d="M13.1 132.65 L12.0 133.75 Q10.6 135.05 7.35 136.25 L-26.25 110.1 -29.65 107.95 -23.0 98.95 12.55 129.8 Q13.65 131.25 13.1 132.65" fill="#21263e" fill-rule="evenodd" stroke="none"/>
    <path d="M13.95 142.3 Q5.3 137.9 -1.6 134.05 -34.0 115.95 -26.25 110.1 L7.35 136.25 Q10.6 135.05 12.0 133.75 11.05 135.35 11.1 137.15 11.2 140.2 13.95 142.3" fill="url(#gradient17)" fill-rule="evenodd" stroke="none"/>
    <path d="M15.6 108.55 Q12.6 108.85 13.05 111.7 7.85 105.85 1.9 100.55 -12.15 87.9 -21.7 96.9 L-8.65 78.75 -3.15 83.1 Q-11.35 83.4 -9.95 87.6 L13.05 107.1 13.8 107.85 Q14.65 108.4 15.6 108.55 M75.3 -50.75 L86.5 -42.05 Q74.15 -46.45 69.3 -32.6 75.75 -26.45 82.3 -22.95 L80.6 -20.45 Q58.85 -23.85 53.55 -14.0 48.25 -4.15 47.6 -1.75 46.95 0.6 51.15 3.95 44.85 4.85 43.35 9.85 L44.0 10.35 42.4 15.0 35.35 10.95 74.55 -50.35 75.1 -50.7 75.3 -50.75" fill="#111111" fill-rule="evenodd" stroke="none"/>
    <path d="M-9.55 78.0 L-8.8 78.35 -8.65 78.75 -21.7 96.9 -23.35 98.65 -23.0 98.95 -29.65 107.95 -36.2 117.95 -54.45 110.1 -54.5 110.05 -32.2 72.75 -32.1 72.75 -9.55 78.0 -8.65 78.75 -9.55 78.0" fill="url(#gradient18)" fill-rule="evenodd" stroke="none"/>
    <path d="M13.95 98.1 L19.75 103.2 Q18.45 102.25 16.65 102.25 14.9 102.35 13.7 103.3 12.5 104.25 12.5 105.55 12.55 106.45 13.05 107.1 L-9.95 87.6 Q-11.35 83.4 -3.15 83.1 L-2.9 83.25 13.95 98.1" fill="url(#gradient19)" fill-rule="evenodd" stroke="none"/>
    <path d="M-20.85 66.5 L-20.65 66.85 Q-15.55 72.8 -9.55 78.0 L-32.1 72.75 -32.2 72.75 -71.4 35.45 -57.7 34.75 -34.15 55.0 -20.85 66.5" fill="url(#gradient20)" fill-rule="evenodd" stroke="none"/>
    <path d="M-32.2 72.75 L-54.5 110.05 -54.6 110.15 Q-61.1 109.35 -94.15 74.55 L-94.3 74.35 -73.1 38.25 -71.4 35.45 -32.2 72.75 -32.25 72.75 -32.2 72.75" fill="url(#gradient21)" fill-rule="evenodd" stroke="none"/>
    <path d="M-43.2 19.05 Q-37.15 46.9 -20.85 66.5 L-34.15 55.0 -51.6 29.3 Q-53.4 13.9 -35.65 3.9 L-21.85 9.95 Q-29.6 9.7 -37.55 10.25 L-43.35 18.4 -43.2 19.05" fill="#f5efee" fill-rule="evenodd" stroke="none"/>
    <path d="M-124.55 75.6 L-113.45 53.0 -113.05 52.85 -105.0 62.95 -102.45 65.8 -102.1 66.0 -101.85 66.3 -116.35 92.3 -123.7 85.15 -120.85 79.65 -124.55 75.6 M-118.1 72.2 L-112.75 75.3 -118.1 72.2 M-119.55 75.05 Q-116.9 76.5 -114.2 78.1 -116.9 76.5 -119.55 75.05 M-114.75 66.35 L-109.45 69.45 -114.75 66.35 M-113.3 63.45 Q-110.65 64.9 -107.9 66.5 -110.65 64.9 -113.3 63.45 M-116.2 69.3 L-110.8 72.25 -116.2 69.3" fill="url(#gradient22)" fill-rule="evenodd" stroke="none"/>
    <path d="M-94.3 74.35 L-94.95 73.75 Q-99.3 47.15 -73.1 38.25 L-94.3 74.35" fill="url(#gradient23)" fill-rule="evenodd" stroke="none"/>
    <path d="M-57.7 34.75 L-71.4 35.45 -73.1 38.25 Q-99.3 47.15 -94.95 73.75 L-101.85 66.3 -102.1 65.7 Q-104.3 34.6 -62.65 30.55 L-60.4 32.4 -57.7 34.75" fill="url(#gradient24)" fill-rule="evenodd" stroke="none"/>
    <path d="M-113.45 53.0 L-118.3 47.2 Q-126.2 21.15 -80.8 15.15 L-70.15 24.15 -62.65 30.55 Q-104.3 34.6 -102.1 65.7 L-102.45 65.8 -105.0 62.95 -113.05 52.85 -113.3 52.6 -113.45 53.0" fill="url(#gradient25)" fill-rule="evenodd" stroke="none"/>
    <path d="M-165.3 145.2 L-168.7 140.75 -133.8 65.75 -124.55 75.6 -120.85 79.65 -123.7 85.15 -144.5 124.8 -150.9 120.35 -164.65 146.1 -165.3 145.2 M-38.1 -103.5 L-28.35 -123.65 -43.85 -135.25 -5.75 -210.35 23.85 -211.15 -9.75 -143.35 -31.15 -100.45 -38.1 -103.5" fill="#eeeeee" fill-rule="evenodd" stroke="none"/>
    <path d="M-140.05 20.55 L-141.8 18.5 Q-148.2 9.9 -147.55 5.75 L-147.6 5.8 -146.95 4.15 -143.45 -0.1 -138.25 -5.65 Q-136.1 -8.05 -131.0 -10.1 -120.7 -5.3 -106.05 -5.35 -134.25 -3.25 -140.05 20.55" fill="url(#gradient26)" fill-rule="evenodd" stroke="none"/>
    <path d="M-131.75 22.7 L-135.15 19.9 -130.75 14.1 -126.75 16.9 -131.75 22.7 M-119.25 8.9 L-125.45 14.6 -129.2 12.25 -122.85 6.25 -119.25 8.9 M-92.4 -72.4 L-88.95 -82.3 -86.0 -77.5 -88.0 -73.65 -92.4 -72.4 M-82.15 -85.55 L-87.6 -85.4 -78.4 -94.65 -75.95 -90.4 -82.15 -85.55" fill="#333333" fill-rule="evenodd" stroke="none"/>
    <path d="M-118.3 47.2 L-140.05 20.55 Q-134.25 -3.25 -106.05 -5.35 L-105.1 -5.45 -80.8 15.15 Q-126.2 21.15 -118.3 47.2 M-126.75 16.9 L-130.75 14.1 -135.15 19.9 -131.75 22.7 -124.8 28.45 -119.45 22.0 -126.75 16.9 M-125.45 14.6 L-117.5 20.1 -111.85 14.95 -119.25 8.9 -122.85 6.25 -129.2 12.25 -125.45 14.6" fill="url(#gradient27)" fill-rule="evenodd" stroke="none"/>
    <path d="M-147.6 5.8 L-148.2 4.4 -148.35 4.2 Q-146.15 -12.1 -119.9 -17.95 L-118.8 -17.0 -115.8 -14.45 Q-125.4 -12.35 -131.0 -10.1 -136.1 -8.05 -138.25 -5.65 L-143.45 -0.1 -146.95 4.15 -147.6 5.8" fill="url(#gradient28)" fill-rule="evenodd" stroke="none"/>
    <path d="M-148.35 4.2 Q-152.25 -4.1 -146.5 -10.75 -144.5 -13.1 -141.35 -15.25 L-137.5 -17.55 Q-132.5 -20.2 -125.4 -22.6 L-125.35 -22.6 -119.9 -17.95 Q-146.15 -12.1 -148.35 4.2 M-114.95 -84.85 L-116.35 -88.7 Q-124.9 -115.8 -83.85 -116.15 L-83.8 -115.9 Q-101.55 -114.15 -112.4 -97.9 -116.7 -91.7 -114.95 -84.85 M-143.4 -8.4 L-146.5 -10.75 -143.4 -8.4" fill="#4d323e" fill-rule="evenodd" stroke="none"/>
    <path d="M-123.75 -23.35 L-243.9 -65.55 -255.1 -79.6 -241.75 -67.6 -224.3 -61.6 -80.85 -12.25 -80.8 -12.2 -79.55 -11.45 Q-76.55 -9.45 -79.35 -7.8 L-101.8 -15.45 -110.8 -18.5 -118.15 -21.2 -123.75 -23.35" fill="#ffffff" fill-rule="evenodd" stroke="none"/>
    <path d="M-255.1 -79.6 L-233.0 -75.5 -224.3 -61.6 -241.75 -67.6 -255.1 -79.6" fill="#00ccff" fill-rule="evenodd" stroke="none"/>
    <path d="M-233.0 -75.5 L-153.85 -59.65 Q-135.7 -51.4 -120.6 -43.05 L-113.05 -38.9 Q-99.85 -31.3 -89.25 -23.55 L-80.75 -12.25 -80.85 -12.25 -224.3 -61.6 -233.0 -75.5" fill="url(#gradient29)" fill-rule="evenodd" stroke="none"/>
    <path d="M-30.55 1.25 L-12.25 10.8 -21.85 9.95 -35.65 3.9 -34.75 3.4 -30.55 1.25 M-131.75 22.7 L-126.75 16.9 -119.45 22.0 -124.8 28.45 -131.75 22.7 M-88.0 -73.65 L-86.0 -77.5 -74.9 -75.0 -78.15 -67.55 -88.0 -73.65" fill="#999999" fill-rule="evenodd" stroke="none"/>
    <path d="M-119.25 8.9 L-111.85 14.95 -117.5 20.1 -125.45 14.6 -119.25 8.9 M-71.2 -80.45 L-82.15 -85.55 -75.95 -90.4 -63.05 -85.95 -70.75 -80.6 -71.2 -80.45" fill="#dddddd" fill-rule="evenodd" stroke="none"/>
    <path d="M-70.15 24.15 L-70.15 19.65 -70.05 16.45 -60.45 22.25 Q-60.7 26.25 -60.4 32.4 L-62.65 30.55 -70.15 24.15" fill="url(#gradient30)" fill-rule="evenodd" stroke="none"/>
    <path d="M-108.6 -50.7 L-105.45 -50.0 -102.55 -49.4 -96.45 -46.6 -33.4 -17.2 Q-41.3 -16.35 -47.55 -14.1 L-53.15 -11.6 -62.8 -17.0 -54.4 -10.9 Q-61.85 -6.35 -65.85 1.15 -69.25 7.7 -70.05 16.45 L-70.15 19.65 -101.8 -15.45 -79.35 -7.8 Q-76.55 -9.45 -79.55 -11.45 L-80.8 -12.2 -80.75 -12.25 -89.25 -23.55 -98.9 -36.6 -104.2 -43.85 -108.6 -50.7" fill="url(#gradient31)" fill-rule="evenodd" stroke="none"/>
    <path d="M-70.15 19.65 L-70.15 24.15 -80.8 15.15 -105.1 -5.45 -112.85 -11.95 -110.8 -18.5 -101.8 -15.45 -70.15 19.65" fill="url(#gradient32)" fill-rule="evenodd" stroke="none"/>
    <path d="M-34.75 3.4 L-35.65 3.9 Q-53.4 13.9 -51.6 29.3 L-34.15 55.0 -57.7 34.75 -60.4 32.4 Q-60.7 26.25 -60.45 22.25 -59.75 14.05 -56.5 7.9 L-56.4 7.65 Q-52.45 0.3 -45.0 -3.9 L-34.75 3.4" fill="url(#gradient33)" fill-rule="evenodd" stroke="none"/>
    <path d="M-60.45 22.25 L-70.05 16.45 Q-69.25 7.7 -65.85 1.15 L-56.4 7.65 -56.5 7.9 Q-59.75 14.05 -60.45 22.25" fill="url(#gradient34)" fill-rule="evenodd" stroke="none"/>
    <path d="M-42.2 -5.35 L-30.55 1.25 -34.75 3.4 -45.0 -3.9 -42.2 -5.35 M-54.4 -10.9 L-62.8 -17.0 -53.15 -11.6 -54.4 -10.9" fill="#ff8176" fill-rule="evenodd" stroke="none"/>
    <path d="M-37.55 -7.05 L-42.2 -5.35 -45.0 -3.9 Q-52.45 0.3 -56.4 7.65 L-65.85 1.15 Q-61.85 -6.35 -54.4 -10.9 L-53.15 -11.6 -47.55 -14.1 -37.55 -7.05" fill="url(#gradient35)" fill-rule="evenodd" stroke="none"/>
    <path d="M-69.55 -48.85 L-70.6 -49.6 Q-81.85 -86.6 -24.8 -90.3 L-2.45 -78.35 Q-58.6 -82.05 -53.2 -37.75 L-69.55 -48.85" fill="url(#gradient36)" fill-rule="evenodd" stroke="none"/>
    <path d="M-33.4 -17.2 L-96.45 -46.6 -91.8 -60.25 -70.7 -49.55 -70.65 -49.55 -69.55 -48.85 -53.2 -37.75 -37.6 -27.1 -37.75 -27.0 -37.1 -26.55 -23.5 -17.65 -33.4 -17.2" fill="url(#gradient37)" fill-rule="evenodd" stroke="none"/>
    <path d="M-105.45 -50.0 L-97.05 -67.7 -70.6 -49.6 -70.7 -49.55 -91.8 -60.25 -96.45 -46.6 -102.55 -49.4 -105.45 -50.0 M-110.8 -18.5 L-112.85 -11.95 -115.8 -14.45 -118.8 -17.0 -118.15 -21.2 -110.8 -18.5 M-71.2 -80.45 L-75.4 -79.05 -87.6 -85.4 -82.15 -85.55 -71.2 -80.45 M-78.4 -94.65 L-63.05 -85.95 -75.95 -90.4 -78.4 -94.65" fill="#cccccc" fill-rule="evenodd" stroke="none"/>
    <path d="M-112.85 -11.95 L-105.1 -5.45 -106.05 -5.35 Q-120.7 -5.3 -131.0 -10.1 -125.4 -12.35 -115.8 -14.45 L-112.85 -11.95" fill="url(#gradient38)" fill-rule="evenodd" stroke="none"/>
    <path d="M-125.35 -22.6 L-123.75 -23.35 -118.15 -21.2 -118.8 -17.0 -119.9 -17.95 -125.35 -22.6" fill="#0066ff" fill-rule="evenodd" stroke="none"/>
    <path d="M-153.85 -59.65 L-108.6 -50.7 -104.2 -43.85 Q-112.6 -44.8 -120.6 -43.05 -135.7 -51.4 -153.85 -59.65" fill="url(#gradient39)" fill-rule="evenodd" stroke="none"/>
    <path d="M-113.05 -38.9 L-120.6 -43.05 Q-112.6 -44.8 -104.2 -43.85 L-98.9 -36.6 Q-106.05 -36.85 -113.05 -38.9" fill="#77819f" fill-rule="evenodd" stroke="none"/>
    <path d="M-89.25 -23.55 Q-99.85 -31.3 -113.05 -38.9 -106.05 -36.85 -98.9 -36.6 L-89.25 -23.55" fill="url(#gradient40)" fill-rule="evenodd" stroke="none"/>
    <path d="M-11.3 -9.65 Q-26.9 -10.45 -37.55 -7.05 L-47.55 -14.1 Q-41.3 -16.35 -33.4 -17.2 L-23.5 -17.65 -11.3 -9.65" fill="url(#gradient41)" fill-rule="evenodd" stroke="none"/>
    <path d="M35.35 10.95 L9.25 4.1 9.35 4.0 42.0 -49.9 73.95 -50.75 74.55 -50.35 35.35 10.95" fill="url(#gradient42)" fill-rule="evenodd" stroke="none"/>
    <path d="M-37.6 -27.1 L-53.2 -37.75 Q-58.6 -82.05 -2.45 -78.35 L-8.55 -77.6 -12.1 -71.45 Q-49.5 -60.05 -37.4 -27.4 L-37.6 -27.1" fill="url(#gradient43)" fill-rule="evenodd" stroke="none"/>
    <path d="M9.35 4.0 L-11.3 -9.65 -23.5 -17.65 -37.1 -26.55 -37.6 -27.1 -37.4 -27.4 -12.1 -71.45 -8.55 -77.6 42.0 -49.9 9.35 4.0" fill="url(#gradient44)" fill-rule="evenodd" stroke="none"/>
    <path d="M-97.05 -67.7 L-98.1 -68.45 Q-99.85 -101.6 -54.05 -105.85 L-24.8 -90.3 Q-81.85 -86.6 -70.6 -49.6 L-97.05 -67.7 M-88.95 -82.3 L-92.4 -72.4 -81.5 -66.45 -78.15 -67.55 -74.9 -75.0 -88.95 -82.3 M-87.6 -85.4 L-75.4 -79.05 -71.2 -80.45 -70.75 -80.6 -63.05 -85.95 -78.4 -94.65 -87.6 -85.4" fill="url(#gradient45)" fill-rule="evenodd" stroke="none"/>
    <path d="M-8.55 -77.6 L-2.45 -78.35 7.65 -79.8 10.4 -80.1 74.85 -50.8 73.95 -50.75 42.0 -49.9 -8.55 -77.6" fill="url(#gradient46)" fill-rule="evenodd" stroke="none"/>
    <path d="M23.85 -211.15 L42.5 -211.7 74.1 -158.05 94.1 -152.0 113.2 -54.65 104.15 -36.2 Q80.55 -52.9 75.3 -50.75 L74.85 -50.8 10.4 -80.1 7.65 -79.8 Q-4.3 -87.0 -15.25 -92.65 L3.95 -135.0 -9.75 -143.35 23.85 -211.15" fill="url(#gradient47)" fill-rule="evenodd" stroke="none"/>
    <path d="M-31.15 -100.45 L-9.75 -143.35 3.95 -135.0 -15.25 -92.65 Q-23.4 -96.85 -31.15 -100.45 M-22.4 -110.7 L-14.4 -106.4 -22.4 -110.7 M-20.5 -114.5 Q-16.6 -112.4 -12.7 -110.25 -16.6 -112.4 -20.5 -114.5 M-12.7 -131.15 L-4.85 -126.95 -12.7 -131.15 M-16.3 -122.75 L-8.4 -118.55 -16.3 -122.75 M-14.5 -127.0 L-6.55 -122.75 -14.5 -127.0 M-18.8 -118.5 L-10.9 -114.25 -18.8 -118.5 M-24.2 -106.65 L-16.2 -102.4 -24.2 -106.65" fill="url(#gradient48)" fill-rule="evenodd" stroke="none"/>
    <path d="M-98.1 -68.45 L-111.15 -77.4 -113.5 -81.25 Q-103.75 -110.2 -68.8 -113.7 L-54.05 -105.85 Q-99.85 -101.6 -98.1 -68.45" fill="url(#gradient49)" fill-rule="evenodd" stroke="none"/>
    <path d="M-113.5 -81.25 L-114.95 -84.85 Q-116.7 -91.7 -112.4 -97.9 -101.55 -114.15 -83.8 -115.9 L-79.1 -116.2 -78.55 -116.1 -72.5 -115.55 -72.4 -115.7 -68.8 -113.7 Q-103.75 -110.2 -113.5 -81.25" fill="url(#gradient50)" fill-rule="evenodd" stroke="none"/>
    <path d="M-92.4 -72.4 L-88.0 -73.65 -78.15 -67.55 -81.5 -66.45 -92.4 -72.4 M-86.0 -77.5 L-88.95 -82.3 -74.9 -75.0 -86.0 -77.5" fill="#666666" fill-rule="evenodd" stroke="none"/>
    <path d="M-83.85 -116.15 L-83.25 -116.2 -79.1 -116.2 -83.8 -115.9 -83.85 -116.15" fill="#5a2317" fill-rule="evenodd" stroke="none"/>
    <path d="M-37.4 -27.4 Q-49.5 -60.05 -12.1 -71.45 L-37.4 -27.4" fill="url(#gradient51)" fill-rule="evenodd" stroke="none"/>
    <path d="M86.5 -42.05 L86.75 -41.9 Q106.9 -26.25 104.7 -24.65 103.95 -25.3 102.55 -25.45 100.7 -25.7 98.75 -24.65 96.85 -23.7 96.0 -22.05 95.2 -20.5 95.9 -19.2 L96.95 -18.2 Q89.55 -18.95 82.3 -22.95 75.75 -26.45 69.3 -32.6 74.15 -46.45 86.5 -42.05" fill="url(#gradient52)" fill-rule="evenodd" stroke="none"/>
    <path d="M74.85 -50.8 L75.3 -50.75 75.1 -50.7 Q75.0 -50.7 74.85 -50.8" fill="url(#gradient53)" fill-rule="evenodd" stroke="none"/>
    <path d="M-21.6 23.55 Q21.85 39.9 52.8 68.5 9.65 49.45 -21.6 23.55" fill="url(#gradient54)" fill-rule="evenodd" stroke="none"/>
    <path d="M161.0 165.0 L195.95 181.9 195.15 179.8 195.0 179.3 Q191.35 166.6 207.45 166.9 L210.75 166.65 205.75 161.8 Q198.25 154.65 190.85 147.35 190.85 147.0 190.25 146.8 L190.2 146.75 Q175.8 142.4 168.2 149.6 L168.0 149.8 168.0 149.85 Q163.0 154.9 161.0 165.0 77.4 139.65 26.9 102.55 20.4 101.5 13.95 98.1 L19.75 103.2 20.3 103.7 M15.6 108.55 Q12.6 108.85 13.05 111.7 21.25 121.15 27.5 132.05 29.7 134.0 29.75 136.65 29.85 139.65 27.1 141.9 24.45 144.15 20.6 144.25 16.9 144.35 14.15 142.45 L14.0 142.3 13.95 142.3 Q5.3 137.9 -1.6 134.05 0.7 137.6 -1.5 137.85 -3.9 138.55 -18.9 127.9 L-99.05 151.85 -108.8 149.05 -153.85 163.0 -164.75 146.15 -165.3 145.2 -168.7 140.75 -133.8 65.75 -124.55 75.6 -113.45 53.0 -118.3 47.2 -140.05 20.55 -141.8 18.5 Q-148.2 9.9 -147.55 5.75 L-147.6 5.8 -148.2 4.4 -148.35 4.2 Q-152.25 -4.1 -146.5 -10.75 -144.5 -13.1 -141.35 -15.25 L-137.5 -17.55 Q-132.5 -20.2 -125.4 -22.6 L-125.35 -22.6 -123.75 -23.35 -243.9 -65.55 -255.1 -79.6 -233.0 -75.5 -153.85 -59.65 -108.6 -50.7 -105.45 -50.0 -97.05 -67.7 -98.1 -68.45 -111.15 -77.4 -113.5 -81.25 -114.95 -84.85 -116.35 -88.7 Q-124.9 -115.8 -83.85 -116.15 L-83.25 -116.2 -79.1 -116.2 -78.55 -116.1 -72.5 -115.55 -72.4 -115.7 Q-56.8 -111.7 -38.1 -103.5 L-28.35 -123.65 -43.85 -135.25 -5.75 -210.35 M94.1 -152.0 L113.2 -54.65 104.15 -36.2 Q80.55 -52.9 75.3 -50.75 L86.5 -42.05 86.75 -41.9 Q106.9 -26.25 104.7 -24.65 M96.95 -18.2 Q89.55 -18.95 82.3 -22.95 L80.6 -20.45 112.95 6.5 Q118.0 12.7 112.95 18.85 108.0 24.95 96.5 24.95 85.55 24.85 75.15 19.6 L74.2 19.1 M73.7 24.35 Q155.6 86.95 182.15 130.9 198.15 141.35 212.15 154.65 L213.9 156.45 Q222.7 162.95 226.1 169.65 219.55 168.4 213.65 165.85 209.55 164.1 205.8 161.7 L205.75 161.8 M205.8 161.7 Q205.7 156.1 212.35 156.3 L213.9 156.45 M182.15 130.9 Q187.2 139.2 190.2 146.75 M167.65 149.75 L167.7 149.8 Q126.8 128.5 101.0 100.0 128.2 115.15 148.25 131.7 L78.15 68.3 Q77.15 58.05 72.5 49.75 L72.35 49.45 31.3 18.95 -26.9 -0.2 -30.55 1.25 -12.25 10.8 Q25.55 15.35 56.75 42.35 L56.75 42.4 Q70.9 55.25 74.65 72.65 31.3 27.8 -37.55 10.25 L-43.35 18.4 -43.2 19.05 Q-37.15 46.9 -20.85 66.5 L-20.65 66.85 Q-15.55 72.8 -9.55 78.0 L-32.1 72.75 -32.2 72.75 -54.5 110.05 -54.6 110.15 Q-61.1 109.35 -94.15 74.55 L-94.3 74.35 -94.95 73.75 -101.85 66.3 -116.35 92.3 -123.7 85.15 -144.5 124.8 -150.9 120.35 -164.65 146.1 -165.3 145.2 M167.65 149.75 L159.65 142.0 150.8 134.05 148.25 131.7 M52.9 106.7 L52.9 106.85 53.0 107.0 Q95.5 139.75 161.0 165.0 M53.0 107.0 L52.9 106.95 52.6 106.85 Q40.9 104.3 30.55 100.7 L20.75 97.9 26.9 102.55 M52.9 106.7 Q-19.75 74.9 -43.2 19.05 M-8.65 78.75 L-3.15 83.1 -2.9 83.25 Q11.45 93.9 30.55 100.7 M74.65 72.65 L74.7 72.8 74.8 72.95 Q52.15 87.85 52.9 106.7 M112.05 92.0 Q96.4 81.55 82.95 61.35 88.85 62.2 119.4 89.45 117.65 92.15 112.05 92.0 M65.3 26.1 L65.35 26.15 65.4 26.2 65.65 26.35 65.7 26.5 M65.3 26.1 L44.0 10.35 42.4 15.0 35.35 10.95 9.25 4.1 9.35 4.0 -11.3 -9.65 Q-26.9 -10.45 -37.55 -7.05 L-42.2 -5.35 -30.55 1.25 -34.75 3.4 -35.65 3.9 -21.85 9.95 -12.25 10.8 M27.5 132.05 L26.9 131.5 Q24.1 129.5 20.3 129.6 16.45 129.75 13.7 131.95 L13.1 132.65 12.0 133.75 Q11.05 135.35 11.1 137.15 11.2 140.2 13.95 142.3 M13.1 132.65 Q13.65 131.25 12.55 129.8 L-23.0 98.95 -29.65 107.95 -26.25 110.1 7.35 136.25 Q10.6 135.05 12.0 133.75 M-3.15 83.1 Q-11.35 83.4 -9.95 87.6 L13.05 107.1 M-23.0 98.95 L-21.7 96.9 -23.35 98.65 -23.0 98.95 M13.05 111.7 Q7.85 105.85 1.9 100.55 -12.15 87.9 -21.7 96.9 L-8.65 78.75 -9.55 78.0 M-54.45 110.1 L-36.2 117.95 -29.65 107.95 M-32.25 72.75 L-32.1 72.75 M-32.25 72.75 L-32.2 72.75 -71.4 35.45 -73.1 38.25 -94.3 74.35 M-20.85 66.5 L-34.15 55.0 -57.7 34.75 -71.4 35.45 M-2.9 83.25 L13.95 98.1 M-54.45 110.1 L-54.6 110.15 M-102.1 65.7 L-102.1 66.0 -101.85 66.3 -102.1 65.7 Q-104.3 34.6 -62.65 30.55 L-60.4 32.4 Q-60.7 26.25 -60.45 22.25 L-70.05 16.45 -70.15 19.65 -101.8 -15.45 -110.8 -18.5 -112.85 -11.95 -105.1 -5.45 -80.8 15.15 -70.15 24.15 -62.65 30.55 M-102.45 65.8 L-102.1 66.0 M-113.45 53.0 L-113.3 52.6 -113.05 52.85 -105.0 62.95 -102.45 65.8 M-1.6 134.05 Q-34.0 115.95 -26.25 110.1 M-123.7 85.15 L-120.85 79.65 -124.55 75.6 M240.75 210.05 L242.0 210.85 Q244.2 211.7 247.0 211.65 250.35 211.6 252.7 210.15 255.1 208.7 255.05 206.75 255.05 205.3 253.4 204.15 L253.3 204.15 250.55 202.85 Q248.85 202.35 246.8 202.4 243.4 202.55 240.95 203.95 L240.55 204.2 Q238.65 205.55 238.7 207.25 238.7 208.3 239.45 209.15 L240.75 210.05 M241.1 210.45 L242.0 210.85 M251.3 203.1 L250.55 202.85 M251.3 203.1 L252.5 203.65 252.65 203.8 253.3 204.15 M241.1 210.45 L239.45 209.15 195.15 179.8 M-126.75 16.9 L-130.75 14.1 -135.15 19.9 -131.75 22.7 -126.75 16.9 -119.45 22.0 -124.8 28.45 -131.75 22.7 M-131.0 -10.1 Q-136.1 -8.05 -138.25 -5.65 L-143.45 -0.1 -146.95 4.15 -147.6 5.8 M-146.5 -10.75 L-143.4 -8.4 M-255.1 -79.6 L-241.75 -67.6 -224.3 -61.6 -233.0 -75.5 M-125.45 14.6 L-117.5 20.1 -111.85 14.95 -119.25 8.9 -125.45 14.6 -129.2 12.25 -122.85 6.25 -119.25 8.9 M-70.15 24.15 L-70.15 19.65 M-60.4 32.4 L-57.7 34.75 M-60.45 22.25 Q-59.75 14.05 -56.5 7.9 L-56.4 7.65 -65.85 1.15 Q-69.25 7.7 -70.05 16.45 M-65.85 1.15 Q-61.85 -6.35 -54.4 -10.9 L-62.8 -17.0 -53.15 -11.6 -47.55 -14.1 Q-41.3 -16.35 -33.4 -17.2 L-96.45 -46.6 -102.55 -49.4 -105.45 -50.0 M-54.4 -10.9 L-53.15 -11.6 M-80.75 -12.25 L-89.25 -23.55 Q-99.85 -31.3 -113.05 -38.9 L-120.6 -43.05 Q-135.7 -51.4 -153.85 -59.65 M-80.85 -12.25 L-80.8 -12.2 -80.75 -12.25 M-80.8 -12.2 L-79.55 -11.45 Q-76.55 -9.45 -79.35 -7.8 L-101.8 -15.45 M-70.65 -49.55 L-69.55 -48.85 -70.6 -49.6 -70.65 -49.55 -70.7 -49.55 -91.8 -60.25 -96.45 -46.6 M-70.6 -49.6 L-97.05 -67.7 M-115.8 -14.45 L-112.85 -11.95 M-118.8 -17.0 L-119.9 -17.95 Q-146.15 -12.1 -148.35 4.2 M-123.75 -23.35 L-118.15 -21.2 -110.8 -18.5 M-118.15 -21.2 L-118.8 -17.0 -115.8 -14.45 Q-125.4 -12.35 -131.0 -10.1 -120.7 -5.3 -106.05 -5.35 L-105.1 -5.45 M-119.9 -17.95 L-125.35 -22.6 M-98.9 -36.6 L-104.2 -43.85 Q-112.6 -44.8 -120.6 -43.05 M-104.2 -43.85 L-108.6 -50.7 M-113.05 -38.9 Q-106.05 -36.85 -98.9 -36.6 L-89.25 -23.55 M-45.0 -3.9 L-42.2 -5.35 M-45.0 -3.9 L-34.75 3.4 M-21.85 9.95 Q-29.6 9.7 -37.55 10.25 M-23.5 -17.65 L-37.1 -26.55 -37.75 -27.0 -37.6 -27.1 -53.2 -37.75 -69.55 -48.85 M-37.6 -27.1 L-37.1 -26.55 M-37.6 -27.1 L-37.4 -27.4 Q-49.5 -60.05 -12.1 -71.45 L-8.55 -77.6 -2.45 -78.35 Q-58.6 -82.05 -53.2 -37.75 M-23.5 -17.65 L-33.4 -17.2 M-11.3 -9.65 L-23.5 -17.65 M-37.55 -7.05 L-47.55 -14.1 M-24.8 -90.3 L-54.05 -105.85 Q-99.85 -101.6 -98.1 -68.45 M-38.1 -103.5 L-31.15 -100.45 -9.75 -143.35 23.85 -211.15 M7.65 -79.8 L10.4 -80.1 74.85 -50.8 73.95 -50.75 42.0 -49.9 9.35 4.0 M75.3 -50.75 L75.1 -50.7 74.55 -50.35 35.35 10.95 M7.65 -79.8 Q-4.3 -87.0 -15.25 -92.65 -23.4 -96.85 -31.15 -100.45 M-2.45 -78.35 L7.65 -79.8 M-9.75 -143.35 L3.95 -135.0 -15.25 -92.65 M-2.45 -78.35 L-24.8 -90.3 Q-81.85 -86.6 -70.6 -49.6 M-114.95 -84.85 Q-116.7 -91.7 -112.4 -97.9 -101.55 -114.15 -83.8 -115.9 L-79.1 -116.2 M-88.95 -82.3 L-92.4 -72.4 -88.0 -73.65 -86.0 -77.5 -88.95 -82.3 -74.9 -75.0 -78.15 -67.55 -81.5 -66.45 -92.4 -72.4 M-87.6 -85.4 L-75.4 -79.05 -71.2 -80.45 -82.15 -85.55 -87.6 -85.4 -78.4 -94.65 -63.05 -85.95 -70.75 -80.6 -71.2 -80.45 M-75.95 -90.4 L-78.4 -94.65 M-63.05 -85.95 L-75.95 -90.4 -82.15 -85.55 M-74.9 -75.0 L-86.0 -77.5 M-78.15 -67.55 L-88.0 -73.65 M-72.4 -115.7 L-68.8 -113.7 -54.05 -105.85 M-68.8 -113.7 Q-103.75 -110.2 -113.5 -81.25 M-37.4 -27.4 L-12.1 -71.45 M-35.65 3.9 Q-53.4 13.9 -51.6 29.3 L-34.15 55.0 M-56.4 7.65 Q-52.45 0.3 -45.0 -3.9 M72.55 18.15 L51.5 4.2 51.35 4.15 51.15 3.95 Q44.85 4.85 43.35 9.85 L44.0 10.35 M51.35 4.15 L51.15 3.95 Q46.95 0.6 47.6 -1.75 48.25 -4.15 53.55 -14.0 58.85 -23.85 80.6 -20.45 M73.6 18.55 L72.55 18.15 M73.95 -50.75 L74.55 -50.35 74.85 -50.8 M82.3 -22.95 Q75.75 -26.45 69.3 -32.6 74.15 -46.45 86.5 -42.05 M42.0 -49.9 L-8.55 -77.6 M-224.3 -61.6 L-80.85 -12.25 M-140.05 20.55 Q-134.25 -3.25 -106.05 -5.35 M207.45 166.9 L253.4 204.15 M-21.6 23.55 Q9.65 49.45 52.8 68.5 21.85 39.9 -21.6 23.55 M-80.8 15.15 Q-126.2 21.15 -118.3 47.2 M-73.1 38.25 Q-99.3 47.15 -94.95 73.75" fill="none" stroke="#000000" stroke-linecap="round" stroke-linejoin="round" stroke-width="1.0"/>
    <path d="M20.3 103.7 L20.5 104.05 Q20.95 104.65 21.0 105.3 21.0 106.65 19.8 107.65 18.55 108.55 16.75 108.6 L15.6 108.55 Q14.65 108.4 13.8 107.85 L13.05 107.1 Q12.55 106.45 12.5 105.55 12.5 104.25 13.7 103.3 14.9 102.35 16.65 102.25 18.45 102.25 19.75 103.2 M104.7 -24.65 L105.3 -23.9 Q106.25 -22.65 105.4 -21.1 104.65 -19.4 102.6 -18.4 100.7 -17.4 98.85 -17.65 97.75 -17.75 96.95 -18.2 L95.9 -19.2 Q95.2 -20.5 96.0 -22.05 96.85 -23.7 98.75 -24.65 100.7 -25.7 102.55 -25.45 103.95 -25.3 104.7 -24.65 M74.2 19.1 L74.7 19.8 Q75.5 21.25 74.5 23.2 L73.7 24.35 Q72.9 25.4 71.55 26.1 69.6 27.25 67.55 27.05 L65.7 26.5 M97.9 22.8 Q93.2 22.65 90.5 19.85 87.95 17.0 88.85 13.2 89.8 9.45 93.8 6.95 97.85 4.5 102.7 4.7 107.55 4.9 110.15 7.75 112.8 10.55 111.75 14.3 110.75 18.1 106.7 20.55 102.7 23.1 97.9 22.8 M72.55 18.15 L72.0 18.15 Q69.9 17.9 67.75 19.05 65.8 20.2 64.85 22.1 63.95 23.95 64.65 25.35 L65.3 26.1 M74.2 19.1 L73.6 18.55" fill="none" stroke="#000000" stroke-linecap="round" stroke-linejoin="round" stroke-width="1.0"/>
    <path d="M-114.2 78.1 Q-116.9 76.5 -119.55 75.05 M-112.75 75.3 L-118.1 72.2 M-107.9 66.5 Q-110.65 64.9 -113.3 63.45 M-109.45 69.45 L-114.75 66.35 M-110.8 72.25 L-116.2 69.3 M-12.7 -110.25 Q-16.6 -112.4 -20.5 -114.5 M-14.4 -106.4 L-22.4 -110.7 M-6.55 -122.75 L-14.5 -127.0 M-8.4 -118.55 L-16.3 -122.75 M-4.85 -126.95 L-12.7 -131.15 M-16.2 -102.4 L-24.2 -106.65 M-10.9 -114.25 L-18.8 -118.5" fill="none" stroke="#0000ff" stroke-linecap="round" stroke-linejoin="round" stroke-width="1.0"/>
    <path d="M-5.75 -210.35 L23.85 -211.15 42.5 -211.7 74.1 -158.05 94.1 -152.0" fill="none" stroke="#0d0d0d" stroke-linecap="round" stroke-linejoin="round" stroke-width="1.0"/>
  </g>
  <defs>
    <linearGradient gradientTransform="matrix(0.0121, -0.0047, 0.025, 0.0173, 189.1, 162.3)" gradientUnits="userSpaceOnUse" id="gradient0" spreadMethod="pad" x1="-819.2" x2="819.2">
      <stop offset="0.0" stop-color="#131330"/>
      <stop offset="0.4549019607843137" stop-color="#ffffff"/>
      <stop offset="0.7294117647058823" stop-color="#883924"/>
      <stop offset="0.9372549019607843" stop-color="#c27873"/>
    </linearGradient>
    <linearGradient gradientTransform="matrix(0.009, -0.0032, 0.0318, 0.0243, 222.75, 188.9)" gradientUnits="userSpaceOnUse" id="gradient1" spreadMethod="pad" x1="-819.2" x2="819.2">
      <stop offset="0.0" stop-color="#131330"/>
      <stop offset="0.4549019607843137" stop-color="#ffffff"/>
      <stop offset="0.7294117647058823" stop-color="#883924"/>
      <stop offset="0.9372549019607843" stop-color="#c27873"/>
    </linearGradient>
    <linearGradient gradientTransform="matrix(0.0049, -0.0015, 0.0193, 0.0173, 196.3, 145.5)" gradientUnits="userSpaceOnUse" id="gradient2" spreadMethod="pad" x1="-819.2" x2="819.2">
      <stop offset="0.0" stop-color="#131330"/>
      <stop offset="0.4549019607843137" stop-color="#ffffff"/>
      <stop offset="0.7294117647058823" stop-color="#883924"/>
      <stop offset="0.9372549019607843" stop-color="#c27873"/>
    </linearGradient>
    <linearGradient gradientTransform="matrix(0.004, -0.0016, 0.0114, 0.0075, 217.15, 163.35)" gradientUnits="userSpaceOnUse" id="gradient3" spreadMethod="pad" x1="-819.2" x2="819.2">
      <stop offset="0.0" stop-color="#131330"/>
      <stop offset="1.0" stop-color="#ffffff"/>
    </linearGradient>
    <linearGradient gradientTransform="matrix(-0.0184, 0.0053, -0.1084, -0.1027, 97.95, 63.7)" gradientUnits="userSpaceOnUse" id="gradient4" spreadMethod="pad" x1="-819.2" x2="819.2">
      <stop offset="0.0" stop-color="#0000cc"/>
      <stop offset="0.2627450980392157" stop-color="#2b1f66"/>
      <stop offset="0.6352941176470588" stop-color="#0099ff"/>
      <stop offset="0.8352941176470589" stop-color="#00ccff"/>
    </linearGradient>
    <linearGradient gradientTransform="matrix(0.0252, -0.0099, 0.1368, 0.0921, 68.3, 81.85)" gradientUnits="userSpaceOnUse" id="gradient5" spreadMethod="pad" x1="-819.2" x2="819.2">
      <stop offset="0.10196078431372549" stop-color="#293163"/>
      <stop offset="0.3607843137254902" stop-color="#666666"/>
      <stop offset="0.7411764705882353" stop-color="#8291be"/>
      <stop offset="0.8901960784313725" stop-color="#ffffff"/>
    </linearGradient>
    <linearGradient gradientTransform="matrix(-0.0158, 0.0054, -0.1263, -0.0983, 94.25, 63.7)" gradientUnits="userSpaceOnUse" id="gradient6" spreadMethod="pad" x1="-819.2" x2="819.2">
      <stop offset="0.0" stop-color="#cf231d"/>
      <stop offset="0.2627450980392157" stop-color="#2b1f66"/>
      <stop offset="0.5333333333333333" stop-color="#b62e2c"/>
    </linearGradient>
    <radialGradient cx="0" cy="0" gradientTransform="matrix(-9.0E-4, -0.0396, 0.0778, -0.0021, 135.1, 126.45)" gradientUnits="userSpaceOnUse" id="gradient7" r="819.2" spreadMethod="pad">
      <stop offset="0.0" stop-color="#ffffff"/>
      <stop offset="1.0" stop-color="#ffff99"/>
    </radialGradient>
    <radialGradient cx="0" cy="0" gradientTransform="matrix(-0.002, -0.0863, 0.1697, -0.0046, -28.2, 51.1)" gradientUnits="userSpaceOnUse" id="gradient8" r="819.2" spreadMethod="pad">
      <stop offset="0.011764705882352941" stop-color="#f4bb6a"/>
      <stop offset="0.3607843137254902" stop-color="#a84330"/>
      <stop offset="0.7411764705882353" stop-color="#563f2e"/>
    </radialGradient>
    <linearGradient gradientTransform="matrix(0.0123, -0.0053, 0.0746, 0.0457, 93.5, 130.2)" gradientUnits="userSpaceOnUse" id="gradient9" spreadMethod="pad" x1="-819.2" x2="819.2">
      <stop offset="0.0" stop-color="#0000cc"/>
      <stop offset="0.2627450980392157" stop-color="#2b1f66"/>
      <stop offset="0.6352941176470588" stop-color="#0099ff"/>
      <stop offset="0.8352941176470589" stop-color="#00ccff"/>
    </linearGradient>
    <linearGradient gradientTransform="matrix(-0.0361, 0.0149, -0.0775, -0.0498, 0.45, 61.6)" gradientUnits="userSpaceOnUse" id="gradient10" spreadMethod="pad" x1="-819.2" x2="819.2">
      <stop offset="0.0" stop-color="#ffb926"/>
      <stop offset="0.4745098039215686" stop-color="#644300"/>
    </linearGradient>
    <linearGradient gradientTransform="matrix(0.0017, -5.0E-4, 0.0207, 0.0183, 98.95, 76.7)" gradientUnits="userSpaceOnUse" id="gradient11" spreadMethod="pad" x1="-819.2" x2="819.2">
      <stop offset="0.0" stop-color="#a74a2e"/>
      <stop offset="1.0" stop-color="#fccc72"/>
    </linearGradient>
    <linearGradient gradientTransform="matrix(0.0236, -0.0105, 0.0376, 0.0222, 81.9, 2.5)" gradientUnits="userSpaceOnUse" id="gradient12" spreadMethod="pad" x1="-819.2" x2="819.2">
      <stop offset="0.0" stop-color="#a83835"/>
      <stop offset="0.1411764705882353" stop-color="#19110c"/>
      <stop offset="0.30196078431372547" stop-color="#412e68"/>
      <stop offset="0.6078431372549019" stop-color="#f9f7ec"/>
      <stop offset="0.807843137254902" stop-color="#90904c"/>
      <stop offset="0.8823529411764706" stop-color="#423624"/>
    </linearGradient>
    <linearGradient gradientTransform="matrix(0.0059, -0.0024, 0.0164, 0.0107, 59.55, 14.4)" gradientUnits="userSpaceOnUse" id="gradient13" spreadMethod="pad" x1="-819.2" x2="819.2">
      <stop offset="0.0" stop-color="#19110c"/>
      <stop offset="0.30196078431372547" stop-color="#6b5850"/>
      <stop offset="0.5490196078431373" stop-color="#ffffff"/>
      <stop offset="0.807843137254902" stop-color="#90904c"/>
    </linearGradient>
    <radialGradient cx="0" cy="0" gradientTransform="matrix(-0.002, -0.087, 0.1711, -0.0046, -4.15, 15.35)" gradientUnits="userSpaceOnUse" id="gradient14" r="819.2" spreadMethod="pad">
      <stop offset="0.011764705882352941" stop-color="#f4bb6a"/>
      <stop offset="0.3607843137254902" stop-color="#a84330"/>
      <stop offset="0.7411764705882353" stop-color="#563f2e"/>
    </radialGradient>
    <linearGradient gradientTransform="matrix(0.0362, 0.0056, -0.0389, 0.0579, -111.45, 117.3)" gradientUnits="userSpaceOnUse" id="gradient15" spreadMethod="pad" x1="-819.2" x2="819.2">
      <stop offset="0.0" stop-color="#00ccff"/>
      <stop offset="0.21568627450980393" stop-color="#0099cc"/>
      <stop offset="0.6196078431372549" stop-color="#2818d3"/>
      <stop offset="1.0" stop-color="#1d0e99"/>
    </linearGradient>
    <linearGradient gradientTransform="matrix(-0.0078, 0.0025, -0.0275, -0.0232, 2.95, 113.7)" gradientUnits="userSpaceOnUse" id="gradient16" spreadMethod="pad" x1="-819.2" x2="819.2">
      <stop offset="0.0" stop-color="#302a2f"/>
      <stop offset="0.4549019607843137" stop-color="#863438"/>
      <stop offset="0.8313725490196079" stop-color="#ffffff"/>
    </linearGradient>
    <linearGradient gradientTransform="matrix(-0.0029, 0.001, -0.0253, -0.0194, -9.55, 127.5)" gradientUnits="userSpaceOnUse" id="gradient17" spreadMethod="pad" x1="-819.2" x2="819.2">
      <stop offset="0.0" stop-color="#b17185"/>
      <stop offset="0.4549019607843137" stop-color="#5d3f50"/>
      <stop offset="0.8313725490196079" stop-color="#ffffff"/>
    </linearGradient>
    <linearGradient gradientTransform="matrix(0.0134, -0.0075, 0.0258, 0.0119, -44.3, 100.9)" gradientUnits="userSpaceOnUse" id="gradient18" spreadMethod="pad" x1="-819.2" x2="819.2">
      <stop offset="0.0" stop-color="#69779e"/>
      <stop offset="1.0" stop-color="#312127"/>
    </linearGradient>
    <linearGradient gradientTransform="matrix(-0.0051, 0.0017, -0.0162, -0.013, 2.9, 95.35)" gradientUnits="userSpaceOnUse" id="gradient19" spreadMethod="pad" x1="-819.2" x2="819.2">
      <stop offset="0.0" stop-color="#b17185"/>
      <stop offset="0.4549019607843137" stop-color="#5d3f50"/>
      <stop offset="0.8313725490196079" stop-color="#ffffff"/>
    </linearGradient>
    <linearGradient gradientTransform="matrix(0.0223, 0.0201, -0.0084, 0.0026, -44.25, 53.75)" gradientUnits="userSpaceOnUse" id="gradient20" spreadMethod="pad" x1="-819.2" x2="819.2">
      <stop offset="0.0" stop-color="#fbfed4"/>
      <stop offset="0.5294117647058824" stop-color="#ffffff"/>
      <stop offset="1.0" stop-color="#edab93"/>
    </linearGradient>
    <linearGradient gradientTransform="matrix(0.0455, -0.0011, 5.0E-4, 0.0458, -52.6, 72.55)" gradientUnits="userSpaceOnUse" id="gradient21" spreadMethod="pad" x1="-819.2" x2="819.2">
      <stop offset="0.0" stop-color="#ffffff"/>
      <stop offset="1.0" stop-color="#6577ab"/>
    </linearGradient>
    <linearGradient gradientTransform="matrix(-0.0064, -8.0E-4, 0.0124, -0.0228, -112.15, 72.85)" gradientUnits="userSpaceOnUse" id="gradient22" spreadMethod="pad" x1="-819.2" x2="819.2">
      <stop offset="0.0" stop-color="#0099ff"/>
      <stop offset="1.0" stop-color="#00ffff"/>
    </linearGradient>
    <linearGradient gradientTransform="matrix(0.0316, -0.008, 0.0139, 0.0152, -74.9, 54.1)" gradientUnits="userSpaceOnUse" id="gradient23" spreadMethod="pad" x1="-819.2" x2="819.2">
      <stop offset="0.0" stop-color="#93b4c4"/>
      <stop offset="0.22745098039215686" stop-color="#1f222a"/>
      <stop offset="0.5490196078431373" stop-color="#f6f7fb"/>
      <stop offset="0.8784313725490196" stop-color="#40324d"/>
      <stop offset="1.0" stop-color="#6d598b"/>
    </linearGradient>
    <linearGradient gradientTransform="matrix(0.0347, -0.0092, 0.0168, 0.0174, -77.1, 51.05)" gradientUnits="userSpaceOnUse" id="gradient24" spreadMethod="pad" x1="-819.2" x2="819.2">
      <stop offset="0.0" stop-color="#93b4c4"/>
      <stop offset="0.22745098039215686" stop-color="#1f222a"/>
      <stop offset="0.5490196078431373" stop-color="#f6f7fb"/>
      <stop offset="0.8784313725490196" stop-color="#40324d"/>
      <stop offset="1.0" stop-color="#6d598b"/>
    </linearGradient>
    <linearGradient gradientTransform="matrix(0.0369, -0.0101, 0.0219, 0.0221, -81.55, 37.2)" gradientUnits="userSpaceOnUse" id="gradient25" spreadMethod="pad" x1="-819.2" x2="819.2">
      <stop offset="0.0" stop-color="#000066"/>
      <stop offset="0.16470588235294117" stop-color="#000099"/>
      <stop offset="0.403921568627451" stop-color="#0099ff"/>
      <stop offset="0.6862745098039216" stop-color="#000033"/>
      <stop offset="1.0" stop-color="#000000"/>
    </linearGradient>
    <linearGradient gradientTransform="matrix(0.0325, -0.0074, 0.012, 0.0147, -116.55, 0.85)" gradientUnits="userSpaceOnUse" id="gradient26" spreadMethod="pad" x1="-819.2" x2="819.2">
      <stop offset="0.0" stop-color="#000066"/>
      <stop offset="0.16470588235294117" stop-color="#000099"/>
      <stop offset="0.403921568627451" stop-color="#0099ff"/>
      <stop offset="0.6862745098039216" stop-color="#000033"/>
      <stop offset="1.0" stop-color="#000000"/>
    </linearGradient>
    <linearGradient gradientTransform="matrix(0.0317, -0.0085, 0.0238, 0.0244, -108.4, 19.3)" gradientUnits="userSpaceOnUse" id="gradient27" spreadMethod="pad" x1="-819.2" x2="819.2">
      <stop offset="0.0" stop-color="#93b4c4"/>
      <stop offset="0.22745098039215686" stop-color="#1f222a"/>
      <stop offset="0.5490196078431373" stop-color="#f6f7fb"/>
      <stop offset="0.8784313725490196" stop-color="#40324d"/>
      <stop offset="1.0" stop-color="#6d598b"/>
    </linearGradient>
    <linearGradient gradientTransform="matrix(0.0234, -0.0071, 0.0079, 0.007, -131.0, -7.1)" gradientUnits="userSpaceOnUse" id="gradient28" spreadMethod="pad" x1="-819.2" x2="819.2">
      <stop offset="0.0" stop-color="#93b4c4"/>
      <stop offset="0.22745098039215686" stop-color="#1f222a"/>
      <stop offset="0.5490196078431373" stop-color="#f6f7fb"/>
      <stop offset="0.8784313725490196" stop-color="#40324d"/>
      <stop offset="1.0" stop-color="#6d598b"/>
    </linearGradient>
    <linearGradient gradientTransform="matrix(0.0746, 0.0308, -0.0161, 0.0099, -152.6, -45.7)" gradientUnits="userSpaceOnUse" id="gradient29" spreadMethod="pad" x1="-819.2" x2="819.2">
      <stop offset="0.0" stop-color="#fff9bc"/>
      <stop offset="0.27450980392156865" stop-color="#b5b367"/>
      <stop offset="0.6784313725490196" stop-color="#66888c"/>
      <stop offset="0.9098039215686274" stop-color="#262d32"/>
    </linearGradient>
    <radialGradient cx="0" cy="0" gradientTransform="matrix(-4.0E-4, -0.0187, 0.0367, -0.001, -61.6, 30.85)" gradientUnits="userSpaceOnUse" id="gradient30" r="819.2" spreadMethod="pad">
      <stop offset="0.0" stop-color="#cccccc"/>
      <stop offset="1.0" stop-color="#333333"/>
    </radialGradient>
    <linearGradient gradientTransform="matrix(0.0222, -0.0083, 0.0476, 0.0339, -77.6, -19.75)" gradientUnits="userSpaceOnUse" id="gradient31" spreadMethod="pad" x1="-819.2" x2="819.2">
      <stop offset="0.0" stop-color="#000099"/>
      <stop offset="0.5176470588235295" stop-color="#0066ff"/>
      <stop offset="0.984313725490196" stop-color="#000099"/>
    </linearGradient>
    <radialGradient cx="0" cy="0" gradientTransform="matrix(-0.0012, -0.0532, 0.1045, -0.0028, -74.25, 20.1)" gradientUnits="userSpaceOnUse" id="gradient32" r="819.2" spreadMethod="pad">
      <stop offset="0.0" stop-color="#000099"/>
      <stop offset="1.0" stop-color="#0066ff"/>
    </radialGradient>
    <radialGradient cx="0" cy="0" gradientTransform="matrix(-0.0015, -0.0645, 0.1268, -0.0034, -47.95, 2.85)" gradientUnits="userSpaceOnUse" id="gradient33" r="819.2" spreadMethod="pad">
      <stop offset="0.0" stop-color="#00ccff"/>
      <stop offset="1.0" stop-color="#000066"/>
    </radialGradient>
    <radialGradient cx="0" cy="0" gradientTransform="matrix(-5.0E-4, -0.0229, 0.045, -0.0012, -65.6, 3.7)" gradientUnits="userSpaceOnUse" id="gradient34" r="819.2" spreadMethod="pad">
      <stop offset="0.0" stop-color="#cccccc"/>
      <stop offset="1.0" stop-color="#333333"/>
    </radialGradient>
    <radialGradient cx="0" cy="0" gradientTransform="matrix(-5.0E-4, -0.0211, 0.0415, -0.0011, -64.25, 1.15)" gradientUnits="userSpaceOnUse" id="gradient35" r="819.2" spreadMethod="pad">
      <stop offset="0.0" stop-color="#cccccc"/>
      <stop offset="1.0" stop-color="#333333"/>
    </radialGradient>
    <linearGradient gradientTransform="matrix(0.037, -0.0161, 0.0277, 0.0168, -40.9, -66.85)" gradientUnits="userSpaceOnUse" id="gradient36" spreadMethod="pad" x1="-819.2" x2="819.2">
      <stop offset="0.0" stop-color="#000066"/>
      <stop offset="0.10980392156862745" stop-color="#261430"/>
      <stop offset="0.2235294117647059" stop-color="#000033"/>
      <stop offset="0.3686274509803922" stop-color="#000066"/>
      <stop offset="0.5568627450980392" stop-color="#00ccff"/>
      <stop offset="0.7254901960784313" stop-color="#fbfcfe"/>
      <stop offset="0.8745098039215686" stop-color="#2f2fe3"/>
      <stop offset="1.0" stop-color="#2b1f66"/>
    </linearGradient>
    <radialGradient cx="0" cy="0" gradientTransform="matrix(-0.0014, -0.0637, 0.1253, -0.0034, -30.95, -19.45)" gradientUnits="userSpaceOnUse" id="gradient37" r="819.2" spreadMethod="pad">
      <stop offset="0.0" stop-color="#000099"/>
      <stop offset="1.0" stop-color="#0066ff"/>
    </radialGradient>
    <radialGradient cx="0" cy="0" gradientTransform="matrix(-4.0E-4, -0.0157, 0.0308, -8.0E-4, -127.75, -10.45)" gradientUnits="userSpaceOnUse" id="gradient38" r="819.2" spreadMethod="pad">
      <stop offset="0.0" stop-color="#00ccff"/>
      <stop offset="1.0" stop-color="#000099"/>
    </radialGradient>
    <radialGradient cx="0" cy="0" gradientTransform="matrix(-5.0E-4, -0.0213, 0.0419, -0.0011, -124.3, -51.25)" gradientUnits="userSpaceOnUse" id="gradient39" r="819.2" spreadMethod="pad">
      <stop offset="0.0" stop-color="#00ffff"/>
      <stop offset="1.0" stop-color="#00ccff"/>
    </radialGradient>
    <radialGradient cx="0" cy="0" gradientTransform="matrix(-0.001, -0.0412, 0.081, -0.0022, -125.05, -51.3)" gradientUnits="userSpaceOnUse" id="gradient40" r="819.2" spreadMethod="pad">
      <stop offset="0.0" stop-color="#00ffff"/>
      <stop offset="1.0" stop-color="#00ccff"/>
    </radialGradient>
    <radialGradient cx="0" cy="0" gradientTransform="matrix(-3.0E-4, -0.0141, 0.0276, -7.0E-4, -25.7, -17.1)" gradientUnits="userSpaceOnUse" id="gradient41" r="819.2" spreadMethod="pad">
      <stop offset="0.0" stop-color="#cccccc"/>
      <stop offset="1.0" stop-color="#333333"/>
    </radialGradient>
    <linearGradient gradientTransform="matrix(0.0207, -0.0097, 0.0343, 0.0191, 23.0, -12.15)" gradientUnits="userSpaceOnUse" id="gradient42" spreadMethod="pad" x1="-819.2" x2="819.2">
      <stop offset="0.0" stop-color="#69779e"/>
      <stop offset="1.0" stop-color="#312127"/>
    </linearGradient>
    <linearGradient gradientTransform="matrix(0.0371, -0.0183, 0.0278, 0.0147, -26.95, -55.8)" gradientUnits="userSpaceOnUse" id="gradient43" spreadMethod="pad" x1="-819.2" x2="819.2">
      <stop offset="0.0" stop-color="#ffffff"/>
      <stop offset="0.16862745098039217" stop-color="#302e3c"/>
      <stop offset="0.403921568627451" stop-color="#3f355b"/>
      <stop offset="0.592156862745098" stop-color="#9bb5e6"/>
      <stop offset="0.7450980392156863" stop-color="#fbfcfe"/>
      <stop offset="0.8745098039215686" stop-color="#8aa7a3"/>
      <stop offset="1.0" stop-color="#ffffff"/>
    </linearGradient>
    <linearGradient gradientTransform="matrix(0.0598, -0.0167, 0.042, 0.0411, 16.65, -41.45)" gradientUnits="userSpaceOnUse" id="gradient44" spreadMethod="pad" x1="-819.2" x2="819.2">
      <stop offset="0.0" stop-color="#ffffff"/>
      <stop offset="1.0" stop-color="#6577ab"/>
    </linearGradient>
    <linearGradient gradientTransform="matrix(0.0384, -0.0172, 0.0319, 0.0186, -60.85, -81.0)" gradientUnits="userSpaceOnUse" id="gradient45" spreadMethod="pad" x1="-819.2" x2="819.2">
      <stop offset="0.0" stop-color="#ffffff"/>
      <stop offset="0.16862745098039217" stop-color="#302e3c"/>
      <stop offset="0.403921568627451" stop-color="#3f355b"/>
      <stop offset="0.592156862745098" stop-color="#9bb5e6"/>
      <stop offset="0.7450980392156863" stop-color="#fbfcfe"/>
      <stop offset="0.8745098039215686" stop-color="#8aa7a3"/>
      <stop offset="1.0" stop-color="#ffffff"/>
    </linearGradient>
    <radialGradient cx="0" cy="0" gradientTransform="matrix(-9.0E-4, -0.0372, 0.0731, -0.002, 38.7, -59.8)" gradientUnits="userSpaceOnUse" id="gradient46" r="819.2" spreadMethod="pad">
      <stop offset="0.0" stop-color="#ffff99"/>
      <stop offset="1.0" stop-color="#ffffff"/>
    </radialGradient>
    <linearGradient gradientTransform="matrix(0.094, 0.0117, 0.0433, -0.097, 63.45, -125.1)" gradientUnits="userSpaceOnUse" id="gradient47" spreadMethod="pad" x1="-819.2" x2="819.2">
      <stop offset="0.0" stop-color="#00ccff"/>
      <stop offset="0.21568627450980393" stop-color="#0099cc"/>
      <stop offset="0.6196078431372549" stop-color="#2818d3"/>
      <stop offset="1.0" stop-color="#1d0e99"/>
    </linearGradient>
    <linearGradient gradientTransform="matrix(-0.0062, -8.0E-4, 0.0169, -0.0292, -10.95, -117.9)" gradientUnits="userSpaceOnUse" id="gradient48" spreadMethod="pad" x1="-819.2" x2="819.2">
      <stop offset="0.0" stop-color="#0099ff"/>
      <stop offset="1.0" stop-color="#00ffff"/>
    </linearGradient>
    <linearGradient gradientTransform="matrix(0.0375, -0.0188, 0.0214, 0.0111, -82.35, -94.05)" gradientUnits="userSpaceOnUse" id="gradient49" spreadMethod="pad" x1="-819.2" x2="819.2">
      <stop offset="0.0" stop-color="#000066"/>
      <stop offset="0.10980392156862745" stop-color="#261430"/>
      <stop offset="0.2235294117647059" stop-color="#000033"/>
      <stop offset="0.3686274509803922" stop-color="#000066"/>
      <stop offset="0.5568627450980392" stop-color="#00ccff"/>
      <stop offset="0.7254901960784313" stop-color="#fbfcfe"/>
      <stop offset="0.8745098039215686" stop-color="#2f2fe3"/>
      <stop offset="1.0" stop-color="#2b1f66"/>
    </linearGradient>
    <radialGradient cx="0" cy="0" gradientTransform="matrix(-6.0E-4, -0.0268, 0.0527, -0.0014, -104.45, -102.95)" gradientUnits="userSpaceOnUse" id="gradient50" r="819.2" spreadMethod="pad">
      <stop offset="0.0" stop-color="#ffffff"/>
      <stop offset="1.0" stop-color="#8682a4"/>
    </radialGradient>
    <linearGradient gradientTransform="matrix(0.0231, -0.0193, 0.0157, 0.0047, -24.7, -52.65)" gradientUnits="userSpaceOnUse" id="gradient51" spreadMethod="pad" x1="-819.2" x2="819.2">
      <stop offset="0.0" stop-color="#000000"/>
      <stop offset="0.3176470588235294" stop-color="#726b94"/>
      <stop offset="0.5254901960784314" stop-color="#ffffff"/>
      <stop offset="0.7411764705882353" stop-color="#8da5cc"/>
      <stop offset="0.9411764705882353" stop-color="#2a3a37"/>
    </linearGradient>
    <linearGradient gradientTransform="matrix(0.0104, -0.0045, 0.0192, 0.0117, 88.0, -30.8)" gradientUnits="userSpaceOnUse" id="gradient52" spreadMethod="pad" x1="-819.2" x2="819.2">
      <stop offset="0.0" stop-color="#a83835"/>
      <stop offset="0.1411764705882353" stop-color="#19110c"/>
      <stop offset="0.30196078431372547" stop-color="#412e68"/>
      <stop offset="0.6078431372549019" stop-color="#f9f7ec"/>
      <stop offset="0.807843137254902" stop-color="#90904c"/>
      <stop offset="0.8823529411764706" stop-color="#423624"/>
    </linearGradient>
    <linearGradient gradientTransform="matrix(0.0596, 0.0051, -0.0296, 0.0723, 33.05, -103.75)" gradientUnits="userSpaceOnUse" id="gradient53" spreadMethod="pad" x1="-819.2" x2="819.2">
      <stop offset="0.0" stop-color="#00ccff"/>
      <stop offset="0.21568627450980393" stop-color="#0099cc"/>
      <stop offset="0.6196078431372549" stop-color="#2818d3"/>
      <stop offset="1.0" stop-color="#1d0e99"/>
    </linearGradient>
    <radialGradient cx="0" cy="0" gradientTransform="matrix(-9.0E-4, -0.039, 0.0767, -0.0021, 13.6, 44.65)" gradientUnits="userSpaceOnUse" id="gradient54" r="819.2" spreadMethod="pad">
      <stop offset="0.0" stop-color="#ffffff"/>
      <stop offset="1.0" stop-color="#ffff99"/>
    </radialGradient>
  </defs>
</svg>
