<?xml version="1.0" encoding="UTF-8" standalone="no"?>
<svg xmlns:ffdec="https://www.free-decompiler.com/flash" xmlns:xlink="http://www.w3.org/1999/xlink" ffdec:objectType="shape" height="135.0px" width="135.0px" xmlns="http://www.w3.org/2000/svg">
  <g transform="matrix(1.0, 0.0, 0.0, 1.0, 67.5, 67.5)">
    <path d="M53.2 47.4 L53.0 47.4 53.2 47.35 53.2 47.4" fill="url(#gradient0)" fill-rule="evenodd" stroke="none"/>
    <path d="M8.5 -67.0 L8.85 -67.3 8.65 -67.0 Q27.7 -64.75 42.6 -52.4 L47.75 -47.7 Q58.35 -37.05 63.3 -24.05 L64.55 -20.4 65.1 -18.45 65.2 -18.1 Q67.5 -9.5 67.5 0.0 L67.35 5.0 Q67.05 9.3 66.3 13.4 64.75 21.55 61.25 28.9 56.45 38.9 48.0 47.45 L47.75 47.75 45.7 49.65 Q40.1 54.9 33.85 58.6 L32.9 59.15 32.5 59.4 26.75 62.25 24.4 63.15 20.6 64.5 20.5 64.55 20.4 64.6 19.05 65.0 18.05 65.25 10.55 66.75 0.0 67.5 -2.85 67.45 -4.5 67.4 -5.9 67.3 Q-17.35 66.4 -27.3 61.95 -35.4 58.35 -42.5 52.5 L-44.2 51.0 -46.45 48.95 -47.7 47.75 Q-54.6 40.85 -59.1 32.95 -61.7 28.35 -63.5 23.45 -65.1 19.15 -66.0 14.6 -67.45 7.75 -67.5 0.35 L-67.5 0.0 -67.3 -5.25 Q-66.4 -18.45 -60.8 -29.7 L-58.1 -34.55 Q-54.6 -40.4 -49.65 -45.65 L-47.85 -47.55 -47.85 -48.4 -47.0 -48.4 Q-35.7 -59.45 -21.8 -64.1 -11.6 -67.5 0.0 -67.5 L8.5 -67.0" fill="url(#gradient1)" fill-rule="evenodd" stroke="none"/>
    <path d="M-15.1 -48.35 L-12.45 -50.1 -16.4 -50.4 -17.45 -51.25 Q-9.3 -54.0 0.0 -54.0 L6.8 -53.6 4.05 -51.1 0.65 -51.0 0.8 -49.35 0.45 -47.2 1.2 -45.85 0.0 -43.7 0.3 -42.6 -0.1 -36.9 3.05 -35.35 5.3 -32.85 6.05 -30.1 5.3 -27.6 13.4 -23.9 11.45 -23.35 14.3 -20.85 16.5 -21.5 13.05 -10.2 9.3 -8.35 8.75 -5.3 9.25 -4.65 Q8.6 -4.15 8.1 -3.3 L8.1 -3.0 12.35 -3.6 12.2 -1.2 5.8 -1.1 10.05 3.4 12.8 2.4 18.05 2.15 20.05 5.4 20.8 2.15 23.7 8.25 23.05 10.9 19.35 12.8 14.55 9.9 3.55 15.15 3.25 17.5 0.8 17.4 -0.25 20.0 -1.0 19.6 -1.45 19.7 -2.25 19.9 -5.1 18.7 -9.95 20.8 -8.7 15.65 -13.95 14.4 -14.8 16.6 -14.45 18.3 -23.6 13.8 -25.35 11.65 -28.2 11.75 Q-28.7 12.2 -29.3 12.3 L-29.7 12.2 -30.1 11.95 -32.2 15.15 -36.7 14.4 -33.2 19.9 -32.7 24.8 -37.45 25.4 -38.8 23.55 -35.45 24.35 Q-34.95 19.2 -40.45 20.15 L-43.2 15.05 -38.55 14.4 -37.55 11.8 -39.2 10.9 -44.1 9.3 -49.4 11.05 -50.85 13.7 -52.15 11.4 -52.8 11.7 Q-53.95 6.2 -54.0 0.3 L-53.15 -4.2 -53.85 -4.2 Q-53.1 -14.75 -48.65 -23.75 L-48.25 -24.0 -45.85 -22.5 -48.6 -21.95 -47.2 -18.85 -51.05 -15.55 -50.0 -6.85 -48.45 -7.4 -47.1 -6.35 -47.45 -3.6 -42.45 -6.35 -42.7 -6.6 -42.6 -6.65 -38.5 -8.35 -38.2 -10.35 -37.05 -9.0 -39.35 -21.7 -38.95 -22.1 -38.55 -22.0 -37.95 -21.35 -32.9 -21.4 -28.4 -17.45 -28.0 -14.4 -24.2 -11.1 -22.95 -11.85 -22.2 -7.35 -26.2 -6.1 -24.75 -3.65 -25.2 -2.6 -23.6 0.65 -22.7 1.15 -21.55 5.35 -17.7 5.8 -18.2 0.9 -12.95 -0.85 -7.45 -4.1 -4.95 -0.45 -5.2 -4.85 Q-5.2 -5.45 -6.05 -5.9 L-8.2 -6.35 -5.9 -7.9 -3.85 -6.3 -1.9 -7.4 -4.9 -12.55 -3.1 -16.35 -6.95 -14.05 -7.3 -14.2 -7.5 -14.5 Q-7.5 -15.15 -6.95 -15.55 L-8.95 -15.9 -12.7 -14.85 -11.75 -18.4 -9.15 -20.15 -9.1 -20.55 Q-9.05 -20.85 -9.6 -20.95 L-10.8 -20.85 -11.4 -22.9 -15.65 -23.55 -20.3 -21.6 Q-20.3 -21.95 -20.45 -22.15 -20.85 -22.65 -21.4 -22.65 L-19.8 -26.85 -17.2 -27.6 -19.95 -32.85 -18.0 -34.75 -21.7 -34.1 -25.3 -33.85 -26.95 -36.1 -29.45 -42.85 -22.45 -47.85 -23.45 -45.7 -20.05 -46.45 -19.45 -45.6 -17.65 -46.75 -16.7 -46.6 -13.7 -48.6 -15.1 -48.35 M-6.7 -41.1 L-10.15 -35.85 -10.15 -35.7 -6.95 -34.2 -10.95 -33.1 -3.95 -33.05 -4.0 -31.25 -0.95 -33.85 -3.45 -35.6 -2.2 -37.35 -5.5 -36.4 -4.4 -38.25 -7.2 -37.85 -6.7 -41.1 M-7.65 -28.8 L-10.95 -26.35 Q-8.4 -25.4 -7.65 -28.65 L-7.65 -28.8 M-1.95 -3.1 L-2.75 -5.4 -2.45 -2.1 0.8 2.9 -1.95 -3.1 M10.3 -15.35 L7.3 -16.2 2.05 -14.1 5.25 -14.1 6.3 -11.0 9.0 -12.4 10.6 -11.15 11.55 -14.85 10.3 -15.35 M7.25 -24.25 Q6.5 -24.85 5.4 -24.85 4.3 -24.85 3.55 -24.25 2.8 -23.7 2.8 -22.85 2.8 -22.0 3.55 -21.4 4.3 -20.85 5.4 -20.85 6.5 -20.85 7.25 -21.4 8.0 -22.0 8.0 -22.85 8.0 -23.7 7.25 -24.25 M3.05 -5.45 L-0.2 -6.6 3.3 -2.35 3.05 -5.45 M17.65 6.55 Q16.75 6.55 16.15 7.2 15.5 7.8 15.5 8.65 15.5 9.5 16.15 10.15 16.75 10.75 17.65 10.75 18.55 10.75 19.2 10.15 19.8 9.5 19.8 8.65 19.8 7.8 19.2 7.2 18.55 6.55 17.65 6.55 M12.65 6.1 L5.4 6.1 5.4 9.9 12.65 9.9 12.65 6.1 M-6.6 6.15 Q-6.35 6.0 -6.4 5.75 L-6.2 4.9 -4.7 0.15 -10.2 -1.0 -12.5 1.0 -12.9 0.95 -13.45 1.25 -13.75 1.75 -14.2 1.9 -14.05 2.3 -14.1 2.3 -14.75 2.85 -13.2 4.65 -12.2 5.9 Q-13.85 6.8 -12.3 7.9 L-11.95 8.05 -10.45 7.65 -8.5 7.35 -7.95 7.4 Q-7.45 7.4 -7.05 7.05 L-6.7 6.25 -6.6 6.15 M-4.05 8.05 Q-4.7 8.5 -4.7 9.15 -4.7 9.8 -4.05 10.3 -3.45 10.75 -2.55 10.75 -1.65 10.75 -1.0 10.3 -0.4 9.8 -0.4 9.15 -0.4 8.5 -1.0 8.05 -1.65 7.55 -2.55 7.55 -3.45 7.55 -4.05 8.05 M-18.2 11.15 L-18.2 13.9 -15.9 11.0 -18.2 11.15 M-10.45 13.65 L-9.8 11.4 -13.7 11.65 -10.45 13.65 M-34.85 0.95 L-40.6 0.95 -40.6 6.8 -34.85 6.8 -34.85 0.95" fill="#c3b69f" fill-rule="evenodd" stroke="none"/>
    <path d="M-52.8 11.7 L-52.15 11.4 -50.85 13.7 -49.4 11.05 -44.1 9.3 -39.2 10.9 -37.55 11.8 -38.55 14.4 -43.2 15.05 -40.45 20.15 Q-34.95 19.2 -35.45 24.35 L-38.8 23.55 -37.45 25.4 -32.7 24.8 -33.2 19.9 -36.7 14.4 -32.2 15.15 -30.1 11.95 -29.7 12.2 -29.3 12.3 Q-28.7 12.2 -28.2 11.75 L-25.35 11.65 -23.6 13.8 -14.45 18.3 -14.8 16.6 -13.95 14.4 -8.7 15.65 -9.95 20.8 -5.1 18.7 -2.25 19.9 -1.45 19.7 -1.0 19.6 -0.25 20.0 0.8 17.4 3.25 17.5 3.55 15.15 14.55 9.9 19.35 12.8 23.05 10.9 23.7 8.25 20.8 2.15 20.05 5.4 18.05 2.15 12.8 2.4 10.05 3.4 5.8 -1.1 12.2 -1.2 12.35 -3.6 8.1 -3.0 8.1 -3.3 Q8.6 -4.15 9.25 -4.65 L8.75 -5.3 9.3 -8.35 13.05 -10.2 16.5 -21.5 14.3 -20.85 11.45 -23.35 13.4 -23.9 5.3 -27.6 6.05 -30.1 5.3 -32.85 3.05 -35.35 -0.1 -36.9 0.3 -42.6 0.0 -43.7 1.2 -45.85 0.45 -47.2 0.8 -49.35 0.65 -51.0 4.05 -51.1 6.8 -53.6 7.05 -53.85 6.9 -53.6 4.3 -49.1 6.65 -48.0 2.8 -46.35 4.55 -44.85 4.3 -44.85 0.55 -40.6 9.8 -26.6 12.3 -26.55 12.95 -25.6 15.75 -24.35 18.6 -21.4 19.05 -15.6 23.8 -4.1 26.05 -2.35 24.8 2.65 25.75 4.65 25.55 6.65 31.15 18.9 28.3 19.9 24.9 18.9 24.85 21.05 18.3 25.4 16.1 25.75 Q15.8 26.4 16.35 26.75 17.2 27.25 16.35 27.9 L15.9 28.3 13.2 27.35 13.45 26.6 13.5 26.45 13.25 26.3 12.9 26.35 10.8 27.15 12.3 31.55 7.8 35.9 3.3 31.65 1.3 35.15 1.75 37.35 -0.45 37.65 -1.65 34.85 -4.35 34.65 -3.2 30.9 -9.15 26.65 -9.95 28.9 -11.75 27.45 -12.1 25.7 -13.7 27.4 -15.65 27.85 -7.9 29.6 -9.95 31.15 -10.35 32.8 -6.5 34.7 -8.8 36.1 -8.65 38.85 -14.95 36.65 -15.55 36.05 -20.45 37.35 -19.2 35.65 -20.6 33.65 -25.7 29.7 -29.7 28.25 -31.4 26.3 -28.55 32.25 -30.7 30.9 -36.2 28.9 -37.0 26.8 -43.95 22.15 -47.2 16.4 -49.2 15.3 -49.2 18.8 -50.8 18.75 Q-52.05 15.3 -52.8 11.7 M18.55 -10.35 Q18.65 -11.3 18.25 -12.1 L17.1 -13.3 15.6 -13.4 Q14.8 -13.15 14.35 -12.35 13.85 -11.6 13.8 -10.6 L15.95 -8.35 18.55 -10.35 M22.3 18.15 L23.2 15.0 21.55 17.9 22.9 19.95 22.3 18.15 M17.55 23.55 L17.55 19.7 13.65 19.7 13.65 23.55 17.55 23.55 M-6.95 4.9 L-6.25 1.9 -11.85 2.1 Q-11.8 1.8 -11.9 1.5 L-12.3 1.05 -12.5 1.0 -10.2 -1.0 -4.7 0.15 -6.2 4.9 -6.95 4.9 M-13.8 2.1 L-13.95 2.9 -13.8 2.9 -13.2 4.65 -14.75 2.85 -14.1 2.3 -14.05 2.3 -13.8 2.1" fill="#a39885" fill-rule="evenodd" stroke="none"/>
    <path d="M34.1 -41.9 L38.2 -38.15 Q46.7 -29.65 50.65 -19.25 L49.95 -20.1 46.55 -23.35 48.05 -18.35 52.15 -14.45 Q54.0 -7.6 54.0 0.0 L53.9 4.0 52.55 0.8 53.55 -5.1 49.85 -3.7 48.05 2.15 45.35 -5.15 46.8 -3.0 48.5 -6.0 46.65 -6.2 41.3 -11.6 37.3 -16.85 37.1 -18.6 Q35.35 -19.05 36.9 -19.6 37.8 -20.0 37.95 -20.95 L36.8 -23.1 33.05 -25.35 31.85 -27.75 30.55 -26.85 20.15 -32.3 25.7 -28.1 24.35 -27.5 26.75 -24.4 29.05 -24.35 32.4 -21.8 34.4 -19.7 33.05 -12.7 27.8 -20.35 24.3 -20.45 26.85 -14.45 24.3 -11.9 29.3 -7.65 29.7 -5.9 32.05 -4.6 33.7 -2.8 Q34.3 -3.0 34.3 -3.8 34.35 -5.25 36.15 -4.2 L34.8 -4.2 37.7 -0.85 41.9 -1.65 43.0 7.15 41.45 4.9 39.65 6.3 40.3 0.65 38.15 3.35 37.3 1.65 34.05 4.15 29.7 2.65 31.8 -3.6 29.2 -1.1 25.55 -7.1 23.55 -11.85 19.05 -15.6 20.5 -20.5 17.9 -22.7 17.6 -24.15 12.4 -28.75 10.35 -28.65 11.85 -32.3 9.3 -30.65 7.05 -34.9 13.3 -37.35 10.95 -38.35 14.05 -38.95 Q8.8 -44.0 4.3 -38.45 L2.05 -39.65 Q0.8 -41.3 2.3 -41.5 L4.3 -43.4 4.3 -44.85 4.55 -44.85 6.35 -45.35 6.0 -45.55 5.4 -45.8 Q3.8 -46.35 6.6 -46.7 7.65 -46.95 8.0 -47.9 L5.6 -49.95 23.05 -48.35 34.55 -40.1 34.1 -41.9 M49.0 23.1 Q45.15 31.1 38.4 37.95 L38.25 38.0 Q37.25 38.15 36.75 38.55 36.2 38.95 36.35 39.4 L36.55 39.75 Q32.05 43.9 27.05 46.9 L26.05 47.4 26.0 47.5 21.4 49.8 19.55 50.15 16.3 51.15 11.8 52.15 8.45 53.4 0.0 54.0 -2.3 53.95 -2.7 53.65 -4.75 53.85 Q-13.9 53.1 -21.85 49.55 L-28.7 45.4 -29.45 44.15 -34.0 42.0 -35.35 40.8 -35.85 39.15 -37.15 39.15 -38.15 38.2 Q-43.7 32.65 -47.25 26.35 L-45.45 27.65 -34.2 34.15 -18.7 41.4 -15.05 45.05 -13.95 44.55 -11.1 48.15 -0.3 51.95 0.55 51.4 8.35 51.15 13.05 48.8 15.55 48.4 22.65 42.1 19.2 39.75 20.7 36.25 21.05 33.65 28.05 28.4 28.95 30.55 31.05 33.9 31.2 35.7 32.95 33.45 36.75 31.15 35.85 28.15 38.4 25.7 38.35 25.4 38.0 25.05 37.65 25.0 37.2 25.15 36.55 25.4 33.9 24.3 31.65 26.6 31.55 19.65 34.9 21.15 33.55 9.4 37.65 7.9 37.2 8.2 35.6 10.45 38.6 17.8 40.65 16.2 42.8 16.6 43.85 9.2 50.05 5.95 49.3 19.1 48.05 21.9 49.0 23.1 M32.6 -36.5 Q32.15 -37.1 31.55 -37.1 30.95 -37.1 30.5 -36.5 30.05 -35.95 30.05 -35.1 30.05 -34.25 30.5 -33.65 30.95 -33.1 31.55 -33.1 32.15 -33.1 32.6 -33.65 33.05 -34.25 33.05 -35.1 33.05 -35.95 32.6 -36.5 M41.15 -19.85 Q40.55 -19.1 40.55 -18.0 40.55 -16.9 41.15 -16.1 41.7 -15.35 42.55 -15.35 43.4 -15.35 44.0 -16.1 44.55 -16.9 44.55 -18.0 44.55 -19.1 44.0 -19.85 43.4 -20.65 42.55 -20.65 41.7 -20.65 41.15 -19.85 M42.95 21.1 L45.4 20.05 46.55 13.4 44.3 18.15 39.25 23.95 41.45 22.9 42.5 24.8 Q43.45 24.15 43.35 23.2 43.3 22.75 42.7 22.5 L42.45 21.8 42.55 21.5 42.95 21.1" fill="#625f53" fill-rule="evenodd" stroke="none"/>
    <path d="M6.9 -53.6 Q22.15 -51.8 34.1 -41.9 L34.55 -40.1 23.05 -48.35 5.6 -49.95 8.0 -47.9 Q7.65 -46.95 6.6 -46.7 3.8 -46.35 5.4 -45.8 L6.0 -45.55 6.35 -45.35 4.55 -44.85 2.8 -46.35 6.65 -48.0 4.3 -49.1 6.9 -53.6" fill="#868170" fill-rule="evenodd" stroke="none"/>
    <path d="M53.9 4.0 Q53.65 7.45 53.05 10.7 L52.85 10.85 49.3 19.1 50.05 5.95 43.85 9.2 42.8 16.6 40.65 16.2 38.6 17.8 35.6 10.45 37.2 8.2 37.65 7.9 39.55 7.15 39.65 6.3 41.45 4.9 43.0 7.15 41.9 -1.65 37.7 -0.85 34.8 -4.2 36.15 -4.2 Q34.35 -5.25 34.3 -3.8 34.3 -3.0 33.7 -2.8 L32.05 -4.6 29.7 -5.9 29.3 -7.65 24.3 -11.9 26.85 -14.45 24.3 -20.45 27.8 -20.35 33.05 -12.7 34.4 -19.7 32.4 -21.8 29.05 -24.35 26.75 -24.4 24.35 -27.5 25.7 -28.1 20.15 -32.3 30.55 -26.85 31.85 -27.75 33.05 -25.35 36.8 -23.1 37.95 -20.95 Q37.8 -20.0 36.9 -19.6 35.35 -19.05 37.1 -18.6 L37.3 -16.85 41.3 -11.6 46.65 -6.2 48.5 -6.0 46.8 -3.0 45.35 -5.15 48.05 2.15 49.85 -3.7 53.55 -5.1 52.55 0.8 53.9 4.0" fill="#4b4940" fill-rule="evenodd" stroke="none"/>
    <path d="M32.6 -36.5 Q33.05 -35.95 33.05 -35.1 33.05 -34.25 32.6 -33.65 32.15 -33.1 31.55 -33.1 30.95 -33.1 30.5 -33.65 30.05 -34.25 30.05 -35.1 30.05 -35.95 30.5 -36.5 30.95 -37.1 31.55 -37.1 32.15 -37.1 32.6 -36.5" fill="#8a8b79" fill-rule="evenodd" stroke="none"/>
    <path d="M-47.25 26.35 Q-49.35 22.7 -50.8 18.75 L-49.2 18.8 -49.2 15.3 -47.2 16.4 -43.95 22.15 -37.0 26.8 -36.2 28.9 -30.7 30.9 -28.55 32.25 -31.4 26.3 -29.7 28.25 -25.7 29.7 -20.6 33.65 -19.2 35.65 -20.45 37.35 -15.55 36.05 -14.95 36.65 -8.65 38.85 -8.8 36.1 -6.5 34.7 -10.35 32.8 -9.95 31.15 -7.9 29.6 -15.65 27.85 -13.7 27.4 -12.1 25.7 -11.75 27.45 -9.95 28.9 -9.15 26.65 -3.2 30.9 -4.35 34.65 -1.65 34.85 -0.45 37.65 1.75 37.35 1.3 35.15 3.3 31.65 7.8 35.9 12.3 31.55 10.8 27.15 12.9 26.35 13.25 26.3 13.5 26.45 13.45 26.6 13.2 27.35 15.9 28.3 16.35 27.9 Q17.2 27.25 16.35 26.75 15.8 26.4 16.1 25.75 L18.3 25.4 24.85 21.05 24.9 18.9 28.3 19.9 31.15 18.9 25.55 6.65 25.75 4.65 24.8 2.65 26.05 -2.35 23.8 -4.1 19.05 -15.6 18.6 -21.4 15.75 -24.35 12.95 -25.6 12.3 -26.55 9.8 -26.6 0.55 -40.6 4.3 -44.85 4.3 -43.4 2.3 -41.5 Q0.8 -41.3 2.05 -39.65 L4.3 -38.45 Q8.8 -44.0 14.05 -38.95 L10.95 -38.35 13.3 -37.35 7.05 -34.9 9.3 -30.65 11.85 -32.3 10.35 -28.65 12.4 -28.75 17.6 -24.15 17.9 -22.7 20.5 -20.5 19.05 -15.6 23.55 -11.85 25.55 -7.1 29.2 -1.1 31.8 -3.6 29.7 2.65 34.05 4.15 37.3 1.65 38.15 3.35 40.3 0.65 39.65 6.3 39.55 7.15 37.65 7.9 33.55 9.4 34.9 21.15 31.55 19.65 31.65 26.6 33.9 24.3 36.55 25.4 37.2 25.15 37.65 25.0 38.0 25.05 38.35 25.4 38.4 25.7 35.85 28.15 36.75 31.15 32.95 33.45 31.2 35.7 31.05 33.9 28.95 30.55 28.05 28.4 21.05 33.65 20.7 36.25 19.2 39.75 22.65 42.1 15.55 48.4 13.05 48.8 8.35 51.15 0.55 51.4 -0.3 51.95 -11.1 48.15 -13.95 44.55 -15.05 45.05 -18.7 41.4 -34.2 34.15 -45.45 27.65 -47.25 26.35 M6.55 41.45 L7.65 39.25 3.8 41.15 6.55 41.45 M4.6 49.7 L1.55 49.9 4.25 50.85 Q5.4 50.4 4.95 49.85 L4.6 49.7 M-4.85 48.4 Q-5.45 48.65 -5.45 49.0 L-4.85 49.65 -3.5 49.9 -2.1 49.65 Q-1.55 49.35 -1.55 49.0 -1.55 48.65 -2.1 48.4 -2.7 48.1 -3.5 48.1 L-4.85 48.4" fill="#867f6f" fill-rule="evenodd" stroke="none"/>
    <path d="M11.55 -14.85 Q8.45 -12.55 10.25 -15.25 L10.3 -15.35 11.55 -14.85" fill="#877c6d" fill-rule="evenodd" stroke="none"/>
    <path d="M10.3 -15.35 L10.25 -15.25 Q8.45 -12.55 11.55 -14.85 L10.6 -11.15 9.0 -12.4 6.3 -11.0 5.25 -14.1 2.05 -14.1 7.3 -16.2 10.3 -15.35" fill="#ad9e89" fill-rule="evenodd" stroke="none"/>
    <path d="M13.8 -10.6 Q13.85 -11.6 14.35 -12.35 14.8 -13.15 15.6 -13.4 L17.1 -13.3 18.25 -12.1 Q18.65 -11.3 18.55 -10.35 L16.5 -12.55 13.8 -10.6" fill="#8a806f" fill-rule="evenodd" stroke="none"/>
    <path d="M7.25 -24.25 Q8.0 -23.7 8.0 -22.85 8.0 -22.0 7.25 -21.4 6.5 -20.85 5.4 -20.85 4.3 -20.85 3.55 -21.4 2.8 -22.0 2.8 -22.85 2.8 -23.7 3.55 -24.25 4.3 -24.85 5.4 -24.85 6.5 -24.85 7.25 -24.25" fill="#dcd6ba" fill-rule="evenodd" stroke="none"/>
    <path d="M3.05 -5.45 L3.3 -2.35 -0.2 -6.6 3.05 -5.45" fill="#9f927f" fill-rule="evenodd" stroke="none"/>
    <path d="M13.8 -10.6 L16.5 -12.55 18.55 -10.35 15.95 -8.35 13.8 -10.6" fill="#776e60" fill-rule="evenodd" stroke="none"/>
    <path d="M50.65 -19.25 L51.65 -16.3 51.3 -15.85 52.1 -14.75 52.15 -14.45 48.05 -18.35 46.55 -23.35 49.95 -20.1 50.65 -19.25" fill="#7c7969" fill-rule="evenodd" stroke="none"/>
    <path d="M51.65 -16.3 L52.1 -14.75 51.3 -15.85 51.65 -16.3" fill="#95907d" fill-rule="evenodd" stroke="none"/>
    <path d="M41.15 -19.85 Q41.7 -20.65 42.55 -20.65 43.4 -20.65 44.0 -19.85 44.55 -19.1 44.55 -18.0 44.55 -16.9 44.0 -16.1 43.4 -15.35 42.55 -15.35 41.7 -15.35 41.15 -16.1 40.55 -16.9 40.55 -18.0 40.55 -19.1 41.15 -19.85" fill="#7f7f6e" fill-rule="evenodd" stroke="none"/>
    <path d="M53.05 10.7 Q51.8 17.2 49.0 23.1 L48.05 21.9 49.3 19.1 52.85 10.85 53.05 10.7" fill="#32312b" fill-rule="evenodd" stroke="none"/>
    <path d="M42.95 21.1 L42.55 21.5 42.45 21.8 42.7 22.5 Q43.3 22.75 43.35 23.2 43.45 24.15 42.5 24.8 L41.45 22.9 39.25 23.95 44.3 18.15 46.55 13.4 45.4 20.05 42.95 21.1" fill="#4c483f" fill-rule="evenodd" stroke="none"/>
    <path d="M38.4 37.95 L38.2 38.2 36.55 39.75 36.35 39.4 Q36.2 38.95 36.75 38.55 37.25 38.15 38.25 38.0 L38.4 37.95 M42.4 37.9 L42.55 37.85 42.55 37.9 42.4 37.9" fill="#47473d" fill-rule="evenodd" stroke="none"/>
    <path d="M22.3 18.15 L21.55 17.9 23.2 15.0 22.3 18.15" fill="#928876" fill-rule="evenodd" stroke="none"/>
    <path d="M21.55 17.9 L22.3 18.15 22.9 19.95 21.55 17.9" fill="#847c6c" fill-rule="evenodd" stroke="none"/>
    <path d="M17.65 6.55 Q18.55 6.55 19.2 7.2 19.8 7.8 19.8 8.65 19.8 9.5 19.2 10.15 18.55 10.75 17.65 10.75 16.75 10.75 16.15 10.15 15.5 9.5 15.5 8.65 15.5 7.8 16.15 7.2 16.75 6.55 17.65 6.55" fill="#d8d4b8" fill-rule="evenodd" stroke="none"/>
    <path d="M12.65 6.1 L12.65 9.9 5.4 9.9 5.4 6.1 12.65 6.1" fill="#ad9e8a" fill-rule="evenodd" stroke="none"/>
    <path d="M17.55 23.55 L13.65 23.55 13.65 19.7 17.55 19.7 17.55 23.55" fill="#8a8272" fill-rule="evenodd" stroke="none"/>
    <path d="M6.55 41.45 L3.8 41.15 7.65 39.25 6.55 41.45" fill="#a09b87" fill-rule="evenodd" stroke="none"/>
    <path d="M27.05 46.9 L26.35 47.3 26.05 47.4 27.05 46.9" fill="#424138" fill-rule="evenodd" stroke="none"/>
    <path d="M26.35 47.3 L26.0 47.5 26.05 47.4 26.35 47.3" fill="#525046" fill-rule="evenodd" stroke="none"/>
    <path d="M21.4 49.8 L19.5 50.55 19.55 50.15 21.4 49.8 M16.45 51.6 L16.4 51.65 16.3 51.65 15.25 52.0 14.45 52.2 8.45 53.4 11.8 52.15 16.3 51.15 16.6 51.35 16.45 51.6 M-3.6 53.9 L-4.75 53.85 -2.7 53.65 -3.6 53.9 M-21.85 49.55 Q-28.3 46.7 -34.0 42.0 L-29.45 44.15 -28.7 45.4 -21.85 49.55" fill="#3e3e36" fill-rule="evenodd" stroke="none"/>
    <path d="M19.5 50.55 L16.45 51.6 16.6 51.35 16.3 51.15 19.55 50.15 19.5 50.55" fill="#4e4e44" fill-rule="evenodd" stroke="none"/>
    <path d="M4.6 49.7 L4.95 49.85 Q5.4 50.4 4.25 50.85 L1.55 49.9 4.6 49.7" fill="#6c6b5d" fill-rule="evenodd" stroke="none"/>
    <path d="M-17.45 -51.25 L-16.4 -50.4 -12.45 -50.1 -15.1 -48.35 -21.95 -47.35 -17.65 -46.75 -19.45 -45.6 -20.05 -46.45 -23.45 -45.7 -22.45 -47.85 -29.45 -42.85 -26.95 -36.1 -27.05 -34.35 -29.45 -33.1 -25.2 -30.6 -28.45 -29.65 -30.0 -32.0 -35.05 -28.0 -39.95 -25.6 -38.15 -24.3 Q-38.15 -23.9 -37.5 -23.55 L-37.2 -23.6 -36.7 -23.85 -28.95 -26.35 -25.2 -24.95 -25.75 -23.85 Q-25.95 -23.05 -25.0 -23.05 -22.5 -23.05 -24.55 -25.3 L-23.75 -27.2 -21.75 -27.1 -20.35 -27.7 -23.35 -31.8 -21.7 -34.1 -18.0 -34.75 -19.95 -32.85 -17.2 -27.6 -19.8 -26.85 -21.4 -22.65 Q-20.85 -22.65 -20.45 -22.15 -20.3 -21.95 -20.3 -21.6 L-15.65 -23.55 -11.4 -22.9 -10.8 -20.85 -9.6 -20.95 Q-9.05 -20.85 -9.1 -20.55 L-9.15 -20.15 -11.75 -18.4 -12.7 -14.85 -8.95 -15.9 -6.95 -15.55 Q-7.5 -15.15 -7.5 -14.5 L-7.3 -14.2 -6.95 -14.05 -3.1 -16.35 -4.9 -12.55 -1.9 -7.4 -3.85 -6.3 -5.9 -7.9 -8.2 -6.35 -12.4 -6.5 -11.7 -8.1 -16.1 -7.65 -17.3 -9.5 -17.6 -3.75 -19.3 -3.8 -18.4 -6.95 -24.7 -2.1 -19.95 0.15 -15.05 -1.95 -12.95 -0.85 -18.2 0.9 -17.7 5.8 -21.55 5.35 -22.7 1.15 -23.6 0.65 -25.2 -2.6 -24.75 -3.65 -26.2 -6.1 -22.2 -7.35 -22.95 -11.85 -24.2 -11.1 -28.0 -14.4 -28.4 -17.45 -32.9 -21.4 -37.95 -21.35 -38.55 -22.0 -38.95 -22.1 -39.35 -21.7 -37.05 -9.0 -38.2 -10.35 -38.5 -8.35 -42.6 -6.65 -42.7 -6.6 -42.45 -6.35 -47.45 -3.6 -47.1 -6.35 -48.45 -7.4 -50.0 -6.85 -51.05 -15.55 -47.2 -18.85 -48.6 -21.95 -45.85 -22.5 -48.25 -24.0 -48.65 -23.75 -46.5 -27.65 -43.35 -29.85 -44.1 -28.15 -38.55 -33.45 -40.0 -35.7 -39.75 -36.5 -38.3 -38.05 -38.3 -35.65 -35.1 -35.65 -35.1 -38.75 -37.6 -38.75 Q-28.55 -47.55 -17.45 -51.25 M-44.9 -14.7 L-46.75 -14.85 -42.7 -6.85 -42.7 -8.2 -40.45 -9.85 -40.1 -11.95 -42.2 -10.85 -42.95 -16.85 -44.9 -14.7 M-21.8 -20.6 L-26.95 -18.1 -22.45 -16.35 -13.7 -18.35 -14.95 -22.85 -19.95 -18.7 -22.0 -19.25 -21.8 -20.6" fill="#dbcfb4" fill-rule="evenodd" stroke="none"/>
    <path d="M-39.75 -36.5 L-40.0 -35.7 -38.55 -33.45 -44.1 -28.15 -43.35 -29.85 -46.5 -27.65 Q-43.65 -32.3 -39.75 -36.5" fill="#e5e1c5" fill-rule="evenodd" stroke="none"/>
    <path d="M-44.9 -14.7 L-42.95 -16.85 -42.2 -10.85 -40.1 -11.95 -40.45 -9.85 -42.7 -8.2 -42.7 -6.85 -46.75 -14.85 -44.9 -14.7" fill="#efe5ca" fill-rule="evenodd" stroke="none"/>
    <path d="M-53.85 -4.2 L-53.15 -4.2 -54.0 0.3 -54.0 0.0 -53.85 -4.2" fill="#d9d4b8" fill-rule="evenodd" stroke="none"/>
    <path d="M-6.7 -41.1 L-7.2 -37.85 -4.4 -38.25 -5.5 -36.4 -2.2 -37.35 -3.45 -35.6 -0.95 -33.85 -4.0 -31.25 -3.95 -33.05 -10.95 -33.1 -6.95 -34.2 -10.15 -35.7 -10.15 -35.85 -6.7 -41.1" fill="#dfd0b5" fill-rule="evenodd" stroke="none"/>
    <path d="M-17.65 -46.75 L-21.95 -47.35 -15.1 -48.35 -13.7 -48.6 -16.7 -46.6 -17.65 -46.75" fill="#ede6ca" fill-rule="evenodd" stroke="none"/>
    <path d="M-7.65 -28.8 L-7.65 -28.65 Q-8.4 -25.4 -10.95 -26.35 L-7.65 -28.8" fill="#ded4b9" fill-rule="evenodd" stroke="none"/>
    <path d="M-37.6 -38.75 L-35.1 -38.75 -35.1 -35.65 -38.3 -35.65 -38.3 -38.05 -38.3 -38.75 -37.6 -38.75" fill="#ebe5c9" fill-rule="evenodd" stroke="none"/>
    <path d="M-21.7 -34.1 L-23.35 -31.8 -20.35 -27.7 -21.75 -27.1 -23.75 -27.2 -24.55 -25.3 Q-22.5 -23.05 -25.0 -23.05 -25.95 -23.05 -25.75 -23.85 L-25.2 -24.95 -28.95 -26.35 -36.7 -23.85 -37.0 -25.6 Q-38.2 -24.9 -38.15 -24.3 L-39.95 -25.6 -35.05 -28.0 -30.0 -32.0 -28.45 -29.65 -25.2 -30.6 -29.45 -33.1 -27.05 -34.35 -26.95 -36.1 -25.3 -33.85 -21.7 -34.1 M-27.15 -28.2 L-25.2 -27.95 -23.25 -28.2 Q-22.45 -28.5 -22.45 -28.85 -22.45 -29.2 -23.25 -29.45 L-25.2 -29.75 -27.15 -29.45 Q-27.95 -29.2 -27.95 -28.85 -27.95 -28.5 -27.15 -28.2" fill="#ede2c6" fill-rule="evenodd" stroke="none"/>
    <path d="M-27.15 -28.2 Q-27.95 -28.5 -27.95 -28.85 -27.95 -29.2 -27.15 -29.45 L-25.2 -29.75 -23.25 -29.45 Q-22.45 -29.2 -22.45 -28.85 -22.45 -28.5 -23.25 -28.2 L-25.2 -27.95 -27.15 -28.2" fill="#f7f3d6" fill-rule="evenodd" stroke="none"/>
    <path d="M-21.8 -20.6 L-22.0 -19.25 -19.95 -18.7 -14.95 -22.85 -13.7 -18.35 -22.45 -16.35 -26.95 -18.1 -21.8 -20.6" fill="#ece3c7" fill-rule="evenodd" stroke="none"/>
    <path d="M-36.7 -23.85 L-37.2 -23.6 -37.5 -23.55 Q-38.15 -23.9 -38.15 -24.3 -38.2 -24.9 -37.0 -25.6 L-36.7 -23.85" fill="#f8f6db" fill-rule="evenodd" stroke="none"/>
    <path d="M-12.95 -0.85 L-15.05 -1.95 -19.95 0.15 -24.7 -2.1 -18.4 -6.95 -19.3 -3.8 -17.6 -3.75 -17.3 -9.5 -16.1 -7.65 -11.7 -8.1 -12.4 -6.5 -8.2 -6.35 -6.05 -5.9 Q-5.2 -5.45 -5.2 -4.85 L-7.45 -4.1 -12.95 -0.85" fill="#ede3c8" fill-rule="evenodd" stroke="none"/>
    <path d="M-7.45 -4.1 L-5.2 -4.85 -4.95 -0.45 -7.45 -4.1" fill="#ddd0b5" fill-rule="evenodd" stroke="none"/>
    <path d="M-2.45 -2.1 L-2.75 -5.4 -1.95 -3.1 -2.45 -2.1" fill="#948776" fill-rule="evenodd" stroke="none"/>
    <path d="M-2.45 -2.1 L-1.95 -3.1 0.8 2.9 -2.45 -2.1" fill="#968a79" fill-rule="evenodd" stroke="none"/>
    <path d="M-6.4 5.75 Q-6.35 6.0 -6.6 6.15 L-6.7 6.15 Q-9.15 3.75 -8.05 7.2 L-7.95 7.4 -8.5 7.35 Q-9.5 7.2 -10.25 6.55 -11.2 5.65 -11.2 4.4 L-7.85 3.6 -6.95 4.9 -6.65 5.25 -6.4 5.75" fill="#726a5d" fill-rule="evenodd" stroke="none"/>
    <path d="M-6.4 5.75 L-6.65 5.25 -6.95 4.9 -6.2 4.9 -6.4 5.75 M-11.2 4.4 Q-11.2 5.65 -10.25 6.55 -9.5 7.2 -8.5 7.35 L-10.45 7.65 -12.2 5.9 -13.2 4.65 -13.8 2.9 -11.95 2.9 Q-13.25 4.8 -11.45 4.45 L-11.2 4.4 M-6.7 6.15 L-6.6 6.15 -6.7 6.25 -6.7 6.15" fill="#8b8373" fill-rule="evenodd" stroke="none"/>
    <path d="M-6.95 4.9 L-7.85 3.6 -11.2 4.4 -11.45 4.45 Q-13.25 4.8 -11.95 2.9 L-11.85 2.1 -6.25 1.9 -6.95 4.9 M-13.75 1.75 L-13.8 2.1 -14.05 2.3 -14.2 1.9 -13.75 1.75" fill="#837a6a" fill-rule="evenodd" stroke="none"/>
    <path d="M-7.95 7.4 L-8.05 7.2 Q-9.15 3.75 -6.7 6.15 L-6.7 6.25 -7.05 7.05 Q-7.45 7.4 -7.95 7.4" fill="#635b50" fill-rule="evenodd" stroke="none"/>
    <path d="M-4.05 8.05 Q-3.45 7.55 -2.55 7.55 -1.65 7.55 -1.0 8.05 -0.4 8.5 -0.4 9.15 -0.4 9.8 -1.0 10.3 -1.65 10.75 -2.55 10.75 -3.45 10.75 -4.05 10.3 -4.7 9.8 -4.7 9.15 -4.7 8.5 -4.05 8.05" fill="#dcd1b6" fill-rule="evenodd" stroke="none"/>
    <path d="M-11.85 2.1 L-11.95 2.9 -13.8 2.9 -13.95 2.9 -13.8 2.1 -13.75 1.75 -13.45 1.25 -12.9 0.95 -12.5 1.0 -12.3 1.05 -11.9 1.5 Q-11.8 1.8 -11.85 2.1" fill="#726b5e" fill-rule="evenodd" stroke="none"/>
    <path d="M-18.2 11.15 L-15.9 11.0 -18.2 13.9 -18.2 11.15" fill="#dad0b5" fill-rule="evenodd" stroke="none"/>
    <path d="M-12.2 5.9 L-10.45 7.65 -11.95 8.05 -12.3 7.9 Q-13.85 6.8 -12.2 5.9" fill="#a89b87" fill-rule="evenodd" stroke="none"/>
    <path d="M-10.45 13.65 L-13.7 11.65 -9.8 11.4 -10.45 13.65" fill="#998c7a" fill-rule="evenodd" stroke="none"/>
    <path d="M-34.85 0.95 L-34.85 6.8 -40.6 6.8 -40.6 0.95 -34.85 0.95" fill="#b0a18c" fill-rule="evenodd" stroke="none"/>
    <path d="M-35.35 40.8 L-37.15 39.15 -35.85 39.15 -35.35 40.8" fill="#4f4b42" fill-rule="evenodd" stroke="none"/>
    <path d="M-4.85 48.4 L-3.5 48.1 Q-2.7 48.1 -2.1 48.4 -1.55 48.65 -1.55 49.0 -1.55 49.35 -2.1 49.65 L-3.5 49.9 -4.85 49.65 -5.45 49.0 Q-5.45 48.65 -4.85 48.4" fill="#6b685b" fill-rule="evenodd" stroke="none"/>
    <path d="M-2.3 53.95 L-3.6 53.9 -2.7 53.65 -2.3 53.95" fill="#54564a" fill-rule="evenodd" stroke="none"/>
  </g>
  <defs>
    <radialGradient cx="0" cy="0" gradientTransform="matrix(2.0E-4, 0.0, 0.0, 2.0E-4, 53.05, 47.4)" gradientUnits="userSpaceOnUse" id="gradient0" r="819.2" spreadMethod="pad">
      <stop offset="0.0" stop-color="#ffffff"/>
      <stop offset="1.0" stop-color="#ffffff" stop-opacity="0.0"/>
    </radialGradient>
    <radialGradient cx="0" cy="0" gradientTransform="matrix(0.0837, 0.0, 0.0, 0.0837, 0.0, 0.0)" gradientUnits="userSpaceOnUse" id="gradient1" r="819.2" spreadMethod="pad">
      <stop offset="0.6509803921568628" stop-color="#ffffff"/>
      <stop offset="1.0" stop-color="#ffffff" stop-opacity="0.0"/>
    </radialGradient>
  </defs>
</svg>
