<?xml version="1.0" encoding="UTF-8" standalone="no"?>
<svg xmlns:ffdec="https://www.free-decompiler.com/flash" xmlns:xlink="http://www.w3.org/1999/xlink" ffdec:objectType="shape" height="84.15px" width="464.25px" xmlns="http://www.w3.org/2000/svg">
  <g transform="matrix(1.0, 0.0, 0.0, 1.0, 164.05, 34.65)">
    <path d="M300.2 35.15 Q300.2 41.05 268.2 45.3 236.15 49.5 190.85 49.5 145.55 49.5 113.5 45.3 81.45 41.05 81.5 35.15 81.45 29.2 113.5 25.0 145.55 20.8 190.85 20.8 236.15 20.8 268.2 25.0 300.2 29.2 300.2 35.15" fill="url(#gradient0)" fill-rule="evenodd" stroke="none"/>
    <path d="M0.0 -8.4 Q67.95 -8.45 116.0 -2.1 164.05 4.2 164.05 13.1 164.05 22.0 116.0 28.3 67.95 34.6 0.0 34.65 -67.95 34.6 -116.0 28.3 -164.05 22.0 -164.05 13.1 -164.05 4.2 -116.0 -2.1 -67.95 -8.45 0.0 -8.4" fill="url(#gradient1)" fill-rule="evenodd" stroke="none"/>
    <path d="M146.8 -13.1 Q112.8 -13.1 88.8 -16.25 64.75 -19.4 64.75 -23.85 64.75 -28.3 88.8 -31.45 112.8 -34.65 146.8 -34.65 180.75 -34.65 204.8 -31.45 228.8 -28.3 228.8 -23.85 228.8 -19.4 204.8 -16.25 180.75 -13.1 146.8 -13.1" fill="url(#gradient2)" fill-rule="evenodd" stroke="none"/>
  </g>
  <defs>
    <radialGradient cx="0" cy="0" gradientTransform="matrix(0.0, -0.0175, -0.1348, 0.0, 190.85, 35.1)" gradientUnits="userSpaceOnUse" id="gradient0" r="819.2" spreadMethod="pad">
      <stop offset="0.0" stop-color="#b0d0ee" stop-opacity="0.33333334"/>
      <stop offset="1.0" stop-color="#b0d0ee" stop-opacity="0.0"/>
    </radialGradient>
    <radialGradient cx="0" cy="0" gradientTransform="matrix(0.0, -0.0262, -0.2021, 0.0, 0.0, 13.1)" gradientUnits="userSpaceOnUse" id="gradient1" r="819.2" spreadMethod="pad">
      <stop offset="0.0" stop-color="#b0d0ee" stop-opacity="0.5019608"/>
      <stop offset="1.0" stop-color="#b0d0ee" stop-opacity="0.0"/>
    </radialGradient>
    <radialGradient cx="0" cy="0" gradientTransform="matrix(0.0, -0.0131, -0.1011, 0.0, 146.8, -23.9)" gradientUnits="userSpaceOnUse" id="gradient2" r="819.2" spreadMethod="pad">
      <stop offset="0.0" stop-color="#b0d0ee" stop-opacity="0.2509804"/>
      <stop offset="1.0" stop-color="#b0d0ee" stop-opacity="0.0"/>
    </radialGradient>
  </defs>
</svg>
