<?xml version="1.0" encoding="UTF-8" standalone="no"?>
<svg xmlns:ffdec="https://www.free-decompiler.com/flash" xmlns:xlink="http://www.w3.org/1999/xlink" ffdec:objectType="shape" height="90.4px" width="84.55px" xmlns="http://www.w3.org/2000/svg">
  <g transform="matrix(1.0, 0.0, 0.0, 1.0, -59.75, 133.95)">
    <path d="M109.95 -131.15 L109.95 -131.3 110.0 -131.45 110.1 -131.65 110.7 -132.55 110.8 -132.65 112.05 -133.35 112.15 -133.4 113.55 -133.4 114.55 -133.15 114.65 -133.1 Q115.6 -132.6 116.3 -131.7 L116.75 -130.8 117.25 -129.8 117.45 -129.6 117.7 -129.3 118.05 -128.7 118.2 -128.65 118.4 -128.6 120.05 -127.95 120.25 -127.9 120.45 -127.75 120.9 -127.6 121.3 -127.5 121.5 -127.4 121.9 -127.0 125.05 -123.95 125.25 -123.65 125.7 -122.95 126.3 -122.1 126.75 -121.4 127.2 -120.85 127.5 -119.95 127.65 -119.65 127.85 -119.05 128.0 -118.3 128.05 -118.05 128.9 -116.55 129.05 -116.3 129.3 -115.35 129.45 -114.45 129.5 -114.3 129.8 -112.95 129.85 -112.8 129.9 -112.05 129.95 -109.7 129.95 -109.55 Q129.95 -109.15 130.15 -109.05 L130.25 -108.95 130.4 -105.05 Q130.35 -104.55 130.55 -104.3 L130.6 -104.2 130.9 -103.3 131.0 -103.05 131.1 -102.85 131.4 -102.05 131.45 -101.8 131.55 -101.3 131.7 -97.65 131.7 -97.3 131.7 -96.9 131.9 -95.8 132.15 -93.55 132.2 -93.2 132.4 -92.4 Q132.45 -91.8 132.75 -91.25 L132.85 -91.05 132.95 -90.65 133.1 -89.9 133.2 -89.7 133.55 -88.9 133.6 -88.4 Q133.9 -87.05 133.75 -85.55 133.65 -84.2 134.0 -83.0 L134.1 -82.7 134.4 -81.65 134.95 -78.05 137.35 -60.05 130.55 -59.15 130.05 -58.9 129.05 -58.05 Q129.8 -60.4 131.4 -62.3 L132.35 -63.2 132.6 -63.55 Q132.75 -64.0 133.25 -64.2 L133.7 -64.35 Q132.35 -64.55 131.55 -63.65 L130.55 -62.75 Q129.75 -62.3 129.3 -61.55 L128.9 -60.8 128.15 -59.8 Q128.25 -62.5 127.6 -65.15 L127.2 -66.9 Q126.85 -68.8 125.85 -70.4 L125.55 -70.8 125.15 -71.55 Q124.9 -71.5 125.1 -71.25 L125.3 -70.8 125.45 -70.15 125.7 -68.8 125.75 -65.3 125.55 -63.9 125.05 -61.05 124.05 -62.6 123.55 -63.05 122.7 -63.6 122.25 -63.9 121.3 -64.45 120.65 -64.7 119.8 -65.0 119.4 -65.15 120.6 -63.4 120.95 -62.8 121.85 -60.5 121.9 -60.3 121.9 -60.15 121.55 -60.4 Q121.05 -60.8 120.4 -60.85 L117.4 -60.55 Q116.8 -60.4 116.55 -60.05 L117.0 -59.75 119.55 -59.0 120.05 -58.65 121.45 -56.6 121.65 -56.15 121.65 -55.4 121.75 -55.15 Q121.05 -55.7 120.05 -55.55 L119.4 -55.35 Q119.15 -55.2 118.9 -55.15 L118.05 -54.4 Q119.3 -54.35 120.4 -53.9 L120.7 -53.7 120.75 -53.55 120.8 -52.9 Q120.8 -52.7 120.7 -53.0 L120.55 -53.15 119.3 -53.3 118.7 -53.2 118.25 -53.1 116.3 -52.6 115.9 -52.6 Q114.9 -52.45 113.9 -52.6 L113.4 -52.7 111.9 -52.6 111.25 -52.55 110.25 -52.4 110.0 -52.25 109.9 -52.15 109.65 -51.9 107.65 -51.7 106.75 -51.45 105.65 -51.25 104.4 -51.4 104.1 -51.5 103.0 -51.85 102.75 -51.9 101.15 -52.0 100.75 -51.8 100.9 -52.05 101.85 -52.65 102.15 -52.75 Q102.9 -53.3 103.75 -53.5 L106.25 -53.65 105.4 -54.4 105.15 -54.55 104.5 -54.7 103.9 -54.6 103.1 -54.35 102.8 -54.1 102.4 -53.75 101.8 -53.45 101.5 -53.3 Q101.8 -54.9 102.4 -56.25 L102.6 -56.7 102.65 -56.9 Q102.25 -57.0 101.95 -56.7 L101.15 -55.65 100.1 -54.15 99.8 -53.65 99.75 -53.3 Q99.55 -53.45 99.6 -53.9 L99.5 -55.4 Q99.35 -56.1 99.35 -56.9 L99.25 -57.3 Q99.0 -57.85 98.9 -58.55 L98.5 -59.9 98.25 -60.4 98.2 -60.65 97.8 -61.25 97.9 -61.05 98.05 -59.55 98.0 -57.8 97.95 -57.25 97.9 -56.8 Q97.95 -55.95 97.55 -55.3 L97.4 -55.05 Q97.3 -54.45 97.0 -54.15 L96.45 -55.75 95.9 -56.9 95.7 -57.25 95.55 -57.45 95.5 -57.65 95.4 -57.9 95.7 -58.8 96.1 -59.85 96.15 -60.05 96.25 -61.3 Q96.1 -62.35 96.7 -62.95 L96.75 -63.15 96.45 -64.2 96.4 -64.55 95.55 -63.2 95.4 -63.0 95.25 -62.8 94.95 -61.65 94.9 -61.15 94.65 -60.75 94.55 -60.55 94.4 -60.15 Q94.15 -60.0 94.15 -59.55 93.9 -59.7 93.95 -60.15 L93.95 -61.3 93.95 -61.4 Q93.65 -62.3 92.95 -63.25 L92.65 -63.7 92.35 -64.15 91.9 -64.45 91.6 -64.65 90.5 -65.4 Q91.2 -64.4 91.2 -63.3 91.2 -62.8 91.35 -62.5 L91.4 -62.3 91.2 -61.3 91.05 -61.1 91.0 -60.9 Q90.8 -60.1 90.85 -59.15 L90.75 -58.3 Q90.55 -57.55 90.6 -56.65 L90.6 -55.65 90.6 -55.4 90.65 -55.15 90.2 -56.3 89.65 -57.3 88.4 -58.15 88.75 -56.9 88.9 -56.3 89.05 -55.3 89.0 -55.15 88.9 -54.8 Q88.05 -55.55 87.0 -55.6 L85.75 -55.7 85.65 -55.75 86.9 -54.8 86.95 -54.65 87.1 -54.15 87.2 -53.8 87.35 -53.4 87.4 -53.05 87.45 -52.15 87.5 -52.0 87.8 -51.45 86.9 -51.6 85.45 -51.55 84.75 -51.5 83.65 -51.35 83.15 -51.3 81.95 -50.85 81.25 -50.6 81.65 -50.95 81.75 -51.15 81.95 -51.45 82.05 -51.6 Q82.2 -51.85 82.5 -51.9 L82.75 -52.0 83.0 -52.15 Q83.3 -52.25 83.4 -52.4 82.95 -52.8 82.35 -52.8 L82.15 -52.7 81.15 -52.15 80.65 -51.7 80.55 -51.55 80.4 -51.35 80.4 -51.3 80.25 -51.15 80.35 -51.4 80.75 -52.55 81.05 -53.35 81.15 -53.55 81.35 -54.05 81.4 -54.55 80.85 -54.25 79.55 -53.35 79.45 -53.3 79.05 -52.7 78.9 -52.35 78.8 -52.2 78.75 -52.1 78.65 -51.7 78.65 -51.45 78.6 -50.85 78.6 -50.65 78.5 -50.45 78.45 -50.65 78.05 -51.65 77.95 -51.85 77.35 -52.65 77.05 -52.9 76.65 -53.25 76.5 -53.4 76.35 -53.45 77.0 -51.95 77.1 -51.55 77.4 -50.4 76.9 -51.15 76.65 -51.45 76.25 -51.6 76.15 -51.7 75.35 -52.15 Q75.2 -52.05 75.4 -51.8 L75.5 -51.65 75.65 -51.05 75.7 -50.9 75.9 -49.35 75.25 -49.8 75.15 -49.85 74.8 -50.05 74.65 -50.15 74.4 -50.25 73.9 -50.5 73.95 -50.9 74.0 -51.8 74.05 -52.0 74.15 -52.4 Q74.05 -53.1 74.3 -53.65 L74.75 -54.9 75.15 -56.05 Q75.55 -57.25 76.2 -58.3 L76.45 -58.6 77.15 -59.5 77.95 -60.5 78.15 -60.85 78.65 -61.55 78.75 -61.6 79.65 -62.0 Q80.6 -62.6 81.45 -63.9 L81.65 -64.4 82.6 -66.8 82.7 -67.0 83.15 -67.9 83.3 -68.25 84.1 -69.2 84.55 -69.65 84.85 -70.1 85.65 -71.1 85.6 -72.05 85.7 -72.4 86.1 -74.05 86.2 -74.25 86.3 -74.55 86.7 -75.7 86.8 -75.85 87.25 -77.05 87.35 -77.35 87.5 -77.9 87.55 -78.55 87.7 -79.9 87.7 -80.4 87.9 -81.8 88.2 -82.8 88.25 -82.95 88.7 -84.05 88.8 -84.25 89.35 -85.4 89.65 -86.15 90.05 -86.65 90.2 -86.95 Q90.85 -88.05 91.9 -88.6 L92.1 -88.7 92.3 -88.9 93.4 -89.75 93.55 -90.55 93.55 -90.75 Q93.85 -91.1 93.8 -91.8 L93.85 -92.05 93.95 -92.4 94.1 -92.9 94.25 -94.15 94.45 -96.4 94.45 -96.65 Q94.4 -97.3 94.65 -97.8 L94.7 -98.0 94.7 -98.65 95.2 -100.05 95.3 -100.25 95.5 -100.55 96.05 -101.55 96.65 -102.65 96.6 -103.05 96.7 -105.7 96.7 -106.05 96.75 -107.45 96.8 -107.8 96.9 -108.8 96.95 -109.05 97.15 -109.95 97.4 -111.2 97.5 -112.2 97.55 -112.55 97.75 -113.2 97.85 -113.55 97.9 -113.85 Q98.05 -115.1 98.65 -116.2 L98.8 -116.45 100.05 -118.3 100.15 -118.6 100.65 -119.45 100.35 -120.3 100.2 -120.8 100.2 -121.15 100.5 -122.2 100.55 -122.4 100.7 -122.7 100.8 -122.9 101.5 -124.95 101.55 -125.15 102.6 -127.3 104.0 -129.45 104.3 -129.9 104.45 -130.1 Q104.9 -130.85 105.9 -131.15 L108.15 -131.3 108.4 -131.25 109.4 -131.2 109.95 -131.15 109.95 -131.05 109.85 -130.7 109.6 -130.1 109.5 -129.95 109.4 -129.8 108.75 -129.1 108.45 -128.8 108.25 -128.6 107.35 -127.3 107.1 -126.95 106.65 -126.4 106.25 -125.8 106.0 -125.6 105.65 -125.05 105.55 -124.7 105.4 -124.4 105.15 -123.95 104.75 -123.05 104.6 -122.75 104.5 -122.45 104.35 -120.3 104.3 -119.8 104.2 -117.8 104.2 -117.7 104.15 -116.45 104.2 -117.7 104.2 -117.8 104.3 -119.8 104.35 -120.3 104.5 -122.45 104.6 -122.75 104.75 -123.05 105.15 -123.95 105.4 -124.4 105.55 -124.7 105.65 -125.05 106.0 -125.6 106.25 -125.8 106.65 -126.4 107.1 -126.95 107.35 -127.3 108.25 -128.6 108.45 -128.8 108.75 -129.1 109.4 -129.8 109.5 -129.95 109.6 -130.1 109.85 -130.7 109.95 -131.05 109.95 -131.15 M119.45 -93.55 L117.8 -97.3 119.45 -93.55 M127.05 -82.2 L126.05 -84.55 127.05 -82.2 M128.55 -77.3 L128.55 -77.65 128.5 -77.9 127.9 -78.8 127.6 -79.1 Q127.1 -79.4 127.05 -79.9 127.1 -79.4 127.6 -79.1 L127.9 -78.8 128.5 -77.9 128.55 -77.65 128.55 -77.3 M118.4 -83.3 L118.25 -83.65 Q117.45 -84.75 117.05 -86.05 117.45 -84.75 118.25 -83.65 L118.4 -83.3 M113.4 -74.55 L113.25 -75.4 113.2 -75.55 113.0 -76.15 112.0 -77.15 111.55 -77.55 Q111.3 -77.85 111.55 -77.9 111.3 -77.85 111.55 -77.55 L112.0 -77.15 113.0 -76.15 113.2 -75.55 113.25 -75.4 113.4 -74.55 M115.0 -80.25 L115.05 -80.2 115.7 -79.2 115.9 -78.9 116.7 -77.7 117.2 -76.65 117.25 -76.55 117.45 -75.95 118.0 -74.65 118.1 -74.45 118.35 -73.4 118.35 -73.15 118.45 -70.55 117.75 -71.15 117.5 -71.4 116.8 -72.15 117.5 -71.4 117.75 -71.15 118.45 -70.55 118.35 -73.15 118.35 -73.4 118.1 -74.45 118.0 -74.65 117.45 -75.95 117.25 -76.55 117.2 -76.65 116.7 -77.7 115.9 -78.9 115.7 -79.2 115.05 -80.2 115.0 -80.25 114.65 -80.65 114.25 -81.15 114.1 -81.45 113.9 -81.65 114.1 -81.45 114.25 -81.15 114.65 -80.65 115.0 -80.25 Q115.1 -81.75 114.55 -83.05 L114.25 -84.05 113.7 -86.75 113.6 -87.05 113.5 -87.25 113.15 -87.9 Q113.0 -88.2 113.0 -88.55 L112.9 -88.65 111.55 -90.65 111.0 -91.5 110.55 -92.05 110.3 -92.3 109.55 -92.9 108.65 -93.55 108.55 -93.65 107.95 -93.85 107.6 -94.0 Q107.05 -94.4 106.35 -94.3 L106.3 -94.3 106.0 -94.2 105.8 -94.1 104.65 -93.75 104.25 -93.7 104.0 -93.6 103.9 -93.6 103.4 -93.35 103.15 -93.15 102.75 -92.95 102.15 -92.55 102.75 -92.95 103.15 -93.15 103.4 -93.35 103.9 -93.6 104.0 -93.6 104.25 -93.7 104.65 -93.75 105.8 -94.1 106.0 -94.2 106.3 -94.3 106.35 -94.3 Q107.05 -94.4 107.6 -94.0 L107.95 -93.85 108.55 -93.65 108.65 -93.55 109.55 -92.9 110.3 -92.3 110.55 -92.05 111.0 -91.5 111.55 -90.65 112.9 -88.65 113.0 -88.55 Q113.0 -88.2 113.15 -87.9 L113.5 -87.25 113.6 -87.05 113.7 -86.75 114.25 -84.05 114.55 -83.05 Q115.1 -81.75 115.0 -80.25 M114.55 -78.55 L114.5 -78.35 Q114.4 -78.2 114.3 -78.2 L114.15 -78.3 Q113.9 -78.55 113.75 -79.05 L113.6 -79.45 113.5 -79.65 Q113.25 -80.85 112.55 -81.55 L112.25 -81.7 112.15 -82.05 112.1 -82.4 112.0 -82.8 111.9 -83.3 111.8 -83.8 111.3 -84.8 Q111.15 -84.95 111.15 -85.15 111.15 -85.55 110.75 -85.45 L110.3 -84.9 Q110.2 -84.5 109.8 -84.55 L109.65 -84.8 109.45 -85.15 109.15 -85.65 108.6 -86.4 Q108.1 -87.05 107.9 -87.8 108.1 -87.05 108.6 -86.4 L109.15 -85.65 109.45 -85.15 109.65 -84.8 109.8 -84.55 Q110.2 -84.5 110.3 -84.9 L110.75 -85.45 Q111.15 -85.55 111.15 -85.15 111.15 -84.95 111.3 -84.8 L111.8 -83.8 111.9 -83.3 112.0 -82.8 112.1 -82.4 112.15 -82.05 112.25 -81.7 112.55 -81.55 Q113.25 -80.85 113.5 -79.65 L113.6 -79.45 113.75 -79.05 Q113.9 -78.55 114.15 -78.3 L114.3 -78.2 Q114.4 -78.2 114.5 -78.35 L114.55 -78.55 M118.55 -78.65 L118.5 -79.05 117.95 -80.65 117.75 -81.0 116.65 -82.55 117.75 -81.0 117.95 -80.65 118.5 -79.05 118.55 -78.65 M119.15 -85.4 L118.95 -86.05 Q118.55 -87.3 117.55 -88.05 118.55 -87.3 118.95 -86.05 L119.15 -85.4 M119.15 -87.4 L118.85 -88.15 118.6 -88.7 118.2 -89.75 117.95 -90.45 117.65 -91.4 117.95 -90.45 118.2 -89.75 118.6 -88.7 118.85 -88.15 119.15 -87.4 M118.8 -91.9 L118.3 -93.3 117.85 -94.0 Q117.55 -94.4 117.55 -94.9 117.55 -94.4 117.85 -94.0 L118.3 -93.3 118.8 -91.9 M114.8 -94.65 L114.95 -91.9 Q114.95 -91.6 115.3 -91.4 L115.45 -91.8 115.45 -92.55 115.5 -92.8 115.65 -94.9 115.5 -92.8 115.45 -92.55 115.45 -91.8 115.3 -91.4 Q114.95 -91.6 114.95 -91.9 L114.8 -94.65 M127.05 -85.8 Q126.65 -86.1 126.5 -86.8 L126.35 -87.1 Q125.65 -88.0 125.4 -88.9 125.65 -88.0 126.35 -87.1 L126.5 -86.8 Q126.65 -86.1 127.05 -85.8 M126.25 -90.6 L126.1 -90.8 125.85 -91.1 125.45 -91.45 124.9 -91.7 Q124.2 -91.95 124.05 -92.4 124.2 -91.95 124.9 -91.7 L125.45 -91.45 125.85 -91.1 126.1 -90.8 126.25 -90.6 M126.8 -92.65 L126.3 -93.4 125.55 -94.3 125.15 -94.6 124.55 -94.95 123.9 -95.55 124.55 -94.95 125.15 -94.6 125.55 -94.3 126.3 -93.4 126.8 -92.65 M127.65 -97.65 L128.0 -96.65 Q128.25 -96.25 128.4 -96.4 128.65 -96.6 128.55 -97.15 L128.5 -97.65 128.35 -98.3 128.05 -98.9 128.35 -98.3 128.5 -97.65 128.55 -97.15 Q128.65 -96.6 128.4 -96.4 128.25 -96.25 128.0 -96.65 L127.65 -97.65 M126.65 -96.3 L126.6 -96.55 126.2 -98.2 126.1 -98.4 Q125.65 -99.55 124.9 -100.2 124.7 -100.4 124.65 -100.2 124.7 -100.4 124.9 -100.2 125.65 -99.55 126.1 -98.4 L126.2 -98.2 126.6 -96.55 126.65 -96.3 M126.55 -99.3 L126.4 -99.65 126.35 -99.8 126.15 -100.8 125.7 -101.95 125.45 -102.4 124.75 -103.4 Q124.6 -103.65 124.3 -103.7 124.6 -103.65 124.75 -103.4 L125.45 -102.4 125.7 -101.95 126.15 -100.8 126.35 -99.8 126.4 -99.65 126.55 -99.3 M126.8 -104.05 L126.6 -104.45 126.5 -104.65 Q126.1 -105.5 125.4 -106.0 L124.95 -106.35 124.5 -106.6 Q124.2 -106.75 124.15 -107.05 124.2 -106.75 124.5 -106.6 L124.95 -106.35 125.4 -106.0 Q126.1 -105.5 126.5 -104.65 L126.6 -104.45 126.8 -104.05 M115.65 -107.95 L115.4 -107.5 115.25 -107.4 114.7 -106.4 114.6 -106.2 114.55 -105.95 Q114.3 -105.15 114.75 -104.55 L114.85 -104.3 Q114.9 -103.7 115.4 -103.7 L115.55 -103.75 116.15 -104.8 116.25 -105.45 116.25 -105.95 Q116.25 -106.7 115.9 -107.3 116.25 -106.7 116.25 -105.95 L116.25 -105.45 116.15 -104.8 115.55 -103.75 115.4 -103.7 Q114.9 -103.7 114.85 -104.3 L114.75 -104.55 Q114.3 -105.15 114.55 -105.95 L114.6 -106.2 114.7 -106.4 115.25 -107.4 115.4 -107.5 115.65 -107.95 M116.55 -114.55 Q116.6 -113.8 117.3 -113.5 L117.7 -113.55 117.85 -114.2 117.7 -115.45 117.15 -116.05 117.7 -115.45 117.85 -114.2 117.7 -113.55 117.3 -113.5 Q116.6 -113.8 116.55 -114.55 M126.9 -109.05 L126.8 -109.55 126.6 -110.1 126.25 -110.55 Q125.4 -111.1 124.8 -111.95 125.4 -111.1 126.25 -110.55 L126.6 -110.1 126.8 -109.55 126.9 -109.05 M126.25 -112.0 L125.6 -113.05 125.4 -113.6 124.9 -114.4 124.15 -114.95 124.9 -114.4 125.4 -113.6 125.6 -113.05 126.25 -112.0 M127.05 -113.95 L126.4 -115.05 126.1 -115.4 125.75 -115.75 125.05 -116.3 124.65 -116.65 124.3 -116.95 124.65 -116.65 125.05 -116.3 125.75 -115.75 126.1 -115.4 126.4 -115.05 127.05 -113.95 M111.05 -116.8 L112.15 -120.2 112.35 -120.85 112.45 -121.05 112.6 -121.4 112.75 -121.95 112.8 -122.2 113.15 -122.95 113.25 -123.2 113.75 -124.2 114.3 -125.15 114.65 -125.8 114.85 -126.15 115.35 -127.0 115.55 -127.45 115.95 -127.85 116.25 -128.05 116.35 -128.25 116.5 -128.35 117.2 -128.65 118.05 -128.7 117.2 -128.65 116.5 -128.35 116.35 -128.25 116.25 -128.05 115.95 -127.85 115.55 -127.45 115.35 -127.0 114.85 -126.15 114.65 -125.8 114.3 -125.15 113.75 -124.2 113.25 -123.2 113.15 -122.95 112.8 -122.2 112.75 -121.95 112.6 -121.4 112.45 -121.05 112.35 -120.85 112.15 -120.2 111.05 -116.8 M133.9 -64.4 L133.7 -64.35 133.9 -64.4 M114.15 -67.3 L113.8 -67.85 112.4 -69.05 113.8 -67.85 114.15 -67.3 M113.9 -70.9 L113.55 -71.65 112.9 -72.8 112.55 -73.3 Q112.05 -73.95 111.8 -74.65 112.05 -73.95 112.55 -73.3 L112.9 -72.8 113.55 -71.65 113.9 -70.9 M118.45 -70.55 L119.05 -69.8 119.2 -69.6 120.05 -68.65 120.25 -68.25 Q120.5 -67.65 120.9 -67.3 120.5 -67.65 120.25 -68.25 L120.05 -68.65 119.2 -69.6 119.05 -69.8 118.45 -70.55 M110.3 -108.05 L110.35 -108.4 110.45 -108.95 Q110.6 -110.05 111.25 -110.85 L111.4 -111.05 112.65 -112.95 111.4 -111.05 111.25 -110.85 Q110.6 -110.05 110.45 -108.95 L110.35 -108.4 110.3 -108.05 M103.25 -108.55 L104.05 -110.3 104.2 -110.6 104.3 -110.8 Q104.6 -111.65 105.15 -112.2 104.6 -111.65 104.3 -110.8 L104.2 -110.6 104.05 -110.3 103.25 -108.55 M104.0 -113.2 L104.1 -113.85 104.2 -114.05 104.5 -114.95 104.7 -115.3 105.3 -116.55 105.35 -116.8 Q105.5 -117.6 106.15 -117.95 105.5 -117.6 105.35 -116.8 L105.3 -116.55 104.7 -115.3 104.5 -114.95 104.2 -114.05 104.1 -113.85 104.0 -113.2 M110.55 -113.45 Q110.45 -114.0 110.7 -114.3 L111.35 -115.2 111.75 -115.6 112.15 -116.3 112.35 -116.8 112.5 -117.2 112.9 -118.3 112.5 -117.2 112.35 -116.8 112.15 -116.3 111.75 -115.6 111.35 -115.2 110.7 -114.3 Q110.45 -114.0 110.55 -113.45 M101.15 -113.8 L100.95 -116.55 100.95 -116.8 100.8 -117.8 100.7 -118.55 100.65 -119.45 100.7 -118.55 100.8 -117.8 100.95 -116.8 100.95 -116.55 101.15 -113.8 M97.0 -100.7 L96.95 -101.45 96.9 -101.7 96.8 -102.05 96.65 -102.65 96.8 -102.05 96.9 -101.7 96.95 -101.45 97.0 -100.7 M110.05 -100.05 L110.5 -101.2 110.55 -101.55 110.8 -102.45 110.55 -101.55 110.5 -101.2 110.05 -100.05 M110.4 -103.7 L110.9 -104.45 111.55 -105.45 110.9 -104.45 110.4 -103.7 M109.8 -105.55 L110.4 -106.85 110.75 -107.2 111.4 -107.8 112.05 -108.45 111.4 -107.8 110.75 -107.2 110.4 -106.85 109.8 -105.55 M101.9 -101.3 L101.95 -102.2 102.05 -102.4 102.15 -102.6 102.5 -103.35 103.6 -105.7 103.9 -106.2 104.15 -106.3 103.9 -106.2 103.6 -105.7 102.5 -103.35 102.15 -102.6 102.05 -102.4 101.95 -102.2 101.9 -101.3 M102.4 -98.45 L102.8 -99.8 Q102.9 -100.65 103.15 -101.45 102.9 -100.65 102.8 -99.8 L102.4 -98.45 M106.3 -94.3 L105.75 -95.05 104.4 -96.1 102.9 -96.6 102.4 -96.7 100.9 -96.8 100.1 -96.45 99.9 -96.3 98.75 -95.55 97.75 -94.9 97.1 -94.15 96.7 -93.6 96.55 -93.4 96.2 -92.35 95.85 -91.95 95.65 -91.65 95.05 -90.75 94.9 -90.55 94.8 -90.4 94.2 -90.2 93.9 -90.0 93.4 -89.75 93.9 -90.0 94.2 -90.2 94.8 -90.4 94.9 -90.55 95.05 -90.75 95.65 -91.65 95.85 -91.95 96.2 -92.35 96.55 -93.4 96.7 -93.6 97.1 -94.15 97.75 -94.9 98.75 -95.55 99.9 -96.3 100.1 -96.45 100.9 -96.8 102.4 -96.7 102.9 -96.6 104.4 -96.1 105.75 -95.05 106.3 -94.3 M104.15 -65.3 L104.0 -65.5 103.85 -65.7 103.6 -66.0 103.4 -66.25 Q102.55 -66.85 102.4 -67.8 102.55 -66.85 103.4 -66.25 L103.6 -66.0 103.85 -65.7 104.0 -65.5 104.15 -65.3 M103.3 -62.8 L103.3 -63.3 102.8 -64.2 102.45 -64.7 102.05 -65.15 102.45 -64.7 102.8 -64.2 103.3 -63.3 103.3 -62.8 M103.8 -67.65 L103.65 -68.25 103.6 -68.4 102.8 -70.05 103.6 -68.4 103.65 -68.25 103.8 -67.65 M104.4 -69.4 L104.4 -69.55 Q104.5 -71.3 103.3 -72.65 104.5 -71.3 104.4 -69.55 L104.4 -69.4 M114.4 -68.4 Q113.75 -69.9 112.25 -71.1 L111.65 -71.8 112.25 -71.1 Q113.75 -69.9 114.4 -68.4 M109.6 -74.4 L110.05 -73.9 110.05 -74.05 Q110.2 -75.85 109.55 -77.4 110.2 -75.85 110.05 -74.05 L110.05 -73.9 109.6 -74.4 M104.9 -73.55 Q104.45 -74.95 103.5 -76.15 L103.05 -77.15 103.5 -76.15 Q104.45 -74.95 104.9 -73.55 M105.3 -77.8 Q105.2 -78.6 104.5 -79.25 L103.5 -79.95 Q103.05 -80.15 102.9 -80.55 103.05 -80.15 103.5 -79.95 L104.5 -79.25 Q105.2 -78.6 105.3 -77.8 M106.15 -83.8 L106.55 -84.15 Q107.0 -84.95 106.9 -85.9 107.0 -84.95 106.55 -84.15 L106.15 -83.8 M112.9 -78.05 L112.7 -78.3 112.6 -78.5 112.4 -78.9 111.9 -79.25 111.35 -79.6 110.65 -79.9 111.35 -79.6 111.9 -79.25 112.4 -78.9 112.6 -78.5 112.7 -78.3 112.9 -78.05 M98.8 -80.65 Q98.5 -80.1 98.55 -79.4 L98.6 -79.05 98.9 -78.4 Q99.45 -78.65 99.55 -79.3 L99.9 -80.55 99.55 -79.3 Q99.45 -78.65 98.9 -78.4 L98.6 -79.05 98.55 -79.4 Q98.5 -80.1 98.8 -80.65 M97.8 -87.3 L98.3 -87.4 Q98.55 -87.65 98.9 -87.75 L99.1 -87.85 100.65 -88.9 99.1 -87.85 98.9 -87.75 Q98.55 -87.65 98.3 -87.4 L97.8 -87.3 M97.15 -83.65 L97.45 -84.4 97.5 -84.55 97.6 -84.85 97.95 -85.4 Q98.75 -86.45 99.9 -87.05 98.75 -86.45 97.95 -85.4 L97.6 -84.85 97.5 -84.55 97.45 -84.4 97.15 -83.65 M104.55 -87.05 L104.45 -86.8 104.35 -86.55 Q104.2 -86.35 104.2 -85.9 L104.1 -84.55 104.1 -84.3 104.25 -82.8 104.35 -83.0 104.6 -83.3 104.7 -83.5 Q105.05 -84.1 104.95 -84.9 L104.95 -85.15 105.2 -86.4 105.25 -86.8 105.3 -87.05 105.25 -86.8 105.2 -86.4 104.95 -85.15 104.95 -84.9 Q105.05 -84.1 104.7 -83.5 L104.6 -83.3 104.35 -83.0 104.25 -82.8 104.1 -84.3 104.1 -84.55 104.2 -85.9 Q104.2 -86.35 104.35 -86.55 L104.45 -86.8 104.55 -87.05 M90.8 -72.5 L90.85 -72.65 90.95 -73.0 91.1 -73.45 91.2 -73.75 91.8 -75.05 92.4 -75.9 92.55 -76.05 92.9 -76.4 92.95 -76.55 93.15 -76.9 94.3 -77.9 93.15 -76.9 92.95 -76.55 92.9 -76.4 92.55 -76.05 92.4 -75.9 91.8 -75.05 91.2 -73.75 91.1 -73.45 90.95 -73.0 90.85 -72.65 90.8 -72.5 M91.85 -77.8 L91.95 -78.0 92.0 -78.15 92.1 -78.4 92.5 -79.4 93.7 -81.55 93.8 -81.65 Q94.5 -82.25 95.4 -82.3 94.5 -82.25 93.8 -81.65 L93.7 -81.55 92.5 -79.4 92.1 -78.4 92.0 -78.15 91.95 -78.0 91.85 -77.8 M91.7 -84.7 L92.3 -85.5 92.35 -85.65 92.45 -85.9 92.6 -86.2 92.7 -86.4 93.4 -87.65 93.7 -88.3 94.3 -89.5 94.8 -90.4 94.3 -89.5 93.7 -88.3 93.4 -87.65 92.7 -86.4 92.6 -86.2 92.45 -85.9 92.35 -85.65 92.3 -85.5 91.7 -84.7 M85.75 -68.9 L85.7 -69.05 Q85.55 -69.2 85.7 -69.5 L85.75 -70.3 85.65 -71.1 85.75 -70.3 85.7 -69.5 Q85.55 -69.2 85.7 -69.05 L85.75 -68.9 M102.05 -58.15 L102.0 -58.8 101.65 -60.8 102.0 -58.8 102.05 -58.15 M103.05 -60.55 L103.2 -60.55 102.95 -61.3 102.05 -62.7 101.85 -63.05 Q101.8 -63.5 101.4 -63.55 101.8 -63.5 101.85 -63.05 L102.05 -62.7 102.95 -61.3 103.2 -60.55 103.05 -60.55 M90.0 -69.15 Q90.1 -69.6 90.35 -70.05 L90.5 -70.3 91.0 -71.45 91.2 -71.6 91.5 -71.85 91.75 -72.2 Q91.95 -72.6 92.3 -72.8 91.95 -72.6 91.75 -72.2 L91.5 -71.85 91.2 -71.6 91.0 -71.45 90.5 -70.3 90.35 -70.05 Q90.1 -69.6 90.0 -69.15 M88.15 -64.05 L88.55 -64.65 88.7 -64.85 89.85 -66.1 90.3 -66.3 91.15 -67.05 90.3 -66.3 89.85 -66.1 88.7 -64.85 88.55 -64.65 88.15 -64.05 M87.9 -61.9 L87.9 -62.05 Q88.25 -63.3 89.4 -63.9 88.25 -63.3 87.9 -62.05 L87.9 -61.9 M83.25 -60.65 L83.2 -60.5 82.85 -60.05 82.6 -59.05 Q82.6 -58.7 82.9 -58.6 L83.05 -58.6 83.3 -58.9 Q84.05 -59.85 84.15 -61.15 84.05 -59.85 83.3 -58.9 L83.05 -58.6 82.9 -58.6 Q82.6 -58.7 82.6 -59.05 L82.85 -60.05 83.2 -60.5 83.25 -60.65 M80.3 -59.8 L80.35 -59.9 80.4 -60.3 80.6 -60.95 80.7 -61.15 80.8 -61.8 80.85 -61.9 Q81.1 -62.2 81.0 -62.8 L81.05 -63.0 81.2 -63.3 81.45 -63.9 81.2 -63.3 81.05 -63.0 81.0 -62.8 Q81.1 -62.2 80.85 -61.9 L80.8 -61.8 80.7 -61.15 80.6 -60.95 80.4 -60.3 80.35 -59.9 80.3 -59.8" fill="url(#gradient0)" fill-rule="evenodd" stroke="none"/>
    <path d="M118.05 -128.7 L117.7 -129.3 117.45 -129.6 117.25 -129.8 116.75 -130.8 116.3 -131.7 Q115.6 -132.6 114.65 -133.1 L114.55 -133.15 113.55 -133.4 112.15 -133.4 112.05 -133.35 110.8 -132.65 110.7 -132.55 110.1 -131.65 110.0 -131.45 109.95 -131.3 109.95 -131.15 109.95 -131.05 109.85 -130.7 109.6 -130.1 109.5 -129.95 109.4 -129.8 108.75 -129.1 108.45 -128.8 108.25 -128.6 107.35 -127.3 107.1 -126.95 106.65 -126.4 106.25 -125.8 106.0 -125.6 105.65 -125.05 105.55 -124.7 105.4 -124.4 105.15 -123.95 104.75 -123.05 104.6 -122.75 104.5 -122.45 104.35 -120.3 104.3 -119.8 104.2 -117.8 104.2 -117.7 104.15 -116.45 M137.35 -60.05 L134.95 -78.05 134.4 -81.65 134.1 -82.7 134.0 -83.0 Q133.65 -84.2 133.75 -85.55 133.9 -87.05 133.6 -88.4 L133.55 -88.9 133.2 -89.7 133.1 -89.9 132.95 -90.65 132.85 -91.05 132.75 -91.25 Q132.45 -91.8 132.4 -92.4 L132.2 -93.2 132.15 -93.55 131.9 -95.8 131.7 -96.9 131.7 -97.3 131.7 -97.65 131.55 -101.3 131.45 -101.8 131.4 -102.05 131.1 -102.85 131.0 -103.05 130.9 -103.3 130.6 -104.2 130.55 -104.3 Q130.35 -104.55 130.4 -105.05 L130.25 -108.95 130.15 -109.05 Q129.95 -109.15 129.95 -109.55 L129.95 -109.7 129.9 -112.05 129.85 -112.8 129.8 -112.95 129.5 -114.3 129.45 -114.45 129.3 -115.35 129.05 -116.3 128.9 -116.55 128.05 -118.05 128.0 -118.3 127.85 -119.05 127.65 -119.65 127.5 -119.95 127.2 -120.85 126.75 -121.4 126.3 -122.1 125.7 -122.95 125.25 -123.65 125.05 -123.95 121.9 -127.0 121.5 -127.4 121.3 -127.5 120.9 -127.6 120.45 -127.75 120.25 -127.9 120.05 -127.95 118.4 -128.6 118.2 -128.65 118.05 -128.7 117.2 -128.65 116.5 -128.35 116.35 -128.25 116.25 -128.05 115.95 -127.85 115.55 -127.45 115.35 -127.0 114.85 -126.15 114.65 -125.8 114.3 -125.15 113.75 -124.2 113.25 -123.2 113.15 -122.95 112.8 -122.2 112.75 -121.95 112.6 -121.4 112.45 -121.05 112.35 -120.85 112.15 -120.2 111.05 -116.8 M124.3 -116.95 L124.65 -116.65 125.05 -116.3 125.75 -115.75 126.1 -115.4 126.4 -115.05 127.05 -113.95 M124.15 -114.95 L124.9 -114.4 125.4 -113.6 125.6 -113.05 126.25 -112.0 M124.8 -111.95 Q125.4 -111.1 126.25 -110.55 L126.6 -110.1 126.8 -109.55 126.9 -109.05 M117.15 -116.05 L117.7 -115.45 117.85 -114.2 117.7 -113.55 117.3 -113.5 Q116.6 -113.8 116.55 -114.55 M115.9 -107.3 Q116.25 -106.7 116.25 -105.95 L116.25 -105.45 116.15 -104.8 115.55 -103.75 115.4 -103.7 Q114.9 -103.7 114.85 -104.3 L114.75 -104.55 Q114.3 -105.15 114.55 -105.95 L114.6 -106.2 114.7 -106.4 115.25 -107.4 115.4 -107.5 115.65 -107.95 M124.15 -107.05 Q124.2 -106.75 124.5 -106.6 L124.95 -106.35 125.4 -106.0 Q126.1 -105.5 126.5 -104.65 L126.6 -104.45 126.8 -104.05 M124.3 -103.7 Q124.6 -103.65 124.75 -103.4 L125.45 -102.4 125.7 -101.95 126.15 -100.8 126.35 -99.8 126.4 -99.65 126.55 -99.3 M124.65 -100.2 Q124.7 -100.4 124.9 -100.2 125.65 -99.55 126.1 -98.4 L126.2 -98.2 126.6 -96.55 126.65 -96.3 M128.05 -98.9 L128.35 -98.3 128.5 -97.65 128.55 -97.15 Q128.65 -96.6 128.4 -96.4 128.25 -96.25 128.0 -96.65 L127.65 -97.65 M123.9 -95.55 L124.55 -94.95 125.15 -94.6 125.55 -94.3 126.3 -93.4 126.8 -92.65 M124.05 -92.4 Q124.2 -91.95 124.9 -91.7 L125.45 -91.45 125.85 -91.1 126.1 -90.8 126.25 -90.6 M125.4 -88.9 Q125.65 -88.0 126.35 -87.1 L126.5 -86.8 Q126.65 -86.1 127.05 -85.8 M115.65 -94.9 L115.5 -92.8 115.45 -92.55 115.45 -91.8 115.3 -91.4 Q114.95 -91.6 114.95 -91.9 L114.8 -94.65 M117.55 -94.9 Q117.55 -94.4 117.85 -94.0 L118.3 -93.3 118.8 -91.9 M117.65 -91.4 L117.95 -90.45 118.2 -89.75 118.6 -88.7 118.85 -88.15 119.15 -87.4 M113.9 -81.65 L114.1 -81.45 114.25 -81.15 114.65 -80.65 115.0 -80.25 Q115.1 -81.75 114.55 -83.05 L114.25 -84.05 113.7 -86.75 113.6 -87.05 113.5 -87.25 113.15 -87.9 Q113.0 -88.2 113.0 -88.55 L112.9 -88.65 111.55 -90.65 111.0 -91.5 110.55 -92.05 110.3 -92.3 109.55 -92.9 108.65 -93.55 108.55 -93.65 107.95 -93.85 107.6 -94.0 Q107.05 -94.4 106.35 -94.3 L106.3 -94.3 106.0 -94.2 105.8 -94.1 104.65 -93.75 104.25 -93.7 104.0 -93.6 103.9 -93.6 103.4 -93.35 103.15 -93.15 102.75 -92.95 102.15 -92.55 M117.55 -88.05 Q118.55 -87.3 118.95 -86.05 L119.15 -85.4 M116.65 -82.55 L117.75 -81.0 117.95 -80.65 118.5 -79.05 118.55 -78.65 M107.9 -87.8 Q108.1 -87.05 108.6 -86.4 L109.15 -85.65 109.45 -85.15 109.65 -84.8 109.8 -84.55 Q110.2 -84.5 110.3 -84.9 L110.75 -85.45 Q111.15 -85.55 111.15 -85.15 111.15 -84.95 111.3 -84.8 L111.8 -83.8 111.9 -83.3 112.0 -82.8 112.1 -82.4 112.15 -82.05 112.25 -81.7 112.55 -81.55 Q113.25 -80.85 113.5 -79.65 L113.6 -79.45 113.75 -79.05 Q113.9 -78.55 114.15 -78.3 L114.3 -78.2 Q114.4 -78.2 114.5 -78.35 L114.55 -78.55 M116.8 -72.15 L117.5 -71.4 117.75 -71.15 118.45 -70.55 118.35 -73.15 118.35 -73.4 118.1 -74.45 118.0 -74.65 117.45 -75.95 117.25 -76.55 117.2 -76.65 116.7 -77.7 115.9 -78.9 115.7 -79.2 115.05 -80.2 115.0 -80.25 M111.55 -77.9 Q111.3 -77.85 111.55 -77.55 L112.0 -77.15 113.0 -76.15 113.2 -75.55 113.25 -75.4 113.4 -74.55 M117.05 -86.05 Q117.45 -84.75 118.25 -83.65 L118.4 -83.3 M127.05 -79.9 Q127.1 -79.4 127.6 -79.1 L127.9 -78.8 128.5 -77.9 128.55 -77.65 128.55 -77.3 M126.05 -84.55 L127.05 -82.2 M117.8 -97.3 L119.45 -93.55 M120.9 -67.3 Q120.5 -67.65 120.25 -68.25 L120.05 -68.65 119.2 -69.6 119.05 -69.8 118.45 -70.55 M111.8 -74.65 Q112.05 -73.95 112.55 -73.3 L112.9 -72.8 113.55 -71.65 113.9 -70.9 M112.4 -69.05 L113.8 -67.85 114.15 -67.3 M109.95 -131.15 L109.4 -131.2 108.4 -131.25 108.15 -131.3 105.9 -131.15 Q104.9 -130.85 104.45 -130.1 L104.3 -129.9 104.0 -129.45 102.6 -127.3 101.55 -125.15 101.5 -124.95 100.8 -122.9 100.7 -122.7 100.55 -122.4 100.5 -122.2 100.2 -121.15 100.2 -120.8 100.35 -120.3 100.65 -119.45 100.7 -118.55 100.8 -117.8 100.95 -116.8 100.95 -116.55 101.15 -113.8 M112.9 -118.3 L112.5 -117.2 112.35 -116.8 112.15 -116.3 111.75 -115.6 111.35 -115.2 110.7 -114.3 Q110.45 -114.0 110.55 -113.45 M106.15 -117.95 Q105.5 -117.6 105.35 -116.8 L105.3 -116.55 104.7 -115.3 104.5 -114.95 104.2 -114.05 104.1 -113.85 104.0 -113.2 M105.15 -112.2 Q104.6 -111.65 104.3 -110.8 L104.2 -110.6 104.05 -110.3 103.25 -108.55 M112.65 -112.95 L111.4 -111.05 111.25 -110.85 Q110.6 -110.05 110.45 -108.95 L110.35 -108.4 110.3 -108.05 M100.65 -119.45 L100.15 -118.6 100.05 -118.3 98.8 -116.45 98.65 -116.2 Q98.05 -115.1 97.9 -113.85 L97.85 -113.55 97.75 -113.2 97.55 -112.55 97.5 -112.2 97.4 -111.2 97.15 -109.95 96.95 -109.05 96.9 -108.8 96.8 -107.8 96.75 -107.45 96.7 -106.05 96.7 -105.7 96.6 -103.05 96.65 -102.65 96.8 -102.05 96.9 -101.7 96.95 -101.45 97.0 -100.7 M96.65 -102.65 L96.05 -101.55 95.5 -100.55 95.3 -100.25 95.2 -100.05 94.7 -98.65 94.7 -98.0 94.65 -97.8 Q94.4 -97.3 94.45 -96.65 L94.45 -96.4 94.25 -94.15 94.1 -92.9 93.95 -92.4 93.85 -92.05 93.8 -91.8 Q93.85 -91.1 93.55 -90.75 L93.55 -90.55 93.4 -89.75 93.9 -90.0 94.2 -90.2 94.8 -90.4 94.9 -90.55 95.05 -90.75 95.65 -91.65 95.85 -91.95 96.2 -92.35 96.55 -93.4 96.7 -93.6 97.1 -94.15 97.75 -94.9 98.75 -95.55 99.9 -96.3 100.1 -96.45 100.9 -96.8 102.4 -96.7 102.9 -96.6 104.4 -96.1 105.75 -95.05 106.3 -94.3 M103.15 -101.45 Q102.9 -100.65 102.8 -99.8 L102.4 -98.45 M104.15 -106.3 L103.9 -106.2 103.6 -105.7 102.5 -103.35 102.15 -102.6 102.05 -102.4 101.95 -102.2 101.9 -101.3 M112.05 -108.45 L111.4 -107.8 110.75 -107.2 110.4 -106.85 109.8 -105.55 M111.55 -105.45 L110.9 -104.45 110.4 -103.7 M110.8 -102.45 L110.55 -101.55 110.5 -101.2 110.05 -100.05 M93.4 -89.75 L92.3 -88.9 92.1 -88.7 91.9 -88.6 Q90.85 -88.05 90.2 -86.95 L90.05 -86.65 89.65 -86.15 89.35 -85.4 88.8 -84.25 88.7 -84.05 88.25 -82.95 88.2 -82.8 87.9 -81.8 87.7 -80.4 87.7 -79.9 87.55 -78.55 87.5 -77.9 87.35 -77.35 87.25 -77.05 86.8 -75.85 86.7 -75.7 86.3 -74.55 86.2 -74.25 86.1 -74.05 85.7 -72.4 85.6 -72.05 85.65 -71.1 85.75 -70.3 85.7 -69.5 Q85.55 -69.2 85.7 -69.05 L85.75 -68.9 M94.8 -90.4 L94.3 -89.5 93.7 -88.3 93.4 -87.65 92.7 -86.4 92.6 -86.2 92.45 -85.9 92.35 -85.65 92.3 -85.5 91.7 -84.7 M95.4 -82.3 Q94.5 -82.25 93.8 -81.65 L93.7 -81.55 92.5 -79.4 92.1 -78.4 92.0 -78.15 91.95 -78.0 91.85 -77.8 M94.3 -77.9 L93.15 -76.9 92.95 -76.55 92.9 -76.4 92.55 -76.05 92.4 -75.9 91.8 -75.05 91.2 -73.75 91.1 -73.45 90.95 -73.0 90.85 -72.65 90.8 -72.5 M105.3 -87.05 L105.25 -86.8 105.2 -86.4 104.95 -85.15 104.95 -84.9 Q105.05 -84.1 104.7 -83.5 L104.6 -83.3 104.35 -83.0 104.25 -82.8 104.1 -84.3 104.1 -84.55 104.2 -85.9 Q104.2 -86.35 104.35 -86.55 L104.45 -86.8 104.55 -87.05 M99.9 -87.05 Q98.75 -86.45 97.95 -85.4 L97.6 -84.85 97.5 -84.55 97.45 -84.4 97.15 -83.65 M100.65 -88.9 L99.1 -87.85 98.9 -87.75 Q98.55 -87.65 98.3 -87.4 L97.8 -87.3 M99.9 -80.55 L99.55 -79.3 Q99.45 -78.65 98.9 -78.4 L98.6 -79.05 98.55 -79.4 Q98.5 -80.1 98.8 -80.65 M110.65 -79.9 L111.35 -79.6 111.9 -79.25 112.4 -78.9 112.6 -78.5 112.7 -78.3 112.9 -78.05 M106.9 -85.9 Q107.0 -84.95 106.55 -84.15 L106.15 -83.8 M102.9 -80.55 Q103.05 -80.15 103.5 -79.95 L104.5 -79.25 Q105.2 -78.6 105.3 -77.8 M103.05 -77.15 L103.5 -76.15 Q104.45 -74.95 104.9 -73.55 M109.55 -77.4 Q110.2 -75.85 110.05 -74.05 L110.05 -73.9 109.6 -74.4 M111.65 -71.8 L112.25 -71.1 Q113.75 -69.9 114.4 -68.4 M103.3 -72.65 Q104.5 -71.3 104.4 -69.55 L104.4 -69.4 M102.8 -70.05 L103.6 -68.4 103.65 -68.25 103.8 -67.65 M102.05 -65.15 L102.45 -64.7 102.8 -64.2 103.3 -63.3 103.3 -62.8 M102.4 -67.8 Q102.55 -66.85 103.4 -66.25 L103.6 -66.0 103.85 -65.7 104.0 -65.5 104.15 -65.3 M101.4 -63.55 Q101.8 -63.5 101.85 -63.05 L102.05 -62.7 102.95 -61.3 103.2 -60.55 103.05 -60.55 M101.65 -60.8 L102.0 -58.8 102.05 -58.15 M91.15 -67.05 L90.3 -66.3 89.85 -66.1 88.7 -64.85 88.55 -64.65 88.15 -64.05 M92.3 -72.8 Q91.95 -72.6 91.75 -72.2 L91.5 -71.85 91.2 -71.6 91.0 -71.45 90.5 -70.3 90.35 -70.05 Q90.1 -69.6 90.0 -69.15 M85.65 -71.1 L84.85 -70.1 84.55 -69.65 84.1 -69.2 83.3 -68.25 83.15 -67.9 82.7 -67.0 82.6 -66.8 81.65 -64.4 81.45 -63.9 81.2 -63.3 81.05 -63.0 81.0 -62.8 Q81.1 -62.2 80.85 -61.9 L80.8 -61.8 80.7 -61.15 80.6 -60.95 80.4 -60.3 80.35 -59.9 80.3 -59.8 M84.15 -61.15 Q84.05 -59.85 83.3 -58.9 L83.05 -58.6 82.9 -58.6 Q82.6 -58.7 82.6 -59.05 L82.85 -60.05 83.2 -60.5 83.25 -60.65 M89.4 -63.9 Q88.25 -63.3 87.9 -62.05 L87.9 -61.9 M81.45 -63.9 Q80.6 -62.6 79.65 -62.0 L78.75 -61.6 78.65 -61.55 78.15 -60.85 77.95 -60.5 77.15 -59.5 76.45 -58.6 76.2 -58.3 Q75.55 -57.25 75.15 -56.05 L74.75 -54.9 74.3 -53.65 Q74.05 -53.1 74.15 -52.4 L74.05 -52.0 74.0 -51.8 73.95 -50.9 73.9 -50.5 74.0 -50.3" fill="none" stroke="#74604f" stroke-linecap="round" stroke-linejoin="round" stroke-width="1.0"/>
    <path d="M133.7 -64.35 L133.9 -64.4 M130.65 -53.05 Q131.45 -55.05 133.4 -56.1 L135.65 -57.2 Q137.85 -58.1 140.15 -58.05 L142.3 -58.0 143.5 -57.8 143.8 -57.7 142.95 -58.45 142.15 -58.9 139.3 -59.8 138.75 -59.95 137.9 -60.05 137.35 -60.05 130.55 -59.15 130.05 -58.9 129.05 -58.05 Q129.8 -60.4 131.4 -62.3 L132.35 -63.2 132.6 -63.55 Q132.75 -64.0 133.25 -64.2 L133.7 -64.35 Q132.35 -64.55 131.55 -63.65 L130.55 -62.75 Q129.75 -62.3 129.3 -61.55 L128.9 -60.8 128.15 -59.8 Q128.25 -62.5 127.6 -65.15 L127.2 -66.9 Q126.85 -68.8 125.85 -70.4 L125.55 -70.8 125.15 -71.55 Q124.9 -71.5 125.1 -71.25 L125.3 -70.8 125.45 -70.15 125.7 -68.8 125.75 -65.3 125.55 -63.9 125.05 -61.05 124.05 -62.6 123.55 -63.05 122.7 -63.6 122.25 -63.9 121.3 -64.45 120.65 -64.7 119.8 -65.0 119.4 -65.15 120.6 -63.4 120.95 -62.8 121.85 -60.5 121.9 -60.3 121.9 -60.15 121.55 -60.4 Q121.05 -60.8 120.4 -60.85 L117.4 -60.55 Q116.8 -60.4 116.55 -60.05 L117.0 -59.75 119.55 -59.0 120.05 -58.65 121.45 -56.6 121.65 -56.15 121.65 -55.4 121.75 -55.15 Q121.05 -55.7 120.05 -55.55 L119.4 -55.35 Q119.15 -55.2 118.9 -55.15 L118.05 -54.4 Q119.3 -54.35 120.4 -53.9 L120.7 -53.7 120.75 -53.55 120.8 -52.9 Q120.8 -52.7 120.7 -53.0 L120.55 -53.15 119.3 -53.3 118.7 -53.2 118.25 -53.1 116.3 -52.6 115.9 -52.6 Q114.9 -52.45 113.9 -52.6 L113.4 -52.7 111.9 -52.6 111.25 -52.55 110.25 -52.4 110.0 -52.25 109.9 -52.15 109.65 -51.9 107.65 -51.7 106.75 -51.45 105.65 -51.25 104.4 -51.4 104.1 -51.5 103.0 -51.85 102.75 -51.9 101.15 -52.0 100.75 -51.8 100.9 -52.05 101.85 -52.65 102.15 -52.75 Q102.9 -53.3 103.75 -53.5 L106.25 -53.65 105.4 -54.4 105.15 -54.55 104.5 -54.7 103.9 -54.6 103.1 -54.35 102.8 -54.1 102.4 -53.75 101.8 -53.45 101.5 -53.3 Q101.8 -54.9 102.4 -56.25 L102.6 -56.7 102.65 -56.9 Q102.25 -57.0 101.95 -56.7 L101.15 -55.65 100.1 -54.15 99.8 -53.65 99.75 -53.3 Q99.55 -53.45 99.6 -53.9 L99.5 -55.4 Q99.35 -56.1 99.35 -56.9 L99.25 -57.3 Q99.0 -57.85 98.9 -58.55 L98.5 -59.9 98.25 -60.4 98.2 -60.65 97.8 -61.25 97.9 -61.05 98.05 -59.55 98.0 -57.8 97.95 -57.25 97.9 -56.8 Q97.95 -55.95 97.55 -55.3 L97.4 -55.05 Q97.3 -54.45 97.0 -54.15 L96.45 -55.75 95.9 -56.9 95.7 -57.25 95.55 -57.45 95.5 -57.65 95.4 -57.9 95.25 -57.8 M73.9 -50.5 L74.4 -50.25 74.65 -50.15 74.8 -50.05 75.15 -49.85 75.25 -49.8 75.9 -49.35 75.7 -50.9 75.65 -51.05 75.5 -51.65 75.4 -51.8 Q75.2 -52.05 75.35 -52.15 L76.15 -51.7 76.25 -51.6 76.65 -51.45 76.9 -51.15 77.4 -50.4 77.1 -51.55 77.0 -51.95 76.35 -53.45 76.5 -53.4 76.65 -53.25 77.05 -52.9 77.35 -52.65 77.95 -51.85 78.05 -51.65 78.45 -50.65 78.5 -50.45 78.6 -50.65 78.6 -50.85 78.65 -51.45 78.65 -51.7 78.75 -52.1 78.8 -52.2 78.9 -52.35 79.05 -52.7 79.45 -53.3 79.55 -53.35 80.85 -54.25 81.4 -54.55 81.35 -54.05 81.15 -53.55 81.05 -53.35 80.75 -52.55 80.35 -51.4 80.25 -51.15 80.4 -51.3 80.4 -51.35 80.55 -51.55 80.65 -51.7 81.15 -52.15 82.15 -52.7 82.35 -52.8 Q82.95 -52.8 83.4 -52.4 83.3 -52.25 83.0 -52.15 L82.75 -52.0 82.5 -51.9 Q82.2 -51.85 82.05 -51.6 L81.95 -51.45 81.75 -51.15 81.65 -50.95 81.25 -50.6 81.95 -50.85 83.15 -51.3 83.65 -51.35 84.75 -51.5 85.45 -51.55 86.9 -51.6 87.8 -51.45 87.5 -52.0 87.45 -52.15 87.4 -53.05 87.35 -53.4 87.2 -53.8 87.1 -54.15 86.95 -54.65 86.9 -54.8 85.65 -55.75 85.75 -55.7 87.0 -55.6 Q88.05 -55.55 88.9 -54.8 L89.0 -55.15 89.05 -55.3 88.9 -56.3 88.75 -56.9 88.4 -58.15 89.65 -57.3 90.2 -56.3 90.65 -55.15 90.6 -55.4 90.6 -55.65 90.6 -56.65 Q90.55 -57.55 90.75 -58.3 L90.85 -59.15 Q90.8 -60.1 91.0 -60.9 L91.05 -61.1 91.2 -61.3 91.4 -62.3 91.35 -62.5 Q91.2 -62.8 91.2 -63.3 91.2 -64.4 90.5 -65.4 L91.6 -64.65 91.9 -64.45 92.35 -64.15 92.65 -63.7 92.95 -63.25 Q93.65 -62.3 93.95 -61.4 L93.95 -61.3 93.95 -60.15 Q93.9 -59.7 94.15 -59.55 94.15 -60.0 94.4 -60.15 L94.55 -60.55 94.65 -60.75 94.9 -61.15 94.95 -61.65 95.25 -62.8 95.4 -63.0 95.55 -63.2 96.4 -64.55 96.45 -64.2 96.75 -63.15 96.7 -62.95 Q96.1 -62.35 96.25 -61.3 L96.15 -60.05 96.1 -59.85 95.7 -58.8 95.4 -57.9 94.8 -58.7 94.6 -58.9 94.15 -59.3 93.8 -59.55 92.6 -60.1 92.25 -60.15 92.65 -59.3 92.95 -58.25 93.0 -57.9 93.2 -57.0 93.5 -56.4 93.65 -56.05 94.4 -54.3 95.0 -53.3 M94.15 -59.3 L94.15 -59.55 M87.8 -51.45 L88.6 -50.55 88.75 -50.9 89.0 -51.55 89.1 -51.65 89.25 -51.85 89.3 -52.0 89.55 -52.7 89.55 -52.8 89.85 -53.6 90.0 -53.8 90.05 -54.05 90.2 -54.3 90.55 -53.45 90.6 -53.3 90.65 -52.2 90.65 -51.95 90.7 -51.2 Q90.65 -50.95 90.75 -50.85 L90.85 -50.95 91.15 -51.45 91.25 -51.6 91.35 -51.75 92.2 -52.0 93.0 -52.0 Q93.75 -52.05 94.35 -51.7 L94.65 -51.55 94.85 -51.4 94.7 -51.45 93.75 -51.25 93.55 -51.15 93.35 -51.05 93.1 -50.9 92.95 -50.75 92.65 -50.55 92.25 -50.25 91.75 -49.7 M73.9 -50.5 L73.7 -50.55 73.5 -50.6 73.15 -50.7 71.95 -50.9 71.75 -50.9 71.25 -50.85 71.4 -50.65 M69.85 -50.3 L69.95 -50.35 70.4 -50.55 70.5 -50.6 70.9 -50.7 71.0 -50.75 71.25 -50.85 71.15 -51.2 71.1 -51.35 71.1 -51.8 71.1 -51.95 70.9 -53.45 71.0 -53.7 71.1 -53.85 71.65 -54.95 Q72.2 -56.15 73.45 -56.35 L72.85 -56.3 72.2 -56.15 71.25 -55.8 70.85 -55.55 70.45 -55.3 69.75 -54.6 69.2 -53.3 69.05 -52.65 69.05 -52.45 69.15 -51.65 M88.2 -48.95 L88.1 -49.2 87.95 -49.35 86.1 -50.6 85.9 -50.7 85.65 -50.7 85.95 -50.4 Q86.85 -49.7 87.15 -48.65 L87.2 -48.55 87.4 -47.35 87.45 -46.95 87.5 -46.85 87.5 -46.45 87.2 -46.5 85.95 -46.5 85.7 -46.4 84.6 -46.0 84.25 -45.95 81.4 -45.65 80.65 -45.45 80.4 -45.35 80.2 -45.3 79.0 -44.7 79.05 -44.85 79.4 -45.3 81.0 -46.7 81.25 -46.85 82.95 -47.4 83.75 -47.35 83.5 -47.55 81.65 -48.0 80.9 -47.9 80.5 -47.85 Q79.75 -47.6 79.2 -47.05 L79.05 -46.85 78.9 -46.45 78.85 -46.35 78.85 -46.3 Q78.8 -46.1 78.75 -46.3 L78.85 -46.35 78.9 -47.05 79.0 -47.7 79.05 -48.85 79.05 -49.1 79.1 -49.45 79.0 -49.4 78.8 -49.2 78.3 -48.45 78.05 -48.1 77.3 -46.45 77.2 -46.2 76.95 -45.1 76.75 -45.45 76.6 -45.7 75.7 -46.65 75.5 -46.85 75.35 -47.1 74.85 -47.65 74.55 -47.9 74.35 -48.05 74.15 -48.15 Q74.75 -47.2 74.65 -45.95 L74.65 -45.05 74.5 -44.35 74.4 -44.65 74.35 -44.8 Q73.85 -45.7 72.9 -46.05 L71.75 -46.5 70.4 -46.7 70.6 -46.4 71.15 -45.8 71.55 -45.15 71.75 -44.95 71.9 -44.8 71.95 -44.55 M93.2 -57.0 Q92.85 -56.8 92.75 -56.3 L92.6 -56.05 Q92.05 -55.25 92.15 -54.3 M88.6 -50.55 L88.4 -50.2 88.3 -49.95 88.1 -49.2 M69.05 -52.45 L68.9 -54.55 68.85 -54.85 68.55 -55.7 68.4 -55.95 67.35 -57.0 67.3 -57.1 66.4 -57.7 66.25 -57.75 65.65 -58.1 Q65.5 -58.1 65.6 -57.9 L65.7 -57.7 66.15 -56.55 66.35 -55.95 66.4 -55.8 66.45 -54.8 66.5 -54.6 66.85 -53.2 66.9 -53.15 66.95 -53.1 65.1 -53.85 65.0 -53.9 64.9 -54.0 64.65 -54.15 63.55 -54.45 62.9 -54.5 61.3 -54.45 60.65 -54.2 60.6 -54.1 60.55 -54.05 60.45 -53.95 61.4 -53.35 62.0 -52.95 63.4 -52.4 64.0 -52.1 64.7 -51.9 64.9 -51.85 65.75 -51.65 65.45 -51.65 64.8 -51.7 62.75 -51.7 62.5 -51.6 62.2 -51.5 60.9 -51.05 60.85 -50.9 60.8 -50.85 64.0 -50.65 64.3 -50.55 64.4 -50.5 64.45 -50.45 64.5 -50.35 64.0 -50.2 62.25 -49.95 61.15 -49.6 61.0 -49.5 60.75 -49.4 60.7 -49.35 60.25 -49.35 M73.25 -48.2 L72.5 -48.95 72.25 -49.1 72.1 -49.2 71.0 -49.5 70.75 -49.45 70.65 -49.4 M69.9 -44.8 L68.85 -45.3 68.3 -45.45 67.2 -45.3 M68.7 -44.05 L68.7 -44.3 68.25 -44.5 67.4 -44.5 66.65 -44.55" fill="none" stroke="#8aa76c" stroke-linecap="round" stroke-linejoin="round" stroke-width="1.0"/>
  </g>
  <defs>
    <linearGradient gradientTransform="matrix(0.0387, 0.0, 0.0, 0.0513, 105.65, -91.4)" gradientUnits="userSpaceOnUse" id="gradient0" spreadMethod="pad" x1="-819.2" x2="819.2">
      <stop offset="0.0" stop-color="#dbd7a9"/>
      <stop offset="0.3843137254901961" stop-color="#e9be68"/>
      <stop offset="1.0" stop-color="#665f55"/>
    </linearGradient>
  </defs>
</svg>
