<?xml version="1.0" encoding="UTF-8" standalone="no"?>
<svg xmlns:ffdec="https://www.free-decompiler.com/flash" xmlns:xlink="http://www.w3.org/1999/xlink" ffdec:objectType="shape" height="237.05px" width="319.45px" xmlns="http://www.w3.org/2000/svg">
  <g transform="matrix(1.0, 0.0, 0.0, 1.0, 192.75, 88.3)">
    <path d="M24.95 -50.1 L17.6 -52.7 Q6.8 -56.0 -4.35 -56.25 -11.55 -55.0 -6.35 -49.75 5.25 -38.0 17.7 -31.7 L0.0 -40.2 -7.85 -37.45 -25.55 -43.1 Q-46.05 -53.75 -66.65 -63.05 L-69.6 -77.2 -65.65 -75.9 -36.05 -66.0 -10.1 -65.75 4.4 -81.7 30.4 -66.15 48.55 -36.6 43.1 -40.45 Q36.75 -44.65 30.3 -47.75 L24.95 -50.1" fill="url(#gradient0)" fill-rule="evenodd" stroke="none"/>
    <path d="M17.6 -52.7 L24.95 -50.1 Q34.75 -38.0 31.3 -20.45 L24.0 -23.8 24.7 -28.15 Q26.2 -42.2 17.6 -52.7" fill="url(#gradient1)" fill-rule="evenodd" stroke="none"/>
    <path d="M24.7 -28.15 L24.0 -23.8 9.5 -30.5 4.55 -26.65 Q-10.5 -35.25 -25.55 -43.1 L-7.85 -37.45 0.0 -40.2 17.7 -31.7 24.7 -28.15 M35.1 -18.7 L36.75 -19.05 Q42.9 -20.4 50.1 -23.15 L54.55 -24.95 59.75 -27.3 Q81.2 -37.55 110.25 -58.8 L126.2 -52.1 Q72.35 7.45 77.85 19.65 47.9 -1.15 17.8 -19.0 25.05 -16.85 35.1 -18.7 M-171.2 -81.2 Q-154.7 -92.15 -119.0 -84.05 L-116.8 -68.65 -171.2 -81.2" fill="#500650" fill-rule="evenodd" stroke="none"/>
    <path d="M24.0 -23.8 L31.3 -20.45 35.1 -18.7 Q25.05 -16.85 17.8 -19.0 L4.55 -26.65 9.5 -30.5 24.0 -23.8 M6.55 -1.55 Q24.7 5.8 46.25 15.85 31.25 12.75 14.25 8.55 L6.55 -1.55" fill="#999999" fill-rule="evenodd" stroke="none"/>
    <path d="M31.3 -20.45 Q34.75 -38.0 24.95 -50.1 L30.3 -47.75 Q39.8 -36.0 36.75 -19.05 L35.1 -18.7 31.3 -20.45 M71.05 75.75 L64.8 72.4 Q68.25 49.9 56.25 34.4 L62.6 37.4 Q74.7 53.0 71.05 75.75" fill="#e212e2" fill-rule="evenodd" stroke="none"/>
    <path d="M-66.65 -63.05 Q-46.05 -53.75 -25.55 -43.1 -10.5 -35.25 4.55 -26.65 L17.8 -19.0 Q47.9 -1.15 77.85 19.65 L81.0 21.9 69.5 20.15 46.25 15.85 Q24.7 5.8 6.55 -1.55 -31.7 -17.05 -54.65 -20.7 -53.35 -13.45 -83.0 -22.35 -110.65 -34.35 -138.0 -50.6 -150.7 -58.15 -163.25 -66.55 L-165.95 -68.3 Q-172.55 -73.35 -173.45 -76.75 -173.95 -78.6 -172.75 -79.9 L-171.85 -80.7 -171.2 -81.2 -116.8 -68.65 -119.0 -84.05 -112.3 -82.35 Q-113.45 -81.3 -114.2 -79.65 -116.2 -74.1 -111.35 -72.0 -92.45 -60.75 -75.4 -55.7 -63.6 -52.25 -52.7 -51.75 -60.1 -58.0 -66.65 -63.05" fill="url(#gradient2)" fill-rule="evenodd" stroke="none"/>
    <path d="M30.3 -47.75 Q36.75 -44.65 43.1 -40.45 49.2 -32.85 50.1 -23.15 42.9 -20.4 36.75 -19.05 39.8 -36.0 30.3 -47.75" fill="url(#gradient3)" fill-rule="evenodd" stroke="none"/>
    <path d="M17.6 -52.7 Q26.2 -42.2 24.7 -28.15 L17.7 -31.7 Q5.25 -38.0 -6.35 -49.75 -11.55 -55.0 -4.35 -56.25 6.8 -56.0 17.6 -52.7" fill="url(#gradient4)" fill-rule="evenodd" stroke="none"/>
    <path d="M43.1 -40.45 L48.55 -36.6 48.6 -36.6 Q52.8 -31.3 54.55 -24.95 L50.1 -23.15 Q49.2 -32.85 43.1 -40.45 M-18.0 64.0 L-18.25 63.9 -18.35 63.85 Q-18.9 63.45 -18.95 62.25 L-18.7 59.75 Q-18.35 58.45 -17.75 57.8 -17.2 57.1 -16.65 57.5 -16.2 57.9 -16.1 59.1 -16.0 60.3 -16.35 61.6 -16.7 62.9 -17.3 63.55 L-18.0 64.0 M-41.95 42.5 L-42.15 42.4 Q-42.7 42.0 -42.8 40.8 L-42.8 40.75 Q-42.9 39.5 -42.55 38.15 -42.2 36.8 -41.55 36.15 L-41.3 35.9 -41.15 35.85 -41.0 35.75 -40.4 35.85 Q-39.9 36.25 -39.8 37.55 -39.7 38.75 -40.05 40.1 -40.45 41.45 -41.0 42.15 -41.5 42.65 -41.95 42.5" fill="#000000" fill-rule="evenodd" stroke="none"/>
    <path d="M59.75 -27.3 L54.55 -24.95 Q52.8 -31.3 48.6 -36.6 54.2 -32.4 59.75 -27.3" fill="url(#gradient5)" fill-rule="evenodd" stroke="none"/>
    <path d="M94.3 93.6 L104.55 98.45 Q111.45 119.5 114.55 139.45 116.25 150.6 106.8 147.65 L91.05 142.6 Q82.3 139.8 75.5 130.7 L40.9 84.05 35.4 76.65 22.9 66.2 11.75 56.85 0.55 47.5 -3.5 44.15 -55.1 1.0 -55.15 0.95 -83.0 -22.35 Q-57.1 -11.1 -30.95 -3.6 -6.8 3.3 14.25 8.55 L21.65 18.2 45.6 29.25 Q30.1 22.7 19.6 23.7 9.1 24.7 22.4 40.45 35.7 56.25 57.95 65.55 L57.7 68.65 64.8 72.4 71.05 75.75 84.45 82.85 88.25 84.85 89.9 86.15 Q94.0 89.55 93.85 93.4 L94.3 93.6" fill="url(#gradient6)" fill-rule="evenodd" stroke="none"/>
    <path d="M79.95 47.0 Q87.4 46.25 96.85 58.15 106.3 70.0 103.5 83.2 100.65 96.4 94.3 93.6 L93.85 93.4 Q94.0 89.55 89.9 86.15 97.85 60.15 79.95 47.0" fill="url(#gradient7)" fill-rule="evenodd" stroke="none"/>
    <path d="M88.25 84.85 L84.45 82.85 Q89.1 61.95 78.5 46.3 L79.95 47.0 Q95.25 64.05 88.25 84.85" fill="#101010" fill-rule="evenodd" stroke="none"/>
    <path d="M79.95 47.0 Q97.85 60.15 89.9 86.15 L88.25 84.85 Q95.25 64.05 79.95 47.0 M45.6 29.25 L21.65 18.2 14.25 8.55 Q31.25 12.75 46.25 15.85 L69.5 20.15 72.55 28.25 Q60.05 22.55 64.3 38.2 L62.6 37.4 56.25 34.4 45.6 29.25" fill="#666666" fill-rule="evenodd" stroke="none"/>
    <path d="M64.8 72.4 L57.7 68.65 57.95 65.55 Q58.9 42.15 45.6 29.25 L56.25 34.4 Q68.25 49.9 64.8 72.4" fill="url(#gradient8)" fill-rule="evenodd" stroke="none"/>
    <path d="M78.5 46.3 Q89.1 61.95 84.45 82.85 L71.05 75.75 Q74.7 53.0 62.6 37.4 L64.3 38.2 77.2 44.5 78.5 46.3" fill="url(#gradient9)" fill-rule="evenodd" stroke="none"/>
    <path d="M57.95 65.55 Q35.7 56.25 22.4 40.45 9.1 24.7 19.6 23.7 30.1 22.7 45.6 29.25 58.9 42.15 57.95 65.55" fill="url(#gradient10)" fill-rule="evenodd" stroke="none"/>
    <path d="M22.9 66.2 L12.65 63.8 Q11.1 60.3 11.75 56.85 L22.9 66.2" fill="url(#gradient11)" fill-rule="evenodd" stroke="none"/>
    <path d="M12.65 63.8 Q-15.9 56.75 -30.6 49.7 -32.9 41.9 -30.65 36.05 -19.8 38.45 0.55 47.5 L11.75 56.85 Q11.1 60.3 12.65 63.8" fill="url(#gradient12)" fill-rule="evenodd" stroke="none"/>
    <path d="M40.9 84.05 L-18.0 64.0 -17.3 63.55 Q-16.7 62.9 -16.35 61.6 -16.0 60.3 -16.1 59.1 -16.2 57.9 -16.65 57.5 L35.4 76.65 40.9 84.05" fill="url(#gradient13)" fill-rule="evenodd" stroke="none"/>
    <path d="M14.25 8.55 Q-6.8 3.3 -30.95 -3.6 -57.1 -11.1 -83.0 -22.35 -53.35 -13.45 -54.65 -20.7 -31.7 -17.05 6.55 -1.55 L14.25 8.55" fill="#f010f0" fill-rule="evenodd" stroke="none"/>
    <path d="M-173.45 -76.75 L-191.65 -84.8 Q-193.15 -87.8 -190.85 -87.8 L-172.75 -79.9 Q-173.95 -78.6 -173.45 -76.75" fill="url(#gradient14)" fill-rule="evenodd" stroke="none"/>
    <path d="M-138.0 -50.6 L-154.65 -54.9 -155.7 -58.65 -179.85 -67.0 Q-183.55 -70.25 -180.3 -71.6 L-163.25 -66.55 Q-150.7 -58.15 -138.0 -50.6" fill="url(#gradient15)" fill-rule="evenodd" stroke="none"/>
    <path d="M-112.3 -82.35 Q-103.6 -90.35 -72.3 -67.3 L-66.65 -63.05 Q-60.1 -58.0 -52.7 -51.75 -63.6 -52.25 -75.4 -55.7 -92.45 -60.75 -111.35 -72.0 -116.2 -74.1 -114.2 -79.65 -113.45 -81.3 -112.3 -82.35" fill="url(#gradient16)" fill-rule="evenodd" stroke="none"/>
    <path d="M-69.6 -77.2 L-66.65 -63.05 -72.3 -67.3 -69.6 -77.2 M-58.1 12.0 L-55.15 0.95 -55.1 1.0 -51.6 14.35 -58.1 12.0" fill="#3f083f" fill-rule="evenodd" stroke="none"/>
    <path d="M-36.05 -66.0 L-65.65 -75.9 -64.35 -80.1 -36.05 -66.0 M-49.75 21.3 L-51.6 14.35 -55.1 1.0 -3.5 44.15 Q-26.65 32.7 -49.75 21.3" fill="#cb0ccb" fill-rule="evenodd" stroke="none"/>
    <path d="M-30.6 49.7 Q-38.05 46.1 -41.95 42.5 -41.5 42.65 -41.0 42.15 -40.45 41.45 -40.05 40.1 -39.7 38.75 -39.8 37.55 -39.9 36.25 -40.4 35.85 L-41.0 35.75 -30.65 36.05 Q-32.9 41.9 -30.6 49.7" fill="url(#gradient17)" fill-rule="evenodd" stroke="none"/>
    <path d="M-53.45 35.0 L-58.1 12.0 -51.6 14.35 -49.75 21.3 -53.45 35.0" fill="#bb09bb" fill-rule="evenodd" stroke="none"/>
    <path d="M-42.8 40.8 L-53.45 35.0 -49.75 21.3 Q-26.65 32.7 -3.5 44.15 L0.55 47.5 Q-19.8 38.45 -30.65 36.05 L-41.0 35.75 -41.15 35.85 -41.3 35.9 -41.55 36.15 Q-42.2 36.8 -42.55 38.15 -42.9 39.5 -42.8 40.75 L-42.8 40.8" fill="#4f084f" fill-rule="evenodd" stroke="none"/>
    <path d="M24.95 -50.1 L17.6 -52.7 Q26.2 -42.2 24.7 -28.15 L24.0 -23.8 31.3 -20.45 Q34.75 -38.0 24.95 -50.1 L30.3 -47.75 Q36.75 -44.65 43.1 -40.45 L48.55 -36.6 30.4 -66.15 4.4 -81.7 -10.1 -65.75 -36.05 -66.0 -65.65 -75.9 -69.6 -77.2 -66.65 -63.05 Q-46.05 -53.75 -25.55 -43.1 L-7.85 -37.45 0.0 -40.2 17.7 -31.7 Q5.25 -38.0 -6.35 -49.75 -11.55 -55.0 -4.35 -56.25 6.8 -56.0 17.6 -52.7 M4.55 -26.65 L9.5 -30.5 24.0 -23.8 M36.75 -19.05 L35.1 -18.7 Q25.05 -16.85 17.8 -19.0 47.9 -1.15 77.85 19.65 72.35 7.45 126.2 -52.1 L110.25 -58.8 Q81.2 -37.55 59.75 -27.3 L54.55 -24.95 50.1 -23.15 Q42.9 -20.4 36.75 -19.05 39.8 -36.0 30.3 -47.75 M35.1 -18.7 L31.3 -20.45 M24.7 -28.15 L17.7 -31.7 M4.55 -26.65 L17.8 -19.0 M43.1 -40.45 Q49.2 -32.85 50.1 -23.15 M48.6 -36.6 Q52.8 -31.3 54.55 -24.95 M48.6 -36.6 Q54.2 -32.4 59.75 -27.3 M48.55 -36.6 L48.6 -36.6 M94.3 93.6 L104.55 98.45 Q111.45 119.5 114.55 139.45 116.25 150.6 106.8 147.65 L91.05 142.6 Q82.3 139.8 75.5 130.7 L40.9 84.05 -18.0 64.0 -18.25 63.9 -18.35 63.85 Q-18.9 63.45 -18.95 62.25 L-18.7 59.75 Q-18.35 58.45 -17.75 57.8 -17.2 57.1 -16.65 57.5 L35.4 76.65 22.9 66.2 12.65 63.8 Q-15.9 56.75 -30.6 49.7 -38.05 46.1 -41.95 42.5 L-42.15 42.4 Q-42.7 42.0 -42.8 40.8 L-53.45 35.0 -58.1 12.0 -55.15 0.95 -83.0 -22.35 Q-110.65 -34.35 -138.0 -50.6 L-154.65 -54.9 -155.7 -58.65 -179.85 -67.0 Q-183.55 -70.25 -180.3 -71.6 L-163.25 -66.55 -165.95 -68.3 Q-172.55 -73.35 -173.45 -76.75 L-191.65 -84.8 Q-193.15 -87.8 -190.85 -87.8 L-172.75 -79.9 -171.85 -80.7 -171.2 -81.2 Q-154.7 -92.15 -119.0 -84.05 L-112.3 -82.35 Q-103.6 -90.35 -72.3 -67.3 L-69.6 -77.2 M94.3 93.6 Q100.65 96.4 103.5 83.2 106.3 70.0 96.85 58.15 87.4 46.25 79.95 47.0 97.85 60.15 89.9 86.15 94.0 89.55 93.85 93.4 L94.3 93.6 M88.25 84.85 L89.9 86.15 M84.45 82.85 L88.25 84.85 Q95.25 64.05 79.95 47.0 L78.5 46.3 Q89.1 61.95 84.45 82.85 L71.05 75.75 64.8 72.4 57.7 68.65 57.95 65.55 Q35.7 56.25 22.4 40.45 9.1 24.7 19.6 23.7 30.1 22.7 45.6 29.25 L21.65 18.2 14.25 8.55 Q-6.8 3.3 -30.95 -3.6 -57.1 -11.1 -83.0 -22.35 -53.35 -13.45 -54.65 -20.7 -31.7 -17.05 6.55 -1.55 24.7 5.8 46.25 15.85 L69.5 20.15 81.0 21.9 77.85 19.65 M45.6 29.25 L56.25 34.4 62.6 37.4 64.3 38.2 Q60.05 22.55 72.55 28.25 L69.5 20.15 M64.3 38.2 L77.2 44.5 78.5 46.3 M11.75 56.85 Q11.1 60.3 12.65 63.8 M22.9 66.2 L11.75 56.85 0.55 47.5 Q-19.8 38.45 -30.65 36.05 -32.9 41.9 -30.6 49.7 M56.25 34.4 Q68.25 49.9 64.8 72.4 M40.9 84.05 L35.4 76.65 M71.05 75.75 Q74.7 53.0 62.6 37.4 M46.25 15.85 Q31.25 12.75 14.25 8.55 L6.55 -1.55 M45.6 29.25 Q58.9 42.15 57.95 65.55 M-172.75 -79.9 Q-173.95 -78.6 -173.45 -76.75 M-66.65 -63.05 Q-60.1 -58.0 -52.7 -51.75 -63.6 -52.25 -75.4 -55.7 -92.45 -60.75 -111.35 -72.0 -116.2 -74.1 -114.2 -79.65 -113.45 -81.3 -112.3 -82.35 M-171.2 -81.2 L-116.8 -68.65 -119.0 -84.05 M-36.05 -66.0 L-64.35 -80.1 -65.65 -75.9 M-72.3 -67.3 L-66.65 -63.05 M-138.0 -50.6 Q-150.7 -58.15 -163.25 -66.55 M-41.95 42.5 Q-41.5 42.65 -41.0 42.15 -40.45 41.45 -40.05 40.1 -39.7 38.75 -39.8 37.55 -39.9 36.25 -40.4 35.85 L-41.0 35.75 -41.15 35.85 -41.3 35.9 -41.55 36.15 Q-42.2 36.8 -42.55 38.15 -42.9 39.5 -42.8 40.75 L-42.8 40.8 M-51.6 14.35 L-58.1 12.0 M-51.6 14.35 L-49.75 21.3 Q-26.65 32.7 -3.5 44.15 L-55.1 1.0 -51.6 14.35 M-55.15 0.95 L-55.1 1.0 M-49.75 21.3 L-53.45 35.0 M-16.65 57.5 Q-16.2 57.9 -16.1 59.1 -16.0 60.3 -16.35 61.6 -16.7 62.9 -17.3 63.55 L-18.0 64.0 M-30.65 36.05 L-41.0 35.75 M0.55 47.5 L-3.5 44.15 M-25.55 -43.1 Q-10.5 -35.25 4.55 -26.65" fill="none" stroke="#000000" stroke-linecap="round" stroke-linejoin="round" stroke-width="1.0"/>
  </g>
  <defs>
    <linearGradient gradientTransform="matrix(0.0692, 0.0062, -0.0047, -0.0302, -10.8, -58.65)" gradientUnits="userSpaceOnUse" id="gradient0" spreadMethod="pad" x1="-819.2" x2="819.2">
      <stop offset="0.050980392156862744" stop-color="#000000"/>
      <stop offset="0.4" stop-color="#700370"/>
      <stop offset="0.6941176470588235" stop-color="#cb10cb"/>
      <stop offset="0.9490196078431372" stop-color="#fd6cfd"/>
    </linearGradient>
    <linearGradient gradientTransform="matrix(5.0E-4, -0.0132, -0.0093, -0.004, 24.9, -41.05)" gradientUnits="userSpaceOnUse" id="gradient1" spreadMethod="pad" x1="-819.2" x2="819.2">
      <stop offset="0.0" stop-color="#000000"/>
      <stop offset="0.38823529411764707" stop-color="#ab9986"/>
      <stop offset="0.6666666666666666" stop-color="#ab9986"/>
      <stop offset="1.0" stop-color="#000000"/>
    </linearGradient>
    <linearGradient gradientTransform="matrix(0.0011, -0.0287, -0.1552, -0.0671, -46.2, -30.35)" gradientUnits="userSpaceOnUse" id="gradient2" spreadMethod="pad" x1="-819.2" x2="819.2">
      <stop offset="0.050980392156862744" stop-color="#000000"/>
      <stop offset="0.4" stop-color="#700370"/>
      <stop offset="0.7294117647058823" stop-color="#cb10cb"/>
      <stop offset="1.0" stop-color="#fd6cfd"/>
    </linearGradient>
    <linearGradient gradientTransform="matrix(5.0E-4, -0.0139, -0.0124, -0.0054, 40.15, -34.65)" gradientUnits="userSpaceOnUse" id="gradient3" spreadMethod="pad" x1="-819.2" x2="819.2">
      <stop offset="0.0" stop-color="#000000"/>
      <stop offset="0.38823529411764707" stop-color="#ab9986"/>
      <stop offset="0.6666666666666666" stop-color="#ab9986"/>
      <stop offset="1.0" stop-color="#000000"/>
    </linearGradient>
    <radialGradient cx="0" cy="0" gradientTransform="matrix(-0.0391, -0.0309, -0.0125, 0.0466, -7.65, -52.55)" gradientUnits="userSpaceOnUse" id="gradient4" r="819.2" spreadMethod="pad">
      <stop offset="0.06274509803921569" stop-color="#fd6cfd"/>
      <stop offset="0.4823529411764706" stop-color="#cb10cb"/>
      <stop offset="0.9137254901960784" stop-color="#700370"/>
    </radialGradient>
    <linearGradient gradientTransform="matrix(-2.0E-4, 0.0054, 0.0069, 0.003, 54.05, -29.75)" gradientUnits="userSpaceOnUse" id="gradient5" spreadMethod="pad" x1="-819.2" x2="819.2">
      <stop offset="0.0" stop-color="#000000"/>
      <stop offset="0.38823529411764707" stop-color="#ab9986"/>
      <stop offset="0.6666666666666666" stop-color="#ab9986"/>
      <stop offset="1.0" stop-color="#000000"/>
    </linearGradient>
    <linearGradient gradientTransform="matrix(0.0505, -0.0417, -0.077, -0.1389, 21.4, 57.25)" gradientUnits="userSpaceOnUse" id="gradient6" spreadMethod="pad" x1="-819.2" x2="819.2">
      <stop offset="0.050980392156862744" stop-color="#000000"/>
      <stop offset="0.4" stop-color="#700370"/>
      <stop offset="0.6941176470588235" stop-color="#cb10cb"/>
      <stop offset="0.9490196078431372" stop-color="#fd6cfd"/>
    </linearGradient>
    <linearGradient gradientTransform="matrix(8.0E-4, -0.019, -0.0153, -0.0067, 92.0, 64.75)" gradientUnits="userSpaceOnUse" id="gradient7" spreadMethod="pad" x1="-819.2" x2="819.2">
      <stop offset="0.0" stop-color="#000000"/>
      <stop offset="0.38823529411764707" stop-color="#ab9986"/>
      <stop offset="0.6666666666666666" stop-color="#ab9986"/>
      <stop offset="1.0" stop-color="#000000"/>
    </linearGradient>
    <linearGradient gradientTransform="matrix(7.0E-4, -0.0183, -0.0128, -0.0056, 55.55, 46.6)" gradientUnits="userSpaceOnUse" id="gradient8" spreadMethod="pad" x1="-819.2" x2="819.2">
      <stop offset="0.0" stop-color="#000000"/>
      <stop offset="0.38823529411764707" stop-color="#ab9986"/>
      <stop offset="0.6666666666666666" stop-color="#ab9986"/>
      <stop offset="1.0" stop-color="#000000"/>
    </linearGradient>
    <linearGradient gradientTransform="matrix(7.0E-4, -0.018, -0.0147, -0.0064, 74.15, 56.1)" gradientUnits="userSpaceOnUse" id="gradient9" spreadMethod="pad" x1="-819.2" x2="819.2">
      <stop offset="0.0" stop-color="#000000"/>
      <stop offset="0.38823529411764707" stop-color="#ab9986"/>
      <stop offset="0.6666666666666666" stop-color="#ab9986"/>
      <stop offset="1.0" stop-color="#000000"/>
    </linearGradient>
    <radialGradient cx="0" cy="0" gradientTransform="matrix(-0.0517, -0.0408, -0.0166, 0.0616, 16.3, 29.75)" gradientUnits="userSpaceOnUse" id="gradient10" r="819.2" spreadMethod="pad">
      <stop offset="0.06274509803921569" stop-color="#fd6cfd"/>
      <stop offset="0.4823529411764706" stop-color="#cb10cb"/>
      <stop offset="0.9137254901960784" stop-color="#700370"/>
    </radialGradient>
    <linearGradient gradientTransform="matrix(0.0, -0.004, -0.0069, -0.0025, 17.3, 62.15)" gradientUnits="userSpaceOnUse" id="gradient11" spreadMethod="pad" x1="-819.2" x2="819.2">
      <stop offset="0.0" stop-color="#a83835"/>
      <stop offset="0.1450980392156863" stop-color="#19110c"/>
      <stop offset="0.30196078431372547" stop-color="#412e68"/>
      <stop offset="0.611764705882353" stop-color="#f9f7ec"/>
      <stop offset="0.8117647058823529" stop-color="#90904c"/>
      <stop offset="0.8823529411764706" stop-color="#423624"/>
    </linearGradient>
    <linearGradient gradientTransform="matrix(-1.0E-4, -0.0092, -0.0271, -0.0095, -9.6, 50.35)" gradientUnits="userSpaceOnUse" id="gradient12" spreadMethod="pad" x1="-819.2" x2="819.2">
      <stop offset="0.0" stop-color="#131330"/>
      <stop offset="0.4549019607843137" stop-color="#ffffff"/>
      <stop offset="0.7294117647058823" stop-color="#883924"/>
      <stop offset="0.9372549019607843" stop-color="#c27873"/>
    </linearGradient>
    <linearGradient gradientTransform="matrix(0.0, -0.0042, -0.0359, -0.0129, 11.4, 70.95)" gradientUnits="userSpaceOnUse" id="gradient13" spreadMethod="pad" x1="-819.2" x2="819.2">
      <stop offset="0.0" stop-color="#131330"/>
      <stop offset="0.4549019607843137" stop-color="#ffffff"/>
      <stop offset="0.7294117647058823" stop-color="#883924"/>
      <stop offset="0.9372549019607843" stop-color="#c27873"/>
    </linearGradient>
    <linearGradient gradientTransform="matrix(1.0E-4, -0.0022, -0.0115, -0.0049, -182.25, -82.35)" gradientUnits="userSpaceOnUse" id="gradient14" spreadMethod="pad" x1="-819.2" x2="819.2">
      <stop offset="0.0" stop-color="#131330"/>
      <stop offset="0.4549019607843137" stop-color="#ffffff"/>
      <stop offset="0.7294117647058823" stop-color="#883924"/>
      <stop offset="0.9372549019607843" stop-color="#c27873"/>
    </linearGradient>
    <linearGradient gradientTransform="matrix(0.0, -0.0052, -0.0258, -0.0092, -159.25, -60.75)" gradientUnits="userSpaceOnUse" id="gradient15" spreadMethod="pad" x1="-819.2" x2="819.2">
      <stop offset="0.0" stop-color="#a83835"/>
      <stop offset="0.1450980392156863" stop-color="#19110c"/>
      <stop offset="0.30196078431372547" stop-color="#412e68"/>
      <stop offset="0.611764705882353" stop-color="#f9f7ec"/>
      <stop offset="0.8117647058823529" stop-color="#90904c"/>
      <stop offset="0.8823529411764706" stop-color="#423624"/>
    </linearGradient>
    <radialGradient cx="0" cy="0" gradientTransform="matrix(-9.0E-4, 0.0226, 0.0647, 0.0282, -106.15, -80.4)" gradientUnits="userSpaceOnUse" id="gradient16" r="819.2" spreadMethod="pad">
      <stop offset="0.0" stop-color="#ffd700"/>
      <stop offset="0.3215686274509804" stop-color="#804000"/>
      <stop offset="0.5333333333333333" stop-color="#000000"/>
      <stop offset="0.7333333333333333" stop-color="#391d00"/>
      <stop offset="0.9372549019607843" stop-color="#000000"/>
    </radialGradient>
    <linearGradient gradientTransform="matrix(3.0E-4, 0.0084, 0.0071, 0.0022, -36.25, 41.15)" gradientUnits="userSpaceOnUse" id="gradient17" spreadMethod="pad" x1="-819.2" x2="819.2">
      <stop offset="0.0" stop-color="#a83835"/>
      <stop offset="0.1450980392156863" stop-color="#19110c"/>
      <stop offset="0.30196078431372547" stop-color="#412e68"/>
      <stop offset="0.611764705882353" stop-color="#f9f7ec"/>
      <stop offset="0.8117647058823529" stop-color="#90904c"/>
      <stop offset="0.8823529411764706" stop-color="#423624"/>
    </linearGradient>
  </defs>
</svg>
