<?xml version="1.0" encoding="UTF-8" standalone="no"?>
<svg xmlns:ffdec="https://www.free-decompiler.com/flash" xmlns:xlink="http://www.w3.org/1999/xlink" ffdec:objectType="shape" height="350.0px" width="300.0px" xmlns="http://www.w3.org/2000/svg">
  <g transform="matrix(1.0, 0.0, 0.0, 1.0, 150.0, 175.0)">
    <path d="M150.0 175.0 L-150.0 175.0 -150.0 -175.0 150.0 -175.0 150.0 175.0 M37.6 43.7 L37.6 -43.8 -37.4 -43.8 -37.4 43.7 37.6 43.7 -37.4 43.7 -37.4 -43.8 37.6 -43.8 37.6 43.7 M112.5 131.2 L112.5 -131.3 -112.5 -131.3 -112.5 131.2 112.5 131.2 -112.5 131.2 -112.5 -131.3 112.5 -131.3 112.5 131.2 M75.05 87.45 L75.05 -87.55 -74.95 -87.55 -74.95 87.45 75.05 87.45 -74.95 87.45 -74.95 -87.55 75.05 -87.55 75.05 87.45" fill="#ff5264" fill-rule="evenodd" stroke="none"/>
    <path d="M75.05 87.45 L-74.95 87.45 -74.95 -87.55 75.05 -87.55 75.05 87.45 M112.5 131.2 L-112.5 131.2 -112.5 -131.3 112.5 -131.3 112.5 131.2 M37.6 43.7 L-37.4 43.7 -37.4 -43.8 37.6 -43.8 37.6 43.7 Z" fill="none" stroke="#ef7a84" stroke-linecap="round" stroke-linejoin="round" stroke-width="10.0"/>
  </g>
</svg>
