<?xml version="1.0" encoding="UTF-8" standalone="no"?>
<svg xmlns:ffdec="https://www.free-decompiler.com/flash" xmlns:xlink="http://www.w3.org/1999/xlink" ffdec:objectType="shape" height="207.1px" width="356.1px" xmlns="http://www.w3.org/2000/svg">
  <g transform="matrix(1.0, 0.0, 0.0, 1.0, -157.7, 0.5)">
    <path d="M502.45 166.35 L502.5 166.35 513.3 177.15 Q509.9 182.45 498.0 184.95 501.8 178.0 502.5 172.0 502.85 169.05 502.45 166.35" fill="#ffd700" fill-rule="evenodd" stroke="none"/>
    <path d="M463.5 146.65 Q485.2 154.15 502.45 166.35 502.85 169.05 502.5 172.0 445.45 145.3 416.8 147.0 430.75 150.85 442.8 159.2 401.3 146.3 354.4 150.3 L314.9 140.55 314.9 140.5 Q359.35 133.65 396.0 135.05 433.9 136.45 463.5 146.65" fill="#e60c02" fill-rule="evenodd" stroke="none"/>
    <path d="M502.45 166.3 L502.45 166.35 Q485.2 154.15 463.5 146.65 L469.0 139.7 Q486.8 151.6 502.45 166.3 M396.0 135.05 Q359.35 133.65 314.9 140.5 L389.95 122.5 396.0 135.05" fill="#000000" fill-rule="evenodd" stroke="none"/>
    <path d="M354.4 150.3 Q401.3 146.3 442.8 159.2 430.75 150.85 416.8 147.0 445.45 145.3 502.5 172.0 501.8 178.0 498.0 184.95 479.95 188.8 441.6 186.05 421.9 184.65 396.9 181.5 L348.65 174.55 Q347.35 170.65 343.85 166.2 L456.3 175.4 354.4 150.3" fill="url(#gradient0)" fill-rule="evenodd" stroke="none"/>
    <path d="M463.5 146.65 Q433.9 136.45 396.0 135.05 L389.95 122.5 401.3 119.75 Q423.8 114.6 440.3 122.9 455.3 130.45 469.0 139.7 L463.5 146.65" fill="url(#gradient1)" fill-rule="evenodd" stroke="none"/>
    <path d="M343.85 166.2 Q347.35 170.65 348.65 174.55 351.85 184.1 340.7 193.5 318.25 212.35 275.6 202.95 291.65 184.15 285.7 161.45 L343.85 166.2" fill="url(#gradient2)" fill-rule="evenodd" stroke="none"/>
    <path d="M348.65 174.55 L396.9 181.5 Q393.5 187.55 389.65 191.9 370.8 213.0 340.7 193.5 351.85 184.1 348.65 174.55" fill="url(#gradient3)" fill-rule="evenodd" stroke="none"/>
    <path d="M396.9 181.5 Q421.9 184.65 441.6 186.05 440.25 196.15 423.75 201.7 407.25 207.3 389.65 191.9 393.5 187.55 396.9 181.5" fill="url(#gradient4)" fill-rule="evenodd" stroke="none"/>
    <path d="M456.3 175.4 L343.85 166.2 285.7 161.45 281.25 161.1 272.2 160.35 297.7 143.55 456.3 175.4" fill="#5c0e06" fill-rule="evenodd" stroke="none"/>
    <path d="M314.9 140.55 L354.4 150.3 456.3 175.4 297.7 143.55 272.2 160.35 268.7 153.4 277.75 147.65 296.2 136.0 314.9 140.55 M245.6 139.3 Q246.55 129.0 247.05 116.8 247.6 104.2 247.7 89.5 L247.6 65.4 247.2 45.6 246.4 22.35 245.35 0.0 253.2 0.05 258.55 9.25 258.85 23.65 259.4 45.9 260.2 68.15 261.4 91.75 Q262.3 106.8 263.45 118.15 264.85 132.2 266.65 140.5 L265.1 139.95 Q260.05 138.2 254.65 138.2 250.25 138.15 245.6 139.3 M252.05 49.3 L252.65 70.1 252.65 70.15 260.2 68.15 252.65 70.15 253.35 94.75 261.4 91.75 253.35 94.75 252.65 70.15 252.65 70.1 247.6 65.4 252.65 70.1 252.05 49.3 252.05 49.25 251.4 27.15 250.85 9.25 258.55 9.25 250.85 9.25 251.4 27.15 258.85 23.65 251.4 27.15 252.05 49.25 252.05 49.3 259.4 45.9 252.05 49.3 M247.7 89.5 L253.35 94.75 254.2 122.65 247.05 116.8 254.2 122.65 253.35 94.75 247.7 89.5 M246.4 22.35 L251.4 27.15 246.4 22.35 M252.05 49.25 L247.2 45.6 252.05 49.25 M197.35 132.75 L198.15 122.2 198.95 102.4 199.1 83.25 198.8 63.1 198.15 41.8 197.2 20.8 203.5 20.8 207.75 28.2 208.0 40.85 208.5 60.2 209.4 82.9 210.4 100.15 Q211.05 109.8 211.85 117.3 213.1 129.0 214.7 135.35 210.15 133.75 204.5 133.15 L204.5 125.9 198.15 122.2 204.5 125.9 204.5 133.15 197.35 132.75 M211.85 117.3 L204.5 125.9 203.85 104.6 210.4 100.15 203.85 104.6 204.5 125.9 211.85 117.3 M199.1 83.25 L203.35 86.9 202.7 65.2 208.5 60.2 202.7 65.2 203.35 86.9 203.35 86.95 209.4 82.9 203.35 86.95 203.35 86.9 199.1 83.25 M197.2 20.8 L201.6 28.2 207.75 28.2 201.6 28.2 202.05 43.85 208.0 40.85 202.05 43.85 201.6 28.2 197.2 20.8 M198.15 41.8 L202.05 43.85 202.7 65.2 198.8 63.1 202.7 65.2 202.05 43.85 198.15 41.8 M263.45 118.15 L254.2 122.65 254.65 138.2 254.2 122.65 263.45 118.15 M183.75 139.95 Q182.95 141.15 182.2 142.65 181.25 144.5 180.45 146.5 L158.2 131.35 159.5 126.5 183.75 139.95 M203.35 86.95 L203.85 104.6 198.95 102.4 203.85 104.6 203.35 86.95 M296.2 136.0 L297.7 143.55 296.2 136.0 M245.35 0.0 L250.85 9.25 245.35 0.0" fill="#eeeeee" fill-rule="evenodd" stroke="none"/>
    <path d="M214.7 135.35 Q224.5 138.85 228.9 147.0 L227.65 149.15 Q222.95 157.8 222.95 170.15 222.95 182.45 227.65 191.15 229.1 193.8 230.6 195.7 215.3 204.4 194.45 198.1 199.1 197.5 203.0 191.1 L204.55 188.25 Q209.45 178.4 209.35 164.9 209.25 151.4 204.45 142.15 L203.2 139.9 Q200.45 135.35 197.25 133.75 L197.35 132.75 204.5 133.15 Q210.15 133.75 214.7 135.35" fill="url(#gradient5)" fill-rule="evenodd" stroke="none"/>
    <path d="M228.9 147.0 Q233.1 140.45 237.95 140.45 L239.0 140.5 240.35 140.85 Q243.95 142.15 247.05 147.25 L248.1 149.15 Q252.65 157.8 252.95 170.15 253.25 182.45 248.4 191.15 L247.2 193.2 Q242.85 199.85 237.95 199.85 L236.25 199.6 Q233.3 198.9 230.6 195.7 229.1 193.8 227.65 191.15 222.95 182.45 222.95 170.15 222.95 157.8 227.65 149.15 L228.9 147.0 M197.25 133.75 Q200.45 135.35 203.2 139.9 L204.45 142.15 Q209.25 151.4 209.35 164.9 209.45 178.4 204.55 188.25 L203.0 191.1 Q199.1 197.5 194.45 198.1 L193.5 198.15 Q187.35 198.15 182.3 188.9 177.25 179.6 177.15 166.05 177.1 155.05 180.45 146.5 181.25 144.5 182.2 142.65 182.95 141.15 183.75 139.95 186.9 134.9 190.45 133.45 191.6 132.9 192.85 132.8 L193.5 132.8 193.7 132.8 Q195.55 132.85 197.25 133.75 M201.9 147.05 Q200.8 144.55 199.55 142.9 196.9 139.4 193.55 139.4 188.6 139.4 185.1 147.05 181.65 154.7 181.65 165.55 181.65 176.35 185.1 184.05 188.6 191.65 193.55 191.7 196.9 191.7 199.55 188.2 200.8 186.5 201.9 184.05 205.45 176.35 205.45 165.55 205.45 154.7 201.9 147.05 M230.3 153.4 Q227.2 160.35 227.2 170.2 227.2 180.0 230.3 187.0 233.5 193.95 238.0 193.95 241.4 193.95 243.95 190.0 L245.6 187.0 Q248.8 180.0 248.8 170.2 248.8 160.35 245.6 153.4 L243.95 150.35 Q241.4 146.4 238.0 146.45 233.5 146.4 230.3 153.4" fill="#d9735a" fill-rule="evenodd" stroke="none"/>
    <path d="M201.9 147.05 Q205.45 154.7 205.45 165.55 205.45 176.35 201.9 184.05 200.8 186.5 199.55 188.2 196.9 191.7 193.55 191.7 188.6 191.65 185.1 184.05 181.65 176.35 181.65 165.55 181.65 154.7 185.1 147.05 188.6 139.4 193.55 139.4 196.9 139.4 199.55 142.9 200.8 144.55 201.9 147.05" fill="url(#gradient6)" fill-rule="evenodd" stroke="none"/>
    <path d="M190.45 133.45 Q186.9 134.9 183.75 139.95 L159.5 126.5 190.45 133.45" fill="#bf3c19" fill-rule="evenodd" stroke="none"/>
    <path d="M230.3 153.4 Q233.5 146.4 238.0 146.45 241.4 146.4 243.95 150.35 L245.6 153.4 Q248.8 160.35 248.8 170.2 248.8 180.0 245.6 187.0 L243.95 190.0 Q241.4 193.95 238.0 193.95 233.5 193.95 230.3 187.0 227.2 180.0 227.2 170.2 227.2 160.35 230.3 153.4" fill="url(#gradient7)" fill-rule="evenodd" stroke="none"/>
    <path d="M266.65 140.5 Q272.45 142.9 277.75 147.65 L268.7 153.4 272.2 160.35 281.25 161.1 Q284.75 187.5 271.05 199.75 L269.05 201.35 Q255.85 211.1 236.25 199.6 L237.95 199.85 Q242.85 199.85 247.2 193.2 L248.4 191.15 Q253.25 182.45 252.95 170.15 252.65 157.8 248.1 149.15 L247.05 147.25 Q243.95 142.15 240.35 140.85 242.95 139.9 245.45 139.35 L245.6 139.3 Q250.25 138.15 254.65 138.2 260.05 138.2 265.1 139.95 L266.65 140.5" fill="url(#gradient8)" fill-rule="evenodd" stroke="none"/>
    <path d="M285.7 161.45 Q291.65 184.15 275.6 202.95 L269.05 201.35 271.05 199.75 Q284.75 187.5 281.25 161.1 L285.7 161.45" fill="#cccccc" fill-rule="evenodd" stroke="none"/>
    <path d="M502.45 166.35 L502.5 166.35 502.45 166.3 502.45 166.35 Q485.2 154.15 463.5 146.65 433.9 136.45 396.0 135.05 359.35 133.65 314.9 140.5 L389.95 122.5 396.0 135.05 M314.9 140.55 L354.4 150.3 Q401.3 146.3 442.8 159.2 430.75 150.85 416.8 147.0 M502.5 172.0 Q502.85 169.05 502.45 166.35 M498.0 184.95 Q501.8 178.0 502.5 172.0 M498.0 184.95 Q509.9 182.45 513.3 177.15 L502.5 166.35 M469.0 139.7 Q455.3 130.45 440.3 122.9 423.8 114.6 401.3 119.75 L389.95 122.5 M343.85 166.2 Q347.35 170.65 348.65 174.55 L396.9 181.5 Q421.9 184.65 441.6 186.05 479.95 188.8 498.0 184.95 M348.65 174.55 Q351.85 184.1 340.7 193.5 370.8 213.0 389.65 191.9 393.5 187.55 396.9 181.5 M463.5 146.65 L469.0 139.7 Q486.8 151.6 502.45 166.3 M354.4 150.3 L456.3 175.4 343.85 166.2 285.7 161.45 Q291.65 184.15 275.6 202.95 318.25 212.35 340.7 193.5 M389.65 191.9 Q407.25 207.3 423.75 201.7 440.25 196.15 441.6 186.05 M266.65 140.5 Q272.45 142.9 277.75 147.65 L296.2 136.0 314.9 140.55 M214.7 135.35 Q224.5 138.85 228.9 147.0 M239.0 140.5 L240.35 140.85 Q242.95 139.9 245.45 139.35 M245.6 139.3 Q250.25 138.15 254.65 138.2 260.05 138.2 265.1 139.95 L266.65 140.5 M204.5 133.15 Q210.15 133.75 214.7 135.35 M193.7 132.8 L193.5 132.8 192.85 132.8 M193.5 198.15 L194.45 198.1 Q215.3 204.4 230.6 195.7 M193.7 132.8 L197.35 132.75 204.5 133.15 M297.7 143.55 L296.2 136.0 M281.25 161.1 L272.2 160.35 268.7 153.4 277.75 147.65 M272.2 160.35 L297.7 143.55 456.3 175.4 M285.7 161.45 L281.25 161.1 Q284.75 187.5 271.05 199.75 L269.05 201.35 275.6 202.95 M180.45 146.5 L158.2 131.35 159.5 126.5 190.45 133.45 M269.05 201.35 Q255.85 211.1 236.25 199.6 M183.75 139.95 L159.5 126.5" fill="none" stroke="#000000" stroke-linecap="round" stroke-linejoin="round" stroke-width="1.0"/>
    <path d="M416.8 147.0 Q445.45 145.3 502.5 172.0 M245.6 139.3 Q246.55 129.0 247.05 116.8 247.6 104.2 247.7 89.5 L247.6 65.4 247.2 45.6 246.4 22.35 245.35 0.0 253.2 0.05 258.55 9.25 258.85 23.65 259.4 45.9 260.2 68.15 261.4 91.75 Q262.3 106.8 263.45 118.15 264.85 132.2 266.65 140.5 M258.55 9.25 L250.85 9.25 251.4 27.15 258.85 23.65 M251.4 27.15 L252.05 49.25 252.05 49.3 259.4 45.9 M247.2 45.6 L252.05 49.25 M251.4 27.15 L246.4 22.35 M260.2 68.15 L252.65 70.15 253.35 94.75 261.4 91.75 M247.05 116.8 L254.2 122.65 253.35 94.75 247.7 89.5 M252.65 70.15 L252.65 70.1 247.6 65.4 M252.65 70.1 L252.05 49.3 M197.35 132.75 L198.15 122.2 198.95 102.4 199.1 83.25 198.8 63.1 198.15 41.8 197.2 20.8 203.5 20.8 207.75 28.2 208.0 40.85 208.5 60.2 209.4 82.9 210.4 100.15 Q211.05 109.8 211.85 117.3 213.1 129.0 214.7 135.35 M228.9 147.0 Q233.1 140.45 237.95 140.45 L239.0 140.5 M245.45 139.35 L245.6 139.3 M254.65 138.2 L254.2 122.65 263.45 118.15 M198.8 63.1 L202.7 65.2 202.05 43.85 198.15 41.8 M207.75 28.2 L201.6 28.2 202.05 43.85 208.0 40.85 M201.6 28.2 L197.2 20.8 M208.5 60.2 L202.7 65.2 203.35 86.9 203.35 86.95 209.4 82.9 M203.35 86.9 L199.1 83.25 M210.4 100.15 L203.85 104.6 204.5 125.9 211.85 117.3 M204.5 133.15 L204.5 125.9 198.15 122.2 M194.45 198.1 Q199.1 197.5 203.0 191.1 L204.55 188.25 Q209.45 178.4 209.35 164.9 209.25 151.4 204.45 142.15 L203.2 139.9 Q200.45 135.35 197.25 133.75 195.55 132.85 193.7 132.8 M192.85 132.8 Q191.6 132.9 190.45 133.45 186.9 134.9 183.75 139.95 182.95 141.15 182.2 142.65 181.25 144.5 180.45 146.5 177.1 155.05 177.15 166.05 177.25 179.6 182.3 188.9 187.35 198.15 193.5 198.15 M230.6 195.7 Q229.1 193.8 227.65 191.15 222.95 182.45 222.95 170.15 222.95 157.8 227.65 149.15 L228.9 147.0 M197.35 132.75 L197.25 133.75 M201.9 147.05 Q205.45 154.7 205.45 165.55 205.45 176.35 201.9 184.05 200.8 186.5 199.55 188.2 196.9 191.7 193.55 191.7 188.6 191.65 185.1 184.05 181.65 176.35 181.65 165.55 181.65 154.7 185.1 147.05 188.6 139.4 193.55 139.4 196.9 139.4 199.55 142.9 200.8 144.55 201.9 147.05 M230.3 153.4 Q233.5 146.4 238.0 146.45 241.4 146.4 243.95 150.35 L245.6 153.4 Q248.8 160.35 248.8 170.2 248.8 180.0 245.6 187.0 L243.95 190.0 Q241.4 193.95 238.0 193.95 233.5 193.95 230.3 187.0 227.2 180.0 227.2 170.2 227.2 160.35 230.3 153.4 M198.95 102.4 L203.85 104.6 203.35 86.95 M236.25 199.6 L237.95 199.85 Q242.85 199.85 247.2 193.2 L248.4 191.15 Q253.25 182.45 252.95 170.15 252.65 157.8 248.1 149.15 L247.05 147.25 Q243.95 142.15 240.35 140.85 M236.25 199.6 Q233.3 198.9 230.6 195.7 M250.85 9.25 L245.35 0.0" fill="none" stroke="#000000" stroke-linecap="round" stroke-linejoin="round" stroke-width="1.0"/>
  </g>
  <defs>
    <radialGradient cx="0" cy="0" gradientTransform="matrix(-0.003, 0.0544, -0.1522, -0.0111, 396.9, 181.55)" gradientUnits="userSpaceOnUse" id="gradient0" r="819.2" spreadMethod="pad">
      <stop offset="0.0" stop-color="#cf3c19"/>
      <stop offset="1.0" stop-color="#4c0e06"/>
    </radialGradient>
    <radialGradient cx="0" cy="0" gradientTransform="matrix(-0.0049, 0.0212, -0.0521, -0.016, 441.0, 131.45)" gradientUnits="userSpaceOnUse" id="gradient1" r="819.2" spreadMethod="pad">
      <stop offset="0.0" stop-color="#ffd700"/>
      <stop offset="0.3215686274509804" stop-color="#804000"/>
      <stop offset="0.5333333333333333" stop-color="#000000"/>
      <stop offset="0.7333333333333333" stop-color="#391d00"/>
      <stop offset="0.9372549019607843" stop-color="#000000"/>
    </radialGradient>
    <radialGradient cx="0" cy="0" gradientTransform="matrix(0.0739, 0.0, 0.0, 0.0856, 335.4, 192.65)" gradientUnits="userSpaceOnUse" id="gradient2" r="819.2" spreadMethod="pad">
      <stop offset="0.0" stop-color="#c04e42"/>
      <stop offset="1.0" stop-color="#6e1f08"/>
    </radialGradient>
    <radialGradient cx="0" cy="0" gradientTransform="matrix(0.0511, 0.0, 0.0, 0.0593, 382.6, 193.1)" gradientUnits="userSpaceOnUse" id="gradient3" r="819.2" spreadMethod="pad">
      <stop offset="0.0" stop-color="#c04e42"/>
      <stop offset="1.0" stop-color="#6e1f08"/>
    </radialGradient>
    <radialGradient cx="0" cy="0" gradientTransform="matrix(0.0558, 0.0, 0.0, 0.0647, 435.4, 192.2)" gradientUnits="userSpaceOnUse" id="gradient4" r="819.2" spreadMethod="pad">
      <stop offset="0.0" stop-color="#c04e42"/>
      <stop offset="1.0" stop-color="#6e1f08"/>
    </radialGradient>
    <radialGradient cx="0" cy="0" gradientTransform="matrix(0.068, 0.0, 0.0, 0.0788, 207.4, 137.05)" gradientUnits="userSpaceOnUse" id="gradient5" r="819.2" spreadMethod="pad">
      <stop offset="0.0" stop-color="#bf3c19"/>
      <stop offset="1.0" stop-color="#5c0e06"/>
    </radialGradient>
    <radialGradient cx="0" cy="0" gradientTransform="matrix(0.0308, 0.0, 0.0, 0.0356, 199.75, 163.85)" gradientUnits="userSpaceOnUse" id="gradient6" r="819.2" spreadMethod="pad">
      <stop offset="0.3686274509803922" stop-color="#000000"/>
      <stop offset="1.0" stop-color="#999999"/>
    </radialGradient>
    <radialGradient cx="0" cy="0" gradientTransform="matrix(0.0275, 0.0, 0.0, 0.0318, 244.75, 169.65)" gradientUnits="userSpaceOnUse" id="gradient7" r="819.2" spreadMethod="pad">
      <stop offset="0.3686274509803922" stop-color="#000000"/>
      <stop offset="1.0" stop-color="#999999"/>
    </radialGradient>
    <radialGradient cx="0" cy="0" gradientTransform="matrix(0.0671, 0.0, 0.0, 0.0778, 249.0, 143.05)" gradientUnits="userSpaceOnUse" id="gradient8" r="819.2" spreadMethod="pad">
      <stop offset="0.0" stop-color="#bf3c19"/>
      <stop offset="1.0" stop-color="#5c0e06"/>
    </radialGradient>
  </defs>
</svg>
