<?xml version="1.0" encoding="UTF-8" standalone="no"?>
<svg xmlns:ffdec="https://www.free-decompiler.com/flash" xmlns:xlink="http://www.w3.org/1999/xlink" ffdec:objectType="shape" height="577.5px" width="429.5px" xmlns="http://www.w3.org/2000/svg">
  <g transform="matrix(1.0, 0.0, 0.0, 1.0, 214.75, 288.75)">
    <path d="M132.25 -174.95 L149.95 -174.95 149.95 -117.7 0.05 -0.05 0.0 -0.05 132.25 -174.95 M149.95 -63.35 L149.95 63.35 0.05 0.0 149.95 -63.35 M149.95 117.7 L149.95 175.0 132.3 175.0 0.0 0.0 149.95 117.7 M70.25 175.0 L-70.25 175.0 -0.05 0.15 -0.05 0.1 0.0 0.1 -0.05 0.05 -0.05 0.0 0.0 0.0 70.25 175.0 M-132.35 175.0 L-150.05 175.0 -150.05 117.7 -0.15 0.1 -0.2 0.05 -0.15 0.05 -0.1 0.05 -0.1 0.1 -0.15 0.1 -132.35 175.0 M-150.05 63.35 L-150.05 -63.3 -0.2 0.0 -0.2 0.05 -150.05 63.35 M-150.05 -117.65 L-150.05 -174.95 -132.35 -174.95 -0.1 0.0 -70.3 -174.95 70.2 -174.95 0.0 -0.05 -0.05 -0.05 -0.1 0.0 -0.15 -0.05 -150.05 -117.65" fill="#1462d5" fill-rule="evenodd" stroke="none"/>
    <path d="M0.0 -0.05 L0.05 -0.05 0.05 0.0 0.0 0.0 -0.05 0.0 -0.05 0.05 0.0 0.1 -0.05 0.1 -0.05 0.15 -0.15 0.1 -0.1 0.1 -0.1 0.05 -0.15 0.05 -0.2 0.05 -0.2 0.0 -0.15 -0.05 -0.1 0.0 -0.05 -0.05 0.0 -0.05 0.0 0.0 0.0 -0.05" fill="#ffffff" fill-opacity="0.2" fill-rule="evenodd" stroke="none"/>
    <path d="M149.95 -117.7 L183.55 -144.05 214.7 -90.7 149.95 -63.35 0.05 0.0 149.95 63.35 214.75 90.75 183.6 144.05 149.95 117.7 0.0 0.0 0.0 -0.05 0.0 0.0 0.05 0.0 0.05 -0.05 149.95 -117.7 M132.3 175.0 L187.45 247.95 115.95 288.75 70.25 175.0 0.0 0.0 132.3 175.0 M-70.25 175.0 L-115.9 288.7 -187.45 247.9 -132.35 175.0 -0.15 0.1 -150.05 117.7 -183.55 144.0 -214.7 90.7 -150.05 63.35 -0.2 0.05 -0.15 0.1 -0.05 0.15 -70.25 175.0 M-150.05 -63.3 L-214.75 -90.65 -183.6 -144.0 -150.05 -117.65 -0.15 -0.05 -0.2 0.0 -150.05 -63.3 M-132.35 -174.95 L-187.5 -247.9 -115.95 -288.7 -70.3 -174.95 -0.1 0.0 -132.35 -174.95 M70.2 -174.95 L115.9 -288.75 187.4 -247.95 132.25 -174.95 0.0 -0.05 70.2 -174.95" fill="#3472ef" fill-rule="evenodd" stroke="none"/>
  </g>
</svg>
