<?xml version="1.0" encoding="UTF-8" standalone="no"?>
<svg xmlns:ffdec="https://www.free-decompiler.com/flash" xmlns:xlink="http://www.w3.org/1999/xlink" ffdec:objectType="shape" height="233.85px" width="331.4px" xmlns="http://www.w3.org/2000/svg">
  <g transform="matrix(1.0, 0.0, 0.0, 1.0, 183.7, 128.85)">
    <path d="M71.85 -113.0 L85.1 -109.7 77.6 -83.3 80.35 -78.45 67.7 -31.65 Q76.55 -25.15 76.25 -23.75 76.15 -22.55 73.4 -23.25 57.75 -38.05 53.95 -32.95 L52.2 -34.5 59.2 -39.5 52.15 -48.2 52.15 -48.25 Q51.15 -51.7 23.15 -64.35 L23.0 -64.4 22.5 -64.65 16.5 -67.3 34.9 -79.0 29.1 -81.85 57.3 -99.0 53.5 -101.75 71.85 -112.95 71.85 -113.0" fill="url(#gradient0)" fill-rule="evenodd" stroke="none"/>
    <path d="M-181.9 41.65 L-183.2 25.6 -129.75 -6.1 -120.1 0.5 -105.8 -7.75 -103.05 -4.4 -132.75 12.95 -133.6 13.5 -134.75 14.15 -132.75 12.95 -134.75 14.15 -181.9 41.65 M21.95 -80.9 L14.0 -84.4 67.55 -114.4 71.1 -113.2 71.85 -112.95 53.5 -101.75 57.3 -99.0 29.1 -81.85 25.2 -79.45 21.95 -80.9" fill="#eeeeee" fill-rule="evenodd" stroke="none"/>
    <path d="M5.8 -71.6 L21.95 -80.9 25.2 -79.45 29.1 -81.85 34.9 -79.0 16.5 -67.3 16.25 -67.4 16.1 -67.5 13.75 -68.45 5.8 -71.35 5.8 -71.6 M21.8 -78.1 L24.45 -75.7 21.8 -78.1 M19.85 -76.95 L22.45 -74.5 19.85 -76.95 M17.8 -75.45 L20.4 -73.0 17.8 -75.45 M15.7 -74.25 L18.3 -71.85 15.7 -74.25 M13.6 -73.0 L16.2 -70.55 13.6 -73.0" fill="url(#gradient1)" fill-rule="evenodd" stroke="none"/>
    <path d="M1.2 -73.3 L5.8 -71.6 5.55 -71.4 5.8 -71.35 13.75 -68.45 16.1 -67.5 16.05 -67.35 Q-7.3 -63.9 -7.6 -40.85 L-12.85 -43.95 -20.2 -48.3 Q-18.75 -73.7 1.2 -73.3" fill="url(#gradient2)" fill-rule="evenodd" stroke="none"/>
    <path d="M16.5 -67.3 L22.5 -64.65 Q2.4 -63.1 -2.55 -47.55 L-4.5 -46.3 -4.15 -38.75 -6.05 -39.9 -7.6 -40.85 Q-7.3 -63.9 16.05 -67.35 L16.5 -67.3" fill="url(#gradient3)" fill-rule="evenodd" stroke="none"/>
    <path d="M22.5 -64.65 L23.0 -64.4 -2.55 -47.55 Q2.4 -63.1 22.5 -64.65" fill="url(#gradient4)" fill-rule="evenodd" stroke="none"/>
    <path d="M23.0 -64.4 L23.15 -64.35 Q51.15 -51.7 52.15 -48.25 L25.8 -30.7 25.75 -30.7 25.75 -30.65 -4.5 -46.3 -2.55 -47.55 23.0 -64.4" fill="url(#gradient5)" fill-rule="evenodd" stroke="none"/>
    <path d="M-4.15 -38.75 L-4.5 -46.3 25.75 -30.65 25.8 -30.6 31.2 -19.2 Q26.9 -21.7 22.15 -23.5 L21.85 -23.6 12.5 -29.1 -4.15 -38.75" fill="url(#gradient6)" fill-rule="evenodd" stroke="none"/>
    <path d="M52.15 -48.2 L59.2 -39.5 52.2 -34.5 45.85 -29.6 45.65 -29.7 44.45 -28.55 31.8 -18.85 31.5 -18.85 31.2 -19.2 25.8 -30.6 25.8 -30.7 52.15 -48.25 52.15 -48.2 M31.8 -18.85 L31.2 -19.2 31.8 -18.85" fill="url(#gradient7)" fill-rule="evenodd" stroke="none"/>
    <path d="M31.2 -19.2 L31.5 -18.85 31.8 -18.85 35.4 -16.5 35.5 -16.4 Q44.3 -10.25 50.6 -0.95 L56.65 10.05 56.7 10.2 56.6 10.25 Q28.2 -24.25 -14.9 -28.65 6.2 -29.5 21.85 -23.6 L22.15 -23.5 Q26.9 -21.7 31.2 -19.2" fill="url(#gradient8)" fill-rule="evenodd" stroke="none"/>
    <path d="M51.8 -7.15 L47.65 -9.55 35.5 -16.4 35.4 -16.5 Q35.05 -21.0 38.2 -20.85 L54.3 -11.35 53.1 -11.4 Q52.1 -11.25 51.5 -10.45 50.85 -9.65 50.9 -8.7 51.0 -7.75 51.8 -7.15" fill="url(#gradient9)" fill-rule="evenodd" stroke="none"/>
    <path d="M57.75 -12.0 Q55.55 -11.85 55.55 -10.15 55.3 -10.7 54.85 -11.05 L54.3 -11.35 38.2 -20.85 Q35.05 -21.0 35.4 -16.5 L31.8 -18.85 44.45 -28.55 Q38.3 -22.1 48.65 -16.35 52.95 -13.95 57.75 -12.0 M-36.3 44.05 L-38.0 45.25 Q-41.1 42.3 -46.05 39.75 -56.1 44.4 -51.95 50.4 L-59.2 45.65 -59.15 45.55 -58.9 45.2 -15.85 14.95 -12.4 18.2 -15.75 19.7 -16.15 19.4 Q-19.8 20.95 -20.0 24.5 L-20.05 24.5 Q-22.8 22.75 -24.5 23.45 -26.3 24.15 -33.25 28.5 -40.25 32.75 -36.3 44.05" fill="#111111" fill-rule="evenodd" stroke="none"/>
    <path d="M21.85 -23.6 Q6.2 -29.5 -14.9 -28.65 L-15.35 -28.6 -21.1 -24.3 Q-21.0 -19.9 -20.25 -15.75 L-25.7 -22.3 Q-19.45 -33.4 -7.8 -34.65 L12.5 -29.1 21.85 -23.6" fill="#f5efee" fill-rule="evenodd" stroke="none"/>
    <path d="M73.8 -7.25 Q65.25 -9.0 57.75 -12.0 52.95 -13.95 48.65 -16.35 38.3 -22.1 44.45 -28.55 L45.65 -29.7 45.85 -29.6 44.45 -28.55 45.85 -29.6 71.15 -14.95 73.25 -15.15 72.8 -14.65 Q71.3 -12.85 71.5 -10.75 71.65 -8.7 73.4 -7.5 L73.8 -7.25" fill="url(#gradient10)" fill-rule="evenodd" stroke="none"/>
    <path d="M52.2 -34.5 L53.95 -32.95 75.6 -18.75 Q74.95 -16.8 74.05 -15.8 L73.25 -15.15 71.15 -14.95 45.85 -29.6 52.2 -34.5" fill="#21263e" fill-rule="evenodd" stroke="none"/>
    <path d="M51.8 -3.15 Q82.65 18.55 106.95 59.9 83.9 28.3 56.8 10.25 L56.75 10.2 56.65 10.05 Q54.0 4.1 50.6 -0.95 L47.9 -5.8 51.8 -3.15" fill="url(#gradient11)" fill-rule="evenodd" stroke="none"/>
    <path d="M80.65 -16.0 Q82.25 -14.8 82.4 -12.75 82.6 -10.7 81.1 -8.9 79.6 -7.15 77.35 -6.75 75.35 -6.4 73.8 -7.25 L73.4 -7.5 Q71.65 -8.7 71.5 -10.75 71.3 -12.85 72.8 -14.65 L73.25 -15.15 74.05 -15.8 Q75.15 -16.6 76.55 -16.85 78.8 -17.25 80.5 -16.05 L80.65 -16.0 M55.55 -10.15 L55.65 -9.55 Q55.7 -8.6 55.15 -7.75 54.45 -7.0 53.5 -6.8 L52.5 -6.85 52.2 -6.95 51.8 -7.15 Q51.0 -7.75 50.9 -8.7 50.85 -9.65 51.5 -10.45 52.1 -11.25 53.1 -11.4 L54.3 -11.35 54.85 -11.05 Q55.3 -10.7 55.55 -10.15 M146.3 96.8 Q147.05 97.85 147.2 99.35 147.3 101.2 146.45 102.65 145.5 104.2 144.1 104.45 142.95 104.65 142.05 103.95 L142.05 103.9 140.9 102.65 Q140.4 101.75 140.3 100.65 140.15 98.8 141.1 97.25 L141.25 97.0 Q142.15 96.4 143.35 96.2 L145.6 96.3 146.3 96.8 M-3.4 33.65 L-4.25 34.3 Q-5.6 35.05 -6.7 34.85 L-7.25 34.7 -7.65 34.45 -8.1 33.95 -8.15 33.65 Q-8.45 32.55 -7.75 31.25 -7.0 30.0 -5.65 29.2 -4.35 28.45 -3.25 28.65 -2.85 28.7 -2.5 28.9 L-2.4 29.0 -2.3 29.05 Q-1.95 29.35 -1.8 29.95 -1.5 31.0 -2.2 32.25 L-3.4 33.65 M-33.6 52.5 Q-33.25 52.85 -33.05 53.45 -32.8 54.45 -33.35 55.6 -34.0 56.8 -35.15 57.5 -36.3 58.15 -37.3 57.9 L-37.85 57.65 Q-38.4 57.35 -38.6 56.65 -38.9 55.65 -38.25 54.4 -37.65 53.25 -36.5 52.55 -35.4 51.9 -34.35 52.1 L-33.6 52.5 M-15.05 47.05 Q-13.45 44.55 -10.7 43.45 -7.95 42.4 -5.65 43.4 -3.4 44.4 -2.95 46.95 -2.5 49.45 -4.05 52.0 -5.65 54.55 -8.4 55.7 -11.15 56.75 -13.4 55.75 -15.7 54.75 -16.15 52.2 -16.65 49.6 -15.05 47.05" fill="#000000" fill-rule="evenodd" stroke="none"/>
    <path d="M73.4 -23.25 L80.55 -16.1 80.5 -16.05 Q78.8 -17.25 76.55 -16.85 75.15 -16.6 74.05 -15.8 74.95 -16.8 75.6 -18.75 L53.95 -32.95 Q57.75 -38.05 73.4 -23.25" fill="url(#gradient12)" fill-rule="evenodd" stroke="none"/>
    <path d="M83.2 59.0 Q68.55 50.4 54.7 37.2 77.55 46.85 96.05 65.75 L89.75 62.6 Q86.45 60.9 83.2 59.0" fill="url(#gradient13)" fill-rule="evenodd" stroke="none"/>
    <path d="M82.9 76.35 Q48.45 68.55 -3.4 33.65 L-2.2 32.25 Q-1.5 31.0 -1.8 29.95 -1.95 29.35 -2.3 29.05 L-2.4 29.0 -2.5 28.9 -15.75 19.7 -12.4 18.2 -15.85 14.95 -22.6 1.9 -22.7 1.95 -34.15 -7.2 Q-35.8 -15.5 -33.95 -21.7 L-32.95 -24.45 -27.3 -19.1 -28.15 -17.0 -10.15 11.55 15.2 29.2 15.45 29.25 Q21.9 30.5 29.6 29.55 L83.2 59.0 Q86.45 60.9 89.75 62.6 L96.05 65.75 95.95 66.05 Q91.0 71.25 95.25 78.35 89.4 77.85 82.9 76.35 M49.4 44.35 Q40.65 37.4 24.75 33.2 25.7 36.25 48.0 48.7 49.85 47.35 49.4 44.35" fill="url(#gradient14)" fill-rule="evenodd" stroke="none"/>
    <path d="M96.05 65.75 L96.1 65.95 95.95 66.05 96.05 65.75" fill="url(#gradient15)" fill-rule="evenodd" stroke="none"/>
    <path d="M106.95 59.9 L121.75 76.25 120.15 76.15 119.8 76.15 Q110.1 76.0 111.3 84.65 L111.4 86.5 107.45 84.55 95.75 78.6 95.5 78.45 95.25 78.35 Q91.0 71.25 95.95 66.05 L96.1 65.95 96.15 65.95 Q99.5 62.45 106.95 59.9" fill="url(#gradient16)" fill-rule="evenodd" stroke="none"/>
    <path d="M96.15 65.95 L96.05 65.75 Q77.55 46.85 54.7 37.2 68.55 50.4 83.2 59.0 L29.6 29.55 Q21.9 30.5 15.45 29.25 L15.2 29.2 -10.15 11.55 -28.15 -17.0 -27.3 -19.1 -19.05 -10.7 Q-13.2 9.0 8.95 21.85 19.35 27.55 32.6 27.05 L32.7 27.05 32.85 27.05 Q42.5 12.6 56.6 10.25 L56.7 10.25 56.8 10.25 Q83.9 28.3 106.95 59.9 99.5 62.45 96.15 65.95" fill="url(#gradient17)" fill-rule="evenodd" stroke="none"/>
    <path d="M107.45 84.55 L107.4 84.55 Q102.7 85.4 103.95 89.75 92.3 83.9 82.9 76.35 89.4 77.85 95.25 78.35 L95.3 78.4 95.75 78.6 107.45 84.55" fill="url(#gradient18)" fill-rule="evenodd" stroke="none"/>
    <path d="M120.15 76.15 L144.85 95.7 145.95 96.35 145.6 96.3 144.85 95.7 143.35 95.55 Q142.1 95.8 141.25 97.0 142.1 95.8 143.35 95.55 L144.85 95.7 145.6 96.3 143.35 96.2 Q142.15 96.4 141.25 97.0 140.75 97.35 140.45 98.2 140.1 99.0 139.9 100.2 139.65 101.25 141.1 103.0 L141.6 103.55 141.7 103.65 142.05 103.9 142.05 103.95 111.3 84.65 Q110.1 76.0 119.8 76.15 L120.15 76.15" fill="url(#gradient19)" fill-rule="evenodd" stroke="none"/>
    <path d="M107.4 84.55 Q112.25 88.65 114.6 94.35 109.35 93.5 103.95 89.75 102.7 85.4 107.4 84.55" fill="url(#gradient20)" fill-rule="evenodd" stroke="none"/>
    <path d="M49.4 44.35 Q49.85 47.35 48.0 48.7 25.7 36.25 24.75 33.2 40.65 37.4 49.4 44.35" fill="url(#gradient21)" fill-rule="evenodd" stroke="none"/>
    <path d="M-20.25 -15.75 Q-21.0 -19.9 -21.1 -24.3 -3.6 10.3 32.6 27.05 19.35 27.55 8.95 21.85 -13.2 9.0 -19.05 -10.7 L-20.25 -15.75" fill="url(#gradient22)" fill-rule="evenodd" stroke="none"/>
    <path d="M-14.9 -28.65 Q28.2 -24.25 56.6 10.25 42.5 12.6 32.85 27.05 L32.7 27.05 32.6 27.05 Q-3.6 10.3 -21.1 -24.3 L-15.35 -28.6 -14.9 -28.65 M28.1 15.85 Q11.15 -4.65 -10.2 -17.65 4.8 3.3 28.1 15.85" fill="url(#gradient23)" fill-rule="evenodd" stroke="none"/>
    <path d="M-97.55 -117.05 L-102.0 -128.35 -92.25 -122.9 -86.6 -114.35 -97.55 -117.05" fill="#00ccff" fill-rule="evenodd" stroke="none"/>
    <path d="M-102.0 -128.35 L-90.8 -124.35 -51.65 -65.8 -49.65 -63.1 -47.25 -59.5 -44.35 -55.1 -37.2 -44.15 Q-38.3 -42.4 -39.95 -43.7 L-40.6 -44.3 -86.6 -114.35 -92.25 -122.9 -102.0 -128.35" fill="#ffffff" fill-rule="evenodd" stroke="none"/>
    <path d="M-80.6 -76.7 L-97.55 -117.05 -86.6 -114.35 -40.6 -44.3 -40.6 -44.25 -49.6 -47.2 Q-56.0 -51.8 -62.5 -57.75 L-66.15 -61.15 Q-73.35 -68.1 -80.6 -76.7" fill="url(#gradient24)" fill-rule="evenodd" stroke="none"/>
    <path d="M-117.0 -24.4 L-116.95 -24.45 -117.8 -27.65 -117.85 -28.0 -117.95 -30.5 Q-117.85 -40.35 -106.4 -48.65 -102.05 -51.9 -96.85 -51.95 L-94.05 -51.7 Q-115.0 -42.15 -115.35 -22.8 L-117.0 -24.4" fill="url(#gradient25)" fill-rule="evenodd" stroke="none"/>
    <path d="M-118.15 -30.5 Q-120.55 -52.75 -99.8 -52.1 L-96.85 -51.95 Q-102.05 -51.9 -106.4 -48.65 -117.85 -40.35 -117.95 -30.5 L-118.15 -30.5 M-51.2 -66.8 Q-49.9 -70.95 -48.25 -74.05 L-46.75 -76.5 Q-45.35 -78.55 -43.75 -79.95 -39.15 -84.05 -32.75 -83.15 -44.75 -79.55 -47.35 -64.5 L-51.2 -66.8 M-41.8 -78.6 L-43.75 -79.95 -41.8 -78.6" fill="#4d323e" fill-rule="evenodd" stroke="none"/>
    <path d="M-94.05 -51.7 L-91.1 -51.0 -83.55 -45.25 Q-108.35 -41.35 -108.55 -16.0 L-115.35 -22.8 Q-115.0 -42.15 -94.05 -51.7" fill="url(#gradient26)" fill-rule="evenodd" stroke="none"/>
    <path d="M-89.55 -37.45 L-86.9 -31.8 -93.35 -38.25 -89.55 -37.45 M-81.55 -34.65 L-86.75 -39.05 -86.1 -41.65 -81.0 -36.6 -81.55 -34.65" fill="#666666" fill-rule="evenodd" stroke="none"/>
    <path d="M-86.75 -39.05 L-89.55 -37.45 -93.35 -38.25 -86.1 -41.65 -86.75 -39.05 M-95.5 -37.1 L-95.25 -34.15 -98.45 -30.1 -101.8 -30.8 -95.5 -37.1 M-21.85 -73.4 L-24.2 -75.15 -20.2 -78.35 -17.9 -76.9 -21.85 -73.4 M-27.35 -68.2 L-29.6 -69.7 -25.55 -74.0 -23.5 -72.35 -27.35 -68.2" fill="#333333" fill-rule="evenodd" stroke="none"/>
    <path d="M-83.55 -45.25 L-82.9 -44.8 -67.8 -33.25 Q-96.0 -33.85 -95.1 -2.5 L-108.55 -16.0 Q-108.35 -41.35 -83.55 -45.25 M-86.9 -31.8 L-81.55 -34.65 -81.0 -36.6 -86.1 -41.65 -93.35 -38.25 -86.9 -31.8 M-90.75 -28.95 L-90.0 -31.45 -95.5 -37.1 -101.8 -30.8 -94.35 -23.75 -90.85 -28.7 -90.75 -28.95" fill="url(#gradient27)" fill-rule="evenodd" stroke="none"/>
    <path d="M-25.7 -22.3 L-20.25 -15.75 -19.05 -10.7 -27.3 -19.1 -25.95 -21.75 -25.7 -22.3 M-89.55 -37.45 L-86.75 -39.05 -81.55 -34.65 -86.9 -31.8 -89.55 -37.45 M-17.9 -76.9 L-13.15 -74.05 -17.65 -70.2 -21.85 -73.4 -17.9 -76.9" fill="#999999" fill-rule="evenodd" stroke="none"/>
    <path d="M-95.25 -34.15 L-90.75 -28.95 -90.85 -28.7 -94.35 -23.75 -98.45 -30.1 -95.25 -34.15 M-27.35 -68.2 L-23.5 -72.35 -18.9 -68.9 -22.4 -65.05 -27.35 -68.2" fill="#dddddd" fill-rule="evenodd" stroke="none"/>
    <path d="M-82.9 -44.8 L-70.3 -52.0 -69.7 -50.5 -67.2 -47.65 -77.05 -43.1 -67.75 -33.3 -67.8 -33.25 -82.9 -44.8 M-95.25 -34.15 L-95.5 -37.1 -90.0 -31.45 -90.75 -28.95 -95.25 -34.15 M-101.8 -30.8 L-98.45 -30.1 -94.35 -23.75 -101.8 -30.8 M-44.5 -62.8 L-42.5 -61.6 -47.25 -59.5 -49.65 -63.1 -46.65 -64.1 -44.5 -62.8" fill="#cccccc" fill-rule="evenodd" stroke="none"/>
    <path d="M-117.85 -28.0 L-118.1 -30.2 -118.15 -30.5 -117.95 -30.5 -117.85 -28.0" fill="#5a2317" fill-rule="evenodd" stroke="none"/>
    <path d="M-20.05 -81.15 L1.2 -73.3 Q-18.75 -73.7 -20.2 -48.3 L-37.1 -58.4 -37.15 -58.9 Q-37.4 -74.5 -20.05 -81.15 M-17.9 -76.9 L-20.2 -78.35 -24.2 -75.15 -21.85 -73.4 -17.65 -70.2 -13.15 -74.05 -17.9 -76.9 M-23.5 -72.35 L-25.55 -74.0 -29.6 -69.7 -27.35 -68.2 -22.4 -65.05 -18.9 -68.9 -23.5 -72.35" fill="url(#gradient28)" fill-rule="evenodd" stroke="none"/>
    <path d="M-31.55 -83.0 L-31.5 -83.0 Q-28.55 -83.95 -21.7 -81.75 L-20.05 -81.15 Q-37.4 -74.5 -37.15 -58.9 -38.05 -66.85 -42.25 -71.65 -41.05 -74.75 -39.45 -76.25 L-35.6 -79.9 -32.7 -82.4 -31.55 -83.0" fill="url(#gradient29)" fill-rule="evenodd" stroke="none"/>
    <path d="M-32.75 -83.15 L-32.55 -83.15 -31.55 -83.0 -32.7 -82.4 -35.6 -79.9 -39.45 -76.25 Q-41.05 -74.75 -42.25 -71.65 -43.6 -68.35 -44.5 -62.8 L-46.65 -64.1 -47.35 -64.5 Q-44.75 -79.55 -32.75 -83.15" fill="url(#gradient30)" fill-rule="evenodd" stroke="none"/>
    <path d="M-37.15 -58.9 L-37.1 -58.4 -42.5 -61.6 -44.5 -62.8 Q-43.6 -68.35 -42.25 -71.65 -38.05 -66.85 -37.15 -58.9" fill="url(#gradient31)" fill-rule="evenodd" stroke="none"/>
    <path d="M-66.15 -61.15 L-62.5 -57.75 Q-60.55 -54.3 -59.95 -50.4 L-65.65 -52.2 Q-66.95 -56.65 -66.15 -61.15" fill="#77819f" fill-rule="evenodd" stroke="none"/>
    <path d="M-70.3 -52.0 L-71.0 -53.6 -65.65 -52.2 -59.95 -50.4 -49.6 -47.2 -40.6 -44.25 -40.6 -44.3 -39.95 -43.7 Q-38.3 -42.4 -37.2 -44.15 L-44.35 -55.1 -16.15 -43.25 -18.6 -42.7 Q-25.05 -41.0 -29.65 -38.2 -35.0 -34.95 -37.9 -30.25 L-43.05 -33.85 -38.35 -29.45 -39.85 -26.05 Q-41.15 -22.35 -41.2 -18.0 L-67.2 -47.65 -69.7 -50.5 -70.3 -52.0" fill="url(#gradient32)" fill-rule="evenodd" stroke="none"/>
    <path d="M-71.0 -53.6 L-80.6 -76.7 Q-73.35 -68.1 -66.15 -61.15 -66.95 -56.65 -65.65 -52.2 L-71.0 -53.6" fill="url(#gradient33)" fill-rule="evenodd" stroke="none"/>
    <path d="M-51.65 -65.8 L-51.2 -66.8 -47.35 -64.5 -46.65 -64.1 -49.65 -63.1 -51.65 -65.8" fill="#0066ff" fill-rule="evenodd" stroke="none"/>
    <path d="M-42.5 -61.6 L-37.1 -58.4 -20.2 -48.3 -12.85 -43.95 -16.15 -43.25 -44.35 -55.1 -47.25 -59.5 -42.5 -61.6" fill="url(#gradient34)" fill-rule="evenodd" stroke="none"/>
    <path d="M-62.5 -57.75 Q-56.0 -51.8 -49.6 -47.2 L-59.95 -50.4 Q-60.55 -54.3 -62.5 -57.75" fill="url(#gradient35)" fill-rule="evenodd" stroke="none"/>
    <path d="M-67.2 -47.65 L-41.2 -18.0 -40.95 -12.55 -48.45 -18.55 -48.8 -18.85 -48.85 -18.75 -57.8 -25.6 -67.15 -32.75 -67.75 -33.3 -77.05 -43.1 -67.2 -47.65" fill="url(#gradient36)" fill-rule="evenodd" stroke="none"/>
    <path d="M-84.8 7.8 L-95.1 -2.5 Q-96.0 -33.85 -67.8 -33.25 L-67.15 -32.75 -57.8 -25.6 Q-91.2 -22.0 -84.8 7.8" fill="url(#gradient37)" fill-rule="evenodd" stroke="none"/>
    <path d="M-49.05 -18.65 L-48.85 -18.75 -48.45 -18.55 -40.95 -12.55 -34.15 -7.2 -22.7 1.95 -60.7 27.55 -84.55 4.4 -80.25 1.6 -49.05 -18.65" fill="url(#gradient38)" fill-rule="evenodd" stroke="none"/>
    <path d="M-48.85 -18.75 L-49.05 -18.65 Q-74.2 -20.3 -80.25 1.6 L-84.55 4.4 -84.6 4.45 -84.8 7.8 Q-91.2 -22.0 -57.8 -25.6 L-48.85 -18.75" fill="url(#gradient39)" fill-rule="evenodd" stroke="none"/>
    <path d="M-41.2 -18.0 Q-41.15 -22.35 -39.85 -26.05 L-33.95 -21.7 Q-35.8 -15.5 -34.15 -7.2 L-40.95 -12.55 -41.2 -18.0" fill="url(#gradient40)" fill-rule="evenodd" stroke="none"/>
    <path d="M-6.05 -39.9 L-4.15 -38.75 12.5 -29.1 -7.8 -34.65 Q-19.45 -33.4 -25.7 -22.3 L-25.95 -21.75 -32.1 -26.2 Q-29.45 -30.9 -24.25 -34.1 L-24.1 -34.15 Q-19.75 -36.8 -13.6 -38.4 L-6.05 -39.9" fill="url(#gradient41)" fill-rule="evenodd" stroke="none"/>
    <path d="M-7.6 -40.85 L-6.05 -39.9 -13.6 -38.4 -18.6 -42.7 -16.15 -43.25 -12.85 -43.95 -7.6 -40.85" fill="url(#gradient42)" fill-rule="evenodd" stroke="none"/>
    <path d="M-29.65 -38.2 Q-25.05 -41.0 -18.6 -42.7 L-13.6 -38.4 Q-19.75 -36.8 -24.1 -34.15 L-24.25 -34.1 -29.65 -38.2" fill="url(#gradient43)" fill-rule="evenodd" stroke="none"/>
    <path d="M-39.85 -26.05 L-38.35 -29.45 -37.9 -30.25 Q-35.0 -34.95 -29.65 -38.2 L-24.25 -34.1 Q-29.45 -30.9 -32.1 -26.2 L-32.95 -24.45 -33.95 -21.7 -39.85 -26.05" fill="url(#gradient44)" fill-rule="evenodd" stroke="none"/>
    <path d="M-38.35 -29.45 L-43.05 -33.85 -37.9 -30.25 -38.35 -29.45 M-32.1 -26.2 L-25.95 -21.75 -27.3 -19.1 -32.95 -24.45 -32.1 -26.2" fill="#ff8176" fill-rule="evenodd" stroke="none"/>
    <path d="M-19.8 24.7 L-20.0 24.5 Q-19.8 20.95 -16.15 19.4 L-15.75 19.7 -2.5 28.9 Q-2.85 28.7 -3.25 28.65 -4.35 28.45 -5.65 29.2 -7.0 30.0 -7.75 31.25 -8.45 32.55 -8.15 33.65 L-8.1 33.95 -19.8 24.7" fill="url(#gradient45)" fill-rule="evenodd" stroke="none"/>
    <path d="M-7.25 34.7 L-6.8 35.15 Q-2.25 40.0 -1.5 45.9 -0.75 52.05 -4.95 55.65 -9.2 59.25 -14.15 57.45 L-36.3 44.05 Q-40.25 32.75 -33.25 28.5 -26.3 24.15 -24.5 23.45 -22.8 22.75 -20.05 24.5 L-19.8 24.7 -8.1 33.95 -7.65 34.45 -7.25 34.7 M-15.05 47.05 Q-16.65 49.6 -16.15 52.2 -15.7 54.75 -13.4 55.75 -11.15 56.75 -8.4 55.7 -5.65 54.55 -4.05 52.0 -2.5 49.45 -2.95 46.95 -3.4 44.4 -5.65 43.4 -7.95 42.4 -10.7 43.45 -13.45 44.55 -15.05 47.05" fill="url(#gradient46)" fill-rule="evenodd" stroke="none"/>
    <path d="M-60.7 27.55 L-22.7 1.95 -22.6 1.9 -15.85 14.95 -58.9 45.2 -59.25 44.9 -60.7 27.55" fill="url(#gradient47)" fill-rule="evenodd" stroke="none"/>
    <path d="M-59.2 45.65 Q-60.45 48.8 -46.5 59.1 L-59.65 66.7 -133.3 70.8 -139.1 60.9 -181.05 51.8 -181.9 41.65 -134.75 14.15 -133.6 13.5 -126.5 19.65 -96.25 3.0 Q-91.35 8.05 -85.15 13.45 L-85.25 15.0 -59.2 45.45 -59.2 45.65" fill="url(#gradient48)" fill-rule="evenodd" stroke="none"/>
    <path d="M-59.2 45.45 L-59.15 45.55 -59.2 45.65 -59.2 45.45" fill="url(#gradient49)" fill-rule="evenodd" stroke="none"/>
    <path d="M-85.15 13.45 L-84.8 7.9 -84.8 7.8 -84.6 4.45 -84.55 4.4 -60.7 27.55 -59.25 44.9 -59.2 45.45 -85.25 15.0 -85.15 13.45" fill="url(#gradient50)" fill-rule="evenodd" stroke="none"/>
    <path d="M-38.0 45.25 Q-34.6 48.6 -33.6 52.5 L-34.35 52.1 Q-35.4 51.9 -36.5 52.55 -37.65 53.25 -38.25 54.4 -38.9 55.65 -38.6 56.65 -38.4 57.35 -37.85 57.65 -38.9 59.05 -51.85 50.5 L-51.95 50.4 Q-56.1 44.4 -46.05 39.75 -41.1 42.3 -38.0 45.25" fill="url(#gradient51)" fill-rule="evenodd" stroke="none"/>
    <path d="M-103.05 -4.4 L-96.25 3.0 -126.5 19.65 -133.6 13.5 -132.75 12.95 -103.05 -4.4 M-115.7 4.95 L-112.05 8.55 -115.7 4.95 M-107.2 0.25 L-103.5 3.95 -107.2 0.25 M-110.1 1.85 L-106.4 5.5 -110.1 1.85 M-118.7 6.9 L-115.05 10.6 -118.7 6.9 M-112.8 3.35 L-109.15 7.0 -112.8 3.35 M-121.7 8.5 L-118.1 12.15 -121.7 8.5 M-124.75 10.1 L-121.1 13.75 -124.75 10.1" fill="url(#gradient52)" fill-rule="evenodd" stroke="none"/>
    <path d="M-49.05 -18.65 L-80.25 1.6 Q-74.2 -20.3 -49.05 -18.65" fill="url(#gradient53)" fill-rule="evenodd" stroke="none"/>
    <path d="M28.1 15.85 Q4.8 3.3 -10.2 -17.65 11.15 -4.65 28.1 15.85" fill="url(#gradient54)" fill-rule="evenodd" stroke="none"/>
    <path d="M71.1 -113.2 L71.85 -113.0 85.1 -109.7 77.6 -83.3 80.35 -78.45 67.7 -31.65 Q76.55 -25.15 76.25 -23.75 76.15 -22.55 73.4 -23.25 L80.55 -16.1 80.65 -16.0 Q82.25 -14.8 82.4 -12.75 82.6 -10.7 81.1 -8.9 79.6 -7.15 77.35 -6.75 75.35 -6.4 73.8 -7.25 65.25 -9.0 57.75 -12.0 55.55 -11.85 55.55 -10.15 L55.65 -9.55 Q55.7 -8.6 55.15 -7.75 54.45 -7.0 53.5 -6.8 L52.5 -6.85 52.2 -6.95 51.8 -7.15 47.65 -9.55 Q50.6 -6.55 51.8 -3.15 82.65 18.55 106.95 59.9 L121.75 76.25 120.15 76.15 144.85 95.7 145.95 96.35 146.3 96.8 Q147.05 97.85 147.2 99.35 147.3 101.2 146.45 102.65 145.5 104.2 144.1 104.45 142.95 104.65 142.05 103.95 L111.3 84.65 111.4 86.5 107.45 84.55 107.4 84.55 Q112.25 88.65 114.6 94.35 109.35 93.5 103.95 89.75 92.3 83.9 82.9 76.35 48.45 68.55 -3.4 33.65 L-4.25 34.3 Q-5.6 35.05 -6.7 34.85 L-7.25 34.7 -6.8 35.15 Q-2.25 40.0 -1.5 45.9 -0.75 52.05 -4.95 55.65 -9.2 59.25 -14.15 57.45 L-36.3 44.05 -38.0 45.25 Q-34.6 48.6 -33.6 52.5 -33.25 52.85 -33.05 53.45 -32.8 54.45 -33.35 55.6 -34.0 56.8 -35.15 57.5 -36.3 58.15 -37.3 57.9 L-37.85 57.65 Q-38.9 59.05 -51.85 50.5 L-51.95 50.4 -59.2 45.65 Q-60.45 48.8 -46.5 59.1 L-59.65 66.7 -133.3 70.8 M-183.2 25.6 L-129.75 -6.1 -120.1 0.5 -105.8 -7.75 Q-113.1 -16.6 -117.0 -24.4 L-116.95 -24.45 -117.8 -27.65 -117.85 -28.0 -118.1 -30.2 -118.15 -30.5 Q-120.55 -52.75 -99.8 -52.1 L-96.85 -51.95 -94.05 -51.7 -91.1 -51.0 -83.55 -45.25 -82.9 -44.8 -70.3 -52.0 -71.0 -53.6 -80.6 -76.7 -97.55 -117.05 -102.0 -128.35 -90.8 -124.35 -51.65 -65.8 -51.2 -66.8 Q-49.9 -70.95 -48.25 -74.05 L-46.75 -76.5 Q-45.35 -78.55 -43.75 -79.95 -39.15 -84.05 -32.75 -83.15 L-32.55 -83.15 -31.55 -83.0 -31.5 -83.0 Q-28.55 -83.95 -21.7 -81.75 L-20.05 -81.15 1.2 -73.3 5.8 -71.6 21.95 -80.9 14.0 -84.4 67.55 -114.4 71.1 -113.2 71.85 -112.95 53.5 -101.75 57.3 -99.0 29.1 -81.85 34.9 -79.0 16.5 -67.3 22.5 -64.65 23.0 -64.4 23.15 -64.35 Q51.15 -51.7 52.15 -48.25 L52.15 -48.2 59.2 -39.5 52.2 -34.5 53.95 -32.95 Q57.75 -38.05 73.4 -23.25 M29.1 -81.85 L25.2 -79.45 21.95 -80.9 M16.1 -67.5 L16.25 -67.4 16.5 -67.3 16.05 -67.35 Q-7.3 -63.9 -7.6 -40.85 L-6.05 -39.9 -4.15 -38.75 -4.5 -46.3 -2.55 -47.55 Q2.4 -63.1 22.5 -64.65 M16.1 -67.5 L13.75 -68.45 5.8 -71.35 5.55 -71.4 5.8 -71.6 M16.25 -67.4 L16.05 -67.35 M25.75 -30.7 L25.8 -30.7 52.15 -48.25 M25.75 -30.7 L25.8 -30.6 31.2 -19.2 31.8 -18.85 44.45 -28.55 45.65 -29.7 45.85 -29.6 52.2 -34.5 M25.75 -30.65 L25.8 -30.6 M31.2 -19.2 Q26.9 -21.7 22.15 -23.5 L21.85 -23.6 Q6.2 -29.5 -14.9 -28.65 28.2 -24.25 56.6 10.25 42.5 12.6 32.85 27.05 L32.7 27.05 32.6 27.05 Q19.35 27.55 8.95 21.85 -13.2 9.0 -19.05 -10.7 L-27.3 -19.1 -28.15 -17.0 -10.15 11.55 15.2 29.2 15.45 29.25 Q21.9 30.5 29.6 29.55 L83.2 59.0 Q68.55 50.4 54.7 37.2 77.55 46.85 96.05 65.75 L89.75 62.6 Q86.45 60.9 83.2 59.0 M56.65 10.05 L50.6 -0.95 Q44.3 -10.25 35.5 -16.4 L35.4 -16.5 31.8 -18.85 M35.4 -16.5 Q35.05 -21.0 38.2 -20.85 L54.3 -11.35 54.85 -11.05 Q55.3 -10.7 55.55 -10.15 M21.85 -23.6 L12.5 -29.1 -7.8 -34.65 Q-19.45 -33.4 -25.7 -22.3 L-20.25 -15.75 Q-21.0 -19.9 -21.1 -24.3 L-15.35 -28.6 -14.9 -28.65 M44.45 -28.55 L45.85 -29.6 71.15 -14.95 73.25 -15.15 74.05 -15.8 Q74.95 -16.8 75.6 -18.75 L53.95 -32.95 M50.6 -0.95 L47.9 -5.8 51.8 -3.15 M51.8 -7.15 Q51.0 -7.75 50.9 -8.7 50.85 -9.65 51.5 -10.45 52.1 -11.25 53.1 -11.4 L54.3 -11.35 M57.75 -12.0 Q52.95 -13.95 48.65 -16.35 38.3 -22.1 44.45 -28.55 M73.25 -15.15 L72.8 -14.65 Q71.3 -12.85 71.5 -10.75 71.65 -8.7 73.4 -7.5 L73.8 -7.25 M80.5 -16.05 L80.65 -16.0 M80.5 -16.05 Q78.8 -17.25 76.55 -16.85 75.15 -16.6 74.05 -15.8 M35.5 -16.4 L47.65 -9.55 M96.15 65.95 Q99.5 62.45 106.95 59.9 83.9 28.3 56.8 10.25 L56.7 10.25 56.6 10.25 M96.1 65.95 L96.15 65.95 M96.1 65.95 L95.95 66.05 Q91.0 71.25 95.25 78.35 L95.5 78.45 95.75 78.6 107.45 84.55 M95.3 78.4 L95.75 78.6 M95.25 78.35 Q89.4 77.85 82.9 76.35 M95.25 78.35 L95.3 78.4 95.5 78.45 M120.15 76.15 L119.8 76.15 Q110.1 76.0 111.3 84.65 M107.4 84.55 Q102.7 85.4 103.95 89.75 M141.25 97.0 Q142.1 95.8 143.35 95.55 L144.85 95.7 145.6 96.3 146.3 96.8 M141.25 97.0 L141.1 97.25 Q140.15 98.8 140.3 100.65 140.4 101.75 140.9 102.65 L142.05 103.9 142.05 103.95 M49.4 44.35 Q40.65 37.4 24.75 33.2 25.7 36.25 48.0 48.7 49.85 47.35 49.4 44.35 M56.8 10.25 L56.75 10.2 56.65 10.05 Q54.0 4.1 50.6 -0.95 M142.05 103.9 L141.7 103.65 141.6 103.55 141.1 103.0 140.9 102.65 M-86.6 -114.35 L-97.55 -117.05 M-86.6 -114.35 L-92.25 -122.9 -102.0 -128.35 M-86.75 -39.05 L-89.55 -37.45 -86.9 -31.8 -81.55 -34.65 -86.75 -39.05 -86.1 -41.65 -93.35 -38.25 -89.55 -37.45 M-95.5 -37.1 L-95.25 -34.15 -90.75 -28.95 -90.0 -31.45 -95.5 -37.1 -101.8 -30.8 -98.45 -30.1 -95.25 -34.15 M-90.75 -28.95 L-90.85 -28.7 -94.35 -23.75 -101.8 -30.8 M-86.1 -41.65 L-81.0 -36.6 -81.55 -34.65 M-86.9 -31.8 L-93.35 -38.25 M-96.85 -51.95 Q-102.05 -51.9 -106.4 -48.65 -117.85 -40.35 -117.95 -30.5 L-117.85 -28.0 M-115.35 -22.8 L-108.55 -16.0 Q-108.35 -41.35 -83.55 -45.25 M-117.0 -24.4 L-115.35 -22.8 Q-115.0 -42.15 -94.05 -51.7 M-105.8 -7.75 L-103.05 -4.4 -96.25 3.0 Q-91.35 8.05 -85.15 13.45 L-84.8 7.9 -84.8 7.8 -95.1 -2.5 -108.55 -16.0 M-98.45 -30.1 L-94.35 -23.75 M-21.85 -73.4 L-24.2 -75.15 -20.2 -78.35 -17.9 -76.9 -13.15 -74.05 -17.65 -70.2 -21.85 -73.4 -17.9 -76.9 M-42.25 -71.65 Q-41.05 -74.75 -39.45 -76.25 L-35.6 -79.9 -32.7 -82.4 -31.55 -83.0 M-23.5 -72.35 L-25.55 -74.0 -29.6 -69.7 -27.35 -68.2 -23.5 -72.35 -18.9 -68.9 -22.4 -65.05 -27.35 -68.2 M-37.1 -58.4 L-37.15 -58.9 Q-38.05 -66.85 -42.25 -71.65 -43.6 -68.35 -44.5 -62.8 L-42.5 -61.6 -37.1 -58.4 -20.2 -48.3 Q-18.75 -73.7 1.2 -73.3 M-20.05 -81.15 Q-37.4 -74.5 -37.15 -58.9 M-43.75 -79.95 L-41.8 -78.6 M-66.15 -61.15 L-62.5 -57.75 Q-56.0 -51.8 -49.6 -47.2 L-40.6 -44.25 -40.6 -44.3 -86.6 -114.35 M-65.65 -52.2 Q-66.95 -56.65 -66.15 -61.15 -73.35 -68.1 -80.6 -76.7 M-71.0 -53.6 L-65.65 -52.2 -59.95 -50.4 Q-60.55 -54.3 -62.5 -57.75 M-70.3 -52.0 L-69.7 -50.5 -67.2 -47.65 -41.2 -18.0 Q-41.15 -22.35 -39.85 -26.05 L-38.35 -29.45 -43.05 -33.85 -37.9 -30.25 Q-35.0 -34.95 -29.65 -38.2 -25.05 -41.0 -18.6 -42.7 L-16.15 -43.25 -44.35 -55.1 -37.2 -44.15 Q-38.3 -42.4 -39.95 -43.7 L-40.6 -44.3 M-47.35 -64.5 L-46.65 -64.1 -44.5 -62.8 M-46.65 -64.1 L-49.65 -63.1 -47.25 -59.5 -42.5 -61.6 M-47.25 -59.5 L-44.35 -55.1 M-51.2 -66.8 L-47.35 -64.5 Q-44.75 -79.55 -32.75 -83.15 M-51.65 -65.8 L-49.65 -63.1 M-67.8 -33.25 L-67.15 -32.75 -67.75 -33.3 -67.8 -33.25 Q-96.0 -33.85 -95.1 -2.5 M-67.75 -33.3 L-77.05 -43.1 -67.2 -47.65 M-48.85 -18.75 L-49.05 -18.65 -80.25 1.6 -84.55 4.4 -60.7 27.55 -22.7 1.95 -34.15 -7.2 -40.95 -12.55 -48.45 -18.55 -48.85 -18.75 -57.8 -25.6 Q-91.2 -22.0 -84.8 7.8 L-84.6 4.45 -84.55 4.4 M-48.45 -18.55 L-48.8 -18.85 -48.85 -18.75 M-41.2 -18.0 L-40.95 -12.55 M-67.15 -32.75 L-57.8 -25.6 M-12.85 -43.95 L-20.2 -48.3 M-16.15 -43.25 L-12.85 -43.95 -7.6 -40.85 M-13.6 -38.4 L-18.6 -42.7 M-6.05 -39.9 L-13.6 -38.4 Q-19.75 -36.8 -24.1 -34.15 L-24.25 -34.1 Q-29.45 -30.9 -32.1 -26.2 L-25.95 -21.75 -25.7 -22.3 M-37.9 -30.25 L-38.35 -29.45 M-29.65 -38.2 L-24.25 -34.1 M-32.95 -24.45 L-33.95 -21.7 Q-35.8 -15.5 -34.15 -7.2 M-25.95 -21.75 L-27.3 -19.1 -32.95 -24.45 -32.1 -26.2 M-20.25 -15.75 L-19.05 -10.7 M-33.95 -21.7 L-39.85 -26.05 M-49.6 -47.2 L-59.95 -50.4 M-82.9 -44.8 L-67.8 -33.25 M-20.0 24.5 L-19.8 24.7 -8.1 33.95 -8.15 33.65 Q-8.45 32.55 -7.75 31.25 -7.0 30.0 -5.65 29.2 -4.35 28.45 -3.25 28.65 -2.85 28.7 -2.5 28.9 L-15.75 19.7 -16.15 19.4 Q-19.8 20.95 -20.0 24.5 M-20.05 24.5 L-19.8 24.7 M-15.85 14.95 L-12.4 18.2 -15.75 19.7 M-15.85 14.95 L-22.6 1.9 -22.7 1.95 M-20.05 24.5 Q-22.8 22.75 -24.5 23.45 -26.3 24.15 -33.25 28.5 -40.25 32.75 -36.3 44.05 M-2.5 28.9 L-2.4 29.0 -2.3 29.05 Q-1.95 29.35 -1.8 29.95 -1.5 31.0 -2.2 32.25 L-3.4 33.65 M-7.25 34.7 L-7.65 34.45 -8.1 33.95 M-15.05 47.05 Q-16.65 49.6 -16.15 52.2 -15.7 54.75 -13.4 55.75 -11.15 56.75 -8.4 55.7 -5.65 54.55 -4.05 52.0 -2.5 49.45 -2.95 46.95 -3.4 44.4 -5.65 43.4 -7.95 42.4 -10.7 43.45 -13.45 44.55 -15.05 47.05 M-60.7 27.55 L-59.25 44.9 -58.9 45.2 -15.85 14.95 M-59.15 45.55 L-58.9 45.2 -59.2 45.45 -85.25 15.0 -85.15 13.45 M-59.15 45.55 L-59.2 45.65 M-59.2 45.45 L-59.25 44.9 M-37.85 57.65 Q-38.4 57.35 -38.6 56.65 -38.9 55.65 -38.25 54.4 -37.65 53.25 -36.5 52.55 -35.4 51.9 -34.35 52.1 L-33.6 52.5 M-38.0 45.25 Q-41.1 42.3 -46.05 39.75 -56.1 44.4 -51.95 50.4 M-132.75 12.95 L-134.75 14.15 -181.9 41.65 M-96.25 3.0 L-126.5 19.65 -133.6 13.5 M-80.25 1.6 Q-74.2 -20.3 -49.05 -18.65 M-132.75 12.95 L-103.05 -4.4 M-4.5 -46.3 L25.75 -30.65 M32.6 27.05 Q-3.6 10.3 -21.1 -24.3 M28.1 15.85 Q4.8 3.3 -10.2 -17.65 11.15 -4.65 28.1 15.85 M23.0 -64.4 L-2.55 -47.55 M-4.15 -38.75 L12.5 -29.1" fill="none" stroke="#000000" stroke-linecap="round" stroke-linejoin="round" stroke-width="1.0"/>
    <path d="M24.45 -75.7 L21.8 -78.1 M16.2 -70.55 L13.6 -73.0 M18.3 -71.85 L15.7 -74.25 M20.4 -73.0 L17.8 -75.45 M22.45 -74.5 L19.85 -76.95 M-109.15 7.0 L-112.8 3.35 M-115.05 10.6 L-118.7 6.9 M-106.4 5.5 L-110.1 1.85 M-103.5 3.95 L-107.2 0.25 M-112.05 8.55 L-115.7 4.95 M-121.1 13.75 L-124.75 10.1 M-118.1 12.15 L-121.7 8.5" fill="none" stroke="#0000ff" stroke-linecap="round" stroke-linejoin="round" stroke-width="1.0"/>
    <path d="M-133.3 70.8 L-139.1 60.9 -181.05 51.8 -181.9 41.65 -183.2 25.6" fill="none" stroke="#0d0d0d" stroke-linecap="round" stroke-linejoin="round" stroke-width="1.0"/>
  </g>
  <defs>
    <linearGradient gradientTransform="matrix(0.0065, 0.0187, 0.0406, -0.0296, 53.7, -80.0)" gradientUnits="userSpaceOnUse" id="gradient0" spreadMethod="pad" x1="-819.2" x2="819.2">
      <stop offset="0.0" stop-color="#00ccff"/>
      <stop offset="0.21568627450980393" stop-color="#0099cc"/>
      <stop offset="0.6196078431372549" stop-color="#2818d3"/>
      <stop offset="1.0" stop-color="#1d0e99"/>
    </linearGradient>
    <linearGradient gradientTransform="matrix(-0.001, -0.0034, -0.0161, 0.01, 20.75, -73.9)" gradientUnits="userSpaceOnUse" id="gradient1" spreadMethod="pad" x1="-819.2" x2="819.2">
      <stop offset="0.0" stop-color="#0099ff"/>
      <stop offset="1.0" stop-color="#00ffff"/>
    </linearGradient>
    <linearGradient gradientTransform="matrix(-0.0051, 0.0214, 0.0179, 0.0085, -3.9, -52.0)" gradientUnits="userSpaceOnUse" id="gradient2" spreadMethod="pad" x1="-819.2" x2="819.2">
      <stop offset="0.0" stop-color="#000066"/>
      <stop offset="0.16470588235294117" stop-color="#000099"/>
      <stop offset="0.403921568627451" stop-color="#0099ff"/>
      <stop offset="0.6862745098039216" stop-color="#000033"/>
      <stop offset="1.0" stop-color="#000000"/>
    </linearGradient>
    <linearGradient gradientTransform="matrix(-0.0046, 0.0201, 0.014, 0.0065, 6.75, -51.7)" gradientUnits="userSpaceOnUse" id="gradient3" spreadMethod="pad" x1="-819.2" x2="819.2">
      <stop offset="0.0" stop-color="#93b4c4"/>
      <stop offset="0.22745098039215686" stop-color="#1f222a"/>
      <stop offset="0.5490196078431373" stop-color="#f6f7fb"/>
      <stop offset="0.8784313725490196" stop-color="#40324d"/>
      <stop offset="1.0" stop-color="#6d598b"/>
    </linearGradient>
    <linearGradient gradientTransform="matrix(-0.0039, 0.0183, 0.0122, 0.0052, 9.15, -50.95)" gradientUnits="userSpaceOnUse" id="gradient4" spreadMethod="pad" x1="-819.2" x2="819.2">
      <stop offset="0.0" stop-color="#93b4c4"/>
      <stop offset="0.22745098039215686" stop-color="#1f222a"/>
      <stop offset="0.5490196078431373" stop-color="#f6f7fb"/>
      <stop offset="0.8784313725490196" stop-color="#40324d"/>
      <stop offset="1.0" stop-color="#6d598b"/>
    </linearGradient>
    <linearGradient gradientTransform="matrix(0.0021, 0.0247, 0.0341, -0.0065, 24.25, -41.65)" gradientUnits="userSpaceOnUse" id="gradient5" spreadMethod="pad" x1="-819.2" x2="819.2">
      <stop offset="0.0" stop-color="#ffffff"/>
      <stop offset="1.0" stop-color="#6577ab"/>
    </linearGradient>
    <linearGradient gradientTransform="matrix(0.0164, 0.0091, 0.0014, -0.0049, 10.85, -34.3)" gradientUnits="userSpaceOnUse" id="gradient6" spreadMethod="pad" x1="-819.2" x2="819.2">
      <stop offset="0.0" stop-color="#fbfed4"/>
      <stop offset="0.5294117647058824" stop-color="#ffffff"/>
      <stop offset="1.0" stop-color="#edab93"/>
    </linearGradient>
    <linearGradient gradientTransform="matrix(-0.0047, 0.0084, 0.0105, 0.0122, 45.9, -41.35)" gradientUnits="userSpaceOnUse" id="gradient7" spreadMethod="pad" x1="-819.2" x2="819.2">
      <stop offset="0.0" stop-color="#69779e"/>
      <stop offset="1.0" stop-color="#312127"/>
    </linearGradient>
    <radialGradient cx="0" cy="0" gradientTransform="matrix(-0.0644, 0.0117, 0.0075, 0.0922, 9.9, -25.3)" gradientUnits="userSpaceOnUse" id="gradient8" r="819.2" spreadMethod="pad">
      <stop offset="0.011764705882352941" stop-color="#f4bb6a"/>
      <stop offset="0.3607843137254902" stop-color="#a84330"/>
      <stop offset="0.7411764705882353" stop-color="#563f2e"/>
    </radialGradient>
    <linearGradient gradientTransform="matrix(9.0E-4, -0.003, -0.0107, -0.0068, 44.8, -15.15)" gradientUnits="userSpaceOnUse" id="gradient9" spreadMethod="pad" x1="-819.2" x2="819.2">
      <stop offset="0.0" stop-color="#b17185"/>
      <stop offset="0.4549019607843137" stop-color="#5d3f50"/>
      <stop offset="0.8313725490196079" stop-color="#ffffff"/>
    </linearGradient>
    <linearGradient gradientTransform="matrix(0.0014, -0.0046, -0.019, -0.0114, 58.55, -17.75)" gradientUnits="userSpaceOnUse" id="gradient10" spreadMethod="pad" x1="-819.2" x2="819.2">
      <stop offset="0.0" stop-color="#302a2f"/>
      <stop offset="0.4549019607843137" stop-color="#863438"/>
      <stop offset="0.8313725490196079" stop-color="#ffffff"/>
    </linearGradient>
    <linearGradient gradientTransform="matrix(-0.0032, 0.0074, 0.0388, 0.0335, 76.65, 28.7)" gradientUnits="userSpaceOnUse" id="gradient11" spreadMethod="pad" x1="-819.2" x2="819.2">
      <stop offset="0.0" stop-color="#0000cc"/>
      <stop offset="0.2627450980392157" stop-color="#2b1f66"/>
      <stop offset="0.6352941176470588" stop-color="#0099ff"/>
      <stop offset="0.8352941176470589" stop-color="#00ccff"/>
    </linearGradient>
    <linearGradient gradientTransform="matrix(6.0E-4, -0.0017, -0.016, -0.0108, 67.95, -26.6)" gradientUnits="userSpaceOnUse" id="gradient12" spreadMethod="pad" x1="-819.2" x2="819.2">
      <stop offset="0.0" stop-color="#b17185"/>
      <stop offset="0.4549019607843137" stop-color="#5d3f50"/>
      <stop offset="0.8313725490196079" stop-color="#ffffff"/>
    </linearGradient>
    <radialGradient cx="0" cy="0" gradientTransform="matrix(-0.0295, 0.0054, 0.0035, 0.0423, 76.55, 51.65)" gradientUnits="userSpaceOnUse" id="gradient13" r="819.2" spreadMethod="pad">
      <stop offset="0.0" stop-color="#ffffff"/>
      <stop offset="1.0" stop-color="#ffff99"/>
    </radialGradient>
    <linearGradient gradientTransform="matrix(0.0028, -0.0108, -0.0835, -0.0433, 27.45, 40.9)" gradientUnits="userSpaceOnUse" id="gradient14" spreadMethod="pad" x1="-819.2" x2="819.2">
      <stop offset="0.0" stop-color="#0000cc"/>
      <stop offset="0.2627450980392157" stop-color="#2b1f66"/>
      <stop offset="0.6352941176470588" stop-color="#0099ff"/>
      <stop offset="0.8352941176470589" stop-color="#00ccff"/>
    </linearGradient>
    <linearGradient gradientTransform="matrix(0.003, -0.0093, -0.0813, -0.0536, 27.2, 38.85)" gradientUnits="userSpaceOnUse" id="gradient15" spreadMethod="pad" x1="-819.2" x2="819.2">
      <stop offset="0.0" stop-color="#cf231d"/>
      <stop offset="0.2627450980392157" stop-color="#2b1f66"/>
      <stop offset="0.5333333333333333" stop-color="#b62e2c"/>
    </linearGradient>
    <linearGradient gradientTransform="matrix(-0.0027, 0.0072, 0.0145, 0.0109, 106.75, 75.45)" gradientUnits="userSpaceOnUse" id="gradient16" spreadMethod="pad" x1="-819.2" x2="819.2">
      <stop offset="0.0" stop-color="#131330"/>
      <stop offset="0.4549019607843137" stop-color="#ffffff"/>
      <stop offset="0.7294117647058823" stop-color="#883924"/>
      <stop offset="0.9372549019607843" stop-color="#c27873"/>
    </linearGradient>
    <linearGradient gradientTransform="matrix(-0.0058, 0.0151, 0.0774, 0.0602, 39.05, 22.2)" gradientUnits="userSpaceOnUse" id="gradient17" spreadMethod="pad" x1="-819.2" x2="819.2">
      <stop offset="0.10196078431372549" stop-color="#293163"/>
      <stop offset="0.3607843137254902" stop-color="#666666"/>
      <stop offset="0.7411764705882353" stop-color="#8291be"/>
      <stop offset="0.8901960784313725" stop-color="#ffffff"/>
    </linearGradient>
    <linearGradient gradientTransform="matrix(-8.0E-4, 0.0028, 0.0142, 0.0079, 94.7, 81.9)" gradientUnits="userSpaceOnUse" id="gradient18" spreadMethod="pad" x1="-819.2" x2="819.2">
      <stop offset="0.0" stop-color="#131330"/>
      <stop offset="0.4549019607843137" stop-color="#ffffff"/>
      <stop offset="0.7294117647058823" stop-color="#883924"/>
      <stop offset="0.9372549019607843" stop-color="#c27873"/>
    </linearGradient>
    <linearGradient gradientTransform="matrix(-0.0018, 0.0053, 0.0201, 0.0136, 128.65, 89.7)" gradientUnits="userSpaceOnUse" id="gradient19" spreadMethod="pad" x1="-819.2" x2="819.2">
      <stop offset="0.0" stop-color="#131330"/>
      <stop offset="0.4549019607843137" stop-color="#ffffff"/>
      <stop offset="0.7294117647058823" stop-color="#883924"/>
      <stop offset="0.9372549019607843" stop-color="#c27873"/>
    </linearGradient>
    <linearGradient gradientTransform="matrix(-9.0E-4, 0.0024, 0.0063, 0.005, 109.25, 90.4)" gradientUnits="userSpaceOnUse" id="gradient20" spreadMethod="pad" x1="-819.2" x2="819.2">
      <stop offset="0.0" stop-color="#131330"/>
      <stop offset="1.0" stop-color="#ffffff"/>
    </linearGradient>
    <linearGradient gradientTransform="matrix(-3.0E-4, 0.001, 0.015, 0.0084, 37.15, 39.5)" gradientUnits="userSpaceOnUse" id="gradient21" spreadMethod="pad" x1="-819.2" x2="819.2">
      <stop offset="0.0" stop-color="#a74a2e"/>
      <stop offset="1.0" stop-color="#fccc72"/>
    </linearGradient>
    <radialGradient cx="0" cy="0" gradientTransform="matrix(-0.0649, 0.0118, 0.0076, 0.093, -15.2, -7.0)" gradientUnits="userSpaceOnUse" id="gradient22" r="819.2" spreadMethod="pad">
      <stop offset="0.011764705882352941" stop-color="#f4bb6a"/>
      <stop offset="0.3607843137254902" stop-color="#a84330"/>
      <stop offset="0.7411764705882353" stop-color="#563f2e"/>
    </radialGradient>
    <linearGradient gradientTransform="matrix(0.0087, -0.0217, -0.0421, -0.0344, 19.55, -11.35)" gradientUnits="userSpaceOnUse" id="gradient23" spreadMethod="pad" x1="-819.2" x2="819.2">
      <stop offset="0.0" stop-color="#ffb926"/>
      <stop offset="0.4745098039215686" stop-color="#644300"/>
    </linearGradient>
    <linearGradient gradientTransform="matrix(0.0277, 0.0357, 0.0063, -0.0101, -70.2, -78.05)" gradientUnits="userSpaceOnUse" id="gradient24" spreadMethod="pad" x1="-819.2" x2="819.2">
      <stop offset="0.0" stop-color="#fff9bc"/>
      <stop offset="0.27450980392156865" stop-color="#b5b367"/>
      <stop offset="0.6784313725490196" stop-color="#66888c"/>
      <stop offset="0.9098039215686274" stop-color="#262d32"/>
    </linearGradient>
    <radialGradient cx="0" cy="0" gradientTransform="matrix(-0.02, 0.0036, 0.0023, 0.0287, -109.65, -43.65)" gradientUnits="userSpaceOnUse" id="gradient25" r="819.2" spreadMethod="pad">
      <stop offset="0.0" stop-color="#ffffff"/>
      <stop offset="1.0" stop-color="#8682a4"/>
    </radialGradient>
    <linearGradient gradientTransform="matrix(-0.0116, 0.023, 0.0097, 0.0099, -101.7, -33.0)" gradientUnits="userSpaceOnUse" id="gradient26" spreadMethod="pad" x1="-819.2" x2="819.2">
      <stop offset="0.0" stop-color="#000066"/>
      <stop offset="0.10980392156862745" stop-color="#261430"/>
      <stop offset="0.2235294117647059" stop-color="#000033"/>
      <stop offset="0.3686274509803922" stop-color="#000066"/>
      <stop offset="0.5568627450980392" stop-color="#00ccff"/>
      <stop offset="0.7254901960784313" stop-color="#fbfcfe"/>
      <stop offset="0.8745098039215686" stop-color="#2f2fe3"/>
      <stop offset="1.0" stop-color="#2b1f66"/>
    </linearGradient>
    <linearGradient gradientTransform="matrix(-0.0103, 0.0233, 0.0159, 0.0145, -90.55, -23.35)" gradientUnits="userSpaceOnUse" id="gradient27" spreadMethod="pad" x1="-819.2" x2="819.2">
      <stop offset="0.0" stop-color="#ffffff"/>
      <stop offset="0.16862745098039217" stop-color="#302e3c"/>
      <stop offset="0.403921568627451" stop-color="#3f355b"/>
      <stop offset="0.592156862745098" stop-color="#9bb5e6"/>
      <stop offset="0.7450980392156863" stop-color="#fbfcfe"/>
      <stop offset="0.8745098039215686" stop-color="#8aa7a3"/>
      <stop offset="1.0" stop-color="#ffffff"/>
    </linearGradient>
    <linearGradient gradientTransform="matrix(-0.0043, 0.0184, 0.0197, 0.0092, -18.95, -63.95)" gradientUnits="userSpaceOnUse" id="gradient28" spreadMethod="pad" x1="-819.2" x2="819.2">
      <stop offset="0.0" stop-color="#93b4c4"/>
      <stop offset="0.22745098039215686" stop-color="#1f222a"/>
      <stop offset="0.5490196078431373" stop-color="#f6f7fb"/>
      <stop offset="0.8784313725490196" stop-color="#40324d"/>
      <stop offset="1.0" stop-color="#6d598b"/>
    </linearGradient>
    <linearGradient gradientTransform="matrix(-0.0034, 0.0186, 0.0117, 0.0043, -33.25, -65.5)" gradientUnits="userSpaceOnUse" id="gradient29" spreadMethod="pad" x1="-819.2" x2="819.2">
      <stop offset="0.0" stop-color="#000066"/>
      <stop offset="0.16470588235294117" stop-color="#000099"/>
      <stop offset="0.403921568627451" stop-color="#0099ff"/>
      <stop offset="0.6862745098039216" stop-color="#000033"/>
      <stop offset="1.0" stop-color="#000000"/>
    </linearGradient>
    <linearGradient gradientTransform="matrix(-0.0038, 0.0137, 0.0057, 0.0032, -40.0, -72.15)" gradientUnits="userSpaceOnUse" id="gradient30" spreadMethod="pad" x1="-819.2" x2="819.2">
      <stop offset="0.0" stop-color="#93b4c4"/>
      <stop offset="0.22745098039215686" stop-color="#1f222a"/>
      <stop offset="0.5490196078431373" stop-color="#f6f7fb"/>
      <stop offset="0.8784313725490196" stop-color="#40324d"/>
      <stop offset="1.0" stop-color="#6d598b"/>
    </linearGradient>
    <radialGradient cx="0" cy="0" gradientTransform="matrix(-0.0117, 0.0021, 0.0014, 0.0167, -42.3, -69.9)" gradientUnits="userSpaceOnUse" id="gradient31" r="819.2" spreadMethod="pad">
      <stop offset="0.0" stop-color="#00ccff"/>
      <stop offset="1.0" stop-color="#000099"/>
    </radialGradient>
    <linearGradient gradientTransform="matrix(-0.0048, 0.0132, 0.0283, 0.0207, -46.0, -41.5)" gradientUnits="userSpaceOnUse" id="gradient32" spreadMethod="pad" x1="-819.2" x2="819.2">
      <stop offset="0.0" stop-color="#000099"/>
      <stop offset="0.5176470588235295" stop-color="#0066ff"/>
      <stop offset="0.984313725490196" stop-color="#000099"/>
    </linearGradient>
    <radialGradient cx="0" cy="0" gradientTransform="matrix(-0.0159, 0.0029, 0.0019, 0.0227, -72.55, -62.0)" gradientUnits="userSpaceOnUse" id="gradient33" r="819.2" spreadMethod="pad">
      <stop offset="0.0" stop-color="#00ffff"/>
      <stop offset="1.0" stop-color="#00ccff"/>
    </radialGradient>
    <radialGradient cx="0" cy="0" gradientTransform="matrix(-0.0397, 0.0072, 0.0047, 0.0568, -16.15, -45.6)" gradientUnits="userSpaceOnUse" id="gradient34" r="819.2" spreadMethod="pad">
      <stop offset="0.0" stop-color="#000099"/>
      <stop offset="1.0" stop-color="#0066ff"/>
    </radialGradient>
    <radialGradient cx="0" cy="0" gradientTransform="matrix(-0.0307, 0.0056, 0.0036, 0.044, -72.55, -62.4)" gradientUnits="userSpaceOnUse" id="gradient35" r="819.2" spreadMethod="pad">
      <stop offset="0.0" stop-color="#00ffff"/>
      <stop offset="1.0" stop-color="#00ccff"/>
    </radialGradient>
    <radialGradient cx="0" cy="0" gradientTransform="matrix(-0.0475, 0.0087, 0.0056, 0.0681, -42.75, -16.4)" gradientUnits="userSpaceOnUse" id="gradient36" r="819.2" spreadMethod="pad">
      <stop offset="0.0" stop-color="#000099"/>
      <stop offset="1.0" stop-color="#0066ff"/>
    </radialGradient>
    <linearGradient gradientTransform="matrix(-0.0096, 0.0224, 0.0143, 0.0125, -78.65, -14.65)" gradientUnits="userSpaceOnUse" id="gradient37" spreadMethod="pad" x1="-819.2" x2="819.2">
      <stop offset="0.0" stop-color="#000066"/>
      <stop offset="0.10980392156862745" stop-color="#261430"/>
      <stop offset="0.2235294117647059" stop-color="#000033"/>
      <stop offset="0.3686274509803922" stop-color="#000066"/>
      <stop offset="0.5568627450980392" stop-color="#00ccff"/>
      <stop offset="0.7254901960784313" stop-color="#fbfcfe"/>
      <stop offset="0.8745098039215686" stop-color="#2f2fe3"/>
      <stop offset="1.0" stop-color="#2b1f66"/>
    </linearGradient>
    <linearGradient gradientTransform="matrix(-0.0086, 0.0347, 0.0333, 0.0166, -56.1, 12.6)" gradientUnits="userSpaceOnUse" id="gradient38" spreadMethod="pad" x1="-819.2" x2="819.2">
      <stop offset="0.0" stop-color="#ffffff"/>
      <stop offset="1.0" stop-color="#6577ab"/>
    </linearGradient>
    <linearGradient gradientTransform="matrix(-0.0112, 0.0227, 0.0128, 0.0128, -69.55, -8.75)" gradientUnits="userSpaceOnUse" id="gradient39" spreadMethod="pad" x1="-819.2" x2="819.2">
      <stop offset="0.0" stop-color="#ffffff"/>
      <stop offset="0.16862745098039217" stop-color="#302e3c"/>
      <stop offset="0.403921568627451" stop-color="#3f355b"/>
      <stop offset="0.592156862745098" stop-color="#9bb5e6"/>
      <stop offset="0.7450980392156863" stop-color="#fbfcfe"/>
      <stop offset="0.8745098039215686" stop-color="#8aa7a3"/>
      <stop offset="1.0" stop-color="#ffffff"/>
    </linearGradient>
    <radialGradient cx="0" cy="0" gradientTransform="matrix(-0.0105, 0.0019, 0.0012, 0.015, -40.7, -13.85)" gradientUnits="userSpaceOnUse" id="gradient40" r="819.2" spreadMethod="pad">
      <stop offset="0.0" stop-color="#cccccc"/>
      <stop offset="1.0" stop-color="#333333"/>
    </radialGradient>
    <radialGradient cx="0" cy="0" gradientTransform="matrix(-0.0481, 0.0088, 0.0056, 0.0689, -27.25, -28.8)" gradientUnits="userSpaceOnUse" id="gradient41" r="819.2" spreadMethod="pad">
      <stop offset="0.0" stop-color="#00ccff"/>
      <stop offset="1.0" stop-color="#000066"/>
    </radialGradient>
    <radialGradient cx="0" cy="0" gradientTransform="matrix(-0.0139, 0.0025, 0.0016, 0.0199, -7.35, -40.35)" gradientUnits="userSpaceOnUse" id="gradient42" r="819.2" spreadMethod="pad">
      <stop offset="0.0" stop-color="#cccccc"/>
      <stop offset="1.0" stop-color="#333333"/>
    </radialGradient>
    <radialGradient cx="0" cy="0" gradientTransform="matrix(-0.0171, 0.0031, 0.002, 0.0245, -27.8, -38.45)" gradientUnits="userSpaceOnUse" id="gradient43" r="819.2" spreadMethod="pad">
      <stop offset="0.0" stop-color="#cccccc"/>
      <stop offset="1.0" stop-color="#333333"/>
    </radialGradient>
    <radialGradient cx="0" cy="0" gradientTransform="matrix(-0.0158, 0.0029, 0.0018, 0.0226, -29.6, -37.35)" gradientUnits="userSpaceOnUse" id="gradient44" r="819.2" spreadMethod="pad">
      <stop offset="0.0" stop-color="#cccccc"/>
      <stop offset="1.0" stop-color="#333333"/>
    </radialGradient>
    <linearGradient gradientTransform="matrix(-0.0014, 0.0035, 0.009, 0.0073, -11.75, 27.45)" gradientUnits="userSpaceOnUse" id="gradient45" spreadMethod="pad" x1="-819.2" x2="819.2">
      <stop offset="0.0" stop-color="#19110c"/>
      <stop offset="0.30196078431372547" stop-color="#6b5850"/>
      <stop offset="0.5490196078431373" stop-color="#ffffff"/>
      <stop offset="0.807843137254902" stop-color="#90904c"/>
    </linearGradient>
    <linearGradient gradientTransform="matrix(-0.0063, 0.0143, 0.019, 0.017, -19.1, 41.25)" gradientUnits="userSpaceOnUse" id="gradient46" spreadMethod="pad" x1="-819.2" x2="819.2">
      <stop offset="0.0" stop-color="#a83835"/>
      <stop offset="0.1411764705882353" stop-color="#19110c"/>
      <stop offset="0.30196078431372547" stop-color="#412e68"/>
      <stop offset="0.6078431372549019" stop-color="#f9f7ec"/>
      <stop offset="0.807843137254902" stop-color="#90904c"/>
      <stop offset="0.8823529411764706" stop-color="#423624"/>
    </linearGradient>
    <linearGradient gradientTransform="matrix(-0.0059, 0.0126, 0.0165, 0.0157, -33.9, 11.75)" gradientUnits="userSpaceOnUse" id="gradient47" spreadMethod="pad" x1="-819.2" x2="819.2">
      <stop offset="0.0" stop-color="#69779e"/>
      <stop offset="1.0" stop-color="#312127"/>
    </linearGradient>
    <linearGradient gradientTransform="matrix(0.0148, 0.049, -0.0694, 0.0377, -115.3, 50.25)" gradientUnits="userSpaceOnUse" id="gradient48" spreadMethod="pad" x1="-819.2" x2="819.2">
      <stop offset="0.0" stop-color="#00ccff"/>
      <stop offset="0.21568627450980393" stop-color="#0099cc"/>
      <stop offset="0.6196078431372549" stop-color="#2818d3"/>
      <stop offset="1.0" stop-color="#1d0e99"/>
    </linearGradient>
    <linearGradient gradientTransform="matrix(0.0077, 0.0314, 0.0519, -0.0267, -101.35, 30.65)" gradientUnits="userSpaceOnUse" id="gradient49" spreadMethod="pad" x1="-819.2" x2="819.2">
      <stop offset="0.0" stop-color="#00ccff"/>
      <stop offset="0.21568627450980393" stop-color="#0099cc"/>
      <stop offset="0.6196078431372549" stop-color="#2818d3"/>
      <stop offset="1.0" stop-color="#1d0e99"/>
    </linearGradient>
    <radialGradient cx="0" cy="0" gradientTransform="matrix(-0.0277, 0.0051, 0.0033, 0.0397, -68.3, 27.25)" gradientUnits="userSpaceOnUse" id="gradient50" r="819.2" spreadMethod="pad">
      <stop offset="0.0" stop-color="#ffff99"/>
      <stop offset="1.0" stop-color="#ffffff"/>
    </radialGradient>
    <linearGradient gradientTransform="matrix(-0.0026, 0.0063, 0.01, 0.0086, -43.5, 49.55)" gradientUnits="userSpaceOnUse" id="gradient51" spreadMethod="pad" x1="-819.2" x2="819.2">
      <stop offset="0.0" stop-color="#a83835"/>
      <stop offset="0.1411764705882353" stop-color="#19110c"/>
      <stop offset="0.30196078431372547" stop-color="#412e68"/>
      <stop offset="0.6078431372549019" stop-color="#f9f7ec"/>
      <stop offset="0.807843137254902" stop-color="#90904c"/>
      <stop offset="0.8823529411764706" stop-color="#423624"/>
    </linearGradient>
    <linearGradient gradientTransform="matrix(-0.001, -0.0032, -0.0206, 0.0134, -114.7, 9.05)" gradientUnits="userSpaceOnUse" id="gradient52" spreadMethod="pad" x1="-819.2" x2="819.2">
      <stop offset="0.0" stop-color="#0099ff"/>
      <stop offset="1.0" stop-color="#00ffff"/>
    </linearGradient>
    <linearGradient gradientTransform="matrix(-0.0129, 0.0153, 0.0045, 0.0078, -67.1, -8.05)" gradientUnits="userSpaceOnUse" id="gradient53" spreadMethod="pad" x1="-819.2" x2="819.2">
      <stop offset="0.0" stop-color="#000000"/>
      <stop offset="0.3176470588235294" stop-color="#726b94"/>
      <stop offset="0.5254901960784314" stop-color="#ffffff"/>
      <stop offset="0.7411764705882353" stop-color="#8da5cc"/>
      <stop offset="0.9411764705882353" stop-color="#2a3a37"/>
    </linearGradient>
    <radialGradient cx="0" cy="0" gradientTransform="matrix(-0.0291, 0.0053, 0.0034, 0.0417, 7.8, -1.8)" gradientUnits="userSpaceOnUse" id="gradient54" r="819.2" spreadMethod="pad">
      <stop offset="0.0" stop-color="#ffffff"/>
      <stop offset="1.0" stop-color="#ffff99"/>
    </radialGradient>
  </defs>
</svg>
