<?xml version="1.0" encoding="UTF-8" standalone="no"?>
<svg xmlns:ffdec="https://www.free-decompiler.com/flash" xmlns:xlink="http://www.w3.org/1999/xlink" ffdec:objectType="shape" height="350.0px" width="300.0px" xmlns="http://www.w3.org/2000/svg">
  <g transform="matrix(1.0, 0.0, 0.0, 1.0, 150.0, 175.0)">
    <path d="M39.4 -57.2 L12.7 -159.85 -29.8 -62.65 -132.0 -90.8 -69.2 -5.5 -144.6 69.0 -39.2 57.15 -12.5 159.8 30.0 62.6 132.25 90.8 69.35 5.4 144.8 -69.05 39.4 -57.2 M150.0 175.0 L-150.0 175.0 -150.0 -175.0 150.0 -175.0 150.0 175.0" fill="#d428e6" fill-rule="evenodd" stroke="none"/>
    <path d="M39.4 -57.2 L144.8 -69.05 69.35 5.4 132.25 90.8 30.0 62.6 -12.5 159.8 -39.2 57.15 -144.6 69.0 -69.2 -5.5 -132.0 -90.8 -29.8 -62.65 12.7 -159.85 39.4 -57.2" fill="#f445ff" fill-rule="evenodd" stroke="none"/>
  </g>
</svg>
