<?xml version="1.0" encoding="UTF-8" standalone="no"?>
<svg xmlns:ffdec="https://www.free-decompiler.com/flash" xmlns:xlink="http://www.w3.org/1999/xlink" ffdec:objectType="shape" height="225.2px" width="319.4px" xmlns="http://www.w3.org/2000/svg">
  <g transform="matrix(1.0, 0.0, 0.0, 1.0, 163.45, -64.0)">
    <path d="M90.4 116.2 Q111.3 105.05 139.3 82.6 L155.45 88.6 Q104.55 150.25 110.55 162.1 79.8 142.7 49.05 126.3 56.35 128.1 66.3 125.8 L67.9 125.4 Q74.0 123.8 81.0 120.75 L85.35 118.75 90.4 116.2 M-141.8 72.75 Q-125.85 61.1 -89.95 67.6 L-87.1 82.85 -141.8 72.75 M48.35 113.65 L55.5 116.85 55.0 121.25 40.25 115.25 35.5 119.25 Q20.15 111.35 4.8 104.25 L22.7 109.05 30.4 105.95 48.35 113.65" fill="#500650" fill-rule="evenodd" stroke="none"/>
    <path d="M-40.5 72.2 L-36.55 73.35 -6.6 81.9 19.2 81.0 32.9 64.5 59.5 78.85 78.9 107.4 Q76.1 105.5 73.25 103.85 66.75 99.9 60.2 97.15 L54.8 95.05 Q51.05 93.75 47.35 92.8 36.45 90.0 25.35 90.2 18.25 91.75 23.65 96.75 35.7 107.9 48.35 113.65 L30.4 105.95 22.7 109.05 4.8 104.25 Q-16.05 94.5 -36.95 86.2 L-36.95 86.15 -40.5 72.2" fill="url(#gradient0)" fill-rule="evenodd" stroke="none"/>
    <path d="M48.35 113.65 Q35.7 107.9 23.65 96.75 18.25 91.75 25.35 90.2 36.45 90.0 47.35 92.8 56.35 102.85 55.5 116.85 L48.35 113.65" fill="url(#gradient1)" fill-rule="evenodd" stroke="none"/>
    <path d="M67.9 125.4 L66.3 125.8 62.4 124.25 Q65.1 106.6 54.8 95.05 L60.2 97.15 Q70.2 108.4 67.9 125.4 M96.15 180.45 Q108.85 195.45 106.25 218.25 L99.85 215.2 Q102.3 192.65 89.7 177.75 L96.15 180.45" fill="#e212e2" fill-rule="evenodd" stroke="none"/>
    <path d="M47.35 92.8 Q51.05 93.75 54.8 95.05 65.1 106.6 62.4 124.25 L55.0 121.25 55.5 116.85 Q56.35 102.85 47.35 92.8" fill="url(#gradient2)" fill-rule="evenodd" stroke="none"/>
    <path d="M17.1 210.45 L16.85 210.4 16.7 210.35 Q16.2 209.95 16.05 208.8 15.9 207.6 16.15 206.3 16.45 204.95 17.05 204.3 17.6 203.6 18.15 203.95 18.6 204.3 18.75 205.5 18.9 206.7 18.65 208.05 L17.8 210.0 17.1 210.45 M-7.7 190.15 L-7.9 190.05 Q-8.45 189.65 -8.6 188.5 L-8.6 188.45 Q-8.8 187.15 -8.5 185.85 -8.2 184.5 -7.6 183.85 L-7.35 183.5 -7.2 183.45 -7.05 183.35 -6.45 183.45 Q-5.95 183.85 -5.8 185.1 -5.65 186.35 -5.95 187.7 -6.25 189.0 -6.8 189.75 -7.25 190.25 -7.7 190.15 M78.9 107.4 L78.9 107.45 Q83.35 112.5 85.35 118.75 L81.0 120.75 Q79.65 111.1 73.25 103.85 76.1 105.5 78.9 107.4" fill="#000000" fill-rule="evenodd" stroke="none"/>
    <path d="M81.0 120.75 Q74.0 123.8 67.9 125.4 70.2 108.4 60.2 97.15 66.75 99.9 73.25 103.85 79.65 111.1 81.0 120.75" fill="url(#gradient3)" fill-rule="evenodd" stroke="none"/>
    <path d="M66.3 125.8 Q56.35 128.1 49.05 126.3 42.3 122.7 35.5 119.25 L40.25 115.25 55.0 121.25 62.4 124.25 66.3 125.8 M38.6 144.15 Q57.0 150.7 78.95 159.7 L46.75 153.9 38.6 144.15" fill="#999999" fill-rule="evenodd" stroke="none"/>
    <path d="M110.55 162.1 L113.75 164.2 102.25 163.0 78.95 159.7 Q57.0 150.7 38.6 144.15 -0.15 130.45 -23.1 127.8 -21.55 134.95 -51.4 127.45 -79.5 116.7 -107.45 101.7 -120.4 94.8 -133.25 86.95 L-136.0 85.35 Q-142.8 80.6 -143.85 77.25 -144.45 75.45 -143.3 74.1 L-142.45 73.25 -141.8 72.75 -87.1 82.85 -89.95 67.6 -83.2 69.0 Q-84.35 70.1 -85.0 71.8 -86.75 77.35 -81.85 79.25 -62.5 89.6 -45.3 93.85 -33.4 96.8 -22.55 96.85 -30.2 90.95 -36.95 86.2 -16.05 94.5 4.8 104.25 20.15 111.35 35.5 119.25 42.3 122.7 49.05 126.3 79.8 142.7 110.55 162.1" fill="url(#gradient4)" fill-rule="evenodd" stroke="none"/>
    <path d="M47.6 208.9 Q18.85 203.2 3.9 196.8 1.25 189.15 3.25 183.2 14.15 185.15 34.8 193.25 L46.35 202.05 Q45.85 205.5 47.6 208.9" fill="url(#gradient5)" fill-rule="evenodd" stroke="none"/>
    <path d="M3.9 196.8 Q-3.65 193.55 -7.7 190.15 -7.25 190.25 -6.8 189.75 -6.25 189.0 -5.95 187.7 -5.65 186.35 -5.8 185.1 -5.95 183.85 -6.45 183.45 L-7.05 183.35 Q-4.1 181.9 3.25 183.2 1.25 189.15 3.9 196.8" fill="url(#gradient6)" fill-rule="evenodd" stroke="none"/>
    <path d="M-8.6 188.5 L-19.5 183.2 -16.45 169.4 30.65 190.05 34.8 193.25 Q14.15 185.15 3.25 183.2 -4.1 181.9 -7.05 183.35 L-7.2 183.45 -7.35 183.5 -7.6 183.85 Q-8.2 184.5 -8.5 185.85 -8.8 187.15 -8.6 188.45 L-8.6 188.5" fill="#4f084f" fill-rule="evenodd" stroke="none"/>
    <path d="M130.15 235.0 L140.55 239.35 Q148.4 260.0 152.3 279.7 154.5 290.75 145.0 288.25 L129.1 283.9 Q120.25 281.5 113.1 272.7 L76.55 227.85 70.75 220.7 57.9 210.85 46.35 202.05 34.8 193.25 30.65 190.05 -22.65 149.4 -51.4 127.45 Q-25.2 137.45 1.2 143.75 25.55 149.6 46.75 153.9 L54.55 163.15 78.85 173.05 Q63.1 167.25 52.7 168.7 42.3 170.15 56.25 185.3 70.15 200.4 92.75 208.7 L92.6 211.8 99.85 215.2 106.25 218.25 119.85 224.75 123.75 226.55 125.45 227.75 Q129.7 231.0 129.7 234.8 L130.15 235.0" fill="url(#gradient7)" fill-rule="evenodd" stroke="none"/>
    <path d="M102.25 163.0 L105.6 170.9 Q92.9 165.8 97.85 181.2 L96.15 180.45 89.7 177.75 78.85 173.05 54.55 163.15 46.75 153.9 78.95 159.7 102.25 163.0 M125.45 227.75 L123.75 226.55 Q129.8 205.55 113.85 189.25 132.25 201.55 125.45 227.75" fill="#666666" fill-rule="evenodd" stroke="none"/>
    <path d="M92.75 208.7 Q70.15 200.4 56.25 185.3 42.3 170.15 52.7 168.7 63.1 167.25 78.85 173.05 92.65 185.35 92.75 208.7" fill="url(#gradient8)" fill-rule="evenodd" stroke="none"/>
    <path d="M46.75 153.9 Q25.55 149.6 1.2 143.75 -25.2 137.45 -51.4 127.45 -21.55 134.95 -23.1 127.8 -0.15 130.45 38.6 144.15 L46.75 153.9" fill="#f010f0" fill-rule="evenodd" stroke="none"/>
    <path d="M78.9 107.45 Q84.7 111.35 90.4 116.2 L85.35 118.75 Q83.35 112.5 78.9 107.45" fill="url(#gradient9)" fill-rule="evenodd" stroke="none"/>
    <path d="M97.85 181.2 L110.95 186.9 112.35 188.6 Q123.6 203.7 119.85 224.75 L106.25 218.25 Q108.85 195.45 96.15 180.45 L97.85 181.2" fill="url(#gradient10)" fill-rule="evenodd" stroke="none"/>
    <path d="M112.35 188.6 L113.85 189.25 Q129.8 205.55 123.75 226.55 L119.85 224.75 Q123.6 203.7 112.35 188.6" fill="#101010" fill-rule="evenodd" stroke="none"/>
    <path d="M89.7 177.75 Q102.3 192.65 99.85 215.2 L92.6 211.8 92.75 208.7 Q92.65 185.35 78.85 173.05 L89.7 177.75" fill="url(#gradient11)" fill-rule="evenodd" stroke="none"/>
    <path d="M113.85 189.25 Q121.2 188.2 131.15 199.6 141.05 210.95 138.85 224.25 136.6 237.5 130.15 235.0 L129.7 234.8 Q129.7 231.0 125.45 227.75 132.25 201.55 113.85 189.25" fill="url(#gradient12)" fill-rule="evenodd" stroke="none"/>
    <path d="M57.9 210.85 L47.6 208.9 Q45.85 205.5 46.35 202.05 L57.9 210.85" fill="url(#gradient13)" fill-rule="evenodd" stroke="none"/>
    <path d="M76.55 227.85 L17.1 210.45 17.8 210.0 18.65 208.05 Q18.9 206.7 18.75 205.5 18.6 204.3 18.15 203.95 L70.75 220.7 76.55 227.85" fill="url(#gradient14)" fill-rule="evenodd" stroke="none"/>
    <path d="M-25.15 160.5 L-22.65 149.4 -18.55 162.55 -25.15 160.5 M-42.75 82.2 L-40.5 72.2 -36.95 86.15 -42.75 82.2" fill="#3f083f" fill-rule="evenodd" stroke="none"/>
    <path d="M-36.55 73.35 L-35.4 69.15 -6.6 81.9 -36.55 73.35 M30.65 190.05 L-16.45 169.4 -18.55 162.55 -22.65 149.4 30.65 190.05" fill="#cb0ccb" fill-rule="evenodd" stroke="none"/>
    <path d="M-83.2 69.0 Q-74.95 60.65 -42.75 82.2 L-36.95 86.15 -36.95 86.2 Q-30.2 90.95 -22.55 96.85 -33.4 96.8 -45.3 93.85 -62.5 89.6 -81.85 79.25 -86.75 77.35 -85.0 71.8 -84.35 70.1 -83.2 69.0" fill="url(#gradient15)" fill-rule="evenodd" stroke="none"/>
    <path d="M-143.85 77.25 L-162.3 70.05 Q-163.9 67.15 -161.65 67.05 L-143.3 74.1 Q-144.45 75.45 -143.85 77.25" fill="url(#gradient16)" fill-rule="evenodd" stroke="none"/>
    <path d="M-107.45 101.7 L-124.15 98.15 -125.35 94.5 -149.8 87.25 Q-153.6 84.15 -150.45 82.7 L-133.25 86.95 Q-120.4 94.8 -107.45 101.7" fill="url(#gradient17)" fill-rule="evenodd" stroke="none"/>
    <path d="M-19.5 183.2 L-25.15 160.5 -18.55 162.55 -16.45 169.4 -19.5 183.2" fill="#bb09bb" fill-rule="evenodd" stroke="none"/>
    <path d="M90.4 116.2 Q111.3 105.05 139.3 82.6 L155.45 88.6 Q104.55 150.25 110.55 162.1 L113.75 164.2 102.25 163.0 105.6 170.9 Q92.9 165.8 97.85 181.2 L110.95 186.9 112.35 188.6 113.85 189.25 Q121.2 188.2 131.15 199.6 141.05 210.95 138.85 224.25 136.6 237.5 130.15 235.0 L140.55 239.35 Q148.4 260.0 152.3 279.7 154.5 290.75 145.0 288.25 L129.1 283.9 Q120.25 281.5 113.1 272.7 L76.55 227.85 17.1 210.45 16.85 210.4 16.7 210.35 Q16.2 209.95 16.05 208.8 15.9 207.6 16.15 206.3 16.45 204.95 17.05 204.3 17.6 203.6 18.15 203.95 L70.75 220.7 57.9 210.85 47.6 208.9 Q18.85 203.2 3.9 196.8 -3.65 193.55 -7.7 190.15 L-7.9 190.05 Q-8.45 189.65 -8.6 188.5 L-19.5 183.2 -25.15 160.5 -22.65 149.4 -51.4 127.45 Q-79.5 116.7 -107.45 101.7 L-124.15 98.15 -125.35 94.5 -149.8 87.25 Q-153.6 84.15 -150.45 82.7 L-133.25 86.95 -136.0 85.35 Q-142.8 80.6 -143.85 77.25 L-162.3 70.05 Q-163.9 67.15 -161.65 67.05 L-143.3 74.1 -142.45 73.25 -141.8 72.75 Q-125.85 61.1 -89.95 67.6 L-83.2 69.0 Q-74.95 60.65 -42.75 82.2 L-40.5 72.2 -36.55 73.35 -35.4 69.15 -6.6 81.9 19.2 81.0 32.9 64.5 59.5 78.85 78.9 107.4 78.9 107.45 Q84.7 111.35 90.4 116.2 L85.35 118.75 81.0 120.75 Q74.0 123.8 67.9 125.4 L66.3 125.8 Q56.35 128.1 49.05 126.3 79.8 142.7 110.55 162.1 M48.35 113.65 Q35.7 107.9 23.65 96.75 18.25 91.75 25.35 90.2 36.45 90.0 47.35 92.8 51.05 93.75 54.8 95.05 L60.2 97.15 Q66.75 99.9 73.25 103.85 76.1 105.5 78.9 107.4 M81.0 120.75 Q79.65 111.1 73.25 103.85 M55.5 116.85 L48.35 113.65 30.4 105.95 22.7 109.05 4.8 104.25 Q20.15 111.35 35.5 119.25 L40.25 115.25 55.0 121.25 55.5 116.85 Q56.35 102.85 47.35 92.8 M62.4 124.25 L66.3 125.8 M55.0 121.25 L62.4 124.25 Q65.1 106.6 54.8 95.05 M3.25 183.2 Q1.25 189.15 3.9 196.8 M34.8 193.25 L30.65 190.05 -16.45 169.4 -19.5 183.2 M3.25 183.2 Q14.15 185.15 34.8 193.25 L46.35 202.05 57.9 210.85 M92.75 208.7 Q70.15 200.4 56.25 185.3 42.3 170.15 52.7 168.7 63.1 167.25 78.85 173.05 L54.55 163.15 46.75 153.9 Q25.55 149.6 1.2 143.75 -25.2 137.45 -51.4 127.45 -21.55 134.95 -23.1 127.8 -0.15 130.45 38.6 144.15 57.0 150.7 78.95 159.7 L102.25 163.0 M46.75 153.9 L78.95 159.7 M38.6 144.15 L46.75 153.9 M49.05 126.3 Q42.3 122.7 35.5 119.25 M97.85 181.2 L96.15 180.45 Q108.85 195.45 106.25 218.25 L119.85 224.75 Q123.6 203.7 112.35 188.6 M96.15 180.45 L89.7 177.75 Q102.3 192.65 99.85 215.2 L106.25 218.25 M89.7 177.75 L78.85 173.05 Q92.65 185.35 92.75 208.7 L92.6 211.8 99.85 215.2 M67.9 125.4 Q70.2 108.4 60.2 97.15 M78.9 107.45 Q83.35 112.5 85.35 118.75 M125.45 227.75 L123.75 226.55 119.85 224.75 M125.45 227.75 Q129.7 231.0 129.7 234.8 L130.15 235.0 M47.6 208.9 Q45.85 205.5 46.35 202.05 M76.55 227.85 L70.75 220.7 M18.15 203.95 Q18.6 204.3 18.75 205.5 18.9 206.7 18.65 208.05 L17.8 210.0 17.1 210.45 M123.75 226.55 Q129.8 205.55 113.85 189.25 132.25 201.55 125.45 227.75 M-36.95 86.15 L-36.95 86.2 Q-16.05 94.5 4.8 104.25 M-36.55 73.35 L-6.6 81.9 M-36.95 86.2 Q-30.2 90.95 -22.55 96.85 -33.4 96.8 -45.3 93.85 -62.5 89.6 -81.85 79.25 -86.75 77.35 -85.0 71.8 -84.35 70.1 -83.2 69.0 M-36.95 86.15 L-40.5 72.2 M-42.75 82.2 L-36.95 86.15 M-143.3 74.1 Q-144.45 75.45 -143.85 77.25 M-89.95 67.6 L-87.1 82.85 -141.8 72.75 M-18.55 162.55 L-16.45 169.4 M-22.65 149.4 L30.65 190.05 M-7.05 183.35 L-6.45 183.45 Q-5.95 183.85 -5.8 185.1 -5.65 186.35 -5.95 187.7 -6.25 189.0 -6.8 189.75 -7.25 190.25 -7.7 190.15 M-8.6 188.5 L-8.6 188.45 Q-8.8 187.15 -8.5 185.85 -8.2 184.5 -7.6 183.85 L-7.35 183.5 -7.2 183.45 -7.05 183.35 Q-4.1 181.9 3.25 183.2 M-22.65 149.4 L-18.55 162.55 -25.15 160.5 M-133.25 86.95 Q-120.4 94.8 -107.45 101.7" fill="none" stroke="#000000" stroke-linecap="round" stroke-linejoin="round" stroke-width="1.0"/>
  </g>
  <defs>
    <linearGradient gradientTransform="matrix(0.0692, 0.0031, -0.006, -0.0298, 18.8, 88.1)" gradientUnits="userSpaceOnUse" id="gradient0" spreadMethod="pad" x1="-819.2" x2="819.2">
      <stop offset="0.050980392156862744" stop-color="#000000"/>
      <stop offset="0.4" stop-color="#700370"/>
      <stop offset="0.6941176470588235" stop-color="#cb10cb"/>
      <stop offset="0.9490196078431372" stop-color="#fd6cfd"/>
    </linearGradient>
    <radialGradient cx="0" cy="0" gradientTransform="matrix(-0.0403, -0.029, -0.0104, 0.0469, 22.25, 94.05)" gradientUnits="userSpaceOnUse" id="gradient1" r="819.2" spreadMethod="pad">
      <stop offset="0.06274509803921569" stop-color="#fd6cfd"/>
      <stop offset="0.4823529411764706" stop-color="#cb10cb"/>
      <stop offset="0.9137254901960784" stop-color="#700370"/>
    </radialGradient>
    <linearGradient gradientTransform="matrix(-1.0E-4, -0.0132, -0.0095, -0.0036, 55.15, 104.05)" gradientUnits="userSpaceOnUse" id="gradient2" spreadMethod="pad" x1="-819.2" x2="819.2">
      <stop offset="0.0" stop-color="#000000"/>
      <stop offset="0.38823529411764707" stop-color="#ab9986"/>
      <stop offset="0.6666666666666666" stop-color="#ab9986"/>
      <stop offset="1.0" stop-color="#000000"/>
    </linearGradient>
    <linearGradient gradientTransform="matrix(-1.0E-4, -0.0138, -0.0126, -0.0048, 70.55, 109.75)" gradientUnits="userSpaceOnUse" id="gradient3" spreadMethod="pad" x1="-819.2" x2="819.2">
      <stop offset="0.0" stop-color="#000000"/>
      <stop offset="0.38823529411764707" stop-color="#ab9986"/>
      <stop offset="0.6666666666666666" stop-color="#ab9986"/>
      <stop offset="1.0" stop-color="#000000"/>
    </linearGradient>
    <linearGradient gradientTransform="matrix(-2.0E-4, -0.0286, -0.1574, -0.06, -15.2, 117.85)" gradientUnits="userSpaceOnUse" id="gradient4" spreadMethod="pad" x1="-819.2" x2="819.2">
      <stop offset="0.050980392156862744" stop-color="#000000"/>
      <stop offset="0.4" stop-color="#700370"/>
      <stop offset="0.7294117647058823" stop-color="#cb10cb"/>
      <stop offset="1.0" stop-color="#fd6cfd"/>
    </linearGradient>
    <linearGradient gradientTransform="matrix(-5.0E-4, -0.0091, -0.0274, -0.0083, 24.85, 196.55)" gradientUnits="userSpaceOnUse" id="gradient5" spreadMethod="pad" x1="-819.2" x2="819.2">
      <stop offset="0.0" stop-color="#131330"/>
      <stop offset="0.4549019607843137" stop-color="#ffffff"/>
      <stop offset="0.7294117647058823" stop-color="#883924"/>
      <stop offset="0.9372549019607843" stop-color="#c27873"/>
    </linearGradient>
    <linearGradient gradientTransform="matrix(7.0E-4, 0.0084, 0.0072, 0.0019, -2.1, 188.55)" gradientUnits="userSpaceOnUse" id="gradient6" spreadMethod="pad" x1="-819.2" x2="819.2">
      <stop offset="0.0" stop-color="#a83835"/>
      <stop offset="0.1450980392156863" stop-color="#19110c"/>
      <stop offset="0.30196078431372547" stop-color="#412e68"/>
      <stop offset="0.611764705882353" stop-color="#f9f7ec"/>
      <stop offset="0.8117647058823529" stop-color="#90904c"/>
      <stop offset="0.8823529411764706" stop-color="#423624"/>
    </linearGradient>
    <linearGradient gradientTransform="matrix(0.0484, -0.0438, -0.0828, -0.1348, 56.05, 202.0)" gradientUnits="userSpaceOnUse" id="gradient7" spreadMethod="pad" x1="-819.2" x2="819.2">
      <stop offset="0.050980392156862744" stop-color="#000000"/>
      <stop offset="0.4" stop-color="#700370"/>
      <stop offset="0.6941176470588235" stop-color="#cb10cb"/>
      <stop offset="0.9490196078431372" stop-color="#fd6cfd"/>
    </linearGradient>
    <radialGradient cx="0" cy="0" gradientTransform="matrix(-0.0533, -0.0383, -0.0138, 0.0621, 49.7, 174.85)" gradientUnits="userSpaceOnUse" id="gradient8" r="819.2" spreadMethod="pad">
      <stop offset="0.06274509803921569" stop-color="#fd6cfd"/>
      <stop offset="0.4823529411764706" stop-color="#cb10cb"/>
      <stop offset="0.9137254901960784" stop-color="#700370"/>
    </radialGradient>
    <linearGradient gradientTransform="matrix(0.0, 0.0053, 0.007, 0.0027, 84.65, 113.95)" gradientUnits="userSpaceOnUse" id="gradient9" spreadMethod="pad" x1="-819.2" x2="819.2">
      <stop offset="0.0" stop-color="#000000"/>
      <stop offset="0.38823529411764707" stop-color="#ab9986"/>
      <stop offset="0.6666666666666666" stop-color="#ab9986"/>
      <stop offset="1.0" stop-color="#000000"/>
    </linearGradient>
    <linearGradient gradientTransform="matrix(-1.0E-4, -0.0179, -0.015, -0.0057, 108.4, 198.55)" gradientUnits="userSpaceOnUse" id="gradient10" spreadMethod="pad" x1="-819.2" x2="819.2">
      <stop offset="0.0" stop-color="#000000"/>
      <stop offset="0.38823529411764707" stop-color="#ab9986"/>
      <stop offset="0.6666666666666666" stop-color="#ab9986"/>
      <stop offset="1.0" stop-color="#000000"/>
    </linearGradient>
    <linearGradient gradientTransform="matrix(-1.0E-4, -0.0183, -0.013, -0.005, 89.5, 189.9)" gradientUnits="userSpaceOnUse" id="gradient11" spreadMethod="pad" x1="-819.2" x2="819.2">
      <stop offset="0.0" stop-color="#000000"/>
      <stop offset="0.38823529411764707" stop-color="#ab9986"/>
      <stop offset="0.6666666666666666" stop-color="#ab9986"/>
      <stop offset="1.0" stop-color="#000000"/>
    </linearGradient>
    <linearGradient gradientTransform="matrix(-1.0E-4, -0.0189, -0.0155, -0.0059, 126.65, 206.35)" gradientUnits="userSpaceOnUse" id="gradient12" spreadMethod="pad" x1="-819.2" x2="819.2">
      <stop offset="0.0" stop-color="#000000"/>
      <stop offset="0.38823529411764707" stop-color="#ab9986"/>
      <stop offset="0.6666666666666666" stop-color="#ab9986"/>
      <stop offset="1.0" stop-color="#000000"/>
    </linearGradient>
    <linearGradient gradientTransform="matrix(-2.0E-4, -0.004, -0.007, -0.0022, 52.15, 207.1)" gradientUnits="userSpaceOnUse" id="gradient13" spreadMethod="pad" x1="-819.2" x2="819.2">
      <stop offset="0.0" stop-color="#a83835"/>
      <stop offset="0.1450980392156863" stop-color="#19110c"/>
      <stop offset="0.30196078431372547" stop-color="#412e68"/>
      <stop offset="0.611764705882353" stop-color="#f9f7ec"/>
      <stop offset="0.8117647058823529" stop-color="#90904c"/>
      <stop offset="0.8823529411764706" stop-color="#423624"/>
    </linearGradient>
    <linearGradient gradientTransform="matrix(-2.0E-4, -0.0042, -0.0363, -0.0112, 46.65, 216.1)" gradientUnits="userSpaceOnUse" id="gradient14" spreadMethod="pad" x1="-819.2" x2="819.2">
      <stop offset="0.0" stop-color="#131330"/>
      <stop offset="0.4549019607843137" stop-color="#ffffff"/>
      <stop offset="0.7294117647058823" stop-color="#883924"/>
      <stop offset="0.9372549019607843" stop-color="#c27873"/>
    </linearGradient>
    <radialGradient cx="0" cy="0" gradientTransform="matrix(1.0E-4, 0.0226, 0.0657, 0.0253, -77.05, 70.7)" gradientUnits="userSpaceOnUse" id="gradient15" r="819.2" spreadMethod="pad">
      <stop offset="0.0" stop-color="#ffd700"/>
      <stop offset="0.3215686274509804" stop-color="#804000"/>
      <stop offset="0.5333333333333333" stop-color="#000000"/>
      <stop offset="0.7333333333333333" stop-color="#391d00"/>
      <stop offset="0.9372549019607843" stop-color="#000000"/>
    </radialGradient>
    <linearGradient gradientTransform="matrix(0.0, -0.0022, -0.0116, -0.0044, -152.8, 72.05)" gradientUnits="userSpaceOnUse" id="gradient16" spreadMethod="pad" x1="-819.2" x2="819.2">
      <stop offset="0.0" stop-color="#131330"/>
      <stop offset="0.4549019607843137" stop-color="#ffffff"/>
      <stop offset="0.7294117647058823" stop-color="#883924"/>
      <stop offset="0.9372549019607843" stop-color="#c27873"/>
    </linearGradient>
    <linearGradient gradientTransform="matrix(-3.0E-4, -0.0052, -0.0261, -0.008, -129.0, 92.55)" gradientUnits="userSpaceOnUse" id="gradient17" spreadMethod="pad" x1="-819.2" x2="819.2">
      <stop offset="0.0" stop-color="#a83835"/>
      <stop offset="0.1450980392156863" stop-color="#19110c"/>
      <stop offset="0.30196078431372547" stop-color="#412e68"/>
      <stop offset="0.611764705882353" stop-color="#f9f7ec"/>
      <stop offset="0.8117647058823529" stop-color="#90904c"/>
      <stop offset="0.8823529411764706" stop-color="#423624"/>
    </linearGradient>
  </defs>
</svg>
