<?xml version="1.0" encoding="UTF-8" standalone="no"?>
<svg xmlns:ffdec="https://www.free-decompiler.com/flash" xmlns:xlink="http://www.w3.org/1999/xlink" ffdec:objectType="shape" height="346.6px" width="372.1px" xmlns="http://www.w3.org/2000/svg">
  <g transform="matrix(1.0, 0.0, 0.0, 1.0, 186.05, 173.55)">
    <path d="M-128.05 21.35 L-128.05 -32.5 -125.9 -33.6 -125.05 -33.9 Q-123.85 -34.25 -123.65 -33.5 L-123.5 -33.1 -122.1 -33.0 -119.85 -34.75 -119.45 -35.3 -119.45 -35.65 Q-120.1 -36.55 -120.15 -37.75 -120.2 -38.75 -119.8 -39.25 L-119.3 -39.55 Q-118.05 -39.7 -117.1 -38.95 L-116.6 -38.5 -116.4 -40.5 Q-116.1 -41.75 -115.1 -41.95 -113.7 -42.15 -113.6 -41.0 L-113.7 -40.55 Q-114.1 -39.9 -114.1 -38.75 L-112.1 -39.25 Q-111.85 -39.25 -111.75 -39.35 L-111.5 -39.6 Q-110.5 -40.5 -109.55 -42.25 L-109.5 -42.5 -109.55 -42.75 -109.75 -43.1 -110.1 -43.3 -111.35 -43.75 Q-112.2 -44.1 -111.65 -44.8 L-111.4 -45.25 Q-111.15 -46.35 -109.9 -45.9 -109.1 -45.65 -108.65 -46.15 L-109.05 -46.35 -109.6 -46.75 -110.4 -47.4 -111.0 -47.85 -111.8 -49.0 -111.75 -49.3 -106.6 -49.55 -106.15 -49.4 -105.1 -48.25 Q-104.75 -49.5 -103.85 -50.5 L-103.3 -50.85 -103.05 -50.8 Q-101.15 -50.0 -100.05 -48.25 L-99.85 -48.1 -98.75 -47.7 -97.6 -47.55 -96.1 -47.95 -95.7 -48.1 -93.8 -49.15 Q-92.8 -49.6 -92.1 -50.5 L-91.85 -50.65 Q-91.1 -50.75 -90.4 -51.35 L-89.35 -51.0 -87.85 -50.0 -86.85 -49.2 -86.7 -49.0 Q-86.45 -47.4 -85.4 -46.9 L-84.8 -46.65 -83.6 -46.6 -83.1 -46.7 -82.1 -46.5 -81.2 -45.2 -80.35 -44.25 -79.95 -43.7 Q-79.55 -42.85 -78.85 -42.8 -77.8 -42.75 -76.85 -43.2 -75.5 -43.8 -74.8 -42.8 L-74.45 -42.2 -73.9 -41.0 Q-73.55 -40.3 -73.05 -40.05 L-71.85 -40.0 -71.35 -40.7 -70.85 -41.05 -68.9 -41.25 -68.2 -41.15 Q-67.7 -40.95 -67.75 -40.5 L-67.9 -37.5 -67.8 -37.1 -67.45 -36.9 -66.15 -35.75 -66.05 -35.5 Q-66.05 -35.25 -66.2 -35.1 L-67.05 -33.95 -67.25 -33.55 Q-67.7 -32.6 -67.65 -31.5 L-67.2 -31.6 -65.85 -32.05 -63.15 -32.65 -60.65 -33.1 -60.4 -33.15 -60.1 -33.15 -59.6 -31.75 -59.2 -30.0 -59.05 -29.65 -58.4 -29.5 -56.4 -29.7 Q-54.6 -29.95 -54.85 -28.0 L-55.0 -27.3 -55.25 -26.2 -55.15 -24.5 -54.9 -24.7 -54.05 -25.4 -53.4 -25.75 Q-52.25 -25.85 -51.4 -25.0 L-51.1 -24.8 -49.5 -23.45 Q-48.65 -22.4 -47.65 -23.0 L-47.15 -23.1 Q-46.0 -23.1 -45.15 -23.55 L-44.4 -23.95 Q-42.9 -24.7 -41.15 -25.05 -40.8 -25.1 -40.55 -25.4 -39.55 -26.5 -40.05 -28.05 L-40.05 -28.35 Q-38.8 -29.3 -36.9 -29.95 L-36.55 -30.1 -36.35 -30.75 -36.3 -31.25 Q-36.3 -32.3 -35.9 -33.25 L-35.55 -33.65 -35.2 -33.85 -34.65 -34.0 Q-33.55 -33.95 -33.65 -32.5 L-33.2 -33.05 -32.35 -33.9 Q-31.1 -34.85 -29.7 -35.35 L-29.05 -35.85 -28.35 -36.95 Q-27.75 -38.05 -28.65 -39.0 -29.25 -39.6 -28.65 -40.25 L-28.35 -40.8 Q-28.2 -42.0 -27.65 -43.0 -27.3 -43.7 -27.3 -44.5 L-27.1 -44.8 -24.15 -45.55 Q-23.8 -45.6 -23.55 -45.9 -22.4 -47.3 -21.65 -49.0 L-21.7 -49.8 Q-21.5 -50.35 -20.65 -50.55 L-19.95 -50.85 Q-19.0 -51.5 -17.65 -51.5 L-12.65 -51.25 -12.2 -51.35 -8.9 -53.75 -8.7 -53.25 -8.55 -52.8 -8.2 -51.5 -8.1 -51.25 -4.9 -51.5 -4.45 -51.8 -3.15 -53.0 -2.9 -53.15 1.85 -52.8 2.2 -52.85 3.0 -54.05 3.15 -54.25 4.85 -54.5 5.5 -54.65 6.2 -55.2 6.6 -55.5 8.85 -56.1 9.1 -56.2 9.5 -56.55 10.1 -58.0 10.3 -58.3 Q10.75 -59.6 12.1 -59.75 L12.2 -58.75 12.2 -58.25 Q12.2 -57.35 12.85 -57.35 13.9 -57.25 14.35 -56.75 15.2 -55.75 16.35 -55.45 L17.05 -55.2 17.85 -54.8 18.9 -54.75 19.1 -54.9 Q20.15 -55.05 21.1 -55.55 L21.25 -55.75 Q21.3 -56.75 21.85 -57.5 L22.1 -57.65 Q23.2 -58.0 24.1 -58.75 L24.35 -58.95 25.95 -58.85 Q25.7 -58.3 26.1 -58.25 27.05 -58.4 27.85 -58.95 L28.15 -59.3 Q28.35 -60.0 28.85 -60.3 L29.0 -60.5 29.25 -61.15 29.4 -61.55 29.9 -62.75 30.15 -62.95 33.85 -64.3 34.35 -64.35 Q35.6 -64.25 35.35 -62.75 L35.85 -63.05 36.1 -63.15 36.75 -63.4 38.1 -63.95 Q38.8 -64.1 38.9 -64.45 L39.1 -64.7 39.55 -65.05 40.6 -66.25 40.75 -66.5 40.75 -66.95 40.1 -68.0 39.55 -68.35 Q38.65 -68.75 39.4 -69.7 39.75 -70.2 40.85 -70.05 L41.25 -69.9 43.35 -68.5 43.5 -69.25 43.7 -70.75 Q43.85 -72.35 45.1 -72.75 45.1 -71.65 45.55 -70.7 L45.8 -70.0 Q46.05 -68.65 47.35 -68.75 L48.05 -68.85 48.9 -69.15 49.3 -69.35 49.9 -69.7 50.15 -70.05 50.2 -70.5 50.2 -70.75 Q50.05 -71.35 50.15 -72.0 L50.4 -72.4 Q51.3 -73.05 52.55 -73.2 L53.0 -73.15 55.85 -71.6 56.75 -71.15 57.35 -70.85 57.7 -70.85 Q58.9 -71.9 60.3 -71.25 L60.6 -70.95 61.2 -68.5 61.45 -67.8 61.7 -67.2 61.9 -66.95 Q62.95 -66.6 63.8 -67.25 L64.05 -67.35 Q65.3 -67.25 65.95 -66.4 L66.65 -65.6 67.25 -65.2 Q68.15 -64.65 68.35 -64.85 L69.15 -65.45 70.4 -66.8 Q71.0 -67.8 71.8 -68.25 L75.15 -70.85 75.3 -71.0 75.25 -70.75 Q75.15 -70.2 75.55 -70.25 76.85 -70.85 77.9 -71.6 L78.05 -71.75 78.35 -71.3 78.6 -70.7 Q78.8 -69.5 80.05 -69.2 L80.95 -69.25 80.95 -69.95 80.0 -73.0 79.85 -73.5 Q79.55 -75.1 81.05 -75.0 L81.35 -75.1 82.05 -77.05 82.1 -77.25 82.2 -77.75 Q82.4 -78.95 83.5 -79.6 85.15 -78.75 85.35 -78.2 L85.65 -76.75 Q85.8 -75.85 86.15 -75.65 87.05 -75.05 88.3 -75.25 89.2 -75.4 89.75 -76.05 L90.1 -76.45 90.55 -76.65 92.05 -76.4 92.85 -75.55 Q92.9 -75.35 93.1 -75.3 94.4 -74.75 95.8 -74.85 L96.05 -74.85 96.3 -74.85 Q97.1 -74.8 96.95 -74.0 96.8 -73.0 97.55 -73.0 L99.6 -73.4 100.05 -73.55 100.25 -73.6 101.05 -73.95 Q102.5 -74.65 103.15 -73.55 L103.35 -72.95 Q103.95 -70.5 101.55 -69.5 L100.85 -69.2 Q99.9 -68.6 100.1 -67.5 100.15 -67.25 100.35 -67.15 L101.05 -67.05 Q105.8 -67.4 110.55 -67.25 L111.2 -67.1 113.3 -65.5 Q114.6 -64.4 115.1 -62.75 L115.55 -62.35 118.25 -62.85 119.55 -62.95 120.2 -62.65 120.65 -61.75 Q120.9 -60.15 122.05 -59.0 L122.6 -58.7 Q123.15 -58.65 123.55 -58.25 L124.2 -57.45 124.45 -56.5 124.6 -54.25 Q124.65 -53.2 125.15 -52.55 L125.35 -52.2 Q125.6 -51.0 125.0 -50.0 L124.9 -49.75 124.9 -46.25 Q124.9 -46.0 125.15 -45.85 126.05 -45.2 127.3 -45.05 127.65 -45.0 127.85 -45.2 L129.25 -46.35 129.85 -47.1 Q130.1 -47.75 130.8 -48.25 L134.0 -50.1 135.3 -50.4 Q136.6 -50.35 136.85 -49.0 137.2 -46.7 139.55 -47.1 141.0 -47.3 141.05 -46.25 L141.15 -45.55 141.4 -44.95 Q141.95 -43.8 142.75 -42.75 L143.0 -42.6 143.5 -42.7 Q144.35 -43.0 145.05 -43.4 L145.3 -43.4 145.85 -42.3 146.05 -41.7 146.15 -41.45 146.4 -40.25 146.6 -38.5 Q146.6 -38.1 146.85 -37.85 L147.2 -37.85 Q148.2 -38.5 149.5 -38.2 L149.75 -38.0 Q149.85 -36.6 150.3 -35.25 L150.45 -34.75 Q150.8 -33.3 152.25 -33.25 L152.7 -33.15 Q153.7 -32.65 154.05 -31.5 L153.45 -31.1 Q152.7 -30.25 153.0 -28.8 L150.05 -29.6 Q148.2 -29.95 147.65 -28.45 L146.55 -25.0 149.1 -24.65 150.05 -24.5 Q148.6 -22.45 146.05 -20.65 L145.3 -20.15 145.0 -19.5 Q144.75 -17.7 146.05 -17.3 L147.05 -17.2 148.55 -16.95 Q152.3 -15.4 154.75 -18.35 L155.55 -18.95 Q156.7 -19.45 157.2 -19.85 158.2 -20.7 159.55 -20.9 L161.05 -21.0 158.55 -17.5 Q157.4 -15.85 158.25 -13.2 L159.05 -13.0 161.1 -13.3 162.5 -13.7 166.1 -14.85 Q166.9 -15.15 167.3 -15.85 L168.05 -16.4 Q168.35 -15.25 169.2 -14.75 170.05 -14.25 170.6 -14.1 172.75 -13.6 174.15 -14.4 174.35 -12.95 175.05 -12.25 L175.05 7.25 174.75 7.25 174.45 7.45 Q174.0 7.95 174.0 8.5 L174.1 10.05 173.95 10.3 173.5 10.25 171.4 10.4 Q171.1 10.65 171.1 11.0 170.95 12.75 169.7 13.4 169.05 13.7 168.9 13.25 L168.75 13.0 Q168.0 12.15 167.55 11.1 L167.3 11.1 165.65 11.85 165.05 12.0 Q164.6 10.9 164.8 9.5 164.85 9.1 164.3 9.2 L163.3 9.3 Q161.2 9.45 161.65 11.75 L161.75 12.05 Q161.9 12.5 161.5 12.65 L160.3 13.05 Q159.2 13.3 158.45 13.9 L157.9 14.25 157.3 14.25 Q156.7 14.05 156.9 13.55 L157.45 12.2 157.6 11.55 157.0 11.35 155.8 11.1 Q154.4 11.05 154.35 10.0 L154.1 7.8 Q154.05 7.65 153.8 7.6 152.15 7.4 151.25 8.65 151.05 8.9 151.0 9.25 150.7 10.75 149.3 10.65 147.9 10.55 147.55 11.5 L147.25 12.0 147.15 12.25 Q147.05 12.9 147.25 13.5 147.55 14.6 146.9 15.25 146.5 15.65 146.05 15.7 L144.75 15.35 142.15 15.45 142.05 15.75 Q142.05 16.6 141.4 17.0 L140.6 17.35 138.55 17.85 138.3 18.0 Q137.6 19.05 137.4 20.25 137.3 20.9 137.35 21.5 L137.3 23.5 137.05 24.0 Q136.4 24.6 136.3 25.75 135.6 26.5 135.65 28.0 L135.65 28.5 135.55 30.75 133.45 28.6 133.1 28.2 Q132.55 27.8 131.75 28.45 130.85 29.25 130.0 28.1 L129.85 27.85 129.6 27.25 Q130.25 27.3 130.65 26.55 L131.25 25.7 Q132.05 24.75 131.55 24.0 130.5 22.55 131.3 21.2 L132.4 19.2 132.85 18.3 132.85 17.25 Q132.75 16.6 132.05 16.55 L131.25 16.4 130.05 16.25 128.1 16.05 127.75 15.8 Q126.8 14.6 126.65 13.25 126.55 11.95 125.55 11.9 L125.05 11.95 Q123.9 12.15 123.6 11.05 L123.35 10.45 Q122.25 8.75 122.2 6.75 L122.05 6.0 121.4 3.7 Q121.1 2.8 120.3 2.85 118.9 2.95 117.85 2.45 L117.55 2.25 Q114.95 0.4 114.45 -2.5 L114.3 -3.0 113.5 -3.9 113.05 -3.95 Q112.1 -3.8 111.4 -4.3 L110.3 -4.8 Q109.15 -5.15 108.85 -6.45 L108.65 -7.05 108.25 -8.0 Q107.8 -9.35 106.05 -9.7 L105.65 -9.65 105.1 -8.95 Q104.45 -7.55 103.85 -7.85 L101.0 -8.8 100.35 -8.7 100.05 -8.55 98.8 -8.05 97.95 -8.15 97.55 -8.2 Q96.75 -8.1 96.3 -8.5 L96.0 -8.95 95.25 -10.0 95.15 -10.25 Q94.85 -11.4 94.2 -11.9 L93.85 -11.9 92.05 -11.1 90.75 -10.65 Q89.65 -12.05 90.45 -13.1 L90.65 -13.4 91.05 -13.65 92.05 -13.75 92.3 -13.8 Q92.75 -13.85 92.75 -14.5 L92.7 -17.0 Q92.65 -17.6 92.05 -17.65 L91.8 -17.65 91.55 -17.65 90.55 -17.55 Q90.05 -17.35 89.75 -17.7 L89.15 -18.35 89.05 -18.75 88.8 -21.75 87.9 -21.05 87.0 -20.6 86.55 -20.55 84.55 -20.85 Q83.95 -20.95 84.1 -21.5 84.35 -22.6 84.85 -23.25 L85.2 -24.05 85.25 -25.0 Q85.05 -26.4 83.6 -25.85 L82.5 -25.35 82.05 -25.1 81.3 -24.9 80.95 -24.95 Q80.65 -25.1 80.5 -25.45 79.4 -27.3 78.7 -29.2 L78.05 -29.85 77.9 -29.85 77.8 -29.85 77.3 -29.75 Q76.55 -29.3 75.75 -29.1 L74.8 -29.0 74.35 -29.0 Q73.4 -28.4 72.25 -29.15 L71.85 -29.3 71.65 -29.5 Q71.15 -30.45 71.1 -31.5 L70.75 -33.65 70.35 -33.7 Q68.6 -33.45 67.45 -34.4 L67.3 -34.75 Q67.05 -36.4 66.2 -37.8 L65.4 -37.7 Q64.35 -36.95 63.7 -35.7 L63.05 -34.25 Q62.25 -32.0 60.45 -32.95 L60.35 -33.25 Q60.3 -34.45 60.6 -35.5 58.55 -35.25 57.4 -33.95 L56.55 -33.05 56.15 -32.7 Q55.7 -32.3 55.6 -31.75 55.4 -31.8 55.5 -32.75 L55.55 -34.0 55.35 -37.0 Q53.6 -36.2 52.8 -34.25 L52.2 -33.2 52.1 -32.75 52.1 -32.5 Q51.6 -33.05 50.6 -32.95 50.2 -32.9 50.25 -32.25 L50.5 -30.8 50.8 -30.2 51.3 -28.75 Q51.35 -28.0 50.35 -28.15 49.35 -28.35 48.7 -29.1 L48.5 -29.45 48.0 -30.75 Q47.8 -31.9 46.35 -31.95 L44.65 -31.8 44.25 -31.65 Q43.25 -32.35 42.75 -31.3 L42.55 -30.45 Q42.45 -30.1 42.65 -29.75 43.3 -28.35 43.25 -26.75 L43.1 -26.5 Q42.1 -25.55 40.6 -25.35 39.85 -25.25 39.2 -24.85 L39.1 -24.5 Q38.3 -23.5 38.55 -22.0 38.65 -21.45 38.1 -21.4 L37.1 -21.35 34.9 -21.5 34.8 -21.75 34.65 -22.75 34.7 -24.25 34.75 -24.75 34.85 -26.0 34.7 -26.7 34.4 -27.3 33.9 -27.6 33.05 -27.4 32.1 -27.2 31.35 -27.05 30.85 -27.0 Q30.9 -28.2 30.45 -29.3 L30.25 -29.7 30.1 -29.9 29.1 -29.9 26.35 -29.35 Q24.75 -29.0 23.6 -28.0 23.65 -29.2 22.65 -29.8 21.85 -30.25 21.15 -30.85 L20.8 -31.05 20.1 -30.95 Q18.55 -30.15 16.85 -29.5 15.3 -28.9 14.4 -27.7 L14.05 -27.3 Q13.55 -26.75 12.85 -26.55 L6.65 -25.05 6.45 -24.75 6.2 -23.45 Q5.9 -22.85 6.2 -22.4 L6.45 -21.8 7.15 -20.55 7.45 -19.75 7.55 -19.25 7.6 -18.5 Q7.25 -16.75 6.25 -15.05 L5.85 -14.5 2.85 -12.25 1.85 -16.45 1.6 -16.45 Q0.3 -16.3 -0.1 -15.25 L-1.0 -13.85 -2.1 -13.8 Q-3.4 -14.6 -4.9 -14.8 -6.55 -15.0 -6.85 -13.55 L-7.0 -13.15 -7.3 -12.55 -7.55 -11.95 -7.6 -11.5 Q-7.4 -10.65 -6.85 -9.85 L-6.6 -9.25 -6.45 -8.75 Q-6.0 -6.85 -7.7 -6.05 L-11.6 -4.35 -12.15 -4.0 -12.4 -3.75 Q-12.55 -3.85 -12.3 -4.7 -11.95 -5.8 -12.1 -7.0 L-12.3 -7.35 Q-12.4 -7.5 -12.65 -7.55 L-13.35 -7.55 -13.85 -7.2 -15.3 -5.35 -15.65 -5.3 -17.65 -5.0 Q-18.4 -4.5 -18.1 -3.25 -17.9 -2.35 -18.9 -2.3 -20.2 -2.2 -21.3 -1.6 L-21.55 -1.25 -21.75 0.0 -21.9 0.2 Q-23.3 1.05 -23.45 -0.5 L-23.55 -1.5 -23.9 -5.75 -23.95 -6.75 -24.35 -7.55 -24.75 -7.9 -25.05 -7.9 -25.55 -7.2 -26.4 -5.5 Q-27.6 -7.3 -29.4 -8.55 L-29.65 -8.65 -32.85 -9.35 -34.4 -9.2 Q-34.75 -8.95 -34.55 -7.95 L-34.1 -6.55 -32.7 -4.45 Q-31.75 -2.9 -33.6 -2.4 L-34.7 -2.1 Q-35.75 -1.8 -35.35 -0.5 -35.15 0.25 -34.4 0.75 -33.55 1.35 -33.75 2.5 -33.9 3.5 -35.15 3.65 L-37.15 3.75 Q-37.4 3.75 -37.6 4.05 -38.5 5.35 -39.9 5.5 -40.45 5.55 -40.7 5.15 L-41.15 5.05 -43.45 5.6 -44.15 5.85 -44.35 6.0 Q-45.0 7.3 -46.25 7.8 L-46.65 7.7 -46.9 7.5 Q-47.4 6.85 -48.65 7.0 -50.4 7.1 -51.15 8.5 -51.95 9.8 -53.1 10.85 L-53.5 11.15 -53.9 11.25 -54.95 11.4 Q-55.45 11.55 -55.6 11.1 -55.65 11.0 -55.9 11.0 -57.05 10.9 -57.5 11.95 -57.8 12.65 -57.65 13.5 -57.35 14.75 -58.25 15.35 L-58.85 15.4 -59.6 14.95 Q-60.4 14.1 -60.8 14.95 L-61.05 15.35 -61.25 15.75 -61.3 16.0 Q-61.4 17.5 -62.7 17.15 L-63.9 16.9 Q-64.95 16.8 -65.45 17.2 -65.95 17.7 -66.0 18.75 L-66.05 19.25 -66.05 20.75 -66.0 21.25 -65.8 22.3 Q-65.65 22.65 -65.75 23.0 L-65.85 23.3 -65.9 23.9 Q-65.95 24.3 -66.15 24.45 -66.35 24.55 -66.15 24.25 L-67.2 25.5 -68.35 26.55 -69.15 27.25 -69.2 27.35 -70.5 25.65 -70.75 25.4 -71.05 25.35 -71.6 25.75 Q-72.5 26.65 -73.85 27.1 L-74.1 27.25 -73.95 26.25 Q-73.95 25.4 -73.5 24.65 L-73.05 23.75 Q-72.75 22.95 -72.8 22.0 L-73.15 21.6 -74.35 21.3 -81.95 19.9 -81.85 19.55 -81.45 18.45 -81.1 17.5 -80.85 16.75 Q-82.8 17.05 -84.25 18.0 L-85.0 18.45 -85.7 18.85 -86.2 18.8 -86.5 18.25 Q-86.65 16.1 -85.75 14.4 -85.6 14.15 -85.6 13.75 L-85.6 12.0 Q-87.55 12.7 -88.15 10.75 L-88.25 10.25 -88.2 10.0 Q-88.15 9.55 -88.6 9.5 -89.2 9.7 -89.45 10.45 L-89.8 11.3 Q-90.3 12.35 -91.35 12.35 L-93.65 11.9 -94.35 11.75 Q-95.1 11.7 -95.45 12.45 L-95.8 13.05 -96.2 13.4 -96.55 13.6 -97.1 14.0 Q-97.5 14.45 -98.6 14.25 -100.35 13.95 -101.7 14.85 L-102.55 15.3 -102.85 15.45 -104.4 16.4 -104.85 16.45 -105.8 16.2 -106.1 16.1 Q-107.35 15.75 -107.95 16.45 L-108.25 16.8 -108.9 18.0 -109.2 19.25 -109.3 19.5 -110.3 21.75 Q-110.75 23.15 -111.8 23.55 L-112.15 23.7 Q-112.95 23.95 -113.4 24.15 L-113.85 24.3 Q-114.3 24.3 -114.5 24.65 L-114.8 24.85 -115.7 25.4 -116.1 25.6 -116.35 25.65 Q-117.65 25.95 -118.6 25.25 L-119.45 24.6 -119.85 24.5 -122.15 24.9 -122.5 25.1 -122.9 25.45 -123.3 25.6 -124.3 25.2 Q-126.75 23.6 -128.05 21.35" fill="url(#gradient0)" fill-rule="evenodd" stroke="none"/>
    <path d="M-69.2 27.35 L-69.15 27.25 -68.35 26.55 -67.2 25.5 -66.15 24.25 Q-66.35 24.55 -66.15 24.45 -65.95 24.3 -65.9 23.9 L-65.85 23.3 -65.75 23.0 Q-65.65 22.65 -65.8 22.3 L-66.0 21.25 -66.05 20.75 -66.05 19.25 -66.0 18.75 Q-65.95 17.7 -65.45 17.2 -64.95 16.8 -63.9 16.9 L-62.7 17.15 Q-61.4 17.5 -61.3 16.0 L-61.25 15.75 -61.05 15.35 -60.8 14.95 Q-60.4 14.1 -59.6 14.95 L-58.85 15.4 -58.25 15.35 Q-57.35 14.75 -57.65 13.5 -57.8 12.65 -57.5 11.95 -57.05 10.9 -55.9 11.0 -55.65 11.0 -55.6 11.1 -55.45 11.55 -54.95 11.4 L-53.9 11.25 -53.5 11.15 -53.1 10.85 Q-51.95 9.8 -51.15 8.5 -50.4 7.1 -48.65 7.0 -47.4 6.85 -46.9 7.5 L-46.65 7.7 -46.25 7.8 Q-45.0 7.3 -44.35 6.0 L-44.15 5.85 -43.45 5.6 -41.15 5.05 -40.7 5.15 Q-40.45 5.55 -39.9 5.5 -38.5 5.35 -37.6 4.05 -37.4 3.75 -37.15 3.75 L-35.15 3.65 Q-33.9 3.5 -33.75 2.5 -33.55 1.35 -34.4 0.75 -35.15 0.25 -35.35 -0.5 -35.75 -1.8 -34.7 -2.1 L-33.6 -2.4 Q-31.75 -2.9 -32.7 -4.45 L-34.1 -6.55 -34.55 -7.95 Q-34.75 -8.95 -34.4 -9.2 L-32.85 -9.35 -29.65 -8.65 -29.4 -8.55 Q-27.6 -7.3 -26.4 -5.5 L-25.55 -7.2 -25.05 -7.9 -24.75 -7.9 -24.35 -7.55 -23.95 -6.75 -23.9 -5.75 -23.55 -1.5 -23.45 -0.5 Q-23.3 1.05 -21.9 0.2 L-21.75 0.0 -21.55 -1.25 -21.3 -1.6 Q-20.2 -2.2 -18.9 -2.3 -17.9 -2.35 -18.1 -3.25 -18.4 -4.5 -17.65 -5.0 L-15.65 -5.3 -15.3 -5.35 -13.85 -7.2 -13.35 -7.55 -12.65 -7.55 Q-12.4 -7.5 -12.3 -7.35 L-12.1 -7.0 Q-11.95 -5.8 -12.3 -4.7 -12.55 -3.85 -12.4 -3.75 L-12.15 -4.0 -11.6 -4.35 -7.7 -6.05 Q-6.0 -6.85 -6.45 -8.75 L-6.6 -9.25 -6.85 -9.85 Q-7.4 -10.65 -7.6 -11.5 L-7.55 -11.95 -7.3 -12.55 -7.0 -13.15 -6.85 -13.55 Q-6.55 -15.0 -4.9 -14.8 -3.4 -14.6 -2.1 -13.8 L-1.0 -13.85 -0.1 -15.25 Q0.3 -16.3 1.6 -16.45 L1.85 -16.45 2.85 -12.25 5.85 -14.5 6.25 -15.05 Q7.25 -16.75 7.6 -18.5 L7.55 -19.25 7.45 -19.75 7.15 -20.55 6.45 -21.8 6.2 -22.4 Q5.9 -22.85 6.2 -23.45 L6.45 -24.75 6.65 -25.05 12.85 -26.55 Q13.55 -26.75 14.05 -27.3 L14.4 -27.7 Q15.3 -28.9 16.85 -29.5 18.55 -30.15 20.1 -30.95 L20.8 -31.05 21.15 -30.85 Q21.85 -30.25 22.65 -29.8 23.65 -29.2 23.6 -28.0 24.75 -29.0 26.35 -29.35 L29.1 -29.9 30.1 -29.9 30.25 -29.7 30.45 -29.3 Q30.9 -28.2 30.85 -27.0 L31.35 -27.05 32.1 -27.2 33.05 -27.4 33.9 -27.6 34.4 -27.3 34.7 -26.7 34.85 -26.0 34.75 -24.75 34.7 -24.25 34.65 -22.75 34.8 -21.75 34.9 -21.5 37.1 -21.35 38.1 -21.4 Q38.65 -21.45 38.55 -22.0 38.3 -23.5 39.1 -24.5 L39.2 -24.85 Q39.85 -25.25 40.6 -25.35 42.1 -25.55 43.1 -26.5 L43.25 -26.75 Q43.3 -28.35 42.65 -29.75 42.45 -30.1 42.55 -30.45 L42.75 -31.3 Q43.25 -32.35 44.25 -31.65 L44.65 -31.8 46.35 -31.95 Q47.8 -31.9 48.0 -30.75 L48.5 -29.45 48.7 -29.1 Q49.35 -28.35 50.35 -28.15 51.35 -28.0 51.3 -28.75 L50.8 -30.2 50.5 -30.8 50.25 -32.25 Q50.2 -32.9 50.6 -32.95 51.6 -33.05 52.1 -32.5 L52.1 -32.75 52.2 -33.2 52.8 -34.25 Q53.6 -36.2 55.35 -37.0 L55.55 -34.0 55.5 -32.75 Q55.4 -31.8 55.6 -31.75 55.7 -32.3 56.15 -32.7 L56.55 -33.05 57.4 -33.95 Q58.55 -35.25 60.6 -35.5 60.3 -34.45 60.35 -33.25 L60.45 -32.95 Q62.25 -32.0 63.05 -34.25 L63.7 -35.7 Q64.35 -36.95 65.4 -37.7 L66.2 -37.8 Q67.05 -36.4 67.3 -34.75 L67.45 -34.4 Q68.6 -33.45 70.35 -33.7 L70.75 -33.65 71.1 -31.5 Q71.15 -30.45 71.65 -29.5 L71.85 -29.3 72.25 -29.15 Q73.4 -28.4 74.35 -29.0 L74.8 -29.0 75.75 -29.1 Q76.55 -29.3 77.3 -29.75 L77.8 -29.85 77.9 -29.85 78.05 -29.85 78.7 -29.2 Q79.4 -27.3 80.5 -25.45 80.65 -25.1 80.95 -24.95 L81.3 -24.9 82.05 -25.1 82.5 -25.35 83.6 -25.85 Q85.05 -26.4 85.25 -25.0 L85.2 -24.05 84.85 -23.25 Q84.35 -22.6 84.1 -21.5 83.95 -20.95 84.55 -20.85 L86.55 -20.55 87.0 -20.6 87.9 -21.05 88.8 -21.75 89.05 -18.75 89.15 -18.35 89.75 -17.7 Q90.05 -17.35 90.55 -17.55 L91.55 -17.65 91.8 -17.65 92.05 -17.65 Q92.65 -17.6 92.7 -17.0 L92.75 -14.5 Q92.75 -13.85 92.3 -13.8 L92.05 -13.75 91.05 -13.65 90.65 -13.4 90.45 -13.1 Q89.65 -12.05 90.75 -10.65 L92.05 -11.1 93.85 -11.9 94.2 -11.9 Q94.85 -11.4 95.15 -10.25 L95.25 -10.0 96.0 -8.95 96.3 -8.5 Q96.75 -8.1 97.55 -8.2 L97.95 -8.15 98.8 -8.05 100.05 -8.55 100.35 -8.7 101.0 -8.8 103.85 -7.85 Q104.45 -7.55 105.1 -8.95 L105.65 -9.65 106.05 -9.7 Q107.8 -9.35 108.25 -8.0 L108.65 -7.05 108.85 -6.45 Q109.15 -5.15 110.3 -4.8 L111.4 -4.3 Q112.1 -3.8 113.05 -3.95 L113.5 -3.9 114.3 -3.0 114.45 -2.5 Q114.95 0.4 117.55 2.25 L117.85 2.45 Q118.9 2.95 120.3 2.85 121.1 2.8 121.4 3.7 L122.05 6.0 122.2 6.75 Q122.25 8.75 123.35 10.45 L123.6 11.05 Q123.9 12.15 125.05 11.95 L125.55 11.9 Q126.55 11.95 126.65 13.25 126.8 14.6 127.75 15.8 L128.1 16.05 130.05 16.25 131.25 16.4 132.05 16.55 Q132.75 16.6 132.85 17.25 L132.85 18.3 132.4 19.2 131.3 21.2 Q130.5 22.55 131.55 24.0 132.05 24.75 131.25 25.7 L130.65 26.55 Q130.25 27.3 129.6 27.25 L129.1 26.45 127.95 25.1 Q127.65 24.9 127.3 24.85 126.75 24.85 126.7 25.5 L126.65 25.75 Q126.3 27.3 126.3 29.0 L125.55 28.95 125.05 28.75 Q124.2 28.75 123.8 29.25 123.45 29.75 123.45 30.75 123.45 31.6 123.8 32.25 L124.1 32.7 124.45 33.3 124.55 33.75 124.55 34.0 124.1 34.55 Q122.85 34.5 122.7 33.0 L122.55 32.5 Q122.2 31.85 122.2 31.0 L122.05 30.75 Q121.05 31.4 120.4 32.55 L120.2 32.95 Q120.05 33.25 119.55 33.15 L118.75 32.8 Q117.7 32.05 116.3 32.0 115.9 32.0 115.65 32.15 L115.0 32.7 114.5 33.25 113.8 33.45 111.55 33.75 113.85 37.2 Q114.3 37.75 114.25 38.5 L113.85 39.05 Q112.55 39.8 111.3 41.25 L110.85 40.95 110.25 40.25 Q109.55 39.3 109.25 38.0 L108.95 37.65 108.3 37.6 Q107.05 37.85 106.85 36.75 106.6 35.0 105.05 34.95 104.4 34.95 104.25 34.35 L103.85 33.95 Q103.55 33.75 103.25 33.7 L102.85 33.8 100.6 35.55 100.05 36.0 Q99.55 36.3 99.05 36.45 L98.55 36.45 95.8 36.7 Q95.3 36.9 95.05 36.5 94.3 35.55 94.65 34.25 L94.75 33.95 95.05 32.75 Q94.3 32.25 93.45 33.15 L92.1 34.55 92.05 34.6 91.45 35.45 91.05 35.8 89.0 34.6 88.2 34.65 87.9 34.85 Q87.65 35.0 87.65 35.25 L86.75 39.0 86.45 39.35 85.8 39.45 82.05 39.05 80.8 39.0 80.25 40.0 Q79.65 40.8 79.85 42.0 L79.95 42.75 80.15 44.0 80.2 44.25 80.15 44.95 79.8 45.3 77.9 46.75 76.6 48.05 Q76.4 48.25 76.35 48.5 75.8 50.4 76.3 52.25 L76.65 54.75 76.75 55.5 76.8 55.75 Q76.0 55.9 75.45 55.35 L75.15 55.15 74.95 54.8 Q74.45 53.65 75.05 52.5 75.8 51.0 74.5 50.1 L74.05 50.0 Q72.45 49.9 71.7 49.15 L71.1 49.35 Q70.65 49.55 70.65 50.0 L70.45 50.7 Q70.1 51.25 70.2 52.0 L70.05 53.0 Q69.85 52.6 69.05 52.7 L68.3 52.85 Q66.9 53.2 66.65 54.5 66.6 54.95 67.1 55.15 68.1 55.55 68.85 56.45 L69.45 57.3 69.45 57.7 69.1 58.3 67.4 60.8 Q67.0 61.55 67.05 62.45 L66.6 61.95 66.0 61.3 Q65.6 60.85 65.7 59.75 L66.2 57.95 Q66.4 57.55 66.05 57.25 65.6 56.95 65.55 56.5 L63.85 59.75 63.4 60.25 62.85 60.2 Q61.8 59.65 61.55 58.8 L61.3 58.75 Q60.2 58.75 60.35 59.75 L60.25 60.85 Q60.05 61.25 60.0 61.75 59.95 63.0 60.7 63.65 L60.85 64.0 Q61.0 64.95 60.55 65.25 L59.55 66.0 58.3 66.45 57.5 66.65 56.8 66.85 56.5 66.95 56.05 67.0 Q56.3 65.5 55.45 64.85 L55.05 64.75 Q54.5 64.85 54.35 65.45 L54.05 65.75 51.8 66.4 49.8 66.6 48.85 67.65 48.5 67.95 Q47.6 68.85 46.5 69.35 L45.85 69.65 45.3 69.9 44.85 70.1 44.35 70.25 Q43.9 70.5 44.05 71.2 L44.05 71.95 43.6 73.45 Q43.4 71.5 41.4 70.65 L41.1 70.6 Q40.85 70.6 40.7 70.8 L40.1 71.95 Q39.6 73.1 38.8 73.3 L38.35 73.2 Q37.2 72.75 36.6 71.45 36.15 70.4 35.3 70.35 34.7 70.35 34.2 70.8 32.15 72.55 30.25 73.55 28.8 72.95 28.25 71.75 L27.8 71.0 Q27.05 70.2 25.85 70.2 L25.4 69.4 Q24.65 68.5 23.6 68.45 L23.35 68.7 21.85 72.45 Q20.8 72.25 20.1 70.95 19.5 69.9 18.6 69.8 18.0 69.75 18.0 70.45 L17.75 71.4 17.5 72.25 17.25 73.2 17.15 73.7 Q16.9 74.75 17.3 75.75 17.5 76.35 17.1 76.7 L16.85 76.85 11.35 78.05 Q10.9 78.15 10.8 78.45 10.4 79.8 10.5 81.45 L10.5 83.2 10.4 83.65 10.05 84.1 8.85 84.4 Q7.45 84.6 6.95 85.3 L6.85 85.7 Q6.75 87.45 7.75 88.8 L8.15 89.45 8.3 89.75 8.6 91.2 8.6 91.7 8.45 92.4 8.25 92.8 8.15 93.45 7.95 94.1 7.7 94.3 7.4 94.7 Q6.65 95.9 6.4 97.45 L6.05 97.3 5.7 97.1 5.6 96.7 5.45 95.65 5.35 95.2 5.35 94.95 Q4.5 95.45 4.5 94.45 4.45 94.1 4.55 93.7 L4.7 92.95 4.7 92.7 4.7 92.45 Q4.5 91.75 3.85 92.25 2.2 93.45 1.1 94.45 L0.8 94.0 0.35 93.45 Q-0.5 93.75 -0.7 94.7 L-1.15 96.2 Q-1.9 95.45 -2.1 93.95 -2.15 93.35 -1.75 92.85 L-1.55 92.6 -1.25 92.35 -0.9 91.95 Q-0.5 91.2 -0.85 90.3 -0.9 90.2 -1.15 90.2 L-2.65 90.25 Q-3.45 90.35 -3.25 89.45 L-3.15 88.45 -3.15 87.2 Q-5.0 87.2 -5.6 88.95 L-6.25 90.3 -6.4 90.95 -7.45 89.75 Q-7.9 89.2 -8.4 89.95 L-9.4 91.95 Q-10.15 91.85 -10.6 91.4 L-10.85 91.5 Q-11.3 91.9 -11.4 92.45 -12.0 91.9 -12.95 91.6 -13.5 92.5 -13.45 93.45 -13.35 94.35 -14.15 94.1 L-14.4 93.95 Q-15.35 92.7 -15.1 90.7 -15.0 89.85 -14.2 89.4 L-13.6 89.0 -13.15 88.7 Q-13.25 87.65 -14.65 87.8 L-16.65 87.95 -20.9 87.95 Q-20.9 87.0 -20.2 86.15 L-18.7 86.05 -16.9 86.25 -16.15 86.1 Q-15.35 85.9 -15.85 85.4 L-16.25 85.05 -16.9 84.7 Q-18.0 84.4 -18.9 83.7 L-18.65 83.55 -13.15 82.2 -11.9 81.7 Q-12.55 80.55 -13.9 80.2 L-14.65 80.1 -14.95 80.15 Q-16.65 80.95 -18.65 80.65 L-19.35 80.75 -19.9 81.0 Q-20.6 81.05 -20.8 80.25 L-21.05 79.4 -21.2 78.7 -21.0 78.0 Q-22.2 77.35 -23.6 77.65 L-23.95 77.9 -25.4 79.45 -26.2 79.25 -26.6 78.9 Q-27.7 78.1 -26.75 77.55 L-26.3 77.3 -25.95 77.15 -25.75 76.95 Q-25.6 76.2 -26.35 75.85 L-26.95 75.55 -28.15 74.7 Q-27.9 74.2 -26.9 74.35 L-25.4 74.55 -24.9 74.65 Q-23.6 75.0 -23.3 73.9 L-23.4 73.45 Q-23.85 72.4 -24.9 72.25 L-26.45 72.35 -27.15 72.5 Q-28.4 72.7 -29.25 71.8 -29.75 71.2 -29.55 70.45 L-29.5 70.2 Q-29.25 69.2 -29.75 68.8 L-30.15 68.8 -30.35 68.95 Q-31.0 69.9 -31.9 70.1 L-32.9 69.95 Q-33.9 69.3 -35.15 69.1 L-35.6 69.25 Q-36.0 69.7 -35.95 70.7 -35.9 71.5 -36.7 72.15 -38.45 71.3 -38.85 69.25 L-38.9 69.0 Q-38.45 68.6 -37.45 68.45 L-35.85 68.1 Q-34.7 67.7 -34.15 67.0 L-33.9 66.25 Q-33.85 65.3 -34.45 65.2 L-35.4 65.25 -36.3 65.4 -35.35 64.05 Q-34.85 63.8 -34.65 63.5 L-35.1 63.2 Q-36.55 61.95 -34.4 61.0 -33.6 61.05 -33.3 60.05 L-33.0 58.95 -32.85 58.25 Q-32.7 57.4 -33.35 57.1 L-33.95 56.8 -34.6 56.45 Q-35.6 55.95 -34.95 55.45 -33.2 53.85 -32.7 51.25 -32.45 49.9 -33.6 50.15 L-34.7 50.4 -35.65 50.5 Q-36.4 50.5 -36.25 49.5 -36.05 48.35 -36.35 47.25 L-36.75 46.05 Q-37.0 45.25 -37.65 44.75 L-37.9 44.65 -38.6 44.8 -39.7 45.35 -40.4 45.5 Q-41.15 43.05 -42.1 41.25 -42.9 41.05 -43.3 41.6 L-44.35 42.5 -44.8 42.8 -45.4 43.1 Q-46.8 43.05 -47.65 42.3 -48.0 41.9 -48.85 42.0 L-49.6 42.0 -49.25 40.8 -49.1 40.5 Q-48.55 39.95 -49.25 39.4 L-49.9 38.8 Q-50.5 38.2 -50.7 37.35 L-51.1 37.25 Q-51.95 37.3 -52.55 38.05 L-53.7 39.15 -54.0 39.15 -54.4 38.85 Q-55.3 38.1 -56.4 37.6 L-56.85 37.45 Q-57.9 37.25 -58.15 38.25 L-58.3 39.0 -58.4 40.0 Q-58.4 40.7 -59.1 40.8 -60.55 41.0 -61.5 40.1 L-61.5 39.8 Q-61.1 38.6 -60.4 37.7 L-59.85 37.0 Q-60.35 36.4 -61.6 36.4 L-64.6 36.2 -65.85 36.05 -67.0 35.8 -67.1 35.5 Q-67.1 34.6 -65.85 34.6 L-65.1 34.55 -64.4 34.35 -64.2 34.0 Q-64.1 33.45 -64.45 33.1 L-65.35 32.5 -65.85 32.25 -62.6 31.2 -62.1 31.0 -61.95 30.35 -62.25 30.0 -63.05 29.35 -63.85 29.2 -67.6 29.5 -68.0 29.4 -68.35 29.0 Q-68.7 28.1 -69.2 27.35" fill="url(#gradient1)" fill-rule="evenodd" stroke="none"/>
    <path d="M116.65 -84.8 L116.05 -84.5 112.55 -83.0 113.2 -85.95 113.6 -86.35 114.4 -86.7 116.2 -87.75 118.0 -88.65 118.55 -89.0 118.15 -89.15 114.55 -89.95 113.15 -90.25 Q112.05 -90.75 111.05 -91.5 110.65 -91.9 112.2 -92.75 L114.0 -93.65 114.55 -94.0 Q115.9 -95.2 117.05 -95.5 L114.55 -98.95 Q114.3 -99.25 114.7 -99.9 115.6 -101.3 117.55 -101.1 121.05 -100.8 122.75 -102.25 L123.5 -102.35 127.55 -102.0 Q126.6 -103.15 126.75 -104.4 L127.5 -105.1 Q130.75 -106.65 134.55 -106.3 L135.05 -106.0 135.0 -106.35 Q134.75 -108.65 136.65 -109.05 L138.55 -109.1 Q140.5 -108.8 141.05 -106.5 142.4 -107.35 143.4 -108.75 L144.05 -109.0 Q145.85 -109.1 145.6 -107.1 L145.55 -107.0 146.05 -107.1 Q147.15 -107.4 148.15 -108.4 148.55 -108.75 149.05 -108.8 150.15 -108.9 150.5 -109.85 L151.05 -110.1 Q154.05 -110.6 154.7 -108.05 L154.95 -107.45 158.2 -109.75 159.0 -109.85 162.0 -109.7 162.6 -109.8 166.05 -110.0 Q165.75 -110.95 164.05 -111.0 163.3 -111.0 162.5 -111.35 161.7 -111.65 162.05 -113.0 162.25 -113.95 163.55 -114.5 165.3 -115.25 167.55 -115.25 L168.1 -115.15 Q169.55 -114.55 170.15 -113.55 L170.55 -113.0 Q171.35 -113.95 171.15 -116.0 170.95 -117.8 172.95 -117.15 173.55 -116.95 174.0 -116.45 175.0 -115.4 175.05 -113.35 L175.05 -113.0 175.05 -76.45 174.05 -78.0 Q173.5 -75.2 172.8 -73.4 L172.5 -72.0 Q172.45 -70.15 171.1 -68.95 168.85 -66.95 166.1 -68.1 165.35 -68.4 164.5 -69.45 L164.15 -70.05 Q163.2 -72.35 163.5 -75.0 L163.55 -76.0 163.15 -75.15 Q162.45 -73.7 161.9 -72.05 161.55 -71.0 160.0 -70.65 L157.45 -70.1 Q156.8 -70.0 156.15 -70.6 L155.55 -71.5 Q155.05 -72.65 155.25 -73.55 153.6 -71.05 149.6 -71.5 L149.55 -72.0 149.75 -76.5 150.0 -77.05 150.35 -77.45 Q150.85 -77.95 151.55 -78.0 151.45 -79.1 150.6 -77.95 L150.3 -77.55 149.9 -77.15 149.5 -76.8 Q148.3 -75.9 146.45 -75.25 L146.05 -75.1 145.05 -75.0 141.05 -75.0 Q142.9 -78.15 146.05 -79.5 143.6 -78.65 141.1 -77.35 139.15 -76.3 137.0 -75.7 L135.55 -75.5 126.55 -75.5 Q128.55 -79.2 133.05 -80.55 134.6 -81.05 136.1 -81.95 L137.05 -82.5 133.05 -82.3 131.55 -82.1 130.05 -82.0 130.2 -83.45 130.6 -83.95 132.05 -85.5 Q126.1 -82.05 118.55 -84.45 L116.85 -84.9 123.05 -88.0 Q120.75 -87.85 118.55 -86.5 L116.55 -85.0 116.65 -84.8 M158.05 -88.0 Q156.75 -87.7 157.05 -89.0 L157.45 -91.0 157.7 -91.55 Q159.4 -92.2 160.65 -93.4 L161.55 -93.8 Q164.25 -94.0 166.45 -92.8 L167.6 -92.45 Q169.05 -92.35 169.05 -91.0 169.05 -92.35 167.6 -92.45 L166.45 -92.8 Q164.25 -94.0 161.55 -93.8 L160.65 -93.4 Q159.4 -92.2 157.7 -91.55 L157.45 -91.0 157.05 -89.0 Q156.75 -87.7 158.05 -88.0 M155.8 -74.7 L155.25 -73.55 155.9 -74.8 155.8 -74.7 M156.15 -75.45 L156.3 -76.5 155.9 -74.8 156.15 -75.45 M169.05 -94.0 L168.1 -94.55 167.5 -94.85 Q165.65 -95.4 166.2 -97.45 L166.3 -98.0 Q166.15 -99.65 167.05 -100.0 L168.5 -100.15 Q169.95 -99.9 171.15 -99.2 173.5 -97.9 174.05 -95.5 173.5 -97.9 171.15 -99.2 169.95 -99.9 168.5 -100.15 L167.05 -100.0 Q166.15 -99.65 166.3 -98.0 L166.2 -97.45 Q165.65 -95.4 167.5 -94.85 L168.1 -94.55 169.05 -94.0" fill="url(#gradient2)" fill-rule="evenodd" stroke="none"/>
    <path d="M175.05 -12.25 Q174.35 -12.95 174.15 -14.4 172.75 -13.6 170.6 -14.1 170.05 -14.25 169.2 -14.75 168.35 -15.25 168.05 -16.4 L167.3 -15.85 Q166.9 -15.15 166.1 -14.85 L162.5 -13.7 161.1 -13.3 159.05 -13.0 158.25 -13.2 Q157.4 -15.85 158.55 -17.5 L161.05 -21.0 159.55 -20.9 Q158.2 -20.7 157.2 -19.85 156.7 -19.45 155.55 -18.95 L154.75 -18.35 Q152.3 -15.4 148.55 -16.95 L147.05 -17.2 146.05 -17.3 Q144.75 -17.7 145.0 -19.5 L145.3 -20.15 146.05 -20.65 Q148.6 -22.45 150.05 -24.5 L149.1 -24.65 146.55 -25.0 147.65 -28.45 Q148.2 -29.95 150.05 -29.6 L153.0 -28.8 Q152.7 -30.25 153.45 -31.1 L154.05 -31.5 154.1 -31.5 166.55 -32.0 Q166.4 -32.8 165.05 -32.9 L163.1 -33.25 160.55 -34.0 Q162.2 -34.65 163.95 -36.6 L164.65 -37.05 169.55 -37.5 168.25 -39.6 Q167.7 -40.75 169.05 -40.85 L171.1 -41.0 171.2 -40.9 174.05 -38.0 173.65 -41.05 Q172.95 -43.35 174.6 -43.9 L175.05 -44.05 175.05 -15.1 175.05 -12.25 M157.05 -26.0 Q157.85 -26.05 156.55 -27.0 L155.0 -27.95 153.0 -28.8 155.0 -27.95 156.55 -27.0 Q157.85 -26.05 157.05 -26.0 M171.05 -20.5 Q169.9 -20.0 169.55 -18.7 169.15 -17.45 168.05 -16.4 169.15 -17.45 169.55 -18.7 169.9 -20.0 171.05 -20.5 M174.15 -14.4 L175.05 -15.1 174.15 -14.4" fill="url(#gradient3)" fill-rule="evenodd" stroke="none"/>
    <path d="M175.05 -158.35 L171.05 -157.95 Q170.3 -158.0 169.8 -158.35 169.55 -158.5 169.45 -158.95 169.1 -160.45 170.15 -162.4 171.85 -165.35 174.5 -166.6 L175.05 -166.85 175.05 -158.35 M175.05 -173.05 L175.05 -167.7 174.05 -167.7 173.5 -167.75 Q171.3 -168.25 171.75 -170.4 L172.05 -170.95 Q173.4 -172.2 175.05 -173.05" fill="url(#gradient4)" fill-rule="evenodd" stroke="none"/>
    <path d="M136.3 25.75 Q136.4 24.6 137.05 24.0 L137.3 23.5 137.35 21.5 Q137.3 20.9 137.4 20.25 137.6 19.05 138.3 18.0 L138.55 17.85 140.6 17.35 141.4 17.0 Q142.05 16.6 142.05 15.75 L142.15 15.45 144.75 15.35 146.05 15.7 Q146.5 15.65 146.9 15.25 147.55 14.6 147.25 13.5 147.05 12.9 147.15 12.25 L147.25 12.0 147.55 11.5 Q147.9 10.55 149.3 10.65 150.7 10.75 151.0 9.25 151.05 8.9 151.25 8.65 152.15 7.4 153.8 7.6 154.05 7.65 154.1 7.8 L154.35 10.0 Q154.4 11.05 155.8 11.1 L157.0 11.35 157.6 11.55 157.45 12.2 156.9 13.55 Q156.7 14.05 157.3 14.25 L157.9 14.25 158.45 13.9 Q159.2 13.3 160.3 13.05 L161.5 12.65 Q161.9 12.5 161.75 12.05 L161.65 11.75 Q161.2 9.45 163.3 9.3 L164.3 9.2 Q164.85 9.1 164.8 9.5 164.6 10.9 165.05 12.0 L165.65 11.85 167.3 11.1 167.55 11.1 Q168.0 12.15 168.75 13.0 L168.9 13.25 Q169.05 13.7 169.7 13.4 170.95 12.75 171.1 11.0 171.1 10.65 171.4 10.4 L173.5 10.25 173.95 10.3 174.1 10.05 174.0 8.5 Q174.0 7.95 174.45 7.45 L174.75 7.25 175.05 7.25 175.05 54.65 Q174.2 55.1 173.45 55.9 L173.1 56.25 172.3 56.65 170.85 56.55 Q170.05 56.1 169.05 55.9 L165.6 55.35 165.55 54.95 Q165.65 53.85 165.9 53.15 165.4 52.55 164.8 52.55 L162.8 52.45 Q161.1 52.2 159.8 51.45 161.3 50.3 163.55 50.25 164.65 50.25 164.9 49.65 L165.25 49.15 Q165.4 48.95 165.8 48.9 L166.95 48.35 167.1 47.95 Q167.35 46.75 166.3 46.85 L164.05 47.05 Q162.4 47.15 161.05 46.5 160.0 46.0 160.3 44.7 160.6 43.55 160.55 42.2 159.55 42.1 159.25 42.85 L158.8 43.2 157.3 43.7 Q157.3 42.45 156.1 42.0 L156.05 42.0 155.85 41.3 155.6 40.95 Q156.15 40.1 157.05 39.5 L157.5 39.2 158.05 38.5 Q158.0 38.05 157.3 38.05 L153.8 38.1 147.35 38.0 Q147.9 38.0 148.4 37.6 L149.2 36.9 149.9 36.35 151.05 35.45 Q151.6 35.05 151.55 34.0 150.4 34.1 149.25 34.7 L148.3 34.95 146.05 34.85 145.6 34.75 145.5 34.5 Q144.95 32.75 145.75 31.7 L146.05 31.25 146.55 30.5 146.05 30.3 Q143.65 29.25 141.05 29.5 140.8 29.5 140.6 29.8 L140.45 30.0 140.75 29.25 Q140.95 28.6 141.5 27.95 142.15 27.25 142.05 26.25 L141.8 25.5 Q139.95 26.7 139.2 29.2 138.65 27.7 137.45 26.6 L136.85 26.2 136.3 25.75" fill="url(#gradient5)" fill-rule="evenodd" stroke="none"/>
    <path d="M129.6 27.25 L129.85 27.85 130.0 28.1 Q130.85 29.25 131.75 28.45 132.55 27.8 133.1 28.2 L133.45 28.6 135.55 30.75 135.65 28.5 135.65 28.0 Q135.6 26.5 136.3 25.75 L136.85 26.2 137.45 26.6 Q138.65 27.7 139.2 29.2 139.95 26.7 141.8 25.5 L142.05 26.25 Q142.15 27.25 141.5 27.95 140.95 28.6 140.75 29.25 L140.45 30.0 140.6 29.8 Q140.8 29.5 141.05 29.5 143.65 29.25 146.05 30.3 L146.55 30.5 146.05 31.25 145.75 31.7 Q144.95 32.75 145.5 34.5 L145.6 34.75 146.05 34.85 148.3 34.95 149.25 34.7 Q150.4 34.1 151.55 34.0 151.6 35.05 151.05 35.45 L149.9 36.35 149.2 36.9 148.4 37.6 Q147.9 38.0 147.35 38.0 L153.8 38.1 157.3 38.05 Q158.0 38.05 158.05 38.5 L157.5 39.2 157.05 39.5 Q156.15 40.1 155.6 40.95 L155.85 41.3 156.05 42.0 156.1 42.0 Q157.3 42.45 157.3 43.7 L158.8 43.2 159.25 42.85 Q159.55 42.1 160.55 42.2 160.6 43.55 160.3 44.7 160.0 46.0 161.05 46.5 162.4 47.15 164.05 47.05 L166.3 46.85 Q167.35 46.75 167.1 47.95 L166.95 48.35 165.8 48.9 Q165.4 48.95 165.25 49.15 L164.9 49.65 Q164.65 50.25 163.55 50.25 161.3 50.3 159.8 51.45 161.1 52.2 162.8 52.45 L164.8 52.55 Q165.4 52.55 165.9 53.15 165.65 53.85 165.55 54.95 L165.6 55.35 169.05 55.9 Q170.05 56.1 170.85 56.55 L172.3 56.65 173.1 56.25 173.45 55.9 Q174.2 55.1 175.05 54.65 L175.05 90.95 173.5 90.6 172.55 90.4 Q168.9 89.95 165.95 91.25 L164.15 92.15 161.95 93.25 160.05 93.85 155.05 95.0 149.05 95.4 146.05 95.35 144.45 95.7 142.6 96.1 141.5 96.3 129.1 97.9 127.95 98.25 127.15 98.65 Q125.4 99.5 123.55 99.65 L122.5 99.8 112.55 100.4 Q110.1 100.3 108.9 101.25 L107.6 102.0 Q105.8 102.8 103.55 102.7 L102.5 102.8 101.05 102.95 Q101.0 100.5 102.05 98.45 L103.05 96.45 Q101.05 96.75 99.6 98.05 L96.35 100.3 Q97.35 99.65 97.25 97.95 97.25 96.65 97.8 95.35 L98.05 93.95 98.05 91.95 95.6 95.0 Q94.45 96.45 94.1 98.35 L93.8 99.1 Q93.55 99.45 93.55 99.95 91.1 95.75 86.55 93.9 L85.6 93.4 85.05 92.95 Q85.05 95.4 85.9 97.5 L86.15 98.45 Q86.45 100.35 85.0 100.6 L83.55 100.55 Q81.1 100.05 79.55 99.45 78.85 100.05 79.8 101.6 L80.2 102.4 81.05 103.95 Q80.0 103.7 79.25 102.7 79.05 102.45 78.55 102.35 L77.9 102.25 73.05 101.7 72.5 101.9 Q67.9 104.85 62.35 103.85 L61.5 103.65 59.55 103.4 50.5 104.2 48.05 104.45 42.55 103.95 Q42.7 103.1 44.0 103.0 L45.6 102.6 46.5 102.3 47.1 102.15 Q48.15 101.95 49.05 102.45 48.55 101.45 47.6 100.9 43.95 98.8 39.95 100.75 L39.1 101.1 37.05 101.45 Q38.65 100.15 38.8 97.45 38.8 96.95 39.15 96.6 39.35 95.6 38.0 96.35 L35.95 97.7 Q33.7 99.25 32.5 100.9 L32.1 99.95 30.45 97.0 Q29.6 95.85 28.05 94.95 27.2 95.1 27.35 96.45 L27.6 100.45 Q27.65 102.05 26.55 102.45 26.7 100.3 25.55 99.45 23.75 98.2 21.55 97.45 21.35 99.55 21.9 101.5 L22.05 102.45 Q21.4 102.9 20.65 101.65 20.55 101.45 20.05 101.4 L18.95 101.4 Q16.8 101.45 15.1 102.5 L14.55 102.95 13.9 103.65 13.4 103.1 Q12.65 102.45 11.6 102.3 L9.1 101.95 9.2 98.7 9.2 98.45 Q9.15 97.5 8.1 97.6 L6.4 97.45 Q6.65 95.9 7.4 94.7 L7.7 94.3 7.95 94.1 8.15 93.45 8.25 92.8 8.45 92.4 8.6 91.7 8.6 91.2 8.3 89.75 8.15 89.45 7.75 88.8 Q6.75 87.45 6.85 85.7 L6.95 85.3 Q7.45 84.6 8.85 84.4 L10.05 84.1 10.4 83.65 10.5 83.2 10.5 81.45 Q10.4 79.8 10.8 78.45 10.9 78.15 11.35 78.05 L16.85 76.85 17.1 76.7 Q17.5 76.35 17.3 75.75 16.9 74.75 17.15 73.7 L17.25 73.2 17.5 72.25 17.75 71.4 18.0 70.45 Q18.0 69.75 18.6 69.8 19.5 69.9 20.1 70.95 20.8 72.25 21.85 72.45 L23.35 68.7 23.6 68.45 Q24.65 68.5 25.4 69.4 L25.85 70.2 Q27.05 70.2 27.8 71.0 L28.25 71.75 Q28.8 72.95 30.25 73.55 32.15 72.55 34.2 70.8 34.7 70.35 35.3 70.35 36.15 70.4 36.6 71.45 37.2 72.75 38.35 73.2 L38.8 73.3 Q39.6 73.1 40.1 71.95 L40.7 70.8 Q40.85 70.6 41.1 70.6 L41.4 70.65 Q43.4 71.5 43.6 73.45 L44.05 71.95 44.05 71.2 Q43.9 70.5 44.35 70.25 L44.85 70.1 45.3 69.9 45.85 69.65 46.5 69.35 Q47.6 68.85 48.5 67.95 L48.85 67.65 49.8 66.6 51.8 66.4 54.05 65.75 54.35 65.45 Q54.5 64.85 55.05 64.75 L55.45 64.85 Q56.3 65.5 56.05 67.0 L56.5 66.95 56.8 66.85 57.5 66.65 58.3 66.45 59.55 66.0 60.55 65.25 Q61.0 64.95 60.85 64.0 L60.7 63.65 Q59.95 63.0 60.0 61.75 60.05 61.25 60.25 60.85 L60.35 59.75 Q60.2 58.75 61.3 58.75 L61.55 58.8 Q61.8 59.65 62.85 60.2 L63.4 60.25 63.85 59.75 65.55 56.5 Q65.6 56.95 66.05 57.25 66.4 57.55 66.2 57.95 L65.7 59.75 Q65.6 60.85 66.0 61.3 L66.6 61.95 67.05 62.45 Q67.0 61.55 67.4 60.8 L69.1 58.3 69.45 57.7 69.45 57.3 68.85 56.45 Q68.1 55.55 67.1 55.15 66.6 54.95 66.65 54.5 66.9 53.2 68.3 52.85 L69.05 52.7 Q69.85 52.6 70.05 53.0 L70.2 52.0 Q70.1 51.25 70.45 50.7 L70.65 50.0 Q70.65 49.55 71.1 49.35 L71.7 49.15 Q72.45 49.9 74.05 50.0 L74.5 50.1 Q75.8 51.0 75.05 52.5 74.45 53.65 74.95 54.8 L75.15 55.15 75.45 55.35 Q76.0 55.9 76.8 55.75 L76.75 55.5 76.65 54.75 76.3 52.25 Q75.8 50.4 76.35 48.5 76.4 48.25 76.6 48.05 L77.9 46.75 79.8 45.3 80.15 44.95 80.2 44.25 80.15 44.0 79.95 42.75 79.85 42.0 Q79.65 40.8 80.25 40.0 L80.8 39.0 82.05 39.05 85.8 39.45 86.45 39.35 86.75 39.0 87.65 35.25 Q87.65 35.0 87.9 34.85 L88.2 34.65 89.0 34.6 91.05 35.8 91.45 35.45 92.05 34.6 92.1 34.55 93.45 33.15 Q94.3 32.25 95.05 32.75 L94.75 33.95 94.65 34.25 Q94.3 35.55 95.05 36.5 95.3 36.9 95.8 36.7 L98.55 36.45 99.05 36.45 Q99.55 36.3 100.05 36.0 L100.6 35.55 102.85 33.8 103.25 33.7 Q103.55 33.75 103.85 33.95 L104.25 34.35 Q104.4 34.95 105.05 34.95 106.6 35.0 106.85 36.75 107.05 37.85 108.3 37.6 L108.95 37.65 109.25 38.0 Q109.55 39.3 110.25 40.25 L110.85 40.95 111.3 41.25 Q112.55 39.8 113.85 39.05 L114.25 38.5 Q114.3 37.75 113.85 37.2 L111.55 33.75 113.8 33.45 114.5 33.25 115.0 32.7 115.65 32.15 Q115.9 32.0 116.3 32.0 117.7 32.05 118.75 32.8 L119.55 33.15 Q120.05 33.25 120.2 32.95 L120.4 32.55 Q121.05 31.4 122.05 30.75 L122.2 31.0 Q122.2 31.85 122.55 32.5 L122.7 33.0 Q122.85 34.5 124.1 34.55 L124.55 34.0 124.55 33.75 124.45 33.3 124.1 32.7 123.8 32.25 Q123.45 31.6 123.45 30.75 123.45 29.75 123.8 29.25 124.2 28.75 125.05 28.75 L125.55 28.95 126.3 29.0 Q126.3 27.3 126.65 25.75 L126.7 25.5 Q126.75 24.85 127.3 24.85 127.65 24.9 127.95 25.1 L129.1 26.45 129.6 27.25" fill="url(#gradient6)" fill-rule="evenodd" stroke="none"/>
    <path d="M9.1 101.95 L11.6 102.3 Q12.65 102.45 13.4 103.1 L13.9 103.65 14.55 102.95 15.1 102.5 Q16.8 101.45 18.95 101.4 L20.05 101.4 Q20.55 101.45 20.65 101.65 21.4 102.9 22.05 102.45 L21.9 101.5 Q21.35 99.55 21.55 97.45 23.75 98.2 25.55 99.45 26.7 100.3 26.55 102.45 27.65 102.05 27.6 100.45 L27.35 96.45 Q27.2 95.1 28.05 94.95 29.6 95.85 30.45 97.0 L32.1 99.95 32.5 100.9 Q33.7 99.25 35.95 97.7 L38.0 96.35 Q39.35 95.6 39.15 96.6 38.8 96.95 38.8 97.45 38.65 100.15 37.05 101.45 L39.1 101.1 39.95 100.75 Q43.95 98.8 47.6 100.9 48.55 101.45 49.05 102.45 48.15 101.95 47.1 102.15 L46.5 102.3 45.6 102.6 44.0 103.0 Q42.7 103.1 42.55 103.95 L48.05 104.45 50.5 104.2 59.55 103.4 61.5 103.65 62.35 103.85 Q67.9 104.85 72.5 101.9 L73.05 101.7 77.9 102.25 78.55 102.35 Q79.05 102.45 79.25 102.7 80.0 103.7 81.05 103.95 L80.2 102.4 79.8 101.6 Q78.85 100.05 79.55 99.45 81.1 100.05 83.55 100.55 L85.0 100.6 Q86.45 100.35 86.15 98.45 L85.9 97.5 Q85.05 95.4 85.05 92.95 L85.6 93.4 86.55 93.9 Q91.1 95.75 93.55 99.95 93.55 99.45 93.8 99.1 L94.1 98.35 Q94.45 96.45 95.6 95.0 L98.05 91.95 98.05 93.95 97.8 95.35 Q97.25 96.65 97.25 97.95 97.35 99.65 96.35 100.3 L99.6 98.05 Q101.05 96.75 103.05 96.45 L102.05 98.45 Q101.0 100.5 101.05 102.95 L102.5 102.8 103.55 102.7 Q105.8 102.8 107.6 102.0 L108.9 101.25 Q110.1 100.3 112.55 100.4 L122.5 99.8 123.55 99.65 Q125.4 99.5 127.15 98.65 L127.95 98.25 129.1 97.9 141.5 96.3 142.6 96.1 144.45 95.7 146.05 95.35 149.05 95.4 155.05 95.0 160.05 93.85 161.95 93.25 164.15 92.15 165.95 91.25 Q168.9 89.95 172.55 90.4 L173.5 90.6 175.05 90.95 175.05 173.05 -126.7 173.05 -126.7 96.75 -126.65 96.75 -122.2 98.25 Q-120.95 98.5 -119.85 99.05 L-116.35 100.25 -116.3 100.25 Q-115.15 100.7 -114.0 99.5 -114.75 98.2 -114.4 96.45 -112.4 97.0 -111.5 98.05 L-110.95 98.75 Q-111.1 94.45 -111.9 90.45 -107.0 92.3 -105.4 97.45 -104.75 96.2 -102.85 95.05 L-101.0 93.8 Q-100.15 93.2 -99.7 92.3 -98.9 90.9 -97.4 90.95 L-97.8 91.5 -100.1 95.35 Q-101.1 96.8 -100.4 97.45 L-98.85 96.6 Q-97.9 96.2 -97.1 95.65 -95.5 94.55 -94.9 95.45 -95.6 96.85 -97.3 98.55 L-98.0 99.05 Q-99.25 99.45 -100.3 100.55 L-101.9 101.95 -95.0 100.2 -91.35 99.2 -89.45 98.75 Q-84.95 97.75 -80.9 99.5 L-79.85 99.8 Q-77.55 100.15 -75.4 100.9 -71.9 102.05 -68.4 101.0 L-66.45 100.8 Q-64.05 101.05 -64.45 98.95 -64.85 96.75 -63.9 95.95 -62.55 96.65 -61.45 97.5 -60.6 98.2 -59.9 98.3 L-58.65 98.1 Q-58.4 97.95 -58.25 97.5 -57.9 96.45 -57.15 95.65 -56.45 94.9 -56.55 93.95 -56.75 92.6 -55.45 92.55 -55.15 92.7 -55.1 93.0 L-54.6 94.3 -52.4 98.95 -48.45 95.9 -47.3 95.15 Q-45.6 94.2 -44.9 94.95 L-47.85 99.0 -48.4 99.95 Q-47.5 99.45 -46.4 99.45 L-45.5 99.25 -43.4 98.95 -43.15 99.45 -43.25 100.0 -43.5 100.95 Q-43.65 102.1 -44.9 102.95 L-43.9 102.95 -42.95 102.8 Q-38.9 101.55 -34.4 101.05 L-32.45 100.7 -27.4 100.0 -25.45 99.75 -15.9 100.0 -14.4 100.15 Q-12.65 100.1 -11.45 101.0 L-10.85 101.35 -5.85 104.15 -0.95 102.75 -0.35 102.6 0.6 102.35 9.1 101.95" fill="url(#gradient7)" fill-rule="evenodd" stroke="none"/>
    <path d="M-36.3 65.4 L-35.4 65.25 -34.45 65.2 Q-33.85 65.3 -33.9 66.25 L-34.15 67.0 Q-34.7 67.7 -35.85 68.1 L-37.45 68.45 Q-38.45 68.6 -38.9 69.0 L-38.85 69.25 Q-38.45 71.3 -36.7 72.15 -35.9 71.5 -35.95 70.7 -36.0 69.7 -35.6 69.25 L-35.15 69.1 Q-33.9 69.3 -32.9 69.95 L-31.9 70.1 Q-31.0 69.9 -30.35 68.95 L-30.15 68.8 -29.75 68.8 Q-29.25 69.2 -29.5 70.2 L-29.55 70.45 Q-29.75 71.2 -29.25 71.8 -28.4 72.7 -27.15 72.5 L-26.45 72.35 -24.9 72.25 Q-23.85 72.4 -23.4 73.45 L-23.3 73.9 Q-23.6 75.0 -24.9 74.65 L-25.4 74.55 -26.9 74.35 Q-27.9 74.2 -28.15 74.7 L-26.95 75.55 -26.35 75.85 Q-25.6 76.2 -25.75 76.95 L-25.95 77.15 -26.3 77.3 -26.75 77.55 Q-27.7 78.1 -26.6 78.9 L-26.2 79.25 -25.4 79.45 -23.95 77.9 -23.6 77.65 Q-22.2 77.35 -21.0 78.0 L-21.2 78.7 -21.05 79.4 -20.8 80.25 Q-20.6 81.05 -19.9 81.0 L-19.35 80.75 -18.65 80.65 Q-16.65 80.95 -14.95 80.15 L-14.65 80.1 -13.9 80.2 Q-12.55 80.55 -11.9 81.7 L-13.15 82.2 -18.65 83.55 -18.9 83.7 Q-18.0 84.4 -16.9 84.7 L-16.25 85.05 -15.85 85.4 Q-15.35 85.9 -16.15 86.1 L-16.9 86.25 -18.7 86.05 -20.2 86.15 Q-20.9 87.0 -20.9 87.95 L-16.65 87.95 -14.65 87.8 Q-13.25 87.65 -13.15 88.7 L-13.6 89.0 -14.2 89.4 Q-15.0 89.85 -15.1 90.7 -15.35 92.7 -14.4 93.95 L-14.15 94.1 Q-13.35 94.35 -13.45 93.45 -13.5 92.5 -12.95 91.6 -12.0 91.9 -11.4 92.45 -11.3 91.9 -10.85 91.5 L-10.6 91.4 Q-10.15 91.85 -9.4 91.95 L-8.4 89.95 Q-7.9 89.2 -7.45 89.75 L-6.4 90.95 -6.25 90.3 -5.6 88.95 Q-5.0 87.2 -3.15 87.2 L-3.15 88.45 -3.25 89.45 Q-3.45 90.35 -2.65 90.25 L-1.15 90.2 Q-0.9 90.2 -0.85 90.3 -0.5 91.2 -0.9 91.95 L-1.25 92.35 -1.55 92.6 -1.75 92.85 Q-2.15 93.35 -2.1 93.95 -1.9 95.45 -1.15 96.2 L-0.7 94.7 Q-0.5 93.75 0.35 93.45 L0.8 94.0 1.1 94.45 Q2.2 93.45 3.85 92.25 4.5 91.75 4.7 92.45 L4.7 92.7 4.7 92.95 4.55 93.7 Q4.45 94.1 4.5 94.45 4.5 95.45 5.35 94.95 L5.35 95.2 5.45 95.65 5.6 96.7 5.7 97.1 6.05 97.3 6.4 97.45 8.1 97.6 Q9.15 97.5 9.2 98.45 L9.2 98.7 9.1 101.95 0.6 102.35 -0.35 102.6 -0.95 102.75 -5.85 104.15 -10.85 101.35 -11.45 101.0 Q-12.65 100.1 -14.4 100.15 L-15.9 100.0 -25.45 99.75 -27.4 100.0 -32.45 100.7 -34.4 101.05 Q-38.9 101.55 -42.95 102.8 L-43.9 102.95 -44.9 102.95 Q-43.65 102.1 -43.5 100.95 L-43.25 100.0 -43.15 99.45 -43.4 98.95 -45.5 99.25 -46.4 99.45 Q-47.5 99.45 -48.4 99.95 L-47.85 99.0 -44.9 94.95 Q-45.6 94.2 -47.3 95.15 L-48.45 95.9 -52.4 98.95 -54.6 94.3 -55.1 93.0 Q-55.15 92.7 -55.45 92.55 -56.75 92.6 -56.55 93.95 -56.45 94.9 -57.15 95.65 -57.9 96.45 -58.25 97.5 -58.4 97.95 -58.65 98.1 L-59.9 98.3 Q-60.6 98.2 -61.45 97.5 -62.55 96.65 -63.9 95.95 -64.85 96.75 -64.45 98.95 -64.05 101.05 -66.45 100.8 L-68.4 101.0 Q-71.9 102.05 -75.4 100.9 -77.55 100.15 -79.85 99.8 L-80.9 99.5 Q-84.95 97.75 -89.45 98.75 L-91.35 99.2 -95.0 100.2 -101.9 101.95 -100.3 100.55 Q-99.25 99.45 -98.0 99.05 L-97.3 98.55 Q-95.6 96.85 -94.9 95.45 -95.5 94.55 -97.1 95.65 -97.9 96.2 -98.85 96.6 L-100.4 97.45 Q-101.1 96.8 -100.1 95.35 L-97.8 91.5 -97.4 90.95 Q-98.9 90.9 -99.7 92.3 -100.15 93.2 -101.0 93.8 L-102.85 95.05 Q-104.75 96.2 -105.4 97.45 -107.0 92.3 -111.9 90.45 -111.1 94.45 -110.95 98.75 L-111.5 98.05 Q-112.4 97.0 -114.4 96.45 -114.75 98.2 -114.0 99.5 -115.15 100.7 -116.3 100.25 L-116.35 100.25 -119.85 99.05 Q-116.45 97.85 -115.85 97.2 L-115.6 97.05 -115.25 96.85 -115.0 96.55 -114.4 95.9 -114.0 95.55 -112.8 94.3 -112.1 93.5 Q-111.35 92.8 -111.9 92.3 -113.2 90.95 -112.6 89.5 L-112.3 89.2 -111.1 88.9 -110.8 88.7 -110.6 86.25 -110.45 85.8 Q-109.25 85.3 -108.6 86.0 L-108.3 86.55 -107.8 87.7 -107.35 88.0 Q-106.05 88.0 -105.25 87.05 -105.65 85.45 -104.85 84.0 L-104.4 84.1 -104.1 84.25 -102.6 84.5 Q-103.35 83.55 -103.35 82.25 L-101.6 82.35 Q-100.15 82.5 -99.55 81.5 -99.25 80.95 -99.65 80.55 L-100.1 80.3 -101.45 79.3 -102.15 78.6 Q-102.7 78.3 -102.5 77.75 L-102.4 77.5 -101.85 76.35 -99.85 76.35 Q-98.85 76.5 -99.1 75.5 -99.4 74.0 -98.3 73.6 L-97.95 73.6 -97.55 73.85 -96.6 73.75 -96.3 73.35 -95.65 72.95 -94.85 72.75 Q-94.05 72.7 -93.85 72.25 L-93.95 71.8 -94.15 71.2 Q-94.4 70.0 -93.9 69.25 L-93.55 68.95 Q-92.4 68.7 -91.85 69.75 L-91.35 70.1 Q-90.45 69.9 -90.15 69.2 -89.75 68.25 -88.85 67.8 L-87.8 67.05 Q-87.15 66.4 -86.65 67.05 L-86.55 67.45 -87.1 70.75 -86.1 70.45 Q-84.7 70.2 -84.9 71.5 -85.2 73.2 -83.6 72.9 L-83.35 72.8 Q-82.95 72.8 -82.85 72.55 L-82.8 72.25 Q-82.8 70.75 -82.4 69.5 L-80.6 71.2 -79.9 71.9 Q-79.4 72.65 -78.65 72.0 -78.1 71.5 -77.75 70.45 -77.3 69.35 -76.4 69.25 -76.0 69.65 -76.1 70.25 L-76.05 70.7 Q-75.75 71.5 -75.9 72.5 L-72.65 72.0 Q-72.25 72.0 -72.3 72.5 -72.3 73.25 -72.9 73.75 L-73.1 74.2 -72.9 75.6 -70.4 75.5 -69.65 75.6 Q-68.65 75.85 -67.9 77.0 -69.4 77.65 -70.6 78.8 L-70.7 79.1 Q-69.95 80.1 -69.65 81.5 -69.4 82.6 -69.9 83.0 L-69.35 82.4 -67.15 78.75 -66.0 77.4 Q-65.1 76.6 -66.45 75.8 -67.65 75.1 -67.35 73.75 -67.2 73.2 -66.9 73.05 L-66.25 72.65 -65.6 72.1 Q-65.2 71.7 -65.35 70.75 -65.4 70.2 -65.75 69.8 -66.65 68.7 -66.4 67.25 L-63.9 67.85 -63.6 67.95 Q-62.65 68.25 -62.15 69.0 L-62.0 68.5 -61.85 67.5 Q-61.75 66.85 -61.15 66.25 -60.9 66.0 -60.4 65.85 -59.45 65.8 -59.1 66.45 L-58.1 68.45 -57.95 68.8 Q-57.35 70.15 -56.4 69.25 -56.0 68.85 -56.25 68.3 -56.65 67.25 -57.35 66.25 L-57.55 65.75 Q-57.65 65.15 -57.15 65.1 L-54.9 65.5 Q-56.2 63.55 -55.9 61.0 L-55.8 60.7 -54.9 60.5 Q-54.0 60.5 -53.65 61.0 L-52.85 61.95 -52.65 62.3 Q-52.4 63.85 -52.4 65.45 L-51.9 64.5 Q-51.1 62.6 -49.15 62.5 L-48.75 62.6 Q-47.8 63.35 -48.4 64.25 L-48.55 64.75 Q-48.55 65.25 -48.9 65.5 L-48.15 65.45 -46.9 65.4 Q-46.15 65.4 -46.0 64.75 L-45.8 63.75 -45.65 62.5 Q-45.65 61.5 -44.7 61.85 L-44.4 61.85 Q-43.75 61.85 -43.65 62.25 -43.45 63.35 -42.9 64.25 -42.55 64.9 -42.65 64.5 L-40.85 61.75 -40.65 61.6 -40.25 61.4 Q-39.05 60.55 -37.65 60.5 -37.7 61.85 -38.45 63.0 -39.05 63.95 -39.15 65.0 L-39.1 65.25 -36.3 65.4 M-52.4 65.45 L-52.65 65.75 Q-52.45 66.4 -52.4 65.5 L-52.4 65.45" fill="url(#gradient8)" fill-rule="evenodd" stroke="none"/>
    <path d="M-128.05 21.35 Q-126.75 23.6 -124.3 25.2 L-123.3 25.6 -122.9 25.45 -122.5 25.1 -122.15 24.9 -119.85 24.5 -119.45 24.6 -118.6 25.25 Q-117.65 25.95 -116.35 25.65 L-116.1 25.6 -115.7 25.4 -114.8 24.85 -114.5 24.65 Q-114.3 24.3 -113.85 24.3 L-113.4 24.15 Q-112.95 23.95 -112.15 23.7 L-111.8 23.55 Q-110.75 23.15 -110.3 21.75 L-109.3 19.5 -109.2 19.25 -108.9 18.0 -108.25 16.8 -107.95 16.45 Q-107.35 15.75 -106.1 16.1 L-105.8 16.2 -104.85 16.45 -104.4 16.4 -102.85 15.45 -102.55 15.3 -101.7 14.85 Q-100.35 13.95 -98.6 14.25 -97.5 14.45 -97.1 14.0 L-96.55 13.6 -96.2 13.4 -95.8 13.05 -95.45 12.45 Q-95.1 11.7 -94.35 11.75 L-93.65 11.9 -91.35 12.35 Q-90.3 12.35 -89.8 11.3 L-89.45 10.45 Q-89.2 9.7 -88.6 9.5 -88.15 9.55 -88.2 10.0 L-88.25 10.25 -88.15 10.75 Q-87.55 12.7 -85.6 12.0 L-85.6 13.75 Q-85.6 14.15 -85.75 14.4 -86.65 16.1 -86.5 18.25 L-86.2 18.8 -85.7 18.85 -85.0 18.45 -84.25 18.0 Q-82.8 17.05 -80.85 16.75 L-81.1 17.5 -81.45 18.45 -81.85 19.55 -81.95 19.9 -74.35 21.3 -73.15 21.6 -72.8 22.0 Q-72.75 22.95 -73.05 23.75 L-73.5 24.65 Q-73.95 25.4 -73.95 26.25 L-74.1 27.25 -73.85 27.1 Q-72.5 26.65 -71.6 25.75 L-71.05 25.35 -70.75 25.4 -70.5 25.65 -69.2 27.35 Q-68.7 28.1 -68.35 29.0 L-68.0 29.4 -67.6 29.5 -63.85 29.2 -63.05 29.35 -62.25 30.0 -61.95 30.35 -62.1 31.0 -62.6 31.2 -65.85 32.25 -65.35 32.5 -64.45 33.1 Q-64.1 33.45 -64.2 34.0 L-64.4 34.35 -65.1 34.55 -65.85 34.6 Q-67.1 34.6 -67.1 35.5 L-67.0 35.8 -65.85 36.05 -64.6 36.2 -61.6 36.4 Q-60.35 36.4 -59.85 37.0 L-60.4 37.7 Q-61.1 38.6 -61.5 39.8 L-61.5 40.1 Q-60.55 41.0 -59.1 40.8 -58.4 40.7 -58.4 40.0 L-58.3 39.0 -58.15 38.25 Q-57.9 37.25 -56.85 37.45 L-56.4 37.6 Q-55.3 38.1 -54.4 38.85 L-54.0 39.15 -53.7 39.15 -52.55 38.05 Q-51.95 37.3 -51.1 37.25 L-50.7 37.35 Q-50.5 38.2 -49.9 38.8 L-49.25 39.4 Q-48.55 39.95 -49.1 40.5 L-49.25 40.8 -49.6 42.0 -48.85 42.0 Q-48.0 41.9 -47.65 42.3 -46.8 43.05 -45.4 43.1 L-44.8 42.8 -44.35 42.5 -43.3 41.6 Q-42.9 41.05 -42.1 41.25 -41.15 43.05 -40.4 45.5 L-39.7 45.35 -38.6 44.8 -37.9 44.65 -37.65 44.75 Q-37.0 45.25 -36.75 46.05 L-36.35 47.25 Q-36.05 48.35 -36.25 49.5 -36.4 50.5 -35.65 50.5 L-34.7 50.4 -33.6 50.15 Q-32.45 49.9 -32.7 51.25 -33.2 53.85 -34.95 55.45 -35.6 55.95 -34.6 56.45 L-33.95 56.8 -33.35 57.1 Q-32.7 57.4 -32.85 58.25 L-33.0 58.95 -33.3 60.05 Q-33.6 61.05 -34.4 61.0 -36.55 61.95 -35.1 63.2 L-34.65 63.5 Q-34.85 63.8 -35.35 64.05 L-36.3 65.4 -39.1 65.25 -39.15 65.0 Q-39.05 63.95 -38.45 63.0 -37.7 61.85 -37.65 60.5 -39.05 60.55 -40.25 61.4 L-40.65 61.6 -40.85 61.75 -42.65 64.5 Q-42.55 64.9 -42.9 64.25 -43.45 63.35 -43.65 62.25 -43.75 61.85 -44.4 61.85 L-44.7 61.85 Q-45.65 61.5 -45.65 62.5 L-45.8 63.75 -46.0 64.75 Q-46.15 65.4 -46.9 65.4 L-48.15 65.45 -48.9 65.5 Q-48.55 65.25 -48.55 64.75 L-48.4 64.25 Q-47.8 63.35 -48.75 62.6 L-49.15 62.5 Q-51.1 62.6 -51.9 64.5 L-52.4 65.45 Q-52.4 63.85 -52.65 62.3 L-52.85 61.95 -53.65 61.0 Q-54.0 60.5 -54.9 60.5 L-55.8 60.7 -55.9 61.0 Q-56.2 63.55 -54.9 65.5 L-57.15 65.1 Q-57.65 65.15 -57.55 65.75 L-57.35 66.25 Q-56.65 67.25 -56.25 68.3 -56.0 68.85 -56.4 69.25 -57.35 70.15 -57.95 68.8 L-58.1 68.45 -59.1 66.45 Q-59.45 65.8 -60.4 65.85 -60.9 66.0 -61.15 66.25 -61.75 66.85 -61.85 67.5 L-62.0 68.5 -62.15 69.0 Q-62.65 68.25 -63.6 67.95 L-63.9 67.85 -66.4 67.25 Q-66.65 68.7 -65.75 69.8 -65.4 70.2 -65.35 70.75 -65.2 71.7 -65.6 72.1 L-66.25 72.65 -66.9 73.05 Q-67.2 73.2 -67.35 73.75 -67.65 75.1 -66.45 75.8 -65.1 76.6 -66.0 77.4 L-67.15 78.75 -69.35 82.4 -69.9 83.0 Q-69.4 82.6 -69.65 81.5 -69.95 80.1 -70.7 79.1 L-70.6 78.8 Q-69.4 77.65 -67.9 77.0 -68.65 75.85 -69.65 75.6 L-70.4 75.5 -72.9 75.6 -73.1 74.2 -72.9 73.75 Q-72.3 73.25 -72.3 72.5 -72.25 72.0 -72.65 72.0 L-75.9 72.5 Q-75.75 71.5 -76.05 70.7 L-76.1 70.25 Q-76.0 69.65 -76.4 69.25 -77.3 69.35 -77.75 70.45 -78.1 71.5 -78.65 72.0 -79.4 72.65 -79.9 71.9 L-80.6 71.2 -82.4 69.5 Q-82.8 70.75 -82.8 72.25 L-82.85 72.55 Q-82.95 72.8 -83.35 72.8 L-83.6 72.9 Q-85.2 73.2 -84.9 71.5 -84.7 70.2 -86.1 70.45 L-87.1 70.75 -86.55 67.45 -86.65 67.05 Q-87.15 66.4 -87.8 67.05 L-88.85 67.8 Q-89.75 68.25 -90.15 69.2 -90.45 69.9 -91.35 70.1 L-91.85 69.75 Q-92.4 68.7 -93.55 68.95 L-93.9 69.25 Q-94.4 70.0 -94.15 71.2 L-93.95 71.8 -93.85 72.25 Q-94.05 72.7 -94.85 72.75 L-95.65 72.95 -96.3 73.35 -96.6 73.75 -97.55 73.85 -97.95 73.6 -98.3 73.6 Q-99.4 74.0 -99.1 75.5 -98.85 76.5 -99.85 76.35 L-101.85 76.35 -102.4 77.5 -102.5 77.75 Q-102.7 78.3 -102.15 78.6 L-101.45 79.3 -100.1 80.3 -99.65 80.55 Q-99.25 80.95 -99.55 81.5 -100.15 82.5 -101.6 82.35 L-103.35 82.25 Q-103.35 83.55 -102.6 84.5 L-104.1 84.25 -104.4 84.1 -104.85 84.0 Q-105.65 85.45 -105.25 87.05 -106.05 88.0 -107.35 88.0 L-107.8 87.7 -108.3 86.55 -108.6 86.0 Q-109.25 85.3 -110.45 85.8 L-110.6 86.25 -110.8 88.7 -111.1 88.9 -112.3 89.2 -112.6 89.5 Q-113.2 90.95 -111.9 92.3 -111.35 92.8 -112.1 93.5 L-112.8 94.3 -114.0 95.55 -114.4 95.9 -115.0 96.55 -115.25 96.85 -115.6 97.05 -115.85 97.2 Q-116.45 97.85 -119.85 99.05 -120.95 98.5 -122.2 98.25 L-126.65 96.75 -126.7 96.75 -126.65 96.75 -126.7 96.75 -126.65 96.6 -128.05 21.35 M-81.95 19.9 L-82.05 19.9 -82.6 19.75 -82.7 20.0 -82.55 20.2 -82.4 20.2 -82.3 20.2 -81.95 19.9" fill="url(#gradient9)" fill-rule="evenodd" stroke="none"/>
    <path d="M116.65 -84.8 L116.05 -84.5 112.55 -83.0 113.2 -85.95 113.6 -86.35 114.4 -86.7 116.2 -87.75 118.0 -88.65 118.55 -89.0 118.15 -89.15 114.55 -89.95 113.15 -90.25 Q112.05 -90.75 111.05 -91.5 110.65 -91.9 112.2 -92.75 L114.0 -93.65 114.55 -94.0 Q115.9 -95.2 117.05 -95.5 L114.55 -98.95 Q114.3 -99.25 114.7 -99.9 115.6 -101.3 117.55 -101.1 121.05 -100.8 122.75 -102.25 L123.5 -102.35 127.55 -102.0 Q126.6 -103.15 126.75 -104.4 L127.5 -105.1 Q130.75 -106.65 134.55 -106.3 L135.05 -106.0 135.0 -106.35 Q134.75 -108.65 136.65 -109.05 L138.55 -109.1 Q140.5 -108.8 141.05 -106.5 142.4 -107.35 143.4 -108.75 L144.05 -109.0 Q145.85 -109.1 145.6 -107.1 L145.55 -107.0 146.05 -107.1 Q147.15 -107.4 148.15 -108.4 148.55 -108.75 149.05 -108.8 150.15 -108.9 150.5 -109.85 L151.05 -110.1 Q154.05 -110.6 154.7 -108.05 L154.95 -107.45 158.2 -109.75 159.0 -109.85 162.0 -109.7 162.6 -109.8 166.05 -110.0 Q165.75 -110.95 164.05 -111.0 163.3 -111.0 162.5 -111.35 161.7 -111.65 162.05 -113.0 162.25 -113.95 163.55 -114.5 165.3 -115.25 167.55 -115.25 L168.1 -115.15 Q169.55 -114.55 170.15 -113.55 L170.55 -113.0 Q171.35 -113.95 171.15 -116.0 170.95 -117.8 172.95 -117.15 173.55 -116.95 174.0 -116.45 175.0 -115.4 175.05 -113.35 L175.05 -113.0 M175.05 -76.45 L174.05 -78.0 Q173.5 -75.2 172.8 -73.4 L172.5 -72.0 Q172.45 -70.15 171.1 -68.95 168.85 -66.95 166.1 -68.1 165.35 -68.4 164.5 -69.45 L164.15 -70.05 Q163.2 -72.35 163.5 -75.0 L163.55 -76.0 163.15 -75.15 Q162.45 -73.7 161.9 -72.05 161.55 -71.0 160.0 -70.65 L157.45 -70.1 Q156.8 -70.0 156.15 -70.6 L155.55 -71.5 Q155.05 -72.65 155.25 -73.55 153.6 -71.05 149.6 -71.5 L149.55 -72.0 149.75 -76.5 150.0 -77.05 150.35 -77.45 Q150.85 -77.95 151.55 -78.0 151.45 -79.1 150.6 -77.95 L150.3 -77.55 149.9 -77.15 149.5 -76.8 Q148.3 -75.9 146.45 -75.25 L146.05 -75.1 145.05 -75.0 141.05 -75.0 Q142.9 -78.15 146.05 -79.5 143.6 -78.65 141.1 -77.35 139.15 -76.3 137.0 -75.7 L135.55 -75.5 126.55 -75.5 Q128.55 -79.2 133.05 -80.55 134.6 -81.05 136.1 -81.95 L137.05 -82.5 133.05 -82.3 131.55 -82.1 130.05 -82.0 130.2 -83.45 130.6 -83.95 132.05 -85.5 Q126.1 -82.05 118.55 -84.45 L116.85 -84.9 116.65 -84.8 M116.55 -85.0 L118.55 -86.5 Q120.75 -87.85 123.05 -88.0 L116.85 -84.9 116.55 -85.0 M175.05 -12.25 Q174.35 -12.95 174.15 -14.4 172.75 -13.6 170.6 -14.1 170.05 -14.25 169.2 -14.75 168.35 -15.25 168.05 -16.4 L167.3 -15.85 Q166.9 -15.15 166.1 -14.85 L162.5 -13.7 161.1 -13.3 159.05 -13.0 158.25 -13.2 Q157.4 -15.85 158.55 -17.5 L161.05 -21.0 159.55 -20.9 Q158.2 -20.7 157.2 -19.85 156.7 -19.45 155.55 -18.95 L154.75 -18.35 Q152.3 -15.4 148.55 -16.95 L147.05 -17.2 146.05 -17.3 Q144.75 -17.7 145.0 -19.5 L145.3 -20.15 146.05 -20.65 Q148.6 -22.45 150.05 -24.5 L149.1 -24.65 146.55 -25.0 147.65 -28.45 Q148.2 -29.95 150.05 -29.6 L153.0 -28.8 Q152.7 -30.25 153.45 -31.1 L154.05 -31.5 154.1 -31.5 166.55 -32.0 Q166.4 -32.8 165.05 -32.9 L163.1 -33.25 160.55 -34.0 Q162.2 -34.65 163.95 -36.6 L164.65 -37.05 169.55 -37.5 168.25 -39.6 Q167.7 -40.75 169.05 -40.85 L171.1 -41.0 171.2 -40.9 174.05 -38.0 173.65 -41.05 Q172.95 -43.35 174.6 -43.9 L175.05 -44.05 M169.05 -91.0 Q169.05 -92.35 167.6 -92.45 L166.45 -92.8 Q164.25 -94.0 161.55 -93.8 L160.65 -93.4 Q159.4 -92.2 157.7 -91.55 L157.45 -91.0 157.05 -89.0 Q156.75 -87.7 158.05 -88.0 M155.8 -74.7 L155.25 -73.55 155.9 -74.8 155.8 -74.7 M156.15 -75.45 L156.3 -76.5 155.9 -74.8 156.15 -75.45 M153.0 -28.8 L155.0 -27.95 156.55 -27.0 Q157.85 -26.05 157.05 -26.0 M175.05 -158.35 L171.05 -157.95 Q170.3 -158.0 169.8 -158.35 169.55 -158.5 169.45 -158.95 169.1 -160.45 170.15 -162.4 171.85 -165.35 174.5 -166.6 L175.05 -166.85 M175.05 -167.7 L174.05 -167.7 173.5 -167.75 Q171.3 -168.25 171.75 -170.4 L172.05 -170.95 Q173.4 -172.2 175.05 -173.05 M174.05 -95.5 Q173.5 -97.9 171.15 -99.2 169.95 -99.9 168.5 -100.15 L167.05 -100.0 Q166.15 -99.65 166.3 -98.0 L166.2 -97.45 Q165.65 -95.4 167.5 -94.85 L168.1 -94.55 169.05 -94.0 M175.05 -15.1 L174.15 -14.4 M168.05 -16.4 Q169.15 -17.45 169.55 -18.7 169.9 -20.0 171.05 -20.5" fill="none" stroke="#74a369" stroke-linecap="round" stroke-linejoin="round" stroke-width="1.0"/>
    <path d="M9.1 101.95 L11.6 102.3 Q12.65 102.45 13.4 103.1 L13.9 103.65 14.55 102.95 15.1 102.5 Q16.8 101.45 18.95 101.4 L20.05 101.4 Q20.55 101.45 20.65 101.65 21.4 102.9 22.05 102.45 L21.9 101.5 Q21.35 99.55 21.55 97.45 23.75 98.2 25.55 99.45 26.7 100.3 26.55 102.45 27.65 102.05 27.6 100.45 L27.35 96.45 Q27.2 95.1 28.05 94.95 29.6 95.85 30.45 97.0 L32.1 99.95 32.5 100.9 Q33.7 99.25 35.95 97.7 L38.0 96.35 Q39.35 95.6 39.15 96.6 38.8 96.95 38.8 97.45 38.65 100.15 37.05 101.45 L39.1 101.1 39.95 100.75 Q43.95 98.8 47.6 100.9 48.55 101.45 49.05 102.45 48.15 101.95 47.1 102.15 L46.5 102.3 45.6 102.6 44.0 103.0 Q42.7 103.1 42.55 103.95 L48.05 104.45 50.5 104.2 59.55 103.4 61.5 103.65 62.35 103.85 Q67.9 104.85 72.5 101.9 L73.05 101.7 77.9 102.25 78.55 102.35 Q79.05 102.45 79.25 102.7 80.0 103.7 81.05 103.95 L80.2 102.4 79.8 101.6 Q78.85 100.05 79.55 99.45 81.1 100.05 83.55 100.55 L85.0 100.6 Q86.45 100.35 86.15 98.45 L85.9 97.5 Q85.05 95.4 85.05 92.95 L85.6 93.4 86.55 93.9 Q91.1 95.75 93.55 99.95 93.55 99.45 93.8 99.1 L94.1 98.35 Q94.45 96.45 95.6 95.0 L98.05 91.95 98.05 93.95 97.8 95.35 Q97.25 96.65 97.25 97.95 97.35 99.65 96.35 100.3 L99.6 98.05 Q101.05 96.75 103.05 96.45 L102.05 98.45 Q101.0 100.5 101.05 102.95 L102.5 102.8 103.55 102.7 Q105.8 102.8 107.6 102.0 L108.9 101.25 Q110.1 100.3 112.55 100.4 L122.5 99.8 123.55 99.65 Q125.4 99.5 127.15 98.65 L127.95 98.25 129.1 97.9 141.5 96.3 142.6 96.1 144.45 95.7 146.05 95.35 149.05 95.4 155.05 95.0 160.05 93.85 161.95 93.25 164.15 92.15 165.95 91.25 Q168.9 89.95 172.55 90.4 L173.5 90.6 175.05 90.95 M-126.65 96.75 L-126.7 96.75 M9.1 101.95 L0.6 102.35 -0.35 102.6 -0.95 102.75 -5.85 104.15 -10.85 101.35 -11.45 101.0 Q-12.65 100.1 -14.4 100.15 L-15.9 100.0 -25.45 99.75 -27.4 100.0 -32.45 100.7 -34.4 101.05 Q-38.9 101.55 -42.95 102.8 L-43.9 102.95 -44.9 102.95 Q-43.65 102.1 -43.5 100.95 L-43.25 100.0 -43.15 99.45 -43.4 98.95 -45.5 99.25 -46.4 99.45 Q-47.5 99.45 -48.4 99.95 L-47.85 99.0 -44.9 94.95 Q-45.6 94.2 -47.3 95.15 L-48.45 95.9 -52.4 98.95 -54.6 94.3 -55.1 93.0 Q-55.15 92.7 -55.45 92.55 -56.75 92.6 -56.55 93.95 -56.45 94.9 -57.15 95.65 -57.9 96.45 -58.25 97.5 -58.4 97.95 -58.65 98.1 L-59.9 98.3 Q-60.6 98.2 -61.45 97.5 -62.55 96.65 -63.9 95.95 -64.85 96.75 -64.45 98.95 -64.05 101.05 -66.45 100.8 L-68.4 101.0 Q-71.9 102.05 -75.4 100.9 -77.55 100.15 -79.85 99.8 L-80.9 99.5 Q-84.95 97.75 -89.45 98.75 L-91.35 99.2 -95.0 100.2 -101.9 101.95 -100.3 100.55 Q-99.25 99.45 -98.0 99.05 L-97.3 98.55 Q-95.6 96.85 -94.9 95.45 -95.5 94.55 -97.1 95.65 -97.9 96.2 -98.85 96.6 L-100.4 97.45 Q-101.1 96.8 -100.1 95.35 L-97.8 91.5 -97.4 90.95 Q-98.9 90.9 -99.7 92.3 -100.15 93.2 -101.0 93.8 L-102.85 95.05 Q-104.75 96.2 -105.4 97.45 -107.0 92.3 -111.9 90.45 -111.1 94.45 -110.95 98.75 L-111.5 98.05 Q-112.4 97.0 -114.4 96.45 -114.75 98.2 -114.0 99.5 -115.15 100.7 -116.3 100.25 L-116.35 100.25 -119.85 99.05 Q-120.95 98.5 -122.2 98.25 L-126.65 96.75" fill="none" stroke="#8aa76c" stroke-linecap="round" stroke-linejoin="round" stroke-width="1.0"/>
    <path d="M152.8 124.2 Q180.05 121.2 180.05 117.0 180.05 112.75 152.8 109.7 125.55 106.7 87.05 106.75 48.5 106.7 21.25 109.7 -6.0 112.75 -6.0 117.0 -6.0 121.2 21.25 124.2 48.5 127.25 87.05 127.25 125.55 127.25 152.8 124.2" fill="url(#gradient10)" fill-rule="evenodd" stroke="none"/>
    <path d="M-186.05 147.05 Q-186.05 140.85 -131.55 136.4 -77.05 132.05 0.0 132.05 65.2 132.05 114.25 135.15 L131.55 136.4 Q186.05 140.85 186.05 147.05 186.05 153.25 131.55 157.6 L114.25 158.85 Q65.2 162.05 0.0 162.05 -77.05 162.05 -131.55 157.6 -186.05 153.25 -186.05 147.05" fill="url(#gradient11)" fill-rule="evenodd" stroke="none"/>
  </g>
  <defs>
    <linearGradient gradientTransform="matrix(0.0, -0.0674, -0.2044, 0.0, 39.4, -24.4)" gradientUnits="userSpaceOnUse" id="gradient0" spreadMethod="pad" x1="-819.2" x2="819.2">
      <stop offset="0.0" stop-color="#a0c6f3" stop-opacity="0.0"/>
      <stop offset="0.3686274509803922" stop-color="#a0c6f3"/>
      <stop offset="0.8274509803921568" stop-color="#9d8cc1"/>
    </linearGradient>
    <linearGradient gradientTransform="matrix(0.0, -0.0826, -0.1234, 0.0, 31.85, 29.75)" gradientUnits="userSpaceOnUse" id="gradient1" spreadMethod="pad" x1="-819.2" x2="819.2">
      <stop offset="0.1450980392156863" stop-color="#e3f968"/>
      <stop offset="0.796078431372549" stop-color="#ffccff"/>
    </linearGradient>
    <radialGradient cx="0" cy="0" gradientTransform="matrix(0.0, -0.053, -0.1065, 0.0, 194.65, -112.1)" gradientUnits="userSpaceOnUse" id="gradient2" r="819.2" spreadMethod="pad">
      <stop offset="0.11764705882352941" stop-color="#c4eb9c"/>
      <stop offset="0.6784313725490196" stop-color="#85b389"/>
      <stop offset="1.0" stop-color="#70afac"/>
    </radialGradient>
    <radialGradient cx="0" cy="0" gradientTransform="matrix(0.0, 0.0383, 0.0825, 0.0, 206.5, -45.5)" gradientUnits="userSpaceOnUse" id="gradient3" r="819.2" spreadMethod="pad">
      <stop offset="0.11764705882352941" stop-color="#c4eb9c"/>
      <stop offset="0.6784313725490196" stop-color="#85b389"/>
      <stop offset="1.0" stop-color="#70afac"/>
    </radialGradient>
    <radialGradient cx="0" cy="0" gradientTransform="matrix(0.0, -0.0653, -0.1235, 0.0, 261.0, -177.45)" gradientUnits="userSpaceOnUse" id="gradient4" r="819.2" spreadMethod="pad">
      <stop offset="0.11764705882352941" stop-color="#c4eb9c"/>
      <stop offset="0.6784313725490196" stop-color="#85b389"/>
      <stop offset="1.0" stop-color="#70afac"/>
    </radialGradient>
    <linearGradient gradientTransform="matrix(0.0, 0.0555, 0.0814, 0.0, 202.95, 22.45)" gradientUnits="userSpaceOnUse" id="gradient5" spreadMethod="pad" x1="-819.2" x2="819.2">
      <stop offset="0.1450980392156863" stop-color="#b89db6"/>
      <stop offset="0.6549019607843137" stop-color="#f3b2c5" stop-opacity="0.5019608"/>
      <stop offset="0.9294117647058824" stop-color="#fdd1f8" stop-opacity="0.0"/>
    </linearGradient>
    <linearGradient gradientTransform="matrix(0.0, -0.0347, -0.1608, 0.0, 138.05, 61.85)" gradientUnits="userSpaceOnUse" id="gradient6" spreadMethod="pad" x1="-819.2" x2="819.2">
      <stop offset="0.1450980392156863" stop-color="#c4eb9c"/>
      <stop offset="0.796078431372549" stop-color="#91c6a5"/>
    </linearGradient>
    <linearGradient gradientTransform="matrix(0.0, 0.0725, 0.3105, 0.0, 127.6, 113.65)" gradientUnits="userSpaceOnUse" id="gradient7" spreadMethod="pad" x1="-819.2" x2="819.2">
      <stop offset="0.35294117647058826" stop-color="#f0e066"/>
      <stop offset="0.7019607843137254" stop-color="#cfca55"/>
      <stop offset="0.8823529411764706" stop-color="#b2be5e"/>
    </linearGradient>
    <linearGradient gradientTransform="matrix(0.0, -0.0266, -0.0788, 0.0, -55.35, 82.35)" gradientUnits="userSpaceOnUse" id="gradient8" spreadMethod="pad" x1="-819.2" x2="819.2">
      <stop offset="0.23137254901960785" stop-color="#c1dfaf"/>
      <stop offset="0.7843137254901961" stop-color="#a0c6f3"/>
    </linearGradient>
    <linearGradient gradientTransform="matrix(0.0, 0.0547, 0.0582, 0.0, -80.35, 54.25)" gradientUnits="userSpaceOnUse" id="gradient9" spreadMethod="pad" x1="-819.2" x2="819.2">
      <stop offset="0.1450980392156863" stop-color="#c4eb9c"/>
      <stop offset="0.796078431372549" stop-color="#91c6a5"/>
    </linearGradient>
    <radialGradient cx="0" cy="0" gradientTransform="matrix(0.0, 0.0125, 0.1146, -1.0E-4, 87.05, 116.95)" gradientUnits="userSpaceOnUse" id="gradient10" r="819.2" spreadMethod="pad">
      <stop offset="0.23137254901960785" stop-color="#85a844" stop-opacity="0.7529412"/>
      <stop offset="0.7843137254901961" stop-color="#85a844" stop-opacity="0.0"/>
    </radialGradient>
    <radialGradient cx="0" cy="0" gradientTransform="matrix(0.0, 0.0183, -0.2292, -1.0E-4, 0.0, 147.05)" gradientUnits="userSpaceOnUse" id="gradient11" r="819.2" spreadMethod="pad">
      <stop offset="0.23137254901960785" stop-color="#85a844" stop-opacity="0.7529412"/>
      <stop offset="0.7843137254901961" stop-color="#85a844" stop-opacity="0.0"/>
    </radialGradient>
  </defs>
</svg>
