<?xml version="1.0" encoding="UTF-8" standalone="no"?>
<svg xmlns:ffdec="https://www.free-decompiler.com/flash" xmlns:xlink="http://www.w3.org/1999/xlink" ffdec:objectType="shape" height="114.0px" width="157.8px" xmlns="http://www.w3.org/2000/svg">
  <g transform="matrix(1.0, 0.0, 0.0, 1.0, 158.9, -143.25)">
    <path d="M-98.45 145.7 L-84.5 172.4 -84.3 172.1 -84.25 172.1 -84.1 172.0 -83.95 172.05 Q-83.05 170.55 -82.0 169.5 L-81.05 168.6 Q-80.2 167.85 -79.25 167.4 -76.6 166.05 -73.55 166.9 L-73.45 166.95 -72.95 167.1 Q-71.4 166.9 -68.2 168.3 L-55.6 174.55 -46.85 171.9 -50.4 169.9 -21.35 161.6 -19.4 162.5 -13.15 164.85 -19.2 175.1 -18.3 177.3 -28.7 195.5 Q-24.95 198.85 -25.2 199.4 -25.35 199.9 -26.65 199.4 L-23.8 202.85 -23.75 202.9 Q-23.05 203.5 -23.15 204.35 -23.3 205.2 -24.15 205.85 -25.05 206.45 -26.2 206.45 -27.05 206.45 -27.7 206.1 L-27.8 206.2 -28.0 206.25 Q-32.05 204.85 -35.5 203.05 L-35.6 202.9 -35.65 202.8 Q-36.5 202.8 -36.65 203.4 L-36.65 203.7 -37.05 204.35 -37.95 204.65 -38.4 204.55 -38.55 204.5 -38.75 204.35 -39.85 203.6 Q-39.1 204.7 -38.85 205.9 -25.65 217.1 -17.4 235.8 L-11.6 243.6 -11.55 243.75 -11.55 243.9 -11.7 244.0 -11.75 244.0 -1.95 253.25 -1.5 253.65 -1.3 253.9 -1.3 253.95 Q-1.0 254.45 -1.1 255.15 L-1.1 255.2 Q-1.2 256.0 -1.8 256.6 L-1.8 256.65 Q-2.5 257.25 -3.3 257.25 -3.95 257.2 -4.4 256.85 L-4.45 256.85 -17.45 246.9 -17.55 247.25 -17.6 247.4 -17.75 247.45 -17.9 247.45 -18.3 247.2 Q-17.15 248.75 -16.65 250.6 L-16.7 250.75 -16.8 250.85 -17.0 250.9 Q-19.55 250.15 -21.9 248.2 L-22.0 248.0 -21.95 247.85 Q-27.05 244.65 -30.9 240.9 -47.2 235.15 -69.55 217.0 L-70.05 217.2 Q-70.8 217.4 -71.3 217.2 L-71.55 217.1 -71.4 217.35 Q-69.6 219.65 -69.75 222.15 -69.9 224.7 -72.3 225.9 -74.75 227.05 -77.0 225.95 L-86.5 218.95 -86.6 219.05 -87.2 219.3 Q-86.05 220.8 -85.85 222.35 -85.7 222.55 -85.7 222.85 -85.6 223.35 -86.1 223.9 L-87.25 224.65 Q-88.0 224.85 -88.5 224.65 L-88.5 224.6 -88.7 224.5 Q-89.85 224.65 -95.05 220.45 L-95.1 220.45 -95.15 220.4 -97.95 218.15 Q-98.05 219.45 -92.85 224.0 L-92.8 224.15 -92.8 224.35 -92.95 224.45 -100.15 226.55 -100.25 226.55 -136.85 222.75 -136.9 222.75 -137.0 222.7 -137.05 222.6 -138.95 218.2 -158.7 211.4 -158.85 211.3 -158.9 211.15 -158.4 206.95 -158.35 206.85 -157.6 200.25 -157.55 200.15 -157.5 200.05 -157.4 200.05 -128.25 191.05 -128.15 191.0 Q-128.1 191.0 -128.0 191.1 L-124.0 194.4 -116.65 192.25 Q-119.3 188.2 -120.5 184.8 L-120.5 184.6 -120.35 184.5 -120.3 184.45 -120.35 183.3 -120.35 183.2 -120.3 182.25 -120.3 182.15 -120.2 181.25 -120.45 182.1 -120.6 183.2 -120.55 182.25 -120.55 182.1 Q-120.1 177.3 -117.3 175.4 -114.5 173.45 -109.3 174.4 L-107.9 174.7 -107.85 174.7 -106.5 175.0 -106.4 175.0 -105.05 175.5 -104.95 175.55 -101.75 178.5 -101.6 178.6 -95.1 176.7 -95.25 176.3 -95.25 176.25 -95.25 176.2 -97.9 166.1 -97.95 166.05 -102.6 148.3 -102.6 148.1 -102.45 148.0 -103.6 143.25 -98.45 145.7 M-55.6 174.55 L-55.75 174.6 -55.65 174.65 -55.6 174.55 M-87.1 192.15 L-87.2 192.1 -87.25 192.1 -87.1 192.2 -87.1 192.15 M-119.5 185.7 L-119.6 185.75 Q-118.4 188.75 -116.05 192.25 L-116.05 192.3 -115.0 193.8 -112.3 197.35 -112.3 197.4 -108.1 202.15 -107.6 200.4 -111.6 195.55 -111.65 195.5 -111.65 195.45 -117.0 189.0 -117.05 188.95 -117.1 188.75 -117.05 188.55 -119.45 185.7 -119.5 185.7 M-50.95 177.05 L-50.75 177.1 -50.85 177.05 -50.9 177.0 -50.95 177.05 M-24.8 242.8 L-24.9 242.7 -25.0 242.7 -24.8 242.8 M-23.45 237.65 L-23.5 237.55 -23.5 237.65 -23.45 237.65 M-40.75 203.25 L-43.45 201.4 -40.95 204.5 -40.9 204.45 -40.75 204.4 -40.6 204.45 -39.55 205.3 Q-39.95 204.25 -40.75 203.25 M-76.85 212.1 L-76.9 212.0 -76.95 212.0 -76.85 212.1" fill="#000000" fill-opacity="0.33333334" fill-rule="evenodd" stroke="none"/>
  </g>
</svg>
