<?xml version="1.0" encoding="UTF-8" standalone="no"?>
<svg xmlns:ffdec="https://www.free-decompiler.com/flash" xmlns:xlink="http://www.w3.org/1999/xlink" ffdec:objectType="shape" height="257.9px" width="374.95px" xmlns="http://www.w3.org/2000/svg">
  <g transform="matrix(1.0, 0.0, 0.0, 1.0, 187.45, 128.95)">
    <path d="M123.4 -117.4 L129.15 -110.75 Q149.0 -121.15 170.7 -120.3 L170.75 -120.3 Q171.65 -118.95 171.9 -117.45 174.4 -99.65 73.35 -64.6 42.25 -53.8 1.3 -41.35 L-14.75 -36.5 Q-60.9 -22.75 -118.45 -7.1 L-140.4 -1.2 -134.95 -6.2 -30.4 -56.75 Q-41.25 -53.9 -52.8 -53.5 L-34.9 -62.4 Q21.85 -90.25 63.25 -106.3 L75.25 -110.8 Q66.6 -104.35 58.65 -94.75 117.95 -99.1 123.4 -117.4" fill="url(#gradient0)" fill-rule="evenodd" stroke="none"/>
    <path d="M170.7 -120.3 Q149.0 -121.15 129.15 -110.75 L123.4 -117.4 117.65 -124.05 Q156.95 -133.45 169.1 -122.1 L169.8 -121.45 170.7 -120.3 M63.25 -106.3 Q21.85 -90.25 -34.9 -62.4 L-56.9 -68.7 -79.3 -59.05 -80.8 -64.9 -48.4 -78.75 -22.4 -78.75 63.25 -106.3 M-52.8 -53.5 Q-41.25 -53.9 -30.4 -56.75 L-134.95 -6.2 Q-128.3 -13.75 -140.25 -31.2 -147.15 -41.3 -160.25 -54.65 L-166.8 -61.2 Q-175.7 -69.85 -186.95 -79.75 L-166.9 -86.95 -156.45 -90.75 Q-146.55 -84.05 -136.95 -78.5 -120.7 -69.2 -105.35 -63.3 -99.05 -60.95 -92.9 -59.1 L-84.45 -56.85 Q-68.05 -53.05 -52.8 -53.5" fill="#500650" fill-rule="evenodd" stroke="none"/>
    <path d="M123.4 -117.4 Q117.95 -99.1 58.65 -94.75 66.6 -104.35 75.25 -110.8 94.75 -125.45 117.65 -124.05 L123.4 -117.4" fill="url(#gradient1)" fill-rule="evenodd" stroke="none"/>
    <path d="M13.75 -117.4 L4.85 -114.8 Q5.35 -120.2 0.6 -120.3 L9.15 -123.25 Q17.05 -122.2 13.75 -117.4" fill="url(#gradient2)" fill-rule="evenodd" stroke="none"/>
    <path d="M13.75 -117.4 L25.1 -120.75 36.55 -104.9 Q4.05 -103.8 -28.3 -105.15 L4.85 -114.8 13.75 -117.4" fill="#f010f0" fill-rule="evenodd" stroke="none"/>
    <path d="M0.6 -120.3 Q5.35 -120.2 4.85 -114.8 L-28.3 -105.15 -42.1 -105.85 0.6 -120.3" fill="url(#gradient3)" fill-rule="evenodd" stroke="none"/>
    <path d="M36.55 -104.9 L63.25 -106.3 -22.4 -78.75 -48.4 -78.75 -80.8 -64.9 -82.85 -70.4 Q-46.65 -80.45 -52.3 -93.3 -57.95 -106.15 -96.9 -90.6 L-100.9 -94.25 -109.95 -90.3 -118.95 -86.35 -136.95 -78.5 Q-146.55 -84.05 -156.45 -90.75 L-166.9 -86.95 -169.4 -96.75 Q-172.9 -108.35 -162.4 -113.85 L-140.45 -125.0 Q-128.05 -131.25 -116.1 -126.15 L-72.9 -108.25 -42.1 -105.85 -28.3 -105.15 Q4.05 -103.8 36.55 -104.9" fill="url(#gradient4)" fill-rule="evenodd" stroke="none"/>
    <path d="M1.3 -41.35 Q42.25 -53.8 73.35 -64.6 L76.1 -60.25 98.6 -66.75 82.1 -44.25 93.6 -25.7 48.1 -0.25 44.8 3.95 29.65 23.25 24.25 30.1 16.6 39.8 7.4 98.7 Q6.35 105.5 -0.9 110.35 -14.9 119.25 -31.9 126.35 -43.4 131.2 -54.45 124.85 -76.9 109.2 -89.95 82.3 L-73.45 73.3 -78.45 66.8 -76.1 65.65 -66.55 60.95 -45.75 50.65 -36.7 46.1 -24.9 40.3 -26.9 33.85 Q-5.5 29.05 8.9 11.0 23.3 -7.1 -5.4 -5.5 -34.15 -3.9 -42.4 3.2 L-44.8 -0.05 -46.95 -2.8 -23.75 -12.75 -9.9 -18.75 1.3 -41.35" fill="url(#gradient5)" fill-rule="evenodd" stroke="none"/>
    <path d="M93.6 -25.7 L91.3 -12.6 Q90.45 -13.7 89.1 -14.45 L77.85 -11.5 44.8 3.95 48.1 -0.25 93.6 -25.7" fill="#3f083f" fill-rule="evenodd" stroke="none"/>
    <path d="M83.1 0.05 L29.65 23.25 44.8 3.95 77.85 -11.5 Q82.85 -6.6 83.1 0.05" fill="url(#gradient6)" fill-rule="evenodd" stroke="none"/>
    <path d="M91.3 -12.6 Q93.15 -10.2 92.35 -6.2 L83.1 0.05 Q82.85 -6.6 77.85 -11.5 L89.1 -14.45 Q90.45 -13.7 91.3 -12.6" fill="url(#gradient7)" fill-rule="evenodd" stroke="none"/>
    <path d="M171.9 -117.45 Q171.65 -118.95 170.75 -120.3 L170.7 -120.3 169.8 -121.45 169.1 -122.1 182.65 -128.0 Q188.65 -129.4 186.4 -125.25 L171.9 -117.45" fill="url(#gradient8)" fill-rule="evenodd" stroke="none"/>
    <path d="M24.25 30.1 L67.75 9.9 Q72.3 11.15 70.75 15.65 L16.6 39.8 24.25 30.1" fill="url(#gradient9)" fill-rule="evenodd" stroke="none"/>
    <path d="M-102.8 78.75 Q-103.8 79.1 -106.7 73.65 -109.6 68.15 -112.75 60.1 -115.9 52.0 -117.5 46.0 -118.9 40.55 -118.2 39.75 L-118.05 39.6 Q-117.05 39.2 -114.15 44.7 -111.25 50.15 -108.1 58.25 -104.95 66.35 -103.4 72.35 -102.7 75.0 -102.5 76.6 -102.25 78.5 -102.8 78.75 M-151.5 -26.05 L-151.55 -26.0 Q-152.55 -25.65 -155.45 -31.1 -158.35 -36.6 -161.5 -44.65 -164.65 -52.75 -166.25 -58.75 L-166.8 -61.2 -160.25 -54.65 -156.85 -46.5 Q-153.7 -38.4 -152.15 -32.4 -151.45 -29.75 -151.25 -28.15 -151.0 -26.3 -151.5 -26.05" fill="#000000" fill-rule="evenodd" stroke="none"/>
    <path d="M-80.8 -64.9 L-79.3 -59.05 -84.45 -56.85 -92.9 -59.1 Q-94.65 -76.65 -109.95 -90.3 L-100.9 -94.25 -96.9 -90.6 Q-87.6 -81.5 -82.85 -70.4 L-80.8 -64.9" fill="url(#gradient10)" fill-rule="evenodd" stroke="none"/>
    <path d="M-109.95 -90.3 Q-94.65 -76.65 -92.9 -59.1 -99.05 -60.95 -105.35 -63.3 -108.3 -75.8 -118.95 -86.35 L-109.95 -90.3" fill="url(#gradient11)" fill-rule="evenodd" stroke="none"/>
    <path d="M-82.85 -70.4 Q-87.6 -81.5 -96.9 -90.6 -57.95 -106.15 -52.3 -93.3 -46.65 -80.45 -82.85 -70.4" fill="url(#gradient12)" fill-rule="evenodd" stroke="none"/>
    <path d="M-118.95 -86.35 Q-108.3 -75.8 -105.35 -63.3 -120.7 -69.2 -136.95 -78.5 L-118.95 -86.35" fill="url(#gradient13)" fill-rule="evenodd" stroke="none"/>
    <path d="M-160.25 -54.65 Q-147.15 -41.3 -140.25 -31.2 L-151.5 -26.05 Q-151.0 -26.3 -151.25 -28.15 -151.45 -29.75 -152.15 -32.4 -153.7 -38.4 -156.85 -46.5 L-160.25 -54.65" fill="url(#gradient14)" fill-rule="evenodd" stroke="none"/>
    <path d="M-34.9 -62.4 L-52.8 -53.5 Q-68.05 -53.05 -84.45 -56.85 L-79.3 -59.05 -56.9 -68.7 -34.9 -62.4 M-118.45 -7.1 Q-60.9 -22.75 -14.75 -36.5 L-23.75 -12.75 -46.95 -2.8 -80.9 11.8 Q-92.7 -5.55 -112.45 2.75 L-118.45 -7.1" fill="#999999" fill-rule="evenodd" stroke="none"/>
    <path d="M-14.75 -36.5 L1.3 -41.35 -9.9 -18.75 -23.75 -12.75 -14.75 -36.5" fill="#666666" fill-rule="evenodd" stroke="none"/>
    <path d="M-57.85 5.9 L-44.8 -0.05 -42.4 3.2 Q-32.5 17.2 -26.9 33.85 L-24.9 40.3 -36.7 46.1 Q-39.65 21.1 -57.85 5.9" fill="url(#gradient15)" fill-rule="evenodd" stroke="none"/>
    <path d="M-66.25 9.6 L-57.85 5.9 Q-39.65 21.1 -36.7 46.1 L-45.75 50.65 Q-50.25 24.1 -66.25 9.6" fill="url(#gradient16)" fill-rule="evenodd" stroke="none"/>
    <path d="M-94.25 27.1 L-84.95 22.55 Q-71.7 38.75 -66.55 60.95 L-76.1 65.65 Q-84.15 41.5 -94.25 27.1" fill="url(#gradient17)" fill-rule="evenodd" stroke="none"/>
    <path d="M-73.45 73.3 L-102.8 78.75 Q-102.25 78.5 -102.5 76.6 -102.7 75.0 -103.4 72.35 -104.95 66.35 -108.1 58.25 -111.25 50.15 -114.15 44.7 -117.05 39.2 -118.05 39.6 L-97.65 22.55 -94.25 27.1 Q-84.15 41.5 -76.1 65.65 L-78.45 66.8 -73.45 73.3" fill="url(#gradient18)" fill-rule="evenodd" stroke="none"/>
    <path d="M-84.95 22.55 L-87.65 19.3 -66.25 9.6 Q-50.25 24.1 -45.75 50.65 L-66.55 60.95 Q-71.7 38.75 -84.95 22.55" fill="url(#gradient19)" fill-rule="evenodd" stroke="none"/>
    <path d="M-26.9 33.85 Q-32.5 17.2 -42.4 3.2 -34.15 -3.9 -5.4 -5.5 23.3 -7.1 8.9 11.0 -5.5 29.05 -26.9 33.85" fill="url(#gradient20)" fill-rule="evenodd" stroke="none"/>
    <path d="M170.7 -120.3 Q149.0 -121.15 129.15 -110.75 L123.4 -117.4 Q117.95 -99.1 58.65 -94.75 66.6 -104.35 75.25 -110.8 L63.25 -106.3 Q21.85 -90.25 -34.9 -62.4 L-52.8 -53.5 Q-41.25 -53.9 -30.4 -56.75 L-134.95 -6.2 -140.4 -1.2 -118.45 -7.1 Q-60.9 -22.75 -14.75 -36.5 L1.3 -41.35 Q42.25 -53.8 73.35 -64.6 174.4 -99.65 171.9 -117.45 171.65 -118.95 170.75 -120.3 L170.7 -120.3 169.8 -121.45 169.1 -122.1 Q156.95 -133.45 117.65 -124.05 L123.4 -117.4 M13.75 -117.4 L25.1 -120.75 36.55 -104.9 63.25 -106.3 -22.4 -78.75 -48.4 -78.75 -80.8 -64.9 -79.3 -59.05 -56.9 -68.7 -34.9 -62.4 M4.85 -114.8 L13.75 -117.4 Q17.05 -122.2 9.15 -123.25 L0.6 -120.3 Q5.35 -120.2 4.85 -114.8 L-28.3 -105.15 Q4.05 -103.8 36.55 -104.9 M73.35 -64.6 L76.1 -60.25 98.6 -66.75 82.1 -44.25 93.6 -25.7 91.3 -12.6 Q93.15 -10.2 92.35 -6.2 L83.1 0.05 29.65 23.25 24.25 30.1 67.75 9.9 Q72.3 11.15 70.75 15.65 L16.6 39.8 7.4 98.7 Q6.35 105.5 -0.9 110.35 -14.9 119.25 -31.9 126.35 -43.4 131.2 -54.45 124.85 -76.9 109.2 -89.95 82.3 L-73.45 73.3 -102.8 78.75 Q-103.8 79.1 -106.7 73.65 -109.6 68.15 -112.75 60.1 -115.9 52.0 -117.5 46.0 -118.9 40.55 -118.2 39.75 L-118.05 39.6 -97.65 22.55 -94.25 27.1 -84.95 22.55 -87.65 19.3 -66.25 9.6 -57.85 5.9 -44.8 -0.05 -46.95 -2.8 -80.9 11.8 Q-92.7 -5.55 -112.45 2.75 L-118.45 -7.1 M44.8 3.95 L77.85 -11.5 89.1 -14.45 Q90.45 -13.7 91.3 -12.6 M93.6 -25.7 L48.1 -0.25 44.8 3.95 29.65 23.25 M117.65 -124.05 Q94.75 -125.45 75.25 -110.8 M169.1 -122.1 L182.65 -128.0 Q188.65 -129.4 186.4 -125.25 L171.9 -117.45 M24.25 30.1 L16.6 39.8 M77.85 -11.5 Q82.85 -6.6 83.1 0.05 M-166.8 -61.2 Q-175.7 -69.85 -186.95 -79.75 L-166.9 -86.95 -169.4 -96.75 Q-172.9 -108.35 -162.4 -113.85 L-140.45 -125.0 Q-128.05 -131.25 -116.1 -126.15 L-72.9 -108.25 -42.1 -105.85 0.6 -120.3 M-151.5 -26.05 L-151.55 -26.0 Q-152.55 -25.65 -155.45 -31.1 -158.35 -36.6 -161.5 -44.65 -164.65 -52.75 -166.25 -58.75 L-166.8 -61.2 -160.25 -54.65 Q-147.15 -41.3 -140.25 -31.2 -128.3 -13.75 -134.95 -6.2 M-28.3 -105.15 L-42.1 -105.85 M-109.95 -90.3 Q-94.65 -76.65 -92.9 -59.1 L-84.45 -56.85 -79.3 -59.05 M-105.35 -63.3 Q-108.3 -75.8 -118.95 -86.35 L-136.95 -78.5 Q-120.7 -69.2 -105.35 -63.3 -99.05 -60.95 -92.9 -59.1 M-82.85 -70.4 Q-87.6 -81.5 -96.9 -90.6 L-100.9 -94.25 -109.95 -90.3 -118.95 -86.35 M-166.9 -86.95 L-156.45 -90.75 Q-146.55 -84.05 -136.95 -78.5 M-151.5 -26.05 Q-151.0 -26.3 -151.25 -28.15 -151.45 -29.75 -152.15 -32.4 -153.7 -38.4 -156.85 -46.5 L-160.25 -54.65 M-140.25 -31.2 L-151.5 -26.05 M-23.75 -12.75 L-14.75 -36.5 M-23.75 -12.75 L-9.9 -18.75 1.3 -41.35 M-46.95 -2.8 L-23.75 -12.75 M-84.45 -56.85 Q-68.05 -53.05 -52.8 -53.5 M-82.85 -70.4 L-80.8 -64.9 M-96.9 -90.6 Q-57.95 -106.15 -52.3 -93.3 -46.65 -80.45 -82.85 -70.4 M-36.7 46.1 L-24.9 40.3 -26.9 33.85 Q-32.5 17.2 -42.4 3.2 L-44.8 -0.05 M-73.45 73.3 L-78.45 66.8 -76.1 65.65 Q-84.15 41.5 -94.25 27.1 M-45.75 50.65 L-66.55 60.95 -76.1 65.65 M-66.25 9.6 Q-50.25 24.1 -45.75 50.65 L-36.7 46.1 Q-39.65 21.1 -57.85 5.9 M-118.05 39.6 Q-117.05 39.2 -114.15 44.7 -111.25 50.15 -108.1 58.25 -104.95 66.35 -103.4 72.35 -102.7 75.0 -102.5 76.6 -102.25 78.5 -102.8 78.75 M-84.95 22.55 Q-71.7 38.75 -66.55 60.95 M-26.9 33.85 Q-5.5 29.05 8.9 11.0 23.3 -7.1 -5.4 -5.5 -34.15 -3.9 -42.4 3.2" fill="none" stroke="#000000" stroke-linecap="round" stroke-linejoin="round" stroke-width="1.0"/>
  </g>
  <defs>
    <linearGradient gradientTransform="matrix(-0.0099, -0.0247, 0.1889, -0.0755, 14.2, -63.25)" gradientUnits="userSpaceOnUse" id="gradient0" spreadMethod="pad" x1="-819.2" x2="819.2">
      <stop offset="0.050980392156862744" stop-color="#000000"/>
      <stop offset="0.3058823529411765" stop-color="#700370"/>
      <stop offset="0.5843137254901961" stop-color="#cb10cb"/>
      <stop offset="0.8274509803921568" stop-color="#fd6cfd"/>
      <stop offset="0.9607843137254902" stop-color="#700370"/>
    </linearGradient>
    <radialGradient cx="0" cy="0" gradientTransform="matrix(0.0084, 0.0312, -0.0649, 0.0174, 107.15, -120.75)" gradientUnits="userSpaceOnUse" id="gradient1" r="819.2" spreadMethod="pad">
      <stop offset="0.0" stop-color="#ffd700"/>
      <stop offset="0.3215686274509804" stop-color="#804000"/>
      <stop offset="0.5333333333333333" stop-color="#000000"/>
      <stop offset="0.7333333333333333" stop-color="#391d00"/>
      <stop offset="0.9372549019607843" stop-color="#000000"/>
    </radialGradient>
    <linearGradient gradientTransform="matrix(-0.0011, -0.0042, 0.008, -0.0022, 7.95, -119.2)" gradientUnits="userSpaceOnUse" id="gradient2" spreadMethod="pad" x1="-819.2" x2="819.2">
      <stop offset="0.0" stop-color="#a83835"/>
      <stop offset="0.1450980392156863" stop-color="#19110c"/>
      <stop offset="0.30196078431372547" stop-color="#412e68"/>
      <stop offset="0.611764705882353" stop-color="#f9f7ec"/>
      <stop offset="0.8117647058823529" stop-color="#90904c"/>
      <stop offset="0.8823529411764706" stop-color="#423624"/>
    </linearGradient>
    <linearGradient gradientTransform="matrix(-0.0016, -0.0044, 0.0275, -0.01, -18.25, -110.45)" gradientUnits="userSpaceOnUse" id="gradient3" spreadMethod="pad" x1="-819.2" x2="819.2">
      <stop offset="0.0" stop-color="#131330"/>
      <stop offset="0.4549019607843137" stop-color="#ffffff"/>
      <stop offset="0.7294117647058823" stop-color="#883924"/>
      <stop offset="0.9372549019607843" stop-color="#c27873"/>
    </linearGradient>
    <linearGradient gradientTransform="matrix(-0.1104, 0.0639, -0.0366, -0.0632, -57.1, -105.7)" gradientUnits="userSpaceOnUse" id="gradient4" spreadMethod="pad" x1="-819.2" x2="819.2">
      <stop offset="0.050980392156862744" stop-color="#000000"/>
      <stop offset="0.4" stop-color="#700370"/>
      <stop offset="0.6941176470588235" stop-color="#cb10cb"/>
      <stop offset="0.9490196078431372" stop-color="#fd6cfd"/>
    </linearGradient>
    <linearGradient gradientTransform="matrix(-0.13, 0.0343, -0.0246, -0.0933, 11.1, 33.6)" gradientUnits="userSpaceOnUse" id="gradient5" spreadMethod="pad" x1="-819.2" x2="819.2">
      <stop offset="0.050980392156862744" stop-color="#000000"/>
      <stop offset="0.4" stop-color="#700370"/>
      <stop offset="0.6941176470588235" stop-color="#cb10cb"/>
      <stop offset="0.9490196078431372" stop-color="#fd6cfd"/>
    </linearGradient>
    <linearGradient gradientTransform="matrix(-0.0032, -0.007, 0.0331, -0.0149, 54.5, 6.0)" gradientUnits="userSpaceOnUse" id="gradient6" spreadMethod="pad" x1="-819.2" x2="819.2">
      <stop offset="0.0" stop-color="#131330"/>
      <stop offset="0.4549019607843137" stop-color="#ffffff"/>
      <stop offset="0.7294117647058823" stop-color="#883924"/>
      <stop offset="0.9372549019607843" stop-color="#c27873"/>
    </linearGradient>
    <linearGradient gradientTransform="matrix(0.0028, 0.0072, -0.0075, 0.0029, 86.35, -8.0)" gradientUnits="userSpaceOnUse" id="gradient7" spreadMethod="pad" x1="-819.2" x2="819.2">
      <stop offset="0.0" stop-color="#a83835"/>
      <stop offset="0.1450980392156863" stop-color="#19110c"/>
      <stop offset="0.30196078431372547" stop-color="#412e68"/>
      <stop offset="0.611764705882353" stop-color="#f9f7ec"/>
      <stop offset="0.8117647058823529" stop-color="#90904c"/>
      <stop offset="0.8823529411764706" stop-color="#423624"/>
    </linearGradient>
    <linearGradient gradientTransform="matrix(-0.0018, -0.0031, 0.0096, -0.0055, 178.45, -124.05)" gradientUnits="userSpaceOnUse" id="gradient8" spreadMethod="pad" x1="-819.2" x2="819.2">
      <stop offset="0.0" stop-color="#131330"/>
      <stop offset="0.4549019607843137" stop-color="#ffffff"/>
      <stop offset="0.7294117647058823" stop-color="#883924"/>
      <stop offset="0.9372549019607843" stop-color="#c27873"/>
    </linearGradient>
    <linearGradient gradientTransform="matrix(0.0018, 0.0041, -0.0341, 0.0147, 43.05, 24.45)" gradientUnits="userSpaceOnUse" id="gradient9" spreadMethod="pad" x1="-819.2" x2="819.2">
      <stop offset="0.0" stop-color="#a83835"/>
      <stop offset="0.1450980392156863" stop-color="#19110c"/>
      <stop offset="0.30196078431372547" stop-color="#412e68"/>
      <stop offset="0.611764705882353" stop-color="#f9f7ec"/>
      <stop offset="0.8117647058823529" stop-color="#90904c"/>
      <stop offset="0.8823529411764706" stop-color="#423624"/>
    </linearGradient>
    <linearGradient gradientTransform="matrix(-0.01, -0.0229, 0.0094, -0.0041, -94.05, -74.9)" gradientUnits="userSpaceOnUse" id="gradient10" spreadMethod="pad" x1="-819.2" x2="819.2">
      <stop offset="0.0" stop-color="#000000"/>
      <stop offset="0.5803921568627451" stop-color="#ab9986"/>
      <stop offset="1.0" stop-color="#000000"/>
    </linearGradient>
    <linearGradient gradientTransform="matrix(-0.0083, -0.0199, 0.0087, -0.0036, -105.1, -73.2)" gradientUnits="userSpaceOnUse" id="gradient11" spreadMethod="pad" x1="-819.2" x2="819.2">
      <stop offset="0.0" stop-color="#c30dc3"/>
      <stop offset="0.5803921568627451" stop-color="#fd6cfd"/>
      <stop offset="1.0" stop-color="#c30dc3"/>
    </linearGradient>
    <radialGradient cx="0" cy="0" gradientTransform="matrix(0.0488, 0.0, 0.0, 0.0488, -56.95, -92.7)" gradientUnits="userSpaceOnUse" id="gradient12" r="819.2" spreadMethod="pad">
      <stop offset="0.06274509803921569" stop-color="#fd6cfd"/>
      <stop offset="0.4823529411764706" stop-color="#cb10cb"/>
      <stop offset="0.9137254901960784" stop-color="#700370"/>
    </radialGradient>
    <linearGradient gradientTransform="matrix(0.004, 0.0152, -0.0157, 0.0042, -121.55, -72.35)" gradientUnits="userSpaceOnUse" id="gradient13" spreadMethod="pad" x1="-819.2" x2="819.2">
      <stop offset="0.0" stop-color="#000000"/>
      <stop offset="0.5803921568627451" stop-color="#ab9986"/>
      <stop offset="1.0" stop-color="#000000"/>
    </linearGradient>
    <linearGradient gradientTransform="matrix(-0.0103, -0.0259, 0.007, -0.0028, -155.65, -53.0)" gradientUnits="userSpaceOnUse" id="gradient14" spreadMethod="pad" x1="-819.2" x2="819.2">
      <stop offset="0.0" stop-color="#000000"/>
      <stop offset="0.5803921568627451" stop-color="#ab9986"/>
      <stop offset="1.0" stop-color="#000000"/>
    </linearGradient>
    <linearGradient gradientTransform="matrix(-0.0107, -0.0258, 0.0103, -0.0043, -40.9, 23.1)" gradientUnits="userSpaceOnUse" id="gradient15" spreadMethod="pad" x1="-819.2" x2="819.2">
      <stop offset="0.0" stop-color="#000000"/>
      <stop offset="0.5803921568627451" stop-color="#ab9986"/>
      <stop offset="1.0" stop-color="#000000"/>
    </linearGradient>
    <linearGradient gradientTransform="matrix(-0.0142, -0.0245, 0.0082, -0.0048, -50.3, 27.25)" gradientUnits="userSpaceOnUse" id="gradient16" spreadMethod="pad" x1="-819.2" x2="819.2">
      <stop offset="0.0" stop-color="#c30dc3"/>
      <stop offset="0.5803921568627451" stop-color="#fd6cfd"/>
      <stop offset="1.0" stop-color="#c30dc3"/>
    </linearGradient>
    <linearGradient gradientTransform="matrix(-0.0131, -0.0228, 0.0079, -0.0045, -80.0, 43.85)" gradientUnits="userSpaceOnUse" id="gradient17" spreadMethod="pad" x1="-819.2" x2="819.2">
      <stop offset="0.0" stop-color="#000000"/>
      <stop offset="0.5803921568627451" stop-color="#999999"/>
      <stop offset="1.0" stop-color="#000000"/>
    </linearGradient>
    <linearGradient gradientTransform="matrix(-0.0156, -0.0305, 0.0174, -0.0089, -97.45, 54.05)" gradientUnits="userSpaceOnUse" id="gradient18" spreadMethod="pad" x1="-819.2" x2="819.2">
      <stop offset="0.0" stop-color="#000000"/>
      <stop offset="0.5803921568627451" stop-color="#ab9986"/>
      <stop offset="1.0" stop-color="#000000"/>
    </linearGradient>
    <linearGradient gradientTransform="matrix(-0.0111, -0.0267, 0.0164, -0.0068, -65.45, 34.9)" gradientUnits="userSpaceOnUse" id="gradient19" spreadMethod="pad" x1="-819.2" x2="819.2">
      <stop offset="0.0" stop-color="#000000"/>
      <stop offset="0.5803921568627451" stop-color="#ab9986"/>
      <stop offset="1.0" stop-color="#000000"/>
    </linearGradient>
    <radialGradient cx="0" cy="0" gradientTransform="matrix(0.0634, 0.0, 0.0, 0.0634, 9.1, 1.3)" gradientUnits="userSpaceOnUse" id="gradient20" r="819.2" spreadMethod="pad">
      <stop offset="0.06274509803921569" stop-color="#fd6cfd"/>
      <stop offset="0.4823529411764706" stop-color="#cb10cb"/>
      <stop offset="0.9137254901960784" stop-color="#700370"/>
    </radialGradient>
  </defs>
</svg>
