<?xml version="1.0" encoding="UTF-8" standalone="no"?>
<svg xmlns:ffdec="https://www.free-decompiler.com/flash" xmlns:xlink="http://www.w3.org/1999/xlink" ffdec:objectType="shape" height="252.65px" width="317.15px" xmlns="http://www.w3.org/2000/svg">
  <g transform="matrix(1.0, 0.0, 0.0, 1.0, 142.65, 77.2)">
    <path d="M-35.3 -9.35 Q-33.5 -13.4 -32.55 -18.1 L-32.65 -15.1 Q-32.7 -13.4 -32.2 -12.7 -31.95 -12.35 -31.65 -12.35 L-31.3 -12.45 Q-30.5 -12.8 -30.2 -13.7 L-29.9 -14.4 Q-28.95 -16.4 -29.75 -18.6 L-28.95 -16.5 Q-28.65 -15.45 -27.85 -14.6 L-26.85 -13.25 Q-26.65 -12.85 -26.3 -12.8 -25.05 -12.6 -23.8 -12.8 L-23.45 -12.9 Q-22.85 -13.1 -22.65 -13.7 L-22.25 -15.6 -22.2 -17.15 -21.85 -16.15 -21.4 -14.9 Q-19.5 -13.0 -18.05 -10.75 L-17.6 -9.95 -17.15 -9.5 Q-15.15 -8.45 -14.8 -12.0 -13.95 -11.2 -12.6 -11.7 L-11.7 -12.35 Q-11.2 -12.85 -11.0 -14.0 L-10.5 -13.45 Q-10.3 -12.75 -9.75 -12.45 L-7.5 -11.3 -6.65 -10.9 -5.35 -10.6 Q-4.9 -10.6 -4.85 -10.8 -4.35 -13.45 -5.05 -15.1 L-6.6 -18.6 -5.65 -18.5 Q-4.85 -18.3 -4.2 -17.45 L-3.15 -16.55 -2.65 -15.95 Q-1.15 -13.0 1.25 -14.55 L2.15 -14.8 2.8 -14.9 Q3.6 -15.3 3.45 -17.1 L3.25 -17.75 2.8 -18.25 Q1.2 -20.05 0.3 -22.1 L0.9 -22.25 2.5 -22.6 1.8 -26.05 Q1.45 -27.55 0.3 -27.2 -0.7 -26.95 -1.55 -26.4 -1.4 -27.85 -1.85 -28.7 L-2.2 -29.1 Q-2.0 -30.25 -1.35 -30.75 L-1.1 -30.85 Q-0.2 -30.9 0.05 -32.35 L0.15 -32.85 0.45 -35.6 0.65 -35.8 Q1.45 -36.1 2.05 -35.45 L2.3 -35.45 2.45 -36.1 2.55 -37.85 2.75 -39.05 2.8 -39.3 2.9 -39.9 3.25 -41.0 3.4 -41.0 4.4 -40.3 4.7 -40.2 4.85 -40.35 5.7 -42.55 5.85 -43.15 5.95 -43.85 Q5.95 -44.9 6.85 -44.7 8.35 -44.3 8.55 -46.6 8.7 -47.95 9.55 -48.0 L10.35 -47.7 12.35 -45.85 12.95 -44.7 Q13.05 -44.2 13.3 -43.95 L14.2 -42.8 Q14.3 -42.6 14.55 -42.65 15.3 -42.8 15.9 -43.45 L16.05 -43.85 16.05 -47.35 16.0 -47.6 Q15.6 -48.6 15.75 -49.8 L15.9 -50.15 16.25 -51.85 16.3 -54.1 16.5 -55.05 16.9 -55.85 Q17.15 -56.25 17.5 -56.3 L17.85 -56.6 Q18.55 -57.75 18.7 -59.35 L19.0 -60.25 19.4 -60.55 20.2 -60.45 Q20.95 -59.95 21.9 -59.95 L22.2 -60.35 Q22.5 -62.0 23.3 -63.1 L24.65 -64.7 25.05 -64.85 31.0 -64.65 31.4 -64.75 31.6 -65.1 Q31.7 -66.2 31.1 -66.8 L30.65 -67.1 Q29.15 -68.1 29.55 -70.55 L29.65 -71.15 Q30.05 -72.25 31.0 -71.55 L31.5 -71.2 31.6 -71.15 31.9 -71.0 Q32.5 -70.65 33.2 -70.6 33.65 -70.6 33.55 -71.6 33.45 -72.4 33.95 -72.45 L34.1 -72.45 34.25 -72.45 Q35.15 -72.35 35.95 -72.9 L36.1 -73.15 36.6 -74.0 Q36.95 -74.35 37.55 -74.25 L37.85 -74.05 38.05 -73.65 Q38.4 -73.0 38.95 -72.85 39.75 -72.65 40.3 -73.25 40.55 -73.45 40.65 -74.35 L40.85 -75.8 Q40.95 -76.35 42.0 -77.2 42.65 -76.55 42.8 -75.35 L42.85 -74.85 42.9 -74.65 Q43.05 -73.65 43.35 -72.7 L43.5 -72.6 Q44.45 -72.7 44.25 -71.1 L44.15 -70.6 43.6 -67.55 43.6 -66.85 44.15 -66.8 Q44.9 -67.1 45.05 -68.3 L45.2 -68.9 45.4 -69.35 45.5 -69.2 46.95 -67.85 Q47.2 -67.8 47.15 -68.35 L47.1 -68.6 47.2 -68.45 49.3 -65.85 50.2 -64.4 Q50.55 -63.45 50.95 -63.05 L51.5 -62.45 Q51.6 -62.25 52.15 -62.8 L52.55 -63.2 52.95 -64.0 Q53.35 -64.85 54.15 -64.95 L54.3 -64.85 Q54.85 -64.2 55.5 -64.55 L55.65 -64.8 55.8 -65.4 55.95 -66.1 56.3 -68.55 56.5 -68.85 Q57.4 -69.5 58.15 -68.45 L58.35 -68.45 58.75 -68.75 59.3 -69.2 61.1 -70.75 61.35 -70.8 Q62.15 -70.65 62.7 -70.0 L62.85 -69.6 62.85 -68.35 62.85 -68.1 62.85 -67.65 63.05 -67.3 63.4 -66.95 63.65 -66.75 64.2 -66.45 64.6 -66.35 Q65.4 -66.25 65.6 -67.6 L65.75 -68.3 66.05 -70.35 Q66.8 -69.95 66.9 -68.35 L67.05 -66.85 67.15 -66.1 68.45 -67.5 68.7 -67.65 Q69.35 -67.8 69.6 -67.3 70.05 -66.35 69.5 -65.95 L69.15 -65.6 68.75 -64.55 68.75 -64.1 68.85 -63.85 69.5 -62.65 69.8 -62.3 69.9 -62.05 Q69.95 -61.7 70.4 -61.55 L71.25 -61.0 71.65 -60.75 71.85 -60.65 72.15 -60.35 Q71.95 -61.85 72.75 -61.95 L73.1 -61.9 75.4 -60.55 75.55 -60.35 75.85 -59.15 75.95 -58.75 76.1 -58.1 76.2 -57.9 76.65 -56.9 76.85 -56.55 Q77.35 -56.0 77.95 -55.85 78.2 -55.9 78.05 -56.45 L79.05 -56.55 79.2 -56.35 Q79.75 -55.6 80.45 -55.25 L80.6 -55.1 81.0 -53.35 81.05 -53.15 Q81.65 -52.65 82.3 -52.5 L82.45 -52.35 83.1 -52.4 83.6 -52.8 84.05 -53.05 Q84.75 -53.35 85.3 -54.35 85.55 -54.85 86.25 -54.95 86.65 -54.95 86.65 -55.85 L86.65 -56.35 86.7 -57.35 Q87.55 -57.2 87.85 -55.9 L87.95 -55.6 88.35 -54.15 88.6 -53.8 88.75 -53.7 90.15 -53.1 90.4 -52.8 90.85 -52.25 91.25 -52.1 92.3 -51.85 92.4 -51.65 92.9 -50.45 93.15 -50.4 96.1 -50.75 96.25 -50.6 97.1 -49.4 97.35 -49.1 Q98.3 -48.45 99.35 -48.85 L99.4 -49.1 99.65 -50.4 99.75 -50.85 99.85 -51.35 101.95 -48.95 Q102.05 -48.85 102.2 -48.85 L105.35 -49.1 Q106.2 -49.1 106.8 -48.45 L107.2 -48.15 Q107.75 -47.95 107.9 -47.4 L107.85 -46.6 Q108.3 -44.9 109.05 -43.5 L109.4 -43.15 111.25 -42.4 111.4 -42.1 111.6 -40.6 112.05 -38.4 112.25 -37.85 Q112.6 -37.2 112.25 -36.6 111.65 -35.65 112.05 -34.55 112.2 -33.95 112.5 -33.45 L112.9 -32.95 114.55 -31.5 115.1 -30.65 115.35 -30.1 Q115.3 -31.55 116.0 -31.6 L116.35 -31.45 116.55 -31.25 116.8 -30.85 117.05 -28.85 117.05 -28.35 117.2 -27.7 117.4 -27.55 Q118.6 -26.9 119.4 -25.95 L119.4 -25.65 Q119.05 -24.1 119.7 -23.0 L120.05 -22.65 Q121.15 -22.3 122.1 -21.55 L122.55 -21.15 Q123.1 -20.7 123.85 -20.7 L124.15 -20.6 Q124.75 -20.0 125.3 -21.05 L126.3 -22.4 126.5 -22.6 Q127.0 -23.45 127.75 -23.35 L128.15 -23.0 128.7 -22.3 128.85 -22.1 128.9 -23.8 128.75 -24.9 128.65 -25.6 Q128.45 -27.55 129.6 -27.3 L130.85 -27.1 131.3 -27.25 131.35 -27.6 131.65 -29.35 131.95 -30.75 132.15 -30.75 132.3 -30.7 133.85 -30.25 135.55 -29.65 136.4 -29.2 136.65 -29.1 Q136.7 -30.2 136.4 -31.15 L136.3 -31.55 135.75 -32.7 135.65 -33.1 135.75 -33.35 Q136.1 -34.1 136.55 -34.5 L136.75 -34.7 136.8 -35.1 136.75 -38.1 Q136.7 -38.55 137.0 -38.75 L137.45 -38.85 138.65 -38.65 139.0 -38.3 139.3 -37.6 140.05 -37.65 140.6 -38.6 140.95 -39.8 141.15 -40.4 Q141.55 -41.4 142.45 -40.8 143.0 -40.35 143.7 -40.4 144.1 -40.45 144.35 -41.3 L144.6 -41.85 145.15 -42.8 145.7 -44.1 Q145.9 -44.4 146.35 -44.3 L146.65 -44.2 147.4 -44.25 147.8 -44.5 Q148.45 -45.0 148.6 -46.6 L148.7 -46.8 149.3 -47.6 150.25 -48.6 150.9 -48.95 Q151.35 -48.35 151.85 -48.25 L152.0 -48.1 Q152.4 -47.2 153.05 -46.75 L154.25 -45.7 154.5 -45.55 155.45 -45.15 Q155.85 -45.0 156.15 -45.3 156.45 -45.6 156.85 -45.7 L156.95 -45.85 Q157.65 -47.6 158.85 -48.4 L159.0 -48.45 159.35 -48.1 160.15 -45.85 Q160.35 -46.6 160.8 -47.0 L161.05 -47.15 Q162.7 -47.85 164.3 -46.9 L164.35 -46.6 163.85 -45.45 163.45 -45.0 162.95 -44.35 162.6 -43.95 162.35 -43.75 Q162.65 -43.25 163.15 -43.5 163.9 -43.95 164.1 -42.85 L164.25 -42.4 Q164.55 -41.7 164.05 -41.35 L163.25 -40.9 163.05 -40.7 162.9 -40.35 162.9 -40.1 162.9 -39.85 Q163.5 -38.1 164.15 -37.2 L164.3 -36.95 Q164.35 -36.85 164.5 -36.85 L165.75 -36.35 165.5 -38.15 165.45 -38.6 Q165.5 -39.75 166.4 -39.55 167.0 -39.35 167.2 -38.1 L167.35 -36.1 167.65 -36.55 Q168.25 -37.3 169.05 -37.15 L169.35 -36.85 169.55 -35.35 Q169.5 -34.15 169.1 -33.25 L169.1 -32.9 169.35 -32.35 170.8 -30.6 Q171.25 -30.1 171.65 -30.7 L171.75 -31.1 Q171.85 -31.85 172.65 -31.5 L173.15 -31.2 174.5 -30.1 174.5 23.75 Q173.7 26.0 172.15 27.6 L171.55 28.0 171.3 27.85 171.05 27.5 170.8 27.3 Q170.25 26.8 169.35 26.9 L169.1 27.0 168.6 27.65 Q168.0 28.35 167.2 28.05 L167.0 28.0 166.75 27.8 166.2 27.25 166.0 27.05 Q165.9 26.7 165.6 26.7 L165.35 26.55 164.55 26.1 164.35 25.95 Q163.65 25.55 163.4 24.15 L162.75 21.9 162.7 21.65 162.5 20.4 162.1 19.2 161.9 18.85 Q161.55 18.15 160.75 18.5 L160.55 18.6 159.95 18.85 159.7 18.8 158.7 17.85 158.55 17.7 158.0 17.25 Q157.15 16.35 156.05 16.65 155.35 16.85 155.1 16.4 L154.75 16.0 154.55 15.8 154.3 15.45 154.1 14.85 Q153.85 14.1 153.4 14.15 153.15 14.15 152.95 14.3 L151.5 14.75 Q150.85 14.75 150.55 13.7 L150.35 12.85 Q150.15 12.1 149.8 11.9 149.5 11.95 149.55 12.4 L149.55 12.65 149.5 13.15 Q149.1 15.1 147.9 14.4 L147.9 16.15 148.0 16.8 Q148.55 18.5 148.5 20.65 L148.3 21.2 148.0 21.25 147.55 20.85 147.05 20.4 Q146.15 19.45 144.95 19.15 L145.1 19.9 145.3 20.85 145.55 21.95 145.65 22.3 140.85 23.7 140.1 24.0 139.9 24.4 Q139.85 25.35 140.05 26.15 L140.35 27.05 140.6 28.65 140.7 29.65 140.55 29.5 Q139.7 29.05 139.15 28.15 L138.8 27.75 138.6 27.8 138.45 28.05 137.65 29.75 137.6 29.65 137.1 28.95 136.4 27.9 135.75 26.65 135.75 26.85 Q135.6 26.7 135.6 26.3 L135.55 25.7 135.5 25.4 135.5 24.7 135.65 23.65 135.65 23.15 135.65 21.65 135.65 21.15 135.3 19.6 Q134.95 19.2 134.3 19.3 L133.55 19.55 Q132.75 19.9 132.7 18.4 L132.65 18.15 132.55 17.75 132.4 17.35 Q132.15 16.5 131.65 17.35 L131.15 17.8 130.8 17.75 Q130.2 17.15 130.4 15.9 L130.3 14.35 Q130.0 13.3 129.3 13.4 129.15 13.4 129.1 13.5 129.0 13.95 128.7 13.8 L128.05 13.65 127.8 13.55 127.55 13.25 126.35 10.9 Q125.85 9.5 124.75 9.4 123.95 9.25 123.65 9.9 L123.5 10.1 123.25 10.2 Q122.45 9.7 122.05 8.4 L121.95 8.25 121.5 8.0 120.05 7.45 119.8 7.55 Q119.6 7.95 119.3 7.9 118.4 7.75 117.85 6.45 L117.55 6.15 116.3 6.05 Q115.5 5.9 115.45 4.9 115.3 3.75 115.85 3.15 L116.45 1.9 Q116.7 0.6 116.05 0.3 L115.35 0.0 Q114.15 -0.5 114.75 -2.05 L115.65 -4.15 115.95 -5.55 115.85 -6.8 114.85 -6.95 112.85 -6.25 112.7 -6.15 Q111.55 -4.9 110.85 -3.1 L110.3 -4.8 110.0 -5.5 109.8 -5.5 109.55 -5.15 109.3 -4.35 109.25 -3.35 109.05 0.9 109.0 1.9 Q108.9 3.45 108.0 2.6 L107.9 2.4 107.8 1.15 107.65 0.8 Q106.95 0.2 106.15 0.1 105.5 0.05 105.65 -0.85 105.8 -2.1 105.35 -2.6 104.9 -3.05 104.1 -2.9 L103.85 -2.95 102.95 -4.8 102.65 -5.15 102.2 -5.15 102.0 -4.95 101.85 -4.6 Q101.75 -3.4 102.0 -2.3 L102.05 -1.35 101.9 -1.6 101.55 -1.95 99.1 -3.65 Q98.05 -4.45 98.35 -6.35 L98.4 -6.85 98.6 -7.45 99.05 -9.1 99.0 -9.55 98.85 -10.15 98.65 -10.75 98.6 -11.15 Q98.4 -12.6 97.35 -12.4 96.4 -12.2 95.6 -11.4 L94.9 -11.45 Q94.55 -12.0 94.35 -12.85 94.1 -13.9 93.3 -14.05 L93.15 -14.05 92.5 -9.85 90.6 -12.1 90.35 -12.65 Q89.75 -14.35 89.55 -16.1 L89.55 -16.85 89.6 -17.35 89.8 -18.15 90.25 -19.4 90.4 -20.0 Q90.6 -20.45 90.4 -21.05 90.25 -21.5 90.25 -22.35 L90.1 -22.65 86.25 -24.15 Q85.8 -24.35 85.5 -24.9 L85.25 -25.3 Q84.7 -26.5 83.75 -27.1 L81.7 -28.55 81.25 -28.65 81.05 -28.45 80.1 -27.4 Q79.45 -26.8 79.5 -25.6 L77.8 -26.95 76.05 -27.5 75.45 -27.5 75.35 -27.3 75.2 -26.9 Q74.9 -25.8 74.95 -24.6 L74.65 -24.65 74.2 -24.8 Q73.85 -24.85 73.6 -25.0 L73.05 -25.2 72.75 -24.9 72.55 -24.3 72.45 -23.6 72.5 -22.35 72.55 -21.85 72.6 -20.35 72.5 -19.35 72.4 -19.1 71.05 -18.95 70.4 -19.0 Q70.05 -19.05 70.15 -19.6 70.3 -21.1 69.8 -22.1 69.7 -22.2 69.75 -22.45 L68.85 -22.95 Q67.9 -23.15 67.3 -24.1 L67.2 -24.35 Q67.15 -25.95 67.55 -27.35 L67.65 -28.05 67.5 -28.9 Q67.2 -29.95 66.55 -29.25 L66.3 -29.4 65.25 -29.55 Q64.35 -29.5 64.2 -28.35 L63.9 -27.05 63.8 -26.7 Q63.35 -25.95 62.75 -25.75 62.1 -25.6 62.15 -26.35 L62.45 -27.8 62.65 -28.4 62.8 -29.85 Q62.85 -30.5 62.6 -30.55 61.95 -30.65 61.65 -30.1 L61.65 -30.35 61.6 -30.8 61.2 -31.85 Q60.7 -33.8 59.6 -34.6 L59.5 -31.6 59.5 -30.35 59.45 -29.35 59.1 -30.3 58.85 -30.65 58.35 -31.55 Q57.6 -32.85 56.3 -33.1 L56.5 -30.85 56.4 -30.55 Q55.25 -29.6 54.8 -31.85 L54.4 -33.3 Q53.95 -34.55 53.3 -35.3 52.9 -35.7 52.8 -35.4 52.25 -34.0 52.15 -32.35 L52.05 -32.0 Q51.3 -31.05 50.2 -31.3 L49.95 -31.25 49.75 -29.1 49.4 -27.1 49.3 -26.9 49.05 -26.75 Q48.3 -26.0 47.7 -26.6 L47.45 -26.6 46.85 -26.7 45.85 -27.35 45.55 -27.45 45.5 -27.45 45.4 -27.45 45.0 -26.8 43.85 -23.05 43.6 -22.55 43.35 -22.5 Q43.1 -22.55 42.9 -22.7 L42.6 -22.95 41.9 -23.45 Q41.0 -24.0 40.9 -22.6 L40.9 -21.65 41.15 -20.85 41.6 -19.1 Q41.7 -18.55 41.3 -18.45 L40.05 -18.15 39.8 -18.2 39.2 -18.65 Q38.85 -18.95 38.65 -19.35 L38.5 -16.35 38.45 -15.95 38.05 -15.3 Q37.85 -14.95 37.55 -15.15 L36.95 -15.25 36.8 -15.25 36.6 -15.25 Q36.2 -15.2 36.2 -14.6 L36.2 -12.1 Q36.15 -11.45 36.45 -11.4 L36.6 -11.35 37.25 -11.25 37.5 -11.0 37.6 -10.7 Q38.1 -9.65 37.45 -8.25 37.05 -8.45 36.6 -8.7 L35.5 -9.5 35.25 -9.5 Q34.85 -9.0 34.7 -7.85 L34.6 -7.6 34.15 -6.55 34.0 -6.1 33.95 -6.1 Q33.7 -5.7 33.2 -5.8 L32.95 -5.75 Q32.7 -5.45 32.4 -5.65 L31.6 -6.15 31.4 -6.3 31.0 -6.4 Q30.1 -6.15 29.25 -5.45 28.85 -5.15 28.45 -6.55 L28.1 -7.25 27.85 -7.3 Q26.75 -6.95 26.45 -5.6 L26.2 -4.65 26.1 -4.05 Q25.9 -2.75 25.2 -2.4 L24.5 -1.9 Q24.05 -1.4 23.45 -1.55 L23.2 -1.5 22.7 -0.6 22.6 -0.1 Q22.25 2.8 20.65 4.65 L20.45 4.85 Q19.8 5.35 18.9 5.25 18.4 5.2 18.25 6.1 L17.85 8.4 17.75 9.15 Q17.7 11.15 17.0 12.85 L16.85 13.45 Q16.65 14.55 15.95 14.35 L15.65 14.3 Q15.0 14.35 14.95 15.65 14.85 17.0 14.25 18.2 L14.05 18.45 12.8 18.65 12.05 18.8 11.55 18.95 Q11.1 19.0 11.05 19.65 11.0 20.45 11.1 20.7 L11.35 21.6 12.05 23.6 Q12.55 24.95 11.9 26.4 11.55 27.15 12.05 28.1 L12.45 28.95 Q12.65 29.7 13.1 29.65 L12.95 30.25 12.85 30.5 Q12.3 31.65 11.75 30.85 11.25 30.2 10.9 30.6 L10.7 31.0 9.35 33.15 9.3 30.9 9.3 30.4 Q9.35 28.9 8.9 28.15 8.85 27.0 8.45 26.4 L8.25 25.9 8.25 23.9 8.2 22.65 7.65 20.4 7.5 20.25 6.2 19.75 5.7 19.4 Q5.3 19.0 5.3 18.15 L5.25 17.85 3.6 17.75 Q3.1 18.15 2.8 18.1 L2.25 17.65 Q1.85 17.0 2.05 15.9 L2.1 14.65 2.05 14.4 1.85 13.9 Q1.65 12.95 0.75 13.05 -0.15 13.15 -0.3 11.65 L-0.45 11.05 Q-1.05 9.8 -2.05 10.0 L-2.25 10.2 -2.4 12.4 Q-2.45 13.45 -3.3 13.5 L-4.05 13.75 -4.45 13.95 -4.35 14.6 -4.0 15.95 Q-3.9 16.45 -4.25 16.65 L-4.65 16.65 -5.0 16.3 Q-5.45 15.7 -6.15 15.45 L-6.9 15.05 Q-7.15 14.9 -7.05 14.45 L-7.0 14.15 Q-6.7 11.85 -8.0 11.7 L-8.65 11.6 Q-9.0 11.5 -8.95 11.9 -8.85 13.3 -9.1 14.4 L-9.5 14.25 -10.5 13.5 -10.7 13.5 Q-11.0 14.55 -11.45 15.4 L-11.5 15.65 Q-11.6 16.1 -12.0 15.8 -12.8 15.15 -12.9 13.4 L-13.1 12.8 Q-13.6 12.15 -14.4 12.65 L-14.7 12.7 -14.8 12.45 -14.7 10.9 Q-14.7 10.35 -15.0 9.85 L-15.2 9.65 Q-15.9 9.65 -16.6 10.1 L-16.75 10.15 Q-16.65 8.6 -17.05 7.05 L-18.95 7.45 -19.25 7.7 -19.5 8.45 -19.65 8.9 -19.95 9.9 -20.05 10.15 -21.6 9.1 -21.95 8.7 Q-22.6 7.95 -23.5 8.15 L-23.3 9.35 -22.65 11.65 -22.6 12.15 -22.7 12.4 Q-23.4 12.5 -23.95 13.1 L-24.25 13.3 Q-25.1 13.45 -24.85 12.2 L-24.6 10.9 -24.55 10.2 -24.7 9.85 -25.1 9.25 Q-25.7 8.4 -25.55 7.15 L-25.45 6.8 -25.05 6.6 -24.6 6.35 Q-23.7 5.6 -23.15 4.65 L-23.4 4.3 Q-23.8 3.3 -24.6 3.4 L-24.6 3.15 -24.5 2.7 -23.65 0.9 -23.1 0.35 Q-22.45 -0.05 -22.85 -0.65 L-24.9 -0.15 -26.3 0.05 Q-26.75 0.1 -26.75 -0.35 L-26.8 -2.85 Q-27.5 -2.75 -27.85 -2.1 L-28.0 -1.85 Q-28.65 -0.05 -29.9 -0.1 L-29.85 -0.55 -29.65 -1.85 -29.7 -3.55 -29.95 -4.45 -30.15 -4.5 -31.45 -3.15 -31.45 -3.1 -31.5 -3.35 -31.6 -4.1 -32.0 -8.6 Q-32.05 -9.4 -32.25 -9.6 L-32.3 -8.6 Q-32.45 -7.6 -32.75 -6.75 L-33.5 -3.6 -33.8 -2.6 -34.0 -2.85 -34.1 -3.15 Q-34.4 -4.05 -34.35 -5.1 L-34.35 -6.1 Q-34.25 -8.05 -35.3 -9.35" fill="url(#gradient0)" fill-rule="evenodd" stroke="none"/>
    <path d="M13.1 29.65 Q12.65 29.7 12.45 28.95 L12.05 28.1 Q11.55 27.15 11.9 26.4 12.55 24.95 12.05 23.6 L11.35 21.6 11.1 20.7 Q11.0 20.45 11.05 19.65 11.1 19.0 11.55 18.95 L12.05 18.8 12.8 18.65 14.05 18.45 14.25 18.2 Q14.85 17.0 14.95 15.65 15.0 14.35 15.65 14.3 L15.95 14.35 Q16.65 14.55 16.85 13.45 L17.0 12.85 Q17.7 11.15 17.75 9.15 L17.85 8.4 18.25 6.1 Q18.4 5.2 18.9 5.25 19.8 5.35 20.45 4.85 L20.65 4.65 Q22.25 2.8 22.6 -0.1 L22.7 -0.6 23.2 -1.5 23.45 -1.55 Q24.05 -1.4 24.5 -1.9 L25.2 -2.4 Q25.9 -2.75 26.1 -4.05 L26.2 -4.65 26.45 -5.6 Q26.75 -6.95 27.85 -7.3 L28.1 -7.25 28.45 -6.55 Q28.85 -5.15 29.25 -5.45 30.1 -6.15 31.0 -6.4 L31.4 -6.3 31.6 -6.15 32.4 -5.65 Q32.7 -5.45 32.95 -5.75 L33.2 -5.8 Q33.7 -5.7 33.95 -6.1 L34.0 -6.1 34.15 -6.55 34.6 -7.6 34.7 -7.85 Q34.85 -9.0 35.25 -9.5 L35.5 -9.5 36.6 -8.7 Q37.05 -8.45 37.45 -8.25 38.1 -9.65 37.6 -10.7 L37.5 -11.0 37.25 -11.25 36.6 -11.35 36.45 -11.4 Q36.15 -11.45 36.2 -12.1 L36.2 -14.6 Q36.2 -15.2 36.6 -15.25 L36.8 -15.25 36.95 -15.25 37.55 -15.15 Q37.85 -14.95 38.05 -15.3 L38.45 -15.95 38.5 -16.35 38.65 -19.35 Q38.85 -18.95 39.2 -18.65 L39.8 -18.2 40.05 -18.15 41.3 -18.45 Q41.7 -18.55 41.6 -19.1 L41.15 -20.85 40.9 -21.65 40.9 -22.6 Q41.0 -24.0 41.9 -23.45 L42.6 -22.95 42.9 -22.7 Q43.1 -22.55 43.35 -22.5 L43.6 -22.55 43.85 -23.05 45.0 -26.8 45.4 -27.45 45.5 -27.45 45.55 -27.45 45.85 -27.35 46.85 -26.7 47.45 -26.6 47.7 -26.6 Q48.3 -26.0 49.05 -26.75 L49.3 -26.9 49.4 -27.1 49.75 -29.1 49.95 -31.25 50.2 -31.3 Q51.3 -31.05 52.05 -32.0 L52.15 -32.35 Q52.25 -34.0 52.8 -35.4 52.9 -35.7 53.3 -35.3 53.95 -34.55 54.4 -33.3 L54.8 -31.85 Q55.25 -29.6 56.4 -30.55 L56.5 -30.85 56.3 -33.1 Q57.6 -32.85 58.35 -31.55 L58.85 -30.65 59.1 -30.3 59.45 -29.35 59.5 -30.35 59.5 -31.6 59.6 -34.6 Q60.7 -33.8 61.2 -31.85 L61.6 -30.8 61.65 -30.35 61.65 -30.1 Q61.95 -30.65 62.6 -30.55 62.85 -30.5 62.8 -29.85 L62.65 -28.4 62.45 -27.8 62.15 -26.35 Q62.1 -25.6 62.75 -25.75 63.35 -25.95 63.8 -26.7 L63.9 -27.05 64.2 -28.35 Q64.35 -29.5 65.25 -29.55 L66.3 -29.4 66.55 -29.25 Q67.2 -29.95 67.5 -28.9 L67.65 -28.05 67.55 -27.35 Q67.15 -25.95 67.2 -24.35 L67.3 -24.1 Q67.9 -23.15 68.85 -22.95 L69.75 -22.45 Q69.7 -22.2 69.8 -22.1 70.3 -21.1 70.15 -19.6 70.05 -19.05 70.4 -19.0 L71.05 -18.95 72.4 -19.1 72.5 -19.35 72.6 -20.35 72.55 -21.85 72.5 -22.35 72.45 -23.6 72.55 -24.3 72.75 -24.9 73.05 -25.2 73.6 -25.0 Q73.85 -24.85 74.2 -24.8 L74.65 -24.65 74.95 -24.6 Q74.9 -25.8 75.2 -26.9 L75.35 -27.3 75.45 -27.5 76.05 -27.5 77.8 -26.95 79.5 -25.6 Q79.45 -26.8 80.1 -27.4 L81.05 -28.45 81.25 -28.65 81.7 -28.55 83.75 -27.1 Q84.7 -26.5 85.25 -25.3 L85.5 -24.9 Q85.8 -24.35 86.25 -24.15 L90.1 -22.65 90.25 -22.35 Q90.25 -21.5 90.4 -21.05 90.6 -20.45 90.4 -20.0 L90.25 -19.4 89.8 -18.15 89.6 -17.35 89.55 -16.85 89.55 -16.1 Q89.75 -14.35 90.35 -12.65 L90.6 -12.1 92.5 -9.85 93.15 -14.05 93.3 -14.05 Q94.1 -13.9 94.35 -12.85 94.55 -12.0 94.9 -11.45 L95.6 -11.4 Q96.4 -12.2 97.35 -12.4 98.4 -12.6 98.6 -11.15 L98.65 -10.75 98.85 -10.15 99.0 -9.55 99.05 -9.1 98.6 -7.45 98.4 -6.85 98.35 -6.35 Q98.05 -4.45 99.1 -3.65 L101.55 -1.95 101.9 -1.6 102.05 -1.35 102.0 -2.3 Q101.75 -3.4 101.85 -4.6 L102.0 -4.95 102.2 -5.15 102.65 -5.15 102.95 -4.8 103.85 -2.95 104.1 -2.9 Q104.9 -3.05 105.35 -2.6 105.8 -2.1 105.65 -0.85 105.5 0.05 106.15 0.1 106.95 0.2 107.65 0.8 L107.8 1.15 107.9 2.4 108.0 2.6 Q108.9 3.45 109.0 1.9 L109.05 0.9 109.25 -3.35 109.3 -4.35 109.55 -5.15 109.8 -5.5 110.0 -5.5 110.3 -4.8 110.85 -3.1 Q111.55 -4.9 112.7 -6.15 L112.85 -6.25 114.85 -6.95 115.85 -6.8 115.95 -5.55 115.65 -4.15 114.75 -2.05 Q114.15 -0.5 115.35 0.0 L116.05 0.3 Q116.7 0.6 116.45 1.9 L115.85 3.15 Q115.3 3.75 115.45 4.9 115.5 5.9 116.3 6.05 L117.55 6.15 117.85 6.45 Q118.4 7.75 119.3 7.9 119.6 7.95 119.8 7.55 L120.05 7.45 121.5 8.0 121.95 8.25 122.05 8.4 Q122.45 9.7 123.25 10.2 L123.5 10.1 123.65 9.9 Q123.95 9.25 124.75 9.4 125.85 9.5 126.35 10.9 L127.55 13.25 127.8 13.55 128.05 13.65 128.7 13.8 Q129.0 13.95 129.1 13.5 129.15 13.4 129.3 13.4 130.0 13.3 130.3 14.35 L130.4 15.9 Q130.2 17.15 130.8 17.75 L131.15 17.8 131.65 17.35 Q132.15 16.5 132.4 17.35 L132.55 17.75 132.65 18.15 132.7 18.4 Q132.75 19.9 133.55 19.55 L134.3 19.3 Q134.95 19.2 135.3 19.6 L135.65 21.15 135.65 21.65 135.65 23.15 135.65 23.65 135.5 24.7 135.5 25.4 135.55 25.7 135.6 26.3 Q135.6 26.7 135.75 26.85 L135.75 26.65 136.4 27.9 137.1 28.95 137.6 29.65 137.65 29.75 137.1 31.4 136.9 31.8 136.65 31.9 134.3 31.6 Q134.1 31.55 133.8 31.75 133.45 31.95 133.3 32.4 L133.1 32.75 133.2 33.4 133.5 33.6 135.55 34.65 135.25 34.9 134.65 35.5 Q134.45 35.85 134.5 36.4 L134.65 36.75 135.05 36.95 135.55 37.0 Q136.3 37.0 136.3 37.9 L136.25 38.2 135.55 38.45 134.75 38.6 132.9 38.8 Q132.1 38.8 131.8 39.4 L132.15 40.1 132.8 42.2 132.8 42.5 Q132.2 43.4 131.3 43.2 130.85 43.1 130.85 42.4 L130.8 41.4 130.7 40.65 Q130.55 39.65 129.9 39.85 L129.6 40.0 Q128.9 40.5 128.35 41.25 L128.1 41.55 127.95 41.55 127.2 40.45 Q126.85 39.7 126.3 39.65 L126.05 39.75 125.55 41.2 125.15 41.8 Q124.7 42.35 125.05 42.9 L125.15 43.2 125.35 44.4 124.9 44.4 Q124.35 44.3 124.15 44.7 123.6 45.45 122.75 45.5 L122.35 45.2 122.05 44.9 121.4 44.0 Q121.15 43.45 120.65 43.65 120.05 45.45 119.6 47.9 L119.15 47.75 118.45 47.2 Q118.25 47.05 118.05 47.05 L117.85 47.15 Q117.45 47.65 117.3 48.45 L117.05 49.65 Q116.85 50.75 117.0 51.9 117.05 52.9 116.6 52.9 L116.05 52.8 115.35 52.55 Q114.6 52.3 114.75 53.65 115.05 56.25 116.2 57.85 116.6 58.35 115.95 58.85 L115.55 59.2 115.2 59.5 Q114.75 59.8 114.85 60.65 L114.95 61.35 115.15 62.45 Q115.3 63.45 115.85 63.4 117.2 64.35 116.3 65.6 L116.0 65.9 116.45 66.45 117.05 67.8 116.45 67.65 115.85 67.6 Q115.5 67.7 115.55 68.65 115.5 69.15 115.7 69.4 L116.75 70.5 117.75 70.85 Q118.35 71.0 118.65 71.4 L118.65 71.65 Q118.35 73.7 117.3 74.55 116.75 73.9 116.8 73.1 L116.6 71.65 Q116.45 71.5 116.3 71.5 115.5 71.7 114.9 72.35 L114.25 72.5 Q113.7 72.3 113.3 71.35 L113.2 71.2 112.95 71.2 Q112.6 71.6 112.75 72.6 L112.8 72.85 Q112.9 73.6 112.6 74.2 112.05 75.1 111.3 74.9 L110.85 74.75 109.9 74.65 Q109.2 74.8 108.95 75.85 108.85 76.1 108.9 76.3 109.05 77.4 109.9 77.05 L110.2 76.95 111.15 76.75 Q111.75 76.6 111.9 77.1 L111.15 77.95 110.8 78.25 Q110.3 78.6 110.4 79.35 L110.55 79.55 110.75 79.7 111.05 79.95 Q111.65 80.5 110.95 81.3 L110.7 81.65 110.2 81.85 109.3 80.3 109.05 80.05 Q108.15 79.75 107.45 80.4 L107.55 81.1 107.5 81.8 107.3 82.65 Q107.2 83.45 106.75 83.4 L106.4 83.15 105.95 83.05 Q104.7 83.35 103.65 82.55 L103.45 82.5 103.0 82.6 Q102.15 82.95 101.75 84.1 L102.55 84.6 Q104.25 85.2 105.95 85.95 L106.15 86.1 104.9 87.1 104.45 87.45 104.2 87.8 Q103.9 88.3 104.4 88.5 L104.9 88.65 Q105.45 88.75 106.0 88.45 L106.95 88.55 Q107.35 89.4 107.4 90.35 L104.7 90.35 103.45 90.2 Q102.6 90.05 102.55 91.1 L102.8 91.4 103.2 91.8 Q103.65 92.25 103.75 93.1 103.9 95.1 103.3 96.35 L103.15 96.5 Q102.65 96.75 102.7 95.85 102.75 94.9 102.4 94.0 L101.45 94.85 101.1 93.9 100.95 93.8 Q100.65 94.25 100.2 94.35 L99.55 92.35 Q99.25 91.6 98.95 92.15 L98.3 93.35 98.2 92.7 97.8 91.35 Q97.4 89.6 96.25 89.6 L96.25 90.85 96.3 91.85 Q96.45 92.75 95.95 92.65 L95.0 92.6 Q94.85 92.6 94.8 92.7 94.6 93.6 94.85 94.35 L95.05 94.75 95.25 95.0 95.4 95.25 95.6 96.35 Q95.45 97.85 95.0 98.6 L94.75 97.1 Q94.6 96.15 94.05 95.85 L93.8 96.4 93.6 96.85 91.9 94.65 Q91.45 94.15 91.35 94.85 L91.35 95.1 91.35 95.35 91.45 96.1 91.45 96.85 Q91.45 97.85 90.95 97.35 L90.95 97.6 90.85 98.05 Q90.75 98.4 90.8 99.1 L90.7 99.5 90.5 99.7 90.3 99.85 89.65 97.1 89.45 96.7 89.3 96.5 89.2 95.85 89.1 95.2 89.0 94.8 88.9 94.1 88.9 93.6 89.1 92.15 89.2 91.85 89.45 91.2 Q90.05 89.85 90.0 88.1 L89.95 87.7 Q89.6 87.0 88.75 86.8 88.35 86.75 88.0 86.5 87.8 86.35 87.75 86.05 L87.75 85.6 87.7 83.85 87.5 80.85 87.2 80.45 83.75 79.25 83.6 79.1 Q83.3 78.75 83.45 78.15 83.7 77.15 83.55 76.1 L83.5 75.6 83.3 74.65 83.15 73.8 83.0 72.85 Q83.0 72.15 82.65 72.2 82.05 72.3 81.7 73.35 81.25 74.65 80.6 74.85 L79.65 71.1 79.5 70.85 Q78.85 70.9 78.4 71.8 L78.1 72.6 Q77.3 72.6 76.85 73.4 76.65 73.75 76.6 74.15 76.25 75.35 75.35 75.95 74.15 74.95 72.85 73.2 72.55 72.75 72.15 72.75 71.6 72.8 71.35 73.85 70.95 75.15 70.25 75.6 L70.0 75.7 Q69.45 75.5 69.15 74.35 L68.8 73.2 68.55 73.0 68.35 73.05 Q67.1 73.9 66.95 75.85 L66.7 74.35 66.7 73.6 Q66.8 72.9 66.5 72.65 L66.2 72.5 65.9 72.3 65.55 72.05 65.15 71.75 Q64.45 71.25 63.9 70.35 L63.7 70.05 Q63.25 69.75 63.1 69.0 L61.85 68.8 60.45 68.15 60.25 67.85 Q60.15 67.25 59.8 67.15 L59.55 67.25 Q59.0 67.9 59.15 69.4 L58.9 69.35 58.7 69.25 58.25 69.05 57.75 68.85 Q57.3 68.85 57.0 68.4 L56.35 67.65 Q56.05 67.35 56.15 66.4 L56.25 66.05 Q56.75 65.4 56.7 64.15 L56.55 63.25 56.5 62.15 Q56.55 61.15 55.9 61.15 L55.75 61.2 Q55.55 62.05 54.9 62.6 L54.55 62.65 54.3 62.15 53.2 58.9 52.9 59.65 Q52.7 59.95 52.8 60.35 L53.15 62.15 52.95 63.7 52.55 64.35 52.3 64.85 52.05 63.2 51.0 60.7 50.8 60.1 50.8 59.7 51.15 58.85 Q51.6 57.95 52.25 57.55 L52.55 56.9 Q52.35 55.6 51.5 55.25 L51.05 55.1 Q50.5 55.0 50.4 55.4 L50.3 54.4 50.15 53.1 50.05 52.4 49.75 51.75 49.35 51.55 Q48.9 52.3 47.9 52.4 L47.6 52.5 Q46.8 53.4 47.25 54.9 47.65 56.05 47.35 57.2 L47.2 57.55 47.0 57.75 Q46.65 58.3 46.2 58.15 L46.2 57.9 46.25 57.15 Q46.3 55.85 46.5 54.65 46.8 52.8 46.45 50.9 L46.3 50.45 45.5 49.15 44.3 47.7 44.1 47.35 Q43.95 47.05 44.05 46.65 L44.1 46.4 44.2 45.15 44.25 44.4 Q44.4 43.2 44.0 42.4 L43.65 41.4 42.9 41.45 40.55 41.85 40.15 41.75 39.95 41.4 Q39.6 39.6 39.4 37.65 L39.2 37.25 39.05 37.05 38.55 37.0 37.25 38.2 37.0 37.85 36.6 37.0 36.6 36.95 35.75 35.55 Q35.2 34.65 34.75 35.15 L34.95 36.35 35.0 36.65 Q35.2 37.95 34.75 38.9 34.55 39.3 34.25 39.1 33.35 38.55 32.55 38.85 L32.25 38.85 31.6 38.4 31.25 37.95 29.85 36.2 29.6 36.1 Q29.4 36.15 29.25 36.35 L29.0 36.75 Q28.9 37.35 28.5 37.35 27.5 37.4 27.35 39.15 27.2 40.25 26.45 40.0 L26.05 40.05 Q25.9 40.15 25.85 40.4 L25.2 42.65 24.85 43.35 24.55 43.65 Q23.75 42.2 22.95 41.45 L22.7 40.9 Q22.65 40.15 22.95 39.6 L24.4 36.15 Q23.75 35.75 23.0 35.85 22.65 35.9 22.55 35.65 L22.25 35.1 21.85 34.55 21.45 34.4 Q20.55 34.45 19.9 35.2 L19.4 35.55 Q19.05 35.65 19.0 35.35 L18.85 34.95 Q18.45 33.8 17.85 33.15 L17.75 33.4 17.5 34.9 17.4 35.4 Q17.3 36.9 16.55 36.95 L16.25 36.4 16.25 36.15 16.3 35.7 16.55 35.1 16.75 34.65 16.95 33.15 16.75 31.65 Q16.45 31.15 15.95 31.15 15.7 31.15 15.65 31.35 L15.15 31.4 14.95 28.15 14.9 27.9 Q14.85 27.25 14.55 27.25 L14.15 27.5 Q13.7 28.1 13.4 28.85 L13.1 29.65" fill="url(#gradient1)" fill-rule="evenodd" stroke="none"/>
    <path d="M174.5 23.75 L173.65 99.0 173.65 99.15 170.85 100.65 Q170.05 100.9 169.4 101.45 167.25 100.25 166.85 99.6 L166.7 99.45 166.5 99.25 166.35 98.95 165.95 98.3 165.7 97.95 164.95 96.7 164.5 95.9 Q164.05 95.2 164.4 94.7 165.2 93.35 164.85 91.9 L164.65 91.6 163.9 91.3 163.7 91.1 163.55 88.65 163.5 88.2 Q162.7 87.7 162.3 88.4 L162.15 88.95 161.8 90.1 161.55 90.4 Q160.7 90.4 160.2 89.45 160.45 87.85 159.95 86.4 159.8 86.4 159.7 86.5 L159.5 86.65 Q159.2 87.1 158.55 86.9 159.0 85.95 159.05 84.65 L157.95 84.75 Q157.0 84.9 156.65 83.9 156.45 83.35 156.7 82.95 L157.0 82.7 157.85 81.7 158.3 81.0 Q158.6 80.7 158.5 80.15 L158.45 79.9 158.1 78.75 156.85 78.75 Q156.2 78.9 156.35 77.9 156.55 76.4 155.85 76.0 L155.65 76.0 155.4 76.25 Q154.9 76.6 154.8 76.15 L154.6 75.75 154.2 75.35 153.7 75.15 Q153.2 75.1 153.1 74.65 153.05 74.4 153.15 74.2 L153.25 73.6 Q153.4 72.4 153.1 71.65 L152.9 71.35 Q152.15 71.1 151.85 72.15 L151.5 72.5 Q150.95 72.3 150.75 71.6 150.5 70.65 149.95 70.2 L149.3 69.45 Q148.85 68.8 148.55 69.45 L148.5 69.85 148.85 73.15 148.25 72.85 Q147.35 72.6 147.45 73.9 147.65 75.6 146.7 75.3 L146.5 75.2 146.2 74.95 146.15 74.65 145.9 71.9 144.8 73.6 Q144.5 73.9 144.35 74.3 144.0 75.05 143.55 74.4 143.2 73.9 143.0 72.85 142.7 71.75 142.15 71.65 141.9 72.05 141.95 72.65 L141.95 73.1 Q141.75 73.9 141.85 74.9 140.85 74.4 139.8 74.4 139.55 74.4 139.6 74.9 139.55 75.65 139.95 76.15 L140.1 76.6 139.95 78.0 138.4 77.9 137.9 78.0 Q137.25 78.25 136.8 79.4 137.75 80.05 138.5 81.2 L138.6 81.5 Q138.1 82.5 137.9 83.9 137.75 85.0 138.1 85.4 L137.75 84.8 136.35 81.15 135.65 79.8 Q135.05 79.0 135.9 78.2 136.65 77.5 136.5 76.15 L136.2 75.45 135.8 75.05 135.4 74.5 Q135.15 74.1 135.25 73.15 135.25 72.6 135.5 72.2 136.05 71.1 135.9 69.65 L134.3 70.25 134.15 70.35 Q133.5 70.65 133.2 71.4 L133.15 70.9 133.05 69.9 132.6 68.65 132.15 68.25 Q131.5 68.2 131.3 68.85 L130.7 70.85 130.6 71.2 Q130.2 72.55 129.6 71.65 129.35 71.25 129.55 70.7 129.75 69.65 130.2 68.65 L130.35 68.15 Q130.4 67.55 130.1 67.5 129.35 67.4 128.7 67.9 129.5 65.95 129.3 63.4 L129.25 63.1 128.7 62.9 Q128.1 62.9 127.9 63.4 L127.4 64.35 127.25 64.7 Q127.1 66.25 127.1 67.85 L126.8 66.9 Q126.3 65.0 125.1 64.9 124.9 64.9 124.85 65.0 124.25 65.75 124.6 66.65 L124.7 67.15 124.9 67.9 124.45 67.85 123.65 67.8 Q123.2 67.8 123.1 67.15 L123.0 66.15 122.9 64.9 Q122.85 63.9 122.3 64.25 L122.1 64.25 Q121.7 64.25 121.65 64.65 L121.15 66.65 Q120.95 67.3 121.0 66.9 L119.9 64.15 119.75 64.0 119.5 63.8 Q118.75 62.95 117.85 62.9 117.9 64.25 118.4 65.4 L118.8 67.4 118.8 67.65 117.05 67.8 116.45 66.45 116.0 65.9 116.3 65.6 Q117.2 64.35 115.85 63.4 115.3 63.45 115.15 62.45 L114.95 61.35 114.85 60.65 Q114.75 59.8 115.2 59.5 L115.55 59.2 115.95 58.85 Q116.6 58.35 116.2 57.85 115.05 56.25 114.75 53.65 114.6 52.3 115.35 52.55 L116.05 52.8 116.6 52.9 Q117.05 52.9 117.0 51.9 116.85 50.75 117.05 49.65 L117.3 48.45 Q117.45 47.65 117.85 47.15 L118.05 47.05 Q118.25 47.05 118.45 47.2 L119.15 47.75 119.6 47.9 Q120.05 45.45 120.65 43.65 121.15 43.45 121.4 44.0 L122.05 44.9 122.35 45.2 122.75 45.5 Q123.6 45.45 124.15 44.7 124.35 44.3 124.9 44.4 L125.35 44.4 125.15 43.2 125.05 42.9 Q124.7 42.35 125.15 41.8 L125.55 41.2 126.05 39.75 126.3 39.65 Q126.85 39.7 127.2 40.45 L127.95 41.55 128.1 41.55 128.35 41.25 Q128.9 40.5 129.6 40.0 L129.9 39.85 Q130.55 39.65 130.7 40.65 L130.8 41.4 130.85 42.4 Q130.85 43.1 131.3 43.2 132.2 43.4 132.8 42.5 L132.8 42.2 132.15 40.1 131.8 39.4 Q132.1 38.8 132.9 38.8 L134.75 38.6 135.55 38.45 136.25 38.2 136.3 37.9 Q136.3 37.0 135.55 37.0 L135.05 36.95 134.65 36.75 134.5 36.4 Q134.45 35.85 134.65 35.5 L135.25 34.9 135.55 34.65 133.5 33.6 133.2 33.4 133.1 32.75 133.3 32.4 Q133.45 31.95 133.8 31.75 134.1 31.55 134.3 31.6 L136.65 31.9 136.9 31.8 137.1 31.4 137.65 29.75 138.45 28.05 138.6 27.8 138.8 27.75 139.15 28.15 Q139.7 29.05 140.55 29.5 L140.7 29.65 140.6 28.65 140.35 27.05 140.05 26.15 Q139.85 25.35 139.9 24.4 L140.1 24.0 140.85 23.7 145.65 22.3 145.55 21.95 145.3 20.85 145.1 19.9 144.95 19.15 Q146.15 19.45 147.05 20.4 L147.55 20.85 148.0 21.25 148.3 21.2 148.5 20.65 Q148.55 18.5 148.0 16.8 L147.9 16.15 147.9 14.4 Q149.1 15.1 149.5 13.15 L149.55 12.65 149.55 12.4 Q149.5 11.95 149.8 11.9 150.15 12.1 150.35 12.85 L150.55 13.7 Q150.85 14.75 151.5 14.75 L152.95 14.3 Q153.15 14.15 153.4 14.15 153.85 14.1 154.1 14.85 L154.3 15.45 154.55 15.8 154.75 16.0 155.1 16.4 Q155.35 16.85 156.05 16.65 157.15 16.35 158.0 17.25 L158.55 17.7 158.7 17.85 159.7 18.8 159.95 18.85 160.55 18.6 160.75 18.5 Q161.55 18.15 161.9 18.85 L162.1 19.2 162.5 20.4 162.7 21.65 162.75 21.9 163.4 24.15 Q163.65 25.55 164.35 25.95 L164.55 26.1 165.35 26.55 165.6 26.7 Q165.9 26.7 166.0 27.05 L166.2 27.25 166.75 27.8 167.0 28.0 167.2 28.05 Q168.0 28.35 168.6 27.65 L169.1 27.0 169.35 26.9 Q170.25 26.8 170.8 27.3 L171.05 27.5 171.3 27.85 171.55 28.0 172.15 27.6 Q173.7 26.0 174.5 23.75 M145.65 22.3 L145.85 22.6 145.9 22.6 146.0 22.6 146.1 22.4 146.05 22.15 145.7 22.3 145.65 22.3" fill="url(#gradient2)" fill-rule="evenodd" stroke="none"/>
    <path d="M88.6 104.35 L88.5 101.1 88.5 100.85 Q88.55 99.9 89.2 100.0 L90.3 99.85 90.5 99.7 90.7 99.5 90.8 99.1 Q90.75 98.4 90.85 98.05 L90.95 97.6 90.95 97.35 Q91.45 97.85 91.45 96.85 L91.45 96.1 91.35 95.35 91.35 95.1 91.35 94.85 Q91.45 94.15 91.9 94.65 L93.6 96.85 93.8 96.4 94.05 95.85 Q94.6 96.15 94.75 97.1 L95.0 98.6 Q95.45 97.85 95.6 96.35 L95.4 95.25 95.25 95.0 95.05 94.75 94.85 94.35 Q94.6 93.6 94.8 92.7 94.85 92.6 95.0 92.6 L95.95 92.65 Q96.45 92.75 96.3 91.85 L96.25 90.85 96.25 89.6 Q97.4 89.6 97.8 91.35 L98.2 92.7 98.3 93.35 98.95 92.15 Q99.25 91.6 99.55 92.35 L100.2 94.35 Q100.65 94.25 100.95 93.8 L101.1 93.9 101.45 94.85 102.4 94.0 Q102.75 94.9 102.7 95.85 102.65 96.75 103.15 96.5 L103.3 96.35 Q103.9 95.1 103.75 93.1 103.65 92.25 103.2 91.8 L102.8 91.4 102.55 91.1 Q102.6 90.05 103.45 90.2 L104.7 90.35 107.4 90.35 Q107.35 89.4 106.95 88.55 L106.0 88.45 Q105.45 88.75 104.9 88.65 L104.4 88.5 Q103.9 88.3 104.2 87.8 L104.45 87.45 104.9 87.1 106.15 86.1 105.95 85.95 Q104.25 85.2 102.55 84.6 L101.75 84.1 Q102.15 82.95 103.0 82.6 L103.45 82.5 103.65 82.55 Q104.7 83.35 105.95 83.05 L106.4 83.15 106.75 83.4 Q107.2 83.45 107.3 82.65 L107.5 81.8 107.55 81.1 107.45 80.4 Q108.15 79.75 109.05 80.05 L109.3 80.3 110.2 81.85 110.7 81.65 110.95 81.3 Q111.65 80.5 111.05 79.95 L110.75 79.7 110.55 79.55 110.4 79.35 Q110.3 78.6 110.8 78.25 L111.15 77.95 111.9 77.1 Q111.75 76.6 111.15 76.75 L110.2 76.95 109.9 77.05 Q109.05 77.4 108.9 76.3 108.85 76.1 108.95 75.85 109.2 74.8 109.9 74.65 L110.85 74.75 111.3 74.9 Q112.05 75.1 112.6 74.2 112.9 73.6 112.8 72.85 L112.75 72.6 Q112.6 71.6 112.95 71.2 L113.2 71.2 113.3 71.35 Q113.7 72.3 114.25 72.5 L114.9 72.35 Q115.5 71.7 116.3 71.5 116.45 71.5 116.6 71.65 L116.8 73.1 Q116.75 73.9 117.3 74.55 118.35 73.7 118.65 71.65 L118.65 71.4 Q118.35 71.0 117.75 70.85 L116.75 70.5 115.7 69.4 Q115.5 69.15 115.55 68.65 115.5 67.7 115.85 67.6 L116.45 67.65 117.05 67.8 118.8 67.65 118.8 67.4 118.4 65.4 Q117.9 64.25 117.85 62.9 118.75 62.95 119.5 63.8 L119.75 64.0 119.9 64.15 121.0 66.9 Q120.95 67.3 121.15 66.65 L121.65 64.65 Q121.7 64.25 122.1 64.25 L122.3 64.25 Q122.85 63.9 122.9 64.9 L123.0 66.15 123.1 67.15 Q123.2 67.8 123.65 67.8 L124.45 67.85 124.9 67.9 124.7 67.15 124.6 66.65 Q124.25 65.75 124.85 65.0 124.9 64.9 125.1 64.9 126.3 65.0 126.8 66.9 L127.1 67.85 Q127.1 66.25 127.25 64.7 L127.4 64.35 127.9 63.4 Q128.1 62.9 128.7 62.9 L129.25 63.1 129.3 63.4 Q129.5 65.95 128.7 67.9 129.35 67.4 130.1 67.5 130.4 67.55 130.35 68.15 L130.2 68.65 Q129.75 69.65 129.55 70.7 129.35 71.25 129.6 71.65 130.2 72.55 130.6 71.2 L130.7 70.85 131.3 68.85 Q131.5 68.2 132.15 68.25 L132.6 68.65 133.05 69.9 133.15 70.9 133.2 71.4 Q133.5 70.65 134.15 70.35 L134.3 70.25 135.9 69.65 Q136.05 71.1 135.5 72.2 135.25 72.6 135.25 73.15 135.15 74.1 135.4 74.5 L135.8 75.05 136.2 75.45 136.5 76.15 Q136.65 77.5 135.9 78.2 135.05 79.0 135.65 79.8 L136.35 81.15 137.75 84.8 138.1 85.4 Q137.75 85.0 137.9 83.9 138.1 82.5 138.6 81.5 L138.5 81.2 Q137.75 80.05 136.8 79.4 137.25 78.25 137.9 78.0 L138.4 77.9 139.95 78.0 140.1 76.6 139.95 76.15 Q139.55 75.65 139.6 74.9 139.55 74.4 139.8 74.4 140.85 74.4 141.85 74.9 141.75 73.9 141.95 73.1 L141.95 72.65 Q141.9 72.05 142.15 71.65 142.7 71.75 143.0 72.85 143.2 73.9 143.55 74.4 144.0 75.05 144.35 74.3 144.5 73.9 144.8 73.6 L145.9 71.9 146.15 74.65 146.2 74.95 146.5 75.2 146.7 75.3 Q147.65 75.6 147.45 73.9 147.35 72.6 148.25 72.85 L148.85 73.15 148.5 69.85 148.55 69.45 Q148.85 68.8 149.3 69.45 L149.95 70.2 Q150.5 70.65 150.75 71.6 150.95 72.3 151.5 72.5 L151.85 72.15 Q152.15 71.1 152.9 71.35 L153.1 71.65 Q153.4 72.4 153.25 73.6 L153.15 74.2 Q153.05 74.4 153.1 74.65 153.2 75.1 153.7 75.15 L154.2 75.35 154.6 75.75 154.8 76.15 Q154.9 76.6 155.4 76.25 L155.65 76.0 155.85 76.0 Q156.55 76.4 156.35 77.9 156.2 78.9 156.85 78.75 L158.1 78.75 158.45 79.9 158.5 80.15 Q158.6 80.7 158.3 81.0 L157.85 81.7 157.0 82.7 156.7 82.95 Q156.45 83.35 156.65 83.9 157.0 84.9 157.95 84.75 L159.05 84.65 Q159.0 85.95 158.55 86.9 159.2 87.1 159.5 86.65 L159.7 86.5 Q159.8 86.4 159.95 86.4 160.45 87.85 160.2 89.45 160.7 90.4 161.55 90.4 L161.8 90.1 162.15 88.95 162.3 88.4 Q162.7 87.7 163.5 88.2 L163.55 88.65 163.7 91.1 163.9 91.3 164.65 91.6 164.85 91.9 Q165.2 93.35 164.4 94.7 164.05 95.2 164.5 95.9 L164.95 96.7 165.7 97.95 165.95 98.3 166.35 98.95 166.5 99.25 166.7 99.45 166.85 99.6 Q167.25 100.25 169.4 101.45 L167.2 102.65 167.15 102.65 Q166.4 103.1 165.7 101.9 166.15 100.6 165.95 98.85 164.7 99.4 164.15 100.45 L163.8 101.15 Q163.9 96.85 164.4 92.85 161.3 94.7 160.3 99.85 159.9 98.6 158.7 97.45 L157.55 96.2 Q157.0 95.6 156.75 94.7 156.25 93.3 155.3 93.35 L155.55 93.9 Q156.0 95.55 157.0 97.75 157.6 99.2 157.2 99.85 L156.2 99.0 155.1 98.05 Q154.1 96.95 153.75 97.85 154.15 99.25 155.25 100.95 L155.7 101.45 Q156.45 101.85 157.1 102.95 L158.1 104.35 153.8 102.6 151.5 101.6 150.35 101.15 Q147.5 100.15 144.95 101.9 L144.3 102.2 Q142.85 102.55 141.5 103.3 L137.15 103.4 135.9 103.2 Q134.4 103.45 134.65 101.35 134.9 99.15 134.3 98.35 133.45 99.05 132.8 99.9 L131.8 100.7 Q131.35 100.85 131.05 100.5 L130.8 99.9 130.1 98.05 Q129.65 97.3 129.7 96.35 129.85 95.0 129.05 94.95 128.85 95.1 128.8 95.4 L128.5 96.7 127.1 101.35 124.65 98.3 123.9 97.55 Q122.85 96.6 122.4 97.35 L124.25 101.4 124.6 102.35 Q124.05 101.85 123.35 101.85 L122.8 101.65 Q122.3 101.25 121.5 101.35 L121.3 101.85 121.4 102.4 121.55 103.35 Q121.6 104.5 122.4 105.35 L121.8 105.35 121.2 105.2 Q118.65 103.95 115.85 103.45 L114.6 103.1 111.45 102.4 110.25 102.15 104.25 102.4 103.3 102.55 Q102.2 102.5 101.45 103.4 L101.1 103.75 97.95 106.55 Q96.5 105.8 94.9 105.15 L94.5 105.0 93.9 104.75 Q91.25 103.9 88.6 104.35 M127.1 67.85 L127.1 67.9 Q127.15 68.8 127.25 68.15 L127.1 67.85" fill="url(#gradient3)" fill-rule="evenodd" stroke="none"/>
    <path d="M173.65 99.15 L173.65 175.45 -75.8 175.45 -75.8 79.9 Q-74.75 80.15 -74.2 81.3 -74.2 79.45 -73.65 78.8 L-73.45 78.65 -73.25 78.5 -72.65 78.35 Q-72.5 80.9 -71.05 81.3 L-70.45 80.9 -68.55 79.05 -67.95 78.85 -66.7 78.85 Q-66.8 81.0 -68.25 81.95 L-68.6 82.35 -68.9 82.85 -65.15 82.2 Q-64.1 82.05 -63.25 82.85 -63.95 84.1 -63.45 85.5 -63.3 86.1 -62.65 86.35 -61.2 86.9 -60.1 87.7 -58.5 88.9 -56.7 88.85 -58.45 87.5 -58.1 83.9 L-55.75 86.85 Q-55.2 84.5 -53.85 83.8 L-53.3 83.75 Q-53.1 83.85 -53.05 84.4 L-52.8 86.8 -52.6 87.15 -50.7 87.0 -50.1 86.85 -49.85 90.2 -49.5 90.3 -47.9 90.0 Q-46.35 89.8 -45.05 90.65 L-44.45 90.9 -42.9 91.2 -40.7 91.5 -39.8 91.65 -33.5 91.85 -32.3 92.05 -31.95 92.1 -31.7 92.15 -26.0 92.35 -19.45 92.7 -16.3 93.25 Q-15.25 93.55 -14.4 93.0 L-13.8 92.8 Q-11.55 92.35 -9.65 93.65 L-8.55 94.55 -7.15 95.65 -6.0 96.25 Q-4.4 96.7 -2.85 97.4 -1.15 98.25 0.9 97.8 L2.8 97.75 3.8 98.1 4.95 98.5 5.65 98.7 13.4 100.3 Q13.75 100.35 14.15 100.65 L14.65 101.05 Q15.7 101.9 16.9 102.05 L17.55 102.2 Q20.55 103.1 23.8 102.8 25.3 102.7 26.05 103.65 L26.9 104.4 Q28.0 105.2 29.4 105.1 L30.1 105.2 31.0 105.35 Q31.0 102.9 30.35 100.85 L29.75 98.85 Q30.95 99.15 31.9 100.45 32.8 101.75 33.95 102.7 33.3 102.05 33.35 100.35 L33.0 97.75 32.85 96.35 32.85 94.35 34.4 97.4 Q35.1 98.85 35.35 100.75 L35.55 101.5 35.7 102.35 Q37.2 98.15 40.05 96.3 L40.65 95.8 41.0 95.35 Q41.0 97.8 40.45 99.9 L40.3 100.85 Q40.1 102.75 41.05 103.0 L41.95 102.95 44.45 101.85 Q44.9 102.45 44.3 104.0 44.1 104.35 44.05 104.8 L43.5 106.35 Q44.15 106.1 44.65 105.1 44.75 104.85 45.1 104.75 L45.5 104.65 48.5 104.1 48.85 104.3 Q51.75 107.25 55.25 106.25 L55.75 106.05 57.0 105.8 Q59.85 105.65 62.65 106.6 L64.2 106.85 67.65 106.35 Q67.5 105.5 66.7 105.4 L65.7 105.0 65.15 104.7 64.8 104.55 Q64.1 104.35 63.55 104.85 63.85 103.85 64.45 103.3 66.75 101.2 69.25 103.15 L69.8 103.5 Q70.4 103.85 71.1 103.85 70.05 102.55 70.0 99.85 L69.75 99.0 Q69.65 98.0 70.5 98.75 L71.8 100.1 Q73.2 101.65 73.95 103.3 L74.2 102.35 75.2 99.4 Q75.75 98.25 76.7 97.35 77.25 97.5 77.15 98.85 77.0 100.85 77.0 102.85 76.95 104.45 77.65 104.85 77.55 102.7 78.3 101.85 79.4 100.6 80.8 99.85 80.9 101.95 80.55 103.9 L80.45 104.85 Q80.85 105.3 81.35 104.05 81.4 103.85 81.75 103.8 L82.4 103.8 Q83.75 103.85 84.85 104.9 L85.15 105.35 85.6 106.05 85.9 105.5 Q86.35 104.85 87.0 104.7 L88.6 104.35 Q91.25 103.9 93.9 104.75 L94.5 105.0 94.9 105.15 Q96.5 105.8 97.95 106.55 L101.1 103.75 101.45 103.4 Q102.2 102.5 103.3 102.55 L104.25 102.4 110.25 102.15 111.45 102.4 114.6 103.1 115.85 103.45 Q118.65 103.95 121.2 105.2 L121.8 105.35 122.4 105.35 Q121.6 104.5 121.55 103.35 L121.4 102.4 121.3 101.85 121.5 101.35 Q122.3 101.25 122.8 101.65 L123.35 101.85 Q124.05 101.85 124.6 102.35 L124.25 101.4 122.4 97.35 Q122.85 96.6 123.9 97.55 L124.65 98.3 127.1 101.35 128.5 96.7 128.8 95.4 Q128.85 95.1 129.05 94.95 129.85 95.0 129.7 96.35 129.65 97.3 130.1 98.05 L130.8 99.9 131.05 100.5 Q131.35 100.85 131.8 100.7 L132.8 99.9 Q133.45 99.05 134.3 98.35 134.9 99.15 134.65 101.35 134.4 103.45 135.9 103.2 L137.15 103.4 141.5 103.3 Q142.85 102.55 144.3 102.2 L144.95 101.9 Q147.5 100.15 150.35 101.15 L151.5 101.6 153.8 102.6 158.1 104.35 157.1 102.95 Q156.45 101.85 155.7 101.45 L155.25 100.95 Q154.15 99.25 153.75 97.85 154.1 96.95 155.1 98.05 L156.2 99.0 157.2 99.85 Q157.6 99.2 157.0 97.75 156.0 95.55 155.55 93.9 L155.3 93.35 Q156.25 93.3 156.75 94.7 157.0 95.6 157.55 96.2 L158.7 97.45 Q159.9 98.6 160.3 99.85 161.3 94.7 164.4 92.85 163.9 96.85 163.8 101.15 L164.15 100.45 Q164.7 99.4 165.95 98.85 166.15 100.6 165.7 101.9 166.4 103.1 167.15 102.65 L167.2 102.65 169.4 101.45 Q170.05 100.9 170.85 100.65 L173.65 99.15" fill="url(#gradient4)" fill-rule="evenodd" stroke="none"/>
    <path d="M-73.45 78.65 L-73.6 74.85 -73.5 74.25 Q-73.1 73.9 -73.15 72.85 -73.35 69.65 -72.55 66.95 L-72.35 65.35 Q-72.35 60.35 -72.5 55.35 L-72.55 54.3 -72.8 52.9 -72.9 52.3 -73.8 48.3 -74.05 47.45 Q-74.85 45.3 -74.65 41.85 L-74.65 37.4 -73.75 36.65 Q-72.95 35.7 -71.9 35.65 -71.9 36.85 -72.2 37.9 -72.45 38.7 -72.35 39.65 L-69.7 36.4 -68.95 38.4 Q-69.05 37.15 -68.7 36.2 -68.6 35.9 -68.3 36.05 L-68.05 36.45 -67.85 37.0 -67.55 37.45 -66.85 38.15 Q-66.8 36.0 -66.35 34.0 L-66.15 34.05 -65.75 34.6 -64.45 37.3 Q-64.0 37.15 -63.9 37.9 -63.8 39.15 -64.05 40.15 -62.95 40.35 -62.0 39.65 L-61.7 39.4 -62.1 38.2 -62.25 37.35 -62.35 36.9 Q-62.1 36.4 -61.4 36.65 -60.5 36.9 -60.65 35.65 -61.05 35.35 -61.0 34.65 L-61.0 34.4 -61.1 32.65 Q-59.6 33.8 -59.0 36.4 L-58.9 36.9 -58.85 36.15 Q-58.75 34.2 -57.6 33.55 -57.0 34.3 -57.15 35.65 -57.35 37.55 -58.0 39.25 L-58.3 40.1 -58.4 40.35 -57.5 39.6 -56.85 39.2 -56.55 39.15 Q-56.35 40.0 -56.65 40.95 L-56.8 41.65 -56.95 42.7 -56.95 43.15 Q-56.9 43.7 -56.55 43.75 L-56.1 43.85 Q-55.15 44.2 -54.35 44.8 L-54.3 44.15 -54.2 43.45 -54.05 43.15 Q-53.55 43.25 -53.35 44.4 L-52.95 46.1 -52.5 45.55 Q-51.75 45.0 -51.45 46.2 L-51.4 46.65 Q-51.35 47.65 -51.55 48.15 -51.0 48.55 -50.6 49.6 L-50.4 50.65 -50.45 50.9 -51.45 52.1 -51.85 52.5 Q-52.45 53.15 -51.85 54.15 L-50.75 56.15 -50.6 56.4 Q-50.05 57.6 -48.9 57.65 L-48.8 57.9 -48.7 58.9 -48.5 59.55 -48.35 59.85 Q-47.9 58.95 -47.7 57.9 L-47.65 57.15 Q-46.85 57.15 -46.4 58.4 L-46.05 59.4 -45.4 58.95 -44.2 58.85 Q-43.85 59.1 -43.8 59.45 L-43.7 59.9 -43.5 63.6 -43.3 63.95 -41.25 65.4 -41.2 65.65 -41.1 67.35 -41.1 67.4 -40.45 67.2 Q-39.85 67.1 -39.0 68.4 L-37.75 70.1 Q-37.3 70.5 -37.25 70.1 L-37.2 69.1 Q-37.2 67.5 -37.5 66.15 L-37.6 65.85 -37.95 64.85 Q-37.2 65.3 -36.4 64.5 -35.6 63.65 -35.35 62.8 L-35.3 62.35 -35.5 60.85 -35.6 60.6 -35.75 59.6 -34.15 59.45 -34.05 59.6 Q-33.45 61.0 -33.15 62.85 L-33.05 63.1 Q-32.75 63.75 -33.0 64.9 L-33.05 65.6 -32.85 67.15 -32.45 67.5 -30.4 67.65 Q-29.85 67.65 -29.65 68.35 -29.5 66.65 -30.05 65.3 -30.5 64.35 -30.25 63.15 L-30.1 63.15 -29.15 63.2 Q-28.65 61.15 -29.05 59.3 L-29.15 58.6 -29.15 57.1 Q-28.55 58.0 -28.1 59.25 L-27.9 59.3 -27.75 59.15 Q-27.3 58.75 -26.8 58.85 L-26.75 58.9 Q-26.55 59.0 -26.45 59.6 L-26.4 59.85 -26.35 62.1 Q-26.4 62.8 -26.6 63.0 L-26.8 63.35 Q-27.0 64.55 -26.2 64.75 L-24.75 64.85 -24.0 65.05 -23.85 65.35 -23.85 65.55 -23.85 64.85 -23.95 62.85 -23.85 62.6 -22.9 61.85 -22.9 61.6 -22.9 59.6 Q-21.35 60.25 -19.8 61.25 L-19.5 61.0 -19.45 60.6 -19.3 59.45 -19.15 59.25 -18.05 58.6 -17.35 60.25 -17.1 60.35 Q-16.85 59.45 -16.85 58.35 L-16.8 57.85 -16.3 56.1 Q-15.9 55.95 -15.85 56.55 L-15.7 56.8 Q-14.95 57.25 -14.35 58.3 L-14.15 58.65 -13.65 59.05 -12.75 58.95 Q-12.25 58.5 -11.6 58.3 L-9.45 57.75 -9.4 57.35 -9.65 55.55 Q-9.35 54.95 -8.95 54.95 L-7.7 54.85 -5.8 53.85 Q-6.75 52.7 -8.15 52.65 -8.85 52.65 -9.0 52.05 L-9.25 51.55 -9.6 51.3 -10.3 50.75 -10.4 50.35 Q-10.55 49.15 -9.9 49.25 L-8.5 49.45 Q-7.45 49.55 -6.6 48.9 -5.95 48.4 -6.15 47.1 L-6.3 44.6 Q-5.7 44.5 -5.5 45.25 L-5.2 45.6 -4.25 46.1 Q-4.25 44.85 -3.5 44.4 L-3.45 44.4 -3.35 43.7 -3.2 43.35 -4.1 41.9 -4.4 41.6 -4.7 40.9 Q-4.7 40.45 -4.25 40.45 L-2.05 40.5 2.0 40.4 Q1.6 40.4 1.3 40.0 L0.8 39.3 0.4 38.75 -0.35 37.85 Q-0.7 37.45 -0.65 36.4 0.05 36.5 0.8 37.1 L1.4 37.35 2.8 37.25 3.05 37.15 3.15 36.9 Q3.45 35.15 3.0 34.1 L2.8 33.65 2.5 32.9 2.8 32.7 Q4.25 31.65 5.95 31.9 L6.2 32.2 6.3 32.4 6.1 31.65 5.65 30.35 Q5.2 29.65 5.3 28.65 5.3 28.15 5.45 27.9 6.6 29.1 7.1 31.6 7.4 30.1 8.2 29.0 L8.55 28.6 8.9 28.15 Q9.35 28.9 9.3 30.4 L9.3 30.9 9.35 33.15 10.7 31.0 10.9 30.6 Q11.25 30.2 11.75 30.85 12.3 31.65 12.85 30.5 L12.95 30.25 13.1 29.65 13.4 28.85 Q13.7 28.1 14.15 27.5 L14.55 27.25 Q14.85 27.25 14.9 27.9 L14.95 28.15 15.15 31.4 15.65 31.35 Q15.7 31.15 15.95 31.15 16.45 31.15 16.75 31.65 L16.95 33.15 16.75 34.65 16.55 35.1 16.3 35.7 16.25 36.15 16.25 36.4 16.55 36.95 Q17.3 36.9 17.4 35.4 L17.5 34.9 17.75 33.4 17.85 33.15 Q18.45 33.8 18.85 34.95 L19.0 35.35 Q19.05 35.65 19.4 35.55 L19.9 35.2 Q20.55 34.45 21.45 34.4 L21.85 34.55 22.25 35.1 22.55 35.65 Q22.65 35.9 23.0 35.85 23.75 35.75 24.4 36.15 L22.95 39.6 Q22.65 40.15 22.7 40.9 L22.95 41.45 Q23.75 42.2 24.55 43.65 L24.85 43.35 25.2 42.65 25.85 40.4 Q25.9 40.15 26.05 40.05 L26.45 40.0 Q27.2 40.25 27.35 39.15 27.5 37.4 28.5 37.35 28.9 37.35 29.0 36.75 L29.25 36.35 Q29.4 36.15 29.6 36.1 L29.85 36.2 31.25 37.95 31.6 38.4 32.25 38.85 32.55 38.85 Q33.35 38.55 34.25 39.1 34.55 39.3 34.75 38.9 35.2 37.95 35.0 36.65 L34.95 36.35 34.75 35.15 Q35.2 34.65 35.75 35.55 L36.6 36.95 36.6 37.0 37.0 37.85 37.25 38.2 38.55 37.0 39.05 37.05 39.2 37.25 39.4 37.65 Q39.6 39.6 39.95 41.4 L40.15 41.75 40.55 41.85 42.9 41.45 43.65 41.4 44.0 42.4 Q44.4 43.2 44.25 44.4 L44.2 45.15 44.1 46.4 44.05 46.65 Q43.95 47.05 44.1 47.35 L44.3 47.7 45.5 49.15 46.3 50.45 46.45 50.9 Q46.8 52.8 46.5 54.65 46.3 55.85 46.25 57.15 L46.2 57.9 46.2 58.15 Q46.65 58.3 47.0 57.75 L47.2 57.55 47.35 57.2 Q47.65 56.05 47.25 54.9 46.8 53.4 47.6 52.5 L47.9 52.4 Q48.9 52.3 49.35 51.55 L49.75 51.75 50.05 52.4 50.15 53.1 50.3 54.4 50.4 55.4 Q50.5 55.0 51.05 55.1 L51.5 55.25 Q52.35 55.6 52.55 56.9 L52.25 57.55 Q51.6 57.95 51.15 58.85 L50.8 59.7 50.8 60.1 51.0 60.7 52.05 63.2 52.3 64.85 52.55 64.35 52.95 63.7 53.15 62.15 52.8 60.35 Q52.7 59.95 52.9 59.65 L53.2 58.9 54.3 62.15 54.55 62.65 54.9 62.6 Q55.55 62.05 55.75 61.2 L55.9 61.15 Q56.55 61.15 56.5 62.15 L56.55 63.25 56.7 64.15 Q56.75 65.4 56.25 66.05 L56.15 66.4 Q56.05 67.35 56.35 67.65 L57.0 68.4 Q57.3 68.85 57.75 68.85 L58.25 69.05 58.7 69.25 58.9 69.35 59.15 69.4 Q59.0 67.9 59.55 67.25 L59.8 67.15 Q60.15 67.25 60.25 67.85 L60.45 68.15 61.85 68.8 63.1 69.0 Q63.25 69.75 63.7 70.05 L63.9 70.35 Q64.45 71.25 65.15 71.75 L65.55 72.05 65.9 72.3 66.2 72.5 66.5 72.65 Q66.8 72.9 66.7 73.6 L66.7 74.35 66.95 75.85 Q67.1 73.9 68.35 73.05 L68.55 73.0 68.8 73.2 69.15 74.35 Q69.45 75.5 70.0 75.7 L70.25 75.6 Q70.95 75.15 71.35 73.85 71.6 72.8 72.15 72.75 72.55 72.75 72.85 73.2 74.15 74.95 75.35 75.95 76.25 75.35 76.6 74.15 76.65 73.75 76.85 73.4 77.3 72.6 78.1 72.6 L78.4 71.8 Q78.85 70.9 79.5 70.85 L79.65 71.1 80.6 74.85 Q81.25 74.65 81.7 73.35 82.05 72.3 82.65 72.2 83.0 72.15 83.0 72.85 L83.15 73.8 83.3 74.65 83.5 75.6 83.55 76.1 Q83.7 77.15 83.45 78.15 83.3 78.75 83.6 79.1 L83.75 79.25 87.2 80.45 87.5 80.85 87.7 83.85 87.75 85.6 87.75 86.05 Q87.8 86.35 88.0 86.5 88.35 86.75 88.75 86.8 89.6 87.0 89.95 87.7 L90.0 88.1 Q90.05 89.85 89.45 91.2 L89.2 91.85 89.1 92.15 88.9 93.6 88.9 94.1 89.0 94.8 89.1 95.2 89.2 95.85 89.3 96.5 89.45 96.7 89.65 97.1 90.3 99.85 89.2 100.0 Q88.55 99.9 88.5 100.85 L88.5 101.1 88.6 104.35 87.0 104.7 Q86.35 104.85 85.9 105.5 L85.6 106.05 85.15 105.35 84.85 104.9 Q83.75 103.85 82.4 103.8 L81.75 103.8 Q81.4 103.85 81.35 104.05 80.85 105.3 80.45 104.85 L80.55 103.9 Q80.9 101.95 80.8 99.85 79.4 100.6 78.3 101.85 77.55 102.7 77.65 104.85 76.95 104.45 77.0 102.85 77.0 100.85 77.15 98.85 77.25 97.5 76.7 97.35 75.75 98.25 75.2 99.4 L74.2 102.35 73.95 103.3 Q73.2 101.65 71.8 100.1 L70.5 98.75 Q69.65 98.0 69.75 99.0 L70.0 99.85 Q70.05 102.55 71.1 103.85 70.4 103.85 69.8 103.5 L69.25 103.15 Q66.75 101.2 64.45 103.3 63.85 103.85 63.55 104.85 64.1 104.35 64.8 104.55 L65.15 104.7 65.7 105.0 66.7 105.4 Q67.5 105.5 67.65 106.35 L64.2 106.85 62.65 106.6 Q59.85 105.65 57.0 105.8 L55.75 106.05 55.25 106.25 Q51.75 107.25 48.85 104.3 L48.5 104.1 45.5 104.65 45.1 104.75 Q44.75 104.85 44.65 105.1 44.15 106.1 43.5 106.35 L44.05 104.8 Q44.1 104.35 44.3 104.0 44.9 102.45 44.45 101.85 L41.95 102.95 41.05 103.0 Q40.1 102.75 40.3 100.85 L40.45 99.9 Q41.0 97.8 41.0 95.35 L40.65 95.8 40.05 96.3 Q37.2 98.15 35.7 102.35 L35.55 101.5 35.35 100.75 Q35.1 98.85 34.4 97.4 L32.85 94.35 32.85 96.35 33.0 97.75 33.35 100.35 Q33.3 102.05 33.95 102.7 32.8 101.75 31.9 100.45 30.95 99.15 29.75 98.85 L30.35 100.85 Q31.0 102.9 31.0 105.35 L30.1 105.2 29.4 105.1 Q28.0 105.2 26.9 104.4 L26.05 103.65 Q25.3 102.7 23.8 102.8 20.55 103.1 17.55 102.2 L16.9 102.05 Q15.7 101.9 14.65 101.05 L14.15 100.65 Q13.75 100.35 13.4 100.3 L5.65 98.7 4.95 98.5 3.8 98.1 2.8 97.75 0.9 97.8 Q-1.15 98.25 -2.85 97.4 -4.4 96.7 -6.0 96.25 L-7.15 95.65 -8.55 94.55 -9.65 93.65 Q-11.55 92.35 -13.8 92.8 L-14.4 93.0 Q-15.25 93.55 -16.3 93.25 L-19.45 92.7 -26.0 92.35 -31.7 92.15 -31.95 92.1 -32.3 92.05 -33.5 91.85 -39.8 91.65 -40.7 91.5 -42.9 91.2 -44.45 90.9 -45.05 90.65 Q-46.35 89.8 -47.9 90.0 L-49.5 90.3 -49.85 90.2 -50.1 86.85 -50.7 87.0 -52.6 87.15 -52.8 86.8 -53.05 84.4 Q-53.1 83.85 -53.3 83.75 L-53.85 83.8 Q-55.2 84.5 -55.75 86.85 L-58.1 83.9 Q-58.45 87.5 -56.7 88.85 -58.5 88.9 -60.1 87.7 -61.2 86.9 -62.65 86.35 -63.3 86.1 -63.45 85.5 -63.95 84.1 -63.25 82.85 -64.1 82.05 -65.15 82.2 L-68.9 82.85 -68.6 82.35 -68.25 81.95 Q-66.8 81.0 -66.7 78.85 L-67.95 78.85 -68.55 79.05 -70.45 80.9 -71.05 81.3 Q-72.5 80.9 -72.65 78.35 L-73.25 78.5 -73.45 78.65 M-52.95 46.1 L-52.8 46.55 -52.85 46.25 -52.95 46.1" fill="url(#gradient5)" fill-rule="evenodd" stroke="none"/>
    <path d="M-74.65 37.4 L-74.5 36.0 -74.4 34.3 -74.25 33.0 -73.55 30.9 -73.4 30.3 -73.15 29.55 -71.45 25.8 -71.2 24.9 -71.15 24.8 -70.1 20.9 -69.95 20.35 -69.7 19.6 -69.3 17.9 -69.1 16.45 -69.05 15.85 -68.85 14.2 -68.35 11.6 -68.3 11.3 -68.15 10.55 -64.25 5.8 -63.75 4.75 Q-63.5 3.45 -62.9 2.9 L-62.5 2.2 -62.15 1.5 -61.75 0.75 -61.3 0.05 Q-61.0 -0.25 -60.8 -1.15 -59.95 -4.85 -57.6 -6.0 L-57.1 -6.4 Q-55.75 -7.8 -54.2 -8.3 L-53.6 -8.7 -53.25 -8.9 Q-52.4 -8.95 -51.6 -9.45 L-50.4 -10.55 -49.9 -11.3 Q-48.7 -13.25 -46.35 -20.6 L-46.35 -19.6 -46.2 -18.9 -45.15 -17.9 Q-44.25 -17.05 -43.85 -18.6 L-43.85 -17.1 -43.7 -16.3 Q-43.15 -15.25 -42.9 -14.1 L-42.55 -13.5 -41.45 -13.2 -40.1 -13.1 -39.2 -13.35 -38.45 -13.95 Q-37.15 -15.2 -36.95 -17.6 L-36.85 -12.1 Q-36.75 -9.5 -35.4 -9.1 L-35.3 -9.35 Q-34.25 -8.05 -34.35 -6.1 L-34.35 -5.1 Q-34.4 -4.05 -34.1 -3.15 L-34.0 -2.85 -33.8 -2.6 -33.5 -3.6 -32.75 -6.75 Q-32.45 -7.6 -32.3 -8.6 L-32.25 -9.6 Q-32.05 -9.4 -32.0 -8.6 L-31.6 -4.1 -31.5 -3.35 -31.45 -3.1 -31.45 -3.15 -30.15 -4.5 -29.95 -4.45 -29.7 -3.55 -29.65 -1.85 -29.85 -0.55 -29.9 -0.1 Q-28.65 -0.05 -28.0 -1.85 L-27.85 -2.1 Q-27.5 -2.75 -26.8 -2.85 L-26.75 -0.35 Q-26.75 0.1 -26.3 0.05 L-24.9 -0.15 -22.85 -0.65 Q-22.45 -0.05 -23.1 0.35 L-23.65 0.9 -24.5 2.7 -24.6 3.15 -24.6 3.4 Q-23.8 3.3 -23.4 4.3 L-23.15 4.65 Q-23.7 5.6 -24.6 6.35 L-25.05 6.6 -25.45 6.8 -25.55 7.15 Q-25.7 8.4 -25.1 9.25 L-24.7 9.85 -24.55 10.2 -24.6 10.9 -24.85 12.2 Q-25.1 13.45 -24.25 13.3 L-23.95 13.1 Q-23.4 12.5 -22.7 12.4 L-22.6 12.15 -22.65 11.65 -23.3 9.35 -23.5 8.15 Q-22.6 7.95 -21.95 8.7 L-21.6 9.1 -20.05 10.15 -19.95 9.9 -19.65 8.9 -19.5 8.45 -19.25 7.7 -18.95 7.45 -17.05 7.05 Q-16.65 8.6 -16.75 10.15 L-16.6 10.1 Q-15.9 9.65 -15.2 9.65 L-15.0 9.85 Q-14.7 10.35 -14.7 10.9 L-14.8 12.45 -14.7 12.7 -14.4 12.65 Q-13.6 12.15 -13.1 12.8 L-12.9 13.4 Q-12.8 15.15 -12.0 15.8 -11.6 16.1 -11.5 15.65 L-11.45 15.4 Q-11.0 14.55 -10.7 13.5 L-10.5 13.5 -9.5 14.25 -9.1 14.4 Q-8.85 13.3 -8.95 11.9 -9.0 11.5 -8.65 11.6 L-8.0 11.7 Q-6.7 11.85 -7.0 14.15 L-7.05 14.45 Q-7.15 14.9 -6.9 15.05 L-6.15 15.45 Q-5.45 15.7 -5.0 16.3 L-4.65 16.65 -4.25 16.65 Q-3.9 16.45 -4.0 15.95 L-4.35 14.6 -4.45 13.95 -4.05 13.75 -3.3 13.5 Q-2.45 13.45 -2.4 12.4 L-2.25 10.2 -2.05 10.0 Q-1.05 9.8 -0.45 11.05 L-0.3 11.65 Q-0.15 13.15 0.75 13.05 1.65 12.95 1.85 13.9 L2.05 14.4 2.1 14.65 2.05 15.9 Q1.85 17.0 2.25 17.65 L2.8 18.1 Q3.1 18.15 3.6 17.75 L5.25 17.85 5.3 18.15 Q5.3 19.0 5.7 19.4 L6.2 19.75 7.5 20.25 7.65 20.4 8.2 22.65 8.25 23.9 8.25 25.9 8.45 26.4 Q8.85 27.0 8.9 28.15 L8.55 28.6 8.2 29.0 Q7.4 30.1 7.1 31.6 6.6 29.1 5.45 27.9 5.3 28.15 5.3 28.65 5.2 29.65 5.65 30.35 L6.1 31.65 6.3 32.4 6.2 32.2 5.95 31.9 Q4.25 31.65 2.8 32.7 L2.5 32.9 2.8 33.65 3.0 34.1 Q3.45 35.15 3.15 36.9 L3.05 37.15 2.8 37.25 1.4 37.35 0.8 37.1 Q0.05 36.5 -0.65 36.4 -0.7 37.45 -0.35 37.85 L0.4 38.75 0.8 39.3 1.3 40.0 Q1.6 40.4 2.0 40.4 L-2.05 40.5 -4.25 40.45 Q-4.7 40.45 -4.7 40.9 L-4.4 41.6 -4.1 41.9 -3.2 43.35 -3.35 43.7 -3.45 44.4 -3.5 44.4 Q-4.25 44.85 -4.25 46.1 L-5.2 45.6 -5.5 45.25 Q-5.7 44.5 -6.3 44.6 L-6.15 47.1 Q-5.95 48.4 -6.6 48.9 -7.45 49.55 -8.5 49.45 L-9.9 49.25 Q-10.55 49.15 -10.4 50.35 L-10.3 50.75 -9.6 51.3 -9.25 51.55 -9.0 52.05 Q-8.85 52.65 -8.15 52.65 -6.75 52.7 -5.8 53.85 L-7.7 54.85 -8.95 54.95 Q-9.35 54.95 -9.65 55.55 L-9.4 57.35 -9.45 57.75 -11.6 58.3 Q-12.25 58.5 -12.75 58.95 L-13.65 59.05 -14.15 58.65 -14.35 58.3 Q-14.95 57.25 -15.7 56.8 L-15.85 56.55 Q-15.9 55.95 -16.3 56.1 L-16.8 57.85 -16.85 58.35 Q-16.85 59.45 -17.1 60.35 L-17.35 60.25 -18.05 58.6 -19.15 59.25 -19.3 59.45 -19.45 60.6 -19.5 61.0 -19.8 61.25 Q-21.35 60.25 -22.9 59.6 L-22.9 61.6 -22.9 61.85 -23.85 62.6 -23.95 62.85 -23.85 64.85 -23.85 65.55 -23.85 65.35 -24.0 65.05 -24.75 64.85 -26.2 64.75 Q-27.0 64.55 -26.8 63.35 L-26.6 63.0 Q-26.4 62.8 -26.35 62.1 L-26.4 59.85 -26.45 59.6 Q-26.55 59.0 -26.75 58.9 L-26.8 58.85 Q-27.3 58.75 -27.75 59.15 L-27.9 59.3 -28.1 59.25 Q-28.55 58.0 -29.15 57.1 L-29.15 58.6 -29.05 59.3 Q-28.65 61.15 -29.15 63.2 L-30.1 63.15 -30.25 63.15 Q-30.5 64.35 -30.05 65.3 -29.5 66.65 -29.65 68.35 -29.85 67.65 -30.4 67.65 L-32.45 67.5 -32.85 67.15 -33.05 65.6 -33.0 64.9 Q-32.75 63.75 -33.05 63.1 L-33.15 62.85 Q-33.45 61.0 -34.05 59.6 L-34.15 59.45 -35.75 59.6 -35.6 60.6 -35.5 60.85 -35.3 62.35 -35.35 62.8 Q-35.6 63.65 -36.4 64.5 -37.2 65.3 -37.95 64.85 L-37.6 65.85 -37.5 66.15 Q-37.2 67.5 -37.2 69.1 L-37.25 70.1 Q-37.3 70.5 -37.75 70.1 L-39.0 68.4 Q-39.85 67.1 -40.45 67.2 L-41.1 67.4 -41.1 67.35 -41.2 65.65 -41.25 65.4 -43.3 63.95 -43.5 63.6 -43.7 59.9 -43.8 59.45 Q-43.85 59.1 -44.2 58.85 L-45.4 58.95 -46.05 59.4 -46.4 58.4 Q-46.85 57.15 -47.65 57.15 L-47.7 57.9 Q-47.9 58.95 -48.35 59.85 L-48.5 59.55 -48.7 58.9 -48.8 57.9 -48.9 57.65 Q-50.05 57.6 -50.6 56.4 L-50.75 56.15 -51.85 54.15 Q-52.45 53.15 -51.85 52.5 L-51.45 52.1 -50.45 50.9 -50.4 50.65 -50.6 49.6 Q-51.0 48.55 -51.55 48.15 -51.35 47.65 -51.4 46.65 L-51.45 46.2 Q-51.75 45.0 -52.5 45.55 L-52.95 46.1 -53.35 44.4 Q-53.55 43.25 -54.05 43.15 L-54.2 43.45 -54.3 44.15 -54.35 44.8 Q-55.15 44.2 -56.1 43.85 L-56.55 43.75 Q-56.9 43.7 -56.95 43.15 L-56.95 42.7 -56.8 41.65 -56.65 40.95 Q-56.35 40.0 -56.55 39.15 L-56.85 39.2 -57.5 39.6 -58.4 40.35 -58.3 40.1 -58.0 39.25 Q-57.35 37.55 -57.15 35.65 -57.0 34.3 -57.6 33.55 -58.75 34.2 -58.85 36.15 L-58.9 36.9 -59.0 36.4 Q-59.6 33.8 -61.1 32.65 L-61.0 34.4 -61.0 34.65 Q-61.05 35.35 -60.65 35.65 -60.5 36.9 -61.4 36.65 -62.1 36.4 -62.35 36.9 L-62.25 37.35 -62.1 38.2 -61.7 39.4 -62.0 39.65 Q-62.95 40.35 -64.05 40.15 -63.8 39.15 -63.9 37.9 -64.0 37.15 -64.45 37.3 L-65.75 34.6 -66.15 34.05 -66.35 34.0 Q-66.8 36.0 -66.85 38.15 L-67.55 37.45 -67.85 37.0 -68.05 36.45 -68.3 36.05 Q-68.6 35.9 -68.7 36.2 -69.05 37.15 -68.95 38.4 L-69.7 36.4 -72.35 39.65 Q-72.45 38.7 -72.2 37.9 -71.9 36.85 -71.9 35.65 -72.95 35.7 -73.75 36.65 L-74.65 37.4" fill="url(#gradient6)" fill-rule="evenodd" stroke="none"/>
    <path d="M-73.45 78.65 L-73.25 78.5 -72.65 78.35 Q-72.5 80.9 -71.05 81.3 L-70.45 80.9 -68.55 79.05 -67.95 78.85 -66.7 78.85 Q-66.8 81.0 -68.25 81.95 L-68.6 82.35 -68.9 82.85 -65.15 82.2 Q-64.1 82.05 -63.25 82.85 -63.95 84.1 -63.45 85.5 -63.3 86.1 -62.65 86.35 -61.2 86.9 -60.1 87.7 -58.5 88.9 -56.7 88.85 -58.45 87.5 -58.1 83.9 L-55.75 86.85 Q-55.2 84.5 -53.85 83.8 L-53.3 83.75 Q-53.1 83.85 -53.05 84.4 L-52.8 86.8 -52.6 87.15 -50.7 87.0 -50.1 86.85 -49.85 90.2 -49.5 90.3 -47.9 90.0 Q-46.35 89.8 -45.05 90.65 L-44.45 90.9 -42.9 91.2 -40.7 91.5 -39.8 91.65 -33.5 91.85 -32.3 92.05 -31.95 92.1 -31.7 92.15 -26.0 92.35 -19.45 92.7 -16.3 93.25 Q-15.25 93.55 -14.4 93.0 L-13.8 92.8 Q-11.55 92.35 -9.65 93.65 L-8.55 94.55 -7.15 95.65 -6.0 96.25 Q-4.4 96.7 -2.85 97.4 -1.15 98.25 0.9 97.8 L2.8 97.75 3.8 98.1 4.95 98.5 5.65 98.7 13.4 100.3 Q13.75 100.35 14.15 100.65 L14.65 101.05 Q15.7 101.9 16.9 102.05 L17.55 102.2 Q20.55 103.1 23.8 102.8 25.3 102.7 26.05 103.65 L26.9 104.4 Q28.0 105.2 29.4 105.1 L30.1 105.2 31.0 105.35 Q31.0 102.9 30.35 100.85 L29.75 98.85 Q30.95 99.15 31.9 100.45 32.8 101.75 33.95 102.7 33.3 102.05 33.35 100.35 L33.0 97.75 32.85 96.35 32.85 94.35 34.4 97.4 Q35.1 98.85 35.35 100.75 L35.55 101.5 35.7 102.35 Q37.2 98.15 40.05 96.3 L40.65 95.8 41.0 95.35 Q41.0 97.8 40.45 99.9 L40.3 100.85 Q40.1 102.75 41.05 103.0 L41.95 102.95 44.45 101.85 Q44.9 102.45 44.3 104.0 44.1 104.35 44.05 104.8 L43.5 106.35 Q44.15 106.1 44.65 105.1 44.75 104.85 45.1 104.75 L45.5 104.65 48.5 104.1 48.85 104.3 Q51.75 107.25 55.25 106.25 L55.75 106.05 57.0 105.8 Q59.85 105.65 62.65 106.6 L64.2 106.85 67.65 106.35 Q67.5 105.5 66.7 105.4 L65.7 105.0 65.15 104.7 64.8 104.55 Q64.1 104.35 63.55 104.85 63.85 103.85 64.45 103.3 66.75 101.2 69.25 103.15 L69.8 103.5 Q70.4 103.85 71.1 103.85 70.05 102.55 70.0 99.85 L69.75 99.0 Q69.65 98.0 70.5 98.75 L71.8 100.1 Q73.2 101.65 73.95 103.3 L74.2 102.35 75.2 99.4 Q75.75 98.25 76.7 97.35 77.25 97.5 77.15 98.85 77.0 100.85 77.0 102.85 76.95 104.45 77.65 104.85 77.55 102.7 78.3 101.85 79.4 100.6 80.8 99.85 80.9 101.95 80.55 103.9 L80.45 104.85 Q80.85 105.3 81.35 104.05 81.4 103.85 81.75 103.8 L82.4 103.8 Q83.75 103.85 84.85 104.9 L85.15 105.35 85.6 106.05 85.9 105.5 Q86.35 104.85 87.0 104.7 L88.6 104.35 Q91.25 103.9 93.9 104.75 L94.5 105.0 94.9 105.15 Q96.5 105.8 97.95 106.55 L101.1 103.75 101.45 103.4 Q102.2 102.5 103.3 102.55 L104.25 102.4 110.25 102.15 111.45 102.4 114.6 103.1 115.85 103.45 Q118.65 103.95 121.2 105.2 L121.8 105.35 122.4 105.35 Q121.6 104.5 121.55 103.35 L121.4 102.4 121.3 101.85 121.5 101.35 Q122.3 101.25 122.8 101.65 L123.35 101.85 Q124.05 101.85 124.6 102.35 L124.25 101.4 122.4 97.35 Q122.85 96.6 123.9 97.55 L124.65 98.3 127.1 101.35 128.5 96.7 128.8 95.4 Q128.85 95.1 129.05 94.95 129.85 95.0 129.7 96.35 129.65 97.3 130.1 98.05 L130.8 99.9 131.05 100.5 Q131.35 100.85 131.8 100.7 L132.8 99.9 Q133.45 99.05 134.3 98.35 134.9 99.15 134.65 101.35 134.4 103.45 135.9 103.2 L137.15 103.4 141.5 103.3 Q142.85 102.55 144.3 102.2 L144.95 101.9 Q147.5 100.15 150.35 101.15 L151.5 101.6 153.8 102.6 158.1 104.35 157.1 102.95 Q156.45 101.85 155.7 101.45 L155.25 100.95 Q154.15 99.25 153.75 97.85 154.1 96.95 155.1 98.05 L156.2 99.0 157.2 99.85 Q157.6 99.2 157.0 97.75 156.0 95.55 155.55 93.9 L155.3 93.35 Q156.25 93.3 156.75 94.7 157.0 95.6 157.55 96.2 L158.7 97.45 Q159.9 98.6 160.3 99.85 161.3 94.7 164.4 92.85 163.9 96.85 163.8 101.15 L164.15 100.45 Q164.7 99.4 165.95 98.85 166.15 100.6 165.7 101.9 166.4 103.1 167.15 102.65 L167.2 102.65 169.4 101.45 Q170.05 100.9 170.85 100.65 L173.65 99.15" fill="none" stroke="#8aa76c" stroke-linecap="round" stroke-linejoin="round" stroke-width="1.0"/>
    <path d="M-142.65 129.55 Q-142.65 123.35 -108.5 118.9 -74.35 114.55 -26.1 114.55 14.75 114.55 45.45 117.65 L56.3 118.9 Q90.45 123.35 90.45 129.55 90.45 135.75 56.3 140.1 L45.45 141.35 Q14.75 144.55 -26.1 144.55 -74.35 144.55 -108.5 140.1 -142.65 135.75 -142.65 129.55" fill="url(#gradient7)" fill-rule="evenodd" stroke="none"/>
    <path d="M-139.5 159.85 Q-139.5 155.6 -122.4 152.55 -105.35 149.55 -81.25 149.6 -57.1 149.55 -40.0 152.55 -22.95 155.6 -22.95 159.85 -22.95 164.05 -40.0 167.05 -57.1 170.1 -81.25 170.1 -105.35 170.1 -122.4 167.05 -139.5 164.05 -139.5 159.85" fill="url(#gradient8)" fill-rule="evenodd" stroke="none"/>
    <path d="M64.3 162.05 Q47.25 159.05 47.25 154.85 47.25 150.6 64.3 147.55 81.35 144.55 105.5 144.6 129.65 144.55 146.7 147.55 163.8 150.6 163.8 154.85 163.8 159.05 146.7 162.05 129.65 165.1 105.5 165.1 81.35 165.1 64.3 162.05" fill="url(#gradient9)" fill-rule="evenodd" stroke="none"/>
    <path d="M-36.8 16.0 Q-35.85 15.7 -35.35 14.95 L-35.2 14.45 Q-34.9 13.05 -34.0 13.35 -32.85 13.75 -32.3 15.15 -32.0 15.95 -31.95 16.9 -31.55 16.95 -31.35 16.25 L-30.85 15.15 Q-30.1 13.95 -29.1 13.25 L-28.85 13.1 Q-28.25 12.9 -28.1 13.6 L-27.9 13.95 Q-27.3 14.95 -27.0 16.2 L-26.55 17.0 -26.2 17.05 -25.55 16.6 Q-24.7 15.75 -23.95 16.6 L-22.6 18.3 -22.55 18.65 Q-22.45 19.6 -21.95 19.8 L-21.45 20.05 -20.6 21.0 -20.5 21.4 -20.4 24.9 -20.3 25.3 -20.1 25.7 Q-19.9 26.1 -19.85 26.65 L-19.8 26.9 -19.7 28.4 Q-19.6 29.2 -19.8 29.5 L-19.9 29.9 Q-20.0 31.3 -19.45 31.9 L-71.15 24.9 -71.15 24.8 -70.1 20.9 -69.95 20.35 -69.7 19.6 -69.3 17.9 -69.1 16.45 -69.05 15.85 -68.85 14.2 Q-68.35 14.25 -68.25 13.65 L-67.7 12.35 Q-67.3 11.85 -66.9 11.8 L-66.55 11.8 Q-66.15 11.85 -65.9 12.1 -65.15 12.85 -64.6 11.8 L-64.45 11.45 -64.25 10.85 -63.95 9.95 -63.75 9.4 Q-63.35 8.8 -62.8 8.9 -62.45 8.9 -62.2 9.45 L-61.55 10.9 -61.5 10.15 -61.3 8.4 -60.6 5.4 Q-60.4 4.7 -59.95 4.55 -59.25 5.35 -59.15 6.4 -59.05 7.4 -58.6 8.2 L-58.4 8.6 -58.1 9.15 Q-57.5 7.45 -57.4 5.4 L-57.35 5.15 -57.35 4.9 -57.25 4.95 Q-56.05 5.4 -55.65 7.35 L-55.5 7.95 -55.15 8.65 -55.0 8.9 Q-54.75 9.7 -54.4 8.85 L-54.15 8.2 Q-53.75 6.95 -53.4 7.85 L-53.05 8.3 Q-52.7 8.65 -52.5 9.3 L-52.0 8.65 -50.9 6.4 -50.75 6.15 Q-50.15 5.1 -49.4 5.45 L-49.1 5.85 Q-48.45 7.45 -48.7 9.65 L-48.25 9.15 -47.95 11.4 Q-47.85 12.1 -48.0 12.7 L-48.1 13.4 -48.1 14.65 -47.0 14.15 -46.25 13.55 Q-46.1 13.4 -46.1 13.15 L-46.0 12.15 Q-45.85 11.2 -45.45 11.25 L-45.1 11.35 -42.95 11.25 -42.65 10.85 -42.35 11.2 Q-42.05 11.8 -42.05 12.65 -42.05 13.2 -42.4 13.45 L-42.55 13.65 Q-42.65 14.4 -43.0 14.8 L-43.2 15.4 Q-43.35 16.85 -42.75 17.65 L-42.25 18.2 -41.65 18.35 -40.05 18.55 -39.65 18.7 -38.7 18.7 Q-38.2 18.65 -37.75 18.95 L-37.45 19.15 Q-37.15 19.0 -37.2 18.15 L-37.15 16.65 -37.05 16.25 -36.8 16.0" fill="url(#gradient10)" fill-rule="evenodd" stroke="none"/>
  </g>
  <defs>
    <linearGradient gradientTransform="matrix(0.0, -0.0674, 0.128, 0.0, 69.6, -22.0)" gradientUnits="userSpaceOnUse" id="gradient0" spreadMethod="pad" x1="-819.2" x2="819.2">
      <stop offset="0.0" stop-color="#a0c6f3" stop-opacity="0.0"/>
      <stop offset="0.3686274509803922" stop-color="#a0c6f3"/>
      <stop offset="0.8274509803921568" stop-color="#9d8cc1"/>
    </linearGradient>
    <linearGradient gradientTransform="matrix(0.0, -0.0826, 0.0773, 0.0, 74.3, 32.15)" gradientUnits="userSpaceOnUse" id="gradient1" spreadMethod="pad" x1="-819.2" x2="819.2">
      <stop offset="0.1450980392156863" stop-color="#e3f968"/>
      <stop offset="0.796078431372549" stop-color="#ffccff"/>
    </linearGradient>
    <linearGradient gradientTransform="matrix(0.0, 0.0547, -0.0365, 0.0, 144.6, 56.65)" gradientUnits="userSpaceOnUse" id="gradient2" spreadMethod="pad" x1="-819.2" x2="819.2">
      <stop offset="0.1450980392156863" stop-color="#c4eb9c"/>
      <stop offset="0.796078431372549" stop-color="#91c6a5"/>
    </linearGradient>
    <linearGradient gradientTransform="matrix(0.0, -0.0266, 0.0494, 0.0, 128.95, 84.75)" gradientUnits="userSpaceOnUse" id="gradient3" spreadMethod="pad" x1="-819.2" x2="819.2">
      <stop offset="0.23137254901960785" stop-color="#c1dfaf"/>
      <stop offset="0.7843137254901961" stop-color="#a0c6f3"/>
    </linearGradient>
    <linearGradient gradientTransform="matrix(0.0, 0.0725, -0.1945, 0.0, 14.35, 116.05)" gradientUnits="userSpaceOnUse" id="gradient4" spreadMethod="pad" x1="-819.2" x2="819.2">
      <stop offset="0.35294117647058826" stop-color="#f0e066"/>
      <stop offset="0.7019607843137254" stop-color="#cfca55"/>
      <stop offset="0.8823529411764706" stop-color="#b2be5e"/>
    </linearGradient>
    <linearGradient gradientTransform="matrix(0.0, -0.0347, 0.1007, 0.0, 7.8, 64.25)" gradientUnits="userSpaceOnUse" id="gradient5" spreadMethod="pad" x1="-819.2" x2="819.2">
      <stop offset="0.1450980392156863" stop-color="#c4eb9c"/>
      <stop offset="0.796078431372549" stop-color="#91c6a5"/>
    </linearGradient>
    <linearGradient gradientTransform="matrix(0.0, 0.0555, -0.051, 0.0, -32.85, 24.85)" gradientUnits="userSpaceOnUse" id="gradient6" spreadMethod="pad" x1="-819.2" x2="819.2">
      <stop offset="0.1450980392156863" stop-color="#b89db6"/>
      <stop offset="0.6549019607843137" stop-color="#f3b2c5" stop-opacity="0.5019608"/>
      <stop offset="0.9294117647058824" stop-color="#fdd1f8" stop-opacity="0.0"/>
    </linearGradient>
    <radialGradient cx="0" cy="0" gradientTransform="matrix(0.0, 0.0183, -0.1436, -1.0E-4, -26.1, 129.55)" gradientUnits="userSpaceOnUse" id="gradient7" r="819.2" spreadMethod="pad">
      <stop offset="0.23137254901960785" stop-color="#85a844" stop-opacity="0.7529412"/>
      <stop offset="0.7843137254901961" stop-color="#85a844" stop-opacity="0.0"/>
    </radialGradient>
    <radialGradient cx="0" cy="0" gradientTransform="matrix(0.0, 0.0125, -0.0718, -1.0E-4, -81.25, 159.8)" gradientUnits="userSpaceOnUse" id="gradient8" r="819.2" spreadMethod="pad">
      <stop offset="0.23137254901960785" stop-color="#85a844" stop-opacity="0.7529412"/>
      <stop offset="0.7843137254901961" stop-color="#85a844" stop-opacity="0.0"/>
    </radialGradient>
    <radialGradient cx="0" cy="0" gradientTransform="matrix(0.0, 0.0125, -0.0718, -1.0E-4, 105.5, 154.8)" gradientUnits="userSpaceOnUse" id="gradient9" r="819.2" spreadMethod="pad">
      <stop offset="0.23137254901960785" stop-color="#85a844" stop-opacity="0.7529412"/>
      <stop offset="0.7843137254901961" stop-color="#85a844" stop-opacity="0.0"/>
    </radialGradient>
    <linearGradient gradientTransform="matrix(0.0015, -0.0149, 0.0312, 0.0079, -44.35, 19.2)" gradientUnits="userSpaceOnUse" id="gradient10" spreadMethod="pad" x1="-819.2" x2="819.2">
      <stop offset="0.12156862745098039" stop-color="#a0c6f3" stop-opacity="0.0"/>
      <stop offset="0.6862745098039216" stop-color="#a0c6f3"/>
    </linearGradient>
  </defs>
</svg>
