<?xml version="1.0" encoding="UTF-8" standalone="no"?>
<svg xmlns:ffdec="https://www.free-decompiler.com/flash" xmlns:xlink="http://www.w3.org/1999/xlink" ffdec:objectType="shape" height="252.0px" width="252.0px" xmlns="http://www.w3.org/2000/svg">
  <g transform="matrix(1.0, 0.0, 0.0, 1.0, 126.0, 126.0)">
    <path d="M0.0 -125.0 L0.0 -93.75 0.0 -62.5 Q-25.9 -62.5 -44.2 -44.2 -62.5 -25.9 -62.5 0.0 L-93.75 0.0 Q-93.75 -38.8 -66.3 -66.3 -38.8 -93.75 0.0 -93.75 -38.8 -93.75 -66.3 -66.3 -93.75 -38.8 -93.75 0.0 L-62.5 0.0 Q-62.5 -25.9 -44.2 -44.2 -25.9 -62.5 0.0 -62.5 L0.0 -93.75 0.0 -125.0 Q51.75 -125.0 88.4 -88.4 125.0 -51.75 125.0 0.0 125.0 51.75 88.4 88.35 51.75 125.0 0.0 125.0 -51.75 125.0 -88.4 88.35 -125.0 51.75 -125.0 0.0 -125.0 -51.75 -88.4 -88.4 -51.75 -125.0 0.0 -125.0 M0.0 -31.25 Q12.95 -31.25 22.1 -22.1 31.25 -12.95 31.25 0.0 L0.0 0.0 0.0 -31.25 Q-12.95 -31.25 -22.1 -22.1 -31.25 -12.95 -31.25 0.0 L-62.5 0.0 Q-62.5 25.9 -44.2 44.2 -25.9 62.5 0.0 62.5 L0.0 93.75 Q-38.8 93.75 -66.3 66.3 -93.75 38.8 -93.75 0.0 L-125.0 0.0 -93.75 0.0 Q-93.75 38.8 -66.3 66.3 -38.8 93.75 0.0 93.75 L0.0 62.5 Q-25.9 62.5 -44.2 44.2 -62.5 25.9 -62.5 0.0 L-31.25 0.0 Q-31.25 -12.95 -22.1 -22.1 -12.95 -31.25 0.0 -31.25 L0.0 -62.5 Q25.9 -62.5 44.2 -44.2 62.5 -25.9 62.5 0.0 L93.75 0.0 Q93.75 -38.8 66.3 -66.3 38.8 -93.75 0.0 -93.75 38.8 -93.75 66.3 -66.3 93.75 -38.8 93.75 0.0 L62.5 0.0 Q62.5 -25.9 44.2 -44.2 25.9 -62.5 0.0 -62.5 L0.0 -31.25 0.0 0.0 31.25 0.0 Q31.25 -12.95 22.1 -22.1 12.95 -31.25 0.0 -31.25 M0.0 0.0 L0.0 31.25 Q-12.95 31.25 -22.1 22.1 -31.25 12.95 -31.25 0.0 L0.0 0.0 -31.25 0.0 Q-31.25 12.95 -22.1 22.1 -12.95 31.25 0.0 31.25 L0.0 0.0 M62.5 0.0 Q62.5 25.9 44.2 44.2 25.9 62.5 0.0 62.5 L0.0 31.25 Q12.95 31.25 22.1 22.1 31.25 12.95 31.25 0.0 L62.5 0.0 31.25 0.0 Q31.25 12.95 22.1 22.1 12.95 31.25 0.0 31.25 L0.0 62.5 Q25.9 62.5 44.2 44.2 62.5 25.9 62.5 0.0 M0.0 125.0 L0.0 93.75 Q38.8 93.75 66.3 66.3 93.75 38.8 93.75 0.0 L125.0 0.0 93.75 0.0 Q93.75 38.8 66.3 66.3 38.8 93.75 0.0 93.75 L0.0 125.0" fill="#000000" fill-rule="evenodd" stroke="none"/>
    <path d="M0.0 -93.75 Q-38.8 -93.75 -66.3 -66.3 -93.75 -38.8 -93.75 0.0 L-62.5 0.0 Q-62.5 -25.9 -44.2 -44.2 -25.9 -62.5 0.0 -62.5 L0.0 -93.75 0.0 -125.0 M-125.0 0.0 L-93.75 0.0 Q-93.75 38.8 -66.3 66.3 -38.8 93.75 0.0 93.75 L0.0 62.5 Q-25.9 62.5 -44.2 44.2 -62.5 25.9 -62.5 0.0 L-31.25 0.0 Q-31.25 -12.95 -22.1 -22.1 -12.95 -31.25 0.0 -31.25 L0.0 -62.5 Q25.9 -62.5 44.2 -44.2 62.5 -25.9 62.5 0.0 L93.75 0.0 Q93.75 -38.8 66.3 -66.3 38.8 -93.75 0.0 -93.75 M0.0 -31.25 L0.0 0.0 31.25 0.0 Q31.25 -12.95 22.1 -22.1 12.95 -31.25 0.0 -31.25 M125.0 0.0 L93.75 0.0 Q93.75 38.8 66.3 66.3 38.8 93.75 0.0 93.75 L0.0 125.0 M62.5 0.0 L31.25 0.0 Q31.25 12.95 22.1 22.1 12.95 31.25 0.0 31.25 L0.0 62.5 Q25.9 62.5 44.2 44.2 62.5 25.9 62.5 0.0 M0.0 0.0 L-31.25 0.0 Q-31.25 12.95 -22.1 22.1 -12.95 31.25 0.0 31.25 L0.0 0.0 Z" fill="none" stroke="#006600" stroke-linecap="round" stroke-linejoin="round" stroke-width="2.0"/>
  </g>
</svg>
