<?xml version="1.0" encoding="UTF-8" standalone="no"?>
<svg xmlns:ffdec="https://www.free-decompiler.com/flash" xmlns:xlink="http://www.w3.org/1999/xlink" ffdec:objectType="shape" height="49.5px" width="41.0px" xmlns="http://www.w3.org/2000/svg">
  <g transform="matrix(1.0, 0.0, 0.0, 1.0, 20.5, 24.75)">
    <path d="M7.25 12.25 L7.25 12.3 7.25 19.1 -7.35 19.1 -7.35 12.3 -7.35 12.25 7.25 12.25" fill="url(#gradient0)" fill-rule="evenodd" stroke="none"/>
    <path d="M15.2 19.1 L15.2 24.25 7.25 24.25 7.25 19.1 15.2 19.1 M-7.35 19.1 L-7.35 24.25 -15.3 24.25 -15.3 19.1 -7.35 19.1" fill="#283040" fill-rule="evenodd" stroke="none"/>
    <path d="M7.25 12.3 L15.2 12.3 15.2 19.1 7.25 19.1 7.25 12.3 M-15.3 19.1 L-15.3 12.3 -7.35 12.3 -7.35 19.1 -15.3 19.1" fill="#404838" fill-rule="evenodd" stroke="none"/>
    <path d="M-7.7 12.2 L-15.3 12.2 Q-24.7 -6.4 -15.3 -24.25 L15.35 -24.25 Q24.7 -6.4 15.35 12.2 L6.9 12.2 -7.7 12.2" fill="#202010" fill-rule="evenodd" stroke="none"/>
    <path d="M-7.7 12.2 L-15.3 12.2 Q-24.7 -6.4 -15.3 -24.25 L15.35 -24.25 Q24.7 -6.4 15.35 12.2 L6.9 12.2 M7.25 12.3 L15.2 12.3 15.2 19.1 15.2 24.25 7.25 24.25 7.25 19.1 7.25 12.3 M-7.35 19.1 L-7.35 24.25 -15.3 24.25 -15.3 19.1 -15.3 12.3 -7.35 12.3 -7.35 19.1 M-7.35 12.25 L7.25 12.25" fill="none" stroke="#000000" stroke-linecap="round" stroke-linejoin="round" stroke-width="1.0"/>
    <path d="M7.25 19.1 L-7.35 19.1 -15.3 19.1 M7.25 19.1 L15.2 19.1" fill="none" stroke="#000000" stroke-linecap="round" stroke-linejoin="round" stroke-width="1.0"/>
  </g>
  <defs>
    <linearGradient gradientTransform="matrix(0.0, 0.0042, -0.0089, 0.0, -0.05, 15.65)" gradientUnits="userSpaceOnUse" id="gradient0" spreadMethod="pad" x1="-819.2" x2="819.2">
      <stop offset="0.41568627450980394" stop-color="#404030"/>
      <stop offset="0.42745098039215684" stop-color="#202010"/>
    </linearGradient>
  </defs>
</svg>
