<?xml version="1.0" encoding="UTF-8" standalone="no"?>
<svg xmlns:ffdec="https://www.free-decompiler.com/flash" xmlns:xlink="http://www.w3.org/1999/xlink" ffdec:objectType="shape" height="350.0px" width="300.0px" xmlns="http://www.w3.org/2000/svg">
  <g transform="matrix(1.0, 0.0, 0.0, 1.0, 0.0, 0.0)">
    <path d="M275.0 175.0 Q275.0 158.75 271.4 144.0 263.5 111.75 238.4 86.6 201.75 50.0 150.0 50.0 98.25 50.0 61.6 86.6 L55.0 93.7 Q25.0 128.15 25.0 175.0 25.0 226.75 61.6 263.35 98.25 300.0 150.0 300.0 201.75 300.0 238.4 263.35 275.0 226.75 275.0 175.0 M300.0 350.0 L0.0 350.0 0.0 0.0 300.0 0.0 300.0 350.0" fill="#000000" fill-rule="evenodd" stroke="none"/>
    <path d="M275.0 175.0 Q275.0 226.75 238.4 263.35 201.75 300.0 150.0 300.0 98.25 300.0 61.6 263.35 25.0 226.75 25.0 175.0 25.0 128.15 55.0 93.7 L61.6 86.6 Q98.25 50.0 150.0 50.0 201.75 50.0 238.4 86.6 263.5 111.75 271.4 144.0 275.0 158.75 275.0 175.0 Z" fill="none" stroke="#006600" stroke-linecap="round" stroke-linejoin="round" stroke-width="2.0"/>
  </g>
</svg>
