<?xml version="1.0" encoding="UTF-8" standalone="no"?>
<svg xmlns:ffdec="https://www.free-decompiler.com/flash" xmlns:xlink="http://www.w3.org/1999/xlink" ffdec:objectType="shape" height="204.55px" width="325.2px" xmlns="http://www.w3.org/2000/svg">
  <g transform="matrix(1.0, 0.0, 0.0, 1.0, 162.35, 102.25)">
    <path d="M-145.6 -52.45 L-145.85 -36.75 M-118.85 36.3 Q-101.1 32.4 -82.85 30.05 -49.3 25.65 -14.05 26.3" fill="none" stroke="#666666" stroke-linecap="round" stroke-linejoin="round" stroke-width="1.0"/>
    <path d="M146.35 -58.95 L146.95 -58.9 Q148.95 -57.75 151.05 -57.35 L152.3 -58.9 Q152.6 -59.25 153.3 -59.2 L155.55 -58.75 156.05 -58.7 156.6 -58.6 156.6 -8.25 155.15 -9.15 156.55 -8.25 156.55 7.7 Q155.5 8.05 154.7 8.8 L154.15 9.15 Q153.85 9.3 153.8 9.4 L153.45 10.55 Q153.25 10.2 152.45 10.1 L152.15 9.95 Q151.8 8.95 152.2 8.05 L152.25 7.6 Q152.0 6.5 150.7 6.75 L150.3 6.9 Q149.75 7.4 149.6 8.55 149.6 8.95 149.4 8.95 148.5 9.15 148.15 8.3 L147.85 7.9 146.95 7.25 Q146.1 6.55 144.7 7.05 L144.5 8.8 144.25 8.75 Q142.25 8.25 140.25 8.8 140.15 9.75 141.0 9.95 142.5 10.35 143.7 11.6 L143.9 12.05 Q143.95 13.05 143.0 13.2 142.35 13.25 142.25 13.8 142.05 14.8 142.5 16.3 L140.5 16.8 Q138.85 17.1 138.55 15.8 138.5 15.55 138.6 15.5 140.1 14.95 140.75 13.55 L137.5 13.8 137.4 13.05 137.35 12.8 137.15 12.4 135.55 10.75 Q135.25 10.45 134.75 10.3 134.05 10.1 134.05 9.3 L134.15 8.5 134.4 7.75 135.35 5.6 Q135.9 4.35 134.75 4.3 L134.2 4.5 131.75 6.55 131.75 6.05 131.65 5.6 131.0 3.55 130.75 3.75 130.1 4.15 129.65 4.45 Q129.2 4.75 129.05 5.55 L128.6 6.85 128.35 7.55 Q128.25 8.3 127.5 8.35 126.25 8.45 125.75 7.8 125.25 7.3 125.25 6.8 125.25 6.05 125.55 5.6 L125.65 4.8 125.55 3.55 Q125.5 2.5 124.75 2.05 L124.15 2.3 Q124.15 0.75 123.3 -0.55 121.85 -0.3 120.8 0.85 L120.5 1.3 119.95 2.25 Q119.75 2.55 119.25 2.45 L119.0 2.3 118.2 1.05 117.95 0.75 116.45 0.95 Q115.9 1.25 115.9 1.8 L115.9 2.3 Q115.9 3.45 114.75 3.2 L114.5 3.15 Q113.55 3.1 113.7 2.05 L113.65 1.65 Q113.4 1.3 113.45 0.8 113.6 -0.2 113.2 -0.65 L112.85 -1.05 112.65 -1.25 Q111.85 -1.6 111.8 -0.95 L111.7 -0.45 111.55 -0.2 Q111.0 0.75 110.5 0.05 L110.25 -0.2 Q109.4 -0.95 108.8 -1.95 108.4 -2.6 107.25 -2.7 L106.95 -0.2 Q106.85 0.75 107.5 1.1 L107.65 1.3 107.7 3.05 Q107.65 4.8 106.25 4.05 L105.75 3.9 103.25 3.7 Q102.75 3.65 102.65 4.05 102.4 5.65 103.5 5.75 L104.2 5.9 105.05 6.1 Q105.9 6.25 105.8 7.3 L105.65 7.6 104.45 7.55 104.25 7.35 103.85 6.95 102.7 7.0 102.0 7.15 Q101.2 7.15 101.0 7.55 L100.45 8.2 100.2 8.4 Q99.75 9.05 98.75 8.75 L98.25 8.6 97.95 8.65 97.25 10.55 96.75 11.25 96.05 11.65 Q95.25 12.2 94.95 11.55 L94.75 11.35 94.4 10.8 Q94.65 9.75 93.75 9.85 92.15 10.0 92.45 11.55 92.65 12.8 92.0 13.8 L91.7 14.1 89.5 14.3 89.05 14.4 Q88.15 14.8 88.25 16.3 L85.75 15.7 85.0 15.65 Q83.6 15.6 82.5 16.3 L82.55 16.55 82.85 17.35 83.35 18.25 83.7 18.35 Q85.2 17.9 85.75 19.05 L85.95 19.55 Q86.2 20.35 85.75 20.55 L85.25 20.8 Q84.4 21.15 84.1 21.85 L84.1 22.1 Q85.15 22.75 86.5 22.7 L89.0 23.05 88.0 24.3 Q87.45 25.15 86.75 25.05 L84.8 25.85 84.6 26.05 Q84.4 27.45 85.0 28.3 L83.75 28.7 82.25 28.9 81.75 28.95 81.5 28.85 Q80.25 28.1 80.05 29.55 L80.15 30.2 80.65 31.1 80.65 31.45 Q79.95 32.15 78.5 32.15 77.45 32.2 77.0 31.75 L76.65 31.35 Q76.2 30.8 76.2 29.8 L76.3 29.45 Q77.2 28.8 77.65 27.65 L77.2 27.55 Q74.95 27.45 74.2 28.8 L72.95 30.05 Q72.6 29.8 72.6 29.3 L72.6 29.05 Q72.75 27.95 71.9 27.6 L70.95 27.5 Q70.1 27.6 69.7 28.3 69.1 29.55 69.3 31.05 L69.35 31.3 69.35 31.55 Q69.35 32.15 68.9 32.45 68.1 33.0 66.95 32.85 L66.05 32.6 Q64.95 32.0 63.7 31.85 L63.25 31.7 62.7 31.55 Q61.4 31.5 61.45 33.05 L60.95 32.85 58.95 32.55 Q58.75 35.8 59.45 38.8 L58.95 38.8 58.35 38.6 Q57.05 37.45 55.5 38.6 L55.1 39.1 Q54.95 39.45 55.05 39.75 55.35 40.7 55.95 41.55 L56.15 41.85 Q56.45 42.8 55.7 42.8 L55.25 42.7 53.0 42.65 Q52.7 42.8 52.65 43.1 52.5 43.8 52.95 44.4 54.3 44.4 55.4 45.1 56.8 45.95 55.65 47.25 55.1 47.9 54.5 47.25 53.7 46.35 52.7 47.0 L52.4 47.35 Q52.1 48.45 52.4 49.55 52.65 50.5 51.7 50.2 L51.45 50.15 50.75 49.9 50.15 49.75 49.7 49.75 Q49.05 50.0 48.75 49.75 48.2 49.3 47.2 49.3 L46.8 49.2 45.95 49.1 Q44.5 49.55 43.7 51.3 L42.95 51.2 42.7 51.15 40.3 51.3 Q40.3 52.15 39.7 51.55 L39.45 51.4 Q38.3 51.1 38.15 50.05 37.9 48.25 38.95 47.8 L40.95 47.15 Q42.65 46.75 41.95 45.3 L41.6 44.9 Q40.4 44.05 38.7 44.3 L37.7 44.55 35.95 44.8 36.0 44.55 36.15 44.05 36.4 43.05 Q36.8 41.35 35.45 41.1 L33.7 41.3 33.55 41.55 32.95 42.55 Q32.15 41.85 31.2 41.65 L30.55 41.7 30.35 41.95 Q29.75 42.65 29.7 43.8 29.1 43.5 28.9 43.1 L28.7 42.9 Q28.0 42.75 27.45 42.05 26.9 41.4 27.5 40.6 27.75 40.2 28.7 40.0 L29.45 39.95 Q31.0 40.1 31.75 39.35 32.25 38.95 32.1 38.05 L31.95 37.8 Q31.3 37.05 29.95 37.05 L29.25 37.2 27.2 37.25 27.05 37.05 27.05 34.3 Q27.15 32.95 25.95 33.15 24.55 33.35 23.85 34.25 L23.2 34.8 22.45 33.3 22.15 32.85 Q21.75 32.3 21.2 32.3 20.45 34.45 20.8 37.05 20.85 37.8 20.2 38.0 19.0 38.35 18.25 37.5 L17.35 36.1 Q17.0 35.4 16.2 35.5 15.85 35.55 15.65 35.75 15.45 35.95 15.4 36.3 L14.95 37.3 14.45 36.8 14.05 36.45 13.85 36.15 13.4 35.3 Q12.9 33.2 11.9 31.8 11.35 31.65 11.3 32.05 L11.2 32.3 10.95 32.8 Q10.55 33.95 10.55 35.3 L10.55 36.3 Q10.7 37.4 9.9 38.05 L9.55 37.65 9.25 37.45 7.65 36.3 7.7 36.55 7.8 37.3 Q7.8 38.0 8.2 38.5 8.65 39.1 8.65 39.8 L8.75 41.05 Q8.9 42.15 8.4 42.55 6.55 41.9 5.85 39.8 L5.35 38.85 Q5.15 38.55 4.85 38.5 4.05 38.3 3.4 38.8 L3.25 39.05 3.15 41.3 Q3.15 42.35 3.0 42.0 1.55 39.8 -0.85 39.3 L-0.75 41.05 -0.5 42.0 Q0.5 43.65 0.65 45.55 L-0.35 44.8 Q-1.55 43.95 -2.35 44.55 L-1.15 47.05 -0.75 48.1 -0.9 48.35 -2.1 48.65 -2.6 48.75 Q-5.3 49.35 -8.1 48.85 -8.85 48.75 -9.0 48.05 -9.3 46.85 -8.6 46.55 L-4.85 45.05 Q-4.95 44.5 -5.6 44.3 L-6.85 44.1 -8.6 44.3 Q-9.55 44.5 -9.9 44.1 L-10.1 43.55 Q-10.25 42.2 -11.05 41.1 L-11.6 41.3 Q-12.4 41.4 -12.85 42.05 L-13.15 42.45 -13.25 42.55 -13.6 42.3 -15.6 41.5 -17.6 41.55 -17.2 41.9 -17.0 42.25 -16.1 44.8 -17.85 44.8 -18.3 44.7 Q-18.85 44.4 -19.15 43.55 -19.5 42.75 -20.05 42.45 L-20.55 42.35 Q-21.5 42.45 -22.1 42.8 L-22.2 41.3 -22.25 40.8 Q-22.25 39.75 -23.35 39.6 L-23.8 39.45 Q-24.15 39.25 -24.55 39.6 -25.55 40.45 -26.2 41.5 L-26.6 42.3 Q-26.6 40.65 -28.1 40.3 -29.05 40.1 -29.35 40.55 L-29.35 40.8 -29.25 41.25 -28.9 41.85 Q-27.9 43.2 -27.65 44.8 -27.55 45.35 -27.25 45.5 L-28.35 45.7 -29.1 45.65 -30.15 45.5 -30.55 45.6 -32.3 45.5 -32.7 45.15 -33.1 45.05 Q-33.85 45.05 -33.85 46.05 L-34.1 46.0 Q-35.1 45.85 -36.05 46.0 L-36.4 46.25 Q-37.25 47.05 -36.6 47.6 L-36.1 48.0 -34.05 49.7 Q-33.5 50.15 -33.1 51.3 -33.15 51.75 -33.85 51.65 L-35.35 51.5 Q-36.4 51.4 -36.85 51.8 L-37.05 52.05 Q-37.45 52.8 -38.6 52.65 L-40.05 52.35 -40.65 52.15 -41.05 52.0 -41.4 51.85 Q-42.8 51.25 -44.1 51.0 -45.3 50.8 -45.7 51.85 -45.7 52.9 -45.35 53.55 L-48.1 53.6 Q-48.5 53.6 -48.35 53.05 -48.2 52.55 -48.4 52.35 L-48.65 51.8 Q-48.9 50.7 -49.9 49.85 -50.15 49.65 -50.1 50.05 L-50.35 50.1 -51.2 50.0 -52.55 49.4 -53.15 49.15 -53.55 49.15 -54.05 49.55 Q-54.65 50.3 -53.9 50.9 L-53.55 51.25 -52.4 52.75 -52.5 53.1 -52.6 53.55 Q-52.6 54.25 -53.35 54.2 L-54.15 53.65 -54.6 52.8 Q-54.6 52.2 -55.4 51.95 L-56.35 51.7 -56.85 51.55 Q-56.35 52.15 -56.9 52.75 L-56.9 53.05 Q-56.65 53.9 -57.35 54.1 -58.05 54.3 -58.55 54.85 L-58.7 55.3 -58.65 55.8 -58.6 56.3 -60.6 56.6 Q-61.15 56.65 -61.0 57.3 L-60.9 57.55 Q-60.1 58.9 -61.85 59.1 L-62.85 59.25 Q-64.0 59.4 -64.6 58.55 -64.8 58.2 -65.55 57.95 L-66.4 57.65 -68.35 56.55 -68.6 56.45 -68.85 56.45 -70.1 56.6 -72.45 56.2 -73.85 56.8 Q-74.2 57.4 -75.2 57.0 L-75.5 57.1 -76.6 58.55 Q-77.1 59.25 -78.15 59.7 L-78.6 59.8 -81.05 60.15 -82.2 60.9 -82.35 61.3 Q-82.25 62.55 -83.35 62.65 L-83.6 62.7 -101.6 76.4 -162.35 69.25 -156.35 46.25 -145.1 23.3 -146.55 5.05 -145.3 -95.25 Q-144.85 -95.45 -144.8 -96.25 L-144.55 -96.2 -143.05 -96.25 Q-142.2 -96.55 -142.55 -97.75 -142.85 -98.95 -141.8 -98.8 -141.25 -98.75 -140.75 -98.3 L-140.05 -97.7 -139.55 -97.25 Q-139.95 -100.5 -137.35 -102.05 -136.35 -102.65 -136.1 -101.5 L-136.05 -101.0 Q-136.2 -99.55 -135.9 -98.25 -135.85 -97.85 -135.3 -97.85 L-134.55 -97.75 Q-133.65 -97.4 -133.9 -96.55 L-134.35 -95.85 Q-134.9 -95.35 -134.95 -94.75 -135.0 -93.7 -134.7 -92.75 L-134.5 -92.55 -132.4 -91.8 -132.25 -91.5 -131.8 -90.5 -130.65 -92.8 -130.35 -93.5 Q-130.1 -94.75 -129.2 -95.4 L-128.9 -95.4 -128.3 -94.75 Q-127.35 -93.35 -126.35 -94.55 L-126.15 -95.0 Q-126.1 -95.4 -125.6 -95.2 L-125.3 -95.0 Q-124.4 -93.65 -124.95 -91.7 L-125.05 -91.0 Q-125.0 -89.85 -124.25 -89.05 -123.45 -88.2 -123.45 -87.0 L-123.35 -86.7 -123.25 -86.25 Q-123.2 -85.8 -122.55 -85.85 L-122.3 -85.9 Q-121.65 -86.05 -121.5 -86.5 L-120.55 -88.5 Q-120.3 -88.95 -120.2 -89.5 -120.1 -90.1 -119.55 -90.1 L-119.25 -90.15 -118.5 -90.25 Q-117.4 -90.25 -117.25 -91.2 L-117.0 -91.3 Q-116.2 -91.6 -115.9 -92.7 -115.7 -93.35 -115.0 -93.55 L-114.3 -93.55 -113.55 -93.2 -113.3 -92.75 -112.25 -90.5 Q-111.85 -89.9 -111.5 -90.5 -111.05 -91.25 -111.0 -92.25 L-110.75 -92.55 Q-109.75 -93.2 -109.05 -91.95 -108.85 -91.6 -108.8 -91.25 -108.65 -90.35 -108.2 -90.1 L-107.75 -90.0 Q-106.25 -90.05 -105.8 -91.7 L-105.5 -91.95 -104.75 -92.05 Q-104.35 -92.1 -104.4 -92.75 -104.6 -93.95 -105.25 -94.5 -104.85 -95.0 -103.75 -94.75 -101.9 -94.4 -101.35 -92.7 L-101.0 -92.0 Q-100.6 -91.75 -100.2 -92.25 L-99.7 -92.65 -98.9 -92.55 -98.5 -92.0 Q-97.7 -91.15 -98.2 -89.75 L-98.15 -89.3 Q-97.85 -88.6 -97.0 -88.45 L-96.5 -88.35 -94.5 -88.15 -93.75 -88.0 -92.85 -87.6 -92.45 -87.35 Q-92.05 -87.0 -91.5 -87.1 -90.4 -87.25 -89.85 -86.35 L-89.2 -85.85 Q-88.8 -85.7 -88.9 -85.3 -89.0 -84.85 -89.25 -84.5 L-90.3 -82.2 -90.2 -81.8 -88.25 -80.0 -87.8 -79.45 -87.4 -79.1 -87.15 -78.9 -87.0 -78.25 -86.9 -76.25 -86.85 -76.0 Q-86.7 -75.3 -86.9 -74.7 -87.2 -73.75 -86.75 -73.0 -86.25 -72.2 -86.05 -71.3 L-85.75 -70.95 -85.5 -70.85 Q-85.25 -70.85 -85.1 -71.1 L-84.95 -71.5 -84.75 -73.75 -84.35 -75.05 Q-84.25 -75.25 -84.3 -75.5 -84.45 -76.6 -83.95 -76.85 L-83.25 -77.05 Q-82.55 -77.1 -82.3 -76.6 L-81.8 -75.95 -80.6 -74.9 Q-80.25 -74.6 -79.75 -74.55 L-78.8 -74.35 -78.45 -74.0 -78.05 -73.0 -77.9 -72.55 -77.65 -71.5 -77.6 -71.25 -77.35 -69.95 -77.15 -69.55 -76.8 -68.95 Q-76.55 -68.55 -76.25 -68.55 L-74.55 -68.7 -74.25 -69.0 Q-73.95 -69.65 -73.0 -69.65 L-72.5 -69.65 Q-71.8 -69.7 -71.6 -69.2 L-71.35 -68.85 -71.0 -68.8 -69.5 -68.95 Q-68.5 -68.95 -68.4 -68.0 L-68.35 -67.75 -68.45 -67.25 -68.5 -66.75 Q-68.55 -66.3 -68.9 -65.9 L-69.0 -65.5 Q-69.05 -64.75 -68.3 -64.4 -67.45 -64.05 -67.4 -63.25 -66.85 -63.05 -66.85 -62.5 L-66.85 -62.0 Q-66.75 -61.25 -67.15 -60.9 L-67.15 -60.55 -66.35 -59.4 -65.3 -58.4 Q-65.1 -58.25 -64.8 -58.2 -64.5 -57.9 -63.8 -58.45 -63.65 -58.55 -63.65 -58.7 L-63.75 -59.2 -64.1 -60.2 -64.4 -61.2 -64.4 -61.45 -64.3 -61.7 -61.8 -61.0 Q-60.7 -60.75 -60.8 -61.95 L-60.5 -62.35 -60.05 -62.45 Q-59.0 -62.55 -58.75 -61.45 L-58.55 -59.95 Q-57.3 -60.6 -55.8 -60.35 L-55.6 -60.2 Q-54.9 -59.0 -55.95 -58.35 L-56.3 -57.95 -56.75 -55.95 Q-56.8 -54.85 -55.55 -55.0 -54.15 -55.1 -53.7 -54.35 L-53.45 -53.75 Q-53.05 -52.35 -51.55 -52.25 -50.5 -52.2 -50.25 -53.2 L-49.85 -55.15 -49.6 -55.75 -49.15 -56.25 -48.8 -56.3 Q-48.25 -56.25 -48.1 -55.8 L-47.9 -55.55 -47.55 -54.95 -46.25 -52.2 Q-45.95 -51.65 -45.1 -51.3 L-44.75 -51.0 -43.35 -50.05 -43.0 -49.75 Q-42.35 -49.1 -42.55 -47.95 -42.75 -46.75 -42.15 -45.9 L-41.95 -45.45 -41.85 -45.2 Q-41.2 -44.05 -41.15 -42.7 -41.1 -42.15 -40.55 -42.1 L-40.3 -41.95 Q-39.85 -41.35 -39.4 -41.25 L-39.65 -43.25 -39.3 -43.4 -38.45 -43.65 Q-38.15 -43.8 -38.15 -44.2 -38.15 -47.4 -37.6 -50.4 L-37.3 -50.6 -36.1 -50.9 -35.8 -51.2 Q-35.35 -52.2 -35.45 -53.45 L-35.35 -56.4 -35.15 -57.0 Q-34.8 -57.6 -34.05 -57.65 -32.45 -57.8 -32.4 -56.2 -32.35 -55.2 -31.55 -55.1 L-31.1 -55.25 -30.8 -55.7 Q-30.3 -56.8 -29.3 -56.9 -28.7 -56.9 -28.7 -56.2 L-28.6 -55.45 Q-28.35 -54.4 -28.65 -53.85 L-28.85 -53.2 -29.05 -52.7 -29.3 -51.7 Q-27.75 -51.45 -26.95 -52.1 L-26.6 -52.1 Q-26.3 -51.95 -26.1 -51.65 -25.5 -50.75 -26.0 -50.15 L-26.25 -49.7 Q-26.8 -47.7 -28.15 -46.3 L-28.4 -46.0 -28.4 -45.0 -28.05 -44.45 Q-27.1 -43.45 -27.15 -42.2 L-27.2 -41.95 Q-27.45 -41.05 -26.55 -41.2 L-25.3 -41.45 Q-24.25 -41.65 -23.8 -40.7 -23.4 -39.95 -23.75 -38.75 L-24.0 -38.15 -24.3 -37.7 Q-24.7 -36.85 -24.7 -35.7 L-24.6 -35.4 -24.45 -35.0 -24.1 -34.4 -23.8 -33.95 Q-23.55 -33.2 -22.35 -33.55 L-21.25 -33.85 -20.8 -33.9 Q-19.8 -33.55 -19.25 -32.45 -18.1 -29.95 -16.55 -28.7 -15.75 -28.05 -14.95 -29.15 -14.65 -29.6 -14.05 -29.45 L-12.9 -29.0 -12.7 -28.7 -12.55 -28.45 Q-12.0 -27.7 -12.05 -26.7 L-12.05 -24.45 -9.3 -24.9 Q-7.55 -25.25 -7.75 -23.75 -7.8 -23.3 -8.25 -22.9 L-8.5 -22.45 Q-8.8 -21.0 -7.75 -20.55 L-5.5 -19.5 Q-5.15 -19.3 -4.8 -19.2 L-4.3 -18.95 Q-4.25 -20.35 -3.05 -20.55 L-2.55 -20.4 Q-1.55 -19.75 -0.35 -19.05 L-0.15 -18.75 -0.55 -18.0 -0.85 -17.6 -1.0 -16.95 Q-1.1 -15.6 0.2 -15.15 L0.5 -14.95 Q0.85 -14.45 0.8 -13.45 0.7 -11.9 1.8 -11.0 L2.25 -10.45 Q2.85 -10.15 2.2 -9.5 L1.5 -8.9 0.95 -8.5 Q0.2 -8.0 0.05 -7.2 -0.1 -5.9 0.35 -5.1 -0.9 -3.95 -1.1 -2.45 L-1.0 -1.95 Q-0.4 -1.0 1.15 -1.5 L1.5 -1.95 2.2 -3.25 Q2.65 -3.85 2.45 -4.7 L2.35 -6.2 3.8 -6.8 5.3 -5.55 5.7 -5.55 Q7.3 -6.1 7.05 -7.7 7.0 -8.05 7.2 -8.2 7.65 -8.55 8.25 -8.7 9.5 -8.9 10.4 -8.35 L10.75 -7.95 12.1 -10.25 12.3 -10.6 12.65 -11.0 13.05 -11.35 13.45 -11.45 15.3 -11.2 15.45 -11.45 Q15.85 -12.45 15.85 -13.7 L15.9 -14.2 Q16.2 -15.75 17.45 -15.9 18.35 -16.05 19.05 -15.55 L19.45 -15.5 Q20.0 -15.6 20.2 -16.2 L20.35 -16.7 Q20.4 -17.85 21.05 -18.35 L21.4 -18.35 23.95 -17.8 25.45 -18.0 26.5 -18.4 Q27.55 -19.4 27.35 -21.2 L27.45 -21.9 Q27.6 -22.05 27.35 -22.4 L26.25 -23.75 Q25.45 -24.5 25.9 -25.85 L26.2 -25.95 29.2 -25.7 29.35 -25.95 29.55 -27.45 29.65 -27.95 Q30.0 -28.85 30.9 -28.15 L31.5 -27.75 31.9 -27.4 Q32.4 -26.95 32.65 -27.6 L33.2 -28.45 Q33.75 -28.95 34.45 -29.05 L35.0 -28.75 35.4 -28.4 35.75 -28.0 36.2 -27.45 Q36.7 -28.05 36.3 -28.75 L35.9 -29.65 34.85 -31.9 Q34.15 -33.25 35.7 -33.4 L37.25 -33.05 37.7 -32.95 38.3 -33.35 38.95 -33.95 Q39.65 -34.35 40.25 -34.9 40.75 -35.3 41.45 -35.3 42.45 -35.3 43.1 -34.8 L43.3 -34.45 43.35 -34.2 43.15 -33.5 42.8 -32.9 42.65 -32.45 Q42.4 -30.9 43.2 -30.4 L43.45 -30.2 Q44.6 -29.4 45.65 -28.9 L45.9 -28.65 Q46.05 -28.25 46.7 -28.2 45.9 -28.85 46.1 -30.2 L46.2 -31.45 Q46.2 -32.05 46.5 -32.55 L46.95 -32.65 Q47.9 -32.6 48.5 -31.7 49.05 -30.9 49.75 -30.55 L50.2 -30.45 51.1 -30.75 51.65 -31.05 Q53.65 -31.75 55.85 -31.1 L55.9 -30.7 55.75 -30.2 Q55.6 -29.35 55.05 -29.05 L54.75 -28.7 Q54.4 -26.8 56.45 -26.65 L58.25 -26.75 58.7 -26.75 61.0 -26.2 Q60.8 -28.4 60.1 -30.5 L60.0 -30.95 Q59.95 -32.6 61.55 -32.1 62.55 -32.15 62.4 -33.2 L62.45 -33.7 Q62.85 -35.0 63.75 -35.5 L64.0 -35.6 Q64.75 -35.65 65.5 -35.15 66.25 -34.65 67.25 -34.8 67.85 -34.85 68.3 -35.4 L68.75 -35.6 Q70.05 -35.8 70.3 -34.65 L70.2 -34.2 69.0 -32.45 68.85 -32.2 Q68.65 -31.4 69.2 -30.9 L69.95 -30.15 71.5 -29.95 73.0 -29.7 73.0 -31.2 Q73.0 -31.6 73.5 -31.55 74.25 -31.45 74.8 -31.05 L75.2 -31.05 Q76.05 -30.5 76.4 -31.35 L76.95 -32.25 77.25 -32.7 Q77.95 -33.95 78.95 -34.8 L80.0 -34.7 Q80.5 -34.15 81.45 -34.0 L81.8 -33.7 81.9 -33.45 81.65 -32.75 81.35 -32.35 81.2 -31.95 Q81.0 -30.35 81.8 -29.2 L81.95 -28.95 Q82.4 -28.2 82.2 -27.4 L82.15 -26.95 Q82.25 -26.25 81.85 -25.65 L81.75 -25.2 Q81.85 -24.25 83.0 -24.1 L84.1 -23.85 Q85.6 -24.65 85.3 -26.45 L85.2 -26.95 Q84.85 -28.15 83.9 -29.1 L83.65 -29.4 Q83.45 -29.75 83.2 -30.45 L83.1 -30.95 Q83.05 -31.25 83.45 -31.5 L84.25 -32.2 85.3 -32.85 86.0 -32.95 Q87.55 -33.05 87.85 -31.95 L88.05 -31.75 89.05 -31.3 89.5 -31.25 Q90.15 -31.4 90.5 -31.7 91.3 -32.35 92.05 -31.5 L93.25 -29.9 Q93.4 -29.7 93.75 -29.75 96.6 -29.95 97.15 -27.9 97.3 -27.4 96.8 -27.25 L96.45 -27.05 95.5 -26.2 Q94.95 -25.6 95.4 -24.65 95.7 -24.0 96.5 -24.0 L99.0 -23.85 99.2 -23.7 Q100.4 -21.9 101.65 -20.55 102.15 -21.95 103.2 -23.0 L104.6 -24.35 104.95 -24.55 107.0 -24.8 109.7 -24.95 109.8 -25.2 Q110.0 -26.05 110.35 -26.55 L110.5 -27.2 Q110.45 -27.75 110.95 -27.9 L111.3 -28.1 Q111.8 -28.5 112.5 -28.55 113.2 -28.6 112.9 -29.4 112.3 -31.0 113.15 -32.5 L113.25 -32.95 Q113.1 -34.1 113.45 -34.7 L113.9 -35.3 114.2 -35.35 115.0 -34.7 116.0 -33.7 Q116.4 -33.25 117.0 -33.3 L117.3 -33.25 Q118.05 -33.25 117.7 -33.8 L117.65 -34.2 Q117.9 -36.05 117.1 -37.5 L116.95 -37.95 Q116.7 -39.2 117.75 -39.2 118.2 -39.15 118.55 -38.7 L118.75 -38.45 119.5 -37.45 Q119.95 -37.9 120.15 -38.65 L120.45 -39.25 120.85 -39.6 121.25 -39.7 Q122.3 -39.65 122.1 -38.45 L121.6 -37.15 Q121.0 -36.4 121.55 -36.0 122.1 -35.5 122.55 -35.35 L123.5 -35.25 Q124.75 -35.4 125.35 -34.85 126.85 -35.9 126.6 -37.95 L126.4 -39.7 126.1 -40.75 Q126.0 -40.95 126.05 -41.2 126.15 -42.2 126.7 -42.5 L128.25 -42.95 129.3 -42.85 Q130.15 -43.4 130.65 -44.35 L131.2 -45.25 132.2 -46.85 132.5 -46.9 135.05 -46.5 Q135.4 -46.45 135.7 -46.75 L136.3 -47.4 136.95 -48.0 Q137.5 -48.6 137.5 -49.45 138.15 -50.15 138.55 -51.15 L138.75 -51.35 Q139.45 -51.5 139.9 -51.05 L140.1 -50.8 140.5 -50.45 Q141.85 -49.7 142.75 -48.95 142.75 -49.7 143.75 -50.05 L143.95 -50.25 145.0 -50.4 149.0 -49.15 149.5 -49.05 Q150.9 -48.8 151.4 -50.0 151.85 -51.1 151.7 -52.45 151.6 -53.35 150.8 -53.05 L150.2 -52.8 Q149.0 -52.1 147.9 -53.1 L147.55 -53.3 Q147.25 -53.45 147.1 -53.75 L146.6 -54.6 146.25 -54.9 Q145.75 -55.1 145.6 -55.5 L145.5 -55.95 Q145.5 -57.2 145.8 -58.4 145.9 -58.8 146.35 -58.95" fill="#eff0f9" fill-rule="evenodd" stroke="none"/>
    <path d="M-136.1 -101.0 Q-136.25 -99.55 -135.95 -98.25 -135.9 -97.85 -135.35 -97.85 L-134.6 -97.75 Q-133.7 -97.4 -133.95 -96.55 L-134.4 -95.85 -135.0 -94.75 Q-135.05 -93.7 -134.75 -92.75 L-134.55 -92.55 -132.45 -91.8 -132.3 -91.5 -131.85 -90.5 -130.7 -92.8 -130.4 -93.5 Q-130.15 -94.75 -129.25 -95.4 L-128.95 -95.4 -128.35 -94.75 Q-127.4 -93.35 -126.4 -94.55 L-126.2 -95.0 Q-126.15 -95.4 -125.65 -95.2 L-125.35 -95.0 Q-124.45 -93.65 -125.0 -91.7 L-125.1 -91.0 Q-125.05 -89.85 -124.3 -89.05 -123.5 -88.2 -123.5 -87.0 L-123.4 -86.7 -123.3 -86.25 Q-123.25 -85.8 -122.6 -85.85 L-122.35 -85.9 Q-121.7 -86.05 -121.55 -86.5 L-120.6 -88.5 -120.25 -89.5 Q-120.15 -90.1 -119.6 -90.1 L-119.3 -90.15 -118.55 -90.25 Q-117.45 -90.25 -117.3 -91.2 L-117.05 -91.3 Q-116.25 -91.6 -115.95 -92.7 -115.75 -93.35 -115.05 -93.55 L-114.35 -93.55 -113.6 -93.2 -113.35 -92.75 -112.3 -90.5 Q-111.9 -89.9 -111.55 -90.5 -111.1 -91.25 -111.05 -92.25 L-110.8 -92.55 Q-109.8 -93.2 -109.1 -91.95 L-108.85 -91.25 Q-108.7 -90.35 -108.25 -90.1 L-107.8 -90.0 Q-106.3 -90.05 -105.85 -91.7 L-105.55 -91.95 -104.8 -92.05 Q-104.4 -92.1 -104.45 -92.75 -104.65 -93.95 -105.3 -94.5 -104.9 -95.0 -103.8 -94.75 -101.95 -94.4 -101.4 -92.7 L-101.05 -92.0 Q-100.65 -91.75 -100.25 -92.25 L-99.75 -92.65 -98.95 -92.55 -98.55 -92.0 Q-97.75 -91.15 -98.25 -89.75 L-98.2 -89.3 Q-97.9 -88.6 -97.05 -88.45 L-96.55 -88.35 -94.55 -88.15 -93.8 -88.0 -92.9 -87.6 -92.5 -87.35 Q-92.1 -87.0 -91.55 -87.1 -90.45 -87.25 -89.9 -86.35 -89.65 -86.0 -89.25 -85.85 -88.85 -85.7 -88.95 -85.3 L-89.3 -84.5 -90.35 -82.2 -90.25 -81.8 -88.3 -80.0 -87.85 -79.45 -87.45 -79.1 -87.2 -78.9 -87.05 -78.25 -86.95 -76.25 -86.9 -76.0 Q-86.75 -75.3 -86.95 -74.7 -87.25 -73.75 -86.8 -73.0 -86.3 -72.2 -86.1 -71.3 L-85.8 -70.95 Q-85.65 -70.85 -85.55 -70.85 L-85.15 -71.1 -85.0 -71.5 -84.8 -73.75 -84.4 -75.05 -84.35 -75.5 Q-84.5 -76.6 -84.0 -76.85 L-83.3 -77.05 Q-82.6 -77.1 -82.35 -76.6 L-81.85 -75.95 -80.65 -74.9 Q-80.3 -74.6 -79.8 -74.55 L-78.85 -74.35 -78.5 -74.0 -78.1 -73.0 -77.95 -72.55 -77.7 -71.5 -77.65 -71.25 -77.4 -69.95 -77.2 -69.55 -76.85 -68.95 -76.3 -68.55 -74.6 -68.7 -74.3 -69.0 Q-74.0 -69.65 -73.05 -69.65 L-72.55 -69.65 Q-71.85 -69.7 -71.65 -69.2 L-71.4 -68.85 -71.05 -68.8 -69.55 -68.95 Q-68.55 -68.95 -68.45 -68.0 L-68.4 -67.75 -68.5 -67.25 -68.55 -66.75 Q-68.6 -66.3 -68.95 -65.9 L-69.05 -65.5 Q-69.1 -64.75 -68.35 -64.4 -67.5 -64.05 -67.45 -63.25 -66.9 -63.05 -66.9 -62.5 L-66.9 -62.0 Q-66.8 -61.25 -67.2 -60.9 L-67.2 -60.55 -66.4 -59.4 -65.35 -58.4 -64.85 -58.2 Q-64.55 -57.9 -63.85 -58.45 L-63.7 -58.7 -63.8 -59.2 -64.15 -60.2 -64.45 -61.2 -64.45 -61.45 -64.35 -61.7 -61.85 -61.0 Q-60.75 -60.75 -60.85 -61.95 L-60.55 -62.35 -60.1 -62.45 Q-59.05 -62.55 -58.8 -61.45 L-58.6 -59.95 Q-57.35 -60.6 -55.85 -60.35 L-55.65 -60.2 Q-54.95 -59.0 -56.0 -58.35 L-56.35 -57.95 -56.8 -55.95 Q-56.85 -54.85 -55.6 -55.0 -54.2 -55.1 -53.75 -54.35 L-53.5 -53.75 Q-53.1 -52.35 -51.6 -52.25 -50.55 -52.2 -50.3 -53.2 L-49.9 -55.15 -49.65 -55.75 -49.2 -56.25 -48.85 -56.3 Q-48.3 -56.25 -48.15 -55.8 L-47.95 -55.55 -47.6 -54.95 -46.3 -52.2 Q-46.0 -51.65 -45.15 -51.3 L-44.8 -51.0 Q-44.15 -50.4 -43.4 -50.05 L-43.05 -49.75 Q-42.4 -49.1 -42.6 -47.95 -42.8 -46.75 -42.2 -45.9 L-42.0 -45.45 -41.9 -45.2 Q-41.25 -44.05 -41.2 -42.7 -41.15 -42.15 -40.6 -42.1 L-40.35 -41.95 -39.45 -41.25 -39.4 -40.95 -39.15 -40.05 -38.9 -38.95 -38.95 -38.5 -39.75 -36.8 -40.3 -36.95 -40.55 -37.1 Q-41.05 -37.2 -41.2 -37.5 L-41.4 -37.8 -41.7 -38.45 Q-41.85 -39.5 -42.75 -40.3 L-43.1 -40.5 Q-44.45 -40.8 -45.1 -40.0 L-45.4 -39.4 -46.0 -39.3 -46.6 -39.65 Q-47.7 -40.3 -48.3 -39.45 L-48.45 -39.2 Q-48.5 -38.5 -48.85 -38.25 L-49.15 -37.9 Q-49.25 -37.55 -49.75 -37.75 L-50.6 -38.05 -52.3 -38.1 -52.65 -37.85 -52.85 -37.2 Q-52.9 -36.45 -52.25 -36.05 -51.4 -35.5 -51.05 -34.7 L-51.0 -34.0 Q-51.35 -32.8 -52.75 -33.5 L-53.0 -33.7 -53.35 -34.15 -54.25 -35.0 Q-55.0 -35.75 -55.8 -35.9 L-56.3 -35.95 Q-58.95 -36.0 -58.45 -38.7 L-58.25 -39.15 -57.35 -40.0 Q-56.35 -40.8 -57.25 -42.05 L-58.8 -41.7 -59.95 -41.3 -62.05 -40.2 Q-61.9 -41.1 -62.25 -41.5 -62.85 -42.05 -63.55 -42.2 L-63.85 -41.7 -63.9 -41.45 Q-63.85 -40.0 -64.8 -39.45 L-65.05 -39.15 Q-65.2 -38.05 -66.3 -38.15 L-66.75 -38.1 -67.25 -38.0 Q-67.75 -38.1 -68.25 -38.75 L-68.45 -39.2 Q-68.45 -40.4 -67.6 -41.25 -66.85 -41.9 -67.0 -43.2 L-67.05 -43.45 Q-68.6 -43.35 -68.8 -44.7 L-69.05 -47.2 Q-70.5 -46.2 -71.55 -44.45 L-72.15 -43.8 -72.4 -43.8 -73.55 -44.55 -73.75 -44.75 Q-74.0 -45.3 -74.55 -45.15 L-76.05 -44.5 -76.4 -44.1 Q-76.85 -43.35 -77.55 -42.95 -77.9 -43.6 -77.85 -44.45 L-77.65 -45.1 Q-77.2 -45.8 -78.0 -47.05 -78.9 -46.8 -79.2 -45.9 L-80.05 -43.7 -80.3 -43.9 -80.75 -44.25 -81.1 -44.65 -81.35 -45.0 Q-81.45 -45.6 -82.0 -46.0 L-82.5 -46.5 -82.95 -47.5 Q-83.1 -47.9 -83.6 -48.1 -84.15 -48.35 -84.45 -47.9 L-84.95 -46.7 Q-85.2 -45.0 -84.85 -43.45 -84.6 -42.35 -85.05 -41.95 L-86.5 -42.75 -88.6 -42.85 Q-89.6 -42.6 -89.1 -41.95 L-88.9 -41.65 -88.75 -41.35 Q-88.3 -41.1 -87.85 -40.95 L-86.85 -40.65 -85.55 -40.25 Q-84.55 -39.95 -84.6 -39.2 -84.65 -38.45 -85.0 -38.15 -85.15 -37.95 -85.35 -37.9 -87.05 -37.4 -87.4 -38.95 L-87.65 -39.25 Q-89.0 -39.7 -89.6 -38.95 L-90.15 -38.55 -90.55 -38.55 -91.85 -39.45 Q-92.4 -40.0 -92.6 -39.45 L-93.65 -35.95 -93.75 -35.45 Q-93.8 -34.65 -94.8 -35.05 L-96.6 -35.75 Q-96.85 -35.8 -97.0 -36.0 -97.5 -36.65 -98.35 -36.6 L-98.6 -36.5 Q-100.1 -35.65 -98.35 -34.7 -97.2 -34.15 -96.6 -33.2 L-96.85 -33.2 -97.6 -32.95 -97.1 -32.2 -96.95 -31.95 -96.7 -31.3 Q-95.75 -29.65 -97.35 -28.95 L-97.6 -28.65 Q-97.7 -28.0 -98.35 -28.0 -99.95 -28.0 -101.15 -28.9 L-101.55 -29.0 Q-101.9 -28.9 -102.65 -29.35 L-103.05 -29.35 -104.05 -28.65 -106.6 -28.75 -106.85 -28.85 -109.1 -28.85 -109.35 -28.7 Q-110.0 -28.2 -110.05 -27.45 -110.1 -26.9 -109.6 -26.45 L-109.35 -26.3 -108.35 -26.1 Q-107.3 -25.9 -106.4 -25.35 -106.1 -25.2 -106.2 -24.7 L-106.35 -24.5 Q-107.25 -24.25 -107.6 -23.7 -106.95 -23.7 -106.4 -23.35 -105.6 -22.9 -104.35 -22.95 L-104.5 -21.7 Q-104.3 -20.5 -105.35 -20.65 L-105.75 -20.8 Q-106.25 -21.2 -106.8 -21.3 -107.35 -21.45 -107.75 -21.8 -108.55 -22.45 -109.15 -22.05 L-110.3 -21.15 -110.5 -20.7 Q-110.7 -19.55 -109.35 -19.25 -108.5 -19.05 -107.9 -18.25 -108.35 -17.75 -109.1 -17.55 L-109.35 -17.5 -111.85 -17.7 -112.3 -17.6 Q-114.0 -17.05 -113.75 -18.95 -113.65 -19.9 -114.1 -20.2 L-114.85 -20.0 -116.8 -19.35 -117.65 -19.05 -117.95 -18.85 Q-118.15 -18.5 -118.6 -18.5 L-119.0 -18.55 -119.4 -19.15 Q-120.0 -20.2 -120.55 -19.65 L-120.75 -19.2 -120.95 -18.2 Q-120.95 -17.95 -121.2 -17.8 -121.75 -17.45 -122.35 -17.2 L-122.3 -16.95 Q-121.8 -16.85 -121.75 -16.45 L-121.55 -16.0 Q-121.2 -15.7 -120.85 -15.7 -119.4 -15.6 -118.85 -14.7 L-122.1 -13.75 -122.85 -13.55 -123.1 -13.6 Q-123.85 -13.7 -123.55 -14.7 L-123.45 -15.2 -123.5 -15.45 -123.65 -15.7 -124.85 -15.65 -125.35 -15.6 Q-126.2 -15.6 -126.4 -16.7 -126.55 -17.45 -127.25 -17.65 L-127.5 -17.0 Q-128.3 -14.9 -128.35 -12.45 -129.15 -13.2 -130.35 -12.85 L-130.5 -12.65 -130.7 -12.25 -131.25 -10.7 Q-131.45 -9.8 -132.35 -9.85 -132.8 -9.9 -133.0 -9.4 L-133.2 -8.7 -133.3 -8.4 -133.65 -7.75 Q-134.15 -6.95 -134.1 -5.95 -135.15 -7.0 -136.35 -7.25 -136.6 -7.3 -136.75 -7.5 -137.45 -8.3 -138.6 -8.45 -138.65 -7.15 -138.15 -5.9 L-137.65 -5.2 Q-137.15 -4.75 -137.35 -3.95 L-137.6 -3.8 -138.35 -3.65 -139.35 -3.45 -135.6 -1.2 -136.1 -1.25 -138.55 -0.9 -138.85 -0.7 -140.6 0.8 -140.1 0.8 Q-138.95 0.65 -138.65 1.55 -138.6 1.8 -138.7 1.9 L-141.1 3.3 -142.0 3.9 Q-142.6 4.4 -143.6 4.6 L-144.35 4.65 Q-145.6 4.6 -146.6 5.05 L-145.85 -36.75 -145.35 -95.25 Q-144.9 -95.45 -144.85 -96.25 L-144.6 -96.2 -143.1 -96.25 Q-142.25 -96.55 -142.6 -97.75 -142.9 -98.95 -141.85 -98.8 -141.3 -98.75 -140.8 -98.3 L-140.1 -97.7 -139.6 -97.25 Q-140.0 -100.5 -137.4 -102.05 -136.4 -102.65 -136.15 -101.5 L-136.1 -101.0" fill="url(#gradient0)" fill-rule="evenodd" stroke="none"/>
    <path d="M139.85 -51.05 L140.05 -50.8 140.45 -50.45 142.7 -48.95 Q142.7 -49.7 143.7 -50.05 L143.9 -50.25 144.95 -50.4 Q147.0 -49.7 148.95 -49.15 L149.45 -49.05 Q150.85 -48.8 151.35 -50.0 151.8 -51.1 151.65 -52.45 151.55 -53.35 150.75 -53.05 L150.15 -52.8 Q148.95 -52.1 147.85 -53.1 L147.5 -53.3 Q147.2 -53.45 147.05 -53.75 L146.55 -54.6 146.2 -54.9 Q145.7 -55.1 145.55 -55.5 L145.45 -55.95 Q145.45 -57.2 145.75 -58.4 145.85 -58.8 146.3 -58.95 L146.9 -58.9 Q148.9 -57.75 151.0 -57.35 L152.25 -58.9 Q152.55 -59.25 153.25 -59.2 L155.5 -58.75 156.0 -58.7 156.55 -58.6 156.55 -8.25 110.95 -13.45 110.9 -13.95 110.75 -14.45 110.6 -14.85 110.2 -15.05 Q109.4 -15.0 109.15 -15.45 L108.95 -15.65 Q108.45 -15.95 108.35 -16.7 L108.2 -16.95 107.65 -17.35 Q106.65 -17.85 105.45 -17.75 L104.8 -17.85 104.35 -18.05 Q103.75 -18.4 104.0 -19.45 104.1 -19.95 103.7 -19.95 L102.75 -20.1 101.9 -20.35 101.6 -20.55 Q102.1 -21.95 103.15 -23.0 L104.55 -24.35 104.9 -24.55 106.95 -24.8 109.65 -24.95 109.75 -25.2 Q109.95 -26.05 110.3 -26.55 L110.45 -27.2 Q110.4 -27.75 110.9 -27.9 L111.25 -28.1 Q111.75 -28.5 112.45 -28.55 113.15 -28.6 112.85 -29.4 112.25 -31.0 113.1 -32.5 L113.2 -32.95 Q113.05 -34.1 113.4 -34.7 L113.85 -35.3 114.15 -35.35 Q114.55 -35.2 114.95 -34.7 L115.95 -33.7 Q116.35 -33.25 116.95 -33.3 L117.25 -33.25 Q118.0 -33.25 117.65 -33.8 L117.6 -34.2 Q117.85 -36.05 117.05 -37.5 L116.9 -37.95 Q116.65 -39.2 117.7 -39.2 L118.5 -38.7 118.7 -38.45 Q119.3 -38.05 119.45 -37.45 L120.1 -38.65 120.4 -39.25 120.8 -39.6 121.2 -39.7 Q122.25 -39.65 122.05 -38.45 L121.55 -37.15 Q120.95 -36.4 121.5 -36.0 L122.5 -35.35 123.45 -35.25 Q124.7 -35.4 125.3 -34.85 126.8 -35.9 126.55 -37.95 L126.35 -39.7 126.05 -40.75 Q125.95 -40.95 126.0 -41.2 126.1 -42.2 126.65 -42.5 L128.2 -42.95 129.25 -42.85 Q130.1 -43.4 130.6 -44.35 L131.15 -45.25 132.15 -46.85 132.45 -46.9 135.0 -46.5 Q135.35 -46.45 135.65 -46.75 L136.25 -47.4 136.9 -48.0 Q137.45 -48.6 137.45 -49.45 L138.5 -51.15 138.7 -51.35 Q139.4 -51.5 139.85 -51.05" fill="url(#gradient1)" fill-rule="evenodd" stroke="none"/>
    <path d="M-81.3 -3.55 L-79.85 -3.45 -79.2 -2.85 -77.95 -1.15 Q-77.4 -0.45 -76.35 -0.45 -75.55 -3.0 -73.5 -4.05 -72.15 -2.7 -72.3 -0.7 L-72.35 0.3 -72.1 0.05 -71.6 -0.45 Q-70.75 0.45 -70.6 1.55 -70.45 2.75 -71.6 3.35 -72.45 3.8 -72.15 4.7 L-71.85 4.9 -71.6 4.95 Q-68.8 5.25 -68.65 2.55 L-68.65 0.55 Q-68.65 0.0 -68.1 0.0 -66.3 0.05 -66.35 2.05 L-66.2 3.1 -66.1 3.8 Q-66.15 5.1 -65.6 5.8 -65.45 6.05 -65.65 5.25 L-65.65 4.55 -65.0 3.4 -64.25 2.4 -63.9 2.0 Q-62.8 0.9 -62.45 2.3 -62.05 3.9 -62.1 5.55 L-61.85 6.95 -61.6 7.0 Q-60.6 6.85 -59.85 7.3 -59.35 7.55 -59.25 8.3 L-59.15 8.6 Q-58.75 9.6 -58.75 10.8 L-58.65 11.05 Q-57.75 12.5 -56.1 10.95 L-55.45 10.4 -55.05 10.3 -53.8 10.3 Q-54.85 8.15 -57.1 7.45 L-57.35 7.35 Q-58.3 6.8 -57.3 6.45 L-56.6 6.4 -55.55 6.8 Q-54.15 7.55 -53.05 7.8 L-52.1 7.0 Q-51.6 6.7 -51.55 6.05 L-51.4 5.5 -51.2 5.1 -51.05 4.8 Q-50.35 4.2 -49.75 5.25 L-49.35 5.8 -48.8 6.8 -47.6 5.75 -47.1 5.15 -46.85 4.95 Q-45.6 5.9 -45.65 7.55 L-45.6 8.3 -45.55 8.8 Q-44.85 8.7 -44.2 8.15 L-43.3 7.5 -42.25 6.85 -41.8 6.6 Q-41.35 6.45 -41.8 5.8 L-42.65 4.35 -42.9 3.75 -42.9 3.15 -42.25 2.65 Q-41.5 2.35 -41.2 3.0 -40.4 4.7 -39.3 5.55 -38.5 6.25 -37.9 5.4 L-37.3 4.75 Q-35.95 3.65 -34.1 4.25 L-33.8 4.55 Q-33.5 5.35 -34.3 6.3 L-35.1 7.8 -35.15 8.3 -35.1 8.6 -34.9 8.95 -34.55 9.15 -34.3 9.2 Q-33.5 9.5 -32.95 8.85 L-32.55 8.6 Q-30.4 8.15 -30.05 10.05 -29.95 10.45 -29.3 10.3 L-27.55 10.15 -26.8 10.35 -26.0 10.7 -25.65 10.95 -25.55 11.3 -25.75 12.3 -26.3 13.05 Q-27.15 13.8 -27.55 14.8 L-27.7 15.3 Q-27.8 16.15 -27.35 16.4 L-26.0 17.0 -25.0 16.9 -24.65 16.95 -24.25 17.55 Q-23.8 18.45 -24.2 19.35 -24.45 19.9 -24.0 20.25 -23.45 20.7 -22.3 20.8 -22.15 20.8 -22.15 21.05 -22.15 21.75 -21.8 22.3 L-21.45 22.7 -21.15 22.7 -20.35 21.8 -20.0 21.3 Q-19.55 20.6 -18.3 20.75 -18.05 20.8 -17.9 20.95 L-17.7 21.3 -17.6 21.55 -16.65 22.95 -16.3 23.0 Q-15.3 22.85 -14.65 23.45 L-14.55 23.8 -14.65 25.3 -14.5 25.75 -14.05 26.3 -156.85 47.85 -145.1 23.3 -144.85 23.45 -144.6 23.6 -144.1 23.7 Q-143.3 23.8 -143.0 24.5 L-142.55 25.0 Q-141.8 25.6 -140.55 25.95 -139.0 26.35 -138.55 25.35 L-138.35 25.05 Q-137.85 24.35 -136.6 24.55 -136.95 23.25 -136.85 21.8 -136.5 22.4 -135.85 22.35 L-135.45 22.2 Q-135.2 21.3 -134.35 21.4 -134.1 21.45 -133.95 21.65 L-133.4 22.55 -133.0 22.95 -132.65 23.15 -132.1 23.5 -131.3 24.0 -130.6 24.2 Q-130.35 24.2 -130.2 23.95 L-130.0 23.65 -129.05 22.3 -128.85 22.1 -128.4 21.75 -126.9 20.5 Q-126.3 19.9 -125.35 20.15 L-125.1 20.2 -121.85 20.55 Q-121.75 20.0 -122.15 19.6 -122.45 19.3 -122.3 18.8 -121.85 17.7 -120.8 16.75 -121.5 16.05 -120.85 15.05 L-120.45 14.25 -120.2 13.95 -119.95 13.9 Q-119.2 14.45 -118.85 15.3 L-118.5 15.7 Q-117.3 16.5 -115.65 17.65 -114.65 18.3 -114.35 17.8 L-114.8 16.5 Q-115.2 15.35 -114.35 15.1 L-113.9 14.95 -113.3 14.65 -113.05 14.45 Q-112.7 13.7 -113.0 13.0 L-113.2 12.7 Q-113.65 12.4 -113.55 11.55 L-113.4 10.3 -113.25 9.95 -112.6 9.8 -110.85 10.0 -110.6 10.1 Q-110.35 11.2 -110.35 12.3 L-110.45 13.25 -110.9 15.55 Q-111.0 16.65 -110.25 17.5 -110.1 17.7 -109.85 17.7 -107.6 17.7 -107.95 15.55 L-107.95 15.3 -107.9 14.8 -107.7 14.45 Q-107.6 14.3 -107.35 14.25 L-107.1 14.2 -106.65 14.1 Q-106.15 14.0 -105.8 13.3 -105.6 12.95 -105.3 12.85 -104.7 12.7 -104.6 12.3 -105.65 11.3 -105.1 9.9 L-103.8 9.65 -102.1 9.05 -102.85 8.55 -103.1 8.4 -105.35 7.8 -105.3 7.55 -105.05 7.1 -104.1 6.3 -103.6 6.15 -101.3 6.5 -98.85 7.3 -99.15 6.85 -99.75 6.2 -100.85 5.1 Q-101.95 4.3 -101.75 2.8 L-101.55 2.5 -99.6 2.3 -98.95 2.45 Q-97.1 3.55 -95.1 3.8 -94.7 2.65 -94.95 1.3 -95.2 -0.2 -93.85 -0.05 -92.55 0.15 -91.65 1.35 -91.15 2.0 -90.35 1.9 L-88.6 1.9 -88.1 1.95 -87.85 1.85 -87.35 1.7 Q-86.3 1.75 -86.1 1.05 L-86.35 0.8 -86.6 0.6 Q-87.55 0.1 -87.55 -0.95 -87.55 -1.6 -87.1 -1.65 -84.7 -2.05 -82.85 -0.95 -81.9 -0.35 -80.6 -0.45 L-80.75 -0.7 Q-80.85 -1.65 -81.3 -2.5 L-81.45 -3.2 -81.3 -3.55" fill="url(#gradient2)" fill-rule="evenodd" stroke="none"/>
    <path d="M29.6 -27.95 Q29.95 -28.85 30.85 -28.15 L31.45 -27.75 31.85 -27.4 Q32.35 -26.95 32.6 -27.6 L33.15 -28.45 Q33.7 -28.95 34.4 -29.05 L34.95 -28.75 35.35 -28.4 35.7 -28.0 36.15 -27.45 Q36.65 -28.05 36.25 -28.75 L35.85 -29.65 34.8 -31.9 Q34.1 -33.25 35.65 -33.4 L37.2 -33.05 37.65 -32.95 38.25 -33.35 38.9 -33.95 40.2 -34.9 Q40.7 -35.3 41.4 -35.3 42.4 -35.3 43.05 -34.8 L43.25 -34.45 43.3 -34.2 43.1 -33.5 42.75 -32.9 42.6 -32.45 Q42.35 -30.9 43.15 -30.4 L43.4 -30.2 Q44.55 -29.4 45.6 -28.9 L45.85 -28.65 Q46.0 -28.25 46.65 -28.2 45.85 -28.85 46.05 -30.2 L46.15 -31.45 Q46.15 -32.05 46.45 -32.55 L46.9 -32.65 Q47.85 -32.6 48.45 -31.7 49.0 -30.9 49.7 -30.55 L50.15 -30.45 51.05 -30.75 51.6 -31.05 Q53.6 -31.75 55.8 -31.1 L55.85 -30.7 55.7 -30.2 Q55.55 -29.35 55.0 -29.05 L54.7 -28.7 Q54.35 -26.8 56.4 -26.65 L58.2 -26.75 58.65 -26.75 60.95 -26.2 Q60.75 -28.4 60.05 -30.5 L59.95 -30.95 Q59.9 -32.6 61.5 -32.1 62.5 -32.15 62.35 -33.2 L62.4 -33.7 Q62.8 -35.0 63.7 -35.5 L63.95 -35.6 Q64.7 -35.65 65.45 -35.15 66.2 -34.65 67.2 -34.8 67.8 -34.85 68.25 -35.4 L68.7 -35.6 Q70.0 -35.8 70.25 -34.65 L70.15 -34.2 68.95 -32.45 68.8 -32.2 Q68.6 -31.4 69.15 -30.9 L69.9 -30.15 71.45 -29.95 72.95 -29.7 72.95 -31.2 Q72.95 -31.6 73.45 -31.55 L74.75 -31.05 75.15 -31.05 Q76.0 -30.5 76.35 -31.35 L76.9 -32.25 77.2 -32.7 Q77.9 -33.95 78.9 -34.8 L79.95 -34.7 Q80.45 -34.15 81.4 -34.0 L81.75 -33.7 81.85 -33.45 81.6 -32.75 81.3 -32.35 81.15 -31.95 Q80.95 -30.35 81.75 -29.2 L81.9 -28.95 Q82.35 -28.2 82.15 -27.4 L82.1 -26.95 Q82.2 -26.25 81.8 -25.65 L81.7 -25.2 Q81.8 -24.25 82.95 -24.1 L84.05 -23.85 Q85.55 -24.65 85.25 -26.45 L85.15 -26.95 Q84.8 -28.15 83.85 -29.1 L83.6 -29.4 83.15 -30.45 83.05 -30.95 Q83.0 -31.25 83.4 -31.5 L84.2 -32.2 85.25 -32.85 85.95 -32.95 Q87.5 -33.05 87.8 -31.95 L88.0 -31.75 89.0 -31.3 89.45 -31.25 Q90.1 -31.4 90.45 -31.7 91.25 -32.35 92.0 -31.5 L93.2 -29.9 Q93.35 -29.7 93.7 -29.75 96.55 -29.95 97.1 -27.9 97.25 -27.4 96.75 -27.25 L96.4 -27.05 95.45 -26.2 Q94.9 -25.6 95.35 -24.65 95.65 -24.0 96.45 -24.0 L98.95 -23.85 99.15 -23.7 Q100.35 -21.9 101.6 -20.55 L101.9 -20.35 102.75 -20.1 103.7 -19.95 Q104.1 -19.95 104.0 -19.45 103.75 -18.4 104.35 -18.05 L104.8 -17.85 105.45 -17.75 Q106.65 -17.85 107.65 -17.35 L108.2 -16.95 108.35 -16.7 Q108.45 -15.95 108.95 -15.65 L109.15 -15.45 Q109.4 -15.0 110.2 -15.05 L110.6 -14.85 110.75 -14.45 110.9 -13.95 110.95 -13.45 10.7 -7.95 12.05 -10.25 12.25 -10.6 12.6 -11.0 13.0 -11.35 13.4 -11.45 15.25 -11.2 15.4 -11.45 Q15.8 -12.45 15.8 -13.7 L15.85 -14.2 Q16.15 -15.75 17.4 -15.9 18.3 -16.05 19.0 -15.55 L19.4 -15.5 Q19.95 -15.6 20.15 -16.2 L20.3 -16.7 Q20.35 -17.85 21.0 -18.35 L21.35 -18.35 23.9 -17.8 25.4 -18.0 26.45 -18.4 Q27.5 -19.4 27.3 -21.2 L27.4 -21.9 Q27.55 -22.05 27.3 -22.4 L26.2 -23.75 Q25.4 -24.5 25.85 -25.85 L26.15 -25.95 29.15 -25.7 29.3 -25.95 29.5 -27.45 29.6 -27.95" fill="url(#gradient3)" fill-rule="evenodd" stroke="none"/>
    <path d="M0.75 -13.45 Q0.65 -11.9 1.75 -11.0 L2.2 -10.45 Q2.8 -10.15 2.15 -9.5 L1.45 -8.9 0.9 -8.5 Q0.15 -8.0 0.0 -7.2 -0.15 -5.9 0.3 -5.1 -0.95 -3.95 -1.15 -2.45 L-1.05 -1.95 Q-0.45 -1.0 1.1 -1.5 1.35 -1.55 1.45 -1.95 L2.15 -3.25 Q2.6 -3.85 2.4 -4.7 L2.3 -6.2 3.75 -6.8 5.25 -5.55 5.65 -5.55 Q7.25 -6.1 7.0 -7.7 6.95 -8.05 7.15 -8.2 7.6 -8.55 8.2 -8.7 9.45 -8.9 10.35 -8.35 L10.7 -7.95 11.85 -4.9 Q12.05 -4.4 12.7 -4.4 13.5 -4.4 13.95 -5.0 L14.45 -5.15 Q17.15 -4.7 16.75 -1.95 16.55 -0.65 17.95 -0.9 19.1 -1.05 19.8 -0.55 L20.2 -0.35 20.45 -0.3 21.95 -0.2 Q23.45 -0.2 23.25 -1.95 23.05 -3.4 24.25 -3.85 L24.7 -3.95 Q25.95 -3.85 26.4 -2.5 L26.7 -2.15 Q27.35 -2.2 27.65 -2.5 L28.5 -3.15 30.75 -3.25 Q31.4 -2.85 32.2 -2.7 32.7 -2.95 32.35 -3.75 32.2 -4.05 32.3 -4.45 32.7 -5.95 34.4 -5.5 L34.65 -5.2 Q35.2 -3.85 36.0 -3.65 L36.7 -3.7 38.3 -4.55 39.15 -5.05 40.2 -4.95 40.6 -4.6 40.7 -4.2 40.4 -2.75 40.0 -1.95 Q39.55 -1.2 39.9 -0.25 L40.15 0.1 40.55 0.4 41.15 0.65 42.25 1.25 42.55 1.65 42.55 2.2 42.0 2.85 Q41.55 3.3 41.6 4.05 41.6 4.7 42.1 5.15 L42.55 5.75 42.85 6.15 42.9 6.55 Q42.75 7.4 42.9 8.25 L43.1 8.6 43.75 9.2 -146.6 5.05 Q-145.6 4.6 -144.35 4.65 L-143.6 4.6 Q-142.6 4.4 -142.0 3.9 L-141.1 3.3 -138.7 1.9 Q-138.6 1.8 -138.65 1.55 -138.95 0.65 -140.1 0.8 L-140.6 0.8 -138.85 -0.7 -138.55 -0.9 -136.1 -1.25 -135.6 -1.2 -139.35 -3.45 -138.35 -3.65 -137.6 -3.8 -137.35 -3.95 Q-137.15 -4.75 -137.65 -5.2 L-138.15 -5.9 Q-138.65 -7.15 -138.6 -8.45 -137.45 -8.3 -136.75 -7.5 -136.6 -7.3 -136.35 -7.25 -135.15 -7.0 -134.1 -5.95 -134.15 -6.95 -133.65 -7.75 L-133.3 -8.4 -133.2 -8.7 -133.0 -9.4 Q-132.8 -9.9 -132.35 -9.85 -131.45 -9.8 -131.25 -10.7 L-130.7 -12.25 -130.5 -12.65 -130.35 -12.85 Q-129.15 -13.2 -128.35 -12.45 -128.3 -14.9 -127.5 -17.0 L-127.25 -17.65 Q-126.55 -17.45 -126.4 -16.7 -126.2 -15.6 -125.35 -15.6 L-124.85 -15.65 -123.65 -15.7 -123.5 -15.45 -123.45 -15.2 -123.55 -14.7 Q-123.85 -13.7 -123.1 -13.6 L-122.85 -13.55 -122.1 -13.75 -118.85 -14.7 Q-119.4 -15.6 -120.85 -15.7 -121.2 -15.7 -121.55 -16.0 L-121.75 -16.45 Q-121.8 -16.85 -122.3 -16.95 L-122.35 -17.2 Q-121.75 -17.45 -121.2 -17.8 -120.95 -17.95 -120.95 -18.2 L-120.75 -19.2 -120.55 -19.65 Q-120.0 -20.2 -119.4 -19.15 L-119.0 -18.55 -118.6 -18.5 Q-118.15 -18.5 -117.95 -18.85 L-117.65 -19.05 -116.8 -19.35 -114.85 -20.0 -114.1 -20.2 Q-113.65 -19.9 -113.75 -18.95 -114.0 -17.05 -112.3 -17.6 L-111.85 -17.7 -109.35 -17.5 -109.1 -17.55 Q-108.35 -17.75 -107.9 -18.25 -108.5 -19.05 -109.35 -19.25 -110.7 -19.55 -110.5 -20.7 L-110.3 -21.15 -109.15 -22.05 Q-108.55 -22.45 -107.75 -21.8 -107.35 -21.45 -106.8 -21.3 -106.25 -21.2 -105.75 -20.8 L-105.35 -20.65 Q-104.3 -20.5 -104.5 -21.7 L-104.35 -22.95 Q-105.6 -22.9 -106.4 -23.35 -106.95 -23.7 -107.6 -23.7 -107.25 -24.25 -106.35 -24.5 L-106.2 -24.7 Q-106.1 -25.2 -106.4 -25.35 -107.3 -25.9 -108.35 -26.1 L-109.35 -26.3 -109.6 -26.45 Q-110.1 -26.9 -110.05 -27.45 -110.0 -28.2 -109.35 -28.7 L-109.1 -28.85 -106.85 -28.85 -106.6 -28.75 -104.05 -28.65 -103.05 -29.35 -102.65 -29.35 Q-101.9 -28.9 -101.55 -29.0 L-101.15 -28.9 Q-99.95 -28.0 -98.35 -28.0 -97.7 -28.0 -97.6 -28.65 L-97.35 -28.95 Q-95.75 -29.65 -96.7 -31.3 L-96.95 -31.95 -97.1 -32.2 -97.6 -32.95 -96.85 -33.2 -96.6 -33.2 Q-97.2 -34.15 -98.35 -34.7 -100.1 -35.65 -98.6 -36.5 L-98.35 -36.6 Q-97.5 -36.65 -97.0 -36.0 -96.85 -35.8 -96.6 -35.75 L-94.8 -35.05 Q-93.8 -34.65 -93.75 -35.45 L-93.65 -35.95 -92.6 -39.45 Q-92.4 -40.0 -91.85 -39.45 L-90.55 -38.55 -90.15 -38.55 -89.6 -38.95 Q-89.0 -39.7 -87.65 -39.25 L-87.4 -38.95 Q-87.05 -37.4 -85.35 -37.9 -85.15 -37.95 -85.0 -38.15 -84.65 -38.45 -84.6 -39.2 -84.55 -39.95 -85.55 -40.25 L-86.85 -40.65 -87.85 -40.95 Q-88.3 -41.1 -88.75 -41.35 L-88.9 -41.65 -89.1 -41.95 Q-89.6 -42.6 -88.6 -42.85 L-86.5 -42.75 -85.05 -41.95 Q-84.6 -42.35 -84.85 -43.45 -85.2 -45.0 -84.95 -46.7 L-84.45 -47.9 Q-84.15 -48.35 -83.6 -48.1 -83.1 -47.9 -82.95 -47.5 L-82.5 -46.5 -82.0 -46.0 Q-81.45 -45.6 -81.35 -45.0 L-81.1 -44.65 -80.75 -44.25 -80.3 -43.9 -80.05 -43.7 -79.2 -45.9 Q-78.9 -46.8 -78.0 -47.05 -77.2 -45.8 -77.65 -45.1 L-77.85 -44.45 Q-77.9 -43.6 -77.55 -42.95 -76.85 -43.35 -76.4 -44.1 L-76.05 -44.5 -74.55 -45.15 Q-74.0 -45.3 -73.75 -44.75 L-73.55 -44.55 -72.4 -43.8 -72.15 -43.8 -71.55 -44.45 Q-70.5 -46.2 -69.05 -47.2 L-68.8 -44.7 Q-68.6 -43.35 -67.05 -43.45 L-67.0 -43.2 Q-66.85 -41.9 -67.6 -41.25 -68.45 -40.4 -68.45 -39.2 L-68.25 -38.75 Q-67.75 -38.1 -67.25 -38.0 L-66.75 -38.1 -66.3 -38.15 Q-65.2 -38.05 -65.05 -39.15 L-64.8 -39.45 Q-63.85 -40.0 -63.9 -41.45 L-63.85 -41.7 -63.55 -42.2 Q-62.85 -42.05 -62.25 -41.5 -61.9 -41.1 -62.05 -40.2 L-59.95 -41.3 -58.8 -41.7 -57.25 -42.05 Q-56.35 -40.8 -57.35 -40.0 L-58.25 -39.15 -58.45 -38.7 Q-58.95 -36.0 -56.3 -35.95 L-55.8 -35.9 Q-55.0 -35.75 -54.25 -35.0 L-53.35 -34.15 -53.0 -33.7 -52.75 -33.5 Q-51.35 -32.8 -51.0 -34.0 L-51.05 -34.7 Q-51.4 -35.5 -52.25 -36.05 -52.9 -36.45 -52.85 -37.2 L-52.65 -37.85 -52.3 -38.1 -50.6 -38.05 -49.75 -37.75 Q-49.25 -37.55 -49.15 -37.9 L-48.85 -38.25 Q-48.5 -38.5 -48.45 -39.2 L-48.3 -39.45 Q-47.7 -40.3 -46.6 -39.65 L-46.0 -39.3 -45.4 -39.4 -45.1 -40.0 Q-44.45 -40.8 -43.1 -40.5 L-42.75 -40.3 Q-41.85 -39.5 -41.7 -38.45 L-41.4 -37.8 -41.2 -37.5 Q-41.05 -37.2 -40.55 -37.1 L-40.3 -36.95 -39.75 -36.8 -38.95 -38.5 -38.9 -38.95 -39.15 -40.05 -39.4 -40.95 -39.45 -41.25 -39.7 -43.25 -39.35 -43.4 -38.5 -43.65 Q-38.2 -43.8 -38.2 -44.2 -38.2 -47.4 -37.65 -50.4 L-37.35 -50.6 -36.15 -50.9 -35.85 -51.2 Q-35.4 -52.2 -35.5 -53.45 L-35.4 -56.4 -35.2 -57.0 Q-34.85 -57.6 -34.1 -57.65 -32.5 -57.8 -32.45 -56.2 -32.4 -55.2 -31.6 -55.1 -31.35 -55.05 -31.15 -55.25 L-30.85 -55.7 Q-30.35 -56.8 -29.35 -56.9 -28.75 -56.9 -28.75 -56.2 L-28.65 -55.45 Q-28.4 -54.4 -28.7 -53.85 L-28.9 -53.2 -29.1 -52.7 -29.35 -51.7 Q-27.8 -51.45 -27.0 -52.1 L-26.65 -52.1 -26.15 -51.65 Q-25.55 -50.75 -26.05 -50.15 L-26.3 -49.7 Q-26.85 -47.7 -28.2 -46.3 L-28.45 -46.0 -28.45 -45.0 -28.1 -44.45 Q-27.15 -43.45 -27.2 -42.2 L-27.25 -41.95 Q-27.5 -41.05 -26.6 -41.2 L-25.35 -41.45 Q-24.3 -41.65 -23.85 -40.7 -23.45 -39.95 -23.8 -38.75 L-24.05 -38.15 -24.35 -37.7 Q-24.75 -36.85 -24.75 -35.7 L-24.65 -35.4 -24.5 -35.0 -24.15 -34.4 -23.85 -33.95 Q-23.6 -33.2 -22.4 -33.55 L-21.3 -33.85 -20.85 -33.9 Q-19.85 -33.55 -19.3 -32.45 -18.15 -29.95 -16.6 -28.7 -15.8 -28.05 -15.0 -29.15 -14.7 -29.6 -14.1 -29.45 L-12.95 -29.0 -12.75 -28.7 -12.6 -28.45 Q-12.05 -27.7 -12.1 -26.7 L-12.1 -24.45 -9.35 -24.9 Q-7.6 -25.25 -7.8 -23.75 -7.85 -23.3 -8.3 -22.9 L-8.55 -22.45 Q-8.85 -21.0 -7.8 -20.55 L-5.55 -19.5 -4.85 -19.2 -4.35 -18.95 Q-4.3 -20.35 -3.1 -20.55 L-2.6 -20.4 -0.4 -19.05 Q-0.15 -18.95 -0.2 -18.75 -0.3 -18.3 -0.6 -18.0 L-0.9 -17.6 -1.05 -16.95 Q-1.15 -15.6 0.15 -15.15 L0.45 -14.95 Q0.8 -14.45 0.75 -13.45" fill="url(#gradient4)" fill-rule="evenodd" stroke="none"/>
    <path d="M-144.85 -55.7 L-144.35 -58.7 Q-143.35 -58.8 -142.75 -57.75 L-142.15 -56.65 -141.65 -55.65 -141.5 -55.25 -141.1 -54.7 -140.35 -54.65 Q-139.4 -54.8 -138.95 -54.05 L-138.35 -53.45 -138.1 -53.3 -137.6 -53.35 -136.35 -53.55 Q-136.1 -53.55 -135.95 -53.75 -135.4 -54.4 -135.3 -55.2 L-134.65 -55.85 -133.85 -55.95 Q-133.7 -55.95 -133.55 -55.75 L-132.8 -55.0 Q-132.2 -54.5 -131.95 -53.75 L-131.6 -53.45 -130.8 -54.65 Q-130.05 -56.1 -128.85 -55.45 L-127.45 -54.75 -127.25 -54.5 Q-126.9 -53.75 -126.95 -52.45 L-126.85 -52.2 -125.45 -50.8 -125.45 -50.5 -126.05 -48.95 Q-126.2 -48.2 -125.6 -47.7 L-124.45 -47.6 -124.1 -47.7 -122.35 -47.85 -120.6 -48.0 Q-119.9 -48.0 -119.9 -47.45 -119.85 -46.4 -119.15 -45.6 L-118.95 -45.3 -118.55 -45.0 -118.15 -44.85 -117.75 -44.5 -116.9 -43.6 Q-116.25 -42.95 -116.2 -41.95 L-116.05 -41.7 Q-115.35 -41.0 -114.8 -39.95 L-114.5 -39.55 -114.4 -39.5 -145.85 -36.75 -145.6 -52.45 Q-145.0 -52.5 -144.85 -53.2 L-144.85 -55.7" fill="url(#gradient5)" fill-rule="evenodd" stroke="none"/>
    <path d="M113.2 -0.65 Q113.6 -0.2 113.45 0.8 113.4 1.3 113.65 1.65 L113.7 2.05 Q113.55 3.1 114.5 3.15 L114.75 3.2 Q115.9 3.45 115.9 2.3 L115.9 1.8 Q115.9 1.25 116.45 0.95 L117.95 0.75 118.2 1.05 119.0 2.3 119.25 2.45 Q119.75 2.55 119.95 2.25 L120.5 1.3 120.8 0.85 Q121.85 -0.3 123.3 -0.55 124.15 0.75 124.15 2.3 L124.75 2.05 Q125.5 2.5 125.55 3.55 L125.65 4.8 125.55 5.6 Q125.25 6.05 125.25 6.8 125.25 7.3 125.75 7.8 126.25 8.45 127.5 8.35 128.25 8.3 128.35 7.55 L128.6 6.85 129.05 5.55 Q129.2 4.75 129.65 4.45 L130.1 4.15 130.75 3.75 131.0 3.55 131.65 5.6 131.75 6.05 131.75 6.55 134.2 4.5 134.75 4.3 Q135.9 4.35 135.35 5.6 L134.4 7.75 134.15 8.5 134.05 9.3 Q134.05 10.1 134.75 10.3 135.25 10.45 135.55 10.75 L137.15 12.4 137.35 12.8 137.4 13.05 137.5 13.8 140.75 13.55 Q140.1 14.95 138.6 15.5 138.5 15.55 138.55 15.8 138.85 17.1 140.5 16.8 L142.5 16.3 Q142.05 14.8 142.25 13.8 142.35 13.25 143.0 13.2 143.95 13.05 143.9 12.05 L143.7 11.6 Q142.5 10.35 141.0 9.95 140.15 9.75 140.25 8.8 142.25 8.25 144.25 8.75 L144.5 8.8 144.7 7.05 Q146.1 6.55 146.95 7.25 L147.85 7.9 148.15 8.3 Q148.5 9.15 149.4 8.95 149.6 8.95 149.6 8.55 149.75 7.4 150.3 6.9 L150.7 6.75 Q152.0 6.5 152.25 7.6 L152.2 8.05 Q151.8 8.95 152.15 9.95 L152.45 10.1 Q153.25 10.2 153.45 10.55 L153.8 9.4 Q153.85 9.3 154.15 9.15 L154.7 8.8 Q155.5 8.05 156.55 7.7 L156.55 46.65 Q155.75 46.75 155.15 47.15 153.9 47.85 153.25 48.8 L152.9 47.95 152.7 47.6 152.4 46.95 152.25 46.3 Q152.25 46.2 152.1 46.2 151.85 46.2 151.5 46.45 L151.05 46.85 Q150.1 48.05 149.6 49.55 L149.4 49.3 Q148.5 47.8 147.0 46.95 L146.05 46.4 145.1 46.2 Q144.5 46.25 144.4 46.7 L144.4 46.9 145.2 48.45 146.1 50.2 145.0 49.85 Q144.3 49.65 143.8 49.15 143.15 48.55 142.35 48.6 L141.75 48.65 Q140.9 48.65 140.35 49.2 140.05 49.55 140.5 49.75 L141.1 50.0 142.05 50.5 143.55 51.3 143.1 51.3 142.35 51.25 140.85 51.05 137.45 51.3 136.95 51.4 135.1 51.75 134.6 51.9 133.95 51.9 132.1 51.95 Q132.1 51.55 132.25 51.25 L132.55 50.3 132.6 50.15 130.85 50.05 130.65 50.1 129.35 50.95 129.35 50.7 Q129.4 49.95 129.7 49.3 L130.1 48.45 129.1 48.7 128.2 49.2 127.5 50.0 127.35 50.35 127.2 50.05 126.95 49.7 126.7 49.05 126.55 48.05 126.2 47.05 125.85 47.35 125.65 47.5 125.05 48.3 124.95 48.45 Q124.55 49.15 124.7 50.05 124.75 50.7 124.6 50.55 123.9 50.2 123.3 49.45 L123.0 49.0 Q122.5 48.2 121.45 48.05 L121.45 48.3 Q121.35 49.4 121.55 50.45 121.7 51.1 121.45 51.45 L121.1 51.15 120.2 50.45 119.95 50.35 118.1 49.6 117.4 49.55 117.5 49.8 117.65 50.1 118.4 51.45 118.5 51.7 Q118.55 52.2 118.85 52.3 L117.4 51.85 117.25 51.75 Q115.45 50.75 113.45 50.8 L113.7 50.95 114.7 51.95 115.1 52.7 Q114.3 52.8 113.6 52.35 L111.35 52.2 110.7 52.15 107.95 51.9 105.85 51.9 104.7 52.05 104.45 52.15 101.1 52.6 101.15 52.05 101.25 51.85 102.35 50.7 102.6 50.5 Q103.15 50.25 103.2 49.8 L100.35 49.9 100.0 50.05 99.35 50.2 98.9 50.25 97.95 50.95 97.55 51.3 Q97.4 51.5 97.2 51.3 L97.15 50.55 97.3 49.7 97.45 49.35 98.6 46.7 97.6 46.85 96.7 47.2 96.5 47.35 96.05 47.9 95.2 48.7 93.95 50.05 93.45 51.2 93.35 51.8 93.05 51.2 93.0 50.95 91.6 49.95 91.3 49.75 Q90.6 48.95 89.6 48.65 L88.65 48.2 Q88.1 47.85 87.85 48.05 L88.35 49.2 88.5 49.4 89.35 50.7 89.95 52.05 90.05 52.45 90.1 52.6 Q89.3 51.45 87.85 51.0 L87.45 50.9 85.2 50.65 83.95 50.8 84.3 51.1 85.4 52.15 Q86.35 53.15 86.95 54.3 L86.85 54.2 86.7 54.05 86.55 53.9 Q85.7 53.5 84.7 53.45 L83.2 53.5 82.0 53.7 81.45 53.8 Q83.65 53.9 85.3 55.25 L85.8 55.75 86.35 56.3 84.95 56.15 84.6 56.1 80.85 56.4 80.5 56.45 79.2 56.65 Q77.85 57.25 76.95 57.9 L76.75 58.1 Q76.25 58.6 75.35 58.55 L74.6 58.55 Q74.05 58.6 73.95 58.3 74.15 57.9 74.5 57.45 75.05 56.8 75.7 56.55 L75.35 56.5 73.2 56.4 71.6 56.6 71.1 56.75 69.35 57.45 68.85 57.45 69.4 56.45 Q69.75 55.8 70.35 55.55 L71.7 54.45 71.95 54.3 Q72.65 54.15 72.95 53.55 L72.7 53.55 70.35 53.7 69.9 53.85 67.7 55.05 67.5 55.25 66.9 55.85 66.6 56.05 Q66.2 56.6 66.1 57.3 L65.8 56.2 65.75 55.95 65.75 55.75 66.0 55.05 66.05 54.8 66.0 54.45 65.95 52.3 66.05 52.0 66.15 51.45 66.1 51.2 Q65.6 51.35 65.35 51.8 L65.15 52.0 64.9 52.25 63.85 53.55 63.3 54.8 Q63.2 55.0 63.25 55.3 L63.4 56.2 63.55 56.65 Q63.8 57.25 63.45 57.45 L63.25 57.05 Q62.75 55.8 61.35 54.85 L60.2 54.05 Q59.45 53.4 58.6 53.05 L58.95 53.7 59.05 53.8 Q60.4 55.85 61.35 58.05 61.0 57.95 60.7 57.7 L60.6 57.55 Q60.15 57.2 59.35 56.8 L58.7 56.5 54.6 56.3 54.95 57.0 55.3 57.15 55.5 57.25 Q56.1 57.5 56.7 58.05 L57.2 58.3 Q58.55 58.4 58.95 59.3 L58.6 59.15 58.45 59.1 57.35 59.0 54.1 58.7 53.7 58.75 53.35 58.85 Q52.4 58.9 51.95 59.45 L52.85 59.55 53.1 59.7 55.45 60.95 54.8 61.0 53.55 61.15 51.95 61.0 51.45 60.95 47.3 60.7 46.2 60.65 Q44.45 60.45 43.05 61.45 L43.1 59.95 43.15 59.7 Q43.55 58.55 44.2 57.8 L43.2 57.8 42.95 57.85 Q42.2 58.1 41.45 58.5 L40.55 59.2 40.25 59.65 40.05 60.05 Q39.9 59.15 40.2 58.2 L40.35 57.85 Q41.1 56.95 41.2 55.7 L40.3 55.8 38.8 56.45 38.6 56.6 37.2 58.45 37.1 58.55 36.9 58.9 Q36.6 59.35 36.6 59.95 L36.5 60.95 36.5 61.05 36.3 60.7 36.1 60.3 35.25 58.75 Q34.5 57.6 34.0 56.3 L33.45 55.55 33.3 55.8 33.2 56.05 Q32.7 58.1 33.0 60.3 L33.1 60.8 Q33.3 61.3 33.05 61.45 L32.25 60.35 30.95 59.3 30.45 59.05 27.2 57.55 26.7 57.4 26.45 57.35 27.1 58.0 Q28.2 59.15 29.55 59.9 L31.0 61.3 31.1 61.55 31.25 61.9 31.05 61.8 30.85 61.65 Q30.2 61.0 29.05 60.95 L27.7 60.9 Q24.75 60.75 21.95 61.55 L21.8 61.55 23.45 62.05 25.45 62.55 Q26.3 62.8 26.4 63.55 L25.55 63.45 24.55 63.5 20.55 63.65 16.05 63.8 13.8 64.05 13.2 64.25 12.85 64.4 Q11.95 64.75 11.65 65.45 11.6 65.05 11.8 64.7 L12.1 64.05 13.2 62.35 14.8 60.3 14.05 60.55 13.8 60.65 13.15 60.8 12.6 61.1 11.4 61.45 10.85 61.75 10.75 61.85 10.3 62.3 8.4 63.95 8.3 64.05 8.8 61.95 8.85 61.45 Q8.85 60.45 9.2 59.55 L9.65 57.8 9.35 58.0 Q8.7 58.2 8.05 58.7 7.6 59.05 7.2 59.5 L6.5 60.3 Q5.95 60.9 5.7 61.7 L5.1 63.3 4.95 63.8 4.9 64.45 Q4.35 63.25 2.8 62.55 2.35 62.4 1.95 62.1 0.55 61.1 -1.1 60.55 L-0.35 61.7 0.6 62.9 0.8 63.35 1.25 64.45 1.7 65.3 0.95 64.4 0.75 64.25 -0.15 63.5 -0.6 63.25 -3.85 63.25 Q-5.35 63.25 -6.45 64.05 L-5.7 64.7 -5.1 65.1 -4.1 65.5 -3.75 65.65 -0.85 67.3 -0.6 67.7 -1.95 67.45 -3.1 67.3 -4.2 67.25 Q-5.6 67.05 -6.45 67.95 L-6.1 67.95 -5.6 68.0 Q-4.55 68.2 -3.95 68.75 L-4.2 68.85 Q-4.65 69.0 -5.1 69.25 L-7.6 70.35 -8.7 70.8 -8.95 70.95 -10.1 72.05 -10.1 87.15 -101.6 76.4 -83.6 62.7 -83.35 62.65 -82.85 62.55 Q-82.3 62.2 -82.35 61.3 L-82.2 60.9 -81.05 60.15 -78.6 59.8 -78.15 59.7 Q-77.1 59.25 -76.6 58.55 L-75.5 57.1 -75.2 57.0 Q-74.2 57.4 -73.85 56.8 L-72.45 56.2 -70.1 56.6 -68.85 56.45 -68.6 56.45 -68.35 56.55 -66.4 57.65 -65.55 57.95 Q-64.8 58.2 -64.6 58.55 -64.0 59.4 -62.85 59.25 L-61.85 59.1 Q-60.1 58.9 -60.9 57.55 L-61.0 57.3 Q-61.15 56.65 -60.6 56.6 L-58.6 56.3 -58.65 55.8 -58.7 55.3 -58.55 54.85 Q-58.05 54.3 -57.35 54.1 -56.65 53.9 -56.9 53.05 L-56.9 52.75 Q-56.35 52.15 -56.85 51.55 L-56.35 51.7 -55.4 51.95 Q-54.6 52.2 -54.6 52.8 L-54.15 53.65 -53.35 54.2 Q-52.6 54.25 -52.6 53.55 L-52.5 53.1 -52.4 52.75 -53.55 51.25 -53.9 50.9 Q-54.65 50.3 -54.05 49.55 L-53.55 49.15 -53.15 49.15 -52.55 49.4 -51.2 50.0 -50.35 50.1 -50.1 50.05 Q-50.15 49.65 -49.9 49.85 -48.9 50.7 -48.65 51.8 L-48.4 52.35 Q-48.2 52.55 -48.35 53.05 -48.5 53.6 -48.1 53.6 L-45.35 53.55 Q-45.7 52.9 -45.7 51.85 -45.3 50.8 -44.1 51.0 -42.8 51.25 -41.4 51.85 L-41.05 52.0 -40.65 52.15 -40.05 52.35 -38.6 52.65 Q-37.45 52.8 -37.05 52.05 L-36.85 51.8 Q-36.4 51.4 -35.35 51.5 L-33.85 51.65 Q-33.15 51.75 -33.1 51.3 -33.5 50.15 -34.05 49.7 L-36.1 48.0 -36.6 47.6 Q-37.25 47.05 -36.4 46.25 L-36.05 46.0 Q-35.1 45.85 -34.1 46.0 L-33.85 46.05 Q-33.85 45.05 -33.1 45.05 L-32.7 45.15 -32.3 45.5 -30.55 45.6 -30.15 45.5 -29.1 45.65 -28.35 45.7 -27.25 45.5 Q-27.55 45.35 -27.65 44.8 -27.9 43.2 -28.9 41.85 L-29.25 41.25 -29.35 40.8 -29.35 40.55 Q-29.05 40.1 -28.1 40.3 -26.6 40.65 -26.6 42.3 L-26.2 41.5 Q-25.55 40.45 -24.55 39.6 -24.15 39.25 -23.8 39.45 L-23.35 39.6 Q-22.25 39.75 -22.25 40.8 L-22.2 41.3 -22.1 42.8 Q-21.5 42.45 -20.55 42.35 L-20.05 42.45 Q-19.5 42.75 -19.15 43.55 -18.85 44.4 -18.3 44.7 L-17.85 44.8 -16.1 44.8 -17.0 42.25 -17.2 41.9 -17.6 41.55 -15.6 41.5 -13.6 42.3 -13.25 42.55 -13.15 42.45 -12.85 42.05 Q-12.4 41.4 -11.6 41.3 L-11.05 41.1 Q-10.25 42.2 -10.1 43.55 L-9.9 44.1 Q-9.55 44.5 -8.6 44.3 L-6.85 44.1 -5.6 44.3 Q-4.95 44.5 -4.85 45.05 L-8.6 46.55 Q-9.3 46.85 -9.0 48.05 -8.85 48.75 -8.1 48.85 -5.3 49.35 -2.6 48.75 L-2.1 48.65 -0.9 48.35 -0.75 48.1 -1.15 47.05 -2.35 44.55 Q-1.55 43.95 -0.35 44.8 L0.65 45.55 Q0.5 43.65 -0.5 42.0 L-0.75 41.05 -0.85 39.3 Q1.55 39.8 3.0 42.0 3.15 42.35 3.15 41.3 L3.25 39.05 3.4 38.8 Q4.05 38.3 4.85 38.5 5.15 38.55 5.35 38.85 L5.85 39.8 Q6.55 41.9 8.4 42.55 8.9 42.15 8.75 41.05 L8.65 39.8 Q8.65 39.1 8.2 38.5 7.8 38.0 7.8 37.3 L7.7 36.55 7.65 36.3 9.25 37.45 9.55 37.65 9.9 38.05 Q10.7 37.4 10.55 36.3 L10.55 35.3 Q10.55 33.95 10.95 32.8 L11.2 32.3 11.3 32.05 Q11.35 31.65 11.9 31.8 12.9 33.2 13.4 35.3 L13.85 36.15 14.05 36.45 14.45 36.8 14.95 37.3 15.4 36.3 Q15.45 35.95 15.65 35.75 15.85 35.55 16.2 35.5 17.0 35.4 17.35 36.1 L18.25 37.5 Q19.0 38.35 20.2 38.0 20.85 37.8 20.8 37.05 20.45 34.45 21.2 32.3 21.75 32.3 22.15 32.85 L22.45 33.3 23.2 34.8 23.85 34.25 Q24.55 33.35 25.95 33.15 27.15 32.95 27.05 34.3 L27.05 37.05 27.2 37.25 29.25 37.2 29.95 37.05 Q31.3 37.05 31.95 37.8 L32.1 38.05 Q32.25 38.95 31.75 39.35 31.0 40.1 29.45 39.95 L28.7 40.0 Q27.75 40.2 27.5 40.6 26.9 41.4 27.45 42.05 28.0 42.75 28.7 42.9 L28.9 43.1 Q29.1 43.5 29.7 43.8 29.75 42.65 30.35 41.95 L30.55 41.7 31.2 41.65 Q32.15 41.85 32.95 42.55 L33.55 41.55 33.7 41.3 35.45 41.1 Q36.8 41.35 36.4 43.05 L36.15 44.05 36.0 44.55 35.95 44.8 37.7 44.55 38.7 44.3 Q40.4 44.05 41.6 44.9 L41.95 45.3 Q42.65 46.75 40.95 47.15 L38.95 47.8 Q37.9 48.25 38.15 50.05 38.3 51.1 39.45 51.4 L39.7 51.55 Q40.3 52.15 40.3 51.3 L42.7 51.15 42.95 51.2 43.7 51.3 Q44.5 49.55 45.95 49.1 L46.8 49.2 47.2 49.3 Q48.2 49.3 48.75 49.75 49.05 50.0 49.7 49.75 L50.15 49.75 50.75 49.9 51.45 50.15 51.7 50.2 Q52.65 50.5 52.4 49.55 52.1 48.45 52.4 47.35 L52.7 47.0 Q53.7 46.35 54.5 47.25 55.1 47.9 55.65 47.25 56.8 45.95 55.4 45.1 54.3 44.4 52.95 44.4 52.5 43.8 52.65 43.1 52.7 42.8 53.0 42.65 L55.25 42.7 55.7 42.8 Q56.45 42.8 56.15 41.85 L55.95 41.55 Q55.35 40.7 55.05 39.75 54.95 39.45 55.1 39.1 L55.5 38.6 Q57.05 37.45 58.35 38.6 L58.95 38.8 59.45 38.8 Q58.75 35.8 58.95 32.55 L60.95 32.85 61.45 33.05 Q61.4 31.5 62.7 31.55 L63.25 31.7 63.7 31.85 Q64.95 32.0 66.05 32.6 L66.95 32.85 Q68.1 33.0 68.9 32.45 69.35 32.15 69.35 31.55 L69.35 31.3 69.3 31.05 Q69.1 29.55 69.7 28.3 70.1 27.6 70.95 27.5 L71.9 27.6 Q72.75 27.95 72.6 29.05 L72.6 29.3 Q72.6 29.8 72.95 30.05 L74.2 28.8 Q74.95 27.45 77.2 27.55 L77.65 27.65 Q77.2 28.8 76.3 29.45 L76.2 29.8 Q76.2 30.8 76.65 31.35 L77.0 31.75 Q77.45 32.2 78.5 32.15 79.95 32.15 80.65 31.45 L80.65 31.1 80.15 30.2 80.05 29.55 Q80.25 28.1 81.5 28.85 L81.75 28.95 82.25 28.9 83.75 28.7 85.0 28.3 Q84.4 27.45 84.6 26.05 L84.8 25.85 86.75 25.05 Q87.45 25.15 88.0 24.3 L89.0 23.05 86.5 22.7 Q85.15 22.75 84.1 22.1 L84.1 21.85 Q84.4 21.15 85.25 20.8 L85.75 20.55 Q86.2 20.35 85.95 19.55 L85.75 19.05 Q85.2 17.9 83.7 18.35 L83.35 18.25 82.85 17.35 82.55 16.55 82.5 16.3 Q83.6 15.6 85.0 15.65 L85.75 15.7 88.25 16.3 Q88.15 14.8 89.05 14.4 L89.5 14.3 91.7 14.1 92.0 13.8 Q92.65 12.8 92.45 11.55 92.15 10.0 93.75 9.85 94.65 9.75 94.4 10.8 L94.75 11.35 94.95 11.55 Q95.25 12.2 96.05 11.65 L96.75 11.25 97.25 10.55 97.95 8.65 98.25 8.6 98.75 8.75 Q99.75 9.05 100.2 8.4 L100.45 8.2 101.0 7.55 Q101.2 7.15 102.0 7.15 L102.7 7.0 103.85 6.95 104.25 7.35 104.45 7.55 105.65 7.6 105.8 7.3 Q105.9 6.25 105.05 6.1 L104.2 5.9 103.5 5.75 Q102.4 5.65 102.65 4.05 102.75 3.65 103.25 3.7 L105.75 3.9 106.25 4.05 Q107.65 4.8 107.7 3.05 L107.65 1.3 107.5 1.1 Q106.85 0.75 106.95 -0.2 L107.25 -2.7 Q108.4 -2.6 108.8 -1.95 109.4 -0.95 110.25 -0.2 L110.5 0.05 Q111.0 0.75 111.55 -0.2 L111.7 -0.45 111.8 -0.95 Q111.85 -1.6 112.65 -1.25 L112.85 -1.05 113.2 -0.65 M-13.25 42.55 Q-13.8 43.1 -12.85 43.55 -12.8 42.95 -13.25 42.55" fill="url(#gradient6)" fill-rule="evenodd" stroke="none"/>
    <path d="M-10.1 72.05 L-8.95 70.95 -8.7 70.8 -7.6 70.35 -5.1 69.25 Q-4.65 69.0 -4.2 68.85 L-3.95 68.75 Q-4.55 68.2 -5.6 68.0 L-6.1 67.95 -6.45 67.95 Q-5.6 67.05 -4.2 67.25 L-3.1 67.3 -1.95 67.45 -0.6 67.7 -0.85 67.3 -3.75 65.65 -4.1 65.5 -5.1 65.1 -5.7 64.7 -6.45 64.05 Q-5.35 63.25 -3.85 63.25 L-0.6 63.25 -0.15 63.5 0.75 64.25 0.95 64.4 1.7 65.3 1.25 64.45 0.8 63.35 0.6 62.9 -0.35 61.7 -1.1 60.55 Q0.55 61.1 1.95 62.1 2.35 62.4 2.8 62.55 4.35 63.25 4.9 64.45 L4.95 63.8 5.1 63.3 5.7 61.7 Q5.95 60.9 6.5 60.3 L7.2 59.5 Q7.6 59.05 8.05 58.7 8.7 58.2 9.35 58.0 L9.65 57.8 9.2 59.55 Q8.85 60.45 8.85 61.45 L8.8 61.95 8.3 64.05 8.4 63.95 10.3 62.3 10.75 61.85 10.85 61.75 11.4 61.45 12.6 61.1 13.15 60.8 13.8 60.65 14.05 60.55 14.8 60.3 13.2 62.35 12.1 64.05 11.8 64.7 Q11.6 65.05 11.65 65.45 11.95 64.75 12.85 64.4 L13.2 64.25 13.8 64.05 16.05 63.8 20.55 63.65 24.55 63.5 25.55 63.45 26.4 63.55 Q26.3 62.8 25.45 62.55 L23.45 62.05 21.8 61.55 21.95 61.55 Q24.75 60.75 27.7 60.9 L29.05 60.95 Q30.2 61.0 30.85 61.65 L31.05 61.8 31.25 61.9 31.1 61.55 31.0 61.3 29.55 59.9 Q28.2 59.15 27.1 58.0 L26.45 57.35 26.7 57.4 27.2 57.55 30.45 59.05 30.95 59.3 32.25 60.35 33.05 61.45 Q33.3 61.3 33.1 60.8 L33.0 60.3 Q32.7 58.1 33.2 56.05 L33.3 55.8 33.45 55.55 34.0 56.3 Q34.5 57.6 35.25 58.75 L36.1 60.3 36.3 60.7 36.5 61.05 36.5 60.95 36.6 59.95 Q36.6 59.35 36.9 58.9 L37.1 58.55 37.2 58.45 38.6 56.6 38.8 56.45 40.3 55.8 41.2 55.7 Q41.1 56.95 40.35 57.85 L40.2 58.2 Q39.9 59.15 40.05 60.05 L40.25 59.65 40.55 59.2 41.45 58.5 Q42.2 58.1 42.95 57.85 L43.2 57.8 44.2 57.8 Q43.55 58.55 43.15 59.7 L43.1 59.95 43.05 61.45 Q44.45 60.45 46.2 60.65 L47.3 60.7 51.45 60.95 51.95 61.0 53.55 61.15 54.8 61.0 55.45 60.95 53.1 59.7 52.85 59.55 51.95 59.45 Q52.4 58.9 53.35 58.85 L53.7 58.75 54.1 58.7 57.35 59.0 58.45 59.1 58.6 59.15 58.95 59.3 Q58.55 58.4 57.2 58.3 L56.7 58.05 Q56.1 57.5 55.5 57.25 L55.3 57.15 54.95 57.0 54.6 56.3 58.7 56.5 59.35 56.8 Q60.15 57.2 60.6 57.55 L60.7 57.7 Q61.0 57.95 61.35 58.05 60.4 55.85 59.05 53.8 L58.95 53.7 58.6 53.05 Q59.45 53.4 60.2 54.05 L61.35 54.85 Q62.75 55.8 63.25 57.05 L63.45 57.45 Q63.8 57.25 63.55 56.65 L63.4 56.2 63.25 55.3 Q63.2 55.0 63.3 54.8 L63.85 53.55 64.9 52.25 65.15 52.0 65.35 51.8 Q65.6 51.35 66.1 51.2 L66.15 51.45 66.05 52.0 65.95 52.3 66.0 54.45 66.05 54.8 66.0 55.05 65.75 55.75 65.75 55.95 65.8 56.2 66.1 57.3 Q66.2 56.6 66.6 56.05 L66.9 55.85 67.5 55.25 67.7 55.05 69.9 53.85 70.35 53.7 72.7 53.55 72.95 53.55 Q72.65 54.15 71.95 54.3 L71.7 54.45 70.35 55.55 Q69.75 55.8 69.4 56.45 L68.85 57.45 69.35 57.45 71.1 56.75 71.6 56.6 73.2 56.4 75.35 56.5 75.7 56.55 Q75.05 56.8 74.5 57.45 74.15 57.9 73.95 58.3 74.05 58.6 74.6 58.55 L75.35 58.55 Q76.25 58.6 76.75 58.1 L76.95 57.9 Q77.85 57.25 79.2 56.65 L80.5 56.45 80.85 56.4 84.6 56.1 84.95 56.15 86.35 56.3 85.8 55.75 85.3 55.25 Q83.65 53.9 81.45 53.8 L82.0 53.7 83.2 53.5 84.7 53.45 Q85.7 53.5 86.55 53.9 L86.7 54.05 86.85 54.2 86.95 54.3 Q86.35 53.15 85.4 52.15 L84.3 51.1 83.95 50.8 85.2 50.65 87.45 50.9 87.85 51.0 Q89.3 51.45 90.1 52.6 L90.05 52.45 89.95 52.05 89.35 50.7 88.5 49.4 88.35 49.2 87.85 48.05 Q88.1 47.85 88.65 48.2 L89.6 48.65 Q90.6 48.95 91.3 49.75 L91.6 49.95 93.0 50.95 93.05 51.2 93.35 51.8 93.45 51.2 93.95 50.05 95.2 48.7 96.05 47.9 96.5 47.35 96.7 47.2 97.6 46.85 98.6 46.7 97.45 49.35 97.3 49.7 97.15 50.55 97.2 51.3 Q97.4 51.5 97.55 51.3 L97.95 50.95 98.9 50.25 99.35 50.2 100.0 50.05 100.35 49.9 103.2 49.8 Q103.15 50.25 102.6 50.5 L102.35 50.7 101.25 51.85 101.15 52.05 101.1 52.6 104.45 52.15 104.7 52.05 105.85 51.9 107.95 51.9 110.7 52.15 111.35 52.2 113.6 52.35 Q114.3 52.8 115.1 52.7 L114.7 51.95 113.7 50.95 113.45 50.8 Q115.45 50.75 117.25 51.75 L117.4 51.85 118.85 52.3 Q118.55 52.2 118.5 51.7 L118.4 51.45 117.65 50.1 117.5 49.8 117.4 49.55 118.1 49.6 119.95 50.35 120.2 50.45 121.1 51.15 121.45 51.45 Q121.7 51.1 121.55 50.45 121.35 49.4 121.45 48.3 L121.45 48.05 Q122.5 48.2 123.0 49.0 L123.3 49.45 Q123.9 50.2 124.6 50.55 124.75 50.7 124.7 50.05 124.55 49.15 124.95 48.45 L125.05 48.3 125.65 47.5 125.85 47.35 126.2 47.05 126.55 48.05 126.7 49.05 126.95 49.7 127.2 50.05 127.35 50.35 127.5 50.0 128.2 49.2 129.1 48.7 130.1 48.45 129.7 49.3 Q129.4 49.95 129.35 50.7 L129.35 50.95 130.65 50.1 130.85 50.05 132.6 50.15 132.55 50.3 132.25 51.25 Q132.1 51.55 132.1 51.95 L133.95 51.9 134.6 51.9 135.1 51.75 136.95 51.4 137.45 51.3 140.85 51.05 142.35 51.25 143.1 51.3 143.55 51.3 142.05 50.5 141.1 50.0 140.5 49.75 Q140.05 49.55 140.35 49.2 140.9 48.65 141.75 48.65 L142.35 48.6 Q143.15 48.55 143.8 49.15 144.3 49.65 145.0 49.85 L146.1 50.2 145.2 48.45 144.4 46.9 144.4 46.7 Q144.5 46.25 145.1 46.2 L146.05 46.4 147.0 46.95 Q148.5 47.8 149.4 49.3 L149.6 49.55 Q150.1 48.05 151.05 46.85 L151.5 46.45 Q151.85 46.2 152.1 46.2 152.25 46.2 152.25 46.3 L152.4 46.95 152.7 47.6 152.9 47.95 153.25 48.8 Q153.9 47.85 155.15 47.15 155.75 46.75 156.55 46.65 L157.0 46.6 157.35 46.5 157.6 46.45 Q157.95 46.65 157.75 46.9 L157.55 47.45 Q157.35 48.5 157.6 49.55 157.6 49.1 158.05 48.9 L159.5 48.35 160.35 48.2 162.1 48.1 162.35 48.2 162.35 100.8 -10.1 102.3 -10.1 72.05 M144.2 51.3 L143.85 51.3 143.55 51.3 143.85 51.3 144.2 51.3 M90.35 53.05 L90.1 52.6 90.35 53.05 M36.7 61.55 L36.5 61.05 36.7 61.55 M40.2 60.55 L40.05 60.05 40.2 60.55 M2.55 66.55 L1.7 65.3 1.95 65.8 2.0 66.05 Q2.0 66.65 2.55 66.55" fill="url(#gradient7)" fill-rule="evenodd" stroke="none"/>
    <path d="M-10.1 72.05 L-8.95 70.95 -8.7 70.8 -7.6 70.35 -5.1 69.25 Q-4.65 69.0 -4.2 68.85 L-3.95 68.75 Q-4.55 68.2 -5.6 68.0 L-6.1 67.95 -6.45 67.95 Q-5.6 67.05 -4.2 67.25 L-3.1 67.3 -1.95 67.45 -0.6 67.7 -0.85 67.3 -3.75 65.65 -4.1 65.5 -5.1 65.1 -5.7 64.7 -6.45 64.05 Q-5.35 63.25 -3.85 63.25 L-0.6 63.25 -0.15 63.5 0.75 64.25 0.95 64.4 1.7 65.3 1.25 64.45 0.8 63.35 0.6 62.9 -0.35 61.7 -1.1 60.55 Q0.55 61.1 1.95 62.1 2.35 62.4 2.8 62.55 4.35 63.25 4.9 64.45 L4.95 63.8 5.1 63.3 5.7 61.7 Q5.95 60.9 6.5 60.3 L7.2 59.5 Q7.6 59.05 8.05 58.7 8.7 58.2 9.35 58.0 L9.65 57.8 9.2 59.55 Q8.85 60.45 8.85 61.45 L8.8 61.95 8.3 64.05 8.4 63.95 10.3 62.3 10.75 61.85 10.85 61.75 11.4 61.45 12.6 61.1 13.15 60.8 13.8 60.65 14.05 60.55 14.8 60.3 13.2 62.35 12.1 64.05 11.8 64.7 Q11.6 65.05 11.65 65.45 11.95 64.75 12.85 64.4 L13.2 64.25 13.8 64.05 16.05 63.8 20.55 63.65 24.55 63.5 25.55 63.45 26.4 63.55 Q26.3 62.8 25.45 62.55 L23.45 62.05 21.8 61.55 21.95 61.55 Q24.75 60.75 27.7 60.9 L29.05 60.95 Q30.2 61.0 30.85 61.65 L31.05 61.8 31.25 61.9 31.1 61.55 31.0 61.3 29.55 59.9 Q28.2 59.15 27.1 58.0 L26.45 57.35 26.7 57.4 27.2 57.55 30.45 59.05 30.95 59.3 32.25 60.35 33.05 61.45 Q33.3 61.3 33.1 60.8 L33.0 60.3 Q32.7 58.1 33.2 56.05 L33.3 55.8 33.45 55.55 34.0 56.3 Q34.5 57.6 35.25 58.75 L36.1 60.3 36.3 60.7 36.5 61.05 36.5 60.95 36.6 59.95 Q36.6 59.35 36.9 58.9 L37.1 58.55 37.2 58.45 38.6 56.6 38.8 56.45 40.3 55.8 41.2 55.7 Q41.1 56.95 40.35 57.85 L40.2 58.2 Q39.9 59.15 40.05 60.05 L40.25 59.65 40.55 59.2 41.45 58.5 Q42.2 58.1 42.95 57.85 L43.2 57.8 44.2 57.8 Q43.55 58.55 43.15 59.7 L43.1 59.95 43.05 61.45 Q44.45 60.45 46.2 60.65 L47.3 60.7 51.45 60.95 51.95 61.0 53.55 61.15 54.8 61.0 55.45 60.95 53.1 59.7 52.85 59.55 51.95 59.45 Q52.4 58.9 53.35 58.85 L53.7 58.75 54.1 58.7 57.35 59.0 58.45 59.1 58.6 59.15 58.95 59.3 Q58.55 58.4 57.2 58.3 L56.7 58.05 Q56.1 57.5 55.5 57.25 L55.3 57.15 54.95 57.0 54.6 56.3 58.7 56.5 59.35 56.8 Q60.15 57.2 60.6 57.55 L60.7 57.7 Q61.0 57.95 61.35 58.05 60.4 55.85 59.05 53.8 L58.95 53.7 58.6 53.05 Q59.45 53.4 60.2 54.05 L61.35 54.85 Q62.75 55.8 63.25 57.05 L63.45 57.45 Q63.8 57.25 63.55 56.65 L63.4 56.2 63.25 55.3 Q63.2 55.0 63.3 54.8 L63.85 53.55 64.9 52.25 65.15 52.0 65.35 51.8 Q65.6 51.35 66.1 51.2 L66.15 51.45 66.05 52.0 65.95 52.3 66.0 54.45 66.05 54.8 66.0 55.05 65.75 55.75 65.75 55.95 65.8 56.2 66.1 57.3 Q66.2 56.6 66.6 56.05 L66.9 55.85 67.5 55.25 67.7 55.05 69.9 53.85 70.35 53.7 72.7 53.55 72.95 53.55 Q72.65 54.15 71.95 54.3 L71.7 54.45 70.35 55.55 Q69.75 55.8 69.4 56.45 L68.85 57.45 69.35 57.45 71.1 56.75 71.6 56.6 73.2 56.4 75.35 56.5 75.7 56.55 Q75.05 56.8 74.5 57.45 74.15 57.9 73.95 58.3 74.05 58.6 74.6 58.55 L75.35 58.55 Q76.25 58.6 76.75 58.1 L76.95 57.9 Q77.85 57.25 79.2 56.65 L80.5 56.45 80.85 56.4 84.6 56.1 84.95 56.15 86.35 56.3 85.8 55.75 85.3 55.25 Q83.65 53.9 81.45 53.8 L82.0 53.7 83.2 53.5 84.7 53.45 Q85.7 53.5 86.55 53.9 L86.7 54.05 86.85 54.2 86.95 54.3 Q86.35 53.15 85.4 52.15 L84.3 51.1 83.95 50.8 85.2 50.65 87.45 50.9 87.85 51.0 Q89.3 51.45 90.1 52.6 L90.05 52.45 89.95 52.05 89.35 50.7 88.5 49.4 88.35 49.2 87.85 48.05 Q88.1 47.85 88.65 48.2 L89.6 48.65 Q90.6 48.95 91.3 49.75 L91.6 49.95 93.0 50.95 93.05 51.2 93.35 51.8 93.45 51.2 93.95 50.05 95.2 48.7 96.05 47.9 96.5 47.35 96.7 47.2 97.6 46.85 98.6 46.7 97.45 49.35 97.3 49.7 97.15 50.55 97.2 51.3 Q97.4 51.5 97.55 51.3 L97.95 50.95 98.9 50.25 99.35 50.2 100.0 50.05 100.35 49.9 103.2 49.8 Q103.15 50.25 102.6 50.5 L102.35 50.7 101.25 51.85 101.15 52.05 101.1 52.6 104.45 52.15 104.7 52.05 105.85 51.9 107.95 51.9 110.7 52.15 111.35 52.2 113.6 52.35 Q114.3 52.8 115.1 52.7 L114.7 51.95 113.7 50.95 113.45 50.8 Q115.45 50.75 117.25 51.75 L117.4 51.85 118.85 52.3 Q118.55 52.2 118.5 51.7 L118.4 51.45 117.65 50.1 117.5 49.8 117.4 49.55 118.1 49.6 119.95 50.35 120.2 50.45 121.1 51.15 121.45 51.45 Q121.7 51.1 121.55 50.45 121.35 49.4 121.45 48.3 L121.45 48.05 Q122.5 48.2 123.0 49.0 L123.3 49.45 Q123.9 50.2 124.6 50.55 124.75 50.7 124.7 50.05 124.55 49.15 124.95 48.45 L125.05 48.3 125.65 47.5 125.85 47.35 126.2 47.05 126.55 48.05 126.7 49.05 126.95 49.7 127.2 50.05 127.35 50.35 127.5 50.0 128.2 49.2 129.1 48.7 130.1 48.45 129.7 49.3 Q129.4 49.95 129.35 50.7 L129.35 50.95 130.65 50.1 130.85 50.05 132.6 50.15 132.55 50.3 132.25 51.25 Q132.1 51.55 132.1 51.95 L133.95 51.9 134.6 51.9 135.1 51.75 136.95 51.4 137.45 51.3 140.85 51.05 142.35 51.25 143.1 51.3 143.55 51.3 142.05 50.5 141.1 50.0 140.5 49.75 Q140.05 49.55 140.35 49.2 140.9 48.65 141.75 48.65 L142.35 48.6 Q143.15 48.55 143.8 49.15 144.3 49.65 145.0 49.85 L146.1 50.2 145.2 48.45 144.4 46.9 144.4 46.7 Q144.5 46.25 145.1 46.2 L146.05 46.4 147.0 46.95 Q148.5 47.8 149.4 49.3 L149.6 49.55 Q150.1 48.05 151.05 46.85 L151.5 46.45 Q151.85 46.2 152.1 46.2 152.25 46.2 152.25 46.3 L152.4 46.95 152.7 47.6 152.9 47.95 153.25 48.8 Q153.9 47.85 155.15 47.15 155.75 46.75 156.55 46.65 L157.0 46.6 157.35 46.5 157.6 46.45 Q157.95 46.65 157.75 46.9 L157.55 47.45 Q157.35 48.5 157.6 49.55 157.6 49.1 158.05 48.9 L159.5 48.35 160.35 48.2 162.1 48.1 162.35 48.2 M40.05 60.05 L40.2 60.55 M36.5 61.05 L36.7 61.55 M90.1 52.6 L90.35 53.05 M143.55 51.3 L143.85 51.3 144.2 51.3 M2.55 66.55 L1.7 65.3 1.95 65.8 2.0 66.05 Q2.0 66.65 2.55 66.55 Z" fill="none" stroke="#8aa76c" stroke-linecap="round" stroke-linejoin="round" stroke-width="1.0"/>
  </g>
  <defs>
    <linearGradient gradientTransform="matrix(0.0, 0.0655, -0.0657, 0.0, -92.75, -48.6)" gradientUnits="userSpaceOnUse" id="gradient0" spreadMethod="pad" x1="-819.2" x2="819.2">
      <stop offset="0.0" stop-color="#949bce"/>
      <stop offset="1.0" stop-color="#949bce" stop-opacity="0.0"/>
    </linearGradient>
    <linearGradient gradientTransform="matrix(0.0, 0.0311, -0.0335, 0.0, 129.1, -33.75)" gradientUnits="userSpaceOnUse" id="gradient1" spreadMethod="pad" x1="-819.2" x2="819.2">
      <stop offset="0.0" stop-color="#949bce"/>
      <stop offset="0.9058823529411765" stop-color="#949bce" stop-opacity="0.0"/>
    </linearGradient>
    <linearGradient gradientTransform="matrix(0.0035, 0.0242, -0.0872, 0.0127, -88.25, 17.65)" gradientUnits="userSpaceOnUse" id="gradient2" spreadMethod="pad" x1="-819.2" x2="819.2">
      <stop offset="0.0" stop-color="#949bce"/>
      <stop offset="1.0" stop-color="#949bce" stop-opacity="0.0"/>
    </linearGradient>
    <linearGradient gradientTransform="matrix(0.0012, 0.0164, -0.0611, 0.0045, 59.9, -23.2)" gradientUnits="userSpaceOnUse" id="gradient3" spreadMethod="pad" x1="-819.2" x2="819.2">
      <stop offset="0.0" stop-color="#949bce"/>
      <stop offset="0.9058823529411765" stop-color="#949bce" stop-opacity="0.0"/>
    </linearGradient>
    <linearGradient gradientTransform="matrix(0.0, 0.0408, -0.1162, 0.0, -51.4, -24.25)" gradientUnits="userSpaceOnUse" id="gradient4" spreadMethod="pad" x1="-819.2" x2="819.2">
      <stop offset="0.0" stop-color="#949bce"/>
      <stop offset="1.0" stop-color="#949bce" stop-opacity="0.0"/>
    </linearGradient>
    <linearGradient gradientTransform="matrix(0.0, 0.0134, -0.0192, 0.0, -130.1, -47.75)" gradientUnits="userSpaceOnUse" id="gradient5" spreadMethod="pad" x1="-819.2" x2="819.2">
      <stop offset="0.0" stop-color="#949bce"/>
      <stop offset="1.0" stop-color="#949bce" stop-opacity="0.0"/>
    </linearGradient>
    <linearGradient gradientTransform="matrix(0.0, 0.0548, -0.1576, 0.0, 27.5, 42.2)" gradientUnits="userSpaceOnUse" id="gradient6" spreadMethod="pad" x1="-819.2" x2="819.2">
      <stop offset="0.0" stop-color="#63a1bb"/>
      <stop offset="1.0" stop-color="#99ff66"/>
    </linearGradient>
    <linearGradient gradientTransform="matrix(0.0, 0.0183, -0.1053, 0.0, 76.15, 64.25)" gradientUnits="userSpaceOnUse" id="gradient7" spreadMethod="pad" x1="-819.2" x2="819.2">
      <stop offset="0.0" stop-color="#f1e893"/>
      <stop offset="1.0" stop-color="#c7c864"/>
    </linearGradient>
  </defs>
</svg>
