<?xml version="1.0" encoding="UTF-8" standalone="no"?>
<svg xmlns:ffdec="https://www.free-decompiler.com/flash" xmlns:xlink="http://www.w3.org/1999/xlink" ffdec:objectType="shape" height="257.0px" width="382.05px" xmlns="http://www.w3.org/2000/svg">
  <g transform="matrix(1.0, 0.0, 0.0, 1.0, 191.0, 128.75)">
    <path d="M-135.85 -116.9 L-131.55 -116.4 -130.8 -116.35 -130.55 -116.35 Q-131.05 -117.7 -132.45 -118.25 L-133.5 -118.95 -133.95 -119.3 Q-132.05 -119.4 -130.55 -118.5 L-129.9 -118.05 -128.95 -117.3 -128.7 -117.1 -128.7 -117.85 -128.35 -119.5 -128.2 -119.95 -128.1 -120.3 -128.05 -120.6 -126.25 -118.65 -125.8 -118.25 -125.3 -117.85 Q-124.9 -119.1 -123.55 -119.55 L-119.95 -120.25 -120.3 -119.5 Q-121.0 -118.75 -121.05 -117.75 -120.0 -118.65 -118.55 -118.95 L-118.05 -119.05 -116.05 -118.95 -115.8 -118.85 -116.65 -118.25 -116.95 -118.0 -117.15 -117.7 -117.2 -117.35 -116.55 -117.2 -114.8 -117.15 -114.05 -116.95 -113.45 -116.6 Q-114.1 -116.45 -114.15 -115.6 -114.2 -115.15 -113.55 -115.2 L-112.2 -115.1 -111.7 -115.15 -111.45 -115.25 -105.8 -115.2 -105.2 -115.1 -104.0 -114.65 -103.7 -114.55 -102.2 -114.3 -101.3 -114.15 -100.45 -114.05 -98.2 -113.85 -96.55 -113.75 -94.95 -113.5 -93.7 -113.2 -93.55 -113.15 -93.35 -113.05 -89.75 -112.6 -89.05 -112.45 -86.55 -112.1 -85.3 -112.0 -81.55 -111.9 -81.05 -111.8 -78.55 -111.3 -78.05 -111.15 -77.8 -111.1 -74.05 -110.95 -72.3 -110.85 -70.35 -110.55 -69.75 -110.35 -69.3 -110.25 -67.05 -110.05 -65.55 -109.8 -65.05 -109.7 -64.55 -109.5 Q-64.5 -110.95 -65.25 -112.05 -65.95 -113.15 -66.95 -113.75 L-65.95 -113.55 -62.85 -112.45 -62.5 -112.2 -61.95 -111.8 -62.0 -111.85 -62.8 -114.0 -63.9 -116.3 -64.1 -116.5 Q-63.95 -116.7 -63.6 -116.35 -62.7 -115.5 -61.5 -115.0 L-60.95 -114.6 -59.9 -113.8 -59.75 -113.6 -59.45 -113.25 Q-59.5 -113.0 -59.3 -113.5 -58.6 -115.25 -57.05 -116.3 L-56.35 -116.45 -55.85 -116.6 Q-56.5 -115.0 -56.6 -113.25 L-56.6 -112.65 -56.25 -113.15 -55.5 -113.75 -54.6 -114.25 -53.95 -114.55 -52.45 -114.8 -50.6 -114.8 -47.5 -114.5 -48.2 -114.35 -48.65 -114.05 -51.2 -112.6 -51.6 -112.35 -51.75 -112.0 -51.85 -111.85 -50.85 -111.85 -49.6 -111.75 Q-48.55 -111.6 -47.6 -111.0 L-48.1 -110.95 -48.85 -110.85 Q-50.45 -110.6 -50.6 -109.35 L-49.45 -109.5 -46.6 -109.75 -46.1 -109.65 -44.85 -109.15 -44.45 -109.1 -45.05 -110.85 -45.1 -111.5 Q-43.4 -111.0 -42.0 -109.8 L-40.95 -108.85 Q-40.65 -108.55 -40.35 -108.35 L-41.25 -111.6 -41.65 -112.75 -41.7 -113.25 -39.7 -111.85 -39.25 -111.45 -37.65 -109.5 -37.45 -109.25 -37.2 -109.0 Q-37.35 -111.65 -36.05 -113.95 L-35.45 -115.35 Q-34.6 -114.05 -34.5 -112.25 L-34.35 -111.6 -33.8 -109.85 -33.7 -109.6 -33.4 -110.15 -32.35 -110.6 Q-30.2 -111.4 -27.95 -111.4 L-27.35 -111.4 -26.7 -111.25 Q-27.8 -111.0 -28.55 -110.05 L-28.7 -109.85 -28.95 -108.75 -28.9 -108.4 Q-26.6 -108.8 -24.1 -108.5 L-23.7 -108.35 -22.35 -107.85 Q-22.45 -107.65 -22.85 -107.7 L-23.7 -107.55 -24.3 -107.2 -24.85 -106.75 Q-24.75 -106.4 -24.2 -106.3 L-22.7 -105.9 -21.2 -105.7 -20.7 -105.6 -20.2 -105.5 Q-20.4 -106.4 -20.9 -107.25 L-21.1 -107.75 Q-18.45 -107.3 -17.55 -105.1 L-17.45 -105.0 -17.45 -106.0 Q-17.45 -107.85 -17.75 -109.6 L-17.85 -109.85 -17.2 -109.1 -15.55 -106.65 -15.0 -105.95 -14.9 -106.2 -14.6 -106.55 -13.55 -107.45 -12.45 -108.15 -12.1 -108.3 -11.15 -108.35 -11.15 -108.1 Q-11.35 -107.15 -11.8 -106.3 -11.95 -106.0 -11.75 -105.9 L-11.7 -105.75 -11.7 -105.6 -9.35 -106.8 -9.1 -106.85 -8.15 -106.75 -8.1 -106.6 -8.6 -105.1 -8.85 -104.0 -5.8 -104.65 -5.45 -104.6 -5.15 -104.55 Q-4.7 -104.75 -4.0 -105.05 L-2.65 -105.35 -2.15 -105.5 Q-2.05 -104.45 -2.6 -103.55 L-2.8 -103.1 Q-2.35 -102.9 -1.75 -103.1 L-0.3 -103.45 Q2.1 -103.8 4.2 -102.85 3.6 -102.3 2.7 -101.95 2.05 -101.55 1.95 -101.0 3.4 -101.25 4.45 -100.6 5.35 -100.0 6.45 -99.95 L6.95 -100.0 Q8.85 -100.7 10.5 -99.7 L10.95 -99.6 11.85 -99.5 10.75 -102.85 Q10.45 -103.6 10.6 -103.85 13.0 -103.2 15.15 -102.05 L15.55 -101.75 15.8 -101.25 15.9 -100.85 16.15 -100.0 16.3 -99.8 16.35 -99.6 16.4 -100.25 Q16.45 -101.85 17.45 -103.1 L17.65 -103.6 17.85 -103.75 Q18.4 -102.8 18.25 -101.5 18.15 -100.8 18.4 -100.25 L18.5 -100.0 18.6 -99.85 Q18.8 -100.65 19.55 -101.05 L19.85 -101.25 Q20.35 -101.65 20.95 -101.85 L21.2 -102.0 Q21.6 -101.85 21.5 -101.25 21.25 -99.75 21.45 -98.25 22.3 -98.85 23.45 -99.15 L23.95 -99.25 28.1 -99.7 28.45 -99.6 28.6 -99.6 Q28.7 -99.3 28.1 -98.85 L27.5 -98.15 27.35 -97.95 26.45 -97.35 28.2 -97.8 28.85 -97.85 30.85 -97.75 Q31.3 -97.0 30.9 -96.75 L30.65 -96.55 Q30.25 -96.1 29.7 -95.9 L29.45 -95.8 28.1 -94.5 27.95 -94.35 28.85 -94.45 31.2 -94.35 Q33.55 -93.85 35.35 -92.5 34.4 -92.55 33.65 -92.15 L33.6 -92.0 Q33.6 -91.7 33.75 -91.55 L34.35 -91.35 38.45 -91.2 38.85 -91.1 40.7 -90.35 39.55 -92.8 38.95 -93.45 Q38.7 -93.55 38.7 -93.75 L41.85 -92.8 43.3 -92.05 43.7 -91.95 43.85 -91.9 44.95 -91.15 44.05 -92.75 43.65 -93.75 42.85 -95.1 Q41.9 -95.95 41.85 -97.35 L41.95 -97.25 44.3 -95.3 44.65 -95.05 46.2 -93.5 47.1 -92.7 47.2 -92.6 Q47.5 -93.0 47.4 -93.85 47.3 -94.65 47.65 -95.3 L47.85 -96.0 48.25 -97.35 48.4 -97.75 48.65 -98.3 49.0 -98.7 50.25 -95.25 50.3 -95.0 50.8 -93.6 50.9 -93.35 51.45 -93.8 52.45 -94.25 54.2 -94.8 54.35 -94.75 54.65 -94.75 55.1 -94.65 55.45 -94.5 54.75 -93.4 54.7 -93.25 54.7 -92.0 58.35 -92.8 59.2 -92.6 59.7 -92.45 Q58.3 -91.6 57.4 -90.2 L57.4 -90.15 58.35 -90.55 60.1 -91.2 60.35 -91.3 61.7 -91.5 Q63.5 -91.75 65.1 -91.45 L65.85 -91.3 67.7 -91.0 66.35 -92.25 65.2 -93.25 69.05 -92.0 69.45 -91.75 70.35 -91.0 70.45 -90.9 Q69.5 -92.25 68.8 -93.85 L68.6 -94.25 68.2 -95.0 68.85 -94.7 71.15 -93.65 71.6 -93.25 73.6 -91.35 72.95 -92.5 72.15 -94.35 71.9 -95.25 71.85 -95.85 Q73.65 -95.1 74.85 -93.5 L75.6 -92.25 76.35 -91.35 Q76.25 -93.35 76.75 -95.25 L76.85 -95.6 77.4 -96.3 77.55 -96.3 77.7 -96.1 78.15 -94.1 78.4 -93.0 78.7 -92.35 79.2 -91.1 79.45 -91.5 79.55 -92.0 Q80.0 -93.1 81.1 -93.6 L81.95 -93.75 Q81.9 -92.7 81.4 -91.85 81.05 -91.25 81.3 -90.8 L81.5 -90.4 81.7 -90.3 Q82.2 -90.3 82.55 -90.65 L82.85 -90.8 84.85 -90.65 85.65 -90.7 86.35 -90.9 86.6 -91.0 Q87.5 -91.55 88.6 -91.6 L90.1 -91.65 90.45 -91.7 93.35 -91.75 94.5 -91.5 95.35 -91.25 98.2 -90.95 98.45 -90.8 97.9 -91.7 97.1 -92.4 96.65 -92.9 95.5 -94.05 95.3 -94.2 95.15 -94.35 Q95.85 -93.9 96.85 -93.7 L99.1 -93.0 Q99.35 -92.85 99.6 -92.8 L100.2 -92.35 100.2 -94.35 100.35 -94.75 100.7 -94.65 101.15 -94.2 101.6 -93.75 102.65 -92.15 102.85 -92.0 103.0 -92.35 103.7 -93.1 104.4 -93.9 104.5 -94.05 104.85 -94.2 106.2 -94.55 106.45 -94.6 106.85 -94.5 106.65 -93.35 106.6 -92.6 106.55 -91.1 106.45 -91.0 Q107.2 -91.15 107.9 -91.7 L108.2 -91.8 109.7 -91.75 110.35 -91.75 110.2 -90.95 110.05 -90.6 110.0 -90.25 110.1 -89.6 112.6 -90.3 113.45 -90.35 115.5 -90.75 116.85 -90.9 118.9 -90.75 119.7 -90.5 118.45 7.25 113.3 7.6 Q112.7 8.2 111.7 8.5 L110.7 8.65 106.2 8.7 101.45 8.95 100.75 9.1 99.45 9.25 Q97.9 9.2 97.05 8.5 97.8 9.3 97.95 10.5 L96.95 10.4 96.45 10.4 Q94.6 10.45 93.0 9.7 92.6 9.5 92.15 9.4 L91.2 9.15 90.7 9.05 88.95 8.85 85.85 8.75 88.15 11.8 88.5 12.25 87.75 12.2 87.25 12.05 86.95 11.9 Q86.7 11.45 86.0 11.4 L85.05 11.15 83.75 10.9 79.5 10.9 74.5 11.2 73.8 11.35 69.75 12.8 69.25 12.9 68.75 12.8 Q67.65 12.4 68.25 11.5 68.8 10.8 69.3 10.6 L69.65 10.4 Q70.5 9.75 71.3 9.35 L72.2 8.95 74.0 8.15 69.25 8.25 68.8 8.35 68.0 8.5 58.25 8.85 Q57.9 8.9 57.6 9.1 L57.2 9.4 55.0 9.55 53.45 8.85 53.2 8.65 Q52.85 7.95 53.25 7.7 L53.6 7.15 53.5 7.15 52.8 7.35 50.25 7.75 45.75 7.5 45.3 7.6 44.0 7.85 38.5 7.65 Q35.75 7.15 33.0 7.7 L32.3 7.9 30.5 8.2 28.05 7.7 27.85 7.5 27.85 7.15 Q28.7 6.45 29.8 5.85 27.0 4.95 23.75 5.2 L22.5 5.45 20.95 5.75 20.5 5.85 17.2 5.7 16.2 5.45 7.2 5.25 6.2 5.15 3.95 5.1 Q3.15 5.2 2.95 4.75 L3.15 4.5 3.35 4.0 Q3.45 3.4 4.2 3.05 L4.95 2.8 -0.05 3.5 -1.0 3.4 -5.05 3.5 -7.55 3.85 -16.3 3.5 -15.3 3.0 -14.5 2.6 -13.1 1.7 -12.8 1.6 -11.25 1.05 -10.35 0.65 -9.5 0.35 -7.3 -0.45 -7.0 -0.6 Q-6.85 -0.9 -6.3 -0.85 L-4.05 -1.1 -3.8 -1.15 Q-2.35 -1.2 -1.05 -2.0 L-1.3 -2.15 -1.75 -2.35 -2.35 -2.55 -4.3 -2.9 -5.35 -2.85 -6.05 -2.75 Q-5.25 -3.05 -4.3 -3.75 -3.5 -4.35 -2.3 -4.3 L-0.55 -4.15 -0.3 -4.1 1.95 -3.75 1.5 -4.05 1.25 -4.5 1.1 -4.85 Q0.3 -5.4 -0.15 -6.4 L0.15 -6.8 0.9 -6.9 1.95 -6.65 2.9 -6.4 3.5 -6.15 Q4.65 -5.75 5.4 -4.7 6.1 -3.75 6.45 -4.0 L6.3 -4.25 6.1 -4.65 5.7 -5.5 4.75 -7.3 3.45 -8.75 5.2 -8.75 5.65 -8.65 6.45 -8.5 6.9 -8.4 7.5 -8.05 8.4 -7.4 8.8 -7.15 9.65 -6.45 11.2 -4.5 Q11.75 -4.7 11.95 -5.25 L12.05 -5.75 Q12.05 -6.35 12.45 -6.75 L12.8 -7.3 13.45 -7.95 13.9 -8.35 Q14.25 -9.15 14.45 -8.5 14.2 -8.25 14.2 -7.75 L14.1 -6.75 14.05 -6.5 13.85 -5.25 Q13.75 -4.4 14.2 -4.25 L14.45 -4.45 14.95 -4.8 15.95 -5.45 16.45 -5.65 17.4 -6.1 Q18.1 -6.7 18.95 -6.9 L19.95 -7.05 Q20.6 -7.15 20.7 -6.75 20.15 -6.65 20.2 -6.0 L20.0 -5.0 Q19.3 -4.15 19.7 -3.75 L19.95 -3.9 21.45 -3.9 22.95 -3.55 24.15 -3.15 Q24.55 -4.3 25.2 -4.6 L27.0 -5.2 27.4 -5.35 29.0 -6.1 29.8 -6.45 Q31.8 -7.95 34.25 -8.6 L34.5 -8.6 Q35.25 -8.55 35.75 -9.0 L36.0 -9.15 37.3 -9.45 37.35 -9.45 35.75 -9.85 35.25 -9.9 34.25 -10.1 33.75 -10.2 Q32.45 -10.5 31.7 -10.95 L30.5 -11.35 30.0 -11.35 28.05 -11.45 29.2 -13.55 25.0 -13.5 23.75 -13.6 Q22.8 -13.75 22.2 -13.25 22.1 -13.1 21.95 -13.1 L19.95 -12.9 Q18.8 -12.75 18.45 -13.25 L16.45 -13.9 15.95 -13.85 13.2 -13.6 11.95 -13.7 10.75 -13.9 9.9 -14.05 Q7.95 -14.4 6.2 -14.1 L5.2 -14.0 2.7 -13.9 Q1.1 -13.8 -0.25 -14.6 L-1.55 -14.5 Q-1.65 -14.35 -1.8 -14.35 L-6.3 -13.5 Q-7.4 -13.35 -7.3 -13.5 L-6.85 -13.8 -6.5 -14.2 -6.1 -14.55 -5.05 -15.5 -4.85 -15.75 -4.6 -16.05 -6.8 -15.9 -7.3 -15.75 Q-8.75 -14.95 -10.55 -15.35 L-12.8 -15.7 -14.3 -15.85 -19.3 -16.15 -20.05 -16.1 -25.3 -16.0 -26.8 -15.9 Q-28.3 -15.75 -28.0 -17.55 L-28.3 -17.55 -37.8 -17.0 -38.5 -17.1 -40.3 -17.5 Q-41.8 -17.75 -42.65 -17.1 L-42.5 -17.75 -42.35 -18.0 -41.3 -19.0 -41.55 -19.05 -42.05 -19.1 -44.1 -18.85 Q-45.9 -18.35 -47.8 -18.2 L-58.55 -17.75 -59.3 -17.85 -61.8 -18.1 -63.85 -18.4 -65.3 -18.25 Q-64.6 -18.1 -64.0 -17.55 L-63.6 -17.2 -63.2 -16.85 -62.95 -16.65 Q-62.2 -15.85 -61.3 -15.75 L-64.8 -15.75 -65.5 -15.9 -66.55 -16.3 -72.05 -16.8 -77.3 -17.25 -78.05 -17.35 -80.55 -17.15 -81.05 -17.1 -81.8 -17.1 Q-82.7 -17.05 -83.35 -17.45 L-85.35 -18.15 Q-86.35 -18.35 -87.25 -18.85 L-88.35 -19.25 -95.8 -19.75 -96.75 -19.85 Q-98.0 -20.15 -99.0 -21.05 -99.35 -21.35 -99.85 -21.35 L-108.85 -20.9 -110.05 -20.65 -111.35 -20.5 -112.05 -20.35 Q-112.75 -20.05 -112.85 -20.5 L-112.75 -20.95 -112.65 -21.25 -112.55 -21.75 Q-112.45 -22.25 -112.85 -22.25 L-117.1 -22.3 -120.6 -21.9 -123.6 -21.0 Q-125.45 -20.3 -126.35 -21.25 -126.95 -21.85 -127.85 -21.9 L-133.1 -22.0 -133.75 -21.85 -134.2 -21.6 -134.55 -21.4 -134.85 -21.35 -137.1 -21.5 -137.0 -21.9 -135.6 -23.25 -136.3 -23.35 -137.35 -23.4 -139.6 -23.1 -148.1 -22.15 -148.35 -22.1 Q-150.85 -21.25 -153.6 -21.5 L-154.05 -21.6 -156.1 -21.85 -158.35 -21.5 -159.1 -21.4 Q-160.25 -21.55 -160.35 -20.75 L-160.1 -20.7 Q-158.65 -20.25 -157.6 -19.25 L-165.1 -19.7 -168.85 -19.65 -171.1 -19.6 -178.0 -19.6 -180.35 -19.6 -181.65 -19.4 -183.35 -19.2 -184.45 -19.0 -184.2 -124.35 Q-183.85 -123.95 -183.1 -124.05 L-181.7 -124.05 -180.65 -123.65 -180.45 -123.55 -179.35 -123.3 -179.0 -123.2 -178.2 -123.1 Q-178.7 -124.95 -180.1 -126.0 L-180.2 -126.1 Q-180.1 -126.45 -179.65 -126.2 L-179.1 -125.95 -178.7 -125.8 -178.35 -125.7 -177.6 -125.3 -177.35 -125.1 -176.7 -124.5 -176.1 -124.0 Q-176.35 -124.45 -176.05 -125.05 L-175.9 -125.6 -175.75 -126.0 -175.25 -127.5 -175.15 -127.8 -175.05 -128.1 -174.95 -128.25 Q-174.6 -128.2 -174.6 -127.85 L-174.5 -127.25 -173.8 -125.7 -173.55 -125.25 -173.15 -124.45 -173.15 -124.5 Q-172.7 -125.6 -171.9 -126.2 -171.0 -126.95 -169.85 -127.15 L-169.7 -127.25 Q-169.6 -127.25 -169.65 -126.75 L-169.7 -123.25 -167.95 -124.35 -167.6 -124.45 -164.45 -124.25 Q-164.65 -123.55 -165.2 -123.0 L-165.65 -122.65 -166.0 -122.0 -166.05 -121.75 Q-166.05 -121.25 -165.7 -121.3 L-164.7 -121.45 -164.35 -121.5 -161.4 -121.1 -160.9 -120.9 -159.95 -120.35 Q-158.45 -119.55 -156.7 -119.6 L-156.2 -119.5 -155.2 -119.2 -154.85 -119.1 Q-154.6 -119.25 -154.65 -119.75 -154.75 -120.45 -155.35 -120.85 L-156.0 -121.3 -156.35 -121.5 -155.7 -121.55 -154.65 -121.2 -153.2 -120.1 Q-153.1 -121.15 -152.25 -121.9 L-151.2 -122.75 Q-151.0 -122.2 -151.1 -121.35 -151.15 -120.6 -150.85 -120.1 -149.95 -120.9 -148.95 -121.3 L-148.6 -121.35 -143.7 -120.75 -145.35 -119.1 -145.3 -118.55 -145.2 -118.25 -144.35 -118.4 -144.1 -118.4 -142.6 -118.3 -141.85 -118.2 -141.35 -118.05 -139.35 -117.4 Q-138.3 -116.9 -137.1 -117.0 L-136.15 -116.9 -136.1 -116.9 -135.85 -116.9 M70.7 -90.85 L70.45 -90.9 70.7 -90.85 M57.25 -89.9 L57.4 -90.15 57.25 -89.9 M-28.9 -108.4 L-28.95 -108.4 Q-29.2 -108.4 -29.1 -108.1 L-28.9 -108.4 M-20.3 -18.75 Q-20.25 -19.15 -20.8 -19.0 L-21.55 -18.8 -22.55 -18.7 -24.5 -18.2 -25.35 -17.95 -27.3 -17.65 -28.0 -17.55 -27.3 -17.65 -25.35 -17.95 -24.5 -18.2 -22.55 -18.7 -21.55 -18.8 -20.8 -19.0 Q-20.25 -19.15 -20.3 -18.75 M-61.7 -111.6 L-61.95 -111.8 -61.7 -111.6 M74.15 8.15 L74.0 8.15 74.15 8.15 74.75 8.0 74.5 8.05 74.15 8.15 M94.45 6.25 L94.9 6.8 95.25 7.1 95.95 7.5 96.75 8.2 96.85 8.3 97.05 8.5 96.85 8.3 96.75 8.2 95.95 7.5 95.25 7.1 94.9 6.8 94.45 6.25 M8.7 1.5 L5.65 2.65 5.2 2.75 4.95 2.8 5.2 2.75 5.65 2.65 8.7 1.5 M0.95 -16.75 L-3.3 -16.55 -4.0 -16.4 -4.6 -16.05 -4.0 -16.4 -3.3 -16.55 0.95 -16.75 M60.25 4.5 L56.75 5.1 Q56.1 5.1 55.1 5.65 54.05 6.15 53.85 6.6 L53.8 6.65 53.6 7.15 53.8 6.65 53.85 6.6 Q54.05 6.15 55.1 5.65 56.1 5.1 56.75 5.1 L60.25 4.5 M34.25 3.75 L31.3 5.1 29.8 5.85 31.3 5.1 34.25 3.75 M26.5 -2.5 L24.15 -3.15 26.5 -2.5 M31.5 -13.75 Q31.25 -13.6 31.0 -13.6 L29.2 -13.55 31.0 -13.6 Q31.25 -13.6 31.5 -13.75 M18.45 -13.25 L18.75 -13.7 19.1 -14.1 Q19.85 -15.3 20.95 -16.0 19.85 -15.3 19.1 -14.1 L18.75 -13.7 18.45 -13.25 M37.35 -9.45 L38.0 -9.4 43.25 -9.6 47.5 -9.3 48.2 -9.1 Q49.7 -8.45 51.25 -8.25 49.7 -8.45 48.2 -9.1 L47.5 -9.3 43.25 -9.6 38.0 -9.4 37.35 -9.45" fill="url(#gradient0)" fill-rule="evenodd" stroke="none"/>
    <path d="M-32.6 46.7 L-32.35 46.5 -31.95 45.8 Q-31.1 44.45 -29.85 43.7 -29.55 43.5 -29.25 43.45 L-27.55 43.0 -24.8 42.0 Q-26.15 41.4 -27.8 41.45 L-30.05 41.4 Q-33.0 41.1 -36.05 41.35 L-36.75 41.6 Q-37.5 42.05 -37.55 41.5 -37.5 40.1 -36.35 39.65 L-34.9 39.2 Q-34.4 37.25 -32.8 37.0 -29.9 36.5 -27.25 35.6 L-24.3 35.2 -23.55 35.25 Q-24.1 34.75 -25.25 34.4 L-26.8 33.75 Q-28.05 33.0 -30.05 33.0 -28.7 31.75 -26.8 31.85 L-26.05 31.85 -25.0 31.9 Q-23.85 32.2 -22.8 32.75 L-22.3 32.95 Q-21.5 33.2 -21.05 33.75 -20.65 33.7 -21.25 33.2 L-21.8 32.75 Q-23.0 31.3 -24.75 30.15 L-25.55 29.5 Q-26.1 28.9 -27.05 28.75 -27.1 27.95 -26.05 28.15 L-24.8 28.25 Q-23.05 28.35 -21.55 28.95 L-20.8 29.2 Q-18.8 29.6 -17.5 30.95 L-16.8 31.75 -18.6 28.75 -18.8 28.5 -19.55 27.75 Q-19.9 27.35 -19.9 26.5 L-20.05 26.0 Q-20.0 25.6 -19.45 26.2 L-18.8 26.75 Q-17.7 27.45 -16.8 28.25 L-15.15 29.85 -14.9 30.15 -14.65 30.35 -14.3 30.75 -14.05 31.5 Q-13.6 31.2 -13.75 30.25 L-13.7 29.45 -13.45 28.75 -13.3 28.5 -11.3 26.5 Q-10.85 26.55 -10.95 27.25 -11.2 28.65 -10.6 29.3 L-10.3 29.75 -9.8 30.5 Q-8.9 28.05 -6.3 27.45 L-5.8 27.3 -5.05 27.25 Q-4.75 27.55 -5.2 28.1 L-5.35 28.5 Q-5.5 29.2 -5.25 29.45 -4.9 29.75 -4.7 30.2 L-4.4 31.05 -4.3 31.5 Q-3.95 30.75 -3.85 29.75 L-3.65 29.2 -2.6 28.2 -2.0 27.85 -1.55 27.7 Q-1.0 27.65 -0.65 28.15 L-0.3 28.55 1.25 29.7 1.95 30.2 2.95 31.0 2.3 29.2 2.15 28.75 Q1.8 27.75 1.95 26.5 3.45 26.95 4.1 27.9 L4.45 28.0 4.55 25.25 4.6 24.75 4.75 23.5 Q4.8 23.05 5.4 22.85 L5.75 22.55 Q6.1 22.25 6.5 22.1 L6.9 21.9 7.65 21.0 8.15 20.4 8.45 20.0 Q9.35 18.15 11.7 17.0 L10.8 19.55 Q10.05 21.45 9.7 23.5 9.6 24.2 9.85 24.8 L10.0 25.25 10.7 26.5 11.5 25.3 11.65 25.0 Q12.15 24.15 12.75 23.9 13.5 23.9 13.85 24.4 L14.4 25.05 Q15.3 25.95 16.45 26.0 L17.0 25.85 18.7 25.55 21.0 25.9 21.9 25.85 22.75 25.6 23.15 25.4 25.95 24.55 28.2 24.75 31.0 25.85 33.2 25.75 Q33.3 24.35 31.95 23.55 L30.0 22.65 28.7 22.0 29.7 21.9 32.2 22.3 33.7 22.55 34.5 22.7 35.2 23.05 35.45 23.15 Q36.25 23.35 36.95 24.25 36.35 22.7 35.4 22.05 L33.25 20.4 32.95 20.0 Q32.4 19.15 31.45 19.0 32.65 18.5 34.05 19.0 L34.3 18.9 34.95 18.8 37.7 19.8 37.95 20.0 39.5 21.2 Q40.25 21.9 40.5 23.0 L40.75 23.45 41.45 24.25 Q41.9 24.15 41.55 23.45 41.25 22.8 41.3 22.0 41.3 21.0 40.95 20.5 L40.35 19.0 40.25 18.7 39.75 17.95 Q39.4 17.7 39.35 17.0 L39.3 16.9 42.25 20.2 42.65 20.55 Q44.2 21.95 44.95 24.5 45.35 24.4 45.35 23.75 L45.45 23.0 46.1 21.3 46.4 20.95 47.0 20.3 47.35 19.95 47.85 19.4 48.45 18.95 48.65 18.7 Q48.9 18.1 49.45 18.0 L48.8 20.05 48.6 20.75 48.05 22.3 47.95 22.75 47.95 23.0 48.5 22.5 48.9 21.95 49.25 21.6 Q49.8 21.05 50.4 20.85 L50.75 20.55 Q50.95 20.4 51.2 20.35 L54.2 20.25 52.8 21.8 51.95 23.25 51.75 23.75 51.7 24.25 52.9 23.7 Q53.65 23.1 54.7 23.0 L55.25 22.85 55.7 22.75 59.3 22.4 60.25 22.25 61.5 22.25 Q61.25 22.95 60.25 23.3 L59.75 23.5 Q58.3 24.05 57.7 25.0 L57.5 25.25 57.05 25.9 58.0 25.75 64.0 25.35 64.75 25.25 67.5 25.1 68.0 25.25 67.05 24.0 66.75 23.5 Q65.9 22.0 64.5 21.0 65.6 21.5 66.55 22.15 L67.0 22.35 Q67.25 22.9 67.75 22.85 L68.55 22.9 68.95 23.1 Q69.5 23.25 69.85 23.7 L70.25 23.95 Q70.9 24.2 71.0 25.0 71.55 24.9 71.15 24.55 L70.7 24.0 Q70.15 22.8 70.05 21.5 L69.9 20.5 69.85 20.25 69.65 19.5 69.5 19.25 Q70.4 19.25 70.85 20.2 L71.2 20.8 74.5 25.5 75.1 23.0 75.25 22.75 77.05 20.8 77.65 20.15 78.25 19.25 77.15 23.2 76.85 24.05 Q76.6 24.8 77.0 25.0 L77.4 24.4 77.95 23.9 78.2 23.5 Q78.5 22.65 79.05 22.05 L79.5 21.7 Q81.0 20.65 82.75 20.15 L82.95 19.95 Q83.2 19.3 84.0 19.25 84.55 18.95 83.95 19.65 L83.45 20.45 83.3 20.8 82.35 21.9 82.15 22.15 81.85 22.6 81.65 22.95 Q81.35 23.65 81.5 24.5 83.1 23.45 85.0 22.55 L85.75 22.2 87.5 21.65 88.0 21.6 89.5 21.5 Q89.55 22.05 89.05 22.2 88.9 22.25 88.7 22.4 L87.2 23.4 Q86.1 24.05 85.75 25.25 87.35 25.2 88.6 24.35 L89.0 24.25 91.5 24.1 94.2 23.75 96.2 24.2 96.65 24.35 97.45 24.4 98.9 23.95 99.2 23.85 100.2 23.65 100.5 23.6 100.9 23.4 102.2 22.55 102.7 22.35 Q104.45 22.25 106.0 22.9 L106.4 22.9 Q107.05 22.5 108.2 22.4 L108.6 22.2 Q109.35 21.25 110.95 21.45 L111.4 21.6 Q112.2 22.1 113.2 22.0 L113.05 21.75 112.85 21.4 112.6 21.15 112.35 20.85 Q112.05 20.55 112.15 19.75 L112.35 19.05 112.8 17.25 113.05 16.55 113.4 15.95 113.8 15.35 114.6 14.2 Q115.2 13.1 116.45 12.75 L115.55 118.45 30.95 118.45 31.9 117.7 Q32.4 117.15 33.2 116.9 L33.45 116.85 36.2 116.25 35.7 116.2 34.2 115.75 31.7 114.7 Q30.6 114.2 29.2 114.25 29.8 113.55 30.95 113.4 L31.45 113.35 35.95 113.7 38.2 113.85 Q39.35 113.85 39.9 114.35 40.65 115.05 40.95 114.75 L40.2 113.25 39.9 112.85 38.65 111.55 Q37.15 109.8 36.2 107.75 L39.95 108.55 Q41.45 108.9 42.7 109.75 L42.95 109.95 Q44.55 111.0 45.25 112.45 L45.55 113.3 Q45.75 114.2 46.2 114.5 46.25 113.7 46.55 113.05 L46.75 112.2 47.2 111.5 47.75 110.75 49.0 108.55 Q49.45 107.9 49.7 108.25 49.85 109.2 49.5 110.0 49.0 111.3 49.1 112.75 49.15 113.85 49.45 113.25 L49.7 113.0 50.05 112.45 50.35 111.85 50.6 111.45 51.5 110.6 Q52.9 109.55 54.4 108.65 55.25 108.15 55.45 108.75 55.0 109.25 54.65 110.25 54.2 111.5 54.7 112.25 L54.95 112.05 55.45 111.85 56.2 111.5 Q56.85 110.75 58.2 110.75 L60.65 110.4 61.5 110.1 62.15 109.9 65.7 109.5 Q68.5 109.7 70.95 108.7 L72.0 108.35 72.8 108.0 Q73.6 107.55 74.45 107.5 L76.95 107.4 77.7 107.35 81.95 107.2 Q84.25 107.15 85.7 106.0 L85.9 105.7 Q86.1 105.15 86.7 104.8 88.15 103.9 90.2 104.5 89.6 103.65 88.9 103.3 87.65 102.7 86.2 102.2 L85.7 101.75 85.8 101.3 86.2 100.5 84.15 100.95 81.25 102.25 80.5 102.45 79.5 102.55 78.75 102.7 77.8 102.85 76.25 103.15 70.75 103.55 Q68.6 103.5 66.5 103.6 L65.75 103.65 61.25 103.75 60.6 103.6 Q59.35 102.85 59.0 101.95 57.95 102.45 56.75 102.6 L52.45 103.0 51.5 103.15 48.95 103.55 48.25 103.4 47.4 103.2 45.45 102.95 41.95 102.75 38.2 103.0 36.7 102.75 Q37.35 101.65 38.7 100.9 L38.45 100.9 32.2 101.1 29.95 101.35 Q28.65 101.6 27.45 102.0 L26.7 102.1 Q25.45 102.05 24.45 102.5 L23.95 102.6 21.95 103.0 Q20.65 103.6 19.95 103.0 L23.7 100.45 23.95 100.35 Q25.3 100.05 26.45 99.45 L23.2 99.55 22.45 99.4 20.45 99.35 18.7 99.7 18.2 99.75 15.45 99.95 13.95 100.1 8.45 100.75 10.4 99.65 Q11.3 99.1 12.65 98.65 L14.2 98.05 Q16.3 97.0 18.45 96.25 L19.2 96.05 19.9 95.85 20.95 95.75 21.35 95.65 Q22.45 94.9 23.95 94.65 L24.45 94.55 26.7 94.25 29.45 94.15 30.45 94.05 30.9 93.9 31.1 93.8 31.85 93.55 Q32.5 93.1 33.45 92.75 L34.25 92.35 34.85 91.9 Q35.35 91.35 36.2 91.05 L37.15 90.65 Q38.45 90.05 39.45 89.75 L41.45 89.3 45.95 89.0 50.95 88.65 51.45 88.6 54.45 88.15 54.7 88.1 Q55.65 87.95 56.2 87.5 57.0 86.85 58.25 86.75 L58.65 86.65 58.85 86.45 59.5 86.15 59.75 86.1 63.25 85.95 65.75 85.8 66.45 85.6 Q67.85 85.05 69.5 85.0 L70.25 84.9 72.75 84.4 73.0 84.35 74.25 84.15 77.45 83.4 77.2 83.35 76.0 82.95 74.7 82.55 74.0 82.4 73.2 82.25 70.7 81.95 69.4 81.6 69.05 81.4 Q68.7 81.0 67.95 81.05 L65.7 80.75 65.2 80.65 62.95 80.25 62.45 80.15 60.9 79.85 Q59.55 79.3 57.95 79.5 L55.95 79.25 Q55.3 78.9 54.45 78.9 53.45 78.85 52.5 78.2 L51.95 78.3 Q51.0 78.3 50.45 78.75 L50.2 78.9 48.45 78.8 47.7 78.65 46.4 78.35 45.45 78.1 41.7 78.1 37.7 77.75 38.7 76.5 38.9 76.25 39.05 75.8 Q39.65 74.8 41.2 74.75 L40.95 74.7 40.45 74.65 Q39.7 74.7 39.2 74.25 39.3 73.4 39.9 72.95 L40.45 72.75 Q41.4 72.65 42.2 72.2 L43.0 71.9 44.45 71.3 Q45.4 70.7 46.45 70.5 L44.9 69.85 44.7 69.7 Q44.55 68.7 45.45 68.45 L45.95 68.4 46.95 68.45 47.4 68.6 48.0 68.9 48.4 69.1 49.95 69.25 Q49.3 68.95 49.1 68.25 L49.05 68.0 48.65 67.05 Q47.95 66.05 48.65 65.8 L49.25 66.45 50.05 67.35 51.2 68.75 51.4 69.0 51.75 69.4 52.95 70.5 53.2 69.75 53.6 68.5 Q53.9 67.3 55.2 67.0 L54.6 69.25 Q54.5 69.75 54.75 70.25 L55.15 71.05 55.65 72.25 Q55.85 73.0 55.95 72.5 L56.1 72.0 Q56.1 71.55 56.45 71.25 57.4 70.4 57.95 69.25 L59.3 71.2 59.55 71.8 Q60.1 73.35 61.45 72.25 L61.7 72.05 62.95 71.3 63.75 70.9 Q63.55 70.25 63.95 70.15 64.2 70.15 64.35 69.95 L65.15 69.15 65.75 68.85 66.15 68.65 66.75 68.35 68.95 68.1 Q69.95 68.25 70.2 67.75 68.85 66.75 66.95 67.05 65.85 67.2 65.7 66.5 L67.2 65.45 67.45 65.25 Q68.4 64.15 69.65 63.65 L72.45 62.75 73.45 62.45 75.3 61.65 Q76.95 60.9 77.2 60.4 77.35 59.85 78.0 59.9 78.6 59.95 79.9 60.8 L80.85 61.3 80.5 60.1 80.15 58.65 80.7 58.85 81.75 59.0 Q82.6 59.25 83.45 59.85 L84.15 60.45 85.15 61.2 Q84.95 60.75 85.15 60.4 85.65 59.7 86.35 59.35 L86.65 59.35 87.0 59.9 87.1 60.15 Q87.45 61.2 88.1 61.15 L89.3 60.85 89.6 60.65 Q90.4 60.0 91.7 59.6 L92.1 59.4 93.7 58.05 93.4 57.65 Q93.2 57.15 92.8 57.2 L92.55 57.25 90.7 57.35 Q90.8 56.35 91.55 55.8 L91.9 55.6 93.95 55.2 93.45 55.0 93.3 54.85 Q92.95 54.2 92.35 54.05 L92.15 53.85 Q91.45 52.9 90.65 52.45 L91.65 52.15 93.05 51.8 Q94.35 51.6 95.7 52.45 L96.65 52.65 Q95.35 52.15 94.65 50.6 L95.7 50.5 96.55 50.65 Q96.9 50.7 97.1 50.9 97.6 51.4 98.15 51.35 L98.0 50.75 97.5 48.55 97.4 47.95 96.6 47.75 95.3 47.6 94.65 47.55 94.05 47.55 93.4 47.6 92.35 47.75 91.95 47.8 Q91.15 48.0 90.45 47.8 L90.25 47.75 Q87.8 48.2 86.2 50.05 L86.2 49.5 86.2 49.1 86.3 48.6 Q86.45 47.8 87.2 47.6 L87.6 47.4 Q88.75 46.6 89.7 44.95 88.8 44.8 87.7 45.35 L87.5 45.4 Q86.65 45.55 86.2 46.15 L85.85 46.4 83.9 47.1 83.15 47.4 79.75 48.5 79.6 48.7 79.15 49.25 78.05 50.0 77.85 50.1 76.7 50.6 73.7 51.6 73.6 51.65 72.7 51.75 Q72.15 51.85 71.75 52.25 71.05 53.15 69.8 53.6 L69.3 54.05 Q69.2 54.7 68.75 54.75 L68.75 54.0 68.75 50.75 68.4 51.15 65.95 52.7 65.4 53.15 64.25 53.6 59.5 53.9 59.25 53.95 59.25 53.75 59.35 53.3 60.0 52.25 60.4 51.7 60.6 51.4 Q61.35 50.7 62.25 50.25 L61.75 50.25 61.3 50.35 60.0 50.8 Q58.45 51.05 57.45 51.65 L57.0 51.75 53.7 52.3 53.2 52.4 50.45 52.8 49.7 52.9 Q46.8 53.05 44.2 54.5 L43.45 54.75 35.45 55.0 34.8 55.15 33.45 55.6 30.95 55.85 29.7 55.9 Q27.1 55.75 24.95 54.8 L24.3 54.4 Q23.65 53.85 22.45 54.05 L17.95 54.25 15.2 54.45 12.2 55.25 11.2 55.55 8.2 55.45 Q5.3 54.3 2.2 54.25 L-1.05 54.15 -2.0 53.9 -3.85 52.8 -7.0 50.95 Q-8.2 50.3 -9.35 49.85 L-9.7 49.65 -10.8 49.5 -12.8 49.75 -13.55 49.65 Q-15.75 49.1 -17.8 49.7 L-21.3 50.8 Q-21.8 51.0 -22.2 51.35 -22.75 51.8 -22.8 51.25 L-22.05 50.95 -21.85 50.75 -21.7 50.3 Q-21.05 49.25 -20.55 48.0 L-20.25 47.55 Q-19.65 46.95 -19.3 46.0 L-19.55 46.15 -24.05 45.95 -24.8 45.85 Q-28.55 45.55 -32.05 46.55 L-32.6 46.7 M-31.55 39.0 L-33.3 38.85 -33.8 38.95 -34.9 39.2 -33.8 38.95 -33.3 38.85 -31.55 39.0 M98.5 51.65 L98.15 51.35 98.5 51.65 M107.05 50.9 Q106.8 50.3 107.15 50.0 107.45 49.75 107.8 49.65 108.55 49.25 108.7 48.4 L106.85 47.85 Q106.1 47.6 105.35 47.85 L105.0 48.0 104.15 48.65 Q103.65 49.25 103.5 48.75 L103.6 47.5 Q103.65 47.05 103.85 46.7 L105.1 44.45 102.5 45.15 Q102.2 45.2 102.0 45.4 100.9 46.1 100.1 47.35 L99.7 48.0 Q99.3 48.65 99.1 47.85 L99.05 47.6 98.85 46.9 98.5 44.4 97.95 44.95 97.65 45.55 Q97.25 46.65 97.4 47.95 97.25 46.65 97.65 45.55 L97.95 44.95 98.5 44.4 98.85 46.9 99.05 47.6 99.1 47.85 Q99.3 48.65 99.7 48.0 L100.1 47.35 Q100.9 46.1 102.0 45.4 102.2 45.2 102.5 45.15 L105.1 44.45 103.85 46.7 Q103.65 47.05 103.6 47.5 L103.5 48.75 Q103.65 49.25 104.15 48.65 L105.0 48.0 105.35 47.85 Q106.1 47.6 106.85 47.85 L108.7 48.4 Q108.55 49.25 107.8 49.65 107.45 49.75 107.15 50.0 106.8 50.3 107.05 50.9 M30.65 98.4 L29.95 98.7 26.7 99.35 26.45 99.45 26.7 99.35 29.95 98.7 30.65 98.4 M34.2 93.25 Q33.9 93.7 32.95 93.55 32.35 93.4 31.85 93.55 32.35 93.4 32.95 93.55 33.9 93.7 34.2 93.25 M56.45 77.0 L55.7 77.1 54.45 77.3 53.45 77.45 Q53.1 77.5 53.05 77.6 L52.5 78.2 53.05 77.6 Q53.1 77.5 53.45 77.45 L54.45 77.3 55.7 77.1 56.45 77.0 M39.45 100.5 L38.7 100.9 39.2 100.7 39.45 100.5 39.75 100.35 Q41.7 99.45 44.2 98.75 41.7 99.45 39.75 100.35 L39.45 100.5 M66.25 100.25 Q66.0 100.65 65.25 100.85 L65.0 100.9 64.0 101.05 60.25 101.55 Q59.65 101.65 59.1 101.9 L59.0 101.95 59.1 101.9 Q59.65 101.65 60.25 101.55 L64.0 101.05 65.0 100.9 65.25 100.85 Q66.0 100.65 66.25 100.25 M78.45 83.5 L77.45 83.4 78.45 83.5 M68.2 71.75 Q67.6 70.95 66.2 70.9 L65.7 70.8 63.75 70.9 65.7 70.8 66.2 70.9 Q67.6 70.95 68.2 71.75" fill="url(#gradient1)" fill-rule="evenodd" stroke="none"/>
    <path d="M-135.85 -116.9 L-131.55 -116.4 -130.8 -116.35 -130.55 -116.35 Q-131.05 -117.7 -132.45 -118.25 L-133.5 -118.95 -133.95 -119.3 Q-132.05 -119.4 -130.55 -118.5 L-129.9 -118.05 -128.95 -117.3 -128.7 -117.1 -128.7 -117.85 -128.35 -119.5 -128.2 -119.95 -128.1 -120.3 -128.05 -120.6 -126.25 -118.65 -125.8 -118.25 -125.3 -117.85 Q-124.9 -119.1 -123.55 -119.55 L-119.95 -120.25 -120.3 -119.5 Q-121.0 -118.75 -121.05 -117.75 -120.0 -118.65 -118.55 -118.95 L-118.05 -119.05 -116.05 -118.95 -115.8 -118.85 -116.65 -118.25 -116.95 -118.0 -117.15 -117.7 -117.2 -117.35 -116.55 -117.2 -114.8 -117.15 -114.05 -116.95 -113.45 -116.6 Q-114.1 -116.45 -114.15 -115.6 -114.2 -115.15 -113.55 -115.2 L-112.2 -115.1 -111.7 -115.15 -111.45 -115.25 -105.8 -115.2 -105.2 -115.1 -104.0 -114.65 -103.7 -114.55 -102.2 -114.3 -101.3 -114.15 -100.45 -114.05 -98.2 -113.85 -96.55 -113.75 -94.95 -113.5 -93.7 -113.2 -93.55 -113.15 -93.35 -113.05 -89.75 -112.6 -89.05 -112.45 -86.55 -112.1 -85.3 -112.0 -81.55 -111.9 -81.05 -111.8 -78.55 -111.3 -78.05 -111.15 -77.8 -111.1 -74.05 -110.95 -72.3 -110.85 -70.35 -110.55 -69.75 -110.35 -69.3 -110.25 -67.05 -110.05 -65.55 -109.8 -65.05 -109.7 -64.55 -109.5 Q-64.5 -110.95 -65.25 -112.05 -65.95 -113.15 -66.95 -113.75 L-65.95 -113.55 -62.85 -112.45 -62.5 -112.2 -61.95 -111.8 -62.0 -111.85 -62.8 -114.0 -63.9 -116.3 -64.1 -116.5 Q-63.95 -116.7 -63.6 -116.35 -62.7 -115.5 -61.5 -115.0 L-60.95 -114.6 -59.9 -113.8 -59.75 -113.6 -59.45 -113.25 Q-59.5 -113.0 -59.3 -113.5 -58.6 -115.25 -57.05 -116.3 L-56.35 -116.45 -55.85 -116.6 Q-56.5 -115.0 -56.6 -113.25 L-56.6 -112.65 -56.25 -113.15 -55.5 -113.75 -54.6 -114.25 -53.95 -114.55 -52.45 -114.8 -50.6 -114.8 -47.5 -114.5 -48.2 -114.35 -48.65 -114.05 -51.2 -112.6 -51.6 -112.35 -51.75 -112.0 -51.85 -111.85 -50.85 -111.85 -49.6 -111.75 Q-48.55 -111.6 -47.6 -111.0 L-48.1 -110.95 -48.85 -110.85 Q-50.45 -110.6 -50.6 -109.35 L-49.45 -109.5 -46.6 -109.75 -46.1 -109.65 -44.85 -109.15 -44.45 -109.1 -45.05 -110.85 -45.1 -111.5 Q-43.4 -111.0 -42.0 -109.8 L-40.95 -108.85 Q-40.65 -108.55 -40.35 -108.35 L-41.25 -111.6 -41.65 -112.75 -41.7 -113.25 -39.7 -111.85 -39.25 -111.45 -37.65 -109.5 -37.45 -109.25 -37.2 -109.0 Q-37.35 -111.65 -36.05 -113.95 L-35.45 -115.35 Q-34.6 -114.05 -34.5 -112.25 L-34.35 -111.6 -33.8 -109.85 -33.7 -109.6 -33.4 -110.15 -32.35 -110.6 Q-30.2 -111.4 -27.95 -111.4 L-27.35 -111.4 -26.7 -111.25 Q-27.8 -111.0 -28.55 -110.05 L-28.7 -109.85 -28.95 -108.75 -28.9 -108.4 Q-26.6 -108.8 -24.1 -108.5 L-23.7 -108.35 -22.35 -107.85 Q-22.45 -107.65 -22.85 -107.7 L-23.7 -107.55 -24.3 -107.2 -24.85 -106.75 Q-24.75 -106.4 -24.2 -106.3 L-22.7 -105.9 -21.2 -105.7 -20.7 -105.6 -20.2 -105.5 Q-20.4 -106.4 -20.9 -107.25 L-21.1 -107.75 Q-18.45 -107.3 -17.55 -105.1 L-17.45 -105.0 -17.45 -106.0 Q-17.45 -107.85 -17.75 -109.6 L-17.85 -109.85 -17.2 -109.1 -15.55 -106.65 -15.0 -105.95 -14.9 -106.2 -14.6 -106.55 -13.55 -107.45 -12.45 -108.15 -12.1 -108.3 -11.15 -108.35 -11.15 -108.1 Q-11.35 -107.15 -11.8 -106.3 -11.95 -106.0 -11.75 -105.9 L-11.7 -105.75 -11.7 -105.6 -9.35 -106.8 -9.1 -106.85 -8.15 -106.75 -8.1 -106.6 -8.6 -105.1 -8.85 -104.0 -5.8 -104.65 -5.45 -104.6 -5.15 -104.55 Q-4.7 -104.75 -4.0 -105.05 L-2.65 -105.35 -2.15 -105.5 Q-2.05 -104.45 -2.6 -103.55 L-2.8 -103.1 Q-2.35 -102.9 -1.75 -103.1 L-0.3 -103.45 Q2.1 -103.8 4.2 -102.85 3.6 -102.3 2.7 -101.95 2.05 -101.55 1.95 -101.0 3.4 -101.25 4.45 -100.6 5.35 -100.0 6.45 -99.95 L6.95 -100.0 Q8.85 -100.7 10.5 -99.7 L10.95 -99.6 11.85 -99.5 10.75 -102.85 Q10.45 -103.6 10.6 -103.85 13.0 -103.2 15.15 -102.05 L15.55 -101.75 15.8 -101.25 15.9 -100.85 16.15 -100.0 16.3 -99.8 16.35 -99.6 16.4 -100.25 Q16.45 -101.85 17.45 -103.1 L17.65 -103.6 17.85 -103.75 Q18.4 -102.8 18.25 -101.5 18.15 -100.8 18.4 -100.25 L18.5 -100.0 18.6 -99.85 Q18.8 -100.65 19.55 -101.05 L19.85 -101.25 Q20.35 -101.65 20.95 -101.85 L21.2 -102.0 Q21.6 -101.85 21.5 -101.25 21.25 -99.75 21.45 -98.25 22.3 -98.85 23.45 -99.15 L23.95 -99.25 28.1 -99.7 28.45 -99.6 28.6 -99.6 Q28.7 -99.3 28.1 -98.85 L27.5 -98.15 27.35 -97.95 26.45 -97.35 28.2 -97.8 28.85 -97.85 30.85 -97.75 Q31.3 -97.0 30.9 -96.75 L30.65 -96.55 Q30.25 -96.1 29.7 -95.9 L29.45 -95.8 28.1 -94.5 27.95 -94.35 28.85 -94.45 31.2 -94.35 Q33.55 -93.85 35.35 -92.5 34.4 -92.55 33.65 -92.15 L33.6 -92.0 Q33.6 -91.7 33.75 -91.55 L34.35 -91.35 38.45 -91.2 38.85 -91.1 40.7 -90.35 39.55 -92.8 38.95 -93.45 Q38.7 -93.55 38.7 -93.75 L41.85 -92.8 43.3 -92.05 43.7 -91.95 43.85 -91.9 44.95 -91.15 44.05 -92.75 43.65 -93.75 42.85 -95.1 Q41.9 -95.95 41.85 -97.35 L41.95 -97.25 44.3 -95.3 44.65 -95.05 46.2 -93.5 47.1 -92.7 47.2 -92.6 Q47.5 -93.0 47.4 -93.85 47.3 -94.65 47.65 -95.3 L47.85 -96.0 48.25 -97.35 48.4 -97.75 48.65 -98.3 49.0 -98.7 50.25 -95.25 50.3 -95.0 50.8 -93.6 50.9 -93.35 51.45 -93.8 52.45 -94.25 54.2 -94.8 54.35 -94.75 54.65 -94.75 55.1 -94.65 55.45 -94.5 54.75 -93.4 54.7 -93.25 54.7 -92.0 58.35 -92.8 59.2 -92.6 59.7 -92.45 Q58.3 -91.6 57.4 -90.2 L57.4 -90.15 58.35 -90.55 60.1 -91.2 60.35 -91.3 61.7 -91.5 Q63.5 -91.75 65.1 -91.45 L65.85 -91.3 67.7 -91.0 66.35 -92.25 65.2 -93.25 69.05 -92.0 69.45 -91.75 70.35 -91.0 70.45 -90.9 Q69.5 -92.25 68.8 -93.85 L68.6 -94.25 68.2 -95.0 68.85 -94.7 71.15 -93.65 71.6 -93.25 73.6 -91.35 72.95 -92.5 72.15 -94.35 71.9 -95.25 71.85 -95.85 Q73.65 -95.1 74.85 -93.5 L75.6 -92.25 76.35 -91.35 Q76.25 -93.35 76.75 -95.25 L76.85 -95.6 77.4 -96.3 77.55 -96.3 77.7 -96.1 78.15 -94.1 78.4 -93.0 78.7 -92.35 79.2 -91.1 79.45 -91.5 79.55 -92.0 Q80.0 -93.1 81.1 -93.6 L81.95 -93.75 Q81.9 -92.7 81.4 -91.85 81.05 -91.25 81.3 -90.8 L81.5 -90.4 81.7 -90.3 Q82.2 -90.3 82.55 -90.65 L82.85 -90.8 84.85 -90.65 85.65 -90.7 86.35 -90.9 86.6 -91.0 Q87.5 -91.55 88.6 -91.6 L90.1 -91.65 90.45 -91.7 93.35 -91.75 94.5 -91.5 95.35 -91.25 98.2 -90.95 98.45 -90.8 97.9 -91.7 97.1 -92.4 96.65 -92.9 95.5 -94.05 95.3 -94.2 95.15 -94.35 Q95.85 -93.9 96.85 -93.7 L99.1 -93.0 Q99.35 -92.85 99.6 -92.8 L100.2 -92.35 100.2 -94.35 100.35 -94.75 100.7 -94.65 101.15 -94.2 101.6 -93.75 102.65 -92.15 102.85 -92.0 103.0 -92.35 103.7 -93.1 104.4 -93.9 104.5 -94.05 104.85 -94.2 106.2 -94.55 106.45 -94.6 106.85 -94.5 106.65 -93.35 106.6 -92.6 106.55 -91.1 106.45 -91.0 Q107.2 -91.15 107.9 -91.7 L108.2 -91.8 109.7 -91.75 110.35 -91.75 110.2 -90.95 110.05 -90.6 110.0 -90.25 110.1 -89.6 112.6 -90.3 113.45 -90.35 115.5 -90.75 116.85 -90.9 118.9 -90.75 119.7 -90.5 M118.45 7.25 L113.3 7.6 Q112.7 8.2 111.7 8.5 L110.7 8.65 106.2 8.7 101.45 8.95 100.75 9.1 99.45 9.25 Q97.9 9.2 97.05 8.5 97.8 9.3 97.95 10.5 L96.95 10.4 96.45 10.4 Q94.6 10.45 93.0 9.7 92.6 9.5 92.15 9.4 L91.2 9.15 90.7 9.05 88.95 8.85 85.85 8.75 88.15 11.8 88.5 12.25 87.75 12.2 87.25 12.05 86.95 11.9 Q86.7 11.45 86.0 11.4 L85.05 11.15 83.75 10.9 79.5 10.9 74.5 11.2 73.8 11.35 69.75 12.8 69.25 12.9 68.75 12.8 Q67.65 12.4 68.25 11.5 68.8 10.8 69.3 10.6 L69.65 10.4 Q70.5 9.75 71.3 9.35 L72.2 8.95 74.0 8.15 69.25 8.25 68.8 8.35 68.0 8.5 58.25 8.85 Q57.9 8.9 57.6 9.1 L57.2 9.4 55.0 9.55 53.45 8.85 53.2 8.65 Q52.85 7.95 53.25 7.7 L53.6 7.15 53.5 7.15 52.8 7.35 50.25 7.75 45.75 7.5 45.3 7.6 44.0 7.85 38.5 7.65 Q35.75 7.15 33.0 7.7 L32.3 7.9 30.5 8.2 28.05 7.7 27.85 7.5 27.85 7.15 Q28.7 6.45 29.8 5.85 27.0 4.95 23.75 5.2 L22.5 5.45 20.95 5.75 20.5 5.85 17.2 5.7 16.2 5.45 7.2 5.25 6.2 5.15 3.95 5.1 Q3.15 5.2 2.95 4.75 L3.15 4.5 3.35 4.0 Q3.45 3.4 4.2 3.05 L4.95 2.8 -0.05 3.5 -1.0 3.4 -5.05 3.5 -7.55 3.85 -16.3 3.5 -15.3 3.0 -14.5 2.6 -13.1 1.7 -12.8 1.6 -11.25 1.05 -10.35 0.65 -9.5 0.35 -7.3 -0.45 -7.0 -0.6 Q-6.85 -0.9 -6.3 -0.85 L-4.05 -1.1 -3.8 -1.15 Q-2.35 -1.2 -1.05 -2.0 L-1.3 -2.15 -1.75 -2.35 -2.35 -2.55 -4.3 -2.9 -5.35 -2.85 -6.05 -2.75 Q-5.25 -3.05 -4.3 -3.75 -3.5 -4.35 -2.3 -4.3 L-0.55 -4.15 -0.3 -4.1 1.95 -3.75 1.5 -4.05 1.25 -4.5 1.1 -4.85 Q0.3 -5.4 -0.15 -6.4 L0.15 -6.8 0.9 -6.9 1.95 -6.65 2.9 -6.4 3.5 -6.15 Q4.65 -5.75 5.4 -4.7 6.1 -3.75 6.45 -4.0 L6.3 -4.25 6.1 -4.65 5.7 -5.5 4.75 -7.3 3.45 -8.75 5.2 -8.75 5.65 -8.65 6.45 -8.5 6.9 -8.4 7.5 -8.05 8.4 -7.4 8.8 -7.15 9.65 -6.45 11.2 -4.5 Q11.75 -4.7 11.95 -5.25 L12.05 -5.75 Q12.05 -6.35 12.45 -6.75 L12.8 -7.3 13.45 -7.95 13.9 -8.35 Q14.25 -9.15 14.45 -8.5 14.2 -8.25 14.2 -7.75 L14.1 -6.75 14.05 -6.5 13.85 -5.25 Q13.75 -4.4 14.2 -4.25 L14.45 -4.45 14.95 -4.8 15.95 -5.45 16.45 -5.65 17.4 -6.1 Q18.1 -6.7 18.95 -6.9 L19.95 -7.05 Q20.6 -7.15 20.7 -6.75 20.15 -6.65 20.2 -6.0 L20.0 -5.0 Q19.3 -4.15 19.7 -3.75 L19.95 -3.9 21.45 -3.9 22.95 -3.55 24.15 -3.15 Q24.55 -4.3 25.2 -4.6 L27.0 -5.2 27.4 -5.35 29.0 -6.1 29.8 -6.45 Q31.8 -7.95 34.25 -8.6 L34.5 -8.6 Q35.25 -8.55 35.75 -9.0 L36.0 -9.15 37.3 -9.45 37.35 -9.45 35.75 -9.85 35.25 -9.9 34.25 -10.1 33.75 -10.2 Q32.45 -10.5 31.7 -10.95 L30.5 -11.35 30.0 -11.35 28.05 -11.45 29.2 -13.55 25.0 -13.5 23.75 -13.6 Q22.8 -13.75 22.2 -13.25 22.1 -13.1 21.95 -13.1 L19.95 -12.9 Q18.8 -12.75 18.45 -13.25 L16.45 -13.9 15.95 -13.85 13.2 -13.6 11.95 -13.7 10.75 -13.9 9.9 -14.05 Q7.95 -14.4 6.2 -14.1 L5.2 -14.0 2.7 -13.9 Q1.1 -13.8 -0.25 -14.6 L-1.55 -14.5 Q-1.65 -14.35 -1.8 -14.35 L-6.3 -13.5 Q-7.4 -13.35 -7.3 -13.5 L-6.85 -13.8 -6.5 -14.2 -6.1 -14.55 -5.05 -15.5 -4.85 -15.75 -4.6 -16.05 -6.8 -15.9 -7.3 -15.75 Q-8.75 -14.95 -10.55 -15.35 L-12.8 -15.7 -14.3 -15.85 -19.3 -16.15 -20.05 -16.1 -25.3 -16.0 -26.8 -15.9 Q-28.3 -15.75 -28.0 -17.55 L-28.3 -17.55 -37.8 -17.0 -38.5 -17.1 -40.3 -17.5 Q-41.8 -17.75 -42.65 -17.1 L-42.5 -17.75 -42.35 -18.0 -41.3 -19.0 -41.55 -19.05 -42.05 -19.1 -44.1 -18.85 Q-45.9 -18.35 -47.8 -18.2 L-58.55 -17.75 -59.3 -17.85 -61.8 -18.1 -63.85 -18.4 -65.3 -18.25 Q-64.6 -18.1 -64.0 -17.55 L-63.6 -17.2 -63.2 -16.85 -62.95 -16.65 Q-62.2 -15.85 -61.3 -15.75 L-64.8 -15.75 -65.5 -15.9 -66.55 -16.3 -72.05 -16.8 -77.3 -17.25 -78.05 -17.35 -80.55 -17.15 -81.05 -17.1 -81.8 -17.1 Q-82.7 -17.05 -83.35 -17.45 L-85.35 -18.15 Q-86.35 -18.35 -87.25 -18.85 L-88.35 -19.25 -95.8 -19.75 -96.75 -19.85 Q-98.0 -20.15 -99.0 -21.05 -99.35 -21.35 -99.85 -21.35 L-108.85 -20.9 -110.05 -20.65 -111.35 -20.5 -112.05 -20.35 Q-112.75 -20.05 -112.85 -20.5 L-112.75 -20.95 -112.65 -21.25 -112.55 -21.75 Q-112.45 -22.25 -112.85 -22.25 L-117.1 -22.3 -120.6 -21.9 -123.6 -21.0 Q-125.45 -20.3 -126.35 -21.25 -126.95 -21.85 -127.85 -21.9 L-133.1 -22.0 -133.75 -21.85 -134.2 -21.6 -134.55 -21.4 -134.85 -21.35 -137.1 -21.5 -137.0 -21.9 -135.6 -23.25 -136.3 -23.35 -137.35 -23.4 -139.6 -23.1 -148.1 -22.15 -148.35 -22.1 Q-150.85 -21.25 -153.6 -21.5 L-154.05 -21.6 -156.1 -21.85 -158.35 -21.5 -159.1 -21.4 Q-160.25 -21.55 -160.35 -20.75 L-160.1 -20.7 Q-158.65 -20.25 -157.6 -19.25 L-165.1 -19.7 -168.85 -19.65 -171.1 -19.6 -178.0 -19.6 -180.35 -19.6 -181.65 -19.4 -183.35 -19.2 -184.45 -19.0 M-184.2 -124.35 Q-183.85 -123.95 -183.1 -124.05 L-181.7 -124.05 -180.65 -123.65 -180.45 -123.55 -179.35 -123.3 -179.0 -123.2 -178.2 -123.1 Q-178.7 -124.95 -180.1 -126.0 L-180.2 -126.1 Q-180.1 -126.45 -179.65 -126.2 L-179.1 -125.95 -178.7 -125.8 -178.35 -125.7 -177.6 -125.3 -177.35 -125.1 -176.7 -124.5 -176.1 -124.0 Q-176.35 -124.45 -176.05 -125.05 L-175.9 -125.6 -175.75 -126.0 -175.25 -127.5 -175.15 -127.8 -175.05 -128.1 -174.95 -128.25 Q-174.6 -128.2 -174.6 -127.85 L-174.5 -127.25 -173.8 -125.7 -173.55 -125.25 -173.15 -124.45 -173.15 -124.5 Q-172.7 -125.6 -171.9 -126.2 -171.0 -126.95 -169.85 -127.15 L-169.7 -127.25 Q-169.6 -127.25 -169.65 -126.75 L-169.7 -123.25 -167.95 -124.35 -167.6 -124.45 -164.45 -124.25 Q-164.65 -123.55 -165.2 -123.0 L-165.65 -122.65 -166.0 -122.0 -166.05 -121.75 Q-166.05 -121.25 -165.7 -121.3 L-164.7 -121.45 -164.35 -121.5 -161.4 -121.1 -160.9 -120.9 -159.95 -120.35 Q-158.45 -119.55 -156.7 -119.6 L-156.2 -119.5 -155.2 -119.2 -154.85 -119.1 Q-154.6 -119.25 -154.65 -119.75 -154.75 -120.45 -155.35 -120.85 L-156.0 -121.3 -156.35 -121.5 -155.7 -121.55 -154.65 -121.2 -153.2 -120.1 Q-153.1 -121.15 -152.25 -121.9 L-151.2 -122.75 Q-151.0 -122.2 -151.1 -121.35 -151.15 -120.6 -150.85 -120.1 -149.95 -120.9 -148.95 -121.3 L-148.6 -121.35 -143.7 -120.75 -145.35 -119.1 -145.3 -118.55 -145.2 -118.25 -144.35 -118.4 -144.1 -118.4 -142.6 -118.3 -141.85 -118.2 -141.35 -118.05 -139.35 -117.4 Q-138.3 -116.9 -137.1 -117.0 L-136.15 -116.9 -135.85 -116.9 -136.1 -116.9 -136.15 -116.9 M57.4 -90.15 L57.25 -89.9 M70.45 -90.9 L70.7 -90.85 M-28.9 -108.4 L-28.95 -108.4 Q-29.2 -108.4 -29.1 -108.1 L-28.9 -108.4 M-61.95 -111.8 L-61.7 -111.6 M-28.0 -17.55 L-27.3 -17.65 -25.35 -17.95 -24.5 -18.2 -22.55 -18.7 -21.55 -18.8 -20.8 -19.0 Q-20.25 -19.15 -20.3 -18.75 M-32.6 46.7 L-32.35 46.5 -31.95 45.8 Q-31.1 44.45 -29.85 43.7 -29.55 43.5 -29.25 43.45 L-27.55 43.0 -24.8 42.0 Q-26.15 41.4 -27.8 41.45 L-30.05 41.4 Q-33.0 41.1 -36.05 41.35 L-36.75 41.6 Q-37.5 42.05 -37.55 41.5 -37.5 40.1 -36.35 39.65 L-34.9 39.2 Q-34.4 37.25 -32.8 37.0 -29.9 36.5 -27.25 35.6 L-24.3 35.2 -23.55 35.25 Q-24.1 34.75 -25.25 34.4 L-26.8 33.75 Q-28.05 33.0 -30.05 33.0 -28.7 31.75 -26.8 31.85 L-26.05 31.85 -25.0 31.9 Q-23.85 32.2 -22.8 32.75 L-22.3 32.95 Q-21.5 33.2 -21.05 33.75 -20.65 33.7 -21.25 33.2 L-21.8 32.75 Q-23.0 31.3 -24.75 30.15 L-25.55 29.5 Q-26.1 28.9 -27.05 28.75 -27.1 27.95 -26.05 28.15 L-24.8 28.25 Q-23.05 28.35 -21.55 28.95 L-20.8 29.2 Q-18.8 29.6 -17.5 30.95 L-16.8 31.75 -18.6 28.75 -18.8 28.5 -19.55 27.75 Q-19.9 27.35 -19.9 26.5 L-20.05 26.0 Q-20.0 25.6 -19.45 26.2 L-18.8 26.75 Q-17.7 27.45 -16.8 28.25 L-15.15 29.85 -14.9 30.15 -14.65 30.35 -14.3 30.75 -14.05 31.5 Q-13.6 31.2 -13.75 30.25 L-13.7 29.45 -13.45 28.75 -13.3 28.5 -11.3 26.5 Q-10.85 26.55 -10.95 27.25 -11.2 28.65 -10.6 29.3 L-10.3 29.75 -9.8 30.5 Q-8.9 28.05 -6.3 27.45 L-5.8 27.3 -5.05 27.25 Q-4.75 27.55 -5.2 28.1 L-5.35 28.5 Q-5.5 29.2 -5.25 29.45 -4.9 29.75 -4.7 30.2 L-4.4 31.05 -4.3 31.5 Q-3.95 30.75 -3.85 29.75 L-3.65 29.2 -2.6 28.2 -2.0 27.85 -1.55 27.7 Q-1.0 27.65 -0.65 28.15 L-0.3 28.55 1.25 29.7 1.95 30.2 2.95 31.0 2.3 29.2 2.15 28.75 Q1.8 27.75 1.95 26.5 3.45 26.95 4.1 27.9 L4.45 28.0 4.55 25.25 4.6 24.75 4.75 23.5 Q4.8 23.05 5.4 22.85 L5.75 22.55 Q6.1 22.25 6.5 22.1 L6.9 21.9 7.65 21.0 8.15 20.4 8.45 20.0 Q9.35 18.15 11.7 17.0 L10.8 19.55 Q10.05 21.45 9.7 23.5 9.6 24.2 9.85 24.8 L10.0 25.25 10.7 26.5 11.5 25.3 11.65 25.0 Q12.15 24.15 12.75 23.9 13.5 23.9 13.85 24.4 L14.4 25.05 Q15.3 25.95 16.45 26.0 L17.0 25.85 18.7 25.55 21.0 25.9 21.9 25.85 22.75 25.6 23.15 25.4 25.95 24.55 28.2 24.75 31.0 25.85 33.2 25.75 Q33.3 24.35 31.95 23.55 L30.0 22.65 28.7 22.0 29.7 21.9 32.2 22.3 33.7 22.55 34.5 22.7 35.2 23.05 35.45 23.15 Q36.25 23.35 36.95 24.25 36.35 22.7 35.4 22.05 L33.25 20.4 32.95 20.0 Q32.4 19.15 31.45 19.0 32.65 18.5 34.05 19.0 L34.3 18.9 34.95 18.8 37.7 19.8 37.95 20.0 39.5 21.2 Q40.25 21.9 40.5 23.0 L40.75 23.45 41.45 24.25 Q41.9 24.15 41.55 23.45 41.25 22.8 41.3 22.0 41.3 21.0 40.95 20.5 L40.35 19.0 40.25 18.7 39.75 17.95 Q39.4 17.7 39.35 17.0 L39.3 16.9 42.25 20.2 42.65 20.55 Q44.2 21.95 44.95 24.5 45.35 24.4 45.35 23.75 L45.45 23.0 46.1 21.3 46.4 20.95 47.0 20.3 47.35 19.95 47.85 19.4 48.45 18.95 48.65 18.7 Q48.9 18.1 49.45 18.0 L48.8 20.05 48.6 20.75 48.05 22.3 47.95 22.75 47.95 23.0 48.5 22.5 48.9 21.95 49.25 21.6 Q49.8 21.05 50.4 20.85 L50.75 20.55 Q50.95 20.4 51.2 20.35 L54.2 20.25 52.8 21.8 51.95 23.25 51.75 23.75 51.7 24.25 52.9 23.7 Q53.65 23.1 54.7 23.0 L55.25 22.85 55.7 22.75 59.3 22.4 60.25 22.25 61.5 22.25 Q61.25 22.95 60.25 23.3 L59.75 23.5 Q58.3 24.05 57.7 25.0 L57.5 25.25 57.05 25.9 58.0 25.75 64.0 25.35 64.75 25.25 67.5 25.1 68.0 25.25 67.05 24.0 66.75 23.5 Q65.9 22.0 64.5 21.0 65.6 21.5 66.55 22.15 L67.0 22.35 Q67.25 22.9 67.75 22.85 L68.55 22.9 68.95 23.1 Q69.5 23.25 69.85 23.7 L70.25 23.95 Q70.9 24.2 71.0 25.0 71.55 24.9 71.15 24.55 L70.7 24.0 Q70.15 22.8 70.05 21.5 L69.9 20.5 69.85 20.25 69.65 19.5 69.5 19.25 Q70.4 19.25 70.85 20.2 L71.2 20.8 74.5 25.5 75.1 23.0 75.25 22.75 77.05 20.8 77.65 20.15 78.25 19.25 77.15 23.2 76.85 24.05 Q76.6 24.8 77.0 25.0 L77.4 24.4 77.95 23.9 78.2 23.5 Q78.5 22.65 79.05 22.05 L79.5 21.7 Q81.0 20.65 82.75 20.15 L82.95 19.95 Q83.2 19.3 84.0 19.25 84.55 18.95 83.95 19.65 L83.45 20.45 83.3 20.8 82.35 21.9 82.15 22.15 81.85 22.6 81.65 22.95 Q81.35 23.65 81.5 24.5 83.1 23.45 85.0 22.55 L85.75 22.2 87.5 21.65 88.0 21.6 89.5 21.5 Q89.55 22.05 89.05 22.2 88.9 22.25 88.7 22.4 L87.2 23.4 Q86.1 24.05 85.75 25.25 87.35 25.2 88.6 24.35 L89.0 24.25 91.5 24.1 94.2 23.75 96.2 24.2 96.65 24.35 97.45 24.4 98.9 23.95 99.2 23.85 100.2 23.65 100.5 23.6 100.9 23.4 102.2 22.55 102.7 22.35 Q104.45 22.25 106.0 22.9 L106.4 22.9 Q107.05 22.5 108.2 22.4 L108.6 22.2 Q109.35 21.25 110.95 21.45 L111.4 21.6 Q112.2 22.1 113.2 22.0 L113.05 21.75 112.85 21.4 112.6 21.15 112.35 20.85 Q112.05 20.55 112.15 19.75 L112.35 19.05 112.8 17.25 113.05 16.55 113.4 15.95 113.8 15.35 114.6 14.2 Q115.2 13.1 116.45 12.75 M30.95 118.45 L31.9 117.7 Q32.4 117.15 33.2 116.9 L33.45 116.85 36.2 116.25 35.7 116.2 34.2 115.75 31.7 114.7 Q30.6 114.2 29.2 114.25 29.8 113.55 30.95 113.4 L31.45 113.35 35.95 113.7 38.2 113.85 Q39.35 113.85 39.9 114.35 40.65 115.05 40.95 114.75 L40.2 113.25 39.9 112.85 38.65 111.55 Q37.15 109.8 36.2 107.75 L39.95 108.55 Q41.45 108.9 42.7 109.75 L42.95 109.95 Q44.55 111.0 45.25 112.45 L45.55 113.3 Q45.75 114.2 46.2 114.5 46.25 113.7 46.55 113.05 L46.75 112.2 47.2 111.5 47.75 110.75 49.0 108.55 Q49.45 107.9 49.7 108.25 49.85 109.2 49.5 110.0 49.0 111.3 49.1 112.75 49.15 113.85 49.45 113.25 L49.7 113.0 50.05 112.45 50.35 111.85 50.6 111.45 51.5 110.6 Q52.9 109.55 54.4 108.65 55.25 108.15 55.45 108.75 55.0 109.25 54.65 110.25 54.2 111.5 54.7 112.25 L54.95 112.05 55.45 111.85 56.2 111.5 Q56.85 110.75 58.2 110.75 L60.65 110.4 61.5 110.1 62.15 109.9 65.7 109.5 Q68.5 109.7 70.95 108.7 L72.0 108.35 72.8 108.0 Q73.6 107.55 74.45 107.5 L76.95 107.4 77.7 107.35 81.95 107.2 Q84.25 107.15 85.7 106.0 L85.9 105.7 Q86.1 105.15 86.7 104.8 88.15 103.9 90.2 104.5 89.6 103.65 88.9 103.3 87.65 102.7 86.2 102.2 L85.7 101.75 85.8 101.3 86.2 100.5 84.15 100.95 81.25 102.25 80.5 102.45 79.5 102.55 78.75 102.7 77.8 102.85 76.25 103.15 70.75 103.55 Q68.6 103.5 66.5 103.6 L65.75 103.65 61.25 103.75 60.6 103.6 Q59.35 102.85 59.0 101.95 57.95 102.45 56.75 102.6 L52.45 103.0 51.5 103.15 48.95 103.55 48.25 103.4 47.4 103.2 45.45 102.95 41.95 102.75 38.2 103.0 36.7 102.75 Q37.35 101.65 38.7 100.9 L38.45 100.9 32.2 101.1 29.95 101.35 Q28.65 101.6 27.45 102.0 L26.7 102.1 Q25.45 102.05 24.45 102.5 L23.95 102.6 21.95 103.0 Q20.65 103.6 19.95 103.0 L23.7 100.45 23.95 100.35 Q25.3 100.05 26.45 99.45 L23.2 99.55 22.45 99.4 20.45 99.35 18.7 99.7 18.2 99.75 15.45 99.95 13.95 100.1 8.45 100.75 10.4 99.65 Q11.3 99.1 12.65 98.65 L14.2 98.05 Q16.3 97.0 18.45 96.25 L19.2 96.05 19.9 95.85 20.95 95.75 21.35 95.65 Q22.45 94.9 23.95 94.65 L24.45 94.55 26.7 94.25 29.45 94.15 30.45 94.05 30.9 93.9 31.1 93.8 31.85 93.55 Q32.5 93.1 33.45 92.75 L34.25 92.35 34.85 91.9 Q35.35 91.35 36.2 91.05 L37.15 90.65 Q38.45 90.05 39.45 89.75 L41.45 89.3 45.95 89.0 50.95 88.65 51.45 88.6 54.45 88.15 54.7 88.1 Q55.65 87.95 56.2 87.5 57.0 86.85 58.25 86.75 L58.65 86.65 58.85 86.45 59.5 86.15 59.75 86.1 63.25 85.95 65.75 85.8 66.45 85.6 Q67.85 85.05 69.5 85.0 L70.25 84.9 72.75 84.4 73.0 84.35 74.25 84.15 77.45 83.4 77.2 83.35 76.0 82.95 74.7 82.55 74.0 82.4 73.2 82.25 70.7 81.95 69.4 81.6 69.05 81.4 Q68.7 81.0 67.95 81.05 L65.7 80.75 65.2 80.65 62.95 80.25 62.45 80.15 60.9 79.85 Q59.55 79.3 57.95 79.5 L55.95 79.25 Q55.3 78.9 54.45 78.9 53.45 78.85 52.5 78.2 L51.95 78.3 Q51.0 78.3 50.45 78.75 L50.2 78.9 48.45 78.8 47.7 78.65 46.4 78.35 45.45 78.1 41.7 78.1 37.7 77.75 38.7 76.5 38.9 76.25 39.05 75.8 Q39.65 74.8 41.2 74.75 L40.95 74.7 40.45 74.65 Q39.7 74.7 39.2 74.25 39.3 73.4 39.9 72.95 L40.45 72.75 Q41.4 72.65 42.2 72.2 L43.0 71.9 44.45 71.3 Q45.4 70.7 46.45 70.5 L44.9 69.85 44.7 69.7 Q44.55 68.7 45.45 68.45 L45.95 68.4 46.95 68.45 47.4 68.6 48.0 68.9 48.4 69.1 49.95 69.25 Q49.3 68.95 49.1 68.25 L49.05 68.0 48.65 67.05 Q47.95 66.05 48.65 65.8 L49.25 66.45 50.05 67.35 51.2 68.75 51.4 69.0 51.75 69.4 52.95 70.5 53.2 69.75 53.6 68.5 Q53.9 67.3 55.2 67.0 L54.6 69.25 Q54.5 69.75 54.75 70.25 L55.15 71.05 55.65 72.25 Q55.85 73.0 55.95 72.5 L56.1 72.0 Q56.1 71.55 56.45 71.25 57.4 70.4 57.95 69.25 L59.3 71.2 59.55 71.8 Q60.1 73.35 61.45 72.25 L61.7 72.05 62.95 71.3 63.75 70.9 Q63.55 70.25 63.95 70.15 64.2 70.15 64.35 69.95 L65.15 69.15 65.75 68.85 66.15 68.65 66.75 68.35 68.95 68.1 Q69.95 68.25 70.2 67.75 68.85 66.75 66.95 67.05 65.85 67.2 65.7 66.5 L67.2 65.45 67.45 65.25 Q68.4 64.15 69.65 63.65 L72.45 62.75 73.45 62.45 75.3 61.65 Q76.95 60.9 77.2 60.4 77.35 59.85 78.0 59.9 78.6 59.95 79.9 60.8 L80.85 61.3 80.5 60.1 80.15 58.65 80.7 58.85 81.75 59.0 Q82.6 59.25 83.45 59.85 L84.15 60.45 85.15 61.2 Q84.95 60.75 85.15 60.4 85.65 59.7 86.35 59.35 L86.65 59.35 87.0 59.9 87.1 60.15 Q87.45 61.2 88.1 61.15 L89.3 60.85 89.6 60.65 Q90.4 60.0 91.7 59.6 L92.1 59.4 93.7 58.05 93.4 57.65 Q93.2 57.15 92.8 57.2 L92.55 57.25 90.7 57.35 Q90.8 56.35 91.55 55.8 L91.9 55.6 93.95 55.2 93.45 55.0 93.3 54.85 Q92.95 54.2 92.35 54.05 L92.15 53.85 Q91.45 52.9 90.65 52.45 L91.65 52.15 93.05 51.8 Q94.35 51.6 95.7 52.45 L96.65 52.65 Q95.35 52.15 94.65 50.6 L95.7 50.5 96.55 50.65 Q96.9 50.7 97.1 50.9 97.6 51.4 98.15 51.35 L98.0 50.75 97.5 48.55 97.4 47.95 96.6 47.75 95.3 47.6 94.65 47.55 94.05 47.55 93.4 47.6 92.35 47.75 91.95 47.8 Q91.15 48.0 90.45 47.8 L90.25 47.75 Q87.8 48.2 86.2 50.05 L86.2 49.5 86.2 49.1 86.3 48.6 Q86.45 47.8 87.2 47.6 L87.6 47.4 Q88.75 46.6 89.7 44.95 88.8 44.8 87.7 45.35 L87.5 45.4 Q86.65 45.55 86.2 46.15 L85.85 46.4 83.9 47.1 83.15 47.4 79.75 48.5 79.6 48.7 79.15 49.25 78.05 50.0 77.85 50.1 76.7 50.6 73.7 51.6 73.6 51.65 72.7 51.75 Q72.15 51.85 71.75 52.25 71.05 53.15 69.8 53.6 L69.3 54.05 Q69.2 54.7 68.75 54.75 L68.75 54.0 68.75 50.75 68.4 51.15 65.95 52.7 65.4 53.15 64.25 53.6 59.5 53.9 59.25 53.95 59.25 54.25 Q58.75 54.05 59.25 53.95 L59.25 53.75 59.35 53.3 60.0 52.25 60.4 51.7 60.6 51.4 Q61.35 50.7 62.25 50.25 L61.75 50.25 61.3 50.35 60.0 50.8 Q58.45 51.05 57.45 51.65 L57.0 51.75 53.7 52.3 53.2 52.4 50.45 52.8 49.7 52.9 Q46.8 53.05 44.2 54.5 L43.45 54.75 35.45 55.0 34.8 55.15 33.45 55.6 30.95 55.85 29.7 55.9 Q27.1 55.75 24.95 54.8 L24.3 54.4 Q23.65 53.85 22.45 54.05 L17.95 54.25 15.2 54.45 12.2 55.25 11.2 55.55 8.2 55.45 Q5.3 54.3 2.2 54.25 L-1.05 54.15 -2.0 53.9 -3.85 52.8 -7.0 50.95 Q-8.2 50.3 -9.35 49.85 L-9.7 49.65 -10.8 49.5 -12.8 49.75 -13.55 49.65 Q-15.75 49.1 -17.8 49.7 L-21.3 50.8 Q-21.8 51.0 -22.2 51.35 -22.75 51.8 -22.8 51.25 L-22.05 50.95 -21.85 50.75 -21.7 50.3 Q-21.05 49.25 -20.55 48.0 L-20.25 47.55 Q-19.65 46.95 -19.3 46.0 L-19.55 46.15 -24.05 45.95 -24.8 45.85 Q-28.55 45.55 -32.05 46.55 L-32.6 46.7 -33.3 47.25 Q-33.8 46.85 -32.6 46.7 M-34.9 39.2 L-33.8 38.95 -33.3 38.85 -31.55 39.0 M74.0 8.15 L74.15 8.15 74.5 8.05 74.75 8.0 74.15 8.15 M97.05 8.5 L96.85 8.3 96.75 8.2 95.95 7.5 95.25 7.1 94.9 6.8 94.45 6.25 M97.4 47.95 Q97.25 46.65 97.65 45.55 L97.95 44.95 98.5 44.4 98.85 46.9 99.05 47.6 99.1 47.85 Q99.3 48.65 99.7 48.0 L100.1 47.35 Q100.9 46.1 102.0 45.4 102.2 45.2 102.5 45.15 L105.1 44.45 103.85 46.7 Q103.65 47.05 103.6 47.5 L103.5 48.75 Q103.65 49.25 104.15 48.65 L105.0 48.0 105.35 47.85 Q106.1 47.6 106.85 47.85 L108.7 48.4 Q108.55 49.25 107.8 49.65 107.45 49.75 107.15 50.0 106.8 50.3 107.05 50.9 M98.15 51.35 L98.5 51.65 M51.25 -8.25 Q49.7 -8.45 48.2 -9.1 L47.5 -9.3 43.25 -9.6 38.0 -9.4 37.35 -9.45 M20.95 -16.0 Q19.85 -15.3 19.1 -14.1 L18.75 -13.7 18.45 -13.25 M29.2 -13.55 L31.0 -13.6 Q31.25 -13.6 31.5 -13.75 M24.15 -3.15 L26.5 -2.5 M29.8 5.85 L31.3 5.1 34.25 3.75 M53.6 7.15 L53.8 6.65 53.85 6.6 Q54.05 6.15 55.1 5.65 56.1 5.1 56.75 5.1 L60.25 4.5 M-4.6 -16.05 L-4.0 -16.4 -3.3 -16.55 0.95 -16.75 M4.95 2.8 L5.2 2.75 5.65 2.65 8.7 1.5 M52.5 78.2 L53.05 77.6 Q53.1 77.5 53.45 77.45 L54.45 77.3 55.7 77.1 56.45 77.0 M31.85 93.55 Q32.35 93.4 32.95 93.55 33.9 93.7 34.2 93.25 M26.45 99.45 L26.7 99.35 29.95 98.7 30.65 98.4 M39.45 100.5 L38.7 100.9 39.2 100.7 39.45 100.5 39.75 100.35 Q41.7 99.45 44.2 98.75 M63.75 70.9 L65.7 70.8 66.2 70.9 Q67.6 70.95 68.2 71.75 M77.45 83.4 L78.45 83.5 M59.0 101.95 L59.1 101.9 Q59.65 101.65 60.25 101.55 L64.0 101.05 65.0 100.9 65.25 100.85 Q66.0 100.65 66.25 100.25" fill="none" stroke="#8aa76c" stroke-linecap="round" stroke-linejoin="round" stroke-width="1.0"/>
    <path d="M45.9 -91.0 Q64.95 -88.25 64.95 -84.3 64.95 -80.4 45.9 -77.6 26.85 -74.85 -0.05 -74.85 -27.0 -74.85 -46.1 -77.6 -65.1 -80.4 -65.1 -84.3 -65.1 -88.25 -46.1 -91.0 -27.0 -93.8 -0.05 -93.75 26.85 -93.8 45.9 -91.0" fill="url(#gradient2)" fill-rule="evenodd" stroke="none"/>
    <path d="M129.3 -50.7 Q95.5 -45.8 47.6 -45.8 -0.3 -45.8 -34.2 -50.7 -68.0 -55.6 -68.0 -62.6 -68.0 -69.6 -34.2 -74.5 -0.3 -79.4 47.6 -79.4 95.5 -79.4 129.3 -74.5 163.2 -69.6 163.2 -62.6 163.2 -55.6 129.3 -50.7" fill="url(#gradient3)" fill-rule="evenodd" stroke="none"/>
    <path d="M137.65 -9.5 Q84.45 -4.45 9.0 -4.45 -66.45 -4.45 -119.8 -9.5 -173.05 -14.55 -173.05 -21.75 -173.05 -28.95 -119.8 -34.0 -66.45 -39.05 9.0 -39.05 84.45 -39.05 137.65 -34.0 191.05 -28.95 191.05 -21.75 191.05 -14.55 137.65 -9.5" fill="url(#gradient4)" fill-rule="evenodd" stroke="none"/>
    <path d="M129.1 14.95 Q103.75 18.6 67.8 18.6 31.9 18.6 6.45 14.95 -18.9 11.25 -18.9 6.0 -18.9 0.75 6.45 -2.9 31.9 -6.6 67.8 -6.6 103.75 -6.6 129.1 -2.9 154.5 0.75 154.5 6.0 154.5 11.25 129.1 14.95" fill="url(#gradient5)" fill-rule="evenodd" stroke="none"/>
    <path d="M83.0 66.95 Q53.6 73.25 11.9 73.25 -29.75 73.25 -59.25 66.95 -88.65 60.6 -88.65 51.55 -88.65 42.5 -59.25 36.15 -29.75 29.8 11.9 29.8 53.6 29.8 83.0 36.15 112.5 42.5 112.5 51.55 112.5 60.6 83.0 66.95" fill="url(#gradient6)" fill-rule="evenodd" stroke="none"/>
    <path d="M-147.65 -86.85 Q-129.7 -86.85 -117.0 -85.0 -104.3 -83.15 -104.3 -80.55 -104.3 -77.9 -117.0 -76.05 -129.7 -74.25 -147.65 -74.25 -165.65 -74.25 -178.35 -76.05 -191.0 -77.9 -191.0 -80.55 -191.0 -83.15 -178.35 -85.0 -165.65 -86.85 -147.65 -86.85" fill="url(#gradient7)" fill-rule="evenodd" stroke="none"/>
    <path d="M-159.75 -97.5 Q-142.8 -99.95 -118.85 -99.95 -94.9 -99.95 -78.0 -97.5 -61.05 -95.05 -61.05 -91.55 -61.05 -88.05 -78.0 -85.6 -94.9 -83.15 -118.85 -83.15 -142.8 -83.15 -159.75 -85.6 -176.65 -88.05 -176.65 -91.55 -176.65 -95.05 -159.75 -97.5" fill="url(#gradient8)" fill-rule="evenodd" stroke="none"/>
    <path d="M10.1 92.9 Q27.05 89.55 51.0 89.55 74.95 89.55 91.85 92.9 108.8 96.2 108.8 100.9 108.8 105.65 91.85 108.95 74.95 112.25 51.0 112.25 27.05 112.25 10.1 108.95 -6.8 105.65 -6.8 100.9 -6.8 96.2 10.1 92.9" fill="url(#gradient9)" fill-rule="evenodd" stroke="none"/>
    <path d="M18.1 108.9 Q35.05 105.55 59.0 105.55 82.95 105.55 99.85 108.9 116.8 112.2 116.8 116.9 116.8 121.65 99.85 124.95 82.95 128.25 59.0 128.25 35.05 128.25 18.1 124.95 1.2 121.65 1.2 116.9 1.2 112.2 18.1 108.9" fill="url(#gradient10)" fill-rule="evenodd" stroke="none"/>
    <path d="M30.45 67.0 Q40.0 65.45 52.8 67.5 65.55 69.6 74.1 74.05 82.65 78.55 81.95 82.8 81.3 87.1 71.75 88.6 62.2 90.1 49.45 88.0 36.65 85.95 28.1 81.55 19.6 77.05 20.25 72.75 20.95 68.5 30.45 67.0" fill="url(#gradient11)" fill-rule="evenodd" stroke="none"/>
    <path d="M-149.65 -53.55 Q-136.95 -55.4 -118.95 -55.4 -101.0 -55.4 -88.3 -53.55 -75.6 -51.7 -75.6 -49.1 -75.6 -46.45 -88.3 -44.6 -101.0 -42.8 -118.95 -42.8 -136.95 -42.8 -149.65 -44.6 -162.3 -46.45 -162.3 -49.1 -162.3 -51.7 -149.65 -53.55" fill="url(#gradient12)" fill-rule="evenodd" stroke="none"/>
    <path d="M-42.5 -17.75 L-42.65 -17.1 Q-41.8 -17.75 -40.3 -17.5 L-38.5 -17.1 -37.8 -17.0 -28.3 -17.55 -28.0 -17.55 Q-28.3 -15.75 -26.8 -15.9 L-25.3 -16.0 -20.05 -16.1 -19.3 -16.15 -14.3 -15.85 -12.8 -15.7 -10.55 -15.35 Q-8.75 -14.95 -7.3 -15.75 L-6.8 -15.9 -4.6 -16.05 -4.85 -15.75 -5.05 -15.5 -6.1 -14.55 -6.5 -14.2 -6.85 -13.8 -7.3 -13.5 Q-7.4 -13.35 -6.3 -13.5 L-1.8 -14.35 Q-1.65 -14.35 -1.55 -14.5 L-0.25 -14.6 Q1.1 -13.8 2.7 -13.9 L5.2 -14.0 6.2 -14.1 Q7.95 -14.4 9.9 -14.05 L10.75 -13.9 11.95 -13.7 13.2 -13.6 15.95 -13.85 16.45 -13.9 18.45 -13.25 Q18.8 -12.75 19.95 -12.9 L21.95 -13.1 Q22.1 -13.1 22.2 -13.25 22.8 -13.75 23.75 -13.6 L25.0 -13.5 29.2 -13.55 28.05 -11.45 30.0 -11.35 30.5 -11.35 31.7 -10.95 Q32.45 -10.5 33.75 -10.2 L34.25 -10.1 35.25 -9.9 35.75 -9.85 37.35 -9.45 37.3 -9.45 36.0 -9.15 35.75 -9.0 Q35.25 -8.55 34.5 -8.6 L34.25 -8.6 Q31.8 -7.95 29.8 -6.45 L29.0 -6.1 27.4 -5.35 27.0 -5.2 25.2 -4.6 Q24.55 -4.3 24.15 -3.15 L22.95 -3.55 21.45 -3.9 19.95 -3.9 19.7 -3.75 Q19.3 -4.15 20.0 -5.0 L20.2 -6.0 Q20.15 -6.65 20.7 -6.75 20.6 -7.15 19.95 -7.05 L18.95 -6.9 Q18.1 -6.7 17.4 -6.1 L16.45 -5.65 15.95 -5.45 14.95 -4.8 14.45 -4.45 14.2 -4.25 Q13.75 -4.4 13.85 -5.25 L14.05 -6.5 14.1 -6.75 14.2 -7.75 Q14.2 -8.25 14.45 -8.5 14.25 -9.15 13.9 -8.35 L13.45 -7.95 12.8 -7.3 12.45 -6.75 Q12.05 -6.35 12.05 -5.75 L11.95 -5.25 Q11.75 -4.7 11.2 -4.5 L9.65 -6.45 8.8 -7.15 8.4 -7.4 7.5 -8.05 6.9 -8.4 6.45 -8.5 5.65 -8.65 5.2 -8.75 3.45 -8.75 4.75 -7.3 5.7 -5.5 6.1 -4.65 6.3 -4.25 6.45 -4.0 Q6.1 -3.75 5.4 -4.7 4.65 -5.75 3.5 -6.15 L2.9 -6.4 1.95 -6.65 0.9 -6.9 0.15 -6.8 -0.15 -6.4 Q0.3 -5.4 1.1 -4.85 L1.25 -4.5 1.5 -4.05 1.95 -3.75 -0.3 -4.1 -0.55 -4.15 -2.3 -4.3 Q-3.5 -4.35 -4.3 -3.75 -5.25 -3.05 -6.05 -2.75 L-5.35 -2.85 -4.3 -2.9 -2.35 -2.55 -1.75 -2.35 -1.3 -2.15 -1.05 -2.0 Q-2.35 -1.2 -3.8 -1.15 L-4.05 -1.1 -6.3 -0.85 Q-6.85 -0.9 -7.0 -0.6 L-7.3 -0.45 -9.5 0.35 -10.35 0.65 -11.25 1.05 -12.8 1.6 -13.1 1.7 -14.5 2.6 -15.3 3.0 -16.3 3.5 -7.55 3.85 -5.05 3.5 -1.0 3.4 -0.05 3.5 4.95 2.8 4.2 3.05 Q3.45 3.4 3.35 4.0 L3.15 4.5 2.95 4.75 Q3.15 5.2 3.95 5.1 L6.2 5.15 7.2 5.25 16.2 5.45 17.2 5.7 20.5 5.85 20.95 5.75 22.5 5.45 23.75 5.2 Q27.0 4.95 29.8 5.85 28.7 6.45 27.85 7.15 L27.85 7.5 28.05 7.7 30.5 8.2 32.3 7.9 33.0 7.7 Q35.75 7.15 38.5 7.65 L44.0 7.85 45.3 7.6 45.75 7.5 50.25 7.75 52.8 7.35 53.5 7.15 53.6 7.15 53.25 7.7 Q52.85 7.95 53.2 8.65 L53.45 8.85 55.0 9.55 57.2 9.4 57.6 9.1 Q57.9 8.9 58.25 8.85 L68.0 8.5 68.8 8.35 69.25 8.25 74.0 8.15 72.2 8.95 71.3 9.35 Q70.5 9.75 69.65 10.4 L69.3 10.6 Q68.8 10.8 68.25 11.5 67.65 12.4 68.75 12.8 L69.25 12.9 69.75 12.8 73.8 11.35 74.5 11.2 79.5 10.9 83.75 10.9 85.05 11.15 86.0 11.4 Q86.7 11.45 86.95 11.9 L87.25 12.05 87.75 12.2 88.5 12.25 88.15 11.8 85.85 8.75 88.95 8.85 90.7 9.05 91.2 9.15 92.15 9.4 Q92.6 9.5 93.0 9.7 94.6 10.45 96.45 10.4 L96.95 10.4 97.95 10.5 Q97.8 9.3 97.05 8.5 97.9 9.2 99.45 9.25 L100.75 9.1 101.45 8.95 106.2 8.7 110.7 8.65 111.7 8.5 Q112.7 8.2 113.3 7.6 L118.45 7.25 116.45 12.75 Q115.2 13.1 114.6 14.2 L113.8 15.35 113.4 15.95 113.05 16.55 112.8 17.25 112.35 19.05 112.15 19.75 Q112.05 20.55 112.35 20.85 L112.6 21.15 112.85 21.4 113.05 21.75 113.2 22.0 Q112.2 22.1 111.4 21.6 L110.95 21.45 Q109.35 21.25 108.6 22.2 L108.2 22.4 Q107.05 22.5 106.4 22.9 L106.0 22.9 Q104.45 22.25 102.7 22.35 L102.2 22.55 100.9 23.4 100.5 23.6 100.2 23.65 99.2 23.85 98.9 23.95 97.45 24.4 96.65 24.35 96.2 24.2 94.2 23.75 91.5 24.1 89.0 24.25 88.6 24.35 Q87.35 25.2 85.75 25.25 86.1 24.05 87.2 23.4 L88.7 22.4 Q88.9 22.25 89.05 22.2 89.55 22.05 89.5 21.5 L88.0 21.6 87.5 21.65 85.75 22.2 85.0 22.55 Q83.1 23.45 81.5 24.5 81.35 23.65 81.65 22.95 L81.85 22.6 82.15 22.15 82.35 21.9 83.3 20.8 83.45 20.45 83.95 19.65 Q84.55 18.95 84.0 19.25 83.2 19.3 82.95 19.95 L82.75 20.15 Q81.0 20.65 79.5 21.7 L79.05 22.05 Q78.5 22.65 78.2 23.5 L77.95 23.9 77.4 24.4 77.0 25.0 Q76.6 24.8 76.85 24.05 L77.15 23.2 78.25 19.25 77.65 20.15 77.05 20.8 75.25 22.75 75.1 23.0 74.5 25.5 71.2 20.8 70.85 20.2 Q70.4 19.25 69.5 19.25 L69.65 19.5 69.85 20.25 69.9 20.5 70.05 21.5 Q70.15 22.8 70.7 24.0 L71.15 24.55 Q71.55 24.9 71.0 25.0 70.9 24.2 70.25 23.95 L69.85 23.7 Q69.5 23.25 68.95 23.1 L68.55 22.9 67.75 22.85 Q67.25 22.9 67.0 22.35 L66.55 22.15 Q65.6 21.5 64.5 21.0 65.9 22.0 66.75 23.5 L67.05 24.0 68.0 25.25 67.5 25.1 64.75 25.25 64.0 25.35 58.0 25.75 57.05 25.9 57.5 25.25 57.7 25.0 Q58.3 24.05 59.75 23.5 L60.25 23.3 Q61.25 22.95 61.5 22.25 L60.25 22.25 59.3 22.4 55.7 22.75 55.25 22.85 54.7 23.0 Q53.65 23.1 52.9 23.7 L51.7 24.25 51.75 23.75 51.95 23.25 52.8 21.8 54.2 20.25 51.2 20.35 Q50.95 20.4 50.75 20.55 L50.4 20.85 Q49.8 21.05 49.25 21.6 L48.9 21.95 48.5 22.5 47.95 23.0 47.95 22.75 48.05 22.3 48.6 20.75 48.8 20.05 49.45 18.0 Q48.9 18.1 48.65 18.7 L48.45 18.95 47.85 19.4 47.35 19.95 47.0 20.3 46.4 20.95 46.1 21.3 45.45 23.0 45.35 23.75 Q45.35 24.4 44.95 24.5 44.2 21.95 42.65 20.55 L42.25 20.2 39.3 16.9 39.35 17.0 Q39.4 17.7 39.75 17.95 L40.25 18.7 40.35 19.0 40.95 20.5 Q41.3 21.0 41.3 22.0 41.25 22.8 41.55 23.45 41.9 24.15 41.45 24.25 L40.75 23.45 40.5 23.0 Q40.25 21.9 39.5 21.2 L37.95 20.0 37.7 19.8 34.95 18.8 34.3 18.9 34.05 19.0 Q32.65 18.5 31.45 19.0 32.4 19.15 32.95 20.0 L33.25 20.4 35.4 22.05 Q36.35 22.7 36.95 24.25 36.25 23.35 35.45 23.15 L35.2 23.05 34.5 22.7 33.7 22.55 32.2 22.3 29.7 21.9 28.7 22.0 30.0 22.65 31.95 23.55 Q33.3 24.35 33.2 25.75 L31.0 25.85 28.2 24.75 25.95 24.55 23.15 25.4 22.75 25.6 21.9 25.85 21.0 25.9 18.7 25.55 17.0 25.85 16.45 26.0 Q15.3 25.95 14.4 25.05 L13.85 24.4 Q13.5 23.9 12.75 23.9 12.15 24.15 11.65 25.0 L11.5 25.3 10.7 26.5 10.0 25.25 9.85 24.8 Q9.6 24.2 9.7 23.5 10.05 21.45 10.8 19.55 L11.7 17.0 Q9.35 18.15 8.45 20.0 L8.15 20.4 7.65 21.0 6.9 21.9 6.5 22.1 Q6.1 22.25 5.75 22.55 L5.4 22.85 Q4.8 23.05 4.75 23.5 L4.6 24.75 4.55 25.25 4.45 28.0 4.1 27.9 Q3.45 26.95 1.95 26.5 1.8 27.75 2.15 28.75 L2.3 29.2 2.95 31.0 1.95 30.2 1.25 29.7 -0.3 28.55 -0.65 28.15 Q-1.0 27.65 -1.55 27.7 L-2.0 27.85 -2.6 28.2 -3.65 29.2 -3.85 29.75 Q-3.95 30.75 -4.3 31.5 L-4.4 31.05 -4.7 30.2 Q-4.9 29.75 -5.25 29.45 -5.5 29.2 -5.35 28.5 L-5.2 28.1 Q-4.75 27.55 -5.05 27.25 L-5.8 27.3 -6.3 27.45 Q-8.9 28.05 -9.8 30.5 L-10.3 29.75 -10.6 29.3 Q-11.2 28.65 -10.95 27.25 -10.85 26.55 -11.3 26.5 L-13.3 28.5 -13.45 28.75 -13.7 29.45 -13.75 30.25 Q-13.6 31.2 -14.05 31.5 L-14.3 30.75 -14.65 30.35 -14.9 30.15 -15.15 29.85 -16.8 28.25 Q-17.7 27.45 -18.8 26.75 L-19.45 26.2 Q-20.0 25.6 -20.05 26.0 L-19.9 26.5 Q-19.9 27.35 -19.55 27.75 L-18.8 28.5 -18.6 28.75 -16.8 31.75 -17.5 30.95 Q-18.8 29.6 -20.8 29.2 L-21.55 28.95 Q-23.05 28.35 -24.8 28.25 L-26.05 28.15 Q-27.1 27.95 -27.05 28.75 -26.1 28.9 -25.55 29.5 L-24.75 30.15 Q-23.0 31.3 -21.8 32.75 L-21.25 33.2 Q-20.65 33.7 -21.05 33.75 -21.5 33.2 -22.3 32.95 L-22.8 32.75 Q-23.85 32.2 -25.0 31.9 L-26.05 31.85 -26.8 31.85 Q-28.7 31.75 -30.05 33.0 -28.05 33.0 -26.8 33.75 L-25.25 34.4 Q-24.1 34.75 -23.55 35.25 L-24.3 35.2 -27.25 35.6 Q-29.9 36.5 -32.8 37.0 -34.4 37.25 -34.9 39.2 L-36.35 39.65 Q-37.5 40.1 -37.55 41.5 -37.5 42.05 -36.75 41.6 L-36.05 41.35 Q-33.0 41.1 -30.05 41.4 L-27.8 41.45 Q-26.15 41.4 -24.8 42.0 L-27.55 43.0 -29.25 43.45 Q-29.55 43.5 -29.85 43.7 -31.1 44.45 -31.95 45.8 L-32.35 46.5 -32.6 46.7 -32.05 46.55 Q-28.55 45.55 -24.8 45.85 L-24.05 45.95 -19.55 46.15 -19.3 46.0 Q-19.65 46.95 -20.25 47.55 L-20.55 48.0 Q-21.05 49.25 -21.7 50.3 L-21.85 50.75 -22.05 50.95 -22.8 51.25 Q-22.75 51.8 -22.2 51.35 -21.8 51.0 -21.3 50.8 L-17.8 49.7 Q-15.75 49.1 -13.55 49.65 L-12.8 49.75 -10.8 49.5 -9.7 49.65 -9.35 49.85 Q-8.2 50.3 -7.0 50.95 L-3.85 52.8 -2.0 53.9 -1.05 54.15 2.2 54.25 Q5.3 54.3 8.2 55.45 L11.2 55.55 12.2 55.25 15.2 54.45 17.95 54.25 22.45 54.05 Q23.65 53.85 24.3 54.4 L24.95 54.8 Q27.1 55.75 29.7 55.9 L30.95 55.85 33.45 55.6 34.8 55.15 35.45 55.0 43.45 54.75 44.2 54.5 Q46.8 53.05 49.7 52.9 L50.45 52.8 53.2 52.4 53.7 52.3 57.0 51.75 57.45 51.65 Q58.45 51.05 60.0 50.8 L61.3 50.35 61.75 50.25 62.25 50.25 Q61.35 50.7 60.6 51.4 L60.4 51.7 60.0 52.25 59.35 53.3 59.25 53.75 59.25 53.95 59.5 53.9 64.25 53.6 65.4 53.15 65.95 52.7 68.4 51.15 68.75 50.75 68.75 54.0 68.75 54.75 Q69.2 54.7 69.3 54.05 L69.8 53.6 Q71.05 53.15 71.75 52.25 72.15 51.85 72.7 51.75 L73.6 51.65 73.7 51.6 76.7 50.6 77.85 50.1 78.05 50.0 79.15 49.25 79.6 48.7 79.75 48.5 83.15 47.4 83.9 47.1 85.85 46.4 86.2 46.15 Q86.65 45.55 87.5 45.4 L87.7 45.35 Q88.8 44.8 89.7 44.95 88.75 46.6 87.6 47.4 L87.2 47.6 Q86.45 47.8 86.3 48.6 L86.2 49.1 86.2 49.5 86.2 50.05 Q87.8 48.2 90.25 47.75 L90.45 47.8 Q91.15 48.0 91.95 47.8 L92.35 47.75 93.4 47.6 94.05 47.55 94.65 47.55 95.3 47.6 96.6 47.75 97.4 47.95 97.5 48.55 98.0 50.75 98.15 51.35 Q97.6 51.4 97.1 50.9 96.9 50.7 96.55 50.65 L95.7 50.5 94.65 50.6 Q95.35 52.15 96.65 52.65 L95.7 52.45 Q94.35 51.6 93.05 51.8 L91.65 52.15 90.65 52.45 Q91.45 52.9 92.15 53.85 L92.35 54.05 Q92.95 54.2 93.3 54.85 L93.45 55.0 93.95 55.2 91.9 55.6 91.55 55.8 Q90.8 56.35 90.7 57.35 L92.55 57.25 92.8 57.2 Q93.2 57.15 93.4 57.65 L93.7 58.05 92.1 59.4 91.7 59.6 Q90.4 60.0 89.6 60.65 L89.3 60.85 88.1 61.15 Q87.45 61.2 87.1 60.15 L87.0 59.9 86.65 59.35 86.35 59.35 Q85.65 59.7 85.15 60.4 84.95 60.75 85.15 61.2 L84.15 60.45 83.45 59.85 Q82.6 59.25 81.75 59.0 L80.7 58.85 80.15 58.65 80.5 60.1 80.85 61.3 79.9 60.8 Q78.6 59.95 78.0 59.9 77.35 59.85 77.2 60.4 76.95 60.9 75.3 61.65 L73.45 62.45 72.45 62.75 69.65 63.65 Q68.4 64.15 67.45 65.25 L67.2 65.45 65.7 66.5 Q65.85 67.2 66.95 67.05 68.85 66.75 70.2 67.75 69.95 68.25 68.95 68.1 L66.75 68.35 66.15 68.65 65.75 68.85 65.15 69.15 64.35 69.95 Q64.2 70.15 63.95 70.15 63.55 70.25 63.75 70.9 L62.95 71.3 61.7 72.05 61.45 72.25 Q60.1 73.35 59.55 71.8 L59.3 71.2 57.95 69.25 Q57.4 70.4 56.45 71.25 56.1 71.55 56.1 72.0 L55.95 72.5 Q55.85 73.0 55.65 72.25 L55.15 71.05 54.75 70.25 Q54.5 69.75 54.6 69.25 L55.2 67.0 Q53.9 67.3 53.6 68.5 L53.2 69.75 52.95 70.5 51.75 69.4 51.4 69.0 51.2 68.75 50.05 67.35 49.25 66.45 48.65 65.8 Q47.95 66.05 48.65 67.05 L49.05 68.0 49.1 68.25 Q49.3 68.95 49.95 69.25 L48.4 69.1 48.0 68.9 47.4 68.6 46.95 68.45 45.95 68.4 45.45 68.45 Q44.55 68.7 44.7 69.7 L44.9 69.85 46.45 70.5 Q45.4 70.7 44.45 71.3 L43.0 71.9 42.2 72.2 Q41.4 72.65 40.45 72.75 L39.9 72.95 Q39.3 73.4 39.2 74.25 39.7 74.7 40.45 74.65 L40.95 74.7 41.2 74.75 Q39.65 74.8 39.05 75.8 L38.9 76.25 38.7 76.5 37.7 77.75 41.7 78.1 45.45 78.1 46.4 78.35 47.7 78.65 48.45 78.8 50.2 78.9 50.45 78.75 Q51.0 78.3 51.95 78.3 L52.5 78.2 Q53.45 78.85 54.45 78.9 55.3 78.9 55.95 79.25 L57.95 79.5 60.9 79.85 62.45 80.15 62.95 80.25 65.2 80.65 65.7 80.75 67.95 81.05 Q68.7 81.0 69.05 81.4 L69.4 81.6 70.7 81.95 73.2 82.25 74.0 82.4 74.7 82.55 76.0 82.95 77.2 83.35 77.45 83.4 74.25 84.15 73.0 84.35 72.75 84.4 70.25 84.9 69.5 85.0 Q67.85 85.05 66.45 85.6 L65.75 85.8 63.25 85.95 59.75 86.1 59.5 86.15 58.85 86.45 58.65 86.65 58.25 86.75 Q57.0 86.85 56.2 87.5 55.65 87.95 54.7 88.1 L54.45 88.15 51.45 88.6 50.95 88.65 45.95 89.0 41.45 89.3 39.45 89.75 Q38.45 90.05 37.15 90.65 L36.2 91.05 Q35.35 91.35 34.85 91.9 L34.25 92.35 33.45 92.75 Q32.5 93.1 31.85 93.55 L31.1 93.8 30.9 93.9 30.45 94.05 29.45 94.15 26.7 94.25 24.45 94.55 23.95 94.65 Q22.45 94.9 21.35 95.65 L20.95 95.75 19.9 95.85 19.2 96.05 18.45 96.25 Q16.3 97.0 14.2 98.05 L12.65 98.65 Q11.3 99.1 10.4 99.65 L8.45 100.75 13.95 100.1 15.45 99.95 18.2 99.75 18.7 99.7 20.45 99.35 22.45 99.4 23.2 99.55 26.45 99.45 Q25.3 100.05 23.95 100.35 L23.7 100.45 19.95 103.0 Q20.65 103.6 21.95 103.0 L23.95 102.6 24.45 102.5 Q25.45 102.05 26.7 102.1 L27.45 102.0 Q28.65 101.6 29.95 101.35 L32.2 101.1 38.45 100.9 38.7 100.9 Q37.35 101.65 36.7 102.75 L38.2 103.0 41.95 102.75 45.45 102.95 47.4 103.2 48.25 103.4 48.95 103.55 51.5 103.15 52.45 103.0 56.75 102.6 Q57.95 102.45 59.0 101.95 59.35 102.85 60.6 103.6 L61.25 103.75 65.75 103.65 66.5 103.6 Q68.6 103.5 70.75 103.55 L76.25 103.15 77.8 102.85 78.75 102.7 79.5 102.55 80.5 102.45 81.25 102.25 84.15 100.95 86.2 100.5 85.8 101.3 85.7 101.75 86.2 102.2 Q87.65 102.7 88.9 103.3 89.6 103.65 90.2 104.5 88.15 103.9 86.7 104.8 86.1 105.15 85.9 105.7 L85.7 106.0 Q84.25 107.15 81.95 107.2 L77.7 107.35 76.95 107.4 74.45 107.5 Q73.6 107.55 72.8 108.0 L72.0 108.35 70.95 108.7 Q68.5 109.7 65.7 109.5 L62.15 109.9 61.5 110.1 60.65 110.4 58.2 110.75 Q56.85 110.75 56.2 111.5 L55.45 111.85 54.95 112.05 54.7 112.25 Q54.2 111.5 54.65 110.25 55.0 109.25 55.45 108.75 55.25 108.15 54.4 108.65 52.9 109.55 51.5 110.6 L50.6 111.45 50.35 111.85 50.05 112.45 49.7 113.0 49.45 113.25 Q49.15 113.85 49.1 112.75 49.0 111.3 49.5 110.0 49.85 109.2 49.7 108.25 49.45 107.9 49.0 108.55 L47.75 110.75 47.2 111.5 46.75 112.2 46.55 113.05 Q46.25 113.7 46.2 114.5 45.75 114.2 45.55 113.3 L45.25 112.45 Q44.55 111.0 42.95 109.95 L42.7 109.75 Q41.45 108.9 39.95 108.55 L36.2 107.75 Q37.15 109.8 38.65 111.55 L39.9 112.85 40.2 113.25 40.95 114.75 Q40.65 115.05 39.9 114.35 39.35 113.85 38.2 113.85 L35.95 113.7 31.45 113.35 30.95 113.4 Q29.8 113.55 29.2 114.25 30.6 114.2 31.7 114.7 L34.2 115.75 35.7 116.2 36.2 116.25 33.45 116.85 33.2 116.9 Q32.4 117.15 31.9 117.7 L30.95 118.45 -184.45 118.45 -184.45 -19.0 -183.35 -19.2 -181.65 -19.4 -180.35 -19.6 -178.0 -19.6 -171.1 -19.6 -168.85 -19.65 -165.1 -19.7 -157.6 -19.25 Q-158.65 -20.25 -160.1 -20.7 L-160.35 -20.75 Q-160.25 -21.55 -159.1 -21.4 L-158.35 -21.5 -156.1 -21.85 -154.05 -21.6 -153.6 -21.5 Q-150.85 -21.25 -148.35 -22.1 L-148.1 -22.15 -139.6 -23.1 -137.35 -23.4 -136.3 -23.35 -135.6 -23.25 -137.0 -21.9 -137.1 -21.5 -134.85 -21.35 -134.55 -21.4 -134.2 -21.6 -133.75 -21.85 -133.1 -22.0 -127.85 -21.9 Q-126.95 -21.85 -126.35 -21.25 -125.45 -20.3 -123.6 -21.0 L-120.6 -21.9 -117.1 -22.3 -112.85 -22.25 Q-112.45 -22.25 -112.55 -21.75 L-112.65 -21.25 -112.75 -20.95 -112.85 -20.5 Q-112.75 -20.05 -112.05 -20.35 L-111.35 -20.5 -110.05 -20.65 -108.85 -20.9 -99.85 -21.35 Q-99.35 -21.35 -99.0 -21.05 -98.0 -20.15 -96.75 -19.85 L-95.8 -19.75 -88.35 -19.25 -87.25 -18.85 Q-86.35 -18.35 -85.35 -18.15 L-83.35 -17.45 Q-82.7 -17.05 -81.8 -17.1 L-81.05 -17.1 -80.55 -17.15 -78.05 -17.35 -77.3 -17.25 -72.05 -16.8 -66.55 -16.3 -65.5 -15.9 -64.8 -15.75 -61.3 -15.75 Q-62.2 -15.85 -62.95 -16.65 L-63.2 -16.85 -63.6 -17.2 -64.0 -17.55 Q-64.6 -18.1 -65.3 -18.25 L-63.85 -18.4 -61.8 -18.1 -59.3 -17.85 -58.55 -17.75 -47.8 -18.2 Q-45.9 -18.35 -44.1 -18.85 L-42.05 -19.1 -41.55 -19.05 -41.3 -19.0 -42.35 -18.0 -42.5 -17.75 M-32.6 46.7 Q-33.8 46.85 -33.3 47.25 L-32.6 46.7 M59.25 53.95 Q58.75 54.05 59.25 54.25 L59.25 53.95" fill="url(#gradient13)" fill-rule="evenodd" stroke="none"/>
    <path d="M-161.7 0.3 Q-178.6 -2.15 -178.6 -5.65 -178.6 -9.15 -161.7 -11.6 -144.75 -14.05 -120.8 -14.05 -96.85 -14.05 -79.95 -11.6 -63.0 -9.15 -63.0 -5.65 -63.0 -2.15 -79.95 0.3 -96.85 2.75 -120.8 2.75 -144.75 2.75 -161.7 0.3" fill="url(#gradient14)" fill-rule="evenodd" stroke="none"/>
    <path d="M-83.2 100.1 Q-100.1 97.65 -100.1 94.15 -100.1 90.65 -83.2 88.2 -66.25 85.75 -42.3 85.75 -18.35 85.75 -1.45 88.2 15.5 90.65 15.5 94.15 15.5 97.65 -1.45 100.1 -18.35 102.55 -42.3 102.55 -66.25 102.55 -83.2 100.1" fill="url(#gradient15)" fill-rule="evenodd" stroke="none"/>
    <path d="M-48.25 61.45 Q-56.7 60.2 -56.7 58.45 -56.7 56.7 -48.25 55.5 L-27.8 54.25 -7.4 55.5 Q1.1 56.7 1.1 58.45 1.1 60.2 -7.4 61.45 L-27.8 62.65 -48.25 61.45" fill="url(#gradient16)" fill-rule="evenodd" stroke="none"/>
    <path d="M-151.95 21.65 Q-164.65 19.8 -164.65 17.2 -164.65 14.55 -151.95 12.7 -139.25 10.9 -121.3 10.9 -103.3 10.9 -90.65 12.7 -77.95 14.55 -77.95 17.2 -77.95 19.8 -90.65 21.65 -103.3 23.5 -121.3 23.5 -139.25 23.5 -151.95 21.65" fill="url(#gradient17)" fill-rule="evenodd" stroke="none"/>
    <path d="M-88.75 109.6 Q-104.0 111.8 -125.55 111.8 -147.1 111.8 -162.35 109.6 -177.55 107.4 -177.55 104.25 -177.55 101.1 -162.35 98.85 -147.1 96.65 -125.55 96.65 -104.0 96.65 -88.75 98.85 -73.5 101.1 -73.5 104.25 -73.5 107.4 -88.75 109.6" fill="url(#gradient18)" fill-rule="evenodd" stroke="none"/>
    <path d="M-3.3 81.3 L-18.0 82.15 -32.75 81.3 Q-38.8 80.4 -38.8 79.15 -38.8 77.9 -32.75 77.0 L-18.0 76.1 -3.3 77.0 Q2.8 77.9 2.8 79.15 2.8 80.4 -3.3 81.3" fill="url(#gradient19)" fill-rule="evenodd" stroke="none"/>
    <path d="M-19.0 14.2 Q-30.4 15.85 -46.6 15.85 -62.75 15.85 -74.2 14.2 -85.6 12.55 -85.6 10.15 -85.6 7.8 -74.2 6.15 -62.75 4.5 -46.6 4.5 -30.4 4.5 -19.0 6.15 -7.55 7.8 -7.55 10.15 -7.55 12.55 -19.0 14.2" fill="url(#gradient20)" fill-rule="evenodd" stroke="none"/>
    <path d="M-60.75 49.05 Q-76.0 51.25 -97.55 51.25 -119.1 51.25 -134.35 49.05 -149.55 46.85 -149.55 43.7 -149.55 40.55 -134.35 38.3 -119.1 36.1 -97.55 36.1 -76.0 36.1 -60.75 38.3 -45.5 40.55 -45.5 43.7 -45.5 46.85 -60.75 49.05" fill="url(#gradient21)" fill-rule="evenodd" stroke="none"/>
    <path d="M-138.6 -7.7 L-157.0 -6.6 -175.4 -7.7 Q-183.0 -8.8 -183.0 -10.4 -183.0 -11.95 -175.4 -13.05 L-157.0 -14.15 -138.6 -13.05 Q-131.0 -11.95 -131.0 -10.4 -131.0 -8.8 -138.6 -7.7" fill="url(#gradient22)" fill-rule="evenodd" stroke="none"/>
    <path d="M-63.6 82.75 Q-70.35 81.75 -70.35 80.35 -70.35 78.95 -63.6 78.0 L-47.25 77.0 -30.9 78.0 Q-24.1 78.95 -24.1 80.35 -24.1 81.75 -30.9 82.75 L-47.25 83.7 -63.6 82.75" fill="url(#gradient23)" fill-rule="evenodd" stroke="none"/>
    <path d="M-166.8 73.45 Q-175.25 72.2 -175.25 70.45 -175.25 68.7 -166.8 67.5 L-146.35 66.25 -125.95 67.5 Q-117.45 68.7 -117.45 70.45 -117.45 72.2 -125.95 73.45 L-146.35 74.65 -166.8 73.45" fill="url(#gradient24)" fill-rule="evenodd" stroke="none"/>
  </g>
  <defs>
    <linearGradient gradientTransform="matrix(0.0, 0.0757, -0.1856, 0.0, -32.35, -37.5)" gradientUnits="userSpaceOnUse" id="gradient0" spreadMethod="pad" x1="-819.2" x2="819.2">
      <stop offset="0.0" stop-color="#f1e893"/>
      <stop offset="1.0" stop-color="#c7c864"/>
    </linearGradient>
    <linearGradient gradientTransform="matrix(0.0, 0.0645, -0.094, 0.0, 39.45, 65.6)" gradientUnits="userSpaceOnUse" id="gradient1" spreadMethod="pad" x1="-819.2" x2="819.2">
      <stop offset="0.0" stop-color="#f1e893"/>
      <stop offset="1.0" stop-color="#c7c864"/>
    </linearGradient>
    <radialGradient cx="0" cy="0" gradientTransform="matrix(0.0, 0.0115, -0.0792, 0.0, -0.1, -84.3)" gradientUnits="userSpaceOnUse" id="gradient2" r="819.2" spreadMethod="pad">
      <stop offset="0.0" stop-color="#629b53" stop-opacity="0.7529412"/>
      <stop offset="1.0" stop-color="#629b53" stop-opacity="0.0"/>
    </radialGradient>
    <radialGradient cx="0" cy="0" gradientTransform="matrix(0.0, 0.0204, -0.1408, 0.0, 47.6, -62.6)" gradientUnits="userSpaceOnUse" id="gradient3" r="819.2" spreadMethod="pad">
      <stop offset="0.0" stop-color="#629b53"/>
      <stop offset="1.0" stop-color="#629b53" stop-opacity="0.0"/>
    </radialGradient>
    <radialGradient cx="0" cy="0" gradientTransform="matrix(0.0, 0.021, -0.2217, 0.0, 9.0, -21.75)" gradientUnits="userSpaceOnUse" id="gradient4" r="819.2" spreadMethod="pad">
      <stop offset="0.0" stop-color="#629b53"/>
      <stop offset="1.0" stop-color="#629b53" stop-opacity="0.0"/>
    </radialGradient>
    <radialGradient cx="0" cy="0" gradientTransform="matrix(0.0, 0.0153, -0.1056, 0.0, 67.8, 6.0)" gradientUnits="userSpaceOnUse" id="gradient5" r="819.2" spreadMethod="pad">
      <stop offset="0.0" stop-color="#629b53"/>
      <stop offset="1.0" stop-color="#629b53" stop-opacity="0.0"/>
    </radialGradient>
    <radialGradient cx="0" cy="0" gradientTransform="matrix(0.0, 0.0264, -0.1225, 0.0, 11.9, 51.55)" gradientUnits="userSpaceOnUse" id="gradient6" r="819.2" spreadMethod="pad">
      <stop offset="0.0" stop-color="#629b53"/>
      <stop offset="1.0" stop-color="#629b53" stop-opacity="0.0"/>
    </radialGradient>
    <radialGradient cx="0" cy="0" gradientTransform="matrix(0.0, 0.0076, -0.0528, 0.0, -147.65, -80.55)" gradientUnits="userSpaceOnUse" id="gradient7" r="819.2" spreadMethod="pad">
      <stop offset="0.0" stop-color="#629b53" stop-opacity="0.5019608"/>
      <stop offset="1.0" stop-color="#629b53" stop-opacity="0.0"/>
    </radialGradient>
    <radialGradient cx="0" cy="0" gradientTransform="matrix(0.0, 0.0102, -0.0704, 0.0, -118.85, -91.55)" gradientUnits="userSpaceOnUse" id="gradient8" r="819.2" spreadMethod="pad">
      <stop offset="0.0" stop-color="#629b53" stop-opacity="0.7529412"/>
      <stop offset="1.0" stop-color="#629b53" stop-opacity="0.0"/>
    </radialGradient>
    <radialGradient cx="0" cy="0" gradientTransform="matrix(0.0, 0.0138, -0.0704, 0.0, 51.0, 100.9)" gradientUnits="userSpaceOnUse" id="gradient9" r="819.2" spreadMethod="pad">
      <stop offset="0.0" stop-color="#629b53" stop-opacity="0.7529412"/>
      <stop offset="1.0" stop-color="#629b53" stop-opacity="0.0"/>
    </radialGradient>
    <radialGradient cx="0" cy="0" gradientTransform="matrix(0.0, 0.0138, -0.0704, 0.0, 59.0, 116.9)" gradientUnits="userSpaceOnUse" id="gradient10" r="819.2" spreadMethod="pad">
      <stop offset="0.0" stop-color="#629b53" stop-opacity="0.7529412"/>
      <stop offset="1.0" stop-color="#629b53" stop-opacity="0.0"/>
    </radialGradient>
    <radialGradient cx="0" cy="0" gradientTransform="matrix(-0.002, 0.0124, -0.0376, -0.0061, 51.1, 77.75)" gradientUnits="userSpaceOnUse" id="gradient11" r="819.2" spreadMethod="pad">
      <stop offset="0.0" stop-color="#629b53" stop-opacity="0.7529412"/>
      <stop offset="1.0" stop-color="#629b53" stop-opacity="0.0"/>
    </radialGradient>
    <radialGradient cx="0" cy="0" gradientTransform="matrix(0.0, 0.0076, -0.0528, 0.0, -118.95, -49.1)" gradientUnits="userSpaceOnUse" id="gradient12" r="819.2" spreadMethod="pad">
      <stop offset="0.0" stop-color="#629b53" stop-opacity="0.4"/>
      <stop offset="1.0" stop-color="#629b53" stop-opacity="0.0"/>
    </radialGradient>
    <linearGradient gradientTransform="matrix(0.0, 0.0866, -0.1849, 0.0, -33.0, 47.5)" gradientUnits="userSpaceOnUse" id="gradient13" spreadMethod="pad" x1="-819.2" x2="819.2">
      <stop offset="0.0" stop-color="#b8ad9e"/>
      <stop offset="1.0" stop-color="#887879"/>
    </linearGradient>
    <radialGradient cx="0" cy="0" gradientTransform="matrix(0.0, 0.0102, -0.0704, 0.0, -120.8, -5.65)" gradientUnits="userSpaceOnUse" id="gradient14" r="819.2" spreadMethod="pad">
      <stop offset="0.0" stop-color="#ddc281"/>
      <stop offset="1.0" stop-color="#ddc281" stop-opacity="0.0"/>
    </radialGradient>
    <radialGradient cx="0" cy="0" gradientTransform="matrix(0.0, 0.0102, -0.0704, 0.0, -42.3, 94.15)" gradientUnits="userSpaceOnUse" id="gradient15" r="819.2" spreadMethod="pad">
      <stop offset="0.0" stop-color="#ddc281"/>
      <stop offset="1.0" stop-color="#ddc281" stop-opacity="0.0"/>
    </radialGradient>
    <radialGradient cx="0" cy="0" gradientTransform="matrix(0.0, 0.0051, -0.0352, 0.0, -27.8, 58.45)" gradientUnits="userSpaceOnUse" id="gradient16" r="819.2" spreadMethod="pad">
      <stop offset="0.0" stop-color="#ddc281"/>
      <stop offset="1.0" stop-color="#ddc281" stop-opacity="0.0"/>
    </radialGradient>
    <radialGradient cx="0" cy="0" gradientTransform="matrix(0.0, 0.0076, -0.0528, 0.0, -121.3, 17.2)" gradientUnits="userSpaceOnUse" id="gradient17" r="819.2" spreadMethod="pad">
      <stop offset="0.0" stop-color="#ddc281"/>
      <stop offset="1.0" stop-color="#ddc281" stop-opacity="0.0"/>
    </radialGradient>
    <radialGradient cx="0" cy="0" gradientTransform="matrix(0.0, 0.0092, -0.0634, 0.0, -125.55, 104.25)" gradientUnits="userSpaceOnUse" id="gradient18" r="819.2" spreadMethod="pad">
      <stop offset="0.0" stop-color="#96afbf"/>
      <stop offset="1.0" stop-color="#96afbf" stop-opacity="0.0"/>
    </radialGradient>
    <radialGradient cx="0" cy="0" gradientTransform="matrix(0.0, 0.0037, -0.0253, 0.0, -18.0, 79.15)" gradientUnits="userSpaceOnUse" id="gradient19" r="819.2" spreadMethod="pad">
      <stop offset="0.0" stop-color="#96afbf"/>
      <stop offset="1.0" stop-color="#96afbf" stop-opacity="0.0"/>
    </radialGradient>
    <radialGradient cx="0" cy="0" gradientTransform="matrix(0.0, 0.0069, -0.0475, 0.0, -46.6, 10.15)" gradientUnits="userSpaceOnUse" id="gradient20" r="819.2" spreadMethod="pad">
      <stop offset="0.0" stop-color="#96afbf"/>
      <stop offset="1.0" stop-color="#96afbf" stop-opacity="0.0"/>
    </radialGradient>
    <radialGradient cx="0" cy="0" gradientTransform="matrix(0.0, 0.0092, -0.0634, 0.0, -97.55, 43.7)" gradientUnits="userSpaceOnUse" id="gradient21" r="819.2" spreadMethod="pad">
      <stop offset="0.0" stop-color="#96afbf"/>
      <stop offset="1.0" stop-color="#96afbf" stop-opacity="0.0"/>
    </radialGradient>
    <radialGradient cx="0" cy="0" gradientTransform="matrix(0.0, 0.0046, -0.0317, 0.0, -157.0, -10.4)" gradientUnits="userSpaceOnUse" id="gradient22" r="819.2" spreadMethod="pad">
      <stop offset="0.0" stop-color="#96afbf"/>
      <stop offset="1.0" stop-color="#96afbf" stop-opacity="0.0"/>
    </radialGradient>
    <radialGradient cx="0" cy="0" gradientTransform="matrix(0.0, 0.0041, -0.0282, 0.0, -47.25, 80.35)" gradientUnits="userSpaceOnUse" id="gradient23" r="819.2" spreadMethod="pad">
      <stop offset="0.0" stop-color="#ddc281"/>
      <stop offset="1.0" stop-color="#ddc281" stop-opacity="0.0"/>
    </radialGradient>
    <radialGradient cx="0" cy="0" gradientTransform="matrix(0.0, 0.0051, -0.0352, 0.0, -146.35, 70.45)" gradientUnits="userSpaceOnUse" id="gradient24" r="819.2" spreadMethod="pad">
      <stop offset="0.0" stop-color="#ddc281"/>
      <stop offset="1.0" stop-color="#ddc281" stop-opacity="0.0"/>
    </radialGradient>
  </defs>
</svg>
