<?xml version="1.0" encoding="UTF-8" standalone="no"?>
<svg xmlns:ffdec="https://www.free-decompiler.com/flash" xmlns:xlink="http://www.w3.org/1999/xlink" ffdec:objectType="shape" height="181.9px" width="323.4px" xmlns="http://www.w3.org/2000/svg">
  <g transform="matrix(1.0, 0.0, 0.0, 1.0, 323.4, 181.85)">
    <path d="M-194.7 -175.6 L-177.0 -174.15 -173.4 -173.6 -176.9 -171.35 -204.9 -171.45 -203.5 -172.05 -194.75 -175.6 -194.7 -175.6 M-83.2 -160.1 L-82.8 -162.1 Q-74.6 -166.6 -66.15 -161.85 L-64.9 -161.15 -64.8 -159.15 -64.65 -157.1 -82.45 -156.4 -83.2 -160.1" fill="#4e371d" fill-rule="evenodd" stroke="none"/>
    <path d="M-173.4 -173.6 L-177.0 -174.15 -194.7 -175.6 -179.85 -178.1 -154.75 -172.85 -151.6 -175.4 -138.85 -173.85 -131.2 -172.95 Q-152.4 -170.75 -173.4 -173.6" fill="#75532d" fill-rule="evenodd" stroke="none"/>
    <path d="M-216.15 -156.25 L-200.15 -154.0 Q-194.95 -152.95 -189.85 -151.35 -170.8 -145.35 -151.05 -146.7 L-154.8 -160.6 -150.05 -161.1 -140.05 -162.35 -137.7 -149.5 -121.0 -149.6 -120.65 -148.3 -125.7 -145.6 -128.0 -144.55 Q-137.35 -140.75 -147.15 -143.0 L-147.3 -143.05 -186.4 -135.9 -188.35 -135.1 -182.4 -134.65 -188.85 -130.6 -188.85 -130.55 -188.8 -130.5 -189.15 -122.0 Q-190.7 -122.0 -191.7 -120.05 L-193.95 -115.55 -193.95 -111.35 Q-194.6 -109.15 -191.1 -107.15 -187.6 -105.15 -182.7 -105.1 L-182.25 -99.55 -177.75 -96.05 -174.2 -95.85 Q-169.65 -95.6 -165.05 -95.75 -159.8 -96.05 -155.4 -101.55 L-152.1 -101.35 -153.75 -126.85 -142.75 -130.2 -128.4 -128.75 -121.75 -129.05 Q-118.35 -129.45 -115.25 -130.8 L-110.05 -133.05 Q-95.15 -139.1 -79.1 -141.05 L-78.9 -141.1 -39.55 -148.9 -42.3 -133.8 -42.9 -129.2 -58.55 -126.5 Q-58.45 -132.75 -59.35 -138.85 L-59.4 -139.3 -59.75 -140.1 -73.95 -136.7 -76.1 -111.1 -59.5 -114.85 -82.7 -107.3 Q-96.55 -102.75 -113.35 -101.6 -116.55 -101.65 -118.55 -99.2 L-118.65 -98.85 Q-120.0 -96.8 -123.5 -100.1 L-125.9 -107.0 -127.75 -112.35 -134.8 -112.35 -133.7 -107.0 -134.45 -99.6 Q-136.95 -101.0 -137.55 -103.85 L-138.5 -107.6 -139.8 -112.0 -145.85 -111.4 -145.85 -111.35 -144.4 -107.6 -142.35 -82.95 -145.2 -80.45 -146.75 -102.0 -164.0 -89.55 -180.45 -91.1 -188.0 -91.8 -192.1 -92.2 -195.2 -93.5 -193.75 -95.5 -203.15 -119.6 -201.65 -120.95 Q-196.35 -126.1 -195.45 -133.4 L-265.35 -136.7 -260.95 -139.3 -245.0 -144.7 -247.8 -145.6 -253.8 -147.3 -216.2 -156.25 -216.15 -156.25 M-78.45 -131.55 L-78.0 -133.85 -92.9 -131.1 Q-94.2 -131.65 -94.35 -130.5 -95.7 -122.75 -94.75 -114.8 -94.2 -109.9 -92.4 -107.1 L-78.65 -111.25 -78.45 -131.55" fill="#1b0f07" fill-rule="evenodd" stroke="none"/>
    <path d="M-183.95 -153.55 L-160.5 -154.05 -161.6 -157.25 -183.65 -157.95 -183.95 -153.55 M-190.85 -160.1 L-204.9 -160.1 -204.75 -156.3 -190.85 -155.85 -190.85 -160.1 M-154.8 -160.6 L-151.05 -146.7 Q-170.8 -145.35 -189.85 -151.35 -194.95 -152.95 -200.15 -154.0 L-216.15 -156.25 -214.8 -165.7 -178.05 -163.5 -154.8 -160.65 -154.8 -160.6" fill="#382112" fill-rule="evenodd" stroke="none"/>
    <path d="M-131.2 -172.95 L-138.85 -173.85 Q-138.65 -176.25 -136.0 -177.65 -133.4 -179.1 -129.7 -179.1 L-121.05 -178.9 -119.2 -176.5 -105.85 -174.5 -131.2 -172.95 M-190.85 -160.1 L-190.85 -155.85 -204.75 -156.3 -204.9 -160.1 -190.85 -160.1 M-183.95 -153.55 L-183.65 -157.95 -161.6 -157.25 -160.5 -154.05 -183.95 -153.55 M-253.8 -147.3 L-247.8 -145.6 -263.3 -141.1 -269.85 -142.85 -254.65 -147.35 -253.8 -147.3 M-123.5 -100.1 Q-120.0 -96.8 -118.65 -98.85 L-118.55 -99.2 Q-116.55 -101.65 -113.35 -101.6 -96.55 -102.75 -82.7 -107.3 L-59.5 -114.85 -76.1 -111.1 -73.3 -112.5 -71.85 -134.35 -59.35 -138.85 Q-58.45 -132.75 -58.55 -126.5 -58.6 -121.85 -59.25 -117.05 L-53.9 -121.4 -56.85 -111.35 -112.4 -89.95 -121.45 -94.2 -123.5 -100.1 M-78.9 -141.1 L-79.1 -141.05 -92.1 -146.05 -80.75 -150.65 -66.75 -148.25 -78.9 -141.1 M-125.7 -145.6 L-120.65 -148.3 -119.95 -148.45 Q-119.65 -148.65 -119.65 -148.85 L-93.35 -154.45 -85.9 -151.35 Q-89.45 -149.55 -93.35 -149.6 -108.75 -149.8 -123.15 -144.55 L-125.7 -145.6 M-167.9 -53.4 L-167.85 -53.35 -166.05 -32.6 -166.1 -32.6 -174.5 -36.9 -174.9 -50.75 -167.9 -53.4 M-78.45 -131.55 L-78.65 -111.25 -92.4 -107.1 -91.6 -128.7 -78.45 -131.55 M-28.1 -104.5 L-26.55 -97.85 -29.85 -97.3 -29.9 -97.3 -30.95 -101.35 -28.1 -104.5 M-13.9 -124.05 L-10.4 -116.7 -19.75 -115.1 -18.8 -122.85 -13.9 -124.05 M-88.95 -142.3 Q-98.2 -138.6 -108.1 -137.8 -116.35 -137.85 -125.2 -140.75 -114.2 -144.3 -103.05 -143.6 L-96.0 -143.15 -88.95 -142.3" fill="#000000" fill-rule="evenodd" stroke="none"/>
    <path d="M-182.4 -179.2 L-171.4 -180.45 Q-161.8 -180.65 -151.45 -177.3 -151.2 -177.25 -151.25 -176.7 L-151.6 -175.4 -182.4 -179.2" fill="#b2987f" fill-rule="evenodd" stroke="none"/>
    <path d="M-138.85 -173.85 L-151.6 -175.4 -154.75 -172.85 -179.85 -178.1 -182.4 -179.2 -151.6 -175.4 -151.25 -176.7 Q-151.2 -177.25 -151.45 -177.3 L-136.0 -177.65 Q-138.65 -176.25 -138.85 -173.85" fill="#4f302c" fill-rule="evenodd" stroke="none"/>
    <path d="M-176.9 -171.35 L-173.4 -173.6 Q-152.4 -170.75 -131.2 -172.95 L-105.85 -174.5 -101.45 -172.0 -156.65 -168.75 -176.9 -171.35" fill="#90675e" fill-rule="evenodd" stroke="none"/>
    <path d="M-203.5 -172.05 L-204.9 -171.45 -213.65 -169.5 -207.9 -173.6 -203.5 -172.05 M-142.75 -130.2 L-153.75 -126.85 -163.8 -127.9 -188.8 -130.5 -188.85 -130.6 -182.4 -134.65 -166.9 -132.8 -142.75 -130.2 M-193.95 -111.35 L-193.95 -115.55 -176.45 -114.2 -177.4 -109.5 -193.95 -111.35" fill="#dcc6b7" fill-rule="evenodd" stroke="none"/>
    <path d="M-204.9 -171.45 L-176.9 -171.35 -156.65 -168.75 -155.85 -165.1 -177.45 -167.6 Q-186.45 -168.3 -204.9 -171.45 L-177.75 -165.4 Q-170.1 -165.1 -155.85 -165.1 L-154.8 -160.65 -178.05 -163.5 -214.8 -165.7 -213.65 -169.5 -204.9 -171.45" fill="#755b46" fill-rule="evenodd" stroke="none"/>
    <path d="M-243.0 -119.8 L-232.9 -119.0 -232.4 -115.7 -240.9 -115.8 -243.0 -119.8 M-228.8 -113.95 L-228.8 -117.4 -221.0 -117.4 -221.0 -113.95 -228.8 -113.95 M-218.7 -115.75 L-208.1 -115.85 -206.85 -111.8 -216.65 -111.85 -218.35 -112.95 -218.7 -115.75" fill="#5b2154" fill-rule="evenodd" stroke="none"/>
    <path d="M-203.15 -119.6 L-193.75 -95.5 -195.2 -93.5 -197.25 -96.3 Q-205.55 -97.6 -211.0 -104.05 L-212.8 -106.1 -234.4 -108.35 -240.85 -103.5 -248.45 -119.95 -251.15 -125.75 -203.15 -119.6 M-228.8 -113.95 L-221.0 -113.95 -221.0 -117.4 -228.8 -117.4 -228.8 -113.95 M-243.0 -119.8 L-240.9 -115.8 -232.4 -115.7 -232.9 -119.0 -243.0 -119.8 M-218.7 -115.75 L-218.35 -112.95 -216.65 -111.85 -206.85 -111.8 -208.1 -115.85 -218.7 -115.75" fill="#3a271f" fill-rule="evenodd" stroke="none"/>
    <path d="M-240.85 -103.5 L-234.4 -108.35 -212.8 -106.1 -211.0 -104.05 Q-205.55 -97.6 -197.25 -96.3 L-195.2 -93.5 -208.0 -96.85 -212.1 -102.9 -233.05 -107.25 -236.15 -103.6 -240.75 -103.35 -240.85 -103.5" fill="#967459" fill-rule="evenodd" stroke="none"/>
    <path d="M-240.85 -103.5 L-240.85 -103.35 -241.55 -102.0 -243.9 -102.05 -250.15 -103.45 -264.25 -106.05 -269.85 -116.3 -271.1 -118.6 -265.35 -117.35 -265.35 -123.7 -248.45 -119.95 -240.85 -103.5" fill="#3b110c" fill-rule="evenodd" stroke="none"/>
    <path d="M-189.15 -122.0 L-188.8 -130.5 -163.8 -127.9 -163.8 -125.4 -166.15 -126.0 Q-174.75 -127.8 -183.15 -125.2 L-185.25 -121.4 -189.15 -122.0" fill="#3f211d" fill-rule="evenodd" stroke="none"/>
    <path d="M-155.4 -101.55 Q-159.8 -96.05 -165.05 -95.75 -169.65 -95.6 -174.2 -95.85 L-176.4 -105.3 -171.45 -105.45 Q-170.55 -105.8 -170.25 -106.7 -168.45 -112.65 -170.55 -119.2 L-185.25 -121.4 -183.15 -125.2 Q-174.75 -127.8 -166.15 -126.0 L-163.8 -125.4 -163.75 -101.95 -155.4 -101.55" fill="#4e2a20" fill-rule="evenodd" stroke="none"/>
    <path d="M-260.95 -139.3 L-265.35 -136.7 -265.35 -123.7 -265.35 -117.35 -271.1 -118.6 -276.75 -119.8 -277.2 -132.15 -277.45 -140.75 -260.95 -139.3 M-153.75 -126.85 L-152.1 -101.35 -155.4 -101.55 -163.75 -101.95 -163.8 -125.4 -163.8 -127.9 -153.75 -126.85" fill="#61351f" fill-rule="evenodd" stroke="none"/>
    <path d="M-39.55 -148.9 L-78.9 -141.1 -66.75 -148.25 -80.75 -150.65 -92.1 -146.05 -79.1 -141.05 Q-95.15 -139.1 -110.05 -133.05 L-141.25 -137.6 -166.9 -132.8 -182.4 -134.65 -188.35 -135.1 -186.4 -135.9 -147.3 -143.05 -147.15 -143.0 Q-137.35 -140.75 -128.0 -144.55 L-125.7 -145.6 -123.15 -144.55 Q-108.75 -149.8 -93.35 -149.6 -89.45 -149.55 -85.9 -151.35 L-93.35 -154.45 -85.5 -154.7 -86.35 -156.6 -82.45 -156.4 -64.65 -157.1 -64.8 -159.15 -43.9 -156.55 -39.55 -148.9 M-88.95 -142.3 L-96.0 -143.15 -103.05 -143.6 Q-114.2 -144.3 -125.2 -140.75 -116.35 -137.85 -108.1 -137.8 -98.2 -138.6 -88.95 -142.3" fill="#c09c8f" fill-rule="evenodd" stroke="none"/>
    <path d="M-193.95 -115.55 L-191.7 -120.05 Q-190.7 -122.0 -189.15 -122.0 L-185.25 -121.4 -170.55 -119.2 -176.45 -114.2 -193.95 -115.55" fill="#bfa299" fill-rule="evenodd" stroke="none"/>
    <path d="M-174.2 -95.85 L-177.75 -96.05 -182.25 -99.55 -182.7 -105.1 -176.4 -105.3 -174.2 -95.85" fill="#2e2918" fill-rule="evenodd" stroke="none"/>
    <path d="M-182.7 -105.1 Q-187.6 -105.15 -191.1 -107.15 -194.6 -109.15 -193.95 -111.35 L-177.4 -109.5 -171.45 -105.45 -176.4 -105.3 -182.7 -105.1" fill="#4a2a11" fill-rule="evenodd" stroke="none"/>
    <path d="M-170.55 -119.2 Q-168.45 -112.65 -170.25 -106.7 -170.55 -105.8 -171.45 -105.45 L-177.4 -109.5 -176.45 -114.2 -170.55 -119.2" fill="#000004" fill-rule="evenodd" stroke="none"/>
    <path d="M-265.35 -136.7 L-195.45 -133.4 Q-196.35 -126.1 -201.65 -120.95 L-203.15 -119.6 -251.15 -125.75 -248.45 -119.95 -265.35 -123.7 -265.35 -136.7" fill="#715640" fill-rule="evenodd" stroke="none"/>
    <path d="M-204.9 -171.45 Q-186.45 -168.3 -177.45 -167.6 L-155.85 -165.1 Q-170.1 -165.1 -177.75 -165.4 L-204.9 -171.45" fill="#6e4637" fill-rule="evenodd" stroke="none"/>
    <path d="M-308.95 -127.6 L-293.5 -129.1 -291.15 -128.05 -290.2 -127.05 -289.05 -123.6 -291.8 -123.1 Q-301.6 -121.85 -310.75 -125.55 L-308.95 -127.6 M-158.7 -69.85 L-145.2 -80.45 -137.6 -74.1 -137.45 -72.8 -137.05 -71.2 -136.1 -69.6 -151.0 -44.1 Q-156.4 -47.65 -159.65 -53.3 -163.1 -59.35 -161.7 -66.3 L-158.7 -69.85 M-160.15 -64.15 Q-158.25 -57.25 -151.8 -54.05 L-151.3 -53.8 -149.65 -56.45 Q-143.95 -60.8 -141.85 -67.2 L-141.7 -67.85 -146.4 -72.05 -160.15 -64.15" fill="#7f6251" fill-rule="evenodd" stroke="none"/>
    <path d="M-142.35 -82.95 L-144.4 -107.6 -138.5 -107.6 -137.55 -103.85 Q-136.95 -101.0 -134.45 -99.6 L-133.7 -107.0 -125.9 -107.0 -123.5 -100.1 -121.45 -94.2 -117.7 -83.4 -142.35 -82.95 M-58.55 -126.5 L-42.9 -129.2 -42.3 -133.8 -34.4 -129.0 -29.6 -127.6 -29.25 -125.85 -34.25 -113.45 -40.75 -115.9 -42.1 -118.45 -53.9 -121.4 -59.25 -117.05 Q-58.6 -121.85 -58.55 -126.5 M-269.85 -116.3 L-276.9 -114.65 Q-276.9 -119.75 -280.8 -123.4 -284.7 -127.05 -290.2 -127.05 L-290.5 -127.5 -290.1 -127.75 -277.2 -132.15 -276.75 -119.8 -271.1 -118.6 -269.85 -116.3" fill="#1a0d1e" fill-rule="evenodd" stroke="none"/>
    <path d="M-276.9 -114.65 L-276.85 -113.55 Q-282.55 -106.75 -292.3 -106.95 L-305.15 -108.2 Q-311.7 -109.3 -317.65 -112.1 -317.1 -118.65 -314.7 -123.15 -312.35 -127.65 -308.95 -127.6 L-310.75 -125.55 Q-301.6 -121.85 -291.8 -123.1 L-289.05 -123.6 -290.2 -127.05 Q-284.7 -127.05 -280.8 -123.4 -276.9 -119.75 -276.9 -114.65 M-136.1 -69.6 Q-135.2 -68.65 -133.8 -68.3 L-131.15 -70.15 -107.4 -72.85 -105.5 -70.8 -100.85 -71.35 -98.3 -70.3 Q-87.3 -65.05 -89.7 -54.05 -91.7 -44.9 -100.45 -41.25 -123.95 -31.4 -147.1 -41.9 -149.2 -42.9 -151.0 -44.1 L-136.1 -69.6 M-112.4 -64.95 L-128.65 -63.85 -135.05 -46.7 -134.9 -44.75 Q-117.6 -39.75 -101.65 -47.55 L-100.0 -48.45 -108.5 -65.3 -112.4 -64.95" fill="#402b25" fill-rule="evenodd" stroke="none"/>
    <path d="M-276.85 -113.55 L-274.9 -109.25 Q-294.85 -100.1 -314.75 -107.55 -316.85 -108.35 -318.75 -109.75 L-317.65 -112.1 Q-311.7 -109.3 -305.15 -108.2 L-292.3 -106.95 Q-282.55 -106.75 -276.85 -113.55 M-319.65 -103.25 L-304.35 -100.35 -304.15 -96.35 -317.9 -97.05 -319.65 -103.25 M-166.0 -63.1 L-158.7 -69.85 -161.7 -66.3 Q-163.1 -59.35 -159.65 -53.3 -156.4 -47.65 -151.0 -44.1 -149.2 -42.9 -147.1 -41.9 -123.95 -31.4 -100.45 -41.25 -91.7 -44.9 -89.7 -54.05 -87.3 -65.05 -98.3 -70.3 L-91.75 -69.65 -82.2 -61.85 -82.4 -53.05 -82.35 -53.05 -83.35 -51.25 Q-83.85 -48.9 -84.75 -46.7 -87.45 -40.6 -93.15 -37.1 -115.05 -23.8 -140.0 -31.2 -148.8 -33.8 -156.6 -38.45 -160.3 -40.7 -163.15 -43.95 -167.1 -48.55 -167.85 -53.35 L-167.85 -53.4 Q-168.55 -58.15 -166.0 -63.1 M-166.1 -32.6 L-166.05 -32.6 -161.75 -35.35 Q-150.8 -27.05 -137.35 -23.95 L-134.25 -23.25 Q-138.7 -22.55 -141.5 -18.75 L-146.35 -12.25 -169.4 -24.55 -166.1 -32.6" fill="#997669" fill-rule="evenodd" stroke="none"/>
    <path d="M-274.9 -109.25 L-273.15 -108.6 -270.65 -104.6 -272.75 -89.85 Q-286.65 -86.0 -301.0 -84.55 L-304.35 -83.5 Q-313.65 -79.3 -322.25 -84.85 -323.6 -89.7 -323.35 -94.7 -322.95 -102.8 -318.75 -109.75 -316.85 -108.35 -314.75 -107.55 -294.85 -100.1 -274.9 -109.25 M-304.15 -96.35 L-304.35 -100.35 -319.65 -103.25 Q-321.2 -92.55 -319.6 -88.55 -318.05 -84.5 -317.1 -83.75 -311.8 -82.05 -306.7 -83.7 L-303.5 -84.85 -304.15 -96.35 M-167.85 -53.35 Q-167.1 -48.55 -163.15 -43.95 -160.3 -40.7 -156.6 -38.45 -148.8 -33.8 -140.0 -31.2 -115.05 -23.8 -93.15 -37.1 -87.45 -40.6 -84.75 -46.7 -83.85 -48.9 -83.35 -51.25 L-83.25 -50.05 Q-82.75 -41.3 -89.25 -35.55 L-89.35 -22.1 -98.25 -15.6 -90.6 -13.6 -93.25 -12.1 Q-112.35 -2.75 -133.55 -6.85 L-134.25 -23.25 -137.35 -23.95 Q-150.8 -27.05 -161.75 -35.35 L-166.05 -32.6 -167.85 -53.35" fill="#2a1016" fill-rule="evenodd" stroke="none"/>
    <path d="M-247.8 -145.6 L-245.0 -144.7 -260.95 -139.3 -277.45 -140.75 -277.35 -141.6 -275.2 -143.05 Q-267.6 -148.15 -254.65 -147.35 L-269.85 -142.85 -263.3 -141.1 -247.8 -145.6" fill="#583427" fill-rule="evenodd" stroke="none"/>
    <path d="M-188.0 -91.8 L-180.45 -91.1 Q-180.65 -90.65 -181.0 -90.35 -185.45 -87.0 -188.0 -91.8 M-243.9 -102.05 Q-244.3 -100.75 -245.4 -100.05 -246.5 -99.35 -247.75 -99.6 -249.0 -99.9 -249.7 -101.05 -250.4 -102.15 -250.15 -103.45 L-243.9 -102.05" fill="#7e8123" fill-rule="evenodd" stroke="none"/>
    <path d="M-304.15 -96.35 L-303.5 -84.85 -306.7 -83.7 Q-311.8 -82.05 -317.1 -83.75 -318.05 -84.5 -319.6 -88.55 -321.2 -92.55 -319.65 -103.25 L-317.9 -97.05 -304.15 -96.35 M-146.35 -12.25 L-141.5 -18.75 Q-138.7 -22.55 -134.25 -23.25 L-133.55 -6.85 Q-133.55 -4.05 -136.95 -2.1 -140.4 -0.15 -145.2 -0.1 L-146.35 -12.25 M-74.25 -30.7 Q-72.0 -32.15 -72.65 -34.85 -74.65 -42.85 -73.95 -51.05 -65.55 -30.15 -74.6 -11.8 L-75.85 -9.7 -74.25 -30.7" fill="#100503" fill-rule="evenodd" stroke="none"/>
    <path d="M-174.9 -50.75 L-167.35 -62.6 -166.0 -63.1 Q-168.55 -58.15 -167.85 -53.4 L-167.9 -53.4 -174.9 -50.75 M-83.35 -51.25 L-82.35 -53.05 -73.95 -51.05 Q-74.65 -42.85 -72.65 -34.85 -72.0 -32.15 -74.25 -30.7 L-89.25 -35.55 Q-82.75 -41.3 -83.25 -50.05 L-83.35 -51.25" fill="#5a3b36" fill-rule="evenodd" stroke="none"/>
    <path d="M-145.2 -0.1 Q-152.8 0.5 -160.75 -1.6 -165.5 -2.9 -169.95 -4.75 L-169.45 -24.6 -169.4 -24.55 -146.35 -12.25 -145.2 -0.1 M-89.25 -35.55 L-74.25 -30.7 -75.85 -9.7 -90.6 -13.6 -98.25 -15.6 -89.35 -22.1 -89.25 -35.55" fill="#0a110a" fill-rule="evenodd" stroke="none"/>
    <path d="M-73.95 -136.7 L-59.75 -140.1 -59.4 -139.3 -59.35 -138.85 -71.85 -134.35 -73.95 -136.7 M-92.9 -131.1 L-78.0 -133.85 -78.45 -131.55 -91.6 -128.7 -92.9 -131.1" fill="#937876" fill-rule="evenodd" stroke="none"/>
    <path d="M-76.1 -111.1 L-73.95 -136.7 -71.85 -134.35 -73.3 -112.5 -76.1 -111.1 M-92.4 -107.1 Q-94.2 -109.9 -94.75 -114.8 -95.7 -122.75 -94.35 -130.5 -94.2 -131.65 -92.9 -131.1 L-91.6 -128.7 -92.4 -107.1" fill="#5c3f37" fill-rule="evenodd" stroke="none"/>
    <path d="M-45.85 -113.95 L-44.4 -118.15 -42.1 -118.45 -40.75 -115.9 Q-41.55 -116.25 -39.0 -113.55 -36.45 -110.9 -28.9 -110.2 L-23.5 -110.3 -15.35 -110.35 Q-7.75 -110.4 -3.15 -115.3 L-4.7 -119.2 -0.4 -117.8 0.0 -114.5 -1.95 -111.85 -5.0 -110.2 Q-26.65 -100.0 -45.85 -113.95" fill="#a79081" fill-rule="evenodd" stroke="none"/>
    <path d="M-28.1 -104.5 L-41.9 -108.7 -43.4 -104.9 -42.6 -97.55 -29.9 -97.3 -29.85 -97.3 -26.55 -97.85 -28.1 -104.5 M-1.95 -111.85 Q0.45 -100.75 -10.1 -96.15 -14.85 -94.05 -19.8 -93.95 -27.95 -93.8 -36.0 -93.8 -38.7 -93.8 -40.9 -95.1 -50.6 -100.85 -45.85 -113.95 -26.65 -100.0 -5.0 -110.2 L-1.95 -111.85" fill="#251a1c" fill-rule="evenodd" stroke="none"/>
    <path d="M-43.4 -104.9 L-41.9 -108.7 -28.1 -104.5 -30.95 -101.35 -43.4 -104.9" fill="#987b68" fill-rule="evenodd" stroke="none"/>
    <path d="M-13.9 -124.05 L-12.25 -124.3 -7.75 -114.7 -10.4 -116.7 -13.9 -124.05 M-30.8 -132.4 Q-24.55 -135.4 -17.3 -131.7 L-12.2 -129.1 -23.6 -130.1 -25.45 -130.45 Q-28.2 -130.9 -30.8 -132.4" fill="#c1ad91" fill-rule="evenodd" stroke="none"/>
    <path d="M-7.75 -114.7 L-12.25 -124.3 -13.9 -124.05 -18.8 -122.85 -19.75 -115.1 -7.75 -114.7 M-12.2 -129.1 L-4.7 -119.2 -3.15 -115.3 Q-7.75 -110.4 -15.35 -110.35 L-23.5 -110.3 -28.9 -110.2 -23.6 -130.1 -12.2 -129.1" fill="#422120" fill-rule="evenodd" stroke="none"/>
    <path d="M-40.75 -115.9 L-34.25 -113.45 -29.25 -125.85 -29.6 -127.6 -34.4 -129.0 -30.8 -132.4 Q-28.2 -130.9 -25.45 -130.45 L-23.6 -130.1 -28.9 -110.2 Q-36.45 -110.9 -39.0 -113.55 -41.55 -116.25 -40.75 -115.9 M-10.4 -116.7 L-7.75 -114.7 -19.75 -115.1 -10.4 -116.7" fill="#24160c" fill-rule="evenodd" stroke="none"/>
    <path d="M-29.9 -97.3 L-42.6 -97.55 -43.4 -104.9 -30.95 -101.35 -29.9 -97.3" fill="#371b26" fill-rule="evenodd" stroke="none"/>
    <path d="M-91.0 -166.6 L-108.5 -162.4 Q-111.25 -161.85 -113.65 -160.95 -116.1 -160.1 -118.9 -160.4 L-122.7 -160.3 -124.25 -162.0 Q-125.2 -163.25 -125.2 -164.95 L-91.0 -166.6" fill="#4b291d" fill-rule="evenodd" stroke="none"/>
    <path d="M-120.65 -148.3 L-121.0 -149.6 -122.7 -160.3 -118.9 -160.4 Q-116.1 -160.1 -113.65 -160.95 -111.25 -161.85 -108.5 -162.4 L-91.0 -166.6 -89.25 -162.85 -86.35 -156.6 -85.5 -154.7 -93.35 -154.45 -119.65 -148.85 -120.65 -148.3 M-93.25 -163.45 Q-93.6 -164.4 -94.15 -164.05 L-95.05 -163.0 Q-95.4 -162.3 -95.35 -160.6 -95.4 -158.9 -95.05 -157.25 -94.75 -155.6 -93.6 -155.6 -92.45 -155.6 -92.35 -156.8 -92.25 -158.0 -92.6 -160.25 -92.95 -162.55 -93.25 -163.45 M-103.9 -153.7 L-101.65 -153.6 -102.1 -162.6 -105.45 -160.5 -103.9 -153.7" fill="#341611" fill-rule="evenodd" stroke="none"/>
    <path d="M-101.45 -172.0 L-93.15 -169.55 -91.0 -166.6 -125.2 -164.95 -140.5 -165.05 -155.85 -165.1 -156.65 -168.75 -101.45 -172.0 M-103.9 -153.7 L-105.45 -160.5 -102.1 -162.6 -101.65 -153.6 -103.9 -153.7 M-93.25 -163.45 Q-92.95 -162.55 -92.6 -160.25 -92.25 -158.0 -92.35 -156.8 -92.45 -155.6 -93.6 -155.6 -94.75 -155.6 -95.05 -157.25 -95.4 -158.9 -95.35 -160.6 -95.4 -162.3 -95.05 -163.0 L-94.15 -164.05 Q-93.6 -164.4 -93.25 -163.45" fill="#7e5d54" fill-rule="evenodd" stroke="none"/>
    <path d="M-89.25 -162.85 L-83.2 -160.1 -82.45 -156.4 -86.35 -156.6 -89.25 -162.85" fill="#1a0b07" fill-rule="evenodd" stroke="none"/>
    <path d="M-151.45 -177.3 Q-161.8 -180.65 -171.4 -180.45 -165.1 -181.65 -159.65 -181.75 -143.75 -182.0 -127.8 -181.45 L-129.7 -179.1 Q-133.4 -179.1 -136.0 -177.65 L-151.45 -177.3" fill="#7d5b4c" fill-rule="evenodd" stroke="none"/>
    <path d="M-154.8 -160.6 L-154.8 -160.65 -155.85 -165.1 -140.5 -165.05 -140.05 -162.35 -150.05 -161.1 -154.8 -160.6" fill="#482514" fill-rule="evenodd" stroke="none"/>
    <path d="M-121.0 -149.6 L-137.7 -149.5 -140.05 -162.35 -140.5 -165.05 -125.2 -164.95 Q-125.2 -163.25 -124.25 -162.0 L-122.7 -160.3 -121.0 -149.6" fill="#6a4a3b" fill-rule="evenodd" stroke="none"/>
    <path d="M-110.05 -133.05 L-115.25 -130.8 Q-118.35 -129.45 -121.75 -129.05 L-128.4 -128.75 -142.75 -130.2 -166.9 -132.8 -141.25 -137.6 -110.05 -133.05" fill="#5d3a3a" fill-rule="evenodd" stroke="none"/>
    <path d="M-144.4 -107.6 L-145.85 -111.35 -145.85 -111.4 -139.8 -112.0 -138.5 -107.6 -144.4 -107.6 M-133.7 -107.0 L-134.8 -112.35 -127.75 -112.35 -125.9 -107.0 -133.7 -107.0" fill="#977974" fill-rule="evenodd" stroke="none"/>
    <path d="M-107.2 -76.35 L-130.5 -74.85 Q-132.45 -74.85 -134.15 -75.7 -139.4 -78.15 -142.35 -82.95 L-117.7 -83.4 -114.55 -83.45 -107.4 -76.85 -107.2 -76.35" fill="#5d3f3a" fill-rule="evenodd" stroke="none"/>
    <path d="M-145.2 -80.45 L-142.35 -82.95 Q-139.4 -78.15 -134.15 -75.7 -132.45 -74.85 -130.5 -74.85 L-107.2 -76.35 -100.85 -71.35 -105.5 -70.8 -107.4 -72.85 -131.15 -70.15 -133.8 -68.3 Q-135.2 -68.65 -136.1 -69.6 L-137.05 -71.2 -137.45 -72.8 -137.6 -74.1 -145.2 -80.45 M-112.4 -64.95 L-103.0 -49.8 -104.9 -49.1 Q-119.6 -44.15 -135.05 -46.7 L-128.65 -63.85 -112.4 -64.95 M-149.65 -56.45 L-155.25 -62.85 -146.4 -72.05 -141.7 -67.85 -141.85 -67.2 Q-143.95 -60.8 -149.65 -56.45" fill="#000001" fill-rule="evenodd" stroke="none"/>
    <path d="M-103.0 -49.8 L-112.4 -64.95 -108.5 -65.3 -100.0 -48.45 -103.0 -49.8" fill="#543c36" fill-rule="evenodd" stroke="none"/>
    <path d="M-160.15 -64.15 L-155.25 -62.85 -149.65 -56.45 -151.3 -53.8 -151.8 -54.05 Q-158.25 -57.25 -160.15 -64.15" fill="#ab876f" fill-rule="evenodd" stroke="none"/>
    <path d="M-155.25 -62.85 L-160.15 -64.15 -146.4 -72.05 -155.25 -62.85" fill="#a57e71" fill-rule="evenodd" stroke="none"/>
    <path d="M-135.05 -46.7 Q-119.6 -44.15 -104.9 -49.1 L-103.0 -49.8 -100.0 -48.45 -101.65 -47.55 Q-117.6 -39.75 -134.9 -44.75 L-135.05 -46.7" fill="#725347" fill-rule="evenodd" stroke="none"/>
  </g>
</svg>
