<?xml version="1.0" encoding="UTF-8" standalone="no"?>
<svg xmlns:ffdec="https://www.free-decompiler.com/flash" xmlns:xlink="http://www.w3.org/1999/xlink" ffdec:objectType="shape" height="43.05px" width="35.5px" xmlns="http://www.w3.org/2000/svg">
  <g transform="matrix(1.0, 0.0, 0.0, 1.0, 17.75, 21.5)">
    <path d="M9.6 -21.0 L15.6 -21.0 15.6 -12.4 15.55 -12.4 11.6 -12.35 9.6 -12.35 9.6 -12.4 9.6 -21.0 M3.6 -12.4 L-2.4 -12.4 -2.4 -21.0 3.6 -21.0 3.6 -12.4 M-8.4 -12.4 L-14.4 -12.35 -14.4 -12.4 -14.4 -21.0 -8.4 -21.0 -8.4 -12.4" fill="#706860" fill-rule="evenodd" stroke="none"/>
    <path d="M8.45 -12.4 L3.6 -12.4 3.6 -21.0 9.6 -21.0 9.6 -12.4 8.45 -12.4 M-2.4 -12.4 L-8.4 -12.4 -8.4 -21.0 -2.4 -21.0 -2.4 -12.4" fill="#605030" fill-rule="evenodd" stroke="none"/>
    <path d="M9.15 -9.15 Q12.9 -5.9 15.55 -1.2 18.2 3.5 16.75 9.9 15.25 16.25 5.15 19.95 -4.95 23.6 -11.8 15.1 -18.7 6.55 -16.9 0.85 -15.1 -4.85 -10.15 -8.6 -5.2 -12.4 0.1 -12.35 5.4 -12.4 9.15 -9.15 M-1.8 3.35 L-1.8 13.65 8.2 13.65 8.2 3.35 8.2 -7.0 -1.8 -7.0 -1.8 3.35" fill="url(#gradient0)" fill-rule="evenodd" stroke="none"/>
    <path d="M8.2 3.35 L8.2 13.65 -1.8 13.65 -1.8 3.35 8.2 3.35" fill="#404030" fill-rule="evenodd" stroke="none"/>
    <path d="M8.2 3.35 L-1.8 3.35 -1.8 -7.0 8.2 -7.0 8.2 3.35" fill="#707870" fill-rule="evenodd" stroke="none"/>
    <path d="M9.6 -21.0 L15.6 -21.0 15.6 -12.4 M15.55 -12.4 L11.6 -12.35 9.6 -12.35 8.45 -12.4 3.6 -12.4 -2.4 -12.4 -8.4 -12.4 -14.4 -12.35 M-14.4 -12.4 L-14.4 -21.0 -8.4 -21.0 -2.4 -21.0 3.6 -21.0 9.6 -21.0 M9.15 -9.15 Q12.9 -5.9 15.55 -1.2 18.2 3.5 16.75 9.9 15.25 16.25 5.15 19.95 -4.95 23.6 -11.8 15.1 -18.7 6.55 -16.9 0.85 -15.1 -4.85 -10.15 -8.6 -5.2 -12.4 0.1 -12.35 5.4 -12.4 9.15 -9.15 M-1.8 3.35 L-1.8 13.65 8.2 13.65 8.2 3.35 -1.8 3.35 -1.8 -7.0 8.2 -7.0 8.2 3.35" fill="none" stroke="#000000" stroke-linecap="round" stroke-linejoin="round" stroke-width="1.0"/>
  </g>
  <defs>
    <radialGradient cx="0" cy="0" gradientTransform="matrix(0.0244, 0.0, 0.0, 0.0209, -0.2, 4.0)" gradientUnits="userSpaceOnUse" id="gradient0" r="819.2" spreadMethod="pad">
      <stop offset="0.0" stop-color="#303840"/>
      <stop offset="0.6039215686274509" stop-color="#605030"/>
      <stop offset="0.8117647058823529" stop-color="#706860"/>
      <stop offset="0.9058823529411765" stop-color="#605030"/>
      <stop offset="1.0" stop-color="#202010"/>
    </radialGradient>
  </defs>
</svg>
