<?xml version="1.0" encoding="UTF-8" standalone="no"?>
<svg xmlns:ffdec="https://www.free-decompiler.com/flash" xmlns:xlink="http://www.w3.org/1999/xlink" ffdec:objectType="shape" height="16.7px" width="7.3px" xmlns="http://www.w3.org/2000/svg">
  <g transform="matrix(1.0, 0.0, 0.0, 1.0, 3.3, -0.25)">
    <path d="M-2.45 2.05 Q-1.9 1.2 -1.05 1.05 M-2.75 2.55 L-2.65 2.3" fill="none" stroke="#ff6600" stroke-linecap="round" stroke-linejoin="round" stroke-width="0.05"/>
    <path d="M2.5 2.15 L2.65 2.35 2.35 1.8 2.35 2.05 2.5 2.15 M1.65 1.1 L2.35 1.8 Q2.3 0.8 1.75 0.25 M1.35 2.0 L2.35 2.05 M0.35 4.65 L0.35 5.65 0.15 6.45 -0.45 7.55 -0.75 7.9 M1.35 3.2 Q2.15 3.5 2.45 4.6 L2.6 5.05 2.65 5.1 2.8 5.2 1.95 3.35 1.7 3.0 M2.65 5.1 L2.9 5.65 2.8 5.2 3.3 6.25 3.6 6.75 4.0 7.3 M2.65 5.1 L2.0 5.0 M1.95 3.35 Q2.95 3.2 3.15 4.25 M0.35 3.0 L1.35 3.2 M3.2 8.3 L3.25 8.0 3.0 7.65 3.05 7.25 Q2.8 7.0 2.35 7.0 M2.9 5.65 L3.05 7.25 3.25 8.0 M2.7 8.0 L2.95 8.65 3.0 9.0 M2.35 10.3 L2.35 9.1 1.7 8.65 M0.0 10.0 L0.0 10.3 0.0 10.65 M0.0 8.25 L0.0 8.85 0.0 10.0 M1.7 10.65 L1.7 11.35 Q2.05 11.65 2.1 12.3 L2.35 13.0 M0.7 11.0 Q1.35 11.0 1.7 11.35 L1.7 12.65 1.7 13.0 M2.35 11.0 L2.35 10.3 M3.0 10.65 L2.95 10.3 Q2.8 9.55 2.35 9.1 M1.35 14.0 Q1.3 13.0 0.9 12.5 L0.7 13.0 0.75 13.5 0.85 13.95 M0.35 14.0 L0.35 14.65 0.35 15.0 Q0.25 16.0 0.6 16.6 L0.65 16.3 0.7 16.0 0.7 15.3 0.7 14.65 M0.8 16.95 L0.6 16.6 0.05 16.95 -0.45 16.55 -0.65 16.3 -0.65 16.05 -0.65 14.65 -0.65 13.65 M0.7 12.3 L0.9 12.5 M-1.05 1.05 L-1.0 1.05 -0.65 1.0 M-0.3 1.3 L-0.45 1.5 -1.1 2.45 -1.75 2.9 -1.75 2.95 -2.25 3.6 -2.5 4.4 -3.3 5.3 M-2.65 2.3 L-2.45 2.05 M-0.95 4.6 L-0.25 3.35 -0.05 2.7 0.0 2.3 M-0.95 4.6 L-1.65 5.3 -1.7 5.4 -1.8 5.5 -2.0 5.65 -2.05 6.4 -2.05 6.65 Q-2.4 7.2 -2.3 8.3 L-2.2 7.35 -2.05 6.65 M-2.0 5.65 L-2.0 5.0 M-1.7 5.4 Q-1.8 4.7 -1.35 4.5 M-0.45 1.5 L-2.75 2.55 M-2.25 3.6 L-2.3 2.65 M-2.65 5.3 L-2.05 3.95 M-2.0 8.3 L-2.0 9.35 -1.8 8.55 Q-1.65 8.35 -1.65 8.0 L-1.65 7.65 M-2.0 10.65 L-2.0 10.3 -2.0 9.35 M-0.6 11.6 Q-0.55 12.55 -0.85 13.25 -1.1 14.2 -1.0 15.3 M-1.65 12.0 L-1.65 10.0 -1.65 9.65 M-0.45 16.55 L-0.65 16.05 M-1.3 13.65 L-1.3 12.3" fill="none" stroke="#ff6600" stroke-linecap="round" stroke-linejoin="round" stroke-width="0.05"/>
    <path d="M0.35 5.65 L1.0 5.65 Q1.65 5.65 2.0 6.0 L2.35 6.3 M0.15 6.45 L0.5 6.9 0.9 7.4 Q1.25 6.7 1.0 5.65 M1.35 3.2 L1.35 3.3 1.35 3.65 M1.35 3.2 L1.0 2.3 M0.85 9.0 L0.65 8.3 0.3 9.05 2.0 10.05 2.35 10.3 M0.0 8.85 L0.3 9.05 0.05 9.65 0.0 10.0 M0.65 8.3 L0.4 8.0 0.0 8.25 M0.0 8.85 L-0.3 8.65 M-0.45 7.55 L0.4 8.0 0.9 7.4 M0.65 8.3 L1.7 6.3 M-1.75 2.95 L-1.2 2.85 Q-1.05 2.2 -0.3 2.3 M-0.05 2.7 L-1.2 2.85 -1.25 3.3 Q-1.3 4.0 -1.65 4.3 M-1.0 4.0 L-0.95 4.6 -1.15 5.6 -1.65 6.3 -2.05 6.65 M-0.75 7.9 L-1.0 8.3 -1.3 8.65 M-0.75 7.9 Q-0.45 7.2 -0.65 6.3 M-0.65 10.3 L-0.6 11.2 -0.6 11.6 M0.15 6.45 Q-0.3 5.85 -1.15 5.6 M-0.25 3.35 L1.15 5.2" fill="none" stroke="#ffff66" stroke-linecap="round" stroke-linejoin="round" stroke-width="0.05"/>
  </g>
</svg>
