<?xml version="1.0" encoding="UTF-8" standalone="no"?>
<svg xmlns:ffdec="https://www.free-decompiler.com/flash" xmlns:xlink="http://www.w3.org/1999/xlink" ffdec:objectType="shape" height="16.05px" width="6.7px" xmlns="http://www.w3.org/2000/svg">
  <g transform="matrix(1.0, 0.0, 0.0, 1.0, 3.25, -0.3)">
    <path d="M-1.95 2.15 L-1.0 2.0 M-1.95 2.15 L-2.2 2.35" fill="none" stroke="#ff6600" stroke-linecap="round" stroke-linejoin="round" stroke-width="0.05"/>
    <path d="M1.35 2.0 L1.95 3.05 2.35 3.3 3.0 4.0 3.35 4.65 M1.0 3.0 L1.2 3.6 1.25 3.8 Q1.75 4.1 2.1 4.95 L2.35 5.3 Q1.65 4.75 1.25 3.8 M1.7 5.65 L2.05 6.0 2.35 7.0 M1.4 8.0 L1.4 10.0 1.25 11.45 1.95 12.65 2.0 13.0 M2.0 1.65 L3.45 3.2 M1.0 6.3 L1.35 7.65 M-0.95 10.8 L-0.9 11.65 -0.85 13.0 M2.0 7.65 Q2.05 8.35 2.4 8.85 L2.35 7.3 M0.75 10.5 L0.95 11.15 1.0 8.65 M0.95 11.15 L1.0 11.3 1.25 11.45 M2.0 9.0 L2.3 9.65 2.35 10.0 M1.0 11.3 L1.3 12.05 M3.0 5.3 Q3.0 6.0 3.25 6.35 M0.85 14.65 L0.95 14.3 0.95 14.25 0.85 14.65 Q0.6 15.7 0.95 16.35 M0.7 13.65 L0.95 14.25 M0.95 11.15 L0.9 12.4 0.85 12.65 0.7 13.3 M0.9 12.4 Q0.45 12.15 0.35 11.65 M-1.3 0.3 Q-0.65 1.0 -1.95 2.15 M-2.65 4.3 L-2.75 6.0 -2.15 4.0 Q-2.0 3.0 -1.3 2.3 M-1.45 6.25 L-1.3 5.8 Q-1.4 5.5 -1.65 5.3 M-1.0 3.45 Q-1.0 4.7 -1.3 5.8 -1.05 6.35 -1.2 7.3 L-1.4 9.05 Q-1.05 9.85 -1.0 10.8 L-1.0 11.3 -0.9 11.65 M-0.95 10.8 L-1.0 10.0 -1.0 9.0 -1.0 8.0 M-2.0 6.3 Q-2.4 7.4 -2.3 8.65 L-2.3 9.0 M-2.0 8.0 L-1.4 9.05 M-2.75 6.0 L-2.85 6.25 -3.25 7.05 M-2.0 12.0 L-2.0 11.0 -2.0 10.3 M-0.65 14.3 L-0.35 15.3 -0.3 15.65 M-0.3 13.0 L-0.3 14.0" fill="none" stroke="#ff6600" stroke-linecap="round" stroke-linejoin="round" stroke-width="0.05"/>
    <path d="M1.0 6.0 L1.3 6.0 1.2 4.3 1.05 3.95 M2.05 6.0 L1.35 6.0 1.3 6.0 1.35 6.75 Q1.55 7.2 1.4 8.0 L1.35 7.65 1.35 6.75 1.0 6.3 M0.35 7.3 L0.05 7.1 -0.3 7.95 -0.4 8.3 -0.45 9.0 Q-0.3 10.3 -0.95 10.8 L-1.0 10.8 -2.0 11.0 M1.0 2.65 Q0.2 3.0 -0.35 3.8 0.1 4.6 0.7 5.0 -0.2 5.1 -0.5 5.9 L-0.5 5.95 Q-0.45 6.75 0.05 7.1 L0.35 6.65 M0.7 9.0 L0.75 10.5 Q0.5 11.3 -0.65 11.45 M-0.65 2.65 L-0.65 3.0 -0.65 3.3 -0.35 3.8 -0.65 4.25 -0.65 4.4 -0.6 5.0 -0.55 5.25 -0.5 5.65 -0.5 5.9 M-0.65 4.25 L-0.65 3.3 M-1.0 3.45 L-1.95 5.3 -2.0 5.65 M-0.6 5.0 L-0.65 4.65 -0.65 4.4 M-0.65 3.0 L-1.0 3.45 M-0.3 7.95 L-0.65 6.65 -0.8 7.3 -0.95 7.7 M-0.5 5.95 L-0.65 6.55 -0.65 6.65" fill="none" stroke="#ffff33" stroke-linecap="round" stroke-linejoin="round" stroke-width="0.05"/>
  </g>
</svg>
