<?xml version="1.0" encoding="UTF-8" standalone="no"?>
<svg xmlns:ffdec="https://www.free-decompiler.com/flash" xmlns:xlink="http://www.w3.org/1999/xlink" ffdec:objectType="shape" height="65.9px" width="77.6px" xmlns="http://www.w3.org/2000/svg">
  <g transform="matrix(1.0, 0.0, 0.0, 1.0, 38.8, 32.95)">
    <path d="M21.85 -21.1 L29.4 -27.7 31.7 -25.65 24.0 -19.0 11.75 -8.4 9.5 -10.4 21.85 -21.1" fill="#666666" fill-rule="evenodd" stroke="none"/>
    <path d="M24.0 -19.0 L24.35 -17.9 24.35 -17.85 24.4 -17.15 24.0 -16.9 24.4 -16.95 24.15 -15.15 18.2 -9.0 18.0 -8.75 Q-3.55 12.65 -27.1 26.4 -28.3 21.95 -30.95 22.45 -18.15 6.45 2.75 -10.75 L16.0 -21.9 16.3 -22.15 17.75 -22.05 18.15 -22.0 Q20.25 -21.8 21.85 -21.1 L9.5 -10.4 11.75 -8.4 24.0 -19.0" fill="url(#gradient0)" fill-rule="evenodd" stroke="none"/>
    <path d="M2.75 -10.75 L15.6 -32.45 16.0 -21.9 2.75 -10.75" fill="#222222" fill-rule="evenodd" stroke="none"/>
    <path d="M24.4 -16.95 L38.3 -19.95 18.2 -9.0 24.15 -15.15 24.4 -16.95" fill="#333333" fill-rule="evenodd" stroke="none"/>
    <path d="M-27.1 26.4 Q-32.65 29.65 -38.3 32.45 -35.05 27.5 -30.95 22.45 -28.3 21.95 -27.1 26.4" fill="url(#gradient1)" fill-rule="evenodd" stroke="none"/>
    <path d="M21.85 -21.1 L29.4 -27.7 31.7 -25.65 24.0 -19.0 24.35 -17.9 24.35 -17.85 24.4 -17.15 24.4 -16.95 38.3 -19.95 18.2 -9.0 18.0 -8.75 Q-3.55 12.65 -27.1 26.4 -32.65 29.65 -38.3 32.45 -35.05 27.5 -30.95 22.45 -18.15 6.45 2.75 -10.75 L15.6 -32.45 16.0 -21.9 16.3 -22.15 17.75 -22.05 18.15 -22.0 Q20.25 -21.8 21.85 -21.1 L9.5 -10.4 11.75 -8.4 24.0 -19.0 M16.0 -21.9 L2.75 -10.75 M24.4 -16.95 L24.15 -15.15 18.2 -9.0 M-27.1 26.4 Q-28.3 21.95 -30.95 22.45" fill="none" stroke="#000000" stroke-linecap="round" stroke-linejoin="round" stroke-width="1.0"/>
  </g>
  <defs>
    <linearGradient gradientTransform="matrix(0.0044, 0.0058, -0.031, 0.0287, -3.05, 2.2)" gradientUnits="userSpaceOnUse" id="gradient0" spreadMethod="pad" x1="-819.2" x2="819.2">
      <stop offset="0.0" stop-color="#ffffff"/>
      <stop offset="0.22745098039215686" stop-color="#757e7b"/>
      <stop offset="0.5490196078431373" stop-color="#ffffff"/>
      <stop offset="0.8784313725490196" stop-color="#bc803f"/>
      <stop offset="1.0" stop-color="#ffffff"/>
    </linearGradient>
    <linearGradient gradientTransform="matrix(0.0012, 0.0015, -0.0058, 0.0057, -33.1, 28.15)" gradientUnits="userSpaceOnUse" id="gradient1" spreadMethod="pad" x1="-819.2" x2="819.2">
      <stop offset="0.0" stop-color="#955668"/>
      <stop offset="0.48627450980392156" stop-color="#ffffff"/>
      <stop offset="1.0" stop-color="#9a6073"/>
    </linearGradient>
  </defs>
</svg>
