<?xml version="1.0" encoding="UTF-8" standalone="no"?>
<svg xmlns:ffdec="https://www.free-decompiler.com/flash" xmlns:xlink="http://www.w3.org/1999/xlink" ffdec:objectType="shape" height="115.6px" width="751.05px" xmlns="http://www.w3.org/2000/svg">
  <g transform="matrix(1.0, 0.0, 0.0, 1.0, 374.85, 57.6)">
    <path d="M49.8 -2.6 L44.9 -1.6 21.5 6.95 Q21.2 6.65 21.35 6.5 28.4 -2.0 43.2 -4.6 L49.8 -2.6" fill="#666666" fill-rule="evenodd" stroke="none"/>
    <path d="M49.8 -2.6 L43.2 -4.6 Q28.4 -2.0 21.35 6.5 21.2 6.65 21.5 6.95 L44.9 -1.6 49.8 -2.6 M94.0 -9.75 Q97.45 -8.7 101.35 -8.85 110.7 -9.25 119.05 -12.4 73.2 -23.65 21.35 -21.9 L87.7 -13.95 Q90.0 -11.1 94.0 -9.75 M150.1 44.6 Q99.1 42.75 48.0 37.6 4.6 33.3 20.2 6.15 L-12.1 5.0 Q-66.1 4.15 -119.9 2.5 -83.8 12.0 -68.6 37.45 -71.45 47.55 -84.1 49.35 -219.7 66.8 -352.4 48.95 -385.65 44.5 -369.7 29.25 -344.2 4.75 -297.35 1.6 L-230.95 -1.9 -276.95 -4.3 Q-291.3 -5.3 -293.55 -14.75 -301.55 -48.1 -241.05 -53.45 -109.55 -65.1 23.05 -44.05 91.95 -33.1 162.15 -36.35 208.5 -37.95 213.1 -9.25 273.6 -2.85 339.1 -1.6 362.6 -1.15 371.9 12.95 386.8 35.55 350.25 38.75 L324.7 40.95 339.45 38.1 321.7 41.2 307.15 42.2 Q292.15 40.8 271.55 41.85 179.15 39.95 81.65 30.15 L79.7 28.6 Q63.05 28.55 51.35 19.8 L49.8 18.6 41.05 18.75 Q92.25 37.45 150.1 44.6 189.25 45.2 230.3 45.15 271.35 45.1 311.55 42.7 L230.3 47.65 Q189.25 49.4 150.1 44.6 M238.5 28.1 L366.1 35.6 Q309.6 20.05 246.95 27.15 L238.5 28.1 M100.75 14.6 Q146.8 -5.1 204.15 -1.9 149.4 -14.65 101.75 13.35 101.0 13.75 100.75 14.6 M-265.5 -27.05 L-264.45 -21.2 Q-122.8 -1.9 21.35 -2.4 L-68.95 -8.4 -72.35 -11.4 Q-167.05 -7.65 -257.95 -23.55 L-265.5 -27.05 M-201.2 -36.6 Q-144.8 -42.7 -87.9 -42.5 L-81.85 -42.4 Q-139.95 -58.7 -195.7 -43.7 -208.45 -40.15 -201.2 -36.6 M-225.7 20.1 L-128.0 27.6 Q-168.1 16.6 -213.5 19.25 L-225.7 20.1 M-305.8 28.6 Q-273.15 17.0 -236.55 15.6 -281.8 3.35 -312.9 27.35 L-312.55 27.75 -305.8 28.6 M-320.75 39.1 L-344.65 29.05 -345.35 29.4 -345.65 29.8 -345.75 30.3 -345.55 30.9 -344.9 31.6 Q-336.05 38.65 -325.5 44.6 L-98.15 43.6 -320.75 39.1" fill="#c1e0ff" fill-rule="evenodd" stroke="none"/>
    <path d="M94.0 -9.75 Q90.0 -11.1 87.7 -13.95 L21.35 -21.9 Q73.2 -23.65 119.05 -12.4 110.7 -9.25 101.35 -8.85 97.45 -8.7 94.0 -9.75 M150.1 44.6 Q92.25 37.45 41.05 18.75 L49.8 18.6 51.35 19.8 Q63.05 28.55 79.7 28.6 L81.65 30.15 Q179.15 39.95 271.55 41.85 292.15 40.8 307.15 42.2 L311.55 42.7 Q271.35 45.1 230.3 45.15 189.25 45.2 150.1 44.6 M238.5 28.1 L246.95 27.15 Q309.6 20.05 366.1 35.6 L238.5 28.1 M-265.5 -27.05 L-257.95 -23.55 Q-167.05 -7.65 -72.35 -11.4 L-68.95 -8.4 21.35 -2.4 Q-122.8 -1.9 -264.45 -21.2 L-265.5 -27.05 M-225.7 20.1 L-213.5 19.25 Q-168.1 16.6 -128.0 27.6 L-225.7 20.1 M-320.75 39.1 L-98.15 43.6 -325.5 44.6 Q-336.05 38.65 -344.9 31.6 L-345.55 30.9 -345.75 30.3 -345.65 29.8 -345.35 29.4 -344.65 29.05 -320.75 39.1" fill="#ffffff" fill-rule="evenodd" stroke="none"/>
    <path d="M100.75 14.6 Q101.0 13.75 101.75 13.35 149.4 -14.65 204.15 -1.9 146.8 -5.1 100.75 14.6 M-201.2 -36.6 Q-208.45 -40.15 -195.7 -43.7 -139.95 -58.7 -81.85 -42.4 L-87.9 -42.5 Q-144.8 -42.7 -201.2 -36.6 M-305.8 28.6 L-312.55 27.75 -312.9 27.35 Q-281.8 3.35 -236.55 15.6 -273.15 17.0 -305.8 28.6" fill="#999999" fill-rule="evenodd" stroke="none"/>
  </g>
</svg>
