<?xml version="1.0" encoding="UTF-8" standalone="no"?>
<svg xmlns:ffdec="https://www.free-decompiler.com/flash" xmlns:xlink="http://www.w3.org/1999/xlink" ffdec:objectType="shape" height="356.25px" width="350.0px" xmlns="http://www.w3.org/2000/svg">
  <g transform="matrix(1.0, 0.0, 0.0, 1.0, 101.75, 95.45)">
    <path d="M73.3 -48.5 L85.75 -47.95 Q130.8 -44.0 163.85 -11.05 199.55 24.75 201.2 74.65 L201.25 79.5 Q201.25 132.5 163.85 169.95 126.3 207.5 73.3 207.5 20.2 207.5 -17.2 169.95 -54.75 132.5 -54.7 79.5 -54.75 26.45 -17.2 -11.05 20.2 -48.5 73.3 -48.5" fill="url(#gradient0)" fill-rule="evenodd" stroke="none"/>
    <path d="M119.2 240.4 L119.2 199.6 154.6 179.1 190.0 199.5 190.0 240.3 154.6 260.8 119.2 240.4" fill="url(#gradient1)" fill-rule="evenodd" stroke="none"/>
    <path d="M103.75 164.85 L130.3 149.5 156.85 164.8 156.85 195.4 130.35 210.75 103.8 195.5 103.75 164.85" fill="url(#gradient2)" fill-rule="evenodd" stroke="none"/>
    <path d="M93.4 160.55 L93.4 137.55 113.3 126.05 133.2 137.5 133.2 160.45 113.3 172.0 93.4 160.55" fill="url(#gradient3)" fill-rule="evenodd" stroke="none"/>
    <path d="M248.25 -15.65 L243.35 -24.15 -101.75 175.1 -96.9 183.6 248.25 -15.65" fill="url(#gradient4)" fill-rule="evenodd" stroke="none"/>
    <path d="M-21.75 -95.45 L177.5 249.65 169.05 254.55 -30.2 -90.6 -21.75 -95.45" fill="url(#gradient5)" fill-rule="evenodd" stroke="none"/>
    <path d="M114.25 -58.45 L107.45 -60.3 32.95 217.8 39.75 219.65 114.25 -58.45" fill="url(#gradient6)" fill-rule="evenodd" stroke="none"/>
    <path d="M-64.45 38.75 L-66.3 45.65 211.7 120.15 213.55 113.25 -64.45 38.75" fill="url(#gradient7)" fill-rule="evenodd" stroke="none"/>
    <path d="M-10.35 11.65 L-13.6 15.85 157.65 147.3 160.95 143.05 -10.35 11.65" fill="url(#gradient8)" fill-rule="evenodd" stroke="none"/>
    <path d="M57.75 -69.1 L50.55 -68.15 89.55 228.15 96.75 227.25 57.75 -69.1" fill="url(#gradient9)" fill-rule="evenodd" stroke="none"/>
  </g>
  <defs>
    <radialGradient cx="0" cy="0" gradientTransform="matrix(-0.1593, 0.0, 0.0, 0.1593, 73.25, 79.5)" gradientUnits="userSpaceOnUse" id="gradient0" r="819.2" spreadMethod="pad">
      <stop offset="0.09803921568627451" stop-color="#ffff99"/>
      <stop offset="0.5529411764705883" stop-color="#ffffff" stop-opacity="0.7529412"/>
      <stop offset="1.0" stop-color="#ffffff" stop-opacity="0.0"/>
    </radialGradient>
    <radialGradient cx="0" cy="0" gradientTransform="matrix(-0.0499, 0.0, 0.0, 0.0499, 154.55, 219.95)" gradientUnits="userSpaceOnUse" id="gradient1" r="819.2" spreadMethod="pad">
      <stop offset="0.0" stop-color="#ffffff" stop-opacity="0.15294118"/>
      <stop offset="1.0" stop-color="#ffffff" stop-opacity="0.5019608"/>
    </radialGradient>
    <radialGradient cx="0" cy="0" gradientTransform="matrix(-0.0375, 0.0, 0.0, 0.0375, 130.25, 180.1)" gradientUnits="userSpaceOnUse" id="gradient2" r="819.2" spreadMethod="pad">
      <stop offset="0.0" stop-color="#ffffff" stop-opacity="0.15294118"/>
      <stop offset="1.0" stop-color="#ffffff" stop-opacity="0.5019608"/>
    </radialGradient>
    <radialGradient cx="0" cy="0" gradientTransform="matrix(-0.0281, 0.0, 0.0, 0.0281, 113.25, 149.0)" gradientUnits="userSpaceOnUse" id="gradient3" r="819.2" spreadMethod="pad">
      <stop offset="0.0" stop-color="#ffffff" stop-opacity="0.15294118"/>
      <stop offset="1.0" stop-color="#ffffff" stop-opacity="0.5019608"/>
    </radialGradient>
    <linearGradient gradientTransform="matrix(-0.2106, 0.1216, 0.003, 0.0052, 73.3, 79.45)" gradientUnits="userSpaceOnUse" id="gradient4" spreadMethod="pad" x1="-819.2" x2="819.2">
      <stop offset="0.0" stop-color="#ffffff" stop-opacity="0.0"/>
      <stop offset="0.4980392156862745" stop-color="#ffffff" stop-opacity="0.5019608"/>
      <stop offset="1.0" stop-color="#ffffff" stop-opacity="0.0"/>
    </linearGradient>
    <linearGradient gradientTransform="matrix(0.1216, 0.2106, 0.0052, -0.003, 73.4, 79.45)" gradientUnits="userSpaceOnUse" id="gradient5" spreadMethod="pad" x1="-819.2" x2="819.2">
      <stop offset="0.0" stop-color="#ffffff" stop-opacity="0.0"/>
      <stop offset="0.4980392156862745" stop-color="#ffffff" stop-opacity="0.5019608"/>
      <stop offset="1.0" stop-color="#ffffff" stop-opacity="0.0"/>
    </linearGradient>
    <linearGradient gradientTransform="matrix(-0.0455, 0.1697, 0.0042, 0.0011, 73.5, 79.45)" gradientUnits="userSpaceOnUse" id="gradient6" spreadMethod="pad" x1="-819.2" x2="819.2">
      <stop offset="0.0" stop-color="#ffffff" stop-opacity="0.0"/>
      <stop offset="0.4980392156862745" stop-color="#ffffff" stop-opacity="0.5019608"/>
      <stop offset="1.0" stop-color="#ffffff" stop-opacity="0.0"/>
    </linearGradient>
    <linearGradient gradientTransform="matrix(0.1697, 0.0455, 0.0011, -0.0042, 73.25, 79.75)" gradientUnits="userSpaceOnUse" id="gradient7" spreadMethod="pad" x1="-819.2" x2="819.2">
      <stop offset="0.0" stop-color="#ffffff" stop-opacity="0.0"/>
      <stop offset="0.4980392156862745" stop-color="#ffffff" stop-opacity="0.5019608"/>
      <stop offset="1.0" stop-color="#ffffff" stop-opacity="0.0"/>
    </linearGradient>
    <linearGradient gradientTransform="matrix(0.1045, 0.0802, 0.002, -0.0026, 73.35, 79.55)" gradientUnits="userSpaceOnUse" id="gradient8" spreadMethod="pad" x1="-819.2" x2="819.2">
      <stop offset="0.0" stop-color="#ffffff" stop-opacity="0.0"/>
      <stop offset="0.4980392156862745" stop-color="#ffffff" stop-opacity="0.5019608"/>
      <stop offset="1.0" stop-color="#ffffff" stop-opacity="0.0"/>
    </linearGradient>
    <linearGradient gradientTransform="matrix(0.0238, 0.1809, 0.0044, -6.0E-4, 73.5, 79.4)" gradientUnits="userSpaceOnUse" id="gradient9" spreadMethod="pad" x1="-819.2" x2="819.2">
      <stop offset="0.0" stop-color="#ffffff" stop-opacity="0.0"/>
      <stop offset="0.4980392156862745" stop-color="#ffffff" stop-opacity="0.5019608"/>
      <stop offset="1.0" stop-color="#ffffff" stop-opacity="0.0"/>
    </linearGradient>
  </defs>
</svg>
