<?xml version="1.0" encoding="UTF-8" standalone="no"?>
<svg xmlns:ffdec="https://www.free-decompiler.com/flash" xmlns:xlink="http://www.w3.org/1999/xlink" ffdec:objectType="shape" height="372.15px" width="235.15px" xmlns="http://www.w3.org/2000/svg">
  <g transform="matrix(1.0, 0.0, 0.0, 1.0, 128.2, 222.2)">
    <path d="M-13.95 -110.3 L-31.45 -136.1 -27.9 -138.6 -13.95 -110.3 M-74.9 -55.9 L-69.6 -68.65 -54.75 -3.15 -77.7 -49.3 -74.9 -55.9" fill="#cb0ccb" fill-rule="evenodd" stroke="none"/>
    <path d="M13.95 -29.7 Q14.65 -29.35 15.45 -28.95 21.15 -26.3 28.5 -24.15 L33.15 -22.85 38.7 -21.6 Q61.9 -16.75 97.85 -16.0 L106.45 -1.05 Q27.65 13.65 24.65 26.65 13.5 -8.0 0.4 -40.4 4.85 -34.3 13.95 -29.7 M-19.5 -85.75 L-8.85 -70.6 -0.9 -68.0 7.95 -50.55 11.4 -43.5 8.2 -40.45 0.7 -54.55 -5.55 -54.5 Q-12.3 -70.4 -19.5 -85.75 M-112.05 -204.15 Q-92.3 -202.85 -68.85 -174.85 L-76.45 -161.3 -112.05 -204.15" fill="#500650" fill-rule="evenodd" stroke="none"/>
    <path d="M-33.8 -139.5 L-40.0 -126.5 -41.95 -133.25 -33.8 -139.5 M-78.7 -61.7 L-69.65 -68.7 -69.6 -68.65 -74.9 -55.9 -78.7 -61.7" fill="#3f083f" fill-rule="evenodd" stroke="none"/>
    <path d="M-88.9 -40.65 L-78.7 -61.7 -74.9 -55.9 -77.7 -49.3 -88.9 -40.65" fill="#bb09bb" fill-rule="evenodd" stroke="none"/>
    <path d="M-19.15 -33.35 L-19.15 -20.65 Q-32.7 -37.55 -47.65 -57.7 -63.9 -79.5 -77.65 -104.05 -59.5 -79.05 -56.1 -85.6 -40.15 -68.8 -19.15 -33.35" fill="#f010f0" fill-rule="evenodd" stroke="none"/>
    <path d="M11.95 -33.4 L13.95 -29.7 Q4.85 -34.3 0.4 -40.4 L-5.55 -54.5 0.7 -54.55 8.2 -40.45 11.95 -33.4 M-19.15 -20.65 L-19.15 -33.35 Q-9.2 -16.5 1.9 4.5 -8.2 -7.0 -19.15 -20.65" fill="#999999" fill-rule="evenodd" stroke="none"/>
    <path d="M24.85 -60.75 L27.7 -55.65 Q28.15 -40.55 15.45 -28.95 14.65 -29.35 13.95 -29.7 L11.95 -33.4 Q25.35 -45.2 24.85 -60.75 M1.8 31.55 Q1.95 51.2 -14.7 67.1 L-17.65 60.65 Q-1.3 44.85 -1.4 25.3 L1.8 31.55" fill="#e212e2" fill-rule="evenodd" stroke="none"/>
    <path d="M1.9 4.5 Q10.1 13.95 17.7 22.0 L15.25 30.25 Q8.75 18.2 2.65 33.2 L1.8 31.55 -1.4 25.3 -6.75 14.75 -19.1 -8.5 -19.15 -20.65 Q-8.2 -7.0 1.9 4.5 M-6.05 86.75 Q-6.25 85.75 -6.6 84.7 11.55 72.45 9.75 49.65 16.05 70.9 -6.05 86.75" fill="#666666" fill-rule="evenodd" stroke="none"/>
    <path d="M33.4 -42.1 L35.45 -35.75 35.45 -35.7 Q35.6 -28.95 33.15 -22.85 L28.5 -24.15 Q33.65 -32.4 33.4 -42.1 M-78.3 3.85 L-78.45 3.65 -78.5 3.5 Q-78.65 2.85 -78.0 1.9 -77.4 0.85 -76.3 0.05 -75.25 -0.8 -74.35 -0.95 -73.5 -1.1 -73.3 -0.5 -73.15 0.1 -73.8 1.1 L-75.55 2.95 Q-76.6 3.75 -77.45 3.95 L-78.3 3.85 M-84.3 -27.7 L-84.4 -27.9 Q-84.6 -28.55 -83.95 -29.55 L-83.9 -29.6 -82.15 -31.55 Q-81.05 -32.4 -80.15 -32.5 L-79.75 -32.6 -79.65 -32.55 -79.45 -32.5 -79.05 -32.05 Q-78.9 -31.45 -79.6 -30.35 -80.3 -29.35 -81.35 -28.5 -82.45 -27.65 -83.35 -27.45 -84.05 -27.35 -84.3 -27.7" fill="#000000" fill-rule="evenodd" stroke="none"/>
    <path d="M-8.4 80.85 Q7.95 67.1 9.05 48.2 L9.75 49.65 Q11.55 72.45 -6.6 84.7 L-8.4 80.85" fill="#101010" fill-rule="evenodd" stroke="none"/>
    <path d="M-83.95 -29.55 L-88.9 -40.65 -77.7 -49.3 -54.75 -3.15 -53.6 1.95 Q-64.3 -17.5 -71.4 -26.0 -76.25 -31.75 -79.45 -32.5 L-79.65 -32.55 -79.75 -32.6 -80.15 -32.5 Q-81.05 -32.4 -82.15 -31.55 L-83.9 -29.6 -83.95 -29.55" fill="#4f084f" fill-rule="evenodd" stroke="none"/>
    <path d="M27.7 -55.65 L24.85 -60.75 20.6 -67.25 Q14.0 -76.4 5.35 -83.35 -1.15 -86.7 -0.2 -79.45 1.9 -63.1 7.95 -50.55 L-0.9 -68.0 -8.85 -70.6 -19.5 -85.75 Q-29.3 -106.65 -40.0 -126.45 L-40.0 -126.5 -33.8 -139.5 -31.45 -136.1 -13.95 -110.3 6.5 -94.4 27.65 -98.3 38.9 -70.2 35.45 -35.75 33.4 -42.1 Q30.9 -49.3 27.7 -55.65" fill="url(#gradient0)" fill-rule="evenodd" stroke="none"/>
    <path d="M24.85 -60.75 Q25.35 -45.2 11.95 -33.4 L8.2 -40.45 11.4 -43.5 Q21.05 -53.7 20.6 -67.25 L24.85 -60.75" fill="url(#gradient1)" fill-rule="evenodd" stroke="none"/>
    <path d="M7.95 -50.55 Q1.9 -63.1 -0.2 -79.45 -1.15 -86.7 5.35 -83.35 14.0 -76.4 20.6 -67.25 21.05 -53.7 11.4 -43.5 L7.95 -50.55" fill="url(#gradient2)" fill-rule="evenodd" stroke="none"/>
    <path d="M38.7 -21.6 L33.15 -22.85 Q35.6 -28.95 35.45 -35.7 37.35 -29.0 38.7 -21.6" fill="url(#gradient3)" fill-rule="evenodd" stroke="none"/>
    <path d="M15.45 -28.95 Q28.15 -40.55 27.7 -55.65 30.9 -49.3 33.4 -42.1 33.65 -32.4 28.5 -24.15 21.15 -26.3 15.45 -28.95" fill="url(#gradient4)" fill-rule="evenodd" stroke="none"/>
    <path d="M-40.0 -126.45 Q-29.3 -106.65 -19.5 -85.75 -12.3 -70.4 -5.55 -54.5 L0.4 -40.4 Q13.5 -8.0 24.65 26.65 L25.8 30.35 17.7 22.0 Q10.1 13.95 1.9 4.5 -9.2 -16.5 -19.15 -33.35 -40.15 -68.8 -56.1 -85.6 -59.5 -79.05 -77.65 -104.05 -92.35 -130.35 -104.2 -159.8 -109.75 -173.45 -114.6 -187.75 L-115.65 -190.75 Q-117.85 -198.8 -116.55 -202.0 -115.85 -203.75 -114.05 -204.1 L-112.85 -204.2 -112.05 -204.15 -76.45 -161.3 -68.85 -174.85 -64.55 -169.45 Q-66.15 -169.3 -67.75 -168.45 -72.7 -165.25 -70.1 -160.65 -61.9 -140.25 -51.4 -125.95 -44.15 -116.05 -35.8 -109.05 -37.9 -118.5 -40.0 -126.45" fill="url(#gradient5)" fill-rule="evenodd" stroke="none"/>
    <path d="M2.65 33.2 L9.05 46.0 9.05 48.2 Q7.95 67.1 -8.4 80.85 L-14.7 67.1 Q1.95 51.2 1.8 31.55 L2.65 33.2" fill="url(#gradient6)" fill-rule="evenodd" stroke="none"/>
    <path d="M9.75 49.65 Q16.1 53.55 16.45 68.7 16.75 83.85 6.55 92.65 -3.7 101.4 -7.05 95.3 L-7.25 94.9 Q-4.85 91.95 -6.05 86.75 16.05 70.9 9.75 49.65" fill="url(#gradient7)" fill-rule="evenodd" stroke="none"/>
    <path d="M-116.55 -202.0 L-126.1 -219.4 Q-125.5 -222.7 -123.65 -221.3 L-114.05 -204.1 Q-115.85 -203.75 -116.55 -202.0" fill="url(#gradient8)" fill-rule="evenodd" stroke="none"/>
    <path d="M-104.2 -159.8 L-114.8 -173.3 -113.35 -176.9 -127.5 -198.15 Q-128.45 -203.0 -125.1 -202.1 L-114.6 -187.75 Q-109.75 -173.45 -104.2 -159.8" fill="url(#gradient9)" fill-rule="evenodd" stroke="none"/>
    <path d="M-40.0 -126.5 L-40.0 -126.45 Q-37.9 -118.5 -35.8 -109.05 -44.15 -116.05 -51.4 -125.95 -61.9 -140.25 -70.1 -160.65 -72.7 -165.25 -67.75 -168.45 -66.15 -169.3 -64.55 -169.45 -52.85 -170.5 -41.95 -133.25 L-40.0 -126.5" fill="url(#gradient10)" fill-rule="evenodd" stroke="none"/>
    <path d="M-79.65 -15.15 Q-83.4 -22.5 -84.3 -27.7 -84.05 -27.35 -83.35 -27.45 -82.45 -27.65 -81.35 -28.5 -80.3 -29.35 -79.6 -30.35 -78.9 -31.45 -79.05 -32.05 L-79.45 -32.5 Q-76.25 -31.75 -71.4 -26.0 -76.8 -22.7 -79.65 -15.15" fill="url(#gradient11)" fill-rule="evenodd" stroke="none"/>
    <path d="M-14.7 67.1 L-8.4 80.85 -6.6 84.7 Q-6.25 85.75 -6.05 86.75 -4.85 91.95 -7.25 94.9 L-7.05 95.3 -1.85 105.4 Q-9.1 126.3 -18.75 143.95 -24.15 153.9 -29.85 145.8 L-39.3 132.3 Q-44.55 124.75 -44.45 113.4 L-43.7 55.4 -43.55 46.2 -47.15 30.35 -50.35 16.2 -53.6 1.95 -54.75 -3.15 -69.6 -68.65 -69.65 -68.7 -77.65 -104.05 Q-63.9 -79.5 -47.65 -57.7 -32.7 -37.55 -19.15 -20.65 L-19.1 -8.5 -6.75 14.75 Q-15.15 0.15 -24.05 -5.4 -33.0 -11.0 -32.0 9.6 -31.0 30.15 -18.95 51.05 L-21.05 53.35 -17.65 60.65 -14.7 67.1" fill="url(#gradient12)" fill-rule="evenodd" stroke="none"/>
    <path d="M-53.85 22.25 Q-72.25 -0.6 -79.65 -15.15 -76.8 -22.7 -71.4 -26.0 -64.3 -17.5 -53.6 1.95 L-50.35 16.2 Q-52.95 18.5 -53.85 22.25" fill="url(#gradient13)" fill-rule="evenodd" stroke="none"/>
    <path d="M-6.75 14.75 L-1.4 25.3 Q-1.3 44.85 -17.65 60.65 L-21.05 53.35 -18.95 51.05 Q-4.05 33.05 -6.75 14.75" fill="url(#gradient14)" fill-rule="evenodd" stroke="none"/>
    <path d="M-47.15 30.35 L-53.85 22.25 Q-52.95 18.5 -50.35 16.2 L-47.15 30.35" fill="url(#gradient15)" fill-rule="evenodd" stroke="none"/>
    <path d="M-43.7 55.4 L-78.3 3.85 -77.45 3.95 Q-76.6 3.75 -75.55 2.95 L-73.8 1.1 Q-73.15 0.1 -73.3 -0.5 L-43.55 46.2 -43.7 55.4" fill="url(#gradient16)" fill-rule="evenodd" stroke="none"/>
    <path d="M-18.95 51.05 Q-31.0 30.15 -32.0 9.6 -33.0 -11.0 -24.05 -5.4 -15.15 0.15 -6.75 14.75 -4.05 33.05 -18.95 51.05" fill="url(#gradient17)" fill-rule="evenodd" stroke="none"/>
    <path d="M27.7 -55.65 L24.85 -60.75 Q25.35 -45.2 11.95 -33.4 L13.95 -29.7 Q14.65 -29.35 15.45 -28.95 28.15 -40.55 27.7 -55.65 30.9 -49.3 33.4 -42.1 L35.45 -35.75 38.9 -70.2 27.65 -98.3 6.5 -94.4 -13.95 -110.3 -31.45 -136.1 -33.8 -139.5 -40.0 -126.5 -40.0 -126.45 Q-29.3 -106.65 -19.5 -85.75 L-8.85 -70.6 -0.9 -68.0 7.95 -50.55 Q1.9 -63.1 -0.2 -79.45 -1.15 -86.7 5.35 -83.35 14.0 -76.4 20.6 -67.25 L24.85 -60.75 M35.45 -35.7 L35.45 -35.75 M13.95 -29.7 Q4.85 -34.3 0.4 -40.4 13.5 -8.0 24.65 26.65 27.65 13.65 106.45 -1.05 L97.85 -16.0 Q61.9 -16.75 38.7 -21.6 L33.15 -22.85 28.5 -24.15 Q21.15 -26.3 15.45 -28.95 M11.95 -33.4 L8.2 -40.45 0.7 -54.55 -5.55 -54.5 0.4 -40.4 M8.2 -40.45 L11.4 -43.5 7.95 -50.55 M33.4 -42.1 Q33.65 -32.4 28.5 -24.15 M33.15 -22.85 Q35.6 -28.95 35.45 -35.7 37.35 -29.0 38.7 -21.6 M11.4 -43.5 Q21.05 -53.7 20.6 -67.25 M1.9 4.5 Q10.1 13.95 17.7 22.0 L25.8 30.35 24.65 26.65 M9.05 48.2 L9.05 46.0 2.65 33.2 1.8 31.55 Q1.95 51.2 -14.7 67.1 L-8.4 80.85 Q7.95 67.1 9.05 48.2 L9.75 49.65 Q16.1 53.55 16.45 68.7 16.75 83.85 6.55 92.65 -3.7 101.4 -7.05 95.3 L-1.85 105.4 Q-9.1 126.3 -18.75 143.95 -24.15 153.9 -29.85 145.8 L-39.3 132.3 Q-44.55 124.75 -44.45 113.4 L-43.7 55.4 -78.3 3.85 -78.45 3.65 -78.5 3.5 Q-78.65 2.85 -78.0 1.9 -77.4 0.85 -76.3 0.05 -75.25 -0.8 -74.35 -0.95 -73.5 -1.1 -73.3 -0.5 L-43.55 46.2 -47.15 30.35 -53.85 22.25 Q-72.25 -0.6 -79.65 -15.15 -83.4 -22.5 -84.3 -27.7 L-84.4 -27.9 Q-84.6 -28.55 -83.95 -29.55 L-88.9 -40.65 -78.7 -61.7 -69.65 -68.7 -77.65 -104.05 Q-92.35 -130.35 -104.2 -159.8 L-114.8 -173.3 -113.35 -176.9 -127.5 -198.15 Q-128.45 -203.0 -125.1 -202.1 L-114.6 -187.75 -115.65 -190.75 Q-117.85 -198.8 -116.55 -202.0 L-126.1 -219.4 Q-125.5 -222.7 -123.65 -221.3 L-114.05 -204.1 -112.85 -204.2 -112.05 -204.15 Q-92.3 -202.85 -68.85 -174.85 L-64.55 -169.45 Q-52.85 -170.5 -41.95 -133.25 L-33.8 -139.5 M17.7 22.0 L15.25 30.25 Q8.75 18.2 2.65 33.2 M-114.05 -204.1 Q-115.85 -203.75 -116.55 -202.0 M-64.55 -169.45 Q-66.15 -169.3 -67.75 -168.45 -72.7 -165.25 -70.1 -160.65 -61.9 -140.25 -51.4 -125.95 -44.15 -116.05 -35.8 -109.05 -37.9 -118.5 -40.0 -126.45 M-112.05 -204.15 L-76.45 -161.3 -68.85 -174.85 M-13.95 -110.3 L-27.9 -138.6 -31.45 -136.1 M-40.0 -126.5 L-41.95 -133.25 M-114.6 -187.75 Q-109.75 -173.45 -104.2 -159.8 M-84.3 -27.7 Q-84.05 -27.35 -83.35 -27.45 -82.45 -27.65 -81.35 -28.5 -80.3 -29.35 -79.6 -30.35 -78.9 -31.45 -79.05 -32.05 L-79.45 -32.5 -79.65 -32.55 -79.75 -32.6 -80.15 -32.5 Q-81.05 -32.4 -82.15 -31.55 L-83.9 -29.6 -83.95 -29.55 M-19.5 -85.75 Q-12.3 -70.4 -5.55 -54.5 M-74.9 -55.9 L-78.7 -61.7 M-69.6 -68.65 L-74.9 -55.9 -77.7 -49.3 -54.75 -3.15 -69.6 -68.65 -69.65 -68.7 M-79.45 -32.5 Q-76.25 -31.75 -71.4 -26.0 -64.3 -17.5 -53.6 1.95 L-54.75 -3.15 M-71.4 -26.0 Q-76.8 -22.7 -79.65 -15.15 M-19.15 -20.65 L-19.1 -8.5 -6.75 14.75 -1.4 25.3 1.8 31.55 M-19.15 -33.35 L-19.15 -20.65 Q-8.2 -7.0 1.9 4.5 -9.2 -16.5 -19.15 -33.35 -40.15 -68.8 -56.1 -85.6 -59.5 -79.05 -77.65 -104.05 -63.9 -79.5 -47.65 -57.7 -32.7 -37.55 -19.15 -20.65 M-77.7 -49.3 L-88.9 -40.65 M-53.85 22.25 Q-52.95 18.5 -50.35 16.2 L-53.6 1.95 M-78.3 3.85 L-77.45 3.95 Q-76.6 3.75 -75.55 2.95 L-73.8 1.1 Q-73.15 0.1 -73.3 -0.5 M-47.15 30.35 L-50.35 16.2 M-6.6 84.7 L-8.4 80.85 M-17.65 60.65 L-21.05 53.35 -18.95 51.05 Q-31.0 30.15 -32.0 9.6 -33.0 -11.0 -24.05 -5.4 -15.15 0.15 -6.75 14.75 -4.05 33.05 -18.95 51.05 M-17.65 60.65 L-14.7 67.1 M-6.6 84.7 Q-6.25 85.75 -6.05 86.75 16.05 70.9 9.75 49.65 11.55 72.45 -6.6 84.7 M-6.05 86.75 Q-4.85 91.95 -7.25 94.9 L-7.05 95.3 M-1.4 25.3 Q-1.3 44.85 -17.65 60.65 M-43.55 46.2 L-43.7 55.4" fill="none" stroke="#000000" stroke-linecap="round" stroke-linejoin="round" stroke-width="1.0"/>
  </g>
  <defs>
    <linearGradient gradientTransform="matrix(0.0512, 0.0469, 0.0146, -0.0268, 1.65, -89.2)" gradientUnits="userSpaceOnUse" id="gradient0" spreadMethod="pad" x1="-819.2" x2="819.2">
      <stop offset="0.050980392156862744" stop-color="#000000"/>
      <stop offset="0.4" stop-color="#700370"/>
      <stop offset="0.6941176470588235" stop-color="#cb10cb"/>
      <stop offset="0.9490196078431372" stop-color="#fd6cfd"/>
    </linearGradient>
    <linearGradient gradientTransform="matrix(0.0084, -0.0102, -0.005, -0.0089, 19.35, -53.55)" gradientUnits="userSpaceOnUse" id="gradient1" spreadMethod="pad" x1="-819.2" x2="819.2">
      <stop offset="0.0" stop-color="#000000"/>
      <stop offset="0.38823529411764707" stop-color="#ab9986"/>
      <stop offset="0.6666666666666666" stop-color="#ab9986"/>
      <stop offset="1.0" stop-color="#000000"/>
    </linearGradient>
    <radialGradient cx="0" cy="0" gradientTransform="matrix(-0.0124, -0.0482, -0.0382, 0.0294, 0.45, -82.4)" gradientUnits="userSpaceOnUse" id="gradient2" r="819.2" spreadMethod="pad">
      <stop offset="0.06274509803921569" stop-color="#fd6cfd"/>
      <stop offset="0.4823529411764706" stop-color="#cb10cb"/>
      <stop offset="0.9137254901960784" stop-color="#700370"/>
    </radialGradient>
    <linearGradient gradientTransform="matrix(-0.0034, 0.0041, 0.0036, 0.0066, 35.65, -27.0)" gradientUnits="userSpaceOnUse" id="gradient3" spreadMethod="pad" x1="-819.2" x2="819.2">
      <stop offset="0.0" stop-color="#000000"/>
      <stop offset="0.38823529411764707" stop-color="#ab9986"/>
      <stop offset="0.6666666666666666" stop-color="#ab9986"/>
      <stop offset="1.0" stop-color="#000000"/>
    </linearGradient>
    <linearGradient gradientTransform="matrix(0.0088, -0.0107, -0.0066, -0.0118, 27.55, -39.3)" gradientUnits="userSpaceOnUse" id="gradient4" spreadMethod="pad" x1="-819.2" x2="819.2">
      <stop offset="0.0" stop-color="#000000"/>
      <stop offset="0.38823529411764707" stop-color="#ab9986"/>
      <stop offset="0.6666666666666666" stop-color="#ab9986"/>
      <stop offset="1.0" stop-color="#000000"/>
    </linearGradient>
    <linearGradient gradientTransform="matrix(0.0182, -0.0221, -0.0826, -0.1472, -43.6, -88.15)" gradientUnits="userSpaceOnUse" id="gradient5" spreadMethod="pad" x1="-819.2" x2="819.2">
      <stop offset="0.050980392156862744" stop-color="#000000"/>
      <stop offset="0.4" stop-color="#700370"/>
      <stop offset="0.7294117647058823" stop-color="#cb10cb"/>
      <stop offset="1.0" stop-color="#fd6cfd"/>
    </linearGradient>
    <linearGradient gradientTransform="matrix(0.0114, -0.0139, -0.0078, -0.014, -0.4, 53.35)" gradientUnits="userSpaceOnUse" id="gradient6" spreadMethod="pad" x1="-819.2" x2="819.2">
      <stop offset="0.0" stop-color="#000000"/>
      <stop offset="0.38823529411764707" stop-color="#ab9986"/>
      <stop offset="0.6666666666666666" stop-color="#ab9986"/>
      <stop offset="1.0" stop-color="#000000"/>
    </linearGradient>
    <linearGradient gradientTransform="matrix(0.0121, -0.0146, -0.0081, -0.0145, 8.6, 71.05)" gradientUnits="userSpaceOnUse" id="gradient7" spreadMethod="pad" x1="-819.2" x2="819.2">
      <stop offset="0.0" stop-color="#000000"/>
      <stop offset="0.38823529411764707" stop-color="#ab9986"/>
      <stop offset="0.6666666666666666" stop-color="#ab9986"/>
      <stop offset="1.0" stop-color="#000000"/>
    </linearGradient>
    <linearGradient gradientTransform="matrix(0.0014, -0.0016, -0.0061, -0.0108, -120.1, -211.75)" gradientUnits="userSpaceOnUse" id="gradient8" spreadMethod="pad" x1="-819.2" x2="819.2">
      <stop offset="0.0" stop-color="#131330"/>
      <stop offset="0.4549019607843137" stop-color="#ffffff"/>
      <stop offset="0.7294117647058823" stop-color="#883924"/>
      <stop offset="0.9372549019607843" stop-color="#c27873"/>
    </linearGradient>
    <linearGradient gradientTransform="matrix(0.0031, -0.0042, -0.0149, -0.0229, -114.95, -180.7)" gradientUnits="userSpaceOnUse" id="gradient9" spreadMethod="pad" x1="-819.2" x2="819.2">
      <stop offset="0.0" stop-color="#a83835"/>
      <stop offset="0.1450980392156863" stop-color="#19110c"/>
      <stop offset="0.30196078431372547" stop-color="#412e68"/>
      <stop offset="0.611764705882353" stop-color="#f9f7ec"/>
      <stop offset="0.8117647058823529" stop-color="#90904c"/>
      <stop offset="0.8823529411764706" stop-color="#423624"/>
    </linearGradient>
    <radialGradient cx="0" cy="0" gradientTransform="matrix(-0.0144, 0.0174, 0.0343, 0.0616, -60.9, -164.15)" gradientUnits="userSpaceOnUse" id="gradient10" r="819.2" spreadMethod="pad">
      <stop offset="0.0" stop-color="#ffd700"/>
      <stop offset="0.3215686274509804" stop-color="#804000"/>
      <stop offset="0.5333333333333333" stop-color="#000000"/>
      <stop offset="0.7333333333333333" stop-color="#391d00"/>
      <stop offset="0.9372549019607843" stop-color="#000000"/>
    </radialGradient>
    <linearGradient gradientTransform="matrix(-0.0049, 0.0069, 0.0043, 0.0061, -79.0, -25.35)" gradientUnits="userSpaceOnUse" id="gradient11" spreadMethod="pad" x1="-819.2" x2="819.2">
      <stop offset="0.0" stop-color="#a83835"/>
      <stop offset="0.1450980392156863" stop-color="#19110c"/>
      <stop offset="0.30196078431372547" stop-color="#412e68"/>
      <stop offset="0.611764705882353" stop-color="#f9f7ec"/>
      <stop offset="0.8117647058823529" stop-color="#90904c"/>
      <stop offset="0.8823529411764706" stop-color="#423624"/>
    </linearGradient>
    <linearGradient gradientTransform="matrix(0.0653, -0.0026, 0.0229, -0.1569, -42.9, 22.35)" gradientUnits="userSpaceOnUse" id="gradient12" spreadMethod="pad" x1="-819.2" x2="819.2">
      <stop offset="0.050980392156862744" stop-color="#000000"/>
      <stop offset="0.4" stop-color="#700370"/>
      <stop offset="0.6941176470588235" stop-color="#cb10cb"/>
      <stop offset="0.9490196078431372" stop-color="#fd6cfd"/>
    </linearGradient>
    <linearGradient gradientTransform="matrix(0.0055, -0.0073, -0.0157, -0.024, -63.4, -1.9)" gradientUnits="userSpaceOnUse" id="gradient13" spreadMethod="pad" x1="-819.2" x2="819.2">
      <stop offset="0.0" stop-color="#131330"/>
      <stop offset="0.4549019607843137" stop-color="#ffffff"/>
      <stop offset="0.7294117647058823" stop-color="#883924"/>
      <stop offset="0.9372549019607843" stop-color="#c27873"/>
    </linearGradient>
    <linearGradient gradientTransform="matrix(0.0117, -0.0141, -0.0068, -0.0122, -9.4, 34.55)" gradientUnits="userSpaceOnUse" id="gradient14" spreadMethod="pad" x1="-819.2" x2="819.2">
      <stop offset="0.0" stop-color="#000000"/>
      <stop offset="0.38823529411764707" stop-color="#ab9986"/>
      <stop offset="0.6666666666666666" stop-color="#ab9986"/>
      <stop offset="1.0" stop-color="#000000"/>
    </linearGradient>
    <linearGradient gradientTransform="matrix(0.0024, -0.0032, -0.004, -0.0061, -49.15, 23.75)" gradientUnits="userSpaceOnUse" id="gradient15" spreadMethod="pad" x1="-819.2" x2="819.2">
      <stop offset="0.0" stop-color="#a83835"/>
      <stop offset="0.1450980392156863" stop-color="#19110c"/>
      <stop offset="0.30196078431372547" stop-color="#412e68"/>
      <stop offset="0.611764705882353" stop-color="#f9f7ec"/>
      <stop offset="0.8117647058823529" stop-color="#90904c"/>
      <stop offset="0.8823529411764706" stop-color="#423624"/>
    </linearGradient>
    <linearGradient gradientTransform="matrix(0.0025, -0.0034, -0.0208, -0.032, -59.15, 27.15)" gradientUnits="userSpaceOnUse" id="gradient16" spreadMethod="pad" x1="-819.2" x2="819.2">
      <stop offset="0.0" stop-color="#131330"/>
      <stop offset="0.4549019607843137" stop-color="#ffffff"/>
      <stop offset="0.7294117647058823" stop-color="#883924"/>
      <stop offset="0.9372549019607843" stop-color="#c27873"/>
    </linearGradient>
    <radialGradient cx="0" cy="0" gradientTransform="matrix(-0.0164, -0.0637, -0.0505, 0.0389, -30.35, -2.6)" gradientUnits="userSpaceOnUse" id="gradient17" r="819.2" spreadMethod="pad">
      <stop offset="0.06274509803921569" stop-color="#fd6cfd"/>
      <stop offset="0.4823529411764706" stop-color="#cb10cb"/>
      <stop offset="0.9137254901960784" stop-color="#700370"/>
    </radialGradient>
  </defs>
</svg>
