<?xml version="1.0" encoding="UTF-8" standalone="no"?>
<svg xmlns:ffdec="https://www.free-decompiler.com/flash" xmlns:xlink="http://www.w3.org/1999/xlink" ffdec:objectType="shape" height="100.15px" width="323.45px" xmlns="http://www.w3.org/2000/svg">
  <g transform="matrix(1.0, 0.0, 0.0, 1.0, 161.7, 90.7)">
    <path d="M51.95 -78.35 L43.25 -80.3 41.85 -80.9 46.2 -82.45 51.95 -78.35 M20.7 -43.5 L27.15 -39.45 27.15 -39.35 2.1 -36.75 -7.9 -35.7 -18.95 -39.05 5.2 -41.65 20.7 -43.5 M32.3 -24.4 L32.3 -20.2 15.7 -18.35 14.8 -23.05 32.3 -24.4" fill="#dcc6b7" fill-rule="evenodd" stroke="none"/>
    <path d="M43.25 -80.3 L51.95 -78.35 53.1 -74.55 16.35 -72.35 -6.85 -69.5 -5.85 -73.95 -5.0 -77.6 15.25 -80.2 43.25 -80.3 Q24.75 -77.15 15.8 -76.45 L-5.85 -73.95 Q3.75 -73.95 10.35 -74.1 L16.1 -74.25 43.25 -80.3" fill="#755b46" fill-rule="evenodd" stroke="none"/>
    <path d="M41.85 -80.9 L43.25 -80.3 15.25 -80.2 11.7 -82.45 15.35 -83.0 33.0 -84.45 33.1 -84.45 41.85 -80.9 M-96.9 -68.0 L-96.75 -70.0 -95.55 -70.7 Q-87.1 -75.45 -78.9 -70.95 L-78.5 -68.95 -79.25 -65.25 -97.0 -65.95 -96.9 -68.0" fill="#4e371d" fill-rule="evenodd" stroke="none"/>
    <path d="M54.5 -65.1 L92.1 -56.15 86.1 -54.45 83.3 -53.55 99.25 -48.15 103.7 -45.55 33.8 -42.25 Q34.65 -34.95 39.95 -29.8 L41.45 -28.45 32.1 -4.35 33.55 -2.35 30.4 -1.05 26.35 -0.65 18.75 0.05 2.3 1.6 -14.95 -10.85 -15.85 -20.2 -15.85 -20.25 -21.9 -20.85 -23.2 -16.45 -24.15 -12.7 -24.45 -11.65 Q-25.25 -9.6 -27.2 -8.45 L-28.0 -15.85 -26.9 -21.2 -33.95 -21.2 -35.8 -15.85 -38.15 -8.95 -38.2 -8.9 -38.35 -8.75 Q-39.7 -7.55 -40.7 -7.15 -42.2 -6.5 -43.0 -7.65 L-43.05 -7.7 -43.1 -8.05 Q-45.15 -10.5 -48.35 -10.45 -65.15 -11.6 -78.95 -16.15 L-102.2 -23.7 -85.6 -19.95 -87.7 -45.55 -101.95 -48.95 -102.25 -48.15 -102.35 -47.7 Q-103.25 -41.6 -103.15 -35.35 L-118.8 -38.05 -119.4 -42.65 -122.15 -57.75 -82.75 -49.95 -82.55 -49.9 Q-66.55 -47.95 -51.6 -41.9 L-46.45 -39.65 Q-43.35 -38.3 -39.9 -37.9 L-33.25 -37.6 -18.95 -39.05 -7.9 -35.7 -9.6 -10.2 -6.25 -10.4 Q-1.9 -4.9 3.35 -4.6 7.95 -4.45 12.55 -4.7 L16.1 -4.9 20.6 -8.4 21.0 -13.95 Q25.9 -14.0 29.4 -16.0 32.9 -18.0 32.3 -20.2 L32.3 -24.4 30.05 -28.9 Q29.0 -30.85 27.5 -30.85 L27.15 -39.35 27.2 -39.4 27.15 -39.45 20.7 -43.5 26.65 -43.95 24.75 -44.75 -14.4 -51.9 -14.55 -51.85 Q-24.35 -49.6 -33.7 -53.4 L-35.95 -54.45 -41.0 -57.15 -40.65 -58.45 -23.95 -58.35 -21.6 -71.2 Q-15.15 -70.05 -11.65 -69.95 L-6.85 -69.45 -10.65 -55.55 Q9.1 -54.2 28.15 -60.2 L31.5 -61.2 38.5 -62.85 54.5 -65.1 M-68.8 -39.95 L-83.65 -42.7 -83.25 -40.4 -83.0 -20.1 -69.25 -15.95 Q-67.5 -18.75 -66.9 -23.65 -66.0 -31.6 -67.3 -39.35 -67.5 -40.5 -68.8 -39.95" fill="#1b0f07" fill-rule="evenodd" stroke="none"/>
    <path d="M-6.85 -69.5 L16.35 -72.35 53.1 -74.55 54.5 -65.1 38.5 -62.85 31.5 -61.2 28.15 -60.2 Q9.1 -54.2 -10.65 -55.55 L-6.85 -69.45 -6.85 -69.5 M43.05 -65.15 L43.2 -68.95 29.2 -68.95 29.2 -64.7 43.05 -65.15 M22.3 -62.4 L21.95 -66.8 -0.1 -66.1 -1.15 -62.9 22.3 -62.4" fill="#382112" fill-rule="evenodd" stroke="none"/>
    <path d="M43.05 -65.15 L29.2 -64.7 29.2 -68.95 43.2 -68.95 43.05 -65.15 M-41.0 -57.15 L-35.95 -54.45 -38.55 -53.4 Q-52.95 -58.65 -68.35 -58.45 -72.25 -58.4 -75.75 -60.2 L-68.35 -63.3 -42.0 -57.7 -41.75 -57.3 -41.0 -57.15 M-82.55 -49.9 L-82.75 -49.95 -94.9 -57.1 -80.9 -59.5 -69.6 -54.9 -82.55 -49.9 M-103.15 -35.35 Q-103.25 -41.6 -102.35 -47.7 L-89.8 -43.2 -88.4 -21.35 -85.6 -19.95 -102.2 -23.7 -78.95 -16.15 Q-65.15 -11.6 -48.35 -10.45 -45.15 -10.5 -43.1 -8.05 L-43.05 -7.7 -43.0 -7.65 Q-42.2 -6.5 -40.7 -7.15 -39.7 -7.55 -38.35 -8.75 L-38.2 -8.9 -38.15 -8.95 -38.35 -8.4 -40.0 -3.6 -40.2 -3.05 -49.3 1.2 -104.8 -20.2 -107.75 -30.25 -102.45 -25.9 Q-103.1 -30.7 -103.15 -35.35 M86.1 -54.45 L92.1 -56.15 92.95 -56.2 108.2 -51.7 101.6 -49.95 86.1 -54.45 M-30.5 -81.8 L-55.85 -83.35 -42.45 -85.35 -40.65 -87.75 -31.95 -87.95 -31.8 -87.95 -27.9 -87.4 -27.4 -87.25 -27.35 -87.25 -25.85 -86.6 -25.65 -86.5 Q-23.05 -85.1 -22.85 -82.7 L-30.5 -81.8 M22.3 -62.4 L-1.15 -62.9 -0.1 -66.1 21.95 -66.8 22.3 -62.4 M-147.8 -32.9 L-142.9 -31.7 -141.95 -23.95 -151.25 -25.55 -147.8 -32.9 M-131.8 -6.15 L-135.15 -6.7 -133.6 -13.35 -130.7 -10.2 -131.8 -6.15 M-83.25 -40.4 L-70.05 -37.55 -69.25 -15.95 -83.0 -20.1 -83.25 -40.4 M-72.7 -51.15 L-65.7 -52.0 -58.65 -52.45 Q-47.5 -53.15 -36.45 -49.6 -45.35 -46.7 -53.55 -46.65 -63.5 -47.45 -72.7 -51.15" fill="#000000" fill-rule="evenodd" stroke="none"/>
    <path d="M33.0 -84.45 L15.35 -83.0 11.7 -82.45 11.05 -82.35 6.45 -81.8 5.85 -81.75 3.55 -81.55 2.8 -81.45 2.6 -81.45 -1.8 -81.15 -2.15 -81.1 -2.55 -81.1 -3.25 -81.05 Q-16.55 -80.4 -29.9 -81.75 L-30.5 -81.8 -22.85 -82.7 -10.1 -84.25 -6.95 -81.7 18.15 -86.95 33.0 -84.45" fill="#75532d" fill-rule="evenodd" stroke="none"/>
    <path d="M15.25 -80.2 L-5.0 -77.6 -60.2 -80.85 -55.85 -83.35 -30.5 -81.8 -29.9 -81.75 Q-16.55 -80.4 -3.25 -81.05 L-2.55 -81.1 -2.15 -81.1 -1.8 -81.15 2.6 -81.45 2.8 -81.45 3.55 -81.55 5.85 -81.75 6.45 -81.8 11.05 -82.35 11.7 -82.45 15.25 -80.2" fill="#90675e" fill-rule="evenodd" stroke="none"/>
    <path d="M9.7 -89.3 Q15.15 -89.2 20.7 -88.05 L-10.1 -84.25 -10.45 -85.55 Q-10.5 -86.1 -10.2 -86.15 0.1 -89.5 9.7 -89.3" fill="#b2987f" fill-rule="evenodd" stroke="none"/>
    <path d="M-10.2 -86.15 Q-10.5 -86.1 -10.45 -85.55 L-10.1 -84.25 20.7 -88.05 18.15 -86.95 -6.95 -81.7 -10.1 -84.25 -22.85 -82.7 Q-23.05 -85.1 -25.65 -86.5 L-10.2 -86.15" fill="#4f302c" fill-rule="evenodd" stroke="none"/>
    <path d="M-5.85 -73.95 L15.8 -76.45 Q24.75 -77.15 43.25 -80.3 L16.1 -74.25 10.35 -74.1 Q3.75 -73.95 -5.85 -73.95" fill="#6e4637" fill-rule="evenodd" stroke="none"/>
    <path d="M27.15 -39.45 L27.2 -39.4 27.15 -39.35 27.15 -39.45 M-41.0 -57.15 L-41.75 -57.3 -42.0 -57.7 -41.0 -57.15" fill="url(#gradient0)" fill-rule="evenodd" stroke="none"/>
    <path d="M-35.95 -54.45 L-33.7 -53.4 Q-24.35 -49.6 -14.55 -51.85 L-14.4 -51.9 24.75 -44.75 26.65 -43.95 20.7 -43.5 5.2 -41.65 -20.45 -46.45 -51.6 -41.9 Q-66.55 -47.95 -82.55 -49.9 L-69.6 -54.9 -80.9 -59.5 -94.9 -57.1 -82.75 -49.95 -122.15 -57.75 -117.8 -65.4 -96.9 -68.0 -97.0 -65.95 -79.25 -65.25 -75.35 -65.45 -76.15 -63.55 -68.35 -63.3 -75.75 -60.2 Q-72.25 -58.4 -68.35 -58.45 -52.95 -58.65 -38.55 -53.4 L-35.95 -54.45 M-72.7 -51.15 Q-63.5 -47.45 -53.55 -46.65 -45.35 -46.7 -36.45 -49.6 -47.5 -53.15 -58.65 -52.45 L-65.7 -52.0 -72.7 -51.15" fill="#c09c8f" fill-rule="evenodd" stroke="none"/>
    <path d="M12.55 -4.7 Q7.95 -4.45 3.35 -4.6 -1.9 -4.9 -6.25 -10.4 L2.05 -10.8 2.15 -34.25 4.45 -34.85 Q13.1 -36.65 21.45 -34.05 L23.6 -30.25 8.85 -28.05 Q6.75 -21.5 8.55 -15.55 8.85 -14.65 9.8 -14.3 L14.75 -14.15 12.55 -4.7" fill="#4e2a20" fill-rule="evenodd" stroke="none"/>
    <path d="M27.15 -39.35 L27.5 -30.85 23.6 -30.25 21.45 -34.05 Q13.1 -36.65 4.45 -34.85 L2.15 -34.25 2.1 -36.75 27.15 -39.35" fill="#3f211d" fill-rule="evenodd" stroke="none"/>
    <path d="M27.5 -30.85 Q29.0 -30.85 30.05 -28.9 L32.3 -24.4 14.8 -23.05 8.85 -28.05 23.6 -30.25 27.5 -30.85" fill="#bfa299" fill-rule="evenodd" stroke="none"/>
    <path d="M41.45 -28.45 L39.95 -29.8 Q34.65 -34.95 33.8 -42.25 L103.7 -45.55 103.7 -32.55 86.8 -28.8 89.45 -34.6 41.45 -28.45" fill="#715640" fill-rule="evenodd" stroke="none"/>
    <path d="M-6.25 -10.4 L-9.6 -10.2 -7.9 -35.7 2.1 -36.75 2.15 -34.25 2.05 -10.8 -6.25 -10.4 M103.7 -45.55 L99.25 -48.15 115.8 -49.6 115.5 -41.0 115.1 -28.65 109.4 -27.45 103.7 -26.2 103.7 -32.55 103.7 -45.55" fill="#61351f" fill-rule="evenodd" stroke="none"/>
    <path d="M14.8 -23.05 L15.7 -18.35 9.8 -14.3 Q8.85 -14.65 8.55 -15.55 6.75 -21.5 8.85 -28.05 L14.8 -23.05" fill="#000004" fill-rule="evenodd" stroke="none"/>
    <path d="M32.3 -20.2 Q32.9 -18.0 29.4 -16.0 25.9 -14.0 21.0 -13.95 L14.75 -14.15 9.8 -14.3 15.7 -18.35 32.3 -20.2" fill="#4a2a11" fill-rule="evenodd" stroke="none"/>
    <path d="M21.0 -13.95 L20.6 -8.4 16.1 -4.9 12.55 -4.7 14.75 -14.15 21.0 -13.95" fill="#2e2918" fill-rule="evenodd" stroke="none"/>
    <path d="M79.15 -12.35 L79.1 -12.2 74.45 -12.45 72.45 -14.8 72.4 -14.85 71.35 -16.1 50.4 -11.75 46.3 -5.7 33.55 -2.35 35.55 -5.15 Q43.5 -6.4 48.85 -12.4 L49.3 -12.9 51.1 -14.95 72.7 -17.2 79.15 -12.35" fill="#967459" fill-rule="evenodd" stroke="none"/>
    <path d="M33.55 -2.35 L32.1 -4.35 41.45 -28.45 89.45 -34.6 86.8 -28.8 79.15 -12.35 72.7 -17.2 51.1 -14.95 49.3 -12.9 48.85 -12.4 Q43.5 -6.4 35.55 -5.15 L33.55 -2.35 M59.3 -26.25 L59.3 -22.8 67.1 -22.8 67.1 -26.25 59.3 -26.25 M70.75 -24.55 L79.25 -24.65 81.3 -28.65 71.25 -27.85 70.75 -24.55 M57.0 -24.6 L46.4 -24.7 45.2 -20.65 55.0 -20.7 56.65 -21.8 57.0 -24.6" fill="#3a271f" fill-rule="evenodd" stroke="none"/>
    <path d="M57.0 -24.6 L56.65 -21.8 55.0 -20.7 45.2 -20.65 46.4 -24.7 57.0 -24.6 M70.75 -24.55 L71.25 -27.85 81.3 -28.65 79.25 -24.65 70.75 -24.55 M59.3 -26.25 L67.1 -26.25 67.1 -22.8 59.3 -22.8 59.3 -26.25" fill="#5b2154" fill-rule="evenodd" stroke="none"/>
    <path d="M108.15 -25.15 L102.55 -14.9 88.5 -12.3 82.25 -10.9 79.9 -10.85 79.15 -12.2 79.15 -12.35 86.8 -28.8 103.7 -32.55 103.7 -26.2 109.4 -27.45 108.15 -25.15" fill="#3b110c" fill-rule="evenodd" stroke="none"/>
    <path d="M99.25 -48.15 L83.3 -53.55 86.1 -54.45 101.6 -49.95 108.2 -51.7 92.95 -56.2 Q105.9 -57.0 113.55 -51.9 L115.7 -50.45 115.8 -49.6 99.25 -48.15" fill="#583427" fill-rule="evenodd" stroke="none"/>
    <path d="M-119.4 -42.65 L-118.8 -38.05 -103.15 -35.35 Q-103.1 -30.7 -102.45 -25.9 L-107.75 -30.25 -119.6 -27.3 -120.95 -24.75 -127.4 -22.3 -132.45 -34.7 -132.1 -36.45 -127.3 -37.85 -119.4 -42.65 M115.5 -41.0 L128.4 -36.6 128.85 -36.35 128.55 -35.9 Q123.75 -35.9 120.15 -33.1 L119.65 -32.7 119.3 -32.4 119.1 -32.25 Q115.2 -28.6 115.2 -23.5 L108.15 -25.15 109.4 -27.45 115.1 -28.65 115.5 -41.0" fill="#1a0d1e" fill-rule="evenodd" stroke="none"/>
    <path d="M147.3 -36.45 Q150.65 -36.5 153.05 -32.0 155.4 -27.5 155.95 -20.95 150.0 -18.15 143.5 -17.05 L141.75 -16.8 140.95 -16.65 130.85 -15.8 130.6 -15.8 Q120.85 -15.6 115.2 -22.4 L115.2 -23.5 Q115.2 -28.6 119.1 -32.25 L119.3 -32.4 119.65 -32.7 120.15 -33.1 Q123.75 -35.9 128.55 -35.9 L127.35 -32.45 130.1 -31.95 Q139.9 -30.7 149.05 -34.4 L147.3 -36.45" fill="#402b25" fill-rule="evenodd" stroke="none"/>
    <path d="M18.75 0.05 L26.35 -0.65 Q23.75 4.15 19.35 0.8 L18.75 0.05 M88.5 -12.3 Q88.7 -11.0 88.0 -9.9 87.3 -8.75 86.05 -8.45 84.8 -8.2 83.7 -8.9 82.6 -9.65 82.25 -10.9 L88.5 -12.3" fill="#7e8123" fill-rule="evenodd" stroke="none"/>
    <path d="M157.05 -18.6 Q161.25 -11.65 161.7 -3.55 161.95 1.45 160.55 6.3 151.95 11.85 142.7 7.65 141.0 6.9 139.3 6.6 L138.3 6.5 Q124.45 5.0 111.05 1.3 L109.0 -13.45 111.5 -17.45 113.25 -18.1 Q122.95 -13.65 132.7 -13.1 142.9 -12.6 153.05 -16.4 155.2 -17.2 157.05 -18.6 M158.0 -12.1 L142.7 -9.2 142.45 -5.2 141.8 6.3 145.05 7.45 Q150.1 9.1 155.4 7.4 156.35 6.65 157.9 2.6 159.5 -1.4 158.0 -12.1" fill="#2a1016" fill-rule="evenodd" stroke="none"/>
    <path d="M155.95 -20.95 L157.05 -18.6 Q155.2 -17.2 153.05 -16.4 142.9 -12.6 132.7 -13.1 122.95 -13.65 113.25 -18.1 L115.2 -22.4 Q120.85 -15.6 130.6 -15.8 L130.85 -15.8 140.95 -16.65 141.75 -16.8 143.5 -17.05 Q150.0 -18.15 155.95 -20.95 M142.45 -5.2 L142.7 -9.2 158.0 -12.1 156.2 -5.9 142.45 -5.2" fill="#997669" fill-rule="evenodd" stroke="none"/>
    <path d="M128.55 -35.9 L129.45 -36.9 131.85 -37.95 147.3 -36.45 149.05 -34.4 Q139.9 -30.7 130.1 -31.95 L127.35 -32.45 128.55 -35.9" fill="#7f6251" fill-rule="evenodd" stroke="none"/>
    <path d="M142.45 -5.2 L156.2 -5.9 158.0 -12.1 Q159.5 -1.4 157.9 2.6 156.35 6.65 155.4 7.4 150.1 9.1 145.05 7.45 L141.8 6.3 142.45 -5.2" fill="#100503" fill-rule="evenodd" stroke="none"/>
    <path d="M-127.3 -37.85 L-132.1 -36.45 -132.45 -34.7 -127.4 -22.3 -120.95 -24.75 Q-120.15 -25.1 -122.65 -22.4 -124.9 -20.1 -131.0 -19.25 L-132.8 -19.05 -138.1 -38.95 -136.2 -39.3 Q-133.5 -39.75 -130.9 -41.25 L-127.3 -37.85 M-151.25 -25.55 L-141.95 -23.95 -153.9 -23.55 -151.25 -25.55" fill="#24160c" fill-rule="evenodd" stroke="none"/>
    <path d="M-130.9 -41.25 Q-133.5 -39.75 -136.2 -39.3 L-138.1 -38.95 -149.45 -37.95 -144.4 -40.55 Q-137.15 -44.25 -130.9 -41.25 M-147.8 -32.9 L-151.25 -25.55 -153.9 -23.55 -149.45 -33.15 -147.8 -32.9" fill="#c1ad91" fill-rule="evenodd" stroke="none"/>
    <path d="M-138.1 -38.95 L-132.8 -19.05 -138.2 -19.15 -143.35 -19.2 -146.3 -19.2 Q-153.9 -19.25 -158.5 -24.15 L-156.95 -28.05 -149.45 -37.95 -138.1 -38.95 M-141.95 -23.95 L-142.9 -31.7 -147.8 -32.9 -149.45 -33.15 -153.9 -23.55 -141.95 -23.95" fill="#422120" fill-rule="evenodd" stroke="none"/>
    <path d="M-120.95 -24.75 L-119.6 -27.3 -117.3 -27.0 -115.8 -22.8 Q-120.6 -19.35 -125.55 -17.35 -133.45 -14.2 -141.75 -14.85 -149.05 -15.5 -156.65 -19.05 L-159.7 -20.7 -161.7 -23.35 -161.25 -26.65 -156.95 -28.05 -158.5 -24.15 Q-153.9 -19.25 -146.3 -19.2 L-143.35 -19.2 -138.2 -19.15 -132.8 -19.05 -131.0 -19.25 Q-124.9 -20.1 -122.65 -22.4 -120.15 -25.1 -120.95 -24.75" fill="#a79081" fill-rule="evenodd" stroke="none"/>
    <path d="M-159.7 -20.7 L-156.65 -19.05 Q-149.05 -15.5 -141.75 -14.85 -133.45 -14.2 -125.55 -17.35 -120.6 -19.35 -115.8 -22.8 L-115.35 -21.45 -115.25 -21.15 -114.25 -15.2 -114.35 -13.4 -114.6 -12.0 Q-115.05 -6.75 -120.15 -4.3 L-120.35 -4.2 -120.5 -4.1 -120.7 -4.0 -120.8 -3.95 Q-123.0 -2.65 -125.7 -2.65 L-141.9 -2.8 -142.5 -2.85 -145.5 -3.15 -146.5 -3.35 -147.2 -3.5 -151.35 -4.9 -151.6 -5.0 Q-162.15 -9.6 -159.7 -20.7 M-133.6 -13.35 L-135.15 -6.7 -131.8 -6.15 -119.1 -6.4 -118.3 -13.75 -119.8 -17.55 -133.6 -13.35" fill="#251a1c" fill-rule="evenodd" stroke="none"/>
    <path d="M-133.6 -13.35 L-119.8 -17.55 -118.3 -13.75 -130.7 -10.2 -133.6 -13.35" fill="#987b68" fill-rule="evenodd" stroke="none"/>
    <path d="M-118.3 -13.75 L-119.1 -6.4 -131.8 -6.15 -130.7 -10.2 -118.3 -13.75" fill="#371b26" fill-rule="evenodd" stroke="none"/>
    <path d="M-102.35 -47.7 L-102.25 -48.15 -101.95 -48.95 -87.7 -45.55 -89.8 -43.2 -102.35 -47.7 M-83.25 -40.4 L-83.65 -42.7 -68.8 -39.95 -70.05 -37.55 -83.25 -40.4" fill="#937876" fill-rule="evenodd" stroke="none"/>
    <path d="M-87.7 -45.55 L-85.6 -19.95 -88.4 -21.35 -89.8 -43.2 -87.7 -45.55 M-70.05 -37.55 L-68.8 -39.95 Q-67.5 -40.5 -67.3 -39.35 -66.0 -31.6 -66.9 -23.65 -67.5 -18.75 -69.25 -15.95 L-70.05 -37.55" fill="#5c3f37" fill-rule="evenodd" stroke="none"/>
    <path d="M9.7 -89.3 Q0.1 -89.5 -10.2 -86.15 L-25.65 -86.5 -25.85 -86.6 -27.35 -87.25 -27.4 -87.25 -27.9 -87.4 -31.8 -87.95 -31.95 -87.95 -33.9 -90.3 Q-17.95 -90.85 -2.0 -90.6 L9.7 -89.3" fill="#7d5b4c" fill-rule="evenodd" stroke="none"/>
    <path d="M-21.6 -71.2 L-23.95 -58.35 -40.65 -58.45 -38.95 -69.15 -37.45 -70.85 Q-36.5 -72.1 -36.45 -73.8 L-21.15 -73.9 -21.6 -71.2" fill="#6a4a3b" fill-rule="evenodd" stroke="none"/>
    <path d="M-36.45 -73.8 Q-36.5 -72.1 -37.45 -70.85 L-38.95 -69.15 -42.8 -69.25 Q-45.6 -68.95 -48.0 -69.8 L-53.15 -71.25 -70.7 -75.45 -36.45 -73.8" fill="#4b291d" fill-rule="evenodd" stroke="none"/>
    <path d="M-5.85 -73.95 L-6.85 -69.5 -6.85 -69.45 -11.65 -69.95 Q-15.15 -70.05 -21.6 -71.2 L-21.15 -73.9 -5.85 -73.95" fill="#482514" fill-rule="evenodd" stroke="none"/>
    <path d="M-5.0 -77.6 L-5.85 -73.95 -21.15 -73.9 -36.45 -73.8 -70.7 -75.45 -68.5 -78.4 -60.2 -80.85 -5.0 -77.6 M-66.65 -66.1 Q-66.95 -64.45 -68.1 -64.45 -69.25 -64.45 -69.35 -65.65 L-69.1 -69.1 -68.4 -72.3 Q-68.1 -73.25 -67.5 -72.9 -67.0 -72.55 -66.65 -71.85 -66.3 -71.15 -66.3 -69.45 -66.3 -67.75 -66.65 -66.1 M-56.2 -69.35 L-57.8 -62.55 -60.05 -62.45 -59.6 -71.45 -56.2 -69.35" fill="#7e5d54" fill-rule="evenodd" stroke="none"/>
    <path d="M-40.65 -58.45 L-41.0 -57.15 -42.0 -57.7 -68.35 -63.3 -76.15 -63.55 -75.35 -65.45 -72.45 -71.7 -70.7 -75.45 -53.15 -71.25 -48.0 -69.8 Q-45.6 -68.95 -42.8 -69.25 L-38.95 -69.15 -40.65 -58.45 M-66.65 -66.1 Q-66.3 -67.75 -66.3 -69.45 -66.3 -71.15 -66.65 -71.85 -67.0 -72.55 -67.5 -72.9 -68.1 -73.25 -68.4 -72.3 L-69.1 -69.1 -69.35 -65.65 Q-69.25 -64.45 -68.1 -64.45 -66.95 -64.45 -66.65 -66.1 M-56.2 -69.35 L-59.6 -71.45 -60.05 -62.45 -57.8 -62.55 -56.2 -69.35" fill="#341611" fill-rule="evenodd" stroke="none"/>
    <path d="M-79.25 -65.25 L-78.5 -68.95 -72.45 -71.7 -75.35 -65.45 -79.25 -65.25" fill="#1a0b07" fill-rule="evenodd" stroke="none"/>
    <path d="M-18.95 -39.05 L-33.25 -37.6 -39.9 -37.9 Q-43.35 -38.3 -46.45 -39.65 L-51.6 -41.9 -20.45 -46.45 5.2 -41.65 -18.95 -39.05" fill="#5d3a3a" fill-rule="evenodd" stroke="none"/>
  </g>
  <defs>
    <linearGradient gradientTransform="matrix(0.0, -0.111, -0.2016, 0.0, -26.6, 0.25)" gradientUnits="userSpaceOnUse" id="gradient0" spreadMethod="pad" x1="-819.2" x2="819.2">
      <stop offset="0.33725490196078434" stop-color="#000000" stop-opacity="0.5019608"/>
      <stop offset="1.0" stop-color="#000000" stop-opacity="0.0"/>
    </linearGradient>
  </defs>
</svg>
