<?xml version="1.0" encoding="UTF-8" standalone="no"?>
<svg xmlns:ffdec="https://www.free-decompiler.com/flash" xmlns:xlink="http://www.w3.org/1999/xlink" ffdec:objectType="shape" height="112.4px" width="104.95px" xmlns="http://www.w3.org/2000/svg">
  <g transform="matrix(1.0, 0.0, 0.0, 1.0, 52.45, 56.15)">
    <path d="M16.1 -51.4 L17.4 -55.8 23.45 -55.2 23.45 -55.15 22.05 -51.4 16.1 -51.4 M3.5 -50.8 L5.35 -56.15 12.4 -56.15 11.3 -50.8 3.5 -50.8" fill="#977974" fill-rule="evenodd" stroke="none"/>
    <path d="M-4.65 -27.2 L-0.9 -38.0 -0.7 -38.55 0.95 -43.35 1.15 -43.9 3.5 -50.8 11.3 -50.8 12.1 -43.4 Q14.55 -44.8 15.15 -47.65 L16.1 -51.4 22.05 -51.4 20.0 -26.75 -4.65 -27.2" fill="#1a0d1e" fill-rule="evenodd" stroke="none"/>
    <path d="M23.45 -55.15 L24.35 -45.8 22.85 -24.25 20.0 -26.75 22.05 -51.4 23.45 -55.15" fill="#1b0f07" fill-rule="evenodd" stroke="none"/>
    <path d="M22.85 -24.25 L36.3 -13.65 39.35 -10.1 Q40.75 -3.15 37.25 2.9 L37.2 3.05 Q33.95 8.6 28.65 12.1 L13.7 -13.4 14.65 -15.0 14.9 -15.8 15.1 -16.6 15.2 -17.9 22.85 -24.25 M24.0 -15.85 L19.35 -11.65 19.5 -11.0 Q21.55 -4.6 27.3 -0.25 L28.9 2.4 29.4 2.15 Q31.9 0.9 33.7 -0.85 36.6 -3.7 37.75 -7.95 L24.0 -15.85" fill="#7f6251" fill-rule="evenodd" stroke="none"/>
    <path d="M-21.5 -15.15 L-15.2 -20.15 8.15 -18.65 8.3 -18.65 9.8 -18.8 10.8 -19.1 11.8 -19.5 Q17.0 -21.95 20.0 -26.75 L22.85 -24.25 15.2 -17.9 15.1 -16.6 14.9 -15.8 14.65 -15.0 13.7 -13.4 Q12.8 -12.45 11.4 -12.1 L8.75 -13.95 -15.0 -16.65 -16.9 -14.6 -21.5 -15.15 M27.3 -0.25 Q21.55 -4.6 19.5 -11.0 L19.35 -11.65 24.0 -15.85 32.85 -6.65 27.3 -0.25 M-9.95 -8.75 L6.25 -7.65 12.7 9.5 Q-2.8 12.05 -17.45 7.1 -18.4 6.7 -19.35 6.4 L-9.95 -8.75" fill="#000001" fill-rule="evenodd" stroke="none"/>
    <path d="M-15.2 -20.15 L-14.95 -20.65 -7.85 -27.25 -4.65 -27.2 20.0 -26.75 Q17.0 -21.95 11.8 -19.5 L10.8 -19.1 9.8 -18.8 8.3 -18.65 8.15 -18.65 -15.2 -20.15" fill="#5d3f3a" fill-rule="evenodd" stroke="none"/>
    <path d="M-24.05 -14.1 L-21.5 -15.15 -16.9 -14.6 -15.0 -16.65 8.75 -13.95 11.4 -12.1 Q12.8 -12.45 13.7 -13.4 L28.65 12.1 Q26.8 13.3 24.7 14.3 1.55 24.8 -21.9 14.95 -30.65 11.3 -32.65 2.15 -35.1 -8.85 -24.05 -14.1 M-22.35 7.75 L-20.75 8.65 Q-4.8 16.45 12.5 11.45 L12.7 9.5 6.25 -7.65 -9.95 -8.75 -13.85 -9.1 -22.35 7.75" fill="#402b25" fill-rule="evenodd" stroke="none"/>
    <path d="M36.3 -13.65 L43.65 -6.9 Q46.15 -1.95 45.45 2.8 L45.45 2.85 Q44.75 7.55 40.9 12.1 L40.75 12.25 Q37.9 15.5 34.25 17.75 26.4 22.4 17.6 25.0 -7.35 32.4 -29.2 19.1 -34.95 15.6 -37.6 9.5 L-39.05 4.95 -40.0 3.15 -40.15 -5.65 -30.6 -13.45 -24.05 -14.1 Q-35.1 -8.85 -32.65 2.15 -30.65 11.3 -21.9 14.95 1.55 24.8 24.7 14.3 26.8 13.3 28.65 12.1 33.95 8.6 37.2 3.05 L37.25 2.9 Q40.75 -3.15 39.35 -10.1 L36.3 -13.65 M43.7 23.6 L47.05 31.65 24.0 43.95 19.15 37.45 Q16.3 33.65 11.9 32.95 L15.0 32.25 Q25.95 29.7 35.3 23.7 L37.05 22.55 39.4 20.85 43.65 23.6 43.7 23.6" fill="#997669" fill-rule="evenodd" stroke="none"/>
    <path d="M24.0 -15.85 L37.75 -7.95 32.85 -6.65 24.0 -15.85" fill="#a57e71" fill-rule="evenodd" stroke="none"/>
    <path d="M37.75 -7.95 Q36.6 -3.7 33.7 -0.85 31.9 0.9 29.4 2.15 L28.9 2.4 27.3 -0.25 32.85 -6.65 37.75 -7.95" fill="#ab876f" fill-rule="evenodd" stroke="none"/>
    <path d="M43.65 -6.9 L44.95 -6.4 52.5 5.45 45.5 2.8 45.45 2.8 Q46.15 -1.95 43.65 -6.9 M-48.4 5.15 L-40.0 3.15 -39.05 4.95 -39.15 6.15 Q-39.65 14.9 -33.1 20.65 L-48.1 25.5 Q-50.4 24.05 -49.7 21.35 -47.75 13.35 -48.4 5.15" fill="#5a3b36" fill-rule="evenodd" stroke="none"/>
    <path d="M-22.35 7.75 L-13.85 -9.1 -9.95 -8.75 -19.35 6.4 -22.35 7.75" fill="#543c36" fill-rule="evenodd" stroke="none"/>
    <path d="M12.7 9.5 L12.5 11.45 Q-4.8 16.45 -20.75 8.65 L-22.35 7.75 -19.35 6.4 Q-18.4 6.7 -17.45 7.1 -2.8 12.05 12.7 9.5" fill="#725347" fill-rule="evenodd" stroke="none"/>
    <path d="M11.15 49.35 L9.45 49.65 -2.2 50.6 Q-16.15 50.45 -29.15 44.1 L-31.75 42.6 -24.15 40.6 -33.0 34.1 -33.1 20.65 Q-39.65 14.9 -39.15 6.15 L-39.05 4.95 -37.6 9.5 Q-34.95 15.6 -29.2 19.1 -7.35 32.4 17.6 25.0 26.4 22.4 34.25 17.75 37.9 15.5 40.75 12.25 L40.9 12.1 Q44.75 7.55 45.45 2.85 L45.5 2.85 43.65 23.6 39.4 20.85 37.05 22.55 35.3 23.7 Q25.95 29.7 15.0 32.25 L11.9 32.95 11.15 49.35" fill="#2a1016" fill-rule="evenodd" stroke="none"/>
    <path d="M47.05 31.65 L47.05 31.6 47.6 51.45 Q43.1 53.3 38.35 54.6 L37.95 54.7 35.6 55.25 34.8 55.4 22.85 56.1 24.0 43.95 47.05 31.65 M-31.75 42.6 L-46.5 46.5 -48.1 25.5 -33.1 20.65 -33.0 34.1 -24.15 40.6 -31.75 42.6" fill="#0a110a" fill-rule="evenodd" stroke="none"/>
    <path d="M22.85 56.1 L22.8 56.1 19.45 55.8 19.4 55.8 18.7 55.7 14.55 54.1 Q11.15 52.15 11.15 49.35 L11.9 32.95 Q16.3 33.65 19.15 37.45 L24.0 43.95 22.85 56.1 M-46.5 46.5 L-46.9 45.9 -47.75 44.4 Q-56.85 26.05 -48.4 5.15 -47.75 13.35 -49.7 21.35 -50.4 24.05 -48.1 25.5 L-46.5 46.5" fill="#100503" fill-rule="evenodd" stroke="none"/>
    <path d="M52.5 5.45 L52.1 19.3 43.7 23.6 43.65 23.6 45.5 2.85 45.5 2.8 52.5 5.45" fill="#000000" fill-rule="evenodd" stroke="none"/>
  </g>
</svg>
