<?xml version="1.0" encoding="UTF-8" standalone="no"?>
<svg xmlns:ffdec="https://www.free-decompiler.com/flash" xmlns:xlink="http://www.w3.org/1999/xlink" ffdec:objectType="shape" height="121.85px" width="161.9px" xmlns="http://www.w3.org/2000/svg">
  <g transform="matrix(1.0, 0.0, 0.0, 1.0, 36.0, 30.75)">
    <path d="M123.6 -24.6 Q131.2 -13.75 113.5 10.0 95.8 33.7 63.2 56.4 30.6 79.1 2.25 87.45 -26.15 95.8 -33.7 84.95 -41.3 74.1 -23.6 50.4 -5.9 26.65 26.7 3.95 59.25 -18.75 87.65 -27.1 116.05 -35.5 123.6 -24.6" fill="url(#gradient0)" fill-rule="evenodd" stroke="none"/>
    <path d="M12.9 68.4 Q7.0 67.35 3.35 62.9 L2.7 61.9 Q-0.95 56.45 0.35 49.95 1.5 43.45 6.85 39.7 L95.6 0.0 24.85 66.05 Q19.4 69.7 12.9 68.4" fill="url(#gradient1)" fill-rule="evenodd" stroke="none"/>
  </g>
  <defs>
    <radialGradient cx="0" cy="0" gradientTransform="matrix(0.0223, 0.032, -0.0966, 0.0673, 44.95, 30.15)" gradientUnits="userSpaceOnUse" id="gradient0" r="819.2" spreadMethod="pad">
      <stop offset="0.0" stop-color="#ffffff"/>
      <stop offset="1.0" stop-color="#ffffff" stop-opacity="0.0"/>
    </radialGradient>
    <linearGradient gradientTransform="matrix(0.0563, -0.0384, 0.011, 0.0161, 48.7, 30.4)" gradientUnits="userSpaceOnUse" id="gradient1" spreadMethod="pad" x1="-819.2" x2="819.2">
      <stop offset="0.054901960784313725" stop-color="#ccffff"/>
      <stop offset="0.2823529411764706" stop-color="#00ffff"/>
      <stop offset="0.5215686274509804" stop-color="#00ccff"/>
      <stop offset="1.0" stop-color="#3366ff"/>
    </linearGradient>
  </defs>
</svg>
