<?xml version="1.0" encoding="UTF-8" standalone="no"?>
<svg xmlns:ffdec="https://www.free-decompiler.com/flash" xmlns:xlink="http://www.w3.org/1999/xlink" ffdec:objectType="shape" height="486.15px" width="356.15px" xmlns="http://www.w3.org/2000/svg">
  <g transform="matrix(1.0, 0.0, 0.0, 1.0, 183.1, 244.05)">
    <path d="M-150.0 -70.0 L-150.0 -174.95 -118.9 -138.7 -55.2 -64.35 -64.05 -35.0 -55.2 -64.35 89.8 104.75 150.0 175.0 78.35 175.0 2.45 114.9 78.35 175.0 -43.4 175.0 -150.0 175.0 -150.0 158.85 -150.0 -70.0 -117.9 -23.0 -150.0 -70.0 M-123.95 141.6 L-150.0 158.85 -123.95 141.6 M-84.05 -29.0 L-118.9 -138.7 -84.05 -29.0 M25.0 91.1 L89.8 104.75 25.0 91.1" fill="#cccccc" fill-rule="evenodd" stroke="none"/>
    <path d="M-118.9 -138.7 L-152.05 -243.05 M-117.9 -23.0 L-150.0 -70.0 -182.1 -117.0 M-150.0 158.85 L-123.95 141.6 M-64.05 -35.0 L-55.2 -64.35 -32.05 -141.0 M-118.9 -138.7 L-84.05 -29.0 M-150.0 158.85 L-176.05 176.1 M-43.4 175.0 L-54.05 241.1 M78.35 175.0 L129.0 215.1 M2.45 114.9 L78.35 175.0 M89.8 104.75 L172.05 122.1" fill="none" stroke="#000000" stroke-linecap="round" stroke-linejoin="round" stroke-width="2.0"/>
    <path d="M89.8 104.75 L25.0 91.1" fill="none" stroke="#000000" stroke-linecap="round" stroke-linejoin="round" stroke-width="2.0"/>
  </g>
</svg>
