<?xml version="1.0" encoding="UTF-8" standalone="no"?>
<svg xmlns:ffdec="https://www.free-decompiler.com/flash" xmlns:xlink="http://www.w3.org/1999/xlink" ffdec:objectType="shape" height="228.5px" width="315.65px" xmlns="http://www.w3.org/2000/svg">
  <g transform="matrix(1.0, 0.0, 0.0, 1.0, 157.8, 114.25)">
    <path d="M-44.8 -103.8 L-47.2 -113.75 -38.55 -107.85 -34.55 -100.0 -44.8 -103.8" fill="#00ccff" fill-rule="evenodd" stroke="none"/>
    <path d="M-47.2 -113.75 L-36.9 -108.8 -8.8 -54.95 -7.35 -52.45 -5.6 -49.15 -3.55 -45.15 1.55 -35.1 -1.25 -35.15 -1.8 -35.7 -34.55 -100.0 -38.55 -107.85 -47.2 -113.75" fill="#ffffff" fill-rule="evenodd" stroke="none"/>
    <path d="M-35.4 -68.2 L-44.8 -103.8 -34.55 -100.0 -1.8 -35.7 -10.15 -39.4 Q-15.65 -44.15 -20.95 -50.0 L-23.9 -53.35 Q-29.75 -60.1 -35.4 -68.2" fill="url(#gradient0)" fill-rule="evenodd" stroke="none"/>
    <path d="M66.3 -56.4 L59.15 -60.45 117.25 -77.0 120.5 -75.5 121.2 -75.2 101.15 -68.75 104.4 -65.9 73.55 -56.1 69.25 -54.7 66.3 -56.4 M-156.3 13.65 L-154.7 0.3 -96.4 -17.7 -88.1 -10.85 -72.55 -15.45 -70.4 -12.3 -102.75 -2.55 -104.95 -1.85 -102.75 -2.55 -103.7 -2.2 -104.95 -1.85 -156.3 13.65" fill="#eeeeee" fill-rule="evenodd" stroke="none"/>
    <path d="M-103.7 -2.2 L-102.75 -2.55 -70.4 -12.3 -65.05 -5.25 -97.85 3.9 -103.7 -2.2 M-94.35 -3.7 L-91.45 -0.15 -94.35 -3.7 M-84.55 -6.55 L-81.6 -3.05 -84.55 -6.55 M-87.85 -5.4 L-84.9 -1.85 -87.85 -5.4 M-91.1 -4.55 L-88.2 -1.0 -91.1 -4.55 M-78.45 -8.25 L-75.5 -4.7 -78.45 -8.25 M-75.35 -9.1 L-72.4 -5.55 -75.35 -9.1 M-81.45 -7.4 L-78.5 -3.9 -81.45 -7.4" fill="url(#gradient1)" fill-rule="evenodd" stroke="none"/>
    <path d="M-36.2 35.25 Q-38.05 37.6 -26.1 48.15 L-40.45 52.4 -113.7 44.8 -117.6 35.8 -157.3 22.1 -156.3 13.65 -104.95 -1.85 -103.7 -2.2 -97.85 3.9 -65.05 -5.25 Q-61.15 -0.35 -56.0 5.0 L-56.35 6.2 -36.2 35.05 -36.2 35.25" fill="url(#gradient2)" fill-rule="evenodd" stroke="none"/>
    <path d="M-30.05 -47.85 L-35.4 -68.2 Q-29.75 -60.1 -23.9 -53.35 -25.5 -49.75 -25.05 -45.95 L-30.05 -47.85" fill="url(#gradient3)" fill-rule="evenodd" stroke="none"/>
    <path d="M-23.9 -53.35 L-20.95 -50.0 Q-19.65 -46.85 -19.75 -43.6 L-25.05 -45.95 Q-25.5 -49.75 -23.9 -53.35" fill="#77819f" fill-rule="evenodd" stroke="none"/>
    <path d="M-80.6 -35.95 Q-79.0 -54.55 -58.7 -50.95 L-55.8 -50.35 Q-60.95 -51.1 -65.8 -49.1 -78.55 -44.0 -80.45 -35.95 L-80.6 -35.95 M-8.2 -55.7 L-8.2 -55.75 Q-6.2 -58.95 -4.0 -61.25 L-2.1 -63.0 Q-0.35 -64.5 1.5 -65.4 6.75 -68.05 12.9 -66.4 0.4 -65.25 -4.85 -53.3 L-8.2 -55.7 M3.15 -64.0 L1.5 -65.4 3.15 -64.0" fill="#4d323e" fill-rule="evenodd" stroke="none"/>
    <path d="M-8.8 -54.95 L-8.2 -55.7 -4.85 -53.3 -4.2 -52.85 -7.35 -52.45 -8.8 -54.95" fill="#0066ff" fill-rule="evenodd" stroke="none"/>
    <path d="M-43.35 -42.45 L-29.65 -46.45 -29.35 -45.15 -27.35 -42.4 -37.9 -40.15 -30.5 -30.75 -30.55 -30.7 -43.35 -42.45 M-0.55 -50.2 L-5.6 -49.15 -7.35 -52.45 -4.2 -52.85 -2.35 -51.45 -0.55 -50.2 M-58.4 -26.9 L-64.45 -33.75 -61.3 -32.7 -58.4 -26.9 M-57.15 -38.0 L-52.75 -32.55 -53.95 -30.6 -57.4 -35.55 -57.15 -38.0" fill="#cccccc" fill-rule="evenodd" stroke="none"/>
    <path d="M1.45 -58.4 Q4.75 -53.8 4.25 -47.15 L4.15 -46.75 -0.55 -50.2 -2.35 -51.45 Q-0.45 -55.85 1.45 -58.4" fill="url(#gradient4)" fill-rule="evenodd" stroke="none"/>
    <path d="M12.9 -66.4 L13.05 -66.35 14.05 -66.05 12.8 -65.75 9.5 -64.15 5.1 -61.75 Q3.2 -60.75 1.45 -58.4 -0.45 -55.85 -2.35 -51.45 L-4.2 -52.85 -4.85 -53.3 Q0.4 -65.25 12.9 -66.4" fill="url(#gradient5)" fill-rule="evenodd" stroke="none"/>
    <path d="M-80.6 -30.8 L-80.55 -30.85 Q-80.85 -32.25 -80.75 -33.6 L-80.75 -33.85 -80.45 -35.95 Q-78.55 -44.0 -65.8 -49.1 -60.95 -51.1 -55.8 -50.35 L-53.1 -49.75 Q-75.4 -45.05 -79.25 -29.25 L-80.6 -30.8" fill="url(#gradient6)" fill-rule="evenodd" stroke="none"/>
    <path d="M-48.2 -38.3 L-47.05 -40.3 -42.95 -35.45 -43.85 -33.9 -48.2 -38.3 M-54.8 -38.65 L-51.2 -37.4 -49.65 -32.35 -54.8 -38.65" fill="#666666" fill-rule="evenodd" stroke="none"/>
    <path d="M15.55 -53.3 L13.6 -54.85 18.35 -57.8 20.05 -56.15 15.55 -53.3 M21.85 -56.75 L19.85 -58.55 24.4 -60.6 26.4 -59.05 21.85 -56.75 M-47.05 -40.3 L-48.2 -38.3 -51.2 -37.4 -54.8 -38.65 -47.05 -40.3 M-64.45 -33.75 L-57.15 -38.0 -57.4 -35.55 -61.3 -32.7 -64.45 -33.75" fill="#333333" fill-rule="evenodd" stroke="none"/>
    <path d="M-53.1 -49.75 L-50.3 -48.75 -43.9 -42.9 Q-69.0 -43.4 -73.75 -22.65 L-79.25 -29.25 Q-75.4 -45.05 -53.1 -49.75" fill="url(#gradient7)" fill-rule="evenodd" stroke="none"/>
    <path d="M-43.9 -42.9 L-43.35 -42.45 -30.55 -30.7 Q-58.25 -35.4 -62.95 -9.6 L-73.75 -22.65 Q-69.0 -43.4 -43.9 -42.9 M-43.85 -33.9 L-42.95 -35.45 -47.05 -40.3 -54.8 -38.65 -49.65 -32.35 -43.85 -33.9 M-58.4 -26.9 L-54.05 -30.45 -53.95 -30.6 -52.75 -32.55 -57.15 -38.0 -64.45 -33.75 -58.4 -26.9" fill="url(#gradient8)" fill-rule="evenodd" stroke="none"/>
    <path d="M20.05 -56.15 L23.95 -52.6 19.85 -50.0 15.55 -53.3 20.05 -56.15 M-53.95 -30.6 L-54.05 -30.45 -58.4 -26.9 -61.3 -32.7 -57.4 -35.55 -53.95 -30.6" fill="#dddddd" fill-rule="evenodd" stroke="none"/>
    <path d="M21.85 -56.75 L26.4 -59.05 30.55 -56.0 25.45 -53.5 21.85 -56.75 M8.55 -15.05 L8.95 -15.45 13.1 -9.3 Q13.1 -7.1 13.4 -4.95 L6.8 -13.1 8.55 -15.05 M-48.2 -38.3 L-43.85 -33.9 -49.65 -32.35 -51.2 -37.4 -48.2 -38.3" fill="#999999" fill-rule="evenodd" stroke="none"/>
    <path d="M-80.75 -33.85 L-80.65 -35.7 -80.6 -35.95 -80.45 -35.95 -80.75 -33.85" fill="#5a2317" fill-rule="evenodd" stroke="none"/>
    <path d="M-56.0 5.0 L-54.65 0.45 -54.65 0.4 -53.85 -2.35 -53.8 -2.35 -34.45 20.15 -36.15 34.6 -36.2 35.05 -56.35 6.2 -56.0 5.0" fill="url(#gradient9)" fill-rule="evenodd" stroke="none"/>
    <path d="M-49.05 -4.0 L-53.8 -2.35 -53.85 -2.35 -54.65 0.4 Q-55.6 -24.95 -22.1 -22.95 L-14.5 -16.0 -14.75 -15.95 Q-39.15 -21.05 -49.05 -4.0" fill="url(#gradient10)" fill-rule="evenodd" stroke="none"/>
    <path d="M-53.8 -2.35 L-49.05 -4.0 -14.75 -15.95 -14.5 -16.0 -14.15 -15.8 -7.8 -9.75 -2.1 -4.35 7.55 4.85 -34.45 20.15 -53.8 -2.35" fill="url(#gradient11)" fill-rule="evenodd" stroke="none"/>
    <path d="M19.0 -35.95 L25.45 -31.25 22.05 -31.2 -3.55 -45.15 -5.6 -49.15 -0.55 -50.2 4.15 -46.75 19.0 -35.95" fill="url(#gradient12)" fill-rule="evenodd" stroke="none"/>
    <path d="M-29.65 -46.45 L-30.05 -47.85 -25.05 -45.95 -19.75 -43.6 -10.15 -39.4 -1.8 -35.7 -1.25 -35.15 1.55 -35.1 -3.55 -45.15 22.05 -31.2 19.6 -31.1 Q12.9 -30.7 7.85 -29.05 2.0 -27.2 -1.65 -23.8 L-6.05 -27.5 -2.25 -23.2 -4.35 -20.65 Q-6.25 -17.8 -7.1 -14.25 L-27.35 -42.4 -29.35 -45.15 -29.65 -46.45" fill="url(#gradient13)" fill-rule="evenodd" stroke="none"/>
    <path d="M-20.95 -50.0 Q-15.65 -44.15 -10.15 -39.4 L-19.75 -43.6 Q-19.65 -46.85 -20.95 -50.0" fill="url(#gradient14)" fill-rule="evenodd" stroke="none"/>
    <path d="M-14.5 -16.0 L-22.1 -22.95 -30.0 -30.2 -30.5 -30.75 -37.9 -40.15 -27.35 -42.4 -7.1 -14.25 Q-7.65 -12.15 -7.8 -9.75 L-14.15 -15.8 -14.45 -16.05 -14.5 -16.0" fill="url(#gradient15)" fill-rule="evenodd" stroke="none"/>
    <path d="M-54.65 0.4 L-62.95 -9.6 Q-58.25 -35.4 -30.55 -30.7 L-30.0 -30.2 -22.1 -22.95 Q-55.6 -24.95 -54.65 0.4" fill="url(#gradient16)" fill-rule="evenodd" stroke="none"/>
    <path d="M-4.35 -20.65 L0.7 -16.2 Q-2.2 -11.4 -2.1 -4.35 L-7.8 -9.75 Q-7.65 -12.15 -7.1 -14.25 -6.25 -17.8 -4.35 -20.65" fill="url(#gradient17)" fill-rule="evenodd" stroke="none"/>
    <path d="M12.5 -24.9 Q6.8 -23.05 3.3 -19.6 L2.15 -18.3 0.7 -16.2 -4.35 -20.65 -2.25 -23.2 -1.65 -23.8 Q2.0 -27.2 7.85 -29.05 L12.5 -24.9" fill="url(#gradient18)" fill-rule="evenodd" stroke="none"/>
    <path d="M3.3 -19.6 L8.55 -15.05 6.8 -13.1 2.15 -18.3 3.3 -19.6 M-1.65 -23.8 L-2.25 -23.2 -6.05 -27.5 -1.65 -23.8" fill="#ff8176" fill-rule="evenodd" stroke="none"/>
    <path d="M-49.05 -4.0 Q-39.15 -21.05 -14.75 -15.95 L-49.05 -4.0" fill="url(#gradient19)" fill-rule="evenodd" stroke="none"/>
    <path d="M44.55 -53.25 L48.8 -51.15 48.5 -51.05 48.7 -50.95 56.05 -47.4 58.15 -46.25 58.1 -46.15 Q34.5 -46.8 30.05 -27.95 L25.45 -31.25 19.0 -35.95 Q25.0 -56.55 44.55 -53.25" fill="url(#gradient20)" fill-rule="evenodd" stroke="none"/>
    <path d="M48.8 -51.15 L66.3 -56.4 69.25 -54.7 73.55 -56.1 78.75 -52.85 58.5 -46.05 58.3 -46.15 58.15 -46.25 56.05 -47.4 48.7 -50.95 48.8 -51.15 M63.55 -53.45 L65.7 -51.05 63.55 -53.45 M61.25 -52.5 L63.4 -50.15 61.25 -52.5 M65.7 -54.1 L67.85 -51.75 65.7 -54.1 M58.95 -51.85 L61.1 -49.5 58.95 -51.85 M56.7 -51.15 L58.85 -48.75 56.7 -51.15" fill="url(#gradient21)" fill-rule="evenodd" stroke="none"/>
    <path d="M121.2 -75.25 L133.65 -70.55 121.55 -50.05 123.35 -45.65 102.55 -9.2 Q110.1 -2.55 109.55 -1.4 L106.65 -1.45 Q93.9 -15.9 89.25 -12.3 L87.8 -13.85 95.55 -16.9 90.2 -25.1 Q89.8 -28.05 64.55 -42.6 L64.4 -42.7 63.95 -42.95 58.5 -46.05 78.75 -52.85 73.55 -56.1 104.4 -65.9 101.15 -68.75 121.2 -75.2 121.2 -75.25" fill="url(#gradient22)" fill-rule="evenodd" stroke="none"/>
    <path d="M14.05 -66.05 L14.1 -66.05 Q17.15 -66.4 23.55 -63.6 24.25 -63.2 25.0 -62.85 6.75 -59.95 4.25 -47.15 4.75 -53.8 1.45 -58.4 3.2 -60.75 5.1 -61.75 L9.5 -64.15 12.8 -65.75 14.05 -66.05" fill="url(#gradient23)" fill-rule="evenodd" stroke="none"/>
    <path d="M25.0 -62.85 L44.55 -53.25 Q25.0 -56.55 19.0 -35.95 L4.15 -46.75 4.25 -47.15 Q6.75 -59.95 25.0 -62.85 M15.55 -53.3 L19.85 -50.0 23.95 -52.6 20.05 -56.15 18.35 -57.8 13.6 -54.85 15.55 -53.3 M26.4 -59.05 L24.4 -60.6 19.85 -58.55 21.85 -56.75 25.45 -53.5 30.55 -56.0 26.4 -59.05" fill="url(#gradient24)" fill-rule="evenodd" stroke="none"/>
    <path d="M30.05 -27.95 Q34.5 -46.8 58.1 -46.15 L58.5 -46.05 63.95 -42.95 Q43.9 -44.7 36.25 -32.7 L34.1 -31.95 33.1 -25.75 31.4 -26.95 30.05 -27.95" fill="url(#gradient25)" fill-rule="evenodd" stroke="none"/>
    <path d="M47.75 -15.3 L33.1 -25.75 34.1 -31.95 61.05 -14.6 61.1 -14.6 64.35 -4.45 Q60.6 -7.1 56.25 -9.3 L56.0 -9.4 47.75 -15.3" fill="url(#gradient26)" fill-rule="evenodd" stroke="none"/>
    <path d="M23.7 -26.85 L31.4 -26.95 33.1 -25.75 47.75 -15.3 28.75 -22.9 Q17.05 -23.6 8.95 -15.45 L8.55 -15.05 3.3 -19.6 Q6.8 -23.05 12.5 -24.9 L12.65 -24.95 Q17.4 -26.45 23.7 -26.85" fill="url(#gradient27)" fill-rule="evenodd" stroke="none"/>
    <path d="M34.1 -31.95 L36.25 -32.7 64.4 -42.7 64.55 -42.6 Q89.8 -28.05 90.2 -25.1 L61.1 -14.65 61.05 -14.6 34.1 -31.95" fill="url(#gradient28)" fill-rule="evenodd" stroke="none"/>
    <path d="M25.45 -31.25 L30.05 -27.95 31.4 -26.95 23.7 -26.85 19.6 -31.1 22.05 -31.2 25.45 -31.25" fill="url(#gradient29)" fill-rule="evenodd" stroke="none"/>
    <path d="M23.7 -26.85 Q17.4 -26.45 12.65 -24.95 L12.5 -24.9 7.85 -29.05 Q12.9 -30.7 19.6 -31.1 L23.7 -26.85" fill="url(#gradient30)" fill-rule="evenodd" stroke="none"/>
    <path d="M98.15 81.6 Q65.65 70.05 20.85 33.75 21.65 33.35 22.25 32.75 23.2 31.8 23.1 30.9 L22.75 30.1 22.7 30.05 22.55 29.95 11.2 20.45 14.75 19.7 11.95 16.55 7.65 4.85 7.55 4.85 -2.1 -4.35 Q-2.2 -11.4 0.7 -16.2 L2.15 -18.3 6.8 -13.1 5.55 -11.45 18.2 14.6 39.95 32.85 40.2 32.95 Q46.35 34.9 54.1 35.3 L101.55 67.45 Q104.4 69.5 107.35 71.35 L113.0 74.9 112.85 75.1 Q107.05 78.65 109.95 85.1 104.25 83.8 98.15 81.6 M70.9 50.35 Q63.55 43.4 48.65 37.55 49.05 40.2 68.75 53.7 70.85 52.9 70.9 50.35" fill="url(#gradient31)" fill-rule="evenodd" stroke="none"/>
    <path d="M13.4 -4.95 Q13.1 -7.1 13.1 -9.3 13.1 -12.8 13.8 -16.4 24.85 14.55 57.5 33.7 44.35 32.1 35.15 25.9 L35.1 25.9 Q15.6 12.05 13.4 -4.95" fill="url(#gradient32)" fill-rule="evenodd" stroke="none"/>
    <path d="M8.95 -15.45 Q17.05 -23.6 28.75 -22.9 L47.75 -15.3 56.0 -9.4 Q41.65 -16.6 20.7 -19.05 L20.25 -19.1 13.8 -16.4 Q13.1 -12.8 13.1 -9.3 L8.95 -15.45" fill="#f5efee" fill-rule="evenodd" stroke="none"/>
    <path d="M6.8 -13.1 L13.4 -4.95 Q15.6 12.05 35.1 25.9 L35.15 25.9 Q44.35 32.1 57.5 33.7 L57.6 33.7 57.75 33.75 Q69.8 23.35 84.1 23.5 L84.2 23.5 84.3 23.5 Q107.75 42.35 124.75 71.7 116.95 72.7 113.05 75.05 L113.0 74.9 Q98.2 56.65 77.4 45.3 88.65 58.2 101.55 67.45 L54.1 35.3 Q46.35 34.9 40.2 32.95 L39.95 32.85 18.2 14.6 5.55 -11.45 6.8 -13.1" fill="url(#gradient33)" fill-rule="evenodd" stroke="none"/>
    <path d="M57.5 33.7 Q24.85 14.55 13.8 -16.4 L20.25 -19.1 20.7 -19.05 Q62.35 -9.0 84.1 23.5 69.8 23.35 57.75 33.75 L57.6 33.7 57.5 33.7 M23.35 -9.3 Q34.35 10.1 55.05 23.85 42.0 4.5 23.35 -9.3" fill="url(#gradient34)" fill-rule="evenodd" stroke="none"/>
    <path d="M64.4 -42.7 L36.25 -32.7 Q43.9 -44.7 63.95 -42.95 L64.4 -42.7" fill="url(#gradient35)" fill-rule="evenodd" stroke="none"/>
    <path d="M20.7 -19.05 Q41.65 -16.6 56.0 -9.4 L56.25 -9.3 Q60.6 -7.1 64.35 -4.45 L64.6 -4.1 64.9 -4.05 68.0 -1.6 68.15 -1.5 Q75.7 4.9 80.2 13.45 L84.2 23.35 84.2 23.45 84.1 23.5 Q62.35 -9.0 20.7 -19.05" fill="url(#gradient36)" fill-rule="evenodd" stroke="none"/>
    <path d="M61.1 -14.65 L90.2 -25.1 95.55 -16.9 87.8 -13.85 80.65 -10.75 80.5 -10.9 79.1 -10.1 64.9 -4.05 64.6 -4.1 64.35 -4.45 61.1 -14.6 61.1 -14.65 M64.9 -4.05 L64.35 -4.45 64.9 -4.05" fill="url(#gradient37)" fill-rule="evenodd" stroke="none"/>
    <path d="M82.5 8.5 L78.85 5.95 68.15 -1.5 68.0 -1.6 Q68.5 -5.3 71.6 -4.7 L85.7 5.45 84.55 5.25 Q83.55 5.2 82.8 5.8 82.0 6.35 81.9 7.15 81.8 7.9 82.5 8.5" fill="url(#gradient38)" fill-rule="evenodd" stroke="none"/>
    <path d="M89.2 5.45 Q87.0 5.25 86.7 6.6 L86.2 5.8 85.7 5.45 71.6 -4.7 Q68.5 -5.3 68.0 -1.6 L64.9 -4.05 79.1 -10.1 Q71.9 -5.7 81.05 0.5 84.85 3.15 89.2 5.45 M-13.4 37.35 L-15.3 38.1 Q-17.8 35.2 -22.25 32.35 -32.95 34.65 -29.95 40.2 L-36.2 35.25 -36.15 35.15 -35.85 34.9 11.95 16.55 14.75 19.7 11.2 20.45 10.85 20.15 Q7.0 20.9 6.15 23.75 L6.1 23.75 Q3.7 21.9 1.9 22.2 0.0 22.55 -7.6 25.05 -15.25 27.5 -13.4 37.35" fill="#111111" fill-rule="evenodd" stroke="none"/>
    <path d="M104.15 11.75 Q96.05 9.0 89.2 5.45 84.85 3.15 81.05 0.5 71.9 -5.7 79.1 -10.1 L80.5 -10.9 80.65 -10.75 79.1 -10.1 80.65 -10.75 102.95 5.0 105.05 5.2 Q104.75 5.3 104.5 5.5 102.75 6.75 102.55 8.5 102.3 10.25 103.8 11.45 L104.15 11.75" fill="url(#gradient39)" fill-rule="evenodd" stroke="none"/>
    <path d="M80.65 -10.75 L87.8 -13.85 89.25 -12.3 108.0 2.6 105.95 4.75 105.05 5.2 102.95 5.0 80.65 -10.75" fill="#21263e" fill-rule="evenodd" stroke="none"/>
    <path d="M106.65 -1.45 L112.4 5.5 112.35 5.5 Q110.85 4.25 108.6 4.3 107.15 4.3 105.95 4.75 L108.0 2.6 89.25 -12.3 Q93.9 -15.9 106.65 -1.45" fill="url(#gradient40)" fill-rule="evenodd" stroke="none"/>
    <path d="M112.5 5.6 Q113.85 6.8 113.65 8.5 113.4 10.25 111.65 11.45 109.85 12.7 107.6 12.7 105.55 12.7 104.15 11.75 L103.8 11.45 Q102.3 10.25 102.55 8.5 102.75 6.75 104.5 5.5 104.75 5.3 105.05 5.2 L105.95 4.75 Q107.15 4.3 108.6 4.3 110.85 4.25 112.35 5.5 L112.5 5.6 M86.7 6.6 L86.7 7.15 Q86.6 7.9 85.9 8.5 85.1 9.05 84.1 9.05 L83.15 8.85 82.85 8.75 82.5 8.5 Q81.8 7.9 81.9 7.15 82.0 6.35 82.8 5.8 83.55 5.2 84.55 5.25 L85.7 5.45 86.2 5.8 86.7 6.6 M156.9 107.85 Q157.45 108.8 157.3 110.05 157.1 111.55 156.0 112.65 154.8 113.75 153.35 113.75 152.2 113.75 151.4 113.05 L151.4 113.0 150.5 111.8 Q150.2 111.0 150.3 110.05 150.5 108.55 151.7 107.4 L151.9 107.25 154.1 106.9 156.3 107.3 156.9 107.85 M20.85 33.75 L19.9 34.15 17.35 34.2 16.85 34.0 16.5 33.75 16.2 33.25 16.2 33.0 Q16.05 32.05 17.0 31.1 17.95 30.2 19.4 29.75 L21.9 29.65 Q22.3 29.75 22.55 29.95 L22.7 30.05 22.75 30.1 23.1 30.9 Q23.2 31.8 22.25 32.75 21.65 33.35 20.85 33.75 M-12.25 44.7 Q-11.95 45.0 -11.9 45.5 -11.8 46.35 -12.6 47.25 -13.45 48.15 -14.65 48.55 -15.95 48.9 -16.85 48.55 L-17.35 48.25 Q-17.9 47.9 -17.95 47.3 -18.05 46.45 -17.2 45.55 -16.4 44.65 -15.15 44.3 L-12.9 44.25 Q-12.5 44.4 -12.25 44.7 M5.0 47.05 Q4.95 44.85 7.0 43.0 9.0 41.15 11.9 40.7 14.8 40.2 16.9 41.4 18.9 42.5 18.9 44.7 18.9 46.85 16.9 48.7 14.9 50.55 12.0 51.05 9.05 51.5 7.05 50.35 5.0 49.2 5.0 47.05" fill="#000000" fill-rule="evenodd" stroke="none"/>
    <path d="M81.8 11.8 Q108.25 34.2 124.75 71.7 107.75 42.35 84.3 23.5 L84.2 23.35 Q82.65 18.05 80.2 13.45 L78.45 9.05 81.8 11.8" fill="url(#gradient41)" fill-rule="evenodd" stroke="none"/>
    <path d="M101.55 67.45 Q88.65 58.2 77.4 45.3 98.2 56.65 113.0 74.9 L107.35 71.35 Q104.4 69.5 101.55 67.45" fill="url(#gradient42)" fill-rule="evenodd" stroke="none"/>
    <path d="M113.0 74.9 L113.0 75.05 112.85 75.1 113.0 74.9" fill="url(#gradient43)" fill-rule="evenodd" stroke="none"/>
    <path d="M124.75 71.7 L136.4 87.3 134.85 87.0 134.5 86.95 Q124.95 85.4 124.65 92.65 L124.4 94.2 120.85 91.95 110.4 85.35 110.2 85.2 109.95 85.1 Q107.05 78.65 112.85 75.1 L113.0 75.05 113.05 75.05 Q116.95 72.7 124.75 71.7" fill="url(#gradient44)" fill-rule="evenodd" stroke="none"/>
    <path d="M120.85 91.95 L120.8 91.95 Q116.05 91.95 116.5 95.75 106.1 89.2 98.15 81.6 104.25 83.8 109.95 85.1 L110.0 85.1 110.4 85.35 120.85 91.95" fill="url(#gradient45)" fill-rule="evenodd" stroke="none"/>
    <path d="M120.8 91.95 Q124.85 96.05 126.15 101.05 121.1 99.6 116.5 95.75 116.05 91.95 120.8 91.95" fill="url(#gradient46)" fill-rule="evenodd" stroke="none"/>
    <path d="M134.85 87.0 L155.7 106.7 156.6 107.4 156.3 107.3 155.7 106.7 156.3 107.3 154.1 106.9 151.9 107.25 Q152.95 106.35 154.25 106.35 L155.7 106.7 154.25 106.35 Q152.95 106.35 151.9 107.25 151.3 107.45 150.85 108.1 L149.95 109.65 Q149.55 110.45 150.7 112.1 L151.05 112.65 151.15 112.75 151.4 113.0 151.4 113.05 124.65 92.65 Q124.95 85.4 134.5 86.95 L134.85 87.0" fill="url(#gradient47)" fill-rule="evenodd" stroke="none"/>
    <path d="M7.55 4.85 L7.65 4.85 11.95 16.55 -35.85 34.9 -36.15 34.6 -34.45 20.15 7.55 4.85" fill="url(#gradient48)" fill-rule="evenodd" stroke="none"/>
    <path d="M16.85 34.0 L17.2 34.45 Q20.8 39.1 20.5 44.05 20.15 49.2 15.35 51.55 10.55 53.85 6.0 51.65 L-13.4 37.35 Q-15.25 27.5 -7.6 25.05 0.0 22.55 1.9 22.2 3.7 21.9 6.1 23.75 L6.3 23.95 16.2 33.25 16.5 33.75 16.85 34.0 M5.0 47.05 Q5.0 49.2 7.05 50.35 9.05 51.5 12.0 51.05 14.9 50.55 16.9 48.7 18.9 46.85 18.9 44.7 18.9 42.5 16.9 41.4 14.8 40.2 11.9 40.7 9.0 41.15 7.0 43.0 4.95 44.85 5.0 47.05" fill="url(#gradient49)" fill-rule="evenodd" stroke="none"/>
    <path d="M11.2 20.45 L22.55 29.95 Q22.3 29.75 21.9 29.65 L19.4 29.75 Q17.95 30.2 17.0 31.1 16.05 32.05 16.2 33.0 L16.2 33.25 6.3 23.95 6.15 23.75 Q7.0 20.9 10.85 20.15 L11.2 20.45" fill="url(#gradient50)" fill-rule="evenodd" stroke="none"/>
    <path d="M70.9 50.35 Q70.85 52.9 68.75 53.7 49.05 40.2 48.65 37.55 63.55 43.4 70.9 50.35" fill="url(#gradient51)" fill-rule="evenodd" stroke="none"/>
    <path d="M-36.2 35.25 L-36.2 35.05 -36.15 35.15 -36.2 35.25" fill="url(#gradient52)" fill-rule="evenodd" stroke="none"/>
    <path d="M-15.3 38.1 Q-12.55 41.35 -12.25 44.7 -12.5 44.4 -12.9 44.25 L-15.15 44.3 Q-16.4 44.65 -17.2 45.55 -18.05 46.45 -17.95 47.3 -17.9 47.9 -17.35 48.25 -18.65 49.25 -29.85 40.3 L-29.95 40.2 Q-32.95 34.65 -22.25 32.35 -17.8 35.2 -15.3 38.1" fill="url(#gradient53)" fill-rule="evenodd" stroke="none"/>
    <path d="M23.35 -9.3 Q42.0 4.5 55.05 23.85 34.35 10.1 23.35 -9.3" fill="url(#gradient54)" fill-rule="evenodd" stroke="none"/>
    <path d="M44.55 -53.25 L48.8 -51.15 66.3 -56.4 59.15 -60.45 117.25 -77.0 120.5 -75.5 121.2 -75.25 133.65 -70.55 121.55 -50.05 123.35 -45.65 102.55 -9.2 Q110.1 -2.55 109.55 -1.4 L106.65 -1.45 112.4 5.5 112.5 5.6 Q113.85 6.8 113.65 8.5 113.4 10.25 111.65 11.45 109.85 12.7 107.6 12.7 105.55 12.7 104.15 11.75 96.05 9.0 89.2 5.45 87.0 5.25 86.7 6.6 M82.85 8.75 L82.5 8.5 78.85 5.95 Q81.2 8.85 81.8 11.8 108.25 34.2 124.75 71.7 L136.4 87.3 134.85 87.0 155.7 106.7 156.6 107.4 156.9 107.85 Q157.45 108.8 157.3 110.05 157.1 111.55 156.0 112.65 154.8 113.75 153.35 113.75 152.2 113.75 151.4 113.05 L124.65 92.65 124.4 94.2 120.85 91.95 120.8 91.95 Q124.85 96.05 126.15 101.05 121.1 99.6 116.5 95.75 106.1 89.2 98.15 81.6 65.65 70.05 20.85 33.75 M16.85 34.0 L17.2 34.45 Q20.8 39.1 20.5 44.05 20.15 49.2 15.35 51.55 10.55 53.85 6.0 51.65 L-13.4 37.35 -15.3 38.1 Q-12.55 41.35 -12.25 44.7 M-17.35 48.25 Q-18.65 49.25 -29.85 40.3 L-29.95 40.2 -36.2 35.25 Q-38.05 37.6 -26.1 48.15 L-40.45 52.4 -113.7 44.8 M-154.7 0.3 L-96.4 -17.7 -88.1 -10.85 -72.55 -15.45 Q-78.1 -23.8 -80.6 -30.8 L-80.55 -30.85 Q-80.85 -32.25 -80.75 -33.6 L-80.75 -33.85 -80.65 -35.7 -80.6 -35.95 Q-79.0 -54.55 -58.7 -50.95 L-55.8 -50.35 -53.1 -49.75 -50.3 -48.75 -43.9 -42.9 -43.35 -42.45 -29.65 -46.45 -30.05 -47.85 -35.4 -68.2 -44.8 -103.8 -47.2 -113.75 -36.9 -108.8 -8.8 -54.95 -8.2 -55.7 -8.2 -55.75 Q-6.2 -58.95 -4.0 -61.25 L-2.1 -63.0 Q-0.35 -64.5 1.5 -65.4 6.75 -68.05 12.9 -66.4 L13.05 -66.35 14.05 -66.05 14.1 -66.05 Q17.15 -66.4 23.55 -63.6 24.25 -63.2 25.0 -62.85 L44.55 -53.25 Q25.0 -56.55 19.0 -35.95 L25.45 -31.25 30.05 -27.95 Q34.5 -46.8 58.1 -46.15 L58.3 -46.15 58.15 -46.25 56.05 -47.4 48.7 -50.95 48.5 -51.05 48.8 -51.15 M66.3 -56.4 L69.25 -54.7 73.55 -56.1 104.4 -65.9 101.15 -68.75 121.2 -75.2 120.5 -75.5 M58.5 -46.05 L78.75 -52.85 73.55 -56.1 M14.05 -66.05 L12.8 -65.75 9.5 -64.15 5.1 -61.75 Q3.2 -60.75 1.45 -58.4 4.75 -53.8 4.25 -47.15 6.75 -59.95 25.0 -62.85 M1.5 -65.4 L3.15 -64.0 M20.05 -56.15 L23.95 -52.6 19.85 -50.0 15.55 -53.3 13.6 -54.85 18.35 -57.8 20.05 -56.15 15.55 -53.3 M26.4 -59.05 L24.4 -60.6 19.85 -58.55 21.85 -56.75 26.4 -59.05 30.55 -56.0 25.45 -53.5 21.85 -56.75 M31.4 -26.95 L23.7 -26.85 Q17.4 -26.45 12.65 -24.95 L12.5 -24.9 Q6.8 -23.05 3.3 -19.6 L8.55 -15.05 8.95 -15.45 Q17.05 -23.6 28.75 -22.9 L47.75 -15.3 33.1 -25.75 31.4 -26.95 30.05 -27.95 M36.25 -32.7 L34.1 -31.95 61.05 -14.6 61.1 -14.6 61.1 -14.65 90.2 -25.1 Q89.8 -28.05 64.55 -42.6 L64.4 -42.7 36.25 -32.7 Q43.9 -44.7 63.95 -42.95 L58.5 -46.05 58.1 -46.15 M25.45 -31.25 L22.05 -31.2 19.6 -31.1 23.7 -26.85 M34.1 -31.95 L33.1 -25.75 M4.15 -46.75 L19.0 -35.95 M4.25 -47.15 L4.15 -46.75 -0.55 -50.2 -5.6 -49.15 -3.55 -45.15 22.05 -31.2 M12.5 -24.9 L7.85 -29.05 Q2.0 -27.2 -1.65 -23.8 L-2.25 -23.2 -4.35 -20.65 0.7 -16.2 2.15 -18.3 3.3 -19.6 M7.85 -29.05 Q12.9 -30.7 19.6 -31.1 M2.15 -18.3 L6.8 -13.1 8.55 -15.05 M13.4 -4.95 Q13.1 -7.1 13.1 -9.3 L8.95 -15.45 M6.8 -13.1 L13.4 -4.95 Q15.6 12.05 35.1 25.9 L35.15 25.9 Q44.35 32.1 57.5 33.7 24.85 14.55 13.8 -16.4 13.1 -12.8 13.1 -9.3 M6.8 -13.1 L5.55 -11.45 18.2 14.6 39.95 32.85 40.2 32.95 Q46.35 34.9 54.1 35.3 L101.55 67.45 Q88.65 58.2 77.4 45.3 98.2 56.65 113.0 74.9 L107.35 71.35 Q104.4 69.5 101.55 67.45 M113.05 75.05 Q116.95 72.7 124.75 71.7 107.75 42.35 84.3 23.5 L84.2 23.5 84.1 23.5 Q69.8 23.35 57.75 33.75 L57.6 33.7 57.5 33.7 M13.8 -16.4 L20.25 -19.1 20.7 -19.05 Q41.65 -16.6 56.0 -9.4 L47.75 -15.3 M63.95 -42.95 L64.4 -42.7 M58.3 -46.15 L58.5 -46.05 M56.0 -9.4 L56.25 -9.3 Q60.6 -7.1 64.35 -4.45 L61.1 -14.6 M68.0 -1.6 L68.15 -1.5 78.85 5.95 M64.9 -4.05 L68.0 -1.6 Q68.5 -5.3 71.6 -4.7 L85.7 5.45 M64.35 -4.45 L64.9 -4.05 79.1 -10.1 80.5 -10.9 80.65 -10.75 87.8 -13.85 95.55 -16.9 90.2 -25.1 M80.65 -10.75 L79.1 -10.1 Q71.9 -5.7 81.05 0.5 84.85 3.15 89.2 5.45 M87.8 -13.85 L89.25 -12.3 Q93.9 -15.9 106.65 -1.45 M112.35 5.5 L112.5 5.6 M112.35 5.5 Q110.85 4.25 108.6 4.3 107.15 4.3 105.95 4.75 L105.05 5.2 Q104.75 5.3 104.5 5.5 102.75 6.75 102.55 8.5 102.3 10.25 103.8 11.45 L104.15 11.75 M89.25 -12.3 L108.0 2.6 105.95 4.75 M105.05 5.2 L102.95 5.0 80.65 -10.75 M81.8 11.8 L78.45 9.05 80.2 13.45 Q82.65 18.05 84.2 23.35 L84.3 23.5 M84.2 23.35 L80.2 13.45 Q75.7 4.9 68.15 -1.5 M113.0 75.05 L113.05 75.05 M112.85 75.1 L113.0 75.05 M110.0 85.1 L110.2 85.2 109.95 85.1 110.0 85.1 110.4 85.35 110.2 85.2 M120.8 91.95 Q116.05 91.95 116.5 95.75 M110.4 85.35 L120.85 91.95 M112.85 75.1 Q107.05 78.65 109.95 85.1 104.25 83.8 98.15 81.6 M134.85 87.0 L134.5 86.95 Q124.95 85.4 124.65 92.65 M7.55 4.85 L7.65 4.85 11.95 16.55 14.75 19.7 11.2 20.45 22.55 29.95 22.7 30.05 22.75 30.1 M6.1 23.75 Q3.7 21.9 1.9 22.2 0.0 22.55 -7.6 25.05 -15.25 27.5 -13.4 37.35 M6.1 23.75 L6.3 23.95 6.15 23.75 Q7.0 20.9 10.85 20.15 L11.2 20.45 M16.5 33.75 L16.2 33.25 6.3 23.95 M70.9 50.35 Q63.55 43.4 48.65 37.55 49.05 40.2 68.75 53.7 70.85 52.9 70.9 50.35 M155.7 106.7 L156.3 107.3 156.9 107.85 M151.9 107.25 Q152.95 106.35 154.25 106.35 L155.7 106.7 M151.9 107.25 L151.7 107.4 Q150.5 108.55 150.3 110.05 150.2 111.0 150.5 111.8 L151.4 113.0 151.4 113.05 M150.5 111.8 L150.7 112.1 151.05 112.65 151.15 112.75 151.4 113.0 M23.35 -9.3 Q42.0 4.5 55.05 23.85 34.35 10.1 23.35 -9.3 M84.1 23.5 Q62.35 -9.0 20.7 -19.05 M-47.2 -113.75 L-38.55 -107.85 -34.55 -100.0 -1.8 -35.7 -1.25 -35.15 1.55 -35.1 -3.55 -45.15 M-34.55 -100.0 L-44.8 -103.8 M-102.75 -2.55 L-104.95 -1.85 -156.3 13.65 M-102.75 -2.55 L-70.4 -12.3 -72.55 -15.45 M-35.4 -68.2 Q-29.75 -60.1 -23.9 -53.35 L-20.95 -50.0 Q-15.65 -44.15 -10.15 -39.4 L-1.8 -35.7 M-8.8 -54.95 L-7.35 -52.45 -4.2 -52.85 -4.85 -53.3 -8.2 -55.7 M-2.35 -51.45 L-4.2 -52.85 M-0.55 -50.2 L-2.35 -51.45 Q-0.45 -55.85 1.45 -58.4 M-47.05 -40.3 L-48.2 -38.3 -43.85 -33.9 -42.95 -35.45 -47.05 -40.3 -54.8 -38.65 -51.2 -37.4 -48.2 -38.3 M-53.95 -30.6 L-54.05 -30.45 -58.4 -26.9 -64.45 -33.75 -57.15 -38.0 -52.75 -32.55 -53.95 -30.6 -57.4 -35.55 -61.3 -32.7 -58.4 -26.9 M-49.65 -32.35 L-43.85 -33.9 M-57.15 -38.0 L-57.4 -35.55 M-54.8 -38.65 L-49.65 -32.35 -51.2 -37.4 M-80.45 -35.95 Q-78.55 -44.0 -65.8 -49.1 -60.95 -51.1 -55.8 -50.35 M-79.25 -29.25 L-80.6 -30.8 M-80.45 -35.95 L-80.75 -33.85 M-61.3 -32.7 L-64.45 -33.75 M-70.4 -12.3 L-65.05 -5.25 Q-61.15 -0.35 -56.0 5.0 L-54.65 0.45 -54.65 0.4 -62.95 -9.6 -73.75 -22.65 -79.25 -29.25 Q-75.4 -45.05 -53.1 -49.75 M-53.8 -2.35 L-49.05 -4.0 Q-39.15 -21.05 -14.75 -15.95 L-14.5 -16.0 -22.1 -22.95 Q-55.6 -24.95 -54.65 0.4 L-53.85 -2.35 -53.8 -2.35 -34.45 20.15 7.55 4.85 -2.1 -4.35 -7.8 -9.75 -14.15 -15.8 -14.5 -16.0 -14.45 -16.05 -14.15 -15.8 M-73.75 -22.65 Q-69.0 -43.4 -43.9 -42.9 M-10.15 -39.4 L-19.75 -43.6 -25.05 -45.95 -30.05 -47.85 M-29.65 -46.45 L-29.35 -45.15 -27.35 -42.4 -7.1 -14.25 Q-6.25 -17.8 -4.35 -20.65 M-30.5 -30.75 L-30.55 -30.7 -30.0 -30.2 -30.5 -30.75 -37.9 -40.15 -27.35 -42.4 M-30.55 -30.7 Q-58.25 -35.4 -62.95 -9.6 M-7.1 -14.25 Q-7.65 -12.15 -7.8 -9.75 M-2.25 -23.2 L-6.05 -27.5 -1.65 -23.8 M-30.0 -30.2 L-22.1 -22.95 M-43.35 -42.45 L-30.55 -30.7 M-49.05 -4.0 L-14.75 -15.95 M-5.6 -49.15 L-7.35 -52.45 M-19.75 -43.6 Q-19.65 -46.85 -20.95 -50.0 M-23.9 -53.35 Q-25.5 -49.75 -25.05 -45.95 M-35.85 34.9 L-36.15 34.6 -36.2 35.05 -35.85 34.9 11.95 16.55 M-36.2 35.25 L-36.15 35.15 -35.85 34.9 M-36.2 35.05 L-56.35 6.2 -56.0 5.0 M-29.95 40.2 Q-32.95 34.65 -22.25 32.35 -17.8 35.2 -15.3 38.1 M-34.45 20.15 L-36.15 34.6 M-65.05 -5.25 L-97.85 3.9 -103.7 -2.2 M-4.85 -53.3 Q0.4 -65.25 12.9 -66.4 M0.7 -16.2 Q-2.2 -11.4 -2.1 -4.35" fill="none" stroke="#000000" stroke-linecap="round" stroke-linejoin="round" stroke-width="1.0"/>
    <path d="M67.85 -51.75 L65.7 -54.1 M63.4 -50.15 L61.25 -52.5 M65.7 -51.05 L63.55 -53.45 M58.85 -48.75 L56.7 -51.15 M61.1 -49.5 L58.95 -51.85 M-88.2 -1.0 L-91.1 -4.55 M-84.9 -1.85 L-87.85 -5.4 M-81.6 -3.05 L-84.55 -6.55 M-91.45 -0.15 L-94.35 -3.7 M-72.4 -5.55 L-75.35 -9.1 M-75.5 -4.7 L-78.45 -8.25 M-78.5 -3.9 L-81.45 -7.4" fill="none" stroke="#0000ff" stroke-linecap="round" stroke-linejoin="round" stroke-width="1.0"/>
    <path d="M86.7 6.6 L86.7 7.15 Q86.6 7.9 85.9 8.5 85.1 9.05 84.1 9.05 L83.15 8.85 82.85 8.75 M20.85 33.75 L19.9 34.15 17.35 34.2 16.85 34.0 16.5 33.75 M-12.25 44.7 Q-11.95 45.0 -11.9 45.5 -11.8 46.35 -12.6 47.25 -13.45 48.15 -14.65 48.55 -15.95 48.9 -16.85 48.55 L-17.35 48.25 Q-17.9 47.9 -17.95 47.3 -18.05 46.45 -17.2 45.55 -16.4 44.65 -15.15 44.3 L-12.9 44.25 Q-12.5 44.4 -12.25 44.7 M85.7 5.45 L86.2 5.8 86.7 6.6 M85.7 5.45 L84.55 5.25 Q83.55 5.2 82.8 5.8 82.0 6.35 81.9 7.15 81.8 7.9 82.5 8.5 M22.75 30.1 L23.1 30.9 Q23.2 31.8 22.25 32.75 21.65 33.35 20.85 33.75 M16.2 33.25 L16.2 33.0 Q16.05 32.05 17.0 31.1 17.95 30.2 19.4 29.75 L21.9 29.65 Q22.3 29.75 22.55 29.95 M5.0 47.05 Q5.0 49.2 7.05 50.35 9.05 51.5 12.0 51.05 14.9 50.55 16.9 48.7 18.9 46.85 18.9 44.7 18.9 42.5 16.9 41.4 14.8 40.2 11.9 40.7 9.0 41.15 7.0 43.0 4.95 44.85 5.0 47.05" fill="none" stroke="#000000" stroke-linecap="round" stroke-linejoin="round" stroke-width="1.0"/>
    <path d="M-113.7 44.8 L-117.6 35.8 -157.3 22.1 -156.3 13.65 -154.7 0.3" fill="none" stroke="#0d0d0d" stroke-linecap="round" stroke-linejoin="round" stroke-width="1.0"/>
  </g>
  <defs>
    <linearGradient gradientTransform="matrix(0.0209, 0.0334, 0.0081, -0.0074, -24.85, -67.8)" gradientUnits="userSpaceOnUse" id="gradient0" spreadMethod="pad" x1="-819.2" x2="819.2">
      <stop offset="0.0" stop-color="#fff9bc"/>
      <stop offset="0.27450980392156865" stop-color="#b5b367"/>
      <stop offset="0.6784313725490196" stop-color="#66888c"/>
      <stop offset="0.9098039215686274" stop-color="#262d32"/>
    </linearGradient>
    <linearGradient gradientTransform="matrix(-4.0E-4, -0.0028, -0.0227, 0.0079, -84.3, -3.05)" gradientUnits="userSpaceOnUse" id="gradient1" spreadMethod="pad" x1="-819.2" x2="819.2">
      <stop offset="0.0" stop-color="#0099ff"/>
      <stop offset="1.0" stop-color="#00ffff"/>
    </linearGradient>
    <linearGradient gradientTransform="matrix(0.0057, 0.0424, -0.0751, 0.0206, -92.3, 30.65)" gradientUnits="userSpaceOnUse" id="gradient2" spreadMethod="pad" x1="-819.2" x2="819.2">
      <stop offset="0.0" stop-color="#00ccff"/>
      <stop offset="0.21568627450980393" stop-color="#0099cc"/>
      <stop offset="0.6196078431372549" stop-color="#2818d3"/>
      <stop offset="1.0" stop-color="#1d0e99"/>
    </linearGradient>
    <radialGradient cx="0" cy="0" gradientTransform="matrix(-0.0162, 0.0, -0.0022, 0.0189, -30.05, -55.0)" gradientUnits="userSpaceOnUse" id="gradient3" r="819.2" spreadMethod="pad">
      <stop offset="0.0" stop-color="#00ffff"/>
      <stop offset="1.0" stop-color="#00ccff"/>
    </radialGradient>
    <radialGradient cx="0" cy="0" gradientTransform="matrix(-0.0119, 0.0, -0.0016, 0.0139, 1.1, -56.95)" gradientUnits="userSpaceOnUse" id="gradient4" r="819.2" spreadMethod="pad">
      <stop offset="0.0" stop-color="#00ccff"/>
      <stop offset="1.0" stop-color="#000099"/>
    </radialGradient>
    <linearGradient gradientTransform="matrix(-0.0062, 0.0107, 0.0051, 0.0035, 3.75, -58.45)" gradientUnits="userSpaceOnUse" id="gradient5" spreadMethod="pad" x1="-819.2" x2="819.2">
      <stop offset="0.0" stop-color="#93b4c4"/>
      <stop offset="0.22745098039215686" stop-color="#1f222a"/>
      <stop offset="0.5490196078431373" stop-color="#f6f7fb"/>
      <stop offset="0.8784313725490196" stop-color="#40324d"/>
      <stop offset="1.0" stop-color="#6d598b"/>
    </linearGradient>
    <radialGradient cx="0" cy="0" gradientTransform="matrix(-0.0204, 0.0, -0.0028, 0.0238, -69.9, -45.45)" gradientUnits="userSpaceOnUse" id="gradient6" r="819.2" spreadMethod="pad">
      <stop offset="0.0" stop-color="#ffffff"/>
      <stop offset="1.0" stop-color="#8682a4"/>
    </radialGradient>
    <linearGradient gradientTransform="matrix(-0.0155, 0.0171, 0.0077, 0.0096, -63.95, -35.55)" gradientUnits="userSpaceOnUse" id="gradient7" spreadMethod="pad" x1="-819.2" x2="819.2">
      <stop offset="0.0" stop-color="#000066"/>
      <stop offset="0.10980392156862745" stop-color="#261430"/>
      <stop offset="0.2235294117647059" stop-color="#000033"/>
      <stop offset="0.3686274509803922" stop-color="#000066"/>
      <stop offset="0.5568627450980392" stop-color="#00ccff"/>
      <stop offset="0.7254901960784313" stop-color="#fbfcfe"/>
      <stop offset="0.8745098039215686" stop-color="#2f2fe3"/>
      <stop offset="1.0" stop-color="#2b1f66"/>
    </linearGradient>
    <linearGradient gradientTransform="matrix(-0.0144, 0.0175, 0.0131, 0.0142, -54.7, -26.0)" gradientUnits="userSpaceOnUse" id="gradient8" spreadMethod="pad" x1="-819.2" x2="819.2">
      <stop offset="0.0" stop-color="#ffffff"/>
      <stop offset="0.16862745098039217" stop-color="#302e3c"/>
      <stop offset="0.403921568627451" stop-color="#3f355b"/>
      <stop offset="0.592156862745098" stop-color="#9bb5e6"/>
      <stop offset="0.7450980392156863" stop-color="#fbfcfe"/>
      <stop offset="0.8745098039215686" stop-color="#8aa7a3"/>
      <stop offset="1.0" stop-color="#ffffff"/>
    </linearGradient>
    <radialGradient cx="0" cy="0" gradientTransform="matrix(-0.0282, 0.0, -0.0039, 0.0331, -41.9, 18.8)" gradientUnits="userSpaceOnUse" id="gradient9" r="819.2" spreadMethod="pad">
      <stop offset="0.0" stop-color="#ffff99"/>
      <stop offset="1.0" stop-color="#ffffff"/>
    </radialGradient>
    <linearGradient gradientTransform="matrix(-0.0151, 0.0169, 0.0103, 0.0124, -36.65, -10.9)" gradientUnits="userSpaceOnUse" id="gradient10" spreadMethod="pad" x1="-819.2" x2="819.2">
      <stop offset="0.0" stop-color="#ffffff"/>
      <stop offset="0.16862745098039217" stop-color="#302e3c"/>
      <stop offset="0.403921568627451" stop-color="#3f355b"/>
      <stop offset="0.592156862745098" stop-color="#9bb5e6"/>
      <stop offset="0.7450980392156863" stop-color="#fbfcfe"/>
      <stop offset="0.8745098039215686" stop-color="#8aa7a3"/>
      <stop offset="1.0" stop-color="#ffffff"/>
    </linearGradient>
    <linearGradient gradientTransform="matrix(-0.0147, 0.0272, 0.0298, 0.0185, -27.25, 8.6)" gradientUnits="userSpaceOnUse" id="gradient11" spreadMethod="pad" x1="-819.2" x2="819.2">
      <stop offset="0.0" stop-color="#ffffff"/>
      <stop offset="1.0" stop-color="#6577ab"/>
    </linearGradient>
    <radialGradient cx="0" cy="0" gradientTransform="matrix(-0.0403, 0.0, -0.0056, 0.0472, 22.5, -33.1)" gradientUnits="userSpaceOnUse" id="gradient12" r="819.2" spreadMethod="pad">
      <stop offset="0.0" stop-color="#000099"/>
      <stop offset="1.0" stop-color="#0066ff"/>
    </radialGradient>
    <linearGradient gradientTransform="matrix(-0.0071, 0.0101, 0.0242, 0.0212, -7.65, -34.2)" gradientUnits="userSpaceOnUse" id="gradient13" spreadMethod="pad" x1="-819.2" x2="819.2">
      <stop offset="0.0" stop-color="#000099"/>
      <stop offset="0.5176470588235295" stop-color="#0066ff"/>
      <stop offset="0.984313725490196" stop-color="#000099"/>
    </linearGradient>
    <radialGradient cx="0" cy="0" gradientTransform="matrix(-0.0312, 0.0, -0.0043, 0.0366, -30.0, -55.3)" gradientUnits="userSpaceOnUse" id="gradient14" r="819.2" spreadMethod="pad">
      <stop offset="0.0" stop-color="#00ffff"/>
      <stop offset="1.0" stop-color="#00ccff"/>
    </radialGradient>
    <radialGradient cx="0" cy="0" gradientTransform="matrix(-0.0483, 0.0, -0.0067, 0.0566, -8.9, -13.15)" gradientUnits="userSpaceOnUse" id="gradient15" r="819.2" spreadMethod="pad">
      <stop offset="0.0" stop-color="#000099"/>
      <stop offset="1.0" stop-color="#0066ff"/>
    </radialGradient>
    <linearGradient gradientTransform="matrix(-0.0134, 0.0169, 0.0119, 0.0124, -44.55, -17.1)" gradientUnits="userSpaceOnUse" id="gradient16" spreadMethod="pad" x1="-819.2" x2="819.2">
      <stop offset="0.0" stop-color="#000066"/>
      <stop offset="0.10980392156862745" stop-color="#261430"/>
      <stop offset="0.2235294117647059" stop-color="#000033"/>
      <stop offset="0.3686274509803922" stop-color="#000066"/>
      <stop offset="0.5568627450980392" stop-color="#00ccff"/>
      <stop offset="0.7254901960784313" stop-color="#fbfcfe"/>
      <stop offset="0.8745098039215686" stop-color="#2f2fe3"/>
      <stop offset="1.0" stop-color="#2b1f66"/>
    </linearGradient>
    <radialGradient cx="0" cy="0" gradientTransform="matrix(-0.0107, 0.0, -0.0015, 0.0125, -7.35, -10.75)" gradientUnits="userSpaceOnUse" id="gradient17" r="819.2" spreadMethod="pad">
      <stop offset="0.0" stop-color="#cccccc"/>
      <stop offset="1.0" stop-color="#333333"/>
    </radialGradient>
    <radialGradient cx="0" cy="0" gradientTransform="matrix(-0.016, 0.0, -0.0022, 0.0188, 7.8, -28.35)" gradientUnits="userSpaceOnUse" id="gradient18" r="819.2" spreadMethod="pad">
      <stop offset="0.0" stop-color="#cccccc"/>
      <stop offset="1.0" stop-color="#333333"/>
    </radialGradient>
    <linearGradient gradientTransform="matrix(-0.0154, 0.0106, 0.003, 0.007, -34.35, -9.95)" gradientUnits="userSpaceOnUse" id="gradient19" spreadMethod="pad" x1="-819.2" x2="819.2">
      <stop offset="0.0" stop-color="#000000"/>
      <stop offset="0.3176470588235294" stop-color="#726b94"/>
      <stop offset="0.5254901960784314" stop-color="#ffffff"/>
      <stop offset="0.7411764705882353" stop-color="#8da5cc"/>
      <stop offset="0.9411764705882353" stop-color="#2a3a37"/>
    </linearGradient>
    <linearGradient gradientTransform="matrix(-0.0089, 0.0168, 0.0161, 0.0096, 35.7, -36.55)" gradientUnits="userSpaceOnUse" id="gradient20" spreadMethod="pad" x1="-819.2" x2="819.2">
      <stop offset="0.0" stop-color="#000066"/>
      <stop offset="0.16470588235294117" stop-color="#000099"/>
      <stop offset="0.403921568627451" stop-color="#0099ff"/>
      <stop offset="0.6862745098039216" stop-color="#000033"/>
      <stop offset="1.0" stop-color="#000000"/>
    </linearGradient>
    <linearGradient gradientTransform="matrix(-4.0E-4, -0.0029, -0.0177, 0.0058, 63.85, -50.8)" gradientUnits="userSpaceOnUse" id="gradient21" spreadMethod="pad" x1="-819.2" x2="819.2">
      <stop offset="0.0" stop-color="#0099ff"/>
      <stop offset="1.0" stop-color="#00ffff"/>
    </linearGradient>
    <linearGradient gradientTransform="matrix(0.0031, 0.0163, 0.0453, -0.0182, 97.45, -50.9)" gradientUnits="userSpaceOnUse" id="gradient22" spreadMethod="pad" x1="-819.2" x2="819.2">
      <stop offset="0.0" stop-color="#00ccff"/>
      <stop offset="0.21568627450980393" stop-color="#0099cc"/>
      <stop offset="0.6196078431372549" stop-color="#2818d3"/>
      <stop offset="1.0" stop-color="#1d0e99"/>
    </linearGradient>
    <linearGradient gradientTransform="matrix(-0.0067, 0.0148, 0.0107, 0.0053, 9.25, -52.0)" gradientUnits="userSpaceOnUse" id="gradient23" spreadMethod="pad" x1="-819.2" x2="819.2">
      <stop offset="0.0" stop-color="#000066"/>
      <stop offset="0.16470588235294117" stop-color="#000099"/>
      <stop offset="0.403921568627451" stop-color="#0099ff"/>
      <stop offset="0.6862745098039216" stop-color="#000033"/>
      <stop offset="1.0" stop-color="#000000"/>
    </linearGradient>
    <linearGradient gradientTransform="matrix(-0.0075, 0.0144, 0.0177, 0.0105, 23.05, -48.55)" gradientUnits="userSpaceOnUse" id="gradient24" spreadMethod="pad" x1="-819.2" x2="819.2">
      <stop offset="0.0" stop-color="#93b4c4"/>
      <stop offset="0.22745098039215686" stop-color="#1f222a"/>
      <stop offset="0.5490196078431373" stop-color="#f6f7fb"/>
      <stop offset="0.8784313725490196" stop-color="#40324d"/>
      <stop offset="1.0" stop-color="#6d598b"/>
    </linearGradient>
    <linearGradient gradientTransform="matrix(-0.0082, 0.0158, 0.0126, 0.0074, 46.1, -34.7)" gradientUnits="userSpaceOnUse" id="gradient25" spreadMethod="pad" x1="-819.2" x2="819.2">
      <stop offset="0.0" stop-color="#93b4c4"/>
      <stop offset="0.22745098039215686" stop-color="#1f222a"/>
      <stop offset="0.5490196078431373" stop-color="#f6f7fb"/>
      <stop offset="0.8784313725490196" stop-color="#40324d"/>
      <stop offset="1.0" stop-color="#6d598b"/>
    </linearGradient>
    <linearGradient gradientTransform="matrix(0.0145, 0.0099, 0.0022, -0.0038, 47.05, -19.85)" gradientUnits="userSpaceOnUse" id="gradient26" spreadMethod="pad" x1="-819.2" x2="819.2">
      <stop offset="0.0" stop-color="#fbfed4"/>
      <stop offset="0.5294117647058824" stop-color="#ffffff"/>
      <stop offset="1.0" stop-color="#edab93"/>
    </linearGradient>
    <radialGradient cx="0" cy="0" gradientTransform="matrix(-0.0489, 0.0, -0.0068, 0.0573, 8.55, -21.0)" gradientUnits="userSpaceOnUse" id="gradient27" r="819.2" spreadMethod="pad">
      <stop offset="0.0" stop-color="#00ccff"/>
      <stop offset="1.0" stop-color="#000066"/>
    </radialGradient>
    <linearGradient gradientTransform="matrix(-0.0023, 0.0206, 0.0347, -2.0E-4, 61.6, -23.85)" gradientUnits="userSpaceOnUse" id="gradient28" spreadMethod="pad" x1="-819.2" x2="819.2">
      <stop offset="0.0" stop-color="#ffffff"/>
      <stop offset="1.0" stop-color="#6577ab"/>
    </linearGradient>
    <radialGradient cx="0" cy="0" gradientTransform="matrix(-0.0142, 0.0, -0.002, 0.0166, 30.2, -27.5)" gradientUnits="userSpaceOnUse" id="gradient29" r="819.2" spreadMethod="pad">
      <stop offset="0.0" stop-color="#cccccc"/>
      <stop offset="1.0" stop-color="#333333"/>
    </radialGradient>
    <radialGradient cx="0" cy="0" gradientTransform="matrix(-0.0174, 0.0, -0.0024, 0.0204, 9.75, -29.0)" gradientUnits="userSpaceOnUse" id="gradient30" r="819.2" spreadMethod="pad">
      <stop offset="0.0" stop-color="#cccccc"/>
      <stop offset="1.0" stop-color="#333333"/>
    </radialGradient>
    <linearGradient gradientTransform="matrix(0.0047, -0.0084, -0.0744, -0.0479, 49.9, 44.3)" gradientUnits="userSpaceOnUse" id="gradient31" spreadMethod="pad" x1="-819.2" x2="819.2">
      <stop offset="0.0" stop-color="#0000cc"/>
      <stop offset="0.2627450980392157" stop-color="#2b1f66"/>
      <stop offset="0.6352941176470588" stop-color="#0099ff"/>
      <stop offset="0.8352941176470589" stop-color="#00ccff"/>
    </linearGradient>
    <radialGradient cx="0" cy="0" gradientTransform="matrix(-0.066, 0.0, -0.0092, 0.0773, 16.55, -1.35)" gradientUnits="userSpaceOnUse" id="gradient32" r="819.2" spreadMethod="pad">
      <stop offset="0.011764705882352941" stop-color="#f4bb6a"/>
      <stop offset="0.3607843137254902" stop-color="#a84330"/>
      <stop offset="0.7411764705882353" stop-color="#563f2e"/>
    </radialGradient>
    <linearGradient gradientTransform="matrix(-0.0084, 0.0115, 0.0654, 0.0609, 64.7, 30.7)" gradientUnits="userSpaceOnUse" id="gradient33" spreadMethod="pad" x1="-819.2" x2="819.2">
      <stop offset="0.10196078431372549" stop-color="#293163"/>
      <stop offset="0.3607843137254902" stop-color="#666666"/>
      <stop offset="0.7411764705882353" stop-color="#8291be"/>
      <stop offset="0.8901960784313725" stop-color="#ffffff"/>
    </linearGradient>
    <linearGradient gradientTransform="matrix(0.0125, -0.0165, -0.0352, -0.0345, 51.5, 0.25)" gradientUnits="userSpaceOnUse" id="gradient34" spreadMethod="pad" x1="-819.2" x2="819.2">
      <stop offset="0.0" stop-color="#ffb926"/>
      <stop offset="0.4745098039215686" stop-color="#644300"/>
    </linearGradient>
    <linearGradient gradientTransform="matrix(-0.0071, 0.0144, 0.0111, 0.0061, 48.35, -33.75)" gradientUnits="userSpaceOnUse" id="gradient35" spreadMethod="pad" x1="-819.2" x2="819.2">
      <stop offset="0.0" stop-color="#93b4c4"/>
      <stop offset="0.22745098039215686" stop-color="#1f222a"/>
      <stop offset="0.5490196078431373" stop-color="#f6f7fb"/>
      <stop offset="0.8784313725490196" stop-color="#40324d"/>
      <stop offset="1.0" stop-color="#6d598b"/>
    </linearGradient>
    <radialGradient cx="0" cy="0" gradientTransform="matrix(-0.0655, 0.0, -0.0091, 0.0767, 44.5, -12.6)" gradientUnits="userSpaceOnUse" id="gradient36" r="819.2" spreadMethod="pad">
      <stop offset="0.011764705882352941" stop-color="#f4bb6a"/>
      <stop offset="0.3607843137254902" stop-color="#a84330"/>
      <stop offset="0.7411764705882353" stop-color="#563f2e"/>
    </radialGradient>
    <linearGradient gradientTransform="matrix(-0.0062, 0.0062, 0.0082, 0.0115, 82.85, -20.35)" gradientUnits="userSpaceOnUse" id="gradient37" spreadMethod="pad" x1="-819.2" x2="819.2">
      <stop offset="0.0" stop-color="#69779e"/>
      <stop offset="1.0" stop-color="#312127"/>
    </linearGradient>
    <linearGradient gradientTransform="matrix(0.0015, -0.0023, -0.0093, -0.0072, 77.05, 0.95)" gradientUnits="userSpaceOnUse" id="gradient38" spreadMethod="pad" x1="-819.2" x2="819.2">
      <stop offset="0.0" stop-color="#b17185"/>
      <stop offset="0.4549019607843137" stop-color="#5d3f50"/>
      <stop offset="0.8313725490196079" stop-color="#ffffff"/>
    </linearGradient>
    <linearGradient gradientTransform="matrix(0.0022, -0.0036, -0.0167, -0.0122, 91.0, 0.85)" gradientUnits="userSpaceOnUse" id="gradient39" spreadMethod="pad" x1="-819.2" x2="819.2">
      <stop offset="0.0" stop-color="#302a2f"/>
      <stop offset="0.4549019607843137" stop-color="#863438"/>
      <stop offset="0.8313725490196079" stop-color="#ffffff"/>
    </linearGradient>
    <linearGradient gradientTransform="matrix(9.0E-4, -0.0013, -0.0139, -0.0112, 101.9, -5.0)" gradientUnits="userSpaceOnUse" id="gradient40" spreadMethod="pad" x1="-819.2" x2="819.2">
      <stop offset="0.0" stop-color="#b17185"/>
      <stop offset="0.4549019607843137" stop-color="#5d3f50"/>
      <stop offset="0.8313725490196079" stop-color="#ffffff"/>
    </linearGradient>
    <linearGradient gradientTransform="matrix(-0.0045, 0.0056, 0.0322, 0.0332, 100.55, 41.6)" gradientUnits="userSpaceOnUse" id="gradient41" spreadMethod="pad" x1="-819.2" x2="819.2">
      <stop offset="0.0" stop-color="#0000cc"/>
      <stop offset="0.2627450980392157" stop-color="#2b1f66"/>
      <stop offset="0.6352941176470588" stop-color="#0099ff"/>
      <stop offset="0.8352941176470589" stop-color="#00ccff"/>
    </linearGradient>
    <radialGradient cx="0" cy="0" gradientTransform="matrix(-0.03, 0.0, -0.0042, 0.0352, 96.3, 60.4)" gradientUnits="userSpaceOnUse" id="gradient42" r="819.2" spreadMethod="pad">
      <stop offset="0.0" stop-color="#ffffff"/>
      <stop offset="1.0" stop-color="#ffff99"/>
    </radialGradient>
    <linearGradient gradientTransform="matrix(0.0047, -0.0072, -0.0704, -0.056, 50.05, 42.55)" gradientUnits="userSpaceOnUse" id="gradient43" spreadMethod="pad" x1="-819.2" x2="819.2">
      <stop offset="0.0" stop-color="#cf231d"/>
      <stop offset="0.2627450980392157" stop-color="#2b1f66"/>
      <stop offset="0.5333333333333333" stop-color="#b62e2c"/>
    </linearGradient>
    <linearGradient gradientTransform="matrix(-0.0039, 0.0055, 0.0123, 0.0111, 121.8, 84.4)" gradientUnits="userSpaceOnUse" id="gradient44" spreadMethod="pad" x1="-819.2" x2="819.2">
      <stop offset="0.0" stop-color="#131330"/>
      <stop offset="0.4549019607843137" stop-color="#ffffff"/>
      <stop offset="0.7294117647058823" stop-color="#883924"/>
      <stop offset="0.9372549019607843" stop-color="#c27873"/>
    </linearGradient>
    <linearGradient gradientTransform="matrix(-0.0013, 0.0022, 0.0125, 0.0086, 108.75, 87.9)" gradientUnits="userSpaceOnUse" id="gradient45" spreadMethod="pad" x1="-819.2" x2="819.2">
      <stop offset="0.0" stop-color="#131330"/>
      <stop offset="0.4549019607843137" stop-color="#ffffff"/>
      <stop offset="0.7294117647058823" stop-color="#883924"/>
      <stop offset="0.9372549019607843" stop-color="#c27873"/>
    </linearGradient>
    <linearGradient gradientTransform="matrix(-0.0014, 0.0018, 0.0053, 0.0051, 121.6, 97.05)" gradientUnits="userSpaceOnUse" id="gradient46" spreadMethod="pad" x1="-819.2" x2="819.2">
      <stop offset="0.0" stop-color="#131330"/>
      <stop offset="1.0" stop-color="#ffffff"/>
    </linearGradient>
    <linearGradient gradientTransform="matrix(-0.0027, 0.0041, 0.0174, 0.0141, 140.8, 99.35)" gradientUnits="userSpaceOnUse" id="gradient47" spreadMethod="pad" x1="-819.2" x2="819.2">
      <stop offset="0.0" stop-color="#131330"/>
      <stop offset="0.4549019607843137" stop-color="#ffffff"/>
      <stop offset="0.7294117647058823" stop-color="#883924"/>
      <stop offset="0.9372549019607843" stop-color="#c27873"/>
    </linearGradient>
    <linearGradient gradientTransform="matrix(-0.0081, 0.0095, 0.0134, 0.0153, -5.25, 11.2)" gradientUnits="userSpaceOnUse" id="gradient48" spreadMethod="pad" x1="-819.2" x2="819.2">
      <stop offset="0.0" stop-color="#69779e"/>
      <stop offset="1.0" stop-color="#312127"/>
    </linearGradient>
    <linearGradient gradientTransform="matrix(-0.0088, 0.0108, 0.0156, 0.0168, 4.0, 37.6)" gradientUnits="userSpaceOnUse" id="gradient49" spreadMethod="pad" x1="-819.2" x2="819.2">
      <stop offset="0.0" stop-color="#a83835"/>
      <stop offset="0.1411764705882353" stop-color="#19110c"/>
      <stop offset="0.30196078431372547" stop-color="#412e68"/>
      <stop offset="0.6078431372549019" stop-color="#f9f7ec"/>
      <stop offset="0.807843137254902" stop-color="#90904c"/>
      <stop offset="0.8823529411764706" stop-color="#423624"/>
    </linearGradient>
    <linearGradient gradientTransform="matrix(-0.002, 0.0027, 0.0076, 0.0073, 13.75, 27.4)" gradientUnits="userSpaceOnUse" id="gradient50" spreadMethod="pad" x1="-819.2" x2="819.2">
      <stop offset="0.0" stop-color="#19110c"/>
      <stop offset="0.30196078431372547" stop-color="#6b5850"/>
      <stop offset="0.5490196078431373" stop-color="#ffffff"/>
      <stop offset="0.807843137254902" stop-color="#90904c"/>
    </linearGradient>
    <linearGradient gradientTransform="matrix(-4.0E-4, 8.0E-4, 0.0133, 0.0091, 59.7, 44.6)" gradientUnits="userSpaceOnUse" id="gradient51" spreadMethod="pad" x1="-819.2" x2="819.2">
      <stop offset="0.0" stop-color="#a74a2e"/>
      <stop offset="1.0" stop-color="#fccc72"/>
    </linearGradient>
    <linearGradient gradientTransform="matrix(0.0019, 0.0269, 0.0559, -0.0141, -75.05, 16.65)" gradientUnits="userSpaceOnUse" id="gradient52" spreadMethod="pad" x1="-819.2" x2="819.2">
      <stop offset="0.0" stop-color="#00ccff"/>
      <stop offset="0.21568627450980393" stop-color="#0099cc"/>
      <stop offset="0.6196078431372549" stop-color="#2818d3"/>
      <stop offset="1.0" stop-color="#1d0e99"/>
    </linearGradient>
    <linearGradient gradientTransform="matrix(-0.0037, 0.0047, 0.0083, 0.0085, -21.45, 40.75)" gradientUnits="userSpaceOnUse" id="gradient53" spreadMethod="pad" x1="-819.2" x2="819.2">
      <stop offset="0.0" stop-color="#a83835"/>
      <stop offset="0.1411764705882353" stop-color="#19110c"/>
      <stop offset="0.30196078431372547" stop-color="#412e68"/>
      <stop offset="0.6078431372549019" stop-color="#f9f7ec"/>
      <stop offset="0.807843137254902" stop-color="#90904c"/>
      <stop offset="0.8823529411764706" stop-color="#423624"/>
    </linearGradient>
    <radialGradient cx="0" cy="0" gradientTransform="matrix(-0.0296, 0.0, -0.0041, 0.0347, 38.25, 6.35)" gradientUnits="userSpaceOnUse" id="gradient54" r="819.2" spreadMethod="pad">
      <stop offset="0.0" stop-color="#ffffff"/>
      <stop offset="1.0" stop-color="#ffff99"/>
    </radialGradient>
  </defs>
</svg>
