<?xml version="1.0" encoding="UTF-8" standalone="no"?>
<svg xmlns:ffdec="https://www.free-decompiler.com/flash" xmlns:xlink="http://www.w3.org/1999/xlink" ffdec:objectType="shape" height="116.0px" width="112.0px" xmlns="http://www.w3.org/2000/svg">
  <g transform="matrix(1.0, 0.0, 0.0, 1.0, 56.0, 57.5)">
    <path d="M-16.4 -53.4 L15.8 -53.4 15.8 -55.3 -16.4 -55.3 -16.4 -53.4 -16.4 -52.9 -22.35 -52.9 -22.35 -40.05 -19.4 -40.05 -19.4 -48.4 17.95 -48.4 17.95 -37.15 -19.4 -37.15 -19.4 -40.05 -19.4 -37.15 17.95 -37.15 17.95 -48.4 -19.4 -48.4 -19.4 -40.05 -22.35 -40.05 -22.35 -52.9 -16.4 -52.9 -16.4 -53.4 M-23.9 -55.7 L-18.4 -57.0 18.45 -57.0 23.95 -55.7 23.95 -37.25 23.95 -36.95 23.95 -35.25 23.95 -33.5 23.95 -32.3 23.95 -32.05 23.95 22.25 23.95 -32.05 32.05 -32.05 32.05 -29.45 47.8 -29.45 49.9 -24.75 49.9 7.05 49.9 22.9 Q48.2 26.4 46.35 28.5 L46.35 38.7 40.55 42.65 40.55 37.7 40.55 42.65 Q35.55 45.4 29.9 46.8 L23.95 47.85 23.95 36.2 23.95 22.25 Q0.5 37.05 -23.9 22.25 L-23.9 -32.05 -23.9 22.25 -23.9 36.2 -23.9 47.85 -29.85 46.8 -29.85 39.95 -29.85 46.8 Q-35.55 45.4 -40.5 42.65 L-46.3 38.7 -46.3 28.5 Q-48.15 26.4 -49.85 22.9 L-49.85 7.05 -49.85 -24.75 -47.75 -29.45 -32.0 -29.45 -32.0 -32.05 -23.9 -32.05 -23.9 -32.3 -23.9 -33.5 -23.9 -35.25 -23.9 -36.95 -23.9 -37.25 -23.9 -55.7 M46.55 -32.05 L47.8 -29.45 32.05 -29.45 32.05 -32.05 46.55 -32.05 M36.05 -28.95 L33.55 -28.95 33.55 -26.9 31.95 -26.9 31.95 -25.3 33.7 -25.3 33.7 -22.3 36.05 -22.3 36.05 -24.1 36.05 -28.95 M36.05 -16.85 L33.65 -16.85 33.65 -12.8 33.65 -9.1 33.65 -4.95 36.05 -4.95 42.6 -4.95 44.85 -4.95 44.85 -9.1 44.85 -12.8 44.85 -16.85 42.6 -16.85 36.05 -16.85 36.05 -17.45 36.05 -16.85 M32.9 -4.95 L33.65 -4.95 32.9 -4.95 M36.05 -0.75 L33.65 -0.75 33.65 1.25 30.8 1.25 30.8 12.7 33.4 12.7 33.4 12.25 37.05 12.25 37.05 14.2 36.85 14.4 36.4 14.9 Q35.55 15.9 35.4 17.25 L35.35 17.9 Q35.35 19.6 36.4 20.9 L36.85 21.4 37.05 21.6 Q38.45 22.85 40.35 22.85 42.4 22.85 43.85 21.4 45.25 20.0 45.35 17.75 45.25 15.8 43.85 14.4 L42.9 13.6 42.5 13.4 42.5 9.5 47.25 9.5 47.25 1.25 44.85 1.25 44.85 -0.75 42.6 -0.75 36.05 -0.75 M43.5 -28.95 L40.9 -28.95 40.9 -22.3 43.5 -22.3 43.5 -24.1 43.5 -28.95 M44.85 -17.45 L44.85 -16.85 44.85 -17.45 M46.45 -6.05 L46.45 -16.1 46.45 -6.05 M46.35 -28.2 L46.35 -24.2 46.35 -28.2 M33.7 -18.4 L43.65 -18.4 33.7 -18.4 M-43.45 -24.1 L-43.45 -22.3 -40.9 -22.3 -40.9 -28.95 -43.45 -28.95 -43.45 -24.1 M-44.8 -16.85 L-44.8 -12.8 -44.8 -9.1 -44.8 -4.95 -42.6 -4.95 -36.0 -4.95 -33.6 -4.95 -33.6 -9.1 -33.6 -12.8 -33.6 -16.85 -36.0 -16.85 -42.6 -16.85 -44.8 -16.85 -44.8 -17.45 -44.8 -16.85 M-42.6 -0.75 L-44.8 -0.75 -44.8 1.25 -47.2 1.25 -47.2 9.5 -42.5 9.5 -42.5 13.4 -42.85 13.6 -43.8 14.4 Q-45.25 15.8 -45.3 17.75 -45.25 20.0 -43.8 21.4 -42.35 22.85 -40.3 22.85 -38.4 22.85 -37.0 21.6 L-36.8 21.4 -36.35 20.9 Q-35.35 19.6 -35.35 17.9 L-35.4 17.25 Q-35.55 15.9 -36.35 14.9 L-36.8 14.4 -37.0 14.2 -37.0 12.25 -33.35 12.25 -33.35 12.7 -30.75 12.7 -30.75 1.25 -33.6 1.25 -33.6 -0.75 -36.0 -0.75 -42.6 -0.75 M-46.4 -6.05 L-46.4 -16.1 -46.4 -6.05 M-46.3 -28.2 L-46.3 -24.2 -46.3 -28.2 M-36.0 -24.1 L-36.0 -22.3 -33.65 -22.3 -33.65 -25.3 -31.9 -25.3 -31.9 -26.9 -33.5 -26.9 -33.5 -28.95 -36.0 -28.95 -36.0 -24.1 M-36.0 -17.45 L-36.0 -16.85 -36.0 -17.45 M-32.85 -4.95 L-33.6 -4.95 -32.85 -4.95 M-33.65 -18.4 L-43.6 -18.4 -33.65 -18.4 M-37.1 23.0 L-34.35 23.0 -34.35 16.5 -34.35 23.0 -37.1 23.0 M-26.8 28.75 L-28.55 28.75 -26.8 28.75 M-33.05 30.7 L-38.7 30.7 -33.05 30.7 M-40.5 37.7 L-40.5 42.65 -40.5 37.7 M-46.3 28.5 Q-37.35 37.0 -23.9 36.2 -37.35 37.0 -46.3 28.5 M-26.75 32.55 L-34.2 32.55 -26.75 32.55 M-31.35 27.15 L-31.35 24.6 -31.35 27.15 M-41.35 28.95 L-43.4 28.95 -41.35 28.95 M41.35 28.95 L43.45 28.95 41.35 28.95 M37.15 23.0 L34.4 23.0 34.4 16.5 34.4 23.0 37.15 23.0 M29.9 39.95 L29.9 46.8 29.9 39.95 M26.8 28.75 L28.55 28.75 26.8 28.75 M26.8 32.55 L34.25 32.55 26.8 32.55 M33.1 30.7 L38.75 30.7 33.1 30.7 M31.4 27.15 L31.4 24.6 31.4 27.15 M46.35 28.5 Q37.35 37.0 23.95 36.2 37.35 37.0 46.35 28.5 M18.45 -56.1 L-18.4 -56.1 18.45 -56.1 M47.8 22.5 L47.8 -23.25 47.8 22.5 M-47.75 22.5 L-47.75 -23.25 -47.75 22.5" fill="#605030" fill-rule="evenodd" stroke="none"/>
    <path d="M-16.4 -55.3 L15.8 -55.3 15.8 -53.4 -16.4 -53.4 -16.4 -55.3" fill="#404838" fill-rule="evenodd" stroke="none"/>
    <path d="M23.95 -55.7 L46.35 -50.05 46.35 -32.45 46.55 -32.05 32.05 -32.05 23.95 -32.05 23.95 -32.3 23.95 -33.5 33.55 -33.5 43.45 -33.5 43.45 -35.25 43.45 -36.95 33.55 -36.95 33.55 -37.45 33.55 -36.95 23.95 -36.95 23.95 -37.25 23.95 -55.7 M-47.75 -29.45 L-46.5 -32.05 -46.3 -32.45 -46.3 -50.05 -23.9 -55.7 -23.9 -37.25 -23.9 -36.95 -33.5 -36.95 -43.4 -36.95 -43.4 -35.25 -43.4 -33.5 -33.5 -33.5 -23.9 -33.5 -23.9 -32.3 -23.9 -32.05 -32.0 -32.05 -32.0 -29.45 -47.75 -29.45 M43.45 -37.45 L43.45 -36.95 43.45 -37.45 M31.15 -38.9 L31.15 -50.7 31.15 -38.9 M-43.4 -37.45 L-43.4 -36.95 -43.4 -37.45 M-33.5 -37.45 L-33.5 -36.95 -33.5 -37.45 M-31.1 -38.9 L-31.1 -50.7 -31.1 -38.9 M-32.0 -32.05 L-46.5 -32.05 -32.0 -32.05" fill="#706860" fill-rule="evenodd" stroke="none"/>
    <path d="M23.95 57.7 L23.45 58.0 -23.4 58.0 -23.9 57.7 -23.9 47.85 -23.9 36.2 -23.9 22.25 Q0.5 37.05 23.95 22.25 L23.95 36.2 23.95 47.85 23.95 57.7 M36.05 -24.1 L36.05 -22.3 33.7 -22.3 33.7 -25.3 31.95 -25.3 31.95 -26.9 33.55 -26.9 33.55 -28.95 36.05 -28.95 36.05 -24.1 M36.05 -12.8 L36.05 -16.85 42.6 -16.85 42.6 -12.8 36.05 -12.8 42.6 -12.8 42.6 -9.1 36.05 -9.1 36.05 -12.8 M33.65 1.25 L33.65 3.0 33.65 7.05 36.05 7.05 44.85 7.05 44.85 3.0 44.85 1.25 47.25 1.25 47.25 9.5 42.5 9.5 33.4 9.5 33.4 12.25 33.4 12.7 30.8 12.7 30.8 1.25 33.65 1.25 M36.05 3.0 L36.05 -0.75 42.6 -0.75 42.6 3.0 36.05 3.0 M43.5 -24.1 L43.5 -22.3 40.9 -22.3 40.9 -28.95 43.5 -28.95 43.5 -24.1 M-43.45 -28.95 L-40.9 -28.95 -40.9 -22.3 -43.45 -22.3 -43.45 -24.1 -43.45 -28.95 M-42.6 -12.8 L-42.6 -16.85 -36.0 -16.85 -36.0 -12.8 -42.6 -12.8 -36.0 -12.8 -36.0 -9.1 -42.6 -9.1 -42.6 -12.8 M-42.6 -0.75 L-36.0 -0.75 -36.0 3.0 -42.6 3.0 -42.6 -0.75 M-33.6 1.25 L-30.75 1.25 -30.75 12.7 -33.35 12.7 -33.35 12.25 -33.35 9.5 -42.5 9.5 -47.2 9.5 -47.2 1.25 -44.8 1.25 -44.8 3.0 -44.8 7.05 -36.0 7.05 -33.6 7.05 -33.6 3.0 -33.6 1.25 M-36.0 -28.95 L-33.5 -28.95 -33.5 -26.9 -31.9 -26.9 -31.9 -25.3 -33.65 -25.3 -33.65 -22.3 -36.0 -22.3 -36.0 -24.1 -36.0 -28.95 M22.95 47.0 L16.45 47.0 12.0 47.0 7.4 47.0 1.5 47.0 -2.95 47.0 -7.45 47.0 -13.35 47.0 -17.9 47.0 -22.4 47.0 -17.9 47.0 -13.35 47.0 -7.45 47.0 -2.95 47.0 1.5 47.0 7.4 47.0 12.0 47.0 16.45 47.0 22.95 47.0 M-16.65 54.7 L-13.35 54.7 -16.65 54.7 M-22.4 53.3 L-22.4 47.0 -22.4 53.3 M-17.9 53.3 L-17.9 47.0 -17.9 53.3 M-13.35 54.7 L-13.35 47.0 -13.35 54.7 M-2.95 53.45 L-2.95 47.0 -2.95 53.45 M-7.45 53.45 L-7.45 47.0 -7.45 53.45 M1.5 53.45 L1.5 47.0 1.5 53.45 M10.75 54.7 L7.4 54.7 10.75 54.7 M7.4 54.7 L7.4 47.0 7.4 54.7 M16.45 53.3 L16.45 47.0 16.45 53.3 M12.0 53.3 L12.0 47.0 12.0 53.3" fill="#303840" fill-rule="evenodd" stroke="none"/>
    <path d="M36.05 -12.8 L33.65 -12.8 36.05 -12.8 36.05 -9.1 33.65 -9.1 33.65 -12.8 33.65 -16.85 36.05 -16.85 36.05 -12.8 M42.6 -12.8 L42.6 -16.85 44.85 -16.85 44.85 -12.8 42.6 -12.8 44.85 -12.8 44.85 -9.1 42.6 -9.1 42.6 -12.8 M36.05 -4.95 L36.05 -9.1 42.6 -9.1 42.6 -4.95 36.05 -4.95 M33.65 -0.75 L36.05 -0.75 36.05 3.0 33.65 3.0 33.65 1.25 33.65 -0.75 M42.6 -0.75 L44.85 -0.75 44.85 1.25 44.85 3.0 44.85 7.05 36.05 7.05 36.05 3.0 42.6 3.0 44.85 3.0 42.6 3.0 42.6 -0.75 M-44.8 -9.1 L-44.8 -12.8 -44.8 -16.85 -42.6 -16.85 -42.6 -12.8 -44.8 -12.8 -42.6 -12.8 -42.6 -9.1 -44.8 -9.1 M-36.0 -12.8 L-36.0 -16.85 -33.6 -16.85 -33.6 -12.8 -36.0 -12.8 -33.6 -12.8 -33.6 -9.1 -36.0 -9.1 -36.0 -12.8 M-42.6 -4.95 L-42.6 -9.1 -36.0 -9.1 -36.0 -4.95 -42.6 -4.95 M-44.8 -0.75 L-42.6 -0.75 -42.6 3.0 -44.8 3.0 -44.8 1.25 -44.8 -0.75 M-36.0 -0.75 L-33.6 -0.75 -33.6 1.25 -33.6 3.0 -36.0 3.0 -36.0 7.05 -44.8 7.05 -44.8 3.0 -42.6 3.0 -36.0 3.0 -36.0 -0.75" fill="#202010" fill-rule="evenodd" stroke="none"/>
    <path d="M33.65 -9.1 L36.05 -9.1 36.05 -4.95 33.65 -4.95 33.65 -9.1 M42.6 -4.95 L42.6 -9.1 44.85 -9.1 44.85 -4.95 42.6 -4.95 M33.65 3.0 L36.05 3.0 36.05 7.05 33.65 7.05 33.65 3.0 M-42.6 -9.1 L-42.6 -4.95 -44.8 -4.95 -44.8 -9.1 -42.6 -9.1 M-36.0 -4.95 L-36.0 -9.1 -33.6 -9.1 -33.6 -4.95 -36.0 -4.95 M-36.0 3.0 L-33.6 3.0 -33.6 7.05 -36.0 7.05 -36.0 3.0" fill="#101010" fill-rule="evenodd" stroke="none"/>
    <path d="M49.9 -24.75 Q53.5 -16.05 54.8 -8.5 56.2 -0.1 54.8 7.0 L54.65 7.65 Q52.45 17.5 49.9 22.9 L49.9 7.05 49.9 -24.75 M51.45 -7.75 L53.0 -7.75 51.45 -7.75 M49.9 7.05 L54.8 7.0 49.9 7.05" fill="url(#gradient0)" fill-rule="evenodd" stroke="none"/>
    <path d="M42.5 13.4 L42.9 13.6 43.85 14.4 Q45.25 15.8 45.35 17.75 45.25 20.0 43.85 21.4 42.4 22.85 40.35 22.85 38.45 22.85 37.05 21.6 L36.85 21.4 36.4 20.9 Q35.35 19.6 35.35 17.9 L35.4 17.25 Q35.55 15.9 36.4 14.9 L36.85 14.4 37.05 14.2 Q38.45 12.9 40.35 12.9 41.5 12.9 42.5 13.4" fill="url(#gradient1)" fill-rule="evenodd" stroke="none"/>
    <path d="M42.5 9.5 L42.5 13.4 Q41.5 12.9 40.35 12.9 38.45 12.9 37.05 14.2 L37.05 12.25 33.4 12.25 33.4 9.5 42.5 9.5 M-33.35 12.25 L-37.0 12.25 -37.0 14.2 Q-38.4 12.9 -40.3 12.9 -41.5 12.9 -42.5 13.4 L-42.5 9.5 -33.35 9.5 -33.35 12.25" fill="#404030" fill-rule="evenodd" stroke="none"/>
    <path d="M46.35 38.7 L46.35 43.8 40.55 47.4 29.9 54.0 23.95 57.7 23.95 47.85 29.9 46.8 29.9 54.0 29.9 46.8 Q35.55 45.4 40.55 42.65 L46.35 38.7 M40.55 47.4 L40.55 42.65 40.55 47.4" fill="url(#gradient2)" fill-rule="evenodd" stroke="none"/>
    <path d="M-49.85 22.9 Q-52.4 17.5 -54.6 7.65 L-54.75 7.0 Q-56.2 -0.1 -54.75 -8.5 -53.45 -16.05 -49.85 -24.75 L-49.85 7.05 -49.85 22.9 M-51.4 -7.75 L-52.95 -7.75 -51.4 -7.75 M-49.85 7.05 L-54.75 7.0 -49.85 7.05" fill="url(#gradient3)" fill-rule="evenodd" stroke="none"/>
    <path d="M-37.0 14.2 L-36.8 14.4 -36.35 14.9 Q-35.55 15.9 -35.4 17.25 L-35.35 17.9 Q-35.35 19.6 -36.35 20.9 L-36.8 21.4 -37.0 21.6 Q-38.4 22.85 -40.3 22.85 -42.35 22.85 -43.8 21.4 -45.25 20.0 -45.3 17.75 -45.25 15.8 -43.8 14.4 L-42.85 13.6 -42.5 13.4 Q-41.5 12.9 -40.3 12.9 -38.4 12.9 -37.0 14.2" fill="url(#gradient4)" fill-rule="evenodd" stroke="none"/>
    <path d="M-23.9 57.7 L-29.85 54.0 -40.5 47.4 -46.3 43.8 -46.3 38.7 -40.5 42.65 Q-35.55 45.4 -29.85 46.8 L-29.85 54.0 -29.85 46.8 -23.9 47.85 -23.9 57.7 M-40.5 47.4 L-40.5 42.65 -40.5 47.4" fill="url(#gradient5)" fill-rule="evenodd" stroke="none"/>
    <path d="M-23.9 -55.7 L-18.4 -57.0 18.45 -57.0 23.95 -55.7 46.35 -50.05 46.35 -32.45 46.55 -32.05 47.8 -29.45 49.9 -24.75 Q53.5 -16.05 54.8 -8.5 56.2 -0.1 54.8 7.0 L54.65 7.65 Q52.45 17.5 49.9 22.9 48.2 26.4 46.35 28.5 L46.35 38.7 46.35 43.8 40.55 47.4 29.9 54.0 23.95 57.7 23.45 58.0 -23.4 58.0 -23.9 57.7 -29.85 54.0 -40.5 47.4 -46.3 43.8 -46.3 38.7 -46.3 28.5 Q-48.15 26.4 -49.85 22.9 -52.4 17.5 -54.6 7.65 L-54.75 7.0 Q-56.2 -0.1 -54.75 -8.5 -53.45 -16.05 -49.85 -24.75 L-47.75 -29.45 -46.5 -32.05 -46.3 -32.45 -46.3 -50.05 -23.9 -55.7 -23.9 -37.25 M-23.9 -32.3 L-23.9 -32.05 -23.9 22.25 -23.9 36.2 Q-37.35 37.0 -46.3 28.5 M23.95 22.25 L23.95 -32.05 23.95 -32.3 M23.95 -37.25 L23.95 -55.7 M32.05 -32.05 L23.95 -32.05 M46.55 -32.05 L32.05 -32.05 M-32.0 -32.05 L-23.9 -32.05 M-46.5 -32.05 L-32.0 -32.05 M-23.9 47.85 L-23.9 36.2 M-23.9 47.85 L-23.9 57.7 M23.95 47.85 L23.95 36.2 23.95 22.25 M23.95 57.7 L23.95 47.85 M23.95 36.2 Q37.35 37.0 46.35 28.5" fill="none" stroke="#101010" stroke-linecap="round" stroke-linejoin="round" stroke-width="1.0"/>
    <path d="M-23.9 -37.25 L-23.9 -36.95 -23.9 -35.25 -23.9 -33.5 -23.9 -32.3 M23.95 -32.3 L23.95 -33.5 23.95 -35.25 23.95 -36.95 23.95 -37.25 M33.55 -36.95 L33.55 -35.25 33.55 -33.5 M43.45 -35.25 L43.45 -36.95 43.45 -37.45 M33.55 -36.95 L33.55 -37.45 M43.45 -33.5 L43.45 -35.25 M-43.4 -33.5 L-43.4 -35.25 -43.4 -36.95 -43.4 -37.45 M-33.5 -35.25 L-33.5 -36.95 -33.5 -37.45 M-33.5 -35.25 L-33.5 -33.5" fill="none" stroke="#000000" stroke-linecap="round" stroke-linejoin="round" stroke-width="2.0"/>
    <path d="M32.05 -32.05 L32.05 -29.45 47.8 -29.45 M36.05 -16.85 L33.65 -16.85 M42.6 -16.85 L36.05 -16.85 M44.85 -16.85 L42.6 -16.85 M42.5 13.4 L42.9 13.6 43.85 14.4 Q45.25 15.8 45.35 17.75 45.25 20.0 43.85 21.4 42.4 22.85 40.35 22.85 38.45 22.85 37.05 21.6 L36.85 21.4 36.4 20.9 Q35.35 19.6 35.35 17.9 L35.4 17.25 Q35.55 15.9 36.4 14.9 L36.85 14.4 37.05 14.2 Q38.45 12.9 40.35 12.9 41.5 12.9 42.5 13.4 M-42.6 -16.85 L-44.8 -16.85 M-36.0 -16.85 L-42.6 -16.85 M-37.0 14.2 L-36.8 14.4 -36.35 14.9 Q-35.55 15.9 -35.4 17.25 L-35.35 17.9 Q-35.35 19.6 -36.35 20.9 L-36.8 21.4 -37.0 21.6 Q-38.4 22.85 -40.3 22.85 -42.35 22.85 -43.8 21.4 -45.25 20.0 -45.3 17.75 -45.25 15.8 -43.8 14.4 L-42.85 13.6 -42.5 13.4 Q-41.5 12.9 -40.3 12.9 -38.4 12.9 -37.0 14.2 M-32.0 -32.05 L-32.0 -29.45 -47.75 -29.45 M-33.6 -16.85 L-36.0 -16.85 M-40.5 42.65 L-40.5 47.4 M-40.5 42.65 L-40.5 37.7 M-29.85 46.8 L-29.85 39.95 M-29.85 54.0 L-29.85 46.8 M40.55 42.65 L40.55 47.4 M40.55 42.65 L40.55 37.7 M29.9 46.8 L29.9 39.95 M29.9 46.8 L29.9 54.0" fill="none" stroke="#202010" stroke-linecap="round" stroke-linejoin="round" stroke-width="1.0"/>
    <path d="M33.55 -35.25 L43.45 -35.25 M33.55 -35.25 L23.95 -35.25 M-33.5 -35.25 L-23.9 -35.25 M-43.4 -35.25 L-33.5 -35.25" fill="none" stroke="#404838" stroke-linecap="round" stroke-linejoin="round" stroke-width="1.5"/>
    <path d="M33.55 -33.5 L43.45 -33.5 M33.55 -33.5 L23.95 -33.5 M-33.5 -33.5 L-23.9 -33.5 M-33.5 -33.5 L-43.4 -33.5" fill="none" stroke="#283040" stroke-linecap="round" stroke-linejoin="round" stroke-width="2.0"/>
    <path d="M43.45 -36.95 L33.55 -36.95 23.95 -36.95 M-33.5 -36.95 L-43.4 -36.95 M-33.5 -36.95 L-23.9 -36.95" fill="none" stroke="#182020" stroke-linecap="round" stroke-linejoin="round" stroke-width="2.0"/>
    <path d="M-16.4 -53.4 L-16.4 -52.9 -22.35 -52.9 -22.35 -40.05 -19.4 -40.05 -19.4 -48.4 17.95 -48.4 17.95 -37.15 -19.4 -37.15 -19.4 -40.05 M36.05 -28.95 L36.05 -24.1 M44.85 -12.8 L44.85 -16.85 44.85 -17.45 M44.85 -9.1 L44.85 -12.8 M44.85 -0.75 L44.85 1.25 44.85 3.0 44.85 7.05 M43.5 -28.95 L43.5 -24.1 M44.85 -4.95 L44.85 -9.1 M46.35 -24.2 L46.35 -28.2 M-16.4 -53.4 L-16.4 -55.3 M-43.45 -28.95 L-43.45 -24.1 M-44.8 -9.1 L-44.8 -12.8 -44.8 -16.85 -44.8 -17.45 M-44.8 -9.1 L-44.8 -4.95 M-44.8 1.25 L-44.8 -0.75 M-46.3 -24.2 L-46.3 -28.2 M-36.0 -28.95 L-36.0 -24.1 M-44.8 7.05 L-44.8 3.0 -44.8 1.25 M-47.75 -23.25 L-47.75 22.5 M47.8 -23.25 L47.8 22.5" fill="none" stroke="#706860" stroke-linecap="round" stroke-linejoin="round" stroke-width="1.0"/>
    <path d="M36.05 -12.8 L36.05 -16.85 36.05 -17.45 M36.05 -9.1 L36.05 -12.8 M36.05 -4.95 L36.05 -9.1 M33.65 -4.95 L36.05 -4.95 42.6 -4.95 44.85 -4.95 M33.65 -4.95 L32.9 -4.95 M36.05 3.0 L36.05 -0.75 M-36.0 -12.8 L-36.0 -16.85 -36.0 -17.45 M-44.8 -4.95 L-42.6 -4.95 -36.0 -4.95 -36.0 -9.1 -36.0 -12.8 M-33.6 -4.95 L-32.85 -4.95 M-33.6 -4.95 L-36.0 -4.95 M-36.0 7.05 L-33.6 7.05 M-36.0 3.0 L-36.0 7.05 -44.8 7.05 M-36.0 3.0 L-36.0 -0.75 M36.05 3.0 L36.05 7.05 44.85 7.05 M36.05 7.05 L33.65 7.05" fill="none" stroke="#605030" stroke-linecap="round" stroke-linejoin="round" stroke-width="1.0"/>
    <path d="M33.65 -12.8 L36.05 -12.8 42.6 -12.8 44.85 -12.8 M33.65 -9.1 L36.05 -9.1 42.6 -9.1 44.85 -9.1 M36.05 -0.75 L33.65 -0.75 M33.65 3.0 L36.05 3.0 42.6 3.0 44.85 3.0 M36.05 -0.75 L42.6 -0.75 44.85 -0.75 M-44.8 -12.8 L-42.6 -12.8 -36.0 -12.8 -33.6 -12.8 M-42.6 -9.1 L-44.8 -9.1 M-36.0 -9.1 L-42.6 -9.1 M-44.8 -0.75 L-42.6 -0.75 -36.0 -0.75 -33.6 -0.75 M-36.0 -9.1 L-33.6 -9.1 M-36.0 3.0 L-33.6 3.0 M-42.6 3.0 L-44.8 3.0 M-42.6 3.0 L-36.0 3.0" fill="none" stroke="#605030" stroke-linecap="round" stroke-linejoin="round" stroke-width="2.0"/>
    <path d="M53.0 -7.75 L51.45 -7.75 M-52.95 -7.75 L-51.4 -7.75" fill="none" stroke="#283040" stroke-linecap="round" stroke-linejoin="round" stroke-width="5.0"/>
    <path d="M46.45 -16.1 L46.45 -6.05 M-46.4 -16.1 L-46.4 -6.05 M-22.4 47.0 L-22.4 53.3 M-17.9 47.0 L-17.9 53.3 M12.0 47.0 L12.0 53.3 M16.45 47.0 L16.45 53.3" fill="none" stroke="#404030" stroke-linecap="round" stroke-linejoin="round" stroke-width="1.5"/>
    <path d="M43.65 -18.4 L33.7 -18.4 M-43.6 -18.4 L-33.65 -18.4" fill="none" stroke="#404030" stroke-linecap="round" stroke-linejoin="round" stroke-width="2.0"/>
    <path d="M31.15 -50.7 L31.15 -38.9 M-31.1 -50.7 L-31.1 -38.9" fill="none" stroke="#889098" stroke-linecap="round" stroke-linejoin="round" stroke-width="4.0"/>
    <path d="M-54.75 7.0 L-49.85 7.05 M54.8 7.0 L49.9 7.05" fill="none" stroke="#283040" stroke-linecap="round" stroke-linejoin="round" stroke-width="1.0"/>
    <path d="M-38.7 30.7 L-33.05 30.7 M-34.2 32.55 L-26.75 32.55 M-43.4 28.95 L-41.35 28.95 M43.45 28.95 L41.35 28.95 M38.75 30.7 L33.1 30.7 M34.25 32.55 L26.8 32.55" fill="none" stroke="#101010" stroke-linecap="round" stroke-linejoin="round" stroke-width="2.0"/>
    <path d="M-29.85 46.8 L-23.9 47.85 M-29.85 46.8 Q-35.55 45.4 -40.5 42.65 L-46.3 38.7 M46.35 38.7 L40.55 42.65 Q35.55 45.4 29.9 46.8 L23.95 47.85" fill="none" stroke="#707870" stroke-linecap="round" stroke-linejoin="round" stroke-width="1.0"/>
    <path d="M-34.35 16.5 L-34.35 23.0 -37.1 23.0 M-31.35 24.6 L-31.35 27.15 M34.4 16.5 L34.4 23.0 37.15 23.0 M31.4 24.6 L31.4 27.15" fill="none" stroke="#303840" stroke-linecap="round" stroke-linejoin="round" stroke-width="2.0"/>
    <path d="M-22.4 47.0 L-17.9 47.0 -13.35 47.0 -7.45 47.0 -2.95 47.0 1.5 47.0 7.4 47.0 12.0 47.0 16.45 47.0 22.95 47.0" fill="none" stroke="#605030" stroke-linecap="round" stroke-linejoin="round" stroke-width="1.5"/>
    <path d="M-28.55 28.75 L-26.8 28.75 M28.55 28.75 L26.8 28.75" fill="none" stroke="#707870" stroke-linecap="round" stroke-linejoin="round" stroke-width="2.0"/>
    <path d="M-13.35 54.7 L-16.65 54.7 M-7.45 47.0 L-7.45 53.45 M-2.95 47.0 L-2.95 53.45 M7.4 54.7 L10.75 54.7 M1.5 47.0 L1.5 53.45" fill="none" stroke="#202010" stroke-linecap="round" stroke-linejoin="round" stroke-width="1.5"/>
    <path d="M-13.35 47.0 L-13.35 54.7 M7.4 47.0 L7.4 54.7" fill="none" stroke="#101010" stroke-linecap="round" stroke-linejoin="round" stroke-width="1.5"/>
    <path d="M-18.4 -56.1 L18.45 -56.1" fill="none" stroke="#586870" stroke-linecap="round" stroke-linejoin="round" stroke-width="1.0"/>
    <path d="M-23.9 22.25 Q0.5 37.05 23.95 22.25" fill="none" stroke="#101010" stroke-linecap="round" stroke-linejoin="round" stroke-width="1.0"/>
    <path d="M5.7 -0.15 L5.95 -0.2 Q6.25 -0.25 6.4 -0.45 L6.95 -1.5 7.95 -3.55 8.15 -4.05 8.3 -6.5 8.15 -7.05 7.5 -8.8 6.9 -9.7 6.4 -10.05 5.0 -10.5 4.65 -10.6 1.95 -11.7 0.15 -11.75 -1.0 -12.6 -1.9 -13.2 -2.45 -13.45 -2.7 -13.65 0.0 -14.0 Q4.15 -14.0 7.05 -11.05 10.0 -8.15 10.0 -4.0 10.0 0.15 7.05 3.05 4.15 6.0 0.0 6.0 -4.15 6.0 -7.05 3.05 -10.0 0.15 -10.0 -4.0 -10.0 -7.65 -7.7 -10.35 L-7.0 -8.2 -6.85 -7.9 -6.35 -7.4 -5.95 -6.85 -5.6 -6.55 Q-6.85 -6.75 -7.35 -5.5 L-7.5 -4.95 -7.5 -2.25 -7.2 -1.4 -6.85 -0.95 -5.7 0.95 -5.2 1.4 -1.95 3.15 -1.3 3.45 -0.75 3.55 Q0.05 3.7 0.5 3.1 L0.85 2.6 1.15 1.65 1.75 1.95 2.8 2.45 3.3 2.5 Q4.25 2.4 4.95 1.7 L5.25 1.25 5.7 -0.1 5.7 -0.15" fill="url(#gradient6)" fill-rule="evenodd" stroke="none"/>
    <path d="M0.15 -11.75 L1.95 -11.7 4.65 -10.6 5.0 -10.5 6.4 -10.05 6.9 -9.7 7.5 -8.8 8.15 -7.05 8.3 -6.5 8.15 -4.05 7.95 -3.55 6.95 -1.5 6.4 -0.45 Q6.25 -0.25 5.95 -0.2 L5.7 -0.15 Q5.85 -1.1 5.5 -2.05 L5.15 -2.6 3.5 -3.85 2.15 -4.3 1.15 -4.35 -0.35 -4.35 Q0.05 -5.25 1.15 -5.7 1.75 -5.95 1.9 -6.65 L2.0 -7.1 2.15 -7.65 Q2.35 -9.55 1.4 -11.0 L0.95 -11.35 0.15 -11.75" fill="url(#gradient7)" fill-rule="evenodd" stroke="none"/>
    <path d="M-5.6 -6.55 L-5.95 -6.85 -6.35 -7.4 -6.85 -7.9 -7.0 -8.2 -7.7 -10.35 -7.05 -11.05 Q-5.2 -12.95 -2.8 -13.6 L-2.7 -13.65 -2.45 -13.45 -1.9 -13.2 -1.0 -12.6 0.15 -11.75 0.95 -11.35 1.4 -11.0 Q2.35 -9.55 2.15 -7.65 L2.0 -7.1 1.9 -6.65 Q1.75 -5.95 1.15 -5.7 0.05 -5.25 -0.35 -4.35 L-2.05 -4.7 -2.7 -4.9 -5.5 -6.45 -5.6 -6.55" fill="url(#gradient8)" fill-rule="evenodd" stroke="none"/>
    <path d="M5.7 -0.15 L5.7 -0.1 5.25 1.25 4.95 1.7 Q4.25 2.4 3.3 2.5 L2.8 2.45 1.75 1.95 1.15 1.65 Q-0.3 0.9 -0.55 -0.9 L-0.6 -1.3 Q-0.8 -2.15 -0.35 -2.35 -0.7 -3.65 -0.35 -4.35 L1.15 -4.35 2.15 -4.3 3.5 -3.85 5.15 -2.6 5.5 -2.05 Q5.85 -1.1 5.7 -0.15" fill="url(#gradient9)" fill-rule="evenodd" stroke="none"/>
    <path d="M1.15 1.65 L0.85 2.6 0.5 3.1 Q0.05 3.7 -0.75 3.55 L-1.3 3.45 -1.95 3.15 -5.2 1.4 -5.7 0.95 -6.85 -0.95 -7.2 -1.4 -7.5 -2.25 -7.5 -4.95 -7.35 -5.5 Q-6.85 -6.75 -5.6 -6.55 L-5.5 -6.45 -2.7 -4.9 -2.05 -4.7 -0.35 -4.35 Q-0.7 -3.65 -0.35 -2.35 -0.8 -2.15 -0.6 -1.3 L-0.55 -0.9 Q-0.3 0.9 1.15 1.65" fill="url(#gradient10)" fill-rule="evenodd" stroke="none"/>
    <path d="M-7.7 -10.35 Q-10.0 -7.65 -10.0 -4.0 -10.0 0.15 -7.05 3.05 -4.15 6.0 0.0 6.0 4.15 6.0 7.05 3.05 10.0 0.15 10.0 -4.0 10.0 -8.15 7.05 -11.05 4.15 -14.0 0.0 -14.0 L-2.7 -13.65 -2.8 -13.6 Q-5.2 -12.95 -7.05 -11.05 L-7.7 -10.35 M20.0 -4.0 Q20.0 4.25 14.15 10.1 8.25 16.0 0.0 16.0 -8.3 16.0 -14.15 10.1 -20.0 4.25 -20.0 -4.0 -20.0 -12.3 -14.15 -18.15 -8.3 -24.0 0.0 -24.0 8.25 -24.0 14.15 -18.15 20.0 -12.3 20.0 -4.0" fill="url(#gradient11)" fill-rule="evenodd" stroke="none"/>
  </g>
  <defs>
    <linearGradient gradientTransform="matrix(-0.0034, 0.0, 0.0, 0.0291, 52.7, -0.95)" gradientUnits="userSpaceOnUse" id="gradient0" spreadMethod="pad" x1="-819.2" x2="819.2">
      <stop offset="0.4823529411764706" stop-color="#404838"/>
      <stop offset="1.0" stop-color="#586870"/>
    </linearGradient>
    <radialGradient cx="0" cy="0" gradientTransform="matrix(-0.0066, 0.0, 0.0, 0.0066, 40.3, 17.9)" gradientUnits="userSpaceOnUse" id="gradient1" r="819.2" spreadMethod="pad">
      <stop offset="0.0" stop-color="#707870"/>
      <stop offset="0.5176470588235295" stop-color="#706860"/>
      <stop offset="0.9490196078431372" stop-color="#605030"/>
    </radialGradient>
    <linearGradient gradientTransform="matrix(0.0012, 0.002, 0.0153, -0.0087, 34.9, 47.75)" gradientUnits="userSpaceOnUse" id="gradient2" spreadMethod="pad" x1="-819.2" x2="819.2">
      <stop offset="0.0" stop-color="#404030"/>
      <stop offset="0.4470588235294118" stop-color="#303840"/>
      <stop offset="0.788235294117647" stop-color="#203808"/>
    </linearGradient>
    <linearGradient gradientTransform="matrix(0.0034, 0.0, 0.0, 0.0291, -52.7, -0.95)" gradientUnits="userSpaceOnUse" id="gradient3" spreadMethod="pad" x1="-819.2" x2="819.2">
      <stop offset="0.4823529411764706" stop-color="#404838"/>
      <stop offset="1.0" stop-color="#586870"/>
    </linearGradient>
    <radialGradient cx="0" cy="0" gradientTransform="matrix(0.0066, 0.0, 0.0, 0.0066, -40.3, 17.9)" gradientUnits="userSpaceOnUse" id="gradient4" r="819.2" spreadMethod="pad">
      <stop offset="0.0" stop-color="#707870"/>
      <stop offset="0.5176470588235295" stop-color="#706860"/>
      <stop offset="0.9490196078431372" stop-color="#605030"/>
    </radialGradient>
    <linearGradient gradientTransform="matrix(-0.0012, 0.002, -0.0153, -0.0087, -34.85, 47.75)" gradientUnits="userSpaceOnUse" id="gradient5" spreadMethod="pad" x1="-819.2" x2="819.2">
      <stop offset="0.0" stop-color="#404030"/>
      <stop offset="0.4470588235294118" stop-color="#303840"/>
      <stop offset="0.788235294117647" stop-color="#203808"/>
    </linearGradient>
    <radialGradient cx="0" cy="0" gradientTransform="matrix(0.025, 0.0, 0.0, 0.025, 1.75, -13.85)" gradientUnits="userSpaceOnUse" id="gradient6" r="819.2" spreadMethod="pad">
      <stop offset="0.0" stop-color="#686870"/>
      <stop offset="1.0" stop-color="#101010"/>
    </radialGradient>
    <radialGradient cx="0" cy="0" gradientTransform="matrix(0.0131, 0.0, 0.0, 0.0131, 2.7, -10.15)" gradientUnits="userSpaceOnUse" id="gradient7" r="819.2" spreadMethod="pad">
      <stop offset="0.0" stop-color="#686870"/>
      <stop offset="1.0" stop-color="#101010"/>
    </radialGradient>
    <radialGradient cx="0" cy="0" gradientTransform="matrix(0.0091, 0.0, 0.0, 0.0091, -2.5, -11.5)" gradientUnits="userSpaceOnUse" id="gradient8" r="819.2" spreadMethod="pad">
      <stop offset="0.0" stop-color="#686870"/>
      <stop offset="1.0" stop-color="#101010"/>
    </radialGradient>
    <radialGradient cx="0" cy="0" gradientTransform="matrix(0.0081, 0.0, 0.0, 0.0081, 0.95, -2.85)" gradientUnits="userSpaceOnUse" id="gradient9" r="819.2" spreadMethod="pad">
      <stop offset="0.0" stop-color="#686870"/>
      <stop offset="1.0" stop-color="#101010"/>
    </radialGradient>
    <radialGradient cx="0" cy="0" gradientTransform="matrix(0.0115, 0.0, 0.0, 0.0115, -4.6, -4.75)" gradientUnits="userSpaceOnUse" id="gradient10" r="819.2" spreadMethod="pad">
      <stop offset="0.0" stop-color="#686870"/>
      <stop offset="1.0" stop-color="#101010"/>
    </radialGradient>
    <radialGradient cx="0" cy="0" gradientTransform="matrix(0.0248, 0.0, 0.0, 0.0248, 0.0, -4.0)" gradientUnits="userSpaceOnUse" id="gradient11" r="819.2" spreadMethod="pad">
      <stop offset="0.5019607843137255" stop-color="#686870"/>
      <stop offset="1.0" stop-color="#605030"/>
    </radialGradient>
  </defs>
</svg>
