<?xml version="1.0" encoding="UTF-8" standalone="no"?>
<svg xmlns:ffdec="https://www.free-decompiler.com/flash" xmlns:xlink="http://www.w3.org/1999/xlink" ffdec:objectType="shape" height="99.0px" width="69.0px" xmlns="http://www.w3.org/2000/svg">
  <g transform="matrix(1.0, 0.0, 0.0, 1.0, 34.5, 49.5)">
    <path d="M-12.35 -46.6 L-12.35 -49.0 -2.35 -49.0 -2.35 -46.6 -5.05 -46.6 -9.55 -46.6 -12.35 -46.6 M2.3 -46.6 L2.3 -49.0 12.35 -49.0 12.35 -46.6 9.55 -46.6 5.05 -46.6 2.3 -46.6" fill="#101010" fill-rule="evenodd" stroke="none"/>
    <path d="M-12.35 -46.15 L-12.35 -46.6 -9.55 -46.6 -5.05 -46.6 -5.05 -44.0 -5.05 -46.6 -2.35 -46.6 -2.35 -44.0 -5.05 -44.0 -9.55 -44.0 -9.55 -46.6 -9.55 -44.0 -12.35 -44.0 -12.35 -46.15 M2.3 -44.0 L2.3 -46.6 5.05 -46.6 9.55 -46.6 9.55 -44.0 9.55 -46.6 12.35 -46.6 12.35 -46.15 12.35 -44.0 9.55 -44.0 5.05 -44.0 2.3 -44.0 M5.05 -44.0 L5.05 -46.6 5.05 -44.0" fill="#182020" fill-rule="evenodd" stroke="none"/>
    <path d="M12.35 -46.15 L15.55 -42.85 16.95 -41.4 34.0 -23.9 34.0 16.7 27.6 31.45 24.6 30.15 25.75 27.8 24.45 27.8 24.45 26.15 24.45 21.8 24.45 18.1 24.45 -9.55 30.75 -9.55 24.45 -9.55 24.45 -14.85 22.95 -14.75 22.7 -14.7 15.75 -27.5 15.55 -27.9 12.35 -33.8 12.35 -34.3 12.35 -36.85 12.35 -44.0 12.35 -46.15 M-27.65 31.45 L-34.0 16.7 -34.0 -23.9 -16.95 -41.4 -15.55 -42.85 -12.35 -46.15 -12.35 -44.0 -12.35 -36.85 -12.35 -34.3 -12.35 -33.8 -15.55 -27.9 -15.75 -27.5 -22.75 -14.7 -22.95 -14.75 -24.5 -14.85 -24.5 -9.55 -30.75 -9.55 -24.5 -9.55 -24.5 18.1 -24.5 21.8 -26.5 17.9 -24.5 21.8 -24.5 26.15 -24.5 27.8 -25.8 27.8 -24.65 30.15 -27.65 31.45 M-15.55 -27.4 L15.55 -27.4 15.55 -14.15 2.4 -14.05 -15.55 -14.0 -15.55 -27.4 M30.25 -14.85 L24.45 -14.85 30.25 -14.85 M16.95 -29.7 L16.95 -41.4 16.95 -29.7 M15.55 -31.4 L15.55 -42.85 15.55 -31.4 M0.15 -18.55 L0.7 -17.4 0.15 -18.55 M24.7 4.5 L24.7 17.6 24.45 18.1 24.7 17.6 24.7 4.5 31.25 4.5 24.7 4.5 M31.5 -1.25 L31.5 -9.3 31.5 -1.25 M30.1 -23.6 L30.25 -16.4 30.1 -23.6 M22.3 -31.95 L30.1 -24.15 22.3 -31.95 M19.45 -26.7 L23.7 -17.9 19.45 -26.7 M11.55 -19.3 L11.55 -25.3 11.55 -19.3 M8.55 -19.3 L8.55 -25.3 8.55 -19.3 M7.05 -19.3 L7.05 -25.3 7.05 -19.3 M10.05 -19.3 L10.05 -25.3 10.05 -19.3 M26.45 17.9 L24.45 21.8 26.45 17.9 M28.95 14.55 L28.95 6.55 28.95 14.55 M26.45 6.0 L26.45 16.1 26.45 6.0 M31.5 15.55 L31.5 5.5 31.5 15.55 M28.85 17.8 L24.45 26.15 28.85 17.8 M25.85 27.65 L25.75 27.8 25.85 27.65 31.5 16.25 25.85 27.65 M-15.55 -31.4 L-15.55 -42.85 -15.55 -31.4 M-16.95 -29.7 L-16.95 -41.4 -16.95 -29.7 M-31.5 -1.25 L-31.5 -9.3 -31.5 -1.25 M-30.1 -23.6 L-30.25 -16.4 -30.1 -23.6 M-30.25 -14.85 L-24.5 -14.85 -30.25 -14.85 M-19.5 -26.7 L-23.75 -17.9 -19.5 -26.7 M-22.35 -31.95 L-30.1 -24.15 -22.35 -31.95 M-8.55 -19.3 L-8.55 -25.3 -8.55 -19.3 M-11.55 -19.3 L-11.55 -25.3 -11.55 -19.3 M-7.05 -19.3 L-7.05 -25.3 -7.05 -19.3 M-10.05 -19.3 L-10.05 -25.3 -10.05 -19.3 M-24.75 4.5 L-24.75 17.6 -24.5 18.1 -24.75 17.6 -24.75 4.5 -31.25 4.5 -24.75 4.5 M-28.95 14.55 L-28.95 6.55 -28.95 14.55 M-26.5 6.0 L-26.5 16.1 -26.5 6.0 M-31.5 15.55 L-31.5 5.5 -31.5 15.55 M-25.85 27.65 L-25.8 27.8 -25.85 27.65 -31.5 16.25 -25.85 27.65 M-28.85 17.8 L-24.5 26.15 -28.85 17.8" fill="#605030" fill-rule="evenodd" stroke="none"/>
    <path d="M-2.35 -44.0 L-2.35 -36.85 -12.35 -36.85 -12.35 -44.0 -9.55 -44.0 -5.05 -44.0 -2.35 -44.0 M2.3 -36.85 L2.3 -44.0 5.05 -44.0 9.55 -44.0 12.35 -44.0 12.35 -36.85 2.3 -36.85 M9.55 -41.0 L9.55 -44.0 9.55 -41.0 M5.05 -41.0 L5.05 -44.0 5.05 -41.0 M-5.05 -41.0 L-5.05 -44.0 -5.05 -41.0 M-9.55 -41.0 L-9.55 -44.0 -9.55 -41.0" fill="#161c1c" fill-rule="evenodd" stroke="none"/>
    <path d="M-2.35 -36.85 L-2.35 -34.3 -12.35 -34.3 -12.35 -36.85 -2.35 -36.85 M2.3 -34.3 L2.3 -36.85 12.35 -36.85 12.35 -34.3 2.3 -34.3" fill="#404838" fill-rule="evenodd" stroke="none"/>
    <path d="M-2.35 -34.3 L-2.35 -31.0 -12.35 -31.0 -12.35 -33.8 -12.35 -34.3 -2.35 -34.3 M12.35 -33.8 L12.35 -31.0 2.3 -31.0 2.3 -34.3 12.35 -34.3 12.35 -33.8" fill="#283040" fill-rule="evenodd" stroke="none"/>
    <path d="M15.55 -27.4 L15.75 -27.5 15.55 -27.4" fill="url(#gradient0)" fill-rule="evenodd" stroke="none"/>
    <path d="M15.75 -27.5 L22.7 -14.7 22.95 -14.75 24.45 -14.85 24.45 -9.55 22.95 -9.55 24.45 -9.55 24.45 18.1 19.45 27.9 18.2 27.4 18.2 40.0 15.55 40.0 15.55 -14.15 15.55 -27.4 15.75 -27.5 M23.65 5.6 L23.65 17.0 18.45 26.75 23.65 17.0 23.65 5.6" fill="url(#gradient1)" fill-rule="evenodd" stroke="none"/>
    <path d="M-15.55 -14.0 L2.4 -14.05 15.55 -14.15 15.55 40.0 0.2 40.0 -15.55 40.0 -15.55 -14.0 M0.2 28.2 L0.2 40.0 0.2 28.2 M13.9 16.3 Q13.85 12.95 11.5 10.6 9.2 8.3 5.9 8.3 2.5 8.3 0.15 10.6 -2.15 12.95 -2.15 16.3 -2.15 19.65 0.15 21.95 2.5 24.3 5.9 24.3 9.2 24.3 11.5 21.95 13.85 19.65 13.9 16.3 M-11.95 6.7 Q-13.1 7.9 -13.1 9.55 -13.1 11.25 -11.95 12.4 -10.75 13.6 -9.1 13.6 -7.4 13.6 -6.25 12.4 -5.05 11.25 -5.05 9.55 -5.05 7.9 -6.25 6.7 -7.4 5.55 -9.1 5.6 -10.75 5.55 -11.95 6.7" fill="#706860" fill-rule="evenodd" stroke="none"/>
    <path d="M13.9 16.3 Q13.85 19.65 11.5 21.95 9.2 24.3 5.9 24.3 2.5 24.3 0.15 21.95 -2.15 19.65 -2.15 16.3 -2.15 12.95 0.15 10.6 2.5 8.3 5.9 8.3 9.2 8.3 11.5 10.6 13.85 12.95 13.9 16.3" fill="url(#gradient2)" fill-rule="evenodd" stroke="none"/>
    <path d="M27.6 31.45 L25.65 36.05 18.2 27.4 19.45 27.9 24.6 30.15 27.6 31.45 M-25.65 36.05 L-27.65 31.45 -24.65 30.15 -19.45 27.9 -18.25 27.4 -25.65 36.05" fill="#202010" fill-rule="evenodd" stroke="none"/>
    <path d="M25.65 36.05 L20.05 49.0 -20.1 49.0 -25.65 36.05 -18.25 27.4 -18.25 40.0 -15.55 40.0 0.2 40.0 15.55 40.0 18.2 40.0 18.2 27.4 25.65 36.05 M15.55 42.75 L15.55 40.0 15.55 42.75 M-15.55 42.75 L-15.55 40.0 -15.55 42.75 M14.95 42.2 L-14.95 42.2 14.95 42.2" fill="#303840" fill-rule="evenodd" stroke="none"/>
    <path d="M-15.55 -27.4 L-15.75 -27.5 -15.55 -27.4" fill="url(#gradient3)" fill-rule="evenodd" stroke="none"/>
    <path d="M-15.55 -14.0 L-15.55 40.0 -18.25 40.0 -18.25 27.4 -19.45 27.9 -24.5 18.1 -24.5 -9.55 -24.5 -14.85 -22.95 -14.75 -22.75 -14.7 -15.75 -27.5 -15.55 -27.4 -15.55 -14.0 M-23.0 -9.55 L-24.5 -9.55 -23.0 -9.55 M-23.7 5.6 L-23.7 17.0 -18.45 26.75 -23.7 17.0 -23.7 5.6" fill="url(#gradient4)" fill-rule="evenodd" stroke="none"/>
    <path d="M-11.95 6.7 Q-10.75 5.55 -9.1 5.6 -7.4 5.55 -6.25 6.7 -5.05 7.9 -5.05 9.55 -5.05 11.25 -6.25 12.4 -7.4 13.6 -9.1 13.6 -10.75 13.6 -11.95 12.4 -13.1 11.25 -13.1 9.55 -13.1 7.9 -11.95 6.7" fill="url(#gradient5)" fill-rule="evenodd" stroke="none"/>
    <path d="M-12.35 -46.15 L-12.35 -46.6 -12.35 -49.0 -2.35 -49.0 -2.35 -46.6 -2.35 -44.0 -2.35 -36.85 -2.35 -34.3 -2.35 -31.0 -12.35 -31.0 -12.35 -33.8 -12.35 -34.3 -12.35 -36.85 -12.35 -44.0 -12.35 -46.15 M12.35 -33.8 L12.35 -31.0 2.3 -31.0 2.3 -34.3 2.3 -36.85 2.3 -44.0 2.3 -46.6 2.3 -49.0 12.35 -49.0 12.35 -46.6 12.35 -46.15 12.35 -44.0 12.35 -36.85 12.35 -34.3 12.35 -33.8 M30.1 -24.15 L22.3 -31.95 M-30.1 -24.15 L-22.35 -31.95" fill="none" stroke="#101010" stroke-linecap="round" stroke-linejoin="round" stroke-width="1.0"/>
    <path d="M12.35 -46.15 L15.55 -42.85 16.95 -41.4 34.0 -23.9 34.0 16.7 27.6 31.45 25.65 36.05 20.05 49.0 -20.1 49.0 -25.65 36.05 -27.65 31.45 -34.0 16.7 -34.0 -23.9 -16.95 -41.4 -15.55 -42.85 -12.35 -46.15" fill="none" stroke="#000000" stroke-linecap="round" stroke-linejoin="round" stroke-width="1.0"/>
    <path d="M9.55 -44.0 L9.55 -46.6 M5.05 -46.6 L5.05 -44.0 5.05 -41.0 M9.55 -44.0 L9.55 -41.0 M18.45 26.75 L23.65 17.0 23.65 5.6 M24.45 27.8 L21.35 27.85 M25.75 27.8 L24.45 27.8 M25.75 27.8 L25.85 27.65 M-5.05 -44.0 L-5.05 -46.6 M-9.55 -46.6 L-9.55 -44.0 -9.55 -41.0 M-5.05 -44.0 L-5.05 -41.0 M-21.4 27.85 L-24.5 27.8 -25.8 27.8 -25.85 27.65 M-18.45 26.75 L-23.7 17.0 -23.7 5.6" fill="none" stroke="#283040" stroke-linecap="round" stroke-linejoin="round" stroke-width="1.0"/>
    <path d="M-15.55 -27.9 L-15.55 -27.4 -15.55 -14.0 -15.55 40.0 -15.55 42.75 M15.55 -27.4 L15.55 -27.9 M15.55 -27.4 L15.55 -14.15 15.55 40.0 15.55 42.75" fill="none" stroke="#707870" stroke-linecap="round" stroke-linejoin="round" stroke-width="1.0"/>
    <path d="M15.55 -42.85 L15.55 -31.4 M-15.55 -42.85 L-15.55 -31.4" fill="none" stroke="#182020" stroke-linecap="round" stroke-linejoin="round" stroke-width="1.0"/>
    <path d="M16.95 -41.4 L16.95 -29.7 M10.05 -25.3 L10.05 -19.3 M7.05 -25.3 L7.05 -19.3 M24.6 30.15 L25.75 27.8 M25.85 27.65 L31.5 16.25 M-16.95 -41.4 L-16.95 -29.7 M-10.05 -25.3 L-10.05 -19.3 M-7.05 -25.3 L-7.05 -19.3 M-25.8 27.8 L-24.65 30.15 M-25.85 27.65 L-31.5 16.25" fill="none" stroke="#303840" stroke-linecap="round" stroke-linejoin="round" stroke-width="1.0"/>
    <path d="M30.25 -16.4 L30.1 -23.6 M23.7 -17.9 L19.45 -26.7 M-30.25 -16.4 L-30.1 -23.6 M-23.75 -17.9 L-19.5 -26.7" fill="none" stroke="#202010" stroke-linecap="round" stroke-linejoin="round" stroke-width="1.0"/>
    <path d="M31.5 -9.3 L31.5 -1.25 M31.5 5.5 L31.5 15.55 M-31.5 -9.3 L-31.5 -1.25 M-31.5 5.5 L-31.5 15.55" fill="none" stroke="#303840" stroke-linecap="round" stroke-linejoin="round" stroke-width="2.0"/>
    <path d="M22.7 -14.7 L22.95 -14.75 M-22.75 -14.7 L-22.95 -14.75" fill="none" stroke="#000000" stroke-linecap="round" stroke-linejoin="round" stroke-width="3.0"/>
    <path d="M22.95 -14.75 L24.45 -14.85 30.25 -14.85 M-22.95 -14.75 L-24.5 -14.85 -30.25 -14.85" fill="none" stroke="#303840" stroke-linecap="round" stroke-linejoin="round" stroke-width="3.0"/>
    <path d="M24.45 -9.55 L30.75 -9.55 M22.95 -9.55 L24.45 -9.55 M-24.5 -9.55 L-23.0 -9.55 M-24.5 -9.55 L-30.75 -9.55" fill="none" stroke="#404030" stroke-linecap="round" stroke-linejoin="round" stroke-width="2.0"/>
    <path d="M8.55 -25.3 L8.55 -19.3 M11.55 -25.3 L11.55 -19.3 M-11.55 -25.3 L-11.55 -19.3 M-8.55 -25.3 L-8.55 -19.3" fill="none" stroke="#706860" stroke-linecap="round" stroke-linejoin="round" stroke-width="2.0"/>
    <path d="M24.45 21.8 L26.45 17.9 M26.45 16.1 L26.45 6.0 M21.35 27.85 L24.45 21.8 M-24.5 21.8 L-21.4 27.85 M-24.5 21.8 L-26.5 17.9 M-26.5 16.1 L-26.5 6.0" fill="none" stroke="#101010" stroke-linecap="round" stroke-linejoin="round" stroke-width="2.0"/>
    <path d="M24.45 18.1 L24.7 17.6 24.7 4.5 M19.45 27.9 L24.45 18.1 M-19.45 27.9 L-24.5 18.1 -24.75 17.6 -24.75 4.5" fill="none" stroke="#586870" stroke-linecap="round" stroke-linejoin="round" stroke-width="1.0"/>
    <path d="M24.7 4.5 L31.25 4.5 M-24.75 4.5 L-31.25 4.5" fill="none" stroke="#404838" stroke-linecap="round" stroke-linejoin="round" stroke-width="1.0"/>
    <path d="M28.95 6.55 L28.95 14.55 M-28.95 6.55 L-28.95 14.55" fill="none" stroke="#182020" stroke-linecap="round" stroke-linejoin="round" stroke-width="3.0"/>
    <path d="M0.2 40.0 L0.2 28.2" fill="none" stroke="#605030" stroke-linecap="round" stroke-linejoin="round" stroke-width="3.0"/>
    <path d="M24.45 26.15 L28.85 17.8 M-24.5 26.15 L-28.85 17.8" fill="none" stroke="#182020" stroke-linecap="round" stroke-linejoin="round" stroke-width="2.0"/>
    <path d="M12.35 -29.75 L-12.35 -29.75" fill="none" stroke="#586870" stroke-linecap="round" stroke-linejoin="round" stroke-width="2.5"/>
    <path d="M-14.95 42.2 L14.95 42.2" fill="none" stroke="#707870" stroke-linecap="round" stroke-linejoin="round" stroke-width="3.0"/>
  </g>
  <defs>
    <linearGradient gradientTransform="matrix(0.0015, 0.0, 0.0, 0.0412, 19.1, 6.2)" gradientUnits="userSpaceOnUse" id="gradient0" spreadMethod="pad" x1="-819.2" x2="819.2">
      <stop offset="0.0" stop-color="#605030"/>
      <stop offset="0.4470588235294118" stop-color="#303840"/>
      <stop offset="1.0" stop-color="#706860"/>
    </linearGradient>
    <linearGradient gradientTransform="matrix(0.0054, 0.0, 0.0, 0.0412, 20.0, 6.2)" gradientUnits="userSpaceOnUse" id="gradient1" spreadMethod="pad" x1="-819.2" x2="819.2">
      <stop offset="0.0" stop-color="#605030"/>
      <stop offset="0.4470588235294118" stop-color="#303840"/>
      <stop offset="1.0" stop-color="#706860"/>
    </linearGradient>
    <radialGradient cx="0" cy="0" gradientTransform="matrix(0.0108, 0.0, 0.0, 0.0107, 5.85, 16.35)" gradientUnits="userSpaceOnUse" id="gradient2" r="819.2" spreadMethod="pad">
      <stop offset="0.0" stop-color="#b0c0d0"/>
      <stop offset="0.26666666666666666" stop-color="#909070"/>
      <stop offset="0.4470588235294118" stop-color="#707870"/>
      <stop offset="0.7529411764705882" stop-color="#64563c"/>
      <stop offset="1.0" stop-color="#202010"/>
    </radialGradient>
    <linearGradient gradientTransform="matrix(0.0014, 0.0, 0.0, 0.0412, -19.9, 6.2)" gradientUnits="userSpaceOnUse" id="gradient3" spreadMethod="pad" x1="-819.2" x2="819.2">
      <stop offset="0.0" stop-color="#706860"/>
      <stop offset="0.4470588235294118" stop-color="#909070"/>
      <stop offset="1.0" stop-color="#889098"/>
    </linearGradient>
    <linearGradient gradientTransform="matrix(0.0054, 0.0, 0.0, 0.0412, -20.05, 6.2)" gradientUnits="userSpaceOnUse" id="gradient4" spreadMethod="pad" x1="-819.2" x2="819.2">
      <stop offset="0.0" stop-color="#706860"/>
      <stop offset="0.4470588235294118" stop-color="#909070"/>
      <stop offset="1.0" stop-color="#889098"/>
    </linearGradient>
    <radialGradient cx="0" cy="0" gradientTransform="matrix(0.0054, 0.0, 0.0, 0.0054, -9.05, 9.55)" gradientUnits="userSpaceOnUse" id="gradient5" r="819.2" spreadMethod="pad">
      <stop offset="0.0" stop-color="#b0c0d0"/>
      <stop offset="0.26666666666666666" stop-color="#909070"/>
      <stop offset="0.4470588235294118" stop-color="#707870"/>
      <stop offset="0.7529411764705882" stop-color="#64563c"/>
      <stop offset="1.0" stop-color="#202010"/>
    </radialGradient>
  </defs>
</svg>
