<?xml version="1.0" encoding="UTF-8" standalone="no"?>
<svg xmlns:ffdec="https://www.free-decompiler.com/flash" xmlns:xlink="http://www.w3.org/1999/xlink" ffdec:objectType="shape" height="24.0px" width="12.0px" xmlns="http://www.w3.org/2000/svg">
  <g transform="matrix(1.0, 0.0, 0.0, 1.0, 6.0, 11.95)">
    <path d="M0.0 -11.95 L0.0 -2.95 0.0 0.05 -3.0 0.05 -3.0 0.1 -6.0 0.1 0.0 -11.95" fill="url(#gradient0)" fill-rule="evenodd" stroke="none"/>
    <path d="M0.0 0.05 L0.0 -2.95 0.0 -11.95 6.0 0.1 3.0 0.1 3.0 0.05 0.0 0.05" fill="url(#gradient1)" fill-rule="evenodd" stroke="none"/>
    <path d="M-6.0 0.1 L-3.0 0.1 -3.0 0.05 0.0 0.05 0.0 3.05 0.0 12.0 -6.0 0.1" fill="url(#gradient2)" fill-rule="evenodd" stroke="none"/>
    <path d="M0.0 0.05 L3.0 0.05 3.0 0.1 6.0 0.1 0.05 12.05 0.0 12.0 0.0 3.05 0.0 0.05" fill="url(#gradient3)" fill-rule="evenodd" stroke="none"/>
  </g>
  <defs>
    <radialGradient cx="0" cy="0" gradientTransform="matrix(0.0082, 0.0, 0.0, 0.0083, 0.0, 0.05)" gradientUnits="userSpaceOnUse" id="gradient0" r="819.2" spreadMethod="pad">
      <stop offset="0.0" stop-color="#d8d0d0"/>
      <stop offset="1.0" stop-color="#a8a0c8"/>
    </radialGradient>
    <radialGradient cx="0" cy="0" gradientTransform="matrix(0.0082, 0.0, 0.0, 0.0083, 0.0, 0.05)" gradientUnits="userSpaceOnUse" id="gradient1" r="819.2" spreadMethod="pad">
      <stop offset="0.0" stop-color="#c00000"/>
      <stop offset="1.0" stop-color="#580000"/>
    </radialGradient>
    <radialGradient cx="0" cy="0" gradientTransform="matrix(0.0082, 0.0, 0.0, 0.0082, 0.0, 0.05)" gradientUnits="userSpaceOnUse" id="gradient2" r="819.2" spreadMethod="pad">
      <stop offset="0.0" stop-color="#c00000"/>
      <stop offset="1.0" stop-color="#580000"/>
    </radialGradient>
    <radialGradient cx="0" cy="0" gradientTransform="matrix(0.0082, 0.0, 0.0, 0.0082, 0.0, 0.05)" gradientUnits="userSpaceOnUse" id="gradient3" r="819.2" spreadMethod="pad">
      <stop offset="0.0" stop-color="#700000"/>
      <stop offset="1.0" stop-color="#000000"/>
    </radialGradient>
  </defs>
</svg>
