<?xml version="1.0" encoding="UTF-8" standalone="no"?>
<svg xmlns:ffdec="https://www.free-decompiler.com/flash" xmlns:xlink="http://www.w3.org/1999/xlink" ffdec:objectType="shape" height="24.15px" width="12.05px" xmlns="http://www.w3.org/2000/svg">
  <g transform="matrix(1.0, 0.0, 0.0, 1.0, 6.05, 12.05)">
    <path d="M-4.9 -7.9 L-4.7 -9.05 Q-4.4 -10.55 -3.05 -11.35 -1.8 -12.05 -0.15 -12.05 1.75 -12.05 3.0 -11.35 4.3 -10.55 4.65 -9.05 L4.9 -7.9 -4.9 -7.9" fill="url(#gradient0)" fill-rule="evenodd" stroke="none"/>
    <path d="M-5.05 -1.3 L-5.05 -3.1 -5.05 -3.65 5.0 -3.65 5.0 -3.1 5.05 -1.3 -5.05 -1.3" fill="url(#gradient1)" fill-rule="evenodd" stroke="none"/>
    <path d="M-5.05 -5.85 L-5.05 -6.1 -4.9 -7.9 4.9 -7.9 5.0 -6.1 5.0 -5.85 -5.05 -5.85" fill="url(#gradient2)" fill-rule="evenodd" stroke="none"/>
    <path d="M-5.05 -3.65 L-5.05 -5.85 5.0 -5.85 5.0 -3.65 -5.05 -3.65" fill="url(#gradient3)" fill-rule="evenodd" stroke="none"/>
    <path d="M5.05 -1.3 L5.1 -0.1 4.9 0.8 Q3.75 -0.1 2.0 0.05 2.15 1.7 0.0 1.75 -2.25 1.7 -2.05 0.05 -3.8 -0.1 -4.95 0.8 L-5.1 -0.1 -5.05 -1.3 5.05 -1.3" fill="url(#gradient4)" fill-rule="evenodd" stroke="none"/>
    <path d="M4.9 0.8 L5.75 3.8 6.0 6.7 5.8 7.2 4.65 6.8 4.65 11.15 4.5 12.1 Q3.5 11.05 2.75 9.5 2.25 8.2 1.35 6.85 1.1 6.55 0.85 6.85 L0.1 8.15 -0.9 6.85 Q-1.15 6.55 -1.4 6.85 -2.3 8.2 -2.8 9.5 -3.55 11.05 -4.55 12.1 L-4.7 11.15 -4.7 6.8 -5.85 7.2 -6.05 6.7 -5.8 3.8 Q-5.65 2.3 -4.95 0.8 -3.8 -0.1 -2.05 0.05 -2.25 1.7 0.0 1.75 2.15 1.7 2.0 0.05 3.75 -0.1 4.9 0.8" fill="url(#gradient5)" fill-rule="evenodd" stroke="none"/>
  </g>
  <defs>
    <linearGradient gradientTransform="matrix(0.006, 0.0, 0.0, 0.0025, 0.0, -9.95)" gradientUnits="userSpaceOnUse" id="gradient0" spreadMethod="pad" x1="-819.2" x2="819.2">
      <stop offset="0.0" stop-color="#525a52"/>
      <stop offset="0.34901960784313724" stop-color="#e8f8e8"/>
      <stop offset="1.0" stop-color="#000000"/>
    </linearGradient>
    <linearGradient gradientTransform="matrix(0.0062, 0.0, 0.0, 0.0014, 0.0, -2.5)" gradientUnits="userSpaceOnUse" id="gradient1" spreadMethod="pad" x1="-819.2" x2="819.2">
      <stop offset="0.0" stop-color="#3a424c"/>
      <stop offset="0.34901960784313724" stop-color="#5e6664"/>
      <stop offset="1.0" stop-color="#000000"/>
    </linearGradient>
    <linearGradient gradientTransform="matrix(0.0061, 0.0, 0.0, 0.0013, -0.05, -6.9)" gradientUnits="userSpaceOnUse" id="gradient2" spreadMethod="pad" x1="-819.2" x2="819.2">
      <stop offset="0.0" stop-color="#7e0500"/>
      <stop offset="0.34901960784313724" stop-color="#f86000"/>
      <stop offset="1.0" stop-color="#000000"/>
    </linearGradient>
    <linearGradient gradientTransform="matrix(0.0061, 0.0, 0.0, 0.0014, -0.05, -4.75)" gradientUnits="userSpaceOnUse" id="gradient3" spreadMethod="pad" x1="-819.2" x2="819.2">
      <stop offset="0.0" stop-color="#525a52"/>
      <stop offset="0.34901960784313724" stop-color="#e8f8e8"/>
      <stop offset="1.0" stop-color="#000000"/>
    </linearGradient>
    <linearGradient gradientTransform="matrix(0.0062, 0.0, 0.0, 0.0018, -0.05, 0.2)" gradientUnits="userSpaceOnUse" id="gradient4" spreadMethod="pad" x1="-819.2" x2="819.2">
      <stop offset="0.0" stop-color="#525a52"/>
      <stop offset="0.34901960784313724" stop-color="#e8f8e8"/>
      <stop offset="1.0" stop-color="#000000"/>
    </linearGradient>
    <radialGradient cx="0" cy="0" gradientTransform="matrix(0.0134, 0.0, 0.0, 0.0127, 0.0, 2.75)" gradientUnits="userSpaceOnUse" id="gradient5" r="819.2" spreadMethod="pad">
      <stop offset="0.0" stop-color="#ffff99"/>
      <stop offset="1.0" stop-color="#e9bf22"/>
    </radialGradient>
  </defs>
</svg>
