<?xml version="1.0" encoding="UTF-8" standalone="no"?>
<svg xmlns:ffdec="https://www.free-decompiler.com/flash" xmlns:xlink="http://www.w3.org/1999/xlink" ffdec:objectType="shape" height="549.95px" width="67.4px" xmlns="http://www.w3.org/2000/svg">
  <g transform="matrix(1.0, 0.0, 0.0, 1.0, 33.7, 275.05)">
    <path d="M10.95 -131.75 Q15.55 -127.2 15.55 -120.75 L15.55 120.55 Q15.55 127.0 10.95 131.55 6.4 136.15 -0.05 136.15 L-0.1 136.15 Q-6.55 136.15 -11.15 131.55 -15.7 127.0 -15.65 120.55 L-15.65 -120.75 Q-15.7 -127.2 -11.15 -131.75 -6.55 -136.35 -0.1 -136.35 L-0.05 -136.35 Q6.4 -136.35 10.95 -131.75 M3.35 -41.25 Q1.95 -42.7 -0.05 -42.7 L-0.15 -42.7 Q-2.15 -42.7 -3.55 -41.25 -5.0 -39.85 -5.0 -37.8 L-5.0 37.6 Q-5.0 39.6 -3.55 41.05 -2.15 42.45 -0.15 42.45 L-0.05 42.45 Q1.95 42.45 3.35 41.05 4.8 39.6 4.8 37.6 L4.8 -37.8 Q4.8 -39.85 3.35 -41.25" fill="#e2b5ff" fill-rule="evenodd" stroke="none"/>
    <path d="M3.35 -41.25 Q4.8 -39.85 4.8 -37.8 L4.8 37.6 Q4.8 39.6 3.35 41.05 1.95 42.45 -0.05 42.45 L-0.15 42.45 Q-2.15 42.45 -3.55 41.05 -5.0 39.6 -5.0 37.6 L-5.0 -37.8 Q-5.0 -39.85 -3.55 -41.25 -2.15 -42.7 -0.15 -42.7 L-0.05 -42.7 Q1.95 -42.7 3.35 -41.25" fill="#ffdfff" fill-rule="evenodd" stroke="none"/>
    <path d="M0.0 -272.55 Q12.9 -272.55 21.95 -263.4 31.15 -254.25 31.2 -241.35 L31.2 241.2 Q31.15 254.1 21.95 263.2 12.9 272.4 0.0 272.4 L-0.05 272.4 Q-12.95 272.4 -22.15 263.2 -31.2 254.1 -31.2 241.2 L-31.2 -241.35 Q-31.2 -254.25 -22.15 -263.4 -12.95 -272.55 -0.05 -272.55 L0.0 -272.55 M10.95 -131.75 Q6.4 -136.35 -0.05 -136.35 L-0.1 -136.35 Q-6.55 -136.35 -11.15 -131.75 -15.7 -127.2 -15.65 -120.75 L-15.65 120.55 Q-15.7 127.0 -11.15 131.55 -6.55 136.15 -0.1 136.15 L-0.05 136.15 Q6.4 136.15 10.95 131.55 15.55 127.0 15.55 120.55 L15.55 -120.75 Q15.55 -127.2 10.95 -131.75" fill="#ff9cff" fill-rule="evenodd" stroke="none"/>
    <path d="M0.0 -272.55 L-0.05 -272.55 M-0.05 272.4 L0.0 272.4 Q12.9 272.4 21.95 263.2" fill="none" stroke="#ffe8ff" stroke-linecap="round" stroke-linejoin="round" stroke-width="5.0"/>
    <path d="M21.95 263.2 Q31.15 254.1 31.2 241.2 L31.2 -241.35 Q31.15 -254.25 21.95 -263.4 12.9 -272.55 0.0 -272.55 M-0.05 -272.55 Q-12.95 -272.55 -22.15 -263.4 -31.2 -254.25 -31.2 -241.35 L-31.2 241.2 Q-31.2 254.1 -22.15 263.2 -12.95 272.4 -0.05 272.4" fill="none" stroke="#e4e4ff" stroke-linecap="round" stroke-linejoin="round" stroke-width="5.0"/>
  </g>
</svg>
