<?xml version="1.0" encoding="UTF-8" standalone="no"?>
<svg xmlns:ffdec="https://www.free-decompiler.com/flash" xmlns:xlink="http://www.w3.org/1999/xlink" ffdec:objectType="shape" height="139.9px" width="153.35px" xmlns="http://www.w3.org/2000/svg">
  <g transform="matrix(1.0, 0.0, 0.0, 1.0, 77.15, 57.15)">
    <path d="M-75.9 -55.9 L-75.9 -54.15 -69.35 -43.05 -44.05 -43.05 -36.9 -26.4 -13.0 -26.4 -0.05 1.05 -0.05 -35.75 16.95 -28.8 23.85 -45.45 Q27.1 -34.95 34.9 -29.35 37.35 -27.55 40.3 -28.1 46.95 -34.15 54.05 -39.25 60.3 -43.7 67.75 -38.75 L72.15 -35.4 74.95 -35.4 M57.35 51.75 L55.7 51.1 Q54.35 50.65 53.7 49.2 51.15 43.85 49.1 37.2 L48.0 37.2 29.85 42.05 27.15 13.9 13.95 21.25 11.75 21.25 11.75 -1.7 -0.05 1.05 -7.45 18.8 0.75 26.45 -2.8 41.0 20.25 55.25 Q20.3 56.7 19.8 58.05 19.35 59.15 19.7 60.35 20.2 62.25 17.6 81.5 M-0.05 1.05 L-14.35 -4.5 -20.95 17.35 Q-31.7 4.45 -45.65 12.35 -55.15 17.75 -63.85 23.6 L-63.85 26.75" fill="none" stroke="#ffccff" stroke-linecap="round" stroke-linejoin="round" stroke-width="2.5"/>
  </g>
</svg>
