<?xml version="1.0" encoding="UTF-8" standalone="no"?>
<svg xmlns:ffdec="https://www.free-decompiler.com/flash" xmlns:xlink="http://www.w3.org/1999/xlink" ffdec:objectType="shape" height="154.5px" width="180.5px" xmlns="http://www.w3.org/2000/svg">
  <g transform="matrix(1.0, 0.0, 0.0, 1.0, 78.25, 87.25)">
    <path d="M-11.0 -67.5 L-7.5 -67.5 Q-1.6 -66.0 4.65 -65.0 6.25 -64.75 7.55 -66.0 11.1 -69.4 15.0 -72.5 L15.0 -77.5 39.0 -77.5 44.0 -86.0 M0.0 0.0 L16.0 -37.0 25.5 -22.5 40.5 -43.0 51.5 -28.5 55.0 -44.5 67.5 -39.5 77.0 -50.5 91.0 -50.5 95.0 -58.5 101.0 -63.0 M-77.0 -46.0 L-64.5 -21.0 -57.5 -24.5 -45.5 -4.5 -35.5 -19.5 0.0 0.0" fill="none" stroke="#ffccff" stroke-linecap="round" stroke-linejoin="round" stroke-width="2.5"/>
    <path d="M0.0 0.0 L-17.0 -30.05 -11.0 -67.5 M67.5 66.0 L61.0 62.5 58.0 56.5 55.0 56.25 Q52.65 56.3 51.55 54.75 46.4 47.55 45.0 38.45 L39.7 38.45 Q38.6 34.35 37.0 30.0 L37.0 27.5 18.5 24.5 14.5 24.5 14.5 3.5 0.0 0.0 -13.0 7.5 -19.0 30.5 -29.0 14.0 -33.0 45.5 -58.5 38.5 -58.5 58.5 -64.5 58.5 Q-67.25 60.0 -68.0 61.0" fill="none" stroke="#ffccff" stroke-linecap="round" stroke-linejoin="round" stroke-width="2.5"/>
  </g>
</svg>
