<?xml version="1.0" encoding="UTF-8" standalone="no"?>
<svg xmlns:ffdec="https://www.free-decompiler.com/flash" xmlns:xlink="http://www.w3.org/1999/xlink" ffdec:objectType="shape" height="144.6px" width="184.1px" xmlns="http://www.w3.org/2000/svg">
  <g transform="matrix(1.0, 0.0, 0.0, 1.0, 91.05, 63.9)">
    <path d="M-11.1 -62.65 Q-9.75 -59.7 -7.05 -57.9 4.35 -50.25 -6.05 -41.5 -14.9 -34.05 -14.6 -24.75 L-3.45 -19.75 0.05 -14.45 0.05 -0.45 0.05 1.2 25.2 -15.75 44.35 1.2 60.25 -14.45 83.55 -5.15 91.8 -14.75 M53.25 66.05 L53.25 63.35 25.85 60.05 37.95 33.1 15.05 33.1 0.05 1.2 -16.5 15.15 -16.5 16.8 2.3 44.05 -16.5 51.4 -28.05 79.45 M0.05 -0.45 Q-12.3 -1.15 -23.15 -0.45 -36.4 0.35 -41.65 12.35 -45.9 22.05 -50.3 31.45 -56.25 26.75 -63.3 24.25 -67.1 22.85 -71.2 23.8 -74.3 24.5 -77.35 25.8 L-82.45 40.4 -89.8 43.75" fill="none" stroke="#ffccff" stroke-linecap="round" stroke-linejoin="round" stroke-width="2.5"/>
  </g>
</svg>
