<?xml version="1.0" encoding="UTF-8" standalone="no"?>
<svg xmlns:ffdec="https://www.free-decompiler.com/flash" xmlns:xlink="http://www.w3.org/1999/xlink" ffdec:objectType="shape" height="111.2px" width="137.85px" xmlns="http://www.w3.org/2000/svg">
  <g transform="matrix(1.0, 0.0, 0.0, 1.0, 79.35, 41.7)">
    <path d="M-66.1 -32.0 L-49.85 -29.75 -48.35 -29.75 -44.6 -17.05 -42.6 -17.05 Q-39.25 -17.05 -36.0 -17.8 -27.7 -19.8 -20.05 -24.4 L-3.55 5.2 -0.05 -17.6 6.45 -17.6 10.45 -19.6 10.45 -29.45 22.2 -29.45 22.2 -40.45 M-3.55 5.2 L8.2 -3.5 8.2 27.8 20.45 10.0 25.45 21.85 42.2 17.95 Q43.85 21.05 46.3 23.75 47.1 24.65 48.2 24.65 L55.25 24.7 57.25 24.7 M-3.55 5.2 L-9.55 20.45 Q-2.45 26.55 2.05 34.45 2.7 35.55 2.25 36.95 0.55 43.1 -0.9 49.4 -2.55 56.6 3.25 60.5 9.25 64.5 14.2 68.25 M-78.1 23.25 L-55.6 6.35 -51.6 13.7 Q-49.25 16.25 -46.1 16.25 -39.95 16.25 -35.35 11.7 L-32.35 5.2 -3.55 5.2" fill="none" stroke="#ffccff" stroke-linecap="round" stroke-linejoin="round" stroke-width="2.5"/>
  </g>
</svg>
