<?xml version="1.0" encoding="UTF-8" standalone="no"?>
<svg xmlns:ffdec="https://www.free-decompiler.com/flash" xmlns:xlink="http://www.w3.org/1999/xlink" ffdec:objectType="shape" height="156.7px" width="144.6px" xmlns="http://www.w3.org/2000/svg">
  <g transform="matrix(1.0, 0.0, 0.0, 1.0, 88.05, 63.95)">
    <path d="M-58.65 -62.7 L-58.65 -60.45 -56.4 -60.25 Q-52.5 -61.1 -50.4 -57.8 -49.45 -56.25 -48.2 -55.3 -43.45 -51.55 -36.8 -55.55 L-36.8 -24.5 -26.2 -26.8 -24.7 -26.8 -20.15 -9.15 -2.8 1.95 -5.8 -21.85 -2.8 -15.35 Q5.65 -14.55 11.35 -23.9 13.1 -26.8 15.3 -29.4 24.5 -22.8 31.45 -30.65 32.8 -32.2 33.4 -33.95 L51.25 -41.15 M-18.45 91.5 L-8.85 56.85 -16.6 50.65 -2.05 38.2 -16.6 23.15 -2.8 1.95 -26.45 1.95 Q-27.35 0.5 -27.7 0.65 L-34.5 12.75 Q-37.2 6.35 -41.2 0.85 -42.3 -0.65 -43.75 -1.8 -47.45 -4.7 -51.6 -3.25 L-54.9 2.3 -54.9 5.25 -66.2 -10.75 -75.25 25.8 -86.8 -4.25 M-2.8 1.95 L9.5 1.95 13.05 16.0 28.1 6.85 33.65 6.85 37.4 27.45 Q44.45 23.05 51.25 28.45 L55.3 42.45" fill="none" stroke="#ffccff" stroke-linecap="round" stroke-linejoin="round" stroke-width="2.5"/>
  </g>
</svg>
