<?xml version="1.0" encoding="UTF-8" standalone="no"?>
<svg xmlns:ffdec="https://www.free-decompiler.com/flash" xmlns:xlink="http://www.w3.org/1999/xlink" ffdec:objectType="shape" height="164.65px" width="213.25px" xmlns="http://www.w3.org/2000/svg">
  <g transform="matrix(1.0, 0.0, 0.0, 1.0, 113.6, 87.6)">
    <path d="M-47.9 -86.35 L-28.7 -73.65 -28.7 -68.9 -33.3 -65.7 -5.55 -49.45 -5.55 -40.7 Q-8.35 -39.5 -10.35 -36.9 -13.2 -33.25 -13.75 -28.75 -13.2 -28.75 -11.6 -27.95 L-0.9 -0.15 Q4.75 -12.55 10.35 -26.8 13.9 -35.95 21.85 -39.5 24.85 -27.5 35.25 -30.15 39.55 -31.3 41.35 -35.8 45.7 -46.55 50.7 -56.6 L53.2 -56.6 Q56.95 -45.95 65.65 -44.4 L83.1 -62.95 86.65 -57.8 88.4 -57.8 94.45 -60.95 95.9 -60.95 95.9 -62.95 98.4 -62.95 M-8.3 67.45 L-16.55 51.1 -11.25 41.2 -21.2 33.65 -9.1 24.9 -8.8 22.5 Q-8.25 18.35 -10.9 15.35 -13.35 14.75 -13.4 12.2 L-0.9 -0.15 -16.2 -12.85 -30.8 12.2 -65.75 -0.5 -71.05 20.95 -88.5 -1.3 -106.3 10.6 -112.35 -1.7 -108.45 -1.7 M74.15 75.8 L52.1 75.8 52.1 61.1 27.2 57.5 32.2 30.85 8.35 33.65 17.6 -0.15 -0.9 -0.15" fill="none" stroke="#ffccff" stroke-linecap="round" stroke-linejoin="round" stroke-width="2.5"/>
  </g>
</svg>
