<?xml version="1.0" encoding="UTF-8" standalone="no"?>
<svg xmlns:ffdec="https://www.free-decompiler.com/flash" xmlns:xlink="http://www.w3.org/1999/xlink" ffdec:objectType="shape" height="152.7px" width="169.8px" xmlns="http://www.w3.org/2000/svg">
  <g transform="matrix(1.0, 0.0, 0.0, 1.0, 95.9, 83.6)">
    <path d="M-94.65 10.55 L-94.65 7.9 -85.55 5.25 -92.05 0.6 -92.05 -8.75 -81.35 -31.1 Q-76.9 -32.25 -73.15 -28.9 -64.75 -21.25 -60.25 -14.45 L-28.5 -32.1 -1.9 -0.75 -6.45 -47.0 Q-6.2 -45.15 -2.45 -43.4 -1.1 -42.75 0.4 -42.55 L2.65 -42.4 Q8.65 -47.25 5.5 -55.8 L-0.3 -70.7 13.0 -63.7 15.25 -82.35 M40.55 -21.1 Q37.55 -23.2 34.05 -24.7 29.85 -26.5 25.0 -24.1 L25.0 -21.75 22.7 -13.75 20.45 -13.75 12.65 -20.75 -1.9 -0.75 Q9.25 2.9 20.1 3.5 22.25 3.6 23.05 5.75 25.65 12.85 26.6 20.55 L69.05 15.9 72.65 18.2 M-1.9 -0.75 L-23.3 8.2 -23.3 32.55 -49.55 34.5 -49.55 36.2 Q-45.0 44.8 -47.1 54.0 -48.4 59.8 -53.8 62.5 -58.25 64.8 -63.2 64.2 L-64.5 64.2 Q-65.7 66.05 -65.75 67.85" fill="none" stroke="#ffccff" stroke-linecap="round" stroke-linejoin="round" stroke-width="2.5"/>
  </g>
</svg>
