<?xml version="1.0" encoding="UTF-8" standalone="no"?>
<svg xmlns:ffdec="https://www.free-decompiler.com/flash" xmlns:xlink="http://www.w3.org/1999/xlink" ffdec:objectType="shape" height="21.05px" width="8.0px" xmlns="http://www.w3.org/2000/svg">
  <g transform="matrix(1.0, 0.0, 0.0, 1.0, 4.0, 12.2)">
    <path d="M-2.15 -7.3 L-2.2 -8.25 Q-2.4 -11.4 0.0 -12.2 2.35 -11.4 2.2 -8.25 L2.15 -7.3 -2.15 -7.3" fill="url(#gradient0)" fill-rule="evenodd" stroke="none"/>
    <path d="M2.05 -5.5 L1.95 -3.2 -1.95 -3.2 -2.05 -5.5 2.05 -5.5" fill="url(#gradient1)" fill-rule="evenodd" stroke="none"/>
    <path d="M1.95 -3.2 L1.9 -2.3 2.0 -1.1 -2.05 -1.15 Q-1.9 -1.7 -1.9 -2.3 L-1.95 -3.2 1.95 -3.2" fill="url(#gradient2)" fill-rule="evenodd" stroke="none"/>
    <path d="M2.15 -7.3 L2.05 -5.5 -2.05 -5.5 -2.15 -7.3 2.15 -7.3" fill="url(#gradient3)" fill-rule="evenodd" stroke="none"/>
    <path d="M2.0 -1.1 Q2.4 0.3 4.0 1.1 3.25 2.2 2.1 2.7 L0.1 3.05 -2.1 2.7 Q-3.3 2.2 -4.0 1.1 -2.4 0.3 -2.05 -1.15 L2.0 -1.1" fill="url(#gradient4)" fill-rule="evenodd" stroke="none"/>
    <path d="M2.1 2.7 Q2.55 3.5 2.55 4.6 L2.3 6.3 Q2.05 6.8 1.35 6.45 0.4 5.95 0.55 7.35 0.65 8.15 0.0 8.85 -0.7 8.15 -0.6 7.35 -0.45 5.95 -1.4 6.45 -2.05 6.8 -2.3 6.3 L-2.6 4.6 Q-2.6 3.5 -2.1 2.7 L0.1 3.05 2.1 2.7" fill="#f8df1e" fill-rule="evenodd" stroke="none"/>
  </g>
  <defs>
    <linearGradient gradientTransform="matrix(0.0027, 0.0, 0.0, 0.003, 0.0, -9.75)" gradientUnits="userSpaceOnUse" id="gradient0" spreadMethod="pad" x1="-819.2" x2="819.2">
      <stop offset="0.0" stop-color="#989898"/>
      <stop offset="0.5137254901960784" stop-color="#e8f8e8"/>
      <stop offset="1.0" stop-color="#404030"/>
    </linearGradient>
    <linearGradient gradientTransform="matrix(0.0025, 0.0, 0.0, 0.0014, 0.0, -4.35)" gradientUnits="userSpaceOnUse" id="gradient1" spreadMethod="pad" x1="-819.2" x2="819.2">
      <stop offset="0.0" stop-color="#989898"/>
      <stop offset="0.5137254901960784" stop-color="#e8f8e8"/>
      <stop offset="1.0" stop-color="#404030"/>
    </linearGradient>
    <linearGradient gradientTransform="matrix(0.0025, 0.0, 0.0, 0.0013, 0.0, -2.2)" gradientUnits="userSpaceOnUse" id="gradient2" spreadMethod="pad" x1="-819.2" x2="819.2">
      <stop offset="0.0" stop-color="#686870"/>
      <stop offset="0.5137254901960784" stop-color="#989898"/>
      <stop offset="1.0" stop-color="#101010"/>
    </linearGradient>
    <linearGradient gradientTransform="matrix(0.0026, 0.0, 0.0, 0.0011, 0.0, -6.4)" gradientUnits="userSpaceOnUse" id="gradient3" spreadMethod="pad" x1="-819.2" x2="819.2">
      <stop offset="0.0" stop-color="#f00000"/>
      <stop offset="0.5137254901960784" stop-color="#f8d000"/>
      <stop offset="1.0" stop-color="#f00000"/>
    </linearGradient>
    <linearGradient gradientTransform="matrix(0.0049, 0.0, 0.0, 0.0025, 0.0, 0.95)" gradientUnits="userSpaceOnUse" id="gradient4" spreadMethod="pad" x1="-819.2" x2="819.2">
      <stop offset="0.0" stop-color="#989898"/>
      <stop offset="0.5137254901960784" stop-color="#e8f8e8"/>
      <stop offset="1.0" stop-color="#404030"/>
    </linearGradient>
  </defs>
</svg>
