<?xml version="1.0" encoding="UTF-8" standalone="no"?>
<svg xmlns:ffdec="https://www.free-decompiler.com/flash" xmlns:xlink="http://www.w3.org/1999/xlink" ffdec:objectType="shape" height="32.0px" width="56.0px" xmlns="http://www.w3.org/2000/svg">
  <g transform="matrix(1.0, 0.0, 0.0, 1.0, 28.0, 28.0)">
    <path d="M12.0 -28.0 Q18.6 -28.0 23.2 -23.4 28.0 -18.6 28.0 -12.0 28.0 -5.4 23.2 -0.8 18.6 4.0 12.0 4.0 5.4 4.0 0.6 -0.8 -4.0 -5.4 -4.0 -12.0 -4.0 -18.6 0.6 -23.4 5.4 -28.0 12.0 -28.0" fill="url(#gradient0)" fill-rule="evenodd" stroke="none"/>
    <path d="M-0.8 -23.4 Q4.0 -18.6 4.0 -12.0 4.0 -5.4 -0.8 -0.8 -5.4 4.0 -12.0 4.0 -18.6 4.0 -23.4 -0.8 -28.0 -5.4 -28.0 -12.0 -28.0 -18.6 -23.4 -23.4 -18.6 -28.0 -12.0 -28.0 -5.4 -28.0 -0.8 -23.4" fill="url(#gradient1)" fill-rule="evenodd" stroke="none"/>
  </g>
  <defs>
    <radialGradient cx="0" cy="0" gradientTransform="matrix(0.02, 0.0, 0.0, 0.02, 12.0, -12.0)" gradientUnits="userSpaceOnUse" id="gradient0" r="819.2" spreadMethod="pad">
      <stop offset="0.1450980392156863" stop-color="#f8f8b0" stop-opacity="0.0"/>
      <stop offset="0.5882352941176471" stop-color="#f0d828" stop-opacity="0.2509804"/>
      <stop offset="0.8352941176470589" stop-color="#e0a000" stop-opacity="0.5019608"/>
      <stop offset="1.0" stop-color="#f86000" stop-opacity="0.7529412"/>
    </radialGradient>
    <radialGradient cx="0" cy="0" gradientTransform="matrix(0.02, 0.0, 0.0, 0.02, -12.0, -12.0)" gradientUnits="userSpaceOnUse" id="gradient1" r="819.2" spreadMethod="pad">
      <stop offset="0.1411764705882353" stop-color="#f8f8b0" stop-opacity="0.0"/>
      <stop offset="0.5882352941176471" stop-color="#f0d828" stop-opacity="0.2509804"/>
      <stop offset="0.8352941176470589" stop-color="#e0a000" stop-opacity="0.5019608"/>
      <stop offset="1.0" stop-color="#f86000" stop-opacity="0.7529412"/>
    </radialGradient>
  </defs>
</svg>
