<?xml version="1.0" encoding="UTF-8" standalone="no"?>
<svg xmlns:ffdec="https://www.free-decompiler.com/flash" xmlns:xlink="http://www.w3.org/1999/xlink" ffdec:objectType="shape" height="36.2px" width="48.0px" xmlns="http://www.w3.org/2000/svg">
  <g transform="matrix(1.0, 0.0, 0.0, 1.0, 24.0, 32.2)">
    <path d="M24.0 -12.0 Q24.0 -5.4 19.2 -0.8 14.6 4.0 8.0 4.0 1.4 4.0 -3.4 -0.8 -8.0 -5.4 -8.0 -12.0 -8.0 -18.6 -3.4 -23.4 1.4 -28.0 8.0 -28.0 14.6 -28.0 19.2 -23.4 24.0 -18.6 24.0 -12.0" fill="url(#gradient0)" fill-rule="evenodd" stroke="none"/>
    <path d="M3.2 -0.8 Q-1.4 4.0 -8.0 4.0 -14.6 4.0 -19.4 -0.8 -24.0 -5.4 -24.0 -12.0 -24.0 -18.6 -19.4 -23.4 -14.6 -28.0 -8.0 -28.0 -1.4 -28.0 3.2 -23.4 8.0 -18.6 8.0 -12.0 8.0 -5.4 3.2 -0.8" fill="url(#gradient1)" fill-rule="evenodd" stroke="none"/>
    <path d="M11.2 -27.6 Q16.0 -22.8 16.0 -16.2 16.0 -9.6 11.2 -5.0 6.6 -0.2 0.0 -0.2 -6.6 -0.2 -11.4 -5.0 -16.0 -9.6 -16.0 -16.2 -16.0 -22.8 -11.4 -27.6 -6.6 -32.2 0.0 -32.2 6.6 -32.2 11.2 -27.6" fill="url(#gradient2)" fill-rule="evenodd" stroke="none"/>
  </g>
  <defs>
    <radialGradient cx="0" cy="0" gradientTransform="matrix(0.02, 0.0, 0.0, 0.02, 8.0, -12.0)" gradientUnits="userSpaceOnUse" id="gradient0" r="819.2" spreadMethod="pad">
      <stop offset="0.1411764705882353" stop-color="#f8f8b0" stop-opacity="0.0"/>
      <stop offset="0.5882352941176471" stop-color="#f0d828" stop-opacity="0.2509804"/>
      <stop offset="0.8352941176470589" stop-color="#e0a000" stop-opacity="0.5019608"/>
      <stop offset="1.0" stop-color="#f86000" stop-opacity="0.7529412"/>
    </radialGradient>
    <radialGradient cx="0" cy="0" gradientTransform="matrix(0.02, 0.0, 0.0, 0.02, -8.0, -12.0)" gradientUnits="userSpaceOnUse" id="gradient1" r="819.2" spreadMethod="pad">
      <stop offset="0.1411764705882353" stop-color="#f8f8b0" stop-opacity="0.0"/>
      <stop offset="0.5882352941176471" stop-color="#f0d828" stop-opacity="0.2509804"/>
      <stop offset="0.8352941176470589" stop-color="#e0a000" stop-opacity="0.5019608"/>
      <stop offset="1.0" stop-color="#f86000" stop-opacity="0.7529412"/>
    </radialGradient>
    <radialGradient cx="0" cy="0" gradientTransform="matrix(0.02, 0.0, 0.0, 0.02, 0.0, -16.2)" gradientUnits="userSpaceOnUse" id="gradient2" r="819.2" spreadMethod="pad">
      <stop offset="0.1411764705882353" stop-color="#f8f8b0" stop-opacity="0.0"/>
      <stop offset="0.5882352941176471" stop-color="#f0d828" stop-opacity="0.2509804"/>
      <stop offset="0.8352941176470589" stop-color="#e0a000" stop-opacity="0.5019608"/>
      <stop offset="1.0" stop-color="#f86000" stop-opacity="0.7529412"/>
    </radialGradient>
  </defs>
</svg>
