<?xml version="1.0" encoding="UTF-8" standalone="no"?>
<svg xmlns:ffdec="https://www.free-decompiler.com/flash" xmlns:xlink="http://www.w3.org/1999/xlink" ffdec:objectType="shape" height="36.0px" width="72.0px" xmlns="http://www.w3.org/2000/svg">
  <g transform="matrix(1.0, 0.0, 0.0, 1.0, 36.0, 32.2)">
    <path d="M20.0 -28.2 Q26.6 -28.2 31.2 -23.6 36.0 -18.8 36.0 -12.2 36.0 -5.6 31.2 -1.0 26.6 3.8 20.0 3.8 13.4 3.8 8.6 -1.0 4.0 -5.6 4.0 -12.2 4.0 -18.8 8.6 -23.6 13.4 -28.2 20.0 -28.2" fill="url(#gradient0)" fill-rule="evenodd" stroke="none"/>
    <path d="M-8.8 -23.6 Q-4.0 -18.8 -4.0 -12.2 -4.0 -5.6 -8.8 -1.0 -13.4 3.8 -20.0 3.8 -26.6 3.8 -31.4 -1.0 -36.0 -5.6 -36.0 -12.2 -36.0 -18.8 -31.4 -23.6 -26.6 -28.2 -20.0 -28.2 -13.4 -28.2 -8.8 -23.6" fill="url(#gradient1)" fill-rule="evenodd" stroke="none"/>
    <path d="M7.2 -5.0 Q2.6 -0.2 -4.0 -0.2 -10.6 -0.2 -15.4 -5.0 -20.0 -9.6 -20.0 -16.2 -20.0 -22.8 -15.4 -27.6 -10.6 -32.2 -4.0 -32.2 2.6 -32.2 7.2 -27.6 12.0 -22.8 12.0 -16.2 12.0 -9.6 7.2 -5.0" fill="url(#gradient2)" fill-rule="evenodd" stroke="none"/>
    <path d="M15.2 -27.6 Q20.0 -22.8 20.0 -16.2 20.0 -9.6 15.2 -5.0 10.6 -0.2 4.0 -0.2 -2.6 -0.2 -7.4 -5.0 -12.0 -9.6 -12.0 -16.2 -12.0 -22.8 -7.4 -27.6 -2.6 -32.2 4.0 -32.2 10.6 -32.2 15.2 -27.6" fill="url(#gradient3)" fill-rule="evenodd" stroke="none"/>
  </g>
  <defs>
    <radialGradient cx="0" cy="0" gradientTransform="matrix(0.02, 0.0, 0.0, 0.02, 20.0, -12.2)" gradientUnits="userSpaceOnUse" id="gradient0" r="819.2" spreadMethod="pad">
      <stop offset="0.1411764705882353" stop-color="#f8f8b0" stop-opacity="0.0"/>
      <stop offset="0.5882352941176471" stop-color="#f0d828" stop-opacity="0.2509804"/>
      <stop offset="0.8352941176470589" stop-color="#e0a000" stop-opacity="0.5019608"/>
      <stop offset="1.0" stop-color="#f86000" stop-opacity="0.7529412"/>
    </radialGradient>
    <radialGradient cx="0" cy="0" gradientTransform="matrix(0.02, 0.0, 0.0, 0.02, -20.0, -12.2)" gradientUnits="userSpaceOnUse" id="gradient1" r="819.2" spreadMethod="pad">
      <stop offset="0.1411764705882353" stop-color="#f8f8b0" stop-opacity="0.0"/>
      <stop offset="0.5882352941176471" stop-color="#f0d828" stop-opacity="0.2509804"/>
      <stop offset="0.8352941176470589" stop-color="#e0a000" stop-opacity="0.5019608"/>
      <stop offset="1.0" stop-color="#f86000" stop-opacity="0.7529412"/>
    </radialGradient>
    <radialGradient cx="0" cy="0" gradientTransform="matrix(0.02, 0.0, 0.0, 0.02, -4.0, -16.2)" gradientUnits="userSpaceOnUse" id="gradient2" r="819.2" spreadMethod="pad">
      <stop offset="0.1411764705882353" stop-color="#f8f8b0" stop-opacity="0.0"/>
      <stop offset="0.5882352941176471" stop-color="#f0d828" stop-opacity="0.2509804"/>
      <stop offset="0.8352941176470589" stop-color="#e0a000" stop-opacity="0.5019608"/>
      <stop offset="1.0" stop-color="#f86000" stop-opacity="0.7529412"/>
    </radialGradient>
    <radialGradient cx="0" cy="0" gradientTransform="matrix(0.02, 0.0, 0.0, 0.02, 4.0, -16.2)" gradientUnits="userSpaceOnUse" id="gradient3" r="819.2" spreadMethod="pad">
      <stop offset="0.1411764705882353" stop-color="#f8f8b0" stop-opacity="0.0"/>
      <stop offset="0.5882352941176471" stop-color="#f0d828" stop-opacity="0.2509804"/>
      <stop offset="0.8352941176470589" stop-color="#e0a000" stop-opacity="0.5019608"/>
      <stop offset="1.0" stop-color="#f86000" stop-opacity="0.7529412"/>
    </radialGradient>
  </defs>
</svg>
