<?xml version="1.0" encoding="UTF-8" standalone="no"?>
<svg xmlns:ffdec="https://www.free-decompiler.com/flash" xmlns:xlink="http://www.w3.org/1999/xlink" ffdec:objectType="shape" height="29.3px" width="18.0px" xmlns="http://www.w3.org/2000/svg">
  <g transform="matrix(1.0, 0.0, 0.0, 1.0, 9.0, 15.95)">
    <path d="M0.15 -15.95 Q2.0 -14.95 2.1 -13.1 L2.2 -10.75 0.15 -10.75 0.15 -15.95" fill="url(#gradient0)" fill-rule="evenodd" stroke="none"/>
    <path d="M2.2 -10.75 L2.4 -9.45 2.6 -8.7 0.15 -8.75 -1.8 -8.75 -2.55 -8.75 -2.35 -9.45 -2.2 -10.75 -1.8 -10.75 0.15 -10.75 2.2 -10.75" fill="url(#gradient1)" fill-rule="evenodd" stroke="none"/>
    <path d="M2.6 -8.7 Q2.9 -7.9 3.55 -7.15 L4.2 -6.5 5.3 -5.75 8.4 -3.7 Q8.95 -3.25 9.0 -2.4 L8.85 1.6 Q6.5 -0.85 4.5 -0.65 4.1 -0.6 4.15 0.2 L4.2 1.65 0.15 1.65 0.15 -8.75 2.6 -8.7 M4.2 3.55 L4.15 3.9 Q4.05 5.35 3.05 5.65 L2.5 5.7 2.35 5.7 2.3 5.6 1.85 5.65 0.2 5.6 0.15 5.6 0.15 3.55 4.2 3.55" fill="url(#gradient2)" fill-rule="evenodd" stroke="none"/>
    <path d="M-1.9 -13.95 Q-1.45 -15.2 0.15 -15.95 L0.15 -10.75 -1.8 -10.75 -1.9 -13.95 M0.15 -8.75 L0.15 1.65 -1.8 1.65 -1.8 -8.75 0.15 -8.75 M0.15 3.55 L0.15 5.6 0.1 5.6 -1.35 5.6 -1.65 5.6 -1.8 5.6 -1.8 3.55 0.15 3.55" fill="#e8f8e8" fill-rule="evenodd" stroke="none"/>
    <path d="M4.2 1.65 L4.2 3.55 0.15 3.55 -1.8 3.55 -4.15 3.55 -4.2 1.65 -1.8 1.65 0.15 1.65 4.2 1.65" fill="url(#gradient3)" fill-rule="evenodd" stroke="none"/>
    <path d="M-2.2 -10.75 Q-2.05 -11.9 -2.05 -13.1 L-1.9 -13.95 -1.8 -10.75 -2.2 -10.75" fill="url(#gradient4)" fill-rule="evenodd" stroke="none"/>
    <path d="M-2.35 5.65 L-3.05 5.55 Q-4.05 5.25 -4.15 3.9 L-4.15 3.55 -1.8 3.55 -1.8 5.6 -2.3 5.55 -2.35 5.65 M-4.2 1.65 L-4.15 0.2 Q-4.1 -0.6 -4.5 -0.65 -6.5 -0.85 -8.9 1.45 L-9.0 -2.4 -8.8 -3.2 -8.35 -3.7 Q-7.05 -4.85 -5.25 -5.75 -4.65 -6.1 -4.2 -6.5 L-3.5 -7.15 Q-2.9 -7.9 -2.55 -8.75 L-1.8 -8.75 -1.8 1.65 -4.2 1.65" fill="url(#gradient5)" fill-rule="evenodd" stroke="none"/>
    <path d="M2.35 5.7 Q2.8 6.75 2.9 8.0 3.0 9.45 2.2 9.8 L1.55 9.7 Q1.6 11.1 0.8 12.05 0.05 12.5 -0.15 13.35 -0.1 12.5 -0.85 12.05 -1.65 11.1 -1.6 9.7 L-2.25 9.8 Q-3.1 9.45 -2.95 8.0 -2.85 6.7 -2.35 5.65 L-2.3 5.55 -1.8 5.6 -1.65 5.6 -1.35 5.6 0.1 5.6 0.15 5.6 0.2 5.6 1.85 5.65 2.3 5.6 2.35 5.7" fill="url(#gradient6)" fill-rule="evenodd" stroke="none"/>
  </g>
  <defs>
    <linearGradient gradientTransform="matrix(0.0013, 0.0, 0.0, 0.0032, 1.2, -13.4)" gradientUnits="userSpaceOnUse" id="gradient0" spreadMethod="pad" x1="-819.2" x2="819.2">
      <stop offset="0.14901960784313725" stop-color="#404030"/>
      <stop offset="0.4666666666666667" stop-color="#707870"/>
      <stop offset="0.6823529411764706" stop-color="#686870"/>
      <stop offset="0.8941176470588236" stop-color="#404030"/>
    </linearGradient>
    <linearGradient gradientTransform="matrix(0.0032, 0.0, 0.0, 0.0013, 0.0, -9.8)" gradientUnits="userSpaceOnUse" id="gradient1" spreadMethod="pad" x1="-819.2" x2="819.2">
      <stop offset="0.0" stop-color="#f00000"/>
      <stop offset="0.5137254901960784" stop-color="#f8d000"/>
      <stop offset="1.0" stop-color="#f00000"/>
    </linearGradient>
    <linearGradient gradientTransform="matrix(0.0054, 0.0, 0.0, 0.0088, 4.55, -1.5)" gradientUnits="userSpaceOnUse" id="gradient2" spreadMethod="pad" x1="-819.2" x2="819.2">
      <stop offset="0.14901960784313725" stop-color="#404030"/>
      <stop offset="0.4666666666666667" stop-color="#707870"/>
      <stop offset="0.6823529411764706" stop-color="#686870"/>
      <stop offset="0.8941176470588236" stop-color="#404030"/>
    </linearGradient>
    <linearGradient gradientTransform="matrix(0.0051, 0.0, 0.0, 0.0012, 0.0, 2.55)" gradientUnits="userSpaceOnUse" id="gradient3" spreadMethod="pad" x1="-819.2" x2="819.2">
      <stop offset="0.14901960784313725" stop-color="#4f4f48"/>
      <stop offset="0.49019607843137253" stop-color="#686870"/>
      <stop offset="0.803921568627451" stop-color="#101010"/>
    </linearGradient>
    <linearGradient gradientTransform="matrix(0.0014, 0.0, 0.0, 0.0032, -1.05, -13.4)" gradientUnits="userSpaceOnUse" id="gradient4" spreadMethod="pad" x1="-819.2" x2="819.2">
      <stop offset="0.14901960784313725" stop-color="#989898"/>
      <stop offset="0.6627450980392157" stop-color="#d8e0d8"/>
      <stop offset="0.8666666666666667" stop-color="#e6f5e6"/>
    </linearGradient>
    <linearGradient gradientTransform="matrix(0.0056, 0.0, 0.0, 0.0088, -4.45, -1.55)" gradientUnits="userSpaceOnUse" id="gradient5" spreadMethod="pad" x1="-819.2" x2="819.2">
      <stop offset="0.14901960784313725" stop-color="#989898"/>
      <stop offset="1.0" stop-color="#d8e0d8"/>
    </linearGradient>
    <radialGradient cx="0" cy="0" gradientTransform="matrix(0.0095, 0.0, 0.0, 0.0087, -0.05, 6.25)" gradientUnits="userSpaceOnUse" id="gradient6" r="819.2" spreadMethod="pad">
      <stop offset="0.0" stop-color="#e8f8e8"/>
      <stop offset="0.27058823529411763" stop-color="#f8f850"/>
      <stop offset="0.803921568627451" stop-color="#f07800"/>
    </radialGradient>
  </defs>
</svg>
