<?xml version="1.0" encoding="UTF-8" standalone="no"?>
<svg xmlns:ffdec="https://www.free-decompiler.com/flash" xmlns:xlink="http://www.w3.org/1999/xlink" ffdec:objectType="shape" height="52.0px" width="88.0px" xmlns="http://www.w3.org/2000/svg">
  <g transform="matrix(1.0, 0.0, 0.0, 1.0, 44.0, 44.05)">
    <path d="M20.0 -40.05 Q29.9 -40.05 36.8 -33.15 44.0 -25.95 44.0 -16.05 44.0 -6.15 36.8 0.75 29.9 7.95 20.0 7.95 10.1 7.95 2.9 0.75 -4.0 -6.15 -4.0 -16.05 -4.0 -25.95 2.9 -33.15 10.1 -40.05 20.0 -40.05" fill="url(#gradient0)" fill-rule="evenodd" stroke="none"/>
    <path d="M-3.2 -33.15 Q4.0 -25.95 4.0 -16.05 4.0 -6.15 -3.2 0.75 -10.1 7.95 -20.0 7.95 -29.9 7.95 -37.1 0.75 -44.0 -6.15 -44.0 -16.05 -44.0 -25.95 -37.1 -33.15 -29.9 -40.05 -20.0 -40.05 -10.1 -40.05 -3.2 -33.15" fill="url(#gradient1)" fill-rule="evenodd" stroke="none"/>
    <path d="M17.0 -20.05 Q17.0 -10.15 9.8 -3.25 2.9 3.95 -7.0 3.95 -16.9 3.95 -24.1 -3.25 -31.0 -10.15 -31.0 -20.05 -31.0 -29.95 -24.1 -37.15 -16.9 -44.05 -7.0 -44.05 2.9 -44.05 9.8 -37.15 17.0 -29.95 17.0 -20.05" fill="url(#gradient2)" fill-rule="evenodd" stroke="none"/>
    <path d="M31.0 -20.05 Q31.0 -10.15 23.8 -3.25 16.9 3.95 7.0 3.95 -2.9 3.95 -10.1 -3.25 -17.0 -10.15 -17.0 -20.05 -17.0 -29.95 -10.1 -37.15 -2.9 -44.05 7.0 -44.05 16.9 -44.05 23.8 -37.15 31.0 -29.95 31.0 -20.05" fill="url(#gradient3)" fill-rule="evenodd" stroke="none"/>
  </g>
  <defs>
    <radialGradient cx="0" cy="0" gradientTransform="matrix(0.03, 0.0, 0.0, 0.03, 20.0, -16.0)" gradientUnits="userSpaceOnUse" id="gradient0" r="819.2" spreadMethod="pad">
      <stop offset="0.1411764705882353" stop-color="#f8f8b0" stop-opacity="0.0"/>
      <stop offset="0.5882352941176471" stop-color="#f0d828" stop-opacity="0.2509804"/>
      <stop offset="0.8352941176470589" stop-color="#e0a000" stop-opacity="0.5019608"/>
      <stop offset="1.0" stop-color="#f86000" stop-opacity="0.7529412"/>
    </radialGradient>
    <radialGradient cx="0" cy="0" gradientTransform="matrix(0.03, 0.0, 0.0, 0.03, -20.0, -16.0)" gradientUnits="userSpaceOnUse" id="gradient1" r="819.2" spreadMethod="pad">
      <stop offset="0.1411764705882353" stop-color="#f8f8b0" stop-opacity="0.0"/>
      <stop offset="0.5882352941176471" stop-color="#f0d828" stop-opacity="0.2509804"/>
      <stop offset="0.8352941176470589" stop-color="#e0a000" stop-opacity="0.5019608"/>
      <stop offset="1.0" stop-color="#f86000" stop-opacity="0.7529412"/>
    </radialGradient>
    <radialGradient cx="0" cy="0" gradientTransform="matrix(0.03, 0.0, 0.0, 0.03, -7.0, -20.05)" gradientUnits="userSpaceOnUse" id="gradient2" r="819.2" spreadMethod="pad">
      <stop offset="0.1411764705882353" stop-color="#f8f8b0" stop-opacity="0.0"/>
      <stop offset="0.5882352941176471" stop-color="#f0d828" stop-opacity="0.2509804"/>
      <stop offset="0.8352941176470589" stop-color="#e0a000" stop-opacity="0.5019608"/>
      <stop offset="1.0" stop-color="#f86000" stop-opacity="0.7529412"/>
    </radialGradient>
    <radialGradient cx="0" cy="0" gradientTransform="matrix(0.03, 0.0, 0.0, 0.03, 7.0, -20.05)" gradientUnits="userSpaceOnUse" id="gradient3" r="819.2" spreadMethod="pad">
      <stop offset="0.1411764705882353" stop-color="#f8f8b0" stop-opacity="0.0"/>
      <stop offset="0.5882352941176471" stop-color="#f0d828" stop-opacity="0.2509804"/>
      <stop offset="0.8352941176470589" stop-color="#e0a000" stop-opacity="0.5019608"/>
      <stop offset="1.0" stop-color="#f86000" stop-opacity="0.7529412"/>
    </radialGradient>
  </defs>
</svg>
