<?xml version="1.0" encoding="UTF-8" standalone="no"?>
<svg xmlns:ffdec="https://www.free-decompiler.com/flash" xmlns:xlink="http://www.w3.org/1999/xlink" ffdec:objectType="shape" height="24.35px" width="24.35px" xmlns="http://www.w3.org/2000/svg">
  <g transform="matrix(1.0, 0.0, 0.0, 1.0, 0.0, 0.0)">
    <path d="M14.5 6.8 Q15.7 5.15 17.2 4.25 L20.3 2.4 Q21.8 1.5 23.35 1.9 23.9 2.05 24.05 2.65 24.45 4.5 24.3 6.45 24.2 8.5 21.65 8.1 19.65 7.75 18.15 8.85 17.35 9.45 17.4 10.6 L17.75 12.85 Q16.95 11.2 15.25 11.0 L14.0 10.9 14.8 9.25 14.85 9.2 Q15.45 7.75 14.55 6.85 L14.5 6.8" fill="url(#gradient0)" fill-rule="evenodd" stroke="none"/>
    <path d="M10.0 7.05 Q9.0 4.25 9.05 2.75 9.1 1.2 10.5 0.3 11.9 -0.6 12.8 1.15 13.65 2.9 13.75 4.35 L13.65 6.2 Q13.1 7.5 11.25 7.4 L10.0 7.05" fill="url(#gradient1)" fill-rule="evenodd" stroke="none"/>
    <path d="M14.0 10.9 L12.9 12.35 10.7 11.8 9.3 11.85 9.3 11.8 9.05 10.45 8.85 9.6 Q8.7 8.1 10.0 7.05 L11.25 7.4 Q13.1 7.5 13.65 6.2 L14.5 6.8 14.55 6.85 Q15.45 7.75 14.85 9.2 L14.8 9.25 14.0 10.9" fill="#d03000" fill-rule="evenodd" stroke="none"/>
    <path d="M12.9 12.35 L13.25 12.85 Q13.35 13.65 12.95 14.2 12.0 15.5 11.8 17.1 L11.7 17.75 11.7 20.5 11.7 21.1 11.5 24.35 Q11.2 22.6 10.35 21.05 L8.3 17.9 Q7.25 16.65 7.25 14.5 7.25 13.95 7.4 13.5 7.75 12.15 9.3 11.85 L10.7 11.8 12.9 12.35" fill="url(#gradient2)" fill-rule="evenodd" stroke="none"/>
    <path d="M7.4 13.5 L5.0 14.45 Q4.55 14.1 4.85 13.15 L5.45 12.05 Q6.8 10.35 5.9 8.85 L4.75 8.85 Q2.5 8.85 2.3 6.7 2.1 4.45 0.0 3.7 0.85 1.8 3.15 2.05 5.1 2.3 6.75 3.2 8.25 4.0 8.8 5.7 9.05 6.45 10.0 7.05 8.7 8.1 8.85 9.6 L9.05 10.45 9.3 11.8 9.3 11.85 Q7.75 12.15 7.4 13.5" fill="url(#gradient3)" fill-rule="evenodd" stroke="none"/>
    <path d="M11.8 17.1 Q12.85 18.65 14.7 19.05 16.6 19.45 17.6 20.95 18.15 21.9 17.95 23.1 17.75 24.4 16.4 23.3 L15.7 22.65 Q14.5 21.4 12.85 20.6 L11.7 20.5 11.7 17.75 11.8 17.1" fill="url(#gradient4)" fill-rule="evenodd" stroke="none"/>
  </g>
  <defs>
    <linearGradient gradientTransform="matrix(0.0, 0.0061, -0.0063, 0.0, 19.2, 9.35)" gradientUnits="userSpaceOnUse" id="gradient0" spreadMethod="pad" x1="-819.2" x2="819.2">
      <stop offset="0.0" stop-color="#f8f8b0"/>
      <stop offset="0.5215686274509804" stop-color="#f0d828"/>
    </linearGradient>
    <linearGradient gradientTransform="matrix(0.0, 0.0061, -0.0029, 0.0, 11.4, 5.6)" gradientUnits="userSpaceOnUse" id="gradient1" spreadMethod="pad" x1="-819.2" x2="819.2">
      <stop offset="0.0" stop-color="#d44505"/>
      <stop offset="0.29411764705882354" stop-color="#f0d828"/>
    </linearGradient>
    <linearGradient gradientTransform="matrix(0.0037, 0.0, 0.0, 0.0077, 10.25, 18.05)" gradientUnits="userSpaceOnUse" id="gradient2" spreadMethod="pad" x1="-819.2" x2="819.2">
      <stop offset="0.0" stop-color="#e0a000"/>
      <stop offset="0.5215686274509804" stop-color="#f0d828"/>
    </linearGradient>
    <linearGradient gradientTransform="matrix(0.0, 0.006, -0.0061, 0.0, 5.0, 9.65)" gradientUnits="userSpaceOnUse" id="gradient3" spreadMethod="pad" x1="-819.2" x2="819.2">
      <stop offset="0.0" stop-color="#f8f8b0"/>
      <stop offset="0.5215686274509804" stop-color="#f0d828"/>
    </linearGradient>
    <linearGradient gradientTransform="matrix(0.0012, 0.0047, -0.0034, 9.0E-4, 14.65, 20.4)" gradientUnits="userSpaceOnUse" id="gradient4" spreadMethod="pad" x1="-819.2" x2="819.2">
      <stop offset="0.0" stop-color="#e0a000"/>
      <stop offset="0.5215686274509804" stop-color="#f0d828"/>
    </linearGradient>
  </defs>
</svg>
