<?xml version="1.0" encoding="UTF-8" standalone="no"?>
<svg xmlns:ffdec="https://www.free-decompiler.com/flash" xmlns:xlink="http://www.w3.org/1999/xlink" ffdec:objectType="shape" height="24.35px" width="23.45px" xmlns="http://www.w3.org/2000/svg">
  <g transform="matrix(1.0, 0.0, 0.0, 1.0, -1.05, 0.0)">
    <path d="M14.55 6.85 Q15.45 5.0 17.8 5.25 L19.9 5.75 23.25 7.35 24.5 7.85 Q23.45 9.0 21.25 8.85 20.05 8.75 19.45 9.7 L17.9 12.1 Q17.3 10.3 14.85 9.2 15.45 7.75 14.55 6.85" fill="url(#gradient0)" fill-rule="evenodd" stroke="none"/>
    <path d="M10.0 7.05 Q9.0 4.25 9.05 2.75 9.1 1.2 10.5 0.3 11.9 -0.6 12.8 1.15 13.65 2.9 13.75 4.35 L13.65 6.2 Q13.1 7.5 11.25 7.4 L10.0 7.05" fill="url(#gradient1)" fill-rule="evenodd" stroke="none"/>
    <path d="M14.85 9.2 L14.8 9.25 Q14.05 11.05 12.9 12.35 L10.7 11.8 9.3 11.85 9.3 11.8 9.05 10.45 8.85 9.6 Q8.7 8.1 10.0 7.05 L11.25 7.4 Q13.1 7.5 13.65 6.2 14.2 6.45 14.55 6.85 15.45 7.75 14.85 9.2" fill="#d03000" fill-rule="evenodd" stroke="none"/>
    <path d="M12.9 12.35 L13.25 12.85 Q13.35 13.65 12.95 14.2 12.0 15.5 11.8 17.1 L11.7 17.75 11.7 20.5 11.7 21.1 11.5 24.35 Q11.2 22.6 10.35 21.05 L8.3 17.9 Q7.25 16.65 7.25 14.5 7.25 12.25 9.3 11.85 L10.7 11.8 12.9 12.35" fill="url(#gradient2)" fill-rule="evenodd" stroke="none"/>
    <path d="M8.85 9.6 Q8.25 9.75 8.15 10.05 7.6 11.9 5.95 12.75 3.9 13.8 5.25 11.95 L5.8 11.15 Q6.55 9.95 5.15 9.95 3.1 10.0 1.15 9.3 0.55 6.9 3.45 7.15 4.05 6.1 5.2 5.75 7.15 5.2 10.0 7.05 8.7 8.1 8.85 9.6" fill="url(#gradient3)" fill-rule="evenodd" stroke="none"/>
    <path d="M11.8 17.1 Q12.85 18.65 14.7 19.05 16.6 19.45 17.6 20.95 18.15 21.9 17.95 23.1 17.75 24.4 16.4 23.3 L15.7 22.65 Q14.5 21.4 12.85 20.6 L11.7 20.5 11.7 17.75 11.8 17.1" fill="url(#gradient4)" fill-rule="evenodd" stroke="none"/>
  </g>
  <defs>
    <linearGradient gradientTransform="matrix(0.0, 0.0046, -0.0061, 0.0, 19.55, 9.7)" gradientUnits="userSpaceOnUse" id="gradient0" spreadMethod="pad" x1="-819.2" x2="819.2">
      <stop offset="0.0" stop-color="#f8f098"/>
      <stop offset="0.4549019607843137" stop-color="#f0d828"/>
    </linearGradient>
    <linearGradient gradientTransform="matrix(0.0, 0.0061, -0.0029, 0.0, 11.4, 5.6)" gradientUnits="userSpaceOnUse" id="gradient1" spreadMethod="pad" x1="-819.2" x2="819.2">
      <stop offset="0.0" stop-color="#d44505"/>
      <stop offset="0.29411764705882354" stop-color="#f0d828"/>
    </linearGradient>
    <radialGradient cx="0" cy="0" gradientTransform="matrix(0.0143, 0.0, 0.0, 0.0143, 8.65, 13.0)" gradientUnits="userSpaceOnUse" id="gradient2" r="819.2" spreadMethod="pad">
      <stop offset="0.0" stop-color="#f0d828"/>
      <stop offset="0.6352941176470588" stop-color="#f86000"/>
    </radialGradient>
    <linearGradient gradientTransform="matrix(0.0, 0.0027, -0.0055, 0.0, 5.55, 9.2)" gradientUnits="userSpaceOnUse" id="gradient3" spreadMethod="pad" x1="-819.2" x2="819.2">
      <stop offset="0.0" stop-color="#f8f098"/>
      <stop offset="0.4549019607843137" stop-color="#f0d828"/>
    </linearGradient>
    <radialGradient cx="0" cy="0" gradientTransform="matrix(0.0095, 0.0, 0.0, 0.0095, 17.0, 22.75)" gradientUnits="userSpaceOnUse" id="gradient4" r="819.2" spreadMethod="pad">
      <stop offset="0.0" stop-color="#f0d828"/>
      <stop offset="0.6352941176470588" stop-color="#f86000"/>
    </radialGradient>
  </defs>
</svg>
