<?xml version="1.0" encoding="UTF-8" standalone="no"?>
<svg xmlns:ffdec="https://www.free-decompiler.com/flash" xmlns:xlink="http://www.w3.org/1999/xlink" ffdec:objectType="shape" height="24.35px" width="26.15px" xmlns="http://www.w3.org/2000/svg">
  <g transform="matrix(1.0, 0.0, 0.0, 1.0, 1.1, 0.0)">
    <path d="M15.0 7.55 Q15.1 5.4 16.5 4.15 17.85 2.9 19.5 2.1 21.2 1.3 23.3 1.35 24.3 1.4 25.05 1.95 23.35 2.65 22.1 4.05 21.5 4.75 21.45 5.7 21.35 7.8 19.7 8.7 18.75 9.25 17.4 9.35 16.2 9.45 17.1 10.4 18.45 11.8 17.65 13.35 L16.0 10.85 Q15.5 10.3 14.3 10.3 L14.8 9.25 14.85 9.2 Q15.2 8.25 15.0 7.55" fill="url(#gradient0)" fill-rule="evenodd" stroke="none"/>
    <path d="M10.0 7.05 Q9.0 4.25 9.05 2.75 9.1 1.2 10.5 0.3 11.9 -0.6 12.8 1.15 13.65 2.9 13.75 4.35 L13.65 6.2 Q13.1 7.5 11.25 7.4 L10.0 7.05" fill="url(#gradient1)" fill-rule="evenodd" stroke="none"/>
    <path d="M14.3 10.3 L12.9 12.35 10.7 11.8 9.3 11.85 9.3 11.8 9.05 10.45 8.9 9.9 8.85 9.6 Q8.75 8.45 10.0 7.05 L11.25 7.4 Q13.1 7.5 13.65 6.2 14.2 6.45 14.55 6.85 L15.0 7.55 Q15.2 8.25 14.85 9.2 L14.8 9.25 14.3 10.3" fill="#e0a000" fill-rule="evenodd" stroke="none"/>
    <path d="M12.9 12.35 L13.25 12.85 Q13.35 13.65 12.95 14.2 12.0 15.5 11.8 17.1 L11.7 17.75 11.7 20.5 11.7 21.1 11.5 24.35 Q11.2 22.6 10.35 21.05 L8.3 17.9 Q7.25 16.65 7.25 14.5 7.25 12.25 9.3 11.85 L10.7 11.8 12.9 12.35" fill="url(#gradient2)" fill-rule="evenodd" stroke="none"/>
    <path d="M8.9 9.9 Q7.2 10.15 6.5 10.95 5.2 12.5 4.55 14.35 4.5 12.75 4.7 11.2 5.0 9.0 6.5 8.6 6.5 8.1 5.85 7.8 3.95 6.85 2.55 5.7 L0.95 4.4 Q-0.5 3.25 -1.1 1.2 L0.65 1.25 Q2.65 1.35 4.25 2.2 L7.25 4.25 10.0 7.05 Q8.75 8.45 8.85 9.6 L8.9 9.9" fill="url(#gradient3)" fill-rule="evenodd" stroke="none"/>
    <path d="M11.8 17.1 Q12.85 18.65 14.7 19.05 16.6 19.45 17.6 20.95 18.15 21.9 17.95 23.1 17.75 24.4 16.4 23.3 L15.7 22.65 Q14.5 21.4 12.85 20.6 L11.7 20.5 11.7 17.75 11.8 17.1" fill="#f8f098" fill-rule="evenodd" stroke="none"/>
  </g>
  <defs>
    <linearGradient gradientTransform="matrix(0.0, -0.0024, 0.0066, 0.0, 19.65, 6.4)" gradientUnits="userSpaceOnUse" id="gradient0" spreadMethod="pad" x1="-819.2" x2="819.2">
      <stop offset="0.0" stop-color="#f8f8b0"/>
      <stop offset="1.0" stop-color="#e8f8e8"/>
    </linearGradient>
    <linearGradient gradientTransform="matrix(0.0, 0.0059, -0.0029, 0.0, 11.4, 5.4)" gradientUnits="userSpaceOnUse" id="gradient1" spreadMethod="pad" x1="-819.2" x2="819.2">
      <stop offset="0.0" stop-color="#e0a000"/>
      <stop offset="0.29411764705882354" stop-color="#f8f8b0"/>
    </linearGradient>
    <radialGradient cx="0" cy="0" gradientTransform="matrix(0.0137, 0.0, 0.0, 0.0137, 9.3, 13.7)" gradientUnits="userSpaceOnUse" id="gradient2" r="819.2" spreadMethod="pad">
      <stop offset="0.0" stop-color="#f8f098"/>
      <stop offset="0.29411764705882354" stop-color="#f0d828"/>
    </radialGradient>
    <linearGradient gradientTransform="matrix(0.0, -0.0015, 0.0068, 0.0, 4.45, 8.1)" gradientUnits="userSpaceOnUse" id="gradient3" spreadMethod="pad" x1="-819.2" x2="819.2">
      <stop offset="0.0" stop-color="#f8f8b0"/>
      <stop offset="1.0" stop-color="#e8f8e8"/>
    </linearGradient>
  </defs>
</svg>
