<?xml version="1.0" encoding="UTF-8" standalone="no"?>
<svg xmlns:ffdec="https://www.free-decompiler.com/flash" xmlns:xlink="http://www.w3.org/1999/xlink" ffdec:objectType="shape" height="16.1px" width="21.6px" xmlns="http://www.w3.org/2000/svg">
  <g transform="matrix(1.0, 0.0, 0.0, 1.0, 10.8, 8.0)">
    <path d="M2.95 -3.95 Q2.85 -6.3 3.7 -7.8 3.9 -8.15 4.45 -7.95 5.3 -7.6 5.3 -6.4 L5.2 -2.4 Q4.4 -1.9 3.4 -2.0 L3.45 -2.8 Q3.5 -3.6 2.95 -3.95 M4.6 1.9 Q5.1 4.15 4.95 5.85 4.85 6.8 4.15 7.15 2.75 7.8 2.6 6.45 2.4 4.4 2.75 2.05 L4.6 1.9 M-2.1 3.9 Q-1.95 6.2 -2.65 8.1 -4.4 7.75 -4.45 5.95 L-4.35 2.0 Q-3.95 2.3 -3.0 2.4 -2.85 3.4 -2.1 3.9" fill="#f8f098" fill-rule="evenodd" stroke="none"/>
    <path d="M2.75 2.05 Q2.25 3.1 1.25 3.8 0.35 4.35 -0.9 4.25 L-2.1 3.9 Q-2.85 3.4 -3.0 2.4 L-3.05 1.7 -3.15 -1.55 -0.45 -3.85 2.95 -3.95 Q3.5 -3.6 3.45 -2.8 L3.4 -2.0 3.05 0.95 2.75 2.05" fill="url(#gradient0)" fill-rule="evenodd" stroke="none"/>
    <path d="M5.2 -2.4 L6.4 -3.6 Q7.65 -5.55 9.55 -4.5 11.7 -3.35 10.2 -1.7 L9.25 -0.95 Q7.7 0.0 6.2 1.1 5.5 1.65 4.6 1.9 L2.75 2.05 3.05 0.95 3.4 -2.0 Q4.4 -1.9 5.2 -2.4 M-4.35 2.0 L-4.45 1.9 -6.35 0.35 -9.45 -1.65 Q-11.15 -2.7 -10.7 -4.9 -10.55 -6.15 -9.4 -6.1 L-7.35 -5.75 Q-6.25 -5.45 -5.45 -4.6 -4.25 -3.3 -3.15 -1.55 L-3.05 1.7 -3.0 2.4 Q-3.95 2.3 -4.35 2.0" fill="#e8f8e8" fill-rule="evenodd" stroke="none"/>
  </g>
  <defs>
    <radialGradient cx="0" cy="0" gradientTransform="matrix(0.0094, 0.0, 0.0, 0.0094, -1.4, 2.2)" gradientUnits="userSpaceOnUse" id="gradient0" r="819.2" spreadMethod="pad">
      <stop offset="0.0" stop-color="#f8f098"/>
      <stop offset="0.4666666666666667" stop-color="#e0a000"/>
      <stop offset="1.0" stop-color="#d03000"/>
    </radialGradient>
  </defs>
</svg>
