<?xml version="1.0" encoding="UTF-8" standalone="no"?>
<svg xmlns:ffdec="https://www.free-decompiler.com/flash" xmlns:xlink="http://www.w3.org/1999/xlink" ffdec:objectType="shape" height="16.1px" width="25.45px" xmlns="http://www.w3.org/2000/svg">
  <g transform="matrix(1.0, 0.0, 0.0, 1.0, 12.45, 8.0)">
    <path d="M-4.35 2.0 Q-4.7 1.7 -5.3 1.5 L-6.8 0.45 -7.85 -0.4 -9.15 -0.7 Q-10.1 -0.7 -10.9 -1.3 L-12.05 -2.45 Q-12.65 -3.2 -12.4 -4.15 L-12.15 -4.4 -10.8 -4.65 Q-9.8 -4.7 -9.0 -4.1 -8.2 -3.5 -7.55 -4.35 -6.95 -5.05 -5.9 -4.9 L-5.1 -4.7 Q-4.1 -4.35 -3.9 -3.4 -3.7 -2.45 -2.8 -1.9 L-3.15 -1.55 -3.05 1.7 -3.0 2.4 Q-3.95 2.3 -4.35 2.0 M5.3 -3.85 Q5.9 -4.75 6.95 -4.75 7.55 -3.8 8.4 -3.3 9.15 -2.85 10.1 -2.95 L12.0 -2.6 Q12.9 -2.2 13.0 -1.15 13.1 -0.35 12.0 -0.05 L10.2 0.1 Q9.35 0.05 8.95 0.8 8.55 1.65 7.6 1.9 L5.7 2.1 4.6 1.9 2.75 2.05 3.05 0.95 3.4 -2.0 Q4.4 -1.9 4.6 -2.65 5.25 -3.15 5.3 -3.85" fill="#f8f8b0" fill-rule="evenodd" stroke="none"/>
    <path d="M-3.0 2.4 L-3.05 1.7 -3.15 -1.55 -2.8 -1.9 -0.45 -3.85 2.95 -3.95 Q3.5 -3.6 3.45 -2.8 L3.4 -2.0 3.05 0.95 2.75 2.05 Q2.25 3.1 1.25 3.8 0.35 4.35 -0.9 4.25 L-2.1 3.9 Q-2.85 3.4 -3.0 2.4" fill="url(#gradient0)" fill-rule="evenodd" stroke="none"/>
    <path d="M-4.35 2.0 Q-3.95 2.3 -3.0 2.4 -2.85 3.4 -2.1 3.9 -1.95 6.2 -2.65 8.1 -4.4 7.75 -4.45 5.95 L-4.35 2.0 M2.95 -3.95 Q2.85 -6.3 3.7 -7.8 3.9 -8.15 4.45 -7.95 5.3 -7.6 5.3 -6.4 L5.3 -3.85 Q5.25 -3.15 4.6 -2.65 4.4 -1.9 3.4 -2.0 L3.45 -2.8 Q3.5 -3.6 2.95 -3.95 M4.6 1.9 Q5.1 4.15 4.95 5.85 4.85 6.8 4.15 7.15 2.75 7.8 2.6 6.45 2.4 4.4 2.75 2.05 L4.6 1.9" fill="#f0d828" fill-rule="evenodd" stroke="none"/>
  </g>
  <defs>
    <radialGradient cx="0" cy="0" gradientTransform="matrix(0.0094, 0.0, 0.0, 0.0094, -1.4, 2.2)" gradientUnits="userSpaceOnUse" id="gradient0" r="819.2" spreadMethod="pad">
      <stop offset="0.0" stop-color="#f8f098"/>
      <stop offset="0.4666666666666667" stop-color="#e0a000"/>
      <stop offset="1.0" stop-color="#d03000"/>
    </radialGradient>
  </defs>
</svg>
