<?xml version="1.0" encoding="UTF-8" standalone="no"?>
<svg xmlns:ffdec="https://www.free-decompiler.com/flash" xmlns:xlink="http://www.w3.org/1999/xlink" ffdec:objectType="shape" height="16.1px" width="23.5px" xmlns="http://www.w3.org/2000/svg">
  <g transform="matrix(1.0, 0.0, 0.0, 1.0, 11.6, 8.0)">
    <path d="M-3.15 -1.55 L-3.05 1.7 -6.7 1.9 Q-8.2 1.75 -9.55 1.15 -11.4 0.35 -11.6 -1.9 -9.55 -1.95 -8.75 -3.6 L-7.85 -4.5 Q-6.9 -4.9 -5.9 -3.8 -4.35 -2.8 -3.15 -1.55" fill="url(#gradient0)" fill-rule="evenodd" stroke="none"/>
    <path d="M-3.05 1.7 L-3.15 -1.55 -0.45 -3.85 2.95 -3.95 Q3.5 -3.6 3.45 -2.8 L3.4 -2.0 3.05 0.95 2.75 2.05 Q2.25 3.1 1.25 3.8 0.35 4.35 -0.9 4.25 L-2.1 3.9 Q-2.85 3.4 -3.0 2.4 L-3.05 1.7" fill="url(#gradient1)" fill-rule="evenodd" stroke="none"/>
    <path d="M-3.0 2.4 Q-2.85 3.4 -2.1 3.9 -1.95 6.2 -2.65 8.1 -4.4 7.75 -4.45 5.95 L-4.35 2.0 Q-3.95 2.3 -3.0 2.4 M2.75 2.05 L4.6 1.9 Q5.1 4.15 4.95 5.85 4.85 6.8 4.15 7.15 2.75 7.8 2.6 6.45 2.4 4.4 2.75 2.05" fill="#e0a000" fill-rule="evenodd" stroke="none"/>
    <path d="M2.75 2.05 L3.05 0.95 3.4 -2.0 Q4.4 -1.9 5.2 -2.4 L5.25 -3.3 Q6.4 -5.2 8.65 -4.75 10.85 -4.3 9.9 -2.15 9.75 -1.8 9.95 -1.35 10.45 -0.3 11.75 0.05 12.45 2.95 9.9 2.65 L6.05 2.3 4.6 1.9 2.75 2.05" fill="url(#gradient2)" fill-rule="evenodd" stroke="none"/>
    <path d="M3.4 -2.0 L3.45 -2.8 Q3.5 -3.6 2.95 -3.95 2.85 -6.3 3.7 -7.8 3.9 -8.15 4.45 -7.95 5.3 -7.6 5.3 -6.4 L5.25 -3.3 5.2 -2.4 Q4.4 -1.9 3.4 -2.0" fill="#f86000" fill-rule="evenodd" stroke="none"/>
  </g>
  <defs>
    <linearGradient gradientTransform="matrix(0.0, 0.0013, -0.0052, 0.0, -7.3, -2.25)" gradientUnits="userSpaceOnUse" id="gradient0" spreadMethod="pad" x1="-819.2" x2="819.2">
      <stop offset="0.0" stop-color="#f0d828"/>
      <stop offset="1.0" stop-color="#f8f098"/>
    </linearGradient>
    <radialGradient cx="0" cy="0" gradientTransform="matrix(0.0072, 0.0, 0.0, 0.0072, -0.45, 0.55)" gradientUnits="userSpaceOnUse" id="gradient1" r="819.2" spreadMethod="pad">
      <stop offset="0.0" stop-color="#f8f098"/>
      <stop offset="0.4666666666666667" stop-color="#e0a000"/>
      <stop offset="1.0" stop-color="#d03000"/>
    </radialGradient>
    <linearGradient gradientTransform="matrix(0.0, 0.0013, -0.0056, 0.0, 7.35, -2.25)" gradientUnits="userSpaceOnUse" id="gradient2" spreadMethod="pad" x1="-819.2" x2="819.2">
      <stop offset="0.0" stop-color="#f0d828"/>
      <stop offset="1.0" stop-color="#f8f098"/>
    </linearGradient>
  </defs>
</svg>
