<?xml version="1.0" encoding="UTF-8" standalone="no"?>
<svg xmlns:ffdec="https://www.free-decompiler.com/flash" xmlns:xlink="http://www.w3.org/1999/xlink" ffdec:objectType="shape" height="24.05px" width="22.9px" xmlns="http://www.w3.org/2000/svg">
  <g transform="matrix(1.0, 0.0, 0.0, 1.0, 11.6, 11.95)">
    <path d="M2.1 -7.55 L2.2 -5.8 Q2.1 -4.9 2.35 -4.1 L2.7 -2.9 3.65 -3.9 Q4.65 -3.65 5.0 -2.9 L5.7 -1.45 5.8 0.65 5.8 0.7 5.85 0.65 6.35 -0.3 7.2 0.9 8.85 0.05 9.3 -0.1 9.45 0.95 9.25 2.25 Q9.6 2.55 9.65 3.1 L9.25 3.7 10.6 4.65 Q11.75 5.55 11.0 6.2 L9.95 7.3 9.05 8.6 8.15 9.1 7.8 9.05 7.1 9.1 6.8 6.45 6.75 5.65 Q6.75 5.05 5.65 5.4 L5.8 6.4 5.8 6.65 5.7 8.4 5.65 9.3 5.6 10.25 5.15 10.35 3.9 10.45 2.2 10.45 2.1 10.45 1.9 10.3 1.85 9.25 1.1 9.3 Q0.5 9.3 0.6 10.2 L0.6 12.0 -0.1 12.1 -0.25 12.1 -0.95 12.0 -1.0 10.2 Q-0.95 9.3 -1.55 9.3 L-2.25 9.25 -2.25 10.3 -2.4 10.45 -2.55 10.45 -4.3 10.45 -5.45 10.35 -5.9 10.25 -5.9 9.3 -6.05 8.4 -6.1 6.65 -6.1 6.4 -5.9 5.4 Q-7.05 5.05 -7.05 5.65 L-7.1 6.45 -7.4 9.1 -7.45 9.1 -8.15 9.05 -8.45 9.1 Q-9.0 9.1 -9.3 8.6 L-10.25 7.3 -11.3 6.2 Q-12.1 5.55 -10.9 4.65 L-9.55 3.7 -9.95 3.1 Q-9.95 2.55 -9.6 2.25 L-9.75 0.95 -9.65 -0.1 -9.25 0.05 -7.55 0.9 -6.7 -0.3 -6.2 0.65 -6.15 0.7 -6.15 0.65 -6.05 -1.45 -5.35 -2.9 Q-5.0 -3.65 -4.0 -3.9 L-3.05 -2.9 -3.0 -2.75 -2.65 -4.1 Q-2.4 -4.9 -2.45 -5.8 L-2.3 -7.55 Q-2.1 -8.35 -2.05 -9.2 -2.05 -10.1 -1.15 -10.3 L-1.15 -10.9 Q-1.3 -12.15 -0.35 -11.9 0.9 -12.15 0.8 -10.9 L0.7 -10.3 0.75 -10.3 Q1.75 -10.1 1.8 -9.2 L2.1 -7.55" fill="#000000" fill-opacity="0.5019608" fill-rule="evenodd" stroke="none"/>
  </g>
</svg>
