<?xml version="1.0" encoding="UTF-8" standalone="no"?>
<svg xmlns:ffdec="https://www.free-decompiler.com/flash" xmlns:xlink="http://www.w3.org/1999/xlink" ffdec:objectType="shape" height="16.0px" width="16.0px" xmlns="http://www.w3.org/2000/svg">
  <g transform="matrix(1.0, 0.0, 0.0, 1.0, 8.0, 8.0)">
    <path d="M5.0 -4.7 L5.0 -2.85 5.0 -1.85 5.0 1.15 5.0 2.15 5.0 4.3 0.95 4.3 -0.05 4.3 -1.05 4.3 -2.05 4.3 -5.0 4.3 -5.0 2.15 -5.0 1.15 -5.0 -1.85 -5.0 -2.85 -5.0 -4.65 -2.05 -4.65 -1.05 -4.65 -0.05 -4.65 0.95 -4.65 5.0 -4.7 M4.0 -3.5 L1.7 -3.5 0.0 0.0 -1.7 -3.5 -4.0 -3.5 -4.0 3.5 -2.15 3.5 -2.15 -1.2 -0.7 1.85 0.65 1.85 2.05 -1.2 2.05 3.5 4.0 3.5 4.0 -3.5" fill="#000000" fill-rule="evenodd" stroke="none"/>
    <path d="M4.0 -3.5 L4.0 3.5 2.05 3.5 2.05 -1.2 0.65 1.85 -0.7 1.85 -2.15 -1.2 -2.15 3.5 -4.0 3.5 -4.0 -3.5 -1.7 -3.5 0.0 0.0 1.7 -3.5 4.0 -3.5" fill="#f4f24c" fill-rule="evenodd" stroke="none"/>
    <path d="M5.05 -7.2 L5.3 -7.65 Q5.6 -8.0 6.05 -8.0 L6.9 -8.0 Q7.3 -8.0 7.65 -7.65 L8.0 -6.85 8.0 -2.85 5.0 -2.85 5.0 -4.7 5.0 -6.85 5.05 -7.2" fill="url(#gradient0)" fill-rule="evenodd" stroke="none"/>
    <path d="M0.95 -7.2 L5.05 -7.2 5.0 -6.85 5.0 -4.7 0.95 -4.65 0.95 -7.2" fill="url(#gradient1)" fill-rule="evenodd" stroke="none"/>
    <path d="M8.0 -1.85 L8.0 1.15 5.0 1.15 5.0 -1.85 8.0 -1.85" fill="url(#gradient2)" fill-rule="evenodd" stroke="none"/>
    <path d="M8.0 2.15 L8.0 6.9 7.65 7.65 Q7.3 8.0 6.9 8.0 L6.05 8.0 Q5.6 8.0 5.3 7.65 L5.0 7.05 5.0 6.9 5.0 6.8 5.0 4.3 5.0 2.15 8.0 2.15" fill="url(#gradient3)" fill-rule="evenodd" stroke="none"/>
    <path d="M5.0 6.8 L0.95 6.8 0.95 4.3 5.0 4.3 5.0 6.8" fill="url(#gradient4)" fill-rule="evenodd" stroke="none"/>
    <path d="M-1.05 -7.2 L-0.05 -7.2 -0.05 -4.65 -1.05 -4.65 -1.05 -7.2" fill="url(#gradient5)" fill-rule="evenodd" stroke="none"/>
    <path d="M-8.0 -2.85 L-8.0 -6.85 Q-8.05 -7.3 -7.7 -7.65 -7.4 -8.0 -6.95 -8.0 L-6.1 -8.0 Q-5.7 -8.0 -5.35 -7.65 L-5.05 -7.15 -5.0 -6.85 -5.0 -4.65 -5.0 -2.85 -8.0 -2.85" fill="url(#gradient6)" fill-rule="evenodd" stroke="none"/>
    <path d="M-5.05 -7.15 L-2.05 -7.2 -2.05 -4.65 -5.0 -4.65 -5.0 -6.85 -5.05 -7.15" fill="url(#gradient7)" fill-rule="evenodd" stroke="none"/>
    <path d="M-8.0 1.15 L-8.0 -1.85 -5.0 -1.85 -5.0 1.15 -8.0 1.15" fill="url(#gradient8)" fill-rule="evenodd" stroke="none"/>
    <path d="M-0.05 6.8 L-1.05 6.8 -1.05 4.3 -0.05 4.3 -0.05 6.8" fill="url(#gradient9)" fill-rule="evenodd" stroke="none"/>
    <path d="M-5.0 6.8 L-5.0 6.9 -5.05 7.05 -5.35 7.65 Q-5.7 8.0 -6.1 8.0 L-6.95 8.0 Q-7.4 8.0 -7.7 7.65 L-8.0 6.9 -8.0 2.15 -5.0 2.15 -5.0 4.3 -5.0 6.8" fill="url(#gradient10)" fill-rule="evenodd" stroke="none"/>
    <path d="M-2.05 6.8 L-5.0 6.8 -5.0 4.3 -2.05 4.3 -2.05 6.8" fill="url(#gradient11)" fill-rule="evenodd" stroke="none"/>
    <path d="M8.0 -2.85 L8.0 -1.85 5.0 -1.85 5.0 -2.85 8.0 -2.85 M8.0 1.15 L8.0 2.15 5.0 2.15 5.0 1.15 8.0 1.15 M0.95 6.8 L-0.05 6.8 -0.05 4.3 0.95 4.3 0.95 6.8 M-1.05 6.8 L-2.05 6.8 -2.05 4.3 -1.05 4.3 -1.05 6.8 M-8.0 2.15 L-8.0 1.15 -5.0 1.15 -5.0 2.15 -8.0 2.15 M-8.0 -1.85 L-8.0 -2.85 -5.0 -2.85 -5.0 -1.85 -8.0 -1.85 M-2.05 -7.2 L-1.05 -7.2 -1.05 -4.65 -2.05 -4.65 -2.05 -7.2 M-0.05 -7.2 L0.95 -7.2 0.95 -4.65 -0.05 -4.65 -0.05 -7.2" fill="#46464c" fill-rule="evenodd" stroke="none"/>
  </g>
  <defs>
    <linearGradient gradientTransform="matrix(0.0018, 0.0, 0.0, 0.0031, 6.5, -5.45)" gradientUnits="userSpaceOnUse" id="gradient0" spreadMethod="pad" x1="-819.2" x2="819.2">
      <stop offset="0.0" stop-color="#ccc2bc"/>
      <stop offset="0.5333333333333333" stop-color="#949294"/>
      <stop offset="1.0" stop-color="#64626c"/>
    </linearGradient>
    <linearGradient gradientTransform="matrix(0.0, 0.0015, -0.0025, 0.0, 3.0, -6.0)" gradientUnits="userSpaceOnUse" id="gradient1" spreadMethod="pad" x1="-819.2" x2="819.2">
      <stop offset="0.0" stop-color="#ccc2bc"/>
      <stop offset="0.5333333333333333" stop-color="#949294"/>
      <stop offset="1.0" stop-color="#64626c"/>
    </linearGradient>
    <linearGradient gradientTransform="matrix(0.0018, 0.0, 0.0, 0.0018, 6.5, -0.35)" gradientUnits="userSpaceOnUse" id="gradient2" spreadMethod="pad" x1="-819.2" x2="819.2">
      <stop offset="0.0" stop-color="#ccc2bc"/>
      <stop offset="0.5333333333333333" stop-color="#949294"/>
      <stop offset="1.0" stop-color="#64626c"/>
    </linearGradient>
    <linearGradient gradientTransform="matrix(0.0019, 0.0, 0.0, 0.0036, 6.45, 5.05)" gradientUnits="userSpaceOnUse" id="gradient3" spreadMethod="pad" x1="-819.2" x2="819.2">
      <stop offset="0.0" stop-color="#ccc2bc"/>
      <stop offset="0.5333333333333333" stop-color="#949294"/>
      <stop offset="1.0" stop-color="#64626c"/>
    </linearGradient>
    <linearGradient gradientTransform="matrix(0.0, -0.0015, 0.0025, 0.0, 2.95, 5.55)" gradientUnits="userSpaceOnUse" id="gradient4" spreadMethod="pad" x1="-819.2" x2="819.2">
      <stop offset="0.0" stop-color="#ccc2bc"/>
      <stop offset="0.5333333333333333" stop-color="#949294"/>
      <stop offset="1.0" stop-color="#64626c"/>
    </linearGradient>
    <linearGradient gradientTransform="matrix(0.0, 0.0016, -6.0E-4, 0.0, -0.55, -5.95)" gradientUnits="userSpaceOnUse" id="gradient5" spreadMethod="pad" x1="-819.2" x2="819.2">
      <stop offset="0.0" stop-color="#ccc2bc"/>
      <stop offset="0.5333333333333333" stop-color="#949294"/>
      <stop offset="1.0" stop-color="#64626c"/>
    </linearGradient>
    <linearGradient gradientTransform="matrix(0.0018, 0.0, 0.0, 0.0031, -6.5, -5.45)" gradientUnits="userSpaceOnUse" id="gradient6" spreadMethod="pad" x1="-819.2" x2="819.2">
      <stop offset="0.0" stop-color="#ccc2bc"/>
      <stop offset="0.5333333333333333" stop-color="#949294"/>
      <stop offset="1.0" stop-color="#64626c"/>
    </linearGradient>
    <linearGradient gradientTransform="matrix(0.0, 0.0015, -0.0018, 0.0, -3.55, -5.95)" gradientUnits="userSpaceOnUse" id="gradient7" spreadMethod="pad" x1="-819.2" x2="819.2">
      <stop offset="0.0" stop-color="#ccc2bc"/>
      <stop offset="0.5333333333333333" stop-color="#949294"/>
      <stop offset="1.0" stop-color="#64626c"/>
    </linearGradient>
    <linearGradient gradientTransform="matrix(0.0018, 0.0, 0.0, 0.0018, -6.5, -0.35)" gradientUnits="userSpaceOnUse" id="gradient8" spreadMethod="pad" x1="-819.2" x2="819.2">
      <stop offset="0.0" stop-color="#ccc2bc"/>
      <stop offset="0.5333333333333333" stop-color="#949294"/>
      <stop offset="1.0" stop-color="#64626c"/>
    </linearGradient>
    <linearGradient gradientTransform="matrix(0.0, -0.0015, 6.0E-4, 0.0, -0.55, 5.55)" gradientUnits="userSpaceOnUse" id="gradient9" spreadMethod="pad" x1="-819.2" x2="819.2">
      <stop offset="0.0" stop-color="#ccc2bc"/>
      <stop offset="0.5333333333333333" stop-color="#949294"/>
      <stop offset="1.0" stop-color="#64626c"/>
    </linearGradient>
    <linearGradient gradientTransform="matrix(0.0018, 0.0, 0.0, 0.0036, -6.5, 5.05)" gradientUnits="userSpaceOnUse" id="gradient10" spreadMethod="pad" x1="-819.2" x2="819.2">
      <stop offset="0.0" stop-color="#ccc2bc"/>
      <stop offset="0.5333333333333333" stop-color="#949294"/>
      <stop offset="1.0" stop-color="#64626c"/>
    </linearGradient>
    <linearGradient gradientTransform="matrix(0.0, -0.0014, 0.0018, 0.0, -3.55, 5.6)" gradientUnits="userSpaceOnUse" id="gradient11" spreadMethod="pad" x1="-819.2" x2="819.2">
      <stop offset="0.0" stop-color="#ccc2bc"/>
      <stop offset="0.5333333333333333" stop-color="#949294"/>
      <stop offset="1.0" stop-color="#64626c"/>
    </linearGradient>
  </defs>
</svg>
