<?xml version="1.0" encoding="UTF-8" standalone="no"?>
<svg xmlns:ffdec="https://www.free-decompiler.com/flash" xmlns:xlink="http://www.w3.org/1999/xlink" ffdec:objectType="shape" height="30.0px" width="25.05px" xmlns="http://www.w3.org/2000/svg">
  <g transform="matrix(1.0, 0.0, 0.0, 1.0, 12.5, 15.0)">
    <path d="M1.1 -13.2 Q2.15 -12.95 2.2 -11.95 L2.5 -10.1 2.6 -8.2 Q2.5 -7.2 2.8 -6.3 L3.2 -4.95 3.2 -5.0 4.2 -6.1 Q5.3 -5.8 5.7 -4.95 L6.45 -3.35 6.55 -1.1 6.55 -1.0 Q6.75 -1.65 7.2 -2.1 L8.1 -0.8 9.95 -1.7 10.4 -1.9 10.55 -0.7 10.35 0.75 Q10.75 1.1 10.8 1.7 L10.3 2.35 11.8 3.45 Q13.05 4.4 12.25 5.05 L11.1 6.3 10.1 7.75 Q9.7 8.3 9.1 8.3 L8.75 8.25 8.0 8.3 8.55 6.7 8.55 5.85 8.2 6.4 7.75 6.9 7.65 5.35 7.6 4.55 Q7.6 3.9 6.4 4.25 L6.55 5.3 6.55 5.55 6.45 7.5 6.4 8.5 6.35 9.6 5.85 9.7 Q6.35 10.3 6.45 11.3 6.6 12.3 6.1 13.15 L4.9 14.4 4.35 15.0 4.1 14.5 2.8 13.35 Q2.2 12.6 2.1 11.6 2.0 10.55 2.5 9.8 L2.35 9.65 Q2.25 9.05 2.3 8.45 L1.45 8.5 Q0.8 8.5 0.9 9.5 L0.9 11.5 0.1 11.65 -0.05 11.65 -0.8 11.5 Q-1.0 10.5 -0.85 9.5 -0.75 8.5 -1.4 8.5 L-2.2 8.45 -2.25 9.65 -2.4 9.8 Q-1.95 10.55 -2.0 11.6 -2.1 12.6 -2.7 13.35 -3.25 14.0 -4.05 14.5 L-4.25 15.0 -4.85 14.4 Q-5.6 13.95 -6.0 13.15 -6.55 12.3 -6.4 11.3 -6.3 10.3 -5.75 9.7 L-6.3 9.6 -6.3 8.5 -6.4 7.5 -6.45 5.55 -6.45 5.3 Q-6.55 4.65 -6.3 4.25 -7.55 3.9 -7.55 4.55 L-7.6 5.35 -7.65 6.9 -8.15 6.4 -8.5 5.85 -8.5 6.7 -7.95 8.3 -8.7 8.25 -9.0 8.3 Q-9.6 8.3 -10.0 7.75 L-11.0 6.3 -12.15 5.05 Q-13.0 4.4 -11.7 3.45 L-10.2 2.35 -10.65 1.7 Q-10.65 1.1 -10.25 0.75 L-10.45 -0.7 -10.3 -1.9 -9.9 -1.7 -8.05 -0.8 -7.15 -2.1 Q-6.7 -1.65 -6.5 -1.0 L-6.5 -1.1 -6.4 -3.35 -5.65 -4.95 Q-5.25 -5.8 -4.1 -6.1 L-3.1 -5.0 -3.0 -4.85 -2.6 -6.3 Q-2.35 -7.2 -2.45 -8.2 L-2.3 -10.1 -2.0 -11.95 Q-2.0 -12.95 -1.0 -13.15 L-1.05 -13.85 Q-1.2 -15.25 -0.1 -14.95 1.25 -15.25 1.15 -13.85 L1.05 -13.2 1.1 -13.2 M0.3 1.9 L0.25 1.9 0.05 1.9 0.3 1.9 M-0.25 1.9 L0.05 1.9 -0.2 1.9 -0.25 1.9" fill="#ffff99" fill-opacity="0.5019608" fill-rule="evenodd" stroke="none"/>
  </g>
</svg>
