<?xml version="1.0" encoding="UTF-8" standalone="no"?>
<svg xmlns:ffdec="https://www.free-decompiler.com/flash" xmlns:xlink="http://www.w3.org/1999/xlink" ffdec:objectType="shape" height="17.3px" width="19.1px" xmlns="http://www.w3.org/2000/svg">
  <g transform="matrix(1.0, 0.0, 0.0, 1.0, -6.0, -304.0)">
    <path d="M23.7 312.95 Q25.1 314.35 25.1 316.4 25.1 318.45 23.7 319.85 22.25 321.3 20.2 321.3 18.15 321.3 16.75 319.85 L15.75 318.35 15.4 318.35 14.35 319.85 Q12.9 321.3 10.9 321.3 8.85 321.3 7.45 319.85 6.0 318.45 6.0 316.4 6.0 314.35 7.45 312.95 8.85 311.5 10.9 311.5 L11.45 311.55 Q10.7 310.35 10.7 308.9 10.7 306.85 12.1 305.4 L12.55 305.0 Q13.85 304.0 15.55 304.0 17.25 304.0 18.55 305.0 L19.0 305.4 Q20.4 306.85 20.4 308.9 20.4 310.35 19.65 311.55 L20.2 311.5 Q22.25 311.5 23.7 312.95" fill="#000000" fill-rule="evenodd" stroke="none"/>
  </g>
</svg>
