<?xml version="1.0" encoding="UTF-8" standalone="no"?>
<svg xmlns:ffdec="https://www.free-decompiler.com/flash" xmlns:xlink="http://www.w3.org/1999/xlink" ffdec:objectType="shape" height="17.3px" width="19.1px" xmlns="http://www.w3.org/2000/svg">
  <g transform="matrix(1.0, 0.0, 0.0, 1.0, -4.0, -302.0)">
    <path d="M13.6 308.15 L14.25 308.25 14.7 308.6 14.8 309.15 14.75 309.7 14.25 310.15 13.65 310.25 12.6 310.25 12.15 310.25 12.15 308.15 12.4 308.15 13.6 308.15 M15.5 313.2 L15.3 313.9 14.75 314.3 13.9 314.55 13.35 314.55 12.35 314.55 12.15 314.55 12.15 312.0 12.75 312.0 13.2 312.0 13.85 312.0 13.95 312.0 14.65 312.1 Q15.1 312.25 15.25 312.5 L15.5 313.2" fill="#999999" fill-rule="evenodd" stroke="none"/>
    <path d="M13.6 308.15 L12.4 308.15 12.15 308.15 12.15 310.25 12.6 310.25 13.65 310.25 14.25 310.15 14.75 309.7 14.8 309.15 14.7 308.6 14.25 308.25 13.6 308.15 M9.6 309.55 L9.6 306.3 13.5 306.3 15.2 306.4 16.35 306.75 17.2 307.5 17.5 308.6 17.3 309.6 17.1 309.95 16.0 310.8 16.0 310.85 Q17.0 311.0 17.6 311.65 18.15 312.25 18.15 313.25 L17.9 314.6 17.05 315.55 15.75 316.15 13.95 316.35 13.75 316.35 13.4 316.35 9.6 316.35 9.6 309.55 M15.5 313.2 L15.25 312.5 Q15.1 312.25 14.65 312.1 L13.95 312.0 13.85 312.0 13.2 312.0 12.75 312.0 12.15 312.0 12.15 314.55 12.35 314.55 13.35 314.55 13.9 314.55 14.75 314.3 15.3 313.9 15.5 313.2" fill="#000000" fill-rule="evenodd" stroke="none"/>
    <path d="M17.3 309.6 L17.5 308.6 17.2 307.5 16.35 306.75 15.2 306.4 13.5 306.3 9.6 306.3 9.6 309.55 9.45 309.55 Q8.7 308.35 8.7 306.9 8.7 304.85 10.1 303.4 11.5 302.0 13.55 302.0 15.6 302.0 17.0 303.4 18.4 304.85 18.4 306.9 18.4 308.35 17.65 309.55 L17.3 309.6" fill="url(#gradient0)" fill-rule="evenodd" stroke="none"/>
    <path d="M9.45 309.55 L9.6 309.55 9.6 316.35 13.4 316.35 12.35 317.85 Q10.9 319.3 8.9 319.3 6.85 319.3 5.45 317.85 4.0 316.45 4.0 314.4 4.0 312.35 5.45 310.95 6.85 309.5 8.9 309.5 L9.45 309.55" fill="url(#gradient1)" fill-rule="evenodd" stroke="none"/>
    <path d="M17.3 309.6 L17.65 309.55 18.2 309.5 Q20.25 309.5 21.7 310.95 23.1 312.35 23.1 314.4 23.1 316.45 21.7 317.85 20.25 319.3 18.2 319.3 16.15 319.3 14.75 317.85 14.05 317.15 13.75 316.35 L13.95 316.35 15.75 316.15 17.05 315.55 17.9 314.6 18.15 313.25 Q18.15 312.25 17.6 311.65 17.0 311.0 16.0 310.85 L16.0 310.8 17.1 309.95 17.3 309.6" fill="url(#gradient2)" fill-rule="evenodd" stroke="none"/>
  </g>
  <defs>
    <radialGradient cx="0" cy="0" gradientTransform="matrix(0.009, 0.0, 0.0, 0.009, 12.3, 305.3)" gradientUnits="userSpaceOnUse" id="gradient0" r="819.2" spreadMethod="pad">
      <stop offset="0.0" stop-color="#ffffff"/>
      <stop offset="1.0" stop-color="#990000"/>
    </radialGradient>
    <radialGradient cx="0" cy="0" gradientTransform="matrix(0.009, 0.0, 0.0, 0.009, 7.75, 312.85)" gradientUnits="userSpaceOnUse" id="gradient1" r="819.2" spreadMethod="pad">
      <stop offset="0.0" stop-color="#ffffff"/>
      <stop offset="1.0" stop-color="#990099"/>
    </radialGradient>
    <radialGradient cx="0" cy="0" gradientTransform="matrix(0.009, 0.0, 0.0, 0.009, 17.05, 312.85)" gradientUnits="userSpaceOnUse" id="gradient2" r="819.2" spreadMethod="pad">
      <stop offset="0.0" stop-color="#ffffff"/>
      <stop offset="1.0" stop-color="#000099"/>
    </radialGradient>
  </defs>
</svg>
