<?xml version="1.0" encoding="UTF-8" standalone="no"?>
<svg xmlns:ffdec="https://www.free-decompiler.com/flash" xmlns:xlink="http://www.w3.org/1999/xlink" ffdec:objectType="shape" height="24.5px" width="20.15px" xmlns="http://www.w3.org/2000/svg">
  <g transform="matrix(1.0, 0.0, 0.0, 1.0, 9.5, 12.05)">
    <path d="M9.65 -1.6 L9.65 2.9 M-8.5 -1.6 L-8.5 2.9" fill="none" stroke="#e06800" stroke-linecap="round" stroke-linejoin="round" stroke-width="2.0"/>
    <path d="M4.25 9.75 L4.25 11.45 M4.25 -11.05 L4.25 -8.45 4.25 9.75 M-3.1 9.75 L-3.1 11.45 M-3.1 -8.45 L-3.1 -11.05 M-3.1 9.75 L-3.1 -8.45" fill="none" stroke="#e06800" stroke-linecap="round" stroke-linejoin="round" stroke-width="2.0"/>
    <path d="M4.25 -8.45 L9.65 -8.45 9.65 -1.6 M9.65 2.9 L9.65 9.75 4.25 9.75 -3.1 9.75 -8.5 9.75 -8.5 2.9 M-3.1 -8.45 L-8.5 -8.45 -8.5 -1.6 M-3.1 -8.45 L4.25 -8.45" fill="none" stroke="#a03000" stroke-linecap="round" stroke-linejoin="round" stroke-width="2.0"/>
  </g>
</svg>
