<?xml version="1.0" encoding="UTF-8" standalone="no"?>
<svg xmlns:ffdec="https://www.free-decompiler.com/flash" xmlns:xlink="http://www.w3.org/1999/xlink" ffdec:objectType="shape" height="350.0px" width="300.0px" xmlns="http://www.w3.org/2000/svg">
  <g transform="matrix(1.0, 0.0, 0.0, 1.0, 150.0, 175.0)">
    <path d="M150.0 175.0 L-150.0 175.0 -150.0 -175.0 150.0 -175.0 150.0 175.0" fill="#000000" fill-opacity="0.5019608" fill-rule="evenodd" stroke="none"/>
    <path d="M42.65 -50.1 L42.55 -50.4 42.75 -50.85 43.2 -51.15 43.6 -51.3 45.95 -51.05 48.5 -49.65 50.05 -46.5 51.9 -39.9 52.05 -39.5 52.0 -39.3 53.1 -33.9 53.25 -33.45 53.55 -31.2 53.95 -33.0 55.6 -37.15 56.4 -38.6 56.85 -40.25 57.05 -40.7 57.1 -40.9 57.35 -41.35 57.7 -43.05 60.6 -52.25 61.5 -53.55 62.0 -54.65 62.35 -55.1 62.95 -56.15 63.05 -56.45 64.0 -57.9 66.45 -60.5 66.8 -60.95 67.0 -61.1 67.15 -61.5 68.2 -61.45 68.35 -60.6 68.1 -60.35 68.0 -59.9 67.65 -59.1 66.8 -55.0 66.6 -54.4 66.3 -53.8 66.15 -53.05 65.4 -51.85 65.3 -50.7 64.95 -50.1 64.75 -49.3 64.75 -48.7 64.45 -48.1 64.35 -47.65 64.35 -46.1 64.4 -45.75 64.25 -45.0 64.2 -42.85 63.95 -41.8 63.95 -40.95 63.55 -39.65 62.9 -36.45 62.6 -35.6 62.25 -33.5 60.55 -28.2 60.25 -27.5 59.45 -26.25 58.85 -24.8 57.3 -22.25 55.9 -21.0 54.6 -20.55 54.55 -20.4 53.6 -20.1 52.7 -20.4 50.9 -21.25 49.65 -22.35 49.3 -23.05 48.0 -26.6 44.8 -38.95 43.25 -48.35 43.1 -48.8 42.55 -49.8 42.65 -50.1 M70.8 -50.05 L70.8 -50.15 71.15 -50.25 71.0 -50.3 71.2 -50.8 71.2 -51.35 72.4 -52.1 72.55 -52.1 72.9 -52.4 74.35 -53.0 74.7 -53.25 74.85 -53.6 75.65 -54.1 76.75 -54.4 78.25 -54.55 78.8 -54.4 78.9 -54.4 79.4 -54.35 84.75 -54.55 85.85 -54.35 96.95 -53.5 97.95 -53.3 98.55 -53.3 98.7 -52.5 98.6 -51.7 97.4 -51.4 97.0 -51.35 96.65 -51.2 95.55 -51.3 95.2 -51.15 94.35 -51.2 94.0 -51.05 94.0 -51.1 93.9 -51.0 93.9 -50.5 92.7 -50.15 92.6 -50.3 92.5 -50.1 92.3 -50.1 91.75 -49.95 90.9 -49.35 90.75 -49.5 90.7 -49.3 90.35 -49.35 90.25 -49.2 88.55 -48.95 88.4 -49.05 88.3 -48.95 88.3 -48.75 87.15 -48.45 86.6 -48.1 86.15 -47.9 85.85 -47.65 84.0 -47.1 83.65 -47.05 83.45 -46.8 82.25 -46.75 79.9 -45.95 79.75 -45.7 79.45 -45.6 78.2 -42.2 77.85 -41.6 77.8 -41.35 78.85 -41.55 81.5 -41.65 85.4 -41.35 86.3 -41.15 86.6 -41.0 87.15 -40.9 87.15 -40.25 86.7 -39.4 84.85 -38.2 84.75 -38.3 84.65 -38.0 83.0 -37.65 80.5 -36.8 76.45 -36.3 76.1 -34.5 75.95 -34.0 75.6 -32.0 75.45 -31.7 75.5 -28.7 75.6 -28.3 75.85 -28.15 77.75 -28.1 80.7 -28.45 81.7 -28.75 90.15 -30.5 90.3 -29.6 89.5 -28.6 89.5 -28.5 88.65 -27.4 86.25 -25.5 86.15 -25.05 84.7 -24.45 84.35 -24.05 84.35 -24.2 83.7 -23.65 83.15 -23.3 82.95 -23.35 82.75 -23.15 82.75 -23.0 81.05 -22.45 80.65 -22.2 80.25 -22.2 80.15 -22.1 77.9 -21.9 75.75 -22.05 73.1 -22.75 71.15 -23.85 71.05 -24.05 70.25 -24.95 70.0 -25.65 69.45 -26.55 69.2 -27.2 69.05 -27.4 68.75 -29.0 68.75 -29.35 68.6 -30.2 68.55 -32.7 68.75 -33.15 68.7 -33.25 68.7 -34.4 68.9 -35.2 69.15 -37.2 70.2 -41.55 70.2 -41.8 70.6 -42.75 70.75 -43.7 71.75 -46.75 71.85 -46.8 72.05 -47.45 71.85 -47.55 70.5 -48.8 70.2 -49.65 70.8 -50.05 M1.7 -50.3 L1.6 -50.1 1.4 -50.1 0.85 -49.95 0.0 -49.35 -0.15 -49.5 -0.2 -49.3 -0.55 -49.35 -0.65 -49.2 -2.35 -48.95 -2.5 -49.05 -2.6 -48.95 -2.6 -48.75 -3.75 -48.45 -4.3 -48.1 -4.75 -47.9 -5.05 -47.65 -6.9 -47.1 -7.25 -47.05 -7.45 -46.8 -8.65 -46.75 -11.0 -45.95 -11.15 -45.7 -11.45 -45.6 -12.7 -42.2 -13.05 -41.6 -13.1 -41.35 -12.05 -41.55 -6.8 -41.5 -4.6 -41.15 -4.3 -41.0 -3.75 -40.9 -3.75 -40.25 -4.2 -39.4 -6.05 -38.2 -6.15 -38.3 -6.25 -38.0 -7.9 -37.65 -10.4 -36.8 -14.45 -36.3 -14.8 -34.5 -14.95 -34.0 -15.3 -32.0 -15.45 -31.7 -15.4 -28.7 -15.3 -28.3 -15.05 -28.15 -13.15 -28.1 -10.2 -28.45 -9.2 -28.75 -0.75 -30.5 -0.6 -29.6 -1.4 -28.6 -1.4 -28.5 -2.25 -27.4 -4.65 -25.5 -4.75 -25.05 -6.2 -24.45 -6.55 -24.05 -6.55 -24.2 -7.2 -23.65 -7.75 -23.3 -7.95 -23.35 -8.15 -23.15 -8.15 -23.0 -9.85 -22.45 -10.25 -22.2 -10.65 -22.2 -10.75 -22.1 -13.0 -21.9 -15.15 -22.05 -17.8 -22.75 -19.75 -23.85 -19.85 -24.05 -20.65 -24.95 -20.9 -25.65 -21.45 -26.55 -21.7 -27.2 -21.85 -27.4 -22.15 -29.0 -22.15 -29.35 -22.3 -30.2 -22.35 -32.7 -22.15 -33.15 -22.2 -33.25 -22.2 -34.4 -22.0 -35.2 -21.75 -37.2 -20.7 -41.55 -20.7 -41.8 -20.3 -42.75 -20.15 -43.7 -19.15 -46.75 -19.05 -46.8 -18.85 -47.45 -19.05 -47.55 -20.4 -48.8 -20.7 -49.65 -20.1 -50.05 -20.1 -50.15 -19.75 -50.25 -19.9 -50.3 -19.7 -50.8 -19.7 -51.35 -18.5 -52.1 -18.35 -52.1 -18.0 -52.4 -16.55 -53.0 -16.2 -53.25 -16.05 -53.6 -15.25 -54.1 -14.15 -54.4 -12.65 -54.55 -12.1 -54.4 -12.0 -54.4 -11.5 -54.35 -6.15 -54.55 -5.05 -54.35 6.05 -53.5 7.05 -53.3 7.65 -53.3 7.8 -52.5 7.7 -51.7 6.5 -51.4 6.1 -51.35 5.75 -51.2 4.65 -51.3 4.3 -51.15 3.45 -51.2 3.1 -51.05 3.1 -51.1 3.0 -51.0 3.0 -50.5 1.8 -50.15 1.7 -50.3 M23.3 -50.2 L23.7 -50.7 24.2 -50.9 24.75 -51.5 25.45 -51.8 25.85 -52.1 27.6 -52.6 27.8 -52.8 28.45 -52.8 28.8 -52.9 29.55 -52.8 30.15 -52.85 30.75 -52.45 31.2 -51.95 31.25 -51.7 31.5 -51.3 32.0 -51.1 32.0 -49.85 32.15 -49.4 33.45 -48.25 33.95 -47.65 34.2 -47.7 35.3 -46.25 35.7 -45.6 36.2 -45.2 36.8 -43.95 36.75 -43.95 36.9 -43.9 37.35 -42.9 37.85 -42.45 38.05 -41.8 38.1 -41.1 38.15 -41.1 38.6 -40.3 38.75 -38.85 39.05 -37.85 39.15 -36.8 39.25 -36.45 39.9 -36.35 39.85 -35.55 39.75 -35.05 39.75 -34.85 40.0 -34.85 39.35 -31.0 39.35 -30.65 39.2 -30.45 39.2 -30.05 38.8 -29.45 38.45 -28.2 38.25 -28.0 38.25 -27.75 38.0 -27.15 37.5 -26.7 37.65 -26.5 37.35 -25.95 36.9 -25.65 36.6 -25.3 36.05 -25.1 35.55 -24.25 35.25 -23.95 34.15 -23.3 33.75 -23.2 33.6 -23.05 32.95 -22.55 32.1 -22.4 31.55 -22.2 31.4 -22.05 30.4 -21.55 29.35 -21.4 28.15 -21.0 27.65 -21.05 27.05 -20.8 23.2 -21.35 18.6 -23.5 17.65 -24.2 16.2 -25.55 15.1 -27.1 14.35 -28.6 13.5 -31.85 13.55 -34.35 13.7 -35.6 14.25 -37.75 15.2 -39.85 15.4 -40.05 15.45 -40.4 20.95 -48.0 21.75 -48.9 22.3 -49.25 22.75 -49.9 23.3 -50.2 M31.2 -41.3 L30.25 -42.35 29.45 -43.65 28.8 -44.0 28.05 -44.7 26.8 -44.4 26.1 -43.45 23.65 -38.85 23.45 -38.35 23.2 -37.2 22.75 -36.5 22.3 -35.1 22.1 -34.85 20.65 -31.6 20.65 -30.0 21.0 -28.6 21.25 -28.3 21.95 -27.6 23.35 -27.1 25.9 -27.05 26.15 -27.1 27.75 -27.3 29.2 -27.95 29.85 -28.45 30.55 -28.7 31.1 -29.45 32.2 -32.75 32.3 -33.65 32.75 -34.15 32.55 -34.3 32.65 -36.35 31.6 -40.6 31.2 -41.3 M110.45 -52.9 L113.7 -54.2 114.75 -54.35 116.3 -54.3 117.3 -53.9 119.25 -52.6 120.55 -50.85 121.0 -50.05 121.4 -48.65 121.55 -47.7 121.4 -47.15 121.5 -47.05 121.2 -45.7 120.2 -44.25 120.0 -44.25 119.75 -43.9 119.25 -43.75 118.95 -43.75 118.25 -42.85 117.55 -42.4 115.7 -40.85 115.1 -40.45 114.65 -39.9 113.15 -38.65 112.7 -38.4 112.6 -38.4 111.8 -37.75 111.15 -37.5 109.95 -36.8 109.55 -36.4 109.0 -36.4 108.8 -36.25 118.85 -32.05 123.05 -29.5 123.45 -29.35 124.1 -28.8 123.8 -28.05 122.85 -28.15 122.85 -27.9 122.45 -27.95 122.45 -27.8 121.7 -27.25 121.5 -27.25 121.05 -27.05 119.95 -27.45 119.5 -27.4 118.6 -27.6 118.45 -27.6 116.55 -28.25 115.45 -28.4 110.8 -30.0 110.0 -30.4 104.35 -32.3 103.1 -27.8 102.8 -27.25 102.65 -26.85 102.7 -26.3 102.45 -25.9 102.3 -25.2 102.0 -24.55 101.45 -23.75 101.3 -23.6 101.3 -23.45 101.0 -22.8 100.7 -22.65 100.35 -21.6 100.15 -21.35 100.05 -21.05 99.65 -20.8 99.3 -20.1 98.6 -20.1 98.4 -19.7 97.85 -19.85 97.8 -19.65 97.15 -19.65 96.65 -19.45 95.8 -19.6 94.5 -20.8 94.2 -20.9 93.85 -21.6 93.55 -21.8 93.6 -22.75 93.4 -23.15 93.45 -23.8 93.75 -25.6 93.75 -26.9 93.8 -27.4 97.4 -41.35 98.5 -43.9 98.5 -44.2 98.85 -44.55 98.8 -44.8 99.1 -46.25 99.65 -47.4 99.65 -47.65 100.1 -48.35 100.7 -49.0 101.45 -49.1 102.0 -49.25 102.85 -49.15 103.6 -48.7 104.15 -48.5 104.45 -48.5 105.0 -48.8 107.1 -50.7 110.45 -52.9 M115.25 -48.4 L114.65 -48.25 114.1 -47.75 113.45 -47.55 111.95 -46.65 111.65 -46.25 110.8 -45.4 110.8 -45.05 110.15 -44.75 109.2 -43.55 108.85 -42.7 108.15 -41.85 108.05 -41.6 107.55 -40.6 107.2 -40.2 106.6 -39.3 109.8 -41.3 112.75 -44.2 113.65 -45.45 113.95 -45.65 114.1 -46.0 114.55 -46.7 115.1 -48.2 115.25 -48.4 115.7 -48.55 115.3 -48.55 115.25 -48.4 M-95.3 -53.15 L-94.8 -53.3 -93.0 -54.15 -92.15 -54.4 -90.8 -54.6 -90.25 -54.45 -89.9 -54.0 -89.55 -53.75 -88.7 -52.7 -87.8 -51.85 -87.5 -51.7 -86.65 -51.55 -86.0 -50.05 -86.2 -47.5 -86.85 -46.4 -87.4 -45.7 -87.8 -45.6 -88.15 -45.1 -88.8 -44.35 -90.1 -43.9 -91.15 -43.8 Q-91.45 -43.6 -91.8 -43.45 L-92.45 -43.2 -92.9 -42.85 -93.0 -42.45 -93.5 -42.05 -96.2 -39.15 -99.25 -34.6 -99.7 -33.75 -99.85 -33.55 -99.95 -33.05 -99.9 -31.55 -99.55 -31.05 -98.8 -30.55 -98.0 -30.25 -97.35 -30.15 -97.0 -30.35 -95.9 -30.65 -94.9 -31.1 -93.45 -31.95 -92.15 -32.95 -92.0 -33.2 -90.45 -37.8 -90.2 -37.95 -90.2 -38.65 -89.3 -39.15 -88.95 -39.4 -88.5 -40.0 -87.7 -40.0 -87.0 -39.75 -86.45 -39.85 -85.65 -39.1 -84.7 -38.8 -84.1 -38.35 -82.8 -36.05 -82.65 -34.25 -82.85 -32.9 -83.2 -32.25 -83.7 -30.95 -83.95 -29.75 -85.55 -25.95 -85.55 -25.9 -87.05 -22.0 -87.15 -21.35 -87.45 -21.0 -87.5 -19.55 -87.7 -19.4 -87.7 -19.35 -87.9 -18.25 -88.25 -17.35 -88.4 -17.35 -89.05 -16.05 -89.4 -13.6 -89.65 -12.65 -89.7 -12.0 -89.8 -11.8 -89.8 -10.95 -90.3 -10.5 -90.3 -9.85 -90.75 -9.45 -90.6 -9.45 -90.6 -9.0 -91.95 -7.25 -92.65 -10.7 -93.05 -11.95 -93.65 -17.0 -93.75 -17.35 -93.9 -20.35 -93.8 -20.65 -93.65 -24.45 -93.75 -24.5 -94.3 -24.25 -95.0 -24.1 -95.35 -23.75 -96.2 -23.5 -96.45 -23.65 -97.15 -23.3 -100.35 -23.25 -101.95 -23.55 -103.45 -24.05 -105.2 -24.9 -106.85 -26.15 -107.5 -26.8 -108.45 -28.25 -109.0 -30.1 -109.55 -31.25 -109.65 -32.15 -109.55 -32.7 -109.55 -34.1 -109.25 -35.1 -107.75 -38.45 -107.25 -39.15 -106.6 -40.3 -106.35 -40.55 -104.0 -43.9 -103.75 -44.35 -100.1 -48.8 -99.9 -49.15 -99.55 -49.4 -97.35 -51.65 -96.1 -52.35 -95.3 -53.15 M-81.2 -22.1 L-79.45 -30.85 -79.3 -31.15 -79.3 -31.35 -79.9 -32.35 -79.95 -33.15 -79.7 -33.3 -79.8 -33.35 -79.65 -34.45 -79.65 -34.8 -78.55 -35.1 -78.2 -35.3 -76.65 -40.5 -76.6 -40.55 -73.45 -49.6 -73.35 -49.8 -73.25 -49.95 -72.3 -52.7 -72.05 -53.1 -70.7 -56.15 -70.05 -56.6 -69.35 -56.8 -67.9 -56.75 -66.85 -56.6 -66.75 -56.45 -66.35 -56.4 -65.1 -55.75 -63.45 -53.85 -62.85 -52.8 -62.9 -51.95 -62.7 -51.45 -63.25 -42.1 -63.7 -40.0 -63.8 -39.7 -64.1 -37.95 -64.1 -37.15 -64.2 -37.0 -64.2 -36.7 -64.25 -36.65 -64.1 -36.4 -64.5 -35.5 -64.1 -35.05 -64.1 -34.95 -63.95 -34.95 -64.15 -33.45 -64.25 -33.15 -64.1 -32.4 -64.35 -32.2 -64.25 -32.0 -64.25 -30.85 -64.7 -30.6 -64.6 -30.25 -64.4 -30.0 -64.5 -29.3 -64.35 -28.65 -64.5 -28.45 -64.4 -28.25 -64.5 -27.6 -64.05 -24.85 -63.9 -24.25 -63.95 -23.95 -63.65 -23.15 -63.75 -22.35 -63.65 -21.1 -63.5 -20.6 -63.65 -20.35 -63.6 -20.2 -63.45 -19.6 -63.25 -19.25 -63.3 -18.65 -62.9 -16.75 -62.9 -16.3 -62.65 -15.25 -62.85 -13.85 -64.4 -15.4 -65.2 -17.1 -65.2 -17.25 -67.2 -21.9 -67.25 -22.55 -68.05 -24.2 -68.35 -25.8 -68.75 -26.65 -69.0 -28.15 -69.2 -28.65 -69.45 -29.75 -69.5 -29.55 -70.6 -29.4 -70.75 -29.25 -73.6 -29.2 -73.85 -29.15 -74.1 -28.45 -74.05 -27.75 -74.35 -26.8 -74.6 -25.5 -74.8 -25.2 -75.1 -24.3 -75.15 -23.8 -75.3 -23.5 -75.6 -22.0 -76.0 -21.2 -76.05 -20.8 -76.8 -19.25 -77.35 -18.65 -77.85 -18.45 -78.2 -18.2 -79.05 -18.05 -79.65 -18.05 -80.35 -18.4 -81.0 -19.2 -81.2 -20.45 -81.2 -22.1 M-31.5 -59.2 L-30.85 -59.55 -30.1 -59.7 -28.85 -59.55 -27.4 -58.55 -26.05 -56.7 -25.9 -56.45 -25.3 -54.8 -25.05 -51.1 -25.35 -49.15 -25.35 -48.15 -25.5 -47.9 -25.55 -47.25 -27.0 -40.8 -27.45 -39.5 -27.55 -39.05 -27.55 -38.35 -27.7 -37.45 -27.9 -37.0 -27.9 -36.4 -28.1 -36.15 -28.05 -35.65 -28.25 -35.15 -28.1 -34.4 -28.35 -34.1 -28.4 -32.85 -28.65 -31.7 -28.65 -31.35 -28.6 -30.95 -28.8 -30.4 -28.85 -29.3 -29.35 -27.05 -29.25 -26.7 -29.35 -26.4 -29.3 -25.7 -29.45 -24.9 -29.3 -22.25 -29.45 -22.05 -29.55 -21.2 -29.8 -20.7 -29.55 -20.6 -29.7 -19.7 -29.55 -19.1 -29.55 -18.55 -29.8 -18.25 -29.95 -17.85 -29.7 -17.05 -29.7 -16.0 -29.85 -16.0 -29.85 -15.05 -30.3 -15.05 -30.2 -13.9 -30.4 -13.55 -30.35 -12.9 -31.5 -12.2 -31.8 -13.1 -31.9 -13.2 -32.25 -14.7 -32.45 -15.1 -32.45 -15.4 -32.85 -17.65 -32.8 -17.9 -32.9 -18.25 -33.05 -19.2 -33.2 -19.4 -33.2 -19.75 -34.35 -33.25 -34.6 -34.05 -34.5 -38.4 -34.6 -38.8 -34.45 -42.3 -34.3 -42.8 -34.3 -43.65 -34.15 -44.1 -34.15 -44.3 -34.2 -44.25 -34.4 -44.2 -34.65 -43.65 -34.75 -42.6 -35.25 -42.05 -35.35 -42.05 -35.4 -41.95 -35.4 -41.1 -35.65 -40.95 -35.65 -41.0 -36.55 -38.25 -36.8 -37.95 -38.7 -32.55 -40.75 -29.55 -42.5 -28.3 -42.8 -28.4 -43.1 -28.25 -45.15 -28.35 -46.7 -28.8 -47.55 -29.35 -48.55 -30.3 -49.2 -31.15 -50.05 -33.4 -50.35 -36.3 -50.55 -35.5 -51.25 -31.15 -52.1 -28.45 -52.1 -28.1 -52.9 -26.0 -53.05 -25.1 -53.45 -24.1 -53.4 -23.8 -53.5 -23.1 -53.5 -22.75 -53.85 -22.3 -53.95 -21.35 -54.15 -21.1 -54.25 -19.5 -54.5 -19.15 -54.45 -18.9 -54.65 -18.4 -55.15 -17.8 -55.35 -17.75 -55.45 -17.5 -55.85 -17.2 -56.5 -17.2 -57.45 -17.0 -57.55 -17.25 -57.65 -17.15 -58.4 -17.6 -59.5 -19.05 -59.6 -19.8 -59.4 -20.55 -59.4 -22.2 -59.0 -24.65 -59.0 -25.75 -58.05 -38.8 -55.4 -49.45 -55.05 -50.0 -55.05 -50.2 -54.05 -51.25 -53.75 -51.95 -53.4 -52.45 -53.15 -53.0 -51.95 -53.4 -50.95 -53.45 -50.4 -53.3 -49.5 -53.2 -48.15 -52.8 -47.65 -52.5 -46.8 -52.2 -46.6 -51.95 -45.4 -51.15 -44.65 -50.1 -44.05 -48.55 -43.85 -47.6 -43.6 -46.95 -43.7 -37.9 -43.55 -37.05 -42.2 -40.3 -41.95 -40.65 -41.7 -41.3 -41.25 -41.9 -39.25 -46.5 -38.75 -47.3 -37.45 -50.25 -37.15 -50.7 -36.6 -52.0 -34.1 -56.4 -33.9 -56.9 -33.45 -57.45 -33.2 -57.95 -32.75 -58.55 -32.0 -59.05 -31.5 -59.2 M-70.35 -46.55 L-70.4 -44.1 -71.1 -41.05 -71.25 -40.85 -71.35 -40.1 -72.1 -36.9 -72.1 -36.5 -72.0 -36.45 -70.3 -36.35 -70.3 -36.3 -70.15 -36.35 -70.3 -36.35 -70.4 -38.75 -70.3 -39.9 -70.4 -44.1 -70.3 -44.55 -70.35 -46.55" fill="#000000" fill-rule="evenodd" stroke="none"/>
  </g>
</svg>
