<?xml version="1.0" encoding="UTF-8" standalone="no"?>
<svg xmlns:ffdec="https://www.free-decompiler.com/flash" xmlns:xlink="http://www.w3.org/1999/xlink" ffdec:objectType="shape" height="54.25px" width="233.75px" xmlns="http://www.w3.org/2000/svg">
  <g transform="matrix(1.0, 0.0, 0.0, 1.0, 114.65, 66.5)">
    <path d="M43.5 -54.65 L45.05 -51.5 46.9 -44.9 47.05 -44.5 47.0 -44.3 48.1 -38.9 48.25 -38.45 48.55 -36.2 48.95 -38.0 50.6 -42.15 51.4 -43.6 51.85 -45.25 52.05 -45.7 52.1 -45.9 52.35 -46.35 52.7 -48.05 55.6 -57.25 56.5 -58.55 57.0 -59.65 57.35 -60.1 57.95 -61.15 58.05 -61.45 59.0 -62.9 61.45 -65.5 61.8 -65.95 62.0 -66.1 62.15 -66.5 63.2 -66.45 63.35 -65.6 63.1 -65.35 63.0 -64.9 62.65 -64.1 61.8 -60.0 61.6 -59.4 61.3 -58.8 61.15 -58.05 60.4 -56.85 60.3 -55.7 59.95 -55.1 59.75 -54.3 59.75 -53.7 59.45 -53.1 59.35 -52.65 59.35 -51.1 59.4 -50.75 59.25 -50.0 59.2 -47.85 58.95 -46.8 58.95 -45.95 58.55 -44.65 57.9 -41.45 57.6 -40.6 57.25 -38.5 55.55 -33.2 55.25 -32.5 54.45 -31.25 53.85 -29.8 52.3 -27.25 50.9 -26.0 49.6 -25.55 49.55 -25.4 48.6 -25.1 47.7 -25.4 45.9 -26.25 44.65 -27.35 44.3 -28.05 43.0 -31.6 39.8 -43.95 38.25 -53.35 38.1 -53.8 37.55 -54.8 37.65 -55.1 37.55 -55.4 37.75 -55.85 38.2 -56.15 38.6 -56.3 40.95 -56.05 43.5 -54.65 M66.2 -56.35 L67.4 -57.1 67.55 -57.1 67.9 -57.4 69.35 -58.0 69.7 -58.25 69.85 -58.6 70.65 -59.1 71.75 -59.4 73.25 -59.55 73.8 -59.4 73.9 -59.4 74.4 -59.35 79.75 -59.55 80.85 -59.35 91.95 -58.5 92.95 -58.3 93.55 -58.3 93.7 -57.5 93.6 -56.7 92.4 -56.4 92.0 -56.35 91.65 -56.2 90.55 -56.3 90.2 -56.15 89.35 -56.2 89.0 -56.05 89.0 -56.1 88.9 -56.0 88.9 -55.5 87.7 -55.15 87.6 -55.3 87.5 -55.1 87.3 -55.1 86.75 -54.95 85.9 -54.35 85.75 -54.5 85.7 -54.3 85.35 -54.35 85.25 -54.2 83.55 -53.95 83.4 -54.05 83.3 -53.95 83.3 -53.75 82.15 -53.45 81.6 -53.1 81.15 -52.9 80.85 -52.65 79.0 -52.1 78.65 -52.05 78.45 -51.8 77.25 -51.75 74.9 -50.95 74.75 -50.7 74.45 -50.6 73.2 -47.2 72.85 -46.6 72.8 -46.35 73.85 -46.55 76.5 -46.65 80.4 -46.35 81.3 -46.15 81.6 -46.0 82.15 -45.9 82.15 -45.25 81.7 -44.4 79.85 -43.2 79.75 -43.3 79.65 -43.0 78.0 -42.65 75.5 -41.8 71.45 -41.3 71.1 -39.5 70.95 -39.0 70.6 -37.0 70.45 -36.7 70.5 -33.7 70.6 -33.3 70.85 -33.15 72.75 -33.1 75.7 -33.45 76.7 -33.75 85.15 -35.5 85.3 -34.6 84.5 -33.6 84.5 -33.5 83.65 -32.4 81.25 -30.5 81.15 -30.05 79.7 -29.45 79.35 -29.05 79.35 -29.2 78.7 -28.65 78.15 -28.3 77.95 -28.35 77.75 -28.15 77.75 -28.0 76.05 -27.45 75.65 -27.2 75.25 -27.2 75.15 -27.1 72.9 -26.9 70.75 -27.05 68.1 -27.75 66.15 -28.85 66.05 -29.05 65.25 -29.95 65.0 -30.65 64.45 -31.55 64.2 -32.2 64.05 -32.4 63.75 -34.0 63.75 -34.35 63.6 -35.2 63.55 -37.7 63.75 -38.15 63.7 -38.25 63.7 -39.4 63.9 -40.2 64.15 -42.2 65.2 -46.55 65.2 -46.8 65.6 -47.75 65.75 -48.7 66.75 -51.75 66.85 -51.8 67.05 -52.45 66.85 -52.55 65.5 -53.8 65.2 -54.65 65.8 -55.05 65.8 -55.15 66.15 -55.25 66.0 -55.3 66.2 -55.8 66.2 -56.35 M1.5 -56.4 L1.1 -56.35 0.75 -56.2 -0.35 -56.3 -0.7 -56.15 -1.55 -56.2 -1.9 -56.05 -1.9 -56.1 -2.0 -56.0 -2.0 -55.5 -3.2 -55.15 -3.3 -55.3 -3.4 -55.1 -3.6 -55.1 -4.15 -54.95 -5.0 -54.35 -5.15 -54.5 -5.2 -54.3 -5.55 -54.35 -5.65 -54.2 -7.35 -53.95 -7.5 -54.05 -7.6 -53.95 -7.6 -53.75 -8.75 -53.45 -9.3 -53.1 -9.75 -52.9 -10.05 -52.65 -11.9 -52.1 -12.25 -52.05 -12.45 -51.8 -13.65 -51.75 -16.0 -50.95 -16.15 -50.7 -16.45 -50.6 -17.7 -47.2 -18.05 -46.6 -18.1 -46.35 -17.05 -46.55 -11.8 -46.5 -9.6 -46.15 -9.3 -46.0 -8.75 -45.9 -8.75 -45.25 -9.2 -44.4 -11.05 -43.2 -11.15 -43.3 -11.25 -43.0 -12.9 -42.65 -15.4 -41.8 -19.45 -41.3 -19.8 -39.5 -19.95 -39.0 -20.3 -37.0 -20.45 -36.7 -20.4 -33.7 -20.3 -33.3 -20.05 -33.15 -18.15 -33.1 -15.2 -33.45 -14.2 -33.75 -5.75 -35.5 -5.6 -34.6 -6.4 -33.6 -6.4 -33.5 -7.25 -32.4 -9.65 -30.5 -9.75 -30.05 -11.2 -29.45 -11.55 -29.05 -11.55 -29.2 -12.2 -28.65 -12.75 -28.3 -12.95 -28.35 -13.15 -28.15 -13.15 -28.0 -14.85 -27.45 -15.25 -27.2 -15.65 -27.2 -15.75 -27.1 -18.0 -26.9 -20.15 -27.05 -22.8 -27.75 -24.75 -28.85 -24.85 -29.05 -25.65 -29.95 -25.9 -30.65 -26.45 -31.55 -26.7 -32.2 -26.85 -32.4 -27.15 -34.0 -27.15 -34.35 -27.3 -35.2 -27.35 -37.7 -27.15 -38.15 -27.2 -38.25 -27.2 -39.4 -27.0 -40.2 -26.75 -42.2 -25.7 -46.55 -25.7 -46.8 -25.3 -47.75 -25.15 -48.7 -24.15 -51.75 -24.05 -51.8 -23.85 -52.45 -24.05 -52.55 -25.4 -53.8 -25.7 -54.65 -25.1 -55.05 -25.1 -55.15 -24.75 -55.25 -24.9 -55.3 -24.7 -55.8 -24.7 -56.35 -23.5 -57.1 -23.35 -57.1 -23.0 -57.4 -21.55 -58.0 -21.2 -58.25 -21.05 -58.6 -20.25 -59.1 -19.15 -59.4 -17.65 -59.55 -17.1 -59.4 -17.0 -59.4 -16.5 -59.35 -11.15 -59.55 -10.05 -59.35 1.05 -58.5 2.05 -58.3 2.65 -58.3 2.8 -57.5 2.7 -56.7 1.5 -56.4 M19.2 -55.9 L19.75 -56.5 20.45 -56.8 20.85 -57.1 22.6 -57.6 22.8 -57.8 23.45 -57.8 23.8 -57.9 24.55 -57.8 25.15 -57.85 25.75 -57.45 26.2 -56.95 26.25 -56.7 26.5 -56.3 27.0 -56.1 27.0 -54.85 27.15 -54.4 28.45 -53.25 28.95 -52.65 29.2 -52.7 30.3 -51.25 30.7 -50.6 31.2 -50.2 31.8 -48.95 31.75 -48.95 31.9 -48.9 32.35 -47.9 32.85 -47.45 33.05 -46.8 33.1 -46.1 33.15 -46.1 33.6 -45.3 33.75 -43.85 34.05 -42.85 34.15 -41.8 34.25 -41.45 34.9 -41.35 34.85 -40.55 34.75 -40.05 34.75 -39.85 35.0 -39.85 34.35 -36.0 34.35 -35.65 34.2 -35.45 34.2 -35.05 33.8 -34.45 33.45 -33.2 33.25 -33.0 33.25 -32.75 33.0 -32.15 32.5 -31.7 32.65 -31.5 32.35 -30.95 31.9 -30.65 31.6 -30.3 31.05 -30.1 30.55 -29.25 30.25 -28.95 29.15 -28.3 28.75 -28.2 28.6 -28.05 27.95 -27.55 27.1 -27.4 26.55 -27.2 26.4 -27.05 25.4 -26.55 24.35 -26.4 23.15 -26.0 22.65 -26.05 22.05 -25.8 18.2 -26.35 13.6 -28.5 12.65 -29.2 11.2 -30.55 10.1 -32.1 9.35 -33.6 8.5 -36.85 8.55 -39.35 8.7 -40.6 9.25 -42.75 10.2 -44.85 10.4 -45.05 10.45 -45.4 15.95 -53.0 16.75 -53.9 17.3 -54.25 17.75 -54.9 18.3 -55.2 18.7 -55.7 19.2 -55.9 M26.2 -46.3 L25.25 -47.35 24.45 -48.65 23.8 -49.0 23.05 -49.7 21.8 -49.4 21.1 -48.45 18.65 -43.85 18.45 -43.35 18.2 -42.2 17.75 -41.5 17.3 -40.1 17.1 -39.85 15.65 -36.6 15.65 -35.0 16.0 -33.6 16.25 -33.3 16.95 -32.6 18.35 -32.1 20.9 -32.05 21.15 -32.1 22.75 -32.3 24.2 -32.95 24.85 -33.45 25.55 -33.7 26.1 -34.45 27.2 -37.75 27.3 -38.65 27.75 -39.15 27.55 -39.3 27.65 -41.35 26.6 -45.6 26.2 -46.3 M95.7 -54.0 L96.45 -54.1 97.0 -54.25 97.85 -54.15 98.6 -53.7 99.15 -53.5 99.45 -53.5 100.0 -53.8 102.1 -55.7 105.45 -57.9 108.7 -59.2 109.75 -59.35 111.3 -59.3 112.3 -58.9 114.25 -57.6 115.55 -55.85 116.0 -55.05 116.4 -53.65 116.55 -52.7 116.4 -52.15 116.5 -52.05 116.2 -50.7 115.2 -49.25 115.0 -49.25 114.75 -48.9 114.25 -48.75 113.95 -48.75 113.25 -47.85 112.55 -47.4 110.7 -45.85 110.1 -45.45 109.65 -44.9 108.15 -43.65 107.7 -43.4 107.6 -43.4 106.8 -42.75 106.15 -42.5 104.95 -41.8 104.55 -41.4 104.0 -41.4 103.8 -41.25 113.85 -37.05 118.05 -34.5 118.45 -34.35 119.1 -33.8 118.8 -33.05 117.85 -33.15 117.85 -32.9 117.45 -32.95 117.45 -32.8 116.7 -32.25 116.5 -32.25 116.05 -32.05 114.95 -32.45 114.5 -32.4 113.6 -32.6 113.45 -32.6 111.55 -33.25 110.45 -33.4 105.8 -35.0 105.0 -35.4 99.35 -37.3 98.1 -32.8 97.8 -32.25 97.65 -31.85 97.7 -31.3 97.45 -30.9 97.3 -30.2 97.0 -29.55 96.45 -28.75 96.3 -28.6 96.3 -28.45 96.0 -27.8 95.7 -27.65 95.35 -26.6 95.15 -26.35 95.05 -26.05 94.65 -25.8 94.3 -25.1 93.6 -25.1 93.4 -24.7 92.85 -24.85 92.8 -24.65 92.15 -24.65 91.65 -24.45 90.8 -24.6 89.5 -25.8 89.2 -25.9 88.85 -26.6 88.55 -26.8 88.6 -27.75 88.4 -28.15 88.45 -28.8 88.75 -30.6 88.75 -31.9 88.8 -32.4 92.4 -46.35 93.5 -48.9 93.5 -49.2 93.85 -49.55 93.8 -49.8 94.1 -51.25 94.65 -52.4 94.65 -52.65 95.1 -53.35 95.7 -54.0 M105.8 -50.05 L105.15 -49.75 104.2 -48.55 103.85 -47.7 103.15 -46.85 103.05 -46.6 102.55 -45.6 102.2 -45.2 101.6 -44.3 104.8 -46.3 107.75 -49.2 108.65 -50.45 108.95 -50.65 109.1 -51.0 109.55 -51.7 110.1 -53.2 110.25 -53.4 109.65 -53.25 109.1 -52.75 108.45 -52.55 106.95 -51.65 106.65 -51.25 105.8 -50.4 105.8 -50.05 M110.7 -53.55 L110.3 -53.55 110.25 -53.4 110.7 -53.55 M-104.9 -54.15 L-104.55 -54.4 -102.35 -56.65 -101.1 -57.35 -100.3 -58.15 -99.8 -58.3 -98.0 -59.15 -97.15 -59.4 -95.8 -59.6 -95.25 -59.45 -94.9 -59.0 -94.55 -58.75 -93.7 -57.7 -92.8 -56.85 -92.5 -56.7 -91.65 -56.55 -91.0 -55.05 -91.2 -52.5 -91.85 -51.4 -92.4 -50.7 -92.8 -50.6 -93.15 -50.1 -93.8 -49.35 -95.1 -48.9 -96.15 -48.8 -96.8 -48.45 -97.45 -48.2 -97.9 -47.85 -98.0 -47.45 -98.5 -47.05 -101.2 -44.15 -104.25 -39.6 -104.7 -38.75 -104.85 -38.55 -104.95 -38.05 -104.9 -36.55 -104.55 -36.05 -103.8 -35.55 -103.0 -35.25 -102.35 -35.15 -102.0 -35.35 -100.9 -35.65 -99.9 -36.1 -98.45 -36.95 -97.15 -37.95 -97.0 -38.2 -95.45 -42.8 -95.2 -42.95 -95.2 -43.65 -94.3 -44.15 -93.95 -44.4 -93.5 -45.0 -92.7 -45.0 -92.0 -44.75 -91.45 -44.85 -90.65 -44.1 -89.7 -43.8 -89.1 -43.35 -87.8 -41.05 -87.65 -39.25 -87.85 -37.9 -88.2 -37.25 -88.7 -35.95 -88.95 -34.75 -90.55 -30.95 -90.55 -30.9 -92.05 -27.0 -92.15 -26.35 -92.45 -26.0 -92.5 -24.55 -92.7 -24.4 -92.7 -24.35 -92.9 -23.25 -93.25 -22.35 -93.4 -22.35 -94.05 -21.05 -94.4 -18.6 -94.65 -17.65 -94.7 -17.0 -94.8 -16.8 -94.8 -15.95 -95.3 -15.5 -95.3 -14.85 -95.75 -14.45 -95.6 -14.45 -95.6 -14.0 -96.95 -12.25 -97.65 -15.7 -98.05 -16.95 -98.65 -22.0 -98.75 -22.35 -98.9 -25.35 -98.8 -25.65 -98.65 -29.45 -98.75 -29.5 -99.3 -29.25 -100.0 -29.1 -100.35 -28.75 -101.2 -28.5 -101.45 -28.65 -102.15 -28.3 -105.35 -28.25 -106.95 -28.55 -108.45 -29.05 -110.2 -29.9 -111.85 -31.15 -112.5 -31.8 -113.45 -33.25 -114.0 -35.1 -114.55 -36.25 -114.65 -37.15 -114.55 -37.7 -114.55 -39.1 -114.25 -40.1 -112.75 -43.45 -112.25 -44.15 -111.6 -45.3 -111.35 -45.55 -109.0 -48.9 -108.75 -49.35 -105.1 -53.8 -104.9 -54.15 M-81.6 -45.55 L-78.45 -54.6 -78.35 -54.8 -78.25 -54.95 -77.3 -57.7 -77.05 -58.1 -75.7 -61.15 -75.05 -61.6 -74.35 -61.8 -72.9 -61.75 -71.85 -61.6 -71.75 -61.45 -71.35 -61.4 -70.1 -60.75 -68.45 -58.85 -67.85 -57.8 -67.9 -56.95 -67.7 -56.45 -68.25 -47.1 -68.7 -45.0 -68.8 -44.7 -69.1 -42.95 -69.1 -42.15 -69.2 -42.0 -69.2 -41.7 -69.25 -41.65 -69.1 -41.4 -69.5 -40.5 -69.1 -40.05 -69.1 -39.95 -68.95 -39.95 -69.15 -38.45 -69.25 -38.15 -69.1 -37.4 -69.35 -37.2 -69.25 -37.0 -69.25 -35.85 -69.7 -35.6 -69.6 -35.25 -69.4 -35.0 -69.5 -34.3 -69.35 -33.65 -69.5 -33.45 -69.4 -33.25 -69.5 -32.6 -69.05 -29.85 -68.9 -29.25 -68.95 -28.95 -68.65 -28.15 -68.75 -27.35 -68.65 -26.1 -68.5 -25.6 -68.65 -25.35 -68.6 -25.2 -68.45 -24.6 -68.25 -24.25 -68.3 -23.65 -67.9 -21.75 -67.9 -21.3 -67.65 -20.25 -67.85 -18.85 -69.4 -20.4 -70.2 -22.1 -70.2 -22.25 -72.2 -26.9 -72.25 -27.55 -73.05 -29.2 -73.35 -30.8 -73.75 -31.65 -74.0 -33.15 -74.2 -33.65 -74.45 -34.75 -74.5 -34.55 -75.6 -34.4 -75.75 -34.25 -78.6 -34.2 -78.85 -34.15 -79.1 -33.45 -79.05 -32.75 -79.35 -31.8 -79.6 -30.5 -79.8 -30.2 -80.1 -29.3 -80.15 -28.8 -80.3 -28.5 -80.6 -27.0 -81.0 -26.2 -81.05 -25.8 -81.8 -24.25 -82.35 -23.65 -82.85 -23.45 -83.2 -23.2 -84.05 -23.05 -84.65 -23.05 -85.35 -23.4 -86.0 -24.2 -86.2 -25.45 -86.2 -27.1 -84.45 -35.85 -84.3 -36.15 -84.3 -36.35 -84.9 -37.35 -84.95 -38.15 -84.7 -38.3 -84.8 -38.35 -84.65 -39.45 -84.65 -39.8 -83.55 -40.1 -83.2 -40.3 -81.65 -45.5 -81.6 -45.55 M-38.45 -62.45 L-38.2 -62.95 -37.75 -63.55 -37.0 -64.05 -36.5 -64.2 -35.85 -64.55 -35.1 -64.7 -33.85 -64.55 -32.4 -63.55 -31.05 -61.7 -30.9 -61.45 -30.3 -59.8 -30.05 -56.1 -30.35 -54.15 -30.35 -53.15 -30.5 -52.9 -30.55 -52.25 -32.0 -45.8 -32.45 -44.5 -32.55 -44.05 -32.55 -43.35 -32.7 -42.45 -32.9 -42.0 -32.9 -41.4 -33.1 -41.15 -33.05 -40.65 -33.25 -40.15 -33.1 -39.4 -33.35 -39.1 -33.4 -37.85 -33.65 -36.7 -33.65 -36.35 -33.6 -35.95 -33.8 -35.4 -33.85 -34.3 -34.35 -32.05 -34.25 -31.7 -34.35 -31.4 -34.3 -30.7 -34.45 -29.9 -34.3 -27.25 -34.45 -27.05 -34.55 -26.2 -34.8 -25.7 -34.55 -25.6 -34.7 -24.7 -34.55 -24.1 -34.55 -23.55 -34.8 -23.25 -34.95 -22.85 -34.7 -22.05 -34.7 -21.0 -34.85 -21.0 -34.85 -20.05 -35.3 -20.05 -35.2 -18.9 -35.4 -18.55 -35.35 -17.9 -36.5 -17.2 -36.8 -18.1 -36.9 -18.2 -37.25 -19.7 -37.45 -20.1 -37.45 -20.4 -37.85 -22.65 -37.8 -22.9 -37.9 -23.25 -38.05 -24.2 -38.2 -24.4 -38.2 -24.75 -39.35 -38.25 -39.6 -39.05 -39.5 -43.4 -39.6 -43.8 -39.45 -47.3 -39.3 -47.8 -39.3 -48.65 -39.15 -49.1 -39.15 -49.3 -39.2 -49.25 -39.4 -49.2 -39.65 -48.65 -39.75 -47.6 -40.25 -47.05 -40.35 -47.05 -40.4 -46.95 -40.4 -46.1 -40.65 -45.95 -40.65 -46.0 -41.55 -43.25 -41.8 -42.95 -43.7 -37.55 -45.75 -34.55 -47.5 -33.3 -47.8 -33.4 -48.1 -33.25 -50.15 -33.35 -51.7 -33.8 -52.55 -34.35 -53.55 -35.3 -54.2 -36.15 -55.05 -38.4 -55.35 -41.3 -55.55 -40.5 -56.25 -36.15 -57.1 -33.45 -57.1 -33.1 -57.9 -31.0 -58.05 -30.1 -58.45 -29.1 -58.4 -28.8 -58.5 -28.1 -58.5 -27.75 -58.85 -27.3 -58.95 -26.35 -59.15 -26.1 -59.25 -24.5 -59.5 -24.15 -59.45 -23.9 -59.65 -23.4 -60.15 -22.8 -60.35 -22.75 -60.45 -22.5 -60.85 -22.2 -61.5 -22.2 -62.45 -22.0 -62.55 -22.25 -62.65 -22.15 -63.4 -22.6 -64.5 -24.05 -64.6 -24.8 -64.4 -25.55 -64.4 -27.2 -64.0 -29.65 -64.0 -30.75 -63.05 -43.8 -60.4 -54.45 -60.05 -55.0 -60.05 -55.2 -59.05 -56.25 -58.75 -56.95 -58.4 -57.45 -58.15 -58.0 -56.95 -58.4 -55.95 -58.45 -55.4 -58.3 -54.5 -58.2 -53.15 -57.8 -52.65 -57.5 -51.8 -57.2 -51.6 -56.95 -50.4 -56.15 -49.65 -55.1 -49.05 -53.55 -48.85 -52.6 -48.6 -51.95 -48.7 -42.9 -48.55 -42.05 -47.2 -45.3 -46.95 -45.65 -46.7 -46.3 -46.25 -46.9 -44.25 -51.5 -43.75 -52.3 -42.45 -55.25 -42.15 -55.7 -41.6 -57.0 -39.1 -61.4 -38.9 -61.9 -38.45 -62.45 M-75.3 -49.55 L-75.35 -51.55 -75.4 -49.1 -76.1 -46.05 -76.25 -45.85 -76.35 -45.1 -77.1 -41.9 -77.1 -41.5 -77.0 -41.45 -75.3 -41.35 -75.3 -41.3 -75.15 -41.35 -75.3 -41.35 -75.4 -43.75 -75.3 -44.9 -75.4 -49.1 -75.3 -49.55" fill="url(#gradient0)" fill-rule="evenodd" stroke="none"/>
  </g>
  <defs>
    <linearGradient gradientTransform="matrix(0.0, -0.0331, 0.1427, 0.0, 2.2, -39.35)" gradientUnits="userSpaceOnUse" id="gradient0" spreadMethod="pad" x1="-819.2" x2="819.2">
      <stop offset="0.0" stop-color="#000000"/>
      <stop offset="0.16470588235294117" stop-color="#600000"/>
      <stop offset="0.3137254901960784" stop-color="#a00000"/>
      <stop offset="0.4196078431372549" stop-color="#c03000"/>
      <stop offset="0.6509803921568628" stop-color="#ffd700"/>
      <stop offset="0.7058823529411765" stop-color="#ffd700"/>
      <stop offset="1.0" stop-color="#f03000"/>
    </linearGradient>
  </defs>
</svg>
