<?xml version="1.0" encoding="UTF-8" standalone="no"?>
<svg xmlns:ffdec="https://www.free-decompiler.com/flash" xmlns:xlink="http://www.w3.org/1999/xlink" ffdec:objectType="shape" height="350.0px" width="300.0px" xmlns="http://www.w3.org/2000/svg">
  <g transform="matrix(1.0, 0.0, 0.0, 1.0, 0.0, 0.0)">
    <path d="M300.0 350.0 L0.0 350.0 0.0 0.0 300.0 0.0 300.0 350.0" fill="#99ffff" fill-rule="evenodd" stroke="none"/>
    <path d="M280.7 79.9 Q282.35 84.3 281.45 89.0 L274.55 99.5 Q272.55 102.5 269.2 104.5 219.9 101.05 172.6 105.2 170.55 105.4 168.7 107.0 L165.25 109.5 Q114.1 103.35 64.0 111.0 47.5 120.95 33.5 107.75 L33.3 107.0 33.25 105.5 33.25 104.0 Q46.85 83.95 73.1 86.05 75.05 86.25 77.45 85.15 L81.5 83.25 81.85 82.45 83.7 77.3 Q83.85 76.85 84.25 76.5 104.05 71.6 126.5 72.25 128.85 72.3 131.15 70.75 L136.0 67.5 Q137.5 60.9 142.3 57.55 L142.3 56.0 142.5 55.25 Q148.05 52.45 154.3 50.65 L157.95 49.9 158.55 49.3 Q159.25 48.8 159.9 48.55 L160.1 48.2 Q161.9 45.3 165.25 43.85 L167.0 43.25 Q174.7 42.15 181.15 45.35 181.2 43.0 181.5 40.75 182.7 38.65 184.85 37.15 187.0 35.65 189.0 35.25 198.15 36.5 204.4 42.5 L205.75 42.75 206.6 43.6 Q208.1 45.5 208.65 47.7 L208.75 48.0 208.75 48.1 208.95 50.25 209.25 51.0 Q216.3 52.95 219.5 59.25 220.7 61.65 222.7 63.5 250.0 61.9 269.45 78.0 L269.9 78.2 278.7 77.75 Q280.15 78.45 280.7 79.9 M273.1 86.35 L273.3 86.5 273.45 86.25 273.1 86.35" fill="url(#gradient0)" fill-rule="evenodd" stroke="none"/>
    <path d="M102.0 21.0 L102.35 21.8 Q102.9 23.55 102.9 25.5 102.9 26.65 102.5 27.75 L102.75 28.5 103.45 30.0 Q103.9 31.05 103.75 32.25 92.35 40.95 75.5 41.5 69.4 41.7 64.0 44.25 60.85 54.95 50.1 57.3 29.95 61.65 14.25 53.95 11.25 52.5 10.25 49.5 10.0 47.25 11.55 45.55 13.45 43.5 15.6 41.85 L15.5 41.75 15.35 41.0 15.25 38.75 15.25 37.25 15.6 36.6 Q17.2 34.95 17.55 32.75 L17.75 32.0 18.45 31.25 Q20.05 29.5 22.0 29.25 L22.3 29.15 22.35 28.5 Q22.45 27.1 23.5 26.25 23.85 26.0 24.25 25.85 26.4 24.95 28.75 25.3 L30.0 25.25 Q30.85 25.5 31.55 26.0 36.0 29.4 40.75 27.0 L41.4 26.2 Q42.6 24.2 44.3 22.55 L45.25 21.75 81.0 18.25 Q92.3 14.9 101.4 20.4 L102.0 21.0" fill="url(#gradient1)" fill-rule="evenodd" stroke="none"/>
    <path d="M194.4 181.9 Q204.95 171.85 219.0 170.25 240.85 166.5 258.75 178.7 L259.2 179.0 261.05 178.45 Q268.95 174.4 277.7 176.75 280.65 178.4 283.0 180.5 288.7 185.6 290.95 193.05 292.4 197.85 291.2 202.75 275.75 215.1 253.9 208.55 233.9 202.55 213.0 203.25 L212.25 204.0 Q211.4 205.0 210.2 205.4 L207.5 206.25 207.0 207.0 206.4 207.7 205.75 208.25 205.2 208.45 Q198.1 210.3 191.25 208.25 L190.2 207.55 Q185.0 204.55 183.0 199.05 181.85 195.85 182.5 192.5 188.65 187.3 194.4 181.9" fill="url(#gradient2)" fill-rule="evenodd" stroke="none"/>
    <path d="M140.5 268.8 Q146.8 259.7 158.0 259.25 177.85 254.75 193.65 264.65 L194.2 265.25 194.45 266.0 Q194.9 267.45 194.7 269.0 194.45 271.0 195.4 272.75 L195.7 273.5 Q228.35 276.05 254.2 295.6 256.4 297.25 254.15 299.3 235.65 316.1 209.8 313.7 L175.5 312.5 150.0 311.25 149.05 312.05 147.65 313.45 146.75 314.25 Q122.0 314.75 97.55 309.1 76.0 304.1 53.4 306.2 42.1 307.3 33.35 314.3 24.75 321.15 16.75 314.05 14.95 312.45 13.5 310.5 L13.35 309.75 13.25 307.5 13.35 304.5 13.5 303.75 13.85 303.1 16.75 300.0 18.25 298.5 17.65 297.65 Q16.35 295.1 15.75 292.4 15.05 289.45 15.5 286.5 19.9 282.1 25.0 278.65 L43.25 266.75 Q90.8 272.45 139.0 270.5 L140.5 268.8" fill="url(#gradient3)" fill-rule="evenodd" stroke="none"/>
  </g>
  <defs>
    <radialGradient cx="0" cy="0" gradientTransform="matrix(0.0, 0.0806, -0.1906, 0.0, 175.0, 80.0)" gradientUnits="userSpaceOnUse" id="gradient0" r="819.2" spreadMethod="pad">
      <stop offset="0.0" stop-color="#ffffff"/>
      <stop offset="1.0" stop-color="#ffffff" stop-opacity="0.0"/>
    </radialGradient>
    <radialGradient cx="0" cy="0" gradientTransform="matrix(0.0101, 0.0375, -0.0615, 0.0165, 55.0, 35.0)" gradientUnits="userSpaceOnUse" id="gradient1" r="819.2" spreadMethod="pad">
      <stop offset="0.0" stop-color="#ffffff"/>
      <stop offset="1.0" stop-color="#ffffff" stop-opacity="0.0"/>
    </radialGradient>
    <radialGradient cx="0" cy="0" gradientTransform="matrix(0.0, 0.0334, -0.0614, 0.0, 244.95, 192.0)" gradientUnits="userSpaceOnUse" id="gradient2" r="819.2" spreadMethod="pad">
      <stop offset="0.0" stop-color="#ffffff"/>
      <stop offset="1.0" stop-color="#ffffff" stop-opacity="0.0"/>
    </radialGradient>
    <radialGradient cx="0" cy="0" gradientTransform="matrix(0.0, 0.061, -0.1638, 0.0, 139.0, 290.0)" gradientUnits="userSpaceOnUse" id="gradient3" r="819.2" spreadMethod="pad">
      <stop offset="0.0" stop-color="#ffffff"/>
      <stop offset="1.0" stop-color="#ffffff" stop-opacity="0.0"/>
    </radialGradient>
  </defs>
</svg>
