<?xml version="1.0" encoding="UTF-8" standalone="no"?>
<svg xmlns:ffdec="https://www.free-decompiler.com/flash" xmlns:xlink="http://www.w3.org/1999/xlink" ffdec:objectType="shape" height="453.35px" width="468.3px" xmlns="http://www.w3.org/2000/svg">
  <g transform="matrix(1.0, 0.0, 0.0, 1.0, 234.15, 226.65)">
    <path d="M-115.7 27.3 L-116.2 26.5 Q-116.95 25.1 -115.9 23.65 -114.9 22.1 -112.75 21.4 L-108.9 21.15 Q-107.85 21.4 -107.15 21.95 L-106.25 23.05 Q-105.7 24.45 -106.7 25.9 -107.75 27.4 -109.75 28.1 L-113.65 28.35 Q-115.0 28.05 -115.7 27.3 M-79.55 -12.0 L-79.95 -12.75 Q-80.55 -14.3 -79.35 -16.05 L-78.4 -17.15 -76.0 -18.55 Q-73.9 -19.45 -71.9 -18.95 -70.85 -18.7 -70.15 -18.2 L-70.1 -18.05 -69.9 -17.85 -69.85 -17.8 -69.8 -17.75 -69.25 -16.9 Q-68.75 -15.4 -69.9 -13.7 -71.1 -11.95 -73.2 -11.05 -75.45 -10.2 -77.5 -10.7 L-78.05 -10.8 -79.05 -11.4 -79.55 -12.0 M-232.35 -219.5 Q-233.85 -220.85 -233.65 -222.35 -233.45 -224.25 -230.85 -225.35 -228.35 -226.45 -225.0 -226.05 -222.25 -225.75 -220.15 -224.6 L-219.0 -223.65 Q-218.3 -222.3 -218.5 -220.6 -218.7 -219.05 -219.6 -217.85 L-220.0 -217.65 Q-222.65 -216.55 -226.05 -216.9 -228.1 -217.15 -229.7 -217.85 L-232.25 -219.5 -232.35 -219.5 M-14.25 -88.05 L-14.75 -88.6 -14.95 -89.0 Q-15.3 -89.65 -15.25 -90.3 -15.1 -91.65 -13.7 -92.45 -12.35 -93.2 -10.6 -93.0 L-9.45 -92.8 Q-8.5 -92.5 -7.75 -91.85 L-7.1 -91.0 Q-6.7 -90.3 -6.8 -89.4 -6.95 -88.1 -8.25 -87.35 -9.6 -86.55 -11.35 -86.7 -13.1 -86.95 -14.25 -88.05 M-18.1 -117.7 Q-20.0 -119.9 -19.7 -122.55 -19.4 -125.55 -16.4 -127.4 -13.45 -129.3 -9.65 -128.85 -5.95 -128.45 -3.45 -126.2 L-3.3 -126.0 -3.25 -126.0 Q-0.85 -123.6 -1.15 -120.55 -1.35 -118.75 -2.5 -117.3 L-3.7 -116.3 -4.45 -115.7 Q-7.45 -113.9 -11.3 -114.3 -15.1 -114.7 -17.55 -117.1 L-18.1 -117.7 M-111.6 -17.8 Q-107.3 -19.75 -102.55 -18.85 -97.9 -18.05 -95.65 -14.9 -93.45 -11.75 -94.9 -8.1 -96.35 -4.5 -100.65 -2.6 -105.0 -0.7 -109.75 -1.55 -114.5 -2.4 -116.75 -5.55 -118.95 -8.7 -117.45 -12.3 -115.95 -15.9 -111.6 -17.8" fill="#000000" fill-rule="evenodd" stroke="none"/>
    <path d="M-191.8 -176.4 L-232.35 -219.5 -232.25 -219.5 -231.7 -219.05 -231.55 -218.9 -230.4 -218.2 Q-227.0 -216.1 -225.15 -216.3 L-221.6 -216.8 Q-220.15 -217.2 -219.6 -217.85 -218.7 -219.05 -218.5 -220.6 -218.3 -222.3 -219.0 -223.65 L-219.3 -224.1 -217.85 -222.6 -177.85 -187.55 -177.8 -187.05 Q-175.9 -173.95 -191.8 -176.4 M-219.6 -217.85 Q-217.55 -218.9 -217.35 -220.6 -217.25 -221.65 -217.85 -222.6 L-219.0 -223.65 -217.85 -222.6 Q-217.25 -221.65 -217.35 -220.6 -217.55 -218.9 -219.6 -217.85" fill="url(#gradient0)" fill-rule="evenodd" stroke="none"/>
    <path d="M-190.8 -171.15 L-195.15 -176.6 -191.8 -176.4 Q-175.9 -173.95 -177.8 -187.05 L-177.85 -187.55 -178.35 -189.7 -146.0 -168.25 Q-149.35 -158.5 -155.0 -154.25 L-155.0 -154.2 -155.2 -154.0 Q-163.75 -147.85 -177.4 -154.15 L-177.45 -154.2 Q-178.0 -154.45 -177.95 -154.8 L-190.8 -171.15" fill="url(#gradient1)" fill-rule="evenodd" stroke="none"/>
    <path d="M-171.55 -137.3 Q-186.0 -149.85 -198.1 -164.9 L-199.65 -166.9 -198.1 -166.55 Q-191.5 -165.5 -190.85 -171.05 L-190.8 -171.15 -177.95 -154.8 Q-178.0 -154.45 -177.45 -154.2 L-177.4 -154.15 Q-175.45 -146.2 -171.55 -137.3" fill="url(#gradient2)" fill-rule="evenodd" stroke="none"/>
    <path d="M-199.65 -166.9 Q-207.45 -174.5 -209.9 -181.65 -203.6 -179.5 -198.1 -176.2 -194.3 -173.9 -190.85 -171.05 -191.5 -165.5 -198.1 -166.55 L-199.65 -166.9" fill="url(#gradient3)" fill-rule="evenodd" stroke="none"/>
    <path d="M-78.4 -17.15 Q-151.15 -90.15 -171.55 -137.3 -175.45 -146.2 -177.4 -154.15 -163.75 -147.85 -155.2 -154.0 L-154.65 -154.1 -147.8 -145.3 -140.05 -136.2 -137.85 -133.6 -76.85 -61.3 Q-77.25 -51.0 -73.8 -42.15 L-73.65 -41.8 -37.05 -6.1 18.1 20.75 21.85 19.75 32.5 27.9 27.75 28.95 Q16.7 30.85 1.35 28.0 L-17.3 11.7 -17.2 11.6 -42.15 1.3 -48.6 -3.65 -50.8 0.75 -69.8 -17.75 -69.85 -17.8 -69.9 -17.85 -70.1 -18.05 -70.15 -18.2 Q-70.85 -18.7 -71.9 -18.95 -73.9 -19.45 -76.0 -18.55 L-78.4 -17.15 M-82.55 -55.05 Q-93.15 -76.9 -107.3 -89.3 -112.85 -90.2 -114.9 -87.8 -88.3 -56.65 -82.55 -55.05" fill="url(#gradient4)" fill-rule="evenodd" stroke="none"/>
    <path d="M-6.5 -95.6 Q-13.35 -106.05 -18.1 -117.7 L-17.55 -117.1 Q-15.1 -114.7 -11.3 -114.3 -7.45 -113.9 -4.45 -115.7 L-3.7 -116.3 Q-4.5 -115.05 -3.55 -113.45 L27.55 -78.05 27.85 -77.75 25.95 -76.25 27.55 -78.05 25.95 -76.25 Q15.25 -68.55 3.05 -83.0 -2.15 -89.05 -6.5 -95.6" fill="url(#gradient5)" fill-rule="evenodd" stroke="none"/>
    <path d="M32.2 -88.7 L35.35 -86.15 27.55 -78.05 -3.55 -113.45 Q-4.5 -115.05 -3.7 -116.3 L-2.5 -117.3 Q-0.95 -118.4 2.45 -119.15 L32.2 -88.7" fill="#21263e" fill-rule="evenodd" stroke="none"/>
    <path d="M11.0 -115.75 Q40.7 -93.45 32.2 -88.7 L2.45 -119.15 Q-0.95 -118.4 -2.5 -117.3 -1.35 -118.75 -1.15 -120.55 -0.85 -123.6 -3.25 -126.0 L11.0 -115.75" fill="url(#gradient6)" fill-rule="evenodd" stroke="none"/>
    <path d="M-154.65 -154.1 L-155.2 -154.0 -155.0 -154.2 -154.7 -154.15 -154.65 -154.1" fill="url(#gradient7)" fill-rule="evenodd" stroke="none"/>
    <path d="M-137.85 -133.6 L-140.05 -136.2 -147.8 -145.3 -154.65 -154.1 -154.7 -154.15 Q-117.0 -127.55 -95.25 -95.8 -120.15 -114.45 -137.85 -133.6" fill="url(#gradient8)" fill-rule="evenodd" stroke="none"/>
    <path d="M5.0 7.85 L21.85 19.75 18.1 20.75 -37.05 -6.1 -73.65 -41.8 -73.8 -42.15 Q-77.25 -51.0 -76.85 -61.3 L-137.85 -133.6 Q-120.15 -114.45 -95.25 -95.8 -117.0 -127.55 -154.7 -154.15 L-155.0 -154.25 Q-149.35 -158.5 -146.0 -168.25 -84.5 -134.45 -46.75 -96.3 L-46.7 -96.15 -46.7 -96.0 Q-48.45 -77.2 -72.95 -65.45 L-72.85 -65.3 -72.85 -65.15 Q-71.45 -47.35 -59.15 -32.75 L-59.15 -32.7 Q-31.85 -1.75 5.0 7.85" fill="url(#gradient9)" fill-rule="evenodd" stroke="none"/>
    <path d="M-82.55 -55.05 Q-88.3 -56.65 -114.9 -87.8 -112.85 -90.2 -107.3 -89.3 -93.15 -76.9 -82.55 -55.05" fill="url(#gradient10)" fill-rule="evenodd" stroke="none"/>
    <path d="M-91.25 26.4 L-119.65 -4.7 Q-123.85 -11.55 -118.0 -16.95 -112.3 -22.35 -100.9 -20.75 -90.05 -19.2 -80.45 -12.6 L-79.55 -12.0 -79.05 -11.4 -78.05 -10.8 -59.05 5.85 -58.95 5.9 -58.75 6.15 Q-55.05 10.0 -56.0 12.25 -57.0 14.55 -63.55 23.6 -70.1 32.65 -91.25 26.4 M-111.6 -17.8 Q-115.95 -15.9 -117.45 -12.3 -118.95 -8.7 -116.75 -5.55 -114.5 -2.4 -109.75 -1.55 -105.0 -0.7 -100.65 -2.6 -96.35 -4.5 -94.9 -8.1 -93.45 -11.75 -95.65 -14.9 -97.9 -18.05 -102.55 -18.85 -107.3 -19.75 -111.6 -17.8" fill="url(#gradient11)" fill-rule="evenodd" stroke="none"/>
    <path d="M-90.05 57.1 L-100.0 46.95 Q-88.3 53.05 -81.65 39.9 -87.2 32.95 -93.2 28.6 L-91.25 26.4 Q-70.1 32.65 -63.55 23.6 -57.0 14.55 -56.0 12.25 -55.05 10.0 -58.75 6.15 -52.4 6.1 -50.2 1.35 L-50.8 0.75 -48.6 -3.65 -42.15 1.3 -89.25 56.8 -89.85 57.05 -90.05 57.1 M-9.45 -92.8 Q-6.45 -92.7 -6.5 -95.6 -2.15 -89.05 3.05 -83.0 15.25 -68.55 25.95 -76.25 L10.55 -60.0 5.7 -65.05 Q13.9 -64.25 13.05 -68.55 L-7.1 -91.0 -7.75 -91.85 Q-8.5 -92.5 -9.45 -92.8" fill="#111111" fill-rule="evenodd" stroke="none"/>
    <path d="M-9.2 -82.2 L-14.25 -88.05 Q-13.1 -86.95 -11.35 -86.7 -9.6 -86.55 -8.25 -87.35 -6.95 -88.1 -6.8 -89.4 -6.7 -90.3 -7.1 -91.0 L13.05 -68.55 Q13.9 -64.25 5.7 -65.05 L5.5 -65.25 -9.2 -82.2" fill="url(#gradient12)" fill-rule="evenodd" stroke="none"/>
    <path d="M-146.0 -168.25 Q-66.55 -131.9 -21.45 -88.35 L-16.0 -82.9 -25.3 -87.0 Q-35.1 -92.0 -46.35 -96.1 L-46.65 -96.25 -46.75 -96.3 Q-84.5 -134.45 -146.0 -168.25" fill="url(#gradient13)" fill-rule="evenodd" stroke="none"/>
    <path d="M5.7 -65.05 L10.55 -60.0 10.65 -59.6 11.35 -59.15 Q16.6 -53.15 20.85 -46.55 L21.0 -46.2 Q34.55 -24.6 36.8 3.8 21.05 -54.7 -46.7 -96.0 L-46.65 -96.15 -46.35 -96.1 Q-35.1 -92.0 -25.3 -87.0 -7.3 -77.7 5.5 -65.25 L5.7 -65.05" fill="url(#gradient14)" fill-rule="evenodd" stroke="none"/>
    <path d="M-46.7 -96.0 Q21.05 -54.7 36.8 3.8 L36.85 4.45 30.05 11.8 Q-35.9 -14.85 -72.85 -65.15 L-72.85 -65.3 -72.95 -65.45 Q-48.45 -77.2 -46.7 -96.0 M16.0 -3.5 Q-11.5 -33.4 -51.75 -58.05 -24.85 -25.55 16.0 -3.5" fill="url(#gradient15)" fill-rule="evenodd" stroke="none"/>
    <path d="M30.05 11.8 L14.45 9.95 5.0 7.85 Q-31.85 -1.75 -59.15 -32.7 L-59.15 -32.75 Q-71.45 -47.35 -72.85 -65.15 -35.9 -14.85 30.05 11.8" fill="url(#gradient16)" fill-rule="evenodd" stroke="none"/>
    <path d="M-78.05 -10.8 L-77.5 -10.7 Q-75.45 -10.2 -73.2 -11.05 -71.1 -11.95 -69.9 -13.7 -68.75 -15.4 -69.25 -16.9 L-69.8 -17.75 -50.8 0.75 -50.2 1.35 Q-52.4 6.1 -58.75 6.15 L-58.95 5.9 -59.05 5.85 -78.05 -10.8" fill="url(#gradient17)" fill-rule="evenodd" stroke="none"/>
    <path d="M11.0 -115.75 Q9.2 -119.6 11.4 -119.55 13.9 -119.9 27.35 -107.35 L110.0 -120.3 119.3 -116.2 165.85 -124.0 174.35 -105.8 174.25 -105.8 157.2 -82.1 151.45 -87.4 125.5 -50.9 119.2 -58.95 101.35 -35.1 95.45 -43.45 94.9 -44.15 94.75 -44.35 Q66.7 -83.25 60.35 -84.9 L60.2 -84.9 43.15 -95.15 35.35 -86.15 32.2 -88.7 Q40.7 -93.45 11.0 -115.75" fill="url(#gradient18)" fill-rule="evenodd" stroke="none"/>
    <path d="M60.35 -84.9 Q66.7 -83.25 94.75 -44.35 L94.9 -44.15 69.0 -11.2 67.0 -8.65 33.15 -50.85 60.25 -84.85 60.35 -84.9 M33.2 -50.85 L33.15 -50.85 33.2 -50.85" fill="url(#gradient19)" fill-rule="evenodd" stroke="none"/>
    <path d="M35.35 -86.15 L43.15 -95.15 60.2 -84.9 60.25 -84.85 33.15 -50.85 33.05 -50.9 11.35 -59.15 10.55 -60.0 11.35 -59.15 10.65 -59.6 10.55 -60.0 25.95 -76.25 27.85 -77.75 27.55 -78.05 35.35 -86.15" fill="url(#gradient20)" fill-rule="evenodd" stroke="none"/>
    <path d="M33.15 -50.85 L67.0 -8.65 53.3 -9.75 32.65 -33.05 21.0 -46.2 20.85 -46.55 Q16.6 -53.15 11.35 -59.15 L33.05 -50.9 33.15 -50.85" fill="url(#gradient21)" fill-rule="evenodd" stroke="none"/>
    <path d="M36.8 3.8 Q34.55 -24.6 21.0 -46.2 L32.65 -33.05 46.5 -5.2 Q46.25 10.35 27.25 17.85 L14.45 9.95 30.05 11.8 36.85 4.45 36.8 3.8" fill="#f5efee" fill-rule="evenodd" stroke="none"/>
    <path d="M95.45 -43.45 L101.35 -35.1 101.5 -34.5 Q99.45 -3.35 57.65 -4.95 L55.65 -7.1 53.3 -9.75 67.0 -8.65 69.0 -11.2 Q96.25 -16.5 95.45 -43.45" fill="url(#gradient22)" fill-rule="evenodd" stroke="none"/>
    <path d="M55.65 -7.1 L57.65 -4.95 64.2 2.4 63.6 6.85 63.05 10.05 54.35 2.95 Q55.15 -0.95 55.65 -7.1" fill="url(#gradient23)" fill-rule="evenodd" stroke="none"/>
    <path d="M32.65 -33.05 L53.3 -9.75 55.65 -7.1 Q55.15 -0.95 54.35 2.95 52.55 11.05 48.55 16.7 L48.35 16.9 Q43.5 23.65 35.5 26.85 L26.3 18.2 27.25 17.85 Q46.25 10.35 46.5 -5.2 L32.65 -33.05" fill="url(#gradient24)" fill-rule="evenodd" stroke="none"/>
    <path d="M125.5 -50.9 L151.45 -87.4 157.2 -82.1 174.25 -105.8 174.8 -104.8 177.6 -99.95 132.9 -30.3 125.05 -41.3 121.9 -45.8 125.5 -50.9 M15.3 124.65 L2.95 143.3 16.7 156.85 -31.15 226.2 -60.55 223.05 -18.15 160.35 8.8 120.65 15.3 124.65" fill="#eeeeee" fill-rule="evenodd" stroke="none"/>
    <path d="M101.35 -35.1 L119.2 -58.95 125.5 -50.9 121.9 -45.8 125.05 -41.3 111.0 -20.35 110.6 -20.3 103.95 -31.35 101.85 -34.55 101.55 -34.8 101.35 -35.1 M118.2 -38.8 L113.35 -42.55 118.2 -38.8 M120.0 -41.4 L115.15 -45.15 120.0 -41.4 M115.9 -36.15 L110.95 -39.85 115.9 -36.15 M112.3 -30.75 L107.35 -34.5 112.3 -30.75 M114.1 -33.45 L109.25 -37.2 114.1 -33.45" fill="url(#gradient25)" fill-rule="evenodd" stroke="none"/>
    <path d="M111.0 -20.35 L115.05 -14.0 Q119.4 12.9 73.55 12.75 L64.2 2.4 57.65 -4.95 Q99.45 -3.35 101.5 -34.5 L101.85 -34.55 103.95 -31.35 110.6 -20.3 110.8 -20.0 111.0 -20.35" fill="url(#gradient26)" fill-rule="evenodd" stroke="none"/>
    <path d="M94.9 -44.15 L95.45 -43.45 Q96.25 -16.5 69.0 -11.2 L94.9 -44.15" fill="url(#gradient27)" fill-rule="evenodd" stroke="none"/>
    <path d="M16.0 -3.5 Q-24.85 -25.55 -51.75 -58.05 -11.5 -33.4 16.0 -3.5" fill="url(#gradient28)" fill-rule="evenodd" stroke="none"/>
    <path d="M110.95 56.65 L224.45 114.65 233.65 130.1 222.0 116.45 205.5 108.1 69.95 39.9 69.9 39.85 68.75 38.95 Q66.05 36.6 69.05 35.3 L90.25 45.9 98.8 50.15 105.7 53.8 110.95 56.65" fill="#ffffff" fill-rule="evenodd" stroke="none"/>
    <path d="M233.65 130.1 L212.3 123.1 205.5 108.1 222.0 116.45 233.65 130.1" fill="#00ccff" fill-rule="evenodd" stroke="none"/>
    <path d="M212.3 123.1 L135.95 96.75 Q119.05 86.1 105.2 75.8 L98.3 70.65 Q86.25 61.35 76.75 52.3 L69.85 39.9 69.95 39.9 205.5 108.1 212.3 123.1" fill="url(#gradient29)" fill-rule="evenodd" stroke="none"/>
    <path d="M133.05 15.4 L134.5 17.65 Q139.7 27.05 138.5 31.0 L138.55 31.0 137.65 32.55 133.65 36.25 127.75 41.1 Q125.25 43.2 119.95 44.55 110.35 38.4 95.8 36.5 124.1 38.2 133.05 15.4" fill="url(#gradient30)" fill-rule="evenodd" stroke="none"/>
    <path d="M125.1 12.1 L128.1 15.35 122.95 20.5 119.35 17.2 125.1 12.1 M117.8 19.3 L121.15 22.15 114.05 27.25 110.85 24.1 117.8 19.3 M68.75 101.75 L73.3 101.1 68.55 110.5 66.3 105.35 68.75 101.75 M61.4 112.75 L66.8 113.35 56.45 121.3 54.6 116.75 61.4 112.75" fill="#333333" fill-rule="evenodd" stroke="none"/>
    <path d="M115.05 -14.0 L133.05 15.4 Q124.1 38.2 95.8 36.5 L94.85 36.45 73.55 12.75 Q119.4 12.9 115.05 -14.0 M119.35 17.2 L122.95 20.5 128.1 15.35 125.1 12.1 119.0 5.5 112.8 11.15 119.35 17.2 M110.85 24.1 L114.05 27.25 121.15 22.15 117.8 19.3 110.6 12.75 104.3 17.15 110.85 24.1" fill="url(#gradient31)" fill-rule="evenodd" stroke="none"/>
    <path d="M138.55 31.0 L138.95 32.5 139.1 32.7 Q134.7 48.55 107.9 50.8 L106.95 49.75 104.3 46.8 Q114.1 46.0 119.95 44.55 125.25 43.2 127.75 41.1 L133.65 36.25 137.65 32.55 138.55 31.0" fill="url(#gradient32)" fill-rule="evenodd" stroke="none"/>
    <path d="M139.1 32.7 Q141.8 41.4 135.2 47.3 132.9 49.3 129.5 51.0 L125.4 52.8 Q120.05 54.75 112.75 56.15 L112.7 56.15 107.9 50.8 Q134.7 48.55 139.1 32.7 M94.0 116.5 L94.85 120.45 Q99.7 148.5 58.9 143.35 L58.9 143.1 Q76.75 143.75 89.7 129.05 94.8 123.5 94.0 116.5 M132.45 44.5 L135.2 47.3 132.45 44.5" fill="#4d323e" fill-rule="evenodd" stroke="none"/>
    <path d="M27.25 17.85 L26.3 18.2 21.85 19.75 5.0 7.85 14.45 9.95 27.25 17.85 M125.1 12.1 L119.35 17.2 112.8 11.15 119.0 5.5 125.1 12.1 M59.85 94.35 L68.75 101.75 66.3 105.35 55.6 101.35 59.85 94.35" fill="#999999" fill-rule="evenodd" stroke="none"/>
    <path d="M117.8 19.3 L110.85 24.1 104.3 17.15 110.6 12.75 117.8 19.3 M51.2 106.25 L61.4 112.75 54.6 116.75 42.35 110.6 50.75 106.35 51.2 106.25" fill="#dddddd" fill-rule="evenodd" stroke="none"/>
    <path d="M94.85 36.45 L95.8 36.5 Q110.35 38.4 119.95 44.55 114.1 46.0 104.3 46.8 L101.7 43.95 94.85 36.45" fill="url(#gradient33)" fill-rule="evenodd" stroke="none"/>
    <path d="M89.25 80.65 L78.55 97.05 54.75 75.6 54.9 75.55 74.35 88.95 80.8 76.05 86.45 79.7 89.25 80.65 M104.3 46.8 L106.95 49.75 105.7 53.8 98.8 50.15 101.7 43.95 104.3 46.8 M66.8 113.35 L61.4 112.75 51.2 106.25 55.55 105.45 66.8 113.35 M54.6 116.75 L56.45 121.3 42.35 110.6 54.6 116.75" fill="#cccccc" fill-rule="evenodd" stroke="none"/>
    <path d="M101.7 43.95 L98.8 50.15 90.25 45.9 63.6 6.85 64.2 2.4 73.55 12.75 94.85 36.45 101.7 43.95" fill="url(#gradient34)" fill-rule="evenodd" stroke="none"/>
    <path d="M112.7 56.15 L110.95 56.65 105.7 53.8 106.95 49.75 107.9 50.8 112.7 56.15" fill="#0066ff" fill-rule="evenodd" stroke="none"/>
    <path d="M98.3 70.65 L105.2 75.8 Q97.05 76.45 88.85 74.4 L84.55 66.5 Q91.65 67.7 98.3 70.65" fill="#77819f" fill-rule="evenodd" stroke="none"/>
    <path d="M76.75 52.3 Q86.25 61.35 98.3 70.65 91.65 67.7 84.55 66.5 L76.75 52.3" fill="url(#gradient35)" fill-rule="evenodd" stroke="none"/>
    <path d="M92.3 81.75 L89.25 80.65 86.45 79.7 80.8 76.05 22.25 38.45 Q30.15 38.7 36.65 37.3 L42.55 35.55 51.4 42.25 43.9 35.0 Q51.9 31.55 56.85 24.6 61.1 18.6 63.05 10.05 L63.6 6.85 90.25 45.9 69.05 35.3 Q66.05 36.6 68.75 38.95 L69.9 39.85 69.85 39.9 76.75 52.3 84.55 66.5 88.85 74.4 92.3 81.75" fill="url(#gradient36)" fill-rule="evenodd" stroke="none"/>
    <path d="M135.95 96.75 L92.3 81.75 88.85 74.4 Q97.05 76.45 105.2 75.8 119.05 86.1 135.95 96.75" fill="url(#gradient37)" fill-rule="evenodd" stroke="none"/>
    <path d="M48.35 16.9 L48.55 16.7 Q52.55 11.05 54.35 2.95 L63.05 10.05 Q61.1 18.6 56.85 24.6 L48.35 16.9" fill="url(#gradient38)" fill-rule="evenodd" stroke="none"/>
    <path d="M35.5 26.85 Q43.5 23.65 48.35 16.9 L56.85 24.6 Q51.9 31.55 43.9 35.0 L42.55 35.55 36.65 37.3 27.75 28.95 32.5 27.9 35.5 26.85" fill="url(#gradient39)" fill-rule="evenodd" stroke="none"/>
    <path d="M26.3 18.2 L35.5 26.85 32.5 27.9 21.85 19.75 26.3 18.2 M42.55 35.55 L43.9 35.0 51.4 42.25 42.55 35.55" fill="#ff8176" fill-rule="evenodd" stroke="none"/>
    <path d="M1.35 28.0 L12.35 37.6 24.65 48.25 25.05 48.85 24.85 49.1 -6.2 89.4 -10.55 95.0 -56.9 60.75 -17.3 11.7 1.35 28.0" fill="url(#gradient40)" fill-rule="evenodd" stroke="none"/>
    <path d="M12.35 37.6 L1.35 28.0 Q16.7 30.85 27.75 28.95 L36.65 37.3 Q30.15 38.7 22.25 38.45 L12.35 37.6" fill="url(#gradient41)" fill-rule="evenodd" stroke="none"/>
    <path d="M24.65 48.25 L12.35 37.6 22.25 38.45 80.8 76.05 74.35 88.95 54.9 75.55 54.85 75.55 53.8 74.7 39.1 61.5 25.05 48.85 25.2 48.75 24.65 48.25" fill="url(#gradient42)" fill-rule="evenodd" stroke="none"/>
    <path d="M-10.55 95.0 L-6.2 89.4 Q32.4 83.1 24.85 49.1 L25.05 48.85 39.1 61.5 Q38.5 106.15 -16.7 94.95 L-10.55 95.0" fill="url(#gradient43)" fill-rule="evenodd" stroke="none"/>
    <path d="M53.8 74.7 L54.75 75.6 Q60.95 113.75 3.9 109.75 L-16.7 94.95 Q38.5 106.15 39.1 61.5 L53.8 74.7" fill="url(#gradient44)" fill-rule="evenodd" stroke="none"/>
    <path d="M78.55 97.05 L79.45 97.95 Q76.8 131.05 30.8 129.1 L3.9 109.75 Q60.95 113.75 54.75 75.6 L78.55 97.05 M73.3 101.1 L63.3 93.75 59.85 94.35 55.6 101.35 68.55 110.5 73.3 101.1 M66.8 113.35 L55.55 105.45 51.2 106.25 50.75 106.35 42.35 110.6 56.45 121.3 66.8 113.35" fill="url(#gradient45)" fill-rule="evenodd" stroke="none"/>
    <path d="M59.85 94.35 L63.3 93.75 73.3 101.1 68.75 101.75 59.85 94.35 M68.55 110.5 L55.6 101.35 66.3 105.35 68.55 110.5" fill="#666666" fill-rule="evenodd" stroke="none"/>
    <path d="M58.9 143.35 L58.35 143.3 54.25 142.75 58.9 143.1 58.9 143.35" fill="#5a2317" fill-rule="evenodd" stroke="none"/>
    <path d="M93.05 112.7 L94.0 116.5 Q94.8 123.5 89.7 129.05 76.75 143.75 58.9 143.1 L54.25 142.75 53.7 142.6 Q50.75 142.15 47.75 141.2 L47.65 141.3 44.35 138.9 Q79.45 140.1 93.05 112.7" fill="url(#gradient46)" fill-rule="evenodd" stroke="none"/>
    <path d="M79.45 97.95 L91.25 108.6 Q92.35 110.7 93.05 112.7 79.45 140.1 44.35 138.9 L30.8 129.1 Q76.8 131.05 79.45 97.95" fill="url(#gradient47)" fill-rule="evenodd" stroke="none"/>
    <path d="M-17.3 11.7 L-56.9 60.75 -88.65 57.3 -89.25 56.8 -42.15 1.3 -17.2 11.6 -17.3 11.7" fill="url(#gradient48)" fill-rule="evenodd" stroke="none"/>
    <path d="M-56.9 60.75 L-10.55 95.0 -16.7 94.95 -26.9 95.0 -29.65 94.95 -89.6 57.2 -88.65 57.3 -56.9 60.75" fill="url(#gradient49)" fill-rule="evenodd" stroke="none"/>
    <path d="M-60.55 223.05 L-79.15 221.05 -103.25 163.65 -122.3 154.95 -128.15 55.9 -116.7 38.8 Q-95.55 58.55 -90.05 57.1 L-89.6 57.2 -29.65 94.95 -26.9 95.0 Q-16.0 103.75 -5.9 110.85 L-30.6 150.2 -18.15 160.35 -60.55 223.05" fill="url(#gradient50)" fill-rule="evenodd" stroke="none"/>
    <path d="M-100.0 46.95 L-100.2 46.8 Q-118.05 28.6 -115.7 27.3 -115.0 28.05 -113.65 28.35 L-109.75 28.1 Q-107.75 27.4 -106.7 25.9 -105.7 24.45 -106.25 23.05 L-107.15 21.95 Q-99.9 23.65 -93.2 28.6 -87.2 32.95 -81.65 39.9 -88.3 53.05 -100.0 46.95" fill="url(#gradient51)" fill-rule="evenodd" stroke="none"/>
    <path d="M-89.85 57.05 L-89.6 57.2 -90.05 57.1 -89.85 57.05" fill="url(#gradient52)" fill-rule="evenodd" stroke="none"/>
    <path d="M-1.25 129.65 L-8.55 124.35 -1.25 129.65 M-3.6 133.2 L-10.8 127.95 -3.6 133.2 M-8.9 140.8 L-16.2 135.55 -8.9 140.8 M-11.25 144.75 L-18.55 139.5 -11.25 144.75 M-5.85 136.95 L-13.1 131.65 -5.85 136.95 M-18.15 160.35 L-30.6 150.2 -5.9 110.85 8.8 120.65 -18.15 160.35 M-13.6 148.65 L-20.85 143.45 -13.6 148.65 M1.05 125.85 L-6.25 120.6 1.05 125.85" fill="url(#gradient53)" fill-rule="evenodd" stroke="none"/>
    <path d="M-6.2 89.4 L24.85 49.1 Q32.4 83.1 -6.2 89.4" fill="url(#gradient54)" fill-rule="evenodd" stroke="none"/>
    <path d="M174.35 -105.8 L165.85 -124.0 119.3 -116.2 110.0 -120.3 27.35 -107.35 Q13.9 -119.9 11.4 -119.55 9.2 -119.6 11.0 -115.75 40.7 -93.45 32.2 -88.7 L35.35 -86.15 43.15 -95.15 60.2 -84.9 60.35 -84.9 Q66.7 -83.25 94.75 -44.35 L94.9 -44.15 95.45 -43.45 101.35 -35.1 119.2 -58.95 125.5 -50.9 151.45 -87.4 157.2 -82.1 174.25 -105.8 174.8 -104.8 177.6 -99.95 132.9 -30.3 125.05 -41.3 111.0 -20.35 115.05 -14.0 133.05 15.4 134.5 17.65 Q139.7 27.05 138.5 31.0 L138.55 31.0 138.95 32.5 139.1 32.7 Q141.8 41.4 135.2 47.3 132.9 49.3 129.5 51.0 L125.4 52.8 Q120.05 54.75 112.75 56.15 L112.7 56.15 110.95 56.65 224.45 114.65 233.65 130.1 212.3 123.1 135.95 96.75 92.3 81.75 89.25 80.65 78.55 97.05 79.45 97.95 91.25 108.6 Q92.35 110.7 93.05 112.7 L94.0 116.5 94.85 120.45 Q99.7 148.5 58.9 143.35 L58.35 143.3 54.25 142.75 53.7 142.6 Q50.75 142.15 47.75 141.2 L47.65 141.3 Q32.7 135.25 15.3 124.65 L2.95 143.3 16.7 156.85 -31.15 226.2 M174.35 -105.8 L174.8 -104.8 M-122.3 154.95 L-128.15 55.9 -116.7 38.8 Q-95.55 58.55 -90.05 57.1 L-100.0 46.95 -100.2 46.8 Q-118.05 28.6 -115.7 27.3 M-107.15 21.95 Q-99.9 23.65 -93.2 28.6 L-91.25 26.4 -119.65 -4.7 Q-123.85 -11.55 -118.0 -16.95 -112.3 -22.35 -100.9 -20.75 -90.05 -19.2 -80.45 -12.6 L-79.55 -12.0 M-78.4 -17.15 Q-151.15 -90.15 -171.55 -137.3 -186.0 -149.85 -198.1 -164.9 L-199.65 -166.9 Q-207.45 -174.5 -209.9 -181.65 -203.6 -179.5 -198.1 -176.2 -194.3 -173.9 -190.85 -171.05 L-190.8 -171.15 -195.15 -176.6 -191.8 -176.4 -232.35 -219.5 Q-233.85 -220.85 -233.65 -222.35 -233.45 -224.25 -230.85 -225.35 -228.35 -226.45 -225.0 -226.05 -222.25 -225.75 -220.15 -224.6 L-219.3 -224.1 -217.85 -222.6 -177.85 -187.55 -178.35 -189.7 -146.0 -168.25 Q-66.55 -131.9 -21.45 -88.35 -15.2 -86.45 -9.2 -82.2 L-14.25 -88.05 -14.75 -88.6 M-9.45 -92.8 Q-6.45 -92.7 -6.5 -95.6 -13.35 -106.05 -18.1 -117.7 -20.0 -119.9 -19.7 -122.55 -19.4 -125.55 -16.4 -127.4 -13.45 -129.3 -9.65 -128.85 -5.95 -128.45 -3.45 -126.2 L-3.3 -126.0 -3.25 -126.0 11.0 -115.75 M60.35 -84.9 L60.25 -84.85 33.15 -50.85 33.2 -50.85 33.05 -50.9 33.15 -50.85 67.0 -8.65 69.0 -11.2 94.9 -44.15 M27.55 -78.05 L27.85 -77.75 25.95 -76.25 10.55 -60.0 11.35 -59.15 33.05 -50.9 M35.35 -86.15 L27.55 -78.05 -3.55 -113.45 Q-4.5 -115.05 -3.7 -116.3 L-4.45 -115.7 Q-7.45 -113.9 -11.3 -114.3 -15.1 -114.7 -17.55 -117.1 L-18.1 -117.7 M27.55 -78.05 L25.95 -76.25 Q15.25 -68.55 3.05 -83.0 -2.15 -89.05 -6.5 -95.6 M10.55 -60.0 L5.7 -65.05 5.5 -65.25 Q-7.3 -77.7 -25.3 -87.0 -35.1 -92.0 -46.35 -96.1 L-46.65 -96.25 -46.75 -96.3 -46.7 -96.15 -46.7 -96.0 Q-48.45 -77.2 -72.95 -65.45 L-72.85 -65.3 -72.85 -65.15 Q-35.9 -14.85 30.05 11.8 L14.45 9.95 27.25 17.85 26.3 18.2 35.5 26.85 Q43.5 23.65 48.35 16.9 L48.55 16.7 Q52.55 11.05 54.35 2.95 55.15 -0.95 55.65 -7.1 L57.65 -4.95 Q99.45 -3.35 101.5 -34.5 L101.35 -35.1 101.55 -34.8 101.85 -34.55 103.95 -31.35 110.6 -20.3 110.8 -20.0 111.0 -20.35 M-46.7 -96.0 Q21.05 -54.7 36.8 3.8 34.55 -24.6 21.0 -46.2 L20.85 -46.55 Q16.6 -53.15 11.35 -59.15 M5.7 -65.05 Q13.9 -64.25 13.05 -68.55 L-7.1 -91.0 M21.0 -46.2 L32.65 -33.05 53.3 -9.75 67.0 -8.65 M53.3 -9.75 L55.65 -7.1 M32.65 -33.05 L46.5 -5.2 Q46.25 10.35 27.25 17.85 M101.55 -34.8 L101.5 -34.5 M125.5 -50.9 L121.9 -45.8 125.05 -41.3 M69.0 -11.2 Q96.25 -16.5 95.45 -43.45 M32.2 -88.7 L2.45 -119.15 Q-0.95 -118.4 -2.5 -117.3 L-3.7 -116.3 M205.5 108.1 L222.0 116.45 233.65 130.1 M212.3 123.1 L205.5 108.1 69.95 39.9 69.9 39.85 69.85 39.9 76.75 52.3 Q86.25 61.35 98.3 70.65 L105.2 75.8 Q119.05 86.1 135.95 96.75 M119.35 17.2 L122.95 20.5 128.1 15.35 125.1 12.1 119.35 17.2 112.8 11.15 119.0 5.5 125.1 12.1 M135.2 47.3 L132.45 44.5 M119.95 44.55 Q125.25 43.2 127.75 41.1 L133.65 36.25 137.65 32.55 138.55 31.0 M110.85 24.1 L114.05 27.25 121.15 22.15 117.8 19.3 110.85 24.1 104.3 17.15 110.6 12.75 117.8 19.3 M94.85 36.45 L95.8 36.5 Q124.1 38.2 133.05 15.4 M119.95 44.55 Q114.1 46.0 104.3 46.8 L106.95 49.75 107.9 50.8 Q134.7 48.55 139.1 32.7 M104.3 46.8 L101.7 43.95 98.8 50.15 105.7 53.8 106.95 49.75 M101.7 43.95 L94.85 36.45 73.55 12.75 64.2 2.4 63.6 6.85 90.25 45.9 98.8 50.15 M95.8 36.5 Q110.35 38.4 119.95 44.55 M110.95 56.65 L105.7 53.8 M112.7 56.15 L107.9 50.8 M98.3 70.65 Q91.65 67.7 84.55 66.5 L88.85 74.4 Q97.05 76.45 105.2 75.8 M80.8 76.05 L86.45 79.7 89.25 80.65 M88.85 74.4 L92.3 81.75 M63.05 10.05 L63.6 6.85 M48.35 16.9 L56.85 24.6 Q61.1 18.6 63.05 10.05 L54.35 2.95 M43.9 35.0 L42.55 35.55 51.4 42.25 43.9 35.0 Q51.9 31.55 56.85 24.6 M90.25 45.9 L69.05 35.3 Q66.05 36.6 68.75 38.95 L69.9 39.85 M21.85 19.75 L26.3 18.2 M36.8 3.8 L36.85 4.45 30.05 11.8 M14.45 9.95 L5.0 7.85 21.85 19.75 32.5 27.9 35.5 26.85 M12.35 37.6 L1.35 28.0 -17.3 11.7 -56.9 60.75 -10.55 95.0 -6.2 89.4 24.85 49.1 25.05 48.85 24.65 48.25 12.35 37.6 22.25 38.45 Q30.15 38.7 36.65 37.3 L27.75 28.95 Q16.7 30.85 1.35 28.0 M25.05 48.85 L25.2 48.75 24.65 48.25 M27.75 28.95 L32.5 27.9 M21.85 19.75 L18.1 20.75 -37.05 -6.1 -73.65 -41.8 -73.8 -42.15 Q-77.25 -51.0 -76.85 -61.3 L-137.85 -133.6 -140.05 -136.2 -147.8 -145.3 -154.65 -154.1 -154.7 -154.15 Q-117.0 -127.55 -95.25 -95.8 -120.15 -114.45 -137.85 -133.6 M-155.2 -154.0 Q-163.75 -147.85 -177.4 -154.15 -175.45 -146.2 -171.55 -137.3 M54.9 75.55 L54.85 75.55 54.75 75.6 53.8 74.7 39.1 61.5 Q38.5 106.15 -16.7 94.95 L3.9 109.75 Q60.95 113.75 54.75 75.6 L78.55 97.05 M54.9 75.55 L74.35 88.95 80.8 76.05 22.25 38.45 M53.8 74.7 L54.85 75.55 M73.3 101.1 L63.3 93.75 59.85 94.35 68.75 101.75 73.3 101.1 68.55 110.5 55.6 101.35 59.85 94.35 M39.1 61.5 L25.05 48.85 M42.55 35.55 L36.65 37.3 M68.55 110.5 L66.3 105.35 55.6 101.35 M66.3 105.35 L68.75 101.75 M61.4 112.75 L66.8 113.35 55.55 105.45 51.2 106.25 61.4 112.75 54.6 116.75 56.45 121.3 66.8 113.35 M42.35 110.6 L54.6 116.75 M42.35 110.6 L50.75 106.35 51.2 106.25 M56.45 121.3 L42.35 110.6 M58.9 143.1 L54.25 142.75 M47.65 141.3 L44.35 138.9 30.8 129.1 3.9 109.75 M8.8 120.65 L15.3 124.65 M94.0 116.5 Q94.8 123.5 89.7 129.05 76.75 143.75 58.9 143.1 M84.55 66.5 L76.75 52.3 M44.35 138.9 Q79.45 140.1 93.05 112.7 M79.45 97.95 Q76.8 131.05 30.8 129.1 M57.65 -4.95 L64.2 2.4 M115.05 -14.0 Q119.4 12.9 73.55 12.75 M-220.15 -224.6 L-219.0 -223.65 -217.85 -222.6 Q-217.25 -221.65 -217.35 -220.6 -217.55 -218.9 -219.6 -217.85 L-220.0 -217.65 Q-222.65 -216.55 -226.05 -216.9 -228.1 -217.15 -229.7 -217.85 L-232.25 -219.5 -232.35 -219.5 M-230.4 -218.2 L-231.55 -218.9 -231.7 -219.05 -232.25 -219.5 M-230.4 -218.2 L-229.7 -217.85 M-177.85 -187.55 L-177.8 -187.05 Q-175.9 -173.95 -191.8 -176.4 M-199.65 -166.9 L-198.1 -166.55 Q-191.5 -165.5 -190.85 -171.05 M-190.8 -171.15 L-177.95 -154.8 Q-178.0 -154.45 -177.45 -154.2 L-177.4 -154.15 M-3.25 -126.0 Q-0.85 -123.6 -1.15 -120.55 -1.35 -118.75 -2.5 -117.3 M-155.0 -154.25 L-155.0 -154.2 -155.2 -154.0 M-155.0 -154.25 Q-149.35 -158.5 -146.0 -168.25 -84.5 -134.45 -46.75 -96.3 M-82.55 -55.05 Q-88.3 -56.65 -114.9 -87.8 -112.85 -90.2 -107.3 -89.3 -93.15 -76.9 -82.55 -55.05 M-25.3 -87.0 L-16.0 -82.9 -21.45 -88.35 M-72.85 -65.15 Q-71.45 -47.35 -59.15 -32.75 L-59.15 -32.7 Q-31.85 -1.75 5.0 7.85 M-69.8 -17.75 L-69.85 -17.8 -69.9 -17.85 -70.1 -18.05 -70.15 -18.2 M-69.8 -17.75 L-50.8 0.75 -48.6 -3.65 -42.15 1.3 -17.2 11.6 -17.3 11.7 M-79.05 -11.4 L-78.05 -10.8 -59.05 5.85 -58.95 5.9 -58.75 6.15 Q-52.4 6.1 -50.2 1.35 L-50.8 0.75 M-58.95 5.9 L-58.75 6.15 Q-55.05 10.0 -56.0 12.25 -57.0 14.55 -63.55 23.6 -70.1 32.65 -91.25 26.4 M-89.6 57.2 L-29.65 94.95 -26.9 95.0 -16.7 94.95 -10.55 95.0 M-100.0 46.95 Q-88.3 53.05 -81.65 39.9 -87.2 32.95 -93.2 28.6 M-88.65 57.3 L-89.25 56.8 -89.6 57.2 -88.65 57.3 -56.9 60.75 M-89.85 57.05 L-90.05 57.1 M-89.85 57.05 L-89.25 56.8 -42.15 1.3 M-18.15 160.35 L-30.6 150.2 -5.9 110.85 Q-16.0 103.75 -26.9 95.0 M-60.55 223.05 L-18.15 160.35 8.8 120.65 -5.9 110.85 M16.0 -3.5 Q-11.5 -33.4 -51.75 -58.05 -24.85 -25.55 16.0 -3.5 M-6.2 89.4 Q32.4 83.1 24.85 49.1 M-9.2 -82.2 L5.5 -65.25" fill="none" stroke="#000000" stroke-linecap="round" stroke-linejoin="round" stroke-width="1.0"/>
    <path d="M-115.7 27.3 L-116.2 26.5 Q-116.95 25.1 -115.9 23.65 -114.9 22.1 -112.75 21.4 L-108.9 21.15 Q-107.85 21.4 -107.15 21.95 L-106.25 23.05 Q-105.7 24.45 -106.7 25.9 -107.75 27.4 -109.75 28.1 L-113.65 28.35 Q-115.0 28.05 -115.7 27.3 M-79.55 -12.0 L-79.95 -12.75 Q-80.55 -14.3 -79.35 -16.05 L-78.4 -17.15 -76.0 -18.55 Q-73.9 -19.45 -71.9 -18.95 -70.85 -18.7 -70.15 -18.2 M-14.75 -88.6 L-14.95 -89.0 Q-15.3 -89.65 -15.25 -90.3 -15.1 -91.65 -13.7 -92.45 -12.35 -93.2 -10.6 -93.0 L-9.45 -92.8 Q-8.5 -92.5 -7.75 -91.85 L-7.1 -91.0 Q-6.7 -90.3 -6.8 -89.4 -6.95 -88.1 -8.25 -87.35 -9.6 -86.55 -11.35 -86.7 -13.1 -86.95 -14.25 -88.05 M-111.6 -17.8 Q-107.3 -19.75 -102.55 -18.85 -97.9 -18.05 -95.65 -14.9 -93.45 -11.75 -94.9 -8.1 -96.35 -4.5 -100.65 -2.6 -105.0 -0.7 -109.75 -1.55 -114.5 -2.4 -116.75 -5.55 -118.95 -8.7 -117.45 -12.3 -115.95 -15.9 -111.6 -17.8 M-78.05 -10.8 L-77.5 -10.7 Q-75.45 -10.2 -73.2 -11.05 -71.1 -11.95 -69.9 -13.7 -68.75 -15.4 -69.25 -16.9 L-69.8 -17.75 M-79.55 -12.0 L-79.05 -11.4" fill="none" stroke="#000000" stroke-linecap="round" stroke-linejoin="round" stroke-width="1.0"/>
    <path d="M115.15 -45.15 L120.0 -41.4 M113.35 -42.55 L118.2 -38.8 M109.25 -37.2 L114.1 -33.45 M107.35 -34.5 L112.3 -30.75 M110.95 -39.85 L115.9 -36.15 M-13.1 131.65 L-5.85 136.95 M-18.55 139.5 L-11.25 144.75 M-16.2 135.55 L-8.9 140.8 M-10.8 127.95 L-3.6 133.2 M-8.55 124.35 L-1.25 129.65 M-20.85 143.45 L-13.6 148.65 M-6.25 120.6 L1.05 125.85" fill="none" stroke="#0000ff" stroke-linecap="round" stroke-linejoin="round" stroke-width="1.0"/>
    <path d="M-31.15 226.2 L-60.55 223.05 -79.15 221.05 -103.25 163.65 -122.3 154.95" fill="none" stroke="#0d0d0d" stroke-linecap="round" stroke-linejoin="round" stroke-width="1.0"/>
  </g>
  <defs>
    <linearGradient gradientTransform="matrix(-0.0094, 0.002, -0.0283, -0.0284, -204.0, -200.25)" gradientUnits="userSpaceOnUse" id="gradient0" spreadMethod="pad" x1="-819.2" x2="819.2">
      <stop offset="0.0" stop-color="#131330"/>
      <stop offset="0.4549019607843137" stop-color="#ffffff"/>
      <stop offset="0.7294117647058823" stop-color="#883924"/>
      <stop offset="0.9372549019607843" stop-color="#c27873"/>
    </linearGradient>
    <linearGradient gradientTransform="matrix(-0.0126, 0.003, -0.0225, -0.0205, -174.25, -169.4)" gradientUnits="userSpaceOnUse" id="gradient1" spreadMethod="pad" x1="-819.2" x2="819.2">
      <stop offset="0.0" stop-color="#131330"/>
      <stop offset="0.4549019607843137" stop-color="#ffffff"/>
      <stop offset="0.7294117647058823" stop-color="#883924"/>
      <stop offset="0.9372549019607843" stop-color="#c27873"/>
    </linearGradient>
    <linearGradient gradientTransform="matrix(-0.005, 8.0E-4, -0.0168, -0.0198, -183.65, -153.7)" gradientUnits="userSpaceOnUse" id="gradient2" spreadMethod="pad" x1="-819.2" x2="819.2">
      <stop offset="0.0" stop-color="#131330"/>
      <stop offset="0.4549019607843137" stop-color="#ffffff"/>
      <stop offset="0.7294117647058823" stop-color="#883924"/>
      <stop offset="0.9372549019607843" stop-color="#c27873"/>
    </linearGradient>
    <linearGradient gradientTransform="matrix(-0.0042, 0.0011, -0.0103, -0.009, -201.9, -174.15)" gradientUnits="userSpaceOnUse" id="gradient3" spreadMethod="pad" x1="-819.2" x2="819.2">
      <stop offset="0.0" stop-color="#131330"/>
      <stop offset="1.0" stop-color="#ffffff"/>
    </linearGradient>
    <linearGradient gradientTransform="matrix(0.019, -0.0028, 0.0937, 0.1164, -97.1, -59.4)" gradientUnits="userSpaceOnUse" id="gradient4" spreadMethod="pad" x1="-819.2" x2="819.2">
      <stop offset="0.0" stop-color="#0000cc"/>
      <stop offset="0.2627450980392157" stop-color="#2b1f66"/>
      <stop offset="0.6352941176470588" stop-color="#0099ff"/>
      <stop offset="0.8352941176470589" stop-color="#00ccff"/>
    </linearGradient>
    <linearGradient gradientTransform="matrix(0.0081, -0.0014, 0.0242, 0.0267, 3.8, -96.2)" gradientUnits="userSpaceOnUse" id="gradient5" spreadMethod="pad" x1="-819.2" x2="819.2">
      <stop offset="0.0" stop-color="#302a2f"/>
      <stop offset="0.4549019607843137" stop-color="#863438"/>
      <stop offset="0.8313725490196079" stop-color="#ffffff"/>
    </linearGradient>
    <linearGradient gradientTransform="matrix(0.003, -6.0E-4, 0.0225, 0.0226, 18.05, -108.2)" gradientUnits="userSpaceOnUse" id="gradient6" spreadMethod="pad" x1="-819.2" x2="819.2">
      <stop offset="0.0" stop-color="#b17185"/>
      <stop offset="0.4549019607843137" stop-color="#5d3f50"/>
      <stop offset="0.8313725490196079" stop-color="#ffffff"/>
    </linearGradient>
    <linearGradient gradientTransform="matrix(0.0164, -0.0033, 0.112, 0.1144, -93.45, -58.9)" gradientUnits="userSpaceOnUse" id="gradient7" spreadMethod="pad" x1="-819.2" x2="819.2">
      <stop offset="0.0" stop-color="#cf231d"/>
      <stop offset="0.2627450980392157" stop-color="#2b1f66"/>
      <stop offset="0.5333333333333333" stop-color="#b62e2c"/>
    </linearGradient>
    <radialGradient cx="0" cy="0" gradientTransform="matrix(-0.0044, 0.0394, -0.0774, -0.0084, -125.5, -126.55)" gradientUnits="userSpaceOnUse" id="gradient8" r="819.2" spreadMethod="pad">
      <stop offset="0.0" stop-color="#ffffff"/>
      <stop offset="1.0" stop-color="#ffff99"/>
    </radialGradient>
    <linearGradient gradientTransform="matrix(-0.0264, 0.0065, -0.1233, -0.1097, -65.3, -73.4)" gradientUnits="userSpaceOnUse" id="gradient9" spreadMethod="pad" x1="-819.2" x2="819.2">
      <stop offset="0.10196078431372549" stop-color="#293163"/>
      <stop offset="0.3607843137254902" stop-color="#666666"/>
      <stop offset="0.7411764705882353" stop-color="#8291be"/>
      <stop offset="0.8901960784313725" stop-color="#ffffff"/>
    </linearGradient>
    <linearGradient gradientTransform="matrix(-0.0017, 3.0E-4, -0.018, -0.021, -96.35, -72.4)" gradientUnits="userSpaceOnUse" id="gradient10" spreadMethod="pad" x1="-819.2" x2="819.2">
      <stop offset="0.0" stop-color="#a74a2e"/>
      <stop offset="1.0" stop-color="#fccc72"/>
    </linearGradient>
    <linearGradient gradientTransform="matrix(-0.0248, 0.0073, -0.0343, -0.0271, -89.45, 3.4)" gradientUnits="userSpaceOnUse" id="gradient11" spreadMethod="pad" x1="-819.2" x2="819.2">
      <stop offset="0.0" stop-color="#a83835"/>
      <stop offset="0.1411764705882353" stop-color="#19110c"/>
      <stop offset="0.30196078431372547" stop-color="#412e68"/>
      <stop offset="0.6078431372549019" stop-color="#f9f7ec"/>
      <stop offset="0.807843137254902" stop-color="#90904c"/>
      <stop offset="0.8823529411764706" stop-color="#423624"/>
    </linearGradient>
    <linearGradient gradientTransform="matrix(0.0052, -0.001, 0.0144, 0.0151, 1.4, -78.0)" gradientUnits="userSpaceOnUse" id="gradient12" spreadMethod="pad" x1="-819.2" x2="819.2">
      <stop offset="0.0" stop-color="#b17185"/>
      <stop offset="0.4549019607843137" stop-color="#5d3f50"/>
      <stop offset="0.8313725490196079" stop-color="#ffffff"/>
    </linearGradient>
    <linearGradient gradientTransform="matrix(-0.0129, 0.0036, -0.0678, -0.0553, -83.8, -124.7)" gradientUnits="userSpaceOnUse" id="gradient13" spreadMethod="pad" x1="-819.2" x2="819.2">
      <stop offset="0.0" stop-color="#0000cc"/>
      <stop offset="0.2627450980392157" stop-color="#2b1f66"/>
      <stop offset="0.6352941176470588" stop-color="#0099ff"/>
      <stop offset="0.8352941176470589" stop-color="#00ccff"/>
    </linearGradient>
    <radialGradient cx="0" cy="0" gradientTransform="matrix(-0.0096, 0.0859, -0.1688, -0.0182, 26.25, -29.95)" gradientUnits="userSpaceOnUse" id="gradient14" r="819.2" spreadMethod="pad">
      <stop offset="0.011764705882352941" stop-color="#f4bb6a"/>
      <stop offset="0.3607843137254902" stop-color="#a84330"/>
      <stop offset="0.7411764705882353" stop-color="#563f2e"/>
    </radialGradient>
    <linearGradient gradientTransform="matrix(0.0378, -0.0099, 0.0702, 0.0598, -0.75, -44.2)" gradientUnits="userSpaceOnUse" id="gradient15" spreadMethod="pad" x1="-819.2" x2="819.2">
      <stop offset="0.0" stop-color="#ffb926"/>
      <stop offset="0.4745098039215686" stop-color="#644300"/>
    </linearGradient>
    <radialGradient cx="0" cy="0" gradientTransform="matrix(-0.0097, 0.0866, -0.1702, -0.0184, -2.4, 2.25)" gradientUnits="userSpaceOnUse" id="gradient16" r="819.2" spreadMethod="pad">
      <stop offset="0.011764705882352941" stop-color="#f4bb6a"/>
      <stop offset="0.3607843137254902" stop-color="#a84330"/>
      <stop offset="0.7411764705882353" stop-color="#563f2e"/>
    </radialGradient>
    <linearGradient gradientTransform="matrix(-0.0061, 0.0016, -0.0149, -0.0128, -65.65, -5.35)" gradientUnits="userSpaceOnUse" id="gradient17" spreadMethod="pad" x1="-819.2" x2="819.2">
      <stop offset="0.0" stop-color="#19110c"/>
      <stop offset="0.30196078431372547" stop-color="#6b5850"/>
      <stop offset="0.5490196078431373" stop-color="#ffffff"/>
      <stop offset="0.807843137254902" stop-color="#90904c"/>
    </linearGradient>
    <linearGradient gradientTransform="matrix(-0.0351, -0.0104, 0.0464, -0.0522, 117.7, -84.35)" gradientUnits="userSpaceOnUse" id="gradient18" spreadMethod="pad" x1="-819.2" x2="819.2">
      <stop offset="0.0" stop-color="#00ccff"/>
      <stop offset="0.21568627450980393" stop-color="#0099cc"/>
      <stop offset="0.6196078431372549" stop-color="#2818d3"/>
      <stop offset="1.0" stop-color="#1d0e99"/>
    </linearGradient>
    <linearGradient gradientTransform="matrix(-0.0452, -0.005, 0.0056, -0.0455, 53.3, -47.9)" gradientUnits="userSpaceOnUse" id="gradient19" spreadMethod="pad" x1="-819.2" x2="819.2">
      <stop offset="0.0" stop-color="#ffffff"/>
      <stop offset="1.0" stop-color="#6577ab"/>
    </linearGradient>
    <linearGradient gradientTransform="matrix(-0.0143, 0.0057, -0.024, -0.0152, 48.9, -77.15)" gradientUnits="userSpaceOnUse" id="gradient20" spreadMethod="pad" x1="-819.2" x2="819.2">
      <stop offset="0.0" stop-color="#69779e"/>
      <stop offset="1.0" stop-color="#312127"/>
    </linearGradient>
    <linearGradient gradientTransform="matrix(-0.0194, -0.0229, 0.0086, -0.0014, 42.5, -30.4)" gradientUnits="userSpaceOnUse" id="gradient21" spreadMethod="pad" x1="-819.2" x2="819.2">
      <stop offset="0.0" stop-color="#fbfed4"/>
      <stop offset="0.5294117647058824" stop-color="#ffffff"/>
      <stop offset="1.0" stop-color="#edab93"/>
    </linearGradient>
    <linearGradient gradientTransform="matrix(-0.0357, 0.0045, -0.0143, -0.0195, 74.7, -23.35)" gradientUnits="userSpaceOnUse" id="gradient22" spreadMethod="pad" x1="-819.2" x2="819.2">
      <stop offset="0.0" stop-color="#93b4c4"/>
      <stop offset="0.22745098039215686" stop-color="#1f222a"/>
      <stop offset="0.5490196078431373" stop-color="#f6f7fb"/>
      <stop offset="0.8784313725490196" stop-color="#40324d"/>
      <stop offset="1.0" stop-color="#6d598b"/>
    </linearGradient>
    <radialGradient cx="0" cy="0" gradientTransform="matrix(-0.0021, 0.0186, -0.0365, -0.0039, 56.65, -5.35)" gradientUnits="userSpaceOnUse" id="gradient23" r="819.2" spreadMethod="pad">
      <stop offset="0.0" stop-color="#cccccc"/>
      <stop offset="1.0" stop-color="#333333"/>
    </radialGradient>
    <radialGradient cx="0" cy="0" gradientTransform="matrix(-0.0072, 0.0642, -0.1262, -0.0136, 39.35, 20.5)" gradientUnits="userSpaceOnUse" id="gradient24" r="819.2" spreadMethod="pad">
      <stop offset="0.0" stop-color="#00ccff"/>
      <stop offset="1.0" stop-color="#000066"/>
    </radialGradient>
    <linearGradient gradientTransform="matrix(0.0063, 0.0016, -0.0153, 0.0209, 112.4, -40.25)" gradientUnits="userSpaceOnUse" id="gradient25" spreadMethod="pad" x1="-819.2" x2="819.2">
      <stop offset="0.0" stop-color="#0099ff"/>
      <stop offset="1.0" stop-color="#00ffff"/>
    </linearGradient>
    <linearGradient gradientTransform="matrix(-0.0379, 0.005, -0.0187, -0.0249, 77.25, -9.0)" gradientUnits="userSpaceOnUse" id="gradient26" spreadMethod="pad" x1="-819.2" x2="819.2">
      <stop offset="0.0" stop-color="#000066"/>
      <stop offset="0.16470588235294117" stop-color="#000099"/>
      <stop offset="0.403921568627451" stop-color="#0099ff"/>
      <stop offset="0.6862745098039216" stop-color="#000033"/>
      <stop offset="1.0" stop-color="#000000"/>
    </linearGradient>
    <linearGradient gradientTransform="matrix(-0.0324, 0.0037, -0.0117, -0.017, 72.95, -26.65)" gradientUnits="userSpaceOnUse" id="gradient27" spreadMethod="pad" x1="-819.2" x2="819.2">
      <stop offset="0.0" stop-color="#93b4c4"/>
      <stop offset="0.22745098039215686" stop-color="#1f222a"/>
      <stop offset="0.5490196078431373" stop-color="#f6f7fb"/>
      <stop offset="0.8784313725490196" stop-color="#40324d"/>
      <stop offset="1.0" stop-color="#6d598b"/>
    </linearGradient>
    <radialGradient cx="0" cy="0" gradientTransform="matrix(-0.0043, 0.0388, -0.0764, -0.0082, -16.05, -29.2)" gradientUnits="userSpaceOnUse" id="gradient28" r="819.2" spreadMethod="pad">
      <stop offset="0.0" stop-color="#ffffff"/>
      <stop offset="1.0" stop-color="#ffff99"/>
    </radialGradient>
    <linearGradient gradientTransform="matrix(-0.0698, -0.0406, 0.0173, -0.0077, 136.55, 82.7)" gradientUnits="userSpaceOnUse" id="gradient29" spreadMethod="pad" x1="-819.2" x2="819.2">
      <stop offset="0.0" stop-color="#fff9bc"/>
      <stop offset="0.27450980392156865" stop-color="#b5b367"/>
      <stop offset="0.6784313725490196" stop-color="#66888c"/>
      <stop offset="0.9098039215686274" stop-color="#262d32"/>
    </linearGradient>
    <linearGradient gradientTransform="matrix(-0.0332, 0.003, -0.0099, -0.0162, 107.1, 31.75)" gradientUnits="userSpaceOnUse" id="gradient30" spreadMethod="pad" x1="-819.2" x2="819.2">
      <stop offset="0.0" stop-color="#000066"/>
      <stop offset="0.16470588235294117" stop-color="#000099"/>
      <stop offset="0.403921568627451" stop-color="#0099ff"/>
      <stop offset="0.6862745098039216" stop-color="#000033"/>
      <stop offset="1.0" stop-color="#000000"/>
    </linearGradient>
    <linearGradient gradientTransform="matrix(-0.0326, 0.0042, -0.0203, -0.0273, 101.5, 12.35)" gradientUnits="userSpaceOnUse" id="gradient31" spreadMethod="pad" x1="-819.2" x2="819.2">
      <stop offset="0.0" stop-color="#93b4c4"/>
      <stop offset="0.22745098039215686" stop-color="#1f222a"/>
      <stop offset="0.5490196078431373" stop-color="#f6f7fb"/>
      <stop offset="0.8784313725490196" stop-color="#40324d"/>
      <stop offset="1.0" stop-color="#6d598b"/>
    </linearGradient>
    <linearGradient gradientTransform="matrix(-0.0242, 0.0039, -0.0069, -0.0081, 120.35, 41.55)" gradientUnits="userSpaceOnUse" id="gradient32" spreadMethod="pad" x1="-819.2" x2="819.2">
      <stop offset="0.0" stop-color="#93b4c4"/>
      <stop offset="0.22745098039215686" stop-color="#1f222a"/>
      <stop offset="0.5490196078431373" stop-color="#f6f7fb"/>
      <stop offset="0.8784313725490196" stop-color="#40324d"/>
      <stop offset="1.0" stop-color="#6d598b"/>
    </linearGradient>
    <radialGradient cx="0" cy="0" gradientTransform="matrix(-0.0018, 0.0156, -0.0306, -0.0033, 116.65, 44.45)" gradientUnits="userSpaceOnUse" id="gradient33" r="819.2" spreadMethod="pad">
      <stop offset="0.0" stop-color="#00ccff"/>
      <stop offset="1.0" stop-color="#000099"/>
    </radialGradient>
    <radialGradient cx="0" cy="0" gradientTransform="matrix(-0.006, 0.0529, -0.104, -0.0112, 67.75, 6.95)" gradientUnits="userSpaceOnUse" id="gradient34" r="819.2" spreadMethod="pad">
      <stop offset="0.0" stop-color="#000099"/>
      <stop offset="1.0" stop-color="#0066ff"/>
    </radialGradient>
    <radialGradient cx="0" cy="0" gradientTransform="matrix(-0.0046, 0.041, -0.0806, -0.0087, 108.5, 84.6)" gradientUnits="userSpaceOnUse" id="gradient35" r="819.2" spreadMethod="pad">
      <stop offset="0.0" stop-color="#00ffff"/>
      <stop offset="1.0" stop-color="#00ccff"/>
    </radialGradient>
    <linearGradient gradientTransform="matrix(-0.0232, 0.0053, -0.0426, -0.04, 65.7, 46.9)" gradientUnits="userSpaceOnUse" id="gradient36" spreadMethod="pad" x1="-819.2" x2="819.2">
      <stop offset="0.0" stop-color="#000099"/>
      <stop offset="0.5176470588235295" stop-color="#0066ff"/>
      <stop offset="0.984313725490196" stop-color="#000099"/>
    </linearGradient>
    <radialGradient cx="0" cy="0" gradientTransform="matrix(-0.0024, 0.0212, -0.0416, -0.0045, 107.8, 84.45)" gradientUnits="userSpaceOnUse" id="gradient37" r="819.2" spreadMethod="pad">
      <stop offset="0.0" stop-color="#00ffff"/>
      <stop offset="1.0" stop-color="#00ccff"/>
    </radialGradient>
    <radialGradient cx="0" cy="0" gradientTransform="matrix(-0.0025, 0.0228, -0.0448, -0.0048, 56.95, 22.05)" gradientUnits="userSpaceOnUse" id="gradient38" r="819.2" spreadMethod="pad">
      <stop offset="0.0" stop-color="#cccccc"/>
      <stop offset="1.0" stop-color="#333333"/>
    </radialGradient>
    <radialGradient cx="0" cy="0" gradientTransform="matrix(-0.0023, 0.021, -0.0413, -0.0045, 55.3, 24.4)" gradientUnits="userSpaceOnUse" id="gradient39" r="819.2" spreadMethod="pad">
      <stop offset="0.0" stop-color="#cccccc"/>
      <stop offset="1.0" stop-color="#333333"/>
    </radialGradient>
    <linearGradient gradientTransform="matrix(-0.0615, 0.0086, -0.0361, -0.0464, -30.6, 55.75)" gradientUnits="userSpaceOnUse" id="gradient40" spreadMethod="pad" x1="-819.2" x2="819.2">
      <stop offset="0.0" stop-color="#ffffff"/>
      <stop offset="1.0" stop-color="#6577ab"/>
    </linearGradient>
    <radialGradient cx="0" cy="0" gradientTransform="matrix(-0.0016, 0.014, -0.0275, -0.003, 14.6, 37.35)" gradientUnits="userSpaceOnUse" id="gradient41" r="819.2" spreadMethod="pad">
      <stop offset="0.0" stop-color="#cccccc"/>
      <stop offset="1.0" stop-color="#333333"/>
    </radialGradient>
    <radialGradient cx="0" cy="0" gradientTransform="matrix(-0.0071, 0.0634, -0.1246, -0.0135, 19.5, 40.35)" gradientUnits="userSpaceOnUse" id="gradient42" r="819.2" spreadMethod="pad">
      <stop offset="0.0" stop-color="#000099"/>
      <stop offset="1.0" stop-color="#0066ff"/>
    </radialGradient>
    <linearGradient gradientTransform="matrix(-0.0392, 0.0131, -0.0256, -0.0183, 10.65, 75.85)" gradientUnits="userSpaceOnUse" id="gradient43" spreadMethod="pad" x1="-819.2" x2="819.2">
      <stop offset="0.0" stop-color="#ffffff"/>
      <stop offset="0.16862745098039217" stop-color="#302e3c"/>
      <stop offset="0.403921568627451" stop-color="#3f355b"/>
      <stop offset="0.592156862745098" stop-color="#9bb5e6"/>
      <stop offset="0.7450980392156863" stop-color="#fbfcfe"/>
      <stop offset="0.8745098039215686" stop-color="#8aa7a3"/>
      <stop offset="1.0" stop-color="#ffffff"/>
    </linearGradient>
    <linearGradient gradientTransform="matrix(-0.0389, 0.0109, -0.0252, -0.0204, 23.0, 88.65)" gradientUnits="userSpaceOnUse" id="gradient44" spreadMethod="pad" x1="-819.2" x2="819.2">
      <stop offset="0.0" stop-color="#000066"/>
      <stop offset="0.10980392156862745" stop-color="#261430"/>
      <stop offset="0.2235294117647059" stop-color="#000033"/>
      <stop offset="0.3686274509803922" stop-color="#000066"/>
      <stop offset="0.5568627450980392" stop-color="#00ccff"/>
      <stop offset="0.7254901960784313" stop-color="#fbfcfe"/>
      <stop offset="0.8745098039215686" stop-color="#2f2fe3"/>
      <stop offset="1.0" stop-color="#2b1f66"/>
    </linearGradient>
    <linearGradient gradientTransform="matrix(-0.0404, 0.0119, -0.0291, -0.0228, 40.85, 105.4)" gradientUnits="userSpaceOnUse" id="gradient45" spreadMethod="pad" x1="-819.2" x2="819.2">
      <stop offset="0.0" stop-color="#ffffff"/>
      <stop offset="0.16862745098039217" stop-color="#302e3c"/>
      <stop offset="0.403921568627451" stop-color="#3f355b"/>
      <stop offset="0.592156862745098" stop-color="#9bb5e6"/>
      <stop offset="0.7450980392156863" stop-color="#fbfcfe"/>
      <stop offset="0.8745098039215686" stop-color="#8aa7a3"/>
      <stop offset="1.0" stop-color="#ffffff"/>
    </linearGradient>
    <radialGradient cx="0" cy="0" gradientTransform="matrix(-0.003, 0.0267, -0.0525, -0.0057, 81.15, 133.0)" gradientUnits="userSpaceOnUse" id="gradient46" r="819.2" spreadMethod="pad">
      <stop offset="0.0" stop-color="#ffffff"/>
      <stop offset="1.0" stop-color="#8682a4"/>
    </radialGradient>
    <linearGradient gradientTransform="matrix(-0.0397, 0.0136, -0.0198, -0.0139, 60.45, 121.25)" gradientUnits="userSpaceOnUse" id="gradient47" spreadMethod="pad" x1="-819.2" x2="819.2">
      <stop offset="0.0" stop-color="#000066"/>
      <stop offset="0.10980392156862745" stop-color="#261430"/>
      <stop offset="0.2235294117647059" stop-color="#000033"/>
      <stop offset="0.3686274509803922" stop-color="#000066"/>
      <stop offset="0.5568627450980392" stop-color="#00ccff"/>
      <stop offset="0.7254901960784313" stop-color="#fbfcfe"/>
      <stop offset="0.8745098039215686" stop-color="#2f2fe3"/>
      <stop offset="1.0" stop-color="#2b1f66"/>
    </linearGradient>
    <linearGradient gradientTransform="matrix(-0.0219, 0.0069, -0.0314, -0.0236, -33.0, 25.9)" gradientUnits="userSpaceOnUse" id="gradient48" spreadMethod="pad" x1="-819.2" x2="819.2">
      <stop offset="0.0" stop-color="#69779e"/>
      <stop offset="1.0" stop-color="#312127"/>
    </linearGradient>
    <radialGradient cx="0" cy="0" gradientTransform="matrix(-0.0042, 0.037, -0.0728, -0.0079, -54.95, 71.0)" gradientUnits="userSpaceOnUse" id="gradient49" r="819.2" spreadMethod="pad">
      <stop offset="0.0" stop-color="#ffff99"/>
      <stop offset="1.0" stop-color="#ffffff"/>
    </radialGradient>
    <linearGradient gradientTransform="matrix(-0.0916, -0.0242, -0.056, 0.0903, -88.25, 132.45)" gradientUnits="userSpaceOnUse" id="gradient50" spreadMethod="pad" x1="-819.2" x2="819.2">
      <stop offset="0.0" stop-color="#00ccff"/>
      <stop offset="0.21568627450980393" stop-color="#0099cc"/>
      <stop offset="0.6196078431372549" stop-color="#2818d3"/>
      <stop offset="1.0" stop-color="#1d0e99"/>
    </linearGradient>
    <linearGradient gradientTransform="matrix(-0.0109, 0.003, -0.0175, -0.0142, -99.95, 35.6)" gradientUnits="userSpaceOnUse" id="gradient51" spreadMethod="pad" x1="-819.2" x2="819.2">
      <stop offset="0.0" stop-color="#a83835"/>
      <stop offset="0.1411764705882353" stop-color="#19110c"/>
      <stop offset="0.30196078431372547" stop-color="#412e68"/>
      <stop offset="0.6078431372549019" stop-color="#f9f7ec"/>
      <stop offset="0.807843137254902" stop-color="#90904c"/>
      <stop offset="0.8823529411764706" stop-color="#423624"/>
    </linearGradient>
    <linearGradient gradientTransform="matrix(-0.0584, -0.0131, 0.0391, -0.0677, -55.25, 115.3)" gradientUnits="userSpaceOnUse" id="gradient52" spreadMethod="pad" x1="-819.2" x2="819.2">
      <stop offset="0.0" stop-color="#00ccff"/>
      <stop offset="0.21568627450980393" stop-color="#0099cc"/>
      <stop offset="0.6196078431372549" stop-color="#2818d3"/>
      <stop offset="1.0" stop-color="#1d0e99"/>
    </linearGradient>
    <linearGradient gradientTransform="matrix(0.006, 0.0016, -0.0207, 0.0266, -13.55, 135.25)" gradientUnits="userSpaceOnUse" id="gradient53" spreadMethod="pad" x1="-819.2" x2="819.2">
      <stop offset="0.0" stop-color="#0099ff"/>
      <stop offset="1.0" stop-color="#00ffff"/>
    </linearGradient>
    <linearGradient gradientTransform="matrix(-0.0255, 0.0161, -0.015, -0.0067, 8.85, 72.4)" gradientUnits="userSpaceOnUse" id="gradient54" spreadMethod="pad" x1="-819.2" x2="819.2">
      <stop offset="0.0" stop-color="#000000"/>
      <stop offset="0.3176470588235294" stop-color="#726b94"/>
      <stop offset="0.5254901960784314" stop-color="#ffffff"/>
      <stop offset="0.7411764705882353" stop-color="#8da5cc"/>
      <stop offset="0.9411764705882353" stop-color="#2a3a37"/>
    </linearGradient>
  </defs>
</svg>
