<?xml version="1.0" encoding="UTF-8" standalone="no"?>
<svg xmlns:ffdec="https://www.free-decompiler.com/flash" xmlns:xlink="http://www.w3.org/1999/xlink" ffdec:objectType="shape" height="480.0px" width="480.05px" xmlns="http://www.w3.org/2000/svg">
  <g transform="matrix(1.0, 0.0, 0.0, 1.0, 240.0, 240.0)">
    <path d="M2.4 -211.15 L4.55 -202.55 -22.25 -197.9 -5.45 -211.8 2.4 -211.15" fill="#434c90" fill-rule="evenodd" stroke="none"/>
    <path d="M2.4 -211.15 L-5.45 -211.8 -22.25 -197.9 4.55 -202.55 2.4 -211.15 M17.95 -209.45 L12.45 -200.65 22.15 -193.05 19.55 -192.7 Q22.6 -190.5 25.6 -188.25 L38.65 -196.6 19.65 -210.0 17.95 -209.45 M124.55 -149.7 L114.4 -151.5 85.05 -145.05 155.45 -105.95 154.05 -102.4 163.6 -103.75 183.9 -99.15 167.1 -116.3 150.45 -131.5 146.05 -129.75 133.05 -139.25 157.15 -139.55 149.05 -154.85 124.55 -149.7 M112.5 -170.85 L115.8 -177.5 117.65 -178.05 103.2 -175.05 112.5 -170.85 M237.6 -11.55 L221.8 -32.9 214.35 -51.9 200.75 -61.15 194.5 -54.2 181.85 -63.45 178.4 -61.75 168.7 -94.05 159.05 -97.6 154.55 -95.25 136.6 -94.15 146.05 -85.7 109.3 -113.05 115.95 -120.4 89.4 -113.75 84.0 -126.5 92.45 -130.85 80.85 -133.95 77.4 -140.75 63.5 -140.35 58.3 -134.1 43.5 -140.4 23.0 -150.15 2.95 -158.55 -26.85 -163.55 -61.8 -154.2 -70.4 -149.95 -82.2 -158.05 -74.35 -168.25 -87.5 -182.6 -110.65 -188.6 -54.9 -197.5 -67.05 -203.95 -23.4 -230.5 -38.15 -232.05 -32.95 -238.0 Q-16.9 -240.0 0.0 -240.0 99.3 -240.0 169.65 -169.65 195.25 -144.1 211.55 -114.65 L213.65 -104.25 220.85 -95.85 Q226.95 -81.8 231.1 -66.95 L218.65 -84.8 224.3 -71.9 232.05 -63.45 Q235.95 -48.7 237.95 -33.15 L231.3 -41.25 238.6 -27.45 Q240.0 -14.0 240.0 0.0 240.0 22.6 236.35 43.7 L232.35 18.1 233.2 10.95 229.25 26.9 236.25 44.25 Q231.25 72.75 219.6 98.5 L219.6 84.55 202.8 84.55 202.8 101.35 218.3 101.35 Q204.15 131.55 180.7 157.95 L182.75 153.85 171.0 153.85 175.75 163.4 169.65 169.65 Q101.45 237.8 6.05 239.9 L-61.9 202.8 50.85 220.9 43.1 207.95 63.95 211.4 65.1 218.7 70.15 209.0 67.9 194.2 79.3 193.2 77.5 189.0 57.4 194.4 53.2 198.45 42.3 190.0 52.45 186.25 30.55 175.9 55.6 165.5 69.45 165.05 87.75 186.9 88.15 197.5 79.25 214.6 119.3 191.5 156.0 162.9 135.0 171.05 150.8 138.6 141.75 125.9 118.1 161.1 113.45 163.65 100.9 140.9 102.65 125.35 113.9 150.05 118.9 138.65 119.1 144.8 126.9 131.15 120.5 134.9 129.5 114.1 126.75 105.45 126.8 105.25 133.9 102.0 142.05 88.85 142.0 86.95 150.2 85.75 135.55 81.15 160.8 74.35 157.85 79.3 181.1 71.9 185.6 83.6 195.7 72.7 202.25 80.2 198.5 49.8 181.7 68.6 175.65 50.1 182.9 14.4 192.35 14.2 182.9 13.45 172.35 -2.3 184.35 0.05 193.7 1.9 200.1 3.15 202.35 -6.95 208.85 -13.9 199.0 -29.7 211.25 -23.05 219.7 2.35 222.6 17.95 218.8 38.7 224.95 21.8 230.9 -3.15 233.85 4.4 237.6 -11.55 M-133.75 -16.2 L-119.25 4.75 -112.2 6.8 -114.3 14.4 -110.0 28.05 -92.85 17.0 -93.65 9.85 -66.65 3.3 -41.85 -8.5 -27.85 -2.65 -45.35 -25.95 -13.8 -19.7 -4.4 -16.2 -5.7 -5.8 6.3 -0.35 0.9 -10.65 18.5 -7.75 13.95 -11.5 22.6 -21.0 8.25 -34.75 -18.55 -28.3 -26.45 -29.2 -72.3 -41.6 -19.1 -45.85 3.1 -47.05 -4.4 -69.95 1.7 -75.85 -4.4 -78.75 -23.3 -95.0 -18.55 -78.25 -32.8 -66.8 -38.95 -64.45 -42.25 -54.2 -74.4 -42.2 -88.2 -45.9 -80.25 -50.15 -79.15 -53.4 -83.5 -57.55 -75.1 -61.7 -56.65 -59.85 -45.55 -56.45 -47.9 -74.2 -35.7 -77.3 -48.55 -86.65 -65.65 -100.25 -54.3 -103.9 -46.45 -96.85 -39.2 -93.3 -35.4 -107.05 9.85 -74.55 6.6 -68.1 21.95 -55.15 40.4 -59.7 60.85 -58.6 46.4 -66.45 67.6 -60.75 91.3 -68.65 70.3 -76.45 67.15 -77.4 51.3 -88.95 16.65 -101.5 68.85 -88.55 100.8 -79.6 103.05 -74.55 104.55 -74.55 141.8 -46.1 137.65 -40.3 123.9 -35.65 133.45 -17.1 129.1 -7.2 128.2 19.05 136.95 25.55 149.2 -0.45 149.95 -0.15 150.25 0.5 139.8 29.7 134.5 59.8 117.65 74.65 134.5 73.7 133.45 83.0 109.35 109.8 107.2 112.2 100.2 119.95 118.7 64.45 133.95 39.55 120.3 56.1 123.35 9.05 125.0 0.5 121.7 -17.3 113.05 -16.1 108.9 -25.35 108.5 -28.0 98.65 -47.2 60.85 -54.2 80.2 -40.85 91.35 -25.45 82.25 -17.1 91.75 4.05 108.15 36.2 100.85 47.75 97.25 21.9 86.85 43.65 91.3 79.75 72.4 104.4 72.1 104.55 61.8 106.4 78.7 77.0 79.8 58.9 88.2 58.9 85.95 48.55 78.75 57.95 74.25 47.75 59.95 84.15 59.95 80.1 36.3 80.1 36.3 103.75 52.3 103.75 40.8 128.9 38.75 145.1 26.15 153.45 45.05 146.95 59.75 110.5 46.0 152.1 19.85 158.55 31.15 140.65 33.5 129.35 34.55 109.9 -18.85 107.9 -16.0 115.9 -27.5 132.15 -55.8 129.35 -55.45 117.25 -66.3 127.35 -84.65 129.0 -88.55 126.55 -138.0 132.15 -136.95 154.35 -126.9 163.6 -107.55 179.9 -168.9 149.15 -165.4 141.8 -155.25 139.2 -154.05 122.75 -166.75 120.4 -157.9 109.55 -121.15 111.7 -113.6 107.8 -131.7 98.1 -107.75 100.7 -114.7 89.9 -138.5 77.4 -152.65 50.3 -113.35 77.4 -99.6 66.35 -88.55 67.25 -66.3 52.1 -65.55 47.0 -60.85 44.9 5.3 63.25 -6.5 79.3 -13.95 80.55 -11.25 95.95 14.05 97.85 17.75 83.55 54.55 66.3 50.35 46.85 14.75 40.25 -7.55 19.95 -39.95 12.95 -38.45 19.95 -44.35 25.5 -53.25 22.45 -47.35 8.8 -51.85 6.25 -62.25 11.15 -93.8 23.2 -63.15 31.1 -92.0 46.5 -109.6 48.7 -115.9 22.25 -129.65 60.65 -153.45 48.7 -168.5 19.95 -172.55 3.6 -167.8 3.85 -166.4 19.95 -154.35 30.4 -148.05 27.15 -141.6 27.9 -150.6 41.3 -125.35 23.65 -133.75 16.25 -138.3 23.0 -139.05 10.7 -144.3 2.35 -177.95 -32.35 -181.1 -35.65 -164.3 -27.3 -141.9 -17.3 -133.75 -16.2 M142.25 -45.75 L148.2 -41.05 166.0 -23.6 146.05 -26.85 141.85 -4.15 140.8 -28.25 140.8 -39.35 142.25 -45.75 M132.5 -103.15 L115.0 -113.45 134.5 -96.05 132.5 -103.15 M55.55 -159.05 L153.9 -165.5 -4.4 -177.5 31.7 -164.5 26.4 -161.85 50.0 -161.75 55.55 -159.05 M100.85 -55.15 L117.65 -26.85 118.1 -45.9 119.75 -56.05 113.8 -62.4 100.85 -55.15 M188.2 -109.4 L195.75 -95.45 190.3 -92.1 198.65 -73.65 210.75 -72.95 195.95 -90.4 200.75 -108.15 174.1 -122.8 156.6 -137.65 181.35 -111.05 188.2 -109.4 M178.95 -133.2 L203.85 -120.0 194.7 -131.15 180.8 -156.15 182.35 -135.6 177.85 -135.5 178.95 -133.2 M190.45 -74.9 L178.8 -76.0 192.6 -70.5 190.45 -74.9 M180.65 94.0 L171.0 96.55 169.6 95.1 169.25 93.4 168.05 94.15 138.7 97.85 159.15 111.1 155.0 115.45 176.65 104.2 181.5 107.25 184.15 104.3 189.7 115.45 191.4 94.5 180.8 93.95 179.95 82.4 166.05 88.55 174.65 88.1 180.65 94.0 M11.45 14.9 L-17.0 13.45 15.6 21.85 11.45 14.9 M55.95 175.3 Q53.55 174.15 50.15 174.15 46.75 174.15 44.35 175.3 41.9 176.5 41.9 178.15 41.9 179.8 44.35 180.95 46.75 182.15 50.15 182.15 53.55 182.15 55.95 180.95 58.35 179.8 58.35 178.15 58.35 176.5 55.95 175.3 M-35.4 -189.4 L-57.0 -189.55 -0.3 -181.75 -35.4 -189.4 M-70.65 63.55 L-76.95 67.25 -95.9 77.45 -71.95 78.4 -77.5 92.2 -63.2 93.3 -59.45 99.65 -44.5 86.0 -22.6 67.0 -7.0 60.75 -29.3 63.55 -31.75 64.6 -37.2 62.55 -38.65 57.4 -49.75 52.9 -70.65 63.55 M-105.75 103.9 L-109.55 108.25 -100.1 112.65 -105.75 103.9 M-88.75 107.95 L-108.55 116.35 -77.6 110.6 -75.75 95.55 -88.4 100.05 -88.75 107.95 M-22.0 115.4 L-18.1 95.5 -35.95 110.8 -22.0 115.4" fill="#7f80ab" fill-rule="evenodd" stroke="none"/>
    <path d="M17.95 -209.45 L19.65 -210.0 38.65 -196.6 25.6 -188.25 Q22.6 -190.5 19.55 -192.7 L22.15 -193.05 12.45 -200.65 17.95 -209.45" fill="#3f4b92" fill-rule="evenodd" stroke="none"/>
    <path d="M124.55 -149.7 L149.05 -154.85 157.15 -139.55 133.05 -139.25 146.05 -129.75 150.45 -131.5 167.1 -116.3 183.9 -99.15 163.6 -103.75 154.05 -102.4 155.45 -105.95 85.05 -145.05 114.4 -151.5 124.55 -149.7 M109.25 -133.0 L135.4 -128.1 123.95 -139.5 96.65 -142.75 109.25 -133.0" fill="#b8b7cf" fill-rule="evenodd" stroke="none"/>
    <path d="M112.5 -170.85 L103.2 -175.05 117.65 -178.05 115.8 -177.5 112.5 -170.85" fill="#44509a" fill-rule="evenodd" stroke="none"/>
    <path d="M109.25 -133.0 L96.65 -142.75 123.95 -139.5 135.4 -128.1 109.25 -133.0" fill="#d7d6e6" fill-rule="evenodd" stroke="none"/>
    <path d="M-32.95 -238.0 L-38.15 -232.05 -23.4 -230.5 -67.05 -203.95 -54.9 -197.5 -110.65 -188.6 -87.5 -182.6 -74.35 -168.25 -82.2 -158.05 -70.4 -149.95 -61.8 -154.2 -26.85 -163.55 2.95 -158.55 23.0 -150.15 43.5 -140.4 58.3 -134.1 63.5 -140.35 77.4 -140.75 80.85 -133.95 92.45 -130.85 84.0 -126.5 89.4 -113.75 115.95 -120.4 109.3 -113.05 146.05 -85.7 136.6 -94.15 154.55 -95.25 159.05 -97.6 168.7 -94.05 178.4 -61.75 181.85 -63.45 194.5 -54.2 200.75 -61.15 214.35 -51.9 221.8 -32.9 237.6 -11.55 219.7 2.35 211.25 -23.05 199.0 -29.7 208.85 -13.9 202.35 -6.95 200.1 3.15 193.7 1.9 197.6 -6.0 197.6 -20.85 180.4 -19.25 171.2 -20.35 181.85 -16.2 184.35 0.05 172.35 -2.3 182.9 13.45 182.9 14.4 175.65 50.1 160.8 74.35 135.55 81.15 133.45 83.0 134.5 73.7 141.85 61.9 134.5 59.8 139.8 29.7 150.25 0.5 159.8 1.35 162.75 1.6 166.7 1.95 165.0 -7.85 Q165.0 -9.4 162.85 -10.45 160.7 -11.55 157.65 -11.55 L149.2 -0.45 136.95 25.55 128.2 19.05 129.1 -7.2 133.45 -17.1 123.9 -35.65 137.65 -40.3 140.8 -39.35 140.8 -28.25 141.85 -4.15 146.05 -26.85 166.0 -23.6 148.2 -41.05 142.25 -45.75 142.55 -47.2 141.8 -46.1 104.55 -74.55 103.05 -74.55 100.8 -79.6 68.85 -88.55 16.65 -101.5 51.3 -88.95 67.15 -77.4 65.6 -72.55 70.3 -76.45 91.3 -68.65 67.6 -60.75 46.4 -66.45 60.85 -58.6 40.4 -59.7 21.95 -55.15 6.6 -68.1 9.85 -74.55 -35.4 -107.05 -39.2 -93.3 -46.45 -96.85 -59.1 -113.55 -72.25 -109.35 -78.25 -114.1 -81.0 -115.65 -64.75 -117.8 -72.75 -124.65 -86.45 -143.2 -99.05 -148.3 -88.55 -159.9 -105.55 -163.6 -105.9 -174.7 -133.95 -171.0 -117.2 -165.95 -149.0 -137.35 -168.5 -123.75 -169.75 -122.5 -189.55 -111.7 -186.2 -91.35 -168.9 -106.05 -104.75 -102.1 -125.2 -89.9 -103.3 -94.55 -80.85 -97.7 -82.35 -93.85 -94.9 -91.95 -77.4 -86.7 -48.55 -86.65 -35.7 -77.3 -47.9 -74.2 -45.55 -56.45 -56.65 -59.85 -75.1 -61.7 -83.5 -57.55 -79.15 -53.4 -80.25 -50.15 -88.2 -45.9 -74.4 -42.2 -76.95 -41.25 -72.3 -41.6 -26.45 -29.2 -18.55 -28.3 8.25 -34.75 22.6 -21.0 13.95 -11.5 18.5 -7.75 0.9 -10.65 Q0.9 -12.95 -0.65 -14.55 -2.2 -16.2 -4.4 -16.2 L-13.8 -19.7 -45.35 -25.95 -27.85 -2.65 -41.85 -8.5 -66.65 3.3 -93.65 9.85 -92.85 17.0 -110.0 28.05 -114.3 14.4 -112.2 6.8 -119.25 4.75 -133.75 -16.2 -132.7 -16.2 -121.15 -10.65 -112.3 -5.1 -119.05 -16.2 -124.0 -37.9 -114.1 -17.75 -109.55 -20.55 -110.3 -42.8 -91.55 -56.25 -117.9 -44.65 Q-117.9 -47.05 -119.45 -48.75 -121.05 -50.5 -123.25 -50.5 L-140.1 -60.7 -135.9 -50.5 -149.55 -74.6 -166.1 -71.4 -165.9 -68.65 -173.7 -67.75 -178.75 -73.9 -178.25 -83.4 -200.3 -54.2 -202.35 -61.6 -182.4 -84.0 -188.5 -86.15 -202.4 -63.45 -206.8 -122.8 Q-191.7 -147.65 -169.65 -169.65 -111.3 -228.05 -32.95 -238.0 M132.5 -103.15 L134.5 -96.05 115.0 -113.45 132.5 -103.15 M171.3 31.55 L160.9 23.65 168.9 37.85 171.3 31.55" fill="#2f3a85" fill-rule="evenodd" stroke="none"/>
    <path d="M55.55 -159.05 L50.0 -161.75 26.4 -161.85 31.7 -164.5 -4.4 -177.5 153.9 -165.5 55.55 -159.05" fill="#404b93" fill-rule="evenodd" stroke="none"/>
    <path d="M70.3 -76.45 L65.6 -72.55 67.15 -77.4 70.3 -76.45" fill="#5d6198" fill-rule="evenodd" stroke="none"/>
    <path d="M-4.4 -16.2 Q-2.2 -16.2 -0.65 -14.55 0.9 -12.95 0.9 -10.65 L6.3 -0.35 -5.7 -5.8 -4.4 -16.2" fill="#484890" fill-rule="evenodd" stroke="none"/>
    <path d="M102.65 125.35 L100.9 140.9 113.45 163.65 118.1 161.1 141.75 125.9 150.8 138.6 135.0 171.05 156.0 162.9 119.3 191.5 79.25 214.6 88.15 197.5 87.75 186.9 69.45 165.05 55.6 165.5 30.55 175.9 52.45 186.25 42.3 190.0 53.2 198.45 57.4 194.4 77.5 189.0 79.3 193.2 67.9 194.2 70.15 209.0 65.1 218.7 63.95 211.4 43.1 207.95 50.85 220.9 -61.9 202.8 Q-80.8 202.8 -94.2 196.1 -107.55 189.4 -107.55 179.9 L-126.9 163.6 -136.95 154.35 -138.0 132.15 -88.55 126.55 -84.65 129.0 -66.3 127.35 -55.45 117.25 -55.8 129.35 -27.5 132.15 -16.0 115.9 -18.85 107.9 34.55 109.9 33.5 129.35 31.15 140.65 19.85 158.55 46.0 152.1 59.75 110.5 61.8 106.4 72.1 104.55 62.9 111.5 64.0 115.0 72.4 104.4 91.3 79.75 101.85 65.75 100.85 47.75 108.15 36.2 91.75 4.05 82.25 -17.1 91.35 -25.45 80.2 -40.85 60.85 -54.2 98.65 -47.2 108.5 -28.0 98.15 -36.4 84.35 -43.25 92.4 -24.05 102.7 9.75 110.25 22.4 110.3 44.05 105.05 67.25 99.15 74.6 72.4 127.35 86.95 132.65 87.8 124.2 92.4 109.9 118.7 64.45 100.2 119.95 102.65 125.35 M108.9 -25.35 L113.05 -16.1 121.7 -17.3 125.0 0.5 Q118.35 0.5 113.6 -7.05 108.9 -14.65 108.9 -25.35 M-13.4 186.35 L-8.6 181.25 -38.05 173.85 -13.4 186.35" fill="#b7b5cd" fill-rule="evenodd" stroke="none"/>
    <path d="M100.85 -55.15 L113.8 -62.4 119.75 -56.05 118.1 -45.9 117.65 -26.85 100.85 -55.15" fill="#404a94" fill-rule="evenodd" stroke="none"/>
    <path d="M108.5 -28.0 L108.9 -25.35 Q108.9 -14.65 113.6 -7.05 118.35 0.5 125.0 0.5 L123.35 9.05 120.3 56.1 133.95 39.55 118.7 64.45 92.4 109.9 87.8 124.2 86.95 132.65 72.4 127.35 99.15 74.6 105.05 67.25 110.3 44.05 110.25 22.4 102.7 9.75 92.4 -24.05 84.35 -43.25 98.15 -36.4 108.5 -28.0" fill="#d5d3e4" fill-rule="evenodd" stroke="none"/>
    <path d="M141.8 -46.1 L142.55 -47.2 142.25 -45.75 140.8 -39.35 137.65 -40.3 141.8 -46.1" fill="#4d5595" fill-rule="evenodd" stroke="none"/>
    <path d="M149.2 -0.45 L157.65 -11.55 159.8 1.35 150.25 0.5 149.95 -0.15 149.2 -0.45 M165.0 -7.85 L166.7 1.95 162.75 1.6 165.0 -7.85" fill="#656aa3" fill-rule="evenodd" stroke="none"/>
    <path d="M188.2 -109.4 L181.35 -111.05 156.6 -137.65 174.1 -122.8 200.75 -108.15 195.95 -90.4 210.75 -72.95 198.65 -73.65 190.3 -92.1 195.75 -95.45 188.2 -109.4" fill="#b0b0cb" fill-rule="evenodd" stroke="none"/>
    <path d="M178.95 -133.2 L177.85 -135.5 182.35 -135.6 180.8 -156.15 194.7 -131.15 203.85 -120.0 178.95 -133.2" fill="#3d53a6" fill-rule="evenodd" stroke="none"/>
    <path d="M220.85 -95.85 L213.65 -104.25 211.55 -114.65 Q215.55 -108.4 220.85 -95.85" fill="#4c5eac" fill-rule="evenodd" stroke="none"/>
    <path d="M232.05 -63.45 L224.3 -71.9 218.65 -84.8 231.1 -66.95 232.05 -63.45" fill="#485dac" fill-rule="evenodd" stroke="none"/>
    <path d="M190.45 -74.9 L192.6 -70.5 178.8 -76.0 190.45 -74.9" fill="#aeafc8" fill-rule="evenodd" stroke="none"/>
    <path d="M197.6 -6.0 L192.45 -13.7 197.6 -20.85 197.6 -6.0" fill="#515c9c" fill-rule="evenodd" stroke="none"/>
    <path d="M193.7 1.9 L184.35 0.05 181.85 -16.2 180.4 -19.25 197.6 -20.85 192.45 -13.7 197.6 -6.0 193.7 1.9" fill="#5d65a1" fill-rule="evenodd" stroke="none"/>
    <path d="M180.4 -19.25 L181.85 -16.2 171.2 -20.35 180.4 -19.25" fill="#6971a3" fill-rule="evenodd" stroke="none"/>
    <path d="M157.65 -11.55 Q160.7 -11.55 162.85 -10.45 165.0 -9.4 165.0 -7.85 L162.75 1.6 159.8 1.35 157.65 -11.55" fill="#8f90b4" fill-rule="evenodd" stroke="none"/>
    <path d="M238.6 -27.45 L231.3 -41.25 237.95 -33.15 238.6 -27.45" fill="#b0b1cd" fill-rule="evenodd" stroke="none"/>
    <path d="M236.25 44.25 L229.25 26.9 233.2 10.95 232.35 18.1 236.35 43.7 236.55 45.0 236.25 44.25" fill="#4859a8" fill-rule="evenodd" stroke="none"/>
    <path d="M237.6 -11.55 L233.85 4.4 230.9 -3.15 224.95 21.8 218.8 38.7 222.6 17.95 219.7 2.35 237.6 -11.55" fill="#4452a3" fill-rule="evenodd" stroke="none"/>
    <path d="M182.9 13.45 L192.35 14.2 182.9 14.4 182.9 13.45" fill="#3f499a" fill-rule="evenodd" stroke="none"/>
    <path d="M171.3 31.55 L168.9 37.85 160.9 23.65 171.3 31.55" fill="#686ea7" fill-rule="evenodd" stroke="none"/>
    <path d="M175.65 50.1 L181.7 68.6 181.1 71.9 157.85 79.3 160.8 74.35 175.65 50.1" fill="#bcbcd3" fill-rule="evenodd" stroke="none"/>
    <path d="M181.7 68.6 L198.5 49.8 202.25 80.2 195.7 72.7 185.6 83.6 181.1 71.9 181.7 68.6" fill="#404ea1" fill-rule="evenodd" stroke="none"/>
    <path d="M180.8 93.95 L191.4 94.5 189.7 115.45 184.15 104.3 181.5 107.25 176.65 104.2 155.0 115.45 159.15 111.1 138.7 97.85 168.05 94.15 169.25 93.4 169.6 95.1 171.0 96.55 180.65 94.0 180.8 93.95" fill="#3f4b9d" fill-rule="evenodd" stroke="none"/>
    <path d="M180.8 93.95 L180.65 94.0 174.65 88.1 166.05 88.55 179.95 82.4 180.8 93.95" fill="#b4b3ce" fill-rule="evenodd" stroke="none"/>
    <path d="M218.3 101.35 L202.8 101.35 202.8 84.55 219.6 84.55 219.6 98.5 218.3 101.35" fill="#4757a8" fill-rule="evenodd" stroke="none"/>
    <path d="M175.75 163.4 L171.0 153.85 182.75 153.85 180.7 157.95 175.75 163.4" fill="#acabc8" fill-rule="evenodd" stroke="none"/>
    <path d="M91.3 79.75 L86.85 43.65 97.25 21.9 100.85 47.75 101.85 65.75 91.3 79.75" fill="#3e4a92" fill-rule="evenodd" stroke="none"/>
    <path d="M135.55 81.15 L150.2 85.75 142.0 86.95 142.05 88.85 133.9 102.0 126.8 105.25 127.15 94.1 109.35 109.8 133.45 83.0 135.55 81.15 M126.75 105.45 L129.5 114.1 120.5 134.9 118.8 135.9 118.9 138.65 113.9 150.05 102.65 125.35 100.2 119.95 107.2 112.2 110.15 131.55 123.95 115.45 126.75 105.45" fill="#364295" fill-rule="evenodd" stroke="none"/>
    <path d="M134.5 59.8 L141.85 61.9 134.5 73.7 117.65 74.65 134.5 59.8" fill="#49549d" fill-rule="evenodd" stroke="none"/>
    <path d="M59.95 84.15 L74.25 47.75 78.75 57.95 85.95 48.55 88.2 58.9 79.8 58.9 78.7 77.0 61.8 106.4 59.75 110.5 45.05 146.95 26.15 153.45 38.75 145.1 40.8 128.9 52.3 103.75 59.95 103.75 59.95 84.15" fill="#3a458d" fill-rule="evenodd" stroke="none"/>
    <path d="M11.45 14.9 L15.6 21.85 -17.0 13.45 11.45 14.9" fill="#494b8f" fill-rule="evenodd" stroke="none"/>
    <path d="M31.4 57.05 L14.6 78.85 6.05 79.4 11.2 68.2 -5.35 39.85 31.4 57.05" fill="#d5d3e3" fill-rule="evenodd" stroke="none"/>
    <path d="M31.4 57.05 L-5.35 39.85 11.2 68.2 6.05 79.4 14.6 78.85 31.4 57.05 M-153.45 48.7 L-129.65 60.65 -115.9 22.25 -109.6 48.7 -92.0 46.5 -63.15 31.1 -93.8 23.2 -62.25 11.15 -51.85 6.25 -47.35 8.8 -53.25 22.45 -44.35 25.5 -38.45 19.95 -39.95 12.95 -7.55 19.95 14.75 40.25 50.35 46.85 54.55 66.3 17.75 83.55 14.05 97.85 -11.25 95.95 -13.95 80.55 -6.5 79.3 5.3 63.25 -60.85 44.9 -65.55 47.0 -66.3 52.1 -88.55 67.25 -99.6 66.35 -113.35 77.4 -152.65 50.3 -159.0 45.9 -153.45 48.7" fill="#b8b5ca" fill-rule="evenodd" stroke="none"/>
    <path d="M52.3 103.75 L36.3 103.75 36.3 80.1 59.95 80.1 59.95 84.15 59.95 103.75 52.3 103.75" fill="#3b468c" fill-rule="evenodd" stroke="none"/>
    <path d="M72.1 104.55 L72.4 104.4 64.0 115.0 62.9 111.5 72.1 104.55" fill="#d1d0e0" fill-rule="evenodd" stroke="none"/>
    <path d="M55.95 175.3 Q58.35 176.5 58.35 178.15 58.35 179.8 55.95 180.95 53.55 182.15 50.15 182.15 46.75 182.15 44.35 180.95 41.9 179.8 41.9 178.15 41.9 176.5 44.35 175.3 46.75 174.15 50.15 174.15 53.55 174.15 55.95 175.3" fill="#394593" fill-rule="evenodd" stroke="none"/>
    <path d="M126.8 105.25 L126.75 105.45 123.95 115.45 110.15 131.55 107.2 112.2 109.35 109.8 127.15 94.1 126.8 105.25" fill="#10278c" fill-rule="evenodd" stroke="none"/>
    <path d="M120.5 134.9 L126.9 131.15 119.1 144.8 118.9 138.65 118.8 135.9 120.5 134.9" fill="#b1b0c9" fill-rule="evenodd" stroke="none"/>
    <path d="M-206.8 -122.8 L-202.4 -63.45 -202.35 -61.6 -200.3 -54.2 -178.25 -83.4 -178.75 -73.9 -173.7 -67.75 -165.9 -68.65 -166.1 -71.4 -149.55 -74.6 -135.9 -50.5 -123.25 -50.5 Q-121.05 -50.5 -119.45 -48.75 -117.9 -47.05 -117.9 -44.65 L-127.35 -39.8 -124.0 -37.9 -119.05 -16.2 -122.55 -22.0 -121.9 -17.0 -121.15 -10.65 -132.7 -16.2 -144.3 -21.75 -178.7 -52.8 -184.3 -58.3 -199.65 -42.55 -207.4 -37.5 -219.95 -27.85 -208.2 -17.75 -165.75 -9.65 -171.9 -7.2 -176.9 -9.7 -189.45 -3.35 -186.3 0.95 -205.65 8.4 -200.0 15.7 -210.55 28.3 -238.3 26.5 -230.8 40.25 -235.85 46.55 Q-240.0 24.1 -240.0 0.0 -240.0 -68.25 -206.8 -122.8" fill="#1a1e60" fill-rule="evenodd" stroke="none"/>
    <path d="M-48.55 -86.65 L-77.4 -86.7 -94.9 -91.95 -82.35 -93.85 -80.85 -97.7 -103.3 -94.55 -125.2 -89.9 -104.75 -102.1 -168.9 -106.05 -186.2 -91.35 -189.55 -111.7 -169.75 -122.5 -176.2 -116.2 -161.2 -111.2 -153.6 -118.2 -148.9 -111.7 -103.3 -101.9 -78.25 -114.1 -72.25 -109.35 -59.1 -113.55 -46.45 -96.85 -54.3 -103.9 -65.65 -100.25 -48.55 -86.65 M-149.0 -137.35 L-117.2 -165.95 -133.95 -171.0 -105.9 -174.7 -105.55 -163.6 -88.55 -159.9 -99.05 -148.3 -86.45 -143.2 -72.75 -124.65 -95.9 -143.15 -112.2 -138.55 -133.95 -121.1 -117.35 -137.55 -122.2 -147.25 -149.0 -137.35" fill="#6a6992" fill-rule="evenodd" stroke="none"/>
    <path d="M-169.75 -122.5 L-168.5 -123.75 -149.0 -137.35 -122.2 -147.25 -117.35 -137.55 -133.95 -121.1 -112.2 -138.55 -95.9 -143.15 -72.75 -124.65 -64.75 -117.8 -81.0 -115.65 -78.25 -114.1 -103.3 -101.9 -148.9 -111.7 -153.6 -118.2 -161.2 -111.2 -176.2 -116.2 -169.75 -122.5 M-98.0 -130.2 L-99.8 -124.45 -108.1 -131.75 -123.25 -116.3 -89.1 -108.95 -81.45 -124.8 -101.1 -137.8 -98.0 -130.2" fill="#928ea8" fill-rule="evenodd" stroke="none"/>
    <path d="M-202.4 -63.45 L-188.5 -86.15 -182.4 -84.0 -202.35 -61.6 -202.4 -63.45" fill="#716d8c" fill-rule="evenodd" stroke="none"/>
    <path d="M-132.7 -16.2 L-133.75 -16.2 -141.9 -17.3 -164.3 -27.3 -181.1 -35.65 -177.95 -32.35 -192.65 -37.85 -144.3 2.35 -139.05 10.7 -139.05 26.9 -157.9 3.65 -152.55 4.0 -154.35 2.25 -179.4 2.35 -185.35 8.25 -173.5 42.25 -158.25 73.05 -175.9 45.55 -187.5 28.85 -204.0 26.35 -198.05 35.75 -201.75 45.05 -179.0 57.05 -175.55 76.85 -139.5 101.5 -171.65 100.6 -201.25 83.4 -209.4 88.9 -193.9 128.6 -181.9 121.75 -165.95 135.85 -181.1 149.55 -176.75 149.6 -177.65 161.35 Q-223.9 111.05 -235.85 46.55 L-230.8 40.25 -238.3 26.5 -210.55 28.3 -200.0 15.7 -205.65 8.4 -186.3 0.95 -189.45 -3.35 -176.9 -9.7 -171.9 -7.2 -165.75 -9.65 -208.2 -17.75 -219.95 -27.85 -207.4 -37.5 -199.65 -42.55 -184.3 -58.3 -178.7 -52.8 -144.3 -21.75 -132.7 -16.2 M-171.3 168.0 L-40.2 236.95 Q-114.05 225.3 -169.65 169.65 L-171.3 168.0 M-181.8 71.7 L-182.75 63.25 -195.85 65.4 -181.8 71.7" fill="#444276" fill-rule="evenodd" stroke="none"/>
    <path d="M-144.3 2.35 L-192.65 -37.85 -177.95 -32.35 -144.3 2.35" fill="#6a6c96" fill-rule="evenodd" stroke="none"/>
    <path d="M-35.4 -189.4 L-0.3 -181.75 -57.0 -189.55 -35.4 -189.4" fill="#4b5190" fill-rule="evenodd" stroke="none"/>
    <path d="M-98.0 -130.2 L-101.1 -137.8 -81.45 -124.8 -89.1 -108.95 -123.25 -116.3 -108.1 -131.75 -99.8 -124.45 -98.0 -130.2" fill="#b3afc3" fill-rule="evenodd" stroke="none"/>
    <path d="M-135.9 -50.5 L-140.1 -60.7 -123.25 -50.5 -135.9 -50.5" fill="#696b93" fill-rule="evenodd" stroke="none"/>
    <path d="M-117.9 -44.65 L-91.55 -56.25 -110.3 -42.8 -109.55 -20.55 -114.1 -17.75 -124.0 -37.9 -127.35 -39.8 -117.9 -44.65" fill="#6f7197" fill-rule="evenodd" stroke="none"/>
    <path d="M-121.9 -17.0 L-122.55 -22.0 -119.05 -16.2 -121.9 -17.0" fill="#303d86" fill-rule="evenodd" stroke="none"/>
    <path d="M-119.05 -16.2 L-112.3 -5.1 -121.15 -10.65 -121.9 -17.0 -119.05 -16.2" fill="#707394" fill-rule="evenodd" stroke="none"/>
    <path d="M-72.3 -41.6 L-76.95 -41.25 -74.4 -42.2 -42.25 -54.2 -38.95 -64.45 -32.8 -66.8 -18.55 -78.25 -23.3 -95.0 -4.4 -78.75 1.7 -75.85 -4.4 -69.95 3.1 -47.05 -19.1 -45.85 -72.3 -41.6" fill="#b9b6cc" fill-rule="evenodd" stroke="none"/>
    <path d="M-70.65 63.55 L-47.5 57.05 -76.95 67.25 -70.65 63.55" fill="#232a7b" fill-rule="evenodd" stroke="none"/>
    <path d="M-76.95 67.25 L-47.5 57.05 -70.65 63.55 -49.75 52.9 -38.65 57.4 -37.2 62.55 -31.75 64.6 -29.3 63.55 -7.0 60.75 -22.6 67.0 -44.5 86.0 -59.45 99.65 -63.2 93.3 -77.5 92.2 -71.95 78.4 -95.9 77.45 -76.95 67.25" fill="#474c88" fill-rule="evenodd" stroke="none"/>
    <path d="M-61.9 202.8 L6.05 239.9 0.0 240.0 Q-20.75 240.0 -40.2 236.95 L-171.3 168.0 -177.65 161.35 -176.75 149.6 -181.1 149.55 -165.95 135.85 -181.9 121.75 -193.9 128.6 -209.4 88.9 -201.25 83.4 -171.65 100.6 -139.5 101.5 -175.55 76.85 -179.0 57.05 -201.75 45.05 -198.05 35.75 -204.0 26.35 -187.5 28.85 -175.9 45.55 -158.25 73.05 -173.5 42.25 -185.35 8.25 -179.4 2.35 -154.35 2.25 -152.55 4.0 -157.9 3.65 -139.05 26.9 -139.05 10.7 -138.3 23.0 -138.0 28.75 -141.6 27.9 -148.05 27.15 -154.35 30.4 -166.4 19.95 -167.8 3.85 -172.55 3.6 -168.5 19.95 -153.45 48.7 -159.0 45.9 -152.65 50.3 -138.5 77.4 -114.7 89.9 -107.75 100.7 -131.7 98.1 -113.6 107.8 -121.15 111.7 -157.9 109.55 -166.75 120.4 -154.05 122.75 -155.25 139.2 -165.4 141.8 -168.9 149.15 -107.55 179.9 Q-107.55 189.4 -94.2 196.1 -80.8 202.8 -61.9 202.8 M-105.75 103.9 L-100.1 112.65 -109.55 108.25 -105.75 103.9" fill="#6b6891" fill-rule="evenodd" stroke="none"/>
    <path d="M-138.3 23.0 L-133.75 16.25 -125.35 23.65 -150.6 41.3 -141.6 27.9 -138.0 28.75 -138.3 23.0" fill="#b3b0c3" fill-rule="evenodd" stroke="none"/>
    <path d="M-88.75 107.95 L-88.4 100.05 -75.75 95.55 -77.6 110.6 -108.55 116.35 -88.75 107.95" fill="#b0adc2" fill-rule="evenodd" stroke="none"/>
    <path d="M-22.0 115.4 L-35.95 110.8 -18.1 95.5 -22.0 115.4" fill="#373e86" fill-rule="evenodd" stroke="none"/>
    <path d="M-13.4 186.35 L-38.05 173.85 -8.6 181.25 -13.4 186.35" fill="#cbc9de" fill-rule="evenodd" stroke="none"/>
    <path d="M-181.8 71.7 L-195.85 65.4 -182.75 63.25 -181.8 71.7" fill="#636088" fill-rule="evenodd" stroke="none"/>
    <path d="M169.7 -169.7 Q240.0 -99.4 240.05 0.0 240.0 99.35 169.7 169.7 99.4 240.0 0.05 240.0 -99.35 240.0 -169.65 169.7 -240.0 99.35 -240.0 0.0 -240.0 -99.4 -169.65 -169.7 -99.35 -240.0 0.05 -240.0 99.4 -240.0 169.7 -169.7" fill="url(#gradient0)" fill-rule="evenodd" stroke="none"/>
  </g>
  <defs>
    <radialGradient cx="0" cy="0" gradientTransform="matrix(0.2957, 0.0, 0.0, 0.2957, 0.0, 0.0)" gradientUnits="userSpaceOnUse" id="gradient0" r="819.2" spreadMethod="pad">
      <stop offset="0.37254901960784315" stop-color="#000000" stop-opacity="0.0"/>
      <stop offset="1.0" stop-color="#000000"/>
    </radialGradient>
  </defs>
</svg>
