<?xml version="1.0" encoding="UTF-8" standalone="no"?>
<svg xmlns:ffdec="https://www.free-decompiler.com/flash" xmlns:xlink="http://www.w3.org/1999/xlink" ffdec:objectType="shape" height="364.2px" width="264.35px" xmlns="http://www.w3.org/2000/svg">
  <g transform="matrix(1.0, 0.0, 0.0, 1.0, 132.2, 182.1)">
    <path d="M-55.1 -54.35 L-54.55 -48.8 -55.1 -54.35 M-57.85 -54.3 L-57.3 -48.7 -57.85 -54.3 M-66.3 -53.65 L-65.75 -48.05 -66.3 -53.65 M-69.15 -53.6 L-68.65 -48.05 -69.15 -53.6 M-60.55 -54.15 L-59.95 -48.6 -60.55 -54.15 M-63.3 -54.1 L-62.7 -48.55 -63.3 -54.1 M-49.9 -56.95 L-49.15 -45.95 -78.2 -44.85 -79.8 -54.8 -49.9 -56.95 M-72.0 -53.6 L-71.45 -48.05 -72.0 -53.6" fill="url(#gradient0)" fill-rule="evenodd" stroke="none"/>
    <path d="M-46.4 16.4 Q-48.85 18.9 -44.75 36.55 L-57.65 37.4 -109.4 3.3 -108.15 -9.75 -131.7 -40.75 -126.95 -51.4 -79.8 -54.8 -78.2 -44.85 -49.15 -45.95 Q-48.5 -38.3 -47.15 -29.6 L-47.95 -28.1 -46.25 16.15 -46.4 16.4" fill="url(#gradient1)" fill-rule="evenodd" stroke="none"/>
    <path d="M74.1 -69.3 L70.65 -76.95 122.3 -79.4 124.05 -76.35 124.4 -75.7 106.25 -73.9 107.35 -69.15 79.45 -66.5 75.55 -66.15 74.1 -69.3 M-126.95 -51.4 L-119.45 -68.3 -66.95 -72.55 -63.95 -60.85 -50.05 -61.7 -49.9 -56.95 -79.8 -54.8 -126.95 -51.4" fill="#eeeeee" fill-rule="evenodd" stroke="none"/>
    <path d="M124.45 -75.8 L131.65 -65.5 112.85 -42.75 112.2 -36.45 79.35 4.25 Q81.9 15.45 80.95 16.7 80.25 17.9 78.8 15.7 75.95 -7.35 70.75 -4.2 L70.35 -6.7 77.7 -8.1 77.45 -20.55 77.55 -20.6 Q78.6 -24.55 66.3 -51.9 L66.25 -52.05 66.05 -52.55 63.35 -58.35 81.85 -60.55 79.45 -66.5 107.35 -69.15 106.25 -73.9 124.4 -75.7 124.45 -75.8" fill="url(#gradient2)" fill-rule="evenodd" stroke="none"/>
    <path d="M12.4 -167.85 L15.3 -181.6 19.05 -171.05 18.35 -159.5 12.4 -167.85" fill="#00ccff" fill-rule="evenodd" stroke="none"/>
    <path d="M2.8 -118.3 L12.4 -167.85 18.35 -159.5 12.95 -64.8 12.9 -64.8 8.35 -72.35 Q6.4 -80.35 5.15 -89.8 L4.55 -95.1 Q3.3 -105.85 2.8 -118.3" fill="url(#gradient3)" fill-rule="evenodd" stroke="none"/>
    <path d="M15.3 -181.6 L20.8 -171.8 16.7 -92.25 16.6 -88.5 16.4 -83.6 16.05 -77.65 15.15 -62.85 Q13.5 -61.65 13.1 -63.85 L12.95 -64.8 18.35 -159.5 19.05 -171.05 15.3 -181.6" fill="#ffffff" fill-rule="evenodd" stroke="none"/>
    <path d="M-46.5 -91.15 Q-36.55 -114.85 -22.9 -103.45 L-21.0 -101.8 Q-24.55 -104.4 -29.15 -103.35 -41.15 -100.95 -46.35 -91.1 L-46.5 -91.15 M17.55 -93.0 L17.55 -93.05 Q20.55 -96.6 23.3 -98.85 L25.55 -100.55 Q27.5 -101.85 29.35 -102.45 34.55 -104.2 38.45 -100.0 28.5 -102.6 18.9 -88.75 L17.55 -93.0 M30.0 -100.1 L29.35 -102.45 30.0 -100.1" fill="#4d323e" fill-rule="evenodd" stroke="none"/>
    <path d="M16.7 -92.25 L17.55 -93.0 18.9 -88.75 19.15 -87.95 16.6 -88.5 16.7 -92.25" fill="#0066ff" fill-rule="evenodd" stroke="none"/>
    <path d="M-15.3 -87.35 L-3.05 -88.0 -3.45 -86.2 -3.2 -82.0 -12.2 -82.55 -11.05 -67.8 -11.15 -67.75 -15.3 -87.35 M19.15 -87.95 L19.95 -85.55 20.65 -83.25 16.4 -83.6 16.6 -88.5 19.15 -87.95 M-29.15 -82.95 L-27.8 -86.05 -27.05 -77.55 -28.85 -75.4 -29.15 -82.95 M-35.3 -82.95 L-33.45 -80.55 -33.95 -71.95 -35.3 -82.95" fill="#cccccc" fill-rule="evenodd" stroke="none"/>
    <path d="M38.45 -100.0 L38.55 -99.85 39.2 -99.15 38.1 -99.15 34.85 -98.15 30.35 -96.45 Q28.45 -95.8 26.05 -93.35 23.45 -90.65 19.95 -85.55 L19.15 -87.95 18.9 -88.75 Q28.5 -102.6 38.45 -100.0" fill="url(#gradient4)" fill-rule="evenodd" stroke="none"/>
    <path d="M16.4 -83.6 L20.65 -83.25 22.6 -77.2 28.8 -58.3 31.45 -50.0 28.85 -51.05 16.05 -77.65 16.4 -83.6" fill="url(#gradient5)" fill-rule="evenodd" stroke="none"/>
    <path d="M20.65 -83.25 L19.95 -85.55 Q23.45 -90.65 26.05 -93.35 26.4 -86.2 22.85 -77.75 L22.6 -77.2 20.65 -83.25" fill="url(#gradient6)" fill-rule="evenodd" stroke="none"/>
    <path d="M39.2 -99.15 Q41.7 -98.6 45.2 -92.8 L45.95 -91.3 Q30.75 -93.6 22.85 -77.75 26.4 -86.2 26.05 -93.35 28.45 -95.8 30.35 -96.45 L34.85 -98.15 38.1 -99.15 39.2 -99.15" fill="url(#gradient7)" fill-rule="evenodd" stroke="none"/>
    <path d="M45.95 -91.3 L56.2 -72.35 Q43.0 -83.15 28.8 -58.3 L22.6 -77.2 22.85 -77.75 Q30.75 -93.6 45.95 -91.3 M45.2 -85.95 L44.4 -88.6 40.05 -87.45 40.7 -84.45 41.9 -79.05 46.9 -80.6 45.2 -85.95 M39.05 -84.25 L38.55 -87.0 33.6 -84.7 34.3 -82.05 36.0 -76.3 40.35 -78.35 39.05 -84.25" fill="url(#gradient8)" fill-rule="evenodd" stroke="none"/>
    <path d="M40.7 -84.45 L40.05 -87.45 44.4 -88.6 45.2 -85.95 40.7 -84.45 M34.3 -82.05 L33.6 -84.7 38.55 -87.0 39.05 -84.25 34.3 -82.05 M-20.9 -83.5 L-23.65 -83.3 -25.7 -86.1 -19.1 -85.75 -20.9 -83.5 M-27.8 -86.05 L-29.15 -82.95 -33.45 -80.55 -35.3 -82.95 -27.8 -86.05" fill="#333333" fill-rule="evenodd" stroke="none"/>
    <path d="M45.2 -85.95 L46.9 -80.6 41.9 -79.05 40.7 -84.45 45.2 -85.95 M-23.65 -83.3 L-20.9 -83.5 -19.65 -76.35 -24.8 -76.2 -23.65 -83.3 M11.05 -34.4 L11.55 -34.8 11.85 -25.4 10.0 -19.6 8.85 -32.45 11.05 -34.4" fill="#999999" fill-rule="evenodd" stroke="none"/>
    <path d="M-48.9 -84.45 L-48.8 -84.45 -47.7 -88.1 -47.6 -88.45 -46.35 -91.1 Q-41.15 -100.95 -29.15 -103.35 -24.55 -104.4 -21.0 -101.8 L-19.2 -100.05 Q-38.3 -101.3 -48.65 -81.9 L-48.9 -84.45" fill="url(#gradient9)" fill-rule="evenodd" stroke="none"/>
    <path d="M-47.6 -88.45 L-46.65 -90.85 -46.5 -91.15 -46.35 -91.1 -47.6 -88.45" fill="#5a2317" fill-rule="evenodd" stroke="none"/>
    <path d="M-19.2 -100.05 L-17.55 -97.8 -15.45 -88.1 Q-34.25 -97.0 -47.55 -71.5 L-48.65 -81.9 Q-38.3 -101.3 -19.2 -100.05" fill="url(#gradient10)" fill-rule="evenodd" stroke="none"/>
    <path d="M-23.65 -83.3 L-24.8 -76.2 -25.7 -86.1 -23.65 -83.3 M-19.65 -76.35 L-20.9 -83.5 -19.1 -85.75 -18.3 -78.05 -19.65 -76.35" fill="#666666" fill-rule="evenodd" stroke="none"/>
    <path d="M-15.45 -88.1 L-15.3 -87.35 -11.15 -67.75 Q-29.85 -83.05 -45.5 -50.9 L-47.55 -71.5 Q-34.25 -97.0 -15.45 -88.1 M-24.8 -76.2 L-19.65 -76.35 -18.3 -78.05 -19.1 -85.75 -25.7 -86.1 -24.8 -76.2 M-27.8 -86.05 L-35.3 -82.95 -33.95 -71.95 -29.0 -75.15 -28.85 -75.4 -27.05 -77.55 -27.8 -86.05" fill="url(#gradient11)" fill-rule="evenodd" stroke="none"/>
    <path d="M-3.05 -88.0 L-2.7 -89.95 0.2 -85.8 3.1 -81.05 8.35 -72.35 12.9 -64.8 12.95 -64.8 13.1 -63.85 Q13.5 -61.65 15.15 -62.85 L16.05 -77.65 28.85 -51.05 26.95 -51.75 Q21.7 -53.4 17.15 -52.95 11.85 -52.45 7.45 -49.2 L5.9 -55.55 6.75 -48.6 3.95 -46.0 Q1.15 -42.95 -1.15 -38.55 L-3.2 -82.0 -3.45 -86.2 -3.05 -88.0" fill="url(#gradient12)" fill-rule="evenodd" stroke="none"/>
    <path d="M0.2 -85.8 Q1.6 -90.95 4.55 -95.1 L5.15 -89.8 Q4.65 -85.3 3.1 -81.05 L0.2 -85.8" fill="#77819f" fill-rule="evenodd" stroke="none"/>
    <path d="M-2.7 -89.95 L2.8 -118.3 Q3.3 -105.85 4.55 -95.1 1.6 -90.95 0.2 -85.8 L-2.7 -89.95" fill="url(#gradient13)" fill-rule="evenodd" stroke="none"/>
    <path d="M5.15 -89.8 Q6.4 -80.35 8.35 -72.35 L3.1 -81.05 Q4.65 -85.3 5.15 -89.8" fill="url(#gradient14)" fill-rule="evenodd" stroke="none"/>
    <path d="M39.05 -84.25 L40.35 -78.35 36.0 -76.3 34.3 -82.05 39.05 -84.25 M-33.45 -80.55 L-29.15 -82.95 -28.85 -75.4 -29.0 -75.15 -33.95 -71.95 -33.45 -80.55" fill="#dddddd" fill-rule="evenodd" stroke="none"/>
    <path d="M-10.95 -66.95 L-8.4 -54.85 Q-32.75 -68.5 -43.9 -35.1 L-45.5 -50.9 Q-29.85 -83.05 -11.15 -67.75 L-10.95 -66.95" fill="url(#gradient15)" fill-rule="evenodd" stroke="none"/>
    <path d="M-10.95 -66.95 L-11.05 -67.8 -12.2 -82.55 -3.2 -82.0 -1.15 -38.55 Q-2.6 -36.0 -3.8 -32.9 L-5.7 -42.9 -5.8 -43.35 -5.9 -43.3 -8.4 -54.85 -10.95 -66.95" fill="url(#gradient16)" fill-rule="evenodd" stroke="none"/>
    <path d="M6.75 -48.6 L7.45 -49.2 Q11.85 -52.45 17.15 -52.95 L18.65 -45.95 Q13.5 -45.45 9.25 -42.1 L7.75 -40.8 5.7 -38.55 3.95 -46.0 6.75 -48.6" fill="url(#gradient17)" fill-rule="evenodd" stroke="none"/>
    <path d="M7.45 -49.2 L6.75 -48.6 5.9 -55.55 7.45 -49.2 M7.75 -40.8 L9.25 -42.1 11.05 -34.4 8.85 -32.45 7.75 -40.8" fill="#ff8176" fill-rule="evenodd" stroke="none"/>
    <path d="M-5.7 -42.9 L-3.8 -32.9 -2.05 -23.95 0.95 -8.8 -37.95 -2.65 -42.05 -38.45 -37.65 -39.05 -6.15 -43.3 -5.9 -43.3 -5.7 -42.9" fill="url(#gradient18)" fill-rule="evenodd" stroke="none"/>
    <path d="M-8.4 -54.85 L-5.9 -43.3 -6.15 -43.3 Q-22.2 -58.0 -37.65 -39.05 L-42.05 -38.45 -43.9 -35.1 Q-32.75 -68.5 -8.4 -54.85" fill="url(#gradient19)" fill-rule="evenodd" stroke="none"/>
    <path d="M33.35 121.3 Q14.2 95.45 -2.55 33.3 -1.75 33.05 -1.0 32.45 0.1 31.6 0.45 30.4 L0.6 29.2 0.55 29.1 0.5 28.95 0.5 28.9 -3.55 12.8 -0.55 12.95 -1.2 7.9 1.05 -8.8 0.95 -8.8 -2.05 -23.95 Q1.2 -33.2 5.7 -38.55 L7.75 -40.8 8.85 -32.45 7.1 -30.75 4.4 7.45 12.3 38.45 12.45 38.65 Q16.15 43.25 21.85 46.3 L41.95 101.9 42.65 103.9 45.15 110.95 47.8 117.4 47.55 117.65 Q41.5 120.35 40.7 129.7 36.95 126.15 33.35 121.3 M27.5 71.5 Q25.2 59.95 16.7 47.4 15.75 51.0 24.3 75.15 26.25 74.75 27.5 71.5" fill="url(#gradient20)" fill-rule="evenodd" stroke="none"/>
    <path d="M9.25 -42.1 Q13.5 -45.45 18.65 -45.95 L18.8 -45.95 Q23.1 -46.4 28.1 -44.8 L33.9 -42.4 34.6 -40.3 40.8 -21.8 30.05 -38.05 Q21.5 -42.8 11.55 -34.8 L11.05 -34.4 9.25 -42.1" fill="url(#gradient21)" fill-rule="evenodd" stroke="none"/>
    <path d="M-3.8 -32.9 Q-2.6 -36.0 -1.15 -38.55 1.15 -42.95 3.95 -46.0 L5.7 -38.55 Q1.2 -33.2 -2.05 -23.95 L-3.8 -32.9" fill="url(#gradient22)" fill-rule="evenodd" stroke="none"/>
    <path d="M-43.9 -35.1 L-42.05 -38.45 -37.95 -2.65 -46.0 15.6 -46.25 16.15 -47.95 -28.1 -47.15 -29.6 -43.9 -35.1" fill="url(#gradient23)" fill-rule="evenodd" stroke="none"/>
    <path d="M-46.0 15.6 L-37.95 -2.65 0.95 -8.8 1.05 -8.8 -1.2 7.9 -45.95 16.1 -46.0 15.6" fill="url(#gradient24)" fill-rule="evenodd" stroke="none"/>
    <path d="M-46.25 16.15 L-46.25 16.3 -46.4 16.4 -46.25 16.15" fill="url(#gradient25)" fill-rule="evenodd" stroke="none"/>
    <path d="M62.4 18.95 Q60.85 17.95 59.95 19.65 L60.0 18.4 59.7 17.8 53.85 -0.15 Q51.8 -1.95 49.7 2.75 L48.45 -1.45 62.05 -4.7 Q54.55 -1.35 58.55 9.8 60.2 14.5 62.4 18.95 M-30.1 26.7 L-31.9 27.05 Q-32.4 22.4 -34.45 17.25 -43.6 16.75 -43.95 24.95 L-46.4 16.4 -46.25 16.3 -45.95 16.1 -1.2 7.9 -0.55 12.95 -3.55 12.8 -3.7 12.25 Q-7.0 11.95 -8.95 15.4 L-9.0 15.4 Q-9.95 12.15 -11.45 12.0 L-19.95 12.55 Q-26.9 13.25 -30.1 26.7" fill="#111111" fill-rule="evenodd" stroke="none"/>
    <path d="M8.85 -32.45 L10.0 -19.6 Q3.65 3.3 11.9 27.75 L11.95 27.8 Q16.0 38.95 25.2 45.3 L25.25 45.4 25.3 45.45 Q39.3 35.85 50.05 40.8 L50.1 40.85 50.2 40.9 Q59.05 73.25 58.15 117.15 51.8 115.9 47.7 117.65 L47.8 117.4 Q45.15 88.7 34.8 67.05 37.1 86.3 41.95 101.9 L21.85 46.3 Q16.15 43.25 12.45 38.65 L12.3 38.45 4.4 7.45 7.1 -30.75 8.85 -32.45" fill="url(#gradient26)" fill-rule="evenodd" stroke="none"/>
    <path d="M-5.7 32.35 L-5.65 33.0 Q-5.1 40.25 -7.65 46.65 -10.3 53.25 -15.0 54.7 -19.75 56.15 -22.15 51.75 L-30.1 26.7 Q-26.9 13.25 -19.95 12.55 L-11.45 12.0 Q-9.95 12.15 -9.0 15.4 L-8.95 15.55 -8.95 15.65 -5.85 31.15 -5.85 31.9 -5.7 32.35 M-17.4 40.8 Q-19.8 42.55 -20.8 45.4 -21.8 48.25 -20.8 50.45 -19.8 52.6 -17.35 52.95 -14.95 53.2 -12.55 51.45 -10.15 49.75 -9.15 46.95 -8.15 44.1 -9.15 41.95 -10.15 39.75 -12.55 39.4 -15.0 39.05 -17.4 40.8" fill="url(#gradient27)" fill-rule="evenodd" stroke="none"/>
    <path d="M-3.55 12.8 L0.5 28.9 0.2 28.3 Q-0.5 27.55 -1.75 27.65 -3.1 27.7 -4.2 28.6 -5.4 29.55 -5.75 30.8 L-5.85 31.15 -8.95 15.65 -8.95 15.55 -8.95 15.4 Q-7.0 11.95 -3.7 12.25 L-3.55 12.8" fill="url(#gradient28)" fill-rule="evenodd" stroke="none"/>
    <path d="M-37.65 -39.05 Q-22.2 -58.0 -6.15 -43.3 L-37.65 -39.05" fill="url(#gradient29)" fill-rule="evenodd" stroke="none"/>
    <path d="M58.4 -68.2 L74.1 -69.3 75.55 -66.15 79.45 -66.5 81.85 -60.55 63.35 -58.35 63.25 -58.55 63.2 -58.8 62.1 -60.95 58.25 -68.0 58.4 -68.2 M72.6 -66.5 L73.1 -62.7 72.6 -66.5 M70.6 -66.35 L71.15 -62.5 70.6 -66.35 M64.4 -65.7 L64.9 -61.8 64.4 -65.7 M66.45 -65.8 L66.95 -62.0 66.45 -65.8 M68.45 -65.9 L68.95 -62.1 68.45 -65.9" fill="url(#gradient30)" fill-rule="evenodd" stroke="none"/>
    <path d="M56.2 -72.35 L58.4 -68.2 58.1 -68.2 58.25 -68.0 62.1 -60.95 63.2 -58.8 63.1 -58.6 Q45.55 -67.3 33.35 -44.15 L31.45 -50.0 28.8 -58.3 Q43.0 -83.15 56.2 -72.35" fill="url(#gradient31)" fill-rule="evenodd" stroke="none"/>
    <path d="M34.6 -40.3 L33.9 -42.4 33.35 -44.15 Q45.55 -67.3 63.1 -58.6 L63.35 -58.35 66.05 -52.55 Q51.7 -61.45 40.3 -48.3 L38.3 -48.05 34.6 -40.3" fill="url(#gradient32)" fill-rule="evenodd" stroke="none"/>
    <path d="M66.25 -52.05 L66.3 -51.9 Q78.6 -24.55 77.55 -20.6 L77.45 -20.6 50.6 -16.55 50.55 -16.55 38.3 -48.05 40.3 -48.3 66.25 -52.05" fill="url(#gradient33)" fill-rule="evenodd" stroke="none"/>
    <path d="M66.05 -52.55 L66.25 -52.05 40.3 -48.3 Q51.7 -61.45 66.05 -52.55" fill="url(#gradient34)" fill-rule="evenodd" stroke="none"/>
    <path d="M33.9 -42.4 L28.1 -44.8 26.95 -51.75 28.85 -51.05 31.45 -50.0 33.35 -44.15 33.9 -42.4" fill="url(#gradient35)" fill-rule="evenodd" stroke="none"/>
    <path d="M18.65 -45.95 L17.15 -52.95 Q21.7 -53.4 26.95 -51.75 L28.1 -44.8 Q23.1 -46.4 18.8 -45.95 L18.65 -45.95" fill="url(#gradient36)" fill-rule="evenodd" stroke="none"/>
    <path d="M50.05 40.8 Q39.3 35.85 25.3 45.45 L25.25 45.4 25.2 45.3 Q9.5 9.55 15.7 -34.45 L21.8 -35.8 22.1 -35.6 Q48.85 -8.8 50.05 40.8 M19.55 -22.05 Q18.75 6.9 27.95 31.7 27.15 2.15 19.55 -22.05" fill="url(#gradient37)" fill-rule="evenodd" stroke="none"/>
    <path d="M11.55 -34.8 Q21.5 -42.8 30.05 -38.05 L40.8 -21.8 44.25 -11.4 Q36.75 -25.5 22.1 -35.6 L21.8 -35.8 15.7 -34.45 Q13.45 -29.95 11.85 -25.4 L11.55 -34.8" fill="#f5efee" fill-rule="evenodd" stroke="none"/>
    <path d="M40.8 -21.8 L34.6 -40.3 38.3 -48.05 50.55 -16.55 50.55 -16.45 48.25 -2.15 Q46.65 -6.9 44.4 -11.2 L44.25 -11.4 40.8 -21.8" fill="url(#gradient38)" fill-rule="evenodd" stroke="none"/>
    <path d="M44.25 -11.4 L44.4 -11.2 Q46.65 -6.9 48.25 -2.15 L48.3 -1.6 48.45 -1.45 49.7 2.75 49.75 2.95 Q52.45 13.75 51.85 26.4 51.5 33.25 50.2 40.65 L50.15 40.8 50.05 40.8 Q48.85 -8.8 22.1 -35.6 36.75 -25.5 44.25 -11.4" fill="url(#gradient39)" fill-rule="evenodd" stroke="none"/>
    <path d="M77.45 -20.55 L77.7 -8.1 70.35 -6.7 63.55 -5.05 63.5 -5.25 62.05 -4.7 48.45 -1.45 48.3 -1.6 48.25 -2.15 50.55 -16.45 50.6 -16.55 77.45 -20.6 77.45 -20.55 M48.45 -1.45 L48.25 -2.15 48.45 -1.45" fill="url(#gradient40)" fill-rule="evenodd" stroke="none"/>
    <path d="M55.9 20.75 L54.35 16.2 49.75 2.95 49.7 2.75 Q51.8 -1.95 53.85 -0.15 L59.7 17.8 Q59.45 17.35 58.95 17.15 L57.4 17.3 Q56.55 17.75 56.1 18.75 55.65 19.75 55.9 20.75" fill="url(#gradient41)" fill-rule="evenodd" stroke="none"/>
    <path d="M70.75 32.1 Q65.9 25.85 62.4 18.95 60.2 14.5 58.55 9.8 54.55 -1.35 62.05 -4.7 L63.5 -5.25 63.55 -5.05 62.05 -4.7 63.55 -5.05 73.0 22.9 Q73.55 23.9 74.45 23.85 L73.95 24.1 Q72.0 25.1 71.05 27.35 70.05 29.5 70.6 31.6 L70.75 32.1" fill="url(#gradient42)" fill-rule="evenodd" stroke="none"/>
    <path d="M70.35 -6.7 L70.75 -4.2 77.95 21.45 75.4 23.55 74.45 23.85 Q73.55 23.9 73.0 22.9 L63.55 -5.05 70.35 -6.7" fill="#21263e" fill-rule="evenodd" stroke="none"/>
    <path d="M78.8 15.7 L79.85 26.65 79.85 26.7 Q79.3 24.6 77.6 23.85 L75.4 23.55 77.95 21.45 70.75 -4.2 Q75.95 -7.35 78.8 15.7" fill="url(#gradient43)" fill-rule="evenodd" stroke="none"/>
    <path d="M10.0 -19.6 L11.85 -25.4 Q13.45 -29.95 15.7 -34.45 9.5 9.55 25.2 45.3 16.0 38.95 11.95 27.8 L11.9 27.75 Q3.65 3.3 10.0 -19.6" fill="url(#gradient44)" fill-rule="evenodd" stroke="none"/>
    <path d="M79.9 26.85 Q80.35 28.85 79.45 31.0 78.45 33.2 76.55 34.2 74.6 35.2 72.85 34.45 71.35 33.8 70.75 32.1 L70.6 31.6 Q70.05 29.5 71.05 27.35 72.0 25.1 73.95 24.1 L74.45 23.85 75.4 23.55 77.6 23.85 Q79.3 24.6 79.85 26.7 L79.9 26.85 M59.95 19.65 L59.7 20.3 58.45 21.85 56.8 22.0 56.2 21.4 56.05 21.2 55.9 20.75 Q55.65 19.75 56.1 18.75 56.55 17.75 57.4 17.3 L58.95 17.15 Q59.45 17.35 59.7 17.8 L60.0 18.4 59.95 19.65 M65.45 174.9 Q65.4 176.35 64.75 177.95 63.9 179.85 62.55 180.9 61.1 181.95 60.05 181.45 59.15 181.05 58.85 179.9 L58.9 179.85 58.85 177.95 Q58.9 176.8 59.45 175.65 60.3 173.7 61.8 172.6 L61.95 172.45 63.8 172.7 Q64.75 173.1 65.3 173.95 L65.45 174.9 M-2.55 33.3 L-3.45 33.45 Q-4.75 33.55 -5.4 32.8 L-5.7 32.35 -5.85 31.9 -5.85 31.15 -5.75 30.8 Q-5.4 29.55 -4.2 28.6 -3.1 27.7 -1.75 27.65 -0.5 27.55 0.2 28.3 L0.5 28.9 0.5 28.95 0.55 29.1 0.6 29.2 0.45 30.4 Q0.1 31.6 -1.0 32.45 -1.75 33.05 -2.55 33.3 M-32.7 36.65 Q-32.6 37.15 -32.8 37.85 -33.15 39.0 -34.15 39.85 -35.2 40.8 -36.35 40.9 -37.45 40.95 -37.95 40.15 L-38.2 39.65 Q-38.45 39.0 -38.2 38.2 -37.9 37.05 -36.8 36.15 -35.8 35.25 -34.7 35.2 -33.6 35.1 -33.0 35.85 L-32.7 36.65 M-17.4 40.8 Q-15.0 39.05 -12.55 39.4 -10.15 39.75 -9.15 41.95 -8.15 44.1 -9.15 46.95 -10.15 49.75 -12.55 51.45 -14.95 53.2 -17.35 52.95 -19.8 52.6 -20.8 50.45 -21.8 48.25 -20.8 45.4 -19.8 42.55 -17.4 40.8" fill="#000000" fill-rule="evenodd" stroke="none"/>
    <path d="M53.8 24.75 Q63.3 62.75 58.15 117.15 59.05 73.25 50.2 40.9 L50.2 40.85 50.2 40.65 Q51.5 33.25 51.85 26.4 L52.55 20.1 53.8 24.75" fill="url(#gradient45)" fill-rule="evenodd" stroke="none"/>
    <path d="M41.95 101.9 Q37.1 86.3 34.8 67.05 45.15 88.7 47.8 117.4 L45.15 110.95 42.65 103.9 41.95 101.9" fill="url(#gradient46)" fill-rule="evenodd" stroke="none"/>
    <path d="M27.5 71.5 Q26.25 74.75 24.3 75.15 15.75 51.0 16.7 47.4 25.2 59.95 27.5 71.5" fill="url(#gradient47)" fill-rule="evenodd" stroke="none"/>
    <path d="M-31.9 27.05 Q-31.35 32.2 -32.7 36.65 L-33.0 35.85 Q-33.6 35.1 -34.7 35.2 -35.8 35.25 -36.8 36.15 -37.9 37.05 -38.2 38.2 -38.45 39.0 -38.2 39.65 -39.7 40.5 -43.95 25.15 L-43.95 24.95 Q-43.6 16.75 -34.45 17.25 -32.4 22.4 -31.9 27.05" fill="url(#gradient48)" fill-rule="evenodd" stroke="none"/>
    <path d="M58.15 117.15 L59.6 141.35 58.6 140.4 58.35 140.2 Q51.85 135.05 48.25 144.45 L47.3 146.35 45.7 142.3 40.85 130.2 40.7 129.75 40.7 129.7 Q41.5 120.35 47.55 117.65 L47.7 117.6 47.7 117.65 Q51.8 115.9 58.15 117.15" fill="url(#gradient49)" fill-rule="evenodd" stroke="none"/>
    <path d="M58.6 140.4 L65.1 173.0 65.45 174.25 65.3 173.95 65.1 173.0 65.3 173.95 Q64.75 173.1 63.8 172.7 L61.95 172.45 Q63.15 171.65 64.15 172.1 L65.1 173.0 64.15 172.1 Q63.15 171.65 61.95 172.45 L60.8 173.2 59.4 174.95 Q58.7 175.9 58.8 178.4 L58.8 179.25 58.85 179.4 58.9 179.85 58.85 179.9 48.25 144.45 Q51.85 135.05 58.35 140.2 L58.6 140.4" fill="url(#gradient50)" fill-rule="evenodd" stroke="none"/>
    <path d="M47.8 117.4 L47.7 117.6 47.55 117.65 47.8 117.4" fill="url(#gradient51)" fill-rule="evenodd" stroke="none"/>
    <path d="M45.7 142.3 L45.65 142.3 Q42.05 140.7 40.6 145.75 35.8 133.8 33.35 121.3 36.95 126.15 40.7 129.7 L40.7 129.75 40.85 130.2 45.7 142.3" fill="url(#gradient52)" fill-rule="evenodd" stroke="none"/>
    <path d="M45.65 142.3 Q46.8 148.95 45.4 155.9 42.3 152.3 40.6 145.75 42.05 140.7 45.65 142.3" fill="url(#gradient53)" fill-rule="evenodd" stroke="none"/>
    <path d="M19.55 -22.05 Q27.15 2.15 27.95 31.7 18.75 6.9 19.55 -22.05" fill="url(#gradient54)" fill-rule="evenodd" stroke="none"/>
    <path d="M-62.7 -48.55 L-63.3 -54.1 M-59.95 -48.6 L-60.55 -54.15 M-68.65 -48.05 L-69.15 -53.6 M-65.75 -48.05 L-66.3 -53.65 M-57.3 -48.7 L-57.85 -54.3 M-54.55 -48.8 L-55.1 -54.35 M73.1 -62.7 L72.6 -66.5 M68.95 -62.1 L68.45 -65.9 M66.95 -62.0 L66.45 -65.8 M64.9 -61.8 L64.4 -65.7 M71.15 -62.5 L70.6 -66.35 M-71.45 -48.05 L-72.0 -53.6" fill="none" stroke="#0000ff" stroke-linecap="round" stroke-linejoin="round" stroke-width="1.0"/>
    <path d="M74.1 -69.3 L70.65 -76.95 122.3 -79.4 124.05 -76.35 124.45 -75.8 131.65 -65.5 112.85 -42.75 112.2 -36.45 79.35 4.25 Q81.9 15.45 80.95 16.7 80.25 17.9 78.8 15.7 L79.85 26.65 79.9 26.85 Q80.35 28.85 79.45 31.0 78.45 33.2 76.55 34.2 74.6 35.2 72.85 34.45 71.35 33.8 70.75 32.1 65.9 25.85 62.4 18.95 60.85 17.95 59.95 19.65 M56.05 21.2 L55.9 20.75 54.35 16.2 Q54.75 20.75 53.8 24.75 63.3 62.75 58.15 117.15 L59.6 141.35 58.6 140.4 65.1 173.0 65.45 174.25 65.45 174.9 Q65.4 176.35 64.75 177.95 63.9 179.85 62.55 180.9 61.1 181.95 60.05 181.45 59.15 181.05 58.85 179.9 L48.25 144.45 47.3 146.35 45.7 142.3 45.65 142.3 Q46.8 148.95 45.4 155.9 42.3 152.3 40.6 145.75 35.8 133.8 33.35 121.3 14.2 95.45 -2.55 33.3 M-5.7 32.35 L-5.65 33.0 Q-5.1 40.25 -7.65 46.65 -10.3 53.25 -15.0 54.7 -19.75 56.15 -22.15 51.75 L-30.1 26.7 -31.9 27.05 Q-31.35 32.2 -32.7 36.65 M-38.2 39.65 Q-39.7 40.5 -43.95 25.15 L-43.95 24.95 -46.4 16.4 Q-48.85 18.9 -44.75 36.55 L-57.65 37.4 -109.4 3.3 M-119.45 -68.3 L-66.95 -72.55 -63.95 -60.85 -50.05 -61.7 Q-50.35 -74.45 -48.9 -84.45 L-48.8 -84.45 -47.7 -88.1 -47.6 -88.45 -46.65 -90.85 -46.5 -91.15 Q-36.55 -114.85 -22.9 -103.45 L-21.0 -101.8 -19.2 -100.05 -17.55 -97.8 -15.45 -88.1 -15.3 -87.35 -3.05 -88.0 -2.7 -89.95 2.8 -118.3 12.4 -167.85 15.3 -181.6 20.8 -171.8 16.7 -92.25 17.55 -93.0 17.55 -93.05 Q20.55 -96.6 23.3 -98.85 L25.55 -100.55 Q27.5 -101.85 29.35 -102.45 34.55 -104.2 38.45 -100.0 L38.55 -99.85 39.2 -99.15 Q41.7 -98.6 45.2 -92.8 L45.95 -91.3 56.2 -72.35 58.4 -68.2 74.1 -69.3 75.55 -66.15 79.45 -66.5 107.35 -69.15 106.25 -73.9 124.4 -75.7 124.05 -76.35 M12.4 -167.85 L18.35 -159.5 19.05 -171.05 15.3 -181.6 M29.35 -102.45 L30.0 -100.1 M19.95 -85.55 L19.15 -87.95 16.6 -88.5 16.4 -83.6 20.65 -83.25 19.95 -85.55 Q23.45 -90.65 26.05 -93.35 28.45 -95.8 30.35 -96.45 L34.85 -98.15 38.1 -99.15 39.2 -99.15 M19.15 -87.95 L18.9 -88.75 17.55 -93.0 M16.6 -88.5 L16.7 -92.25 M40.7 -84.45 L40.05 -87.45 44.4 -88.6 45.2 -85.95 46.9 -80.6 41.9 -79.05 40.7 -84.45 45.2 -85.95 M34.3 -82.05 L33.6 -84.7 38.55 -87.0 39.05 -84.25 40.35 -78.35 36.0 -76.3 34.3 -82.05 39.05 -84.25 M18.9 -88.75 Q28.5 -102.6 38.45 -100.0 M-47.6 -88.45 L-46.35 -91.1 Q-41.15 -100.95 -29.15 -103.35 -24.55 -104.4 -21.0 -101.8 M-20.9 -83.5 L-23.65 -83.3 -24.8 -76.2 -19.65 -76.35 -20.9 -83.5 -19.1 -85.75 -25.7 -86.1 -23.65 -83.3 M-29.15 -82.95 L-27.8 -86.05 -35.3 -82.95 -33.45 -80.55 -29.15 -82.95 -28.85 -75.4 -27.05 -77.55 -27.8 -86.05 M-3.2 -82.0 L-3.45 -86.2 -3.05 -88.0 M-2.7 -89.95 L0.2 -85.8 Q1.6 -90.95 4.55 -95.1 3.3 -105.85 2.8 -118.3 M4.55 -95.1 L5.15 -89.8 Q6.4 -80.35 8.35 -72.35 L12.9 -64.8 12.95 -64.8 13.1 -63.85 Q13.5 -61.65 15.15 -62.85 L16.05 -77.65 16.4 -83.6 M12.95 -64.8 L18.35 -159.5 M3.1 -81.05 L8.35 -72.35 M-28.85 -75.4 L-29.0 -75.15 -33.95 -71.95 -35.3 -82.95 M-11.05 -67.8 L-10.95 -66.95 -8.4 -54.85 -5.9 -43.3 -5.8 -43.35 -5.7 -42.9 -3.8 -32.9 Q-2.6 -36.0 -1.15 -38.55 L-3.2 -82.0 -12.2 -82.55 -11.05 -67.8 -11.15 -67.75 -10.95 -66.95 M-19.1 -85.75 L-18.3 -78.05 -19.65 -76.35 M6.75 -48.6 L7.45 -49.2 5.9 -55.55 6.75 -48.6 3.95 -46.0 5.7 -38.55 7.75 -40.8 9.25 -42.1 Q13.5 -45.45 18.65 -45.95 L17.15 -52.95 Q11.85 -52.45 7.45 -49.2 M-6.15 -43.3 L-5.9 -43.3 -5.7 -42.9 M9.25 -42.1 L11.05 -34.4 11.55 -34.8 Q21.5 -42.8 30.05 -38.05 L40.8 -21.8 34.6 -40.3 33.9 -42.4 28.1 -44.8 Q23.1 -46.4 18.8 -45.95 L18.65 -45.95 M3.95 -46.0 Q1.15 -42.95 -1.15 -38.55 M-33.95 -71.95 L-33.45 -80.55 M-48.65 -81.9 L-47.55 -71.5 Q-34.25 -97.0 -15.45 -88.1 M-42.05 -38.45 L-37.65 -39.05 Q-22.2 -58.0 -6.15 -43.3 L-37.65 -39.05 M-42.05 -38.45 L-43.9 -35.1 -47.15 -29.6 -47.95 -28.1 -46.25 16.15 -46.0 15.6 -37.95 -2.65 -42.05 -38.45 M-45.5 -50.9 L-43.9 -35.1 Q-32.75 -68.5 -8.4 -54.85 M-45.5 -50.9 L-47.55 -71.5 M-49.9 -56.95 L-50.05 -61.7 M-49.15 -45.95 L-49.9 -56.95 -79.8 -54.8 -78.2 -44.85 -49.15 -45.95 Q-48.5 -38.3 -47.15 -29.6 M-46.25 16.15 L-45.95 16.1 -46.0 15.6 M-46.25 16.3 L-45.95 16.1 -1.2 7.9 1.05 -8.8 0.95 -8.8 -37.95 -2.65 M-46.25 16.3 L-46.4 16.4 M8.85 -32.45 L10.0 -19.6 11.85 -25.4 11.55 -34.8 M8.85 -32.45 L7.1 -30.75 4.4 7.45 12.3 38.45 12.45 38.65 Q16.15 43.25 21.85 46.3 L41.95 101.9 Q37.1 86.3 34.8 67.05 45.15 88.7 47.8 117.4 L45.15 110.95 42.65 103.9 41.95 101.9 M47.7 117.65 Q51.8 115.9 58.15 117.15 59.05 73.25 50.2 40.9 L50.1 40.85 50.05 40.8 Q39.3 35.85 25.3 45.45 L25.25 45.4 25.2 45.3 Q16.0 38.95 11.95 27.8 L11.9 27.75 Q3.65 3.3 10.0 -19.6 M-3.8 -32.9 L-2.05 -23.95 Q1.2 -33.2 5.7 -38.55 M-2.05 -23.95 L0.95 -8.8 M-9.0 15.4 Q-9.95 12.15 -11.45 12.0 L-19.95 12.55 Q-26.9 13.25 -30.1 26.7 M-1.2 7.9 L-0.55 12.95 -3.55 12.8 0.5 28.9 0.5 28.95 0.55 29.1 0.6 29.2 M-8.95 15.55 L-8.95 15.4 Q-7.0 11.95 -3.7 12.25 L-3.55 12.8 M-9.0 15.4 L-8.95 15.55 -8.95 15.65 -5.85 31.15 -5.85 31.9 M11.05 -34.4 L8.85 -32.45 7.75 -40.8 M-11.15 -67.75 Q-29.85 -83.05 -45.5 -50.9 M79.45 -66.5 L81.85 -60.55 63.35 -58.35 66.05 -52.55 66.25 -52.05 66.3 -51.9 Q78.6 -24.55 77.55 -20.6 L77.45 -20.55 77.7 -8.1 70.35 -6.7 70.75 -4.2 Q75.95 -7.35 78.8 15.7 M58.4 -68.2 L58.1 -68.2 58.25 -68.0 62.1 -60.95 63.2 -58.8 63.25 -58.55 63.35 -58.35 63.1 -58.6 Q45.55 -67.3 33.35 -44.15 L33.9 -42.4 M63.1 -58.6 L63.25 -58.55 M28.8 -58.3 L22.6 -77.2 20.65 -83.25 M22.6 -77.2 L22.85 -77.75 Q26.4 -86.2 26.05 -93.35 M28.85 -51.05 L26.95 -51.75 28.1 -44.8 M22.1 -35.6 L21.8 -35.8 15.7 -34.45 Q9.5 9.55 25.2 45.3 M26.95 -51.75 Q21.7 -53.4 17.15 -52.95 M40.3 -48.3 L38.3 -48.05 50.55 -16.55 50.6 -16.55 77.45 -20.6 77.55 -20.6 M38.3 -48.05 L34.6 -40.3 M33.35 -44.15 L31.45 -50.0 28.85 -51.05 16.05 -77.65 M31.45 -50.0 L28.8 -58.3 Q43.0 -83.15 56.2 -72.35 M44.25 -11.4 L40.8 -21.8 M50.55 -16.45 L48.25 -2.15 48.45 -1.45 62.05 -4.7 63.5 -5.25 63.55 -5.05 70.35 -6.7 M50.55 -16.45 L50.55 -16.55 M44.25 -11.4 L44.4 -11.2 Q46.65 -6.9 48.25 -2.15 M48.45 -1.45 L49.7 2.75 Q51.8 -1.95 53.85 -0.15 L59.7 17.8 M49.7 2.75 L49.75 2.95 54.35 16.2 M62.05 -4.7 L63.55 -5.05 73.0 22.9 Q73.55 23.9 74.45 23.85 L75.4 23.55 77.95 21.45 70.75 -4.2 M62.05 -4.7 Q54.55 -1.35 58.55 9.8 60.2 14.5 62.4 18.95 M15.7 -34.45 Q13.45 -29.95 11.85 -25.4 M66.05 -52.55 Q51.7 -61.45 40.3 -48.3 L66.25 -52.05 M22.1 -35.6 Q36.75 -25.5 44.25 -11.4 M22.85 -77.75 Q30.75 -93.6 45.95 -91.3 M-19.2 -100.05 Q-38.3 -101.3 -48.65 -81.9 L-48.9 -84.45 M-11.15 -67.75 L-15.3 -87.35 M3.1 -81.05 Q4.65 -85.3 5.15 -89.8 M0.2 -85.8 L3.1 -81.05 M-25.7 -86.1 L-24.8 -76.2 M74.45 23.85 L73.95 24.1 Q72.0 25.1 71.05 27.35 70.05 29.5 70.6 31.6 L70.75 32.1 M75.4 23.55 L77.6 23.85 Q79.3 24.6 79.85 26.7 L79.9 26.85 M53.8 24.75 L52.55 20.1 51.85 26.4 Q51.5 33.25 50.2 40.65 L50.2 40.85 50.2 40.9 M50.05 40.8 Q48.85 -8.8 22.1 -35.6 M27.5 71.5 Q25.2 59.95 16.7 47.4 15.75 51.0 24.3 75.15 26.25 74.75 27.5 71.5 M47.7 117.6 L47.7 117.65 M-31.9 27.05 Q-32.4 22.4 -34.45 17.25 -43.6 16.75 -43.95 24.95 M48.25 144.45 Q51.85 135.05 58.35 140.2 L58.6 140.4 M47.7 117.6 L47.55 117.65 Q41.5 120.35 40.7 129.7 L40.7 129.75 40.85 130.2 45.7 142.3 M40.7 129.7 Q36.95 126.15 33.35 121.3 M45.65 142.3 Q42.05 140.7 40.6 145.75 M65.1 173.0 L65.3 173.95 65.45 174.9 M61.95 172.45 Q63.15 171.65 64.15 172.1 L65.1 173.0 M58.85 177.95 Q58.9 176.8 59.45 175.65 60.3 173.7 61.8 172.6 L61.95 172.45 M58.8 178.4 L58.85 177.95 58.9 179.85 58.85 179.9 M58.8 178.4 L58.8 179.25 58.85 179.4 58.9 179.85 M49.75 2.95 Q52.45 13.75 51.85 26.4 M19.55 -22.05 Q27.15 2.15 27.95 31.7 18.75 6.9 19.55 -22.05 M-79.8 -54.8 L-126.95 -51.4" fill="none" stroke="#000000" stroke-linecap="round" stroke-linejoin="round" stroke-width="1.0"/>
    <path d="M-109.4 3.3 L-108.15 -9.75 -131.7 -40.75 -126.95 -51.4 -119.45 -68.3" fill="none" stroke="#0d0d0d" stroke-linecap="round" stroke-linejoin="round" stroke-width="1.0"/>
    <path d="M59.95 19.65 L59.7 20.3 58.45 21.85 56.8 22.0 56.2 21.4 56.05 21.2 M-2.55 33.3 L-3.45 33.45 Q-4.75 33.55 -5.4 32.8 L-5.7 32.35 -5.85 31.9 M-32.7 36.65 Q-32.6 37.15 -32.8 37.85 -33.15 39.0 -34.15 39.85 -35.2 40.8 -36.35 40.9 -37.45 40.95 -37.95 40.15 L-38.2 39.65 Q-38.45 39.0 -38.2 38.2 -37.9 37.05 -36.8 36.15 -35.8 35.25 -34.7 35.2 -33.6 35.1 -33.0 35.85 L-32.7 36.65 M0.6 29.2 L0.45 30.4 Q0.1 31.6 -1.0 32.45 -1.75 33.05 -2.55 33.3 M-5.85 31.15 L-5.75 30.8 Q-5.4 29.55 -4.2 28.6 -3.1 27.7 -1.75 27.65 -0.5 27.55 0.2 28.3 L0.5 28.9 M59.7 17.8 L60.0 18.4 59.95 19.65 M59.7 17.8 Q59.45 17.35 58.95 17.15 L57.4 17.3 Q56.55 17.75 56.1 18.75 55.65 19.75 55.9 20.75 M-17.4 40.8 Q-19.8 42.55 -20.8 45.4 -21.8 48.25 -20.8 50.45 -19.8 52.6 -17.35 52.95 -14.95 53.2 -12.55 51.45 -10.15 49.75 -9.15 46.95 -8.15 44.1 -9.15 41.95 -10.15 39.75 -12.55 39.4 -15.0 39.05 -17.4 40.8 Z" fill="none" stroke="#000000" stroke-linecap="round" stroke-linejoin="round" stroke-width="1.0"/>
  </g>
  <defs>
    <linearGradient gradientTransform="matrix(0.001, -0.0038, -0.0209, 0.0029, -64.75, -49.4)" gradientUnits="userSpaceOnUse" id="gradient0" spreadMethod="pad" x1="-819.2" x2="819.2">
      <stop offset="0.0" stop-color="#0099ff"/>
      <stop offset="1.0" stop-color="#00ffff"/>
    </linearGradient>
    <linearGradient gradientTransform="matrix(-0.0155, 0.0572, -0.0664, 0.0021, -86.6, -8.05)" gradientUnits="userSpaceOnUse" id="gradient1" spreadMethod="pad" x1="-819.2" x2="819.2">
      <stop offset="0.0" stop-color="#00ccff"/>
      <stop offset="0.21568627450980393" stop-color="#0099cc"/>
      <stop offset="0.6196078431372549" stop-color="#2818d3"/>
      <stop offset="1.0" stop-color="#1d0e99"/>
    </linearGradient>
    <linearGradient gradientTransform="matrix(-0.0053, 0.0223, 0.0427, -0.0088, 95.15, -51.8)" gradientUnits="userSpaceOnUse" id="gradient2" spreadMethod="pad" x1="-819.2" x2="819.2">
      <stop offset="0.0" stop-color="#00ccff"/>
      <stop offset="0.21568627450980393" stop-color="#0099cc"/>
      <stop offset="0.6196078431372549" stop-color="#2818d3"/>
      <stop offset="1.0" stop-color="#1d0e99"/>
    </linearGradient>
    <linearGradient gradientTransform="matrix(1.0E-4, 0.0505, 0.0096, -0.0069, 10.65, -114.2)" gradientUnits="userSpaceOnUse" id="gradient3" spreadMethod="pad" x1="-819.2" x2="819.2">
      <stop offset="0.0" stop-color="#fff9bc"/>
      <stop offset="0.27450980392156865" stop-color="#b5b367"/>
      <stop offset="0.6784313725490196" stop-color="#66888c"/>
      <stop offset="0.9098039215686274" stop-color="#262d32"/>
    </linearGradient>
    <linearGradient gradientTransform="matrix(-0.0097, 0.0118, 0.0022, 0.0063, 27.85, -92.65)" gradientUnits="userSpaceOnUse" id="gradient4" spreadMethod="pad" x1="-819.2" x2="819.2">
      <stop offset="0.0" stop-color="#93b4c4"/>
      <stop offset="0.22745098039215686" stop-color="#1f222a"/>
      <stop offset="0.5490196078431373" stop-color="#f6f7fb"/>
      <stop offset="0.8784313725490196" stop-color="#40324d"/>
      <stop offset="1.0" stop-color="#6d598b"/>
    </linearGradient>
    <radialGradient cx="0" cy="0" gradientTransform="matrix(-0.0305, -0.0133, -0.0264, 0.0598, 30.1, -53.4)" gradientUnits="userSpaceOnUse" id="gradient5" r="819.2" spreadMethod="pad">
      <stop offset="0.0" stop-color="#000099"/>
      <stop offset="1.0" stop-color="#0066ff"/>
    </radialGradient>
    <radialGradient cx="0" cy="0" gradientTransform="matrix(-0.009, -0.0039, -0.0078, 0.0176, 25.1, -91.5)" gradientUnits="userSpaceOnUse" id="gradient6" r="819.2" spreadMethod="pad">
      <stop offset="0.0" stop-color="#00ccff"/>
      <stop offset="1.0" stop-color="#000099"/>
    </radialGradient>
    <linearGradient gradientTransform="matrix(-0.012, 0.0171, 0.0057, 0.0104, 28.95, -82.4)" gradientUnits="userSpaceOnUse" id="gradient7" spreadMethod="pad" x1="-819.2" x2="819.2">
      <stop offset="0.0" stop-color="#000066"/>
      <stop offset="0.16470588235294117" stop-color="#000099"/>
      <stop offset="0.403921568627451" stop-color="#0099ff"/>
      <stop offset="0.6862745098039216" stop-color="#000033"/>
      <stop offset="1.0" stop-color="#000000"/>
    </linearGradient>
    <linearGradient gradientTransform="matrix(-0.0124, 0.0163, 0.0085, 0.0195, 37.7, -73.25)" gradientUnits="userSpaceOnUse" id="gradient8" spreadMethod="pad" x1="-819.2" x2="819.2">
      <stop offset="0.0" stop-color="#93b4c4"/>
      <stop offset="0.22745098039215686" stop-color="#1f222a"/>
      <stop offset="0.5490196078431373" stop-color="#f6f7fb"/>
      <stop offset="0.8784313725490196" stop-color="#40324d"/>
      <stop offset="1.0" stop-color="#6d598b"/>
    </linearGradient>
    <radialGradient cx="0" cy="0" gradientTransform="matrix(-0.0154, -0.0067, -0.0133, 0.0302, -33.9, -100.0)" gradientUnits="userSpaceOnUse" id="gradient9" r="819.2" spreadMethod="pad">
      <stop offset="0.0" stop-color="#ffffff"/>
      <stop offset="1.0" stop-color="#8682a4"/>
    </radialGradient>
    <linearGradient gradientTransform="matrix(-0.0197, 0.0172, 0.0014, 0.015, -34.05, -85.05)" gradientUnits="userSpaceOnUse" id="gradient10" spreadMethod="pad" x1="-819.2" x2="819.2">
      <stop offset="0.0" stop-color="#000066"/>
      <stop offset="0.10980392156862745" stop-color="#261430"/>
      <stop offset="0.2235294117647059" stop-color="#000033"/>
      <stop offset="0.3686274509803922" stop-color="#000066"/>
      <stop offset="0.5568627450980392" stop-color="#00ccff"/>
      <stop offset="0.7254901960784313" stop-color="#fbfcfe"/>
      <stop offset="0.8745098039215686" stop-color="#2f2fe3"/>
      <stop offset="1.0" stop-color="#2b1f66"/>
    </linearGradient>
    <linearGradient gradientTransform="matrix(-0.0191, 0.0182, 0.0033, 0.0229, -31.55, -69.55)" gradientUnits="userSpaceOnUse" id="gradient11" spreadMethod="pad" x1="-819.2" x2="819.2">
      <stop offset="0.0" stop-color="#ffffff"/>
      <stop offset="0.16862745098039217" stop-color="#302e3c"/>
      <stop offset="0.403921568627451" stop-color="#3f355b"/>
      <stop offset="0.592156862745098" stop-color="#9bb5e6"/>
      <stop offset="0.7450980392156863" stop-color="#fbfcfe"/>
      <stop offset="0.8745098039215686" stop-color="#8aa7a3"/>
      <stop offset="1.0" stop-color="#ffffff"/>
    </linearGradient>
    <linearGradient gradientTransform="matrix(-0.0101, 0.0109, 0.0084, 0.0356, 7.85, -64.75)" gradientUnits="userSpaceOnUse" id="gradient12" spreadMethod="pad" x1="-819.2" x2="819.2">
      <stop offset="0.0" stop-color="#000099"/>
      <stop offset="0.5176470588235295" stop-color="#0066ff"/>
      <stop offset="0.984313725490196" stop-color="#000099"/>
    </linearGradient>
    <radialGradient cx="0" cy="0" gradientTransform="matrix(-0.0122, -0.0053, -0.0106, 0.024, 0.7, -99.25)" gradientUnits="userSpaceOnUse" id="gradient13" r="819.2" spreadMethod="pad">
      <stop offset="0.0" stop-color="#00ffff"/>
      <stop offset="1.0" stop-color="#00ccff"/>
    </radialGradient>
    <radialGradient cx="0" cy="0" gradientTransform="matrix(-0.0236, -0.0103, -0.0205, 0.0464, 0.85, -99.65)" gradientUnits="userSpaceOnUse" id="gradient14" r="819.2" spreadMethod="pad">
      <stop offset="0.0" stop-color="#00ffff"/>
      <stop offset="1.0" stop-color="#00ccff"/>
    </radialGradient>
    <linearGradient gradientTransform="matrix(-0.0181, 0.0176, 0.0032, 0.0201, -28.1, -54.65)" gradientUnits="userSpaceOnUse" id="gradient15" spreadMethod="pad" x1="-819.2" x2="819.2">
      <stop offset="0.0" stop-color="#000066"/>
      <stop offset="0.10980392156862745" stop-color="#261430"/>
      <stop offset="0.2235294117647059" stop-color="#000033"/>
      <stop offset="0.3686274509803922" stop-color="#000066"/>
      <stop offset="0.5568627450980392" stop-color="#00ccff"/>
      <stop offset="0.7254901960784313" stop-color="#fbfcfe"/>
      <stop offset="0.8745098039215686" stop-color="#2f2fe3"/>
      <stop offset="1.0" stop-color="#2b1f66"/>
    </linearGradient>
    <radialGradient cx="0" cy="0" gradientTransform="matrix(-0.0365, -0.0159, -0.0317, 0.0717, -3.05, -37.7)" gradientUnits="userSpaceOnUse" id="gradient16" r="819.2" spreadMethod="pad">
      <stop offset="0.0" stop-color="#000099"/>
      <stop offset="1.0" stop-color="#0066ff"/>
    </radialGradient>
    <radialGradient cx="0" cy="0" gradientTransform="matrix(-0.0121, -0.0053, -0.0105, 0.0238, 16.75, -52.05)" gradientUnits="userSpaceOnUse" id="gradient17" r="819.2" spreadMethod="pad">
      <stop offset="0.0" stop-color="#cccccc"/>
      <stop offset="1.0" stop-color="#333333"/>
    </radialGradient>
    <linearGradient gradientTransform="matrix(-0.0238, 0.0306, 0.0139, 0.034, -27.05, -15.4)" gradientUnits="userSpaceOnUse" id="gradient18" spreadMethod="pad" x1="-819.2" x2="819.2">
      <stop offset="0.0" stop-color="#ffffff"/>
      <stop offset="1.0" stop-color="#6577ab"/>
    </linearGradient>
    <linearGradient gradientTransform="matrix(-0.0194, 0.0171, 0.0019, 0.0196, -25.05, -43.95)" gradientUnits="userSpaceOnUse" id="gradient19" spreadMethod="pad" x1="-819.2" x2="819.2">
      <stop offset="0.0" stop-color="#ffffff"/>
      <stop offset="0.16862745098039217" stop-color="#302e3c"/>
      <stop offset="0.403921568627451" stop-color="#3f355b"/>
      <stop offset="0.592156862745098" stop-color="#9bb5e6"/>
      <stop offset="0.7450980392156863" stop-color="#fbfcfe"/>
      <stop offset="0.8745098039215686" stop-color="#8aa7a3"/>
      <stop offset="1.0" stop-color="#ffffff"/>
    </linearGradient>
    <linearGradient gradientTransform="matrix(0.0075, -0.0094, -0.0337, -0.0871, 14.45, 56.7)" gradientUnits="userSpaceOnUse" id="gradient20" spreadMethod="pad" x1="-819.2" x2="819.2">
      <stop offset="0.0" stop-color="#0000cc"/>
      <stop offset="0.2627450980392157" stop-color="#2b1f66"/>
      <stop offset="0.6352941176470588" stop-color="#0099ff"/>
      <stop offset="0.8352941176470589" stop-color="#00ccff"/>
    </linearGradient>
    <radialGradient cx="0" cy="0" gradientTransform="matrix(-0.037, -0.0161, -0.032, 0.0726, 13.9, -42.2)" gradientUnits="userSpaceOnUse" id="gradient21" r="819.2" spreadMethod="pad">
      <stop offset="0.0" stop-color="#00ccff"/>
      <stop offset="1.0" stop-color="#000066"/>
    </radialGradient>
    <radialGradient cx="0" cy="0" gradientTransform="matrix(-0.008, -0.0035, -0.007, 0.0158, -3.0, -34.0)" gradientUnits="userSpaceOnUse" id="gradient22" r="819.2" spreadMethod="pad">
      <stop offset="0.0" stop-color="#cccccc"/>
      <stop offset="1.0" stop-color="#333333"/>
    </radialGradient>
    <radialGradient cx="0" cy="0" gradientTransform="matrix(-0.0213, -0.0093, -0.0185, 0.0419, -42.9, -6.9)" gradientUnits="userSpaceOnUse" id="gradient23" r="819.2" spreadMethod="pad">
      <stop offset="0.0" stop-color="#ffff99"/>
      <stop offset="1.0" stop-color="#ffffff"/>
    </radialGradient>
    <linearGradient gradientTransform="matrix(-0.0105, 0.0097, 0.003, 0.0244, -11.65, -4.75)" gradientUnits="userSpaceOnUse" id="gradient24" spreadMethod="pad" x1="-819.2" x2="819.2">
      <stop offset="0.0" stop-color="#69779e"/>
      <stop offset="1.0" stop-color="#312127"/>
    </linearGradient>
    <linearGradient gradientTransform="matrix(-0.0112, 0.0357, 0.0489, 0.0, -67.0, -20.55)" gradientUnits="userSpaceOnUse" id="gradient25" spreadMethod="pad" x1="-819.2" x2="819.2">
      <stop offset="0.0" stop-color="#00ccff"/>
      <stop offset="0.21568627450980393" stop-color="#0099cc"/>
      <stop offset="0.6196078431372549" stop-color="#2818d3"/>
      <stop offset="1.0" stop-color="#1d0e99"/>
    </linearGradient>
    <linearGradient gradientTransform="matrix(-0.0117, 0.0123, 0.0208, 0.101, 32.0, 43.8)" gradientUnits="userSpaceOnUse" id="gradient26" spreadMethod="pad" x1="-819.2" x2="819.2">
      <stop offset="0.10196078431372549" stop-color="#293163"/>
      <stop offset="0.3607843137254902" stop-color="#666666"/>
      <stop offset="0.7411764705882353" stop-color="#8291be"/>
      <stop offset="0.8901960784313725" stop-color="#ffffff"/>
    </linearGradient>
    <linearGradient gradientTransform="matrix(-0.0117, 0.0112, 0.0039, 0.027, -17.1, 32.85)" gradientUnits="userSpaceOnUse" id="gradient27" spreadMethod="pad" x1="-819.2" x2="819.2">
      <stop offset="0.0" stop-color="#a83835"/>
      <stop offset="0.1450980392156863" stop-color="#19110c"/>
      <stop offset="0.30196078431372547" stop-color="#412e68"/>
      <stop offset="0.611764705882353" stop-color="#f9f7ec"/>
      <stop offset="0.8117647058823529" stop-color="#90904c"/>
      <stop offset="0.8823529411764706" stop-color="#423624"/>
    </linearGradient>
    <linearGradient gradientTransform="matrix(-0.0028, 0.0028, 0.0023, 0.0121, -4.9, 22.75)" gradientUnits="userSpaceOnUse" id="gradient28" spreadMethod="pad" x1="-819.2" x2="819.2">
      <stop offset="0.0" stop-color="#19110c"/>
      <stop offset="0.30196078431372547" stop-color="#6b5850"/>
      <stop offset="0.5490196078431373" stop-color="#ffffff"/>
      <stop offset="0.807843137254902" stop-color="#90904c"/>
    </linearGradient>
    <linearGradient gradientTransform="matrix(-0.0166, 0.0088, -0.001, 0.0102, -23.75, -41.95)" gradientUnits="userSpaceOnUse" id="gradient29" spreadMethod="pad" x1="-819.2" x2="819.2">
      <stop offset="0.0" stop-color="#000000"/>
      <stop offset="0.3176470588235294" stop-color="#726b94"/>
      <stop offset="0.5254901960784314" stop-color="#ffffff"/>
      <stop offset="0.7411764705882353" stop-color="#8da5cc"/>
      <stop offset="0.9411764705882353" stop-color="#2a3a37"/>
    </linearGradient>
    <linearGradient gradientTransform="matrix(0.0011, -0.0039, -0.0161, 0.0018, 69.6, -62.75)" gradientUnits="userSpaceOnUse" id="gradient30" spreadMethod="pad" x1="-819.2" x2="819.2">
      <stop offset="0.0" stop-color="#0099ff"/>
      <stop offset="1.0" stop-color="#00ffff"/>
    </linearGradient>
    <linearGradient gradientTransform="matrix(-0.0146, 0.019, 0.0076, 0.0179, 41.7, -53.5)" gradientUnits="userSpaceOnUse" id="gradient31" spreadMethod="pad" x1="-819.2" x2="819.2">
      <stop offset="0.0" stop-color="#000066"/>
      <stop offset="0.16470588235294117" stop-color="#000099"/>
      <stop offset="0.403921568627451" stop-color="#0099ff"/>
      <stop offset="0.6862745098039216" stop-color="#000033"/>
      <stop offset="1.0" stop-color="#000000"/>
    </linearGradient>
    <linearGradient gradientTransform="matrix(-0.0136, 0.0179, 0.0061, 0.0139, 48.7, -47.65)" gradientUnits="userSpaceOnUse" id="gradient32" spreadMethod="pad" x1="-819.2" x2="819.2">
      <stop offset="0.0" stop-color="#93b4c4"/>
      <stop offset="0.22745098039215686" stop-color="#1f222a"/>
      <stop offset="0.5490196078431373" stop-color="#f6f7fb"/>
      <stop offset="0.8784313725490196" stop-color="#40324d"/>
      <stop offset="1.0" stop-color="#6d598b"/>
    </linearGradient>
    <linearGradient gradientTransform="matrix(-0.0114, 0.0261, 0.0264, 0.0112, 55.2, -28.3)" gradientUnits="userSpaceOnUse" id="gradient33" spreadMethod="pad" x1="-819.2" x2="819.2">
      <stop offset="0.0" stop-color="#ffffff"/>
      <stop offset="1.0" stop-color="#6577ab"/>
    </linearGradient>
    <linearGradient gradientTransform="matrix(-0.0121, 0.0164, 0.0055, 0.0117, 49.95, -45.7)" gradientUnits="userSpaceOnUse" id="gradient34" spreadMethod="pad" x1="-819.2" x2="819.2">
      <stop offset="0.0" stop-color="#93b4c4"/>
      <stop offset="0.22745098039215686" stop-color="#1f222a"/>
      <stop offset="0.5490196078431373" stop-color="#f6f7fb"/>
      <stop offset="0.8784313725490196" stop-color="#40324d"/>
      <stop offset="1.0" stop-color="#6d598b"/>
    </linearGradient>
    <radialGradient cx="0" cy="0" gradientTransform="matrix(-0.0107, -0.0047, -0.0092, 0.021, 33.25, -43.45)" gradientUnits="userSpaceOnUse" id="gradient35" r="819.2" spreadMethod="pad">
      <stop offset="0.0" stop-color="#cccccc"/>
      <stop offset="1.0" stop-color="#333333"/>
    </radialGradient>
    <radialGradient cx="0" cy="0" gradientTransform="matrix(-0.0131, -0.0057, -0.0114, 0.0258, 18.6, -52.2)" gradientUnits="userSpaceOnUse" id="gradient36" r="819.2" spreadMethod="pad">
      <stop offset="0.0" stop-color="#cccccc"/>
      <stop offset="1.0" stop-color="#333333"/>
    </radialGradient>
    <linearGradient gradientTransform="matrix(0.0172, -0.0173, -0.0104, -0.0566, 36.4, -0.25)" gradientUnits="userSpaceOnUse" id="gradient37" spreadMethod="pad" x1="-819.2" x2="819.2">
      <stop offset="0.0" stop-color="#ffb926"/>
      <stop offset="0.4745098039215686" stop-color="#644300"/>
    </linearGradient>
    <linearGradient gradientTransform="matrix(0.0063, 0.0177, 0.0035, -0.0042, 42.45, -27.95)" gradientUnits="userSpaceOnUse" id="gradient38" spreadMethod="pad" x1="-819.2" x2="819.2">
      <stop offset="0.0" stop-color="#fbfed4"/>
      <stop offset="0.5294117647058824" stop-color="#ffffff"/>
      <stop offset="1.0" stop-color="#edab93"/>
    </linearGradient>
    <radialGradient cx="0" cy="0" gradientTransform="matrix(-0.0495, -0.0216, -0.0429, 0.0971, 37.1, -19.3)" gradientUnits="userSpaceOnUse" id="gradient39" r="819.2" spreadMethod="pad">
      <stop offset="0.011764705882352941" stop-color="#f4bb6a"/>
      <stop offset="0.3607843137254902" stop-color="#a84330"/>
      <stop offset="0.7411764705882353" stop-color="#563f2e"/>
    </radialGradient>
    <linearGradient gradientTransform="matrix(-0.0075, 0.006, 8.0E-4, 0.0177, 69.75, -16.8)" gradientUnits="userSpaceOnUse" id="gradient40" spreadMethod="pad" x1="-819.2" x2="819.2">
      <stop offset="0.0" stop-color="#69779e"/>
      <stop offset="1.0" stop-color="#312127"/>
    </linearGradient>
    <linearGradient gradientTransform="matrix(0.0022, -0.0025, -0.0037, -0.0125, 55.4, 9.2)" gradientUnits="userSpaceOnUse" id="gradient41" spreadMethod="pad" x1="-819.2" x2="819.2">
      <stop offset="0.0" stop-color="#b17185"/>
      <stop offset="0.4549019607843137" stop-color="#5d3f50"/>
      <stop offset="0.8313725490196079" stop-color="#ffffff"/>
    </linearGradient>
    <linearGradient gradientTransform="matrix(0.0033, -0.0039, -0.0069, -0.0214, 65.9, 13.5)" gradientUnits="userSpaceOnUse" id="gradient42" spreadMethod="pad" x1="-819.2" x2="819.2">
      <stop offset="0.0" stop-color="#302a2f"/>
      <stop offset="0.4549019607843137" stop-color="#863438"/>
      <stop offset="0.8313725490196079" stop-color="#ffffff"/>
    </linearGradient>
    <linearGradient gradientTransform="matrix(0.0013, -0.0014, -0.0052, -0.0192, 76.9, 9.5)" gradientUnits="userSpaceOnUse" id="gradient43" spreadMethod="pad" x1="-819.2" x2="819.2">
      <stop offset="0.0" stop-color="#b17185"/>
      <stop offset="0.4549019607843137" stop-color="#5d3f50"/>
      <stop offset="0.8313725490196079" stop-color="#ffffff"/>
    </linearGradient>
    <radialGradient cx="0" cy="0" gradientTransform="matrix(-0.0499, -0.0218, -0.0432, 0.0979, 10.75, -13.9)" gradientUnits="userSpaceOnUse" id="gradient44" r="819.2" spreadMethod="pad">
      <stop offset="0.011764705882352941" stop-color="#f4bb6a"/>
      <stop offset="0.3607843137254902" stop-color="#a84330"/>
      <stop offset="0.7411764705882353" stop-color="#563f2e"/>
    </radialGradient>
    <linearGradient gradientTransform="matrix(-0.006, 0.0059, 0.0087, 0.054, 54.0, 69.8)" gradientUnits="userSpaceOnUse" id="gradient45" spreadMethod="pad" x1="-819.2" x2="819.2">
      <stop offset="0.0" stop-color="#0000cc"/>
      <stop offset="0.2627450980392157" stop-color="#2b1f66"/>
      <stop offset="0.6352941176470588" stop-color="#0099ff"/>
      <stop offset="0.8352941176470589" stop-color="#00ccff"/>
    </linearGradient>
    <radialGradient cx="0" cy="0" gradientTransform="matrix(-0.0227, -0.0099, -0.0196, 0.0445, 41.95, 93.05)" gradientUnits="userSpaceOnUse" id="gradient46" r="819.2" spreadMethod="pad">
      <stop offset="0.0" stop-color="#ffffff"/>
      <stop offset="1.0" stop-color="#ffff99"/>
    </radialGradient>
    <linearGradient gradientTransform="matrix(-7.0E-4, 9.0E-4, 0.0057, 0.0163, 21.75, 60.3)" gradientUnits="userSpaceOnUse" id="gradient47" spreadMethod="pad" x1="-819.2" x2="819.2">
      <stop offset="0.0" stop-color="#a74a2e"/>
      <stop offset="1.0" stop-color="#fccc72"/>
    </linearGradient>
    <linearGradient gradientTransform="matrix(-0.005, 0.005, 0.0023, 0.0139, -37.85, 28.5)" gradientUnits="userSpaceOnUse" id="gradient48" spreadMethod="pad" x1="-819.2" x2="819.2">
      <stop offset="0.0" stop-color="#a83835"/>
      <stop offset="0.1411764705882353" stop-color="#19110c"/>
      <stop offset="0.30196078431372547" stop-color="#412e68"/>
      <stop offset="0.6078431372549019" stop-color="#f9f7ec"/>
      <stop offset="0.807843137254902" stop-color="#90904c"/>
      <stop offset="0.8823529411764706" stop-color="#423624"/>
    </linearGradient>
    <linearGradient gradientTransform="matrix(-0.0055, 0.0059, 0.0041, 0.0186, 49.9, 132.75)" gradientUnits="userSpaceOnUse" id="gradient49" spreadMethod="pad" x1="-819.2" x2="819.2">
      <stop offset="0.0" stop-color="#131330"/>
      <stop offset="0.4549019607843137" stop-color="#ffffff"/>
      <stop offset="0.7294117647058823" stop-color="#883924"/>
      <stop offset="0.9372549019607843" stop-color="#c27873"/>
    </linearGradient>
    <linearGradient gradientTransform="matrix(-0.004, 0.0045, 0.0065, 0.0242, 57.35, 158.5)" gradientUnits="userSpaceOnUse" id="gradient50" spreadMethod="pad" x1="-819.2" x2="819.2">
      <stop offset="0.0" stop-color="#131330"/>
      <stop offset="0.4549019607843137" stop-color="#ffffff"/>
      <stop offset="0.7294117647058823" stop-color="#883924"/>
      <stop offset="0.9372549019607843" stop-color="#c27873"/>
    </linearGradient>
    <linearGradient gradientTransform="matrix(0.0069, -0.0078, -0.0269, -0.0964, 15.4, 54.5)" gradientUnits="userSpaceOnUse" id="gradient51" spreadMethod="pad" x1="-819.2" x2="819.2">
      <stop offset="0.0" stop-color="#cf231d"/>
      <stop offset="0.2627450980392157" stop-color="#2b1f66"/>
      <stop offset="0.5333333333333333" stop-color="#b62e2c"/>
    </linearGradient>
    <linearGradient gradientTransform="matrix(-0.002, 0.0025, 0.0055, 0.0153, 38.45, 132.95)" gradientUnits="userSpaceOnUse" id="gradient52" spreadMethod="pad" x1="-819.2" x2="819.2">
      <stop offset="0.0" stop-color="#131330"/>
      <stop offset="0.4549019607843137" stop-color="#ffffff"/>
      <stop offset="0.7294117647058823" stop-color="#883924"/>
      <stop offset="0.9372549019607843" stop-color="#c27873"/>
    </linearGradient>
    <linearGradient gradientTransform="matrix(-0.0019, 0.002, 0.0017, 0.0084, 43.9, 149.25)" gradientUnits="userSpaceOnUse" id="gradient53" spreadMethod="pad" x1="-819.2" x2="819.2">
      <stop offset="0.0" stop-color="#131330"/>
      <stop offset="1.0" stop-color="#ffffff"/>
    </linearGradient>
    <radialGradient cx="0" cy="0" gradientTransform="matrix(-0.0224, -0.0098, -0.0194, 0.0439, 23.5, 3.35)" gradientUnits="userSpaceOnUse" id="gradient54" r="819.2" spreadMethod="pad">
      <stop offset="0.0" stop-color="#ffffff"/>
      <stop offset="1.0" stop-color="#ffff99"/>
    </radialGradient>
  </defs>
</svg>
