<?xml version="1.0" encoding="UTF-8" standalone="no"?>
<svg xmlns:ffdec="https://www.free-decompiler.com/flash" xmlns:xlink="http://www.w3.org/1999/xlink" ffdec:objectType="shape" height="3465.9px" width="329.0px" xmlns="http://www.w3.org/2000/svg">
  <g transform="matrix(1.0, 0.0, 0.0, 1.0, 0.0, 0.0)">
    <path d="M33.0 676.55 L0.0 676.55 0.0 581.5 94.0 581.55 94.0 505.55 132.0 481.55 189.0 481.55 227.0 505.55 227.0 581.55 321.0 581.5 321.0 676.55 288.0 676.55 249.0 676.55 206.0 676.55 179.5 660.55 179.5 646.55 141.5 646.55 141.5 660.55 115.0 676.55 72.0 676.55 33.0 676.55 M288.0 769.55 L321.0 790.6 321.0 876.55 288.0 876.55 249.0 876.55 206.0 876.55 179.5 860.55 179.5 846.55 141.5 846.55 141.5 860.55 115.0 876.55 72.0 876.55 33.0 876.55 0.0 876.55 0.0 790.6 33.0 769.55 72.0 769.55 95.0 769.55 114.0 757.55 141.5 757.55 141.5 777.05 179.5 777.05 179.5 757.55 207.0 757.55 226.0 769.55 249.0 769.55 288.0 769.55 M288.0 969.55 L321.0 989.85 321.0 1086.55 288.0 1086.55 249.0 1086.55 206.0 1086.55 179.5 1070.55 179.5 1056.55 141.5 1056.55 141.5 1070.55 115.0 1086.55 72.0 1086.55 33.0 1086.55 0.0 1086.55 0.0 989.85 33.0 969.55 72.0 969.55 95.0 969.55 114.0 957.55 141.5 957.55 141.5 977.05 179.5 977.05 179.5 957.55 207.0 957.55 226.0 969.55 249.0 969.55 288.0 969.55 M288.0 1239.55 L321.0 1262.3 321.0 1758.4 288.4 1775.2 288.4 1923.2 321.0 1923.2 321.0 2301.45 288.0 2301.45 288.0 2328.95 237.5 2328.95 217.5 2313.95 212.0 2313.95 190.0 2313.95 190.0 2288.95 131.0 2288.95 131.0 2313.95 109.0 2313.95 103.5 2313.95 83.5 2328.95 33.0 2328.95 33.0 2301.45 0.0 2301.45 0.0 1996.0 13.0 2004.0 113.5 2004.0 193.0 1951.5 193.0 1758.0 253.5 1679.5 253.5 1633.0 194.0 1633.0 194.0 1327.5 55.5 1327.5 0.0 1359.9 0.0 1262.3 33.0 1239.55 72.0 1239.55 95.0 1239.55 114.0 1227.55 141.5 1227.55 141.5 1267.05 179.5 1267.05 179.5 1227.55 207.0 1227.55 226.0 1239.55 249.0 1239.55 288.0 1239.55 M214.0 2020.45 L107.0 2020.45 107.0 2073.45 214.0 2073.45 214.0 2020.45 M107.0 2195.45 L107.0 2228.45 214.0 2228.45 214.0 2195.45 107.0 2195.45 M214.0 2158.45 L214.0 2105.45 107.0 2105.45 107.0 2158.45 214.0 2158.45 M247.0 2403.45 L254.0 2403.45 254.0 2394.95 321.0 2394.95 321.0 2481.95 248.5 2481.95 248.5 2618.45 269.0 2632.45 269.0 2709.45 321.0 2709.45 321.0 2795.45 288.0 2795.45 249.0 2795.45 227.0 2795.45 205.5 2781.95 191.0 2781.95 191.0 2720.45 130.0 2720.45 130.0 2781.95 115.5 2781.95 94.0 2795.45 72.0 2795.45 33.0 2795.45 0.0 2795.45 0.0 2709.45 52.0 2709.45 52.0 2632.45 72.5 2618.45 72.5 2481.95 0.0 2481.95 0.0 2394.95 67.0 2394.95 67.0 2403.45 74.0 2403.45 135.0 2403.45 135.0 2383.95 186.0 2383.95 186.0 2403.45 247.0 2403.45 M288.0 2871.9 L321.0 2871.9 321.0 2994.4 253.0 2994.4 253.0 3017.4 321.0 3017.4 321.0 3112.4 293.0 3112.4 259.0 3088.4 246.0 3088.4 246.0 3166.4 268.0 3166.4 268.0 3152.4 286.0 3152.4 321.0 3178.0 321.0 3205.9 287.0 3205.9 287.0 3177.4 227.5 3177.4 227.5 3228.9 246.5 3243.4 276.0 3243.4 276.0 3229.9 321.0 3229.9 321.0 3253.9 265.0 3253.9 265.0 3292.4 321.0 3292.4 321.0 3328.9 265.0 3328.9 265.0 3367.4 321.0 3367.4 321.0 3384.7 287.0 3399.4 287.0 3413.4 233.5 3425.4 233.5 3391.45 201.0 3390.4 201.0 3355.4 189.0 3345.4 189.0 3342.15 189.0 3330.15 189.0 3307.4 212.0 3293.4 212.0 3278.4 197.0 3268.4 197.0 3243.4 197.0 3229.4 212.0 3214.4 212.0 3198.4 200.0 3198.4 200.0 3170.9 207.0 3170.9 207.0 3126.9 195.0 3126.9 195.0 3093.9 202.5 3093.9 202.5 3113.4 223.0 3113.4 223.0 3014.4 228.25 3014.4 228.25 2969.9 212.75 2959.9 192.25 2959.9 192.25 2945.65 180.0 2945.65 180.0 2915.4 141.0 2915.4 141.0 2945.65 128.75 2945.65 128.75 2959.9 108.25 2959.9 92.75 2969.9 92.75 3014.4 98.0 3014.4 98.0 3113.4 118.5 3113.4 118.5 3093.9 126.0 3093.9 126.0 3126.9 114.0 3126.9 114.0 3170.9 121.0 3170.9 121.0 3198.4 109.0 3198.4 109.0 3214.4 124.0 3229.4 124.0 3243.4 124.0 3268.4 109.0 3278.4 109.0 3293.4 132.0 3307.4 132.0 3330.15 132.0 3342.15 132.0 3345.4 120.0 3355.4 120.0 3390.4 87.5 3391.45 87.5 3425.4 34.0 3413.4 34.0 3399.4 0.0 3384.7 0.0 3367.4 56.0 3367.4 56.0 3328.9 0.0 3328.9 0.0 3292.4 56.0 3292.4 56.0 3253.9 0.0 3253.9 0.0 3229.9 45.0 3229.9 45.0 3243.4 74.5 3243.4 93.5 3228.9 93.5 3177.4 34.0 3177.4 34.0 3205.9 0.0 3205.9 0.0 3178.0 35.0 3152.4 53.0 3152.4 53.0 3166.4 75.0 3166.4 75.0 3088.4 62.0 3088.4 28.0 3112.4 0.0 3112.4 0.0 3017.4 68.0 3017.4 68.0 2994.4 0.0 2994.4 0.0 2871.9 33.0 2871.9 33.0 2921.9 72.0 2921.9 Q93.75 2915.4 115.9 2913.0 160.5 2908.9 205.1 2913.0 227.25 2915.4 249.0 2921.9 L288.0 2921.9 288.0 2871.9 M165.25 2503.2 L188.75 2503.2 188.75 2452.45 132.25 2452.45 132.25 2503.2 155.75 2503.2 155.75 2509.7 165.25 2509.7 165.25 2503.2 M155.75 2643.2 L155.75 2649.7 165.25 2649.7 165.25 2643.2 188.75 2643.2 188.75 2592.45 132.25 2592.45 132.25 2643.2 155.75 2643.2 M141.75 2539.45 L141.75 2576.7 179.25 2576.7 179.25 2539.45 141.75 2539.45" fill="#485850" fill-rule="evenodd" stroke="none"/>
    <path d="M268.0 12.6 L321.0 49.0 321.0 169.6 269.0 135.6 269.0 114.6 228.0 85.6 228.0 72.6 93.0 72.6 93.0 85.6 52.0 114.6 52.0 135.6 0.0 169.6 0.0 49.0 53.0 12.6 102.0 12.6 122.0 0.6 199.0 0.6 219.0 12.6 268.0 12.6 M295.0 45.65 L267.0 45.65 267.0 55.65 295.0 55.65 295.0 45.65 M54.0 55.65 L54.0 45.65 26.0 45.65 26.0 55.65 54.0 55.65" fill="#a8a888" fill-rule="evenodd" stroke="none"/>
    <path d="M228.0 85.6 L93.0 85.6 93.0 72.6 228.0 72.6 228.0 85.6" fill="#707878" fill-rule="evenodd" stroke="none"/>
    <path d="M295.0 45.65 L295.0 55.65 267.0 55.65 267.0 45.65 295.0 45.65 M54.0 55.65 L26.0 55.65 26.0 45.65 54.0 45.65 54.0 55.65" fill="#889088" fill-rule="evenodd" stroke="none"/>
    <path d="M268.0 12.6 L268.0 0.0 321.0 49.0 268.0 12.6 M0.0 49.0 L53.0 0.0 53.0 12.6 0.0 49.0" fill="#283040" fill-rule="evenodd" stroke="none"/>
    <path d="M321.0 2301.45 L321.0 2338.45 228.0 2338.45 212.0 2326.95 212.0 2313.95 217.5 2313.95 237.5 2328.95 288.0 2328.95 288.0 2301.45 321.0 2301.45 M109.0 2313.95 L109.0 2326.95 93.0 2338.45 0.0 2338.45 0.0 2301.45 33.0 2301.45 33.0 2328.95 83.5 2328.95 103.5 2313.95 109.0 2313.95 M74.0 2403.45 L74.0 2394.95 109.5 2374.45 211.5 2374.45 247.0 2394.95 247.0 2403.45 186.0 2403.45 186.0 2383.95 135.0 2383.95 135.0 2403.45 74.0 2403.45 M72.0 2912.5 Q86.5 2904.65 101.0 2896.4 L134.0 2896.4 134.0 2901.95 187.0 2901.95 187.0 2896.4 220.0 2896.4 249.0 2912.9 249.0 2921.9 Q227.25 2915.4 205.1 2913.0 160.5 2908.9 115.9 2913.0 93.75 2915.4 72.0 2921.9 L72.0 2912.5" fill="#483828" fill-rule="evenodd" stroke="none"/>
    <path d="M33.0 769.55 L33.0 676.55 72.0 676.55 72.0 769.55 33.0 769.55" fill="url(#gradient0)" fill-rule="evenodd" stroke="none"/>
    <path d="M288.0 676.55 L288.0 769.55 249.0 769.55 249.0 676.55 288.0 676.55" fill="url(#gradient1)" fill-rule="evenodd" stroke="none"/>
    <path d="M288.0 876.55 L288.0 969.55 249.0 969.55 249.0 876.55 288.0 876.55" fill="url(#gradient2)" fill-rule="evenodd" stroke="none"/>
    <path d="M33.0 969.55 L33.0 876.55 72.0 876.55 72.0 969.55 33.0 969.55" fill="url(#gradient3)" fill-rule="evenodd" stroke="none"/>
    <path d="M33.0 1239.55 L33.0 1086.55 72.0 1086.55 72.0 1239.55 33.0 1239.55" fill="url(#gradient4)" fill-rule="evenodd" stroke="none"/>
    <path d="M288.0 1086.55 L288.0 1239.55 249.0 1239.55 249.0 1086.55 288.0 1086.55" fill="url(#gradient5)" fill-rule="evenodd" stroke="none"/>
    <path d="M288.0 2795.45 L288.0 2871.9 288.0 2921.9 249.0 2921.9 249.0 2912.9 249.0 2795.45 288.0 2795.45" fill="url(#gradient6)" fill-rule="evenodd" stroke="none"/>
    <path d="M33.0 2871.9 L33.0 2795.45 72.0 2795.45 72.0 2912.5 72.0 2921.9 33.0 2921.9 33.0 2871.9" fill="url(#gradient7)" fill-rule="evenodd" stroke="none"/>
    <path d="M197.0 3229.4 L197.0 3243.4 124.0 3243.4 124.0 3229.4 197.0 3229.4" fill="url(#gradient8)" fill-rule="evenodd" stroke="none"/>
    <path d="M189.0 3342.15 L132.0 3342.15 132.0 3330.15 189.0 3330.15 189.0 3342.15" fill="url(#gradient9)" fill-rule="evenodd" stroke="none"/>
    <path d="M87.5 3425.4 L112.5 3425.4 112.5 3465.9 87.5 3465.9 87.5 3425.4" fill="url(#gradient10)" fill-rule="evenodd" stroke="none"/>
    <path d="M233.5 3425.4 L233.5 3465.9 208.5 3465.9 208.5 3425.4 233.5 3425.4" fill="url(#gradient11)" fill-rule="evenodd" stroke="none"/>
    <path d="M8.0 1375.9 L63.5 1343.5 202.0 1343.5 202.0 1649.0 261.5 1649.0 261.5 1695.5 201.0 1774.0 201.0 1967.5 121.5 2020.0 21.0 2020.0 8.0 2012.0 8.0 1375.9 M199.0 146.4 L199.0 116.6 235.0 116.6 252.0 128.6 252.0 151.6 294.0 177.6 294.0 418.6 329.0 437.55 329.0 597.5 235.0 597.55 235.0 521.55 197.0 497.55 140.0 497.55 102.0 521.55 102.0 597.55 8.0 597.5 8.0 437.55 43.0 418.6 43.0 177.6 85.0 151.6 85.0 128.6 102.0 116.6 138.0 116.6 138.0 146.4 199.0 146.4 M329.0 1939.2 L296.4 1939.2 296.4 1791.2 329.0 1774.4 329.0 1939.2 M329.0 2725.45 L277.0 2725.45 277.0 2648.45 256.5 2634.45 256.5 2497.95 329.0 2497.95 329.0 2725.45 M188.0 2931.4 L188.0 2961.65 200.25 2961.65 200.25 2975.9 220.75 2975.9 236.25 2985.9 236.25 3030.4 231.0 3030.4 231.0 3129.4 210.5 3129.4 210.5 3109.9 203.0 3109.9 203.0 3142.9 215.0 3142.9 215.0 3186.9 208.0 3186.9 208.0 3214.4 196.0 3214.4 196.0 3230.4 141.0 3230.4 141.0 3214.4 129.0 3214.4 129.0 3186.9 122.0 3186.9 122.0 3142.9 134.0 3142.9 134.0 3109.9 126.5 3109.9 126.5 3129.4 106.0 3129.4 106.0 3030.4 100.75 3030.4 100.75 2985.9 116.25 2975.9 136.75 2975.9 136.75 2961.65 149.0 2961.65 149.0 2931.4 188.0 2931.4 M8.0 2497.95 L80.5 2497.95 80.5 2634.45 60.0 2648.45 60.0 2725.45 8.0 2725.45 8.0 2497.95 M329.0 3308.4 L273.0 3308.4 273.0 3269.9 329.0 3269.9 329.0 3308.4 M329.0 3383.4 L273.0 3383.4 273.0 3344.9 329.0 3344.9 329.0 3383.4 M64.0 3308.4 L8.0 3308.4 8.0 3269.9 64.0 3269.9 64.0 3308.4 M64.0 3344.9 L64.0 3383.4 8.0 3383.4 8.0 3344.9 64.0 3344.9" fill="#000000" fill-opacity="0.5019608" fill-rule="evenodd" stroke="none"/>
    <path d="M321.0 1758.4 L321.0 1923.2 288.4 1923.2 288.4 1775.2 321.0 1758.4 M160.55 3038.25 Q155.25 3038.25 151.55 3041.15 147.8 3044.0 147.8 3048.15 147.8 3052.25 151.55 3055.15 155.25 3058.0 160.55 3058.0 165.85 3058.0 169.6 3055.15 173.3 3052.25 173.3 3048.15 173.3 3044.0 169.6 3041.15 165.85 3038.25 160.55 3038.25 M135.85 3043.1 Q137.45 3038.05 142.55 3034.1 150.0 3028.3 160.55 3028.35 171.1 3028.3 178.6 3034.1 183.65 3038.05 185.3 3043.15 185.95 3045.2 186.05 3047.5 L186.05 3048.15 Q186.05 3056.35 178.6 3062.15 171.1 3067.9 160.55 3067.9 150.0 3067.9 142.55 3062.15 135.05 3056.35 135.05 3048.15 L135.05 3047.5 Q135.15 3045.2 135.85 3043.1" fill="#605030" fill-rule="evenodd" stroke="none"/>
    <path d="M191.0 130.4 L191.0 100.6 227.0 100.6 244.0 112.6 244.0 135.6 286.0 161.6 286.0 341.6 248.0 341.6 248.0 412.6 321.0 456.4 321.0 557.8 265.0 557.75 265.0 490.75 205.0 457.75 116.0 457.75 56.0 490.75 56.0 557.75 0.0 557.8 0.0 456.4 73.0 412.6 73.0 341.6 35.0 341.6 35.0 161.6 77.0 135.6 77.0 112.6 94.0 100.6 130.0 100.6 130.0 130.4 130.0 187.6 191.0 187.6 191.0 130.4 M0.0 1396.8 L49.0 1365.95 49.0 1979.0 33.0 1979.0 0.0 1957.8 0.0 1396.8 M110.0 1966.5 L110.0 1350.5 156.0 1350.5 156.0 1655.0 215.5 1655.0 215.5 1679.5 155.5 1758.0 155.5 1931.0 110.0 1966.55 110.0 1966.5 M321.0 2505.45 L321.0 2642.0 304.1 2632.45 284.0 2618.45 284.0 2587.95 290.0 2587.95 290.0 2571.45 284.0 2571.45 284.0 2537.95 290.0 2537.95 290.0 2521.45 284.0 2521.45 284.0 2505.45 321.0 2505.45 M0.0 2642.0 L0.0 2505.45 37.0 2505.45 37.0 2521.45 31.0 2521.45 31.0 2537.95 37.0 2537.95 37.0 2571.45 31.0 2571.45 31.0 2587.95 37.0 2587.95 37.0 2618.45 16.9 2632.45 0.0 2642.0" fill="#a8a888" fill-rule="evenodd" stroke="none"/>
    <path d="M35.0 341.6 L73.0 341.6 73.0 412.6 35.0 402.6 35.0 341.6 M265.0 557.75 L321.0 557.8 321.0 581.5 227.0 581.55 265.0 557.75 M248.0 412.6 L248.0 341.6 286.0 341.6 286.0 402.6 248.0 412.6 M73.5 1350.5 L55.5 1327.5 194.0 1327.5 156.0 1350.5 110.0 1350.5 73.5 1350.5 M253.5 1633.0 L215.5 1655.0 156.0 1655.0 194.0 1633.0 253.5 1633.0 M248.5 2481.95 L321.0 2481.95 321.0 2505.45 284.0 2505.45 248.5 2481.95 M0.0 2505.45 L0.0 2481.95 72.5 2481.95 37.0 2505.45 0.0 2505.45" fill="#708080" fill-rule="evenodd" stroke="none"/>
    <path d="M87.5 3391.45 L120.0 3390.4 120.0 3425.4 87.5 3425.4 87.5 3391.45 M233.5 3391.45 L233.5 3425.4 201.0 3425.4 201.0 3390.4 233.5 3391.45" fill="#483828" fill-rule="evenodd" stroke="none"/>
    <path d="M321.0 3253.9 L321.0 3292.4 265.0 3292.4 265.0 3253.9 321.0 3253.9 M321.0 3328.9 L321.0 3367.4 265.0 3367.4 265.0 3328.9 321.0 3328.9 M56.0 3253.9 L56.0 3292.4 0.0 3292.4 0.0 3253.9 56.0 3253.9 M56.0 3328.9 L56.0 3367.4 0.0 3367.4 0.0 3328.9 56.0 3328.9" fill="#908860" fill-rule="evenodd" stroke="none"/>
    <path d="M223.0 3068.9 L223.0 3113.4 202.5 3113.4 202.5 3093.9 202.5 3074.4 184.0 3074.4 184.0 3093.9 137.0 3093.9 137.0 3074.4 118.5 3074.4 118.5 3093.9 118.5 3113.4 98.0 3113.4 98.0 3068.9 131.5 3068.9 189.5 3068.9 223.0 3068.9 M296.5 3212.9 L296.5 3223.4 266.5 3223.4 266.5 3235.9 249.5 3235.9 236.5 3226.9 236.5 3184.4 277.0 3184.4 277.0 3212.9 296.5 3212.9 M24.5 3212.9 L44.0 3212.9 44.0 3184.4 84.5 3184.4 84.5 3226.9 71.5 3235.9 54.5 3235.9 54.5 3223.4 24.5 3223.4 24.5 3212.9" fill="#586870" fill-rule="evenodd" stroke="none"/>
    <path d="M187.0 2901.95 L134.0 2901.95 134.0 2885.45 187.0 2885.45 187.0 2901.95 M296.5 3223.4 L307.5 3229.9 276.0 3229.9 276.0 3243.4 246.5 3243.4 227.5 3228.9 227.5 3177.4 287.0 3177.4 287.0 3205.9 307.0 3205.9 296.5 3212.9 277.0 3212.9 277.0 3184.4 236.5 3184.4 236.5 3226.9 249.5 3235.9 266.5 3235.9 266.5 3223.4 296.5 3223.4 M24.5 3212.9 L14.0 3205.9 34.0 3205.9 34.0 3177.4 93.5 3177.4 93.5 3228.9 74.5 3243.4 45.0 3243.4 45.0 3229.9 13.5 3229.9 24.5 3223.4 54.5 3223.4 54.5 3235.9 71.5 3235.9 84.5 3226.9 84.5 3184.4 44.0 3184.4 44.0 3212.9 24.5 3212.9" fill="#888880" fill-rule="evenodd" stroke="none"/>
    <path d="M75.0 3088.4 L75.0 3166.4 53.0 3166.4 53.0 3152.4 35.0 3152.4 0.0 3178.0 0.0 3163.0 33.0 3140.4 54.0 3140.4 54.0 3112.4 28.0 3112.4 62.0 3088.4 75.0 3088.4 M246.0 3088.4 L259.0 3088.4 293.0 3112.4 267.0 3112.4 267.0 3140.4 288.0 3140.4 321.0 3163.0 321.0 3178.0 286.0 3152.4 268.0 3152.4 268.0 3166.4 246.0 3166.4 246.0 3088.4" fill="#303840" fill-rule="evenodd" stroke="none"/>
    <path d="M172.5 2984.65 L192.25 2984.65 199.0 2984.65 199.0 3002.65 171.5 3002.65 149.5 3002.65 122.0 3002.65 122.0 2984.65 128.75 2984.65 148.5 2984.65 172.5 2984.65 M206.5 2959.9 L212.75 2959.9 228.25 2969.9 228.25 3014.4 223.0 3014.4 206.5 3014.4 206.5 2959.9 M98.0 3014.4 L92.75 3014.4 92.75 2969.9 108.25 2959.9 114.5 2959.9 114.5 3014.4 98.0 3014.4 M149.5 3026.9 L171.5 3026.9 187.4 3029.7 189.5 3068.9 131.5 3068.9 134.0 3029.15 149.5 3026.9 M185.3 3043.15 Q183.65 3038.05 178.6 3034.1 171.1 3028.3 160.55 3028.35 150.0 3028.3 142.55 3034.1 137.45 3038.05 135.85 3043.1 135.05 3044.95 135.05 3047.0 L135.05 3047.5 135.05 3048.15 Q135.05 3056.35 142.55 3062.15 150.0 3067.9 160.55 3067.9 171.1 3067.9 178.6 3062.15 186.05 3056.35 186.05 3048.15 L186.05 3047.5 186.05 3047.0 Q186.05 3044.95 185.3 3043.15" fill="#384048" fill-rule="evenodd" stroke="none"/>
    <path d="M172.5 2945.65 L172.5 2984.65 148.5 2984.65 148.5 2945.65 172.5 2945.65 M149.5 3015.1 L149.5 3002.65 171.5 3002.65 171.5 3015.1 171.5 3026.9 149.5 3026.9 149.5 3015.1" fill="#485850" fill-rule="evenodd" stroke="none"/>
    <path d="M223.0 3062.4 L223.0 3068.9 189.5 3068.9 187.4 3029.7 171.5 3026.9 171.5 3015.1 206.5 3027.15 206.5 3062.4 223.0 3062.4 M98.0 3068.9 L98.0 3062.4 114.5 3062.4 114.5 3027.15 149.5 3015.1 149.5 3026.9 134.0 3029.15 131.5 3068.9 98.0 3068.9" fill="#4a4c5b" fill-rule="evenodd" stroke="none"/>
    <path d="M180.0 2945.65 L192.25 2945.65 192.25 2959.9 192.25 2984.65 172.5 2984.65 172.5 2945.65 180.0 2945.65 M223.0 3014.4 L223.0 3062.4 206.5 3062.4 206.5 3027.15 206.5 3014.4 223.0 3014.4 M202.5 3093.9 L195.0 3093.9 184.0 3093.9 184.0 3074.4 202.5 3074.4 202.5 3093.9 M126.0 3093.9 L118.5 3093.9 118.5 3074.4 137.0 3074.4 137.0 3093.9 126.0 3093.9 M98.0 3062.4 L98.0 3014.4 114.5 3014.4 114.5 3027.15 114.5 3062.4 98.0 3062.4 M128.75 2959.9 L128.75 2945.65 141.0 2945.65 148.5 2945.65 148.5 2984.65 128.75 2984.65 128.75 2959.9" fill="#707878" fill-rule="evenodd" stroke="none"/>
    <path d="M141.0 2930.5 L141.0 2915.4 180.0 2915.4 180.0 2930.5 168.0 2930.5 168.0 2934.9 153.0 2934.9 153.0 2930.5 141.0 2930.5" fill="#707870" fill-rule="evenodd" stroke="none"/>
    <path d="M180.0 2945.65 L172.5 2945.65 148.5 2945.65 141.0 2945.65 141.0 2930.5 153.0 2930.5 153.0 2934.9 168.0 2934.9 168.0 2930.5 180.0 2930.5 180.0 2945.65" fill="#1a1a1c" fill-rule="evenodd" stroke="none"/>
    <path d="M205.0 457.75 L265.0 490.75 265.0 557.75 227.0 581.55 227.0 505.55 189.0 481.55 205.0 457.75 M13.0 2004.0 L0.0 1996.0 0.0 1957.8 33.0 1979.0 13.0 2004.0" fill="#686870" fill-rule="evenodd" stroke="none"/>
    <path d="M192.25 2984.65 L192.25 2959.9 206.5 2959.9 206.5 3014.4 206.5 3027.15 171.5 3015.1 171.5 3002.65 199.0 3002.65 199.0 2984.65 192.25 2984.65 M114.5 2959.9 L128.75 2959.9 128.75 2984.65 122.0 2984.65 122.0 3002.65 149.5 3002.65 149.5 3015.1 114.5 3027.15 114.5 3014.4 114.5 2959.9" fill="#98a880" fill-rule="evenodd" stroke="none"/>
    <path d="M141.75 2558.05 L141.75 2539.45 179.25 2539.45 179.25 2558.05 141.75 2558.05" fill="#42382e" fill-rule="evenodd" stroke="none"/>
    <path d="M141.75 2558.05 L179.25 2558.05 179.25 2576.7 141.75 2576.7 141.75 2558.05" fill="#262628" fill-rule="evenodd" stroke="none"/>
    <path d="M0.0 557.8 L56.0 557.75 94.0 581.55 0.0 581.5 0.0 557.8 M116.0 457.75 L205.0 457.75 189.0 481.55 132.0 481.55 116.0 457.75 M49.0 1979.0 L94.0 1979.0 113.5 2004.0 13.0 2004.0 33.0 1979.0 49.0 1979.0 M156.0 1350.5 L194.0 1327.5 194.0 1633.0 156.0 1655.0 156.0 1350.5 M215.5 1679.5 L253.5 1679.5 193.0 1758.0 155.5 1758.0 215.5 1679.5 M321.0 2642.0 L321.0 2672.0 269.0 2709.45 269.0 2632.45 304.1 2632.45 321.0 2642.0 M52.0 2632.45 L52.0 2709.45 0.0 2672.0 0.0 2642.0 16.9 2632.45 52.0 2632.45" fill="#404030" fill-rule="evenodd" stroke="none"/>
    <path d="M56.0 557.75 L56.0 490.75 116.0 457.75 132.0 481.55 94.0 505.55 94.0 581.55 56.0 557.75 M94.0 1979.0 L109.9 1966.6 110.0 1966.55 155.5 1931.0 155.5 1758.0 193.0 1758.0 193.0 1951.5 113.5 2004.0 94.0 1979.0 M253.5 1633.0 L253.5 1679.5 215.5 1679.5 215.5 1655.0 253.5 1633.0 M248.5 2618.45 L248.5 2589.95 255.5 2589.95 255.5 2572.95 248.5 2565.95 248.5 2540.2 254.5 2534.95 254.5 2516.45 248.5 2510.15 248.5 2481.95 284.0 2505.45 284.0 2521.45 263.5 2521.45 263.5 2537.95 284.0 2537.95 284.0 2571.45 263.5 2571.45 263.5 2587.95 284.0 2587.95 284.0 2618.45 248.5 2618.45 M72.5 2481.95 L72.5 2510.15 66.5 2516.45 66.5 2534.95 72.5 2540.2 72.5 2565.95 65.5 2572.95 65.5 2589.95 72.5 2589.95 72.5 2618.45 37.0 2618.45 37.0 2587.95 57.5 2587.95 57.5 2571.45 37.0 2571.45 37.0 2537.95 57.5 2537.95 57.5 2521.45 37.0 2521.45 37.0 2505.45 72.5 2481.95" fill="#485048" fill-rule="evenodd" stroke="none"/>
    <path d="M73.0 412.6 L0.0 456.4 0.0 421.55 35.0 402.6 73.0 412.6 M321.0 456.4 L248.0 412.6 286.0 402.6 321.0 421.55 321.0 456.4 M73.5 1350.5 L49.0 1365.95 0.0 1396.8 0.0 1359.9 55.5 1327.5 73.5 1350.5" fill="#889088" fill-rule="evenodd" stroke="none"/>
    <path d="M321.0 2672.0 L321.0 2709.45 269.0 2709.45 321.0 2672.0 M269.0 2632.45 L248.5 2618.45 284.0 2618.45 304.1 2632.45 269.0 2632.45 M72.5 2618.45 L52.0 2632.45 16.9 2632.45 37.0 2618.45 72.5 2618.45 M52.0 2709.45 L0.0 2709.45 0.0 2672.0 52.0 2709.45" fill="#283040" fill-rule="evenodd" stroke="none"/>
    <path d="M195.0 3093.9 L195.0 3126.9 195.0 3132.9 184.0 3132.9 184.0 3093.9 195.0 3093.9 M126.0 3126.9 L126.0 3093.9 137.0 3093.9 137.0 3132.9 126.0 3132.9 126.0 3126.9" fill="#1f242e" fill-rule="evenodd" stroke="none"/>
    <path d="M126.0 3132.9 L137.0 3132.9 184.0 3132.9 195.0 3132.9 195.0 3151.4 126.0 3151.4 126.0 3132.9" fill="#5a5f63" fill-rule="evenodd" stroke="none"/>
    <path d="M248.5 2589.95 L248.5 2565.95 255.5 2572.95 255.5 2589.95 248.5 2589.95 M248.5 2540.2 L248.5 2510.15 254.5 2516.45 254.5 2534.95 248.5 2540.2 M284.0 2521.45 L290.0 2521.45 290.0 2537.95 284.0 2537.95 263.5 2537.95 263.5 2521.45 284.0 2521.45 M284.0 2571.45 L290.0 2571.45 290.0 2587.95 284.0 2587.95 263.5 2587.95 263.5 2571.45 284.0 2571.45 M72.5 2510.15 L72.5 2540.2 66.5 2534.95 66.5 2516.45 72.5 2510.15 M72.5 2565.95 L72.5 2589.95 65.5 2589.95 65.5 2572.95 72.5 2565.95 M37.0 2521.45 L57.5 2521.45 57.5 2537.95 37.0 2537.95 31.0 2537.95 31.0 2521.45 37.0 2521.45 M37.0 2571.45 L57.5 2571.45 57.5 2587.95 37.0 2587.95 31.0 2587.95 31.0 2571.45 37.0 2571.45" fill="#101010" fill-rule="evenodd" stroke="none"/>
    <path d="M49.0 1365.95 L73.5 1350.5 110.0 1350.5 110.0 1966.5 109.9 1966.6 94.0 1979.0 49.0 1979.0 49.0 1365.95 M69.0 1969.0 L69.0 1360.5 69.0 1969.0 M90.0 1961.25 L90.0 1360.55 90.0 1961.25" fill="#283840" fill-rule="evenodd" stroke="none"/>
    <path d="M191.0 130.4 L191.0 187.6 130.0 187.6 130.0 130.4 191.0 130.4" fill="url(#gradient12)" fill-rule="evenodd" stroke="none"/>
    <path d="M214.0 2020.45 L214.0 2073.45 107.0 2073.45 107.0 2020.45 214.0 2020.45" fill="url(#gradient13)" fill-rule="evenodd" stroke="none"/>
    <path d="M214.0 2158.45 L107.0 2158.45 107.0 2105.45 214.0 2105.45 214.0 2158.45" fill="url(#gradient14)" fill-rule="evenodd" stroke="none"/>
    <path d="M107.0 2195.45 L214.0 2195.45 214.0 2228.45 107.0 2228.45 107.0 2195.45" fill="url(#gradient15)" fill-rule="evenodd" stroke="none"/>
    <path d="M165.25 2503.2 L165.25 2509.7 155.75 2509.7 155.75 2503.2 132.25 2503.2 132.25 2452.45 188.75 2452.45 188.75 2503.2 165.25 2503.2" fill="url(#gradient16)" fill-rule="evenodd" stroke="none"/>
    <path d="M155.75 2643.2 L132.25 2643.2 132.25 2592.45 188.75 2592.45 188.75 2643.2 165.25 2643.2 165.25 2649.7 155.75 2649.7 155.75 2643.2" fill="url(#gradient17)" fill-rule="evenodd" stroke="none"/>
    <path d="M160.55 3038.25 Q165.85 3038.25 169.6 3041.15 173.3 3044.0 173.3 3048.15 173.3 3052.25 169.6 3055.15 165.85 3058.0 160.55 3058.0 155.25 3058.0 151.55 3055.15 147.8 3052.25 147.8 3048.15 147.8 3044.0 151.55 3041.15 155.25 3038.25 160.55 3038.25" fill="url(#gradient18)" fill-rule="evenodd" stroke="none"/>
    <path d="M195.0 3126.9 L207.0 3126.9 207.0 3170.9 200.0 3170.9 121.0 3170.9 114.0 3170.9 114.0 3126.9 126.0 3126.9 126.0 3132.9 126.0 3151.4 195.0 3151.4 195.0 3132.9 195.0 3126.9" fill="url(#gradient19)" fill-rule="evenodd" stroke="none"/>
    <path d="M137.0 3132.9 L137.0 3093.9 184.0 3093.9 184.0 3132.9 137.0 3132.9" fill="url(#gradient20)" fill-rule="evenodd" stroke="none"/>
    <path d="M200.0 3170.9 L200.0 3198.4 188.0 3198.4 188.0 3214.4 133.0 3214.4 133.0 3198.4 121.0 3198.4 121.0 3170.9 200.0 3170.9" fill="url(#gradient21)" fill-rule="evenodd" stroke="none"/>
    <path d="M237.0 2143.15 L237.0 2225.15 M84.0 2143.15 L84.0 2225.15" fill="none" stroke="#686870" stroke-linecap="round" stroke-linejoin="round" stroke-width="3.0"/>
    <path d="M90.0 1360.55 L90.0 1961.25 M69.0 1360.5 L69.0 1969.0" fill="none" stroke="#202020" stroke-linecap="round" stroke-linejoin="round" stroke-width="3.0"/>
    <path d="M277.0 2143.15 L277.0 2225.15 M44.0 2143.15 L44.0 2225.15" fill="none" stroke="#988c60" stroke-linecap="round" stroke-linejoin="round" stroke-width="3.0"/>
    <path d="M127.35 242.8 L127.35 258.55 106.0 258.55 106.0 233.55 127.35 242.8 M214.0 233.55 L214.0 258.55 192.65 258.55 192.65 242.8 214.0 233.55" fill="#603828" fill-rule="evenodd" stroke="none"/>
    <path d="M127.35 265.3 L127.35 281.05 Q116.7 285.7 106.0 290.3 L106.0 265.3 127.35 265.3 M214.0 265.3 L214.0 290.3 192.65 281.05 192.65 265.3 214.0 265.3" fill="#280000" fill-rule="evenodd" stroke="none"/>
    <path d="M134.8 237.15 L127.35 242.8 106.0 233.55 106.0 224.3 116.3 216.95 128.35 216.95 138.65 234.15 134.8 237.15 M127.35 281.05 L134.8 286.75 138.65 289.7 128.35 306.95 116.3 306.95 106.0 299.55 106.0 290.3 Q116.7 285.7 127.35 281.05 M191.65 216.95 L203.7 216.95 214.0 224.3 214.0 233.55 192.65 242.8 185.2 237.15 181.35 234.15 191.65 216.95 M214.0 290.3 L214.0 299.55 203.7 306.95 191.65 306.95 181.35 289.7 185.2 286.75 192.65 281.05 214.0 290.3" fill="#989898" fill-rule="evenodd" stroke="none"/>
    <path d="M127.35 242.8 L134.8 237.15 146.7 256.25 139.15 263.0 146.7 267.6 134.8 286.75 127.35 281.05 127.35 265.3 127.35 258.55 127.35 242.8 M134.8 237.15 L138.65 234.15 128.35 216.95 155.1 216.95 155.1 234.15 160.0 234.15 152.7 245.5 134.8 237.15 M138.65 234.15 L155.1 234.15 138.65 234.15 M164.9 216.95 L191.65 216.95 181.35 234.15 185.2 237.15 192.65 242.8 192.65 258.55 192.65 265.3 192.65 281.05 185.2 286.75 181.35 289.7 191.65 306.95 164.9 306.95 164.9 289.7 160.0 289.7 155.1 289.7 138.65 289.7 155.1 289.7 155.1 306.95 128.35 306.95 138.65 289.7 134.8 286.75 152.7 278.35 160.0 289.7 167.3 278.35 185.2 286.75 173.3 267.6 182.6 261.95 173.3 256.25 185.2 237.15 167.3 245.5 160.0 234.15 164.9 234.15 164.9 216.95 M181.35 234.15 L164.9 234.15 181.35 234.15 M181.35 289.7 L164.9 289.7 181.35 289.7" fill="#686870" fill-rule="evenodd" stroke="none"/>
    <path d="M127.35 258.55 L127.35 265.3 106.0 265.3 106.0 258.55 127.35 258.55 M160.0 234.15 L155.1 234.15 155.1 216.95 164.9 216.95 164.9 234.15 160.0 234.15 M214.0 258.55 L214.0 265.3 192.65 265.3 192.65 258.55 214.0 258.55 M164.9 306.95 L155.1 306.95 155.1 289.7 160.0 289.7 164.9 289.7 164.9 306.95" fill="#003878" fill-rule="evenodd" stroke="none"/>
    <path d="M160.0 246.75 L169.05 262.0 164.5 262.0 164.5 261.95 Q164.45 260.35 163.15 259.25 161.85 258.15 160.0 258.15 L160.0 246.75" fill="#980000" fill-rule="evenodd" stroke="none"/>
    <path d="M160.0 277.0 L150.95 262.0 155.45 262.0 155.55 262.75 Q155.8 263.8 156.75 264.65 158.05 265.7 160.0 265.75 L160.0 277.0" fill="#e80000" fill-rule="evenodd" stroke="none"/>
    <path d="M164.5 262.0 L169.05 262.0 160.05 277.05 160.0 277.05 160.0 277.0 160.0 265.75 Q158.05 265.7 156.75 264.65 155.8 263.8 155.55 262.75 L155.45 262.0 155.45 261.95 160.0 261.95 160.0 265.75 160.45 265.7 Q162.0 265.6 163.15 264.65 164.1 263.8 164.4 262.75 L164.5 262.0" fill="#700000" fill-rule="evenodd" stroke="none"/>
    <path d="M160.0 246.75 L160.0 258.15 Q158.1 258.15 156.75 259.25 155.45 260.35 155.45 261.95 L155.45 262.0 150.95 262.0 160.0 246.75" fill="#f0c0c0" fill-rule="evenodd" stroke="none"/>
    <path d="M164.5 261.95 L164.5 262.0 164.4 262.75 Q164.1 263.8 163.15 264.65 162.0 265.6 160.45 265.7 L160.0 265.75 160.0 261.95 164.5 261.95" fill="#580000" fill-rule="evenodd" stroke="none"/>
    <path d="M160.0 258.15 Q161.85 258.15 163.15 259.25 164.45 260.35 164.5 261.95 L160.0 261.95 160.0 258.15" fill="#200000" fill-rule="evenodd" stroke="none"/>
    <path d="M155.45 261.95 Q155.45 260.35 156.75 259.25 158.1 258.15 160.0 258.15 L160.0 261.95 155.45 261.95" fill="#f08888" fill-rule="evenodd" stroke="none"/>
    <path d="M134.8 286.75 L146.7 267.6 139.15 263.0 146.7 256.25 134.8 237.15 152.7 245.5 160.0 234.15 167.3 245.5 185.2 237.15 173.3 256.25 182.6 261.95 173.3 267.6 185.2 286.75 167.3 278.35 160.0 289.7 152.7 278.35 134.8 286.75 M169.05 262.0 L160.0 246.75 150.95 262.0 160.0 277.0 160.0 277.05 160.05 277.05 169.05 262.0" fill="#d8e0d8" fill-rule="evenodd" stroke="none"/>
    <path d="M128.35 216.95 L116.3 216.95 106.0 224.3 106.0 233.55 106.0 258.55 106.0 265.3 106.0 290.3 106.0 299.55 116.3 306.95 128.35 306.95 155.1 306.95 164.9 306.95 191.65 306.95 203.7 306.95 214.0 299.55 214.0 290.3 214.0 265.3 214.0 258.55 214.0 233.55 214.0 224.3 203.7 216.95 191.65 216.95 164.9 216.95 155.1 216.95 128.35 216.95" fill="none" stroke="#080830" stroke-linecap="round" stroke-linejoin="round" stroke-width="3.0"/>
    <path d="M134.8 237.15 L127.35 242.8 127.35 258.55 127.35 265.3 127.35 281.05 134.8 286.75 138.65 289.7 155.1 289.7 160.0 289.7 164.9 289.7 181.35 289.7 185.2 286.75 192.65 281.05 192.65 265.3 192.65 258.55 192.65 242.8 185.2 237.15 181.35 234.15 164.9 234.15 160.0 234.15 155.1 234.15 138.65 234.15 134.8 237.15" fill="none" stroke="#0060a8" stroke-linecap="round" stroke-linejoin="round" stroke-width="5.0"/>
    <path d="M138.65 234.15 L128.35 216.95 M138.65 289.7 L128.35 306.95 M181.35 234.15 L191.65 216.95 M191.65 306.95 L181.35 289.7" fill="none" stroke="#2888b8" stroke-linecap="round" stroke-linejoin="round" stroke-width="3.0"/>
    <path d="M134.8 286.75 L146.7 267.6 139.15 263.0 146.7 256.25 134.8 237.15 152.7 245.5 160.0 234.15 167.3 245.5 185.2 237.15 173.3 256.25 182.6 261.95 173.3 267.6 185.2 286.75 167.3 278.35 160.0 289.7 152.7 278.35 134.8 286.75" fill="none" stroke="#484858" stroke-linecap="round" stroke-linejoin="round" stroke-width="5.0"/>
    <path d="M106.0 233.55 L127.35 242.8 M127.35 281.05 Q116.7 285.7 106.0 290.3 M192.65 242.8 L214.0 233.55 M192.65 281.05 L214.0 290.3" fill="none" stroke="#003878" stroke-linecap="round" stroke-linejoin="round" stroke-width="3.0"/>
  </g>
  <defs>
    <linearGradient gradientTransform="matrix(0.0238, 0.0, 0.0, 0.0568, 52.5, 723.05)" gradientUnits="userSpaceOnUse" id="gradient0" spreadMethod="pad" x1="-819.2" x2="819.2">
      <stop offset="0.0" stop-color="#000000"/>
      <stop offset="0.5490196078431373" stop-color="#a8b0b0"/>
      <stop offset="1.0" stop-color="#80807c"/>
    </linearGradient>
    <linearGradient gradientTransform="matrix(0.0238, 0.0, 0.0, 0.0568, 268.5, 723.05)" gradientUnits="userSpaceOnUse" id="gradient1" spreadMethod="pad" x1="-819.2" x2="819.2">
      <stop offset="0.0" stop-color="#000000"/>
      <stop offset="0.5490196078431373" stop-color="#a8b0b0"/>
      <stop offset="1.0" stop-color="#80807c"/>
    </linearGradient>
    <linearGradient gradientTransform="matrix(0.0238, 0.0, 0.0, 0.0568, 268.5, 923.05)" gradientUnits="userSpaceOnUse" id="gradient2" spreadMethod="pad" x1="-819.2" x2="819.2">
      <stop offset="0.0" stop-color="#000000"/>
      <stop offset="0.5490196078431373" stop-color="#a8b0b0"/>
      <stop offset="1.0" stop-color="#80807c"/>
    </linearGradient>
    <linearGradient gradientTransform="matrix(0.0238, 0.0, 0.0, 0.0568, 52.5, 923.05)" gradientUnits="userSpaceOnUse" id="gradient3" spreadMethod="pad" x1="-819.2" x2="819.2">
      <stop offset="0.0" stop-color="#000000"/>
      <stop offset="0.5490196078431373" stop-color="#a8b0b0"/>
      <stop offset="1.0" stop-color="#80807c"/>
    </linearGradient>
    <linearGradient gradientTransform="matrix(0.0238, 0.0, 0.0, 0.0934, 52.5, 1163.05)" gradientUnits="userSpaceOnUse" id="gradient4" spreadMethod="pad" x1="-819.2" x2="819.2">
      <stop offset="0.0" stop-color="#000000"/>
      <stop offset="0.5490196078431373" stop-color="#a8b0b0"/>
      <stop offset="1.0" stop-color="#80807c"/>
    </linearGradient>
    <linearGradient gradientTransform="matrix(0.0238, 0.0, 0.0, 0.0934, 268.5, 1163.05)" gradientUnits="userSpaceOnUse" id="gradient5" spreadMethod="pad" x1="-819.2" x2="819.2">
      <stop offset="0.0" stop-color="#000000"/>
      <stop offset="0.5490196078431373" stop-color="#a8b0b0"/>
      <stop offset="1.0" stop-color="#80807c"/>
    </linearGradient>
    <linearGradient gradientTransform="matrix(0.0238, 0.0, 0.0, 0.0772, 268.5, 2858.65)" gradientUnits="userSpaceOnUse" id="gradient6" spreadMethod="pad" x1="-819.2" x2="819.2">
      <stop offset="0.0" stop-color="#000000"/>
      <stop offset="0.5490196078431373" stop-color="#a8b0b0"/>
      <stop offset="1.0" stop-color="#80807c"/>
    </linearGradient>
    <linearGradient gradientTransform="matrix(0.0238, 0.0, 0.0, 0.0772, 52.5, 2858.65)" gradientUnits="userSpaceOnUse" id="gradient7" spreadMethod="pad" x1="-819.2" x2="819.2">
      <stop offset="0.0" stop-color="#000000"/>
      <stop offset="0.5490196078431373" stop-color="#a8b0b0"/>
      <stop offset="1.0" stop-color="#80807c"/>
    </linearGradient>
    <linearGradient gradientTransform="matrix(0.0, -0.0085, 0.0446, 0.0, 160.5, 3236.4)" gradientUnits="userSpaceOnUse" id="gradient8" spreadMethod="pad" x1="-819.2" x2="819.2">
      <stop offset="0.0" stop-color="#000000"/>
      <stop offset="0.5490196078431373" stop-color="#a8b0b0"/>
      <stop offset="1.0" stop-color="#80807c"/>
    </linearGradient>
    <linearGradient gradientTransform="matrix(0.0, -0.0073, 0.0348, 0.0, 160.5, 3336.15)" gradientUnits="userSpaceOnUse" id="gradient9" spreadMethod="pad" x1="-819.2" x2="819.2">
      <stop offset="0.0" stop-color="#000000"/>
      <stop offset="0.5490196078431373" stop-color="#a8b0b0"/>
      <stop offset="1.0" stop-color="#80807c"/>
    </linearGradient>
    <linearGradient gradientTransform="matrix(0.0153, 0.0, 0.0, 0.0247, 100.0, 3445.65)" gradientUnits="userSpaceOnUse" id="gradient10" spreadMethod="pad" x1="-819.2" x2="819.2">
      <stop offset="0.0" stop-color="#000000"/>
      <stop offset="0.5490196078431373" stop-color="#a8b0b0"/>
      <stop offset="1.0" stop-color="#80807c"/>
    </linearGradient>
    <linearGradient gradientTransform="matrix(0.0153, 0.0, 0.0, 0.0247, 221.0, 3445.65)" gradientUnits="userSpaceOnUse" id="gradient11" spreadMethod="pad" x1="-819.2" x2="819.2">
      <stop offset="0.0" stop-color="#000000"/>
      <stop offset="0.5490196078431373" stop-color="#a8b0b0"/>
      <stop offset="1.0" stop-color="#80807c"/>
    </linearGradient>
    <linearGradient gradientTransform="matrix(0.0372, 0.0, 0.0, 0.0349, 160.5, 159.0)" gradientUnits="userSpaceOnUse" id="gradient12" spreadMethod="pad" x1="-819.2" x2="819.2">
      <stop offset="0.0" stop-color="#333333"/>
      <stop offset="0.5490196078431373" stop-color="#a8b0b0"/>
      <stop offset="1.0" stop-color="#80807c"/>
    </linearGradient>
    <linearGradient gradientTransform="matrix(0.0653, 0.0, 0.0, 0.0323, 160.5, 2046.95)" gradientUnits="userSpaceOnUse" id="gradient13" spreadMethod="pad" x1="-819.2" x2="819.2">
      <stop offset="0.0" stop-color="#003090"/>
      <stop offset="0.5490196078431373" stop-color="#a8b0b0"/>
      <stop offset="1.0" stop-color="#000050"/>
    </linearGradient>
    <linearGradient gradientTransform="matrix(0.0653, 0.0, 0.0, 0.0323, 160.5, 2131.95)" gradientUnits="userSpaceOnUse" id="gradient14" spreadMethod="pad" x1="-819.2" x2="819.2">
      <stop offset="0.0" stop-color="#003090"/>
      <stop offset="0.5490196078431373" stop-color="#a8b0b0"/>
      <stop offset="1.0" stop-color="#000050"/>
    </linearGradient>
    <linearGradient gradientTransform="matrix(0.0653, 0.0, 0.0, 0.0201, 160.5, 2211.95)" gradientUnits="userSpaceOnUse" id="gradient15" spreadMethod="pad" x1="-819.2" x2="819.2">
      <stop offset="0.0" stop-color="#003090"/>
      <stop offset="0.5490196078431373" stop-color="#a8b0b0"/>
      <stop offset="1.0" stop-color="#000050"/>
    </linearGradient>
    <linearGradient gradientTransform="matrix(0.0345, 0.0, 0.0, 0.0349, 160.5, 2481.05)" gradientUnits="userSpaceOnUse" id="gradient16" spreadMethod="pad" x1="-819.2" x2="819.2">
      <stop offset="0.0392156862745098" stop-color="#484858"/>
      <stop offset="0.3176470588235294" stop-color="#a8b0b0"/>
      <stop offset="0.615686274509804" stop-color="#a8b0b0"/>
      <stop offset="0.8784313725490196" stop-color="#707878"/>
    </linearGradient>
    <linearGradient gradientTransform="matrix(0.0345, 0.0, 0.0, 0.0349, 160.5, 2621.05)" gradientUnits="userSpaceOnUse" id="gradient17" spreadMethod="pad" x1="-819.2" x2="819.2">
      <stop offset="0.0392156862745098" stop-color="#484858"/>
      <stop offset="0.3176470588235294" stop-color="#a8b0b0"/>
      <stop offset="0.615686274509804" stop-color="#a8b0b0"/>
      <stop offset="0.8784313725490196" stop-color="#707878"/>
    </linearGradient>
    <radialGradient cx="0" cy="0" gradientTransform="matrix(0.0155, 0.0, 0.0, 0.0142, 158.8, 3046.05)" gradientUnits="userSpaceOnUse" id="gradient18" r="819.2" spreadMethod="pad">
      <stop offset="0.21568627450980393" stop-color="#888880"/>
      <stop offset="0.6352941176470588" stop-color="#404838"/>
    </radialGradient>
    <linearGradient gradientTransform="matrix(0.0568, 0.0, 0.0, 0.0269, 160.5, 3148.9)" gradientUnits="userSpaceOnUse" id="gradient19" spreadMethod="pad" x1="-819.2" x2="819.2">
      <stop offset="0.0392156862745098" stop-color="#484858"/>
      <stop offset="0.3176470588235294" stop-color="#a8b0b0"/>
      <stop offset="0.615686274509804" stop-color="#a8b0b0"/>
      <stop offset="0.8784313725490196" stop-color="#707878"/>
    </linearGradient>
    <linearGradient gradientTransform="matrix(0.0287, 0.0, 0.0, 0.0238, 160.5, 3113.4)" gradientUnits="userSpaceOnUse" id="gradient20" spreadMethod="pad" x1="-819.2" x2="819.2">
      <stop offset="0.0392156862745098" stop-color="#484858"/>
      <stop offset="0.3176470588235294" stop-color="#98a880"/>
      <stop offset="0.615686274509804" stop-color="#98a880"/>
      <stop offset="0.8784313725490196" stop-color="#707878"/>
    </linearGradient>
    <linearGradient gradientTransform="matrix(0.0482, 0.0, 0.0, 0.0266, 160.5, 3192.65)" gradientUnits="userSpaceOnUse" id="gradient21" spreadMethod="pad" x1="-819.2" x2="819.2">
      <stop offset="0.0392156862745098" stop-color="#484858"/>
      <stop offset="0.3176470588235294" stop-color="#98a880"/>
      <stop offset="0.615686274509804" stop-color="#98a880"/>
      <stop offset="0.8784313725490196" stop-color="#707878"/>
    </linearGradient>
  </defs>
</svg>
