<?xml version="1.0" encoding="UTF-8" standalone="no"?>
<svg xmlns:ffdec="https://www.free-decompiler.com/flash" xmlns:xlink="http://www.w3.org/1999/xlink" ffdec:objectType="shape" height="2405.05px" width="300.0px" xmlns="http://www.w3.org/2000/svg">
  <g transform="matrix(1.0, 0.0, 0.0, 1.0, 0.0, 0.0)">
    <path d="M300.0 42.45 L300.0 177.25 0.0 177.25 0.0 65.05 Q3.4 64.0 7.0 63.95 L10.0 63.9 29.0 63.7 48.0 63.45 56.5 64.2 58.9 64.95 Q61.8 66.15 65.0 65.9 L71.5 65.7 86.0 65.45 87.5 65.2 97.5 62.15 Q99.9 61.35 102.5 61.5 L111.5 61.6 Q117.6 61.45 123.45 62.85 125.0 63.2 126.4 63.9 131.1 66.15 134.65 69.55 L147.65 82.55 161.15 96.05 Q167.7 102.45 176.55 105.05 L181.0 106.05 200.0 108.5 204.5 108.8 224.0 107.85 Q226.3 107.45 228.0 106.2 L229.4 105.1 230.5 103.7 Q236.1 95.5 242.05 87.7 L245.85 83.1 Q249.65 78.85 252.35 74.1 L253.65 71.8 254.8 69.6 255.7 67.8 257.85 62.3 Q258.25 60.95 259.1 59.8 264.25 52.9 270.7 47.4 L272.4 46.1 273.6 45.35 Q275.55 44.25 278.45 43.5 287.95 41.05 297.95 42.15 L299.1 42.45 300.0 42.45" fill="#888880" fill-rule="evenodd" stroke="none"/>
    <path d="M0.0 65.05 L0.0 13.05 Q6.3 9.9 13.55 7.95 L15.45 7.5 Q20.6 6.55 26.0 6.15 30.05 5.9 33.5 7.2 35.05 7.75 36.1 8.55 40.4 11.95 44.9 13.9 47.2 14.95 49.15 16.5 50.0 17.2 51.05 17.5 55.35 18.6 60.0 18.65 65.75 18.7 71.5 18.9 L73.0 19.15 Q77.2 20.2 80.65 22.45 81.75 23.2 83.0 23.65 89.2 25.85 95.45 27.4 L98.05 28.05 108.55 30.5 113.0 31.15 Q122.45 32.0 132.0 31.55 140.15 31.15 148.05 32.5 L150.5 32.85 Q154.7 33.4 159.0 33.05 L161.5 32.85 Q171.2 32.0 180.55 33.95 L183.0 34.25 Q189.35 34.55 195.5 33.95 200.2 33.5 204.05 31.85 L206.95 30.55 Q209.25 29.5 212.0 29.05 L230.5 26.25 237.05 24.9 238.5 24.65 246.5 23.95 251.5 23.5 252.5 23.25 Q255.85 22.05 256.7 18.75 257.45 16.0 259.85 14.5 L263.1 12.35 266.4 10.05 Q267.6 9.15 268.55 8.9 L272.95 8.0 275.9 7.0 Q277.85 6.0 279.85 5.55 L283.15 4.55 286.4 3.45 288.05 2.85 289.0 2.6 292.95 1.55 296.55 0.45 298.5 0.15 300.0 0.0 300.0 42.45 299.1 42.45 297.95 42.15 Q287.95 41.05 278.45 43.5 275.55 44.25 273.6 45.35 L272.4 46.1 270.7 47.4 Q264.25 52.9 259.1 59.8 258.25 60.95 257.85 62.3 L255.7 67.8 254.8 69.6 253.65 71.8 252.35 74.1 Q249.65 78.85 245.85 83.1 L242.05 87.7 Q236.1 95.5 230.5 103.7 L229.4 105.1 228.0 106.2 Q226.3 107.45 224.0 107.85 L204.5 108.8 200.0 108.5 181.0 106.05 176.55 105.05 Q167.7 102.45 161.15 96.05 L147.65 82.55 134.65 69.55 Q131.1 66.15 126.4 63.9 125.0 63.2 123.45 62.85 117.6 61.45 111.5 61.6 L102.5 61.5 Q99.9 61.35 97.5 62.15 L87.5 65.2 86.0 65.45 71.5 65.7 65.0 65.9 Q61.8 66.15 58.9 64.95 L56.5 64.2 48.0 63.45 29.0 63.7 10.0 63.9 7.0 63.95 Q3.4 64.0 0.0 65.05" fill="#483d24" fill-rule="evenodd" stroke="none"/>
    <path d="M250.5 82.7 Q250.45 116.9 221.15 141.05 191.9 165.2 150.5 165.2 109.05 165.2 79.75 141.05 50.45 116.9 50.5 82.7 50.45 48.5 79.75 24.35 109.05 0.2 150.5 0.2 191.9 0.2 221.15 24.35 250.45 48.5 250.5 82.7" fill="url(#gradient0)" fill-rule="evenodd" stroke="none"/>
    <path d="M300.0 1748.1 L300.0 1792.65 160.0 1792.65 160.0 1842.65 160.0 1918.7 260.0 1918.7 300.0 1918.7 300.0 1932.65 160.0 1932.65 160.0 1982.65 160.0 2058.7 260.0 2058.7 300.0 2058.7 300.0 2128.5 297.0 2128.1 Q296.45 2128.05 295.7 2127.3 L293.95 2126.0 Q289.95 2123.75 286.65 2120.3 L285.3 2118.75 Q283.55 2116.7 280.95 2116.6 279.95 2116.55 279.15 2115.85 L271.2 2108.75 269.75 2107.2 Q268.1 2105.15 266.3 2103.65 L263.85 2101.15 Q260.65 2097.15 255.95 2097.0 L241.95 2097.5 236.0 2098.35 Q234.95 2098.55 233.95 2099.05 230.45 2100.7 225.95 2100.15 223.2 2099.85 221.8 2098.2 214.95 2090.05 207.65 2084.55 207.0 2084.05 206.05 2083.8 204.3 2083.3 203.25 2081.5 203.0 2081.05 202.05 2080.85 L197.85 2079.5 Q195.5 2078.65 195.6 2077.6 195.7 2076.5 192.9 2076.4 190.1 2076.3 188.5 2074.25 186.9 2072.2 182.7 2070.9 L176.6 2068.8 Q174.75 2068.0 173.15 2067.75 171.55 2067.5 169.6 2066.05 167.6 2064.55 166.3 2064.25 L162.45 2064.05 Q159.9 2064.2 158.0 2066.05 158.05 2078.6 158.35 2089.75 L145.95 2089.75 146.0 2085.05 Q146.0 2084.05 145.5 2083.4 143.65 2080.95 144.1 2076.05 144.55 2071.15 143.3 2066.95 L142.6 2065.25 Q142.0 2064.05 140.85 2063.85 L131.0 2063.2 124.0 2063.75 Q116.85 2064.7 110.05 2067.15 L107.95 2067.75 104.1 2068.5 Q85.75 2072.7 67.95 2078.9 66.0 2079.55 64.2 2080.45 L61.8 2081.5 40.0 2089.1 Q31.05 2092.1 23.15 2095.4 21.5 2096.1 20.3 2097.35 15.7 2102.2 9.85 2104.7 9.0 2105.05 8.3 2105.5 4.45 2107.95 0.0 2109.3 L0.0 2058.7 40.0 2058.7 140.0 2058.7 140.0 1982.65 140.0 1932.65 0.0 1932.65 0.0 1918.7 40.0 1918.7 140.0 1918.7 140.0 1842.65 140.0 1792.65 0.0 1792.65 0.0 1748.1 300.0 1748.1 M107.55 1540.55 L94.1 1540.15 91.4 1540.75 89.05 1541.35 86.95 1541.85 85.0 1542.1 Q84.0 1542.1 83.4 1542.4 L82.5 1542.6 Q76.95 1542.55 71.5 1542.85 L70.5 1542.6 Q67.45 1540.85 64.15 1537.45 L59.8 1533.3 58.1 1531.95 56.4 1530.75 Q53.15 1528.45 49.05 1526.9 44.85 1525.3 40.5 1524.5 L39.0 1524.2 38.15 1523.85 37.4 1523.2 Q35.7 1521.1 34.05 1518.05 L32.7 1515.5 32.45 1514.6 32.1 1510.1 Q31.7 1506.55 32.35 1504.05 L32.7 1502.65 32.75 1502.1 Q32.75 1501.15 34.0 1500.6 34.15 1498.1 35.85 1495.95 L37.0 1494.1 Q39.7 1489.05 44.9 1486.4 47.1 1485.3 48.95 1483.55 L51.0 1481.6 Q52.4 1480.3 52.85 1478.55 53.5 1475.85 52.1 1474.5 50.7 1473.2 51.45 1471.25 51.5 1471.1 52.0 1471.1 55.25 1470.95 56.65 1467.65 L57.25 1466.0 57.5 1464.1 Q57.55 1461.75 57.2 1459.55 57.0 1458.35 57.1 1457.1 57.15 1455.9 58.25 1454.85 L59.85 1453.4 61.15 1452.3 62.9 1450.95 Q65.2 1449.25 68.0 1448.7 69.1 1448.5 69.2 1447.1 L69.55 1445.6 71.8 1439.2 72.3 1438.0 72.7 1437.2 Q73.15 1436.3 74.6 1435.2 79.5 1431.5 86.0 1431.2 L90.05 1430.85 93.5 1430.75 97.5 1431.05 109.0 1431.5 Q112.35 1431.5 114.65 1429.3 116.05 1428.0 118.1 1426.75 120.65 1425.15 123.35 1424.2 L125.1 1423.25 126.5 1422.65 Q129.65 1421.7 132.45 1420.5 L133.0 1420.35 137.5 1420.05 146.05 1419.35 149.5 1419.05 Q151.5 1419.0 153.2 1420.35 L153.95 1420.75 162.65 1424.45 163.0 1424.6 163.95 1425.15 Q171.7 1429.95 181.5 1429.7 186.0 1429.55 189.6 1432.0 L191.4 1433.2 Q193.1 1434.35 194.9 1434.9 L195.9 1435.65 197.95 1438.6 Q198.8 1439.9 200.45 1441.15 L201.45 1442.15 Q204.15 1445.2 208.1 1447.4 L208.95 1447.75 215.0 1449.6 Q220.15 1451.45 226.0 1451.2 229.5 1451.1 233.0 1451.35 233.25 1451.35 233.45 1451.6 234.3 1452.7 236.45 1453.0 237.0 1453.1 237.6 1453.35 L238.9 1453.85 Q239.75 1454.15 240.35 1454.75 241.35 1455.85 242.4 1456.35 L243.5 1457.1 Q247.2 1460.9 252.6 1462.8 L254.45 1463.25 260.0 1464.65 Q277.05 1479.15 260.0 1493.6 256.3 1496.4 253.25 1498.9 L252.75 1499.45 252.05 1500.15 Q251.25 1500.65 251.1 1501.55 251.0 1502.1 250.5 1502.6 246.65 1506.4 244.0 1510.1 L242.7 1512.2 241.7 1513.9 240.65 1515.25 Q237.25 1519.1 232.05 1520.25 230.65 1520.55 229.4 1521.45 L226.55 1523.2 224.95 1523.95 224.0 1524.1 222.4 1524.3 220.5 1524.45 201.0 1523.45 193.0 1524.2 Q191.35 1524.5 190.1 1525.25 L188.05 1526.65 183.5 1529.6 Q181.25 1530.75 179.95 1532.55 L179.65 1533.15 Q178.65 1535.55 176.6 1537.2 L174.9 1538.45 Q172.2 1540.25 169.0 1540.25 159.5 1540.1 150.0 1540.35 L149.35 1540.4 148.0 1540.6 147.9 1540.65 135.5 1544.05 133.5 1544.5 Q130.9 1544.8 128.35 1545.75 126.75 1546.35 125.0 1546.55 121.1 1546.95 118.0 1545.05 116.35 1544.05 114.55 1543.45 L112.85 1542.8 109.45 1541.2 Q108.75 1540.85 108.0 1540.65 L107.55 1540.55 M113.55 1449.15 L112.4 1449.95 Q108.0 1452.55 106.5 1458.1 106.25 1459.1 105.65 1459.8 104.25 1461.4 104.3 1463.6 104.35 1465.0 103.6 1465.7 L104.05 1466.05 104.7 1466.75 105.1 1468.1 Q105.35 1469.95 104.5 1470.65 L103.95 1471.05 Q99.3 1474.3 95.85 1478.45 93.9 1480.8 91.5 1482.55 L90.15 1483.75 89.35 1484.35 Q88.05 1485.2 87.05 1486.65 L84.85 1489.45 Q82.35 1492.35 80.1 1495.7 L78.85 1497.5 77.85 1499.25 Q77.5 1500.1 77.4 1501.1 77.1 1504.75 78.55 1508.05 L81.15 1513.5 Q82.1 1515.35 84.0 1515.3 L95.0 1514.85 95.55 1514.8 97.5 1514.5 113.0 1513.6 113.95 1513.75 Q116.7 1514.55 119.5 1515.65 121.4 1516.35 123.5 1516.3 132.95 1516.05 142.0 1514.5 142.75 1514.35 143.35 1513.9 144.65 1513.0 146.05 1512.25 L148.3 1510.85 153.9 1507.0 155.1 1506.4 Q156.95 1505.7 158.55 1504.15 161.0 1501.75 164.5 1501.05 L166.45 1500.5 Q170.8 1499.0 175.5 1499.5 L177.45 1499.8 181.6 1500.85 184.35 1501.9 Q187.6 1503.25 190.95 1503.75 195.9 1504.55 199.15 1501.25 L200.3 1499.95 Q202.55 1497.3 205.05 1495.2 L206.3 1493.95 207.1 1492.65 Q207.5 1491.85 208.1 1491.2 209.95 1489.2 210.75 1486.7 211.0 1485.85 211.7 1485.4 L215.45 1482.55 Q216.25 1481.85 216.4 1481.0 216.9 1478.35 218.95 1476.55 L220.0 1475.6 Q221.45 1474.2 221.1 1472.1 L220.8 1470.65 Q219.6 1466.05 217.0 1463.6 216.5 1463.1 215.9 1462.95 212.3 1461.9 209.4 1459.2 207.45 1457.3 204.95 1456.25 202.45 1455.15 200.4 1453.75 L199.2 1452.9 Q195.8 1450.0 192.45 1448.2 L191.0 1447.9 Q189.35 1448.0 188.35 1446.75 L187.55 1446.05 Q185.6 1444.8 184.0 1444.05 L181.95 1443.45 177.5 1443.0 164.0 1443.55 163.1 1443.8 160.4 1445.45 159.15 1446.3 Q156.45 1448.3 153.0 1448.0 L148.5 1447.85 Q146.15 1447.85 144.0 1447.05 142.75 1446.6 141.45 1446.5 139.1 1446.25 137.05 1445.45 L136.5 1445.35 130.0 1445.1 126.0 1445.3 119.45 1446.4 117.6 1446.9 Q115.45 1447.7 113.55 1449.15" fill="#605030" fill-rule="evenodd" stroke="none"/>
    <path d="M300.0 2128.5 L300.0 2204.25 299.9 2204.25 Q291.85 2203.2 288.0 2199.0 285.2 2195.95 279.85 2194.35 L278.15 2193.65 Q276.95 2193.05 275.75 2192.75 L269.95 2192.2 Q263.25 2192.5 256.75 2195.7 251.5 2198.3 244.95 2198.0 235.65 2197.6 227.05 2195.7 L225.85 2195.35 Q219.1 2193.2 216.0 2187.05 215.5 2186.05 215.35 2185.0 L214.7 2179.1 Q214.15 2174.05 216.7 2171.75 L217.95 2170.0 Q220.25 2164.7 224.2 2162.5 224.95 2162.05 225.95 2161.95 234.15 2161.05 242.1 2158.5 L244.65 2157.45 Q249.1 2155.2 250.8 2150.0 251.45 2148.05 252.75 2147.0 254.8 2145.25 253.8 2142.1 253.45 2141.05 253.45 2140.05 253.4 2137.35 251.85 2135.1 L248.95 2130.05 Q248.45 2129.05 247.65 2128.75 242.8 2126.75 238.0 2124.0 234.6 2122.0 231.0 2122.5 L229.85 2122.8 Q226.3 2124.4 221.0 2124.15 L217.15 2123.55 Q213.6 2122.6 209.7 2122.1 L208.0 2121.9 Q195.95 2120.6 187.95 2115.1 183.95 2112.35 179.95 2108.1 L177.8 2106.4 Q174.05 2104.35 169.0 2105.2 163.4 2106.15 160.85 2103.15 158.75 2100.65 158.55 2096.05 L158.45 2094.05 158.35 2089.75 Q158.05 2078.6 158.0 2066.05 159.9 2064.2 162.45 2064.05 L166.3 2064.25 Q167.6 2064.55 169.6 2066.05 171.55 2067.5 173.15 2067.75 174.75 2068.0 176.6 2068.8 L182.7 2070.9 Q186.9 2072.2 188.5 2074.25 190.1 2076.3 192.9 2076.4 195.7 2076.5 195.6 2077.6 195.5 2078.65 197.85 2079.5 L202.05 2080.85 Q203.0 2081.05 203.25 2081.5 204.3 2083.3 206.05 2083.8 207.0 2084.05 207.65 2084.55 214.95 2090.05 221.8 2098.2 223.2 2099.85 225.95 2100.15 230.45 2100.7 233.95 2099.05 234.95 2098.55 236.0 2098.35 L241.95 2097.5 255.95 2097.0 Q260.65 2097.15 263.85 2101.15 L266.3 2103.65 Q268.1 2105.15 269.75 2107.2 L271.2 2108.75 279.15 2115.85 Q279.95 2116.55 280.95 2116.6 283.55 2116.7 285.3 2118.75 L286.65 2120.3 Q289.95 2123.75 293.95 2126.0 L295.7 2127.3 Q296.45 2128.05 297.0 2128.1 L300.0 2128.5 M0.0 2258.7 L0.0 2109.3 Q4.45 2107.95 8.3 2105.5 9.0 2105.05 9.85 2104.7 15.7 2102.2 20.3 2097.35 21.5 2096.1 23.15 2095.4 31.05 2092.1 40.0 2089.1 L61.8 2081.5 64.2 2080.45 Q66.0 2079.55 67.95 2078.9 85.75 2072.7 104.1 2068.5 L107.95 2067.75 110.05 2067.15 Q116.85 2064.7 124.0 2063.75 L131.0 2063.2 140.85 2063.85 Q142.0 2064.05 142.6 2065.25 L143.3 2066.95 Q144.55 2071.15 144.1 2076.05 143.65 2080.95 145.5 2083.4 146.0 2084.05 146.0 2085.05 L145.95 2089.75 145.55 2097.0 145.2 2098.15 Q144.15 2100.35 143.35 2101.35 142.2 2102.8 138.95 2102.55 L125.0 2102.0 124.0 2102.0 101.05 2102.9 Q99.0 2103.05 97.05 2104.15 94.25 2105.65 91.25 2106.3 90.0 2106.55 88.6 2107.25 L85.15 2108.6 Q83.5 2109.05 82.1 2110.15 80.95 2111.0 79.2 2111.65 78.0 2112.05 77.35 2113.25 75.65 2116.25 75.5 2119.1 75.5 2119.55 76.1 2119.9 80.65 2122.5 85.9 2124.35 88.0 2125.05 90.05 2125.95 100.05 2130.3 109.05 2137.0 116.65 2142.65 115.35 2153.1 L114.6 2159.0 Q114.1 2163.25 110.15 2163.85 109.0 2164.05 107.8 2164.65 L106.0 2165.2 Q103.75 2165.5 101.7 2166.35 L98.1 2167.5 93.9 2168.6 90.0 2169.05 Q75.5 2169.05 61.0 2169.45 58.75 2169.5 56.9 2170.9 L55.0 2172.05 Q47.55 2175.65 43.8 2180.9 L41.85 2182.85 Q32.75 2188.95 23.15 2193.4 20.7 2194.55 18.0 2194.95 16.15 2195.25 14.7 2196.75 L12.5 2199.4 Q12.0 2200.05 11.65 2200.95 10.9 2202.95 9.5 2204.5 9.0 2205.05 8.65 2205.9 5.65 2213.75 10.5 2220.4 L11.4 2221.85 13.55 2226.25 Q14.5 2228.1 14.65 2230.1 15.0 2235.1 14.6 2240.0 L14.4 2242.1 13.7 2248.0 Q13.3 2251.75 14.5 2253.4 15.0 2254.05 14.55 2254.8 12.3 2258.75 8.0 2258.65 L0.0 2258.7 M160.0 1842.65 L260.0 1842.65 260.0 1918.7 160.0 1918.7 160.0 1842.65 M40.0 1842.65 L140.0 1842.65 140.0 1918.7 40.0 1918.7 40.0 1842.65 M140.0 1982.65 L140.0 2058.7 40.0 2058.7 40.0 1982.65 140.0 1982.65 M160.0 1982.65 L260.0 1982.65 260.0 2058.7 160.0 2058.7 160.0 1982.65" fill="#506020" fill-rule="evenodd" stroke="none"/>
    <path d="M113.55 1449.15 Q115.45 1447.7 117.6 1446.9 L119.45 1446.4 126.0 1445.3 130.0 1445.1 136.5 1445.35 137.05 1445.45 Q139.1 1446.25 141.45 1446.5 142.75 1446.6 144.0 1447.05 146.15 1447.85 148.5 1447.85 L153.0 1448.0 Q156.45 1448.3 159.15 1446.3 L160.4 1445.45 163.1 1443.8 164.0 1443.55 177.5 1443.0 181.95 1443.45 184.0 1444.05 Q185.6 1444.8 187.55 1446.05 L188.35 1446.75 Q189.35 1448.0 191.0 1447.9 L192.45 1448.2 Q195.8 1450.0 199.2 1452.9 L200.4 1453.75 Q202.45 1455.15 204.95 1456.25 207.45 1457.3 209.4 1459.2 212.3 1461.9 215.9 1462.95 216.5 1463.1 217.0 1463.6 219.6 1466.05 220.8 1470.65 L221.1 1472.1 Q221.45 1474.2 220.0 1475.6 L218.95 1476.55 Q216.9 1478.35 216.4 1481.0 216.25 1481.85 215.45 1482.55 L211.7 1485.4 Q211.0 1485.85 210.75 1486.7 209.95 1489.2 208.1 1491.2 207.5 1491.85 207.1 1492.65 L206.3 1493.95 205.05 1495.2 Q202.55 1497.3 200.3 1499.95 L199.15 1501.25 Q195.9 1504.55 190.95 1503.75 187.6 1503.25 184.35 1501.9 L181.6 1500.85 177.45 1499.8 175.5 1499.5 Q170.8 1499.0 166.45 1500.5 L164.5 1501.05 Q161.0 1501.75 158.55 1504.15 156.95 1505.7 155.1 1506.4 L153.9 1507.0 148.3 1510.85 146.05 1512.25 Q144.65 1513.0 143.35 1513.9 142.75 1514.35 142.0 1514.5 132.95 1516.05 123.5 1516.3 121.4 1516.35 119.5 1515.65 116.7 1514.55 113.95 1513.75 L113.0 1513.6 97.5 1514.5 95.55 1514.8 95.0 1514.85 84.0 1515.3 Q82.1 1515.35 81.15 1513.5 L78.55 1508.05 Q77.1 1504.75 77.4 1501.1 77.5 1500.1 77.85 1499.25 L78.85 1497.5 80.1 1495.7 Q82.35 1492.35 84.85 1489.45 L87.05 1486.65 Q88.05 1485.2 89.35 1484.35 L90.15 1483.75 91.5 1482.55 Q93.9 1480.8 95.85 1478.45 99.3 1474.3 103.95 1471.05 L104.5 1470.65 Q105.35 1469.95 105.1 1468.1 L104.7 1466.75 104.05 1466.05 103.6 1465.7 Q104.35 1465.0 104.3 1463.6 104.25 1461.4 105.65 1459.8 106.25 1459.1 106.5 1458.1 108.0 1452.55 112.4 1449.95 L113.55 1449.15 M150.0 1458.55 L147.5 1458.35 136.0 1459.05 135.05 1459.25 Q132.35 1460.15 129.6 1461.75 L128.4 1462.45 127.2 1463.3 125.25 1464.7 Q124.25 1465.3 124.5 1467.05 123.7 1468.2 124.45 1468.3 L124.8 1468.65 Q125.0 1470.1 124.8 1471.55 L124.65 1472.15 124.25 1472.85 Q123.9 1473.25 123.65 1474.15 L123.3 1475.0 Q120.95 1480.35 122.55 1486.1 L122.85 1487.6 123.25 1489.55 123.55 1491.6 Q123.7 1495.2 126.45 1496.65 L127.6 1497.8 Q128.3 1499.25 129.95 1499.8 L131.95 1499.95 135.45 1499.0 Q136.5 1498.6 137.55 1498.35 138.8 1498.0 139.2 1497.2 139.7 1496.1 141.55 1495.25 L144.45 1494.05 Q146.25 1493.35 147.85 1492.35 151.65 1490.0 156.0 1490.3 L162.5 1490.6 166.45 1490.35 176.5 1489.7 Q180.15 1489.75 183.4 1487.95 184.5 1487.35 185.6 1487.2 187.0 1487.0 188.0 1486.1 188.25 1485.85 188.55 1485.75 192.7 1484.6 196.0 1481.1 L197.05 1480.2 Q197.95 1479.55 197.85 1478.6 197.55 1476.15 197.5 1473.6 L197.35 1472.65 Q196.75 1471.2 197.05 1469.6 197.6 1466.85 196.0 1465.1 L195.65 1464.55 195.25 1463.8 Q193.1 1461.0 189.5 1457.6 189.0 1457.1 188.4 1456.85 L187.1 1456.35 185.95 1456.0 Q180.8 1455.15 176.4 1457.4 L174.6 1458.3 172.4 1459.05 166.0 1459.6 164.05 1459.4 161.0 1459.1 150.0 1458.55" fill="#283040" fill-rule="evenodd" stroke="none"/>
    <path d="M300.0 109.3 L300.0 237.4 Q297.25 234.25 294.45 232.8 290.55 230.85 286.0 229.15 L280.05 227.05 Q274.95 225.4 270.0 223.25 266.0 221.55 262.4 219.4 260.85 218.45 259.55 217.15 L256.1 214.1 Q255.25 213.45 254.7 212.6 253.5 210.7 251.0 210.55 241.35 209.9 231.5 210.4 L223.45 209.95 221.05 209.45 218.95 208.95 Q214.05 207.7 209.45 205.75 200.5 201.95 191.0 199.75 187.15 198.85 183.6 197.0 L181.4 196.1 Q178.75 195.35 176.5 194.2 175.5 193.7 174.45 193.5 L171.5 193.0 160.5 192.5 143.0 192.7 137.55 192.4 133.45 191.9 Q124.05 190.5 114.5 191.6 L108.6 192.65 103.9 193.8 Q99.3 195.0 94.95 197.05 L91.95 197.95 Q89.3 198.35 86.9 199.5 L80.5 202.15 77.45 203.1 Q73.2 204.15 69.05 205.35 67.0 205.95 65.1 206.9 L55.5 211.7 Q47.7 215.65 39.4 218.45 37.25 219.2 35.2 220.15 32.8 221.25 30.0 221.4 25.9 221.6 21.95 223.1 17.4 224.85 12.5 224.95 L0.0 225.2 0.0 112.0 6.45 113.8 9.0 114.25 Q10.8 114.25 11.95 115.25 12.65 115.8 14.0 115.9 14.75 115.95 15.4 116.35 L22.5 120.7 Q23.75 121.45 25.1 122.0 27.25 122.95 29.55 123.35 L38.0 124.4 Q38.75 124.45 39.35 124.9 L42.5 127.2 Q43.5 127.95 44.15 128.95 45.85 131.45 48.45 133.3 L57.1 139.05 Q61.0 141.45 64.45 144.3 L66.15 145.35 Q70.55 147.3 75.5 146.8 85.15 145.8 94.5 143.3 L96.9 142.45 Q101.6 140.55 107.0 139.55 L112.0 138.9 116.45 138.45 Q125.55 137.35 134.5 134.65 L138.9 133.0 143.65 131.05 148.35 129.35 150.0 128.7 155.05 126.25 Q163.25 121.6 170.6 115.85 L172.8 114.0 Q176.2 110.9 179.3 109.25 181.7 107.95 183.75 107.3 L185.2 106.7 Q192.0 103.95 199.0 102.45 L205.5 101.45 208.8 101.0 Q220.0 100.0 231.6 102.15 L231.5 102.25 234.2 102.65 236.9 103.3 237.4 103.45 240.55 104.55 249.95 108.35 254.05 110.05 258.55 111.4 Q264.65 112.6 271.0 112.3 L276.5 111.95 282.5 111.35 300.0 109.3" fill="#888880" fill-rule="evenodd" stroke="none"/>
    <path d="M300.0 237.4 L300.0 281.2 292.0 281.2 Q291.5 281.2 291.35 281.4 290.5 282.75 289.0 282.9 287.8 283.0 286.65 283.9 L285.85 284.35 Q283.05 285.45 280.0 285.95 L280.0 439.35 300.0 439.35 300.0 843.15 Q297.65 842.35 295.0 842.2 294.25 842.15 293.7 842.5 291.0 844.15 287.5 843.55 L286.0 843.4 Q284.4 843.4 283.15 842.5 277.95 838.65 272.5 835.7 L270.45 834.75 267.6 833.45 Q263.25 831.2 258.5 829.65 L257.05 829.05 Q253.0 827.1 248.5 826.2 246.1 825.7 244.05 824.6 242.6 823.85 241.0 823.9 235.5 824.15 230.0 823.95 L227.5 823.85 211.0 823.65 209.6 823.45 207.9 822.9 206.55 822.5 201.5 821.1 Q200.75 820.9 200.2 820.4 197.2 817.85 194.0 815.65 L188.5 811.65 186.4 810.3 Q182.75 808.25 179.5 805.65 176.2 802.95 173.05 800.1 169.8 797.2 164.45 795.8 156.65 793.75 148.5 794.1 L146.6 794.45 145.05 794.85 144.65 795.2 144.25 796.0 137.55 806.15 Q135.25 809.6 133.85 813.1 L133.45 813.5 Q132.2 813.85 131.05 814.75 127.95 817.05 124.45 818.5 L119.05 820.75 Q117.5 821.4 115.9 821.65 113.4 822.05 111.0 823.2 L108.95 823.75 98.5 824.15 80.0 824.15 79.05 824.3 Q74.85 825.65 71.1 828.75 L68.8 830.3 Q66.35 831.65 64.95 833.6 L64.5 834.15 Q60.8 837.75 56.6 840.3 52.55 842.7 48.05 845.7 43.1 848.95 38.6 852.75 L36.4 854.5 Q33.4 856.9 34.1 860.65 L34.4 862.15 34.7 863.6 35.05 865.2 Q35.5 870.4 35.25 875.65 35.25 876.15 34.85 876.4 L34.0 876.75 30.45 877.55 28.0 877.85 Q21.3 877.75 15.05 879.25 L6.95 881.45 4.1 882.4 0.9 883.35 0.0 883.6 0.0 439.35 20.0 439.35 20.0 284.45 Q17.15 285.95 14.55 287.8 11.25 290.2 7.5 292.2 3.85 294.2 0.0 295.75 L0.0 225.2 12.5 224.95 Q17.4 224.85 21.95 223.1 25.9 221.6 30.0 221.4 32.8 221.25 35.2 220.15 37.25 219.2 39.4 218.45 47.7 215.65 55.5 211.7 L65.1 206.9 Q67.0 205.95 69.05 205.35 73.2 204.15 77.45 203.1 L80.5 202.15 86.9 199.5 Q89.3 198.35 91.95 197.95 L94.95 197.05 Q99.3 195.0 103.9 193.8 L108.6 192.65 114.5 191.6 Q124.05 190.5 133.45 191.9 L137.55 192.4 143.0 192.7 160.5 192.5 171.5 193.0 174.45 193.5 Q175.5 193.7 176.5 194.2 178.75 195.35 181.4 196.1 L183.6 197.0 Q187.15 198.85 191.0 199.75 200.5 201.95 209.45 205.75 214.05 207.7 218.95 208.95 L221.05 209.45 223.45 209.95 231.5 210.4 Q241.35 209.9 251.0 210.55 253.5 210.7 254.7 212.6 255.25 213.45 256.1 214.1 L259.55 217.15 Q260.85 218.45 262.4 219.4 266.0 221.55 270.0 223.25 274.95 225.4 280.05 227.05 L286.0 229.15 Q290.55 230.85 294.45 232.8 297.25 234.25 300.0 237.4 M0.0 1263.3 L0.0 1181.25 2.35 1180.8 5.25 1180.45 Q20.1 1179.45 33.15 1184.0 L40.45 1186.3 Q43.65 1187.15 46.65 1189.05 L50.05 1191.35 51.85 1192.9 Q56.5 1197.7 61.3 1199.55 L62.5 1200.15 Q63.75 1201.0 65.25 1201.65 69.9 1203.5 72.7 1205.45 74.1 1206.45 75.0 1207.9 73.3 1209.1 69.85 1210.05 64.45 1211.4 59.35 1213.0 57.75 1213.45 56.5 1214.35 L55.45 1215.3 Q50.4 1221.05 43.65 1226.1 37.9 1230.3 32.25 1235.25 31.05 1236.25 31.2 1237.75 L31.5 1243.35 Q31.5 1249.7 24.9 1252.85 L20.1 1254.85 16.6 1256.0 11.95 1257.4 8.25 1258.25 Q3.9 1258.85 2.25 1261.35 L0.0 1263.3 M299.5 1300.6 L300.0 1300.85 300.0 1560.1 0.0 1560.1 0.0 1386.6 Q3.85 1385.6 8.0 1385.85 L16.0 1385.9 Q18.6 1385.8 21.0 1386.6 23.15 1387.3 25.55 1388.55 27.4 1389.5 28.65 1391.5 L29.4 1392.65 32.5 1397.1 33.85 1399.2 35.2 1401.5 35.9 1402.7 Q36.8 1404.05 38.5 1404.65 L39.55 1404.95 43.5 1406.05 51.0 1408.2 Q57.75 1409.75 65.0 1409.4 L66.5 1409.6 69.5 1410.6 Q72.85 1411.55 76.5 1411.35 81.0 1411.1 85.5 1411.2 L97.0 1410.5 98.95 1409.95 Q107.85 1406.25 116.95 1404.0 L118.0 1403.65 Q120.6 1402.7 123.5 1403.15 L127.65 1404.25 129.5 1404.75 131.0 1405.1 Q133.85 1405.95 137.0 1405.75 L141.0 1405.45 Q143.45 1405.3 144.1 1402.65 L144.55 1401.65 146.8 1398.45 147.7 1397.25 148.45 1396.55 Q152.65 1393.75 157.5 1392.5 L161.95 1391.0 Q164.65 1389.8 167.45 1389.25 L169.05 1388.9 171.95 1388.3 174.05 1387.8 Q177.15 1386.9 180.5 1387.0 L189.45 1387.5 191.1 1387.9 192.45 1388.25 196.0 1388.75 Q198.2 1388.9 199.95 1387.55 200.5 1387.1 201.1 1386.75 L203.95 1385.0 Q205.25 1384.15 207.45 1383.45 L207.8 1383.05 Q208.3 1380.9 208.3 1378.6 208.3 1377.35 209.15 1376.3 L210.2 1374.7 Q211.0 1373.15 212.15 1371.75 213.25 1370.4 213.25 1368.6 L213.55 1368.15 Q215.9 1366.25 219.95 1364.0 221.9 1362.9 223.95 1362.4 224.25 1362.35 224.35 1362.05 224.8 1360.3 223.85 1358.85 223.5 1358.35 223.5 1357.6 L223.25 1347.1 223.25 1346.1 223.5 1345.1 225.7 1340.7 Q226.9 1338.45 228.3 1336.45 L230.4 1333.55 231.15 1332.75 Q232.3 1331.65 233.1 1331.3 233.85 1330.95 233.75 1329.6 L233.85 1328.55 Q234.5 1325.7 237.35 1324.3 L239.1 1323.25 Q240.0 1322.6 241.05 1322.2 245.5 1320.6 250.5 1320.95 254.95 1321.25 259.1 1322.85 L260.5 1323.1 Q263.15 1323.15 265.2 1321.3 266.25 1320.35 267.4 1319.5 L269.1 1318.2 Q273.15 1315.15 277.45 1312.5 280.6 1310.55 283.05 1307.65 L283.95 1306.55 Q285.75 1304.6 288.9 1302.95 L292.0 1301.1 Q295.65 1298.6 299.5 1300.6 M300.0 1601.1 L300.0 1719.1 0.0 1719.1 0.0 1601.1 300.0 1601.1 M299.9 2204.25 L300.0 2204.3 300.0 2272.2 294.5 2272.35 293.5 2272.25 289.0 2271.85 287.95 2271.7 286.1 2271.3 283.5 2271.1 Q282.4 2271.25 282.25 2270.0 282.0 2268.0 280.5 2267.65 L280.05 2267.55 279.5 2267.55 275.05 2266.95 274.0 2266.8 Q272.8 2266.85 272.0 2266.05 L267.4 2261.65 Q267.0 2261.3 266.45 2261.2 265.75 2261.05 265.35 2260.7 263.35 2258.85 261.05 2258.35 256.25 2257.3 251.45 2258.45 L250.5 2258.6 Q246.2 2259.05 241.95 2260.3 238.95 2261.2 236.05 2262.25 232.25 2263.65 228.0 2263.15 222.75 2262.5 219.95 2257.55 217.75 2253.6 213.5 2252.6 L211.1 2251.8 Q208.2 2250.5 205.0 2250.75 202.0 2250.95 199.5 2250.0 199.0 2249.8 198.8 2249.4 L196.7 2244.95 196.25 2244.2 194.45 2241.6 Q194.25 2241.3 194.0 2241.3 L185.0 2241.05 178.0 2240.8 Q174.95 2240.55 172.5 2241.55 L170.5 2242.0 169.6 2242.25 167.0 2243.6 165.0 2244.5 154.55 2249.2 Q151.95 2250.4 149.0 2250.7 L147.0 2250.9 130.5 2251.55 Q130.0 2251.55 129.85 2251.8 129.5 2252.3 129.4 2253.05 129.25 2253.8 129.25 2254.55 129.15 2258.1 127.95 2261.05 L127.35 2261.8 126.8 2262.3 Q123.45 2266.8 121.05 2272.55 L120.3 2273.9 Q119.75 2274.65 119.8 2275.55 119.9 2276.95 119.35 2278.0 114.85 2286.6 108.1 2293.65 L106.8 2294.8 103.45 2296.95 Q100.2 2298.5 96.5 2299.5 L94.05 2300.15 91.45 2300.95 88.0 2302.1 87.0 2302.35 Q81.65 2302.9 76.5 2302.2 L74.55 2301.85 71.05 2301.75 69.5 2301.8 Q68.0 2301.7 67.05 2302.6 L65.9 2303.25 Q64.1 2303.95 64.0 2305.55 L63.55 2308.55 Q63.3 2309.8 62.55 2310.6 61.7 2311.55 60.45 2311.95 L58.1 2312.8 Q52.65 2315.15 47.45 2316.45 L46.6 2316.75 Q45.8 2317.25 44.5 2317.4 L40.0 2318.1 33.05 2319.25 31.6 2319.7 30.4 2320.3 29.05 2320.75 26.95 2321.25 Q23.1 2321.95 19.5 2323.5 L16.95 2324.25 12.0 2324.6 0.0 2324.55 0.0 2258.7 8.0 2258.65 Q12.3 2258.75 14.55 2254.8 15.0 2254.05 14.5 2253.4 13.3 2251.75 13.7 2248.0 L14.4 2242.1 14.6 2240.0 Q15.0 2235.1 14.65 2230.1 14.5 2228.1 13.55 2226.25 L11.4 2221.85 10.5 2220.4 Q5.65 2213.75 8.65 2205.9 9.0 2205.05 9.5 2204.5 10.9 2202.95 11.65 2200.95 12.0 2200.05 12.5 2199.4 L14.7 2196.75 Q16.15 2195.25 18.0 2194.95 20.7 2194.55 23.15 2193.4 32.75 2188.95 41.85 2182.85 L43.8 2180.9 Q47.55 2175.65 55.0 2172.05 L56.9 2170.9 Q58.75 2169.5 61.0 2169.45 75.5 2169.05 90.0 2169.05 L93.9 2168.6 98.1 2167.5 101.7 2166.35 Q103.75 2165.5 106.0 2165.2 L107.8 2164.65 Q109.0 2164.05 110.15 2163.85 114.1 2163.25 114.6 2159.0 L115.35 2153.1 Q116.65 2142.65 109.05 2137.0 100.05 2130.3 90.05 2125.95 88.0 2125.05 85.9 2124.35 80.65 2122.5 76.1 2119.9 75.5 2119.55 75.5 2119.1 75.65 2116.25 77.35 2113.25 78.0 2112.05 79.2 2111.65 80.95 2111.0 82.1 2110.15 83.5 2109.05 85.15 2108.6 L88.6 2107.25 Q90.0 2106.55 91.25 2106.3 94.25 2105.65 97.05 2104.15 99.0 2103.05 101.05 2102.9 L124.0 2102.0 125.0 2102.0 138.95 2102.55 Q142.2 2102.8 143.35 2101.35 144.15 2100.35 145.2 2098.15 L145.55 2097.0 145.95 2089.75 158.35 2089.75 158.45 2094.05 158.55 2096.05 Q158.75 2100.65 160.85 2103.15 163.4 2106.15 169.0 2105.2 174.05 2104.35 177.8 2106.4 L179.95 2108.1 Q183.95 2112.35 187.95 2115.1 195.95 2120.6 208.0 2121.9 L209.7 2122.1 Q213.6 2122.6 217.15 2123.55 L221.0 2124.15 Q226.3 2124.4 229.85 2122.8 L231.0 2122.5 Q234.6 2122.0 238.0 2124.0 242.8 2126.75 247.65 2128.75 248.45 2129.05 248.95 2130.05 L251.85 2135.1 Q253.4 2137.35 253.45 2140.05 253.45 2141.05 253.8 2142.1 254.8 2145.25 252.75 2147.0 251.45 2148.05 250.8 2150.0 249.1 2155.2 244.65 2157.45 L242.1 2158.5 Q234.15 2161.05 225.95 2161.95 224.95 2162.05 224.2 2162.5 220.25 2164.7 217.95 2170.0 L216.7 2171.75 Q214.15 2174.05 214.7 2179.1 L215.35 2185.0 Q215.5 2186.05 216.0 2187.05 219.1 2193.2 225.85 2195.35 L227.05 2195.7 Q235.65 2197.6 244.95 2198.0 251.5 2198.3 256.75 2195.7 263.25 2192.5 269.95 2192.2 L275.75 2192.75 Q276.95 2193.05 278.15 2193.65 L279.85 2194.35 Q285.2 2195.95 288.0 2199.0 291.85 2203.2 299.9 2204.25 M108.0 1540.65 Q108.75 1540.85 109.45 1541.2 L112.85 1542.8 114.55 1543.45 Q116.35 1544.05 118.0 1545.05 121.1 1546.95 125.0 1546.55 126.75 1546.35 128.35 1545.75 130.9 1544.8 133.5 1544.5 L135.5 1544.05 147.9 1540.65 148.0 1540.6 149.35 1540.4 150.0 1540.35 Q159.5 1540.1 169.0 1540.25 172.2 1540.25 174.9 1538.45 L176.6 1537.2 Q178.65 1535.55 179.65 1533.15 L179.95 1532.55 Q181.25 1530.75 183.5 1529.6 L188.05 1526.65 190.1 1525.25 Q191.35 1524.5 193.0 1524.2 L201.0 1523.45 220.5 1524.45 222.4 1524.3 224.0 1524.1 224.95 1523.95 226.55 1523.2 229.4 1521.45 Q230.65 1520.55 232.05 1520.25 237.25 1519.1 240.65 1515.25 L241.7 1513.9 242.7 1512.2 244.0 1510.1 Q246.65 1506.4 250.5 1502.6 251.0 1502.1 251.1 1501.55 251.25 1500.65 252.05 1500.15 L252.75 1499.45 253.25 1498.9 Q256.3 1496.4 260.0 1493.6 277.05 1479.15 260.0 1464.65 L254.45 1463.25 252.6 1462.8 Q247.2 1460.9 243.5 1457.1 L242.4 1456.35 Q241.35 1455.85 240.35 1454.75 239.75 1454.15 238.9 1453.85 L237.6 1453.35 Q237.0 1453.1 236.45 1453.0 234.3 1452.7 233.45 1451.6 233.25 1451.35 233.0 1451.35 229.5 1451.1 226.0 1451.2 220.15 1451.45 215.0 1449.6 L208.95 1447.75 208.1 1447.4 Q204.15 1445.2 201.45 1442.15 L200.45 1441.15 Q198.8 1439.9 197.95 1438.6 L195.9 1435.65 194.9 1434.9 Q193.1 1434.35 191.4 1433.2 L189.6 1432.0 Q186.0 1429.55 181.5 1429.7 171.7 1429.95 163.95 1425.15 L163.0 1424.6 162.65 1424.45 153.95 1420.75 153.2 1420.35 Q151.5 1419.0 149.5 1419.05 L146.05 1419.35 137.5 1420.05 133.0 1420.35 132.45 1420.5 Q129.65 1421.7 126.5 1422.65 L125.1 1423.25 123.35 1424.2 Q120.65 1425.15 118.1 1426.75 116.05 1428.0 114.65 1429.3 112.35 1431.5 109.0 1431.5 L97.5 1431.05 93.5 1430.75 90.05 1430.85 86.0 1431.2 Q79.5 1431.5 74.6 1435.2 73.15 1436.3 72.7 1437.2 L72.3 1438.0 71.8 1439.2 69.55 1445.6 69.2 1447.1 Q69.1 1448.5 68.0 1448.7 65.2 1449.25 62.9 1450.95 L61.15 1452.3 59.85 1453.4 58.25 1454.85 Q57.15 1455.9 57.1 1457.1 57.0 1458.35 57.2 1459.55 57.55 1461.75 57.5 1464.1 L57.25 1466.0 56.65 1467.65 Q55.25 1470.95 52.0 1471.1 51.5 1471.1 51.45 1471.25 50.7 1473.2 52.1 1474.5 53.5 1475.85 52.85 1478.55 52.4 1480.3 51.0 1481.6 L48.95 1483.55 Q47.1 1485.3 44.9 1486.4 39.7 1489.05 37.0 1494.1 L35.85 1495.95 Q34.15 1498.1 34.0 1500.6 32.75 1501.15 32.75 1502.1 L32.7 1502.65 32.35 1504.05 Q31.7 1506.55 32.1 1510.1 L32.45 1514.6 32.7 1515.5 34.05 1518.05 Q35.7 1521.1 37.4 1523.2 L38.15 1523.85 39.0 1524.2 40.5 1524.5 Q44.85 1525.3 49.05 1526.9 53.15 1528.45 56.4 1530.75 L58.1 1531.95 59.8 1533.3 64.15 1537.45 Q67.45 1540.85 70.5 1542.6 L71.5 1542.85 Q76.95 1542.55 82.5 1542.6 L83.4 1542.4 Q84.0 1542.1 85.0 1542.1 L86.95 1541.85 89.05 1541.35 91.4 1540.75 94.1 1540.15 107.55 1540.55 107.9 1540.85 108.0 1540.65" fill="#707068" fill-rule="evenodd" stroke="none"/>
    <path d="M300.0 1792.65 L300.0 1842.65 260.0 1842.65 160.0 1842.65 160.0 1792.65 300.0 1792.65 M300.0 1932.65 L300.0 1982.65 260.0 1982.65 160.0 1982.65 160.0 1932.65 300.0 1932.65 M0.0 1982.65 L0.0 1932.65 140.0 1932.65 140.0 1982.65 40.0 1982.65 0.0 1982.65 M0.0 1842.65 L0.0 1792.65 140.0 1792.65 140.0 1842.65 40.0 1842.65 0.0 1842.65" fill="#809058" fill-rule="evenodd" stroke="none"/>
    <path d="M300.0 1842.65 L300.0 1918.7 260.0 1918.7 260.0 1842.65 300.0 1842.65 M300.0 1982.65 L300.0 2058.7 260.0 2058.7 260.0 1982.65 300.0 1982.65 M0.0 2058.7 L0.0 1982.65 40.0 1982.65 40.0 2058.7 0.0 2058.7 M0.0 1918.7 L0.0 1842.65 40.0 1842.65 40.0 1918.7 0.0 1918.7" fill="#484644" fill-rule="evenodd" stroke="none"/>
    <path d="M300.0 1560.1 L300.0 1601.1 0.0 1601.1 0.0 1560.1 300.0 1560.1 M300.0 1719.1 L300.0 1748.1 0.0 1748.1 0.0 1719.1 300.0 1719.1" fill="#485048" fill-rule="evenodd" stroke="none"/>
    <path d="M0.0 112.0 L0.0 65.05 0.0 64.85 0.0 46.15 Q5.65 44.75 10.65 45.7 20.6 47.6 40.1 63.6 L43.8 67.95 45.2 69.9 46.35 71.8 47.65 74.1 Q50.35 78.85 54.15 83.1 L57.95 87.7 Q63.4 94.8 68.5 102.25 L69.5 103.7 70.6 105.1 72.0 106.2 Q73.7 107.45 76.0 107.85 L95.5 108.8 100.0 108.5 112.05 107.1 119.0 106.05 123.45 105.05 Q132.3 102.45 138.85 96.05 L145.8 89.15 Q147.3 86.7 150.3 84.7 170.3 71.35 194.0 64.75 202.15 62.45 210.05 61.25 236.65 56.85 261.35 63.65 L271.0 63.7 290.0 63.9 293.0 63.95 Q296.6 64.0 300.0 65.05 L300.0 109.3 282.5 111.35 276.5 111.95 271.0 112.3 Q264.65 112.6 258.55 111.4 L254.05 110.05 249.95 108.35 240.55 104.55 237.4 103.45 236.9 103.3 234.2 102.65 231.5 102.25 231.6 102.15 Q220.0 100.0 208.8 101.0 L205.5 101.45 199.0 102.45 Q192.0 103.95 185.2 106.7 L183.75 107.3 Q181.7 107.95 179.3 109.25 176.2 110.9 172.8 114.0 L170.6 115.85 Q163.25 121.6 155.05 126.25 L150.0 128.7 148.35 129.35 143.65 131.05 138.9 133.0 134.5 134.65 Q125.55 137.35 116.45 138.45 L112.0 138.9 107.0 139.55 Q101.6 140.55 96.9 142.45 L94.5 143.3 Q85.15 145.8 75.5 146.8 70.55 147.3 66.15 145.35 L64.45 144.3 Q61.0 141.45 57.1 139.05 L48.45 133.3 Q45.85 131.45 44.15 128.95 43.5 127.95 42.5 127.2 L39.35 124.9 Q38.75 124.45 38.0 124.4 L29.55 123.35 Q27.25 122.95 25.1 122.0 23.75 121.45 22.5 120.7 L15.4 116.35 Q14.75 115.95 14.0 115.9 12.65 115.8 11.95 115.25 10.8 114.25 9.0 114.25 L6.45 113.8 0.0 112.0" fill="#707870" fill-rule="evenodd" stroke="none"/>
    <path d="M0.0 1181.25 L0.0 1148.05 6.5 1147.45 Q9.8 1147.1 12.5 1148.1 L14.0 1148.4 Q16.15 1148.3 17.9 1149.3 19.2 1150.0 20.5 1150.1 L22.45 1150.35 Q24.4 1150.75 26.05 1152.05 L26.9 1152.8 28.05 1154.1 Q29.15 1155.5 31.0 1155.6 L31.55 1155.6 35.55 1158.55 Q42.3 1163.25 49.95 1167.7 L55.9 1170.85 Q57.0 1171.4 58.0 1172.1 60.2 1173.65 62.35 1174.9 L63.15 1175.5 Q65.6 1177.55 69.0 1179.1 72.75 1180.85 77.0 1180.9 L79.5 1181.15 Q85.1 1182.35 89.9 1184.4 L91.05 1185.1 100.25 1193.45 101.05 1194.65 Q101.85 1196.55 101.7 1199.65 101.55 1202.5 100.65 1205.2 99.7 1208.05 99.75 1211.15 L99.7 1212.15 99.35 1221.15 Q99.3 1223.65 96.65 1224.5 L95.9 1225.05 Q95.5 1225.4 94.95 1225.55 93.65 1225.9 92.25 1226.65 L90.0 1227.1 Q87.9 1227.05 87.05 1228.2 85.8 1229.9 83.1 1230.95 82.0 1231.4 81.0 1232.15 78.3 1234.1 77.25 1236.0 L76.7 1236.8 Q75.5 1238.3 74.8 1240.1 L74.2 1241.7 Q73.4 1244.05 73.7 1246.65 73.8 1247.75 73.15 1248.0 72.75 1248.15 72.5 1248.65 71.85 1250.15 70.55 1251.2 69.1 1252.35 67.8 1254.0 L67.0 1254.65 Q60.35 1257.7 53.05 1258.3 51.75 1258.4 50.45 1259.0 47.85 1260.15 45.1 1261.8 L43.3 1262.9 42.6 1263.35 41.5 1264.15 Q39.2 1266.35 35.95 1268.05 L32.6 1269.85 Q28.3 1272.4 24.35 1274.9 L23.5 1275.25 Q19.95 1275.95 16.55 1277.3 15.1 1277.9 13.5 1277.75 12.15 1277.65 10.85 1278.45 L10.05 1278.8 Q7.25 1279.9 4.85 1281.4 L4.0 1281.65 0.0 1281.5 0.0 1263.3 2.25 1261.35 Q3.9 1258.85 8.25 1258.25 L11.95 1257.4 16.6 1256.0 20.1 1254.85 24.9 1252.85 Q31.5 1249.7 31.5 1243.35 L31.2 1237.75 Q31.05 1236.25 32.25 1235.25 37.9 1230.3 43.65 1226.1 50.4 1221.05 55.45 1215.3 L56.5 1214.35 Q57.75 1213.45 59.35 1213.0 64.45 1211.4 69.85 1210.05 73.3 1209.1 75.0 1207.9 74.1 1206.45 72.7 1205.45 69.9 1203.5 65.25 1201.65 63.75 1201.0 62.5 1200.15 L61.3 1199.55 Q56.5 1197.7 51.85 1192.9 L50.05 1191.35 46.65 1189.05 Q43.65 1187.15 40.45 1186.3 L33.15 1184.0 Q20.1 1179.45 5.25 1180.45 L2.35 1180.8 0.0 1181.25 M0.0 1386.6 L0.0 1335.2 1.0 1335.1 9.5 1335.35 10.05 1335.4 Q11.8 1335.65 12.75 1336.25 L13.95 1336.8 Q16.05 1337.35 17.25 1339.45 L17.9 1340.2 Q21.8 1344.05 27.55 1343.3 30.15 1343.0 31.9 1343.8 L33.1 1344.4 Q37.15 1346.25 38.55 1350.6 L40.65 1357.55 40.9 1358.15 Q42.85 1362.3 47.0 1364.05 L50.5 1365.6 Q53.95 1367.15 58.0 1367.1 58.5 1367.1 59.1 1367.4 L60.0 1367.65 Q64.0 1368.25 67.45 1369.7 68.5 1370.1 69.35 1370.8 70.05 1371.35 71.5 1372.1 75.95 1374.45 81.0 1375.0 L85.5 1375.4 Q87.7 1375.6 89.35 1373.95 90.0 1373.35 90.9 1372.9 L91.9 1372.05 94.45 1368.35 Q94.75 1367.85 95.45 1367.5 L96.0 1367.1 Q98.25 1364.85 101.45 1362.55 L104.05 1360.7 Q106.55 1358.9 109.5 1357.55 L111.55 1356.7 114.45 1355.45 116.1 1354.85 Q116.75 1354.6 117.35 1354.3 L118.15 1353.75 118.95 1353.05 Q123.85 1349.6 126.95 1344.55 128.2 1342.5 128.9 1340.2 129.0 1339.85 129.45 1339.5 131.65 1337.85 134.75 1336.0 136.25 1335.1 138.05 1334.7 L141.45 1333.95 146.05 1332.75 152.0 1332.05 Q155.7 1332.15 158.7 1330.45 159.75 1329.85 160.9 1329.4 166.6 1327.15 170.85 1323.45 L175.6 1319.2 Q177.45 1317.55 178.95 1315.55 182.75 1310.65 186.85 1306.45 L189.0 1303.6 Q191.25 1300.05 193.65 1297.2 L195.9 1295.0 197.6 1293.7 Q199.3 1292.35 201.5 1292.35 L203.0 1292.1 Q205.15 1291.3 207.5 1291.1 L210.5 1290.8 214.5 1290.4 Q215.25 1290.35 215.85 1289.9 217.3 1288.85 219.45 1287.95 L227.0 1284.6 231.0 1282.65 Q233.1 1281.5 235.5 1281.55 L241.5 1281.55 Q243.35 1281.5 244.85 1280.4 L246.85 1278.95 248.4 1277.9 249.95 1276.55 Q252.0 1274.1 254.9 1273.2 L255.55 1272.6 Q258.15 1268.3 261.95 1265.05 L262.85 1264.0 263.45 1262.6 Q263.6 1262.0 264.4 1261.45 L267.55 1259.15 Q270.55 1256.8 274.4 1255.3 L278.0 1253.6 Q281.9 1251.25 285.95 1249.95 L286.5 1249.6 Q287.55 1248.65 289.5 1248.6 L297.95 1248.2 300.0 1247.75 300.0 1300.6 299.5 1300.6 Q295.65 1298.6 292.0 1301.1 L288.9 1302.95 Q285.75 1304.6 283.95 1306.55 L283.05 1307.65 Q280.6 1310.55 277.45 1312.5 273.15 1315.15 269.1 1318.2 L267.4 1319.5 Q266.25 1320.35 265.2 1321.3 263.15 1323.15 260.5 1323.1 L259.1 1322.85 Q254.95 1321.25 250.5 1320.95 245.5 1320.6 241.05 1322.2 240.0 1322.6 239.1 1323.25 L237.35 1324.3 Q234.5 1325.7 233.85 1328.55 L233.75 1329.6 Q233.85 1330.95 233.1 1331.3 232.3 1331.65 231.15 1332.75 L230.4 1333.55 228.3 1336.45 Q226.9 1338.45 225.7 1340.7 L223.5 1345.1 223.25 1346.1 223.25 1347.1 223.5 1357.6 Q223.5 1358.35 223.85 1358.85 224.8 1360.3 224.35 1362.05 224.25 1362.35 223.95 1362.4 221.9 1362.9 219.95 1364.0 215.9 1366.25 213.55 1368.15 L213.25 1368.6 Q213.25 1370.4 212.15 1371.75 211.0 1373.15 210.2 1374.7 L209.15 1376.3 Q208.3 1377.35 208.3 1378.6 208.3 1380.9 207.8 1383.05 L207.45 1383.45 Q205.25 1384.15 203.95 1385.0 L201.1 1386.75 Q200.5 1387.1 199.95 1387.55 198.2 1388.9 196.0 1388.75 L192.45 1388.25 191.1 1387.9 189.45 1387.5 180.5 1387.0 Q177.15 1386.9 174.05 1387.8 L171.95 1388.3 169.05 1388.9 167.45 1389.25 Q164.65 1389.8 161.95 1391.0 L157.5 1392.5 Q152.65 1393.75 148.45 1396.55 L147.7 1397.25 146.8 1398.45 144.55 1401.65 144.1 1402.65 Q143.45 1405.3 141.0 1405.45 L137.0 1405.75 Q133.85 1405.95 131.0 1405.1 L129.5 1404.75 127.65 1404.25 123.5 1403.15 Q120.6 1402.7 118.0 1403.65 L116.95 1404.0 Q107.85 1406.25 98.95 1409.95 L97.0 1410.5 85.5 1411.2 Q81.0 1411.1 76.5 1411.35 72.85 1411.55 69.5 1410.6 L66.5 1409.6 65.0 1409.4 Q57.75 1409.75 51.0 1408.2 L43.5 1406.05 39.55 1404.95 38.5 1404.65 Q36.8 1404.05 35.9 1402.7 L35.2 1401.5 33.85 1399.2 32.5 1397.1 29.4 1392.65 28.65 1391.5 Q27.4 1389.5 25.55 1388.55 23.15 1387.3 21.0 1386.6 18.6 1385.8 16.0 1385.9 L8.0 1385.85 Q3.85 1385.6 0.0 1386.6 M300.0 2272.2 L300.0 2325.75 299.95 2325.75 Q299.0 2325.55 298.2 2325.15 296.8 2324.45 295.0 2324.2 289.15 2323.3 283.45 2321.65 L281.15 2320.75 279.4 2319.75 Q277.5 2318.55 277.8 2316.05 L278.2 2313.05 Q278.35 2311.7 277.5 2311.65 275.15 2311.5 273.05 2309.95 L271.9 2309.15 Q270.7 2308.4 269.5 2307.05 L268.5 2306.05 266.65 2304.4 265.9 2303.7 265.2 2302.9 Q263.6 2300.95 260.5 2301.45 260.0 2301.55 259.7 2301.8 257.3 2303.65 254.0 2303.0 253.0 2302.85 252.35 2302.2 L251.95 2301.5 Q251.8 2300.55 251.05 2300.35 L250.65 2300.0 250.25 2299.2 249.9 2298.45 Q249.55 2297.05 248.05 2296.4 247.25 2296.05 246.45 2295.95 L241.5 2295.75 240.5 2295.85 237.0 2296.1 Q233.95 2296.25 231.55 2294.95 L230.95 2294.75 Q229.45 2294.4 228.1 2293.4 L227.35 2292.7 226.8 2291.9 Q226.1 2290.55 224.95 2289.6 224.25 2289.05 223.45 2288.95 L218.5 2288.5 Q216.45 2288.45 215.15 2289.7 L213.8 2290.7 209.0 2293.05 208.0 2293.55 Q206.25 2294.4 204.0 2294.1 201.55 2293.8 199.55 2294.65 L196.9 2295.85 194.0 2297.1 190.95 2298.4 190.15 2298.8 189.35 2299.3 188.55 2299.7 Q187.35 2300.0 186.85 2300.4 182.5 2303.8 179.45 2308.5 179.25 2308.8 179.2 2309.1 L178.8 2311.5 178.45 2311.85 Q177.75 2312.05 177.25 2312.4 175.55 2313.5 173.5 2314.1 170.25 2315.05 167.55 2316.65 L166.95 2316.95 Q165.8 2317.55 165.3 2318.45 L163.35 2321.45 Q162.55 2322.45 161.45 2322.85 L160.15 2323.35 159.45 2323.6 151.0 2324.05 Q150.5 2324.05 150.25 2324.3 148.1 2326.25 144.95 2327.95 139.55 2330.9 133.5 2330.35 133.0 2330.3 132.8 2329.9 132.25 2328.9 130.95 2328.1 L130.05 2327.9 Q127.95 2328.3 125.9 2329.9 L122.35 2332.35 120.15 2333.75 118.4 2334.9 Q117.75 2335.35 117.0 2335.4 L105.5 2335.55 Q104.75 2335.55 104.2 2335.9 L102.0 2337.1 Q101.5 2337.3 101.5 2337.6 101.3 2339.75 99.55 2340.65 L99.15 2341.1 98.75 2341.8 98.15 2342.3 97.4 2342.95 96.6 2343.65 94.3 2346.4 Q93.35 2347.75 92.7 2349.15 91.85 2351.0 91.55 2353.05 L91.3 2353.95 90.4 2354.85 88.75 2355.9 Q85.05 2358.75 82.1 2362.1 L80.85 2363.35 79.35 2364.85 Q78.45 2366.0 77.1 2366.75 L73.9 2368.35 Q69.8 2370.2 66.1 2372.65 L64.9 2373.35 Q63.15 2374.35 61.0 2374.2 L50.5 2373.45 Q46.5 2373.1 43.6 2375.15 41.95 2376.3 41.6 2378.05 L41.3 2378.95 Q41.0 2379.55 40.95 2380.1 40.75 2381.65 40.05 2383.1 L37.4 2388.0 36.95 2388.4 32.5 2388.85 Q30.6 2388.75 28.95 2389.35 L26.5 2389.85 Q23.6 2389.9 21.05 2390.7 L20.65 2391.1 20.25 2391.9 Q18.55 2394.6 17.8 2397.5 17.55 2398.5 17.75 2399.5 18.15 2402.05 16.0 2402.45 L14.5 2402.65 7.5 2403.7 5.5 2403.85 Q2.65 2404.05 0.0 2405.05 L0.0 2324.55 12.0 2324.6 16.95 2324.25 19.5 2323.5 Q23.1 2321.95 26.95 2321.25 L29.05 2320.75 30.4 2320.3 31.6 2319.7 33.05 2319.25 40.0 2318.1 44.5 2317.4 Q45.8 2317.25 46.6 2316.75 L47.45 2316.45 Q52.65 2315.15 58.1 2312.8 L60.45 2311.95 Q61.7 2311.55 62.55 2310.6 63.3 2309.8 63.55 2308.55 L64.0 2305.55 Q64.1 2303.95 65.9 2303.25 L67.05 2302.6 Q68.0 2301.7 69.5 2301.8 L71.05 2301.75 74.55 2301.85 76.5 2302.2 Q81.65 2302.9 87.0 2302.35 L88.0 2302.1 91.45 2300.95 94.05 2300.15 96.5 2299.5 Q100.2 2298.5 103.45 2296.95 L106.8 2294.8 108.1 2293.65 Q114.85 2286.6 119.35 2278.0 119.9 2276.95 119.8 2275.55 119.75 2274.65 120.3 2273.9 L121.05 2272.55 Q123.45 2266.8 126.8 2262.3 L127.35 2261.8 127.95 2261.05 Q129.15 2258.1 129.25 2254.55 129.25 2253.8 129.4 2253.05 129.5 2252.3 129.85 2251.8 130.0 2251.55 130.5 2251.55 L147.0 2250.9 149.0 2250.7 Q151.95 2250.4 154.55 2249.2 L165.0 2244.5 167.0 2243.6 169.6 2242.25 170.5 2242.0 172.5 2241.55 Q174.95 2240.55 178.0 2240.8 L185.0 2241.05 194.0 2241.3 Q194.25 2241.3 194.45 2241.6 L196.25 2244.2 196.7 2244.95 198.8 2249.4 Q199.0 2249.8 199.5 2250.0 202.0 2250.95 205.0 2250.75 208.2 2250.5 211.1 2251.8 L213.5 2252.6 Q217.75 2253.6 219.95 2257.55 222.75 2262.5 228.0 2263.15 232.25 2263.65 236.05 2262.25 238.95 2261.2 241.95 2260.3 246.2 2259.05 250.5 2258.6 L251.45 2258.45 Q256.25 2257.3 261.05 2258.35 263.35 2258.85 265.35 2260.7 265.75 2261.05 266.45 2261.2 267.0 2261.3 267.4 2261.65 L272.0 2266.05 Q272.8 2266.85 274.0 2266.8 L275.05 2266.95 279.5 2267.55 280.05 2267.55 280.5 2267.65 Q282.0 2268.0 282.25 2270.0 282.4 2271.25 283.5 2271.1 L286.1 2271.3 287.95 2271.7 289.0 2271.85 293.5 2272.25 294.5 2272.35 300.0 2272.2" fill="#483d24" fill-rule="evenodd" stroke="none"/>
    <path d="M0.0 439.35 L0.0 295.75 Q3.85 294.2 7.5 292.2 11.25 290.2 14.55 287.8 17.15 285.95 20.0 284.45 L20.0 439.35 0.0 439.35" fill="url(#gradient1)" fill-rule="evenodd" stroke="none"/>
    <path d="M300.0 281.2 L300.0 439.35 280.0 439.35 280.0 285.95 Q283.05 285.45 285.85 284.35 L286.65 283.9 Q287.8 283.0 289.0 282.9 290.5 282.75 291.35 281.4 291.5 281.2 292.0 281.2 L300.0 281.2" fill="url(#gradient2)" fill-rule="evenodd" stroke="none"/>
  </g>
  <defs>
    <radialGradient cx="0" cy="0" gradientTransform="matrix(-0.0597, -0.1033, 0.2134, -0.1238, 111.0, 40.25)" gradientUnits="userSpaceOnUse" id="gradient0" r="819.2" spreadMethod="pad">
      <stop offset="0.01568627450980392" stop-color="#b8b8b8"/>
      <stop offset="0.047058823529411764" stop-color="#9880b8"/>
      <stop offset="0.07058823529411765" stop-color="#8858c8"/>
      <stop offset="0.23529411764705882" stop-color="#182020"/>
      <stop offset="0.5529411764705883" stop-color="#000050"/>
      <stop offset="0.7647058823529411" stop-color="#101010"/>
      <stop offset="0.9529411764705882" stop-color="#000000"/>
    </radialGradient>
    <linearGradient gradientTransform="matrix(0.0122, 0.0, 0.0, 0.0945, 10.0, 361.9)" gradientUnits="userSpaceOnUse" id="gradient1" spreadMethod="pad" x1="-819.2" x2="819.2">
      <stop offset="0.2784313725490196" stop-color="#101010"/>
      <stop offset="0.3607843137254902" stop-color="#9476bc"/>
      <stop offset="0.47058823529411764" stop-color="#000050"/>
      <stop offset="0.8392156862745098" stop-color="#101010"/>
    </linearGradient>
    <linearGradient gradientTransform="matrix(-0.0122, 0.0, 0.0, -0.0965, 290.0, 360.3)" gradientUnits="userSpaceOnUse" id="gradient2" spreadMethod="pad" x1="-819.2" x2="819.2">
      <stop offset="0.2784313725490196" stop-color="#101010"/>
      <stop offset="0.3607843137254902" stop-color="#9476bc"/>
      <stop offset="0.47058823529411764" stop-color="#000050"/>
      <stop offset="0.8392156862745098" stop-color="#101010"/>
    </linearGradient>
  </defs>
</svg>
