<?xml version="1.0" encoding="UTF-8" standalone="no"?>
<svg xmlns:ffdec="https://www.free-decompiler.com/flash" xmlns:xlink="http://www.w3.org/1999/xlink" ffdec:objectType="shape" height="2056.0px" width="313.8px" xmlns="http://www.w3.org/2000/svg">
  <g transform="matrix(1.0, 0.0, 0.0, 1.0, 0.0, -191.1)">
    <path d="M135.45 485.4 L80.0 485.4 80.0 883.45 40.0 883.45 40.0 785.4 0.0 785.4 0.0 765.4 40.0 765.4 40.0 725.4 0.0 725.4 0.0 705.4 40.0 705.4 40.0 665.4 0.0 665.4 0.0 645.4 40.0 645.4 40.0 605.4 0.0 605.4 0.0 585.4 40.0 585.4 40.0 545.4 0.0 545.4 0.0 525.4 40.0 525.4 40.0 228.25 80.0 228.25 80.0 445.4 85.9 445.4 98.3 445.5 131.1 445.4 Q127.9 447.45 126.9 450.1 125.95 452.7 126.6 455.45 L132.85 456.2 131.85 457.2 Q131.0 460.15 132.0 462.9 132.8 465.1 134.45 466.4 136.85 468.3 138.75 465.7 L140.65 467.9 140.35 473.45 136.85 474.45 134.35 471.05 132.1 471.3 131.1 472.3 Q131.25 473.7 132.0 474.9 L132.6 475.55 134.5 477.6 134.85 484.7 135.45 485.4 M143.65 445.4 L159.0 445.4 220.0 445.4 220.0 228.25 260.0 228.25 260.0 525.4 299.05 525.4 299.05 545.4 260.0 545.4 260.0 585.4 299.05 585.4 299.05 605.4 260.0 605.4 260.0 645.4 299.05 645.4 299.05 665.4 260.0 665.4 260.0 705.4 299.05 705.4 299.05 725.4 260.0 725.4 260.0 765.4 299.05 765.4 299.05 785.4 260.0 785.4 260.0 830.15 220.0 830.45 220.0 485.4 156.7 485.4 Q156.1 481.6 153.35 479.05 L147.05 479.9 144.2 475.4 144.9 472.75 Q145.85 474.95 148.0 475.35 160.5 478.35 158.15 466.2 L161.5 462.8 Q172.25 466.15 161.75 472.55 159.5 477.55 161.45 482.35 L163.35 481.95 165.6 474.05 Q167.05 472.95 167.15 471.7 168.4 457.45 154.75 463.8 L153.0 474.55 151.5 474.2 147.4 469.0 Q151.6 461.0 144.55 454.45 L144.8 453.35 Q145.7 449.55 143.65 445.4 M142.35 485.4 L140.1 485.4 138.45 478.55 140.35 478.0 142.1 478.95 142.95 480.45 142.35 485.4" fill="#485850" fill-rule="evenodd" stroke="none"/>
    <path d="M89.05 293.7 Q89.0 293.4 89.1 293.15 97.15 287.85 104.0 281.75 L104.8 282.25 104.85 282.45 Q105.65 282.55 105.85 283.2 L105.95 283.4 105.9 283.75 105.7 284.3 104.95 284.9 Q106.85 291.55 109.1 297.95 L109.2 299.15 Q112.9 305.2 114.55 312.0 115.0 313.9 114.9 315.85 114.7 320.5 112.8 324.65 111.35 326.6 108.85 327.0 L107.75 328.7 Q107.55 328.95 107.5 329.25 100.35 333.75 92.85 330.3 L92.8 329.75 92.8 329.2 Q96.55 326.35 98.7 322.45 L106.75 316.65 Q103.4 316.5 99.65 318.9 97.55 320.25 95.2 320.9 L94.05 321.0 93.65 320.65 93.45 320.45 Q93.0 316.65 94.2 313.1 94.45 312.35 94.1 311.65 91.55 311.35 89.6 309.8 L89.55 308.7 89.55 307.95 Q92.3 304.15 95.8 301.0 93.65 296.45 89.1 294.05 L89.05 293.7 M100.35 337.15 Q103.85 335.1 106.25 331.9 L106.35 331.5 106.5 331.15 Q107.0 330.7 107.7 330.55 L108.0 330.5 Q111.05 333.75 111.55 338.65 111.85 341.65 112.55 344.6 L113.1 347.65 Q113.65 352.2 111.95 356.05 L111.95 356.35 Q112.4 356.6 112.7 356.95 L112.8 357.1 Q113.8 361.0 113.5 365.2 L113.25 366.1 Q111.05 367.5 108.5 367.85 107.55 368.5 107.1 369.55 L106.95 369.95 104.3 371.95 Q99.2 372.55 95.4 369.7 L95.3 368.35 95.3 367.8 Q98.9 364.2 103.75 362.05 107.0 360.55 109.15 357.75 103.95 357.5 99.0 358.75 98.4 360.1 97.05 359.75 L96.7 359.35 96.55 359.0 96.7 358.25 96.8 357.5 99.35 352.85 99.55 352.45 Q99.8 351.0 100.65 349.75 L100.85 349.25 101.3 348.7 101.5 348.3 Q101.05 347.35 100.2 346.55 L100.0 346.25 92.05 344.05 Q91.75 339.9 96.8 338.65 98.65 338.15 100.35 337.15 M94.05 385.7 L93.9 385.5 93.8 384.95 93.8 384.55 Q97.1 381.45 101.55 380.05 L102.0 379.85 105.2 376.95 Q106.25 375.9 107.65 375.35 108.1 374.35 109.25 374.3 L112.75 373.85 116.5 373.95 116.95 374.0 117.15 374.2 Q117.4 374.55 117.75 374.75 L117.85 374.95 117.95 375.3 117.95 375.5 Q118.35 382.8 111.95 384.8 109.85 385.5 107.7 385.45 L108.8 387.3 108.9 387.5 109.9 390.15 110.65 389.5 111.95 388.45 Q114.65 386.35 117.75 385.35 L118.45 385.75 118.6 385.85 118.65 386.25 118.65 386.8 118.85 387.4 119.15 387.75 119.25 389.05 119.15 389.6 Q118.45 390.4 118.0 391.3 L117.9 391.5 Q116.4 392.45 114.7 392.6 111.9 394.5 109.2 396.65 104.2 397.55 99.9 395.5 L99.8 394.95 99.9 394.4 Q104.2 393.8 107.75 391.65 104.8 390.9 102.4 388.75 101.9 386.75 102.0 384.6 L102.0 384.55 99.85 384.9 Q96.9 385.8 94.05 385.7 M119.35 394.3 L119.75 394.1 Q123.1 395.2 125.2 398.2 L125.35 398.35 125.4 398.55 125.45 398.75 125.45 398.95 125.45 399.1 Q129.5 405.6 125.05 411.25 L123.55 412.5 122.1 413.05 Q120.35 414.95 117.6 414.3 116.7 415.75 116.45 417.3 116.3 418.45 115.45 419.15 L113.35 419.55 Q112.45 420.65 112.55 422.0 112.6 423.1 112.25 424.05 111.75 424.6 111.0 424.7 L106.0 425.05 Q105.25 426.95 104.8 429.0 104.5 430.2 103.3 430.7 L101.8 430.65 101.2 430.1 100.65 429.5 Q100.45 428.0 100.9 426.55 L101.55 424.45 Q100.4 424.25 99.35 423.65 L99.15 423.5 Q99.25 420.1 103.0 418.7 104.4 418.2 105.15 416.85 L106.5 414.5 106.6 413.2 Q106.55 412.35 106.05 411.7 L105.1 411.3 104.8 411.2 104.65 411.0 104.5 410.65 104.3 410.45 101.4 410.55 101.05 411.15 100.45 411.6 Q99.25 412.05 98.05 411.6 96.95 410.25 97.05 408.25 97.15 407.1 97.8 406.2 100.0 405.5 102.0 404.6 101.95 403.7 101.1 402.9 100.65 402.45 100.55 401.8 L100.75 401.25 101.2 400.3 Q103.4 398.35 106.2 398.5 107.25 399.45 107.65 400.9 107.9 401.8 107.65 402.8 L109.7 403.0 Q110.8 404.45 110.5 406.4 L109.95 408.45 111.6 407.5 112.05 407.1 Q113.6 404.05 117.75 403.6 118.6 400.65 118.7 397.6 L118.9 394.6 119.35 394.3 M196.3 257.7 L196.2 257.55 196.05 257.3 195.85 257.15 195.85 256.95 195.85 255.45 195.85 255.05 Q199.8 251.95 204.3 249.65 206.0 249.65 207.35 248.75 L207.75 248.5 210.15 248.7 210.45 248.8 Q210.2 251.9 212.6 253.5 213.45 254.05 213.45 255.0 212.9 256.1 211.75 256.7 L210.25 257.0 Q206.85 258.5 206.3 261.85 L205.85 263.0 Q208.7 265.55 211.1 268.45 L211.35 269.4 Q209.3 270.85 206.35 270.7 L206.5 271.65 Q206.6 272.85 206.1 273.9 L198.3 274.75 Q194.6 269.8 195.8 263.65 196.4 260.75 196.3 257.7 M197.2 280.95 Q197.5 280.55 198.0 280.5 L198.45 280.45 200.3 279.15 Q203.65 277.8 204.95 280.55 L206.3 282.25 206.45 282.45 212.5 277.5 212.9 277.65 213.2 277.8 Q214.95 281.35 214.7 285.35 L214.55 285.9 Q214.1 286.6 213.3 286.7 L208.35 289.4 Q208.2 289.75 208.2 290.15 L208.1 290.7 Q207.5 291.9 206.45 292.75 200.8 291.8 197.85 286.4 196.85 284.1 197.0 281.5 L197.2 280.95" fill="#604038" fill-rule="evenodd" stroke="none"/>
    <path d="M128.7 431.95 Q121.5 432.3 114.8 430.45 L114.6 430.25 Q116.6 427.75 120.55 427.45 125.05 427.05 129.05 425.25 L130.65 424.05 130.75 422.95 130.85 422.35 Q131.15 421.9 131.7 421.9 L131.7 421.85 132.15 422.05 132.4 422.2 133.55 423.9 133.85 424.25 Q134.25 425.4 134.25 426.4 L132.1 427.95 132.85 429.55 128.7 431.95 M208.55 307.85 Q208.9 309.35 208.55 310.85 L208.45 311.75 208.45 311.85 Q210.05 312.3 211.55 312.95 L212.5 312.9 212.7 312.7 Q215.25 310.75 218.2 311.3 L218.25 311.5 Q218.8 313.5 217.9 315.25 L217.45 316.0 217.4 316.2 215.2 320.65 214.95 321.0 213.3 321.1 Q209.5 320.1 206.45 317.75 L206.45 317.95 206.45 318.7 206.45 319.45 206.5 319.6 Q208.5 321.95 211.45 322.8 L211.5 323.0 Q211.8 326.3 210.15 329.15 L209.85 329.75 206.55 337.05 Q204.05 342.0 209.55 345.5 209.55 349.2 205.4 350.65 202.05 351.85 198.5 351.2 L194.9 351.05 194.8 351.15 194.65 351.3 Q193.75 352.0 192.8 351.3 190.4 343.95 192.65 336.25 195.75 325.7 196.25 314.75 196.4 310.7 197.75 306.9 L197.95 306.75 198.5 306.55 198.5 306.5 206.9 306.85 Q207.85 306.9 208.5 307.65 L208.55 307.85 M190.05 361.5 Q190.8 361.0 191.75 360.9 L194.8 360.35 Q197.05 360.15 199.05 360.85 L199.45 361.0 203.95 364.05 Q205.1 364.85 206.45 365.0 L206.7 365.2 Q207.3 365.6 207.45 366.3 L207.35 367.25 Q202.75 369.4 198.3 371.45 196.15 372.45 193.6 372.05 188.2 371.25 187.35 366.35 L187.7 365.8 189.4 364.15 189.8 363.75 189.7 363.55 Q189.55 363.1 189.65 362.65 L190.05 361.5 M197.4 374.6 Q201.25 378.25 205.6 381.55 L208.45 384.0 208.45 384.2 208.4 384.55 208.2 384.95 188.0 386.85 186.6 386.65 Q182.05 385.1 182.6 380.55 L185.3 376.75 Q186.65 374.65 188.95 373.7 L189.3 373.65 191.55 373.35 Q194.6 372.8 197.1 374.45 L197.4 374.6 M183.4 388.4 L183.6 388.15 Q184.1 387.5 184.8 387.35 L192.55 387.65 192.95 387.75 198.3 391.65 Q200.9 393.5 202.95 395.55 L202.95 395.75 202.55 396.3 202.35 396.45 188.6 396.4 187.65 395.6 Q185.1 393.6 182.9 391.2 L182.85 391.0 182.85 390.45 182.85 390.25 182.85 389.3 182.85 389.1 182.9 388.95 183.4 388.4 M204.8 404.85 L206.6 407.15 207.4 408.25 207.45 408.6 207.45 409.2 207.35 409.75 Q207.15 409.95 206.95 409.95 L200.7 410.35 200.1 410.8 199.4 411.5 Q199.15 412.3 199.15 413.2 199.15 414.15 199.55 415.05 L199.8 415.25 199.95 415.45 200.1 415.6 201.3 418.05 Q201.7 418.8 202.35 419.35 L203.8 425.05 203.9 426.85 203.3 427.65 202.45 428.35 Q199.1 428.05 197.15 424.75 L193.35 425.1 Q191.7 424.3 190.6 422.8 L189.9 422.0 189.8 419.75 189.85 417.7 Q187.35 416.35 185.65 413.95 L185.4 413.05 184.85 411.7 180.35 410.85 179.6 410.1 178.9 409.2 Q178.4 406.05 178.7 402.8 178.8 401.6 179.45 400.55 183.5 399.55 187.2 402.45 190.1 405.95 194.65 407.0 194.2 405.45 194.2 403.8 194.2 402.7 194.55 401.75 196.55 400.9 198.4 402.55 199.5 400.65 201.4 399.45 L202.3 399.1 Q203.7 399.15 204.95 400.0 L205.2 400.2 Q205.65 400.75 205.7 401.5 L205.65 403.35 205.3 404.0 204.9 404.65 204.8 404.85 M182.4 418.5 L182.6 421.85 Q182.75 423.85 181.2 425.05 L188.95 425.25 189.2 425.45 189.5 425.8 189.65 426.0 Q189.1 431.55 182.85 431.85 179.0 432.05 176.45 434.7 L176.45 436.2 Q176.45 437.7 175.85 439.0 L175.7 439.15 175.25 439.55 175.1 439.7 Q171.05 439.45 169.0 435.7 L168.7 435.3 168.65 435.1 168.6 434.95 168.6 434.75 168.6 434.55 168.45 434.35 168.35 434.2 168.15 434.0 168.1 433.8 168.1 433.45 168.1 433.05 167.95 432.85 167.85 432.7 167.65 432.5 167.35 430.3 Q167.05 428.65 167.85 427.05 L167.95 426.9 168.3 426.5 168.45 426.3 168.5 426.1 168.55 425.75 168.6 425.35 168.65 425.2 168.95 424.8 169.3 424.45 Q170.15 420.6 172.05 417.2 L173.35 414.7 174.45 414.2 176.05 413.85 Q180.5 414.0 182.3 418.3 L182.4 418.5" fill="#483828" fill-rule="evenodd" stroke="none"/>
    <path d="M131.1 445.4 L132.0 443.05 130.5 442.3 Q128.25 444.55 125.0 444.6 123.7 444.6 122.6 443.95 121.7 435.95 128.7 431.95 L132.85 429.55 132.1 427.95 134.25 426.4 Q140.65 429.65 139.35 436.85 L139.0 438.3 143.65 445.4 Q145.7 449.55 144.8 453.35 L144.55 454.45 Q151.6 461.0 147.4 469.0 L151.5 474.2 153.0 474.55 154.75 463.8 Q168.4 457.45 167.15 471.7 167.05 472.95 165.6 474.05 L163.35 481.95 161.45 482.35 Q159.5 477.55 161.75 472.55 172.25 466.15 161.5 462.8 L158.15 466.2 Q160.5 478.35 148.0 475.35 145.85 474.95 144.9 472.75 L144.2 475.4 147.05 479.9 153.35 479.05 Q156.1 481.6 156.7 485.4 L156.1 491.05 Q149.9 494.65 145.0 489.95 143.05 488.1 142.35 485.4 L142.95 480.45 142.1 478.95 140.35 478.0 138.45 478.55 140.1 485.4 140.15 486.6 138.5 487.55 135.45 485.4 134.85 484.7 134.5 477.6 132.6 475.55 132.0 474.9 Q131.25 473.7 131.1 472.3 L132.1 471.3 134.35 471.05 136.85 474.45 140.35 473.45 140.65 467.9 138.75 465.7 Q136.85 468.3 134.45 466.4 132.8 465.1 132.0 462.9 131.0 460.15 131.85 457.2 L132.85 456.2 126.6 455.45 Q125.95 452.7 126.9 450.1 127.9 447.45 131.1 445.4" fill="#605030" fill-rule="evenodd" stroke="none"/>
    <path d="M107.05 205.75 L109.0 211.1 112.2 220.6 Q133.85 291.8 107.05 354.1 96.7 295.3 107.05 205.75 M196.85 354.1 Q170.05 291.8 191.75 220.6 L194.95 211.1 196.85 205.75 Q207.2 295.3 196.85 354.1" fill="#000050" fill-rule="evenodd" stroke="none"/>
    <path d="M112.2 220.6 L109.0 211.1 107.05 205.75 196.85 205.75 194.95 211.1 191.75 220.6 Q170.05 291.8 196.85 354.1 L196.7 354.95 Q189.15 396.9 168.35 439.8 162.1 446.35 156.85 447.35 151.85 448.2 147.1 447.35 141.8 446.35 135.55 439.8 148.95 330.2 112.2 220.6" fill="url(#gradient0)" fill-rule="evenodd" stroke="none"/>
    <path d="M112.2 220.6 Q148.95 330.2 135.55 439.8 114.75 396.9 107.2 354.95 L107.05 354.1 Q133.85 291.8 112.2 220.6" fill="url(#gradient1)" fill-rule="evenodd" stroke="none"/>
    <path d="M20.0 318.0 L20.0 284.45 Q21.4 283.65 22.9 283.0 25.95 281.6 27.1 279.25 L27.3 278.65 27.7 277.25 27.95 276.65 Q29.85 274.15 32.9 272.55 L36.1 270.95 Q37.75 270.2 39.5 269.65 42.5 268.7 45.2 267.0 46.5 266.2 47.95 265.65 49.65 264.95 51.45 264.8 L53.55 264.4 56.45 263.5 Q61.4 261.95 64.45 257.65 67.35 253.5 69.9 249.15 70.7 247.85 71.8 246.95 L73.15 245.9 74.4 245.05 Q78.75 242.25 84.05 241.45 L93.0 240.85 Q94.3 240.9 95.6 241.55 98.4 243.0 101.5 243.35 L105.0 243.65 108.95 243.35 110.55 242.9 112.95 242.0 114.5 241.15 116.55 239.8 Q117.4 239.2 118.3 238.8 L118.75 238.45 119.4 238.0 122.1 236.35 124.55 234.75 Q127.5 233.1 130.55 232.4 L132.5 232.1 Q137.45 231.7 141.5 233.15 143.1 233.75 144.6 234.5 145.5 234.95 146.5 235.0 151.25 235.2 155.95 234.85 L159.5 234.3 167.0 233.65 Q176.65 234.0 186.05 236.0 190.65 236.95 194.5 240.2 195.6 241.05 196.9 241.55 198.0 241.95 199.0 242.75 203.25 246.15 208.45 246.95 L216.0 248.2 220.95 249.4 Q222.9 249.95 224.85 250.65 L226.65 251.5 228.9 252.85 Q231.3 254.2 232.6 256.15 L233.6 257.0 Q234.6 257.6 234.6 259.2 234.6 263.35 236.95 266.7 L239.25 269.45 241.9 271.8 243.9 273.8 Q245.25 275.4 247.45 275.85 L233.55 275.25 232.6 275.1 Q228.5 273.85 224.55 271.75 223.55 271.25 222.55 271.2 214.55 270.75 206.55 270.85 205.15 270.85 204.15 271.4 L202.0 272.65 Q196.6 275.95 190.6 276.95 L187.0 277.45 Q184.3 277.75 181.55 277.55 L179.55 277.55 Q176.8 277.65 174.55 276.8 L173.05 276.25 Q168.15 274.6 162.55 275.35 L160.05 275.7 149.05 276.6 133.55 276.65 Q123.75 276.5 115.1 280.8 113.0 281.85 111.15 282.95 108.6 284.45 106.0 285.15 L103.55 285.55 93.55 285.75 91.2 285.3 Q88.2 284.15 85.05 284.25 L83.55 284.45 Q74.6 286.85 65.9 291.05 L64.05 291.85 Q61.75 292.8 60.4 293.6 L59.3 294.5 Q57.35 296.6 54.5 297.75 49.35 299.85 44.6 302.45 L43.55 303.3 Q42.3 304.7 40.5 305.8 L38.95 306.55 Q32.35 309.15 27.05 313.3 L26.45 313.65 Q22.65 315.5 20.0 318.0" fill="#000000" fill-opacity="0.7529412" fill-rule="evenodd" stroke="none"/>
    <path d="M280.0 285.95 L280.0 355.8 20.0 355.8 20.0 318.0 Q22.65 315.5 26.45 313.65 L27.05 313.3 Q32.35 309.15 38.95 306.55 L40.5 305.8 Q42.3 304.7 43.55 303.3 L44.6 302.45 Q49.35 299.85 54.5 297.75 57.35 296.6 59.3 294.5 L60.4 293.6 Q61.75 292.8 64.05 291.85 L65.9 291.05 Q74.6 286.85 83.55 284.45 L85.05 284.25 Q88.2 284.15 91.2 285.3 L93.55 285.75 103.55 285.55 106.0 285.15 Q108.6 284.45 111.15 282.95 113.0 281.85 115.1 280.8 123.75 276.5 133.55 276.65 L149.05 276.6 160.05 275.7 162.55 275.35 Q168.15 274.6 173.05 276.25 L174.55 276.8 Q176.8 277.65 179.55 277.55 L181.55 277.55 Q184.3 277.75 187.0 277.45 L190.6 276.95 Q196.6 275.95 202.0 272.65 L204.15 271.4 Q205.15 270.85 206.55 270.85 214.55 270.75 222.55 271.2 223.55 271.25 224.55 271.75 228.5 273.85 232.6 275.1 L233.55 275.25 247.45 275.85 Q248.55 276.1 249.9 276.85 L251.05 277.6 256.45 281.3 262.0 284.65 262.9 285.35 263.65 286.0 Q265.35 287.3 267.5 287.4 268.45 287.45 268.75 286.6 269.1 285.8 270.55 286.0 L273.0 286.25 280.0 285.95" fill="#000000" fill-opacity="0.5019608" fill-rule="evenodd" stroke="none"/>
    <path d="M280.0 355.8 L280.0 369.8 20.0 369.8 20.0 355.8 280.0 355.8" fill="#000000" fill-opacity="0.2509804" fill-rule="evenodd" stroke="none"/>
    <path d="M20.0 284.45 Q17.15 285.95 14.55 287.8 11.25 290.2 7.5 292.2 3.85 294.2 0.0 295.75 L0.0 225.2 12.5 224.95 Q17.4 224.85 21.95 223.1 25.9 221.6 30.0 221.4 32.8 221.25 35.2 220.15 37.25 219.2 39.4 218.45 47.7 215.65 55.5 211.7 L65.1 206.9 Q67.0 205.95 69.05 205.35 73.2 204.15 77.45 203.1 L80.5 202.15 86.9 199.5 Q89.3 198.35 91.95 197.95 L94.95 197.05 Q99.3 195.0 103.9 193.8 L108.6 192.65 114.5 191.6 Q124.05 190.5 133.45 191.9 L137.55 192.4 143.0 192.7 160.5 192.5 171.5 193.0 174.45 193.5 Q175.5 193.7 176.5 194.2 178.75 195.35 181.4 196.1 L183.6 197.0 Q187.15 198.85 191.0 199.75 200.5 201.95 209.45 205.75 214.05 207.7 218.95 208.95 L221.05 209.45 223.45 209.95 231.5 210.4 Q241.35 209.9 251.0 210.55 253.5 210.7 254.7 212.6 255.25 213.45 256.1 214.1 L259.55 217.15 Q260.85 218.45 262.4 219.4 266.0 221.55 270.0 223.25 274.95 225.4 280.05 227.05 L286.0 229.15 Q290.55 230.85 294.45 232.8 297.25 234.25 299.85 237.4 L299.95 237.5 300.0 237.6 300.0 281.2 292.0 281.2 Q291.5 281.2 291.35 281.4 290.5 282.75 289.0 282.9 287.8 283.0 286.65 283.9 L285.85 284.35 Q283.05 285.45 280.0 285.95 L273.0 286.25 270.55 286.0 Q269.1 285.8 268.75 286.6 268.45 287.45 267.5 287.4 265.35 287.3 263.65 286.0 L262.9 285.35 262.0 284.65 256.45 281.3 251.05 277.6 249.9 276.85 Q248.55 276.1 247.45 275.85 245.25 275.4 243.9 273.8 L241.9 271.8 239.25 269.45 236.95 266.7 Q234.6 263.35 234.6 259.2 234.6 257.6 233.6 257.0 L232.6 256.15 Q231.3 254.2 228.9 252.85 L226.65 251.5 224.85 250.65 Q222.9 249.95 220.95 249.4 L216.0 248.2 208.45 246.95 Q203.25 246.15 199.0 242.75 198.0 241.95 196.9 241.55 195.6 241.05 194.5 240.2 190.65 236.95 186.05 236.0 176.65 234.0 167.0 233.65 L159.5 234.3 155.95 234.85 Q151.25 235.2 146.5 235.0 145.5 234.95 144.6 234.5 143.1 233.75 141.5 233.15 137.45 231.7 132.5 232.1 L130.55 232.4 Q127.5 233.1 124.55 234.75 L122.1 236.35 119.4 238.0 118.75 238.45 118.3 238.8 Q117.4 239.2 116.55 239.8 L114.5 241.15 112.95 242.0 110.55 242.9 108.95 243.35 105.0 243.65 101.5 243.35 Q98.4 243.0 95.6 241.55 94.3 240.9 93.0 240.85 L84.05 241.45 Q78.75 242.25 74.4 245.05 L73.15 245.9 71.8 246.95 Q70.7 247.85 69.9 249.15 67.35 253.5 64.45 257.65 61.4 261.95 56.45 263.5 L53.55 264.4 51.45 264.8 Q49.65 264.95 47.95 265.65 46.5 266.2 45.2 267.0 42.5 268.7 39.5 269.65 37.75 270.2 36.1 270.95 L32.9 272.55 Q29.85 274.15 27.95 276.65 L27.7 277.25 27.3 278.65 27.1 279.25 Q25.95 281.6 22.9 283.0 21.4 283.65 20.0 284.45" fill="#605030" fill-rule="evenodd" stroke="none"/>
    <path d="M33.55 485.25 L59.5 492.8 55.5 501.05 56.95 513.1 54.1 512.25 Q42.85 508.6 31.6 511.85 L30.8 512.25 30.45 511.95 Q21.1 512.1 17.0 503.9 L16.4 502.65 18.15 493.6 33.55 485.25 M59.7 732.45 L60.7 732.05 59.45 731.8 59.7 732.45 M264.85 751.8 L265.05 752.2 265.1 751.85 264.85 751.8 M293.3 730.35 Q297.2 731.2 300.65 733.35 L306.85 746.0 Q305.7 751.5 301.8 755.45 297.75 759.65 292.2 760.8 285.9 761.8 281.05 757.55 L264.85 756.8 Q262.75 752.1 262.55 746.8 262.25 738.05 267.65 730.85 L277.75 732.45 280.4 731.35 Q286.85 728.8 293.3 730.35 M270.8 642.3 L280.1 642.55 282.25 645.1 286.55 645.7 284.45 653.65 279.15 656.1 276.85 660.95 265.0 660.9 253.45 651.0 266.15 638.15 270.8 642.3 M23.0 726.25 L29.15 732.2 Q48.65 726.55 67.55 733.85 L64.7 744.4 Q63.65 748.2 61.5 751.25 52.5 763.6 37.15 760.0 L17.65 748.5 15.15 745.7 15.35 745.3 Q13.85 733.65 23.0 726.25 M204.8 2100.0 L207.7 2104.6 217.8 2105.8 220.3 2113.25 228.45 2115.0 226.1 2124.4 Q244.25 2113.85 262.55 2123.95 L259.35 2144.9 246.0 2145.3 243.9 2146.6 Q229.7 2155.4 217.5 2144.05 L199.55 2136.5 198.8 2129.8 Q180.1 2132.3 166.3 2119.65 L166.65 2118.15 Q170.6 2104.3 184.6 2105.65 193.2 2097.35 204.8 2100.0 M255.55 1983.65 L257.7 1986.2 262.0 1986.8 259.9 1994.75 254.6 1997.2 252.3 2002.05 240.45 2002.0 228.9 1992.1 241.6 1979.25 246.25 1983.4 255.55 1983.65 M284.15 1791.15 L292.0 1796.55 289.05 1810.4 Q277.75 1810.75 266.5 1810.6 257.4 1810.5 253.05 1802.55 252.0 1800.7 251.25 1798.7 L265.15 1779.35 281.55 1783.1 284.15 1791.15 M67.7 1917.5 L72.7 1924.45 84.95 1928.75 85.8 1934.3 75.45 1947.05 Q65.1 1950.7 54.1 1950.05 40.6 1948.7 36.5 1936.05 L36.15 1934.65 Q35.9 1932.65 36.7 1931.15 38.3 1927.95 41.8 1927.0 L45.2 1915.8 52.5 1915.3 57.3 1917.95 67.7 1917.5 M95.8 1843.25 L95.8 1843.05 95.75 1843.05 95.8 1843.25 M143.4 1823.7 Q151.4 1829.8 161.1 1830.1 L163.8 1834.05 Q161.25 1839.75 162.85 1845.5 L164.1 1849.25 150.9 1855.3 Q149.4 1859.9 145.7 1863.2 140.2 1867.95 133.15 1868.6 L123.6 1862.85 121.85 1864.8 Q120.5 1866.2 118.65 1866.9 108.3 1871.05 100.05 1862.65 98.65 1861.2 98.15 1859.05 96.15 1849.95 93.1 1841.2 L101.3 1837.35 Q101.4 1832.85 104.0 1829.25 110.95 1819.75 121.75 1824.1 L123.95 1827.75 Q126.6 1827.9 128.95 1826.55 134.85 1823.3 141.45 1822.75 142.55 1823.05 143.4 1823.7 M66.95 1760.45 L70.2 1765.35 82.65 1766.6 84.0 1769.6 93.1 1775.1 75.35 1794.3 65.55 1795.4 63.5 1797.55 56.6 1798.3 55.8 1798.25 49.7 1797.25 Q45.15 1796.3 41.15 1794.0 L38.5 1792.45 Q34.65 1790.1 31.45 1786.95 L31.8 1770.0 Q40.0 1765.4 48.85 1763.0 L53.3 1761.95 Q60.05 1760.7 66.95 1760.45 M305.95 1395.4 L313.8 1400.8 310.85 1414.65 Q299.55 1415.0 288.3 1414.85 279.2 1414.75 274.85 1406.8 273.8 1404.95 273.05 1402.95 L286.95 1383.6 303.35 1387.35 305.95 1395.4 M289.65 1425.0 L290.0 1430.6 281.65 1443.4 281.4 1444.0 281.2 1444.1 278.9 1447.6 Q275.1 1448.7 270.95 1449.0 250.0 1450.05 237.35 1433.1 L237.1 1432.7 235.05 1429.1 Q243.85 1419.85 256.0 1415.7 275.85 1409.05 289.65 1425.0 M159.45 2016.3 L155.45 2024.55 156.9 2036.6 154.05 2035.75 Q142.8 2032.1 131.55 2035.35 L130.75 2035.75 130.4 2035.45 Q121.05 2035.6 116.95 2027.4 L116.35 2026.15 118.1 2017.1 133.5 2008.75 159.45 2016.3 M50.2 2209.9 L52.55 2212.4 52.45 2215.8 59.25 2217.35 70.65 2230.0 66.25 2236.85 58.95 2238.2 57.65 2247.1 25.6 2245.6 25.0 2245.65 24.9 2245.4 Q12.65 2234.75 15.15 2219.0 16.0 2213.65 18.45 2208.75 21.55 2202.55 25.5 2197.0 28.5 2192.75 32.0 2188.95 L34.35 2186.4 37.45 2186.6 41.25 2200.75 50.8 2200.6 50.2 2209.9" fill="#000000" fill-opacity="0.33333334" fill-rule="evenodd" stroke="none"/>
    <path d="M272.5 835.7 Q277.95 838.65 283.15 842.5 284.4 843.4 286.0 843.4 L287.5 843.55 Q291.0 844.15 293.7 842.5 294.25 842.15 295.0 842.2 297.65 842.35 300.0 843.15 L300.0 874.1 294.25 873.3 292.85 873.6 288.5 874.15 285.05 874.4 281.45 874.9 Q279.25 875.2 277.0 874.95 L271.0 874.65 268.05 874.4 264.95 873.95 260.2 873.0 Q258.15 872.35 256.0 872.2 251.15 871.8 246.45 870.25 L238.45 867.85 Q234.4 866.75 231.5 863.65 228.1 859.9 224.6 857.55 224.0 857.15 223.4 856.85 220.5 855.5 217.6 853.5 L215.9 852.3 Q215.0 851.65 213.95 851.5 L206.55 851.8 205.5 851.95 198.0 852.35 192.95 851.8 184.05 849.05 179.95 847.75 Q175.1 846.4 171.05 844.05 L170.45 843.85 Q169.4 843.65 168.65 843.0 168.0 842.4 167.3 841.95 L165.55 841.0 Q164.75 840.65 163.95 840.45 157.85 839.05 151.5 840.65 L147.45 841.35 141.0 841.8 Q139.05 841.9 137.55 842.7 136.35 843.4 135.0 843.4 L134.45 843.5 Q134.0 843.65 133.7 843.9 L130.45 846.55 Q126.9 849.8 124.6 854.2 L123.75 855.35 Q121.35 857.45 122.1 860.6 L122.45 861.65 Q124.15 866.2 126.2 870.55 126.75 871.65 126.9 872.65 127.2 874.55 125.9 875.5 L123.55 876.7 121.45 877.35 118.5 877.75 114.5 878.25 Q110.4 878.95 106.55 880.25 103.6 881.25 100.95 883.1 99.0 884.45 98.8 886.65 L98.35 888.05 Q97.45 889.55 96.05 890.7 L94.9 891.4 93.65 891.95 Q90.95 893.25 88.45 895.1 L86.95 896.0 Q82.9 897.7 79.1 900.75 L77.35 901.85 Q74.95 903.1 72.95 905.1 69.7 908.4 66.1 910.75 L64.9 911.4 Q60.9 913.05 57.5 915.1 L56.45 915.5 54.0 915.75 42.5 916.75 38.5 916.9 Q31.75 916.65 25.5 918.2 24.75 918.4 24.25 918.9 23.9 919.3 22.95 919.5 22.05 919.7 21.7 920.7 L20.45 923.1 17.9 925.55 15.55 926.7 13.05 927.75 12.45 927.95 Q11.5 928.15 10.75 928.6 7.8 930.3 4.5 930.6 L3.0 930.75 0.0 930.85 0.0 883.6 0.9 883.35 4.1 882.4 6.95 881.45 15.05 879.25 Q21.3 877.75 28.0 877.85 L30.45 877.55 34.0 876.75 34.85 876.4 Q35.25 876.15 35.25 875.65 35.5 870.4 35.05 865.2 L34.7 863.6 34.4 862.15 34.1 860.65 Q33.4 856.9 36.4 854.5 L38.6 852.75 Q43.1 848.95 48.05 845.7 52.55 842.7 56.6 840.3 60.8 837.75 64.5 834.15 L64.95 833.6 Q66.35 831.65 68.8 830.3 L71.1 828.75 Q74.85 825.65 79.05 824.3 L80.0 824.15 98.5 824.15 108.95 823.75 111.0 823.2 Q113.4 822.05 115.9 821.65 117.5 821.4 119.05 820.75 L124.45 818.5 Q127.95 817.05 131.05 814.75 132.2 813.85 133.45 813.5 L133.85 813.1 Q135.25 809.6 137.55 806.15 L144.25 796.0 144.65 795.2 145.05 794.85 146.6 794.45 148.5 794.1 Q156.65 793.75 164.45 795.8 169.8 797.2 173.05 800.1 176.2 802.95 179.5 805.65 182.75 808.25 186.4 810.3 L188.5 811.65 194.0 815.65 Q197.2 817.85 200.2 820.4 200.75 820.9 201.5 821.1 L206.55 822.5 207.9 822.9 209.6 823.45 211.0 823.65 227.5 823.85 230.0 823.95 Q235.5 824.15 241.0 823.9 242.6 823.85 244.05 824.6 246.1 825.7 248.5 826.2 253.0 827.1 257.05 829.05 L258.5 829.65 Q263.25 831.2 267.6 833.45 L270.45 834.75 272.5 835.7" fill="#483d24" fill-rule="evenodd" stroke="none"/>
    <path d="M20.0 355.8 L280.0 355.8" fill="none" stroke="#8858c8" stroke-linecap="round" stroke-linejoin="round" stroke-width="1.0"/>
    <path d="M42.85 489.35 Q27.75 494.3 13.4 487.35 L10.7 488.7 10.7 485.7 Q12.5 484.75 14.35 483.9 26.95 477.65 40.9 480.3 L46.55 485.15 42.85 489.35 M33.05 487.7 L40.45 485.6 27.3 485.7 33.05 487.7 M49.45 721.8 L49.7 722.45 40.4 731.9 Q28.7 728.35 16.9 731.15 10.7 732.65 5.15 735.7 L5.35 735.3 13.25 719.2 17.55 724.8 27.25 723.9 23.4 726.35 30.8 724.05 35.6 725.9 37.55 725.1 33.6 723.3 49.45 721.8 M268.9 635.45 L265.45 637.05 258.95 636.7 256.1 640.65 263.55 639.95 269.25 635.85 273.55 637.5 270.95 642.4 268.5 641.75 Q258.35 639.3 251.75 645.35 L246.8 641.0 256.15 631.6 259.1 635.5 267.05 633.2 268.9 635.45 M285.7 729.2 L279.25 728.75 275.35 729.7 272.35 724.95 262.85 735.2 271.35 727.0 273.85 731.7 284.75 730.7 285.7 729.2 M290.5 731.7 L285.45 736.35 282.0 735.75 Q267.55 734.35 255.1 741.85 L254.85 741.8 259.3 723.4 288.4 725.5 290.5 731.7 M287.8 1382.3 L288.0 1379.75 286.05 1383.6 292.05 1391.15 293.05 1388.4 287.8 1382.3 M268.85 1398.5 L266.0 1391.85 277.8 1376.85 291.15 1379.6 296.35 1389.25 293.85 1393.5 268.85 1398.5 M227.1 1422.7 L229.9 1416.7 241.9 1409.6 245.75 1410.15 250.95 1404.9 260.55 1410.45 265.25 1408.3 269.25 1409.05 272.4 1412.1 270.7 1418.7 233.95 1429.0 227.35 1423.1 227.1 1422.7 M256.65 1415.6 L258.7 1412.3 251.4 1412.35 244.7 1419.5 256.65 1415.6 M271.05 1411.85 L268.4 1411.35 263.05 1417.15 269.15 1414.85 271.05 1411.85 M247.05 1794.25 L244.2 1787.6 256.0 1772.6 269.35 1775.35 274.55 1785.0 272.05 1789.25 247.05 1794.25 M266.2 1775.5 L264.25 1779.35 270.25 1786.9 271.25 1784.15 266.0 1778.05 266.2 1775.5 M31.55 1769.3 L33.85 1769.15 Q47.5 1768.15 57.95 1759.45 L52.7 1761.25 47.65 1758.85 31.55 1769.3 M70.35 1759.5 Q55.3 1773.3 35.0 1772.3 L28.15 1771.55 25.45 1775.5 Q21.25 1765.75 28.8 1758.4 L31.15 1756.35 33.4 1757.95 46.4 1751.9 49.75 1754.8 52.85 1752.5 57.35 1757.35 70.35 1759.5 M148.95 1828.85 Q146.5 1827.4 143.45 1827.45 136.55 1827.5 130.85 1831.5 120.2 1839.05 108.15 1835.2 98.2 1832.0 89.2 1838.4 L85.8 1833.25 85.8 1833.05 94.15 1830.95 Q93.45 1821.1 101.65 1816.95 103.45 1816.05 105.5 1815.7 L109.5 1816.0 112.35 1820.45 133.8 1815.35 Q137.6 1819.95 142.9 1821.65 146.5 1822.9 150.45 1823.1 L148.95 1828.85 M108.8 1819.9 L101.6 1829.3 108.0 1822.1 108.35 1830.2 118.0 1827.15 119.55 1830.65 125.5 1824.65 119.65 1828.15 118.55 1825.0 109.05 1828.05 108.8 1819.9 M31.4 1920.65 Q32.9 1919.65 34.45 1918.7 L35.75 1908.65 65.35 1917.75 64.05 1923.2 62.25 1923.9 Q45.9 1929.8 31.4 1920.65 M49.1 1914.4 L45.9 1914.5 42.65 1920.1 47.25 1916.15 48.2 1918.15 60.65 1917.85 50.35 1917.05 49.1 1914.4 M244.35 1976.55 L240.9 1978.15 234.4 1977.8 231.55 1981.75 239.0 1981.05 244.7 1976.95 249.0 1978.6 246.4 1983.5 243.95 1982.85 Q233.8 1980.4 227.2 1986.45 L222.25 1982.1 231.6 1972.7 234.55 1976.6 242.5 1974.3 244.35 1976.55 M159.8 2102.05 L168.45 2096.3 176.5 2098.15 Q178.7 2096.4 181.0 2094.75 183.65 2092.75 186.9 2092.15 190.25 2091.75 193.3 2092.7 L195.4 2097.3 206.8 2098.9 208.2 2105.5 215.65 2107.7 213.0 2116.7 Q230.75 2111.8 249.1 2112.8 L248.65 2121.0 Q230.55 2128.4 211.65 2121.65 L205.85 2119.4 Q196.65 2115.65 187.95 2110.9 181.4 2107.2 174.45 2105.2 167.4 2103.15 159.8 2102.05 M181.65 2095.9 L180.45 2099.25 191.0 2095.75 181.65 2095.9 M211.2 2110.75 L204.35 2108.2 203.5 2106.35 199.0 2104.7 198.8 2106.9 208.2 2113.1 211.2 2110.75 M110.65 2012.2 L110.65 2009.2 114.3 2007.4 Q126.9 2001.15 140.85 2003.8 L146.5 2008.65 142.8 2012.85 Q127.7 2017.8 113.35 2010.85 L110.65 2012.2 M140.4 2009.1 L127.25 2009.2 133.0 2011.2 140.4 2009.1 M14.9 2235.4 Q3.9 2215.05 11.05 2201.1 18.15 2187.15 26.6 2179.55 L28.85 2193.75 38.45 2193.8 36.35 2201.0 48.6 2211.1 40.85 2222.2 16.0 2230.4 15.0 2235.65 14.9 2235.4 M30.95 2212.55 L32.55 2209.5 28.0 2208.65 26.75 2206.0 23.75 2205.5 19.25 2221.05 23.4 2209.8 26.45 2213.05 30.95 2212.55" fill="#4a9500" fill-rule="evenodd" stroke="none"/>
    <path d="M42.85 489.35 L46.55 485.15 40.9 480.3 Q26.95 477.65 14.35 483.9 12.5 484.75 10.7 485.7 L10.7 488.7 8.3 492.4 20.45 501.95 Q11.1 502.1 7.0 493.9 L6.4 492.65 8.15 483.6 23.55 475.25 40.9 480.3 49.5 482.8 45.5 491.05 46.95 503.1 44.1 502.25 Q32.85 498.6 21.6 501.85 L29.55 497.75 45.4 500.9 42.85 489.35 M50.7 722.05 L49.45 721.8 33.6 723.3 30.4 721.85 27.25 723.9 17.55 724.8 13.25 719.2 5.35 735.3 Q3.85 723.65 13.0 716.25 L19.15 722.2 Q38.65 716.55 57.55 723.85 L54.7 734.4 Q53.65 738.2 51.5 741.25 42.5 753.6 27.15 750.0 L47.75 743.4 49.75 735.45 54.4 731.05 54.5 723.95 50.7 722.05 M24.2 748.15 L7.65 738.5 19.45 740.95 24.2 748.15 M268.9 635.45 L267.05 633.2 259.1 635.5 256.15 631.6 246.8 641.0 251.75 645.35 255.85 648.75 265.25 649.1 270.95 642.4 273.55 637.5 269.25 635.85 268.9 635.45 M243.45 641.0 L256.15 628.15 260.8 632.3 270.1 632.55 272.25 635.1 276.55 635.7 274.45 643.65 269.15 646.1 266.85 650.95 255.0 650.9 243.45 641.0 M290.5 731.7 L288.4 725.5 259.3 723.4 254.85 741.8 255.05 742.2 282.05 750.05 293.65 735.65 290.5 731.7 M293.35 1377.35 L295.95 1385.4 303.8 1390.8 300.85 1404.65 Q289.55 1405.0 278.3 1404.85 269.2 1404.75 264.85 1396.8 263.8 1394.95 263.05 1392.95 L276.95 1373.6 293.35 1377.35 M290.65 723.35 L296.85 736.0 Q295.7 741.5 291.8 745.45 287.75 749.65 282.2 750.8 275.9 751.8 271.05 747.55 L254.85 746.8 Q252.75 742.1 252.55 736.8 252.25 728.05 257.65 720.85 L267.75 722.45 270.4 721.35 Q276.85 718.8 283.3 720.35 287.2 721.2 290.65 723.35 M296.35 1389.25 L291.15 1379.6 277.8 1376.85 266.0 1391.85 268.85 1398.5 Q274.3 1402.85 281.2 1403.85 290.15 1404.75 298.75 1402.55 L300.6 1391.7 296.35 1389.25 M272.4 1412.1 L269.25 1409.05 265.25 1408.3 260.55 1410.45 250.95 1404.9 245.75 1410.15 241.9 1409.6 229.9 1416.7 227.1 1422.7 225.05 1419.1 Q233.85 1409.85 246.0 1405.7 265.85 1399.05 279.65 1415.0 L272.4 1412.1 M227.35 1423.1 L233.95 1429.0 236.95 1430.25 Q253.55 1437.35 271.2 1434.1 L268.9 1437.6 Q265.1 1438.7 260.95 1439.0 240.0 1440.05 227.35 1423.1 M271.65 1433.4 L273.25 1425.9 280.0 1420.6 271.65 1433.4 M274.55 1785.0 L269.35 1775.35 256.0 1772.6 244.2 1787.6 247.05 1794.25 Q252.5 1798.6 259.4 1799.6 268.35 1800.5 276.95 1798.3 L278.8 1787.45 274.55 1785.0 M255.15 1769.35 L271.55 1773.1 274.15 1781.15 282.0 1786.55 279.05 1800.4 Q267.75 1800.75 256.5 1800.6 247.4 1800.5 243.05 1792.55 242.0 1790.7 241.25 1788.7 L255.15 1769.35 M25.45 1775.5 L27.25 1776.7 27.9 1777.25 45.8 1788.25 39.7 1787.25 Q35.15 1786.3 31.15 1784.0 L28.5 1782.45 Q24.65 1780.1 21.45 1776.95 L21.8 1760.0 Q30.0 1755.4 38.85 1753.0 L43.3 1751.95 Q50.05 1750.7 56.95 1750.45 L60.2 1755.35 72.65 1756.6 74.0 1759.6 83.1 1765.1 65.35 1784.3 55.55 1785.4 53.5 1787.55 46.6 1788.3 55.0 1780.65 64.1 1781.55 78.35 1766.6 70.35 1759.5 57.35 1757.35 52.85 1752.5 49.75 1754.8 46.4 1751.9 33.4 1757.95 31.15 1756.35 28.8 1758.4 Q21.25 1765.75 25.45 1775.5 M148.95 1828.85 L150.45 1823.1 Q146.5 1822.9 142.9 1821.65 137.6 1819.95 133.8 1815.35 L112.35 1820.45 109.5 1816.0 105.5 1815.7 Q103.45 1816.05 101.65 1816.95 93.45 1821.1 94.15 1830.95 L85.8 1833.05 85.75 1833.05 85.8 1833.25 89.2 1838.4 90.2 1847.85 104.5 1855.2 113.1 1849.75 123.85 1855.6 Q128.5 1854.35 132.6 1851.9 137.95 1848.65 138.25 1842.55 L138.3 1841.2 151.0 1838.2 148.95 1828.85 M133.4 1813.7 Q141.4 1819.8 151.1 1820.1 L153.8 1824.05 Q151.25 1829.75 152.85 1835.5 L154.1 1839.25 140.9 1845.3 Q139.4 1849.9 135.7 1853.2 130.2 1857.95 123.15 1858.6 L113.6 1852.85 111.85 1854.8 Q110.5 1856.2 108.65 1856.9 98.3 1861.05 90.05 1852.65 88.65 1851.2 88.15 1849.05 86.15 1839.95 83.1 1831.2 L91.3 1827.35 Q91.4 1822.85 94.0 1819.25 100.95 1809.75 111.75 1814.1 L113.95 1817.75 Q116.6 1817.9 118.95 1816.55 124.85 1813.3 131.45 1812.75 132.55 1813.05 133.4 1813.7 M26.15 1924.65 Q25.9 1922.65 26.7 1921.15 28.3 1917.95 31.8 1917.0 L35.2 1905.8 42.5 1905.3 47.3 1907.95 57.7 1907.5 62.7 1914.45 74.95 1918.75 75.8 1924.3 65.45 1937.05 Q55.1 1940.7 44.1 1940.05 30.6 1938.7 26.5 1926.05 L41.3 1937.55 63.2 1934.95 73.1 1921.95 65.35 1917.75 35.75 1908.65 34.45 1918.7 Q32.9 1919.65 31.4 1920.65 L26.15 1924.65 M244.35 1976.55 L242.5 1974.3 234.55 1976.6 231.6 1972.7 222.25 1982.1 227.2 1986.45 231.3 1989.85 240.7 1990.2 246.4 1983.5 249.0 1978.6 244.7 1976.95 244.35 1976.55 M231.6 1969.25 L236.25 1973.4 245.55 1973.65 247.7 1976.2 252.0 1976.8 249.9 1984.75 244.6 1987.2 242.3 1992.05 230.45 1992.0 218.9 1982.1 231.6 1969.25 M206.05 2133.35 L189.55 2126.5 188.8 2119.8 Q170.1 2122.3 156.3 2109.65 L156.65 2108.15 Q160.6 2094.3 174.6 2095.65 183.2 2087.35 194.8 2090.0 L197.7 2094.6 207.8 2095.8 210.3 2103.25 218.45 2105.0 216.1 2114.4 Q234.25 2103.85 252.55 2113.95 L249.35 2134.9 236.0 2135.3 233.9 2136.6 Q219.7 2145.4 207.5 2134.05 216.65 2138.6 225.95 2134.7 229.8 2133.15 233.55 2131.25 L247.9 2133.5 248.65 2121.0 249.1 2112.8 Q230.75 2111.8 213.0 2116.7 L215.65 2107.7 208.2 2105.5 206.8 2098.9 195.4 2097.3 193.3 2092.7 Q190.25 2091.75 186.9 2092.15 183.65 2092.75 181.0 2094.75 178.7 2096.4 176.5 2098.15 L168.45 2096.3 159.8 2102.05 158.45 2109.45 Q167.3 2115.35 177.95 2116.45 L190.25 2115.9 192.1 2124.85 206.05 2133.35 M120.4 2025.45 Q111.05 2025.6 106.95 2017.4 L106.35 2016.15 108.1 2007.1 123.5 1998.75 140.85 2003.8 149.45 2006.3 145.45 2014.55 146.9 2026.6 144.05 2025.75 Q132.8 2022.1 121.55 2025.35 L129.5 2021.25 145.35 2024.4 142.8 2012.85 146.5 2008.65 140.85 2003.8 Q126.9 2001.15 114.3 2007.4 L110.65 2009.2 110.65 2012.2 108.25 2015.9 120.4 2025.45 M14.9 2235.4 Q2.65 2224.75 5.15 2209.0 6.0 2203.65 8.45 2198.75 11.55 2192.55 15.5 2187.0 18.5 2182.75 22.0 2178.95 L24.35 2176.4 27.45 2176.6 31.25 2190.75 40.8 2190.6 40.2 2199.9 42.55 2202.4 42.45 2205.8 49.25 2207.35 60.65 2220.0 56.25 2226.85 48.95 2228.2 47.65 2237.1 15.6 2235.6 43.6 2234.75 46.65 2226.4 54.8 2224.05 57.6 2220.35 48.6 2211.1 36.35 2201.0 38.45 2193.8 28.85 2193.75 26.6 2179.55 Q18.15 2187.15 11.05 2201.1 3.9 2215.05 14.9 2235.4" fill="#003300" fill-rule="evenodd" stroke="none"/>
    <path d="M33.05 487.7 L27.3 485.7 40.45 485.6 33.05 487.7 M33.6 723.3 L37.55 725.1 35.6 725.9 30.8 724.05 23.4 726.35 27.25 723.9 30.4 721.85 33.6 723.3 M269.25 635.85 L263.55 639.95 256.1 640.65 258.95 636.7 265.45 637.05 268.9 635.45 269.25 635.85 M285.7 729.2 L284.75 730.7 273.85 731.7 271.35 727.0 262.85 735.2 272.35 724.95 275.35 729.7 279.25 728.75 285.7 729.2 M287.8 1382.3 L293.05 1388.4 292.05 1391.15 286.05 1383.6 288.0 1379.75 287.8 1382.3 M256.65 1415.6 L244.7 1419.5 251.4 1412.35 258.7 1412.3 256.65 1415.6 M271.05 1411.85 L269.15 1414.85 263.05 1417.15 268.4 1411.35 271.05 1411.85 M266.2 1775.5 L266.0 1778.05 271.25 1784.15 270.25 1786.9 264.25 1779.35 266.2 1775.5 M31.55 1769.3 L47.65 1758.85 52.7 1761.25 57.95 1759.45 Q47.5 1768.15 33.85 1769.15 L31.55 1769.3 M108.8 1819.9 L109.05 1828.05 118.55 1825.0 119.65 1828.15 125.5 1824.65 119.55 1830.65 118.0 1827.15 108.35 1830.2 108.0 1822.1 101.6 1829.3 108.8 1819.9 M49.1 1914.4 L50.35 1917.05 60.65 1917.85 48.2 1918.15 47.25 1916.15 42.65 1920.1 45.9 1914.5 49.1 1914.4 M244.7 1976.95 L239.0 1981.05 231.55 1981.75 234.4 1977.8 240.9 1978.15 244.35 1976.55 244.7 1976.95 M211.2 2110.75 L208.2 2113.1 198.8 2106.9 199.0 2104.7 203.5 2106.35 204.35 2108.2 211.2 2110.75 M181.65 2095.9 L191.0 2095.75 180.45 2099.25 181.65 2095.9 M140.4 2009.1 L133.0 2011.2 127.25 2009.2 140.4 2009.1 M30.95 2212.55 L26.45 2213.05 23.4 2209.8 19.25 2221.05 23.75 2205.5 26.75 2206.0 28.0 2208.65 32.55 2209.5 30.95 2212.55" fill="#7cf900" fill-rule="evenodd" stroke="none"/>
    <path d="M10.7 488.7 L13.4 487.35 Q27.75 494.3 42.85 489.35 L45.4 500.9 29.55 497.75 21.6 501.85 20.8 502.25 20.45 501.95 8.3 492.4 10.7 488.7 M49.7 722.45 L50.7 722.05 54.5 723.95 54.4 731.05 49.75 735.45 47.75 743.4 27.15 750.0 24.2 748.15 19.45 740.95 7.65 738.5 5.15 735.7 Q10.7 732.65 16.9 731.15 28.7 728.35 40.4 731.9 L49.7 722.45 M251.75 645.35 Q258.35 639.3 268.5 641.75 L270.95 642.4 265.25 649.1 255.85 648.75 251.75 645.35 M255.1 741.85 Q267.55 734.35 282.0 735.75 L285.45 736.35 290.5 731.7 293.65 735.65 282.05 750.05 255.05 742.2 255.1 741.85 M296.35 1389.25 L300.6 1391.7 298.75 1402.55 Q290.15 1404.75 281.2 1403.85 274.3 1402.85 268.85 1398.5 L293.85 1393.5 296.35 1389.25 M233.95 1429.0 L270.7 1418.7 272.4 1412.1 279.65 1415.0 280.0 1420.6 273.25 1425.9 271.65 1433.4 271.4 1434.0 271.2 1434.1 Q253.55 1437.35 236.95 1430.25 L233.95 1429.0 M274.55 1785.0 L278.8 1787.45 276.95 1798.3 Q268.35 1800.5 259.4 1799.6 252.5 1798.6 247.05 1794.25 L272.05 1789.25 274.55 1785.0 M25.45 1775.5 L28.15 1771.55 35.0 1772.3 Q55.3 1773.3 70.35 1759.5 L78.35 1766.6 64.1 1781.55 55.0 1780.65 46.6 1788.3 45.8 1788.25 27.9 1777.25 27.25 1776.7 25.45 1775.5 M89.2 1838.4 Q98.2 1832.0 108.15 1835.2 120.2 1839.05 130.85 1831.5 136.55 1827.5 143.45 1827.45 146.5 1827.4 148.95 1828.85 L151.0 1838.2 138.3 1841.2 138.25 1842.55 Q137.95 1848.65 132.6 1851.9 128.5 1854.35 123.85 1855.6 L113.1 1849.75 104.5 1855.2 90.2 1847.85 89.2 1838.4 M26.15 1924.65 L31.4 1920.65 Q45.9 1929.8 62.25 1923.9 L64.05 1923.2 65.35 1917.75 73.1 1921.95 63.2 1934.95 41.3 1937.55 26.5 1926.05 26.15 1924.65 M227.2 1986.45 Q233.8 1980.4 243.95 1982.85 L246.4 1983.5 240.7 1990.2 231.3 1989.85 227.2 1986.45 M206.05 2133.35 L192.1 2124.85 190.25 2115.9 177.95 2116.45 Q167.3 2115.35 158.45 2109.45 L159.8 2102.05 Q167.4 2103.15 174.45 2105.2 181.4 2107.2 187.95 2110.9 196.65 2115.65 205.85 2119.4 L211.65 2121.65 Q230.55 2128.4 248.65 2121.0 L247.9 2133.5 233.55 2131.25 Q229.8 2133.15 225.95 2134.7 216.65 2138.6 207.5 2134.05 L206.05 2133.35 M121.55 2025.35 L120.75 2025.75 120.4 2025.45 108.25 2015.9 110.65 2012.2 113.35 2010.85 Q127.7 2017.8 142.8 2012.85 L145.35 2024.4 129.5 2021.25 121.55 2025.35 M48.6 2211.1 L57.6 2220.35 54.8 2224.05 46.65 2226.4 43.6 2234.75 15.6 2235.6 15.0 2235.65 16.0 2230.4 40.85 2222.2 48.6 2211.1" fill="#336600" fill-rule="evenodd" stroke="none"/>
  </g>
  <defs>
    <radialGradient cx="0" cy="0" gradientTransform="matrix(0.0915, 0.0, 0.0, 0.2283, 171.05, 379.3)" gradientUnits="userSpaceOnUse" id="gradient0" r="819.2" spreadMethod="pad">
      <stop offset="0.0" stop-color="#000050"/>
      <stop offset="0.41568627450980394" stop-color="#101010"/>
      <stop offset="1.0" stop-color="#000000"/>
    </radialGradient>
    <radialGradient cx="0" cy="0" gradientTransform="matrix(0.0391, 0.0, 0.0, 0.2155, 136.55, 395.25)" gradientUnits="userSpaceOnUse" id="gradient1" r="819.2" spreadMethod="pad">
      <stop offset="0.01568627450980392" stop-color="#b8b8b8"/>
      <stop offset="0.08627450980392157" stop-color="#9271be"/>
      <stop offset="0.1843137254901961" stop-color="#384048"/>
      <stop offset="0.35294117647058826" stop-color="#382018"/>
      <stop offset="0.5137254901960784" stop-color="#101010"/>
      <stop offset="0.6352941176470588" stop-color="#000050"/>
    </radialGradient>
  </defs>
</svg>
