<?xml version="1.0" encoding="UTF-8" standalone="no"?>
<svg xmlns:ffdec="https://www.free-decompiler.com/flash" xmlns:xlink="http://www.w3.org/1999/xlink" ffdec:objectType="shape" height="36.3px" width="37.85px" xmlns="http://www.w3.org/2000/svg">
  <g transform="matrix(1.0, 0.0, 0.0, 1.0, 19.45, 19.2)">
    <path d="M11.35 -14.2 L18.4 -9.35 18.4 11.75 13.9 17.05 -9.3 17.1 -15.2 8.95 -15.2 -6.8 -9.3 -14.05 11.35 -14.2" fill="#000000" fill-opacity="0.5019608" fill-rule="evenodd" stroke="none"/>
    <path d="M-9.3 -14.05 L11.35 -14.2" fill="none" stroke="#000000" stroke-linecap="round" stroke-linejoin="round" stroke-width="1.0"/>
    <path d="M14.65 -13.1 L14.65 8.0 10.15 13.3 -13.05 13.35 -18.95 5.2 -18.95 -10.55 -13.05 -17.8 7.6 -17.95 14.65 -13.1" fill="#506020" fill-rule="evenodd" stroke="none"/>
    <path d="M14.65 -13.1 L14.65 8.0 10.15 13.3 -13.05 13.35 -18.95 5.2 -18.95 -10.55 -13.05 -17.8 7.6 -17.95 14.65 -13.1 Z" fill="none" stroke="#000000" stroke-linecap="round" stroke-linejoin="round" stroke-width="1.0"/>
    <path d="M11.0 -8.95 L14.95 -8.95 14.95 3.6 10.5 3.6 Q12.25 0.55 12.25 -3.2 12.25 -4.95 11.9 -6.5 L11.0 -8.95 M5.25 -15.05 L4.5 -15.45 4.25 -15.6 Q1.7 -16.7 -1.25 -16.7 -4.05 -16.7 -6.4 -15.75 L-8.25 -14.8 -8.25 -18.7 5.25 -18.7 5.25 -15.05 M-6.95 9.15 L-6.4 9.4 Q-4.05 10.35 -1.25 10.35 L2.1 9.95 3.75 9.4 3.75 13.05 -6.95 13.05 -6.95 9.15 M-13.7 -8.55 L-14.4 -6.5 Q-14.75 -4.95 -14.75 -3.2 -14.75 0.25 -13.25 3.15 L-17.45 3.15 -17.45 -8.55 -13.7 -8.55" fill="#384048" fill-rule="evenodd" stroke="none"/>
    <path d="M11.0 -8.95 L14.95 -8.95 14.95 3.6 10.5 3.6 M5.25 -15.05 L5.25 -18.7 -8.25 -18.7 -8.25 -14.8 M-6.95 9.15 L-6.95 13.05 3.75 13.05 3.75 9.4 M-13.7 -8.55 L-17.45 -8.55 -17.45 3.15 -13.25 3.15" fill="none" stroke="#000000" stroke-linecap="round" stroke-linejoin="round" stroke-width="1.0"/>
  </g>
</svg>
