<?xml version="1.0" encoding="UTF-8" standalone="no"?>
<svg xmlns:ffdec="https://www.free-decompiler.com/flash" xmlns:xlink="http://www.w3.org/1999/xlink" ffdec:objectType="shape" height="799.95px" width="356.9px" xmlns="http://www.w3.org/2000/svg">
  <g transform="matrix(1.0, 0.0, 0.0, 1.0, 0.0, -0.05)">
    <path d="M318.95 0.05 L318.95 799.95 18.95 799.95 18.95 0.05 318.95 0.05" fill="#004000" fill-rule="evenodd" stroke="none"/>
    <path d="M17.25 281.9 L17.4 281.85 Q26.0 278.5 34.7 282.1 36.9 282.95 38.6 284.35 44.65 289.45 51.2 294.1 53.0 295.3 55.05 296.1 64.7 299.5 74.95 298.5 77.15 299.7 77.95 301.9 79.4 305.9 82.75 308.45 87.1 311.7 91.0 315.75 93.5 318.45 96.9 319.95 103.2 322.75 106.4 328.6 115.8 345.85 112.6 365.05 L112.4 366.15 Q111.45 369.2 109.9 372.2 109.2 373.55 108.9 375.05 107.05 383.75 99.7 388.25 L96.35 390.75 Q84.05 400.6 68.7 403.8 L64.85 405.0 Q59.5 406.7 54.7 409.5 L44.8 415.2 Q36.9 419.8 28.0 418.4 18.2 416.55 17.2 406.55 15.4 389.15 15.55 371.55 15.7 357.8 15.0 344.15 L12.7 305.55 12.7 305.45 Q13.75 301.65 13.7 297.75 13.6 289.15 17.25 281.9 M29.1 296.55 L26.8 303.2 25.75 304.25 Q22.6 312.15 21.8 320.6 18.85 351.65 23.35 382.0 L23.5 382.85 30.15 400.55 Q35.3 404.55 42.05 403.15 52.15 401.0 60.35 394.8 65.95 390.65 72.3 388.25 79.45 385.45 85.6 381.2 L87.55 379.35 Q92.6 371.85 96.5 364.05 98.55 360.0 98.0 355.3 L97.25 347.1 Q96.85 341.95 93.6 337.7 L89.8 332.85 Q76.4 315.65 55.65 309.35 L32.2 294.75 31.3 295.85 29.1 296.55 M272.85 686.95 L265.4 686.2 Q257.85 685.65 250.35 686.2 242.75 686.7 235.25 688.3 215.8 692.15 201.25 705.8 197.2 709.55 194.55 714.25 184.4 732.45 191.55 752.05 196.05 764.85 207.0 772.4 215.8 778.5 226.35 780.45 244.8 783.95 263.4 780.3 286.75 775.45 308.45 765.85 316.65 762.15 322.15 754.9 336.55 735.6 330.15 712.05 319.6 703.5 307.6 697.6 291.15 689.55 272.85 686.95 M309.45 686.2 Q324.65 690.9 335.0 704.35 343.25 715.2 345.3 728.65 347.3 742.25 341.8 754.7 336.1 767.35 325.5 775.95 311.65 787.15 294.25 791.2 266.75 797.45 238.75 794.05 220.05 791.6 203.55 782.5 194.0 777.3 186.3 769.45 172.3 755.45 173.35 735.75 174.1 722.05 180.6 709.85 189.65 692.75 205.2 681.25 218.8 671.0 235.0 667.5 L241.6 666.35 Q261.45 663.5 280.0 671.35 291.25 676.0 300.35 684.2 305.1 684.8 309.45 686.2" fill="#ffefbf" fill-rule="evenodd" stroke="none"/>
    <path d="M23.05 270.6 Q27.95 270.1 32.3 271.7 41.35 275.1 49.95 280.0 59.35 285.3 69.8 286.6 83.5 287.85 93.55 297.3 L95.9 299.9 Q102.2 308.7 111.9 313.65 116.6 316.0 117.9 320.6 118.55 322.85 119.55 324.85 123.25 332.6 123.9 341.15 124.3 346.25 123.6 351.15 122.15 360.8 122.9 370.4 123.3 375.95 118.55 379.45 117.65 380.15 117.25 381.15 110.75 398.35 94.85 407.8 91.7 409.75 88.15 410.8 L80.15 412.65 Q78.5 413.1 77.15 414.05 L74.6 413.95 Q69.2 414.45 64.05 416.75 L28.5 431.8 Q22.2 434.5 15.4 432.45 7.65 430.2 7.3 421.95 6.45 402.25 6.3 382.55 6.2 364.35 7.05 346.05 7.75 330.35 7.0 314.55 L7.0 314.35 Q6.65 313.75 6.6 313.2 5.95 304.75 6.0 296.35 6.0 291.7 5.4 287.15 L4.9 282.2 Q4.7 279.1 5.0 275.9 L6.3 274.15 Q14.65 271.75 23.05 270.6 M17.25 281.9 Q13.6 289.15 13.7 297.75 13.75 301.65 12.7 305.45 L12.7 305.55 15.0 344.15 Q15.7 357.8 15.55 371.55 15.4 389.15 17.2 406.55 18.2 416.55 28.0 418.4 36.9 419.8 44.8 415.2 L54.7 409.5 Q59.5 406.7 64.85 405.0 L68.7 403.8 Q84.05 400.6 96.35 390.75 L99.7 388.25 Q107.05 383.75 108.9 375.05 109.2 373.55 109.9 372.2 111.45 369.2 112.4 366.15 L112.6 365.05 Q115.8 345.85 106.4 328.6 103.2 322.75 96.9 319.95 93.5 318.45 91.0 315.75 87.1 311.7 82.75 308.45 79.4 305.9 77.95 301.9 77.15 299.7 74.95 298.5 64.7 299.5 55.05 296.1 53.0 295.3 51.2 294.1 44.65 289.45 38.6 284.35 36.9 282.95 34.7 282.1 26.0 278.5 17.4 281.85 L17.25 281.9 M323.0 682.9 Q330.05 687.35 336.9 692.2 353.7 704.15 356.4 724.6 358.9 744.0 348.65 760.55 337.8 777.85 319.7 786.55 302.8 794.5 284.3 797.45 265.95 800.45 247.25 799.9 228.3 799.25 210.3 794.1 191.7 788.95 177.7 775.9 172.1 770.65 169.45 763.3 166.6 755.55 166.5 747.05 166.45 728.85 173.1 712.0 179.85 694.9 194.25 683.65 209.0 672.1 227.05 667.35 231.0 666.3 235.0 665.5 250.45 662.2 266.3 662.05 286.5 661.8 304.4 671.8 313.85 677.05 323.0 682.9 M309.45 686.2 Q305.1 684.8 300.35 684.2 291.25 676.0 280.0 671.35 261.45 663.5 241.6 666.35 L235.0 667.5 Q218.8 671.0 205.2 681.25 189.65 692.75 180.6 709.85 174.1 722.05 173.35 735.75 172.3 755.45 186.3 769.45 194.0 777.3 203.55 782.5 220.05 791.6 238.75 794.05 266.75 797.45 294.25 791.2 311.65 787.15 325.5 775.95 336.1 767.35 341.8 754.7 347.3 742.25 345.3 728.65 343.25 715.2 335.0 704.35 324.65 690.9 309.45 686.2" fill="#fde08c" fill-rule="evenodd" stroke="none"/>
    <path d="M29.1 296.55 L31.3 295.85 32.2 294.75 55.65 309.35 Q76.4 315.65 89.8 332.85 L93.6 337.7 Q96.85 341.95 97.25 347.1 L98.0 355.3 Q98.55 360.0 96.5 364.05 92.6 371.85 87.55 379.35 L85.6 381.2 Q79.45 385.45 72.3 388.25 65.95 390.65 60.35 394.8 52.15 401.0 42.05 403.15 35.3 404.55 30.15 400.55 L23.5 382.85 23.35 382.0 Q18.85 351.65 21.8 320.6 22.6 312.15 25.75 304.25 L26.8 303.2 29.1 296.55 M55.75 318.7 L51.75 318.6 Q46.5 319.05 41.1 320.25 39.25 321.45 37.6 323.0 L36.0 324.6 Q31.6 332.15 30.7 340.75 29.5 352.2 35.5 361.4 L35.8 361.85 38.3 365.1 Q39.0 365.9 39.1 367.05 41.25 369.6 42.6 372.75 48.5 386.55 63.4 385.35 L66.85 383.15 70.3 381.2 Q73.4 375.7 78.25 371.55 82.8 367.6 85.55 362.15 L85.8 356.15 85.75 349.8 Q85.2 337.95 76.65 328.75 75.55 327.55 74.15 327.3 64.2 325.25 56.65 318.85 L55.75 318.7 M272.85 686.95 Q291.15 689.55 307.6 697.6 319.6 703.5 330.15 712.05 336.55 735.6 322.15 754.9 316.65 762.15 308.45 765.85 286.75 775.45 263.4 780.3 244.8 783.95 226.35 780.45 215.8 778.5 207.0 772.4 196.05 764.85 191.55 752.05 184.4 732.45 194.55 714.25 197.2 709.55 201.25 705.8 215.8 692.15 235.25 688.3 242.75 686.7 250.35 686.2 257.85 685.65 265.4 686.2 L272.85 686.95 M207.0 729.0 L205.6 752.0 211.9 754.7 Q230.3 761.9 250.05 761.8 270.3 761.55 289.45 754.95 301.3 750.8 312.15 744.65 L312.65 723.2 306.85 717.8 Q296.5 708.8 283.3 705.05 272.7 702.0 261.7 702.55 249.4 703.3 237.95 707.7 227.75 711.5 219.0 717.95 L207.0 729.0" fill="#96ecfe" fill-rule="evenodd" stroke="none"/>
    <path d="M55.75 318.7 L56.65 318.85 Q64.2 325.25 74.15 327.3 75.55 327.55 76.65 328.75 85.2 337.95 85.75 349.8 L85.8 356.15 85.55 362.15 Q82.8 367.6 78.25 371.55 73.4 375.7 70.3 381.2 L66.85 383.15 63.4 385.35 Q48.5 386.55 42.6 372.75 41.25 369.6 39.1 367.05 39.0 365.9 38.3 365.1 L35.8 361.85 35.5 361.4 Q29.5 352.2 30.7 340.75 31.6 332.15 36.0 324.6 L37.6 323.0 Q39.25 321.45 41.1 320.25 46.5 319.05 51.75 318.6 L55.75 318.7 M69.15 366.05 L69.55 366.45 74.15 366.3 74.4 365.95 74.7 365.55 75.45 364.45 75.65 364.05 71.9 363.4 71.55 363.05 71.15 362.65 67.55 362.55 67.5 362.6 Q64.45 363.65 62.1 366.0 61.2 366.9 60.15 367.45 L59.3 368.95 59.0 369.3 Q58.6 369.75 58.85 370.35 L59.15 370.55 60.65 369.1 Q63.9 365.45 68.8 365.7 L69.15 366.05 M44.95 340.6 Q42.95 341.85 41.9 344.0 L42.65 344.45 42.65 344.4 42.85 344.15 43.4 343.4 43.75 343.0 Q48.25 340.3 53.4 340.75 55.4 341.7 56.95 343.1 58.85 344.85 61.05 346.4 L64.15 346.45 64.3 346.4 65.3 345.45 Q70.3 342.0 74.15 344.9 74.85 345.2 75.3 344.45 76.6 342.6 76.1 341.35 L76.05 341.15 Q72.55 340.05 68.55 341.0 L68.4 341.15 66.15 342.9 65.8 343.25 63.3 343.25 59.6 340.25 Q57.85 338.7 55.65 337.65 L50.5 337.5 Q47.8 338.9 44.95 340.6 M207.0 729.0 L219.0 717.95 Q227.75 711.5 237.95 707.7 249.4 703.3 261.7 702.55 272.7 702.0 283.3 705.05 296.5 708.8 306.85 717.8 L312.65 723.2 312.15 744.65 Q301.3 750.8 289.45 754.95 270.3 761.55 250.05 761.8 230.3 761.9 211.9 754.7 L205.6 752.0 207.0 729.0 M269.0 746.6 L276.7 740.85 280.15 746.7 300.5 740.65 282.7 744.25 278.35 738.25 269.0 746.6 M225.6 731.75 L227.6 728.6 246.1 727.3 248.7 723.85 269.1 723.75 270.5 718.95 251.5 718.55 247.95 722.9 235.1 720.95 229.75 723.8 225.6 731.75" fill="#01c0e9" fill-rule="evenodd" stroke="none"/>
    <path d="M44.95 340.6 Q47.8 338.9 50.5 337.5 L55.65 337.65 Q57.85 338.7 59.6 340.25 L63.3 343.25 65.8 343.25 66.15 342.9 68.4 341.15 68.55 341.0 Q72.55 340.05 76.05 341.15 L76.1 341.35 Q76.6 342.6 75.3 344.45 74.85 345.2 74.15 344.9 70.3 342.0 65.3 345.45 L64.3 346.4 64.15 346.45 61.05 346.4 Q58.85 344.85 56.95 343.1 55.4 341.7 53.4 340.75 48.25 340.3 43.75 343.0 L43.4 343.4 42.85 344.15 42.65 344.4 42.65 344.45 41.9 344.0 Q42.95 341.85 44.95 340.6 M69.15 366.05 L68.8 365.7 Q63.9 365.45 60.65 369.1 L59.15 370.55 58.85 370.35 Q58.6 369.75 59.0 369.3 L59.3 368.95 60.15 367.45 Q61.2 366.9 62.1 366.0 64.45 363.65 67.5 362.6 L67.55 362.55 71.15 362.65 71.55 363.05 71.9 363.4 75.65 364.05 75.45 364.45 74.7 365.55 74.4 365.95 74.15 366.3 69.55 366.45 69.15 366.05 M225.6 731.75 L229.75 723.8 235.1 720.95 247.95 722.9 251.5 718.55 270.5 718.95 269.1 723.75 248.7 723.85 246.1 727.3 227.6 728.6 225.6 731.75 M269.0 746.6 L278.35 738.25 282.7 744.25 300.5 740.65 280.15 746.7 276.7 740.85 269.0 746.6" fill="#cef7ff" fill-rule="evenodd" stroke="none"/>
    <path d="M298.3 33.75 Q297.3 35.35 297.15 37.35 L296.75 38.35 295.7 40.05 295.3 40.0 295.3 39.9 295.3 37.8 295.3 37.25 Q296.9 34.2 299.05 31.65 299.2 32.35 298.3 33.75 M293.4 38.65 L293.3 38.8 292.4 40.2 291.65 41.45 291.6 41.55 291.55 41.6 290.95 41.55 Q289.75 40.15 287.9 39.65 L283.95 39.15 284.05 39.0 284.9 37.6 285.75 36.35 Q290.25 35.5 293.2 38.5 L293.4 38.65 M282.45 97.3 L282.4 97.4 280.45 100.6 280.05 101.15 Q273.4 103.25 270.15 109.75 L269.85 109.85 Q273.05 101.9 280.35 98.0 L281.85 97.15 282.45 97.3 M209.4 19.9 Q208.85 20.15 208.4 20.55 204.45 24.25 202.35 29.4 L201.9 29.35 201.9 29.25 Q205.1 20.65 212.7 15.8 L213.9 15.0 Q214.1 15.7 213.15 16.95 211.65 18.8 209.4 19.9 M201.9 17.65 Q201.85 18.7 200.75 20.55 198.45 24.25 199.6 28.65 L198.0 31.35 197.85 31.65 Q197.5 31.9 197.3 31.5 196.15 23.7 201.8 17.75 L201.9 17.65 M196.8 32.4 L195.75 34.25 195.0 35.4 194.95 35.4 194.55 35.4 194.0 34.7 Q190.9 30.45 186.7 27.55 L186.4 27.3 187.55 25.5 188.2 24.4 Q191.45 26.1 194.0 28.85 L196.65 32.25 196.8 32.4 M207.9 148.15 Q206.9 149.75 206.75 151.7 L206.35 152.7 205.3 154.4 204.9 154.35 204.9 154.3 204.9 152.2 204.9 151.65 Q206.5 148.6 208.65 146.05 208.8 146.75 207.9 148.15 M193.65 153.4 L194.5 151.95 195.35 150.75 Q199.85 149.9 202.8 152.85 L203.0 153.0 202.9 153.15 202.0 154.6 201.25 155.85 201.2 155.95 201.15 156.0 200.55 155.95 Q199.35 154.55 197.5 154.05 195.0 153.3 193.55 153.55 L193.65 153.4 M266.85 110.1 L264.9 113.45 264.45 114.2 264.4 114.3 263.85 114.35 Q262.1 107.2 266.45 101.25 L266.95 100.25 267.1 100.2 267.6 99.9 268.45 100.05 268.4 100.15 Q265.4 104.25 266.55 109.15 L266.85 110.1 M258.1 117.8 L257.6 117.65 Q255.4 109.5 249.35 103.1 L248.85 102.65 250.95 99.3 251.35 98.65 Q255.7 102.45 259.05 107.7 262.4 112.95 258.2 117.7 L258.1 117.8 M52.75 35.55 L52.75 35.65 Q53.2 41.7 53.9 47.7 L54.15 48.4 57.35 44.4 Q58.0 43.6 58.65 44.4 59.15 45.6 60.2 46.2 L60.25 46.3 65.95 46.15 63.65 49.9 57.25 50.35 Q56.35 49.65 55.7 48.55 L55.6 48.35 52.35 52.55 Q51.55 53.1 51.15 52.4 50.15 46.7 49.9 40.8 L49.75 40.05 Q46.5 46.25 44.05 52.8 L42.35 55.85 42.3 55.9 41.9 55.65 Q45.0 45.05 51.65 35.95 L52.0 35.4 52.75 35.55 M70.8 47.4 L69.4 49.9 Q68.9 50.4 68.85 49.9 71.75 37.35 80.85 28.2 L81.1 27.9 Q81.3 28.9 79.8 30.5 75.75 34.85 73.7 40.45 L70.8 47.4 M64.15 219.5 L64.15 219.55 66.55 224.45 66.75 224.9 68.85 223.5 Q70.45 222.95 72.0 223.1 72.35 223.45 72.35 224.0 L72.55 224.4 Q75.1 221.85 78.65 220.9 L76.95 223.6 76.8 223.85 Q73.35 224.85 71.4 227.7 L71.3 227.75 70.7 227.75 70.55 227.6 70.3 227.35 70.05 226.5 69.7 226.1 Q67.8 226.2 66.05 227.25 L65.65 227.8 65.4 228.25 64.75 228.3 64.65 228.2 Q63.6 226.45 62.95 224.55 L62.8 224.1 Q62.2 226.5 60.45 229.1 L60.15 229.5 59.75 229.55 59.8 229.5 Q60.45 225.1 62.5 221.25 L63.6 219.35 64.15 219.5 M51.25 216.95 Q55.7 221.65 57.25 227.9 57.65 229.5 56.55 230.85 L55.85 231.75 55.35 231.8 55.35 231.75 Q54.8 227.05 51.85 223.1 50.6 221.4 49.0 220.1 49.6 218.75 50.45 217.55 L50.85 216.95 51.25 216.95 M156.95 316.05 Q156.8 317.45 155.05 319.0 L153.1 320.55 Q150.05 322.8 149.75 326.5 L149.3 327.75 148.55 328.9 148.15 328.9 148.15 328.8 Q148.55 323.4 152.45 319.25 154.4 317.2 156.95 316.05 M127.9 316.4 Q127.65 315.75 128.6 314.3 131.05 310.45 135.05 308.4 L136.0 308.45 136.1 308.55 Q142.45 313.15 143.35 321.3 143.65 324.0 144.4 326.45 L143.4 328.2 142.6 329.4 142.55 329.5 Q142.2 329.75 142.1 329.4 141.45 321.3 137.1 314.55 135.85 312.65 133.85 311.55 130.25 312.75 128.0 316.25 L127.9 316.4 M212.6 288.1 L198.7 284.7 205.35 283.95 212.6 288.1 M220.75 282.9 L221.6 280.7 Q224.3 274.35 230.0 270.1 L232.3 268.6 220.1 285.15 220.75 282.9 M189.35 395.3 Q189.3 396.35 188.05 398.0 L188.0 398.15 Q183.1 399.55 181.5 404.3 L180.85 405.6 180.15 405.75 178.2 403.95 176.65 406.35 176.5 406.65 Q176.0 407.05 175.85 406.55 175.4 403.95 176.75 401.8 177.35 400.8 178.25 400.2 L179.55 400.2 181.7 402.05 Q184.2 397.2 189.25 395.3 L189.35 395.3 M230.35 360.45 Q234.85 359.6 237.8 362.6 L238.0 362.75 237.9 362.9 237.0 364.3 236.25 365.55 236.2 365.65 236.15 365.7 235.55 365.65 Q234.35 364.25 232.5 363.75 230.0 363.05 228.55 363.25 L228.65 363.1 229.5 361.7 230.35 360.45 M241.35 362.45 L240.3 364.15 239.9 364.1 239.9 364.0 239.9 361.9 239.9 361.35 Q241.5 358.3 243.65 355.75 243.8 356.45 242.9 357.85 241.9 359.45 241.75 361.45 L241.35 362.45 M173.3 407.15 Q172.7 407.95 172.25 408.85 L172.15 408.9 171.5 408.95 171.45 408.8 Q171.3 408.45 170.95 408.35 169.35 405.25 166.65 403.0 165.85 402.35 164.9 401.95 L164.9 401.9 163.8 401.85 164.65 400.4 165.75 398.85 167.15 398.9 Q171.15 401.05 173.45 405.2 L173.9 406.15 173.3 407.15 M236.0 508.85 L237.1 507.1 Q246.3 510.35 243.65 518.95 243.05 520.9 241.6 521.8 242.15 514.65 235.5 511.65 L234.65 511.1 236.0 508.85 M267.8 509.6 Q260.7 511.6 255.85 517.35 255.15 517.85 255.25 517.35 259.9 508.85 269.05 506.0 L269.85 505.6 Q269.7 507.1 267.95 509.4 L267.8 509.6 M257.35 502.15 Q257.35 503.45 255.45 505.35 L252.55 508.5 Q251.05 510.3 250.65 512.8 250.5 513.7 249.95 514.55 L248.9 516.25 248.4 516.2 248.35 516.1 Q249.3 507.2 257.1 502.25 L257.35 502.15 M91.2 443.05 L91.9 443.15 91.85 443.25 Q91.15 444.85 91.35 446.75 L91.55 447.35 90.0 449.9 89.85 450.2 89.7 450.25 89.35 450.2 Q89.05 448.65 89.15 446.9 L89.15 446.2 91.1 443.3 91.2 443.05 M81.0 446.8 L80.25 445.7 79.8 445.55 79.15 445.3 80.1 443.75 80.9 442.5 Q84.25 443.5 86.05 447.05 L87.1 448.9 86.05 450.8 85.2 452.0 81.0 446.8 M49.35 736.2 L49.25 736.35 48.35 737.75 47.6 739.0 47.55 739.1 47.5 739.15 46.9 739.1 Q45.7 737.7 43.85 737.2 41.35 736.5 39.9 736.7 L40.0 736.55 40.85 735.15 41.7 733.9 Q46.2 733.05 49.15 736.05 L49.35 736.2 M53.1 734.9 L52.7 735.9 51.65 737.6 51.25 737.55 51.25 737.45 51.25 735.35 51.25 734.8 Q52.85 731.75 55.0 729.2 55.15 729.9 54.25 731.3 53.25 732.9 53.1 734.9 M108.8 766.25 L108.35 767.5 107.6 768.65 107.2 768.65 107.2 768.55 Q107.6 763.15 111.5 759.0 113.45 756.95 116.0 755.8 115.85 757.2 114.1 758.75 L112.15 760.3 Q109.1 762.55 108.8 766.25 M103.45 766.2 L102.45 767.95 101.65 769.15 101.6 769.25 Q101.25 769.5 101.15 769.15 100.5 761.05 96.15 754.3 94.9 752.4 92.9 751.3 89.3 752.5 87.05 756.0 L86.95 756.15 Q86.7 755.5 87.65 754.05 90.1 750.2 94.1 748.15 L95.05 748.2 95.15 748.3 Q101.5 752.9 102.4 761.05 102.7 763.75 103.45 766.2 M310.25 615.65 Q310.45 616.3 309.5 617.55 308.0 619.4 305.75 620.5 L304.75 621.2 Q300.8 624.9 298.7 630.0 L298.25 629.95 298.25 629.9 Q301.45 621.3 309.05 616.45 L310.25 615.65 M298.25 618.25 Q298.2 619.35 297.1 621.15 294.8 624.85 295.95 629.3 L294.35 631.95 294.2 632.25 Q293.85 632.5 293.65 632.15 292.5 624.35 298.15 618.4 L298.25 618.25 M284.55 625.0 Q287.8 626.75 290.35 629.5 291.8 631.0 293.0 632.9 L293.15 633.05 292.1 634.9 291.35 636.0 291.3 636.05 290.9 636.05 290.35 635.3 Q287.25 631.05 283.05 628.15 L282.75 627.95 283.9 626.15 284.55 625.0 M185.9 662.85 L186.0 662.7 186.85 661.25 187.7 660.05 Q192.2 659.2 195.15 662.15 L195.35 662.3 195.25 662.45 194.35 663.9 193.6 665.15 193.55 665.25 193.5 665.3 192.9 665.25 Q191.7 663.85 189.85 663.35 L185.9 662.85 M198.7 662.0 L197.65 663.7 197.25 663.65 197.25 663.6 197.25 661.5 197.25 660.95 Q198.85 657.9 201.0 655.35 201.15 656.05 200.25 657.45 199.25 659.05 199.1 661.0 L198.7 662.0" fill="#7cf900" fill-rule="evenodd" stroke="none"/>
    <path d="M87.75 81.45 L93.75 81.8 Q111.3 83.85 128.1 79.6 130.25 79.0 131.85 77.5 143.15 66.8 153.9 55.9 L156.0 55.95 Q157.75 60.45 153.65 64.35 L141.8 75.55 Q137.4 79.7 132.35 82.65 122.4 88.35 110.65 88.75 105.95 89.1 101.25 88.05 91.2 86.15 81.75 89.65 79.05 90.75 77.0 92.75 72.8 96.75 68.8 93.75 69.05 91.65 70.45 90.0 77.0 82.3 87.75 81.45 M190.7 549.85 Q170.8 540.9 151.85 529.8 L151.45 529.55 Q134.1 519.4 115.5 511.8 99.35 505.1 82.7 499.75 62.85 493.2 43.35 485.3 28.8 479.25 14.5 472.55 L18.15 468.85 Q36.6 472.0 55.05 476.55 L67.15 479.7 Q98.4 488.4 127.5 502.55 139.75 508.5 151.45 515.4 L156.4 518.4 Q179.75 532.5 203.85 545.95 L222.0 553.9 322.4 582.85 322.4 590.7 Q315.8 590.9 309.45 589.2 L301.35 586.65 Q274.1 577.1 246.7 567.85 231.6 562.7 216.15 558.75 203.9 555.6 192.45 550.65 L190.7 549.85" fill="#a09060" fill-rule="evenodd" stroke="none"/>
    <path d="M244.4 52.0 Q246.0 54.5 246.0 57.65 246.0 62.15 242.7 65.45 239.4 68.65 234.75 68.65 230.65 68.65 227.6 66.15 L226.8 65.45 226.7 65.3 Q225.1 62.75 225.1 59.6 225.1 55.05 228.35 51.8 231.65 48.55 236.3 48.55 240.4 48.55 243.5 51.15 L244.25 51.8 244.4 52.0 M231.95 61.3 L232.0 61.4 232.65 62.15 Q233.95 63.4 235.85 63.4 237.7 63.4 239.05 62.15 240.35 60.8 240.4 59.0 240.4 57.2 239.15 55.9 239.75 56.9 239.75 58.15 239.75 60.0 238.4 61.35 237.1 62.65 235.2 62.65 233.55 62.65 232.3 61.65 L232.0 61.35 231.95 61.3 Q231.3 60.25 231.3 59.0 231.3 57.15 232.65 55.85 233.95 54.5 235.85 54.5 237.5 54.5 238.75 55.55 L239.05 55.85 239.15 55.9 239.05 55.8 238.4 55.0 Q237.1 53.7 235.2 53.75 233.3 53.7 232.0 55.0 230.65 56.3 230.7 58.15 230.65 59.95 231.95 61.3 M152.35 171.5 L152.25 171.4 151.8 170.85 Q150.8 169.85 149.4 169.85 147.95 169.85 146.95 170.85 145.95 171.8 146.0 173.2 145.95 174.55 146.95 175.55 146.45 174.75 146.45 173.8 146.45 172.4 147.45 171.45 148.45 170.45 149.85 170.45 151.1 170.45 152.05 171.2 L152.25 171.45 152.35 171.5 Q152.8 172.25 152.8 173.2 152.8 174.55 151.8 175.6 150.8 176.55 149.4 176.55 148.15 176.55 147.2 175.8 L146.95 175.6 147.45 176.15 Q148.45 177.15 149.85 177.15 151.25 177.15 152.25 176.15 153.25 175.15 153.25 173.8 153.25 172.45 152.35 171.5 M146.95 175.55 L146.95 175.6 146.95 175.55 M143.0 178.55 Q141.8 176.65 141.8 174.25 141.8 170.85 144.25 168.45 146.75 166.0 150.2 166.0 153.3 166.0 155.6 167.9 L156.15 168.45 156.3 168.55 Q157.45 170.45 157.45 172.8 157.45 176.2 155.0 178.65 152.5 181.05 149.05 181.05 145.95 181.05 143.65 179.2 L143.1 178.65 143.0 178.55 M86.1 262.35 Q86.9 263.6 86.9 265.2 86.9 267.45 85.25 269.05 83.6 270.65 81.3 270.7 79.2 270.7 77.7 269.45 L77.3 269.05 77.25 269.0 Q76.45 267.75 76.45 266.15 76.45 263.9 78.1 262.25 79.75 260.65 82.05 260.65 84.1 260.65 85.65 261.95 L86.0 262.25 86.1 262.35 M79.85 267.0 Q79.55 266.45 79.55 265.85 79.55 264.9 80.2 264.25 80.85 263.6 81.8 263.6 82.65 263.6 83.3 264.15 L83.45 264.25 83.45 264.3 83.45 264.25 83.1 263.85 Q82.45 263.2 81.5 263.2 80.55 263.2 79.9 263.85 79.25 264.5 79.25 265.45 79.2 266.35 79.85 267.0 L79.9 267.05 79.85 267.0 M83.45 264.3 L83.8 265.45 Q83.75 266.35 83.1 267.05 82.45 267.7 81.5 267.7 80.65 267.7 80.05 267.2 L79.9 267.05 80.2 267.4 Q80.85 268.05 81.8 268.05 82.75 268.05 83.45 267.4 84.1 266.75 84.1 265.85 84.1 264.95 83.45 264.3 M179.05 376.4 Q178.25 375.1 178.25 373.55 178.25 371.25 179.9 369.65 181.55 368.0 183.85 368.0 185.9 368.0 187.45 369.3 L187.8 369.65 187.9 369.7 Q188.7 370.95 188.7 372.55 188.7 374.8 187.05 376.45 185.4 378.05 183.1 378.05 181.0 378.05 179.5 376.8 L179.1 376.45 179.05 376.4 M185.25 371.65 L184.9 371.25 Q184.25 370.55 183.3 370.6 182.35 370.55 181.7 371.25 181.05 371.9 181.05 372.8 181.0 373.7 181.65 374.35 181.35 373.85 181.35 373.2 181.35 372.3 182.0 371.65 182.65 370.95 183.6 371.0 184.45 371.0 185.1 371.5 L185.25 371.65 185.25 371.7 185.25 371.65 M181.7 374.4 L182.0 374.8 Q182.65 375.45 183.6 375.45 184.55 375.45 185.25 374.8 185.9 374.1 185.9 373.2 185.9 372.3 185.25 371.7 L185.6 372.8 Q185.55 373.75 184.9 374.4 184.25 375.05 183.3 375.05 182.45 375.05 181.85 374.55 L181.7 374.4 181.65 374.35 181.7 374.4 M293.2 491.1 L293.5 491.5 Q294.15 492.15 295.1 492.15 296.05 492.15 296.75 491.5 297.4 490.8 297.4 489.9 297.4 489.0 296.75 488.4 L296.75 488.35 296.75 488.4 297.1 489.5 Q297.05 490.45 296.4 491.1 295.75 491.75 294.8 491.75 293.95 491.75 293.35 491.25 L293.2 491.1 293.15 491.05 293.2 491.1 M296.75 488.35 L296.4 487.95 Q295.75 487.25 294.8 487.3 293.85 487.25 293.2 487.95 292.55 488.6 292.55 489.5 292.5 490.4 293.15 491.05 292.85 490.55 292.85 489.9 292.85 489.0 293.5 488.35 294.15 487.65 295.1 487.7 295.95 487.7 296.6 488.2 L296.75 488.35 M299.4 486.4 Q300.2 487.65 300.2 489.25 300.2 491.5 298.55 493.15 296.9 494.75 294.6 494.75 292.5 494.75 291.0 493.5 L290.6 493.15 290.55 493.1 Q289.75 491.8 289.75 490.25 289.75 487.95 291.4 486.35 293.05 484.7 295.35 484.7 297.4 484.7 298.95 486.0 L299.3 486.35 299.4 486.4 M129.35 418.5 L129.3 418.4 128.85 417.8 Q127.85 416.85 126.45 416.85 125.0 416.85 124.0 417.8 123.0 418.8 123.05 420.2 123.0 421.55 123.95 422.5 123.45 421.75 123.5 420.8 123.5 419.4 124.5 418.45 125.45 417.45 126.9 417.45 128.1 417.4 129.05 418.2 L129.3 418.45 129.35 418.5 Q129.85 419.25 129.85 420.2 129.85 421.55 128.85 422.6 127.85 423.55 126.45 423.55 125.2 423.55 124.25 422.8 L124.0 422.6 124.5 423.15 Q125.45 424.1 126.9 424.1 128.3 424.1 129.3 423.15 130.3 422.15 130.3 420.8 130.3 419.45 129.35 418.5 M123.95 422.5 L124.0 422.6 123.95 422.5 M133.35 415.55 Q134.5 417.4 134.5 419.8 134.5 423.2 132.05 425.65 129.55 428.05 126.1 428.05 123.0 428.05 120.7 426.2 L120.15 425.65 120.05 425.55 Q118.85 423.6 118.85 421.25 118.85 417.85 121.3 415.4 123.75 412.95 127.25 413.0 130.35 413.0 132.65 414.9 L133.2 415.4 133.35 415.55 M40.1 786.1 Q38.5 783.55 38.5 780.4 38.5 775.85 41.75 772.6 45.05 769.35 49.7 769.35 53.8 769.35 56.9 771.95 L57.65 772.6 57.8 772.8 Q59.4 775.3 59.4 778.45 59.4 782.95 56.1 786.25 52.8 789.45 48.15 789.45 44.05 789.45 41.0 786.95 L40.2 786.25 40.1 786.1 M52.55 776.7 Q53.15 777.7 53.15 778.95 53.15 780.8 51.8 782.15 50.5 783.45 48.6 783.45 46.95 783.45 45.7 782.45 L45.4 782.15 45.35 782.1 Q44.7 781.05 44.7 779.8 44.7 777.95 46.05 776.65 47.35 775.3 49.25 775.3 50.9 775.3 52.15 776.35 L52.45 776.65 52.55 776.7 52.45 776.6 51.8 775.8 Q50.5 774.5 48.6 774.55 46.7 774.5 45.4 775.8 44.05 777.1 44.1 778.95 44.05 780.75 45.35 782.1 L45.4 782.2 46.05 782.95 Q47.35 784.2 49.25 784.2 51.1 784.2 52.45 782.95 53.75 781.6 53.8 779.8 53.8 778.0 52.55 776.7 M140.15 738.75 L139.8 738.35 Q139.15 737.65 138.2 737.7 137.25 737.65 136.6 738.35 135.95 739.0 135.95 739.9 135.9 740.8 136.55 741.45 136.25 740.95 136.25 740.3 136.25 739.4 136.9 738.75 137.55 738.05 138.5 738.1 139.35 738.1 140.0 738.6 L140.15 738.75 140.15 738.8 140.15 738.75 M136.6 741.5 L136.9 741.9 Q137.55 742.55 138.5 742.55 139.45 742.55 140.15 741.9 140.8 741.2 140.8 740.3 140.8 739.4 140.15 738.8 L140.5 739.9 Q140.45 740.85 139.8 741.5 139.15 742.15 138.2 742.15 137.35 742.15 136.75 741.65 L136.6 741.5 136.55 741.45 136.6 741.5 M133.95 743.5 Q133.15 742.2 133.15 740.65 133.15 738.35 134.8 736.75 136.45 735.1 138.75 735.1 140.8 735.1 142.35 736.4 L142.7 736.75 142.8 736.8 Q143.6 738.05 143.6 739.65 143.6 741.9 141.95 743.55 140.3 745.15 138.0 745.15 135.9 745.15 134.4 743.9 L134.0 743.55 133.95 743.5 M240.9 613.55 Q239.7 611.65 239.7 609.25 239.7 605.85 242.15 603.45 244.6 601.0 248.1 601.0 251.2 601.0 253.5 602.95 L254.05 603.45 254.2 603.55 Q255.35 605.45 255.35 607.8 255.35 611.2 252.9 613.65 250.4 616.1 246.95 616.1 243.85 616.1 241.55 614.2 L241.0 613.65 240.9 613.55 M244.8 610.55 Q244.3 609.75 244.35 608.8 244.35 607.45 245.35 606.45 246.3 605.45 247.75 605.45 248.95 605.45 249.9 606.25 L250.15 606.45 250.2 606.5 250.15 606.45 249.7 605.85 Q248.7 604.85 247.3 604.9 245.85 604.85 244.85 605.85 243.85 606.8 243.9 608.2 243.85 609.55 244.8 610.55 L244.85 610.6 244.8 610.55 M250.2 606.5 Q250.7 607.25 250.7 608.2 250.7 609.6 249.7 610.6 248.7 611.6 247.3 611.6 246.05 611.55 245.1 610.8 L244.85 610.6 245.35 611.2 Q246.3 612.15 247.75 612.15 249.15 612.15 250.15 611.2 251.15 610.2 251.15 608.8 251.15 607.45 250.2 606.5" fill="#686870" fill-rule="evenodd" stroke="none"/>
    <path d="M244.4 52.0 Q246.0 54.5 246.0 57.65 246.0 62.15 242.7 65.45 239.4 68.65 234.75 68.65 230.65 68.65 227.6 66.15 L226.8 65.45 226.7 65.3 Q223.55 62.1 223.55 57.65 223.55 53.1 226.8 49.85 230.1 46.6 234.75 46.6 239.4 46.6 242.7 49.85 L244.25 51.8 244.4 52.0 M156.3 168.55 L156.2 168.4 155.0 166.95 Q152.5 164.5 149.05 164.55 145.55 164.5 143.1 166.95 140.6 169.4 140.65 172.8 140.65 176.15 143.0 178.55 L143.1 178.65 143.65 179.2 Q145.95 181.05 149.05 181.05 152.5 181.05 155.0 178.65 157.45 176.2 157.45 172.8 157.45 170.45 156.3 168.55 M86.1 262.35 Q86.9 263.6 86.9 265.2 86.9 267.45 85.25 269.05 83.6 270.65 81.3 270.7 79.2 270.7 77.7 269.45 L77.3 269.05 77.25 269.0 Q75.65 267.4 75.65 265.2 75.65 262.9 77.3 261.3 78.95 259.65 81.3 259.65 83.6 259.65 85.25 261.3 L86.05 262.25 86.1 262.35 M187.9 369.7 L187.85 369.6 187.05 368.65 Q185.4 367.05 183.1 367.05 180.75 367.05 179.1 368.65 177.45 370.3 177.45 372.55 177.45 374.8 179.05 376.4 L179.1 376.45 179.5 376.8 Q181.0 378.05 183.1 378.05 185.4 378.05 187.05 376.45 188.7 374.8 188.7 372.55 188.7 370.95 187.9 369.7 M299.4 486.4 Q300.2 487.65 300.2 489.25 300.2 491.5 298.55 493.15 296.9 494.75 294.6 494.75 292.5 494.75 291.0 493.5 L290.6 493.15 290.55 493.1 Q288.95 491.5 288.95 489.25 288.95 487.0 290.6 485.35 292.25 483.75 294.6 483.75 296.9 483.75 298.55 485.35 L299.35 486.3 299.4 486.4 M133.35 415.55 Q134.5 417.4 134.5 419.8 134.5 423.2 132.05 425.65 129.55 428.05 126.1 428.05 123.0 428.05 120.7 426.2 L120.15 425.65 120.05 425.55 Q117.65 423.1 117.65 419.8 117.65 416.4 120.15 413.95 122.6 411.5 126.1 411.5 129.55 411.5 132.05 413.95 L133.2 415.4 133.35 415.55 M57.8 772.8 L57.65 772.6 56.1 770.65 Q52.8 767.4 48.15 767.4 43.5 767.4 40.2 770.65 36.95 773.9 36.95 778.45 36.95 782.9 40.1 786.1 L40.2 786.25 41.0 786.95 Q44.05 789.45 48.15 789.45 52.8 789.45 56.1 786.25 59.4 782.95 59.4 778.45 59.4 775.3 57.8 772.8 M142.8 736.8 L142.75 736.7 141.95 735.75 Q140.3 734.15 138.0 734.15 135.65 734.15 134.0 735.75 132.35 737.4 132.35 739.65 132.35 741.9 133.95 743.5 L134.0 743.55 134.4 743.9 Q135.9 745.15 138.0 745.15 140.3 745.15 141.95 743.55 143.6 741.9 143.6 739.65 143.6 738.05 142.8 736.8 M254.2 603.55 L254.05 603.4 252.9 602.0 Q250.4 599.55 246.95 599.55 243.45 599.55 241.0 602.0 238.5 604.4 238.5 607.8 238.5 611.15 240.9 613.55 L241.0 613.65 241.55 614.2 Q243.85 616.1 246.95 616.1 250.4 616.1 252.9 613.65 255.35 611.2 255.35 607.8 255.35 605.45 254.2 603.55" fill="none" stroke="#a09060" stroke-linecap="round" stroke-linejoin="round" stroke-width="3.0"/>
    <path d="M239.15 55.9 Q239.75 56.9 239.75 58.15 239.75 60.0 238.4 61.35 237.1 62.65 235.2 62.65 233.55 62.65 232.3 61.65 L232.0 61.35 231.95 61.3 Q230.65 59.95 230.7 58.15 230.65 56.3 232.0 55.0 233.3 53.7 235.2 53.75 237.1 53.7 238.4 55.0 L239.05 55.8 239.15 55.9 M152.35 171.5 L152.25 171.4 151.8 170.85 Q150.8 169.85 149.4 169.85 147.95 169.85 146.95 170.85 145.95 171.8 146.0 173.2 145.95 174.55 146.95 175.55 L146.95 175.6 147.2 175.8 Q148.15 176.55 149.4 176.55 150.8 176.55 151.8 175.6 152.8 174.55 152.8 173.2 152.8 172.25 152.35 171.5 M79.85 267.0 L79.9 267.05 80.05 267.2 Q80.65 267.7 81.5 267.7 82.45 267.7 83.1 267.05 83.75 266.35 83.8 265.45 L83.45 264.3 M83.45 264.25 L83.1 263.85 Q82.45 263.2 81.5 263.2 80.55 263.2 79.9 263.85 79.25 264.5 79.25 265.45 79.2 266.35 79.85 267.0 M185.25 371.65 L184.9 371.25 Q184.25 370.55 183.3 370.6 182.35 370.55 181.7 371.25 181.05 371.9 181.05 372.8 181.0 373.7 181.65 374.35 L181.7 374.4 181.85 374.55 Q182.45 375.05 183.3 375.05 184.25 375.05 184.9 374.4 185.55 373.75 185.6 372.8 L185.25 371.7 185.25 371.65 M293.2 491.1 L293.15 491.05 Q292.5 490.4 292.55 489.5 292.55 488.6 293.2 487.95 293.85 487.25 294.8 487.3 295.75 487.25 296.4 487.95 L296.75 488.35 296.75 488.4 297.1 489.5 Q297.05 490.45 296.4 491.1 295.75 491.75 294.8 491.75 293.95 491.75 293.35 491.25 L293.2 491.1 M129.35 418.5 L129.3 418.4 128.85 417.8 Q127.85 416.85 126.45 416.85 125.0 416.85 124.0 417.8 123.0 418.8 123.05 420.2 123.0 421.55 123.95 422.5 M129.35 418.5 Q129.85 419.25 129.85 420.2 129.85 421.55 128.85 422.6 127.85 423.55 126.45 423.55 125.2 423.55 124.25 422.8 L124.0 422.6 M45.35 782.1 L45.4 782.15 45.7 782.45 Q46.95 783.45 48.6 783.45 50.5 783.45 51.8 782.15 53.15 780.8 53.15 778.95 53.15 777.7 52.55 776.7 L52.45 776.6 51.8 775.8 Q50.5 774.5 48.6 774.55 46.7 774.5 45.4 775.8 44.05 777.1 44.1 778.95 44.05 780.75 45.35 782.1 M140.15 738.75 L139.8 738.35 Q139.15 737.65 138.2 737.7 137.25 737.65 136.6 738.35 135.95 739.0 135.95 739.9 135.9 740.8 136.55 741.45 L136.6 741.5 136.75 741.65 Q137.35 742.15 138.2 742.15 139.15 742.15 139.8 741.5 140.45 740.85 140.5 739.9 L140.15 738.8 140.15 738.75 M250.2 606.5 L250.15 606.45 249.7 605.85 Q248.7 604.85 247.3 604.9 245.85 604.85 244.85 605.85 243.85 606.8 243.9 608.2 243.85 609.55 244.8 610.55 M244.85 610.6 L245.1 610.8 Q246.05 611.55 247.3 611.6 248.7 611.6 249.7 610.6 250.7 609.6 250.7 608.2 250.7 607.25 250.2 606.5" fill="none" stroke="#a09060" stroke-linecap="round" stroke-linejoin="round" stroke-width="1.5"/>
    <path d="M231.95 61.3 L232.0 61.4 232.65 62.15 Q233.95 63.4 235.85 63.4 237.7 63.4 239.05 62.15 240.35 60.8 240.4 59.0 240.4 57.2 239.15 55.9 L239.05 55.85 238.75 55.55 Q237.5 54.5 235.85 54.5 233.95 54.5 232.65 55.85 231.3 57.15 231.3 59.0 231.3 60.25 231.95 61.3 M146.95 175.55 Q146.45 174.75 146.45 173.8 146.45 172.4 147.45 171.45 148.45 170.45 149.85 170.45 151.1 170.45 152.05 171.2 L152.25 171.45 152.35 171.5 Q153.25 172.45 153.25 173.8 153.25 175.15 152.25 176.15 151.25 177.15 149.85 177.15 148.45 177.15 147.45 176.15 L146.95 175.6 M83.45 264.25 L83.3 264.15 Q82.65 263.6 81.8 263.6 80.85 263.6 80.2 264.25 79.55 264.9 79.55 265.85 79.55 266.45 79.85 267.0 M83.45 264.3 L83.45 264.25 M83.45 264.3 Q84.1 264.95 84.1 265.85 84.1 266.75 83.45 267.4 82.75 268.05 81.8 268.05 80.85 268.05 80.2 267.4 L79.9 267.05 M181.65 374.35 Q181.35 373.85 181.35 373.2 181.35 372.3 182.0 371.65 182.65 370.95 183.6 371.0 184.45 371.0 185.1 371.5 L185.25 371.65 M185.25 371.7 Q185.9 372.3 185.9 373.2 185.9 374.1 185.25 374.8 184.55 375.45 183.6 375.45 182.65 375.45 182.0 374.8 L181.7 374.4 M296.75 488.4 Q297.4 489.0 297.4 489.9 297.4 490.8 296.75 491.5 296.05 492.15 295.1 492.15 294.15 492.15 293.5 491.5 L293.2 491.1 M296.75 488.35 L296.6 488.2 Q295.95 487.7 295.1 487.7 294.15 487.65 293.5 488.35 292.85 489.0 292.85 489.9 292.85 490.55 293.15 491.05 M123.95 422.5 Q123.45 421.75 123.5 420.8 123.5 419.4 124.5 418.45 125.45 417.45 126.9 417.45 128.1 417.4 129.05 418.2 L129.3 418.45 129.35 418.5 Q130.3 419.45 130.3 420.8 130.3 422.15 129.3 423.15 128.3 424.1 126.9 424.1 125.45 424.1 124.5 423.15 L124.0 422.6 123.95 422.5 M52.55 776.7 L52.45 776.65 52.15 776.35 Q50.9 775.3 49.25 775.3 47.35 775.3 46.05 776.65 44.7 777.95 44.7 779.8 44.7 781.05 45.35 782.1 L45.4 782.2 46.05 782.95 Q47.35 784.2 49.25 784.2 51.1 784.2 52.45 782.95 53.75 781.6 53.8 779.8 53.8 778.0 52.55 776.7 M136.55 741.45 Q136.25 740.95 136.25 740.3 136.25 739.4 136.9 738.75 137.55 738.05 138.5 738.1 139.35 738.1 140.0 738.6 L140.15 738.75 M140.15 738.8 Q140.8 739.4 140.8 740.3 140.8 741.2 140.15 741.9 139.45 742.55 138.5 742.55 137.55 742.55 136.9 741.9 L136.6 741.5 M244.8 610.55 Q244.3 609.75 244.35 608.8 244.35 607.45 245.35 606.45 246.3 605.45 247.75 605.45 248.95 605.45 249.9 606.25 L250.15 606.45 250.2 606.5 Q251.15 607.45 251.15 608.8 251.15 610.2 250.15 611.2 249.15 612.15 247.75 612.15 246.3 612.15 245.35 611.2 L244.85 610.6 244.8 610.55" fill="none" stroke="#101010" stroke-linecap="round" stroke-linejoin="round" stroke-width="1.5"/>
    <path d="M226.7 65.3 L226.8 65.5 228.35 67.4 Q231.65 70.6 236.3 70.6 240.95 70.6 244.25 67.4 247.55 64.1 247.55 59.6 247.55 55.15 244.4 52.0 L244.25 51.8 243.5 51.15 Q240.4 48.55 236.3 48.55 231.65 48.55 228.35 51.8 225.1 55.05 225.1 59.6 225.1 62.75 226.7 65.3 M143.0 178.55 Q141.8 176.65 141.8 174.25 141.8 170.85 144.25 168.45 146.75 166.0 150.2 166.0 153.3 166.0 155.6 167.9 L156.15 168.45 156.3 168.55 Q158.65 170.95 158.65 174.25 158.65 177.65 156.15 180.1 153.7 182.5 150.2 182.55 146.75 182.5 144.25 180.1 L143.1 178.7 143.0 178.55 M77.25 269.0 L77.3 269.1 78.1 270.05 Q79.75 271.65 82.05 271.65 84.35 271.65 86.0 270.05 87.65 268.4 87.65 266.15 87.65 263.95 86.1 262.35 L86.0 262.25 85.65 261.95 Q84.1 260.65 82.05 260.65 79.75 260.65 78.1 262.25 76.45 263.9 76.45 266.15 76.45 267.75 77.25 269.0 M179.05 376.4 Q178.25 375.1 178.25 373.55 178.25 371.25 179.9 369.65 181.55 368.0 183.85 368.0 185.9 368.0 187.45 369.3 L187.8 369.65 187.9 369.7 Q189.45 371.3 189.45 373.55 189.45 375.8 187.8 377.4 186.15 379.0 183.85 379.05 181.55 379.0 179.9 377.4 L179.1 376.5 179.05 376.4 M290.55 493.1 L290.6 493.2 291.4 494.1 Q293.05 495.7 295.35 495.75 297.65 495.7 299.3 494.1 300.95 492.5 300.95 490.25 300.95 488.0 299.4 486.4 L299.3 486.35 298.95 486.0 Q297.4 484.7 295.35 484.7 293.05 484.7 291.4 486.35 289.75 487.95 289.75 490.25 289.75 491.8 290.55 493.1 M120.05 425.55 L120.15 425.7 121.3 427.1 Q123.75 429.5 127.25 429.5 130.7 429.5 133.2 427.1 135.65 424.65 135.65 421.25 135.65 417.9 133.35 415.55 L133.2 415.4 132.65 414.9 Q130.35 413.0 127.25 413.0 123.75 412.95 121.3 415.4 118.85 417.85 118.85 421.25 118.85 423.6 120.05 425.55 M40.1 786.1 Q38.5 783.55 38.5 780.4 38.5 775.85 41.75 772.6 45.05 769.35 49.7 769.35 53.8 769.35 56.9 771.95 L57.65 772.6 57.8 772.8 Q60.95 775.95 60.95 780.4 60.95 784.9 57.65 788.2 54.35 791.4 49.7 791.4 45.05 791.4 41.75 788.2 L40.2 786.3 40.1 786.1 M133.95 743.5 Q133.15 742.2 133.15 740.65 133.15 738.35 134.8 736.75 136.45 735.1 138.75 735.1 140.8 735.1 142.35 736.4 L142.7 736.75 142.8 736.8 Q144.35 738.4 144.35 740.65 144.35 742.9 142.7 744.5 141.05 746.1 138.75 746.15 136.45 746.1 134.8 744.5 L134.0 743.6 133.95 743.5 M240.9 613.55 Q239.7 611.65 239.7 609.25 239.7 605.85 242.15 603.45 244.6 601.0 248.1 601.0 251.2 601.0 253.5 602.95 L254.05 603.45 254.2 603.55 Q256.5 605.95 256.5 609.25 256.5 612.65 254.05 615.1 251.55 617.55 248.1 617.55 244.6 617.55 242.15 615.1 L241.0 613.7 240.9 613.55 Z" fill="none" stroke="#101010" stroke-linecap="round" stroke-linejoin="round" stroke-width="2.0"/>
    <path d="M108.0 281.95 L108.0 219.05 170.85 219.05 170.85 281.95 108.0 281.95 M29.75 171.65 L23.4 156.85 19.75 156.65 21.4 142.65 Q36.9 106.55 72.4 125.0 L91.65 118.5 94.85 120.6 107.95 120.95 110.3 132.6 140.65 151.6 Q131.75 172.15 109.1 167.15 L106.15 170.1 117.9 190.1 116.75 191.8 Q98.85 217.4 71.1 202.2 L51.7 187.0 Q51.7 180.65 45.3 176.15 38.85 171.65 29.75 171.65 M127.35 10.1 L143.8 13.85 146.4 21.9 154.25 27.3 151.3 41.15 Q139.95 41.5 128.7 41.35 119.6 41.25 115.25 33.3 114.2 31.45 113.45 29.45 L127.35 10.1 M169.75 90.85 Q174.25 86.4 179.95 83.75 185.4 81.2 191.45 80.65 197.35 80.05 203.35 81.45 L211.8 92.2 203.5 98.65 208.0 101.6 217.1 100.8 230.8 111.55 229.7 114.9 232.8 118.5 226.75 125.85 226.25 131.25 205.8 134.15 202.55 135.0 195.3 134.5 188.3 133.7 Q183.1 132.4 178.5 129.6 L173.0 125.95 170.6 117.35 Q168.4 108.65 168.95 99.8 L169.75 90.85 M326.1 188.85 Q330.45 188.65 334.55 189.75 L334.55 260.9 333.1 260.7 330.65 270.3 282.5 266.45 274.9 270.5 273.7 270.75 Q264.7 269.2 259.8 263.4 256.4 259.4 254.9 253.4 L254.75 252.8 254.6 252.1 254.3 250.4 Q253.75 247.1 253.85 243.85 L206.75 244.85 199.8 235.35 194.6 237.45 188.35 224.7 214.85 206.8 217.35 192.5 224.0 190.3 225.95 184.85 228.5 183.05 269.1 184.15 273.25 166.8 281.0 163.5 283.85 159.4 307.2 160.2 310.3 164.55 326.95 165.6 325.2 169.85 324.6 171.4 Q321.95 178.4 324.4 185.65 L324.9 186.75 326.1 188.85 M274.5 234.4 L274.35 234.95 274.6 234.4 274.5 234.4 M291.7 284.85 L292.45 284.85 291.7 284.8 291.7 284.85 M289.5 284.6 L289.45 284.6 289.5 284.65 289.5 284.6 M312.7 281.8 L312.7 384.8 273.7 384.8 273.7 281.8 312.7 281.8 M211.0 521.45 L210.0 526.8 Q207.45 538.7 196.15 542.6 190.0 544.6 183.45 544.1 181.2 540.1 180.05 535.55 178.5 529.55 179.2 523.4 L179.65 520.2 191.55 512.15 211.0 521.45 M212.3 490.7 L212.3 490.65 Q211.55 488.95 212.1 486.3 L212.3 485.9 212.7 485.6 Q215.15 484.55 217.95 484.5 L219.8 484.6 220.35 484.9 221.8 486.3 Q222.85 487.3 223.35 488.85 L223.35 488.9 223.55 490.65 223.55 490.7 223.3 491.65 223.25 491.7 Q222.8 492.7 222.65 493.85 222.45 495.4 222.55 497.05 L222.85 499.75 222.85 499.8 Q223.1 501.65 222.25 503.5 L222.2 503.55 Q221.85 504.35 221.25 504.75 L218.3 506.15 218.25 506.15 215.35 507.0 214.85 507.0 Q213.55 506.7 212.9 505.6 212.2 504.5 212.0 503.2 211.8 501.35 212.0 499.55 L212.65 495.5 Q212.95 493.8 212.65 491.95 L212.3 490.7 M222.9 463.7 L222.95 465.45 222.95 466.05 222.7 466.75 Q221.85 467.65 222.05 468.9 222.8 473.85 221.75 478.65 221.5 479.6 220.65 480.15 L220.6 480.2 Q219.8 480.8 218.9 481.05 L218.85 481.05 217.1 481.1 216.95 481.05 216.35 480.85 Q215.05 480.6 214.0 479.85 212.25 478.65 211.6 476.5 210.55 473.2 211.55 469.9 212.1 467.9 212.15 465.85 L212.05 462.05 212.15 461.6 212.5 461.2 Q214.45 459.8 216.75 459.5 L216.7 459.55 218.7 459.4 218.85 459.45 Q220.1 459.65 221.05 460.4 L221.1 460.45 222.45 462.0 222.45 462.05 Q222.85 462.75 222.9 463.7 M163.15 475.8 L163.5 476.25 Q164.05 477.75 163.05 478.85 L163.0 478.85 Q161.3 480.55 159.1 480.9 158.5 481.05 158.15 481.6 157.7 482.3 156.85 482.5 L156.75 482.55 154.95 482.4 152.05 481.2 152.0 481.15 149.75 480.25 149.15 479.75 Q148.95 479.4 149.05 479.05 149.15 478.65 149.5 478.4 L153.0 476.15 153.05 476.15 Q154.4 475.35 156.2 475.05 L157.85 474.55 158.0 474.5 Q160.75 474.15 163.15 475.8 M177.4 473.55 Q177.7 473.25 178.1 473.3 181.35 473.55 184.2 474.35 L184.1 474.35 Q188.05 475.1 192.1 474.5 L192.15 474.5 Q198.55 473.75 204.45 475.65 L204.5 475.65 206.1 476.55 206.15 476.6 206.8 477.2 207.0 477.7 206.95 478.25 206.6 478.7 204.1 480.4 204.15 481.05 204.1 481.6 203.8 482.0 202.6 482.7 202.45 482.75 199.7 483.35 199.4 483.35 196.7 483.1 196.6 483.1 192.4 482.35 186.4 482.55 184.0 483.1 179.6 483.35 179.55 483.35 176.25 482.75 176.05 482.65 175.85 482.6 175.8 482.6 173.3 481.95 173.35 481.95 170.55 481.35 170.4 481.3 Q168.65 480.5 167.9 478.95 167.2 477.45 167.95 476.25 L168.35 475.9 168.9 475.75 173.9 475.25 174.0 475.25 Q175.8 474.8 177.4 473.55 M182.8 448.95 L182.8 449.0 Q183.25 449.75 183.2 450.7 L182.9 452.05 182.95 452.6 182.95 452.7 182.8 458.7 Q182.75 459.45 182.3 460.25 L182.3 460.3 Q181.25 462.3 180.8 464.4 L180.05 466.25 180.05 466.3 179.7 466.8 Q178.1 468.8 175.35 468.3 L175.1 468.25 Q173.7 467.6 173.45 465.95 L172.8 460.4 Q172.25 455.1 173.9 450.35 L173.45 449.8 173.3 449.15 173.6 448.55 Q175.85 446.2 179.25 446.5 L179.3 446.5 Q180.2 446.6 181.25 447.35 L182.8 448.95 M243.1 456.55 L243.0 456.55 240.15 456.75 240.25 456.75 238.45 457.0 233.4 457.25 224.55 457.75 224.5 457.75 216.05 457.25 216.0 457.25 213.8 457.05 213.7 457.05 Q210.2 456.35 207.8 453.95 L207.5 453.35 Q207.45 453.0 207.7 452.7 L208.1 452.0 208.3 451.25 208.6 450.75 Q208.8 450.55 209.1 450.5 L218.7 449.15 224.8 449.4 227.2 449.9 Q230.1 450.3 232.85 450.0 L232.95 450.0 241.6 450.05 250.15 450.8 Q251.1 450.85 251.75 451.75 L251.8 451.85 252.4 453.45 252.4 453.5 Q252.55 455.1 251.65 455.85 L251.1 456.1 247.5 456.75 247.3 456.75 243.1 456.55 M283.9 398.2 L291.9 400.55 295.1 400.0 Q298.4 398.65 301.8 397.55 310.3 394.6 319.1 395.6 L324.9 396.3 329.4 402.55 327.0 418.8 339.75 418.95 342.15 426.85 351.9 428.4 352.65 439.65 345.8 441.8 345.2 449.65 333.95 452.3 334.25 455.6 Q334.5 462.75 328.85 466.75 319.05 473.75 306.7 474.3 294.9 475.1 284.2 470.5 279.75 468.55 275.7 465.9 L276.5 451.75 267.85 449.5 264.15 443.55 256.7 440.8 252.85 435.55 245.35 441.4 235.45 435.65 Q229.7 436.9 224.5 434.4 221.7 433.05 219.6 430.7 215.5 426.25 215.6 420.0 215.7 415.9 216.85 411.75 L226.25 408.5 232.15 399.35 Q243.25 401.85 253.65 406.55 264.1 411.2 273.15 417.85 L280.15 415.3 283.9 398.2 M227.1 324.75 L228.45 327.75 237.55 333.25 219.8 352.45 210.0 353.55 207.95 355.7 201.05 356.45 200.25 356.4 194.15 355.4 Q189.6 354.45 185.6 352.15 L182.95 350.6 Q179.1 348.25 175.9 345.1 L176.25 328.15 Q184.45 323.55 193.3 321.15 L197.75 320.1 Q204.5 318.85 211.4 318.6 L214.65 323.5 227.1 324.75 M213.05 581.4 L215.65 581.45 220.0 584.5 232.8 591.9 207.75 609.5 207.1 613.9 199.65 618.1 204.15 625.95 212.05 626.3 214.95 629.95 216.45 630.25 217.85 630.65 219.2 631.2 220.4 632.0 Q224.8 635.35 223.85 641.05 220.15 646.1 215.55 650.2 L214.55 651.05 209.45 654.9 208.0 655.85 Q201.25 659.1 195.95 653.35 L179.6 651.4 165.3 626.45 158.1 627.4 157.1 628.4 156.0 629.3 154.8 630.05 153.5 630.85 Q146.0 634.3 138.1 631.8 L135.15 633.7 Q133.05 635.05 130.55 634.55 128.05 633.95 125.65 633.0 113.5 628.1 106.05 617.35 L108.95 604.6 98.55 601.55 86.85 605.9 80.75 615.6 58.3 624.75 46.35 631.7 45.1 633.1 43.65 636.7 59.65 646.95 59.95 651.0 67.5 658.65 59.85 666.3 63.2 678.8 Q60.95 681.35 57.85 682.85 35.95 692.95 14.4 681.1 2.55 605.35 22.65 531.35 L24.5 524.95 25.95 520.3 42.4 509.25 47.7 511.0 54.0 509.6 59.35 513.6 77.35 515.1 82.55 524.8 76.15 531.4 Q75.8 534.6 74.2 537.35 L73.65 538.25 71.65 540.7 70.1 542.05 66.65 544.45 70.9 565.35 Q133.7 586.25 206.75 580.4 209.85 580.3 213.05 581.4 M173.15 710.15 L177.8 715.9 187.1 716.25 189.25 719.75 193.55 720.6 191.45 731.6 186.15 735.05 183.85 741.75 172.0 741.7 160.45 727.95 173.15 710.15 M220.8 639.05 L221.0 639.9 221.05 639.0 220.8 639.05 M260.05 676.95 Q257.95 672.25 257.75 666.95 257.45 658.2 262.85 651.0 L272.95 652.6 275.6 651.5 Q282.05 648.95 288.5 650.5 292.4 651.35 295.85 653.5 L302.05 666.15 Q300.9 671.6 297.0 675.6 292.95 679.75 287.4 680.95 281.1 681.9 276.25 677.7 L260.05 676.95 M260.05 671.9 L260.25 672.3 260.3 672.0 260.05 671.9 M142.0 730.1 L79.15 730.1 79.15 667.25 142.0 667.25 142.0 730.1 M151.55 692.25 L151.45 691.95 151.45 691.9 Q150.7 689.35 152.9 688.2 154.5 686.7 157.4 687.1 158.75 687.2 160.05 688.1 L160.1 688.15 160.55 688.4 Q161.4 688.65 161.55 689.55 L161.55 689.6 161.9 692.55 161.9 692.6 Q162.05 693.75 161.45 694.35 160.9 694.95 159.75 694.95 L159.65 695.0 159.6 695.05 Q157.95 696.7 155.5 695.95 L155.45 695.95 Q153.9 695.35 153.35 694.4 151.7 694.1 151.55 692.25 M155.65 667.55 L155.7 667.55 Q158.7 668.75 159.95 671.3 L160.7 673.45 Q161.15 676.05 159.3 676.7 158.7 678.95 157.55 681.1 L157.25 681.7 156.05 684.05 Q155.05 686.2 153.5 686.15 152.15 686.3 150.4 684.55 L150.35 684.5 149.7 683.85 149.65 683.8 Q147.1 681.4 147.65 677.0 147.95 674.6 149.2 672.9 L149.3 672.55 149.35 672.5 Q149.55 671.05 148.5 669.75 L148.25 669.25 148.35 668.75 Q148.45 668.45 148.7 668.3 150.9 666.7 154.85 667.35 L154.9 667.35 155.65 667.55 M155.85 644.95 L158.9 645.35 158.85 645.35 160.6 645.8 160.65 645.85 161.35 646.25 161.4 646.3 Q164.65 648.65 162.35 651.6 161.75 652.35 160.8 652.4 L151.25 652.6 147.65 652.4 141.8 652.2 134.55 651.85 132.1 651.55 130.15 651.4 Q128.15 651.25 127.55 650.05 L127.5 650.0 Q127.2 649.35 127.2 648.65 L127.2 648.0 127.0 647.85 Q126.7 647.55 126.7 647.15 126.7 646.7 127.0 646.45 127.3 646.15 127.7 646.15 L128.15 646.15 130.45 645.55 130.5 645.55 Q131.45 645.15 132.5 645.0 L133.35 644.75 133.4 644.75 Q136.05 643.85 139.25 644.0 L145.35 644.4 145.75 644.4 155.85 644.95 M152.85 654.65 Q153.25 654.65 153.55 655.0 L153.6 655.05 Q157.6 654.45 159.45 657.15 L160.7 658.65 160.7 658.7 Q161.4 659.25 161.1 660.35 L161.05 660.4 Q160.3 663.4 156.7 663.25 L153.6 662.7 Q153.05 662.55 152.45 662.05 L152.4 662.0 150.85 660.25 Q150.05 659.2 150.1 657.15 L150.1 657.1 Q150.1 655.75 150.85 655.2 151.5 654.5 152.85 654.65 M88.2 643.35 L91.9 643.65 100.6 644.0 101.65 643.9 101.6 643.9 104.6 643.5 108.05 642.9 108.0 642.95 109.6 642.65 109.65 642.65 Q111.6 642.45 112.75 643.05 L113.2 643.15 113.25 643.15 117.4 643.6 117.3 643.6 118.5 643.85 119.2 644.15 119.25 644.15 121.55 645.2 121.6 645.2 Q124.2 646.2 126.5 649.0 L126.7 649.55 126.55 650.15 Q125.9 651.3 123.9 651.7 L117.15 652.25 Q113.95 652.1 110.8 652.35 L109.75 652.4 98.7 652.65 95.65 652.45 95.6 652.4 95.2 652.4 95.1 652.4 90.65 651.95 90.6 651.9 89.7 651.65 89.75 651.65 Q88.35 651.05 86.25 651.15 L86.2 651.15 83.4 651.35 83.45 651.3 83.25 651.4 Q82.1 652.35 79.6 652.15 74.25 651.6 73.7 646.8 L73.85 646.15 Q74.05 645.85 74.4 645.75 81.1 643.5 88.2 643.35 M125.35 519.25 L129.15 522.65 144.45 524.85 144.25 530.65 151.75 529.1 Q152.65 531.9 152.75 534.85 152.8 537.6 150.85 539.6 L149.75 540.7 148.65 541.9 150.7 556.0 140.9 553.25 137.7 558.65 122.35 558.55 116.05 551.2 102.5 551.2 Q98.75 548.05 97.65 543.3 96.8 539.6 97.4 535.9 L97.65 534.45 95.65 530.45 105.75 528.4 112.1 519.25 119.95 521.5 125.35 519.25 M79.1 576.55 L79.15 576.55 79.1 576.55 M116.45 474.35 L116.7 474.35 Q121.15 475.05 125.45 474.25 L125.55 474.2 131.45 474.5 134.65 474.85 134.85 474.9 137.0 475.35 139.7 474.8 139.85 474.75 144.45 474.75 144.55 474.75 Q145.9 474.95 146.9 475.95 L147.0 476.05 147.65 477.2 147.7 477.3 147.8 477.95 147.8 478.15 Q147.4 480.1 145.4 480.4 L142.75 481.1 142.85 481.1 139.85 481.9 139.8 481.9 137.75 482.35 137.5 482.35 Q131.05 482.25 124.6 482.7 L118.85 483.4 118.9 483.4 114.7 483.15 114.55 483.1 114.45 483.05 114.4 483.05 Q112.6 482.4 110.95 481.55 L110.9 481.5 108.45 480.3 108.15 479.95 107.95 479.5 107.7 477.65 107.85 477.05 108.3 476.65 Q110.85 475.5 113.7 474.75 L113.8 474.7 116.45 474.35 M242.5 561.15 L242.85 559.65 Q246.8 545.8 260.8 547.15 269.4 538.85 281.0 541.5 L283.9 546.1 294.0 547.3 296.5 554.75 304.65 556.5 302.3 565.9 Q320.45 555.35 338.75 565.45 L335.55 586.4 322.2 586.8 320.1 588.1 Q305.9 596.85 293.7 585.5 L275.75 578.0 275.0 571.3 Q256.3 573.75 242.5 561.15" fill="#000000" fill-opacity="0.5019608" fill-rule="evenodd" stroke="none"/>
    <path d="M209.4 234.45 L196.75 234.85 189.8 225.35 184.6 227.45 178.35 214.7 204.85 196.8 207.35 182.5 214.0 180.3 215.95 174.85 218.5 173.05 259.1 174.15 263.25 156.8 271.0 153.5 273.85 149.4 297.2 150.2 300.3 154.55 316.95 155.6 315.2 159.85 314.6 161.4 Q311.95 168.4 314.4 175.65 L314.9 176.75 316.1 178.85 Q320.45 178.65 324.55 179.75 L324.55 182.3 314.2 182.35 309.55 165.4 314.15 158.85 299.1 157.35 295.4 152.75 278.7 150.15 274.5 152.8 273.85 155.65 265.95 158.1 265.45 165.35 260.5 168.45 266.35 177.85 247.75 179.4 227.45 180.8 219.15 176.0 215.45 183.35 210.1 182.5 Q205.6 189.45 208.15 197.4 L208.8 199.35 192.2 205.6 181.05 214.15 185.05 224.5 190.8 222.55 196.85 231.85 209.4 234.45 M324.55 249.5 L324.55 250.9 323.1 250.7 320.65 260.3 272.5 256.45 264.9 260.5 271.6 253.6 318.9 257.6 320.85 248.7 324.55 249.5 M263.7 260.75 Q254.7 259.2 249.8 253.4 246.4 249.4 244.9 243.4 L244.75 242.8 244.6 242.1 244.3 240.4 Q243.75 237.1 243.85 233.85 L215.2 234.35 230.3 226.85 246.2 232.0 247.55 238.65 261.0 259.75 263.7 260.75 M192.55 125.0 L185.3 124.5 178.3 123.7 Q173.1 122.45 168.5 119.6 L163.0 115.95 160.6 107.35 Q158.4 98.7 158.95 89.8 L159.75 80.85 Q164.25 76.4 169.95 73.75 175.4 71.2 181.45 70.65 187.35 70.05 193.35 71.45 L201.8 82.2 193.5 88.65 198.0 91.6 207.1 90.8 220.8 101.55 219.7 104.9 222.8 108.5 216.75 115.85 216.25 121.25 195.8 124.15 201.0 120.35 213.7 119.7 213.55 115.05 219.65 109.15 217.55 102.55 203.8 92.65 198.6 95.55 189.15 89.25 198.6 82.15 186.6 70.85 Q174.5 76.7 162.35 82.5 L163.35 106.35 164.75 113.5 173.95 113.95 176.95 118.55 192.55 125.0 M133.8 3.85 L136.4 11.9 144.25 17.3 141.3 31.15 Q129.95 31.5 118.7 31.35 109.6 31.25 105.25 23.3 104.15 21.45 103.45 19.45 L117.35 0.1 133.8 3.85 M109.25 25.0 Q114.7 29.35 121.6 30.35 130.55 31.25 139.2 29.05 L141.05 18.2 136.8 15.75 131.55 6.1 118.2 3.35 106.4 18.35 109.25 25.0 M81.2 117.85 Q64.05 119.8 48.35 111.8 22.0 110.35 11.4 132.65 26.9 96.55 62.4 115.0 L81.65 108.5 84.85 110.6 97.95 110.95 100.3 122.6 130.65 141.6 Q121.75 162.15 99.1 157.15 L96.15 160.1 107.9 180.1 106.75 181.8 Q88.85 207.4 61.1 192.2 82.95 197.4 101.35 184.55 L104.4 182.55 106.05 178.8 Q95.3 171.1 93.45 157.85 L97.5 154.5 114.15 154.9 128.1 142.7 127.05 139.75 122.9 139.1 Q99.55 136.75 96.7 116.7 96.5 115.4 96.75 114.1 89.9 116.55 83.25 117.6 L82.95 116.6 81.2 117.85 M190.25 346.4 L184.15 345.4 Q179.6 344.45 175.6 342.15 L172.95 340.6 Q169.1 338.25 165.9 335.1 L166.25 318.15 Q174.45 313.55 183.3 311.15 L187.75 310.1 Q194.5 308.85 201.4 308.6 L204.65 313.5 217.1 314.75 218.45 317.75 227.55 323.25 209.8 342.45 200.0 343.55 197.95 345.7 191.05 346.45 199.45 338.8 208.55 339.7 222.8 324.75 214.8 317.65 201.8 315.5 197.3 310.65 194.2 312.95 190.85 310.05 177.85 316.1 175.6 314.5 173.25 316.55 Q165.7 323.9 169.9 333.65 L171.7 334.85 172.35 335.4 190.25 346.4 M227.2 395.65 L226.85 395.3 223.7 392.15 217.6 401.3 210.15 401.35 206.9 404.55 209.0 411.45 209.95 414.45 207.5 416.9 210.1 420.9 226.65 421.95 230.75 428.1 237.05 427.85 244.15 422.15 248.9 428.7 254.9 430.0 259.1 436.6 268.9 439.95 266.8 455.05 282.55 456.2 Q288.25 462.45 296.5 462.1 299.65 461.9 302.5 460.65 304.7 459.7 306.7 458.1 L310.8 459.15 Q317.05 457.3 320.2 451.7 321.85 448.7 322.35 445.55 323.0 441.75 322.1 438.15 L332.65 437.85 332.75 430.6 340.25 427.55 340.2 420.95 330.95 419.75 328.75 416.95 327.8 413.05 314.95 411.1 316.35 393.05 313.6 389.05 296.65 389.65 296.2 389.65 285.1 390.0 Q288.4 388.65 291.8 387.55 300.3 384.6 309.1 385.6 L314.9 386.3 319.4 392.55 317.0 408.8 329.75 408.95 332.15 416.85 341.9 418.4 342.65 429.65 335.8 431.8 335.2 439.65 323.95 442.3 324.25 445.6 Q324.5 452.75 318.85 456.75 309.05 463.75 296.7 464.3 284.9 465.1 274.2 460.5 269.75 458.55 265.7 455.9 L266.5 441.75 257.85 439.5 254.15 433.55 246.7 430.8 242.85 425.55 235.35 431.4 225.45 425.65 Q219.7 426.9 214.5 424.4 211.7 423.05 209.6 420.7 205.5 416.25 205.6 410.0 205.7 405.9 206.85 401.75 L216.25 398.5 222.15 389.35 Q233.25 391.85 243.65 396.55 254.1 401.2 263.15 407.85 L270.15 405.3 273.9 388.2 281.9 390.55 276.9 391.15 272.3 408.2 262.6 410.95 245.85 403.15 243.6 397.1 231.8 398.3 227.2 395.65 M172.95 530.15 Q183.35 530.1 190.7 524.25 198.05 518.35 198.05 510.0 L201.0 511.45 200.0 516.8 Q197.45 528.7 186.15 532.6 180.0 534.6 173.45 534.1 171.2 530.15 170.05 525.55 168.5 519.5 169.2 513.4 L169.65 510.2 181.55 502.15 196.1 509.1 191.1 508.8 182.5 505.25 172.7 510.65 172.95 530.15 M282.25 574.85 L265.75 568.0 265.0 561.3 Q247.9 563.55 234.9 553.2 L232.5 551.15 232.85 549.65 Q233.65 546.8 234.9 544.6 239.7 536.05 250.8 537.15 259.4 528.85 271.0 531.5 L273.9 536.1 284.0 537.3 286.5 544.75 294.65 546.5 292.3 555.9 Q310.45 545.35 328.75 555.45 L325.55 576.4 312.2 576.8 310.1 578.1 Q295.9 586.85 283.7 575.5 292.85 580.05 302.15 576.2 L309.75 572.75 324.1 575.0 324.85 562.5 325.3 554.3 Q306.95 553.3 289.2 558.2 L291.85 549.2 284.4 547.0 283.0 540.4 271.6 538.8 269.5 534.2 Q266.45 533.25 263.1 533.65 259.85 534.25 257.2 536.25 254.9 537.9 252.7 539.65 L244.65 537.8 236.0 543.55 234.65 550.95 234.9 551.1 Q243.65 556.85 254.15 557.95 L266.45 557.4 268.3 566.35 282.25 574.85 M210.0 574.5 L222.8 581.9 197.75 599.5 197.1 603.9 189.65 608.1 194.15 615.95 202.05 616.3 204.95 619.95 206.45 620.25 207.85 620.65 209.2 621.2 Q209.8 621.55 210.4 622.0 214.8 625.35 213.85 631.05 210.15 636.1 205.55 640.2 L204.55 641.05 199.45 644.9 198.0 645.85 Q191.25 649.1 185.95 643.35 L169.6 641.4 155.3 616.45 148.1 617.4 147.1 618.4 146.0 619.3 144.8 620.05 143.5 620.85 Q136.0 624.3 128.1 621.8 L125.15 623.7 Q123.05 625.05 120.55 624.55 L115.65 623.0 Q103.5 618.1 96.05 607.35 L98.95 594.6 88.55 591.55 76.85 595.9 70.75 605.6 48.3 614.75 36.35 621.7 45.65 611.1 71.5 602.0 74.75 593.3 90.8 589.1 101.45 592.55 98.8 606.0 Q102.4 611.35 108.0 614.3 130.4 626.0 154.4 613.35 L171.1 638.75 173.05 639.4 Q177.7 641.05 181.95 641.75 191.1 643.25 198.45 640.2 205.6 637.2 211.0 629.9 L211.05 629.0 210.05 625.55 202.95 622.25 200.95 619.25 193.55 619.05 188.15 614.8 186.35 608.05 193.95 602.8 195.4 596.1 219.35 582.2 210.0 574.5 M35.1 623.1 L33.65 626.7 49.65 636.95 49.95 641.0 57.5 648.65 49.85 656.3 53.2 668.8 Q50.95 671.35 47.85 672.85 25.95 682.95 4.4 671.1 -7.45 595.35 12.65 521.35 3.55 587.95 7.25 655.35 L4.75 667.7 Q23.15 677.0 43.1 671.9 46.55 671.1 49.85 669.4 L49.9 660.8 46.1 657.05 40.6 656.15 53.05 647.75 31.2 627.55 35.1 623.1 M14.5 514.95 L15.95 510.3 32.4 499.25 37.7 501.0 44.0 499.6 49.35 503.6 67.35 505.1 72.55 514.8 66.15 521.4 Q65.8 524.6 64.2 527.35 L63.65 528.25 61.65 530.7 60.1 532.05 56.65 534.45 60.9 555.35 Q123.7 576.25 196.75 570.4 199.85 570.3 203.05 571.4 135.2 575.1 72.0 567.75 70.5 567.55 69.15 566.55 L69.1 566.55 Q56.65 555.25 54.15 538.7 L53.55 534.15 55.85 530.85 59.8 528.6 62.15 520.95 69.7 515.8 66.7 509.2 46.85 505.75 42.6 502.45 36.4 504.05 29.9 502.1 14.5 514.95 M140.85 529.6 L139.75 530.7 138.65 531.9 140.7 546.0 130.9 543.25 127.7 548.65 112.35 548.55 106.05 541.2 92.5 541.2 Q88.75 538.05 87.65 533.3 86.8 529.6 87.4 525.9 L87.65 524.45 85.65 520.45 95.75 518.4 102.1 509.25 109.95 511.5 115.35 509.25 119.15 512.65 134.45 514.85 134.25 520.65 141.75 519.1 Q142.65 521.9 142.75 524.85 142.8 527.6 140.85 529.6 M91.2 535.1 L92.95 538.05 95.35 537.6 Q98.8 536.95 102.0 537.75 L104.05 538.5 106.35 539.75 107.9 540.75 111.65 543.6 125.95 546.0 130.05 540.2 137.25 543.05 135.75 531.1 140.0 522.75 132.6 523.4 131.2 518.0 103.95 512.4 98.45 520.6 90.35 522.95 91.2 535.1 M175.9 710.3 L174.05 707.2 166.1 710.3 163.15 704.95 153.8 717.95 158.75 724.0 162.85 728.7 172.25 729.15 177.95 719.9 180.55 713.1 176.25 710.8 175.9 710.3 M265.6 641.5 Q272.05 638.95 278.5 640.5 282.4 641.35 285.85 643.5 L292.05 656.15 Q290.9 661.65 287.0 665.6 282.95 669.75 277.4 670.95 271.1 671.9 266.25 667.7 L250.05 666.95 Q247.95 662.25 247.75 656.95 247.45 648.2 252.85 641.0 L262.95 642.6 265.6 641.5 M285.7 651.8 L283.6 645.65 254.5 643.55 250.05 661.9 250.25 662.3 277.25 670.2 288.85 655.8 285.7 651.8 M177.1 706.3 L179.25 709.75 183.55 710.6 181.45 721.6 176.15 725.05 173.85 731.75 162.0 731.7 150.45 717.95 163.15 700.2 167.8 705.95 177.1 706.3" fill="#003300" fill-rule="evenodd" stroke="none"/>
    <path d="M192.2 205.6 L208.8 199.35 208.15 197.4 Q205.6 189.45 210.1 182.5 L215.45 183.35 219.15 176.0 227.45 180.8 247.75 179.4 Q260.7 184.15 271.7 176.7 273.4 175.45 274.05 173.6 276.15 167.55 275.3 161.4 274.9 158.5 273.85 155.65 L274.5 152.8 278.7 150.15 295.4 152.75 299.1 157.35 314.15 158.85 309.55 165.4 314.2 182.35 324.55 182.3 324.55 220.1 316.2 225.8 318.35 236.85 311.0 239.75 310.55 239.9 309.1 240.4 Q303.5 242.25 297.75 243.4 L291.6 244.35 288.6 244.65 Q283.1 245.05 277.45 244.85 270.95 244.55 264.6 243.45 L264.25 243.4 Q258.25 242.25 252.4 240.4 L247.55 238.65 246.2 232.0 230.3 226.85 228.75 224.4 Q225.6 219.6 221.6 216.35 214.45 210.45 204.6 209.5 201.6 209.2 198.35 209.4 L195.65 209.65 194.1 206.8 192.2 205.6 M163.35 106.35 L162.35 82.5 Q174.5 76.7 186.6 70.85 L198.6 82.15 189.15 89.25 198.6 95.55 203.8 92.65 217.55 102.55 208.35 100.95 Q202.55 109.45 192.3 111.95 L184.5 112.25 181.25 106.65 163.35 106.35 M186.4 80.7 L183.9 77.4 178.95 82.8 186.4 80.7 M231.6 192.25 L229.35 191.55 227.1 195.05 231.6 198.35 Q236.95 202.8 240.8 208.7 L241.0 207.7 Q241.85 196.05 231.6 192.25 M197.75 99.65 L191.3 99.45 186.25 103.35 200.85 100.5 202.3 97.15 197.75 99.65 M305.85 163.95 L308.25 160.2 302.35 160.8 299.2 164.55 294.85 159.65 287.35 168.55 292.3 164.3 296.7 168.7 300.1 165.2 305.85 163.95 M128.2 8.8 L128.4 6.25 126.45 10.1 132.5 17.65 133.5 14.9 128.2 8.8 M136.8 15.75 L134.3 20.0 109.25 25.0 106.4 18.35 118.2 3.35 131.55 6.1 136.8 15.75 M81.2 117.85 L73.1 123.65 80.6 119.7 83.85 127.1 89.05 126.25 85.0 123.3 83.25 117.6 Q89.9 116.55 96.75 114.1 96.5 115.4 96.7 116.7 99.55 136.75 122.9 139.1 L114.85 143.65 Q103.1 141.95 92.85 147.7 90.0 149.25 87.3 151.05 L88.2 179.2 83.6 180.15 Q53.75 151.95 13.4 146.85 L9.75 146.65 11.4 132.65 Q22.0 110.35 48.35 111.8 64.05 119.8 81.2 117.85 M64.35 147.8 L71.4 141.5 65.35 145.05 59.75 142.05 57.6 150.7 60.5 147.7 64.35 147.8 M47.0 140.3 L45.75 142.15 54.0 152.65 55.95 149.85 47.0 140.3 M40.5 119.8 L49.85 119.45 39.0 113.8 24.75 125.0 38.5 117.2 40.5 119.8 M105.05 141.0 Q106.4 141.7 108.3 141.75 110.2 141.7 111.55 141.0 112.9 140.15 112.9 139.1 112.9 138.0 111.55 137.25 110.2 136.45 108.3 136.45 106.4 136.45 105.05 137.25 103.7 138.0 103.7 139.1 103.7 140.15 105.05 141.0 M82.1 141.05 L85.6 140.7 87.1 138.3 84.0 137.8 75.65 149.45 82.1 141.05 M264.6 224.4 L268.55 214.15 Q267.4 215.65 266.7 217.4 L266.05 219.05 265.35 221.4 264.6 224.0 264.5 224.4 264.35 224.95 264.6 224.4 M271.05 211.5 Q269.7 212.65 268.7 214.0 L275.1 211.05 277.1 207.9 Q273.85 209.1 271.2 211.4 271.1 211.4 271.05 211.5 M265.6 210.7 L263.6 207.2 258.35 210.55 257.85 192.55 255.85 216.55 260.85 211.75 263.1 214.95 265.6 210.7 M169.9 333.65 Q165.7 323.9 173.25 316.55 L175.6 314.5 177.85 316.1 190.85 310.05 194.2 312.95 197.3 310.65 201.8 315.5 214.8 317.65 Q199.75 331.45 179.45 330.45 L172.6 329.7 169.9 333.65 M197.15 319.4 L192.1 317.0 176.0 327.45 178.3 327.3 Q191.95 326.3 202.4 317.6 L197.15 319.4 M227.2 395.65 L231.8 398.3 243.6 397.1 245.85 403.15 262.6 410.95 272.3 408.2 276.9 391.15 281.9 390.55 285.1 390.0 296.2 389.65 297.95 396.2 302.75 394.0 310.05 397.65 304.75 392.55 298.85 394.0 296.65 389.65 313.6 389.05 316.35 393.05 314.95 411.1 327.8 413.05 328.75 416.95 324.75 419.45 323.8 424.9 313.65 432.0 312.7 446.15 Q304.1 447.15 295.7 445.35 276.2 441.25 260.1 428.9 250.15 421.25 239.9 414.25 232.1 408.85 223.2 405.8 L209.0 411.45 206.9 404.55 210.15 401.35 217.6 401.3 223.7 392.15 226.85 395.3 224.75 396.8 224.6 402.85 225.6 398.0 228.5 401.75 242.7 399.9 230.85 400.3 227.2 395.65 M299.85 438.15 L296.95 442.05 306.15 438.9 299.85 438.15 M288.85 417.1 L286.35 420.55 288.0 419.15 289.1 423.55 305.6 422.95 303.35 416.55 301.85 420.05 291.7 421.8 288.85 417.1 M268.35 413.5 L267.25 415.85 272.35 420.05 268.35 413.5 M277.3 414.1 L276.6 419.0 282.75 408.75 277.3 414.1 M182.8 510.05 Q182.8 511.05 183.3 511.75 183.8 512.45 184.5 512.45 185.2 512.45 185.7 511.75 186.2 511.05 186.2 510.05 186.2 509.05 185.7 508.35 185.2 507.65 184.5 507.65 183.8 507.65 183.3 508.35 182.8 509.05 182.8 510.05 M191.1 508.8 L183.65 519.2 178.9 521.15 172.95 530.15 172.7 510.65 182.5 505.25 191.1 508.8 M165.5 582.65 L176.2 576.4 166.4 579.4 164.5 576.05 149.3 581.85 148.0 584.4 162.7 578.55 165.5 582.65 M236.0 543.55 L244.65 537.8 252.7 539.65 Q254.9 537.9 257.2 536.25 259.85 534.25 263.1 533.65 266.45 533.25 269.5 534.2 L271.6 538.8 283.0 540.4 284.4 547.0 291.85 549.2 289.2 558.2 Q306.95 553.3 325.3 554.3 L324.85 562.5 Q306.75 569.85 287.85 563.15 L282.05 560.9 Q272.85 557.15 264.15 552.4 257.6 548.7 250.65 546.7 243.6 544.65 236.0 543.55 M36.35 621.7 L35.1 623.1 31.2 627.55 Q31.15 657.55 7.25 655.35 3.55 587.95 12.65 521.35 L14.5 514.95 29.9 502.1 36.4 504.05 42.6 502.45 46.85 505.75 56.05 517.55 55.85 530.85 53.55 534.15 54.15 538.7 Q56.65 555.25 69.1 566.55 L69.15 566.55 Q70.5 567.55 72.0 567.75 135.2 575.1 203.05 571.4 L205.65 571.45 193.55 583.65 195.4 596.1 193.95 602.8 186.35 608.05 188.15 614.8 193.55 619.05 200.95 619.25 202.95 622.25 210.05 625.55 211.05 629.0 210.8 629.05 Q202.8 623.65 193.45 626.05 L190.75 626.85 Q135.65 582.35 90.8 589.1 L74.75 593.3 Q59.55 599.05 45.65 611.1 L36.35 621.7 M279.7 547.85 L275.2 546.2 275.0 548.4 284.4 554.6 287.4 552.25 280.55 549.7 279.7 547.85 M257.85 537.4 L256.65 540.75 267.2 537.25 257.85 537.4 M26.85 588.05 L20.55 577.15 15.95 578.95 26.85 588.05 M46.55 515.75 L47.95 513.55 39.4 514.25 39.1 510.2 24.5 522.65 37.3 512.85 37.55 515.2 46.55 515.75 M91.2 535.1 L90.35 522.95 98.45 520.6 103.95 512.4 131.2 518.0 132.6 523.4 129.2 529.2 126.8 529.95 125.2 531.85 111.45 533.85 Q109.05 532.5 106.35 531.8 L104.95 531.5 Q100.25 530.7 95.75 532.75 93.4 533.8 91.2 535.1 M102.3 527.9 L107.1 522.1 108.25 525.9 Q113.0 523.15 117.7 520.45 L110.8 521.35 109.1 517.45 102.3 527.9 M22.9 648.5 Q22.9 647.45 21.75 646.8 20.55 646.05 18.85 646.05 17.15 646.05 16.0 646.8 14.8 647.45 14.8 648.5 14.8 649.45 16.0 650.25 17.15 650.9 18.85 650.95 20.55 650.9 21.75 650.25 22.9 649.45 22.9 648.5 M158.75 724.0 L153.8 717.95 163.15 704.95 166.1 710.3 174.05 707.2 175.9 710.3 172.45 712.5 165.95 712.0 163.1 717.45 170.55 716.5 176.25 710.8 180.55 713.1 177.95 719.9 175.5 719.0 Q165.35 715.6 158.75 724.0 M270.55 649.85 L267.55 645.1 258.05 655.35 266.55 647.15 269.05 651.85 279.95 650.85 280.9 649.35 274.45 648.9 270.55 649.85 M285.7 651.8 L280.65 656.5 277.2 655.9 Q262.75 654.5 250.3 662.0 L250.05 661.9 254.5 643.55 283.6 645.65 285.7 651.8 M180.25 607.35 L173.15 610.85 179.45 610.5 184.3 619.35 191.7 619.15 183.7 615.15 180.25 607.35" fill="#4a9500" fill-rule="evenodd" stroke="none"/>
    <path d="M186.4 80.7 L178.95 82.8 183.9 77.4 186.4 80.7 M197.75 99.65 L202.3 97.15 200.85 100.5 186.25 103.35 191.3 99.45 197.75 99.65 M231.6 192.25 Q241.85 196.05 241.0 207.7 L240.8 208.7 Q236.95 202.8 231.6 198.35 L227.1 195.05 229.35 191.55 231.6 192.25 M305.85 163.95 L300.1 165.2 296.7 168.7 292.3 164.3 287.35 168.55 294.85 159.65 299.2 164.55 302.35 160.8 308.25 160.2 305.85 163.95 M128.2 8.8 L133.5 14.9 132.5 17.65 126.45 10.1 128.4 6.25 128.2 8.8 M40.5 119.8 L38.5 117.2 24.75 125.0 39.0 113.8 49.85 119.45 40.5 119.8 M47.0 140.3 L55.95 149.85 54.0 152.65 45.75 142.15 47.0 140.3 M64.35 147.8 L60.5 147.7 57.6 150.7 59.75 142.05 65.35 145.05 71.4 141.5 64.35 147.8 M83.25 117.6 L85.0 123.3 89.05 126.25 83.85 127.1 80.6 119.7 73.1 123.65 81.2 117.85 82.95 116.6 83.25 117.6 M82.1 141.05 L75.65 149.45 84.0 137.8 87.1 138.3 85.6 140.7 82.1 141.05 M105.05 141.0 Q103.7 140.15 103.7 139.1 103.7 138.0 105.05 137.25 106.4 136.45 108.3 136.45 110.2 136.45 111.55 137.25 112.9 138.0 112.9 139.1 112.9 140.15 111.55 141.0 110.2 141.7 108.3 141.75 106.4 141.7 105.05 141.0 M271.05 211.5 Q271.1 211.4 271.2 211.4 273.85 209.1 277.1 207.9 L275.1 211.05 268.7 214.0 Q269.7 212.65 271.05 211.5 M264.5 224.4 L264.6 224.0 265.35 221.4 266.05 219.05 266.7 217.4 Q267.4 215.65 268.55 214.15 L264.6 224.4 264.5 224.4 M265.6 210.7 L263.1 214.95 260.85 211.75 255.85 216.55 257.85 192.55 258.35 210.55 263.6 207.2 265.6 210.7 M197.15 319.4 L202.4 317.6 Q191.95 326.3 178.3 327.3 L176.0 327.45 192.1 317.0 197.15 319.4 M226.85 395.3 L227.2 395.65 230.85 400.3 242.7 399.9 228.5 401.75 225.6 398.0 224.6 402.85 224.75 396.8 226.85 395.3 M296.2 389.65 L296.65 389.65 298.85 394.0 304.75 392.55 310.05 397.65 302.75 394.0 297.95 396.2 296.2 389.65 M288.85 417.1 L291.7 421.8 301.85 420.05 303.35 416.55 305.6 422.95 289.1 423.55 288.0 419.15 286.35 420.55 288.85 417.1 M299.85 438.15 L306.15 438.9 296.95 442.05 299.85 438.15 M277.3 414.1 L282.75 408.75 276.6 419.0 277.3 414.1 M268.35 413.5 L272.35 420.05 267.25 415.85 268.35 413.5 M182.8 510.05 Q182.8 509.05 183.3 508.35 183.8 507.65 184.5 507.65 185.2 507.65 185.7 508.35 186.2 509.05 186.2 510.05 186.2 511.05 185.7 511.75 185.2 512.45 184.5 512.45 183.8 512.45 183.3 511.75 182.8 511.05 182.8 510.05 M165.5 582.65 L162.7 578.55 148.0 584.4 149.3 581.85 164.5 576.05 166.4 579.4 176.2 576.4 165.5 582.65 M257.85 537.4 L267.2 537.25 256.65 540.75 257.85 537.4 M279.7 547.85 L280.55 549.7 287.4 552.25 284.4 554.6 275.0 548.4 275.2 546.2 279.7 547.85 M46.55 515.75 L37.55 515.2 37.3 512.85 24.5 522.65 39.1 510.2 39.4 514.25 47.95 513.55 46.55 515.75 M26.85 588.05 L15.95 578.95 20.55 577.15 26.85 588.05 M102.3 527.9 L109.1 517.45 110.8 521.35 117.7 520.45 Q113.0 523.15 108.25 525.9 L107.1 522.1 102.3 527.9 M22.9 648.5 Q22.9 649.45 21.75 650.25 20.55 650.9 18.85 650.95 17.15 650.9 16.0 650.25 14.8 649.45 14.8 648.5 14.8 647.45 16.0 646.8 17.15 646.05 18.85 646.05 20.55 646.05 21.75 646.8 22.9 647.45 22.9 648.5 M176.25 710.8 L170.55 716.5 163.1 717.45 165.95 712.0 172.45 712.5 175.9 710.3 176.25 710.8 M270.55 649.85 L274.45 648.9 280.9 649.35 279.95 650.85 269.05 651.85 266.55 647.15 258.05 655.35 267.55 645.1 270.55 649.85 M180.25 607.35 L183.7 615.15 191.7 619.15 184.3 619.35 179.45 610.5 173.15 610.85 180.25 607.35" fill="#7cf900" fill-rule="evenodd" stroke="none"/>
    <path d="M209.4 234.45 L196.85 231.85 190.8 222.55 185.05 224.5 181.05 214.15 192.2 205.6 194.1 206.8 195.65 209.65 198.35 209.4 Q201.6 209.2 204.6 209.5 214.45 210.45 221.6 216.35 225.6 219.6 228.75 224.4 L230.3 226.85 215.2 234.35 209.4 234.45 M247.75 179.4 L266.35 177.85 260.5 168.45 265.45 165.35 265.95 158.1 273.85 155.65 Q274.9 158.5 275.3 161.4 276.15 167.55 274.05 173.6 273.4 175.45 271.7 176.7 260.7 184.15 247.75 179.4 M324.55 220.1 L324.55 249.5 320.85 248.7 318.9 257.6 271.6 253.6 264.9 260.5 263.7 260.75 261.0 259.75 247.55 238.65 252.4 240.4 Q258.25 242.25 264.25 243.4 L264.6 243.45 Q270.95 244.55 277.45 244.85 283.1 245.05 288.6 244.65 L291.6 244.35 297.75 243.4 Q303.5 242.25 309.1 240.4 L310.55 239.9 311.0 239.75 318.35 236.85 316.2 225.8 324.55 220.1 M192.55 125.0 L176.95 118.55 173.95 113.95 164.75 113.5 163.35 106.35 181.25 106.65 184.5 112.25 192.3 111.95 Q202.55 109.45 208.35 100.95 L217.55 102.55 219.65 109.15 213.55 115.05 213.7 119.7 201.0 120.35 195.8 124.15 192.55 125.0 M136.8 15.75 L141.05 18.2 139.2 29.05 Q130.55 31.25 121.6 30.35 114.7 29.35 109.25 25.0 L134.3 20.0 136.8 15.75 M13.4 146.85 Q53.75 151.95 83.6 180.15 L88.2 179.2 87.3 151.05 Q90.0 149.25 92.85 147.7 103.1 141.95 114.85 143.65 L122.9 139.1 127.05 139.75 128.1 142.7 114.15 154.9 97.5 154.5 93.45 157.85 Q95.3 171.1 106.05 178.8 L104.4 182.55 101.35 184.55 Q82.95 197.4 61.1 192.2 L41.7 177.0 Q41.7 170.65 35.3 166.15 28.85 161.65 19.75 161.65 L13.4 146.85 M190.25 346.4 L172.35 335.4 171.7 334.85 169.9 333.65 172.6 329.7 179.45 330.45 Q199.75 331.45 214.8 317.65 L222.8 324.75 208.55 339.7 199.45 338.8 191.05 346.45 190.25 346.4 M328.75 416.95 L330.95 419.75 340.2 420.95 340.25 427.55 332.75 430.6 332.65 437.85 322.1 438.15 Q323.0 441.75 322.35 445.55 321.85 448.7 320.2 451.7 317.05 457.3 310.8 459.15 L306.7 458.1 Q304.7 459.7 302.5 460.65 299.65 461.9 296.5 462.1 288.25 462.45 282.55 456.2 L266.8 455.05 268.9 439.95 259.1 436.6 254.9 430.0 248.9 428.7 244.15 422.15 237.05 427.85 230.75 428.1 226.65 421.95 210.1 420.9 207.5 416.9 209.95 414.45 209.0 411.45 223.2 405.8 Q232.1 408.85 239.9 414.25 250.15 421.25 260.1 428.9 276.2 441.25 295.7 445.35 304.1 447.15 312.7 446.15 L313.65 432.0 323.8 424.9 324.75 419.45 328.75 416.95 M172.95 530.15 L178.9 521.15 183.65 519.2 191.1 508.8 196.1 509.1 198.05 510.0 Q198.05 518.35 190.7 524.25 183.35 530.1 172.95 530.15 M282.25 574.85 L268.3 566.35 266.45 557.4 254.15 557.95 Q243.65 556.85 234.9 551.1 L234.65 550.95 236.0 543.55 Q243.6 544.65 250.65 546.7 257.6 548.7 264.15 552.4 272.85 557.15 282.05 560.9 L287.85 563.15 Q306.75 569.85 324.85 562.5 L324.1 575.0 309.75 572.75 302.15 576.2 Q292.85 580.05 283.7 575.5 L282.25 574.85 M205.65 571.45 L210.0 574.5 219.35 582.2 195.4 596.1 193.55 583.65 205.65 571.45 M46.85 505.75 L66.7 509.2 69.7 515.8 62.15 520.95 59.8 528.6 55.85 530.85 56.05 517.55 46.85 505.75 M132.6 523.4 L140.0 522.75 135.75 531.1 137.25 543.05 130.05 540.2 125.95 546.0 111.65 543.6 107.9 540.75 106.35 539.75 104.05 538.5 102.0 537.75 Q98.8 536.95 95.35 537.6 L92.95 538.05 91.2 535.1 Q93.4 533.8 95.75 532.75 100.25 530.7 104.95 531.5 L106.35 531.8 Q109.05 532.5 111.45 533.85 L125.2 531.85 126.8 529.95 129.2 529.2 132.6 523.4 M211.0 629.9 Q205.6 637.2 198.45 640.2 191.1 643.25 181.95 641.75 177.7 641.05 173.05 639.4 L171.1 638.75 154.4 613.35 Q130.4 626.0 108.0 614.3 102.4 611.35 98.8 606.0 L101.45 592.55 90.8 589.1 Q135.65 582.35 190.75 626.85 L193.45 626.05 Q202.8 623.65 210.8 629.05 L211.0 629.9 M74.75 593.3 L71.5 602.0 45.65 611.1 Q59.55 599.05 74.75 593.3 M31.2 627.55 L53.05 647.75 40.6 656.15 46.1 657.05 49.9 660.8 49.85 669.4 Q46.55 671.1 43.1 671.9 23.15 677.0 4.75 667.7 L7.25 655.35 Q31.15 657.55 31.2 627.55 M158.75 724.0 Q165.35 715.6 175.5 719.0 L177.95 719.9 172.25 729.15 162.85 728.7 158.75 724.0 M250.3 662.0 Q262.75 654.5 277.2 655.9 L280.65 656.5 285.7 651.8 288.85 655.8 277.25 670.2 250.25 662.3 250.3 662.0" fill="#336600" fill-rule="evenodd" stroke="none"/>
    <path d="M284.0 274.85 L300.05 275.05 300.05 332.65 300.05 371.95 284.3 372.05 284.05 282.0 287.1 284.95 297.1 285.75 294.45 284.25 288.55 284.6 284.05 281.75 284.0 274.85 M288.3 313.8 L299.05 317.8 286.3 312.3 284.85 313.8 286.65 315.75 288.3 313.8 M285.5 297.1 L287.55 298.55 298.65 299.3 285.5 297.1 M300.05 332.65 L296.4 330.25 284.55 331.65 300.05 332.65 M289.3 346.25 L291.65 344.3 297.2 345.15 287.75 343.05 289.3 346.25 M285.95 360.8 L299.7 360.65 288.35 358.0 285.95 360.8 M245.95 450.1 L242.3 450.75 238.1 450.55 235.05 450.75 233.3 451.0 228.25 451.25 219.55 451.75 211.1 451.25 208.85 451.05 Q205.7 450.45 203.5 448.25 L204.05 447.3 204.25 446.5 213.8 445.15 219.6 445.35 222.05 445.9 Q225.1 446.3 227.95 446.0 L236.55 446.05 245.0 446.8 Q245.55 446.8 245.95 447.35 L246.4 448.6 Q246.5 449.6 245.95 450.1 M175.65 443.15 Q176.4 443.7 176.95 444.5 177.25 445.0 177.2 445.6 L176.9 446.85 176.95 447.7 176.8 453.6 176.4 454.8 Q175.3 456.95 174.8 459.15 L174.15 460.8 173.9 461.15 Q172.65 462.7 170.5 462.3 169.6 461.9 169.45 460.8 L168.8 455.3 Q168.25 450.15 169.9 445.55 L169.3 444.25 Q171.25 442.25 174.15 442.5 174.85 442.6 175.65 443.15 M178.8 477.1 L174.65 477.35 171.5 476.75 171.05 476.6 168.5 475.95 165.8 475.35 Q164.4 474.75 163.8 473.5 163.35 472.55 163.8 471.75 L169.2 471.2 Q171.25 470.7 173.0 469.3 176.15 469.55 178.9 470.3 183.0 471.1 187.25 470.5 193.45 469.75 199.15 471.6 L200.5 472.35 201.0 472.85 198.0 474.9 198.15 476.2 197.2 476.75 194.5 477.35 191.75 477.1 187.55 476.35 181.2 476.55 178.8 477.1 M215.45 456.2 Q216.1 456.7 216.55 457.5 L216.9 458.75 216.95 460.45 216.95 461.05 Q215.8 462.35 216.05 464.05 216.8 468.8 215.75 473.4 L215.05 474.35 Q214.4 474.85 213.65 475.05 L212.25 475.1 211.65 474.9 Q210.5 474.7 209.55 474.0 208.1 473.0 207.55 471.2 206.6 468.2 207.5 465.15 208.1 463.05 208.15 460.85 L208.05 457.0 Q209.8 455.75 211.85 455.5 L213.65 455.4 Q214.7 455.6 215.45 456.2 M214.65 480.6 L216.1 482.0 Q217.0 482.85 217.4 484.15 L217.55 485.55 217.35 486.25 Q216.8 487.4 216.65 488.7 216.45 490.4 216.55 492.1 L216.85 494.9 216.9 496.0 Q216.8 497.1 216.3 498.15 L215.7 498.9 212.95 500.2 210.05 501.05 Q209.2 500.85 208.75 500.1 208.15 499.15 208.0 498.05 L207.9 496.0 208.0 494.65 208.6 490.65 Q208.95 488.8 208.65 486.8 L208.2 485.25 Q207.6 483.8 208.05 481.5 210.35 480.55 212.95 480.5 L214.65 480.6 M103.95 474.4 L103.7 472.55 Q106.2 471.45 108.95 470.7 L111.55 470.35 Q116.2 471.05 120.65 470.2 L126.3 470.5 129.55 470.85 132.05 471.35 134.85 470.75 139.4 470.75 Q140.45 470.9 141.2 471.65 L141.75 472.6 141.8 472.95 Q141.55 474.2 140.25 474.4 L137.55 475.1 134.6 475.9 132.5 476.35 Q126.0 476.25 119.45 476.7 L113.7 477.4 110.0 477.2 109.75 477.1 106.35 475.6 103.95 474.4 M157.55 471.6 Q157.9 472.5 157.3 473.15 155.85 474.6 153.95 474.9 152.85 475.15 152.3 476.05 L151.55 476.55 150.35 476.5 147.5 475.3 Q146.45 474.65 145.0 474.25 L148.55 472.0 Q149.75 471.3 151.35 471.0 L153.1 470.5 Q155.5 470.2 157.55 471.6 M123.2 642.1 L125.85 641.5 127.65 641.0 128.7 640.7 Q131.2 639.9 134.2 640.0 L140.25 640.4 140.75 640.4 150.75 640.95 153.7 641.35 155.2 641.75 155.8 642.1 Q158.2 643.85 156.55 646.0 156.25 646.4 155.75 646.4 L146.25 646.6 142.75 646.4 136.75 646.2 129.65 645.85 127.2 645.55 125.2 645.4 Q123.85 645.3 123.4 644.55 L123.2 643.65 123.2 642.1 M96.75 639.9 L99.7 639.5 103.25 638.9 104.7 638.65 107.3 638.95 108.2 639.15 112.2 639.6 113.15 639.8 113.75 640.05 116.2 641.15 Q118.6 642.1 120.7 644.65 120.2 645.45 118.7 645.75 L112.2 646.25 Q108.95 646.1 105.7 646.35 L104.7 646.4 93.7 646.65 90.75 646.45 90.2 646.4 85.75 645.95 85.15 645.75 Q83.6 645.05 81.2 645.15 L78.25 645.35 Q77.95 645.4 77.65 645.6 76.7 646.3 74.7 646.15 70.2 645.7 69.7 641.7 76.3 639.5 83.2 639.35 L86.7 639.65 95.7 640.0 96.75 639.9 M148.25 651.15 Q151.95 650.4 153.6 652.75 L155.0 654.4 Q155.25 654.65 155.1 655.1 154.5 657.35 151.75 657.25 L148.85 656.75 148.1 656.3 146.65 654.7 Q146.05 653.8 146.1 652.15 146.1 650.5 147.75 650.65 L148.25 651.15 M144.25 664.15 Q146.2 662.8 149.7 663.35 L150.3 663.5 Q152.95 664.55 154.05 666.75 L154.7 668.65 Q155.0 670.35 153.8 670.8 L153.4 671.2 Q152.8 673.45 151.65 675.65 L151.35 676.25 150.15 678.65 Q148.8 681.55 146.1 678.85 L145.35 678.1 Q143.15 676.0 143.65 672.15 143.9 670.0 145.0 668.5 L145.3 667.65 Q145.6 665.8 144.25 664.15 M149.15 688.75 L148.75 688.45 Q147.65 688.3 147.55 687.2 L147.4 686.65 Q146.85 684.8 148.5 683.95 149.85 682.8 152.25 683.1 153.4 683.2 154.45 683.95 L155.2 684.35 155.55 684.75 155.9 687.7 Q156.05 688.95 154.75 688.95 154.25 688.95 153.9 689.35 152.65 690.55 150.8 690.0 149.55 689.5 149.15 688.75" fill="#707870" fill-rule="evenodd" stroke="none"/>
    <path d="M112.45 680.2 L110.15 679.2 110.9 696.35 112.45 680.2 M128.7 663.65 L127.5 713.15 104.7 700.15 104.3 677.1 128.7 663.65 M124.3 707.9 L127.2 703.85 123.45 671.7 124.3 707.9" fill="#283848" fill-rule="evenodd" stroke="none"/>
    <path d="M90.6 663.35 L110.8 664.1 91.75 665.9 90.6 663.35 M89.9 682.5 L89.15 700.45 88.65 684.45 89.9 682.5 M112.45 680.2 L110.9 696.35 110.15 679.2 112.45 680.2 M128.7 663.65 L104.3 677.1 104.7 700.15 127.5 713.15 128.7 663.65 M101.8 675.8 L128.7 659.7 74.95 659.7 101.8 675.8 M124.3 707.9 L123.45 671.7 127.2 703.85 124.3 707.9 M97.9 710.7 L116.0 713.45 96.05 713.5 97.9 710.7 M128.2 717.4 L102.3 702.95 75.75 717.25 128.2 717.4 M132.0 657.25 L132.0 720.1 69.15 720.1 69.15 657.25 132.0 657.25 M73.25 715.1 Q86.95 707.75 100.6 700.45 L100.9 679.1 73.35 662.3 73.25 715.1" fill="#283040" fill-rule="evenodd" stroke="none"/>
    <path d="M90.6 663.35 L91.75 665.9 110.8 664.1 90.6 663.35 M101.8 675.8 L74.95 659.7 128.7 659.7 101.8 675.8" fill="#405060" fill-rule="evenodd" stroke="none"/>
    <path d="M89.9 682.5 L88.65 684.45 89.15 700.45 89.9 682.5 M73.25 715.1 L73.35 662.3 100.9 679.1 100.6 700.45 Q86.95 707.75 73.25 715.1" fill="#7898b0" fill-rule="evenodd" stroke="none"/>
    <path d="M97.9 710.7 L96.05 713.5 116.0 713.45 97.9 710.7 M128.2 717.4 L75.75 717.25 102.3 702.95 128.2 717.4" fill="#586870" fill-rule="evenodd" stroke="none"/>
    <path d="M279.5 274.6 L279.45 274.6 279.5 274.65 266.55 274.55 266.55 283.1 266.55 330.0 266.55 330.55 266.5 372.0 281.45 372.05 284.3 372.05 300.05 371.95 300.05 332.65 300.05 275.05 284.0 274.85 282.45 274.85 281.7 274.8 279.5 274.6 M302.7 271.8 L302.7 374.8 263.7 374.8 263.7 271.8 302.7 271.8" fill="#333333" fill-rule="evenodd" stroke="none"/>
    <path d="M279.5 274.6 L281.7 274.8 281.7 274.85 281.45 372.05 266.5 372.0 266.55 330.55 270.05 331.15 272.1 333.1 276.75 330.8 280.05 331.65 275.4 329.6 270.3 331.1 266.55 330.0 266.55 283.1 266.55 274.55 279.5 274.65 279.5 274.6 M266.55 283.1 L273.8 285.6 280.15 282.95 266.55 283.1 M267.3 298.1 L274.1 301.7 276.95 300.65 267.3 298.1 M275.25 315.8 L279.9 313.15 278.0 311.55 267.05 314.55 275.25 315.8 M277.8 344.85 L270.5 345.55 277.3 348.4 279.9 346.3 277.8 344.85 M273.3 364.45 L280.05 359.9 278.1 358.85 272.3 362.9 270.05 361.55 267.75 362.15 273.3 364.45" fill="#b0a8a8" fill-rule="evenodd" stroke="none"/>
    <path d="M266.55 330.55 L266.55 330.0 270.3 331.1 275.4 329.6 280.05 331.65 276.75 330.8 272.1 333.1 270.05 331.15 266.55 330.55 M266.55 283.1 L280.15 282.95 273.8 285.6 266.55 283.1 M284.05 281.75 L288.55 284.6 294.45 284.25 297.1 285.75 287.1 284.95 284.05 282.0 284.05 281.75 M285.5 297.1 L298.65 299.3 287.55 298.55 285.5 297.1 M288.3 313.8 L286.65 315.75 284.85 313.8 286.3 312.3 299.05 317.8 288.3 313.8 M300.05 332.65 L284.55 331.65 296.4 330.25 300.05 332.65 M289.3 346.25 L287.75 343.05 297.2 345.15 291.65 344.3 289.3 346.25 M275.25 315.8 L267.05 314.55 278.0 311.55 279.9 313.15 275.25 315.8 M267.3 298.1 L276.95 300.65 274.1 301.7 267.3 298.1 M273.3 364.45 L267.75 362.15 270.05 361.55 272.3 362.9 278.1 358.85 280.05 359.9 273.3 364.45 M277.8 344.85 L279.9 346.3 277.3 348.4 270.5 345.55 277.8 344.85 M285.95 360.8 L288.35 358.0 299.7 360.65 285.95 360.8" fill="#706860" fill-rule="evenodd" stroke="none"/>
    <path d="M282.45 274.85 L284.0 274.85 284.05 281.75 284.05 282.0 284.3 372.05 281.45 372.05 281.7 274.85 282.45 274.85" fill="#b8b8b8" fill-rule="evenodd" stroke="none"/>
    <path d="M130.65 227.6 L103.8 211.5 157.55 211.5 130.65 227.6 M120.85 214.8 L120.6 217.7 139.65 216.0 120.85 214.8" fill="#986090" fill-rule="evenodd" stroke="none"/>
    <path d="M157.55 215.45 L133.15 228.9 133.55 251.95 156.35 265.0 157.55 215.45 M141.3 232.0 L139.75 248.15 139.0 231.0 141.3 232.0 M130.65 227.6 L157.55 211.5 103.8 211.5 130.65 227.6 M118.75 234.3 L118.0 252.25 117.5 236.25 118.75 234.3 M120.85 214.8 L139.65 216.0 120.6 217.7 120.85 214.8 M124.9 265.35 L126.75 262.55 144.85 265.3 124.9 265.35 M153.15 259.7 L152.3 223.5 156.05 255.65 153.15 259.7 M157.05 269.25 L131.15 254.75 104.6 269.1 157.05 269.25 M129.75 230.9 L102.2 214.1 102.1 266.95 129.45 252.25 129.75 230.9 M160.85 209.05 L160.85 271.95 98.0 271.95 98.0 209.05 160.85 209.05" fill="#502000" fill-rule="evenodd" stroke="none"/>
    <path d="M157.55 215.45 L156.35 265.0 133.55 251.95 133.15 228.9 157.55 215.45 M141.3 232.0 L139.0 231.0 139.75 248.15 141.3 232.0 M153.15 259.7 L156.05 255.65 152.3 223.5 153.15 259.7" fill="#652e0e" fill-rule="evenodd" stroke="none"/>
    <path d="M118.75 234.3 L117.5 236.25 118.0 252.25 118.75 234.3 M129.75 230.9 L129.45 252.25 102.1 266.95 102.2 214.1 129.75 230.9" fill="#b880b8" fill-rule="evenodd" stroke="none"/>
    <path d="M124.9 265.35 L144.85 265.3 126.75 262.55 124.9 265.35 M157.05 269.25 L104.6 269.1 131.15 254.75 157.05 269.25" fill="#705000" fill-rule="evenodd" stroke="none"/>
    <path d="M245.95 450.1 L242.3 450.75 238.1 450.55 235.05 450.75 233.3 451.0 228.25 451.25 219.55 451.75 211.1 451.25 208.85 451.05 Q205.7 450.45 203.5 448.25 L204.05 447.3 204.25 446.5 213.8 445.15 219.6 445.35 222.05 445.9 Q225.1 446.3 227.95 446.0 L236.55 446.05 245.0 446.8 Q245.55 446.8 245.95 447.35 L246.4 448.6 Q246.5 449.6 245.95 450.1 M175.65 443.15 Q176.4 443.7 176.95 444.5 177.25 445.0 177.2 445.6 L176.9 446.85 176.95 447.7 176.8 453.6 176.4 454.8 Q175.3 456.95 174.8 459.15 L174.15 460.8 173.9 461.15 Q172.65 462.7 170.5 462.3 169.6 461.9 169.45 460.8 L168.8 455.3 Q168.25 450.15 169.9 445.55 L169.3 444.25 Q171.25 442.25 174.15 442.5 174.85 442.6 175.65 443.15 M178.8 477.1 L174.65 477.35 171.5 476.75 171.05 476.6 168.5 475.95 165.8 475.35 Q164.4 474.75 163.8 473.5 163.35 472.55 163.8 471.75 L169.2 471.2 Q171.25 470.7 173.0 469.3 176.15 469.55 178.9 470.3 183.0 471.1 187.25 470.5 193.45 469.75 199.15 471.6 L200.5 472.35 201.0 472.85 198.0 474.9 198.15 476.2 197.2 476.75 194.5 477.35 191.75 477.1 187.55 476.35 181.2 476.55 178.8 477.1 M215.45 456.2 Q216.1 456.7 216.55 457.5 L216.9 458.75 216.95 460.45 216.95 461.05 Q215.8 462.35 216.05 464.05 216.8 468.8 215.75 473.4 L215.05 474.35 Q214.4 474.85 213.65 475.05 L212.25 475.1 211.65 474.9 Q210.5 474.7 209.55 474.0 208.1 473.0 207.55 471.2 206.6 468.2 207.5 465.15 208.1 463.05 208.15 460.85 L208.05 457.0 Q209.8 455.75 211.85 455.5 L213.65 455.4 Q214.7 455.6 215.45 456.2 M214.65 480.6 L216.1 482.0 Q217.0 482.85 217.4 484.15 L217.55 485.55 217.35 486.25 Q216.8 487.4 216.65 488.7 216.45 490.4 216.55 492.1 L216.85 494.9 216.9 496.0 Q216.8 497.1 216.3 498.15 L215.7 498.9 212.95 500.2 210.05 501.05 Q209.2 500.85 208.75 500.1 208.15 499.15 208.0 498.05 L207.9 496.0 208.0 494.65 208.6 490.65 Q208.95 488.8 208.65 486.8 L208.2 485.25 Q207.6 483.8 208.05 481.5 210.35 480.55 212.95 480.5 L214.65 480.6 M103.95 474.4 L103.7 472.55 Q106.2 471.45 108.95 470.7 L111.55 470.35 Q116.2 471.05 120.65 470.2 L126.3 470.5 129.55 470.85 132.05 471.35 134.85 470.75 139.4 470.75 Q140.45 470.9 141.2 471.65 L141.75 472.6 141.8 472.95 Q141.55 474.2 140.25 474.4 L137.55 475.1 134.6 475.9 132.5 476.35 Q126.0 476.25 119.45 476.7 L113.7 477.4 110.0 477.2 109.75 477.1 106.35 475.6 103.95 474.4 M157.55 471.6 Q157.9 472.5 157.3 473.15 155.85 474.6 153.95 474.9 152.85 475.15 152.3 476.05 L151.55 476.55 150.35 476.5 147.5 475.3 Q146.45 474.65 145.0 474.25 L148.55 472.0 Q149.75 471.3 151.35 471.0 L153.1 470.5 Q155.5 470.2 157.55 471.6 M123.2 642.1 L122.7 642.15 M123.2 642.1 L125.85 641.5 127.65 641.0 128.7 640.7 Q131.2 639.9 134.2 640.0 L140.25 640.4 140.75 640.4 150.75 640.95 153.7 641.35 155.2 641.75 155.8 642.1 Q158.2 643.85 156.55 646.0 156.25 646.4 155.75 646.4 L146.25 646.6 142.75 646.4 136.75 646.2 129.65 645.85 127.2 645.55 125.2 645.4 Q123.85 645.3 123.4 644.55 L123.2 643.65 123.2 642.1 M96.75 639.9 L99.7 639.5 103.25 638.9 104.7 638.65 107.3 638.95 108.2 639.15 112.2 639.6 113.15 639.8 113.75 640.05 116.2 641.15 Q118.6 642.1 120.7 644.65 120.2 645.45 118.7 645.75 L112.2 646.25 Q108.95 646.1 105.7 646.35 L104.7 646.4 93.7 646.65 90.75 646.45 90.2 646.4 85.75 645.95 85.15 645.75 Q83.6 645.05 81.2 645.15 L78.25 645.35 Q77.95 645.4 77.65 645.6 76.7 646.3 74.7 646.15 70.2 645.7 69.7 641.7 76.3 639.5 83.2 639.35 L86.7 639.65 95.7 640.0 96.75 639.9 M148.25 651.15 Q151.95 650.4 153.6 652.75 L155.0 654.4 Q155.25 654.65 155.1 655.1 154.5 657.35 151.75 657.25 L148.85 656.75 148.1 656.3 146.65 654.7 Q146.05 653.8 146.1 652.15 146.1 650.5 147.75 650.65 M144.25 664.15 Q146.2 662.8 149.7 663.35 L150.3 663.5 Q152.95 664.55 154.05 666.75 L154.7 668.65 Q155.0 670.35 153.8 670.8 L153.4 671.2 Q152.8 673.45 151.65 675.65 L151.35 676.25 150.15 678.65 Q148.8 681.55 146.1 678.85 L145.35 678.1 Q143.15 676.0 143.65 672.15 143.9 670.0 145.0 668.5 L145.3 667.65 Q145.6 665.8 144.25 664.15 M149.15 688.75 L148.75 688.45 Q147.65 688.3 147.55 687.2 L147.4 686.65 Q146.85 684.8 148.5 683.95 149.85 682.8 152.25 683.1 153.4 683.2 154.45 683.95 L155.2 684.35 155.55 684.75 155.9 687.7 Q156.05 688.95 154.75 688.95 154.25 688.95 153.9 689.35 152.65 690.55 150.8 690.0 149.55 689.5 149.15 688.75 Z" fill="none" stroke="#101010" stroke-linecap="round" stroke-linejoin="round" stroke-width="2.0"/>
  </g>
</svg>
