<?xml version="1.0" encoding="UTF-8" standalone="no"?>
<svg xmlns:ffdec="https://www.free-decompiler.com/flash" xmlns:xlink="http://www.w3.org/1999/xlink" ffdec:objectType="shape" height="37.05px" width="37.0px" xmlns="http://www.w3.org/2000/svg">
  <g transform="matrix(1.0, 0.0, 0.0, 1.0, 18.45, 18.5)">
    <path d="M2.2 -7.15 L4.45 -7.15 4.45 -5.25 5.2 -5.25 5.2 -2.2 3.6 -2.2 -3.15 -2.2 -4.55 -2.2 -4.55 -5.1 -4.55 -7.15 -2.4 -7.15 -2.4 -4.85 2.2 -4.85 2.2 -7.15" fill="#989898" fill-rule="evenodd" stroke="none"/>
    <path d="M-4.55 -5.1 L-4.55 -2.2 -3.15 -2.2 -3.15 0.05 -5.9 0.05 -5.9 -5.1 -4.55 -5.1 M3.6 -2.2 L5.2 -2.2 5.2 -5.25 6.1 -5.25 6.1 -0.65 3.6 -0.65 3.6 -2.2 M9.0 2.45 L9.0 6.3 6.1 6.3 6.1 2.45 9.0 2.45 M-8.9 3.05 L-5.9 3.05 -5.9 6.25 -8.9 6.2 -8.9 3.05" fill="#687070" fill-rule="evenodd" stroke="none"/>
    <path d="M8.95 15.65 L6.1 17.0 6.1 8.95 9.0 8.95 8.95 15.65 M2.2 -7.15 L2.2 -4.85 -2.4 -4.85 -2.4 -7.15 2.2 -7.15 M6.1 -5.25 L9.0 -5.25 9.0 -0.65 6.1 -0.65 6.1 -5.25 M3.6 -0.65 L6.1 -0.65 6.1 2.45 3.6 2.45 3.6 0.9 3.6 -0.65 M-3.15 0.9 L-3.15 3.05 -5.9 3.05 -5.9 0.05 -8.9 0.05 -8.9 -5.1 -5.9 -5.1 -5.9 0.05 -3.15 0.05 -3.15 0.9 M-5.9 17.05 Q-7.45 15.7 -8.9 15.65 L-8.9 8.7 -5.9 8.85 -5.9 17.05" fill="#101010" fill-rule="evenodd" stroke="none"/>
    <path d="M6.1 17.0 L6.1 17.55 1.7 18.05 0.5 18.05 Q3.5 17.95 6.1 17.0 3.5 17.95 0.5 18.05 L-0.1 18.0 Q-2.8 17.75 -5.15 16.8 -5.55 16.6 -5.9 17.05 L-5.9 8.85 -3.15 8.95 -3.15 14.45 Q0.6 17.15 3.6 14.7 L3.6 8.95 6.1 8.95 6.1 6.3 3.6 6.3 3.6 4.05 3.6 2.45 6.1 2.45 6.1 -0.65 9.0 -0.65 9.0 2.45 6.1 2.45 6.1 6.3 9.0 6.3 9.0 8.95 6.1 8.95 6.1 17.0 M-3.15 3.05 L-3.15 4.05 -3.15 6.3 -5.9 6.25 -5.9 3.05 -8.9 3.05 -8.9 0.05 -5.9 0.05 -5.9 3.05 -3.15 3.05 M-8.9 6.2 L-5.9 6.25 -5.9 8.85 -8.9 8.7 -8.9 6.2" fill="#384048" fill-rule="evenodd" stroke="none"/>
    <path d="M3.6 8.95 L3.6 6.3 6.1 6.3 6.1 8.95 3.6 8.95 M-3.15 8.95 L-5.9 8.85 -5.9 6.25 -3.15 6.3 -3.15 8.95" fill="#250202" fill-rule="evenodd" stroke="none"/>
    <path d="M-3.15 -2.2 L3.6 -2.2 3.6 -0.65 3.6 0.9 -3.15 0.9 -3.15 0.05 -3.15 -2.2" fill="url(#gradient0)" fill-rule="evenodd" stroke="none"/>
    <path d="M3.6 0.9 L3.6 2.45 3.6 4.05 -3.15 4.05 -3.15 3.05 -3.15 0.9 3.6 0.9" fill="url(#gradient1)" fill-rule="evenodd" stroke="none"/>
    <path d="M3.6 6.3 L3.6 8.95 -3.15 8.95 -3.15 6.3 3.6 6.3" fill="url(#gradient2)" fill-rule="evenodd" stroke="none"/>
    <path d="M-3.15 4.05 L3.6 4.05 3.6 6.3 -3.15 6.3 -3.15 4.05" fill="url(#gradient3)" fill-rule="evenodd" stroke="none"/>
    <path d="M3.6 8.95 L3.6 14.7 Q0.6 17.15 -3.15 14.45 L-3.15 8.95 3.6 8.95" fill="url(#gradient4)" fill-rule="evenodd" stroke="none"/>
    <path d="M-8.9 15.7 Q-10.9 14.5 -12.65 12.7 -18.0 7.4 -17.95 -0.1 -18.0 -7.35 -12.65 -12.65 -10.9 -14.45 -8.95 -15.6 L-8.9 -15.6 -8.9 -5.1 -8.9 0.05 -8.9 3.05 -8.9 6.2 -8.9 8.7 -8.9 15.65 -8.9 15.7" fill="url(#gradient5)" fill-rule="evenodd" stroke="none"/>
    <path d="M9.0 -15.6 Q10.95 -14.4 12.7 -12.65 18.0 -7.35 18.05 -0.1 18.0 7.4 12.7 12.7 L8.95 15.65 9.0 8.95 9.0 6.3 9.0 2.45 9.0 -0.65 9.0 -5.25 9.0 -15.6" fill="url(#gradient6)" fill-rule="evenodd" stroke="none"/>
    <path d="M1.1 -17.95 Q4.6 -17.75 7.65 -16.3 L9.0 -15.6 9.0 -5.25 6.1 -5.25 5.2 -5.25 4.45 -5.25 4.45 -7.15 2.2 -7.15 -2.4 -7.15 -4.55 -7.15 -4.55 -5.1 -5.9 -5.1 -8.9 -5.1 -8.9 -15.6 -8.35 -15.9 -7.85 -16.0 -7.1 -16.15 -6.15 -16.25 -5.15 -16.65 Q-2.25 -17.85 1.1 -17.95 M4.0 -15.0 L-4.0 -15.0 4.0 -15.0 M4.0 -12.0 L-4.0 -12.0 4.0 -12.0" fill="url(#gradient7)" fill-rule="evenodd" stroke="none"/>
    <path d="M1.1 -17.95 Q4.6 -17.75 7.65 -16.3 L9.0 -15.6 Q10.95 -14.4 12.7 -12.65 18.0 -7.35 18.05 -0.1 18.0 7.4 12.7 12.7 L8.95 15.65 6.1 17.0 Q3.5 17.95 0.5 18.05 L-0.1 18.05 Q-3.15 18.0 -5.9 17.1 L-8.9 15.7 Q-10.9 14.5 -12.65 12.7 -18.0 7.4 -17.95 -0.1 -18.0 -7.35 -12.65 -12.65 -10.9 -14.45 -8.95 -15.6 L-8.9 -15.6 -8.35 -15.9 -7.75 -16.25 -7.65 -16.3 Q-4.2 -18.0 -0.1 -17.95 L1.1 -17.95 M5.2 -5.25 L4.45 -5.25 4.45 -7.15 2.2 -7.15 2.2 -4.85 -2.4 -4.85 -2.4 -7.15 -4.55 -7.15 -4.55 -5.1 -4.55 -2.2 -3.15 -2.2 3.6 -2.2 5.2 -2.2 5.2 -5.25 6.1 -5.25 9.0 -5.25 9.0 -15.6 M3.6 -2.2 L3.6 -0.65 6.1 -0.65 6.1 -5.25 M9.0 -0.65 L9.0 -5.25 M6.1 -0.65 L9.0 -0.65 9.0 2.45 9.0 6.3 9.0 8.95 8.95 15.65 M6.1 2.45 L9.0 2.45 M3.6 2.45 L3.6 0.9 -3.15 0.9 -3.15 3.05 -3.15 4.05 3.6 4.05 3.6 2.45 6.1 2.45 6.1 -0.65 M3.6 6.3 L3.6 8.95 6.1 8.95 6.1 6.3 3.6 6.3 3.6 4.05 M6.1 8.95 L9.0 8.95 M9.0 6.3 L6.1 6.3 6.1 2.45 M3.6 8.95 L3.6 14.7 Q0.6 17.15 -3.15 14.45 L-3.15 8.95 -5.9 8.85 -5.9 17.05 M6.1 8.95 L6.1 17.0 M3.6 -0.65 L3.6 0.9 M-5.9 -5.1 L-4.55 -5.1 M-5.9 -5.1 L-8.9 -5.1 -8.9 0.05 -5.9 0.05 -5.9 -5.1 M-8.9 -15.6 L-8.9 -5.1 M-3.15 0.9 L-3.15 0.05 -5.9 0.05 -5.9 3.05 -3.15 3.05 M-8.9 3.05 L-5.9 3.05 -5.9 6.25 -3.15 6.3 -3.15 4.05 M-8.9 0.05 L-8.9 3.05 -8.9 6.2 -5.9 6.25 -5.9 8.85 -8.9 8.7 -8.9 15.65 M-8.9 6.2 L-8.9 8.7 M-3.15 8.95 L-3.15 6.3 3.6 6.3 M-3.15 0.05 L-3.15 -2.2 M3.6 8.95 L-3.15 8.95 M-4.0 -12.0 L4.0 -12.0 M-4.0 -15.0 L4.0 -15.0 M2.2 -7.15 L-2.4 -7.15" fill="none" stroke="#000000" stroke-linecap="round" stroke-linejoin="round" stroke-width="1.0"/>
  </g>
  <defs>
    <linearGradient gradientTransform="matrix(0.0041, 0.0, 0.0, 0.0019, 0.2, -0.65)" gradientUnits="userSpaceOnUse" id="gradient0" spreadMethod="pad" x1="-819.2" x2="819.2">
      <stop offset="0.0" stop-color="#384048"/>
      <stop offset="1.0" stop-color="#101010"/>
    </linearGradient>
    <linearGradient gradientTransform="matrix(0.0041, 0.0, 0.0, 0.0019, 0.2, 2.45)" gradientUnits="userSpaceOnUse" id="gradient1" spreadMethod="pad" x1="-819.2" x2="819.2">
      <stop offset="0.0" stop-color="#bccbca"/>
      <stop offset="1.0" stop-color="#101010"/>
    </linearGradient>
    <linearGradient gradientTransform="matrix(0.0041, 0.0, 0.0, 0.0016, 0.2, 7.6)" gradientUnits="userSpaceOnUse" id="gradient2" spreadMethod="pad" x1="-819.2" x2="819.2">
      <stop offset="0.0" stop-color="#d8e0d8"/>
      <stop offset="1.0" stop-color="#101010"/>
    </linearGradient>
    <linearGradient gradientTransform="matrix(0.0041, 0.0, 0.0, 0.0014, 0.2, 5.15)" gradientUnits="userSpaceOnUse" id="gradient3" spreadMethod="pad" x1="-819.2" x2="819.2">
      <stop offset="0.0" stop-color="#683010"/>
      <stop offset="1.0" stop-color="#101010"/>
    </linearGradient>
    <linearGradient gradientTransform="matrix(0.0041, 0.0, 0.0, 0.0042, 0.2, 12.4)" gradientUnits="userSpaceOnUse" id="gradient4" spreadMethod="pad" x1="-819.2" x2="819.2">
      <stop offset="0.0" stop-color="#d8e0d8"/>
      <stop offset="1.0" stop-color="#101010"/>
    </linearGradient>
    <linearGradient gradientTransform="matrix(0.0055, 0.0, 0.0, 0.0191, -13.45, 0.05)" gradientUnits="userSpaceOnUse" id="gradient5" spreadMethod="pad" x1="-819.2" x2="819.2">
      <stop offset="0.24705882352941178" stop-color="#90a060"/>
      <stop offset="0.45098039215686275" stop-color="#708080"/>
      <stop offset="0.7450980392156863" stop-color="#a8b8b0"/>
      <stop offset="1.0" stop-color="#182020"/>
    </linearGradient>
    <linearGradient gradientTransform="matrix(-0.0056, 0.0, 0.0, -0.0191, 13.5, 0.05)" gradientUnits="userSpaceOnUse" id="gradient6" spreadMethod="pad" x1="-819.2" x2="819.2">
      <stop offset="0.24705882352941178" stop-color="#90a060"/>
      <stop offset="0.45098039215686275" stop-color="#708080"/>
      <stop offset="0.7450980392156863" stop-color="#a8b8b0"/>
      <stop offset="1.0" stop-color="#182020"/>
    </linearGradient>
    <radialGradient cx="0" cy="0" gradientTransform="matrix(0.0134, 0.0, 0.0, 0.0134, 0.05, -11.5)" gradientUnits="userSpaceOnUse" id="gradient7" r="819.2" spreadMethod="pad">
      <stop offset="0.24705882352941178" stop-color="#90a060"/>
      <stop offset="0.45098039215686275" stop-color="#708080"/>
      <stop offset="0.7450980392156863" stop-color="#a8b8b0"/>
      <stop offset="1.0" stop-color="#182020"/>
    </radialGradient>
  </defs>
</svg>
