<?xml version="1.0" encoding="UTF-8" standalone="no"?>
<svg xmlns:ffdec="https://www.free-decompiler.com/flash" xmlns:xlink="http://www.w3.org/1999/xlink" ffdec:objectType="shape" height="154.3px" width="210.9px" xmlns="http://www.w3.org/2000/svg">
  <g transform="matrix(1.0, 0.0, 0.0, 1.0, 105.45, 77.15)">
    <path d="M103.4 34.45 Q104.15 53.95 84.05 56.8 56.0 60.7 32.75 45.7 22.1 71.5 -5.65 74.65 -49.15 79.45 -61.75 37.0 -90.7 25.0 -100.0 -3.65 -114.55 -48.95 -67.75 -60.8 L-67.15 -62.0 Q-63.1 -70.25 -53.95 -72.05 L-51.7 -72.5 Q-28.0 -79.25 -8.95 -68.75 -4.0 -66.05 -0.25 -62.0 54.8 -79.4 85.55 -36.05 98.45 -17.75 86.75 -0.5 102.65 14.2 103.4 34.45" fill="#e4e4e4" fill-rule="evenodd" stroke="none"/>
    <path d="M103.4 34.45 Q104.15 53.95 84.05 56.8 56.0 60.7 32.75 45.7 22.1 71.5 -5.65 74.65 -49.15 79.45 -61.75 37.0 -90.7 25.0 -100.0 -3.65 -114.55 -48.95 -67.75 -60.8 L-67.15 -62.0 Q-63.1 -70.25 -53.95 -72.05 L-51.7 -72.5 Q-28.0 -79.25 -8.95 -68.75 -4.0 -66.05 -0.25 -62.0 54.8 -79.4 85.55 -36.05 98.45 -17.75 86.75 -0.5 102.65 14.2 103.4 34.45 Z" fill="none" stroke="#43deff" stroke-linecap="round" stroke-linejoin="round" stroke-width="4.0"/>
  </g>
</svg>
