<?xml version="1.0" encoding="UTF-8" standalone="no"?>
<svg xmlns:ffdec="https://www.free-decompiler.com/flash" xmlns:xlink="http://www.w3.org/1999/xlink" ffdec:objectType="shape" height="170.15px" width="247.85px" xmlns="http://www.w3.org/2000/svg">
  <g transform="matrix(1.0, 0.0, 0.0, 1.0, 123.9, 85.05)">
    <path d="M115.55 -16.25 Q115.85 -4.35 107.75 4.75 120.35 13.65 119.95 23.75 125.85 43.25 114.45 59.85 105.45 72.85 89.55 78.25 67.35 85.85 44.55 81.55 31.25 78.95 20.95 70.25 15.45 65.55 12.85 60.35 -8.25 63.45 -29.75 63.35 -55.05 63.15 -77.15 53.95 -81.55 53.65 -87.15 49.75 -94.65 44.55 -102.75 40.25 -131.75 24.55 -116.85 -3.85 -110.75 -15.55 -97.85 -19.15 -91.45 -20.95 -84.75 -19.75 -92.75 -60.65 -51.65 -72.75 -29.35 -79.25 -9.05 -69.85 -0.85 -66.05 4.85 -58.55 5.65 -57.65 6.75 -57.05 27.85 -81.25 61.45 -81.95 L61.45 -82.05 Q82.85 -86.45 94.85 -71.75 L95.25 -71.05 Q114.85 -47.25 115.55 -16.25" fill="#e4e4e4" fill-rule="evenodd" stroke="none"/>
    <path d="M115.55 -16.25 Q115.85 -4.35 107.75 4.75 120.35 13.65 119.95 23.75 125.85 43.25 114.45 59.85 105.45 72.85 89.55 78.25 67.35 85.85 44.55 81.55 31.25 78.95 20.95 70.25 15.45 65.55 12.85 60.35 -8.25 63.45 -29.75 63.35 -55.05 63.15 -77.15 53.95 -81.55 53.65 -87.15 49.75 -94.65 44.55 -102.75 40.25 -131.75 24.55 -116.85 -3.85 -110.75 -15.55 -97.85 -19.15 -91.45 -20.95 -84.75 -19.75 -92.75 -60.65 -51.65 -72.75 -29.35 -79.25 -9.05 -69.85 -0.85 -66.05 4.85 -58.55 5.65 -57.65 6.75 -57.05 27.85 -81.25 61.45 -81.95 L61.45 -82.05 Q82.85 -86.45 94.85 -71.75 L95.25 -71.05 Q114.85 -47.25 115.55 -16.25 Z" fill="none" stroke="#43deff" stroke-linecap="round" stroke-linejoin="round" stroke-width="4.0"/>
  </g>
</svg>
