<?xml version="1.0" encoding="UTF-8" standalone="no"?>
<svg xmlns:ffdec="https://www.free-decompiler.com/flash" xmlns:xlink="http://www.w3.org/1999/xlink" ffdec:objectType="shape" height="173.25px" width="210.75px" xmlns="http://www.w3.org/2000/svg">
  <g transform="matrix(1.0, 0.0, 0.0, 1.0, 105.35, 86.6)">
    <path d="M102.4 -5.2 Q94.4 22.2 63.6 25.2 53.6 26.2 46.6 30.8 46.4 92.8 -18.4 83.4 -56.8 77.8 -76.0 43.4 -93.0 12.6 -91.4 -22.6 -107.0 -33.4 -102.2 -52.4 -100.0 -61.2 -95.0 -68.8 -86.4 -82.4 -71.4 -84.2 -33.0 -87.4 -2.8 -63.6 L-1.4 -62.6 Q67.6 -74.8 100.8 -20.6 105.0 -13.8 102.4 -5.2" fill="#e4e4e4" fill-rule="evenodd" stroke="none"/>
    <path d="M102.4 -5.2 Q94.4 22.2 63.6 25.2 53.6 26.2 46.6 30.8 46.4 92.8 -18.4 83.4 -56.8 77.8 -76.0 43.4 -93.0 12.6 -91.4 -22.6 -107.0 -33.4 -102.2 -52.4 -100.0 -61.2 -95.0 -68.8 -86.4 -82.4 -71.4 -84.2 -33.0 -87.4 -2.8 -63.6 L-1.4 -62.6 Q67.6 -74.8 100.8 -20.6 105.0 -13.8 102.4 -5.2 Z" fill="none" stroke="#43deff" stroke-linecap="round" stroke-linejoin="round" stroke-width="4.0"/>
  </g>
</svg>
