<?xml version="1.0" encoding="UTF-8" standalone="no"?>
<svg xmlns:ffdec="https://www.free-decompiler.com/flash" xmlns:xlink="http://www.w3.org/1999/xlink" ffdec:objectType="shape" height="107.1px" width="186.35px" xmlns="http://www.w3.org/2000/svg">
  <g transform="matrix(1.0, 0.0, 0.0, 1.0, 93.15, 53.55)">
    <path d="M91.1 -4.45 Q92.9 20.65 65.8 23.05 63.3 23.25 61.0 24.25 43.3 55.65 4.2 50.95 -6.7 49.65 -15.5 42.85 -21.8 38.05 -27.5 32.75 -58.9 35.45 -82.0 15.05 -97.8 0.95 -86.3 -15.85 -82.0 -22.15 -74.0 -23.05 -65.0 -40.45 -47.3 -48.55 -42.1 -50.95 -37.0 -51.55 -13.1 -50.15 1.3 -29.55 L2.0 -28.75 Q46.4 -39.55 83.8 -16.45 90.5 -12.35 91.1 -4.45" fill="#e4e4e4" fill-rule="evenodd" stroke="none"/>
    <path d="M91.1 -4.45 Q92.9 20.65 65.8 23.05 63.3 23.25 61.0 24.25 43.3 55.65 4.2 50.95 -6.7 49.65 -15.5 42.85 -21.8 38.05 -27.5 32.75 -58.9 35.45 -82.0 15.05 -97.8 0.95 -86.3 -15.85 -82.0 -22.15 -74.0 -23.05 -65.0 -40.45 -47.3 -48.55 -42.1 -50.95 -37.0 -51.55 -13.1 -50.15 1.3 -29.55 L2.0 -28.75 Q46.4 -39.55 83.8 -16.45 90.5 -12.35 91.1 -4.45 Z" fill="none" stroke="#43deff" stroke-linecap="round" stroke-linejoin="round" stroke-width="4.0"/>
  </g>
</svg>
