<?xml version="1.0" encoding="UTF-8" standalone="no"?>
<svg xmlns:ffdec="https://www.free-decompiler.com/flash" xmlns:xlink="http://www.w3.org/1999/xlink" ffdec:objectType="shape" height="129.15px" width="245.65px" xmlns="http://www.w3.org/2000/svg">
  <g transform="matrix(1.0, 0.0, 0.0, 1.0, 122.8, 64.55)">
    <path d="M109.2 -42.5 Q121.8 -32.25 120.8 -16.25 119.7 2.65 102.3 11.0 106.55 57.65 57.7 62.15 16.7 65.9 -14.95 39.5 -60.05 67.25 -101.45 36.25 -126.8 17.15 -118.95 -9.6 -118.05 -12.6 -116.55 -16.0 -102.3 -48.5 -69.2 -44.0 -65.7 -43.5 -62.55 -41.25 -56.45 -36.85 -49.95 -33.1 -35.45 -48.35 -14.95 -53.5 9.05 -59.5 33.2 -60.6 76.7 -68.85 109.2 -42.5" fill="#e4e4e4" fill-rule="evenodd" stroke="none"/>
    <path d="M109.2 -42.5 Q121.8 -32.25 120.8 -16.25 119.7 2.65 102.3 11.0 106.55 57.65 57.7 62.15 16.7 65.9 -14.95 39.5 -60.05 67.25 -101.45 36.25 -126.8 17.15 -118.95 -9.6 -118.05 -12.6 -116.55 -16.0 -102.3 -48.5 -69.2 -44.0 -65.7 -43.5 -62.55 -41.25 -56.45 -36.85 -49.95 -33.1 -35.45 -48.35 -14.95 -53.5 9.05 -59.5 33.2 -60.6 76.7 -68.85 109.2 -42.5 Z" fill="none" stroke="#43deff" stroke-linecap="round" stroke-linejoin="round" stroke-width="4.0"/>
  </g>
</svg>
