<?xml version="1.0" encoding="UTF-8" standalone="no"?>
<svg xmlns:ffdec="https://www.free-decompiler.com/flash" xmlns:xlink="http://www.w3.org/1999/xlink" ffdec:objectType="shape" height="140.7px" width="285.65px" xmlns="http://www.w3.org/2000/svg">
  <g transform="matrix(1.0, 0.0, 0.0, 1.0, 142.8, 70.35)">
    <path d="M-28.3 -55.25 Q-17.9 -60.85 -6.3 -64.65 0.3 -66.85 6.5 -68.25 34.1 -69.75 47.6 -46.25 L48.2 -45.45 Q96.4 -58.45 131.5 -26.35 149.1 -10.25 133.5 7.25 125.6 16.05 114.0 19.55 129.8 48.75 100.8 60.55 81.6 68.45 62.6 59.35 54.0 55.25 46.0 50.55 12.4 77.35 -28.3 63.75 -40.7 59.55 -47.7 48.35 -51.3 42.65 -54.5 36.55 -84.7 49.15 -115.3 36.95 -123.3 33.85 -129.0 26.95 -148.8 3.15 -135.4 -22.85 -134.1 -25.25 -131.3 -26.45 -116.4 -32.75 -100.3 -33.45 -92.4 -68.85 -52.5 -64.75 -38.8 -63.45 -28.3 -55.25" fill="#e4e4e4" fill-rule="evenodd" stroke="none"/>
    <path d="M-28.3 -55.25 Q-17.9 -60.85 -6.3 -64.65 0.3 -66.85 6.5 -68.25 34.1 -69.75 47.6 -46.25 L48.2 -45.45 Q96.4 -58.45 131.5 -26.35 149.1 -10.25 133.5 7.25 125.6 16.05 114.0 19.55 129.8 48.75 100.8 60.55 81.6 68.45 62.6 59.35 54.0 55.25 46.0 50.55 12.4 77.35 -28.3 63.75 -40.7 59.55 -47.7 48.35 -51.3 42.65 -54.5 36.55 -84.7 49.15 -115.3 36.95 -123.3 33.85 -129.0 26.95 -148.8 3.15 -135.4 -22.85 -134.1 -25.25 -131.3 -26.45 -116.4 -32.75 -100.3 -33.45 -92.4 -68.85 -52.5 -64.75 -38.8 -63.45 -28.3 -55.25 Z" fill="none" stroke="#43deff" stroke-linecap="round" stroke-linejoin="round" stroke-width="4.0"/>
  </g>
</svg>
