<?xml version="1.0" encoding="UTF-8" standalone="no"?>
<svg xmlns:ffdec="https://www.free-decompiler.com/flash" xmlns:xlink="http://www.w3.org/1999/xlink" ffdec:objectType="shape" height="234.3px" width="242.85px" xmlns="http://www.w3.org/2000/svg">
  <g transform="matrix(1.0, 0.0, 0.0, 1.0, 121.4, 117.15)">
    <path d="M-52.5 -115.15 Q-22.7 -113.15 -2.7 -89.35 16.1 -67.05 24.2 -39.85 57.4 -51.25 85.0 -32.05 121.6 -6.65 119.3 36.55 119.0 41.55 114.7 44.85 100.6 55.85 81.7 57.35 65.5 85.25 30.8 92.15 20.1 94.25 9.3 95.15 -10.7 121.45 -47.4 113.15 -59.5 110.35 -66.3 99.85 -70.0 94.05 -70.9 89.35 L-91.8 86.45 Q-115.7 82.45 -118.8 60.15 -123.6 26.25 -90.3 16.35 -116.1 -5.35 -107.2 -36.45 -104.2 -46.95 -93.8 -51.25 -90.0 -52.85 -87.5 -54.85 -93.3 -79.35 -77.4 -98.45 -67.2 -110.85 -52.5 -115.15" fill="#e4e4e4" fill-rule="evenodd" stroke="none"/>
    <path d="M-52.5 -115.15 Q-22.7 -113.15 -2.7 -89.35 16.1 -67.05 24.2 -39.85 57.4 -51.25 85.0 -32.05 121.6 -6.65 119.3 36.55 119.0 41.55 114.7 44.85 100.6 55.85 81.7 57.35 65.5 85.25 30.8 92.15 20.1 94.25 9.3 95.15 -10.7 121.45 -47.4 113.15 -59.5 110.35 -66.3 99.85 -70.0 94.05 -70.9 89.35 L-91.8 86.45 Q-115.7 82.45 -118.8 60.15 -123.6 26.25 -90.3 16.35 -116.1 -5.35 -107.2 -36.45 -104.2 -46.95 -93.8 -51.25 -90.0 -52.85 -87.5 -54.85 -93.3 -79.35 -77.4 -98.45 -67.2 -110.85 -52.5 -115.15 Z" fill="none" stroke="#43deff" stroke-linecap="round" stroke-linejoin="round" stroke-width="4.0"/>
  </g>
</svg>
