<?xml version="1.0" encoding="UTF-8" standalone="no"?>
<svg xmlns:ffdec="https://www.free-decompiler.com/flash" xmlns:xlink="http://www.w3.org/1999/xlink" ffdec:objectType="shape" height="380.95px" width="329.9px" xmlns="http://www.w3.org/2000/svg">
  <g transform="matrix(1.0, 0.0, 0.0, 1.0, 163.5, 173.15)">
    <path d="M116.8 -110.85 Q104.5 -103.8 92.0 -111.7 80.8 -103.0 68.25 -110.4 L43.85 -102.65 Q54.3 -115.35 70.65 -117.1 81.15 -111.95 91.0 -118.15 L117.9 -111.5 116.8 -110.85 M74.35 -164.1 Q54.5 -159.8 35.05 -165.95 L19.55 -159.5 11.55 -164.25 4.85 -143.55 0.9 -146.3 8.0 -173.15 19.0 -166.4 Q41.6 -174.0 64.7 -169.0 L75.05 -166.5 74.35 -164.1 M74.55 -34.55 Q83.7 -44.0 94.65 -37.1 L93.0 -34.25 75.2 -33.4 74.55 -34.55 M161.2 -82.0 L165.5 -81.15 166.4 -76.95 Q164.3 -74.15 160.8 -74.15 158.95 -74.15 157.45 -75.15 L155.9 -76.3 153.75 -75.8 152.0 -73.3 146.85 -75.5 148.25 -77.5 Q153.3 -83.8 161.2 -82.0 M117.95 95.65 Q128.05 85.95 140.4 92.85 L150.5 92.1 152.05 95.25 Q151.15 98.6 147.1 100.15 139.15 103.35 133.8 95.8 L117.05 103.15 116.7 96.95 117.95 95.65 M44.5 26.0 L42.75 24.05 40.1 24.75 37.15 28.05 32.75 24.4 Q19.55 26.8 8.9 34.95 L6.5 29.9 Q28.7 10.2 54.5 24.9 L58.9 24.4 60.6 26.9 59.55 27.75 Q51.15 33.25 44.5 26.0 M7.05 90.5 L-1.8 94.25 -5.7 89.1 -13.9 97.7 Q-24.45 87.5 -20.7 73.1 L-38.15 106.45 Q-41.9 79.7 -19.45 64.5 -11.0 74.75 -13.7 87.75 L-10.55 85.1 Q-5.6 81.65 -0.6 85.35 2.95 85.0 6.4 85.5 11.6 86.0 14.05 90.65 L12.25 93.65 10.0 93.65 7.05 90.5 M6.6 142.75 Q14.0 133.75 25.45 138.35 30.3 140.2 33.35 144.55 L31.3 148.65 26.4 146.3 24.0 148.25 16.4 143.35 12.7 143.65 8.6 146.65 6.6 142.75 M41.0 185.4 L97.25 191.4 95.8 196.3 83.9 196.8 Q62.35 197.35 41.5 191.9 L35.0 199.25 30.85 197.95 41.0 185.4 M139.05 179.05 Q144.9 167.95 156.4 172.8 L159.05 174.05 155.9 179.1 148.3 176.9 140.75 181.4 139.05 179.05 M-85.75 -134.8 L-90.2 -130.1 -94.8 -132.15 -100.35 -130.5 Q-107.25 -128.55 -113.5 -131.05 L-114.7 -131.7 -97.55 -138.65 -85.75 -134.8 M-100.5 122.75 L-104.8 120.8 Q-94.05 107.55 -79.1 117.9 L-76.9 119.4 -78.5 122.25 -99.05 120.85 -100.5 122.75 M-8.5 204.8 L-56.85 204.6 Q-59.65 207.45 -63.6 206.7 -66.45 206.3 -68.45 204.15 L-78.3 203.7 -81.05 207.8 -84.25 204.45 Q-75.2 193.65 -62.65 199.9 -49.85 193.85 -37.65 200.65 L-35.7 199.5 Q-20.5 191.25 -6.9 201.9 L-8.5 204.8" fill="#69a5bc" fill-rule="evenodd" stroke="none"/>
    <path d="M-10.7 -13.55 Q-18.35 -5.55 -19.3 8.2 -41.95 17.25 -66.7 12.55 -78.0 45.15 -97.8 69.5 -103.95 77.05 -114.45 75.25 -173.45 66.1 -161.45 1.85 -149.1 -64.25 -96.25 -99.25 -74.2 -113.8 -55.55 -132.0 -48.5 -138.8 -38.35 -136.5 41.5 -119.25 57.3 -30.25 L57.2 -28.1 Q33.0 -3.25 3.15 -20.5 23.1 -33.05 45.8 -38.1 36.0 -80.75 -1.9 -102.1 -34.85 -120.7 -71.45 -107.2 -100.75 -96.3 -121.4 -72.8 -163.8 -24.5 -144.7 35.9 -136.75 61.1 -110.65 64.5 -100.25 44.5 -84.8 27.7 -54.45 -5.05 -10.7 -13.55 M132.25 -80.6 L134.2 -80.35 Q183.35 -18.55 150.2 45.45 146.8 52.0 138.6 52.55 69.45 59.4 89.8 -6.7 99.1 -36.95 105.45 -68.65 116.1 -81.3 132.25 -80.6 M132.85 -74.85 Q125.0 -68.85 118.7 -61.35 81.25 -16.8 94.7 40.85 134.1 61.05 152.05 17.55 169.9 -25.7 140.75 -64.0 L132.85 -74.85 M90.95 94.3 L87.5 92.35 Q87.5 87.8 80.8 84.6 74.05 81.4 64.5 81.4 59.3 80.25 61.35 84.7 58.2 89.3 56.75 98.0 L74.6 101.35 76.7 103.55 Q79.4 106.4 84.2 103.15 L84.35 103.05 90.75 95.05 84.65 109.05 52.6 106.05 Q45.9 89.35 61.45 80.95 87.7 66.85 90.95 94.3 M98.85 115.25 L94.75 117.25 95.0 120.65 Q90.45 126.0 94.7 131.1 97.5 134.55 100.9 135.9 93.0 139.75 89.75 131.4 L89.3 130.15 92.75 114.75 98.85 115.25 M111.8 125.9 Q110.45 120.0 106.05 116.55 115.85 119.25 111.8 125.9" fill="#01c0e9" fill-rule="evenodd" stroke="none"/>
    <path d="M-10.7 -13.55 Q-54.45 -5.05 -84.8 27.7 -100.25 44.5 -110.65 64.5 -136.75 61.1 -144.7 35.9 -163.8 -24.5 -121.4 -72.8 -100.75 -96.3 -71.45 -107.2 -34.85 -120.7 -1.9 -102.1 36.0 -80.75 45.8 -38.1 23.1 -33.05 3.15 -20.5 L-10.7 -13.55 M131.4 30.45 Q165.1 3.2 143.2 -45.95 137.6 -58.55 127.15 -67.65 L124.15 -66.65 Q101.15 -29.3 105.3 14.4 L105.95 27.1 110.2 30.65 Q122.75 32.5 131.4 30.45 M132.85 -74.85 L140.75 -64.0 Q169.9 -25.7 152.05 17.55 134.1 61.05 94.7 40.85 81.25 -16.8 118.7 -61.35 125.0 -68.85 132.85 -74.85 M87.5 92.35 L90.95 94.3 90.75 95.05 84.35 103.05 87.5 92.35 M64.5 81.4 Q62.75 82.65 61.35 84.7 59.3 80.25 64.5 81.4 M74.6 101.35 L84.2 103.15 Q79.4 106.4 76.7 103.55 L74.6 101.35 M98.85 115.25 L101.5 113.9 Q104.05 115.0 106.05 116.55 110.45 120.0 111.8 125.9 L109.75 136.15 100.9 135.9 Q97.5 134.55 94.7 131.1 90.45 126.0 95.0 120.65 L94.75 117.25 98.85 115.25 M102.8 117.4 Q99.45 117.4 97.1 119.8 94.7 122.15 94.7 125.55 94.7 128.95 97.1 131.35 99.45 133.7 102.8 133.7 106.15 133.7 108.55 131.35 110.9 128.95 110.9 125.55 110.9 122.15 108.55 119.8 106.15 117.4 102.8 117.4 M-126.0 9.0 Q-126.2 21.25 -123.6 34.65 L-119.85 31.65 Q-108.7 46.15 -77.85 18.55 -49.1 -7.1 -17.85 -30.05 L2.55 -45.7 Q31.2 -96.8 -26.3 -100.5 -72.7 -104.1 -101.7 -67.6 -128.8 -33.55 -126.0 9.0" fill="#96ecfe" fill-rule="evenodd" stroke="none"/>
    <path d="M123.25 -26.6 L126.0 -25.05 134.25 -5.55 133.55 -2.0 135.05 0.55 133.65 7.0 132.35 -4.95 128.8 -8.8 128.0 -2.2 125.25 0.9 128.1 -11.6 124.7 -17.75 125.65 -21.2 123.25 -26.6 M115.2 14.9 L123.05 7.8 124.75 2.45 132.9 20.8 132.35 23.85 132.25 23.95 125.1 15.25 115.6 15.75 114.3 15.8 115.2 14.9 M-97.05 -44.65 Q-98.15 -45.45 -96.9 -45.95 L-95.75 -46.0 -83.8 -41.25 -80.6 -42.65 -77.9 -41.65 -67.65 -44.3 -63.95 -50.45 -71.5 -51.9 -68.6 -55.85 -63.55 -52.7 -62.0 -67.2 -55.05 -73.9 -58.4 -66.85 -43.0 -69.25 -28.6 -82.35 -38.5 -70.35 -22.95 -62.25 -18.95 -65.15 -8.2 -61.0 -8.6 -68.5 -6.25 -66.8 -3.9 -65.1 -4.15 -61.1 -7.9 -59.3 -8.1 -59.2 -8.05 -58.85 -7.6 -55.15 -9.05 -56.1 -14.6 -60.5 -21.35 -61.15 -12.65 -49.9 -17.85 -53.45 -20.85 -50.1 -20.75 -56.45 -20.9 -57.05 Q-21.1 -57.35 -21.35 -57.35 L-40.75 -68.7 -58.55 -64.75 -60.9 -62.45 -65.25 -44.65 -54.55 -47.65 -50.1 -44.15 -55.3 -43.85 -57.65 -39.1 -37.6 -51.7 -42.9 -56.5 -45.6 -49.5 -45.85 -53.45 -49.6 -56.1 -52.55 -53.15 -56.8 -54.3 -51.55 -56.75 -51.25 -62.65 -42.0 -65.3 -48.0 -62.0 -47.25 -57.15 -46.15 -59.9 -38.75 -60.5 -35.65 -53.0 -29.75 -54.3 -39.0 -48.2 -39.8 -44.65 -57.6 -36.7 -57.85 -34.55 Q-58.15 -31.5 -59.4 -28.6 -59.65 -27.9 -60.2 -27.3 L-61.65 -25.95 -64.9 -23.45 -64.55 -26.55 -69.5 -30.05 -67.85 -36.65 -67.3 -31.75 -62.15 -27.7 -58.25 -45.3 -81.6 -37.4 -83.9 -24.45 -77.65 -26.1 -81.85 -22.0 -81.5 -19.6 -83.5 -18.3 -85.25 -14.05 -83.55 -20.7 -90.85 -21.45 -100.5 -5.15 -99.0 3.9 -98.45 7.3 -101.65 11.0 -101.25 5.35 -100.8 -1.85 -103.65 4.2 Q-103.55 -1.25 -101.9 -6.5 -98.2 -18.05 -87.65 -23.9 L-80.75 -40.2 -88.45 -39.75 -95.95 -32.2 -90.9 -42.35 -97.05 -44.65" fill="#b0c0d0" fill-rule="evenodd" stroke="none"/>
    <path d="M105.3 14.4 Q105.9 -21.25 123.9 -53.4 L131.15 -58.65 134.4 -57.4 Q152.8 -22.2 140.5 12.6 139.75 11.95 138.45 11.5 146.75 -12.95 135.4 -36.35 L133.8 -39.7 126.7 -40.35 Q103.25 -11.55 115.2 14.9 L114.3 15.8 115.6 15.75 Q117.15 19.1 119.3 22.4 125.0 31.15 132.25 23.95 L132.35 23.85 135.95 17.6 138.65 17.4 131.4 30.45 Q122.75 32.5 110.2 30.65 L105.95 27.1 105.3 14.4 M64.6 86.5 Q77.7 76.25 85.95 94.8 L83.55 96.4 Q64.65 105.5 61.15 90.15 69.75 99.3 81.9 96.4 L79.1 86.3 78.1 85.65 Q70.8 82.05 64.6 86.5 M102.1 121.5 Q100.35 121.5 99.15 122.75 97.9 123.95 97.9 125.7 97.9 127.45 99.15 128.7 100.35 129.9 102.1 129.9 103.85 129.9 105.1 128.7 106.3 127.45 106.3 125.7 106.3 123.95 105.1 122.75 103.85 121.5 102.1 121.5 M102.55 120.0 Q104.85 120.0 106.45 121.6 108.05 123.2 108.05 125.5 108.05 127.8 106.45 129.4 104.85 131.0 102.55 131.0 100.25 131.0 98.65 129.4 97.05 127.8 97.05 125.5 97.05 123.2 98.65 121.6 100.25 120.0 102.55 120.0 M-95.75 -46.0 L-96.9 -45.95 Q-98.15 -45.45 -97.05 -44.65 -118.6 -20.9 -115.95 9.95 L-111.05 11.5 -101.25 5.35 -101.65 11.0 -98.45 7.3 -99.0 3.9 Q-65.85 -17.3 -30.0 -33.25 -14.3 -40.15 -9.05 -56.1 L-7.6 -55.15 -8.05 -58.85 -7.9 -59.3 -4.15 -61.1 -3.9 -65.1 -6.25 -66.8 Q-4.0 -90.4 -44.1 -93.25 L-95.75 -46.0 M-126.0 9.0 Q-125.15 -41.3 -76.95 -71.95 -66.75 -100.55 -37.15 -98.85 18.95 -96.05 2.55 -45.7 L-17.85 -30.05 Q-72.65 -5.8 -119.85 31.65 L-123.6 34.65 Q-126.2 21.25 -126.0 9.0" fill="#fde08c" fill-rule="evenodd" stroke="none"/>
    <path d="M140.5 12.6 Q142.95 15.85 138.85 17.35 L138.65 17.4 135.95 17.6 Q133.6 16.9 132.85 15.75 132.05 14.55 132.8 13.4 133.55 12.25 135.4 11.75 L138.45 11.5 Q139.75 11.95 140.5 12.6 M115.95 -6.0 Q114.85 -11.6 117.75 -16.5 118.75 -18.2 120.6 -19.35 127.45 -9.85 119.05 3.55 L113.45 -0.95 115.95 -6.0 M137.05 -13.05 L136.9 -10.85 134.2 -8.55 130.4 -25.9 Q137.65 -22.6 137.05 -13.05 M130.75 2.25 Q131.25 3.6 131.25 5.55 131.25 7.5 130.75 8.9 130.2 10.25 129.45 10.25 128.7 10.25 128.2 8.9 127.65 7.5 127.65 5.55 127.65 3.6 128.2 2.25 128.7 0.85 129.45 0.85 130.2 0.85 130.75 2.25 M117.85 19.75 L117.55 18.7 128.45 23.4 Q121.1 27.2 117.85 19.75 M-21.35 -57.35 Q-21.1 -57.35 -20.9 -57.05 L-20.75 -56.45 -32.4 -58.05 -33.95 -62.9 -21.35 -57.35 M-82.45 -31.35 Q-82.45 -32.65 -81.55 -33.55 -80.65 -34.5 -79.35 -34.5 -78.05 -34.5 -77.15 -33.55 -76.25 -32.65 -76.25 -31.35 -76.25 -30.05 -77.15 -29.1 -78.05 -28.2 -79.35 -28.2 -80.65 -28.2 -81.55 -29.1 -82.45 -30.05 -82.45 -31.35 M-97.55 -28.15 L-94.8 -28.2 -91.95 -30.6 -89.45 -28.65 -99.1 -18.95 -97.55 -28.15 M-11.9 -66.8 Q-13.15 -66.05 -14.9 -66.05 -16.65 -66.05 -17.85 -66.8 -19.1 -67.55 -19.1 -68.6 -19.1 -69.65 -17.85 -70.4 -16.65 -71.15 -14.9 -71.15 -13.15 -71.15 -11.9 -70.4 -10.7 -69.65 -10.7 -68.6 -10.7 -67.55 -11.9 -66.8 M-24.35 -73.2 Q-22.55 -72.05 -22.55 -70.4 -22.55 -68.75 -24.35 -67.6 -26.15 -66.45 -28.7 -66.45 -31.25 -66.45 -33.05 -67.6 -34.85 -68.75 -34.85 -70.4 -34.85 -72.05 -33.05 -73.2 -31.25 -74.35 -28.7 -74.35 -26.15 -74.35 -24.35 -73.2 M-92.6 -2.75 L-97.15 -1.9 -90.2 -16.55 -92.6 -2.75 M-68.55 -46.0 L-80.15 -44.55 -70.2 -50.85 -68.55 -46.0 M-64.1 -42.95 Q-62.65 -42.95 -61.65 -42.3 -60.65 -41.7 -60.65 -40.8 -60.65 -39.9 -61.65 -39.25 -62.65 -38.65 -64.1 -38.65 -65.55 -38.65 -66.55 -39.25 -67.55 -39.9 -67.55 -40.8 -67.55 -41.7 -66.55 -42.3 -65.55 -42.95 -64.1 -42.95 M-45.55 -33.9 L-54.0 -34.15 Q-42.4 -38.1 -34.15 -49.65 L-31.4 -45.5 -45.55 -33.9 M-46.3 -71.5 L-51.8 -74.4 -36.15 -78.85 -46.3 -71.5 M-53.0 -50.45 Q-53.0 -51.6 -52.15 -52.4 -51.35 -53.25 -50.2 -53.25 -49.05 -53.25 -48.2 -52.4 -47.4 -51.6 -47.4 -50.45 -47.4 -49.3 -48.2 -48.45 -49.05 -47.65 -50.2 -47.65 -51.35 -47.65 -52.15 -48.45 -53.0 -49.3 -53.0 -50.45 M-56.85 -63.6 Q-56.15 -64.35 -55.1 -64.35 -54.05 -64.35 -53.3 -63.6 -52.6 -62.9 -52.6 -61.85 -52.6 -60.8 -53.3 -60.05 -54.05 -59.35 -55.1 -59.35 -56.15 -59.35 -56.85 -60.05 -57.6 -60.8 -57.6 -61.85 -57.6 -62.9 -56.85 -63.6 M-70.5 -62.3 Q-70.5 -63.8 -69.45 -64.85 -68.4 -65.9 -66.9 -65.9 -65.4 -65.9 -64.35 -64.85 -63.3 -63.8 -63.3 -62.3 -63.3 -60.8 -64.35 -59.75 -65.4 -58.7 -66.9 -58.7 -68.4 -58.7 -69.45 -59.75 -70.5 -60.8 -70.5 -62.3 M-42.45 -76.7 Q-41.5 -76.85 -42.65 -76.7 L-42.45 -76.7" fill="#999999" fill-rule="evenodd" stroke="none"/>
    <path d="M115.95 -6.0 L113.45 -0.95 119.05 3.55 Q127.45 -9.85 120.6 -19.35 118.75 -18.2 117.75 -16.5 114.85 -11.6 115.95 -6.0 M123.25 -26.6 L125.65 -21.2 124.7 -17.75 128.1 -11.6 125.25 0.9 128.0 -2.2 128.8 -8.8 132.35 -4.95 133.65 7.0 135.05 0.55 133.55 -2.0 134.25 -5.55 126.0 -25.05 123.25 -26.6 M115.2 14.9 Q103.25 -11.55 126.7 -40.35 L133.8 -39.7 135.4 -36.35 Q146.75 -12.95 138.45 11.5 L135.4 11.75 Q133.55 12.25 132.8 13.4 132.05 14.55 132.85 15.75 133.6 16.9 135.95 17.6 L132.35 23.85 132.9 20.8 124.75 2.45 123.05 7.8 115.2 14.9 M137.05 -13.05 Q137.65 -22.6 130.4 -25.9 L134.2 -8.55 136.9 -10.85 137.05 -13.05 M130.75 2.25 Q130.2 0.85 129.45 0.85 128.7 0.85 128.2 2.25 127.65 3.6 127.65 5.55 127.65 7.5 128.2 8.9 128.7 10.25 129.45 10.25 130.2 10.25 130.75 8.9 131.25 7.5 131.25 5.55 131.25 3.6 130.75 2.25 M132.25 23.95 Q125.0 31.15 119.3 22.4 117.15 19.1 115.6 15.75 L125.1 15.25 132.25 23.95 M117.85 19.75 Q121.1 27.2 128.45 23.4 L117.55 18.7 117.85 19.75 M64.6 86.5 Q70.8 82.05 78.1 85.65 L79.1 86.3 81.9 96.4 Q69.75 99.3 61.15 90.15 L64.6 86.5 M102.1 121.5 Q103.85 121.5 105.1 122.75 106.3 123.95 106.3 125.7 106.3 127.45 105.1 128.7 103.85 129.9 102.1 129.9 100.35 129.9 99.15 128.7 97.9 127.45 97.9 125.7 97.9 123.95 99.15 122.75 100.35 121.5 102.1 121.5 M-97.05 -44.65 L-90.9 -42.35 -95.95 -32.2 -88.45 -39.75 -80.75 -40.2 -87.65 -23.9 Q-98.2 -18.05 -101.9 -6.5 -103.55 -1.25 -103.65 4.2 L-100.8 -1.85 -101.25 5.35 -111.05 11.5 -115.95 9.95 Q-118.6 -20.9 -97.05 -44.65 M-99.0 3.9 L-100.5 -5.15 -90.85 -21.45 -83.55 -20.7 -85.25 -14.05 -83.5 -18.3 -81.5 -19.6 -81.85 -22.0 -77.65 -26.1 -83.9 -24.45 -81.6 -37.4 -58.25 -45.3 -62.15 -27.7 -67.3 -31.75 -67.85 -36.65 -69.5 -30.05 -64.55 -26.55 -64.9 -23.45 -61.65 -25.95 -60.2 -27.3 Q-59.65 -27.9 -59.4 -28.6 -58.15 -31.5 -57.85 -34.55 L-57.6 -36.7 -39.8 -44.65 -39.0 -48.2 -29.75 -54.3 -35.65 -53.0 -38.75 -60.5 -46.15 -59.9 -47.25 -57.15 -48.0 -62.0 -42.0 -65.3 -51.25 -62.65 -51.55 -56.75 -56.8 -54.3 -52.55 -53.15 -49.6 -56.1 -45.85 -53.45 -45.6 -49.5 -42.9 -56.5 -37.6 -51.7 -57.65 -39.1 -55.3 -43.85 -50.1 -44.15 -54.55 -47.65 -65.25 -44.65 -60.9 -62.45 -58.55 -64.75 -40.75 -68.7 -21.35 -57.35 -33.95 -62.9 -32.4 -58.05 -20.75 -56.45 -20.85 -50.1 -17.85 -53.45 -12.65 -49.9 -21.35 -61.15 -14.6 -60.5 -9.05 -56.1 Q-14.3 -40.15 -30.0 -33.25 -65.85 -17.3 -99.0 3.9 M-8.05 -58.85 L-8.1 -59.2 -7.9 -59.3 -8.05 -58.85 M-6.25 -66.8 L-8.6 -68.5 -8.2 -61.0 -18.95 -65.15 -22.95 -62.25 -38.5 -70.35 -28.6 -82.35 -43.0 -69.25 -58.4 -66.85 -55.05 -73.9 -62.0 -67.2 -63.55 -52.7 -68.6 -55.85 -71.5 -51.9 -63.95 -50.45 -67.65 -44.3 -77.9 -41.65 -80.6 -42.65 -83.8 -41.25 -95.75 -46.0 -44.1 -93.25 Q-4.0 -90.4 -6.25 -66.8 M-97.55 -28.15 L-99.1 -18.95 -89.45 -28.65 -91.95 -30.6 -94.8 -28.2 -97.55 -28.15 M-82.45 -31.35 Q-82.45 -30.05 -81.55 -29.1 -80.65 -28.2 -79.35 -28.2 -78.05 -28.2 -77.15 -29.1 -76.25 -30.05 -76.25 -31.35 -76.25 -32.65 -77.15 -33.55 -78.05 -34.5 -79.35 -34.5 -80.65 -34.5 -81.55 -33.55 -82.45 -32.65 -82.45 -31.35 M-92.3 -22.5 L-92.1 -22.7 Q-92.5 -23.7 -92.3 -22.5 M-92.6 -2.75 L-90.2 -16.55 -97.15 -1.9 -92.6 -2.75 M-24.35 -73.2 Q-26.15 -74.35 -28.7 -74.35 -31.25 -74.35 -33.05 -73.2 -34.85 -72.05 -34.85 -70.4 -34.85 -68.75 -33.05 -67.6 -31.25 -66.45 -28.7 -66.45 -26.15 -66.45 -24.35 -67.6 -22.55 -68.75 -22.55 -70.4 -22.55 -72.05 -24.35 -73.2 M-11.9 -66.8 Q-10.7 -67.55 -10.7 -68.6 -10.7 -69.65 -11.9 -70.4 -13.15 -71.15 -14.9 -71.15 -16.65 -71.15 -17.85 -70.4 -19.1 -69.65 -19.1 -68.6 -19.1 -67.55 -17.85 -66.8 -16.65 -66.05 -14.9 -66.05 -13.15 -66.05 -11.9 -66.8 M-42.45 -76.7 L-42.65 -76.7 Q-41.5 -76.85 -42.45 -76.7 M-70.5 -62.3 Q-70.5 -60.8 -69.45 -59.75 -68.4 -58.7 -66.9 -58.7 -65.4 -58.7 -64.35 -59.75 -63.3 -60.8 -63.3 -62.3 -63.3 -63.8 -64.35 -64.85 -65.4 -65.9 -66.9 -65.9 -68.4 -65.9 -69.45 -64.85 -70.5 -63.8 -70.5 -62.3 M-56.85 -63.6 Q-57.6 -62.9 -57.6 -61.85 -57.6 -60.8 -56.85 -60.05 -56.15 -59.35 -55.1 -59.35 -54.05 -59.35 -53.3 -60.05 -52.6 -60.8 -52.6 -61.85 -52.6 -62.9 -53.3 -63.6 -54.05 -64.35 -55.1 -64.35 -56.15 -64.35 -56.85 -63.6 M-53.0 -50.45 Q-53.0 -49.3 -52.15 -48.45 -51.35 -47.65 -50.2 -47.65 -49.05 -47.65 -48.2 -48.45 -47.4 -49.3 -47.4 -50.45 -47.4 -51.6 -48.2 -52.4 -49.05 -53.25 -50.2 -53.25 -51.35 -53.25 -52.15 -52.4 -53.0 -51.6 -53.0 -50.45 M-46.3 -71.5 L-36.15 -78.85 -51.8 -74.4 -46.3 -71.5 M-45.55 -33.9 L-31.4 -45.5 -34.15 -49.65 Q-42.4 -38.1 -54.0 -34.15 L-45.55 -33.9 M-64.1 -42.95 Q-65.55 -42.95 -66.55 -42.3 -67.55 -41.7 -67.55 -40.8 -67.55 -39.9 -66.55 -39.25 -65.55 -38.65 -64.1 -38.65 -62.65 -38.65 -61.65 -39.25 -60.65 -39.9 -60.65 -40.8 -60.65 -41.7 -61.65 -42.3 -62.65 -42.95 -64.1 -42.95 M-68.55 -46.0 L-70.2 -50.85 -80.15 -44.55 -68.55 -46.0" fill="#009933" fill-rule="evenodd" stroke="none"/>
    <path d="M105.3 14.4 Q101.15 -29.3 124.15 -66.65 L127.15 -67.65 Q137.6 -58.55 143.2 -45.95 165.1 3.2 131.4 30.45 L138.65 17.4 138.85 17.35 Q142.95 15.85 140.5 12.6 152.8 -22.2 134.4 -57.4 L131.15 -58.65 123.9 -53.4 Q105.9 -21.25 105.3 14.4 M61.15 90.15 Q64.65 105.5 83.55 96.4 L85.95 94.8 Q77.7 76.25 64.6 86.5 L61.15 90.15 M87.5 92.35 L84.35 103.05 84.2 103.15 74.6 101.35 56.75 98.0 Q58.2 89.3 61.35 84.7 62.75 82.65 64.5 81.4 74.05 81.4 80.8 84.6 87.5 87.8 87.5 92.35 M102.55 120.0 Q100.25 120.0 98.65 121.6 97.05 123.2 97.05 125.5 97.05 127.8 98.65 129.4 100.25 131.0 102.55 131.0 104.85 131.0 106.45 129.4 108.05 127.8 108.05 125.5 108.05 123.2 106.45 121.6 104.85 120.0 102.55 120.0 M102.8 117.4 Q106.15 117.4 108.55 119.8 110.9 122.15 110.9 125.55 110.9 128.95 108.55 131.35 106.15 133.7 102.8 133.7 99.45 133.7 97.1 131.35 94.7 128.95 94.7 125.55 94.7 122.15 97.1 119.8 99.45 117.4 102.8 117.4 M2.55 -45.7 Q18.95 -96.05 -37.15 -98.85 -66.75 -100.55 -76.95 -71.95 -125.15 -41.3 -126.0 9.0 -128.8 -33.55 -101.7 -67.6 -72.7 -104.1 -26.3 -100.5 31.2 -96.8 2.55 -45.7 M-119.85 31.65 Q-72.65 -5.8 -17.85 -30.05 -49.1 -7.1 -77.85 18.55 -108.7 46.15 -119.85 31.65" fill="#ffefbf" fill-rule="evenodd" stroke="none"/>
  </g>
</svg>
