<?xml version="1.0" encoding="UTF-8" standalone="no"?>
<svg xmlns:ffdec="https://www.free-decompiler.com/flash" xmlns:xlink="http://www.w3.org/1999/xlink" ffdec:objectType="shape" height="350.0px" width="300.0px" xmlns="http://www.w3.org/2000/svg">
  <g transform="matrix(1.0, 0.0, 0.0, 1.0, 0.0, 0.0)">
    <path d="M276.75 175.0 L0.0 175.0 0.0 0.0 300.0 0.0 300.0 175.0 299.95 175.0 299.95 164.95 Q289.9 170.55 276.75 175.0" fill="url(#gradient0)" fill-rule="evenodd" stroke="none"/>
    <path d="M299.95 175.0 L299.95 350.0 0.0 350.0 0.0 239.1 Q32.95 241.4 58.45 232.4 L56.5 230.3 56.65 230.1 56.6 230.05 Q54.2 226.6 48.4 224.85 172.35 210.45 179.3 202.4 183.15 197.9 179.45 196.25 179.45 194.4 176.65 193.6 171.45 192.15 163.5 187.65 L163.35 187.2 Q165.2 185.9 176.95 186.65 219.25 189.25 254.95 181.15 266.75 178.4 276.75 175.0 289.9 170.55 299.95 164.95 L299.95 175.0" fill="url(#gradient1)" fill-rule="evenodd" stroke="none"/>
  </g>
  <defs>
    <linearGradient gradientTransform="matrix(0.0, 0.1068, -0.1831, 0.0, 150.0, 87.5)" gradientUnits="userSpaceOnUse" id="gradient0" spreadMethod="pad" x1="-819.2" x2="819.2">
      <stop offset="0.0" stop-color="#000066"/>
      <stop offset="0.984313725490196" stop-color="#00ccff"/>
    </linearGradient>
    <linearGradient gradientTransform="matrix(-0.03, -0.1136, 0.199, -0.0525, 158.0, 287.95)" gradientUnits="userSpaceOnUse" id="gradient1" spreadMethod="pad" x1="-819.2" x2="819.2">
      <stop offset="0.07058823529411765" stop-color="#000066"/>
      <stop offset="0.49411764705882355" stop-color="#0066ff"/>
      <stop offset="1.0" stop-color="#00ccff"/>
    </linearGradient>
  </defs>
</svg>
