<?xml version="1.0" encoding="UTF-8" standalone="no"?>
<svg xmlns:ffdec="https://www.free-decompiler.com/flash" xmlns:xlink="http://www.w3.org/1999/xlink" ffdec:objectType="shape" height="96.3px" width="304.95px" xmlns="http://www.w3.org/2000/svg">
  <g transform="matrix(1.0, 0.0, 0.0, 1.0, 0.0, -148.25)">
    <path d="M168.25 192.3 L168.15 192.45 168.5 192.65 Q176.45 197.15 181.65 198.6 184.45 199.4 184.45 201.25 188.15 202.9 184.3 207.4 181.15 211.05 154.05 216.0 121.25 222.0 53.4 229.85 59.2 231.6 61.6 235.05 L61.4 235.2 61.5 235.3 63.45 237.4 Q42.1 244.9 15.6 244.55 L0.0 244.1 0.0 148.25 5.0 148.6 5.0 148.25 68.9 152.6 Q105.9 162.7 144.4 164.85 L173.45 164.85 146.9 160.35 Q162.0 157.4 183.95 156.6 L208.35 156.05 274.15 158.65 304.95 160.85 304.95 169.95 Q287.25 179.8 259.95 186.15 249.3 188.55 238.1 190.0 L214.15 191.95 195.3 192.25 176.95 191.65 172.4 191.45 Q169.25 191.55 168.35 192.2 L168.3 192.25 168.25 192.3" fill="#000000" fill-opacity="0.33333334" fill-rule="evenodd" stroke="none"/>
  </g>
</svg>
