<?xml version="1.0" encoding="UTF-8" standalone="no"?>
<svg xmlns:ffdec="https://www.free-decompiler.com/flash" xmlns:xlink="http://www.w3.org/1999/xlink" ffdec:objectType="shape" height="120.45px" width="299.95px" xmlns="http://www.w3.org/2000/svg">
  <g transform="matrix(1.0, 0.0, 0.0, 1.0, 0.0, -119.1)">
    <path d="M163.5 187.65 L163.3 187.25 163.5 187.65" fill="url(#gradient0)" fill-rule="evenodd" stroke="none"/>
    <path d="M163.25 187.3 L163.15 187.45 Q156.0 183.1 175.15 184.35 217.45 186.95 253.15 178.85 280.8 172.4 299.95 161.5 L299.95 164.95 Q282.25 174.8 254.95 181.15 219.25 189.25 176.95 186.65 165.2 185.9 163.35 187.2 L163.3 187.25 163.25 187.3 M56.4 230.2 L56.5 230.3 58.45 232.4 Q32.95 241.4 0.0 239.1 L0.0 236.8 Q31.0 239.1 56.4 230.2 M48.4 224.85 Q44.7 223.75 39.65 223.35 170.4 208.4 177.5 200.1 179.45 197.8 179.45 196.25 183.15 197.9 179.3 202.4 172.35 210.45 48.4 224.85" fill="#996633" fill-rule="evenodd" stroke="none"/>
    <path d="M299.95 161.5 Q280.8 172.4 253.15 178.85 217.45 186.95 175.15 184.35 156.0 183.1 163.15 187.45 L163.5 187.65 167.85 190.0 Q172.95 192.6 176.65 193.6 179.45 194.4 179.45 196.25 179.45 197.8 177.5 200.1 170.4 208.4 39.65 223.35 44.7 223.75 48.4 224.85 54.2 226.6 56.6 230.05 L56.4 230.2 Q31.0 239.1 0.0 236.8 L0.0 143.25 63.9 147.6 Q100.9 157.7 139.4 159.85 L173.45 159.85 146.9 155.35 Q192.4 146.45 299.95 155.85 L299.95 161.5" fill="url(#gradient1)" fill-rule="evenodd" stroke="none"/>
    <path d="M163.25 187.3 L163.3 187.25 163.5 187.65 163.25 187.3" fill="url(#gradient2)" fill-rule="evenodd" stroke="none"/>
    <path d="M0.0 128.7 L0.0 125.05 Q65.7 115.75 141.65 123.35 187.2 114.6 258.1 123.85 L258.4 123.8 Q281.35 120.45 299.95 120.65 L299.95 140.95 Q283.3 137.65 266.3 135.0 224.5 128.5 180.55 126.0 L115.95 137.1 96.8 135.0 Q70.1 131.45 46.4 124.35 L5.5 130.75 Q2.75 127.8 0.0 128.7" fill="url(#gradient3)" fill-rule="evenodd" stroke="none"/>
    <path d="M299.95 140.95 L299.95 155.85 Q192.4 146.45 146.9 155.35 L173.45 159.85 139.4 159.85 Q100.9 157.7 63.9 147.6 L0.0 143.25 0.0 128.7 Q2.75 127.8 5.5 130.75 6.7 132.05 7.95 134.1 L11.05 135.0 Q41.3 143.55 67.0 145.45 L115.95 137.1 180.55 126.0 Q224.5 128.5 266.3 135.0 283.3 137.65 299.95 140.95" fill="url(#gradient4)" fill-rule="evenodd" stroke="none"/>
    <path d="M115.95 137.1 L67.0 145.45 Q41.3 143.55 11.05 135.0 L7.95 134.1 Q6.7 132.05 5.5 130.75 L46.4 124.35 Q70.1 131.45 96.8 135.0 L115.95 137.1" fill="url(#gradient5)" fill-rule="evenodd" stroke="none"/>
    <path d="M163.3 187.25 L163.35 187.2 163.5 187.65 163.3 187.25" fill="url(#gradient6)" fill-rule="evenodd" stroke="none"/>
  </g>
  <defs>
    <linearGradient gradientTransform="matrix(-0.1688, 0.0744, -0.066, -0.1498, 142.3, 322.95)" gradientUnits="userSpaceOnUse" id="gradient0" spreadMethod="pad" x1="-819.2" x2="819.2">
      <stop offset="0.0" stop-color="#00ccff"/>
      <stop offset="1.0" stop-color="#00ffff"/>
    </linearGradient>
    <linearGradient gradientTransform="matrix(0.0, -0.05, 0.183, 0.0, 149.95, 189.7)" gradientUnits="userSpaceOnUse" id="gradient1" spreadMethod="pad" x1="-819.2" x2="819.2">
      <stop offset="0.0" stop-color="#87a039"/>
      <stop offset="1.0" stop-color="#596620"/>
    </linearGradient>
    <linearGradient gradientTransform="matrix(-0.1476, 0.0391, -0.0376, -0.1421, 158.0, 313.0)" gradientUnits="userSpaceOnUse" id="gradient2" spreadMethod="pad" x1="-819.2" x2="819.2">
      <stop offset="0.0" stop-color="#00ccff"/>
      <stop offset="1.0" stop-color="#000066"/>
    </linearGradient>
    <linearGradient gradientTransform="matrix(0.0, -0.0092, 0.183, 0.0, 149.95, 127.7)" gradientUnits="userSpaceOnUse" id="gradient3" spreadMethod="pad" x1="-819.2" x2="819.2">
      <stop offset="0.0" stop-color="#7eaf7b"/>
      <stop offset="1.0" stop-color="#66a6af"/>
    </linearGradient>
    <linearGradient gradientTransform="matrix(0.0, -0.0189, 0.183, 0.0, 149.95, 143.2)" gradientUnits="userSpaceOnUse" id="gradient4" spreadMethod="pad" x1="-819.2" x2="819.2">
      <stop offset="0.0" stop-color="#283521"/>
      <stop offset="1.0" stop-color="#88a55d"/>
    </linearGradient>
    <linearGradient gradientTransform="matrix(0.0, 0.0134, -0.0674, 0.0, 60.75, 136.2)" gradientUnits="userSpaceOnUse" id="gradient5" spreadMethod="pad" x1="-819.2" x2="819.2">
      <stop offset="0.0" stop-color="#8da946"/>
      <stop offset="1.0" stop-color="#547954"/>
    </linearGradient>
    <linearGradient gradientTransform="matrix(-0.0085, -0.032, 0.2065, -0.0547, 145.2, 264.5)" gradientUnits="userSpaceOnUse" id="gradient6" spreadMethod="pad" x1="-819.2" x2="819.2">
      <stop offset="0.0" stop-color="#000066"/>
      <stop offset="0.37254901960784315" stop-color="#0066ff"/>
      <stop offset="1.0" stop-color="#00ccff"/>
    </linearGradient>
  </defs>
</svg>
