<?xml version="1.0" encoding="UTF-8" standalone="no"?>
<svg xmlns:ffdec="https://www.free-decompiler.com/flash" xmlns:xlink="http://www.w3.org/1999/xlink" ffdec:objectType="shape" height="119.35px" width="87.2px" xmlns="http://www.w3.org/2000/svg">
  <g transform="matrix(1.0, 0.0, 0.0, 1.0, 47.55, 37.3)">
    <path d="M10.0 76.45 Q0.7 87.65 -10.0 76.45 -2.75 55.2 -4.4 18.0 -2.45 20.1 0.0 20.1 2.45 20.1 4.4 18.0 2.75 55.2 10.0 76.45" fill="url(#gradient0)" fill-rule="evenodd" stroke="none"/>
    <path d="M36.15 -5.3 Q36.15 7.95 26.75 17.3 17.35 26.7 4.15 26.7 -9.1 26.7 -18.55 17.3 -27.9 7.95 -27.85 -5.3 -27.9 -18.55 -18.55 -27.95 -9.1 -37.3 4.15 -37.3 17.35 -37.3 26.75 -27.95 36.15 -18.55 36.15 -5.3 M20.15 -5.3 Q20.15 -11.9 15.45 -16.6 10.75 -21.3 4.15 -21.3 -2.5 -21.3 -7.2 -16.6 -11.9 -11.9 -11.85 -5.3 -11.9 1.3 -7.2 6.0 -2.5 10.7 4.15 10.7 10.75 10.7 15.45 6.0 20.15 1.3 20.15 -5.3" fill="#80ff30" fill-opacity="0.2509804" fill-rule="evenodd" stroke="none"/>
    <path d="M20.15 -5.3 Q20.15 1.3 15.45 6.0 10.75 10.7 4.15 10.7 -2.5 10.7 -7.2 6.0 -11.9 1.3 -11.85 -5.3 -11.9 -11.9 -7.2 -16.6 -2.5 -21.3 4.15 -21.3 10.75 -21.3 15.45 -16.6 20.15 -11.9 20.15 -5.3" fill="#80ff30" fill-opacity="0.6" fill-rule="evenodd" stroke="none"/>
    <path d="M30.25 -9.15 Q39.65 0.25 39.65 13.5 39.65 26.75 30.25 36.1 20.9 45.5 7.65 45.5 -5.6 45.5 -15.0 36.1 -24.35 26.75 -24.35 13.5 -24.35 0.25 -15.0 -9.15 -5.6 -18.5 7.65 -18.5 20.9 -18.5 30.25 -9.15 M23.65 13.5 Q23.65 6.9 18.95 2.2 14.25 -2.5 7.65 -2.5 1.0 -2.5 -3.7 2.2 -8.35 6.9 -8.35 13.5 -8.35 20.1 -3.7 24.8 1.0 29.5 7.65 29.5 14.25 29.5 18.95 24.8 23.65 20.1 23.65 13.5" fill="#ffccff" fill-opacity="0.2509804" fill-rule="evenodd" stroke="none"/>
    <path d="M23.65 13.5 Q23.65 20.1 18.95 24.8 14.25 29.5 7.65 29.5 1.0 29.5 -3.7 24.8 -8.35 20.1 -8.35 13.5 -8.35 6.9 -3.7 2.2 1.0 -2.5 7.65 -2.5 14.25 -2.5 18.95 2.2 23.65 6.9 23.65 13.5" fill="#ffccff" fill-opacity="0.6" fill-rule="evenodd" stroke="none"/>
    <path d="M-15.55 -16.4 Q-2.3 -16.4 7.05 -7.05 16.45 2.35 16.45 15.6 16.45 28.85 7.05 38.2 -2.3 47.6 -15.55 47.6 -28.8 47.6 -38.2 38.2 -47.55 28.85 -47.55 15.6 -47.55 2.35 -38.2 -7.05 -28.8 -16.4 -15.55 -16.4 M-15.55 31.6 Q-8.95 31.6 -4.25 26.9 0.45 22.2 0.45 15.6 0.45 9.0 -4.25 4.3 -8.95 -0.4 -15.55 -0.4 -22.2 -0.4 -26.9 4.3 -31.55 9.0 -31.55 15.6 -31.55 22.2 -26.9 26.9 -22.2 31.6 -15.55 31.6" fill="#ffff00" fill-opacity="0.2509804" fill-rule="evenodd" stroke="none"/>
    <path d="M-15.55 31.6 Q-22.2 31.6 -26.9 26.9 -31.55 22.2 -31.55 15.6 -31.55 9.0 -26.9 4.3 -22.2 -0.4 -15.55 -0.4 -8.95 -0.4 -4.25 4.3 0.45 9.0 0.45 15.6 0.45 22.2 -4.25 26.9 -8.95 31.6 -15.55 31.6" fill="#ffff00" fill-opacity="0.6" fill-rule="evenodd" stroke="none"/>
  </g>
  <defs>
    <linearGradient gradientTransform="matrix(0.0122, 0.0, 0.0, 0.0357, 0.0, 47.2)" gradientUnits="userSpaceOnUse" id="gradient0" spreadMethod="pad" x1="-819.2" x2="819.2">
      <stop offset="0.0" stop-color="#804000"/>
      <stop offset="0.2" stop-color="#996600"/>
      <stop offset="0.47843137254901963" stop-color="#ffcc00"/>
      <stop offset="0.5725490196078431" stop-color="#ffcc00"/>
      <stop offset="0.803921568627451" stop-color="#996600"/>
      <stop offset="1.0" stop-color="#804000"/>
    </linearGradient>
  </defs>
</svg>
