<?xml version="1.0" encoding="UTF-8" standalone="no"?>
<svg xmlns:ffdec="https://www.free-decompiler.com/flash" xmlns:xlink="http://www.w3.org/1999/xlink" ffdec:objectType="shape" height="214.65px" width="117.1px" xmlns="http://www.w3.org/2000/svg">
  <g transform="matrix(1.0, 0.0, 0.0, 1.0, 285.45, 156.1)">
    <path d="M-233.9 -156.1 L-233.85 -156.0 -233.9 -156.1" fill="#000000" fill-opacity="0.5019608" fill-rule="evenodd" stroke="none"/>
    <path d="M-242.6 -83.0 L-242.55 -82.75 -242.35 -82.9 -242.45 -83.0 -242.6 -83.0 M-285.35 -115.2 Q-285.85 -117.65 -284.15 -117.2 L-278.9 -110.0 -279.4 -111.5 Q-280.55 -115.55 -279.85 -117.15 L-284.65 -125.85 Q-284.35 -127.5 -283.4 -126.8 L-278.6 -118.2 -278.0 -118.25 -277.85 -118.25 -277.75 -118.4 -277.6 -118.45 -277.55 -118.45 -277.4 -118.35 -277.25 -118.2 Q-267.55 -117.35 -256.0 -103.55 L-255.85 -103.35 -255.8 -103.4 -255.85 -103.35 -253.85 -100.85 Q-248.05 -101.4 -242.65 -83.0 L-242.4 -83.2 -242.35 -82.95 -238.5 -85.9 -237.3 -84.2 -235.55 -85.45 -228.55 -71.3 -218.35 -63.35 -207.75 -65.3 -202.15 -51.25 -203.85 -34.0 Q-202.9 -30.65 -202.25 -26.95 -190.65 -24.5 -172.65 -24.15 L-168.35 -16.65 Q-207.75 -9.3 -209.25 -2.8 L-208.7 -0.95 -212.75 -5.15 -213.95 -1.0 Q-217.2 -7.05 -220.25 0.45 L-217.05 6.85 -217.05 7.7 -216.85 7.8 -216.8 8.0 -216.85 8.4 -216.8 8.45 -216.6 8.45 -216.45 8.6 -216.4 8.9 Q-213.55 11.05 -213.35 18.2 -213.2 25.8 -218.3 30.2 -223.45 34.55 -225.1 31.5 L-222.5 36.55 Q-226.15 47.0 -230.95 55.85 -233.65 60.8 -236.5 56.75 L-241.25 50.0 Q-243.9 46.25 -243.8 40.55 L-243.45 11.55 -260.75 -14.2 -260.8 -14.3 -260.85 -14.4 -260.6 -15.2 -259.75 -16.1 -258.75 -16.6 Q-258.35 -16.7 -258.25 -16.4 L-243.35 6.95 -245.15 -0.95 -248.5 -5.0 Q-257.75 -16.45 -261.4 -23.7 -263.3 -27.4 -263.75 -30.0 L-263.8 -30.1 -263.55 -30.9 -266.05 -36.45 -260.95 -47.0 -256.4 -50.5 -260.4 -68.15 Q-267.75 -81.3 -273.7 -96.05 L-279.0 -102.8 -278.25 -104.6 -285.35 -115.2" fill="#000000" fill-opacity="0.33333334" fill-rule="evenodd" stroke="none"/>
  </g>
</svg>
