<?xml version="1.0" encoding="UTF-8" standalone="no"?>
<svg xmlns:ffdec="https://www.free-decompiler.com/flash" xmlns:xlink="http://www.w3.org/1999/xlink" ffdec:objectType="shape" height="119.85px" width="262.75px" xmlns="http://www.w3.org/2000/svg">
  <g transform="matrix(1.0, 0.0, 0.0, 1.0, -12.7, -6.55)">
    <path d="M253.9 90.65 L255.65 90.95 256.55 91.75 Q258.95 94.25 259.95 97.65 L260.35 98.4 Q260.7 98.75 261.15 98.8 L270.45 99.85 Q275.1 104.0 275.4 110.25 275.85 119.1 268.5 123.2 264.4 124.75 259.85 123.75 L257.4 123.2 Q237.7 132.85 226.45 113.6 L225.8 112.8 225.7 112.05 225.45 106.8 Q225.4 105.65 225.8 104.6 L226.4 103.95 Q228.6 102.15 231.3 100.85 235.05 95.95 240.8 92.7 243.5 91.15 246.05 90.45 L253.9 90.65" fill="url(#gradient0)" fill-rule="evenodd" stroke="none"/>
    <path d="M104.1 39.05 L104.3 39.25 Q137.95 40.0 153.1 65.15 156.2 70.2 151.4 73.6 147.3 76.55 141.85 77.25 140.1 77.45 138.75 78.35 138.95 86.65 131.15 91.75 126.9 94.5 122.6 95.2 124.9 105.8 112.0 108.0 86.8 112.25 75.0 94.55 53.65 101.0 37.15 89.2 31.2 84.95 32.7 78.45 11.1 69.25 12.8 49.95 13.05 47.35 15.75 45.85 29.5 38.45 43.2 42.9 45.65 41.0 49.75 40.1 L59.65 39.8 Q69.1 29.6 85.7 27.35 L87.75 27.05 Q98.55 29.45 104.1 39.05" fill="url(#gradient1)" fill-rule="evenodd" stroke="none"/>
    <path d="M254.9 37.25 Q243.8 43.85 231.25 42.05 215.45 57.8 196.45 44.3 173.55 47.75 171.6 27.6 171.4 25.4 172.05 23.15 181.7 6.4 201.8 9.55 L202.75 10.35 204.4 11.7 205.85 12.6 Q208.15 11.9 210.5 10.55 215.65 7.5 221.35 7.05 232.15 5.05 240.65 10.85 L241.65 11.6 Q244.75 19.4 251.4 25.15 257.2 30.2 254.9 37.25" fill="url(#gradient2)" fill-rule="evenodd" stroke="none"/>
  </g>
  <defs>
    <radialGradient cx="0" cy="0" gradientTransform="matrix(0.0, 0.0244, -0.0315, 0.0, 250.45, 108.45)" gradientUnits="userSpaceOnUse" id="gradient0" r="819.2" spreadMethod="pad">
      <stop offset="0.0" stop-color="#ffffff"/>
      <stop offset="1.0" stop-color="#ffffff" stop-opacity="0.0"/>
    </radialGradient>
    <radialGradient cx="0" cy="0" gradientTransform="matrix(0.0, 0.0542, -0.0865, 0.0, 83.5, 67.95)" gradientUnits="userSpaceOnUse" id="gradient1" r="819.2" spreadMethod="pad">
      <stop offset="0.0" stop-color="#ffffff"/>
      <stop offset="1.0" stop-color="#ffffff" stop-opacity="0.0"/>
    </radialGradient>
    <radialGradient cx="0" cy="0" gradientTransform="matrix(0.0, 0.0259, -0.0514, 0.0, 213.55, 28.55)" gradientUnits="userSpaceOnUse" id="gradient2" r="819.2" spreadMethod="pad">
      <stop offset="0.0" stop-color="#ffffff"/>
      <stop offset="1.0" stop-color="#ffffff" stop-opacity="0.0"/>
    </radialGradient>
  </defs>
</svg>
