<?xml version="1.0" encoding="UTF-8" standalone="no"?>
<svg xmlns:ffdec="https://www.free-decompiler.com/flash" xmlns:xlink="http://www.w3.org/1999/xlink" ffdec:objectType="shape" height="8.0px" width="8.25px" xmlns="http://www.w3.org/2000/svg">
  <g transform="matrix(1.0, 0.0, 0.0, 1.0, 4.25, 4.0)">
    <path d="M4.0 0.0 Q4.0 1.6 2.8 2.8 1.65 4.0 0.0 4.0 -1.7 4.0 -2.85 2.8 -4.05 1.6 -4.0 0.0 -4.05 -1.65 -2.85 -2.85 -1.7 -4.05 0.0 -4.0 1.65 -4.05 2.8 -2.85 4.0 -1.65 4.0 0.0 M3.1 -1.55 Q1.3 -1.3 0.75 0.65 1.3 -1.3 3.1 -1.55 M1.25 3.25 Q1.65 2.6 1.3 2.0 L0.5 0.8 Q-0.25 -0.05 -1.2 -0.3 -0.25 -0.05 0.5 0.8 L1.3 2.0 Q1.65 2.6 1.25 3.25 M-0.15 -3.35 Q0.25 -2.25 -0.45 -1.15 L-1.2 -0.3 -3.75 -0.25 -1.2 -0.3 -0.45 -1.15 Q0.25 -2.25 -0.15 -3.35 M0.5 0.8 Q-1.3 1.4 -1.95 2.75 -1.3 1.4 0.5 0.8" fill="url(#gradient0)" fill-rule="evenodd" stroke="none"/>
    <path d="M-3.75 -0.25 L-1.2 -0.3 -0.45 -1.15 Q0.25 -2.25 -0.15 -3.35" fill="none" stroke="#000000" stroke-linecap="round" stroke-linejoin="round" stroke-width="1.0"/>
    <path d="M-1.2 -0.3 Q-0.25 -0.05 0.5 0.8 L1.3 2.0 Q1.65 2.6 1.25 3.25 M0.75 0.65 Q1.3 -1.3 3.1 -1.55 M-1.95 2.75 Q-1.3 1.4 0.5 0.8" fill="none" stroke="#000000" stroke-linecap="round" stroke-linejoin="round" stroke-width="1.0"/>
    <path d="M-0.15 -1.75 Q1.2 -1.85 1.7 -0.9 2.0 -0.25 1.85 0.8 L1.45 1.2 0.6 1.8 Q-0.7 2.0 -1.1 1.05 L-1.3 0.65 Q-1.75 -0.15 -1.75 -0.95 L-1.55 -1.1 Q-0.9 -1.6 -0.15 -1.75" fill="#aaaaaa" fill-rule="evenodd" stroke="none"/>
    <path d="M-0.15 -1.75 Q1.2 -1.85 1.7 -0.9 2.0 -0.25 1.85 0.8 L1.45 1.2 0.6 1.8 Q-0.7 2.0 -1.1 1.05 L-1.3 0.65 Q-1.75 -0.15 -1.75 -0.95 L-1.55 -1.1 Q-0.9 -1.6 -0.15 -1.75 Z" fill="none" stroke="#000000" stroke-linecap="round" stroke-linejoin="round" stroke-width="1.0"/>
  </g>
  <defs>
    <radialGradient cx="0" cy="0" gradientTransform="matrix(0.0051, 0.0, 0.0, 0.0051, 0.0, 0.0)" gradientUnits="userSpaceOnUse" id="gradient0" r="819.2" spreadMethod="pad">
      <stop offset="0.0" stop-color="#6e7575"/>
      <stop offset="1.0" stop-color="#313434"/>
    </radialGradient>
  </defs>
</svg>
