<?xml version="1.0" encoding="UTF-8" standalone="no"?>
<svg xmlns:ffdec="https://www.free-decompiler.com/flash" xmlns:xlink="http://www.w3.org/1999/xlink" ffdec:objectType="shape" height="35.9px" width="26.7px" xmlns="http://www.w3.org/2000/svg">
  <g transform="matrix(1.0, 0.0, 0.0, 1.0, 11.5, 15.1)">
    <path d="M7.85 -10.0 L9.4 -9.05 9.4 -10.8 9.5 -11.1 9.75 -11.25 Q11.9 -11.9 13.7 -10.75 L13.65 -10.8 14.7 -9.8 14.75 -9.8 14.95 -8.8 14.9 -8.65 14.9 -8.25 15.0 14.45 15.05 14.55 Q15.4 16.75 14.9 18.75 L14.45 20.15 14.25 20.35 13.75 20.7 13.6 20.8 13.35 20.8 Q11.8 20.5 10.65 19.35 L9.7 18.1 8.45 19.4 8.15 19.55 7.8 19.5 7.6 19.25 7.3 18.5 6.7 19.35 6.45 19.55 6.15 19.55 5.9 19.4 4.95 18.2 4.3 19.4 4.1 19.6 3.8 19.65 3.55 19.55 2.4 18.65 1.0 19.5 0.65 19.55 0.35 19.4 -0.6 18.3 -1.8 19.4 -2.15 19.55 -2.5 19.4 -3.3 18.6 -3.65 19.65 -3.85 19.95 -4.2 20.0 Q-6.05 19.75 -7.25 18.4 -8.15 17.5 -8.3 16.35 L-8.5 14.65 -7.85 -8.15 -8.0 -10.9 -7.9 -11.2 -7.65 -11.4 -5.85 -12.05 -5.65 -12.1 -5.45 -12.0 -4.7 -11.55 Q-3.45 -10.6 -3.05 -9.25 L-3.05 -9.2 -2.85 -8.35 -2.85 -8.3 -0.5 -11.3 -0.25 -11.45 0.05 -11.45 0.3 -11.3 1.45 -10.05 1.9 -10.05 3.05 -11.3 3.35 -11.45 3.65 -11.35 3.9 -11.1 4.25 -10.15 4.4 -10.25 4.45 -10.25 7.85 -10.0" fill="#000000" fill-opacity="0.5019608" fill-rule="evenodd" stroke="none"/>
    <path d="M6.9 -10.65 L6.9 -13.8 Q8.8 -14.35 10.4 -13.35 L11.3 -12.55 11.9 -11.25 6.9 -10.65 M11.55 11.6 Q11.9 13.7 11.4 15.6 L10.95 16.95 10.45 17.3 Q9.05 17.05 8.0 16.0 L6.75 14.3 6.5 11.6 11.55 11.6 M-6.5 14.7 L-7.15 16.5 Q-8.8 16.3 -9.9 15.05 -10.65 14.25 -10.8 13.25 L-11.0 11.6 -6.25 11.5 -6.5 14.7 M-10.35 -11.2 L-10.5 -13.95 -8.7 -14.6 -8.0 -14.15 Q-6.9 -13.3 -6.55 -12.1 L-6.35 -11.25 -10.35 -11.2" fill="#52565e" fill-rule="evenodd" stroke="none"/>
    <path d="M11.9 -11.25 L11.55 11.6 6.5 11.6 6.9 -10.65 11.9 -11.25 M-11.0 11.6 L-10.35 -11.2 -6.35 -11.25 -6.35 -9.85 -6.25 11.5 -11.0 11.6" fill="#8c825c" fill-rule="evenodd" stroke="none"/>
    <path d="M6.75 14.3 L5.05 16.05 4.4 14.4 3.25 16.05 1.85 14.3 0.85 16.15 -0.55 15.0 -2.3 16.05 -3.6 14.55 -5.15 16.05 -6.5 14.7 -6.25 11.5 -6.35 -9.85 -3.1 -14.0 -1.8 -12.55 -0.9 -12.55 0.4 -13.95 0.95 -12.45 1.6 -12.8 4.65 -12.55 Q6.15 -11.95 6.9 -10.65 L6.5 11.6 6.75 14.3" fill="url(#gradient0)" fill-rule="evenodd" stroke="none"/>
    <path d="M6.9 -10.65 L6.9 -13.8 Q8.8 -14.35 10.4 -13.35 L11.3 -12.55 11.9 -11.25 11.55 11.6 Q11.9 13.7 11.4 15.6 L10.95 16.95 10.45 17.3 Q9.05 17.05 8.0 16.0 L6.75 14.3 5.05 16.05 4.4 14.4 3.25 16.05 1.85 14.3 0.85 16.15 -0.55 15.0 -2.3 16.05 -3.6 14.55 -5.15 16.05 -6.5 14.7 -7.15 16.5 Q-8.8 16.3 -9.9 15.05 -10.65 14.25 -10.8 13.25 L-11.0 11.6 -10.35 -11.2 -10.5 -13.95 -8.7 -14.6 -8.0 -14.15 Q-6.9 -13.3 -6.55 -12.1 L-6.35 -11.25 -6.35 -9.85 -3.1 -14.0 -1.8 -12.55 -0.9 -12.55 0.4 -13.95 0.95 -12.45 1.6 -12.8 4.65 -12.55 Q6.15 -11.95 6.9 -10.65 L11.9 -11.25 M6.5 11.6 L11.55 11.6 M6.5 11.6 L6.75 14.3 M6.9 -10.65 L6.5 11.6 M-6.35 -11.25 L-10.35 -11.2 M-6.5 14.7 L-6.25 11.5 -11.0 11.6 M-6.25 11.5 L-6.35 -9.85" fill="none" stroke="#000000" stroke-linecap="round" stroke-linejoin="round" stroke-width="1.0"/>
    <path d="M0.75 -2.1 L1.9 -3.15 2.4 -3.15 2.9 -2.85 4.85 -3.35 Q7.3 -1.65 8.1 1.3 8.55 2.95 8.3 4.7 L4.1 9.05 3.25 8.0 Q-0.25 3.6 0.75 -2.1" fill="#111111" fill-rule="evenodd" stroke="none"/>
    <path d="M4.1 9.05 L8.3 4.7 Q8.55 2.95 8.1 1.3 7.3 -1.65 4.85 -3.35 L2.9 -2.85 2.4 -3.15 1.9 -3.15 0.75 -2.1" fill="none" stroke="#000000" stroke-linecap="round" stroke-linejoin="round" stroke-width="1.0"/>
    <path d="M0.75 -2.1 Q-0.25 3.6 3.25 8.0 L4.1 9.05" fill="none" stroke="#000000" stroke-linecap="round" stroke-linejoin="round" stroke-width="1.0"/>
  </g>
  <defs>
    <radialGradient cx="0" cy="0" gradientTransform="matrix(0.019, 0.0, 0.0, 0.0197, 0.75, 1.15)" gradientUnits="userSpaceOnUse" id="gradient0" r="819.2" spreadMethod="pad">
      <stop offset="0.0" stop-color="#b7b798"/>
      <stop offset="1.0" stop-color="#686a38"/>
    </radialGradient>
  </defs>
</svg>
