<?xml version="1.0" encoding="UTF-8" standalone="no"?>
<svg xmlns:ffdec="https://www.free-decompiler.com/flash" xmlns:xlink="http://www.w3.org/1999/xlink" ffdec:objectType="shape" height="27.8px" width="10.95px" xmlns="http://www.w3.org/2000/svg">
  <g transform="matrix(1.0, 0.0, 0.0, 1.0, 5.65, 9.35)">
    <path d="M-3.0 3.6 Q-3.6 3.85 -4.1 3.4 -4.95 2.7 -5.1 1.55 -5.4 -1.3 -3.85 -4.4 -1.95 -4.25 -1.75 -5.95 -1.55 -9.7 1.85 -8.6 5.2 -7.5 4.75 -4.4 3.8 -2.75 3.85 -1.05 3.85 0.1 4.2 1.2 L4.2 1.4 Q4.6 3.15 2.9 2.5 -0.2 0.8 -2.5 3.2 L-3.0 3.6" fill="url(#gradient0)" fill-rule="evenodd" stroke="none"/>
    <path d="M-3.0 3.6 L-2.5 3.2 Q-0.2 0.8 2.9 2.5 4.35 4.5 4.0 6.55 L2.6 5.95 1.75 5.65 Q-1.05 4.9 -2.3 7.2 -3.55 5.45 -3.0 3.6" fill="url(#gradient1)" fill-rule="evenodd" stroke="none"/>
    <path d="M2.6 5.95 Q4.35 8.1 3.3 10.1 1.1 7.95 -1.0 10.1 -1.05 8.3 -2.3 7.2 -1.05 4.9 1.75 5.65 L2.6 5.95" fill="url(#gradient2)" fill-rule="evenodd" stroke="none"/>
    <path d="M2.65 17.55 L2.6 17.8 1.8 17.9 Q-0.8 17.4 -1.2 15.85 2.4 14.5 2.7 17.35 L2.65 17.55" fill="#000000" fill-rule="evenodd" stroke="none"/>
    <path d="M3.3 10.1 L3.35 12.85 3.15 15.75 2.65 17.55 2.7 17.35 Q2.4 14.5 -1.2 15.85 -0.75 13.1 -1.0 10.1 1.1 7.95 3.3 10.1" fill="url(#gradient3)" fill-rule="evenodd" stroke="none"/>
    <path d="M2.9 2.5 Q4.6 3.15 4.2 1.4 L4.2 1.2 Q3.85 0.1 3.85 -1.05 3.8 -2.75 4.75 -4.4 5.2 -7.5 1.85 -8.6 -1.55 -9.7 -1.75 -5.95 -1.95 -4.25 -3.85 -4.4 -5.4 -1.3 -5.1 1.55 -4.95 2.7 -4.1 3.4 -3.6 3.85 -3.0 3.6 L-2.5 3.2 Q-0.2 0.8 2.9 2.5 4.35 4.5 4.0 6.55 L2.6 5.95 Q4.35 8.1 3.3 10.1 L3.35 12.85 3.15 15.75 2.65 17.55 2.6 17.8 1.8 17.9 Q-0.8 17.4 -1.2 15.85 -0.75 13.1 -1.0 10.1 -1.05 8.3 -2.3 7.2 -3.55 5.45 -3.0 3.6 M2.6 5.95 L1.75 5.65 Q-1.05 4.9 -2.3 7.2 M-1.2 15.85 Q2.4 14.5 2.7 17.35 L2.65 17.55 M3.3 10.1 Q1.1 7.95 -1.0 10.1" fill="none" stroke="#000000" stroke-linecap="round" stroke-linejoin="round" stroke-width="1.0"/>
  </g>
  <defs>
    <linearGradient gradientTransform="matrix(0.0054, 0.0, 0.0, 0.0076, 0.15, -2.65)" gradientUnits="userSpaceOnUse" id="gradient0" spreadMethod="pad" x1="-819.2" x2="819.2">
      <stop offset="0.0" stop-color="#959672"/>
      <stop offset="0.47058823529411764" stop-color="#ccd3d3"/>
      <stop offset="1.0" stop-color="#485248"/>
    </linearGradient>
    <linearGradient gradientTransform="matrix(0.0035, -2.0E-4, 2.0E-4, 0.0032, 0.65, 4.35)" gradientUnits="userSpaceOnUse" id="gradient1" spreadMethod="pad" x1="-819.2" x2="819.2">
      <stop offset="0.0" stop-color="#17191b"/>
      <stop offset="0.47058823529411764" stop-color="#ccd3d3"/>
      <stop offset="1.0" stop-color="#485248"/>
    </linearGradient>
    <linearGradient gradientTransform="matrix(0.002, -1.0E-4, 1.0E-4, 0.0029, 0.9, 7.8)" gradientUnits="userSpaceOnUse" id="gradient2" spreadMethod="pad" x1="-819.2" x2="819.2">
      <stop offset="0.0" stop-color="#17191b"/>
      <stop offset="0.47058823529411764" stop-color="#ccd3d3"/>
      <stop offset="1.0" stop-color="#485248"/>
    </linearGradient>
    <linearGradient gradientTransform="matrix(0.0017, -1.0E-4, 2.0E-4, 0.0053, 1.2, 13.25)" gradientUnits="userSpaceOnUse" id="gradient3" spreadMethod="pad" x1="-819.2" x2="819.2">
      <stop offset="0.0" stop-color="#17191b"/>
      <stop offset="0.47058823529411764" stop-color="#ccd3d3"/>
      <stop offset="1.0" stop-color="#485248"/>
    </linearGradient>
  </defs>
</svg>
