<?xml version="1.0" encoding="UTF-8" standalone="no"?>
<svg xmlns:ffdec="https://www.free-decompiler.com/flash" xmlns:xlink="http://www.w3.org/1999/xlink" ffdec:objectType="shape" height="25.85px" width="35.3px" xmlns="http://www.w3.org/2000/svg">
  <g transform="matrix(1.0, 0.0, 0.0, 1.0, 17.8, 12.0)">
    <path d="M16.8 -9.05 L17.1 -8.9 17.25 -8.6 17.5 -7.35 17.45 -7.05 17.0 -6.05 Q16.45 -4.65 15.1 -4.1 L16.2 -3.0 16.35 -2.7 16.3 -2.4 16.05 -2.2 15.3 -1.9 16.15 -1.3 16.35 -1.05 16.35 -0.75 16.2 -0.5 15.0 0.45 16.2 1.15 16.4 1.35 16.45 1.65 16.35 1.9 15.5 2.75 16.3 4.45 16.35 4.75 16.2 5.05 15.1 6.05 16.2 7.15 16.35 7.5 16.25 7.85 15.4 8.75 16.5 9.2 16.75 9.4 16.8 9.65 16.65 10.5 Q15.45 14.15 11.4 13.85 L-14.1 13.35 -14.45 13.25 -14.65 12.9 -14.75 11.25 Q-14.7 9.6 -13.85 8.5 L-13.65 8.35 -13.45 8.3 -11.5 8.25 -14.5 5.9 -14.65 5.65 -14.65 5.35 -14.5 5.1 -13.25 4.1 -13.25 3.6 -14.5 2.3 -14.65 2.0 -14.55 1.7 -14.3 1.5 -13.5 1.2 -14.7 -0.3 -14.8 -0.6 -14.65 -0.9 -11.95 -4.05 -14.0 -4.05 -14.3 -4.15 -14.5 -4.5 -14.55 -5.4 Q-14.5 -8.7 -11.7 -9.9 L-11.55 -9.95 -11.5 -10.0 -11.4 -10.0 -11.35 -10.0 -6.8 -9.55 Q2.25 -8.95 11.35 -9.7 L11.45 -9.7 16.8 -9.05" fill="#000000" fill-opacity="0.5019608" fill-rule="evenodd" stroke="none"/>
    <path d="M8.4 -6.15 L8.4 -11.2 13.75 -10.55 14.0 -9.3 13.5 -8.25 Q12.9 -6.65 11.1 -6.4 L8.4 -6.15 M-14.45 -11.5 L-13.85 -6.55 -17.0 -6.55 -17.05 -7.4 Q-17.0 -10.4 -14.45 -11.5 M11.5 6.9 L13.3 7.65 13.15 8.35 Q12.1 11.65 8.4 11.35 L8.3 6.65 11.5 6.9 M-14.4 10.75 L-17.15 10.85 -17.25 9.25 Q-17.2 7.8 -16.45 6.8 L-14.45 6.75 -14.4 10.75" fill="#52565e" fill-rule="evenodd" stroke="none"/>
    <path d="M8.4 -11.2 L8.4 -6.15 -13.85 -6.55 -14.45 -11.5 -9.85 -11.05 Q-0.75 -10.45 8.4 -11.2 M8.3 6.65 L8.4 11.35 -14.4 10.75 -14.45 6.75 -13.05 6.75 8.3 6.65" fill="#8c825c" fill-rule="evenodd" stroke="none"/>
    <path d="M-13.85 -6.55 L8.4 -6.15 11.1 -6.4 12.85 -4.65 11.2 -4.0 12.85 -2.9 11.1 -1.5 12.95 -0.45 11.9 0.65 12.85 2.65 11.35 4.0 12.85 5.5 11.5 6.9 8.3 6.65 -13.05 6.75 -17.2 3.5 -15.75 2.3 -15.75 1.4 -17.15 -0.05 -15.65 -0.55 -17.3 -2.6 -13.85 -6.55" fill="url(#gradient0)" fill-rule="evenodd" stroke="none"/>
    <path d="M8.4 -6.15 L8.4 -11.2 Q-0.75 -10.45 -9.85 -11.05 L-14.45 -11.5 -13.85 -6.55 8.4 -6.15 11.1 -6.4 Q12.9 -6.65 13.5 -8.25 L14.0 -9.3 13.75 -10.55 8.4 -11.2 M11.5 6.9 L12.85 5.5 11.35 4.0 12.85 2.65 11.9 0.65 12.95 -0.45 11.1 -1.5 12.85 -2.9 11.2 -4.0 12.85 -4.65 11.1 -6.4 M8.4 11.35 Q12.1 11.65 13.15 8.35 L13.3 7.65 11.5 6.9 8.3 6.65 8.4 11.35 -14.4 10.75 -17.15 10.85 -17.25 9.25 Q-17.2 7.8 -16.45 6.8 L-14.45 6.75 -13.05 6.75 -17.2 3.5 -15.75 2.3 -15.75 1.4 -17.15 -0.05 -15.65 -0.55 -17.3 -2.6 -13.85 -6.55 -17.0 -6.55 -17.05 -7.4 Q-17.0 -10.4 -14.45 -11.5 M-14.4 10.75 L-14.45 6.75 M8.3 6.65 L-13.05 6.75" fill="none" stroke="#000000" stroke-linecap="round" stroke-linejoin="round" stroke-width="1.0"/>
    <path d="M1.85 -7.7 L3.05 -6.75 5.75 -3.65 Q1.05 1.55 -5.45 -1.15 L-6.35 -1.5 -6.05 -2.55 -6.7 -4.45 Q-3.25 -8.3 1.85 -7.7" fill="#111111" fill-rule="evenodd" stroke="none"/>
    <path d="M1.85 -7.7 Q-3.25 -8.3 -6.7 -4.45 L-6.05 -2.55 -6.35 -1.5 -5.45 -1.15 Q1.05 1.55 5.75 -3.65 L3.05 -6.75 1.85 -7.7 Z" fill="none" stroke="#000000" stroke-linecap="round" stroke-linejoin="round" stroke-width="1.0"/>
  </g>
  <defs>
    <radialGradient cx="0" cy="0" gradientTransform="matrix(0.0, -0.019, 0.0197, 0.0, -2.05, -0.4)" gradientUnits="userSpaceOnUse" id="gradient0" r="819.2" spreadMethod="pad">
      <stop offset="0.0" stop-color="#b7b798"/>
      <stop offset="1.0" stop-color="#686a38"/>
    </radialGradient>
  </defs>
</svg>
