<?xml version="1.0" encoding="UTF-8" standalone="no"?>
<svg xmlns:ffdec="https://www.free-decompiler.com/flash" xmlns:xlink="http://www.w3.org/1999/xlink" ffdec:objectType="shape" height="8.1px" width="6.65px" xmlns="http://www.w3.org/2000/svg">
  <g transform="matrix(1.0, 0.0, 0.0, 1.0, 3.3, -10.65)">
    <path d="M0.3 12.35 Q0.35 13.2 0.75 13.55 L1.95 12.85 2.0 14.45 Q1.9 15.25 2.15 15.95 L3.3 15.75 Q3.6 16.9 2.6 17.25 L2.35 17.55 Q2.0 18.45 1.15 18.65 L0.4 18.75 0.05 18.75 -0.3 18.75 -1.05 18.65 Q-1.9 18.45 -2.25 17.55 L-2.55 17.25 Q-3.55 16.9 -3.25 15.75 L-2.1 15.95 Q-1.85 15.25 -1.95 14.45 L-1.85 12.85 Q-1.3 13.15 -0.65 13.55 -0.3 13.2 -0.25 12.35 L0.0 10.65 0.3 12.35" fill="url(#gradient0)" fill-rule="evenodd" stroke="none"/>
  </g>
  <defs>
    <radialGradient cx="0" cy="0" gradientTransform="matrix(0.0091, 0.0, 0.0, 0.0094, 0.1, 18.35)" gradientUnits="userSpaceOnUse" id="gradient0" r="819.2" spreadMethod="pad">
      <stop offset="0.0" stop-color="#ccffff" stop-opacity="0.8"/>
      <stop offset="1.0" stop-color="#66ccff" stop-opacity="0.8"/>
    </radialGradient>
  </defs>
</svg>
