<?xml version="1.0" encoding="UTF-8" standalone="no"?>
<svg xmlns:ffdec="https://www.free-decompiler.com/flash" xmlns:xlink="http://www.w3.org/1999/xlink" ffdec:objectType="shape" height="43.55px" width="28.45px" xmlns="http://www.w3.org/2000/svg">
  <g transform="matrix(1.0, 0.0, 0.0, 1.0, 12.35, 22.9)">
    <path d="M14.5 -14.9 L14.65 -14.95 15.0 -14.8 15.15 -14.45 16.1 13.95 15.9 17.85 15.8 17.55 15.75 17.5 15.9 17.85 15.4 17.85 12.15 20.3 10.6 19.35 8.65 18.15 8.5 17.8 8.4 14.45 5.1 17.75 4.85 17.9 4.55 17.85 -1.75 14.8 -1.9 17.9 -1.95 18.15 Q-3.5 20.5 -5.2 20.65 -6.9 20.85 -8.7 18.75 L-9.2 18.1 -9.3 17.8 -9.3 17.7 -9.35 14.2 -9.4 14.0 -9.35 13.8 -9.85 -14.65 -9.8 -14.85 -9.75 -14.95 -9.7 -14.95 -9.7 -15.0 Q-8.3 -17.75 -6.6 -17.8 -4.9 -18.0 -2.95 -15.3 L-2.9 -15.25 -2.65 -14.6 -2.65 -14.5 -2.4 -10.15 4.5 -15.65 8.6 -11.75 8.5 -14.65 Q11.25 -20.0 14.5 -14.9" fill="#000000" fill-opacity="0.5019608" fill-rule="evenodd" stroke="none"/>
    <path d="M6.0 -19.65 Q8.75 -25.05 12.05 -19.85 L12.15 -19.45 6.0 -19.65 M-11.85 -19.65 Q-9.3 -24.8 -5.85 -20.0 L-5.65 -19.45 -11.85 -19.65" fill="#989898" fill-rule="evenodd" stroke="none"/>
    <path d="M-5.35 -14.8 L2.0 -20.65 6.1 -16.75 6.15 2.85 6.25 8.4 2.25 12.4 -4.75 9.0 -4.75 8.95 -4.9 8.85 -5.15 -10.3 -5.15 -10.35 -5.35 -14.8" fill="#384048" fill-rule="evenodd" stroke="none"/>
    <path d="M13.1 8.95 L12.9 12.85 6.5 12.75 6.4 9.0 13.1 8.95 M-4.75 9.0 L-4.9 12.85 -11.3 12.75 -11.4 9.0 -4.9 8.95 -4.75 8.95 -4.75 9.0" fill="#706840" fill-rule="evenodd" stroke="none"/>
    <path d="M12.9 12.85 L9.65 15.3 6.5 12.75 12.9 12.85 M-4.9 12.85 Q-7.6 17.15 -10.85 13.4 L-11.3 12.75 -4.9 12.85" fill="#687070" fill-rule="evenodd" stroke="none"/>
    <path d="M-4.9 8.85 L-4.75 8.95 -4.9 8.95 -4.9 8.85" fill="url(#gradient0)" fill-rule="evenodd" stroke="none"/>
    <path d="M6.1 -16.75 L6.0 -19.65 12.15 -19.45 13.1 8.95 6.4 9.0 6.2 4.15 6.15 2.85 6.1 -16.75 M-11.4 9.0 L-11.85 -19.65 -5.65 -19.45 -5.4 -15.2 -5.35 -14.8 -5.15 -10.35 -5.15 -10.3 -4.9 8.85 -4.9 8.95 -11.4 9.0" fill="#908c69" fill-rule="evenodd" stroke="none"/>
    <path d="M-5.35 -14.8 L2.0 -20.65 6.1 -16.75 6.0 -19.65 Q8.75 -25.05 12.05 -19.85 L12.15 -19.45 13.1 8.95 12.9 12.85 9.65 15.3 6.5 12.75 6.4 9.0 6.2 4.15 M6.15 2.85 L6.25 8.4 2.25 12.4 -4.75 9.0 -4.9 12.85 Q-7.6 17.15 -10.85 13.4 L-11.3 12.75 -11.4 9.0 -11.85 -19.65 Q-9.3 -24.8 -5.85 -20.0 L-5.65 -19.45 -5.4 -15.2 M-5.35 -14.8 L-5.15 -10.35 M-5.15 -10.3 L-4.9 8.85 -4.75 8.95 -4.75 9.0 M6.0 -19.65 L12.15 -19.45 M12.9 12.85 L6.5 12.75 M13.1 8.95 L6.4 9.0 M6.1 -16.75 L6.15 2.85 M-5.65 -19.45 L-11.85 -19.65 M-4.9 8.95 L-4.75 8.95 M-11.4 9.0 L-4.9 8.95 M-4.9 12.85 L-11.3 12.75" fill="none" stroke="#000000" stroke-linecap="round" stroke-linejoin="round" stroke-width="1.0"/>
  </g>
  <defs>
    <linearGradient gradientTransform="matrix(0.0043, 0.0, 0.0, 0.0175, -8.3, -5.35)" gradientUnits="userSpaceOnUse" id="gradient0" spreadMethod="pad" x1="-819.2" x2="819.2">
      <stop offset="0.0" stop-color="#706840"/>
      <stop offset="1.0" stop-color="#a8a888"/>
    </linearGradient>
  </defs>
</svg>
