<?xml version="1.0" encoding="UTF-8" standalone="no"?>
<svg xmlns:ffdec="https://www.free-decompiler.com/flash" xmlns:xlink="http://www.w3.org/1999/xlink" ffdec:objectType="shape" height="59.5px" width="28.35px" xmlns="http://www.w3.org/2000/svg">
  <g transform="matrix(1.0, 0.0, 0.0, 1.0, 14.2, 16.1)">
    <path d="M6.6 7.55 L-6.6 7.55 -6.6 -7.55 6.6 -7.55 6.6 7.55" fill="#a8a888" fill-rule="evenodd" stroke="none"/>
    <path d="M3.1 15.85 L3.1 14.65 Q3.1 13.6 2.2 12.9 1.3 12.15 0.1 12.15 L0.0 12.15 Q-1.25 12.15 -2.1 12.9 -3.0 13.6 -3.0 14.65 L-3.0 15.8 -3.5 15.1 Q-4.0 14.2 -4.0 13.1 -4.0 11.4 -2.8 10.25 -1.65 9.05 0.05 9.1 1.75 9.05 2.95 10.25 4.15 11.4 4.15 13.1 4.15 14.2 3.65 15.1 L3.1 15.85 M11.45 15.85 L11.45 14.15 Q11.45 13.3 10.6 12.75 9.65 12.15 8.45 12.15 L8.4 12.15 Q7.15 12.15 6.25 12.75 5.35 13.3 5.4 14.15 L5.4 15.8 4.9 15.1 Q4.35 14.2 4.4 13.1 4.35 11.4 5.55 10.25 6.7 9.05 8.45 9.1 10.15 9.05 11.35 10.25 12.5 11.4 12.5 13.1 12.5 14.2 12.0 15.1 L11.45 15.85 M-11.85 15.1 Q-12.4 14.2 -12.35 13.1 -12.4 11.4 -11.2 10.25 -10.05 9.05 -8.3 9.1 -6.6 9.05 -5.4 10.25 -4.25 11.4 -4.25 13.1 -4.25 14.2 -4.75 15.1 L-5.25 15.8 -5.25 14.15 Q-5.25 13.3 -6.1 12.75 -7.0 12.15 -8.25 12.15 L-8.3 12.15 Q-9.55 12.15 -10.4 12.75 -11.3 13.3 -11.3 14.15 L-11.3 15.85 -11.85 15.1" fill="#000000" fill-rule="evenodd" stroke="none"/>
    <path d="M3.65 15.1 Q4.15 14.2 4.15 13.1 L4.4 13.1 Q4.35 14.2 4.9 15.1 L3.65 15.1 M-4.0 13.1 Q-4.0 14.2 -3.5 15.1 L-4.75 15.1 Q-4.25 14.2 -4.25 13.1 L-4.0 13.1" fill="url(#gradient0)" fill-rule="evenodd" stroke="none"/>
    <path d="M4.15 13.1 Q4.15 11.4 2.95 10.25 1.75 9.05 0.05 9.1 -1.65 9.05 -2.8 10.25 -4.0 11.4 -4.0 13.1 L-4.25 13.1 Q-4.25 11.4 -5.4 10.25 -6.6 9.05 -8.3 9.1 -10.05 9.05 -11.2 10.25 -12.4 11.4 -12.35 13.1 -12.4 14.2 -11.85 15.1 L-13.2 15.1 -13.2 -15.1 13.15 -15.1 13.15 15.1 12.0 15.1 Q12.5 14.2 12.5 13.1 12.5 11.4 11.35 10.25 10.15 9.05 8.45 9.1 6.7 9.05 5.55 10.25 4.35 11.4 4.4 13.1 L4.15 13.1 M6.6 7.55 L6.6 -7.55 -6.6 -7.55 -6.6 7.55 6.6 7.55" fill="#908c69" fill-rule="evenodd" stroke="none"/>
    <path d="M-3.0 15.8 L-3.0 14.65 Q-3.0 13.6 -2.1 12.9 -1.25 12.15 0.0 12.15 L0.1 12.15 Q1.3 12.15 2.2 12.9 3.1 13.6 3.1 14.65 L3.1 15.85 3.1 39.95 Q3.1 40.9 2.2 41.7 1.3 42.4 0.1 42.4 L0.0 42.4 Q-1.25 42.4 -2.1 41.7 -3.0 40.9 -3.0 39.95 L-3.0 15.8 M5.4 15.8 L5.4 14.15 Q5.35 13.3 6.25 12.75 7.15 12.15 8.4 12.15 L8.45 12.15 Q9.65 12.15 10.6 12.75 11.45 13.3 11.45 14.15 L11.45 15.85 11.45 34.4 Q11.45 35.15 10.6 35.8 9.65 36.35 8.45 36.35 L8.4 36.35 Q7.15 36.35 6.25 35.8 5.35 35.15 5.4 34.4 L5.4 15.8 M-11.3 15.85 L-11.3 14.15 Q-11.3 13.3 -10.4 12.75 -9.55 12.15 -8.3 12.15 L-8.25 12.15 Q-7.0 12.15 -6.1 12.75 -5.25 13.3 -5.25 14.15 L-5.25 15.8 -5.25 34.4 Q-5.25 35.15 -6.1 35.8 -7.0 36.35 -8.25 36.35 L-8.3 36.35 Q-9.55 36.35 -10.4 35.8 -11.3 35.15 -11.3 34.4 L-11.3 15.85" fill="#b3bbc0" fill-rule="evenodd" stroke="none"/>
    <path d="M4.9 15.1 L3.65 15.1 M-4.75 15.1 L-3.5 15.1" fill="none" stroke="#000000" stroke-linecap="round" stroke-linejoin="round" stroke-width="1.0"/>
    <path d="M-3.0 15.8 L-3.0 14.65 Q-3.0 13.6 -2.1 12.9 -1.25 12.15 0.0 12.15 L0.1 12.15 Q1.3 12.15 2.2 12.9 3.1 13.6 3.1 14.65 L3.1 15.85 3.1 39.95 Q3.1 40.9 2.2 41.7 1.3 42.4 0.1 42.4 L0.0 42.4 Q-1.25 42.4 -2.1 41.7 -3.0 40.9 -3.0 39.95 L-3.0 15.8 M5.4 15.8 L5.4 14.15 Q5.35 13.3 6.25 12.75 7.15 12.15 8.4 12.15 L8.45 12.15 Q9.65 12.15 10.6 12.75 11.45 13.3 11.45 14.15 L11.45 15.85 11.45 34.4 Q11.45 35.15 10.6 35.8 9.65 36.35 8.45 36.35 L8.4 36.35 Q7.15 36.35 6.25 35.8 5.35 35.15 5.4 34.4 L5.4 15.8 M12.0 15.1 L13.15 15.1 13.15 -15.1 -13.2 -15.1 -13.2 15.1 -11.85 15.1 M6.6 7.55 L-6.6 7.55 -6.6 -7.55 6.6 -7.55 6.6 7.55 M-5.25 15.8 L-5.25 14.15 Q-5.25 13.3 -6.1 12.75 -7.0 12.15 -8.25 12.15 L-8.3 12.15 Q-9.55 12.15 -10.4 12.75 -11.3 13.3 -11.3 14.15 L-11.3 15.85 -11.3 34.4 Q-11.3 35.15 -10.4 35.8 -9.55 36.35 -8.3 36.35 L-8.25 36.35 Q-7.0 36.35 -6.1 35.8 -5.25 35.15 -5.25 34.4 L-5.25 15.8 Z" fill="none" stroke="#000000" stroke-linecap="round" stroke-linejoin="round" stroke-width="2.0"/>
  </g>
  <defs>
    <linearGradient gradientTransform="matrix(0.0, -0.0184, 0.0161, 0.0, -0.05, 0.0)" gradientUnits="userSpaceOnUse" id="gradient0" spreadMethod="pad" x1="-819.2" x2="819.2">
      <stop offset="0.0" stop-color="#58502e"/>
      <stop offset="1.0" stop-color="#a8a888"/>
    </linearGradient>
  </defs>
</svg>
