<?xml version="1.0" encoding="UTF-8" standalone="no"?>
<svg xmlns:ffdec="https://www.free-decompiler.com/flash" xmlns:xlink="http://www.w3.org/1999/xlink" ffdec:objectType="shape" height="16.35px" width="8.0px" xmlns="http://www.w3.org/2000/svg">
  <g transform="matrix(1.0, 0.0, 0.0, 1.0, 4.0, 8.2)">
    <path d="M0.4 0.2 L0.0 0.15 -0.45 0.2 Q-5.2 0.25 -3.0 -8.15 L0.0 -5.2 3.05 -8.2 Q5.3 0.25 0.4 0.2" fill="url(#gradient0)" fill-rule="evenodd" stroke="none"/>
    <path d="M2.2 1.85 Q1.7 1.85 1.5 2.35 L1.5 2.7 Q1.75 3.3 1.3 3.8 L1.05 3.95 Q0.55 4.15 0.4 4.6 0.25 5.15 0.75 5.4 1.25 5.7 1.7 5.4 3.1 4.6 3.15 3.0 3.15 2.0 2.2 1.85 M-0.45 0.2 L0.0 0.15 0.4 0.2 Q1.75 0.3 2.8 1.35 4.0 2.55 4.0 4.2 4.0 5.8 2.8 7.0 1.65 8.15 0.0 8.15 -1.2 8.15 -2.1 7.6 L-1.75 7.65 Q-0.85 7.7 -0.8 6.85 L-0.6 6.4 Q-0.55 5.55 -1.45 5.5 L-1.95 5.75 -2.35 6.3 -2.45 7.1 -2.2 7.5 -2.85 7.0 Q-4.05 5.8 -4.0 4.2 -4.05 2.55 -2.85 1.35 -1.85 0.3 -0.45 0.2 M-3.65 5.05 L-3.3 5.85 -2.8 6.0 Q-1.95 5.8 -2.1 4.95 L-1.95 4.85 Q-1.65 4.6 -1.65 4.2 -1.55 3.4 -2.4 3.3 -2.75 3.3 -3.05 3.6 -3.65 4.2 -3.65 5.05 M-1.15 2.35 Q-1.05 3.05 -0.3 2.95 L0.25 2.45 Q0.4 1.65 -0.45 1.5 L-0.8 1.6 Q-1.25 1.85 -1.15 2.35 M2.3 5.25 Q1.7 5.3 1.5 5.85 L0.75 6.25 Q0.35 6.5 0.45 6.95 0.65 7.75 1.45 7.55 L1.95 7.4 Q2.75 7.05 2.95 6.25 3.2 5.4 2.3 5.25" fill="#ffd700" fill-rule="evenodd" stroke="none"/>
    <path d="M2.2 1.85 Q3.15 2.0 3.15 3.0 3.1 4.6 1.7 5.4 1.25 5.7 0.75 5.4 0.25 5.15 0.4 4.6 0.55 4.15 1.05 3.95 L1.3 3.8 Q1.75 3.3 1.5 2.7 L1.5 2.35 Q1.7 1.85 2.2 1.85 M-2.2 7.5 L-2.45 7.1 -2.35 6.3 -1.95 5.75 -1.45 5.5 Q-0.55 5.55 -0.6 6.4 L-0.8 6.85 Q-0.85 7.7 -1.75 7.65 L-2.1 7.6 -2.2 7.5 M2.3 5.25 Q3.2 5.4 2.95 6.25 2.75 7.05 1.95 7.4 L1.45 7.55 Q0.65 7.75 0.45 6.95 0.35 6.5 0.75 6.25 L1.5 5.85 Q1.7 5.3 2.3 5.25 M-1.15 2.35 Q-1.25 1.85 -0.8 1.6 L-0.45 1.5 Q0.4 1.65 0.25 2.45 L-0.3 2.95 Q-1.05 3.05 -1.15 2.35 M-3.65 5.05 Q-3.65 4.2 -3.05 3.6 -2.75 3.3 -2.4 3.3 -1.55 3.4 -1.65 4.2 -1.65 4.6 -1.95 4.85 L-2.1 4.95 Q-1.95 5.8 -2.8 6.0 L-3.3 5.85 -3.65 5.05" fill="#b8a503" fill-rule="evenodd" stroke="none"/>
  </g>
  <defs>
    <linearGradient gradientTransform="matrix(0.0045, 0.0, 0.0, 0.0051, 0.0, -4.0)" gradientUnits="userSpaceOnUse" id="gradient0" spreadMethod="pad" x1="-819.2" x2="819.2">
      <stop offset="0.06274509803921569" stop-color="#f233ee"/>
      <stop offset="0.2" stop-color="#ffffff"/>
      <stop offset="0.33725490196078434" stop-color="#f233ee"/>
      <stop offset="0.4745098039215686" stop-color="#ffffff"/>
      <stop offset="0.6078431372549019" stop-color="#f233ee"/>
      <stop offset="0.7372549019607844" stop-color="#ffffff"/>
      <stop offset="0.8666666666666667" stop-color="#f233ee"/>
    </linearGradient>
  </defs>
</svg>
