<?xml version="1.0" encoding="UTF-8" standalone="no"?>
<svg xmlns:ffdec="https://www.free-decompiler.com/flash" xmlns:xlink="http://www.w3.org/1999/xlink" ffdec:objectType="shape" height="19.0px" width="10.05px" xmlns="http://www.w3.org/2000/svg">
  <g transform="matrix(1.0, 0.0, 0.0, 1.0, 5.0, 9.5)">
    <path d="M-3.55 8.05 Q-5.0 6.6 -5.0 4.55 -5.0 2.45 -3.55 0.95 -2.1 -0.5 0.0 -0.5 2.05 -0.5 3.5 0.95 4.95 2.45 4.95 4.55 4.95 6.6 3.5 8.05 2.05 9.5 0.0 9.5 -2.1 9.5 -3.55 8.05" fill="#b4d1ce" fill-rule="evenodd" stroke="none"/>
    <path d="M4.0 -9.5 Q7.0 -0.45 0.5 -0.5 L0.0 -0.55 -0.05 -0.55 -0.65 -0.5 Q-6.95 -0.45 -4.0 -9.45 L-0.05 -7.2 4.0 -9.5" fill="url(#gradient0)" fill-rule="evenodd" stroke="none"/>
    <path d="M3.0 7.5 L-2.95 7.5 -2.95 1.5 3.0 1.5 3.0 7.5" fill="#a6372e" fill-rule="evenodd" stroke="none"/>
    <path d="M3.5 8.0 Q0.45 5.35 -3.45 8.0 -0.85 4.05 -3.45 1.0 -0.45 3.7 3.45 1.05 0.8 4.95 3.5 8.0" fill="#50a7c3" fill-rule="evenodd" stroke="none"/>
    <path d="M0.05 9.5 Q-0.85 4.75 -4.9 4.45 -0.85 4.2 0.05 -0.5 0.95 4.2 5.05 4.45 0.95 4.75 0.05 9.5" fill="url(#gradient1)" fill-rule="evenodd" stroke="none"/>
  </g>
  <defs>
    <linearGradient gradientTransform="matrix(0.006, 0.0, 0.0, 0.0055, -0.05, -5.0)" gradientUnits="userSpaceOnUse" id="gradient0" spreadMethod="pad" x1="-819.2" x2="819.2">
      <stop offset="0.06274509803921569" stop-color="#bdac2b"/>
      <stop offset="0.2" stop-color="#625f2d"/>
      <stop offset="0.33725490196078434" stop-color="#bdac2b"/>
      <stop offset="0.4745098039215686" stop-color="#2a2f36"/>
      <stop offset="0.6078431372549019" stop-color="#bdac2b"/>
      <stop offset="0.7372549019607844" stop-color="#625f2d"/>
      <stop offset="0.8666666666666667" stop-color="#bdac2b"/>
    </linearGradient>
    <radialGradient cx="0" cy="0" gradientTransform="matrix(0.0071, 0.0, 0.0, 0.0071, 0.0, 4.25)" gradientUnits="userSpaceOnUse" id="gradient1" r="819.2" spreadMethod="pad">
      <stop offset="0.0" stop-color="#e5efe4"/>
      <stop offset="1.0" stop-color="#67bbd3"/>
    </radialGradient>
  </defs>
</svg>
