<?xml version="1.0" encoding="UTF-8" standalone="no"?>
<svg xmlns:ffdec="https://www.free-decompiler.com/flash" xmlns:xlink="http://www.w3.org/1999/xlink" ffdec:objectType="shape" height="16.0px" width="16.0px" xmlns="http://www.w3.org/2000/svg">
  <g transform="matrix(1.0, 0.0, 0.0, 1.0, 8.0, 8.0)">
    <path d="M8.0 0.0 Q8.0 3.3 5.65 5.65 3.3 8.0 0.0 8.0 -3.35 8.0 -5.65 5.65 -8.0 3.3 -8.0 0.0 -8.0 -3.35 -5.65 -5.65 -3.35 -8.0 0.0 -8.0 3.3 -8.0 5.65 -5.65 8.0 -3.35 8.0 0.0 M5.0 0.0 Q5.0 -2.1 3.55 -3.55 2.05 -5.0 0.0 -5.0 -2.1 -5.0 -3.55 -3.55 -5.0 -2.1 -5.0 0.0 -5.0 2.05 -3.55 3.55 -2.1 5.0 0.0 5.0 2.05 5.0 3.55 3.55 5.0 2.05 5.0 0.0" fill="#ffffff" fill-opacity="0.2509804" fill-rule="evenodd" stroke="none"/>
    <path d="M5.0 0.0 Q5.0 2.05 3.55 3.55 2.05 5.0 0.0 5.0 -2.1 5.0 -3.55 3.55 -5.0 2.05 -5.0 0.0 -5.0 -2.1 -3.55 -3.55 -2.1 -5.0 0.0 -5.0 2.05 -5.0 3.55 -3.55 5.0 -2.1 5.0 0.0" fill="#ffffff" fill-opacity="0.7529412" fill-rule="evenodd" stroke="none"/>
  </g>
</svg>
