<?xml version="1.0" encoding="UTF-8" standalone="no"?>
<svg xmlns:ffdec="https://www.free-decompiler.com/flash" xmlns:xlink="http://www.w3.org/1999/xlink" ffdec:objectType="shape" height="17.3px" width="19.15px" xmlns="http://www.w3.org/2000/svg">
  <g transform="matrix(1.0, 0.0, 0.0, 1.0, 9.6, 10.05)">
    <path d="M4.85 -5.15 Q4.85 -3.15 3.45 -1.7 2.0 -0.3 0.0 -0.3 -2.05 -0.3 -3.5 -1.7 -4.95 -3.15 -4.9 -5.15 -4.95 -7.2 -3.5 -8.65 -2.05 -10.05 0.0 -10.05 2.0 -10.05 3.45 -8.65 4.85 -7.2 4.85 -5.15" fill="url(#gradient0)" fill-rule="evenodd" stroke="none"/>
    <path d="M-1.25 -1.1 Q0.2 0.3 0.2 2.35 0.2 4.4 -1.25 5.8 -2.7 7.25 -4.7 7.25 -6.75 7.25 -8.15 5.8 -9.6 4.4 -9.6 2.35 -9.6 0.3 -8.15 -1.1 -6.75 -2.55 -4.7 -2.55 -2.7 -2.55 -1.25 -1.1" fill="url(#gradient1)" fill-rule="evenodd" stroke="none"/>
    <path d="M8.15 -1.1 Q9.55 0.3 9.55 2.35 9.55 4.4 8.15 5.8 6.7 7.25 4.65 7.25 2.6 7.25 1.2 5.8 -0.25 4.4 -0.25 2.35 -0.25 0.3 1.2 -1.1 2.6 -2.55 4.65 -2.55 6.7 -2.55 8.15 -1.1" fill="url(#gradient2)" fill-rule="evenodd" stroke="none"/>
    <path d="M3.65 -4.55 L3.95 -3.45 Q3.95 -2.7 3.55 -2.1 3.2 -1.55 2.45 -1.25 L2.45 -1.2 Q3.45 -1.05 4.05 -0.4 4.6 0.2 4.6 1.2 L4.35 2.55 3.5 3.5 2.2 4.1 0.35 4.3 -4.0 4.3 -4.0 -5.75 -0.05 -5.75 1.65 -5.65 2.8 -5.3 3.65 -4.55 M0.7 -3.8 L0.0 -3.9 -1.2 -3.9 -1.45 -3.9 -1.45 -1.8 -1.0 -1.8 0.05 -1.8 0.7 -1.9 1.2 -2.35 1.25 -2.9 1.15 -3.45 0.7 -3.8 M1.7 0.45 L1.1 0.05 0.25 -0.05 -0.85 -0.05 -1.45 -0.05 -1.45 2.5 -1.25 2.5 0.35 2.5 1.2 2.25 1.75 1.85 1.95 1.15 1.7 0.45" fill="#000000" fill-rule="evenodd" stroke="none"/>
    <path d="M1.7 0.45 L1.95 1.15 1.75 1.85 1.2 2.25 0.35 2.5 -1.25 2.5 -1.45 2.5 -1.45 -0.05 -0.85 -0.05 0.25 -0.05 1.1 0.05 1.7 0.45 M0.7 -3.8 L1.15 -3.45 1.25 -2.9 1.2 -2.35 0.7 -1.9 0.05 -1.8 -1.0 -1.8 -1.45 -1.8 -1.45 -3.9 -1.2 -3.9 0.0 -3.9 0.7 -3.8" fill="#b0b0b0" fill-rule="evenodd" stroke="none"/>
  </g>
  <defs>
    <radialGradient cx="0" cy="0" gradientTransform="matrix(0.009, 0.0, 0.0, 0.009, -1.25, -6.75)" gradientUnits="userSpaceOnUse" id="gradient0" r="819.2" spreadMethod="pad">
      <stop offset="0.0" stop-color="#ffffff"/>
      <stop offset="1.0" stop-color="#990000"/>
    </radialGradient>
    <radialGradient cx="0" cy="0" gradientTransform="matrix(0.009, 0.0, 0.0, 0.009, -5.9, 0.8)" gradientUnits="userSpaceOnUse" id="gradient1" r="819.2" spreadMethod="pad">
      <stop offset="0.0" stop-color="#ffffff"/>
      <stop offset="1.0" stop-color="#990099"/>
    </radialGradient>
    <radialGradient cx="0" cy="0" gradientTransform="matrix(0.009, 0.0, 0.0, 0.009, 3.5, 0.8)" gradientUnits="userSpaceOnUse" id="gradient2" r="819.2" spreadMethod="pad">
      <stop offset="0.0" stop-color="#ffffff"/>
      <stop offset="1.0" stop-color="#000099"/>
    </radialGradient>
  </defs>
</svg>
