<?xml version="1.0" encoding="UTF-8" standalone="no"?>
<svg xmlns:ffdec="https://www.free-decompiler.com/flash" xmlns:xlink="http://www.w3.org/1999/xlink" ffdec:objectType="shape" height="28.75px" width="39.0px" xmlns="http://www.w3.org/2000/svg">
  <g transform="matrix(1.0, 0.0, 0.0, 1.0, 19.5, 14.35)">
    <path d="M6.5 -14.35 L6.45 -13.8 Q6.35 -11.7 8.5 -11.85 8.5 -11.2 7.95 -10.75 L6.5 -10.35 5.5 -13.35 5.5 -14.35 6.5 -14.35" fill="#908880" fill-rule="evenodd" stroke="none"/>
    <path d="M8.5 -11.85 Q6.35 -11.7 6.45 -13.8 L6.5 -14.35 9.5 -13.35 Q11.8 -12.05 8.65 -11.8 L8.5 -11.85" fill="#787c74" fill-rule="evenodd" stroke="none"/>
    <path d="M5.5 -14.35 L5.5 -13.35 3.5 -13.35 3.5 -10.35 2.1 -10.05 Q1.5 -9.75 1.5 -9.35 1.1 -9.35 0.8 -8.9 0.5 -8.45 0.5 -7.85 L-2.5 -6.35 -3.5 -6.35 -4.5 -9.35 3.5 -13.35 5.5 -14.35" fill="#d5d3b8" fill-rule="evenodd" stroke="none"/>
    <path d="M5.5 -13.35 L6.5 -10.35 6.5 -9.35 6.5 -7.85 5.5 -7.85 Q5.5 -8.85 4.95 -9.6 4.35 -10.35 3.5 -10.35 L3.5 -13.35 5.5 -13.35" fill="#ada5a4" fill-rule="evenodd" stroke="none"/>
    <path d="M6.5 -10.35 L7.95 -10.75 Q8.5 -11.2 8.5 -11.85 L8.65 -11.8 Q11.8 -12.05 9.5 -13.35 L10.5 -13.35 10.75 -12.25 9.5 -9.35 8.5 -9.35 6.5 -9.35 6.5 -10.35" fill="#9d958d" fill-rule="evenodd" stroke="none"/>
    <path d="M8.5 -9.35 L9.5 -9.35 12.5 -9.35 12.5 -5.35 9.5 -5.35 8.1 -6.35 8.5 -9.35" fill="#61563a" fill-rule="evenodd" stroke="none"/>
    <path d="M5.5 -7.85 L6.5 -7.85 5.5 -5.2 Q4.05 -3.0 3.55 -5.85 L3.5 -6.35 5.5 -7.85" fill="#484434" fill-rule="evenodd" stroke="none"/>
    <path d="M6.5 -7.85 L6.5 -9.35 8.5 -9.35 8.1 -6.35 9.5 -5.35 Q9.5 -3.7 8.95 -2.5 8.35 -1.35 7.5 -1.35 L4.5 -2.35 5.5 -5.2 6.5 -7.85" fill="#777c74" fill-rule="evenodd" stroke="none"/>
    <path d="M3.5 -10.35 Q4.35 -10.35 4.95 -9.6 5.5 -8.85 5.5 -7.85 L3.5 -6.35 2.5 -6.35 1.5 -9.35 Q1.5 -9.75 2.1 -10.05 L3.5 -10.35" fill="#c3beaf" fill-rule="evenodd" stroke="none"/>
    <path d="M0.5 -7.85 Q0.5 -8.45 0.8 -8.9 1.1 -9.35 1.5 -9.35 L2.5 -6.35 2.5 -3.85 0.5 -2.35 0.5 -5.35 0.5 -7.85" fill="#b1a9a4" fill-rule="evenodd" stroke="none"/>
    <path d="M2.5 -3.85 L2.5 -6.35 3.5 -6.35 3.55 -5.85 Q4.05 -3.0 5.5 -5.2 L4.5 -2.35 3.5 -2.35 2.8 -2.75 Q2.5 -3.2 2.5 -3.85 M-3.5 -1.35 L-0.75 -0.65 -2.5 1.65 -3.5 -1.35" fill="#544a2a" fill-rule="evenodd" stroke="none"/>
    <path d="M0.5 -2.35 L2.5 -3.85 Q2.5 -3.2 2.8 -2.75 L3.5 -2.35 2.5 0.15 1.5 0.15 0.5 -2.35" fill="#6d7165" fill-rule="evenodd" stroke="none"/>
    <path d="M3.5 -2.35 L4.5 -2.35 7.5 -1.35 7.5 0.15 5.5 4.15 5.25 3.1 4.5 2.65 2.5 0.15 3.5 -2.35" fill="#5c5032" fill-rule="evenodd" stroke="none"/>
    <path d="M0.5 -5.35 L0.5 -2.35 -1.25 -2.75 -1.5 -5.35 0.5 -5.35" fill="#c0bab0" fill-rule="evenodd" stroke="none"/>
    <path d="M9.5 -5.35 L12.5 -5.35 17.5 -2.35 18.5 5.65 17.1 4.4 16.5 6.65 14.5 6.65 14.5 9.65 7.5 0.15 7.5 -1.35 Q8.35 -1.35 8.95 -2.5 9.5 -3.7 9.5 -5.35" fill="#4e472c" fill-rule="evenodd" stroke="none"/>
    <path d="M0.5 -7.85 L0.5 -5.35 -1.5 -5.35 Q-2.25 -3.5 -2.45 -5.85 L-2.5 -6.35 0.5 -7.85" fill="#827b6d" fill-rule="evenodd" stroke="none"/>
    <path d="M16.5 -9.35 Q16.5 -8.65 16.1 -8.15 15.65 -7.65 15.0 -7.65 14.4 -7.65 13.95 -8.15 13.5 -8.65 13.5 -9.35 12.4 -10.35 14.35 -10.35 L14.5 -10.35 16.5 -9.35" fill="#8b857d" fill-rule="evenodd" stroke="none"/>
    <path d="M12.5 -5.35 L12.5 -9.35 13.5 -9.35 Q13.5 -8.65 13.95 -8.15 14.4 -7.65 15.0 -7.65 15.65 -7.65 16.1 -8.15 16.5 -8.65 16.5 -9.35 17.35 -9.35 17.95 -8.15 18.5 -7.0 18.5 -5.35 L17.5 -2.35 12.5 -5.35" fill="#70746a" fill-rule="evenodd" stroke="none"/>
    <path d="M12.5 -9.35 L9.5 -9.35 10.75 -12.25 10.5 -13.35 14.5 -10.35 14.35 -10.35 Q12.4 -10.35 13.5 -9.35 L12.5 -9.35" fill="#6b6e61" fill-rule="evenodd" stroke="none"/>
    <path d="M18.5 -5.35 L19.5 5.65 18.5 5.65 17.5 -2.35 18.5 -5.35" fill="#63583e" fill-rule="evenodd" stroke="none"/>
    <path d="M19.5 5.65 Q19.5 7.3 18.95 8.5 18.35 9.65 17.5 9.65 L17.5 8.15 18.5 5.65 19.5 5.65" fill="#3e3f35" fill-rule="evenodd" stroke="none"/>
    <path d="M16.5 6.65 L17.1 4.4 18.5 5.65 17.5 8.15 16.8 7.75 Q16.5 7.3 16.5 6.65" fill="#686450" fill-rule="evenodd" stroke="none"/>
    <path d="M17.5 9.65 L16.5 9.65 14.5 9.65 14.5 6.65 16.5 6.65 Q16.5 7.3 16.8 7.75 L17.5 8.15 17.5 9.65" fill="#5c4e2e" fill-rule="evenodd" stroke="none"/>
    <path d="M2.5 0.15 L4.5 2.65 6.15 9.7 5.5 4.15 7.5 0.15 14.5 9.65 16.5 9.65 Q5.55 15.85 -6.95 13.95 L-8.5 13.65 -8.6 11.05 -10.5 10.65 -13.5 6.65 -13.5 4.15 -11.5 0.15 -9.5 0.15 -7.3 3.55 -8.5 0.15 -8.5 -2.35 -7.5 -6.35 -5.5 -5.35 -5.25 -2.75 -3.5 -2.35 -3.5 -1.35 -2.5 1.65 1.35 4.25 1.5 0.15 2.5 0.15" fill="#32383d" fill-rule="evenodd" stroke="none"/>
    <path d="M4.5 2.65 L5.25 3.1 5.5 4.15 6.15 9.7 4.5 2.65" fill="#37211a" fill-rule="evenodd" stroke="none"/>
    <path d="M-3.5 -6.35 L-2.5 -6.35 -2.45 -5.85 Q-2.25 -3.5 -1.5 -5.35 L-1.25 -2.75 0.5 -2.35 1.5 0.15 1.35 4.25 -2.5 1.65 -0.75 -0.65 -3.5 -1.35 -3.5 -2.35 -3.5 -5.35 -3.5 -6.35" fill="#908c84" fill-rule="evenodd" stroke="none"/>
    <path d="M-12.5 -6.35 L-10.5 -7.85 -9.5 -7.85 -9.5 -6.35 -10.95 -5.4 -11.5 -2.35 -12.5 -2.35 -12.5 -6.35" fill="#cec9b8" fill-rule="evenodd" stroke="none"/>
    <path d="M-17.5 4.15 L-19.5 -1.35 -17.5 -1.35 -16.5 2.65 Q-14.2 4.0 -17.35 4.2 L-17.5 4.15" fill="#7a7364" fill-rule="evenodd" stroke="none"/>
    <path d="M-19.5 -1.35 L-12.5 -6.35 -12.5 -2.35 -13.95 -2.1 -14.2 -1.95 Q-15.35 -0.5 -13.5 0.15 L-15.5 0.15 -16.4 -2.85 -17.5 -1.35 -19.5 -1.35" fill="#b0aba4" fill-rule="evenodd" stroke="none"/>
    <path d="M-17.5 -1.35 L-16.4 -2.85 -15.5 0.15 -16.5 2.65 -17.5 -1.35" fill="#cfccb6" fill-rule="evenodd" stroke="none"/>
    <path d="M-13.5 0.15 Q-15.35 -0.5 -14.2 -1.95 L-13.95 -2.1 -12.5 -2.35 -11.5 -2.35 -10.5 -2.35 -11.5 0.15 -13.5 4.15 -13.5 0.15" fill="#737161" fill-rule="evenodd" stroke="none"/>
    <path d="M-11.5 -2.35 L-10.95 -5.4 -9.5 -6.35 -9.5 -2.35 -10.5 -2.35 -11.5 -2.35" fill="#a39b95" fill-rule="evenodd" stroke="none"/>
    <path d="M-6.5 -9.35 L-4.5 -9.35 -3.5 -6.35 -3.5 -5.35 -3.7 -5.55 Q-4.7 -6.45 -5.5 -5.35 L-7.5 -6.35 -7.5 -7.85 -7.35 -7.8 Q-4.2 -8.05 -6.5 -9.35" fill="#aaa29f" fill-rule="evenodd" stroke="none"/>
    <path d="M-10.5 -7.85 L-6.5 -9.35 Q-4.2 -8.05 -7.35 -7.8 L-7.5 -7.85 -9.5 -7.85 -10.5 -7.85" fill="#e2e4c4" fill-rule="evenodd" stroke="none"/>
    <path d="M-9.5 -6.35 L-9.5 -7.85 -7.5 -7.85 -7.5 -6.35 -8.5 -2.35 -9.5 -2.35 -9.5 -6.35" fill="#7b7d75" fill-rule="evenodd" stroke="none"/>
    <path d="M-5.5 -5.35 Q-4.7 -6.45 -3.7 -5.55 L-3.5 -5.35 -3.5 -2.35 -5.25 -2.75 -5.5 -5.35" fill="#6a6959" fill-rule="evenodd" stroke="none"/>
    <path d="M-10.5 -2.35 L-9.5 -2.35 -8.5 -2.35 -8.5 0.15 -9.5 0.15 -11.5 0.15 -10.5 -2.35" fill="#5d4e2e" fill-rule="evenodd" stroke="none"/>
    <path d="M-8.5 0.15 L-7.3 3.55 -9.5 0.15 -8.5 0.15" fill="#504828" fill-rule="evenodd" stroke="none"/>
    <path d="M-14.5 6.65 Q-15.2 8.5 -15.45 6.15 L-15.5 5.65 Q-15.5 5.05 -14.9 4.6 -14.3 4.15 -13.5 4.15 L-13.5 6.65 -14.5 6.65" fill="#5b5438" fill-rule="evenodd" stroke="none"/>
    <path d="M-15.5 5.65 L-16.5 7.2 -17.5 4.15 -17.35 4.2 Q-14.2 4.0 -16.5 2.65 L-15.5 0.15 -13.5 0.15 -13.5 4.15 Q-14.3 4.15 -14.9 4.6 -15.5 5.05 -15.5 5.65" fill="#a29c97" fill-rule="evenodd" stroke="none"/>
    <path d="M-13.5 9.65 L-14.5 6.65 -13.5 6.65 -10.5 10.65 -13.5 9.65" fill="#5b5338" fill-rule="evenodd" stroke="none"/>
    <path d="M-8.5 13.65 Q-10.55 13.65 -12.0 12.5 -13.5 11.3 -13.5 9.65 L-10.5 10.65 -8.6 11.05 -8.5 13.65" fill="#6b5f46" fill-rule="evenodd" stroke="none"/>
  </g>
</svg>
