<?xml version="1.0" encoding="UTF-8" standalone="no"?>
<svg xmlns:ffdec="https://www.free-decompiler.com/flash" xmlns:xlink="http://www.w3.org/1999/xlink" ffdec:objectType="shape" height="15.0px" width="15.0px" xmlns="http://www.w3.org/2000/svg">
  <g transform="matrix(1.0, 0.0, 0.0, 1.0, 7.5, 7.5)">
    <path d="M6.5 -6.75 L6.6 -6.65 Q7.5 -5.75 7.5 -4.5 L7.5 -0.75 4.05 -0.75 4.05 -2.35 4.05 -3.95 4.1 -3.95 4.5 -4.45 6.5 -6.75" fill="url(#gradient0)" fill-rule="evenodd" stroke="none"/>
    <path d="M6.5 -6.75 L4.5 -4.45 4.05 -3.95 4.05 -4.0 1.15 -4.0 1.15 -7.5 4.5 -7.5 Q5.65 -7.5 6.5 -6.75" fill="url(#gradient1)" fill-rule="evenodd" stroke="none"/>
    <path d="M7.5 1.15 L7.5 4.5 Q7.5 5.6 6.8 6.45 L4.05 4.1 4.05 4.05 4.05 1.15 7.5 1.15" fill="url(#gradient2)" fill-rule="evenodd" stroke="none"/>
    <path d="M6.8 6.45 L6.6 6.6 Q5.75 7.5 4.5 7.5 L0.8 7.5 0.8 4.0 4.0 4.0 4.05 4.05 4.05 4.1 6.8 6.45" fill="url(#gradient3)" fill-rule="evenodd" stroke="none"/>
    <path d="M-6.85 -6.35 L-6.65 -6.65 Q-5.75 -7.5 -4.5 -7.5 L-0.75 -7.5 -0.75 -4.0 -3.95 -4.0 -4.45 -4.4 -6.85 -6.35" fill="url(#gradient4)" fill-rule="evenodd" stroke="none"/>
    <path d="M-7.5 -1.1 L-7.5 -4.5 Q-7.5 -5.55 -6.85 -6.35 L-4.45 -4.4 -3.95 -4.0 -3.95 -1.1 -7.5 -1.1" fill="url(#gradient5)" fill-rule="evenodd" stroke="none"/>
    <path d="M-6.3 6.9 L-6.65 6.6 Q-7.5 5.75 -7.5 4.5 L-7.5 0.8 -3.95 0.8 -3.95 4.0 -4.0 4.05 -6.3 6.9" fill="url(#gradient6)" fill-rule="evenodd" stroke="none"/>
    <path d="M-1.1 7.5 L-4.5 7.5 Q-5.55 7.5 -6.3 6.9 L-4.0 4.05 -3.95 4.0 -1.1 4.0 -1.1 7.5" fill="url(#gradient7)" fill-rule="evenodd" stroke="none"/>
    <path d="M4.05 -0.75 L7.5 -0.75 7.5 1.15 4.05 1.15 4.05 -0.75 M0.8 7.5 L-1.1 7.5 -1.1 4.0 0.8 4.0 0.8 7.5 M-7.5 0.8 L-7.5 -1.1 -3.95 -1.1 -3.95 0.8 -7.5 0.8 M-0.75 -7.5 L1.15 -7.5 1.15 -4.0 -0.75 -4.0 -0.75 -7.5" fill="#09568e" fill-rule="evenodd" stroke="none"/>
    <path d="M4.05 -3.95 L4.05 -2.35 4.05 -0.75 4.05 1.15 4.05 4.05 4.0 4.0 0.8 4.0 -1.1 4.0 -3.95 4.0 -3.95 0.8 -3.95 -1.1 -3.95 -4.0 -0.75 -4.0 1.15 -4.0 4.05 -4.0 4.05 -3.95" fill="#074471" fill-rule="evenodd" stroke="none"/>
  </g>
  <defs>
    <linearGradient gradientTransform="matrix(-0.002, 0.0, 0.0, -0.0039, 6.05, -3.95)" gradientUnits="userSpaceOnUse" id="gradient0" spreadMethod="pad" x1="-819.2" x2="819.2">
      <stop offset="0.0" stop-color="#1a2233"/>
      <stop offset="0.48627450980392156" stop-color="#bdbab3"/>
      <stop offset="1.0" stop-color="#72706c"/>
    </linearGradient>
    <linearGradient gradientTransform="matrix(0.0, 0.0019, -0.0043, 0.0, 2.8, -6.1)" gradientUnits="userSpaceOnUse" id="gradient1" spreadMethod="pad" x1="-819.2" x2="819.2">
      <stop offset="0.0" stop-color="#1a2233"/>
      <stop offset="0.48627450980392156" stop-color="#bdbab3"/>
      <stop offset="1.0" stop-color="#72706c"/>
    </linearGradient>
    <linearGradient gradientTransform="matrix(-0.0019, 0.0, 0.0, -0.0043, 6.15, 2.8)" gradientUnits="userSpaceOnUse" id="gradient2" spreadMethod="pad" x1="-819.2" x2="819.2">
      <stop offset="0.0" stop-color="#1a2233"/>
      <stop offset="0.48627450980392156" stop-color="#bdbab3"/>
      <stop offset="1.0" stop-color="#72706c"/>
    </linearGradient>
    <linearGradient gradientTransform="matrix(0.0, -0.002, 0.0039, 0.0, 4.0, 6.0)" gradientUnits="userSpaceOnUse" id="gradient3" spreadMethod="pad" x1="-819.2" x2="819.2">
      <stop offset="0.0" stop-color="#1a2233"/>
      <stop offset="0.48627450980392156" stop-color="#bdbab3"/>
      <stop offset="1.0" stop-color="#72706c"/>
    </linearGradient>
    <linearGradient gradientTransform="matrix(0.0, 0.002, -0.0039, 0.0, -3.95, -6.0)" gradientUnits="userSpaceOnUse" id="gradient4" spreadMethod="pad" x1="-819.2" x2="819.2">
      <stop offset="0.0" stop-color="#1a2233"/>
      <stop offset="0.48627450980392156" stop-color="#bdbab3"/>
      <stop offset="1.0" stop-color="#72706c"/>
    </linearGradient>
    <linearGradient gradientTransform="matrix(0.0019, 0.0, 0.0, 0.0043, -6.1, -2.75)" gradientUnits="userSpaceOnUse" id="gradient5" spreadMethod="pad" x1="-819.2" x2="819.2">
      <stop offset="0.0" stop-color="#1a2233"/>
      <stop offset="0.48627450980392156" stop-color="#bdbab3"/>
      <stop offset="1.0" stop-color="#72706c"/>
    </linearGradient>
    <linearGradient gradientTransform="matrix(0.002, 0.0, 0.0, 0.0039, -6.0, 4.0)" gradientUnits="userSpaceOnUse" id="gradient6" spreadMethod="pad" x1="-819.2" x2="819.2">
      <stop offset="0.0" stop-color="#1a2233"/>
      <stop offset="0.48627450980392156" stop-color="#bdbab3"/>
      <stop offset="1.0" stop-color="#72706c"/>
    </linearGradient>
    <linearGradient gradientTransform="matrix(0.0, -0.0019, 0.0043, 0.0, -2.75, 6.1)" gradientUnits="userSpaceOnUse" id="gradient7" spreadMethod="pad" x1="-819.2" x2="819.2">
      <stop offset="0.0" stop-color="#1a2233"/>
      <stop offset="0.48627450980392156" stop-color="#bdbab3"/>
      <stop offset="1.0" stop-color="#72706c"/>
    </linearGradient>
  </defs>
</svg>
