<?xml version="1.0" encoding="UTF-8" standalone="no"?>
<svg xmlns:ffdec="https://www.free-decompiler.com/flash" xmlns:xlink="http://www.w3.org/1999/xlink" ffdec:objectType="shape" height="8.0px" width="8.0px" xmlns="http://www.w3.org/2000/svg">
  <g transform="matrix(1.0, 0.0, 0.0, 1.0, 4.0, 4.0)">
    <path d="M1.9 -0.3 L2.45 -0.25 Q2.95 -0.15 2.9 0.6 L2.55 2.45 2.2 2.95 0.45 3.2 -1.35 2.85 -1.55 2.45 Q-1.4 1.55 -0.45 1.2 L0.6 0.75 Q1.05 -0.3 1.9 -0.3" fill="url(#gradient0)" fill-rule="evenodd" stroke="none"/>
    <path d="M-3.15 -0.8 Q-3.25 -1.85 -2.75 -2.6 L-2.05 -3.15 -0.25 -2.95 Q0.7 -2.15 0.25 -1.2 -0.2 -0.35 -1.0 0.15 L-1.9 0.6 -2.25 0.6 Q-3.05 0.2 -3.15 -0.8" fill="url(#gradient1)" fill-rule="evenodd" stroke="none"/>
    <path d="M4.0 -0.75 L4.0 4.0 -4.0 4.0 -4.0 -4.0 4.0 -4.0 4.0 -2.35 4.0 -0.75 M1.9 -0.3 Q1.05 -0.3 0.6 0.75 L-0.45 1.2 Q-1.4 1.55 -1.55 2.45 L-1.35 2.85 0.45 3.2 2.2 2.95 2.55 2.45 2.9 0.6 Q2.95 -0.15 2.45 -0.25 L1.9 -0.3 M-3.15 -0.8 Q-3.05 0.2 -2.25 0.6 L-1.9 0.6 -1.0 0.15 Q-0.2 -0.35 0.25 -1.2 0.7 -2.15 -0.25 -2.95 L-2.05 -3.15 -2.75 -2.6 Q-3.25 -1.85 -3.15 -0.8" fill="#510152" fill-rule="evenodd" stroke="none"/>
  </g>
  <defs>
    <radialGradient cx="0" cy="0" gradientTransform="matrix(0.0042, 0.0, 0.0, 0.0042, 1.3, 2.05)" gradientUnits="userSpaceOnUse" id="gradient0" r="819.2" spreadMethod="pad">
      <stop offset="0.2549019607843137" stop-color="#f298e4"/>
      <stop offset="0.5333333333333333" stop-color="#914391"/>
    </radialGradient>
    <radialGradient cx="0" cy="0" gradientTransform="matrix(0.0048, 0.0, 0.0, 0.0048, -2.2, -2.7)" gradientUnits="userSpaceOnUse" id="gradient1" r="819.2" spreadMethod="pad">
      <stop offset="0.0" stop-color="#ffffff"/>
      <stop offset="0.2549019607843137" stop-color="#fdafef"/>
      <stop offset="0.5333333333333333" stop-color="#a04a9e"/>
    </radialGradient>
  </defs>
</svg>
