<?xml version="1.0" encoding="UTF-8" standalone="no"?>
<svg xmlns:ffdec="https://www.free-decompiler.com/flash" xmlns:xlink="http://www.w3.org/1999/xlink" ffdec:objectType="shape" height="25.45px" width="40.0px" xmlns="http://www.w3.org/2000/svg">
  <g transform="matrix(1.0, 0.0, 0.0, 1.0, 20.05, 12.7)">
    <path d="M11.95 -3.7 L12.95 -0.7 10.7 -1.4 10.0 -3.1 11.95 -3.7" fill="#504828" fill-rule="evenodd" stroke="none"/>
    <path d="M-15.05 3.3 L-15.05 -0.7 -13.05 1.8 -13.05 3.3 -15.05 3.3" fill="#584c2c" fill-rule="evenodd" stroke="none"/>
    <path d="M-12.05 -4.7 L-11.95 -4.65 Q-8.65 -4.9 -11.05 -6.2 L-9.05 -6.2 Q-8.35 -2.15 -11.65 0.05 L-12.05 0.3 -12.05 -4.7" fill="#89847a" fill-rule="evenodd" stroke="none"/>
    <path d="M9.95 -8.7 L7.95 -7.7 6.95 -7.7 5.95 -11.7 9.6 -11.2 9.95 -8.7" fill="#544a2a" fill-rule="evenodd" stroke="none"/>
    <path d="M9.95 -8.7 L9.6 -11.2 5.95 -11.7 5.95 -12.7 12.95 -11.7 12.95 -10.2 10.6 -7.0 9.95 -8.7" fill="#66593d" fill-rule="evenodd" stroke="none"/>
    <path d="M7.95 -7.7 L9.95 -8.7 10.6 -7.0 8.95 -6.2 Q8.5 -6.2 8.25 -6.6 7.95 -7.05 7.95 -7.7" fill="#7d7e76" fill-rule="evenodd" stroke="none"/>
    <path d="M6.95 -7.7 L7.95 -7.7 Q7.95 -7.05 8.25 -6.6 8.5 -6.2 8.95 -6.2 L8.95 -4.7 6.95 -3.7 6.95 -7.7" fill="#5d4e2e" fill-rule="evenodd" stroke="none"/>
    <path d="M5.95 -11.7 L6.95 -7.7 6.95 -3.7 5.95 -3.7 4.95 -11.7 5.95 -11.7" fill="#87837b" fill-rule="evenodd" stroke="none"/>
    <path d="M2.95 -7.7 Q2.5 -7.7 2.25 -7.25 1.95 -6.8 1.95 -6.2 1.5 -6.2 1.25 -5.75 0.95 -5.3 0.95 -4.7 L-3.05 -3.7 -3.05 -8.7 Q-3.05 -9.95 -1.3 -10.8 0.45 -11.7 2.95 -11.7 L2.95 -7.7" fill="#d0ceb9" fill-rule="evenodd" stroke="none"/>
    <path d="M4.95 -11.7 L2.95 -7.7 2.95 -11.7 5.95 -12.7 5.95 -11.7 4.95 -11.7" fill="#cac3b8" fill-rule="evenodd" stroke="none"/>
    <path d="M2.95 -7.7 L4.95 -11.7 5.95 -3.7 2.95 -3.7 1.95 -6.2 Q1.95 -6.8 2.25 -7.25 2.5 -7.7 2.95 -7.7" fill="#a9a19c" fill-rule="evenodd" stroke="none"/>
    <path d="M0.95 -4.7 L0.95 -2.2 -2.05 -2.2 -2.05 0.3 -3.05 -3.7 0.95 -4.7" fill="#4c4632" fill-rule="evenodd" stroke="none"/>
    <path d="M1.95 -6.2 L2.95 -3.7 Q5.25 -2.4 2.05 -2.15 L1.95 -2.2 0.95 -2.2 0.95 -4.7 Q0.95 -5.3 1.25 -5.75 1.5 -6.2 1.95 -6.2" fill="#828179" fill-rule="evenodd" stroke="none"/>
    <path d="M2.95 -3.7 L5.95 -3.7 6.95 -3.7 8.95 -4.7 11.95 -3.7 10.0 -3.1 10.7 -1.4 12.95 -0.7 19.95 -0.7 18.95 5.8 12.7 5.05 13.95 9.8 Q2.95 13.65 -8.7 12.5 L-10.05 12.3 -13.05 3.3 -13.05 1.8 -12.75 0.75 Q-12.5 0.3 -12.05 0.3 L-11.65 0.05 Q-8.35 -2.15 -9.05 -6.2 L-6.05 -6.2 Q-6.05 -5.15 -5.2 -4.4 -4.3 -3.7 -3.05 -3.7 L-2.05 0.3 0.45 2.35 1.95 -2.2 2.05 -2.15 Q5.25 -2.4 2.95 -3.7" fill="#32393e" fill-rule="evenodd" stroke="none"/>
    <path d="M0.95 -2.2 L1.95 -2.2 0.45 2.35 -2.05 0.3 -2.05 -2.2 0.95 -2.2" fill="#86847c" fill-rule="evenodd" stroke="none"/>
    <path d="M8.95 -6.2 L10.6 -7.0 12.95 -10.2 Q15.05 -6.8 12.3 -4.0 L11.95 -3.7 8.95 -4.7 8.95 -6.2" fill="#4f472a" fill-rule="evenodd" stroke="none"/>
    <path d="M12.95 -10.2 L12.95 -11.7 Q15.4 -11.7 17.2 -9.35 18.95 -7.0 18.95 -3.7 L12.95 -10.2" fill="#6e6e5f" fill-rule="evenodd" stroke="none"/>
    <path d="M11.95 -3.7 L12.3 -4.0 Q15.05 -6.8 12.95 -10.2 L18.95 -3.7 19.95 -0.7 12.95 -0.7 11.95 -3.7" fill="#605539" fill-rule="evenodd" stroke="none"/>
    <path d="M-17.05 -3.7 L-11.05 -7.7 -11.05 -6.2 Q-8.65 -4.9 -11.95 -4.65 L-12.05 -4.7 -13.4 -3.8 -15.05 -3.7 -17.05 -3.7" fill="#d8d8be" fill-rule="evenodd" stroke="none"/>
    <path d="M-11.05 -7.7 L-8.05 -8.7 -9.05 -6.2 -11.05 -6.2 -11.05 -7.7" fill="#c7c2bc" fill-rule="evenodd" stroke="none"/>
    <path d="M-18.05 1.8 L-20.05 -0.7 -18.05 -3.7 -18.05 -2.2 -18.05 1.8" fill="#c1bca8" fill-rule="evenodd" stroke="none"/>
    <path d="M-18.05 -3.7 L-17.05 -3.7 -15.05 -3.7 -15.05 -0.7 -15.05 3.3 Q-13.1 4.05 -15.55 4.3 L-16.05 4.3 -18.05 -2.2 -18.05 -3.7" fill="#b8b1aa" fill-rule="evenodd" stroke="none"/>
    <path d="M-15.05 -0.7 L-15.05 -3.7 -13.4 -3.8 -12.05 -4.7 -12.05 0.3 Q-12.5 0.3 -12.75 0.75 L-13.05 1.8 -15.05 -0.7" fill="#6f6b5a" fill-rule="evenodd" stroke="none"/>
    <path d="M-4.05 -8.7 L-3.05 -8.7 -3.05 -3.7 Q-4.3 -3.7 -5.2 -4.4 -6.05 -5.15 -6.05 -6.2 -5.25 -6.2 -4.65 -6.9 -4.05 -7.65 -4.05 -8.7" fill="#918d86" fill-rule="evenodd" stroke="none"/>
    <path d="M-7.05 -10.2 L-4.05 -8.7 Q-4.05 -7.65 -4.65 -6.9 -5.25 -6.2 -6.05 -6.2 L-7.05 -10.2" fill="#685e45" fill-rule="evenodd" stroke="none"/>
    <path d="M-8.05 -8.7 L-7.75 -9.75 Q-7.5 -10.2 -7.05 -10.2 L-6.05 -6.2 -9.05 -6.2 -8.05 -8.7" fill="#888e7f" fill-rule="evenodd" stroke="none"/>
    <path d="M-14.05 7.3 L-16.05 4.3 -15.55 4.3 Q-13.1 4.05 -15.05 3.3 L-13.05 3.3 -14.05 7.3" fill="#7f827a" fill-rule="evenodd" stroke="none"/>
    <path d="M-16.05 4.3 Q-16.9 4.3 -17.45 3.6 -18.05 2.85 -18.05 1.8 L-18.05 -2.2 -16.05 4.3" fill="#6b6b5c" fill-rule="evenodd" stroke="none"/>
    <path d="M-10.05 12.3 L-14.05 7.3 -13.05 3.3 -10.05 12.3" fill="#514828" fill-rule="evenodd" stroke="none"/>
    <path d="M13.95 9.8 L12.7 5.05 18.95 5.8 13.95 9.8" fill="#4b452d" fill-rule="evenodd" stroke="none"/>
  </g>
</svg>
