<?xml version="1.0" encoding="UTF-8" standalone="no"?>
<svg xmlns:ffdec="https://www.free-decompiler.com/flash" xmlns:xlink="http://www.w3.org/1999/xlink" ffdec:objectType="shape" height="29.5px" width="40.0px" xmlns="http://www.w3.org/2000/svg">
  <g transform="matrix(1.0, 0.0, 0.0, 1.0, 20.0, 14.45)">
    <path d="M1.0 -13.2 L4.3 -8.3 8.0 -9.2 11.0 -5.2 13.0 -2.7 17.0 -2.7 Q17.85 -2.7 18.45 -1.8 19.0 -0.95 19.0 0.3 L19.0 2.8 16.85 4.9 13.1 11.45 -1.25 15.05 -13.0 9.3 -10.0 9.3 Q-7.75 7.75 -9.5 5.8 L-10.0 5.3 -6.75 4.95 Q-5.45 4.6 -5.45 4.05 -5.45 3.55 -6.75 3.2 L-10.0 2.8 -10.0 0.3 -7.0 -2.7 -6.7 -2.55 Q-5.75 -2.55 -6.0 -3.7 L-5.0 -3.7 -1.0 -3.7 0.0 -13.2 1.0 -13.2 M6.75 1.8 L-3.35 4.65 4.5 13.3 6.75 1.8" fill="#343a3d" fill-rule="evenodd" stroke="none"/>
    <path d="M8.0 -13.2 L4.0 -13.2 Q5.7 -15.4 7.6 -13.65 L8.0 -13.2" fill="#7b796d" fill-rule="evenodd" stroke="none"/>
    <path d="M4.0 -13.2 L8.0 -13.2 Q9.25 -13.2 10.15 -12.45 11.0 -11.7 11.0 -10.7 L11.0 -7.7 8.0 -9.2 4.3 -8.3 1.0 -13.2 4.0 -13.2" fill="#5e5437" fill-rule="evenodd" stroke="none"/>
    <path d="M16.0 -9.2 Q16.45 -9.2 16.75 -8.75 L17.0 -7.7 18.0 -5.2 15.0 -5.2 15.0 -6.7 16.0 -9.2" fill="#635f49" fill-rule="evenodd" stroke="none"/>
    <path d="M18.0 -5.2 L20.0 -5.2 20.0 0.3 19.0 0.3 Q19.0 -0.95 18.45 -1.8 17.85 -2.7 17.0 -2.7 L18.0 -5.2" fill="#6a6958" fill-rule="evenodd" stroke="none"/>
    <path d="M11.0 -7.7 L11.0 -10.7 16.0 -9.2 15.0 -6.7 11.0 -7.7" fill="#a39d98" fill-rule="evenodd" stroke="none"/>
    <path d="M8.0 -9.2 L11.0 -7.7 11.0 -5.2 8.0 -9.2" fill="#504828" fill-rule="evenodd" stroke="none"/>
    <path d="M11.0 -7.7 L15.0 -6.7 15.0 -5.2 13.0 -2.7 11.0 -5.2 11.0 -7.7" fill="#969088" fill-rule="evenodd" stroke="none"/>
    <path d="M20.0 0.3 L20.0 5.3 19.0 2.8 19.0 0.3 20.0 0.3" fill="#605030" fill-rule="evenodd" stroke="none"/>
    <path d="M13.0 -2.7 L15.0 -5.2 18.0 -5.2 17.0 -2.7 13.0 -2.7" fill="#584c2c" fill-rule="evenodd" stroke="none"/>
    <path d="M20.0 5.3 L13.1 11.45 16.85 4.9 19.0 2.8 20.0 5.3" fill="#45422f" fill-rule="evenodd" stroke="none"/>
    <path d="M6.75 1.8 L4.5 13.3 -3.35 4.65 6.75 1.8" fill="#372018" fill-rule="evenodd" stroke="none"/>
    <path d="M-5.0 -11.7 L-1.1 -12.65 -1.0 -11.7 Q-2.15 -8.7 -4.65 -10.45 L-5.0 -10.7 -5.0 -11.7" fill="#bfb8ac" fill-rule="evenodd" stroke="none"/>
    <path d="M-1.1 -12.65 L0.0 -13.2 -1.0 -3.7 -1.0 -7.7 -1.0 -11.7 -1.1 -12.65" fill="#594c2c" fill-rule="evenodd" stroke="none"/>
    <path d="M-15.0 -6.7 L-13.0 -6.7 -10.0 -6.7 Q-9.55 -6.7 -9.25 -6.25 -9.0 -5.8 -9.0 -5.2 L-12.0 -2.7 -14.0 -2.7 -15.0 -6.7" fill="#42433c" fill-rule="evenodd" stroke="none"/>
    <path d="M-13.0 -6.7 Q-13.0 -7.7 -11.5 -8.45 -10.05 -9.2 -8.0 -9.2 L-10.0 -6.7 -13.0 -6.7" fill="#dedeb8" fill-rule="evenodd" stroke="none"/>
    <path d="M-20.0 2.8 L-20.0 0.3 -18.0 -2.7 -18.0 -1.95 Q-17.95 0.85 -15.0 0.3 -14.55 0.3 -14.25 0.6 -14.0 0.9 -14.0 1.3 L-18.0 1.3 -20.0 2.8" fill="#d3d0b8" fill-rule="evenodd" stroke="none"/>
    <path d="M-18.0 -2.7 L-15.0 -6.7 -14.0 -2.7 -15.0 0.3 Q-17.95 0.85 -18.0 -1.95 L-18.0 -2.7" fill="#a6a292" fill-rule="evenodd" stroke="none"/>
    <path d="M-15.0 0.3 L-14.0 -2.7 -12.0 -2.7 -12.0 -1.2 -13.45 -0.95 -13.65 -0.8 Q-14.8 0.7 -13.0 1.3 L-14.0 1.3 Q-14.0 0.9 -14.25 0.6 -14.55 0.3 -15.0 0.3" fill="#b8b0ab" fill-rule="evenodd" stroke="none"/>
    <path d="M-14.0 1.3 L-13.0 1.3 Q-13.0 2.55 -13.55 3.45 -14.15 4.3 -15.0 4.3 L-16.0 4.3 -18.0 1.3 -14.0 1.3" fill="#544a30" fill-rule="evenodd" stroke="none"/>
    <path d="M-13.0 1.3 Q-14.8 0.7 -13.65 -0.8 L-13.45 -0.95 -12.0 -1.2 Q-11.55 -1.2 -11.25 -0.75 -11.0 -0.3 -11.0 0.3 -11.0 0.75 -11.55 1.05 L-13.0 1.3" fill="#645c43" fill-rule="evenodd" stroke="none"/>
    <path d="M-7.0 -2.7 L-10.0 0.3 -11.0 0.3 Q-11.0 -0.3 -11.25 -0.75 -11.55 -1.2 -12.0 -1.2 L-12.0 -2.7 -9.0 -5.2 -7.0 -2.7" fill="#938f89" fill-rule="evenodd" stroke="none"/>
    <path d="M-10.0 0.3 L-10.0 2.8 -10.0 5.3 -12.0 5.3 -15.0 4.3 Q-14.15 4.3 -13.55 3.45 -13.0 2.55 -13.0 1.3 L-11.55 1.05 Q-11.0 0.75 -11.0 0.3 L-10.0 0.3" fill="#87867e" fill-rule="evenodd" stroke="none"/>
    <path d="M-5.0 -10.7 L-4.65 -10.45 Q-2.15 -8.7 -1.0 -11.7 L-1.0 -7.7 -5.0 -6.7 -5.0 -10.7" fill="#a8a09c" fill-rule="evenodd" stroke="none"/>
    <path d="M-1.0 -3.7 L-5.0 -3.7 -5.0 -6.7 -1.0 -7.7 -1.0 -3.7" fill="#737971" fill-rule="evenodd" stroke="none"/>
    <path d="M-8.0 -9.2 L-5.0 -11.7 -5.0 -10.7 -5.0 -6.7 -5.0 -3.7 -6.0 -3.7 -9.0 -5.2 Q-9.0 -5.8 -9.25 -6.25 -9.55 -6.7 -10.0 -6.7 L-8.0 -9.2" fill="#b9b3ab" fill-rule="evenodd" stroke="none"/>
    <path d="M-6.0 -3.7 Q-5.75 -2.55 -6.7 -2.55 L-7.0 -2.7 -9.0 -5.2 -6.0 -3.7" fill="#d1ceb4" fill-rule="evenodd" stroke="none"/>
    <path d="M-10.0 2.8 L-6.75 3.2 Q-5.45 3.55 -5.45 4.05 -5.45 4.6 -6.75 4.95 L-10.0 5.3 -10.0 2.8" fill="#6c6856" fill-rule="evenodd" stroke="none"/>
    <path d="M-10.0 5.3 L-9.5 5.8 Q-7.75 7.75 -10.0 9.3 L-12.0 5.3 -10.0 5.3" fill="#524929" fill-rule="evenodd" stroke="none"/>
    <path d="M-13.0 9.3 Q-14.25 9.3 -15.1 8.6 -16.0 7.85 -16.0 6.8 L-16.0 4.3 -15.0 4.3 -12.0 5.3 -10.0 9.3 -13.0 9.3" fill="#3d413d" fill-rule="evenodd" stroke="none"/>
    <path d="M-16.0 6.8 L-20.0 2.8 -18.0 1.3 -16.0 4.3 -16.0 6.8" fill="#89847a" fill-rule="evenodd" stroke="none"/>
  </g>
</svg>
