<?xml version="1.0" encoding="UTF-8" standalone="no"?>
<svg xmlns:ffdec="https://www.free-decompiler.com/flash" xmlns:xlink="http://www.w3.org/1999/xlink" ffdec:objectType="shape" height="15.0px" width="15.0px" xmlns="http://www.w3.org/2000/svg">
  <g transform="matrix(1.0, 0.0, 0.0, 1.0, 7.5, 7.2)">
    <path d="M6.5 -6.45 L6.6 -6.35 Q7.5 -5.45 7.5 -4.2 L7.5 -0.45 4.05 -0.45 4.05 -2.05 4.05 -3.65 4.1 -3.65 4.5 -4.15 6.5 -6.45" fill="url(#gradient0)" fill-rule="evenodd" stroke="none"/>
    <path d="M6.5 -6.45 L4.5 -4.15 4.05 -3.65 4.05 -3.7 1.15 -3.7 -3.95 -3.7 -4.45 -4.1 -6.85 -6.05 -6.65 -6.35 Q-5.75 -7.2 -4.5 -7.2 L4.5 -7.2 Q5.65 -7.2 6.5 -6.45" fill="url(#gradient1)" fill-rule="evenodd" stroke="none"/>
    <path d="M4.05 -3.65 L4.05 -2.05 4.05 -0.45 4.05 1.45 4.05 4.3 4.0 4.3 0.8 4.3 -3.95 4.3 -3.95 1.1 -3.95 -0.5 -3.95 -1.0 -3.95 -3.7 1.15 -3.7 4.05 -3.7 4.05 -3.65" fill="#000000" fill-rule="evenodd" stroke="none"/>
    <path d="M-7.5 -1.0 L-7.5 -4.2 Q-7.5 -5.25 -6.85 -6.05 L-4.45 -4.1 -3.95 -3.7 -3.95 -1.0 -7.5 -1.0" fill="url(#gradient2)" fill-rule="evenodd" stroke="none"/>
    <path d="M-6.3 7.2 L-6.65 6.9 Q-7.5 6.05 -7.5 4.8 L-7.5 1.4 -4.0 1.4 -4.0 1.1 -3.95 1.1 -3.95 4.3 -4.0 4.35 -6.3 7.2" fill="url(#gradient3)" fill-rule="evenodd" stroke="none"/>
    <path d="M6.8 6.75 L6.6 6.9 Q5.75 7.8 4.5 7.8 L-4.5 7.8 Q-5.55 7.8 -6.3 7.2 L-4.0 4.35 -3.95 4.3 0.8 4.3 4.0 4.3 4.05 4.35 4.05 4.4 6.8 6.75" fill="url(#gradient4)" fill-rule="evenodd" stroke="none"/>
    <path d="M7.5 1.45 L7.5 4.8 Q7.5 5.9 6.8 6.75 L4.05 4.4 4.05 4.35 4.05 4.3 4.05 1.45 7.5 1.45" fill="url(#gradient5)" fill-rule="evenodd" stroke="none"/>
    <path d="M4.05 -0.45 L7.5 -0.45 7.5 1.45 4.05 1.45 4.05 -0.45 M-7.5 1.4 L-7.5 -0.5 -4.0 -0.5 -4.0 1.1 -4.0 1.4 -7.5 1.4" fill="#244282" fill-rule="evenodd" stroke="none"/>
    <path d="M-7.5 -0.5 L-7.5 -1.0 -3.95 -1.0 -3.95 -0.5 -4.0 -0.5 -7.5 -0.5" fill="url(#gradient6)" fill-rule="evenodd" stroke="none"/>
  </g>
  <defs>
    <linearGradient gradientTransform="matrix(-0.002, 0.0, 0.0, -0.0039, 6.05, -3.65)" gradientUnits="userSpaceOnUse" id="gradient0" spreadMethod="pad" x1="-819.2" x2="819.2">
      <stop offset="0.0" stop-color="#1a2233"/>
      <stop offset="0.48627450980392156" stop-color="#bdbab3"/>
      <stop offset="1.0" stop-color="#72706c"/>
    </linearGradient>
    <linearGradient gradientTransform="matrix(0.0, 0.0021, -0.0081, 0.0, -0.15, -5.5)" gradientUnits="userSpaceOnUse" id="gradient1" spreadMethod="pad" x1="-819.2" x2="819.2">
      <stop offset="0.0" stop-color="#1a2233"/>
      <stop offset="0.48627450980392156" stop-color="#bdbab3"/>
      <stop offset="1.0" stop-color="#72706c"/>
    </linearGradient>
    <linearGradient gradientTransform="matrix(0.0019, 0.0, 0.0, 0.0043, -6.1, -2.45)" gradientUnits="userSpaceOnUse" id="gradient2" spreadMethod="pad" x1="-819.2" x2="819.2">
      <stop offset="0.0" stop-color="#1a2233"/>
      <stop offset="0.48627450980392156" stop-color="#bdbab3"/>
      <stop offset="1.0" stop-color="#72706c"/>
    </linearGradient>
    <linearGradient gradientTransform="matrix(0.002, 0.0, 0.0, 0.0039, -6.0, 4.3)" gradientUnits="userSpaceOnUse" id="gradient3" spreadMethod="pad" x1="-819.2" x2="819.2">
      <stop offset="0.0" stop-color="#1a2233"/>
      <stop offset="0.48627450980392156" stop-color="#bdbab3"/>
      <stop offset="1.0" stop-color="#72706c"/>
    </linearGradient>
    <linearGradient gradientTransform="matrix(0.0, -0.0018, 0.008, 0.0, 0.25, 6.15)" gradientUnits="userSpaceOnUse" id="gradient4" spreadMethod="pad" x1="-819.2" x2="819.2">
      <stop offset="0.0" stop-color="#1a2233"/>
      <stop offset="0.48627450980392156" stop-color="#bdbab3"/>
      <stop offset="1.0" stop-color="#72706c"/>
    </linearGradient>
    <linearGradient gradientTransform="matrix(-0.0019, 0.0, 0.0, -0.0043, 6.15, 3.1)" gradientUnits="userSpaceOnUse" id="gradient5" spreadMethod="pad" x1="-819.2" x2="819.2">
      <stop offset="0.0" stop-color="#1a2233"/>
      <stop offset="0.48627450980392156" stop-color="#bdbab3"/>
      <stop offset="1.0" stop-color="#72706c"/>
    </linearGradient>
    <linearGradient gradientTransform="matrix(0.0019, 0.0, 0.0, 0.0043, -6.1, -2.15)" gradientUnits="userSpaceOnUse" id="gradient6" spreadMethod="pad" x1="-819.2" x2="819.2">
      <stop offset="0.0" stop-color="#1a2233"/>
      <stop offset="0.48627450980392156" stop-color="#bdbab3"/>
      <stop offset="1.0" stop-color="#72706c"/>
    </linearGradient>
  </defs>
</svg>
