<?xml version="1.0" encoding="UTF-8" standalone="no"?>
<svg xmlns:ffdec="https://www.free-decompiler.com/flash" xmlns:xlink="http://www.w3.org/1999/xlink" ffdec:objectType="shape" height="7.25px" width="6.0px" xmlns="http://www.w3.org/2000/svg">
  <g transform="matrix(1.0, 0.0, 0.0, 1.0, 2.5, 3.25)">
    <path d="M1.75 -3.15 L2.6 -2.8 3.25 -2.05 3.5 -1.0 3.3 0.0 2.8 0.75 1.85 1.4 0.5 1.65 -0.65 1.65 -0.65 4.0 -2.5 4.0 -2.5 -3.25 0.55 -3.25 1.75 -3.15 M1.35 -1.45 L1.0 -1.75 0.4 -1.9 -0.3 -1.9 -0.65 -1.9 -0.65 0.25 -0.1 0.25 0.7 0.2 1.2 -0.05 1.45 -0.4 1.55 -0.95 1.35 -1.45" fill="#3490c0" fill-rule="evenodd" stroke="none"/>
  </g>
</svg>
