<?xml version="1.0" encoding="UTF-8" standalone="no"?>
<svg xmlns:ffdec="https://www.free-decompiler.com/flash" xmlns:xlink="http://www.w3.org/1999/xlink" ffdec:objectType="shape" height="29.25px" width="44.3px" xmlns="http://www.w3.org/2000/svg">
  <g transform="matrix(1.0, 0.0, 0.0, 1.0, 22.15, 14.6)">
    <path d="M2.05 -14.6 Q4.1 -14.6 5.6 -13.85 7.05 -13.1 7.05 -12.1 L4.9 -10.8 2.05 -12.1 2.05 -14.6" fill="#aba3a0" fill-rule="evenodd" stroke="none"/>
    <path d="M9.05 -12.1 L10.05 -12.1 10.05 -5.6 9.05 -5.6 8.05 -8.1 9.05 -12.1" fill="#8f8a82" fill-rule="evenodd" stroke="none"/>
    <path d="M2.05 -12.1 L4.9 -10.8 7.05 -12.1 9.05 -12.1 8.05 -8.1 4.05 -5.6 3.05 -9.6 2.75 -10.3 2.05 -10.6 2.05 -12.1" fill="#c5beb5" fill-rule="evenodd" stroke="none"/>
    <path d="M2.05 -10.6 L2.75 -10.3 3.05 -9.6 0.05 -6.6 0.05 -9.6 2.05 -10.6" fill="#837f74" fill-rule="evenodd" stroke="none"/>
    <path d="M2.05 -14.6 L2.05 -12.1 2.05 -10.6 0.05 -9.6 Q0.05 -10.0 -0.25 -10.3 -0.55 -10.6 -0.95 -10.6 L-0.95 -13.6 2.05 -14.6" fill="#d0ccb8" fill-rule="evenodd" stroke="none"/>
    <path d="M0.05 -9.6 L0.05 -6.6 -1.25 -5.7 -3.95 -5.6 -2.95 -8.1 -1.95 -10.6 -0.95 -10.6 Q-0.55 -10.6 -0.25 -10.3 0.05 -10.0 0.05 -9.6" fill="#cec9b8" fill-rule="evenodd" stroke="none"/>
    <path d="M3.05 -9.6 L4.05 -5.6 2.05 -5.6 0.95 -5.3 Q0.2 -3.95 0.05 -6.1 L0.05 -6.6 3.05 -9.6" fill="#a9a19c" fill-rule="evenodd" stroke="none"/>
    <path d="M0.05 -2.6 L0.05 -1.6 -0.95 -1.6 -4.95 -1.6 Q-5.8 -1.6 -6.35 -2.3 -6.95 -3.05 -6.95 -4.1 L-4.85 -4.5 Q-3.95 -4.95 -3.95 -5.6 L-1.25 -5.7 0.05 -6.6 0.05 -6.1 Q0.2 -3.95 0.95 -5.3 L0.05 -2.6" fill="#afa7a3" fill-rule="evenodd" stroke="none"/>
    <path d="M4.05 -5.6 L4.05 -5.45 Q3.85 -2.1 5.65 -3.15 L5.05 -1.6 2.05 -5.6 4.05 -5.6" fill="#5e5438" fill-rule="evenodd" stroke="none"/>
    <path d="M2.05 -5.6 L5.05 -1.6 3.85 0.05 0.05 -2.6 0.95 -5.3 2.05 -5.6" fill="#948d85" fill-rule="evenodd" stroke="none"/>
    <path d="M21.05 -6.6 L21.05 -5.6 21.05 1.4 17.05 5.4 16.05 5.4 10.05 3.9 13.05 7.9 15.05 9.4 Q7.1 15.35 -2.7 14.55 L-3.95 14.4 -9.95 11.9 -10.95 7.9 -9.95 3.9 -8.35 3.3 -7.95 -1.6 -4.95 -0.1 -3.95 2.9 -2.95 1.35 -1.95 5.85 -0.95 3.9 0.05 -1.6 0.05 -2.6 3.85 0.05 5.05 -1.6 5.65 -3.15 9.05 -5.6 10.05 -5.6 12.05 -10.6 13.05 -10.6 Q13.05 -9.55 13.9 -8.8 14.8 -8.1 16.05 -8.1 L17.35 -6.45 20.05 -6.6 21.05 -6.6" fill="#33393d" fill-rule="evenodd" stroke="none"/>
    <path d="M8.05 -8.1 L9.05 -5.6 5.65 -3.15 Q3.85 -2.1 4.05 -5.45 L4.05 -5.6 8.05 -8.1" fill="#a29a94" fill-rule="evenodd" stroke="none"/>
    <path d="M10.05 -12.1 L12.05 -12.1 12.05 -10.6 10.05 -5.6 10.05 -12.1" fill="#554a2a" fill-rule="evenodd" stroke="none"/>
    <path d="M21.05 -5.6 L21.45 -4.8 Q23.0 -1.65 21.05 1.4 L21.05 -5.6 M16.05 -9.6 L19.05 -10.6 20.05 -6.6 17.35 -6.45 16.05 -8.1 16.05 -9.6" fill="#524929" fill-rule="evenodd" stroke="none"/>
    <path d="M12.05 -12.1 L19.05 -10.6 16.05 -9.6 14.7 -10.5 13.05 -10.6 12.05 -10.6 12.05 -12.1" fill="#918a82" fill-rule="evenodd" stroke="none"/>
    <path d="M16.05 -9.6 L16.05 -8.1 Q14.8 -8.1 13.9 -8.8 13.05 -9.55 13.05 -10.6 L14.7 -10.5 16.05 -9.6 M16.05 5.4 L15.05 9.4 13.05 7.9 Q13.05 6.9 13.9 6.15 14.8 5.4 16.05 5.4" fill="#707870" fill-rule="evenodd" stroke="none"/>
    <path d="M19.05 -10.6 Q19.85 -10.6 20.45 -9.4 21.05 -8.25 21.05 -6.6 L20.05 -6.6 19.05 -10.6" fill="#747162" fill-rule="evenodd" stroke="none"/>
    <path d="M-3.95 14.4 L-9.95 13.4 -9.95 11.9 -3.95 14.4 M13.05 7.9 L10.05 3.9 16.05 5.4 Q14.8 5.4 13.9 6.15 13.05 6.9 13.05 7.9" fill="#5b4d2d" fill-rule="evenodd" stroke="none"/>
    <path d="M17.05 5.4 L16.75 9.05 15.05 9.4 16.05 5.4 17.05 5.4" fill="#4c462e" fill-rule="evenodd" stroke="none"/>
    <path d="M-14.95 -6.6 L-14.5 -7.15 Q-10.35 -12.2 -3.95 -10.6 L-4.95 -8.1 -6.95 -6.65 -9.95 -8.1 -11.95 -8.1 -11.95 -5.6 -14.45 -4.45 -14.95 -6.6" fill="#d4d1bc" fill-rule="evenodd" stroke="none"/>
    <path d="M-13.95 -1.6 L-13.95 -2.6 -12.95 -2.6 -10.95 2.4 -10.9 4.7 -11.95 5.4 -11.95 7.9 -13.95 7.9 -16.95 6.4 -18.95 2.4 -18.95 1.4 -17.95 1.4 -15.95 1.4 -14.4 2.2 -13.95 -1.6" fill="#494432" fill-rule="evenodd" stroke="none"/>
    <path d="M-13.95 -2.6 L-13.95 -1.6 -15.95 1.4 -15.95 -2.6 -13.95 -2.6" fill="#b9b1ae" fill-rule="evenodd" stroke="none"/>
    <path d="M-10.95 2.4 L-12.95 -2.6 -11.95 -5.6 -11.95 -8.1 -9.95 -8.1 -9.95 -6.6 -11.0 -5.45 -8.95 -1.6 -9.95 2.4 Q-9.95 2.0 -10.1 1.7 L-10.45 1.4 -10.8 1.7 -10.95 2.4" fill="#84847d" fill-rule="evenodd" stroke="none"/>
    <path d="M-16.95 -6.6 L-14.95 -6.6 -14.45 -4.45 -11.95 -5.6 -12.95 -2.6 -13.95 -2.6 -15.95 -2.6 -16.95 -6.6" fill="#a59d98" fill-rule="evenodd" stroke="none"/>
    <path d="M-17.95 -4.1 L-16.95 -6.6 -15.95 -2.6 -15.95 1.4 -17.95 1.4 -17.95 -4.1" fill="#cecab4" fill-rule="evenodd" stroke="none"/>
    <path d="M-4.95 -8.1 L-3.95 -10.6 -1.95 -10.6 -2.95 -8.1 -4.95 -8.1" fill="#8e8b83" fill-rule="evenodd" stroke="none"/>
    <path d="M-9.95 -8.1 L-6.95 -6.65 -4.95 -8.1 -2.95 -8.1 -3.95 -5.6 -7.95 -4.1 -9.95 -6.6 -9.95 -8.1" fill="#9a9793" fill-rule="evenodd" stroke="none"/>
    <path d="M-3.95 -10.6 L-0.95 -13.6 -0.95 -10.6 -1.95 -10.6 -3.95 -10.6" fill="#e2e4c4" fill-rule="evenodd" stroke="none"/>
    <path d="M-4.95 -0.1 L-7.95 -1.6 -7.95 -4.1 -6.95 -4.1 Q-6.95 -3.05 -6.35 -2.3 -5.8 -1.6 -4.95 -1.6 L-4.95 -0.1" fill="#635e47" fill-rule="evenodd" stroke="none"/>
    <path d="M-9.95 -6.6 L-7.95 -4.1 -7.95 -1.6 -8.95 -1.6 -11.0 -5.45 -9.95 -6.6" fill="#434136" fill-rule="evenodd" stroke="none"/>
    <path d="M-7.95 -4.1 L-3.95 -5.6 Q-3.95 -4.95 -4.85 -4.5 L-6.95 -4.1 -7.95 -4.1" fill="#c0bab0" fill-rule="evenodd" stroke="none"/>
    <path d="M-7.95 -1.6 L-8.35 3.3 -9.95 3.9 -9.95 2.4 -8.95 -1.6 -7.95 -1.6" fill="#504828" fill-rule="evenodd" stroke="none"/>
    <path d="M-2.95 1.35 L-3.95 2.9 -4.95 -0.1 -4.95 -1.6 -0.95 -1.6 -0.95 1.4 -2.95 1.35" fill="#a49c98" fill-rule="evenodd" stroke="none"/>
    <path d="M-20.95 -1.6 L-17.95 -4.1 -17.95 1.4 -18.95 1.4 -19.95 1.4 -20.95 -1.6" fill="#e0e1c3" fill-rule="evenodd" stroke="none"/>
    <path d="M-9.95 3.9 L-10.95 7.9 -11.95 7.9 -11.95 5.4 -10.9 4.7 -10.95 2.4 -10.8 1.7 -10.45 1.4 -10.1 1.7 Q-9.95 2.0 -9.95 2.4 L-9.95 3.9" fill="#5e583e" fill-rule="evenodd" stroke="none"/>
    <path d="M-0.95 3.9 L-1.95 5.85 -2.95 1.35 -0.95 1.4 -0.95 3.9" fill="#88857d" fill-rule="evenodd" stroke="none"/>
    <path d="M0.05 -1.6 L-0.95 3.9 -0.95 1.4 -0.95 -1.6 0.05 -1.6" fill="#605030" fill-rule="evenodd" stroke="none"/>
    <path d="M-16.95 7.9 L-19.95 5.4 -18.95 2.4 -16.95 6.4 -16.95 7.9" fill="#83827a" fill-rule="evenodd" stroke="none"/>
    <path d="M-19.95 5.4 L-20.95 5.4 -19.95 1.4 -18.95 1.4 -18.95 2.4 -19.95 5.4" fill="#534929" fill-rule="evenodd" stroke="none"/>
    <path d="M-14.95 13.4 L-16.95 7.9 -16.95 6.4 -13.95 7.9 -13.95 9.4 -14.95 13.4" fill="#707265" fill-rule="evenodd" stroke="none"/>
    <path d="M-10.95 7.9 L-9.95 11.9 -13.95 9.4 -13.95 7.9 -11.95 7.9 -10.95 7.9" fill="#594c2c" fill-rule="evenodd" stroke="none"/>
    <path d="M-13.95 -1.6 L-14.4 2.2 -15.95 1.4 -13.95 -1.6" fill="#645c43" fill-rule="evenodd" stroke="none"/>
    <path d="M-9.95 13.4 L-14.95 13.4 -13.95 9.4 -9.95 11.9 -9.95 13.4" fill="#8b867e" fill-rule="evenodd" stroke="none"/>
    <path d="M-20.95 5.4 L-21.4 4.65 Q-23.05 1.45 -20.95 -1.6 L-19.95 1.4 -20.95 5.4" fill="#a9a39e" fill-rule="evenodd" stroke="none"/>
  </g>
</svg>
