<?xml version="1.0" encoding="UTF-8" standalone="no"?>
<svg xmlns:ffdec="https://www.free-decompiler.com/flash" xmlns:xlink="http://www.w3.org/1999/xlink" ffdec:objectType="shape" height="24.0px" width="39.1px" xmlns="http://www.w3.org/2000/svg">
  <g transform="matrix(1.0, 0.0, 0.0, 1.0, 19.5, 11.95)">
    <path d="M-19.5 0.05 Q-19.5 -1.6 -18.6 -2.75 -17.75 -3.95 -16.5 -3.95 L-17.5 -1.45 -19.5 0.05" fill="#dbdbb8" fill-rule="evenodd" stroke="none"/>
    <path d="M-16.5 -3.95 L-12.5 -5.45 -10.5 -5.45 Q-10.05 -5.45 -9.75 -5.0 L-9.5 -3.95 -9.5 -2.45 -10.5 2.55 -13.5 2.55 -14.5 2.55 -14.05 0.4 -16.5 1.55 -17.5 -1.45 -16.5 -3.95" fill="#c5beb2" fill-rule="evenodd" stroke="none"/>
    <path d="M-12.5 -5.45 Q-12.5 -6.45 -11.6 -7.2 -10.75 -7.95 -9.5 -7.95 L-10.5 -5.45 -12.5 -5.45" fill="#dcdcb8" fill-rule="evenodd" stroke="none"/>
    <path d="M0.5 -11.95 L3.5 -9.45 2.5 -6.45 -2.5 -5.45 -2.5 -2.45 -2.5 -1.45 -3.5 -1.45 -6.5 2.55 -8.5 2.55 -9.5 -2.45 -9.5 -3.95 -6.5 -6.45 -2.5 -9.45 Q-1.25 -9.45 -0.35 -10.15 0.5 -10.9 0.5 -11.95" fill="#3b3e3b" fill-rule="evenodd" stroke="none"/>
    <path d="M-1.5 -11.95 L0.5 -11.95 Q0.5 -10.9 -0.35 -10.15 -1.25 -9.45 -2.5 -9.45 L-1.5 -11.95" fill="#aca4a3" fill-rule="evenodd" stroke="none"/>
    <path d="M-5.5 -9.45 Q-5.5 -10.45 -4.3 -11.2 -3.15 -11.95 -1.5 -11.95 L-2.5 -9.45 -5.5 -9.45" fill="#cac4b8" fill-rule="evenodd" stroke="none"/>
    <path d="M-9.5 -7.95 L-7.5 -9.45 -6.5 -6.45 -9.5 -3.95 -9.75 -5.0 Q-10.05 -5.45 -10.5 -5.45 L-9.5 -7.95" fill="#c0b9ae" fill-rule="evenodd" stroke="none"/>
    <path d="M-7.5 -9.45 L-5.5 -9.45 -2.5 -9.45 -6.5 -6.45 -7.5 -9.45" fill="#908d88" fill-rule="evenodd" stroke="none"/>
    <path d="M-2.5 -1.45 Q-1.65 -1.45 -1.05 -1.0 -0.5 -0.55 -0.5 0.05 -1.3 0.05 -1.9 0.8 -2.5 1.55 -2.5 2.55 L-3.5 2.55 -3.5 -1.45 -2.5 -1.45" fill="#d5d3b8" fill-rule="evenodd" stroke="none"/>
    <path d="M1.5 -1.45 L1.5 0.05 0.5 0.05 -0.5 0.05 Q-0.5 -0.55 -1.05 -1.0 -1.65 -1.45 -2.5 -1.45 L-2.5 -2.45 -0.8 -3.35 0.5 -2.45 0.5 -2.3 Q0.55 -0.2 1.5 -1.45" fill="#c0b8b2" fill-rule="evenodd" stroke="none"/>
    <path d="M-2.5 -5.45 L0.3 -5.05 0.5 -2.45 -0.8 -3.35 -2.5 -2.45 -2.5 -5.45" fill="#96918b" fill-rule="evenodd" stroke="none"/>
    <path d="M5.5 -9.45 L7.5 -9.45 8.5 -6.45 7.5 -3.95 5.5 -6.45 5.5 -9.45" fill="#a39c93" fill-rule="evenodd" stroke="none"/>
    <path d="M7.5 -3.95 L8.5 -6.45 9.5 -6.45 9.5 -3.95 Q11.8 -2.65 8.65 -2.4 L8.5 -2.45 8.25 -3.5 7.5 -3.95" fill="#a09892" fill-rule="evenodd" stroke="none"/>
    <path d="M7.5 -9.45 L11.5 -9.45 11.5 -7.95 Q10.7 -7.95 10.1 -7.5 9.5 -7.05 9.5 -6.45 L8.5 -6.45 7.5 -9.45" fill="#6c7063" fill-rule="evenodd" stroke="none"/>
    <path d="M9.5 -6.45 Q9.5 -7.05 10.1 -7.5 10.7 -7.95 11.5 -7.95 L14.5 -5.45 12.5 -5.45 Q10.85 -5.95 10.55 -4.35 L10.5 -3.95 9.5 -3.95 9.5 -6.45" fill="#9b938b" fill-rule="evenodd" stroke="none"/>
    <path d="M3.5 -9.45 L5.5 -9.45 5.5 -6.45 3.5 -5.45 3.5 -5.95 Q3.3 -8.1 2.5 -6.45 L3.5 -9.45" fill="#5d5438" fill-rule="evenodd" stroke="none"/>
    <path d="M4.5 -1.45 L1.5 -1.45 Q0.55 -0.2 0.5 -2.3 L0.5 -2.45 2.65 -2.85 Q3.5 -3.3 3.5 -3.95 L5.5 -3.35 4.5 -1.45" fill="#a69f94" fill-rule="evenodd" stroke="none"/>
    <path d="M3.5 -3.95 Q3.5 -3.3 2.65 -2.85 L0.5 -2.45 0.3 -5.05 -2.5 -5.45 2.5 -6.45 Q3.3 -8.1 3.5 -5.95 L3.5 -5.45 3.5 -3.95" fill="#4d483a" fill-rule="evenodd" stroke="none"/>
    <path d="M5.5 -6.45 L7.5 -3.95 8.25 -3.5 8.5 -2.45 8.5 -1.45 6.5 -1.45 4.5 -1.45 5.5 -3.35 3.5 -3.95 3.5 -5.45 5.5 -6.45" fill="#b6aeab" fill-rule="evenodd" stroke="none"/>
    <path d="M1.5 -1.45 L4.5 -1.45 Q4.5 -0.2 3.65 0.7 2.75 1.55 1.5 1.55 L1.5 0.05 1.5 -1.45" fill="#534929" fill-rule="evenodd" stroke="none"/>
    <path d="M8.5 -2.45 L8.65 -2.4 Q11.8 -2.65 9.5 -3.95 L10.5 -3.95 11.25 -3.5 11.5 -2.45 10.2 -1.55 8.5 -1.45 8.5 -2.45" fill="#584c2c" fill-rule="evenodd" stroke="none"/>
    <path d="M15.5 6.55 Q3.35 14.4 -10.75 11.05 L-12.5 10.55 -13.35 7.25 -13.5 2.55 -10.5 2.55 -8.5 2.55 -6.5 2.55 -3.5 2.55 -3.2 4.65 Q-2.9 5.5 -2.5 5.5 -2.05 5.5 -1.75 4.65 -1.5 3.8 -1.5 2.55 L-0.5 2.55 -0.2 3.3 Q0.1 3.6 0.5 3.6 L1.25 3.3 1.5 2.55 Q3.6 2.55 5.05 1.4 6.5 0.2 6.5 -1.45 L8.5 -1.45 10.2 -1.55 11.5 -2.45 11.5 -2.3 Q11.55 -0.2 12.5 -1.45 L15.5 6.55" fill="#34393c" fill-rule="evenodd" stroke="none"/>
    <path d="M1.5 1.55 Q2.75 1.55 3.65 0.7 4.5 -0.2 4.5 -1.45 L6.5 -1.45 Q6.5 0.2 5.05 1.4 3.6 2.55 1.5 2.55 L1.5 1.55" fill="#929088" fill-rule="evenodd" stroke="none"/>
    <path d="M15.5 -9.45 L16.25 -8.8 Q18.95 -6.15 18.5 -2.45 L18.05 1.1 17.5 -2.45 Q17.5 -3.7 16.95 -4.55 16.35 -5.45 15.5 -5.45 L15.5 -7.95 15.5 -9.45" fill="#6c6e60" fill-rule="evenodd" stroke="none"/>
    <path d="M11.5 -9.45 L15.5 -9.45 15.5 -7.95 11.5 -7.95 11.5 -9.45" fill="#707870" fill-rule="evenodd" stroke="none"/>
    <path d="M11.5 -2.45 L11.25 -3.5 10.5 -3.95 10.55 -4.35 Q10.85 -5.95 12.5 -5.45 L12.5 -2.45 12.5 -1.45 Q11.55 -0.2 11.5 -2.3 L11.5 -2.45" fill="#6b6d5e" fill-rule="evenodd" stroke="none"/>
    <path d="M18.5 -2.45 Q21.5 3.15 16.2 6.2 L15.5 6.55 12.5 -1.45 12.5 -2.45 14.5 -2.45 17.5 -2.45 18.05 1.1 18.5 -2.45" fill="#514829" fill-rule="evenodd" stroke="none"/>
    <path d="M12.5 -2.45 L12.5 -5.45 14.5 -5.45 15.5 -5.45 14.5 -2.45 12.5 -2.45" fill="#838179" fill-rule="evenodd" stroke="none"/>
    <path d="M14.5 -2.45 L15.5 -5.45 Q16.35 -5.45 16.95 -4.55 17.5 -3.7 17.5 -2.45 L14.5 -2.45" fill="#605030" fill-rule="evenodd" stroke="none"/>
    <path d="M15.5 -5.45 L14.5 -5.45 11.5 -7.95 15.5 -7.95 15.5 -5.45" fill="#908880" fill-rule="evenodd" stroke="none"/>
    <path d="M1.5 0.05 L1.5 1.55 1.5 2.55 1.25 3.3 0.5 3.6 Q0.1 3.6 -0.2 3.3 L-0.5 2.55 0.5 0.05 1.5 0.05" fill="#645c43" fill-rule="evenodd" stroke="none"/>
    <path d="M-0.5 0.05 L0.5 0.05 -0.5 2.55 -1.5 2.55 -2.5 2.55 Q-2.5 1.55 -1.9 0.8 -1.3 0.05 -0.5 0.05" fill="#a19994" fill-rule="evenodd" stroke="none"/>
    <path d="M-1.5 2.55 Q-1.5 3.8 -1.75 4.65 -2.05 5.5 -2.5 5.5 -2.9 5.5 -3.2 4.65 L-3.5 2.55 -2.5 2.55 -1.5 2.55" fill="#5c563c" fill-rule="evenodd" stroke="none"/>
    <path d="M-3.5 2.55 L-6.5 2.55 -3.5 -1.45 -3.5 2.55" fill="#a09891" fill-rule="evenodd" stroke="none"/>
    <path d="M-16.5 1.55 L-14.05 0.4 -14.5 2.55 -15.5 2.55 -16.5 2.55 -16.5 1.55" fill="#d4d3b8" fill-rule="evenodd" stroke="none"/>
    <path d="M-13.5 2.55 L-13.35 7.25 -15.5 8.05 -15.5 2.55 -14.5 2.55 -13.5 2.55" fill="#60563a" fill-rule="evenodd" stroke="none"/>
    <path d="M-16.5 2.55 Q-17.75 2.55 -18.6 1.85 -19.5 1.1 -19.5 0.05 L-17.5 -1.45 -16.5 1.55 -16.5 2.55" fill="#7c715e" fill-rule="evenodd" stroke="none"/>
    <path d="M-15.5 8.05 L-16.5 2.55 -15.5 2.55 -15.5 8.05" fill="#818078" fill-rule="evenodd" stroke="none"/>
    <path d="M-12.5 10.55 Q-13.75 10.55 -14.6 9.85 -15.5 9.1 -15.5 8.05 L-13.35 7.25 -12.5 10.55" fill="#5e5d47" fill-rule="evenodd" stroke="none"/>
    <path d="M-8.5 2.55 L-10.5 2.55 -9.5 -2.45 -8.5 2.55" fill="#989088" fill-rule="evenodd" stroke="none"/>
  </g>
</svg>
