<?xml version="1.0" encoding="UTF-8" standalone="no"?>
<svg xmlns:ffdec="https://www.free-decompiler.com/flash" xmlns:xlink="http://www.w3.org/1999/xlink" ffdec:objectType="shape" height="25.5px" width="38.35px" xmlns="http://www.w3.org/2000/svg">
  <g transform="matrix(1.0, 0.0, 0.0, 1.0, 19.15, 12.7)">
    <path d="M-13.15 -4.7 Q-13.15 -5.75 -12.0 -6.45 -10.8 -7.2 -9.15 -7.2 L-9.15 -4.7 -13.15 -4.7" fill="#cec9b8" fill-rule="evenodd" stroke="none"/>
    <path d="M-18.15 2.3 L-19.15 -0.7 -16.15 -0.7 -16.15 0.8 Q-17.85 0.3 -18.15 1.9 L-18.15 2.3" fill="#a8a09e" fill-rule="evenodd" stroke="none"/>
    <path d="M-16.15 0.8 L-16.15 -0.7 -16.15 -3.2 Q-14.1 -3.2 -12.6 -2.45 -11.15 -1.75 -11.15 -0.7 L-15.15 2.3 -16.15 2.3 -16.15 0.8" fill="#908980" fill-rule="evenodd" stroke="none"/>
    <path d="M-16.15 3.3 Q-17.55 5.65 -18.1 2.75 L-18.15 2.3 -18.15 1.9 Q-17.85 0.3 -16.15 0.8 L-16.15 2.3 -16.15 3.3" fill="#6c6854" fill-rule="evenodd" stroke="none"/>
    <path d="M-19.15 -0.7 Q-19.15 -1.75 -18.3 -2.45 -17.4 -3.2 -16.15 -3.2 L-16.15 -0.7 -19.15 -0.7" fill="#c8c4b4" fill-rule="evenodd" stroke="none"/>
    <path d="M-15.15 2.3 L-11.15 -0.7 -11.15 1.45 -11.15 2.3 -12.6 2.5 -12.85 2.65 Q-14.05 4.15 -12.15 4.8 L-13.15 4.8 -15.15 4.8 -15.15 2.3" fill="#bbb3af" fill-rule="evenodd" stroke="none"/>
    <path d="M-13.15 -4.7 L-9.15 -4.7 Q-8.75 -4.7 -8.45 -4.25 -8.15 -3.85 -8.15 -3.2 L-9.15 0.8 -11.15 1.45 -11.15 -0.7 Q-11.15 -1.75 -12.6 -2.45 -14.1 -3.2 -16.15 -3.2 -16.15 -3.85 -15.3 -4.25 L-13.15 -4.7 M-11.15 2.7 L-10.15 3.3 Q-11.1 4.45 -11.15 2.7" fill="#b4aca8" fill-rule="evenodd" stroke="none"/>
    <path d="M3.85 -9.7 L5.85 -8.7 5.85 -7.2 2.85 -5.7 0.85 -4.7 -3.65 -3.2 -1.15 -1.7 -3.15 2.3 -6.5 3.4 -2.15 4.8 -0.15 4.8 0.85 4.8 0.85 5.1 Q1.6 10.85 3.85 6.3 4.65 6.3 5.25 5.4 5.85 4.55 5.85 3.3 L6.1 3.4 Q7.1 3.45 6.85 2.3 L10.85 -1.7 11.85 -1.7 11.9 -1.25 Q12.45 1.65 13.85 -0.7 13.85 0.4 14.15 1.15 14.4 1.95 14.85 1.95 15.25 1.95 15.55 1.15 L15.85 -0.7 17.85 -0.7 17.85 0.8 15.85 3.3 15.85 7.3 14.85 7.3 Q14.05 7.3 13.5 7.75 12.95 8.15 12.95 8.8 12.95 9.4 13.5 9.85 14.05 10.3 14.85 10.3 L10.85 12.8 -12.15 10.3 -13.15 4.8 -12.15 4.8 -11.85 5.65 Q-11.6 6.0 -11.15 6.0 -10.75 6.0 -10.45 5.65 -10.15 5.3 -10.15 4.8 L-9.6 4.45 Q-7.35 3.05 -9.15 0.8 L-8.15 -3.2 -6.15 -5.7 -4.15 -7.2 Q-3.35 -7.2 -2.75 -7.65 -2.15 -8.1 -2.15 -8.7 L-0.15 -8.7 3.85 -9.7" fill="#353a3c" fill-rule="evenodd" stroke="none"/>
    <path d="M-7.15 -8.7 L-2.15 -12.7 -2.15 -8.7 Q-2.15 -8.1 -2.75 -7.65 -3.35 -7.2 -4.15 -7.2 L-7.15 -8.7" fill="#b8b3a9" fill-rule="evenodd" stroke="none"/>
    <path d="M-2.15 -12.7 L0.85 -12.7 -0.15 -8.7 -2.15 -8.7 -2.15 -12.7" fill="#9e9992" fill-rule="evenodd" stroke="none"/>
    <path d="M-9.15 -4.7 L-9.15 -7.2 Q-9.15 -7.85 -8.55 -8.25 L-7.15 -8.7 -6.15 -5.7 -8.15 -3.2 Q-8.15 -3.85 -8.45 -4.25 -8.75 -4.7 -9.15 -4.7" fill="#b0a8a4" fill-rule="evenodd" stroke="none"/>
    <path d="M-6.15 -5.7 L-7.15 -8.7 -4.15 -7.2 -6.15 -5.7" fill="#a09892" fill-rule="evenodd" stroke="none"/>
    <path d="M-1.15 -1.7 L-3.65 -3.2 0.85 -4.7 -0.15 -1.7 -1.15 -1.7" fill="#908d86" fill-rule="evenodd" stroke="none"/>
    <path d="M-1.15 -1.7 L-0.15 -1.7 -0.15 0.8 -3.15 2.3 -1.15 -1.7" fill="#aea6a2" fill-rule="evenodd" stroke="none"/>
    <path d="M0.85 -4.7 L2.85 -5.7 2.85 -5.55 Q2.9 -3.55 3.85 -4.7 L3.85 -0.7 Q3.0 -0.7 2.45 -0.25 1.85 0.15 1.85 0.8 L-0.15 0.8 -0.15 -1.7 0.85 -4.7" fill="#47463b" fill-rule="evenodd" stroke="none"/>
    <path d="M5.85 -8.7 L7.85 -8.7 7.85 -7.2 6.85 -4.7 5.85 -4.7 5.85 -7.2 5.85 -8.7" fill="#b1a9a3" fill-rule="evenodd" stroke="none"/>
    <path d="M7.85 -8.7 L10.85 -9.7 10.85 -7.2 7.85 -7.2 7.85 -8.7" fill="#a69e9b" fill-rule="evenodd" stroke="none"/>
    <path d="M5.85 -4.7 L6.85 -4.7 6.85 -3.2 5.85 -0.7 3.85 -0.7 3.85 -4.7 5.85 -4.7" fill="#aaa29c" fill-rule="evenodd" stroke="none"/>
    <path d="M6.85 -4.7 L7.85 -7.2 10.85 -7.2 12.85 -7.2 14.95 -6.75 Q15.85 -6.35 15.85 -5.7 L15.85 -4.7 15.85 -0.7 15.55 1.15 Q15.25 1.95 14.85 1.95 14.4 1.95 14.15 1.15 13.85 0.4 13.85 -0.7 15.75 -3.95 12.3 -4.65 L11.85 -4.7 10.85 -4.7 6.85 -4.7" fill="#574d30" fill-rule="evenodd" stroke="none"/>
    <path d="M2.85 -5.7 L5.85 -7.2 5.85 -4.7 3.85 -4.7 Q2.9 -3.55 2.85 -5.55 L2.85 -5.7" fill="#7a7464" fill-rule="evenodd" stroke="none"/>
    <path d="M-3.15 2.3 L-0.15 0.8 1.85 0.8 2.55 1.25 2.85 2.3 Q1.6 2.3 0.7 3.05 -0.15 3.75 -0.15 4.8 L-2.15 4.8 -3.15 2.3" fill="#bab3a8" fill-rule="evenodd" stroke="none"/>
    <path d="M3.85 -0.7 L5.85 -0.7 6.85 2.3 Q5.6 0.35 4.2 1.9 L3.85 2.3 2.85 2.3 2.55 1.25 1.85 0.8 Q1.85 0.15 2.45 -0.25 3.0 -0.7 3.85 -0.7" fill="#a29a94" fill-rule="evenodd" stroke="none"/>
    <path d="M5.85 -0.7 L6.85 -3.2 9.85 -1.7 10.85 -1.7 6.85 2.3 5.85 -0.7" fill="#878278" fill-rule="evenodd" stroke="none"/>
    <path d="M13.85 -8.7 L17.95 -6.55 15.85 -5.7 Q15.85 -6.35 14.95 -6.75 L12.85 -7.2 Q12.85 -7.85 13.15 -8.25 13.4 -8.7 13.85 -8.7 M6.85 -4.7 L10.85 -4.7 9.85 -1.7 6.85 -3.2 6.85 -4.7" fill="#707870" fill-rule="evenodd" stroke="none"/>
    <path d="M0.85 -12.7 L3.85 -9.7 -0.15 -8.7 0.85 -12.7" fill="#584c2c" fill-rule="evenodd" stroke="none"/>
    <path d="M17.95 -6.55 L18.85 -3.2 17.85 -3.2 Q17.85 -3.85 17.25 -4.25 L15.85 -4.7 15.85 -5.7 17.95 -6.55" fill="#66604a" fill-rule="evenodd" stroke="none"/>
    <path d="M15.85 10.3 L14.85 10.3 Q14.05 10.3 13.5 9.85 12.95 9.4 12.95 8.8 12.95 8.15 13.5 7.75 14.05 7.3 14.85 7.3 L15.85 10.3 M15.85 -0.7 L15.85 -4.7 17.25 -4.25 Q17.85 -3.85 17.85 -3.2 L17.85 -0.7 15.85 -0.7" fill="#504828" fill-rule="evenodd" stroke="none"/>
    <path d="M10.85 -9.7 L13.85 -8.7 Q13.4 -8.7 13.15 -8.25 12.85 -7.85 12.85 -7.2 L10.85 -7.2 10.85 -9.7" fill="#959088" fill-rule="evenodd" stroke="none"/>
    <path d="M10.85 -4.7 L11.85 -4.7 12.35 -4.35 Q14.0 -2.85 11.85 -1.7 L10.85 -1.7 9.85 -1.7 10.85 -4.7" fill="#a09890" fill-rule="evenodd" stroke="none"/>
    <path d="M11.85 -4.7 L12.3 -4.65 Q15.75 -3.95 13.85 -0.7 12.45 1.65 11.9 -1.25 L11.85 -1.7 Q14.0 -2.85 12.35 -4.35 L11.85 -4.7" fill="#85827a" fill-rule="evenodd" stroke="none"/>
    <path d="M18.85 -3.2 L19.2 2.8 Q18.65 2.8 18.25 2.25 17.85 1.65 17.85 0.8 L17.85 -0.7 17.85 -3.2 18.85 -3.2" fill="#605030" fill-rule="evenodd" stroke="none"/>
    <path d="M19.2 2.8 L17.85 7.3 15.85 7.3 15.85 3.3 17.85 0.8 Q17.85 1.65 18.25 2.25 18.65 2.8 19.2 2.8 M-11.15 1.45 L-9.15 0.8 Q-7.35 3.05 -9.6 4.45 L-10.15 4.8 -10.15 3.3 -11.15 2.7 -11.15 2.3 -11.15 1.45" fill="#544a2a" fill-rule="evenodd" stroke="none"/>
    <path d="M17.85 7.3 Q17.85 8.55 17.25 9.4 16.65 10.3 15.85 10.3 L14.85 7.3 15.85 7.3 17.85 7.3" fill="#484438" fill-rule="evenodd" stroke="none"/>
    <path d="M3.85 2.3 L4.2 1.9 Q5.6 0.35 6.85 2.3 7.1 3.45 6.1 3.4 L5.85 3.3 3.85 3.3 3.85 2.3" fill="#7d7e76" fill-rule="evenodd" stroke="none"/>
    <path d="M2.85 2.3 L3.85 2.3 3.85 3.3 Q6.15 4.6 2.95 4.8 L2.85 4.8 0.85 4.8 -0.15 4.8 Q-0.15 3.75 0.7 3.05 1.6 2.3 2.85 2.3" fill="#484433" fill-rule="evenodd" stroke="none"/>
    <path d="M3.85 6.3 Q1.6 10.85 0.85 5.1 L0.85 4.8 2.85 4.8 Q2.85 5.4 3.15 5.85 3.4 6.3 3.85 6.3" fill="#5d563c" fill-rule="evenodd" stroke="none"/>
    <path d="M5.85 3.3 Q5.85 4.55 5.25 5.4 4.65 6.3 3.85 6.3 3.4 6.3 3.15 5.85 2.85 5.4 2.85 4.8 L2.95 4.8 Q6.15 4.6 3.85 3.3 L5.85 3.3" fill="#a8a09c" fill-rule="evenodd" stroke="none"/>
    <path d="M-2.15 4.8 L-6.5 3.4 -3.15 2.3 -2.15 4.8" fill="#8f8c85" fill-rule="evenodd" stroke="none"/>
    <path d="M-10.15 3.3 L-10.15 4.8 Q-10.15 5.3 -10.45 5.65 -10.75 6.0 -11.15 6.0 -11.6 6.0 -11.85 5.65 L-12.15 4.8 Q-14.05 4.15 -12.85 2.65 L-12.6 2.5 -11.15 2.3 -11.15 2.7 Q-11.1 4.45 -10.15 3.3" fill="#85867e" fill-rule="evenodd" stroke="none"/>
    <path d="M-15.15 7.3 L-16.15 3.3 -16.15 2.3 -15.15 2.3 -15.15 4.8 -15.15 7.3" fill="#96918c" fill-rule="evenodd" stroke="none"/>
    <path d="M-12.15 10.3 Q-13.4 10.3 -14.3 9.4 -15.15 8.55 -15.15 7.3 L-15.15 4.8 -13.15 4.8 -12.15 10.3" fill="#5a5135" fill-rule="evenodd" stroke="none"/>
  </g>
</svg>
