<?xml version="1.0" encoding="UTF-8" standalone="no"?>
<svg xmlns:ffdec="https://www.free-decompiler.com/flash" xmlns:xlink="http://www.w3.org/1999/xlink" ffdec:objectType="shape" height="152.3px" width="120.45px" xmlns="http://www.w3.org/2000/svg">
  <g transform="matrix(1.0, 0.0, 0.0, 1.0, 210.15, 279.9)">
    <path d="M-206.0 -275.9 L-94.0 -275.9 -94.0 -131.9 -206.0 -131.9 -206.0 -275.9" fill="#283848" fill-rule="evenodd" stroke="none"/>
    <path d="M-97.4 -274.65 L-103.0 -275.4 -107.8 -276.55 -112.15 -277.05 -117.3 -276.35 -122.8 -274.9 Q-125.2 -274.0 -129.1 -273.9 -132.95 -273.8 -133.55 -274.85 -134.15 -275.9 -136.35 -276.15 -138.5 -276.35 -142.05 -276.15 L-147.75 -276.5 -153.15 -277.35 Q-156.35 -277.6 -157.45 -276.75 -158.5 -275.85 -161.95 -276.0 L-167.4 -276.7 Q-169.4 -277.3 -172.45 -276.2 -175.5 -275.1 -176.95 -275.5 L-181.85 -275.7 Q-185.3 -275.45 -188.0 -274.7 -190.65 -273.95 -192.2 -274.95 -193.7 -275.9 -197.8 -275.0 -201.9 -274.1 -203.2 -274.55 -204.5 -275.0 -205.25 -272.3 -206.0 -269.6 -205.3 -268.0 -204.6 -266.4 -205.3 -263.75 -205.95 -261.05 -205.9 -258.9 L-205.35 -254.25 Q-204.9 -251.75 -205.15 -248.95 -205.35 -246.15 -204.95 -243.65 -204.55 -241.1 -206.0 -238.2 -207.4 -235.3 -205.5 -233.3 -203.55 -231.25 -203.85 -228.4 -204.1 -225.55 -204.8 -223.15 -205.5 -220.75 -205.8 -217.7 -206.1 -214.65 -205.4 -213.05 -204.65 -211.45 -204.9 -208.45 -205.15 -205.45 -206.65 -202.95 -208.15 -200.4 -207.25 -198.95 -206.35 -197.45 -205.7 -195.45 -205.0 -193.45 -205.3 -189.9 -205.6 -186.35 -206.95 -183.65 -208.25 -180.9 -207.15 -177.75 -206.0 -174.6 -206.25 -172.95 -206.5 -171.3 -206.25 -167.75 -206.0 -164.15 -206.1 -163.4 -206.15 -162.6 -205.1 -159.5 -204.05 -156.35 -206.15 -154.8 -208.2 -153.2 -207.25 -149.1 L-205.7 -143.2 Q-205.1 -141.35 -206.25 -139.05 -207.35 -136.75 -205.8 -134.95 -204.25 -133.15 -206.0 -131.9 L-201.25 -130.5 Q-197.9 -129.6 -196.2 -130.75 -194.45 -131.9 -190.35 -132.5 -186.2 -133.1 -184.85 -132.6 -183.5 -132.05 -180.0 -133.2 L-175.4 -133.1 Q-174.35 -131.9 -171.4 -131.9 -168.45 -131.9 -166.1 -130.8 -163.7 -129.7 -161.1 -130.3 -158.5 -130.9 -155.4 -132.4 -152.25 -133.85 -150.15 -131.8 -148.05 -129.7 -145.8 -130.95 -143.5 -132.2 -141.55 -131.5 -139.55 -130.75 -137.25 -131.45 L-131.3 -132.0 -125.6 -131.85 Q-123.5 -131.8 -121.3 -132.75 -119.1 -133.7 -116.55 -132.8 -114.0 -131.9 -111.35 -131.95 L-106.1 -132.05 Q-103.5 -132.05 -101.15 -133.0 L-96.5 -132.85 Q-94.2 -131.75 -94.3 -134.6 -94.35 -137.45 -93.05 -139.85 -91.75 -142.25 -93.8 -144.4 -95.8 -146.55 -95.8 -149.25 -95.8 -151.9 -95.3 -154.3 L-94.25 -158.5 Q-93.7 -160.3 -94.8 -164.4 -95.9 -168.5 -94.95 -170.95 -94.0 -173.4 -93.55 -175.45 -93.05 -177.5 -93.55 -179.95 L-94.0 -184.0 Q-93.95 -185.55 -95.0 -188.95 -96.0 -192.35 -95.1 -193.95 -94.15 -195.5 -94.8 -198.8 -95.4 -202.05 -94.85 -205.85 L-94.15 -211.7 -93.9 -215.7 -94.0 -219.5 -94.0 -223.85 Q-93.8 -226.3 -94.35 -229.35 -94.9 -232.35 -94.3 -234.8 -93.7 -237.25 -93.75 -240.3 -93.75 -243.3 -94.55 -244.6 -95.3 -245.9 -93.5 -249.15 -91.7 -252.4 -92.75 -255.15 L-94.45 -260.15 Q-95.05 -262.4 -94.35 -264.9 L-92.65 -269.75 Q-91.65 -272.05 -92.95 -273.2 -94.25 -274.35 -97.4 -274.65 Z" fill="none" stroke="#ffd700" stroke-linecap="round" stroke-linejoin="round" stroke-width="5.0"/>
  </g>
</svg>
