<?xml version="1.0" encoding="UTF-8" standalone="no"?>
<svg xmlns:ffdec="https://www.free-decompiler.com/flash" xmlns:xlink="http://www.w3.org/1999/xlink" ffdec:objectType="shape" height="26.65px" width="39.45px" xmlns="http://www.w3.org/2000/svg">
  <g transform="matrix(1.0, 0.0, 0.0, 1.0, 19.7, 13.25)">
    <path d="M14.65 -8.25 Q14.25 -8.25 13.95 -7.8 13.65 -7.4 13.65 -6.75 L10.65 -6.75 11.65 -9.75 14.65 -8.25" fill="#564b2b" fill-rule="evenodd" stroke="none"/>
    <path d="M13.65 -6.75 Q13.65 -7.4 13.95 -7.8 14.25 -8.25 14.65 -8.25 L16.65 -8.25 16.3 -5.95 13.65 -5.75 13.65 -6.75" fill="#625538" fill-rule="evenodd" stroke="none"/>
    <path d="M13.65 -5.75 L16.3 -5.95 16.65 -8.25 Q17.5 -8.25 18.1 -7.1 18.65 -5.9 18.65 -4.25 L16.65 -4.25 Q16.65 -3.65 15.8 -3.2 14.9 -2.75 13.65 -2.75 13.25 -2.75 12.95 -3.2 12.65 -3.65 12.65 -4.25 L12.8 -4.25 Q15.95 -4.5 13.65 -5.75" fill="#4b452d" fill-rule="evenodd" stroke="none"/>
    <path d="M18.65 -4.25 L19.1 -3.5 Q20.55 -0.55 18.65 2.25 L18.65 -0.25 18.65 -4.25" fill="#3c3e36" fill-rule="evenodd" stroke="none"/>
    <path d="M-10.35 10.25 Q-11.15 10.25 -11.75 9.5 -12.35 8.75 -12.35 7.75 L-9.35 7.75 -9.35 9.25 Q-9.75 9.25 -10.05 9.55 L-10.35 10.25 M18.65 -4.25 L18.65 -0.25 16.65 -4.25 18.65 -4.25 M3.65 2.25 Q2.85 2.25 2.25 2.7 1.65 3.1 1.65 3.75 L0.65 3.75 -0.35 1.25 -0.35 -0.25 4.65 -0.25 3.65 2.25" fill="#544a2a" fill-rule="evenodd" stroke="none"/>
    <path d="M18.65 -0.25 L18.65 2.25 16.65 3.75 15.85 -1.3 12.65 -0.25 12.65 -1.75 13.15 -1.75 Q15.55 -2.0 13.65 -2.75 14.9 -2.75 15.8 -3.2 16.65 -3.65 16.65 -4.25 L18.65 -0.25" fill="#808078" fill-rule="evenodd" stroke="none"/>
    <path d="M10.65 -6.75 L13.65 -6.75 13.65 -5.75 Q15.95 -4.5 12.8 -4.25 L12.65 -4.25 10.65 -6.75" fill="#707870" fill-rule="evenodd" stroke="none"/>
    <path d="M13.65 -2.75 Q15.55 -2.0 13.15 -1.75 L12.65 -1.75 9.65 -1.75 9.65 -6.75 10.65 -6.75 12.65 -4.25 Q12.65 -3.65 12.95 -3.2 13.25 -2.75 13.65 -2.75" fill="#5c5032" fill-rule="evenodd" stroke="none"/>
    <path d="M12.65 -1.75 L12.65 -0.25 11.65 -0.25 10.4 1.65 8.65 1.25 8.65 -0.25 8.8 -0.25 Q11.95 -0.5 9.65 -1.75 L12.65 -1.75" fill="#4d462d" fill-rule="evenodd" stroke="none"/>
    <path d="M16.65 3.75 L15.65 7.75 13.65 3.75 12.65 -0.25 15.85 -1.3 16.65 3.75 M1.65 -4.25 L-0.35 -0.25 -1.35 -0.25 Q-1.35 -0.9 -1.9 -1.3 -2.5 -1.75 -3.35 -1.75 L-3.35 -4.25 0.75 -3.6 1.65 -4.25" fill="#514828" fill-rule="evenodd" stroke="none"/>
    <path d="M13.65 3.75 Q12.85 3.75 12.25 2.55 11.65 1.4 11.65 -0.25 L12.65 -0.25 13.65 3.75" fill="#6c7063" fill-rule="evenodd" stroke="none"/>
    <path d="M17.65 7.75 Q13.8 13.8 6.6 13.35 L5.65 13.25 9.85 12.35 3.65 11.75 -10.35 10.25 -10.05 9.55 Q-9.75 9.25 -9.35 9.25 L-6.35 8.95 Q-4.65 8.55 -4.15 7.75 -3.65 6.9 -4.65 6.2 -5.7 5.5 -8.35 5.25 L-8.05 4.2 Q-7.75 3.75 -7.35 3.75 L-4.35 3.75 -3.35 3.5 -3.3 3.75 -2.3 9.15 -1.35 6.25 0.65 5.25 2.25 6.0 1.65 3.75 Q1.65 3.1 2.25 2.7 2.85 2.25 3.65 2.25 L8.65 1.25 10.4 1.65 11.65 -0.25 Q11.65 1.4 12.25 2.55 12.85 3.75 13.65 3.75 L15.65 7.75 17.65 7.75" fill="#33393d" fill-rule="evenodd" stroke="none"/>
    <path d="M18.65 2.25 L18.75 4.55 17.65 5.25 17.65 7.75 15.65 7.75 16.65 3.75 18.65 2.25" fill="#594c2c" fill-rule="evenodd" stroke="none"/>
    <path d="M-16.35 -6.75 Q-16.35 -8.0 -15.15 -8.9 -14.0 -9.75 -12.35 -9.75 L-13.35 -6.75 -14.35 -2.75 Q-15.1 -1.65 -16.1 -2.5 L-16.35 -2.75 -16.35 -6.75" fill="#a9a59b" fill-rule="evenodd" stroke="none"/>
    <path d="M-11.35 -5.75 Q-12.7 -3.35 -13.3 -6.3 L-13.35 -6.75 -12.35 -9.75 -10.45 -9.35 -10.35 -6.75 Q-8.4 -5.95 -10.85 -5.75 L-11.35 -5.75" fill="#464332" fill-rule="evenodd" stroke="none"/>
    <path d="M-13.35 -6.75 L-13.3 -6.3 Q-12.7 -3.35 -11.35 -5.75 L-11.35 -4.25 -11.75 -4.35 Q-13.35 -4.5 -13.35 -2.75 L-14.35 -2.75 -13.35 -6.75" fill="#9d9a90" fill-rule="evenodd" stroke="none"/>
    <path d="M-12.35 -9.75 L-12.35 -10.75 -9.7 -10.55 -9.35 -8.25 Q-7.05 -6.95 -10.2 -6.7 L-10.35 -6.75 -10.45 -9.35 -12.35 -9.75" fill="#b4aca6" fill-rule="evenodd" stroke="none"/>
    <path d="M-11.35 -5.75 L-10.85 -5.75 Q-8.4 -5.95 -10.35 -6.75 L-10.2 -6.7 Q-7.05 -6.95 -9.35 -8.25 L-8.35 -8.25 -7.35 -8.25 -6.35 -5.75 -11.35 -4.25 -11.35 -5.75" fill="#d9d8b8" fill-rule="evenodd" stroke="none"/>
    <path d="M-12.35 -10.75 L-10.6 -13.25 -6.35 -12.25 -8.35 -8.25 -9.35 -8.25 -9.7 -10.55 -12.35 -10.75" fill="#d3d2b8" fill-rule="evenodd" stroke="none"/>
    <path d="M-19.35 1.25 L-19.35 -0.25 -16.35 -6.75 -16.35 -2.75 -16.35 1.25 -19.35 1.25" fill="#dee0c3" fill-rule="evenodd" stroke="none"/>
    <path d="M-18.2 6.25 L-19.7 3.3 -19.35 1.25 -16.35 1.25 -18.35 3.4 -17.35 6.25 -18.2 6.25" fill="#574b2b" fill-rule="evenodd" stroke="none"/>
    <path d="M-14.35 -2.75 L-13.35 -2.75 -9.6 -1.8 -10.35 -0.25 -16.35 1.25 -16.35 -2.75 -16.1 -2.5 Q-15.1 -1.65 -14.35 -2.75" fill="#cac7b4" fill-rule="evenodd" stroke="none"/>
    <path d="M-10.35 -0.25 L-9.6 -1.8 -7.35 -2.75 -8.5 0.75 -10.35 -0.25" fill="#a09891" fill-rule="evenodd" stroke="none"/>
    <path d="M-13.35 -2.75 Q-13.35 -4.5 -11.75 -4.35 L-11.35 -4.25 -6.35 -5.75 -7.35 -2.75 -9.6 -1.8 -13.35 -2.75" fill="#bfb8b0" fill-rule="evenodd" stroke="none"/>
    <path d="M-12.35 7.75 L-14.35 7.75 -17.35 6.25 -18.35 3.4 -16.35 1.25 -10.35 -0.25 -8.5 0.75 -7.35 -2.75 -6.35 -5.75 -5.35 -5.75 0.65 -6.75 3.65 -5.75 Q3.65 -5.15 3.1 -4.7 2.5 -4.25 1.65 -4.25 L0.75 -3.6 -3.35 -4.25 -3.35 -1.75 -3.35 2.25 -3.35 3.5 -4.35 3.75 Q-4.35 2.65 -4.75 1.9 -5.2 1.1 -5.85 1.1 -6.45 1.1 -6.9 1.9 -7.35 2.65 -7.35 3.75 -7.75 3.75 -8.05 4.2 L-8.35 5.25 -9.35 7.75 -12.35 7.75" fill="#34383b" fill-rule="evenodd" stroke="none"/>
    <path d="M-4.35 -12.25 L0.0 -11.6 -1.35 -8.25 -2.35 -8.25 -2.5 -10.55 -4.35 -10.75 -4.35 -12.25 M2.65 -11.2 L5.65 -10.75 4.65 -8.25 Q6.95 -6.95 3.8 -6.75 L3.65 -6.75 2.65 -11.2" fill="#a39c97" fill-rule="evenodd" stroke="none"/>
    <path d="M3.65 -6.75 L3.8 -6.75 Q6.95 -6.95 4.65 -8.25 L7.65 -8.25 Q8.5 -8.25 9.1 -7.8 9.65 -7.4 9.65 -6.75 L3.65 -5.75 3.65 -6.75" fill="#544e32" fill-rule="evenodd" stroke="none"/>
    <path d="M5.65 -10.75 Q5.65 -11.4 6.25 -11.8 L7.65 -12.25 8.35 -9.9 7.65 -8.25 4.65 -8.25 5.65 -10.75" fill="#c1b9b3" fill-rule="evenodd" stroke="none"/>
    <path d="M0.0 -11.6 L2.65 -11.2 3.65 -6.75 3.65 -5.75 0.65 -6.75 Q0.65 -7.4 0.1 -7.8 L-1.35 -8.25 0.0 -11.6" fill="#86847c" fill-rule="evenodd" stroke="none"/>
    <path d="M11.65 -9.75 L10.65 -6.75 9.65 -6.75 Q9.65 -7.4 9.1 -7.8 8.5 -8.25 7.65 -8.25 L8.35 -9.9 7.65 -12.25 Q9.3 -12.25 10.5 -11.5 11.65 -10.8 11.65 -9.75" fill="#8c8981" fill-rule="evenodd" stroke="none"/>
    <path d="M-6.35 -12.25 L-4.35 -12.25 -4.35 -10.75 Q-5.6 -10.75 -6.45 -10.0 -7.35 -9.3 -7.35 -8.25 L-8.35 -8.25 -6.35 -12.25" fill="#cac3b8" fill-rule="evenodd" stroke="none"/>
    <path d="M-4.35 -10.75 L-2.5 -10.55 -2.35 -8.25 -5.35 -8.25 -5.35 -5.75 -6.35 -5.75 -7.35 -8.25 Q-7.35 -9.3 -6.45 -10.0 -5.6 -10.75 -4.35 -10.75" fill="#b0a8a6" fill-rule="evenodd" stroke="none"/>
    <path d="M-2.35 -8.25 L-1.35 -8.25 0.1 -7.8 Q0.65 -7.4 0.65 -6.75 L-5.35 -5.75 -5.35 -8.25 -2.35 -8.25" fill="#5a5135" fill-rule="evenodd" stroke="none"/>
    <path d="M3.65 -5.75 L9.65 -6.75 9.65 -1.75 Q11.95 -0.5 8.8 -0.25 L8.65 -0.25 7.65 -0.25 7.75 -3.85 4.65 -1.75 4.65 -0.25 -0.35 -0.25 1.65 -4.25 Q2.5 -4.25 3.1 -4.7 3.65 -5.15 3.65 -5.75" fill="#303840" fill-rule="evenodd" stroke="none"/>
    <path d="M-3.35 -1.75 Q-2.5 -1.75 -1.9 -1.3 -1.35 -0.9 -1.35 -0.25 L-3.35 2.25 -3.35 -1.75" fill="#5e5d48" fill-rule="evenodd" stroke="none"/>
    <path d="M-3.3 3.75 L-3.35 3.5 -3.35 2.25 -1.35 -0.25 -0.35 -0.25 -0.35 1.25 -1.35 3.75 -3.3 3.75" fill="#aaa2a0" fill-rule="evenodd" stroke="none"/>
    <path d="M-4.35 3.75 L-7.35 3.75 Q-7.35 2.65 -6.9 1.9 -6.45 1.1 -5.85 1.1 -5.2 1.1 -4.75 1.9 -4.35 2.65 -4.35 3.75" fill="#382018" fill-rule="evenodd" stroke="none"/>
    <path d="M0.65 5.25 L-1.35 6.25 -1.35 3.75 -0.35 1.25 0.65 3.75 0.65 5.25" fill="#928c84" fill-rule="evenodd" stroke="none"/>
    <path d="M5.65 13.25 L3.65 11.75 9.85 12.35 5.65 13.25 M1.65 3.75 L2.25 6.0 0.65 5.25 0.65 3.75 1.65 3.75" fill="#504828" fill-rule="evenodd" stroke="none"/>
    <path d="M-1.35 6.25 L-2.3 9.15 -3.3 3.75 -1.35 3.75 -1.35 6.25" fill="#b9b3a9" fill-rule="evenodd" stroke="none"/>
    <path d="M8.65 1.25 L3.65 2.25 4.65 -0.25 7.65 -0.25 8.65 -0.25 8.65 1.25" fill="#828179" fill-rule="evenodd" stroke="none"/>
    <path d="M4.65 -0.25 L4.65 -1.75 7.75 -3.85 7.65 -0.25 4.65 -0.25" fill="#524929" fill-rule="evenodd" stroke="none"/>
    <path d="M-8.35 5.25 Q-5.7 5.5 -4.65 6.2 -3.65 6.9 -4.15 7.75 -4.65 8.55 -6.35 8.95 L-9.35 9.25 -9.35 7.75 -8.35 5.25" fill="#959089" fill-rule="evenodd" stroke="none"/>
    <path d="M-14.35 7.75 L-17.0 7.85 -18.1 6.55 -18.2 6.25 -17.35 6.25 -14.35 7.75" fill="#5c563c" fill-rule="evenodd" stroke="none"/>
  </g>
</svg>
