<?xml version="1.0" encoding="UTF-8" standalone="no"?>
<svg xmlns:ffdec="https://www.free-decompiler.com/flash" xmlns:xlink="http://www.w3.org/1999/xlink" ffdec:objectType="shape" height="20.3px" width="22.1px" xmlns="http://www.w3.org/2000/svg">
  <g transform="matrix(1.0, 0.0, 0.0, 1.0, 192.0, 261.85)">
    <path d="M-184.3 -253.95 Q-184.3 -256.0 -182.9 -257.45 -181.5 -258.85 -179.45 -258.85 -177.4 -258.85 -176.0 -257.45 -174.6 -256.0 -174.6 -253.95 -174.6 -252.5 -175.35 -251.3 L-174.8 -251.35 Q-172.75 -251.35 -171.3 -249.9 -169.9 -248.5 -169.9 -246.45 -169.9 -244.4 -171.3 -243.0 -172.75 -241.55 -174.8 -241.55 -176.85 -241.55 -178.25 -243.0 -178.95 -243.7 -179.25 -244.5 L-179.6 -244.5 -180.65 -243.0 Q-182.1 -241.55 -184.1 -241.55 -186.15 -241.55 -187.55 -243.0 -189.0 -244.4 -189.0 -246.45 -189.0 -248.5 -187.55 -249.9 -186.15 -251.35 -184.1 -251.35 L-183.55 -251.3 Q-184.3 -252.5 -184.3 -253.95" fill="#000000" fill-rule="evenodd" stroke="none"/>
    <path d="M-186.55 -254.3 Q-187.3 -255.5 -187.3 -256.95 -187.3 -259.0 -185.9 -260.45 -184.5 -261.85 -182.45 -261.85 -180.4 -261.85 -179.0 -260.45 -177.6 -259.0 -177.6 -256.95 -177.6 -255.5 -178.35 -254.3 L-178.7 -254.25 -178.5 -255.25 Q-178.5 -255.85 -178.8 -256.35 L-179.65 -257.1 -180.8 -257.45 -182.5 -257.55 -186.4 -257.55 -186.4 -254.3 -186.55 -254.3" fill="url(#gradient0)" fill-rule="evenodd" stroke="none"/>
    <path d="M-186.4 -254.3 L-186.4 -257.55 -182.5 -257.55 -180.8 -257.45 -179.65 -257.1 -178.8 -256.35 Q-178.5 -255.85 -178.5 -255.25 L-178.7 -254.25 -178.9 -253.9 Q-179.25 -253.35 -180.0 -253.05 L-180.0 -253.0 Q-179.0 -252.85 -178.4 -252.2 -177.85 -251.6 -177.85 -250.6 -177.85 -249.85 -178.1 -249.25 L-178.95 -248.3 Q-179.55 -247.85 -180.25 -247.7 L-182.1 -247.5 -182.25 -247.5 -182.6 -247.5 -186.4 -247.5 -186.4 -254.3 M-183.6 -255.7 L-183.85 -255.7 -183.85 -253.6 -183.45 -253.6 -182.35 -253.6 -181.75 -253.7 -181.25 -254.15 -181.2 -254.7 -181.3 -255.25 -181.75 -255.6 -182.4 -255.7 -183.6 -255.7 M-183.85 -249.3 L-183.65 -249.3 -182.65 -249.3 -182.1 -249.3 -181.25 -249.55 -180.7 -249.95 -180.5 -250.65 Q-180.55 -251.1 -180.75 -251.35 L-181.35 -251.75 -182.05 -251.85 -182.2 -251.85 -182.85 -251.85 -183.25 -251.85 -183.85 -251.85 -183.85 -249.3" fill="#000000" fill-rule="evenodd" stroke="none"/>
    <path d="M-183.85 -249.3 L-183.85 -251.85 -183.25 -251.85 -182.85 -251.85 -182.2 -251.85 -182.05 -251.85 -181.35 -251.75 -180.75 -251.35 Q-180.55 -251.1 -180.5 -250.65 L-180.7 -249.95 -181.25 -249.55 -182.1 -249.3 -182.65 -249.3 -183.65 -249.3 -183.85 -249.3 M-183.6 -255.7 L-182.4 -255.7 -181.75 -255.6 -181.3 -255.25 -181.2 -254.7 -181.25 -254.15 -181.75 -253.7 -182.35 -253.6 -183.45 -253.6 -183.85 -253.6 -183.85 -255.7 -183.6 -255.7" fill="#b0b0b0" fill-rule="evenodd" stroke="none"/>
    <path d="M-186.55 -254.3 L-186.4 -254.3 -186.4 -247.5 -182.6 -247.5 Q-183.0 -246.7 -183.65 -246.0 -185.1 -244.55 -187.1 -244.55 -189.15 -244.55 -190.55 -246.0 -192.0 -247.4 -192.0 -249.45 -192.0 -251.5 -190.55 -252.9 -189.15 -254.35 -187.1 -254.35 L-186.55 -254.3" fill="url(#gradient1)" fill-rule="evenodd" stroke="none"/>
    <path d="M-178.7 -254.25 L-178.35 -254.3 -177.8 -254.35 Q-175.75 -254.35 -174.3 -252.9 -172.9 -251.5 -172.9 -249.45 -172.9 -247.4 -174.3 -246.0 -175.75 -244.55 -177.8 -244.55 -179.85 -244.55 -181.25 -246.0 -181.95 -246.7 -182.25 -247.5 L-182.1 -247.5 -180.25 -247.7 Q-179.55 -247.85 -178.95 -248.3 L-178.1 -249.25 Q-177.85 -249.85 -177.85 -250.6 -177.85 -251.6 -178.4 -252.2 -179.0 -252.85 -180.0 -253.0 L-180.0 -253.05 Q-179.25 -253.35 -178.9 -253.9 L-178.7 -254.25" fill="url(#gradient2)" fill-rule="evenodd" stroke="none"/>
  </g>
  <defs>
    <radialGradient cx="0" cy="0" gradientTransform="matrix(0.009, 0.0, 0.0, 0.009, -183.65, -258.55)" gradientUnits="userSpaceOnUse" id="gradient0" r="819.2" spreadMethod="pad">
      <stop offset="0.0" stop-color="#ffffff"/>
      <stop offset="1.0" stop-color="#990000"/>
    </radialGradient>
    <radialGradient cx="0" cy="0" gradientTransform="matrix(0.009, 0.0, 0.0, 0.009, -188.3, -251.0)" gradientUnits="userSpaceOnUse" id="gradient1" r="819.2" spreadMethod="pad">
      <stop offset="0.0" stop-color="#ffffff"/>
      <stop offset="1.0" stop-color="#990099"/>
    </radialGradient>
    <radialGradient cx="0" cy="0" gradientTransform="matrix(0.009, 0.0, 0.0, 0.009, -178.95, -251.0)" gradientUnits="userSpaceOnUse" id="gradient2" r="819.2" spreadMethod="pad">
      <stop offset="0.0" stop-color="#ffffff"/>
      <stop offset="1.0" stop-color="#000099"/>
    </radialGradient>
  </defs>
</svg>
