<?xml version="1.0" encoding="UTF-8" standalone="no"?>
<svg xmlns:ffdec="https://www.free-decompiler.com/flash" xmlns:xlink="http://www.w3.org/1999/xlink" ffdec:objectType="shape" height="29.0px" width="40.25px" xmlns="http://www.w3.org/2000/svg">
  <g transform="matrix(1.0, 0.0, 0.0, 1.0, 20.1, 14.45)">
    <path d="M-8.85 -10.45 Q-8.4 -10.45 -8.1 -10.15 L-7.85 -9.45 -8.55 -9.0 -8.85 -7.95 -10.85 -6.45 -10.85 -9.45 -8.85 -10.45" fill="#a49d93" fill-rule="evenodd" stroke="none"/>
    <path d="M-6.85 -7.95 L-7.1 -9.0 -7.85 -9.45 -8.1 -10.15 Q-8.4 -10.45 -8.85 -10.45 L-5.85 -13.45 -5.85 -13.3 Q-6.05 -10.0 -4.2 -11.0 L-4.85 -9.45 -6.85 -7.95" fill="#d2d0b6" fill-rule="evenodd" stroke="none"/>
    <path d="M-7.85 -9.45 L-7.1 -9.0 -6.85 -7.95 -6.85 -6.45 -7.85 -6.45 Q-8.25 -6.45 -8.55 -6.85 L-8.85 -7.95 -8.55 -9.0 -7.85 -9.45" fill="#dee0d0" fill-rule="evenodd" stroke="none"/>
    <path d="M-4.2 -11.0 Q-6.05 -10.0 -5.85 -13.3 L-5.85 -13.45 -5.25 -14.15 -3.85 -14.45 -3.85 -11.95 -4.2 -11.0" fill="#989490" fill-rule="evenodd" stroke="none"/>
    <path d="M-4.85 -9.45 L-4.2 -11.0 -3.85 -11.95 Q-3.0 -11.95 -2.4 -11.5 -1.85 -11.05 -1.85 -10.45 L-1.85 -9.45 -4.85 -9.45" fill="#b0a8a2" fill-rule="evenodd" stroke="none"/>
    <path d="M-1.85 -10.45 Q-1.85 -11.05 -2.4 -11.5 -3.0 -11.95 -3.85 -11.95 L-3.85 -14.45 0.15 -14.45 0.15 -13.45 -1.85 -10.45" fill="#d4d2b8" fill-rule="evenodd" stroke="none"/>
    <path d="M-1.85 -10.45 L0.15 -13.45 0.9 -13.0 1.15 -11.95 2.95 -10.2 5.15 -10.45 0.15 -7.95 -1.85 -9.45 -1.85 -10.45" fill="#5b5338" fill-rule="evenodd" stroke="none"/>
    <path d="M0.15 -14.45 L5.15 -13.45 5.15 -11.95 1.15 -11.95 0.9 -13.0 0.15 -13.45 0.15 -14.45" fill="#89877f" fill-rule="evenodd" stroke="none"/>
    <path d="M5.15 -10.45 L2.95 -10.2 1.15 -11.95 5.15 -11.95 Q6.0 -11.95 6.6 -11.5 7.15 -11.05 7.15 -10.45 L5.15 -10.45" fill="#605030" fill-rule="evenodd" stroke="none"/>
    <path d="M5.15 -13.45 L11.15 -11.95 12.15 -9.45 12.15 -7.95 11.45 -7.5 Q11.15 -7.05 11.15 -6.45 L8.15 -9.45 7.9 -10.15 7.15 -10.45 Q7.15 -11.05 6.6 -11.5 6.0 -11.95 5.15 -11.95 L5.15 -13.45" fill="#bbb4ac" fill-rule="evenodd" stroke="none"/>
    <path d="M-3.85 10.55 L-4.85 10.55 -10.85 8.05 -10.85 6.55 -8.85 4.05 -5.85 1.55 -5.7 1.6 Q-2.5 1.35 -4.85 0.05 L-2.85 -2.45 -3.85 -5.45 -1.85 -5.45 0.95 -5.85 0.15 -7.95 5.15 -10.45 7.15 -10.45 7.9 -10.15 8.15 -9.45 7.15 -3.95 -2.85 2.55 -2.3 5.8 1.15 6.55 3.0 8.1 5.15 5.55 4.15 10.55 3.15 10.55 -3.85 10.55" fill="#31383e" fill-rule="evenodd" stroke="none"/>
    <path d="M-6.85 -7.95 L-4.85 -9.45 -1.85 -9.45 0.15 -7.95 0.95 -5.85 -1.85 -5.45 -3.1 -7.55 -6.85 -6.45 -6.85 -7.95" fill="#584f35" fill-rule="evenodd" stroke="none"/>
    <path d="M11.15 -11.95 L15.15 -10.45 13.85 -9.55 12.15 -9.45 11.15 -11.95" fill="#d3d0b8" fill-rule="evenodd" stroke="none"/>
    <path d="M15.15 -10.45 L16.35 -9.65 Q20.6 -6.6 19.15 -1.45 L18.15 -1.45 Q18.15 -3.1 17.6 -4.25 17.0 -5.45 16.15 -5.45 L12.15 -7.95 12.15 -9.45 13.85 -9.55 15.15 -10.45" fill="#7f7d72" fill-rule="evenodd" stroke="none"/>
    <path d="M19.15 -1.45 L20.15 2.55 Q17.7 3.95 15.65 2.1 L15.15 1.55 15.15 0.05 Q16.4 0.05 17.3 -0.35 18.15 -0.8 18.15 -1.45 L19.15 -1.45" fill="#62573b" fill-rule="evenodd" stroke="none"/>
    <path d="M16.15 -5.45 Q17.0 -5.45 17.6 -4.25 18.15 -3.1 18.15 -1.45 18.15 -0.8 17.3 -0.35 16.4 0.05 15.15 0.05 L14.15 -5.45 16.15 -5.45" fill="#4a452c" fill-rule="evenodd" stroke="none"/>
    <path d="M11.15 -6.45 Q11.15 -7.05 11.45 -7.5 L12.15 -7.95 16.15 -5.45 14.15 -5.45 14.15 0.05 12.15 0.05 Q12.15 -0.95 11.6 -1.7 11.0 -2.45 10.15 -2.45 L10.15 -3.95 11.15 -6.45" fill="#5c5031" fill-rule="evenodd" stroke="none"/>
    <path d="M8.15 -9.45 L11.15 -6.45 10.15 -3.95 8.15 -1.45 6.15 -1.45 7.15 -3.95 8.15 -9.45" fill="#50482e" fill-rule="evenodd" stroke="none"/>
    <path d="M10.15 -3.95 L10.15 -2.45 9.15 0.05 8.15 -1.45 10.15 -3.95" fill="#484438" fill-rule="evenodd" stroke="none"/>
    <path d="M10.15 -2.45 Q11.0 -2.45 11.6 -1.7 12.15 -0.95 12.15 0.05 L11.15 0.05 9.15 0.05 10.15 -2.45" fill="#707870" fill-rule="evenodd" stroke="none"/>
    <path d="M12.15 0.05 L14.15 0.05 15.15 0.05 15.15 1.55 13.75 1.85 Q13.15 2.15 13.15 2.55 L11.15 1.55 11.15 0.05 12.15 0.05" fill="#7d7e76" fill-rule="evenodd" stroke="none"/>
    <path d="M11.15 1.55 L13.15 2.55 Q15.45 3.85 12.3 4.1 L12.15 4.05 7.15 4.05 8.15 1.55 11.15 1.55" fill="#564b2b" fill-rule="evenodd" stroke="none"/>
    <path d="M11.15 0.05 L11.15 1.55 8.15 1.55 6.15 0.05 6.15 -1.45 8.15 -1.45 9.15 0.05 11.15 0.05" fill="#a29a94" fill-rule="evenodd" stroke="none"/>
    <path d="M20.15 2.55 Q20.15 7.1 16.95 10.35 13.7 13.55 9.15 13.55 9.15 12.3 7.7 11.45 6.25 10.55 4.15 10.55 L5.15 5.55 12.55 9.2 12.15 4.05 12.3 4.1 Q15.45 3.85 13.15 2.55 13.15 2.15 13.75 1.85 L15.15 1.55 15.65 2.1 Q17.7 3.95 20.15 2.55" fill="#4c462d" fill-rule="evenodd" stroke="none"/>
    <path d="M9.15 13.55 L1.15 14.55 4.05 12.95 3.15 10.55 4.15 10.55 Q6.25 10.55 7.7 11.45 9.15 12.3 9.15 13.55 M14.15 0.05 L14.15 -5.45 15.15 0.05 14.15 0.05 M7.15 4.05 L12.15 4.05 12.55 9.2 5.15 5.55 5.15 4.05 6.15 4.05 7.15 4.05" fill="#303840" fill-rule="evenodd" stroke="none"/>
    <path d="M6.15 0.05 L4.15 1.55 -1.35 3.5 1.15 5.55 1.9 5.7 2.2 6.05 1.9 6.4 1.15 6.55 -2.3 5.8 -2.85 2.55 7.15 -3.95 6.15 -1.45 6.15 0.05" fill="#38221a" fill-rule="evenodd" stroke="none"/>
    <path d="M8.15 1.55 L7.15 4.05 6.15 4.05 4.15 1.55 6.15 0.05 8.15 1.55" fill="#8b877f" fill-rule="evenodd" stroke="none"/>
    <path d="M4.15 1.55 L6.15 4.05 5.15 4.05 1.15 5.55 -1.35 3.5 4.15 1.55" fill="#343a3c" fill-rule="evenodd" stroke="none"/>
    <path d="M-7.85 -6.45 L-6.85 -6.45 -3.1 -7.55 -1.85 -5.45 -3.85 -5.45 -7.85 -5.45 -7.85 -6.45" fill="#8b8880" fill-rule="evenodd" stroke="none"/>
    <path d="M-8.85 -7.95 L-8.55 -6.85 Q-8.25 -6.45 -7.85 -6.45 L-7.85 -5.45 -10.85 -3.95 -12.3 -5.05 -12.85 -6.45 -10.85 -6.45 -8.85 -7.95" fill="#d0ccb8" fill-rule="evenodd" stroke="none"/>
    <path d="M-3.85 -5.45 L-2.85 -2.45 Q-4.1 -2.45 -4.95 -1.7 -5.85 -1.0 -5.85 0.05 L-8.85 -1.45 -10.0 -2.15 -10.85 -3.95 -7.85 -5.45 -3.85 -5.45" fill="#404037" fill-rule="evenodd" stroke="none"/>
    <path d="M-5.85 1.55 L-8.85 4.05 Q-8.85 3.45 -9.4 3.0 -10.0 2.55 -10.85 2.55 L-10.85 1.55 -9.85 1.55 -5.85 1.55" fill="#5e5438" fill-rule="evenodd" stroke="none"/>
    <path d="M-10.85 -3.95 L-10.0 -2.15 -8.85 -1.45 -9.85 1.55 -10.85 1.55 -12.7 -3.6 -14.85 -1.45 -13.85 -3.95 Q-13.2 -3.95 -12.75 -4.25 -12.3 -4.6 -12.3 -5.05 L-10.85 -3.95" fill="#8a8880" fill-rule="evenodd" stroke="none"/>
    <path d="M-10.85 2.55 L-11.85 2.55 -12.85 2.55 -13.0 0.3 -14.85 0.05 -14.85 -1.45 -12.7 -3.6 -10.85 1.55 -10.85 2.55" fill="#bcb4b0" fill-rule="evenodd" stroke="none"/>
    <path d="M-8.85 4.05 L-10.85 6.55 -11.85 6.55 -11.05 5.05 -11.85 2.55 -10.85 2.55 Q-10.0 2.55 -9.4 3.0 -8.85 3.45 -8.85 4.05" fill="#767b73" fill-rule="evenodd" stroke="none"/>
    <path d="M-4.85 0.05 Q-2.5 1.35 -5.7 1.6 L-5.85 1.55 -9.85 1.55 -8.85 -1.45 -5.85 0.05 -4.85 0.05" fill="#a09892" fill-rule="evenodd" stroke="none"/>
    <path d="M-2.85 -2.45 L-4.85 0.05 -5.85 0.05 Q-5.85 -1.0 -4.95 -1.7 -4.1 -2.45 -2.85 -2.45" fill="#838179" fill-rule="evenodd" stroke="none"/>
    <path d="M-11.85 9.55 L-16.85 4.05 -15.85 4.05 -11.85 6.55 -10.85 6.55 -10.85 8.05 Q-11.25 8.05 -11.55 8.5 L-11.85 9.55" fill="#5a5134" fill-rule="evenodd" stroke="none"/>
    <path d="M1.15 14.55 Q-0.9 14.55 -2.35 13.4 -3.85 12.2 -3.85 10.55 L3.15 10.55 4.05 12.95 1.15 14.55 M-4.85 10.55 L-11.85 9.55 -11.55 8.5 Q-11.25 8.05 -10.85 8.05 L-4.85 10.55" fill="#504828" fill-rule="evenodd" stroke="none"/>
    <path d="M-11.85 2.55 L-11.05 5.05 -11.85 6.55 -15.85 4.05 -15.85 2.55 -12.85 2.55 -11.85 2.55" fill="#33393d" fill-rule="evenodd" stroke="none"/>
    <path d="M1.15 6.55 L1.9 6.4 2.2 6.05 1.9 5.7 1.15 5.55 5.15 4.05 5.15 5.55 3.0 8.1 1.15 6.55" fill="#382018" fill-rule="evenodd" stroke="none"/>
    <path d="M-10.85 -9.45 L-10.85 -6.45 -12.85 -6.45 -14.6 -6.85 -14.85 -9.45 -10.85 -9.45" fill="#50482d" fill-rule="evenodd" stroke="none"/>
    <path d="M-17.85 -5.45 L-14.85 -9.45 -14.6 -6.85 -12.85 -6.45 -12.3 -5.05 Q-12.3 -4.6 -12.75 -4.25 -13.2 -3.95 -13.85 -3.95 L-17.05 -3.0 -17.85 -5.45" fill="#a59f97" fill-rule="evenodd" stroke="none"/>
    <path d="M-19.85 -1.45 L-18.85 -5.45 -17.9 -2.4 -17.05 -3.0 -13.85 -3.95 -14.85 -1.45 -16.85 -1.45 -19.85 -1.45" fill="#dad9b8" fill-rule="evenodd" stroke="none"/>
    <path d="M-18.85 -5.45 L-17.85 -5.45 -17.05 -3.0 -17.9 -2.4 -18.85 -5.45" fill="#c8c0b8" fill-rule="evenodd" stroke="none"/>
    <path d="M-17.85 2.55 L-20.1 1.95 -19.85 -1.45 -16.85 -1.45 -17.85 2.55" fill="#9e968f" fill-rule="evenodd" stroke="none"/>
    <path d="M-12.85 2.55 L-15.85 2.55 Q-17.7 1.9 -16.5 0.5 L-16.3 0.3 -14.85 0.05 -13.0 0.3 -12.85 2.55" fill="#8e8a82" fill-rule="evenodd" stroke="none"/>
    <path d="M-16.85 4.05 Q-17.25 4.05 -17.55 3.65 L-17.85 2.55 -16.85 -1.45 -14.85 -1.45 -14.85 0.05 -16.3 0.3 -16.5 0.5 Q-17.7 1.9 -15.85 2.55 L-15.85 4.05 -16.85 4.05" fill="#615d47" fill-rule="evenodd" stroke="none"/>
  </g>
</svg>
