<?xml version="1.0" encoding="UTF-8" standalone="no"?>
<svg xmlns:ffdec="https://www.free-decompiler.com/flash" xmlns:xlink="http://www.w3.org/1999/xlink" ffdec:objectType="shape" height="28.3px" width="39.85px" xmlns="http://www.w3.org/2000/svg">
  <g transform="matrix(1.0, 0.0, 0.0, 1.0, 19.9, 14.1)">
    <path d="M2.1 -12.65 L5.1 -14.1 7.1 -12.65 2.85 -11.0 2.1 -12.65" fill="#a09b91" fill-rule="evenodd" stroke="none"/>
    <path d="M7.1 -12.65 L9.1 -12.65 9.1 -10.15 Q7.4 -10.7 7.1 -9.05 L7.1 -8.65 6.1 -4.65 4.1 -6.15 1.1 -8.65 1.1 -6.15 -0.9 -6.15 -2.9 -7.65 -2.9 -8.65 -2.9 -10.15 2.1 -12.65 2.85 -11.0 7.1 -12.65" fill="#c3bdb2" fill-rule="evenodd" stroke="none"/>
    <path d="M11.1 -11.65 L14.1 -8.65 12.0 -7.75 10.1 -8.65 10.1 -6.15 10.05 -5.6 Q9.95 -3.5 12.1 -3.65 L9.1 -2.15 7.7 -3.2 7.1 -4.65 7.9 -6.9 7.1 -8.65 7.1 -9.05 Q7.4 -10.7 9.1 -10.15 L9.5 -10.05 Q11.1 -9.85 11.1 -11.65" fill="#4b452d" fill-rule="evenodd" stroke="none"/>
    <path d="M7.1 -8.65 L7.9 -6.9 7.1 -4.65 6.1 -4.65 7.1 -8.65" fill="#757a72" fill-rule="evenodd" stroke="none"/>
    <path d="M9.1 -12.65 L11.1 -11.65 Q11.1 -9.85 9.5 -10.05 L9.1 -10.15 9.1 -12.65" fill="#605030" fill-rule="evenodd" stroke="none"/>
    <path d="M4.1 -6.15 L4.1 -3.65 Q3.65 -3.65 3.4 -3.2 3.1 -2.8 3.1 -2.15 3.2 -0.35 1.5 -0.5 L1.1 -0.65 1.1 -2.15 4.1 -6.15" fill="#5d4e2e" fill-rule="evenodd" stroke="none"/>
    <path d="M7.1 -4.65 L7.7 -3.2 6.1 -2.15 Q6.1 -2.8 5.5 -3.2 4.9 -3.65 4.1 -3.65 L4.1 -6.15 6.1 -4.65 7.1 -4.65 M-6.9 -2.15 L-7.6 -2.6 -7.9 -3.65 -8.1 -5.95 -9.9 -6.15 -9.9 -7.65 -4.9 -7.65 -4.9 -4.65 -6.35 -5.95 -6.9 -2.15" fill="#9a928a" fill-rule="evenodd" stroke="none"/>
    <path d="M4.1 -3.65 Q4.9 -3.65 5.5 -3.2 6.1 -2.8 6.1 -2.15 L6.1 -0.65 6.1 3.35 5.1 3.35 5.1 1.85 4.8 -1.75 3.1 -2.15 Q3.1 -2.8 3.4 -3.2 3.65 -3.65 4.1 -3.65" fill="#544a2a" fill-rule="evenodd" stroke="none"/>
    <path d="M1.1 -2.15 L1.1 -0.65 Q1.1 0.35 0.5 1.1 -0.1 1.85 -0.9 1.85 L-2.4 -1.9 -2.9 0.35 -3.9 0.35 -4.9 -3.65 -4.9 -4.65 -3.9 -4.65 -1.9 -3.65 1.1 -2.15" fill="#8b8a83" fill-rule="evenodd" stroke="none"/>
    <path d="M18.1 8.35 Q10.5 15.1 0.35 14.05 L-5.9 13.85 -9.9 11.35 -11.9 8.35 -10.5 8.05 Q-9.9 7.75 -9.9 7.35 L-8.9 7.35 -7.9 7.35 Q-6.8 7.35 -6.05 6.75 -5.25 6.15 -5.25 5.35 -5.25 4.5 -6.05 3.95 -6.8 3.35 -7.9 3.35 L-8.9 3.35 -8.9 1.85 -8.25 2.1 Q-5.45 2.75 -3.9 0.35 L-2.9 0.35 -0.9 1.85 Q-0.1 1.85 0.5 1.1 1.1 0.35 1.1 -0.65 L1.5 -0.5 Q3.2 -0.35 3.1 -2.15 L4.8 -1.75 5.1 1.85 3.1 0.35 3.85 6.55 5.1 3.35 6.1 3.35 Q6.1 4.7 6.55 5.7 6.95 6.65 7.6 6.65 8.2 6.65 8.65 5.7 9.1 4.7 9.1 3.35 L9.1 -0.65 13.1 -0.65 13.1 -0.5 Q13.1 1.55 14.1 0.35 14.1 1.6 14.95 2.45 15.85 3.35 17.1 3.35 L17.1 5.85 18.1 8.35" fill="#34393c" fill-rule="evenodd" stroke="none"/>
    <path d="M4.1 -6.15 L1.1 -2.15 1.1 -6.15 1.1 -8.65 4.1 -6.15" fill="#9f9791" fill-rule="evenodd" stroke="none"/>
    <path d="M1.1 -2.15 L-1.9 -3.65 -0.9 -6.15 1.1 -6.15 1.1 -2.15" fill="#bfb8b0" fill-rule="evenodd" stroke="none"/>
    <path d="M12.1 -3.65 Q9.95 -3.5 10.05 -5.6 L10.1 -6.15 10.95 -6.3 Q14.35 -6.6 16.1 -3.65 L15.3 -2.05 12.1 -3.65" fill="#524929" fill-rule="evenodd" stroke="none"/>
    <path d="M7.7 -3.2 L9.1 -2.15 9.1 -0.65 6.1 -0.65 6.1 -2.15 7.7 -3.2" fill="#808078" fill-rule="evenodd" stroke="none"/>
    <path d="M9.1 -2.15 L12.1 -3.65 13.1 -0.65 9.1 -0.65 9.1 -2.15" fill="#504828" fill-rule="evenodd" stroke="none"/>
    <path d="M6.1 3.35 L6.1 -0.65 9.1 -0.65 9.1 3.35 6.1 3.35" fill="#9e968f" fill-rule="evenodd" stroke="none"/>
    <path d="M14.1 -8.65 L18.1 -2.15 17.1 -2.15 16.8 -3.2 Q16.5 -3.65 16.1 -3.65 14.35 -6.6 10.95 -6.3 L10.1 -6.15 10.1 -8.65 12.0 -7.75 14.1 -8.65" fill="#303840" fill-rule="evenodd" stroke="none"/>
    <path d="M19.1 0.35 L19.1 3.35 17.1 3.35 Q17.1 2.1 16.2 1.2 15.35 0.35 14.1 0.35 13.1 1.55 13.1 -0.5 L13.1 -0.65 12.1 -3.65 15.3 -2.05 16.1 -3.65 Q16.5 -3.65 16.8 -3.2 L17.1 -2.15 Q17.1 -1.15 17.7 -0.4 18.25 0.35 19.1 0.35" fill="#5e5032" fill-rule="evenodd" stroke="none"/>
    <path d="M18.1 -2.15 L19.1 0.35 Q18.25 0.35 17.7 -0.4 17.1 -1.15 17.1 -2.15 L18.1 -2.15" fill="#404034" fill-rule="evenodd" stroke="none"/>
    <path d="M17.1 3.35 L19.1 3.35 18.9 5.65 17.1 5.85 17.1 3.35 M-11.9 -2.15 L-11.9 -0.65 Q-12.35 -0.65 -12.6 -0.35 L-12.9 0.35 -14.9 -0.65 -14.9 -2.15 -11.9 -2.15" fill="#707870" fill-rule="evenodd" stroke="none"/>
    <path d="M19.1 3.35 L19.95 6.8 18.1 8.35 17.1 5.85 18.9 5.65 19.1 3.35" fill="#484434" fill-rule="evenodd" stroke="none"/>
    <path d="M14.1 0.35 Q15.35 0.35 16.2 1.2 17.1 2.1 17.1 3.35 15.85 3.35 14.95 2.45 14.1 1.6 14.1 0.35" fill="#6c6e60" fill-rule="evenodd" stroke="none"/>
    <path d="M5.1 1.85 L5.1 3.35 3.85 6.55 3.1 0.35 5.1 1.85" fill="#382018" fill-rule="evenodd" stroke="none"/>
    <path d="M9.1 3.35 Q9.1 4.7 8.65 5.7 8.2 6.65 7.6 6.65 6.95 6.65 6.55 5.7 6.1 4.7 6.1 3.35 L9.1 3.35" fill="#8e8a82" fill-rule="evenodd" stroke="none"/>
    <path d="M-13.9 -7.65 L-11.9 -7.65 -9.9 -7.65 -9.9 -6.15 -12.9 -6.15 -12.9 -3.65 -13.9 -3.65 -13.9 -7.65" fill="#c8c0b8" fill-rule="evenodd" stroke="none"/>
    <path d="M-17.9 -2.15 L-17.9 -3.65 -13.9 -7.65 -13.9 -3.65 Q-14.75 -3.65 -15.3 -3.2 -15.9 -2.8 -15.9 -2.15 L-16.9 -2.15 -17.9 -2.15" fill="#dedfc5" fill-rule="evenodd" stroke="none"/>
    <path d="M-19.9 0.35 L-17.9 -2.15 -16.9 -2.15 -15.9 0.35 -12.9 1.85 -12.9 3.35 -15.9 3.35 Q-16.35 3.35 -16.6 3.65 L-16.9 4.35 -17.9 4.35 -18.2 0.75 -19.9 0.35" fill="#b2aaa9" fill-rule="evenodd" stroke="none"/>
    <path d="M-16.9 -2.15 L-15.9 -2.15 -14.9 -2.15 -14.9 -0.65 -15.6 -0.35 -15.9 0.35 -16.9 -2.15" fill="#a09890" fill-rule="evenodd" stroke="none"/>
    <path d="M-15.9 -2.15 Q-15.9 -2.8 -15.3 -3.2 -14.75 -3.65 -13.9 -3.65 L-12.9 -3.65 -12.2 -3.2 Q-11.9 -2.8 -11.9 -2.15 L-14.9 -2.15 -15.9 -2.15" fill="#aca4a2" fill-rule="evenodd" stroke="none"/>
    <path d="M-12.9 -3.65 L-12.9 -6.15 -9.9 -6.15 -10.0 -5.65 Q-10.1 -3.55 -7.9 -3.65 L-7.6 -2.6 -6.9 -2.15 -6.9 0.35 -8.9 0.35 Q-8.8 -0.45 -9.05 -1.95 -9.35 -3.45 -9.95 -3.95 -10.55 -4.5 -11.1 -3.75 -11.65 -3.0 -11.9 -0.65 L-11.9 -2.15 Q-11.9 -2.8 -12.2 -3.2 L-12.9 -3.65" fill="#958e86" fill-rule="evenodd" stroke="none"/>
    <path d="M-12.9 0.35 L-12.6 -0.35 Q-12.35 -0.65 -11.9 -0.65 L-11.9 0.35 -10.9 3.35 -12.9 5.85 -12.9 3.35 -12.9 1.85 -12.9 0.35" fill="#a79f9b" fill-rule="evenodd" stroke="none"/>
    <path d="M-11.9 -0.65 Q-11.65 -3.0 -11.1 -3.75 -10.55 -4.5 -9.95 -3.95 -9.35 -3.45 -9.05 -1.95 -8.8 -0.45 -8.9 0.35 L-8.9 1.8 -11.9 0.35 -11.9 -0.65" fill="#b3aba8" fill-rule="evenodd" stroke="none"/>
    <path d="M-14.9 -0.65 L-12.9 0.35 -12.9 1.85 -15.9 0.35 -15.6 -0.35 -14.9 -0.65" fill="#948c84" fill-rule="evenodd" stroke="none"/>
    <path d="M-3.9 -4.65 L-4.9 -4.65 -4.9 -7.65 -2.9 -8.65 -2.9 -7.65 -3.9 -4.65" fill="#b0a8a8" fill-rule="evenodd" stroke="none"/>
    <path d="M-11.9 -7.65 L-2.9 -10.15 -2.9 -8.65 -4.9 -7.65 -9.9 -7.65 -11.9 -7.65" fill="#dddfc5" fill-rule="evenodd" stroke="none"/>
    <path d="M-4.9 -4.65 L-4.9 -3.65 -6.9 0.35 -6.9 -2.15 -6.35 -5.95 -4.9 -4.65" fill="#71756a" fill-rule="evenodd" stroke="none"/>
    <path d="M-7.9 -3.65 Q-10.1 -3.55 -10.0 -5.65 L-9.9 -6.15 -8.1 -5.95 -7.9 -3.65" fill="#b4acab" fill-rule="evenodd" stroke="none"/>
    <path d="M-1.9 -3.65 L-3.9 -4.65 -2.9 -7.65 -0.9 -6.15 -1.9 -3.65" fill="#d4d2b8" fill-rule="evenodd" stroke="none"/>
    <path d="M-2.9 0.35 L-2.4 -1.9 -0.9 1.85 -2.9 0.35" fill="#534929" fill-rule="evenodd" stroke="none"/>
    <path d="M-4.9 -3.65 L-3.9 0.35 Q-5.45 2.75 -8.25 2.1 L-8.9 1.85 -8.9 1.8 -8.9 0.35 -6.9 0.35 -4.9 -3.65" fill="#61573c" fill-rule="evenodd" stroke="none"/>
    <path d="M-11.9 0.35 L-8.9 1.8 -8.9 1.85 -8.9 3.35 -10.9 3.35 -11.9 0.35" fill="#8c8376" fill-rule="evenodd" stroke="none"/>
    <path d="M-7.9 3.35 Q-6.8 3.35 -6.05 3.95 -5.25 4.5 -5.25 5.35 -5.25 6.15 -6.05 6.75 -6.8 7.35 -7.9 7.35 L-7.9 3.35" fill="#727367" fill-rule="evenodd" stroke="none"/>
    <path d="M-8.9 3.35 L-7.9 3.35 -7.9 7.35 -8.9 7.35 -8.9 3.35" fill="#9d958f" fill-rule="evenodd" stroke="none"/>
    <path d="M-8.9 7.35 L-9.9 7.35 -12.9 7.35 -12.9 5.85 -10.9 3.35 -8.9 3.35 -8.9 7.35" fill="#cac3b8" fill-rule="evenodd" stroke="none"/>
    <path d="M-14.9 9.85 L-15.9 8.35 -15.9 3.35 -12.9 3.35 -12.9 5.85 -12.9 7.35 Q-13.75 7.35 -14.3 7.65 -14.9 7.9 -14.9 8.35 L-14.9 9.85" fill="#b9b1ad" fill-rule="evenodd" stroke="none"/>
    <path d="M-19.05 5.0 L-19.9 0.35 -18.2 0.75 -17.9 4.35 -18.7 4.55 -19.05 5.0" fill="#a69e9a" fill-rule="evenodd" stroke="none"/>
    <path d="M-17.9 7.35 L-19.05 5.0 -18.7 4.55 -17.9 4.35 -16.9 4.35 -17.9 7.35" fill="#787668" fill-rule="evenodd" stroke="none"/>
    <path d="M-15.9 8.35 Q-17.3 10.75 -17.85 7.8 L-17.9 7.35 -16.9 4.35 -16.6 3.65 Q-16.35 3.35 -15.9 3.35 L-15.9 8.35" fill="#a09891" fill-rule="evenodd" stroke="none"/>
    <path d="M-9.9 7.35 Q-9.9 7.75 -10.5 8.05 L-11.9 8.35 -14.9 8.35 Q-14.9 7.9 -14.3 7.65 -13.75 7.35 -12.9 7.35 L-9.9 7.35" fill="#938e86" fill-rule="evenodd" stroke="none"/>
    <path d="M-9.9 11.35 L-14.9 9.85 -14.9 8.35 -11.9 8.35 -9.9 11.35" fill="#50482d" fill-rule="evenodd" stroke="none"/>
  </g>
</svg>
