<?xml version="1.0" encoding="UTF-8" standalone="no"?>
<svg xmlns:ffdec="https://www.free-decompiler.com/flash" xmlns:xlink="http://www.w3.org/1999/xlink" ffdec:objectType="shape" height="28.0px" width="41.0px" xmlns="http://www.w3.org/2000/svg">
  <g transform="matrix(1.0, 0.0, 0.0, 1.0, 20.45, 13.95)">
    <path d="M-14.45 -7.45 Q-13.65 -7.45 -13.05 -8.65 -12.45 -9.8 -12.45 -11.45 L-9.45 -12.45 -9.45 -11.45 Q-11.3 -8.25 -7.9 -8.35 L-7.45 -8.45 -7.45 -7.45 -15.45 -4.45 -16.45 -4.45 Q-16.45 -5.7 -15.85 -6.6 -15.3 -7.45 -14.45 -7.45" fill="#c0bfac" fill-rule="evenodd" stroke="none"/>
    <path d="M-14.45 -7.45 L-16.8 -9.2 Q-15.85 -11.95 -12.45 -11.45 -12.45 -9.8 -13.05 -8.65 -13.65 -7.45 -14.45 -7.45" fill="#dde0c9" fill-rule="evenodd" stroke="none"/>
    <path d="M-5.45 -12.45 L-4.45 -12.45 -3.45 -8.45 Q-2.2 -7.5 -4.3 -7.45 L-4.45 -7.45 -5.45 -11.45 -5.45 -12.45" fill="#6a6048" fill-rule="evenodd" stroke="none"/>
    <path d="M-4.45 -12.45 Q-4.45 -13.1 -3.6 -13.5 L-1.45 -13.95 -1.45 -11.45 -3.45 -8.45 -4.45 -12.45" fill="#c5c1b8" fill-rule="evenodd" stroke="none"/>
    <path d="M-7.45 -8.45 L-6.45 -8.45 -5.45 -4.45 -8.45 -4.45 -7.45 -7.45 -7.45 -8.45" fill="#9d958f" fill-rule="evenodd" stroke="none"/>
    <path d="M-9.45 -11.45 Q-8.65 -11.45 -8.05 -10.6 -7.45 -9.7 -7.45 -8.45 L-7.9 -8.35 Q-11.3 -8.25 -9.45 -11.45" fill="#e5ead8" fill-rule="evenodd" stroke="none"/>
    <path d="M-9.45 -12.45 L-5.45 -12.45 -5.45 -11.45 -6.45 -8.45 -7.45 -8.45 Q-7.45 -9.7 -8.05 -10.6 -8.65 -11.45 -9.45 -11.45 L-9.45 -12.45" fill="#d5d3b5" fill-rule="evenodd" stroke="none"/>
    <path d="M-6.45 -8.45 L-5.45 -11.45 -4.45 -7.45 -4.45 -5.95 -4.45 -4.45 -5.45 -4.45 -6.45 -8.45" fill="#524929" fill-rule="evenodd" stroke="none"/>
    <path d="M-3.45 -8.45 L-1.45 -11.45 -0.45 -11.45 1.55 -8.45 1.55 -7.45 Q0.7 -7.45 0.15 -6.6 -0.45 -5.7 -0.45 -4.45 L-4.45 -5.95 -4.45 -7.45 -4.3 -7.45 Q-2.2 -7.5 -3.45 -8.45" fill="#dcdcbc" fill-rule="evenodd" stroke="none"/>
    <path d="M-1.45 -13.95 L1.55 -12.45 0.15 -12.15 Q-0.45 -11.9 -0.45 -11.45 L-1.45 -11.45 -1.45 -13.95" fill="#8e8a82" fill-rule="evenodd" stroke="none"/>
    <path d="M-6.45 -0.45 L-5.45 -4.45 -4.45 -4.45 -4.45 -1.95 Q-4.35 -0.2 -6.05 -0.35 L-6.45 -0.45" fill="#9b9894" fill-rule="evenodd" stroke="none"/>
    <path d="M11.55 14.05 L-5.45 10.05 -10.45 4.55 -12.45 3.55 Q-12.45 2.9 -12.75 2.5 -13.05 2.05 -13.45 2.05 L-13.45 0.55 -11.85 -1.8 -10.45 2.05 -10.05 2.2 Q-8.35 2.4 -8.45 0.55 L-6.45 -0.45 -6.05 -0.35 Q-4.35 -0.2 -4.45 -1.95 L-0.45 -4.45 9.55 -4.45 0.05 6.65 5.65 10.2 10.55 -3.45 11.55 -3.45 11.55 -0.45 Q11.55 1.7 12.0 3.2 12.4 4.75 13.05 4.75 13.65 4.75 14.1 3.2 14.55 1.7 14.55 -0.45 L17.55 0.55 18.55 3.55 11.55 14.05" fill="#32393e" fill-rule="evenodd" stroke="none"/>
    <path d="M-4.45 -5.95 L-0.45 -4.45 -4.45 -1.95 -4.45 -4.45 -4.45 -5.95" fill="#8d887f" fill-rule="evenodd" stroke="none"/>
    <path d="M-5.45 -4.45 L-6.45 -0.45 -8.45 0.55 -9.45 -1.95 -8.45 -4.45 -5.45 -4.45" fill="#cec9b5" fill-rule="evenodd" stroke="none"/>
    <path d="M-9.45 -1.95 L-8.45 0.55 Q-8.35 2.4 -10.05 2.2 L-10.45 2.05 -9.45 -1.95" fill="#9f9b95" fill-rule="evenodd" stroke="none"/>
    <path d="M-8.45 -4.45 L-9.45 -1.95 -14.45 -1.95 -15.45 -4.45 -7.45 -7.45 -8.45 -4.45" fill="#3a3d3a" fill-rule="evenodd" stroke="none"/>
    <path d="M-5.45 10.05 L-12.45 7.55 Q-11.65 7.55 -11.05 6.65 -10.45 5.8 -10.45 4.55 L-5.45 10.05" fill="#514828" fill-rule="evenodd" stroke="none"/>
    <path d="M-10.45 4.55 Q-10.45 5.8 -11.05 6.65 -11.65 7.55 -12.45 7.55 L-12.45 6.05 -12.45 3.55 -10.45 4.55" fill="#81827a" fill-rule="evenodd" stroke="none"/>
    <path d="M-9.45 -1.95 L-10.45 2.05 -11.85 -1.8 -13.45 0.55 -13.5 0.05 Q-13.7 -2.1 -14.45 -0.45 L-14.45 -1.95 -9.45 -1.95" fill="#928e87" fill-rule="evenodd" stroke="none"/>
    <path d="M-15.45 -4.45 L-14.45 -1.95 -14.45 -0.45 -16.45 -0.45 -16.45 -1.95 -16.45 -4.45 -15.45 -4.45" fill="#5b4d2d" fill-rule="evenodd" stroke="none"/>
    <path d="M-16.45 2.05 L-18.45 2.05 -18.45 -1.95 -16.45 -1.95 -16.45 -0.45 -16.45 2.05" fill="#86847c" fill-rule="evenodd" stroke="none"/>
    <path d="M-13.45 2.05 L-16.45 2.05 -16.45 -0.45 -14.45 -0.45 Q-13.7 -2.1 -13.5 0.05 L-13.45 0.55 -13.45 2.05" fill="#a7a096" fill-rule="evenodd" stroke="none"/>
    <path d="M-20.45 -0.45 L-20.45 -4.45 -16.45 -4.45 -16.45 -1.95 -18.45 -1.95 -20.45 -0.45" fill="#dadbc7" fill-rule="evenodd" stroke="none"/>
    <path d="M-19.6 2.95 L-20.45 -0.45 -18.45 -1.95 -18.45 2.05 -19.25 2.3 Q-19.6 2.55 -19.6 2.95" fill="#b7afad" fill-rule="evenodd" stroke="none"/>
    <path d="M-12.45 7.55 L-19.6 2.95 Q-19.6 2.55 -19.25 2.3 L-18.45 2.05 -16.45 2.05 -13.45 2.05 -12.45 6.05 -12.45 7.55" fill="#504a32" fill-rule="evenodd" stroke="none"/>
    <path d="M-12.45 6.05 L-13.45 2.05 Q-13.05 2.05 -12.75 2.5 -12.45 2.9 -12.45 3.55 L-12.45 6.05" fill="#645a41" fill-rule="evenodd" stroke="none"/>
    <path d="M1.55 -12.45 L4.55 -12.45 4.55 -11.45 1.55 -8.45 -0.45 -11.45 Q-0.45 -11.9 0.15 -12.15 L1.55 -12.45" fill="#b3abaa" fill-rule="evenodd" stroke="none"/>
    <path d="M-0.45 -4.45 Q-0.45 -5.7 0.15 -6.6 0.7 -7.45 1.55 -7.45 L6.55 -7.45 10.55 -7.45 10.55 -4.45 9.55 -4.45 -0.45 -4.45" fill="#5a5133" fill-rule="evenodd" stroke="none"/>
    <path d="M4.55 -12.45 L9.55 -12.45 9.55 -11.45 8.85 -11.0 Q8.55 -10.6 8.55 -9.95 L4.55 -11.45 6.55 -8.45 6.55 -7.45 1.55 -7.45 1.55 -8.45 4.55 -11.45 4.55 -12.45" fill="#9b938b" fill-rule="evenodd" stroke="none"/>
    <path d="M6.55 -8.45 L6.95 -8.35 Q8.55 -8.2 8.55 -9.95 8.55 -10.6 8.85 -11.0 L9.55 -11.45 10.55 -8.45 10.55 -7.45 6.55 -7.45 6.55 -8.45" fill="#8b867e" fill-rule="evenodd" stroke="none"/>
    <path d="M6.55 -8.45 L4.55 -11.45 8.55 -9.95 Q8.55 -8.2 6.95 -8.35 L6.55 -8.45" fill="#b8b0ad" fill-rule="evenodd" stroke="none"/>
    <path d="M9.55 -12.45 L15.55 -11.45 14.55 -8.45 12.55 -8.45 10.55 -8.45 9.55 -11.45 9.55 -12.45" fill="#b4aca9" fill-rule="evenodd" stroke="none"/>
    <path d="M10.55 -7.45 L10.55 -8.45 12.55 -8.45 13.55 -5.95 12.55 -3.45 11.55 -3.45 10.55 -3.45 10.55 -4.45 10.55 -7.45" fill="#727971" fill-rule="evenodd" stroke="none"/>
    <path d="M13.55 -5.95 L12.55 -8.45 14.55 -8.45 14.55 -5.95 13.55 -5.95" fill="#c4bdb3" fill-rule="evenodd" stroke="none"/>
    <path d="M17.55 -8.45 L18.55 -8.45 18.55 -7.45 Q17.3 -7.45 16.4 -6.6 15.55 -5.7 15.55 -4.45 15.85 -3.35 14.8 -3.35 L14.55 -3.45 14.55 -5.95 14.55 -8.45 17.55 -8.45" fill="#8c867e" fill-rule="evenodd" stroke="none"/>
    <path d="M15.55 -11.45 Q16.35 -11.45 16.95 -10.6 17.55 -9.7 17.55 -8.45 L14.55 -8.45 15.55 -11.45" fill="#ccc6b8" fill-rule="evenodd" stroke="none"/>
    <path d="M18.55 -8.45 L20.55 -3.45 19.55 -3.45 18.55 -7.45 18.55 -8.45" fill="#60573c" fill-rule="evenodd" stroke="none"/>
    <path d="M20.55 -3.0 L20.55 -2.4 18.55 -1.95 17.55 -1.95 Q17.55 -3.0 16.95 -3.7 16.35 -4.45 15.55 -4.45 15.55 -5.7 16.4 -6.6 17.3 -7.45 18.55 -7.45 L19.55 -3.45 20.55 -3.0" fill="#7b7d75" fill-rule="evenodd" stroke="none"/>
    <path d="M14.55 -5.95 L14.55 -3.45 14.55 -1.95 12.55 -3.45 13.55 -5.95 14.55 -5.95" fill="#8e8b83" fill-rule="evenodd" stroke="none"/>
    <path d="M14.55 -3.45 L14.8 -3.35 Q15.85 -3.35 15.55 -4.45 16.35 -4.45 16.95 -3.7 17.55 -3.0 17.55 -1.95 L17.55 0.55 14.55 -0.45 14.55 -1.95 14.55 -3.45" fill="#574b2b" fill-rule="evenodd" stroke="none"/>
    <path d="M14.55 -1.95 L14.55 -0.45 11.55 -0.45 11.55 -3.45 12.55 -3.45 14.55 -1.95" fill="#605030" fill-rule="evenodd" stroke="none"/>
    <path d="M17.55 0.55 L17.55 -1.95 18.55 -1.95 19.55 0.55 18.55 4.55 18.55 3.55 17.55 0.55" fill="#818078" fill-rule="evenodd" stroke="none"/>
    <path d="M10.55 -4.45 L10.55 -3.45 5.65 10.2 0.05 6.65 9.55 -4.45 10.55 -4.45" fill="#372019" fill-rule="evenodd" stroke="none"/>
    <path d="M11.55 -0.45 L14.55 -0.45 Q14.55 1.7 14.1 3.2 13.65 4.75 13.05 4.75 12.4 4.75 12.0 3.2 11.55 1.7 11.55 -0.45" fill="#504828" fill-rule="evenodd" stroke="none"/>
    <path d="M17.55 10.05 L11.55 14.05 18.55 3.55 18.55 4.55 18.55 6.05 17.55 10.05" fill="#4b452c" fill-rule="evenodd" stroke="none"/>
    <path d="M20.55 0.55 L19.55 6.05 18.55 6.05 18.55 4.55 19.55 0.55 20.55 0.55" fill="#484432" fill-rule="evenodd" stroke="none"/>
    <path d="M19.55 6.05 Q19.55 7.7 18.95 8.85 18.35 10.05 17.55 10.05 L18.55 6.05 19.55 6.05" fill="#303840" fill-rule="evenodd" stroke="none"/>
    <path d="M20.55 -3.45 L20.55 -3.0 19.55 -3.45 20.55 -3.45 M20.55 -2.4 L20.55 0.55 19.55 0.55 18.55 -1.95 20.55 -2.4" fill="#707870" fill-rule="evenodd" stroke="none"/>
  </g>
</svg>
