<?xml version="1.0" encoding="UTF-8" standalone="no"?>
<svg xmlns:ffdec="https://www.free-decompiler.com/flash" xmlns:xlink="http://www.w3.org/1999/xlink" ffdec:objectType="shape" height="29.1px" width="39.45px" xmlns="http://www.w3.org/2000/svg">
  <g transform="matrix(1.0, 0.0, 0.0, 1.0, 19.7, 14.5)">
    <path d="M2.45 -14.5 L7.45 -13.5 Q7.6 -11.7 5.9 -11.85 L5.45 -12.0 2.45 -14.5" fill="#a8a09c" fill-rule="evenodd" stroke="none"/>
    <path d="M7.45 -13.5 L12.45 -10.5 7.45 -6.5 5.45 -12.0 5.9 -11.85 Q7.6 -11.7 7.45 -13.5" fill="#b6aea9" fill-rule="evenodd" stroke="none"/>
    <path d="M5.45 -12.0 L7.45 -6.5 6.45 0.0 4.45 -2.5 3.45 -8.0 4.45 -12.0 5.45 -12.0" fill="#a69f9c" fill-rule="evenodd" stroke="none"/>
    <path d="M3.45 -8.0 L1.45 -6.5 0.45 -6.5 -1.55 -6.5 -0.55 -9.5 2.45 -10.5 3.45 -8.0" fill="#c2bab4" fill-rule="evenodd" stroke="none"/>
    <path d="M1.45 -6.5 L3.45 -8.0 4.45 -2.5 3.15 -3.45 1.45 -2.5 1.45 -6.5" fill="#969088" fill-rule="evenodd" stroke="none"/>
    <path d="M3.45 -8.0 L2.45 -10.5 4.45 -12.0 3.45 -8.0" fill="#9b938b" fill-rule="evenodd" stroke="none"/>
    <path d="M0.45 -6.5 L1.45 -6.5 1.45 -2.5 -0.55 -4.0 0.45 -6.5" fill="#cfcab8" fill-rule="evenodd" stroke="none"/>
    <path d="M-2.55 -10.5 L2.45 -14.5 5.45 -12.0 4.45 -12.0 2.45 -10.5 -0.55 -9.5 -2.55 -10.5" fill="#d3d0ba" fill-rule="evenodd" stroke="none"/>
    <path d="M16.45 10.5 L15.7 10.9 Q5.8 15.9 -5.5 14.15 L-7.55 13.5 -5.05 10.65 -7.55 9.5 Q-7.95 9.5 -8.25 9.05 L-8.55 8.0 -8.55 6.5 -7.45 4.8 -7.55 2.5 -7.55 1.5 -1.55 1.5 1.65 1.3 1.45 -2.5 3.15 -3.45 4.45 -2.5 6.45 0.0 6.45 2.5 2.45 2.5 4.65 8.8 6.45 4.0 9.2 7.55 7.45 0.0 Q7.45 -0.65 7.75 -1.05 8.05 -1.5 8.45 -1.5 L11.45 0.0 14.45 4.0 16.45 10.5" fill="#33393e" fill-rule="evenodd" stroke="none"/>
    <path d="M8.45 -1.5 L10.1 -3.45 11.45 0.0 8.45 -1.5" fill="#5d4e2e" fill-rule="evenodd" stroke="none"/>
    <path d="M12.45 -10.5 Q14.3 -10.5 15.7 -9.25 L16.7 -8.15 Q18.45 -5.85 18.45 -2.5 L14.45 4.0 11.45 0.0 10.1 -3.45 8.45 -1.5 Q8.05 -1.5 7.75 -1.05 7.45 -0.65 7.45 0.0 L6.45 0.0 7.45 -6.5 12.45 -10.5" fill="#50482a" fill-rule="evenodd" stroke="none"/>
    <path d="M6.45 0.0 L7.45 0.0 9.2 7.55 6.45 4.0 6.45 2.5 6.45 0.0" fill="#574f31" fill-rule="evenodd" stroke="none"/>
    <path d="M6.45 4.0 L4.65 8.8 2.45 2.5 6.45 2.5 6.45 4.0" fill="#382018" fill-rule="evenodd" stroke="none"/>
    <path d="M18.45 -2.5 Q21.6 4.25 17.0 9.85 L16.45 10.5 14.45 4.0 18.45 -2.5" fill="#5d5235" fill-rule="evenodd" stroke="none"/>
    <path d="M1.45 -2.5 L1.65 1.3 -1.55 1.5 -2.55 -1.5 -0.7 -1.7 -0.55 -4.0 1.45 -2.5" fill="#9a948e" fill-rule="evenodd" stroke="none"/>
    <path d="M-13.55 -6.5 Q-13.55 -7.75 -12.35 -8.65 -11.2 -9.5 -9.55 -9.5 L-9.55 -8.0 -13.55 -6.5" fill="#d4d3c1" fill-rule="evenodd" stroke="none"/>
    <path d="M-18.55 -1.5 L-15.55 -4.0 -13.55 -4.0 -13.55 -1.5 -17.55 -1.5 -18.55 -1.5" fill="#dddebd" fill-rule="evenodd" stroke="none"/>
    <path d="M-17.55 0.0 L-17.55 -1.5 -13.55 -1.5 -13.55 0.0 -17.55 0.0" fill="#bcb4b0" fill-rule="evenodd" stroke="none"/>
    <path d="M-18.55 5.5 L-19.0 4.75 Q-20.6 1.5 -18.55 -1.5 L-17.55 -1.5 -17.55 0.0 -17.55 1.5 -18.55 5.5" fill="#a49c95" fill-rule="evenodd" stroke="none"/>
    <path d="M-13.55 -1.5 L-13.55 -4.0 -11.55 -5.5 -11.55 -4.0 Q-11.55 -3.0 -12.1 -2.25 -12.7 -1.5 -13.55 -1.5 M-4.55 -5.5 L-1.55 -6.5 -3.55 -4.0 -4.55 -5.5" fill="#c8c0b8" fill-rule="evenodd" stroke="none"/>
    <path d="M-13.55 0.0 L-13.55 -1.5 Q-12.7 -1.5 -12.1 -2.25 -11.55 -3.0 -11.55 -4.0 L-8.65 -1.05 -8.55 0.0 Q-8.55 1.0 -9.1 1.75 -9.7 2.5 -10.55 2.5 L-10.8 0.65 -13.55 1.5 -13.55 0.0" fill="#777568" fill-rule="evenodd" stroke="none"/>
    <path d="M-11.55 -5.5 L-13.55 -4.0 -13.55 -6.5 -9.55 -8.0 Q-9.1 -8.0 -8.8 -7.55 L-8.55 -6.5 Q-8.95 -6.5 -9.25 -6.2 L-9.55 -5.5 -11.55 -5.5" fill="#afa7a3" fill-rule="evenodd" stroke="none"/>
    <path d="M-11.55 -4.0 L-11.55 -5.5 -9.55 -5.5 -7.55 -2.5 Q-6.75 -4.15 -6.55 -2.0 L-6.55 -1.5 -8.65 -1.05 -11.55 -4.0" fill="#a49c96" fill-rule="evenodd" stroke="none"/>
    <path d="M-15.55 -4.0 L-15.55 -6.5 -13.55 -6.5 -13.55 -4.0 -15.55 -4.0" fill="#cbc4b8" fill-rule="evenodd" stroke="none"/>
    <path d="M-17.55 0.0 L-13.55 0.0 -13.55 1.5 Q-13.25 2.65 -14.25 2.6 L-14.55 2.5 -15.85 1.6 -17.55 1.5 -17.55 0.0" fill="#584c2c" fill-rule="evenodd" stroke="none"/>
    <path d="M-0.55 -9.5 L-1.55 -6.5 -4.55 -5.5 -5.55 -5.5 Q-6.3 -3.6 -6.5 -6.0 L-6.55 -6.5 -6.55 -8.0 -3.05 -8.3 -2.55 -10.5 -0.55 -9.5" fill="#a79f9b" fill-rule="evenodd" stroke="none"/>
    <path d="M-7.55 -9.5 L-2.55 -10.5 -3.05 -8.3 -6.55 -8.0 Q-6.95 -8.0 -7.25 -8.45 L-7.55 -9.5" fill="#cec9b8" fill-rule="evenodd" stroke="none"/>
    <path d="M-9.55 -9.5 L-7.55 -9.5 -7.25 -8.45 Q-6.95 -8.0 -6.55 -8.0 L-6.55 -6.5 -7.55 -6.5 -8.55 -6.5 -8.8 -7.55 Q-9.1 -8.0 -9.55 -8.0 L-9.55 -9.5" fill="#908c84" fill-rule="evenodd" stroke="none"/>
    <path d="M-9.55 -5.5 L-9.25 -6.2 Q-8.95 -6.5 -8.55 -6.5 L-7.55 -6.5 -7.55 -2.5 -9.55 -5.5" fill="#686450" fill-rule="evenodd" stroke="none"/>
    <path d="M-6.55 -6.5 L-6.5 -6.0 Q-6.3 -3.6 -5.55 -5.5 -5.55 -3.85 -4.95 -2.7 -4.35 -1.5 -3.55 -1.5 -3.55 -0.85 -3.95 -0.35 -4.4 0.15 -5.05 0.15 -5.65 0.15 -6.1 -0.35 -6.55 -0.85 -6.55 -1.5 L-6.55 -2.0 Q-6.75 -4.15 -7.55 -2.5 L-7.55 -6.5 -6.55 -6.5" fill="#3e3f37" fill-rule="evenodd" stroke="none"/>
    <path d="M-1.55 1.5 L-7.55 1.5 Q-7.55 0.85 -7.8 0.45 -8.1 0.0 -8.55 0.0 L-8.65 -1.05 -6.55 -1.5 Q-6.55 -0.85 -6.1 -0.35 -5.65 0.15 -5.05 0.15 -4.4 0.15 -3.95 -0.35 -3.55 -0.85 -3.55 -1.5 L-2.55 -1.5 -1.55 1.5" fill="#615b43" fill-rule="evenodd" stroke="none"/>
    <path d="M-5.55 -5.5 L-4.55 -5.5 -3.55 -4.0 -2.55 -1.5 -3.55 -1.5 Q-4.35 -1.5 -4.95 -2.7 -5.55 -3.85 -5.55 -5.5" fill="#82837b" fill-rule="evenodd" stroke="none"/>
    <path d="M-1.55 -6.5 L0.45 -6.5 -0.55 -4.0 -0.7 -1.7 -2.55 -1.5 -3.55 -4.0 -1.55 -6.5" fill="#a9a19e" fill-rule="evenodd" stroke="none"/>
    <path d="M-7.55 1.5 L-7.55 2.5 Q-8.35 2.5 -8.95 3.65 -9.55 4.85 -9.55 6.5 L-10.85 5.6 -12.55 5.5 -12.55 2.5 -10.55 2.5 Q-9.7 2.5 -9.1 1.75 -8.55 1.0 -8.55 0.0 -8.1 0.0 -7.8 0.45 -7.55 0.85 -7.55 1.5" fill="#5c5439" fill-rule="evenodd" stroke="none"/>
    <path d="M-7.55 2.5 L-7.45 4.8 -8.55 6.5 -9.55 6.5 Q-9.55 4.85 -8.95 3.65 -8.35 2.5 -7.55 2.5" fill="#787c74" fill-rule="evenodd" stroke="none"/>
    <path d="M-8.55 6.5 L-8.55 8.0 -11.55 10.5 -12.85 9.6 -14.55 9.5 -17.55 1.5 -15.85 1.6 -14.55 2.5 -14.3 5.05 -12.55 5.5 -10.85 5.6 -9.55 6.5 -8.55 6.5" fill="#8f8a82" fill-rule="evenodd" stroke="none"/>
    <path d="M-8.55 8.0 L-8.25 9.05 Q-7.95 9.5 -7.55 9.5 L-10.55 12.0 Q-10.55 11.35 -10.8 10.95 -11.1 10.5 -11.55 10.5 L-8.55 8.0" fill="#7d7e76" fill-rule="evenodd" stroke="none"/>
    <path d="M-7.55 13.5 L-10.55 13.5 -10.55 12.0 -7.55 9.5 -5.05 10.65 -7.55 13.5" fill="#534929" fill-rule="evenodd" stroke="none"/>
    <path d="M-10.55 2.5 L-12.55 2.5 -12.55 5.5 -14.3 5.05 -14.55 2.5 -14.25 2.6 Q-13.25 2.65 -13.55 1.5 L-10.8 0.65 -10.55 2.5" fill="#524930" fill-rule="evenodd" stroke="none"/>
    <path d="M-14.55 9.5 L-18.55 5.5 -17.55 1.5 -14.55 9.5" fill="#594f34" fill-rule="evenodd" stroke="none"/>
    <path d="M-10.55 13.5 L-14.55 9.5 -12.85 9.6 -11.55 10.5 Q-11.1 10.5 -10.8 10.95 -10.55 11.35 -10.55 12.0 L-10.55 13.5" fill="#6a5d42" fill-rule="evenodd" stroke="none"/>
  </g>
</svg>
