<?xml version="1.0" encoding="UTF-8" standalone="no"?>
<svg xmlns:ffdec="https://www.free-decompiler.com/flash" xmlns:xlink="http://www.w3.org/1999/xlink" ffdec:objectType="shape" height="20.0px" width="15.95px" xmlns="http://www.w3.org/2000/svg">
  <g transform="matrix(1.0, 0.0, 0.0, 1.0, 8.0, 10.0)">
    <path d="M1.8 0.25 Q1.45 1.2 1.45 1.9 L1.85 4.0 1.8 4.0 Q1.05 3.25 -0.15 3.35 L-0.15 -9.7 0.0 -10.0 Q0.85 -7.85 1.8 -6.25 L1.8 0.25" fill="#6e6e75" fill-rule="evenodd" stroke="none"/>
    <path d="M1.8 -6.25 L3.85 -3.05 5.85 0.1 Q6.8 1.5 7.95 3.95 6.0 1.8 3.95 0.9 1.8 -0.05 1.8 0.25 L1.8 -6.25" fill="url(#gradient0)" fill-rule="evenodd" stroke="none"/>
    <path d="M1.85 4.0 L1.8 4.0 1.85 4.0" fill="url(#gradient1)" fill-rule="evenodd" stroke="none"/>
    <path d="M-1.6 3.7 Q-0.35 -0.85 -3.1 0.45 -5.85 1.7 -8.0 3.95 L-5.85 0.1 -3.8 -3.05 -1.75 -6.25 -0.15 -9.7 -0.15 3.35 Q-0.9 3.35 -1.6 3.7" fill="url(#gradient2)" fill-rule="evenodd" stroke="none"/>
    <path d="M1.8 4.0 Q2.5 4.75 2.45 5.6 L2.1 7.35 Q1.9 7.7 1.35 7.65 L1.05 7.5 0.85 8.8 0.45 9.75 0.05 10.0 -0.45 9.75 -0.95 8.8 -1.15 7.5 -1.4 7.65 Q-2.0 7.7 -2.15 7.35 -2.55 6.5 -2.55 5.6 -2.6 4.75 -1.9 4.0 L-1.6 3.7 Q-0.9 3.35 -0.15 3.35 1.05 3.25 1.8 4.0" fill="#b6ed94" fill-rule="evenodd" stroke="none"/>
  </g>
  <defs>
    <linearGradient gradientTransform="matrix(0.0, 0.0029, -0.0037, 0.0, 4.85, -1.25)" gradientUnits="userSpaceOnUse" id="gradient0" spreadMethod="pad" x1="-819.2" x2="819.2">
      <stop offset="0.0" stop-color="#999999"/>
      <stop offset="1.0" stop-color="#d0d0d0"/>
    </linearGradient>
    <radialGradient cx="0" cy="0" gradientTransform="matrix(0.0111, 0.0, 0.0, 0.0083, -0.1, 3.4)" gradientUnits="userSpaceOnUse" id="gradient1" r="819.2" spreadMethod="pad">
      <stop offset="0.0" stop-color="#e8f8e8"/>
      <stop offset="1.0" stop-color="#65dc09"/>
    </radialGradient>
    <linearGradient gradientTransform="matrix(-0.0023, 0.0, 0.0, -0.0082, -2.75, -3.0)" gradientUnits="userSpaceOnUse" id="gradient2" spreadMethod="pad" x1="-819.2" x2="819.2">
      <stop offset="0.0" stop-color="#d8e0d8"/>
      <stop offset="1.0" stop-color="#c0c0b0"/>
    </linearGradient>
  </defs>
</svg>
