<?xml version="1.0" encoding="UTF-8" standalone="no"?>
<svg xmlns:ffdec="https://www.free-decompiler.com/flash" xmlns:xlink="http://www.w3.org/1999/xlink" ffdec:objectType="shape" height="27.3px" width="31.6px" xmlns="http://www.w3.org/2000/svg">
  <g transform="matrix(1.0, 0.0, 0.0, 1.0, 15.8, 13.4)">
    <path d="M10.6 -1.35 L10.6 -8.1 12.6 -8.1 12.6 1.75 10.6 -1.35 M12.6 10.75 L12.6 13.9 10.6 13.9 10.6 9.85 12.6 10.75 M-10.5 9.8 L-10.5 13.9 -12.5 13.9 -12.5 10.75 -10.5 9.8 M-12.5 1.65 L-12.5 -8.1 -10.5 -8.1 -10.5 -1.45 -12.5 1.65" fill="#111111" fill-rule="evenodd" stroke="none"/>
    <path d="M1.5 -1.9 L4.05 0.0 3.5 4.05 3.75 5.75 3.8 6.85 -3.75 6.85 -3.7 5.75 -3.5 4.05 -4.05 0.0 -1.5 -1.9 -1.4 -1.95 1.45 -1.95 1.5 -1.9" fill="#3f453a" fill-rule="evenodd" stroke="none"/>
    <path d="M6.2 -4.35 L5.8 -1.65 4.7 -1.4 Q4.25 -1.05 4.3 -0.55 L3.5 -4.3 6.2 -4.35 M-5.8 -1.65 L-6.15 -4.35 -3.45 -4.3 -4.25 -0.55 Q-4.3 -1.05 -4.75 -1.4 -5.2 -1.7 -5.8 -1.65" fill="#b28d5f" fill-rule="evenodd" stroke="none"/>
    <path d="M-6.4 -7.0 L-6.1 -7.3 -3.55 -7.3 -3.5 -6.4 -3.45 -4.3 -6.15 -4.35 -6.4 -7.0 M3.5 -6.4 L3.6 -7.3 6.15 -7.3 6.4 -7.0 6.2 -4.35 3.5 -4.3 3.5 -6.4" fill="#999999" fill-rule="evenodd" stroke="none"/>
    <path d="M1.45 -2.0 L1.45 -1.95 -1.4 -1.95 -1.45 -2.0 -0.05 -7.25 1.45 -2.0" fill="#b48af4" fill-rule="evenodd" stroke="none"/>
    <path d="M-6.1 -7.3 Q-5.6 -8.55 -4.55 -8.95 L-3.55 -7.3 -6.1 -7.3 M3.6 -7.3 L4.6 -9.0 6.15 -7.3 3.6 -7.3" fill="#570102" fill-rule="evenodd" stroke="none"/>
    <path d="M6.4 -7.0 L6.55 -9.65 10.6 -1.35 12.6 1.75 Q17.8 7.05 13.0 10.6 L12.6 10.75 10.6 9.85 8.25 7.9 8.3 5.8 8.45 4.05 5.8 -1.65 6.2 -4.35 6.4 -7.0" fill="url(#gradient0)" fill-rule="evenodd" stroke="none"/>
    <path d="M-3.5 -6.4 L0.0 -12.9 3.5 -6.4 3.5 -4.3 4.3 -0.55 4.05 0.0 1.5 -1.9 1.45 -2.0 -0.05 -7.25 -1.45 -2.0 -1.5 -1.9 -4.05 0.0 -4.25 -0.55 -3.45 -4.3 -3.5 -6.4" fill="url(#gradient1)" fill-rule="evenodd" stroke="none"/>
    <path d="M8.25 7.9 L4.0 8.55 3.8 6.85 3.75 5.75 3.5 4.05 4.05 0.0 4.3 -0.55 Q4.25 -1.05 4.7 -1.4 L5.8 -1.65 8.45 4.05 8.3 5.8 8.25 7.9 M8.45 4.05 L3.5 4.05 8.45 4.05 M3.75 5.75 L8.3 5.8 3.75 5.75" fill="url(#gradient2)" fill-rule="evenodd" stroke="none"/>
    <path d="M4.0 8.55 L2.55 10.5 -2.6 10.45 -3.95 8.55 -3.75 6.85 3.8 6.85 4.0 8.55" fill="url(#gradient3)" fill-rule="evenodd" stroke="none"/>
    <path d="M-8.25 7.9 L-10.5 9.8 -12.5 10.75 Q-17.85 7.95 -13.0 2.15 L-12.5 1.65 -10.5 -1.45 -6.55 -9.65 -6.4 -7.0 -6.15 -4.35 -5.8 -1.65 -8.45 4.05 -8.3 5.8 -8.25 7.9" fill="url(#gradient4)" fill-rule="evenodd" stroke="none"/>
    <path d="M-3.95 8.55 L-8.25 7.9 -8.3 5.8 -8.45 4.05 -5.8 -1.65 Q-5.2 -1.7 -4.75 -1.4 -4.3 -1.05 -4.25 -0.55 L-4.05 0.0 -3.5 4.05 -3.7 5.75 -3.75 6.85 -3.95 8.55 M-3.5 4.05 L-8.45 4.05 -3.5 4.05 M-3.7 5.75 L-8.3 5.8 -3.7 5.75" fill="url(#gradient5)" fill-rule="evenodd" stroke="none"/>
    <path d="M6.4 -7.0 L6.55 -9.65 10.6 -1.35 12.6 1.75 Q17.8 7.05 13.0 10.6 L12.6 10.75 10.6 9.85 8.25 7.9 4.0 8.55 2.55 10.5 -2.6 10.45 -3.95 8.55 -8.25 7.9 -10.5 9.8 -12.5 10.75 Q-17.85 7.95 -13.0 2.15 L-12.5 1.65 -10.5 -1.45 -6.55 -9.65 -6.4 -7.0 -6.1 -7.3 Q-5.6 -8.55 -4.55 -8.95 L-3.55 -7.3 -3.5 -6.4 0.0 -12.9 3.5 -6.4 3.6 -7.3 4.6 -9.0 6.15 -7.3 6.4 -7.0 6.2 -4.35 5.8 -1.65 8.45 4.05 8.3 5.8 8.25 7.9 M1.5 -1.9 L4.05 0.0 4.3 -0.55 3.5 -4.3 3.5 -6.4 M1.45 -1.95 L1.5 -1.9 1.45 -2.0 -0.05 -7.25 -1.45 -2.0 -1.5 -1.9 -4.05 0.0 -3.5 4.05 -3.7 5.75 -3.75 6.85 3.8 6.85 3.75 5.75 3.5 4.05 4.05 0.0 M1.45 -1.95 L-1.4 -1.95 -1.5 -1.9 M5.8 -1.65 L4.7 -1.4 Q4.25 -1.05 4.3 -0.55 M3.6 -7.3 L6.15 -7.3 M3.5 -4.3 L6.2 -4.35 M3.8 6.85 L4.0 8.55 M-5.8 -1.65 L-6.15 -4.35 -6.4 -7.0 M-4.05 0.0 L-4.25 -0.55 Q-4.3 -1.05 -4.75 -1.4 -5.2 -1.7 -5.8 -1.65 L-8.45 4.05 -8.3 5.8 -8.25 7.9 M-3.45 -4.3 L-4.25 -0.55 M-3.45 -4.3 L-3.5 -6.4 M-6.15 -4.35 L-3.45 -4.3 M-6.1 -7.3 L-3.55 -7.3 M-3.95 8.55 L-3.75 6.85" fill="none" stroke="#000000" stroke-linecap="round" stroke-linejoin="round" stroke-width="1.0"/>
    <path d="M8.3 5.8 L3.75 5.75 M3.5 4.05 L8.45 4.05 M-8.45 4.05 L-3.5 4.05 M-8.3 5.8 L-3.7 5.75" fill="none" stroke="#804000" stroke-linecap="round" stroke-linejoin="round" stroke-width="1.0"/>
  </g>
  <defs>
    <linearGradient gradientTransform="matrix(-0.0059, 0.0, 0.0, -0.0125, 10.6, 0.55)" gradientUnits="userSpaceOnUse" id="gradient0" spreadMethod="pad" x1="-819.2" x2="819.2">
      <stop offset="0.0" stop-color="#ccaa7c"/>
      <stop offset="1.0" stop-color="#cecbc3"/>
    </linearGradient>
    <linearGradient gradientTransform="matrix(-0.0052, 0.0, 0.0, -0.0078, 0.0, -6.45)" gradientUnits="userSpaceOnUse" id="gradient1" spreadMethod="pad" x1="-819.2" x2="819.2">
      <stop offset="0.17254901960784313" stop-color="#424840"/>
      <stop offset="0.5058823529411764" stop-color="#d4dadc"/>
      <stop offset="0.8392156862745098" stop-color="#424840"/>
    </linearGradient>
    <linearGradient gradientTransform="matrix(-0.0031, 0.0, 0.0, -0.0063, 6.05, 3.45)" gradientUnits="userSpaceOnUse" id="gradient2" spreadMethod="pad" x1="-819.2" x2="819.2">
      <stop offset="0.0" stop-color="#8b6931"/>
      <stop offset="0.5176470588235295" stop-color="#cecbc3"/>
      <stop offset="1.0" stop-color="#8b6931"/>
    </linearGradient>
    <linearGradient gradientTransform="matrix(0.0, -0.0023, 0.0049, 0.0, -0.05, 8.7)" gradientUnits="userSpaceOnUse" id="gradient3" spreadMethod="pad" x1="-819.2" x2="819.2">
      <stop offset="0.0" stop-color="#d4dadc"/>
      <stop offset="1.0" stop-color="#424840"/>
    </linearGradient>
    <linearGradient gradientTransform="matrix(0.0059, 0.0, 0.0, -0.0125, -10.6, 0.55)" gradientUnits="userSpaceOnUse" id="gradient4" spreadMethod="pad" x1="-819.2" x2="819.2">
      <stop offset="0.0" stop-color="#ccaa7c"/>
      <stop offset="1.0" stop-color="#cecbc3"/>
    </linearGradient>
    <linearGradient gradientTransform="matrix(0.0031, 0.0, 0.0, -0.0063, -6.05, 3.45)" gradientUnits="userSpaceOnUse" id="gradient5" spreadMethod="pad" x1="-819.2" x2="819.2">
      <stop offset="0.0" stop-color="#8b6931"/>
      <stop offset="0.5176470588235295" stop-color="#cecbc3"/>
      <stop offset="1.0" stop-color="#8b6931"/>
    </linearGradient>
  </defs>
</svg>
