<?xml version="1.0" encoding="UTF-8" standalone="no"?>
<svg xmlns:ffdec="https://www.free-decompiler.com/flash" xmlns:xlink="http://www.w3.org/1999/xlink" ffdec:objectType="shape" height="52.3px" width="112.25px" xmlns="http://www.w3.org/2000/svg">
  <g transform="matrix(1.0, 0.0, 0.0, 1.0, 56.1, 33.6)">
    <path d="M-5.6 -29.15 L-2.55 -32.1 Q-1.45 -33.25 0.0 -33.1 1.45 -33.25 2.6 -32.1 L5.65 -29.15 Q4.9 -28.05 3.75 -27.6 L3.45 -27.45 3.15 -27.35 2.2 -27.2 1.45 -27.15 1.25 -27.1 0.95 -27.05 0.0 -27.15 -0.9 -27.05 -1.25 -27.1 -1.4 -27.15 -2.15 -27.2 -3.1 -27.35 -3.4 -27.45 -3.75 -27.6 Q-4.85 -28.05 -5.6 -29.15" fill="#7878a0" fill-rule="evenodd" stroke="none"/>
    <path d="M8.05 -26.9 Q14.45 -21.2 21.75 -16.4 L21.35 -15.55 21.2 -15.3 20.95 -15.05 20.7 -14.6 20.5 -14.45 20.4 -14.4 19.9 -13.95 18.75 -13.45 18.45 -13.35 17.85 -13.3 16.75 -13.35 16.6 -13.45 16.15 -13.8 15.85 -13.9 15.35 -14.2 14.4 -14.8 14.0 -14.95 13.75 -15.05 Q13.5 -15.1 13.15 -15.35 L12.85 -15.55 12.1 -15.85 11.75 -15.95 10.95 -16.6 10.35 -16.9 10.2 -17.05 9.25 -17.7 Q9.15 -17.7 9.15 -17.85 L8.7 -18.3 8.4 -18.4 8.15 -18.6 Q7.9 -18.65 7.9 -19.1 L7.9 -19.2 Q7.8 -19.35 7.85 -19.55 L7.75 -22.65 7.75 -22.95 7.75 -25.35 7.75 -25.65 7.9 -26.7 8.05 -26.9 M-21.7 -16.4 Q-14.45 -21.2 -8.0 -26.9 L-7.85 -26.7 -7.75 -25.65 -7.75 -25.35 -7.75 -22.95 -7.75 -22.65 -7.8 -19.55 -7.85 -19.2 -7.85 -19.1 Q-7.85 -18.65 -8.1 -18.6 L-8.35 -18.4 -8.65 -18.3 -9.1 -17.85 Q-9.1 -17.7 -9.25 -17.7 L-10.15 -17.05 -10.3 -16.9 -10.9 -16.6 -11.75 -15.95 -12.05 -15.85 -12.8 -15.55 -13.1 -15.35 -13.75 -15.05 -14.0 -14.95 -14.35 -14.8 -15.3 -14.2 -15.8 -13.9 -16.1 -13.8 -16.55 -13.45 Q-16.6 -13.35 -16.75 -13.35 L-17.8 -13.3 -18.4 -13.35 -18.75 -13.45 -19.85 -13.95 -20.35 -14.4 -20.5 -14.45 -20.65 -14.6 -20.9 -15.05 -21.15 -15.3 -21.3 -15.55 -21.7 -16.4" fill="#6a7269" fill-rule="evenodd" stroke="none"/>
    <path d="M4.75 -8.2 L5.2 -7.85 7.15 -5.7 7.4 -5.15 7.65 -4.3 Q8.0 -3.15 8.45 -2.35 L8.85 -1.85 Q9.25 -1.55 10.1 -1.2 L10.6 -0.95 12.2 -0.45 Q12.5 2.6 12.4 5.1 L6.9 4.95 Q7.5 4.05 7.75 2.35 L5.9 2.15 5.35 2.05 0.0 2.05 -5.3 2.05 -5.85 2.15 -7.75 2.35 Q-7.5 4.05 -6.9 4.95 L-12.4 5.1 -12.15 -0.45 Q-11.1 -0.6 -10.55 -0.95 L-10.05 -1.2 Q-9.25 -1.55 -8.8 -1.85 L-8.4 -2.35 -7.6 -4.3 -7.35 -5.15 -7.1 -5.7 -5.15 -7.85 -4.75 -8.2 -4.65 -8.3 Q-3.8 -8.85 -2.55 -9.3 L-2.15 -9.4 0.35 -9.55 2.2 -9.4 2.6 -9.3 4.7 -8.3 4.75 -8.2" fill="#809058" fill-rule="evenodd" stroke="none"/>
    <path d="M55.35 10.1 L55.35 17.95 51.9 17.95 51.9 9.45 55.35 10.1 M-51.85 9.45 L-51.85 17.95 -55.3 17.95 -55.3 10.1 -51.85 9.45 M6.9 4.95 L5.1 6.85 Q2.9 8.35 0.0 8.6 -2.9 8.35 -5.05 6.85 L-6.9 4.95 Q-7.5 4.05 -7.75 2.35 L-5.85 2.15 -5.3 2.05 0.0 2.05 5.35 2.05 5.9 2.15 7.75 2.35 Q7.5 4.05 6.9 4.95" fill="#707870" fill-rule="evenodd" stroke="none"/>
    <path d="M12.4 5.1 L12.4 5.8 12.35 6.1 12.1 7.65 11.65 8.65 11.4 8.95 11.2 9.15 10.7 9.6 9.4 9.95 9.0 10.1 8.45 10.3 8.15 10.35 5.95 10.4 5.2 10.3 4.65 9.95 4.65 9.9 Q4.2 9.4 3.15 9.45 L0.35 9.55 -3.1 9.45 Q-4.2 9.4 -4.6 9.9 L-4.65 9.95 -5.15 10.3 -5.9 10.4 -8.1 10.35 -8.4 10.3 -9.0 10.1 -9.35 9.95 -10.65 9.6 -11.15 9.15 -11.35 8.95 -11.6 8.65 -12.05 7.65 -12.3 6.1 -12.35 5.8 -12.4 5.1 -6.9 4.95 -5.05 6.85 Q-2.9 8.35 0.0 8.6 2.9 8.35 5.1 6.85 L6.9 4.95 12.4 5.1" fill="#d8d8b8" fill-rule="evenodd" stroke="none"/>
    <path d="M5.65 -29.15 L7.9 -27.05 7.9 -26.7 7.75 -25.65 7.75 -25.35 7.75 -22.95 7.75 -22.65 7.85 -19.55 Q7.8 -19.35 7.9 -19.2 L7.9 -19.1 Q7.9 -18.65 8.15 -18.6 L8.4 -18.4 8.7 -18.3 9.15 -17.85 Q9.15 -17.7 9.25 -17.7 L10.2 -17.05 10.35 -16.9 10.95 -16.6 11.75 -15.95 12.1 -15.85 12.85 -15.55 13.15 -15.35 Q13.5 -15.1 13.75 -15.05 L14.0 -14.95 14.4 -14.8 15.35 -14.2 15.85 -13.9 16.15 -13.8 16.6 -13.45 16.75 -13.35 17.85 -13.3 18.45 -13.35 18.75 -13.45 19.9 -13.95 20.4 -14.4 20.5 -14.45 20.7 -14.6 20.95 -15.05 21.2 -15.3 21.35 -15.55 21.75 -16.4 Q35.3 -7.4 51.9 -1.45 L55.35 -0.25 55.65 -0.15 55.65 10.15 55.35 10.1 51.9 9.45 Q32.2 5.85 12.4 5.1 12.5 2.6 12.2 -0.45 L10.6 -0.95 10.1 -1.2 Q9.25 -1.55 8.85 -1.85 L8.45 -2.35 Q8.0 -3.15 7.65 -4.3 L7.4 -5.15 7.15 -5.7 5.2 -7.85 4.75 -8.2 4.75 -8.3 4.75 -8.2 4.7 -8.3 4.75 -8.3 5.15 -10.8 5.2 -11.1 5.2 -23.3 4.9 -25.45 4.7 -25.7 Q3.95 -26.3 2.5 -26.15 L0.0 -26.1 -2.5 -26.15 Q-3.95 -26.3 -4.65 -25.7 L-4.85 -25.45 Q-5.2 -24.4 -5.15 -23.3 L-5.15 -11.1 -5.1 -10.8 -4.65 -8.3 -4.75 -8.2 -5.15 -7.85 -7.1 -5.7 -7.35 -5.15 -7.6 -4.3 -8.4 -2.35 -8.8 -1.85 Q-9.25 -1.55 -10.05 -1.2 L-10.55 -0.95 Q-11.1 -0.6 -12.15 -0.45 L-12.4 5.1 Q-32.2 5.85 -51.85 9.45 L-55.3 10.1 -55.6 10.15 -55.6 -0.15 -55.3 -0.25 -51.85 -1.45 Q-35.3 -7.4 -21.7 -16.4 L-21.3 -15.55 -21.15 -15.3 -20.9 -15.05 -20.65 -14.6 -20.5 -14.45 -20.35 -14.4 -19.85 -13.95 -18.75 -13.45 -18.4 -13.35 -17.8 -13.3 -16.75 -13.35 Q-16.6 -13.35 -16.55 -13.45 L-16.1 -13.8 -15.8 -13.9 -15.3 -14.2 -14.35 -14.8 -14.0 -14.95 -13.75 -15.05 -13.1 -15.35 -12.8 -15.55 -12.05 -15.85 -11.75 -15.95 -10.9 -16.6 -10.3 -16.9 -10.15 -17.05 -9.25 -17.7 Q-9.1 -17.7 -9.1 -17.85 L-8.65 -18.3 -8.35 -18.4 -8.1 -18.6 Q-7.85 -18.65 -7.85 -19.1 L-7.85 -19.2 -7.8 -19.55 -7.75 -22.65 -7.75 -22.95 -7.75 -25.35 -7.75 -25.65 -7.85 -26.7 -7.9 -27.05 -5.6 -29.15 Q-4.85 -28.05 -3.75 -27.6 L-3.4 -27.45 -3.1 -27.35 -2.15 -27.2 -1.4 -27.15 -1.25 -27.1 -0.9 -27.05 0.0 -27.15 0.95 -27.05 1.25 -27.1 1.45 -27.15 2.2 -27.2 3.15 -27.35 3.45 -27.45 3.75 -27.6 Q4.9 -28.05 5.65 -29.15" fill="url(#gradient0)" fill-rule="evenodd" stroke="none"/>
    <path d="M-4.65 -8.3 L-5.1 -10.8 -5.15 -11.1 -5.15 -23.3 Q-5.2 -24.4 -4.85 -25.45 L-4.65 -25.7 Q-3.95 -26.3 -2.5 -26.15 L0.0 -26.1 2.5 -26.15 Q3.95 -26.3 4.7 -25.7 L4.9 -25.45 5.2 -23.3 5.2 -11.1 5.15 -10.8 4.75 -8.3 4.7 -8.3 2.6 -9.3 2.2 -9.4 0.35 -9.55 -2.15 -9.4 -2.55 -9.3 Q-3.8 -8.85 -4.65 -8.3" fill="url(#gradient1)" fill-rule="evenodd" stroke="none"/>
    <path d="M11.4 8.95 Q13.3 13.8 12.45 16.1 11.6 18.45 8.0 18.2 4.85 18.05 3.9 16.3 2.8 14.2 4.65 9.95 L5.2 10.3 5.95 10.4 8.15 10.35 8.45 10.3 9.0 10.1 9.4 9.95 10.7 9.6 11.2 9.15 11.4 8.95" fill="url(#gradient2)" fill-rule="evenodd" stroke="none"/>
    <path d="M-4.65 9.95 Q-2.8 14.2 -3.9 16.3 -4.85 18.05 -8.0 18.2 -11.6 18.45 -12.4 16.1 -13.25 13.8 -11.35 8.95 L-11.15 9.15 -10.65 9.6 -9.35 9.95 -9.0 10.1 -8.4 10.3 -8.1 10.35 -5.9 10.4 -5.15 10.3 -4.65 9.95" fill="url(#gradient3)" fill-rule="evenodd" stroke="none"/>
    <path d="M-5.6 -29.15 L-2.55 -32.1 Q-1.45 -33.25 0.0 -33.1 1.45 -33.25 2.6 -32.1 L5.65 -29.15 7.9 -27.05 8.05 -26.9 Q14.45 -21.2 21.75 -16.4 35.3 -7.4 51.9 -1.45 L55.35 -0.25 55.65 -0.15 55.65 10.15 55.35 10.1 55.35 17.95 51.9 17.95 51.9 9.45 Q32.2 5.85 12.4 5.1 L12.4 5.8 12.35 6.1 12.1 7.65 11.65 8.65 11.4 8.95 Q13.3 13.8 12.45 16.1 11.6 18.45 8.0 18.2 4.85 18.05 3.9 16.3 2.8 14.2 4.65 9.95 L4.65 9.9 Q4.2 9.4 3.15 9.45 L0.35 9.55 -3.1 9.45 Q-4.2 9.4 -4.6 9.9 L-4.65 9.95 Q-2.8 14.2 -3.9 16.3 -4.85 18.05 -8.0 18.2 -11.6 18.45 -12.4 16.1 -13.25 13.8 -11.35 8.95 L-11.6 8.65 -12.05 7.65 -12.3 6.1 -12.35 5.8 -12.4 5.1 Q-32.2 5.85 -51.85 9.45 L-51.85 17.95 -55.3 17.95 -55.3 10.1 -55.6 10.15 -55.6 -0.15 -55.3 -0.25 -51.85 -1.45 Q-35.3 -7.4 -21.7 -16.4 -14.45 -21.2 -8.0 -26.9 L-7.9 -27.05 -5.6 -29.15 Q-4.85 -28.05 -3.75 -27.6 L-3.4 -27.45 -3.1 -27.35 -2.15 -27.2 -1.4 -27.15 -1.25 -27.1 -0.9 -27.05 0.0 -27.15 0.95 -27.05 1.25 -27.1 1.45 -27.15 2.2 -27.2 3.15 -27.35 3.45 -27.45 3.75 -27.6 Q4.9 -28.05 5.65 -29.15 M-4.65 -8.3 L-5.1 -10.8 -5.15 -11.1 -5.15 -23.3 Q-5.2 -24.4 -4.85 -25.45 L-4.65 -25.7 Q-3.95 -26.3 -2.5 -26.15 L0.0 -26.1 2.5 -26.15 Q3.95 -26.3 4.7 -25.7 L4.9 -25.45 5.2 -23.3 5.2 -11.1 5.15 -10.8 4.75 -8.3 4.75 -8.2 5.2 -7.85 7.15 -5.7 7.4 -5.15 7.65 -4.3 Q8.0 -3.15 8.45 -2.35 L8.85 -1.85 Q9.25 -1.55 10.1 -1.2 L10.6 -0.95 12.2 -0.45 Q12.5 2.6 12.4 5.1 L6.9 4.95 5.1 6.85 Q2.9 8.35 0.0 8.6 -2.9 8.35 -5.05 6.85 L-6.9 4.95 -12.4 5.1 -12.15 -0.45 Q-11.1 -0.6 -10.55 -0.95 L-10.05 -1.2 Q-9.25 -1.55 -8.8 -1.85 L-8.4 -2.35 -7.6 -4.3 -7.35 -5.15 -7.1 -5.7 -5.15 -7.85 -4.75 -8.2 -4.65 -8.3 Q-3.8 -8.85 -2.55 -9.3 L-2.15 -9.4 0.35 -9.55 2.2 -9.4 2.6 -9.3 4.7 -8.3 4.75 -8.2 M7.9 -26.7 L7.75 -25.65 7.75 -25.35 7.75 -22.95 7.75 -22.65 7.85 -19.55 Q7.8 -19.35 7.9 -19.2 L7.9 -19.1 Q7.9 -18.65 8.15 -18.6 L8.4 -18.4 8.7 -18.3 9.15 -17.85 Q9.15 -17.7 9.25 -17.7 L10.2 -17.05 10.35 -16.9 10.95 -16.6 11.75 -15.95 12.1 -15.85 12.85 -15.55 13.15 -15.35 Q13.5 -15.1 13.75 -15.05 L14.0 -14.95 14.4 -14.8 15.35 -14.2 15.85 -13.9 16.15 -13.8 16.6 -13.45 16.75 -13.35 17.85 -13.3 18.45 -13.35 18.75 -13.45 19.9 -13.95 20.4 -14.4 20.5 -14.45 20.7 -14.6 20.95 -15.05 21.2 -15.3 21.35 -15.55 21.75 -16.4 M7.9 -27.05 L7.9 -26.7 M-7.85 -26.7 L-7.75 -25.65 -7.75 -25.35 -7.75 -22.95 -7.75 -22.65 -7.8 -19.55 -7.85 -19.2 -7.85 -19.1 Q-7.85 -18.65 -8.1 -18.6 L-8.35 -18.4 -8.65 -18.3 -9.1 -17.85 Q-9.1 -17.7 -9.25 -17.7 L-10.15 -17.05 -10.3 -16.9 -10.9 -16.6 -11.75 -15.95 -12.05 -15.85 -12.8 -15.55 -13.1 -15.35 -13.75 -15.05 -14.0 -14.95 -14.35 -14.8 -15.3 -14.2 -15.8 -13.9 -16.1 -13.8 -16.55 -13.45 Q-16.6 -13.35 -16.75 -13.35 L-17.8 -13.3 -18.4 -13.35 -18.75 -13.45 -19.85 -13.95 -20.35 -14.4 -20.5 -14.45 -20.65 -14.6 -20.9 -15.05 -21.15 -15.3 -21.3 -15.55 -21.7 -16.4 M-7.9 -27.05 L-7.85 -26.7 M-6.9 4.95 Q-7.5 4.05 -7.75 2.35 L-5.85 2.15 -5.3 2.05 0.0 2.05 5.35 2.05 5.9 2.15 7.75 2.35 Q7.5 4.05 6.9 4.95 M-11.35 8.95 L-11.15 9.15 -10.65 9.6 -9.35 9.95 -9.0 10.1 -8.4 10.3 -8.1 10.35 -5.9 10.4 -5.15 10.3 -4.65 9.95 M-55.3 10.1 L-51.85 9.45 M55.35 10.1 L51.9 9.45 M4.65 9.95 L5.2 10.3 5.95 10.4 8.15 10.35 8.45 10.3 9.0 10.1 9.4 9.95 10.7 9.6 11.2 9.15 11.4 8.95" fill="none" stroke="#000000" stroke-linecap="round" stroke-linejoin="round" stroke-width="1.0"/>
  </g>
  <defs>
    <linearGradient gradientTransform="matrix(0.0, -0.024, 0.0679, 0.0, 0.0, -9.5)" gradientUnits="userSpaceOnUse" id="gradient0" spreadMethod="pad" x1="-819.2" x2="819.2">
      <stop offset="0.0" stop-color="#d8d8b8"/>
      <stop offset="0.5450980392156862" stop-color="#6e7e43"/>
      <stop offset="0.8470588235294118" stop-color="#506020"/>
      <stop offset="1.0" stop-color="#203808"/>
    </linearGradient>
    <linearGradient gradientTransform="matrix(0.0064, 0.0, 0.0, 0.0109, 0.0, -17.25)" gradientUnits="userSpaceOnUse" id="gradient1" spreadMethod="pad" x1="-819.2" x2="819.2">
      <stop offset="0.14901960784313725" stop-color="#203808"/>
      <stop offset="0.47058823529411764" stop-color="#809058"/>
      <stop offset="0.5529411764705883" stop-color="#809058"/>
      <stop offset="0.8666666666666667" stop-color="#203808"/>
    </linearGradient>
    <linearGradient gradientTransform="matrix(0.0056, 0.0, 0.0, 0.0056, 8.05, 13.6)" gradientUnits="userSpaceOnUse" id="gradient2" spreadMethod="pad" x1="-819.2" x2="819.2">
      <stop offset="0.0" stop-color="#404838"/>
      <stop offset="0.3686274509803922" stop-color="#d8d8b8"/>
      <stop offset="0.6352941176470588" stop-color="#d8d8b8"/>
      <stop offset="1.0" stop-color="#404838"/>
    </linearGradient>
    <linearGradient gradientTransform="matrix(0.0056, 0.0, 0.0, 0.0056, -8.1, 13.6)" gradientUnits="userSpaceOnUse" id="gradient3" spreadMethod="pad" x1="-819.2" x2="819.2">
      <stop offset="0.0" stop-color="#404838"/>
      <stop offset="0.3686274509803922" stop-color="#d8d8b8"/>
      <stop offset="0.6352941176470588" stop-color="#d8d8b8"/>
      <stop offset="1.0" stop-color="#404838"/>
    </linearGradient>
  </defs>
</svg>
