<?xml version="1.0" encoding="UTF-8" standalone="no"?>
<svg xmlns:ffdec="https://www.free-decompiler.com/flash" xmlns:xlink="http://www.w3.org/1999/xlink" ffdec:objectType="shape" height="18.0px" width="13.0px" xmlns="http://www.w3.org/2000/svg">
  <g transform="matrix(1.0, 0.0, 0.0, 1.0, 6.5, 9.0)">
    <path d="M5.45 6.45 Q4.15 8.5 0.0 8.5 -4.15 8.5 -5.4 6.45 L5.45 6.45" fill="#506020" fill-rule="evenodd" stroke="none"/>
    <path d="M-5.4 6.45 Q-6.25 5.1 -5.85 2.95 -5.15 -1.25 0.0 -8.5 5.15 -1.25 5.9 2.95 6.25 5.1 5.45 6.45 L-5.4 6.45 M5.9 2.95 L2.1 2.95 5.9 2.95 M2.1 2.95 L2.1 0.9 -2.0 0.9 -2.0 2.95 2.1 2.95 M-5.85 2.95 L-2.0 2.95 -5.85 2.95" fill="url(#gradient0)" fill-rule="evenodd" stroke="none"/>
    <path d="M-2.0 2.95 L-2.0 0.9 2.1 0.9 2.1 2.95 -2.0 2.95" fill="#161f0d" fill-rule="evenodd" stroke="none"/>
    <path d="M5.45 6.45 Q4.15 8.5 0.0 8.5 -4.15 8.5 -5.4 6.45 -6.25 5.1 -5.85 2.95 -5.15 -1.25 0.0 -8.5 5.15 -1.25 5.9 2.95 6.25 5.1 5.45 6.45 L-5.4 6.45 M2.1 2.95 L5.9 2.95 M2.1 2.95 L-2.0 2.95 -5.85 2.95" fill="none" stroke="#203808" stroke-linecap="round" stroke-linejoin="round" stroke-width="1.0"/>
    <path d="M-2.0 2.95 L-2.0 0.9 2.1 0.9 2.1 2.95" fill="none" stroke="#101010" stroke-linecap="round" stroke-linejoin="round" stroke-width="1.0"/>
  </g>
  <defs>
    <radialGradient cx="0" cy="0" gradientTransform="matrix(0.0135, 0.0, 0.0, 0.0133, -0.5, -1.85)" gradientUnits="userSpaceOnUse" id="gradient0" r="819.2" spreadMethod="pad">
      <stop offset="0.07058823529411765" stop-color="#e8f0e8"/>
      <stop offset="0.2549019607843137" stop-color="#b8c8a8"/>
      <stop offset="0.5882352941176471" stop-color="#809058"/>
      <stop offset="0.8352941176470589" stop-color="#384c14"/>
    </radialGradient>
  </defs>
</svg>
