<?xml version="1.0" encoding="UTF-8" standalone="no"?>
<svg xmlns:ffdec="https://www.free-decompiler.com/flash" xmlns:xlink="http://www.w3.org/1999/xlink" ffdec:objectType="shape" height="30.7px" width="26.25px" xmlns="http://www.w3.org/2000/svg">
  <g transform="matrix(1.0, 0.0, 0.0, 1.0, 12.1, 14.2)">
    <path d="M9.65 -7.3 L10.15 -11.2 13.15 -10.8 Q14.2 -7.15 14.15 -3.4 L13.9 12.05 12.65 15.65 11.65 16.15 8.75 16.05 8.5 12.6 5.75 14.6 Q0.8 17.7 -3.5 13.85 L-3.8 16.1 -4.3 16.4 Q-8.05 16.7 -8.5 12.85 -9.2 6.5 -9.05 0.3 -9.0 -4.6 -8.35 -9.4 L-8.0 -10.8 -7.55 -11.1 -5.1 -11.2 -4.65 -7.65 Q-0.3 -12.35 5.9 -9.35 L9.65 -7.3" fill="#000000" fill-opacity="0.5019608" fill-rule="evenodd" stroke="none"/>
    <path d="M7.15 -9.8 L7.65 -13.7 10.65 -13.3 Q11.7 -9.65 11.65 -5.9 L11.4 9.55 10.15 13.15 9.15 13.65 6.25 13.55 6.0 10.1 Q5.95 5.45 6.2 1.05 6.45 -4.35 7.15 -9.8 M-6.0 11.35 L-6.3 13.6 -6.8 13.9 Q-10.55 14.2 -11.0 10.35 -11.7 4.0 -11.55 -2.2 -11.5 -7.1 -10.85 -11.9 L-10.5 -13.3 -10.05 -13.6 -7.6 -13.7 -7.15 -10.15 -6.15 0.6 Q-5.75 6.0 -6.0 11.35" fill="#c07018" fill-rule="evenodd" stroke="none"/>
    <path d="M-7.15 -10.15 Q-2.8 -14.85 3.4 -11.85 5.3 -11.0 7.15 -9.8 6.45 -4.35 6.2 1.05 5.95 5.45 6.0 10.1 L3.25 12.1 Q-1.7 15.2 -6.0 11.35 -5.75 6.0 -6.15 0.6 L-7.15 -10.15" fill="#a2640f" fill-rule="evenodd" stroke="none"/>
    <path d="M-7.15 -10.15 Q-2.8 -14.85 3.4 -11.85 5.3 -11.0 7.15 -9.8 L7.65 -13.7 10.65 -13.3 Q11.7 -9.65 11.65 -5.9 L11.4 9.55 10.15 13.15 9.15 13.65 6.25 13.55 6.0 10.1 3.25 12.1 Q-1.7 15.2 -6.0 11.35 L-6.3 13.6 -6.8 13.9 Q-10.55 14.2 -11.0 10.35 -11.7 4.0 -11.55 -2.2 -11.5 -7.1 -10.85 -11.9 L-10.5 -13.3 -10.05 -13.6 -7.6 -13.7 -7.15 -10.15 -6.15 0.6 Q-5.75 6.0 -6.0 11.35 M7.15 -9.8 Q6.45 -4.35 6.2 1.05 5.95 5.45 6.0 10.1" fill="none" stroke="#000000" stroke-linecap="round" stroke-linejoin="round" stroke-width="1.0"/>
  </g>
</svg>
