<?xml version="1.0" encoding="UTF-8" standalone="no"?>
<svg xmlns:ffdec="https://www.free-decompiler.com/flash" xmlns:xlink="http://www.w3.org/1999/xlink" ffdec:objectType="shape" height="18.3px" width="9.3px" xmlns="http://www.w3.org/2000/svg">
  <g transform="matrix(1.0, 0.0, 0.0, 1.0, 4.65, 9.0)">
    <path d="M2.8 -2.1 L2.55 -1.75 -2.35 -1.95 -3.0 -2.8 Q-3.85 -4.45 -3.6 -6.2 L-3.4 -7.15 -1.8 -8.5 Q4.3 -8.65 3.15 -3.3 L2.8 -2.1" fill="#a09060" fill-rule="evenodd" stroke="none"/>
    <path d="M-3.0 -2.8 L-2.35 -1.95 2.55 -1.75 2.8 -2.1 4.15 0.3 3.9 1.15 3.15 1.3 -2.9 1.0 -4.0 0.15 -4.15 -0.6 -3.0 -2.8" fill="#384048" fill-rule="evenodd" stroke="none"/>
    <path d="M-2.9 1.0 L3.15 1.3 2.05 3.85 -1.6 3.75 Q-2.65 3.05 -2.85 1.65 L-2.9 1.0" fill="#687070" fill-rule="evenodd" stroke="none"/>
    <path d="M2.05 3.85 L2.1 7.4 1.1 8.65 -0.1 8.8 -1.7 7.9 -1.6 3.75 2.05 3.85" fill="#d8e0d8" fill-rule="evenodd" stroke="none"/>
    <path d="M-3.0 -2.8 L-2.35 -1.95 2.55 -1.75 2.8 -2.1 3.15 -3.3 Q4.3 -8.65 -1.8 -8.5 L-3.4 -7.15 -3.6 -6.2 Q-3.85 -4.45 -3.0 -2.8" fill="none" stroke="#000000" stroke-linecap="round" stroke-linejoin="round" stroke-width="1.0"/>
    <path d="M-3.0 -2.8 L-4.15 -0.6 -4.0 0.15 -2.9 1.0 3.15 1.3 3.9 1.15 4.15 0.3 2.8 -2.1 M2.05 3.85 L2.1 7.4 1.1 8.65 -0.1 8.8 -1.7 7.9 -1.6 3.75 Q-2.65 3.05 -2.85 1.65 L-2.9 1.0 M3.15 1.3 L2.05 3.85 -1.6 3.75" fill="none" stroke="#000000" stroke-linecap="round" stroke-linejoin="round" stroke-width="1.0"/>
  </g>
</svg>
