<?xml version="1.0" encoding="UTF-8" standalone="no"?>
<svg xmlns:ffdec="https://www.free-decompiler.com/flash" xmlns:xlink="http://www.w3.org/1999/xlink" ffdec:objectType="shape" height="120.0px" width="75.0px" xmlns="http://www.w3.org/2000/svg">
  <g transform="matrix(1.0, 0.0, 0.0, 1.0, 37.5, 52.45)">
    <path d="M13.45 -49.7 L14.45 -48.9 17.65 -44.75 19.05 -42.95 Q20.15 -41.7 21.6 -40.75 22.0 -40.45 22.55 -40.25 22.85 -40.1 23.25 -39.9 24.6 -39.1 26.8 -39.15 L32.15 -38.9 32.75 -38.75 Q34.35 -38.65 34.6 -37.25 34.8 -35.95 35.4 -35.05 L35.9 -34.1 36.7 -30.8 36.9 -28.3 Q36.9 -25.0 37.3 -21.85 L37.5 -18.1 37.5 6.8 37.35 8.0 Q37.2 8.4 37.2 8.75 36.9 14.75 37.1 20.8 37.2 25.65 36.65 30.25 L36.1 33.5 35.8 34.85 Q35.4 36.1 35.35 37.4 35.2 39.1 34.75 40.1 L34.35 41.2 Q33.45 44.05 31.45 44.75 L29.75 45.1 25.0 44.8 23.75 44.65 Q20.35 43.95 18.7 46.05 18.2 46.7 17.85 47.65 L15.7 52.3 15.2 53.25 Q14.5 54.65 14.55 56.55 L14.5 57.25 13.3 61.15 12.8 62.2 11.75 64.1 Q10.9 65.5 8.9 66.15 L2.8 67.45 0.0 67.5 -2.8 67.45 -8.9 66.15 Q-10.95 65.5 -11.75 64.1 L-12.8 62.2 -13.3 61.15 Q-13.95 59.6 -14.45 57.25 L-14.55 56.55 Q-14.5 54.65 -15.2 53.25 L-15.65 52.3 -17.8 47.65 Q-18.2 46.7 -18.7 46.05 -20.4 43.95 -23.7 44.65 L-24.95 44.8 -29.75 45.1 -31.4 44.75 Q-33.45 44.05 -34.35 41.2 L-34.75 40.1 Q-35.25 39.1 -35.35 37.4 -35.4 36.1 -35.75 34.85 L-36.15 33.5 -36.65 30.25 Q-37.2 25.65 -37.05 20.8 -36.9 14.75 -37.2 8.75 L-37.3 8.0 -37.5 6.8 -37.5 -18.1 -37.25 -21.85 Q-36.9 -25.0 -36.9 -28.3 L-36.65 -30.8 -35.9 -34.1 -35.4 -35.05 Q-34.8 -35.95 -34.55 -37.25 -34.35 -38.65 -32.7 -38.75 L-32.15 -38.9 -26.75 -39.15 Q-24.65 -39.1 -23.25 -39.9 L-22.55 -40.25 Q-22.0 -40.45 -21.55 -40.75 -20.15 -41.7 -19.0 -42.95 -18.25 -43.8 -17.65 -44.75 L-14.4 -48.9 -13.45 -49.7 Q-9.5 -53.25 -2.95 -52.25 L-2.25 -52.15 -1.8 -52.05 0.0 -51.95 1.8 -52.05 2.3 -52.15 3.0 -52.25 Q9.45 -53.25 13.45 -49.7 M32.55 -28.25 L32.55 -28.0 32.55 -28.25 M19.75 30.9 L19.7 30.9 19.7 30.95 19.75 30.9 M-19.7 30.9 L-19.65 30.95 -19.65 30.9 -19.7 30.9 M-32.55 -28.25 L-32.55 -28.0 -32.5 -28.25 -32.55 -28.25 M8.45 42.95 L3.95 42.95 3.95 46.55 8.45 46.55 8.45 42.95" fill="#000000" fill-opacity="0.5019608" fill-rule="evenodd" stroke="none"/>
  </g>
</svg>
