<?xml version="1.0" encoding="UTF-8" standalone="no"?>
<svg xmlns:ffdec="https://www.free-decompiler.com/flash" xmlns:xlink="http://www.w3.org/1999/xlink" ffdec:objectType="shape" height="121.5px" width="76.5px" xmlns="http://www.w3.org/2000/svg">
  <g transform="matrix(1.0, 0.0, 0.0, 1.0, 38.25, 53.2)">
    <path d="M-19.0 -42.95 Q-18.25 -43.8 -17.65 -44.75 L-14.4 -48.9 -13.45 -49.7 Q-9.5 -53.25 -2.95 -52.25 L-2.25 -52.15 -1.8 -52.05 0.0 -51.95 1.8 -52.05 2.3 -52.15 3.0 -52.25 Q9.45 -53.25 13.45 -49.7 L14.45 -48.9 17.65 -44.75 19.05 -42.95 18.8 -40.4 18.6 -39.85 18.0 -37.55 Q17.9 -37.4 17.95 -37.25 L17.7 -34.35 Q17.6 -32.7 18.3 -31.4 19.8 -28.95 23.2 -28.8 L23.5 -28.7 24.1 -28.55 28.3 -28.15 32.55 -28.25 32.55 -28.0 32.6 -27.35 Q32.65 -26.0 33.05 -24.8 L33.3 -22.85 Q33.3 -21.1 33.75 -19.35 L33.8 -19.05 33.95 -12.35 Q33.9 -6.15 34.0 0.1 L33.7 1.45 Q33.45 1.7 33.45 2.0 L33.35 9.7 33.2 16.05 33.15 17.0 32.7 19.8 32.55 20.2 31.85 22.1 31.6 22.5 31.45 22.95 31.05 23.5 30.85 24.0 30.7 24.4 30.55 24.85 29.1 27.2 28.95 27.6 27.4 29.8 22.3 29.9 22.0 29.95 Q20.5 30.2 19.75 30.9 L19.7 30.9 Q19.9 27.6 20.7 25.25 L20.85 24.65 21.1 24.0 22.35 21.45 23.8 18.9 Q25.35 16.35 26.8 14.75 27.5 14.0 27.5 12.9 L27.55 12.25 27.55 6.15 Q27.5 5.2 27.85 4.5 L28.05 3.95 28.1 3.15 28.15 2.65 28.2 -3.1 Q28.2 -5.7 28.6 -8.2 L28.75 -9.15 29.1 -19.75 28.7 -20.85 28.3 -21.0 27.05 -21.15 24.1 -21.35 22.85 -21.1 22.3 -20.85 22.0 -20.65 Q21.45 -20.25 21.45 -19.35 L21.2 -18.0 21.1 -17.45 Q21.15 -16.25 20.6 -15.7 L19.85 -14.95 19.55 -14.6 19.05 -14.2 17.95 -13.95 Q17.4 -14.0 17.2 -14.65 L16.55 -15.55 Q16.1 -15.8 15.8 -16.35 L15.5 -16.6 14.7 -17.25 14.35 -17.55 14.05 -17.9 13.85 -18.35 Q13.75 -18.55 13.8 -18.7 L13.45 -20.05 13.35 -20.65 13.35 -23.85 3.95 -23.85 -3.95 -23.85 -13.35 -23.85 -13.35 -20.65 -13.45 -20.05 -13.75 -18.7 -13.8 -18.35 -14.05 -17.9 -14.4 -17.55 -14.65 -17.25 Q-15.0 -16.95 -15.5 -16.6 L-15.8 -16.35 Q-16.1 -15.8 -16.5 -15.55 L-16.55 -15.55 Q-16.95 -15.3 -17.15 -14.65 -17.4 -14.0 -17.95 -13.95 -18.55 -13.9 -19.0 -14.2 L-19.55 -14.6 -19.85 -14.95 -20.65 -15.7 Q-21.15 -16.25 -21.1 -17.45 L-21.2 -18.0 -21.45 -19.35 Q-21.5 -20.25 -22.0 -20.65 L-22.3 -20.85 -22.8 -21.1 -24.05 -21.35 -27.05 -21.15 -28.25 -21.0 -28.65 -20.85 -29.15 -19.75 -28.7 -9.15 -28.6 -8.2 Q-28.2 -5.7 -28.2 -3.1 L-28.15 2.65 -28.05 3.15 -28.0 3.95 -27.85 4.5 Q-27.5 5.2 -27.55 6.15 L-27.55 12.25 -27.45 12.9 Q-27.5 14.0 -26.75 14.75 -25.35 16.35 -23.8 18.9 L-22.35 21.45 -21.1 24.0 -20.85 24.65 -20.7 25.25 Q-19.95 27.6 -19.65 30.9 L-19.7 30.9 Q-20.5 30.2 -22.0 29.95 L-22.3 29.9 -27.4 29.8 Q-28.5 28.7 -28.9 27.6 L-29.1 27.2 -30.55 24.85 -30.7 24.4 -30.8 24.0 -31.05 23.5 -31.4 22.95 -31.6 22.5 -31.85 22.1 Q-32.4 21.25 -32.55 20.2 L-32.65 19.8 -33.15 17.0 -33.2 16.05 -33.3 9.7 -33.45 2.0 Q-33.45 1.7 -33.7 1.45 -34.0 1.0 -33.95 0.1 L-33.9 -12.35 -33.8 -19.05 -33.75 -19.35 Q-33.35 -21.1 -33.25 -22.85 L-33.05 -24.8 Q-32.7 -26.0 -32.6 -27.35 L-32.55 -28.0 -32.5 -28.25 -28.25 -28.15 -24.05 -28.55 -23.45 -28.7 -23.2 -28.8 Q-19.8 -28.95 -18.3 -31.4 -17.6 -32.7 -17.7 -34.35 L-17.95 -37.25 -18.0 -37.55 -18.6 -39.85 -18.8 -40.4 -19.0 -42.95 M11.2 -31.3 L11.55 -33.4 11.7 -34.0 Q12.0 -34.55 11.95 -35.65 L12.0 -40.75 12.05 -41.05 Q12.1 -43.2 12.45 -45.25 L12.45 -45.45 10.1 -47.1 Q9.75 -47.25 9.65 -47.55 9.4 -48.0 8.9 -48.05 7.65 -48.35 6.2 -49.0 L3.65 -49.0 -3.65 -49.0 -6.2 -49.0 Q-7.65 -48.35 -8.9 -48.05 -9.45 -48.0 -9.65 -47.55 L-10.05 -47.1 -12.45 -45.45 -12.45 -45.25 Q-12.1 -43.2 -12.05 -41.05 L-11.95 -40.75 -11.9 -35.65 Q-12.0 -34.55 -11.7 -34.0 L-11.55 -33.4 -11.2 -31.3 -11.05 -30.85 -11.05 -30.75 Q-11.25 -29.25 -10.5 -28.75 L-10.25 -28.3 -10.05 -28.05 -7.7 -26.95 -7.1 -26.75 -5.9 -26.5 Q-4.95 -26.45 -4.55 -25.85 L-4.1 -25.75 -3.65 -25.75 3.65 -25.75 4.1 -25.75 4.55 -25.85 Q4.95 -26.45 5.9 -26.5 L7.1 -26.75 7.7 -26.95 10.1 -28.05 10.25 -28.3 10.5 -28.75 Q11.25 -29.25 11.05 -30.75 L11.05 -30.85 11.2 -31.3" fill="#908860" fill-rule="evenodd" stroke="none"/>
    <path d="M-11.2 -31.3 L-11.55 -33.4 -11.7 -34.0 Q-12.0 -34.55 -11.9 -35.65 L-11.95 -40.75 -12.05 -41.05 Q-12.1 -43.2 -12.45 -45.25 L-12.45 -45.45 -10.05 -47.1 -9.65 -47.55 Q-9.45 -48.0 -8.9 -48.05 -7.65 -48.35 -6.2 -49.0 L-3.65 -49.0 3.65 -49.0 6.2 -49.0 Q7.65 -48.35 8.9 -48.05 9.4 -48.0 9.65 -47.55 9.75 -47.25 10.1 -47.1 L12.45 -45.45 12.45 -45.25 Q12.1 -43.2 12.05 -41.05 L12.0 -40.75 11.95 -35.65 Q12.0 -34.55 11.7 -34.0 L11.55 -33.4 11.2 -31.3 10.85 -31.35 Q10.2 -32.25 9.85 -33.4 L9.35 -34.6 8.65 -35.25 8.35 -35.3 Q6.5 -35.65 6.6 -33.7 L6.6 -33.1 Q6.45 -31.9 5.9 -31.15 5.55 -30.65 5.05 -30.65 L4.4 -30.65 1.75 -30.55 0.8 -30.35 0.35 -30.2 -0.25 -30.2 -0.8 -30.35 -1.7 -30.55 -4.4 -30.65 -5.0 -30.65 Q-5.55 -30.65 -5.9 -31.15 -6.45 -31.9 -6.65 -33.1 L-6.65 -33.7 Q-6.55 -35.65 -8.4 -35.3 L-8.65 -35.25 -9.35 -34.6 -9.85 -33.4 Q-10.2 -32.25 -10.85 -31.35 L-11.2 -31.3" fill="#c8b890" fill-rule="evenodd" stroke="none"/>
    <path d="M19.05 -42.95 Q20.15 -41.7 21.6 -40.75 22.0 -40.45 22.55 -40.25 22.85 -40.1 23.25 -39.9 24.6 -39.1 26.8 -39.15 L32.15 -38.9 32.75 -38.75 Q34.35 -38.65 34.6 -37.25 34.8 -35.95 35.4 -35.05 L35.9 -34.1 36.7 -30.8 36.9 -28.3 32.55 -28.25 28.3 -28.15 24.1 -28.55 23.5 -28.7 23.2 -28.8 Q19.8 -28.95 18.3 -31.4 17.6 -32.7 17.7 -34.35 L17.95 -37.25 Q17.9 -37.4 18.0 -37.55 L18.6 -39.85 18.8 -40.4 19.05 -42.95 M-36.9 -28.3 L-36.65 -30.8 -35.9 -34.1 -35.4 -35.05 Q-34.8 -35.95 -34.55 -37.25 -34.35 -38.65 -32.7 -38.75 L-32.15 -38.9 -26.75 -39.15 Q-24.65 -39.1 -23.25 -39.9 L-22.55 -40.25 Q-22.0 -40.45 -21.55 -40.75 -20.15 -41.7 -19.0 -42.95 L-18.8 -40.4 -18.6 -39.85 -18.0 -37.55 -17.95 -37.25 -17.7 -34.35 Q-17.6 -32.7 -18.3 -31.4 -19.8 -28.95 -23.2 -28.8 L-23.45 -28.7 -24.05 -28.55 -28.25 -28.15 -32.5 -28.25 -32.55 -28.25 -36.9 -28.3 M18.45 -2.75 L18.45 -11.85 26.9 -11.85 26.9 -2.75 18.45 -2.75 M-9.4 56.6 L-2.25 56.6 -2.25 61.7 -9.4 61.7 -9.4 56.6 M9.45 56.6 L9.45 61.7 2.3 61.7 2.3 56.6 9.45 56.6" fill="#303840" fill-rule="evenodd" stroke="none"/>
    <path d="M-28.05 3.15 L-28.15 2.65 -28.2 -3.1 Q-28.2 -5.7 -28.6 -8.2 L-28.7 -9.15 -29.15 -19.75 -28.65 -20.85 -28.25 -21.0 -27.05 -21.15 -24.05 -21.35 -22.8 -21.1 -22.3 -20.85 -22.0 -20.65 Q-21.5 -20.25 -21.45 -19.35 L-21.2 -18.0 -21.1 -17.45 Q-21.15 -16.25 -20.65 -15.7 L-19.85 -14.95 -19.55 -14.6 -19.0 -14.2 Q-18.55 -13.9 -17.95 -13.95 -17.4 -14.0 -17.15 -14.65 -16.95 -15.3 -16.55 -15.55 L-16.5 -15.55 Q-16.1 -15.8 -15.8 -16.35 L-15.5 -16.6 Q-15.0 -16.95 -14.65 -17.25 L-14.4 -17.55 -14.05 -17.9 -13.8 -18.35 -13.75 -18.7 -13.45 -20.05 -13.35 -20.65 -13.35 -23.85 -3.95 -23.85 3.95 -23.85 13.35 -23.85 13.35 -20.65 13.45 -20.05 13.8 -18.7 Q13.75 -18.55 13.85 -18.35 L14.05 -17.9 14.35 -17.55 14.7 -17.25 15.5 -16.6 15.8 -16.35 Q16.1 -15.8 16.55 -15.55 L17.2 -14.65 Q17.4 -14.0 17.95 -13.95 L19.05 -14.2 19.55 -14.6 19.85 -14.95 20.6 -15.7 Q21.15 -16.25 21.1 -17.45 L21.2 -18.0 21.45 -19.35 Q21.45 -20.25 22.0 -20.65 L22.3 -20.85 22.85 -21.1 24.1 -21.35 27.05 -21.15 28.3 -21.0 28.7 -20.85 29.1 -19.75 28.75 -9.15 28.6 -8.2 Q28.2 -5.7 28.2 -3.1 L28.15 2.65 28.1 3.15 16.65 3.3 16.35 3.3 16.45 6.15 16.35 12.25 16.2 18.25 16.15 18.6 15.85 19.95 15.7 20.5 15.2 23.7 15.05 24.35 Q13.65 24.85 12.95 25.5 L12.45 25.6 8.6 25.8 7.1 25.95 1.1 26.05 0.25 26.1 0.0 26.15 -0.2 26.1 -1.15 26.05 -7.1 25.95 -8.55 25.8 -12.45 25.6 -12.95 25.5 Q-13.65 24.85 -15.05 24.35 L-15.2 23.7 -15.65 20.5 -15.85 19.95 -16.15 18.6 -16.2 18.25 -16.3 12.25 -16.45 6.15 Q-16.55 4.6 -16.3 3.3 L-16.65 3.3 -28.05 3.15 M10.2 -19.35 Q8.8 -20.85 6.8 -20.85 4.8 -20.85 3.4 -19.35 2.0 -17.9 2.0 -15.75 2.0 -13.65 3.4 -12.15 4.8 -10.65 6.8 -10.65 8.8 -10.65 10.2 -12.15 11.55 -13.65 11.55 -15.75 11.55 -17.9 10.2 -19.35 M3.4 -3.4 Q2.0 -1.95 2.0 0.2 2.0 2.35 3.4 3.8 4.8 5.3 6.8 5.3 8.8 5.3 10.2 3.8 11.55 2.35 11.55 0.2 11.55 -1.95 10.2 -3.4 8.8 -4.9 6.8 -4.9 4.8 -4.9 3.4 -3.4 M18.45 -2.75 L26.9 -2.75 26.9 -11.85 18.45 -11.85 18.45 -2.75 M-26.9 -11.85 L-26.9 -2.75 -18.4 -2.75 -18.4 -11.85 -26.9 -11.85 M-3.4 -3.4 Q-4.8 -4.9 -6.75 -4.9 -8.8 -4.9 -10.15 -3.4 -11.55 -1.95 -11.55 0.2 -11.55 2.35 -10.15 3.8 -8.8 5.3 -6.75 5.3 -4.8 5.3 -3.4 3.8 -2.0 2.35 -2.0 0.2 -2.0 -1.95 -3.4 -3.4 M-3.4 -19.35 Q-4.8 -20.85 -6.75 -20.85 -8.8 -20.85 -10.15 -19.35 -11.55 -17.9 -11.55 -15.75 -11.55 -13.65 -10.15 -12.15 -8.8 -10.65 -6.75 -10.65 -4.8 -10.65 -3.4 -12.15 -2.0 -13.65 -2.0 -15.75 -2.0 -17.9 -3.4 -19.35 M-11.55 16.15 Q-11.55 18.25 -10.15 19.75 -8.8 21.2 -6.75 21.25 -4.8 21.2 -3.4 19.75 -2.0 18.25 -2.0 16.15 -2.0 14.0 -3.4 12.55 -4.8 11.05 -6.75 11.05 -8.8 11.05 -10.15 12.55 -11.55 14.0 -11.55 16.15 M3.4 19.75 Q4.8 21.2 6.8 21.25 8.8 21.2 10.2 19.75 11.55 18.25 11.55 16.15 11.55 14.0 10.2 12.55 8.8 11.05 6.8 11.05 4.8 11.05 3.4 12.55 2.0 14.0 2.0 16.15 2.0 18.25 3.4 19.75" fill="#a8a888" fill-rule="evenodd" stroke="none"/>
    <path d="M36.9 -28.3 Q36.9 -25.0 37.3 -21.85 L37.5 -18.1 37.5 6.8 37.35 8.0 Q37.2 8.4 37.2 8.75 36.9 14.75 37.1 20.8 37.2 25.65 36.65 30.25 L34.55 29.9 33.35 29.75 27.4 29.8 28.95 27.6 29.1 27.2 30.55 24.85 30.7 24.4 30.85 24.0 31.05 23.5 31.45 22.95 31.6 22.5 31.85 22.1 32.55 20.2 32.7 19.8 33.15 17.0 33.2 16.05 33.35 9.7 33.45 2.0 Q33.45 1.7 33.7 1.45 L34.0 0.1 Q33.9 -6.15 33.95 -12.35 L33.8 -19.05 33.75 -19.35 Q33.3 -21.1 33.3 -22.85 L33.05 -24.8 Q32.65 -26.0 32.6 -27.35 L32.55 -28.0 32.55 -28.25 36.9 -28.3 M-36.65 30.25 Q-37.2 25.65 -37.05 20.8 -36.9 14.75 -37.2 8.75 L-37.3 8.0 -37.5 6.8 -37.5 -18.1 -37.25 -21.85 Q-36.9 -25.0 -36.9 -28.3 L-32.55 -28.25 -32.55 -28.0 -32.6 -27.35 Q-32.7 -26.0 -33.05 -24.8 L-33.25 -22.85 Q-33.35 -21.1 -33.75 -19.35 L-33.8 -19.05 -33.9 -12.35 -33.95 0.1 Q-34.0 1.0 -33.7 1.45 -33.45 1.7 -33.45 2.0 L-33.3 9.7 -33.2 16.05 -33.15 17.0 -32.65 19.8 -32.55 20.2 Q-32.4 21.25 -31.85 22.1 L-31.6 22.5 -31.4 22.95 -31.05 23.5 -30.8 24.0 -30.7 24.4 -30.55 24.85 -29.1 27.2 -28.9 27.6 Q-28.5 28.7 -27.4 29.8 L-33.3 29.75 -34.5 29.9 -36.65 30.25" fill="#504828" fill-rule="evenodd" stroke="none"/>
    <path d="M11.05 -30.75 Q11.25 -29.25 10.5 -28.75 L10.25 -28.3 10.1 -28.05 7.7 -26.95 7.1 -26.75 5.9 -26.5 Q4.95 -26.45 4.55 -25.85 L4.1 -25.75 3.65 -25.75 -3.65 -25.75 -4.1 -25.75 -4.55 -25.85 Q-4.95 -26.45 -5.9 -26.5 L-7.1 -26.75 -7.7 -26.95 -10.05 -28.05 -10.25 -28.3 -10.5 -28.75 Q-11.25 -29.25 -11.05 -30.75 L-11.05 -30.85 -10.85 -31.35 Q-10.2 -32.25 -9.85 -33.4 L-9.35 -34.6 -8.65 -35.25 -8.4 -35.3 Q-6.55 -35.65 -6.65 -33.7 L-6.65 -33.1 Q-6.45 -31.9 -5.9 -31.15 -5.55 -30.65 -5.0 -30.65 L-4.4 -30.65 -1.7 -30.55 -0.8 -30.35 -0.25 -30.2 0.35 -30.2 0.8 -30.35 1.75 -30.55 4.4 -30.65 5.05 -30.65 Q5.55 -30.65 5.9 -31.15 6.45 -31.9 6.6 -33.1 L6.6 -33.7 Q6.5 -35.65 8.35 -35.3 L8.65 -35.25 9.35 -34.6 9.85 -33.4 Q10.2 -32.25 10.85 -31.35 L11.05 -30.85 11.05 -30.75" fill="#686870" fill-rule="evenodd" stroke="none"/>
    <path d="M3.4 -3.4 Q4.8 -4.9 6.8 -4.9 8.8 -4.9 10.2 -3.4 11.55 -1.95 11.55 0.2 11.55 2.35 10.2 3.8 8.8 5.3 6.8 5.3 4.8 5.3 3.4 3.8 2.0 2.35 2.0 0.2 2.0 -1.95 3.4 -3.4 M10.2 -19.35 Q11.55 -17.9 11.55 -15.75 11.55 -13.65 10.2 -12.15 8.8 -10.65 6.8 -10.65 4.8 -10.65 3.4 -12.15 2.0 -13.65 2.0 -15.75 2.0 -17.9 3.4 -19.35 4.8 -20.85 6.8 -20.85 8.8 -20.85 10.2 -19.35 M-3.4 -19.35 Q-2.0 -17.9 -2.0 -15.75 -2.0 -13.65 -3.4 -12.15 -4.8 -10.65 -6.75 -10.65 -8.8 -10.65 -10.15 -12.15 -11.55 -13.65 -11.55 -15.75 -11.55 -17.9 -10.15 -19.35 -8.8 -20.85 -6.75 -20.85 -4.8 -20.85 -3.4 -19.35 M-3.4 -3.4 Q-2.0 -1.95 -2.0 0.2 -2.0 2.35 -3.4 3.8 -4.8 5.3 -6.75 5.3 -8.8 5.3 -10.15 3.8 -11.55 2.35 -11.55 0.2 -11.55 -1.95 -10.15 -3.4 -8.8 -4.9 -6.75 -4.9 -4.8 -4.9 -3.4 -3.4 M-11.55 16.15 Q-11.55 14.0 -10.15 12.55 -8.8 11.05 -6.75 11.05 -4.8 11.05 -3.4 12.55 -2.0 14.0 -2.0 16.15 -2.0 18.25 -3.4 19.75 -4.8 21.2 -6.75 21.25 -8.8 21.2 -10.15 19.75 -11.55 18.25 -11.55 16.15 M3.4 19.75 Q2.0 18.25 2.0 16.15 2.0 14.0 3.4 12.55 4.8 11.05 6.8 11.05 8.8 11.05 10.2 12.55 11.55 14.0 11.55 16.15 11.55 18.25 10.2 19.75 8.8 21.2 6.8 21.25 4.8 21.2 3.4 19.75 M3.2 42.2 L9.2 42.2 9.2 47.3 3.2 47.3 3.2 42.2" fill="#bebea7" fill-rule="evenodd" stroke="none"/>
    <path d="M36.65 30.25 L36.1 33.5 35.8 34.85 Q35.4 36.1 35.35 37.4 35.2 39.1 34.75 40.1 L34.35 41.2 Q33.45 44.05 31.45 44.75 L29.75 45.1 25.0 44.8 23.75 44.65 Q20.35 43.95 18.7 46.05 L18.7 44.1 Q18.7 43.45 18.85 42.85 L19.05 40.6 19.15 37.1 19.2 36.45 19.45 32.95 19.55 31.35 19.7 30.95 19.75 30.9 Q20.5 30.2 22.0 29.95 L22.3 29.9 27.4 29.8 33.35 29.75 34.55 29.9 36.65 30.25 M-18.7 46.05 Q-20.4 43.95 -23.7 44.65 L-24.95 44.8 -29.75 45.1 -31.4 44.75 Q-33.45 44.05 -34.35 41.2 L-34.75 40.1 Q-35.25 39.1 -35.35 37.4 -35.4 36.1 -35.75 34.85 L-36.15 33.5 -36.65 30.25 -34.5 29.9 -33.3 29.75 -27.4 29.8 -22.3 29.9 -22.0 29.95 Q-20.5 30.2 -19.7 30.9 L-19.65 30.95 -19.55 31.35 -19.45 32.95 -19.2 36.45 -19.15 37.1 -19.0 40.6 -18.85 42.85 -18.7 44.1 -18.7 46.05" fill="#1d2125" fill-rule="evenodd" stroke="none"/>
    <path d="M-26.9 -11.85 L-18.4 -11.85 -18.4 -2.75 -26.9 -2.75 -26.9 -11.85" fill="#f8d000" fill-rule="evenodd" stroke="none"/>
    <path d="M-3.8 35.8 L-3.8 51.8 -8.9 51.8 -8.9 35.8 -3.8 35.8" fill="#7038c0" fill-rule="evenodd" stroke="none"/>
    <path d="M18.7 46.05 Q18.2 46.7 17.85 47.65 L15.7 52.3 15.2 53.25 Q14.5 54.65 14.55 56.55 L14.5 57.25 13.3 61.15 12.8 62.2 11.75 64.1 Q10.9 65.5 8.9 66.15 L2.8 67.45 0.0 67.5 -2.8 67.45 -8.9 66.15 Q-10.95 65.5 -11.75 64.1 L-12.8 62.2 -13.3 61.15 Q-13.95 59.6 -14.45 57.25 L-14.55 56.55 Q-14.5 54.65 -15.2 53.25 L-15.65 52.3 -17.8 47.65 Q-18.2 46.7 -18.7 46.05 L-18.7 44.1 -18.85 42.85 -19.0 40.6 -19.15 37.1 -19.2 36.45 -19.45 32.95 -19.55 31.35 -19.65 30.95 -19.65 30.9 Q-19.95 27.6 -20.7 25.25 L-20.85 24.65 -21.1 24.0 -22.35 21.45 -23.8 18.9 Q-25.35 16.35 -26.75 14.75 -27.5 14.0 -27.45 12.9 L-27.55 12.25 -27.55 6.15 Q-27.5 5.2 -27.85 4.5 L-28.0 3.95 -28.05 3.15 -16.65 3.3 -16.3 3.3 Q-16.55 4.6 -16.45 6.15 L-16.3 12.25 -16.2 18.25 -16.15 18.6 -15.85 19.95 -15.65 20.5 -15.2 23.7 -15.05 24.35 Q-13.65 24.85 -12.95 25.5 L-12.45 25.6 -8.55 25.8 -7.1 25.95 -1.15 26.05 -0.2 26.1 0.0 26.15 0.25 26.1 1.1 26.05 7.1 25.95 8.6 25.8 12.45 25.6 12.95 25.5 Q13.65 24.85 15.05 24.35 L15.2 23.7 15.7 20.5 15.85 19.95 16.15 18.6 16.2 18.25 16.35 12.25 16.45 6.15 16.35 3.3 16.65 3.3 28.1 3.15 28.05 3.95 27.85 4.5 Q27.5 5.2 27.55 6.15 L27.55 12.25 27.5 12.9 Q27.5 14.0 26.8 14.75 25.35 16.35 23.8 18.9 L22.35 21.45 21.1 24.0 20.85 24.65 20.7 25.25 Q19.9 27.6 19.7 30.9 L19.7 30.95 19.55 31.35 19.45 32.95 19.2 36.45 19.15 37.1 19.05 40.6 18.85 42.85 Q18.7 43.45 18.7 44.1 L18.7 46.05 M-3.8 35.8 L-8.9 35.8 -8.9 51.8 -3.8 51.8 -3.8 35.8 M-9.4 56.6 L-9.4 61.7 -2.25 61.7 -2.25 56.6 -9.4 56.6 M3.2 42.2 L3.2 47.3 9.2 47.3 9.2 42.2 3.2 42.2 M9.45 56.6 L2.3 56.6 2.3 61.7 9.45 61.7 9.45 56.6" fill="url(#gradient0)" fill-rule="evenodd" stroke="none"/>
    <path d="M-19.0 -42.95 Q-18.25 -43.8 -17.65 -44.75 L-14.4 -48.9 -13.45 -49.7 Q-9.5 -53.25 -2.95 -52.25 L-2.25 -52.15 -1.8 -52.05 0.0 -51.95 1.8 -52.05 2.3 -52.15 3.0 -52.25 Q9.45 -53.25 13.45 -49.7 L14.45 -48.9 17.65 -44.75 19.05 -42.95 Q20.15 -41.7 21.6 -40.75 22.0 -40.45 22.55 -40.25 22.85 -40.1 23.25 -39.9 24.6 -39.1 26.8 -39.15 L32.15 -38.9 32.75 -38.75 Q34.35 -38.65 34.6 -37.25 34.8 -35.95 35.4 -35.05 L35.9 -34.1 36.7 -30.8 36.9 -28.3 Q36.9 -25.0 37.3 -21.85 L37.5 -18.1 37.5 6.8 37.35 8.0 Q37.2 8.4 37.2 8.75 36.9 14.75 37.1 20.8 37.2 25.65 36.65 30.25 L36.1 33.5 35.8 34.85 Q35.4 36.1 35.35 37.4 35.2 39.1 34.75 40.1 L34.35 41.2 Q33.45 44.05 31.45 44.75 L29.75 45.1 25.0 44.8 23.75 44.65 Q20.35 43.95 18.7 46.05 18.2 46.7 17.85 47.65 L15.7 52.3 15.2 53.25 Q14.5 54.65 14.55 56.55 L14.5 57.25 13.3 61.15 12.8 62.2 11.75 64.1 Q10.9 65.5 8.9 66.15 L2.8 67.45 0.0 67.5 -2.8 67.45 -8.9 66.15 Q-10.95 65.5 -11.75 64.1 L-12.8 62.2 -13.3 61.15 Q-13.95 59.6 -14.45 57.25 L-14.55 56.55 Q-14.5 54.65 -15.2 53.25 L-15.65 52.3 -17.8 47.65 Q-18.2 46.7 -18.7 46.05 -20.4 43.95 -23.7 44.65 L-24.95 44.8 -29.75 45.1 -31.4 44.75 Q-33.45 44.05 -34.35 41.2 L-34.75 40.1 Q-35.25 39.1 -35.35 37.4 -35.4 36.1 -35.75 34.85 L-36.15 33.5 -36.65 30.25 Q-37.2 25.65 -37.05 20.8 -36.9 14.75 -37.2 8.75 L-37.3 8.0 -37.5 6.8 -37.5 -18.1 -37.25 -21.85 Q-36.9 -25.0 -36.9 -28.3 L-36.65 -30.8 -35.9 -34.1 -35.4 -35.05 Q-34.8 -35.95 -34.55 -37.25 -34.35 -38.65 -32.7 -38.75 L-32.15 -38.9 -26.75 -39.15 Q-24.65 -39.1 -23.25 -39.9 L-22.55 -40.25 Q-22.0 -40.45 -21.55 -40.75 -20.15 -41.7 -19.0 -42.95 M-9.4 56.6 L-2.25 56.6 -2.25 61.7 -9.4 61.7 -9.4 56.6 M3.2 42.2 L9.2 42.2 9.2 47.3 3.2 47.3 3.2 42.2 M9.45 56.6 L2.3 56.6 2.3 61.7 9.45 61.7 9.45 56.6" fill="none" stroke="#101010" stroke-linecap="round" stroke-linejoin="round" stroke-width="1.5"/>
    <path d="M-3.8 35.8 L-3.8 51.8 -8.9 51.8 -8.9 35.8 -3.8 35.8" fill="none" stroke="#101010" stroke-linecap="round" stroke-linejoin="round" stroke-width="1.5"/>
    <path d="M-11.2 -31.3 L-11.55 -33.4 -11.7 -34.0 Q-12.0 -34.55 -11.9 -35.65 L-11.95 -40.75 -12.05 -41.05 Q-12.1 -43.2 -12.45 -45.25 L-12.45 -45.45 -10.05 -47.1 -9.65 -47.55 Q-9.45 -48.0 -8.9 -48.05 -7.65 -48.35 -6.2 -49.0 L-3.65 -49.0 3.65 -49.0 6.2 -49.0 Q7.65 -48.35 8.9 -48.05 9.4 -48.0 9.65 -47.55 9.75 -47.25 10.1 -47.1 L12.45 -45.45 12.45 -45.25 Q12.1 -43.2 12.05 -41.05 L12.0 -40.75 11.95 -35.65 Q12.0 -34.55 11.7 -34.0 L11.55 -33.4 11.2 -31.3 11.05 -30.85 11.05 -30.75 Q11.25 -29.25 10.5 -28.75 L10.25 -28.3 10.1 -28.05 7.7 -26.95 7.1 -26.75 5.9 -26.5 Q4.95 -26.45 4.55 -25.85 L4.1 -25.75 3.65 -25.75 -3.65 -25.75 -4.1 -25.75 -4.55 -25.85 Q-4.95 -26.45 -5.9 -26.5 L-7.1 -26.75 -7.7 -26.95 -10.05 -28.05 -10.25 -28.3 -10.5 -28.75 Q-11.25 -29.25 -11.05 -30.75 L-11.05 -30.85 -11.2 -31.3 M-10.85 -31.35 Q-10.2 -32.25 -9.85 -33.4 L-9.35 -34.6 -8.65 -35.25 -8.4 -35.3 Q-6.55 -35.65 -6.65 -33.7 L-6.65 -33.1 Q-6.45 -31.9 -5.9 -31.15 -5.55 -30.65 -5.0 -30.65 L-4.4 -30.65 -1.7 -30.55 -0.8 -30.35 -0.25 -30.2 0.35 -30.2 0.8 -30.35 1.75 -30.55 4.4 -30.65 5.05 -30.65 Q5.55 -30.65 5.9 -31.15 6.45 -31.9 6.6 -33.1 L6.6 -33.7 Q6.5 -35.65 8.35 -35.3 L8.65 -35.25 9.35 -34.6 9.85 -33.4 Q10.2 -32.25 10.85 -31.35 L11.05 -30.85 11.05 -30.75 M10.2 -19.35 Q8.8 -20.85 6.8 -20.85 4.8 -20.85 3.4 -19.35 2.0 -17.9 2.0 -15.75 2.0 -13.65 3.4 -12.15 4.8 -10.65 6.8 -10.65 8.8 -10.65 10.2 -12.15 11.55 -13.65 11.55 -15.75 11.55 -17.9 10.2 -19.35 M3.4 -3.4 Q2.0 -1.95 2.0 0.2 2.0 2.35 3.4 3.8 4.8 5.3 6.8 5.3 8.8 5.3 10.2 3.8 11.55 2.35 11.55 0.2 11.55 -1.95 10.2 -3.4 8.8 -4.9 6.8 -4.9 4.8 -4.9 3.4 -3.4 M18.45 -2.75 L26.9 -2.75 26.9 -11.85 18.45 -11.85 18.45 -2.75 M-10.85 -31.35 L-11.05 -30.85 -11.05 -30.75 M-26.9 -11.85 L-18.4 -11.85 -18.4 -2.75 -26.9 -2.75 -26.9 -11.85 M-3.4 -19.35 Q-2.0 -17.9 -2.0 -15.75 -2.0 -13.65 -3.4 -12.15 -4.8 -10.65 -6.75 -10.65 -8.8 -10.65 -10.15 -12.15 -11.55 -13.65 -11.55 -15.75 -11.55 -17.9 -10.15 -19.35 -8.8 -20.85 -6.75 -20.85 -4.8 -20.85 -3.4 -19.35 M-3.4 -3.4 Q-2.0 -1.95 -2.0 0.2 -2.0 2.35 -3.4 3.8 -4.8 5.3 -6.75 5.3 -8.8 5.3 -10.15 3.8 -11.55 2.35 -11.55 0.2 -11.55 -1.95 -10.15 -3.4 -8.8 -4.9 -6.75 -4.9 -4.8 -4.9 -3.4 -3.4 M-11.55 16.15 Q-11.55 14.0 -10.15 12.55 -8.8 11.05 -6.75 11.05 -4.8 11.05 -3.4 12.55 -2.0 14.0 -2.0 16.15 -2.0 18.25 -3.4 19.75 -4.8 21.2 -6.75 21.25 -8.8 21.2 -10.15 19.75 -11.55 18.25 -11.55 16.15 M3.4 19.75 Q4.8 21.2 6.8 21.25 8.8 21.2 10.2 19.75 11.55 18.25 11.55 16.15 11.55 14.0 10.2 12.55 8.8 11.05 6.8 11.05 4.8 11.05 3.4 12.55 2.0 14.0 2.0 16.15 2.0 18.25 3.4 19.75 Z" fill="none" stroke="#371c00" stroke-linecap="round" stroke-linejoin="round" stroke-width="1.5"/>
  </g>
  <defs>
    <linearGradient gradientTransform="matrix(0.0, 0.0393, -0.0343, 0.0, 0.0, 35.3)" gradientUnits="userSpaceOnUse" id="gradient0" spreadMethod="pad" x1="-819.2" x2="819.2">
      <stop offset="0.1803921568627451" stop-color="#a8a888"/>
      <stop offset="0.5215686274509804" stop-color="#706840"/>
      <stop offset="0.7333333333333333" stop-color="#504828"/>
      <stop offset="1.0" stop-color="#101010"/>
    </linearGradient>
  </defs>
</svg>
