<?xml version="1.0" encoding="UTF-8" standalone="no"?>
<svg xmlns:ffdec="https://www.free-decompiler.com/flash" xmlns:xlink="http://www.w3.org/1999/xlink" ffdec:objectType="shape" height="80.0px" width="80.0px" xmlns="http://www.w3.org/2000/svg">
  <g transform="matrix(1.0, 0.0, 0.0, 1.0, 40.0, 40.05)">
    <path d="M21.6 -29.9 L26.65 -25.6 Q27.0 -25.45 26.4 -25.45 26.15 -24.4 26.8 -24.25 L27.2 -24.2 24.8 -23.4 24.55 -23.5 Q20.4 -27.1 21.6 -23.4 L21.6 -20.95 20.0 -22.15 19.6 -22.2 Q18.95 -22.35 19.2 -23.4 L19.2 -24.2 19.4 -24.25 Q20.6 -28.1 17.6 -29.9 L20.0 -30.75 Q20.85 -31.0 20.8 -30.35 L20.8 -29.9 Q20.75 -26.4 24.4 -26.65 L21.6 -29.9 M8.8 -26.65 Q9.85 -26.95 9.65 -25.85 L9.6 -25.45 10.4 -23.4 8.8 -22.15 8.85 -22.55 Q9.05 -23.65 8.0 -23.4 L8.0 -24.2 8.8 -26.65 M6.4 15.05 L5.6 17.05 5.6 18.3 4.0 18.3 4.0 17.05 3.95 16.65 Q3.7 15.3 1.6 15.85 L1.6 15.05 1.6 13.8 2.4 13.8 6.4 15.05" fill="#242a38" fill-rule="evenodd" stroke="none"/>
    <path d="M26.4 -25.45 Q27.0 -25.45 26.65 -25.6 L21.6 -29.9 Q29.2 -30.7 33.9 -12.55 L35.2 -7.05 29.6 -23.4 28.3 -23.8 26.4 -25.45" fill="#2a3442" fill-rule="evenodd" stroke="none"/>
    <path d="M20.8 -29.9 L20.8 -30.35 Q20.85 -31.0 20.0 -30.75 L17.6 -34.0 21.6 -29.9 20.8 -29.9 M-16.8 33.4 L-20.8 32.2 -22.4 30.15 -22.4 28.95 Q-21.55 29.15 -21.6 28.5 L-21.6 28.1 -20.8 25.65 Q-18.5 25.55 -17.8 23.65 L-17.6 23.6 -17.6 24.85 -17.6 25.65 Q-21.2 31.1 -17.85 29.05 L-17.6 28.95 -16.8 28.95 -16.0 31.4 -16.8 33.4" fill="#293240" fill-rule="evenodd" stroke="none"/>
    <path d="M21.6 -29.9 L24.4 -26.65 Q20.75 -26.4 20.8 -29.9 L21.6 -29.9 M-2.4 -39.65 Q-3.05 -36.8 -0.4 -37.25 L0.0 -37.3 0.0 -38.5 3.2 -38.5 4.0 -36.45 3.2 -36.45 0.0 -37.3 0.0 -36.85 Q0.05 -36.2 -0.8 -36.45 L-1.6 -36.45 -3.2 -36.45 -7.2 -37.3 -7.6 -37.3 Q-8.35 -37.3 -8.0 -36.45 L-18.4 -35.25 Q-9.65 -41.3 -2.85 -39.75 L-2.4 -39.65 M8.95 -33.05 L8.8 -33.2 16.0 -34.0 13.6 -30.75 13.6 -29.9 12.0 -29.9 8.95 -33.05 M6.4 -29.9 L6.35 -29.5 Q6.05 -28.05 4.8 -27.45 L4.0 -28.7 6.4 -29.9 M10.4 -23.4 L9.6 -25.45 12.0 -26.65 12.8 -24.2 12.4 -24.2 Q11.8 -24.25 12.0 -23.4 L10.4 -23.4 M11.2 -20.1 L12.8 -17.65 12.8 -16.85 12.8 -15.6 10.4 -17.65 7.2 -18.9 Q7.2 -19.75 7.7 -20.3 8.15 -20.95 8.8 -20.95 8.55 -20.1 9.2 -20.1 L9.6 -20.1 11.2 -20.1 M6.4 -20.95 L6.4 -20.1 6.0 -20.1 Q3.4 -20.35 2.4 -22.15 L2.4 -23.4 4.0 -23.4 Q4.1 -21.25 6.0 -21.0 L6.4 -20.95 M-6.4 -0.5 Q-7.95 -0.4 -6.7 0.5 L-6.4 0.75 -6.35 1.15 Q-6.15 2.2 -7.2 1.95 L-8.0 1.95 -8.0 -1.3 -6.4 -1.3 -6.4 -0.5 M8.8 -0.5 L8.8 -1.3 12.8 -3.75 13.6 -3.75 13.6 -2.55 10.4 -0.5 8.8 -0.5 M13.6 32.2 L11.2 35.45 12.8 32.2 Q12.8 30.8 13.3 29.9 13.75 28.9 14.4 28.95 L13.6 32.2 M-24.8 -33.2 L-24.0 -33.2 -23.2 -33.2 -24.8 -29.9 -23.2 -26.65 -23.2 -25.45 -25.6 -25.45 -25.6 -26.65 -24.8 -29.9 -24.8 -33.2 M36.8 -0.5 L37.6 -0.5 38.4 0.75 38.4 1.95 36.8 5.2 36.8 -0.5 M25.6 2.75 L25.6 5.2 Q24.0 4.65 24.0 5.65 L24.0 6.05 Q22.05 4.6 21.65 6.9 L21.6 7.25 20.0 9.3 20.0 6.05 20.8 4.0 24.0 2.75 25.6 2.75 M26.4 12.6 L27.2 12.6 28.0 12.6 27.2 15.05 27.2 15.85 25.6 15.85 26.4 12.6 M24.0 17.05 L24.0 19.1 22.4 20.35 23.75 17.1 24.0 17.05 M-16.8 -35.2 Q-10.5 -35.0 -11.55 -34.1 -12.7 -33.25 -14.3 -33.2 L-14.4 -33.2 -16.0 -33.2 -17.6 -33.2 -16.8 -35.2 M-29.6 -23.4 L-28.8 -20.95 -29.2 -20.9 Q-31.35 -20.4 -31.2 -22.15 L-29.6 -23.4 M-28.0 -13.6 L-28.0 -14.4 -27.2 -16.85 -26.4 -16.85 -26.4 -14.4 -26.4 -14.0 Q-26.35 -13.35 -27.2 -13.6 L-28.0 -13.6 M-17.6 -13.6 L-18.4 -15.6 -18.4 -16.85 -16.8 -16.85 -16.8 -13.6 -17.6 -13.6 M-25.6 -9.1 Q-23.55 -9.55 -23.95 -7.45 L-24.0 -7.05 -24.8 -7.05 -25.6 -7.05 -25.6 -9.1 M-26.4 -0.5 L-27.2 -2.55 Q-25.45 -2.7 -25.0 -1.35 L-24.8 -1.3 -24.8 -0.5 -25.6 -0.5 -26.4 -0.5 M-12.8 20.35 L-12.8 15.85 Q-11.75 15.55 -11.95 16.65 L-12.0 17.05 -12.0 19.1 -11.95 19.55 Q-11.75 20.6 -12.8 20.35 M-32.8 22.4 L-32.8 21.55 Q-31.2 19.4 -29.7 21.25 L-29.6 21.55 -30.0 21.55 Q-30.6 21.5 -30.4 22.4 L-32.8 22.4 M-24.8 24.85 L-24.0 24.85 -23.2 28.95 -25.6 28.95 -25.6 25.65 Q-24.75 25.9 -24.8 25.25 L-24.8 24.85 M-12.8 34.65 L-15.2 34.65 -14.4 30.15 -12.8 34.65 M-16.8 28.95 L-17.6 28.95 -17.6 25.65 -17.6 24.85 -16.0 25.65 -16.8 28.95" fill="#101010" fill-rule="evenodd" stroke="none"/>
    <path d="M0.0 -39.75 L3.2 -38.5 0.0 -38.5 0.0 -39.75" fill="#3c3e3c" fill-rule="evenodd" stroke="none"/>
    <path d="M0.0 -39.75 L0.0 -38.5 0.0 -37.3 -0.4 -37.25 Q-3.05 -36.8 -2.4 -39.65 L0.0 -39.75 M-8.0 37.9 L-10.4 37.9 -10.4 36.7 Q-10.85 34.55 -8.4 35.45 L-8.0 35.45 -8.0 37.9" fill="#424135" fill-rule="evenodd" stroke="none"/>
    <path d="M3.2 -38.5 L16.0 -34.0 8.8 -33.2 8.95 -33.05 4.8 -34.0 4.0 -36.45 3.2 -38.5 M10.4 -10.3 L11.2 -10.3 13.6 -11.15 13.6 -10.3 12.8 -7.85 12.4 -7.9 Q11.15 -8.25 10.4 -9.1 L10.4 -10.3 M14.4 10.55 L15.2 10.55 16.0 12.6 13.6 12.6 11.2 11.75 Q12.25 12.0 12.05 10.95 L12.0 10.55 14.4 10.55" fill="#3c3e3a" fill-rule="evenodd" stroke="none"/>
    <path d="M4.0 -36.45 L4.8 -34.0 4.8 -31.95 4.4 -32.0 Q3.15 -32.35 2.4 -33.2 L3.2 -36.45 4.0 -36.45" fill="#30363d" fill-rule="evenodd" stroke="none"/>
    <path d="M2.4 -33.2 L2.35 -32.85 Q1.0 -29.85 3.2 -29.9 4.25 -30.2 4.05 -29.1 L4.0 -28.7 3.65 -28.75 Q-0.25 -30.5 -0.8 -27.45 L-1.6 -28.7 -0.8 -30.75 0.0 -33.2 Q1.3 -31.3 2.15 -33.1 L2.4 -33.2 M-38.4 7.25 L-38.4 6.05 -38.3 6.05 Q-36.95 1.8 -39.2 4.0 L-40.0 -1.3 -40.0 -4.6 -38.4 -10.3 -36.8 -10.3 -36.8 -5.8 Q-37.35 -3.6 -35.6 -3.75 L-35.2 -3.75 -35.2 -2.55 Q-38.6 -0.15 -36.35 0.6 L-36.0 0.75 Q-34.95 0.45 -35.15 1.55 L-35.2 1.95 Q-38.75 1.3 -35.35 4.85 L-35.2 5.2 Q-37.25 4.95 -36.05 8.15 L-36.0 8.5 -36.2 8.45 Q-36.65 7.1 -38.4 7.25" fill="#252b37" fill-rule="evenodd" stroke="none"/>
    <path d="M2.4 -33.2 Q3.15 -32.35 4.4 -32.0 L4.8 -31.95 3.2 -29.9 Q1.0 -29.85 2.35 -32.85 L2.4 -33.2 M26.4 -3.75 L29.6 -3.75 29.6 -3.35 Q29.35 -1.4 27.2 -1.3 L26.4 -3.75 M-23.2 -22.15 L-23.2 -20.1 -24.8 -18.9 -24.8 -20.1 -24.0 -23.4 -23.2 -23.4 -23.2 -22.15 M-27.2 -12.35 L-25.6 -12.35 -25.6 -10.3 -26.0 -10.3 Q-27.75 -10.15 -27.2 -12.35 M-7.2 -11.15 Q-4.75 -11.3 -6.3 -9.4 L-6.4 -9.1 Q-8.95 -9.1 -7.3 -10.8 L-7.2 -11.15" fill="#584c2c" fill-rule="evenodd" stroke="none"/>
    <path d="M3.2 -36.45 L2.4 -33.2 2.15 -33.1 Q1.3 -31.3 0.0 -33.2 L-0.8 -36.45 Q0.05 -36.2 0.0 -36.85 L0.0 -37.3 3.2 -36.45" fill="#4e462c" fill-rule="evenodd" stroke="none"/>
    <path d="M4.8 -34.0 L8.95 -33.05 12.0 -29.9 Q6.4 -32.25 7.15 -27.9 L7.2 -27.45 6.4 -25.45 5.6 -25.45 5.65 -25.85 Q5.85 -26.95 4.8 -26.65 L4.8 -27.45 Q6.05 -28.05 6.35 -29.5 L6.4 -29.9 6.5 -30.2 Q9.7 -32.1 4.8 -31.95 L4.8 -34.0" fill="#262e3c" fill-rule="evenodd" stroke="none"/>
    <path d="M-0.8 -27.45 Q-0.25 -30.5 3.65 -28.75 L4.0 -28.7 4.8 -27.45 4.8 -26.65 Q-0.2 -28.95 1.5 -24.55 L1.6 -24.2 1.5 -23.85 Q1.05 -23.3 0.0 -24.2 L-0.8 -25.45 -0.8 -27.45" fill="#3b3031" fill-rule="evenodd" stroke="none"/>
    <path d="M4.0 -28.7 L4.05 -29.1 Q4.25 -30.2 3.2 -29.9 L4.8 -31.95 Q9.7 -32.1 6.5 -30.2 L6.4 -29.9 4.0 -28.7 M12.8 -27.45 L14.4 -27.45 13.6 -25.45 13.65 -25.0 Q13.85 -23.95 12.8 -24.2 L12.0 -26.65 Q12.85 -26.4 12.8 -27.05 L12.8 -27.45 M17.6 -15.6 L19.2 -15.6 19.2 -11.15 18.4 -11.15 18.45 -11.55 Q18.65 -12.65 17.6 -12.35 L17.6 -15.6 M-0.8 -18.9 L0.0 -16.85 Q-1.0 -17.1 -0.85 -16.05 L-0.8 -15.6 -1.6 -17.65 -1.65 -18.05 Q-1.8 -19.2 -0.8 -18.9 M8.8 -0.5 L10.4 -0.5 11.2 0.75 11.2 2.75 10.4 2.75 8.8 1.95 8.8 0.75 8.8 -0.5 M12.8 5.2 Q13.65 4.95 13.6 5.65 L13.6 6.05 10.4 6.05 11.2 4.0 12.8 5.2 M1.6 10.55 L1.6 11.75 0.8 11.75 0.0 11.75 0.0 11.35 Q0.05 10.05 -1.6 10.55 L-1.6 9.3 1.6 10.55 M7.2 20.35 L8.8 20.35 8.0 25.65 7.2 25.65 4.8 25.65 4.0 23.6 Q8.75 26.2 7.25 20.75 L7.2 20.35 M-1.6 18.3 L-0.8 18.3 -0.8 20.35 -1.0 20.3 Q-1.45 18.95 -3.2 19.1 L-3.6 19.15 Q-4.95 19.45 -4.8 18.3 L-1.6 18.3 M-3.2 20.35 L-1.6 21.55 -1.6 22.4 -3.2 24.85 -3.6 24.8 Q-4.85 24.45 -5.6 23.6 L-4.0 21.55 Q-2.95 21.8 -3.15 20.75 L-3.2 20.35 M-16.0 -33.2 L-14.4 -33.2 -14.4 -30.75 -16.8 -28.7 -17.6 -28.7 -16.0 -33.2 M-20.8 -29.9 L-18.4 -28.7 -21.6 -26.65 -20.8 -29.9 M-28.8 -20.1 Q-27.75 -20.4 -27.95 -19.3 L-28.0 -18.9 -28.0 -14.4 -28.0 -13.6 Q-29.0 -13.6 -29.7 -12.6 -30.4 -11.7 -30.4 -10.3 L-32.0 -10.3 -31.2 -14.4 -30.4 -16.85 -31.2 -20.1 Q-29.8 -18.2 -28.9 -19.75 L-28.8 -20.1 M-27.2 -18.9 L-25.6 -24.2 -24.0 -23.4 -24.8 -20.1 Q-27.8 -20.9 -26.45 -17.2 L-26.4 -16.85 -27.2 -16.85 -27.2 -18.9 M-25.6 -0.5 L-24.8 -0.5 Q-23.75 -0.75 -23.95 0.3 L-24.0 0.75 Q-24.65 0.7 -25.1 1.7 -25.55 2.55 -25.6 3.8 L-25.6 -0.5 M-30.4 4.0 L-28.8 4.0 -29.6 7.25 -31.2 7.25 -31.2 6.05 -31.25 5.65 Q-32.0 3.55 -30.4 4.0 M-19.2 9.3 L-17.6 9.3 -16.8 9.3 -16.8 10.55 -16.75 10.95 Q-16.55 12.0 -17.6 11.75 L-19.2 9.3 M-16.0 13.8 L-15.2 13.8 Q-14.15 13.55 -14.35 14.6 L-14.4 15.05 -18.4 13.8 -16.0 13.8 M-11.2 13.8 L-11.2 12.6 -10.4 12.6 -8.8 15.05 -10.4 15.05 -11.2 13.8" fill="#2e3640" fill-rule="evenodd" stroke="none"/>
    <path d="M6.4 -25.45 L7.2 -27.45 Q8.5 -27.8 8.75 -27.05 L8.8 -26.65 8.0 -24.2 6.4 -25.45 M-18.4 -20.1 Q-21.0 -15.85 -20.8 -19.7 L-20.8 -20.1 -20.0 -20.1 -18.4 -20.1" fill="#3a3d38" fill-rule="evenodd" stroke="none"/>
    <path d="M5.6 -25.45 L6.4 -25.45 6.4 -20.95 6.0 -21.0 Q4.1 -21.25 4.0 -23.4 L5.6 -25.45 M14.4 -27.45 L16.8 -26.65 16.8 -25.45 13.6 -25.45 14.4 -27.45 M20.0 -5.8 L21.6 -10.3 22.4 -10.3 23.2 -7.05 23.2 -4.6 20.8 -3.75 20.0 -3.75 20.0 -5.8 M30.4 2.75 L32.0 2.75 32.0 4.0 30.4 5.2 29.6 5.2 29.2 5.15 Q28.55 5.05 28.8 4.0 30.45 4.45 30.4 3.2 L30.4 2.75 M20.0 9.3 L21.6 7.25 23.2 11.75 22.8 11.75 Q20.05 11.9 20.0 9.3 M14.4 18.3 L14.4 17.05 Q14.75 14.6 15.9 16.7 L16.0 17.05 15.2 19.1 15.2 18.7 Q15.25 18.05 14.4 18.3 M-19.2 -23.4 L-16.0 -25.45 Q-14.35 -25.0 -14.4 -26.25 L-14.4 -26.65 Q-14.65 -27.65 -14.0 -27.45 L-13.6 -27.45 -11.2 -25.45 -14.4 -22.15 -14.4 -20.95 -17.6 -22.15 -19.2 -22.15 -19.2 -23.4 M-36.0 -14.4 L-36.0 -15.6 Q-33.9 -16.15 -33.65 -14.8 L-33.6 -14.4 -33.6 -14.0 Q-33.55 -13.35 -34.4 -13.6 L-36.0 -14.4 M-26.4 7.25 Q-25.35 7.5 -25.55 6.45 L-25.6 6.05 -24.8 9.3 -25.2 9.3 Q-26.95 9.45 -26.4 7.25 M-26.4 12.6 L-24.8 12.6 Q-24.7 14.7 -22.8 15.0 L-22.4 15.05 -22.4 15.85 -26.4 15.05 -26.4 12.6" fill="#293140" fill-rule="evenodd" stroke="none"/>
    <path d="M4.8 -26.65 Q5.85 -26.95 5.65 -25.85 L5.6 -25.45 4.0 -23.4 2.4 -23.4 2.4 -23.8 Q2.45 -24.45 1.6 -24.2 L1.5 -24.55 Q-0.2 -28.95 4.8 -26.65 M15.2 -15.6 L17.6 -15.6 17.6 -12.35 Q16.6 -12.35 15.9 -13.25 15.2 -14.25 15.2 -15.6 M21.6 -11.15 L20.8 -15.6 20.8 -16.85 23.2 -16.85 22.4 -10.3 21.6 -10.3 21.6 -11.15 M14.4 2.75 L16.0 1.95 20.8 1.95 21.6 1.95 22.4 1.95 20.8 4.0 19.2 4.0 19.05 3.7 Q16.95 2.05 16.8 5.2 L16.0 5.2 15.6 5.25 Q14.05 5.55 14.4 4.0 L14.4 2.75" fill="#514828" fill-rule="evenodd" stroke="none"/>
    <path d="M7.2 -27.45 L7.15 -27.9 Q6.4 -32.25 12.0 -29.9 L12.0 -26.65 9.6 -25.45 9.65 -25.85 Q9.85 -26.95 8.8 -26.65 L8.75 -27.05 Q8.5 -27.8 7.2 -27.45 M23.2 -16.85 L24.0 -11.15 24.0 -10.7 Q24.05 -10.05 23.2 -10.3 L22.4 -10.3 23.2 -16.85 M28.8 1.95 Q28.65 3.1 30.0 2.8 L30.4 2.75 30.4 3.2 Q30.45 4.45 28.8 4.0 L26.4 4.0 27.2 1.95 28.8 1.95" fill="#2f3740" fill-rule="evenodd" stroke="none"/>
    <path d="M20.0 -30.75 L17.6 -29.9 15.2 -29.9 16.0 -34.0 17.6 -34.0 20.0 -30.75" fill="#12150e" fill-rule="evenodd" stroke="none"/>
    <path d="M12.8 -27.45 L12.75 -27.85 Q12.55 -29.0 13.6 -28.7 L17.6 -26.65 16.8 -26.65 14.4 -27.45 12.8 -27.45 M0.0 -20.1 L4.8 -18.9 2.4 -17.65 -0.8 -18.9 -0.8 -20.1 0.0 -20.1 M18.4 28.1 L15.2 31.35 15.2 26.9 15.2 25.65 18.4 28.1 M11.2 35.45 L11.2 35.85 Q11.05 38.75 6.4 39.95 7.8 39.5 7.8 38.7 7.8 38.05 6.9 39.3 L9.6 35.45 11.2 35.45 M-18.4 -28.7 L-17.6 -28.7 -17.6 -26.65 -20.0 -24.2 -20.8 -24.2 -21.6 -26.65 -18.4 -28.7 M-9.6 -22.15 L-8.0 -22.15 -6.4 -22.15 -6.4 -20.95 -8.8 -20.1 -9.6 -20.1 -9.75 -20.3 Q-11.05 -21.95 -9.6 -22.15 M-24.8 12.6 L-24.8 11.75 -23.2 12.6 -22.4 15.05 -22.8 15.0 Q-24.7 14.7 -24.8 12.6" fill="#554a2a" fill-rule="evenodd" stroke="none"/>
    <path d="M12.0 -26.65 L12.0 -29.9 13.6 -29.9 13.6 -28.7 Q12.55 -29.0 12.75 -27.85 L12.8 -27.45 12.8 -27.05 Q12.85 -26.4 12.0 -26.65 M12.0 -23.4 L11.2 -20.1 9.6 -20.1 10.4 -23.4 12.0 -23.4 M10.4 -17.65 L8.0 -16.85 7.2 -16.85 7.2 -18.9 10.4 -17.65 M10.4 -7.05 L10.4 -9.1 Q11.15 -8.25 12.4 -7.9 L12.8 -7.85 Q13.65 -8.1 13.6 -7.45 L13.6 -7.05 12.0 -7.05 10.4 -7.05 M-0.8 -7.05 L-0.8 -5.8 -0.8 -4.6 -2.4 -4.6 -1.6 -7.85 -0.8 -7.85 -0.8 -7.05 M24.8 -5.8 L26.4 -7.85 27.2 -4.6 27.0 -4.65 Q26.55 -6.0 24.8 -5.8 M36.0 8.5 L32.0 13.8 32.0 12.6 30.4 11.75 30.4 10.55 30.85 10.55 32.0 12.6 34.4 7.25 30.4 7.25 30.4 6.05 34.4 7.25 36.8 -0.5 36.8 5.2 36.8 6.05 36.0 8.5 M7.2 15.05 L6.4 15.05 5.6 12.6 7.2 12.6 8.0 12.6 7.2 15.05 M-3.2 19.1 L-3.2 20.35 -3.15 20.75 Q-2.95 21.8 -4.0 21.55 L-4.0 21.15 Q-3.95 19.85 -5.6 20.35 L-5.8 20.35 Q-5.2 18.4 -7.2 18.3 L-7.2 17.05 -5.6 17.05 Q-4.55 16.8 -4.75 17.9 L-4.8 18.3 Q-4.95 19.45 -3.6 19.15 L-3.2 19.1 M0.8 22.4 L1.6 23.6 1.6 24.85 0.0 25.65 0.0 22.4 0.8 22.4 M0.0 28.95 L0.0 30.15 -3.2 30.15 -1.6 32.2 -2.0 32.2 Q-5.2 31.75 -6.4 33.4 L-7.2 31.4 -7.2 30.15 -6.4 30.15 Q-6.2 32.35 -5.65 30.55 L-5.6 30.15 -3.2 30.15 -2.4 26.9 -2.4 25.65 -1.6 25.65 Q-1.9 28.2 -0.35 28.85 L0.0 28.95 M-5.6 -36.45 L-7.2 -37.3 -3.2 -36.45 -4.0 -36.45 -5.6 -36.45 M-14.3 -33.2 Q-12.7 -33.25 -11.55 -34.1 -10.5 -35.0 -16.8 -35.2 L-16.8 -35.25 -18.4 -35.25 -8.0 -36.45 -10.4 -33.2 -14.3 -33.2 M-25.6 -24.2 L-25.6 -25.45 -23.2 -25.45 -23.2 -24.2 -23.2 -23.4 -24.0 -23.4 -25.6 -24.2 M-31.2 -3.75 L-29.6 -7.85 -30.4 -10.3 -28.8 -10.3 -27.2 -3.75 -24.8 -4.6 -24.8 -7.05 -24.0 -7.05 -23.2 -3.75 -23.25 -3.35 Q-23.55 -1.9 -24.8 -1.3 L-25.0 -1.35 Q-25.45 -2.7 -27.2 -2.55 L-27.2 -3.75 -27.45 -3.9 Q-30.05 -6.65 -29.6 -3.75 L-31.2 -3.75 M-21.6 -7.85 L-23.2 -12.35 -21.6 -14.4 -20.8 -7.85 -21.6 -7.85 M-8.8 -15.6 L-8.0 -15.6 Q-8.35 -14.05 -6.8 -14.35 L-6.4 -14.4 -6.4 -13.6 -7.2 -13.6 -7.45 -13.5 Q-9.1 -11.2 -8.8 -15.6 M-17.6 -3.75 Q-15.55 -3.3 -15.95 -5.4 L-16.0 -5.8 Q-14.75 -5.9 -15.15 -4.2 L-15.2 -3.75 -15.2 -2.55 -17.6 -2.55 -17.6 -3.75 M-16.8 10.55 L-16.0 10.55 Q-15.9 12.05 -14.45 12.35 L-14.4 12.6 Q-15.5 12.3 -15.25 13.4 L-15.2 13.8 -16.0 13.8 -17.6 11.75 Q-16.55 12.0 -16.75 10.95 L-16.8 10.55 M-28.0 24.85 L-27.95 24.45 Q-27.75 23.35 -28.8 23.6 -29.2 21.75 -27.6 22.4 L-27.2 22.4 Q-27.1 24.5 -25.2 24.8 L-24.8 24.85 -24.8 25.25 Q-24.75 25.9 -25.6 25.65 L-27.2 25.65 -27.2 25.25 Q-27.15 24.55 -28.0 24.85 M-4.0 28.1 L-5.6 28.95 -5.6 26.9 Q-3.95 26.4 -4.0 27.7 L-4.0 28.1 M-14.4 28.1 L-14.4 28.95 -16.8 28.95 -16.0 25.65 -15.2 25.65 -14.4 28.1" fill="#283040" fill-rule="evenodd" stroke="none"/>
    <path d="M17.6 -29.9 Q20.6 -28.1 19.4 -24.25 L19.2 -24.2 17.6 -26.65 13.6 -28.7 13.6 -29.9 13.6 -30.75 15.2 -29.9 17.6 -29.9" fill="#343a3d" fill-rule="evenodd" stroke="none"/>
    <path d="M12.8 -24.2 Q13.85 -23.95 13.65 -25.0 L13.6 -25.45 16.8 -25.45 16.8 -25.0 Q16.85 -22.55 13.6 -23.4 L13.2 -23.4 Q12.55 -23.35 12.8 -24.2 M-16.8 4.0 L-16.85 3.6 Q-17.0 2.5 -16.0 2.75 L-15.95 3.2 Q-14.65 7.55 -16.8 4.0 M-25.6 17.05 L-25.75 17.25 Q-28.7 18.3 -27.2 15.05 L-26.4 15.05 -25.6 17.05" fill="#353a3b" fill-rule="evenodd" stroke="none"/>
    <path d="M19.2 -24.2 L19.2 -23.4 18.85 -23.3 Q17.1 -22.5 16.0 -20.95 15.65 -17.5 18.8 -17.65 L19.2 -17.65 Q20.05 -17.95 20.0 -17.25 L20.0 -16.85 19.2 -15.6 17.6 -15.6 15.2 -15.6 13.6 -15.6 12.8 -15.6 12.8 -16.85 Q15.6 -17.3 13.7 -19.8 L13.6 -20.1 13.6 -23.4 Q16.85 -22.55 16.8 -25.0 L16.8 -25.45 16.8 -26.65 17.6 -26.65 19.2 -24.2" fill="#2e2b33" fill-rule="evenodd" stroke="none"/>
    <path d="M16.0 -34.0 L15.2 -29.9 13.6 -30.75 16.0 -34.0" fill="#454437" fill-rule="evenodd" stroke="none"/>
    <path d="M19.2 -23.4 Q18.95 -22.35 19.6 -22.2 L20.0 -22.15 20.8 -18.9 20.4 -18.9 Q18.8 -19.4 19.2 -17.65 L18.8 -17.65 Q15.65 -17.5 16.0 -20.95 17.1 -22.5 18.85 -23.3 L19.2 -23.4 M16.8 -7.05 L18.4 -11.15 19.2 -11.15 Q18.95 -10.3 19.6 -10.3 L20.0 -10.3 19.2 -7.05 Q18.55 -7.05 18.1 -6.05 17.6 -5.15 17.6 -3.75 L16.8 -3.75 16.8 -7.05 M13.6 -0.5 Q16.35 0.15 13.7 2.45 L13.6 2.75 11.2 2.75 11.2 0.75 13.6 -0.5 M20.0 -0.5 L20.0 -3.75 20.8 -3.75 22.4 0.75 Q21.4 0.4 21.55 1.55 L21.6 1.95 20.8 1.95 20.0 -0.5 M23.2 -10.3 L23.2 -7.05 22.4 -10.3 23.2 -10.3 M28.8 -4.6 L28.8 -7.05 31.2 -3.75 29.6 -3.75 29.6 -4.2 Q29.65 -4.85 28.8 -4.6 M-20.8 32.2 L-24.0 31.4 -24.0 30.95 Q-24.2 29.65 -22.4 30.15 L-20.8 32.2 M-24.0 -33.2 Q-24.7 -35.7 -22.8 -35.25 L-22.4 -35.25 Q-21.35 -35.5 -21.55 -34.4 L-21.6 -34.0 Q-21.8 -34.0 -21.95 -34.15 -23.55 -34.6 -23.2 -33.2 L-24.0 -33.2 M16.8 9.3 L16.8 6.05 18.4 6.05 18.4 9.3 16.8 9.3 M10.4 2.75 L11.2 4.0 10.4 6.05 8.8 6.05 8.8 5.2 10.4 2.75 M-4.0 15.85 L-1.6 18.3 -4.8 18.3 -4.75 17.9 Q-4.55 16.8 -5.6 17.05 -6.15 15.2 -4.4 15.85 L-4.0 15.85 M-1.6 21.55 L0.8 20.35 Q2.4 20.95 1.1 22.3 L0.8 22.4 0.0 22.4 -0.8 22.4 -1.6 22.4 -1.6 21.55 M18.4 18.3 L19.2 18.3 19.3 18.65 Q21.5 22.2 16.8 22.4 L18.4 18.3 M9.6 30.15 L9.55 29.75 Q9.3 28.4 7.2 28.95 L7.2 28.1 11.2 26.9 11.2 28.95 9.6 30.15 M7.2 32.2 Q9.1 33.1 8.25 34.55 L8.0 34.65 6.4 34.65 2.4 35.45 2.4 35.05 Q2.45 34.4 1.6 34.65 L1.6 32.2 7.2 32.2 M-3.2 -18.9 L-3.2 -19.3 Q-3.4 -20.75 -0.8 -20.1 L-0.8 -18.9 Q-1.8 -19.2 -1.65 -18.05 L-1.6 -17.65 -2.4 -17.65 -2.35 -18.05 Q-2.15 -19.15 -3.2 -18.9 M-9.6 12.6 L-8.0 12.6 -6.4 12.6 -7.2 15.05 -8.8 15.05 -10.4 12.6 -9.6 12.6 M-20.8 25.65 L-21.6 28.1 -21.6 23.6 -20.8 23.6 -20.8 25.65 M-27.2 9.3 L-28.0 11.75 -29.6 11.75 -28.8 9.3 -27.2 9.3 M-1.6 25.65 L-0.8 25.65 0.0 28.95 -0.35 28.85 Q-1.9 28.2 -1.6 25.65 M-14.4 30.15 L-16.0 31.4 -16.8 28.95 -14.4 28.95 -14.4 30.15 M-5.6 35.45 L-6.4 33.4 Q-5.2 31.75 -2.0 32.2 L-1.6 32.2 -0.8 34.65 -5.6 35.45" fill="#504828" fill-rule="evenodd" stroke="none"/>
    <path d="M-1.6 -28.7 L-0.8 -27.45 -0.8 -25.45 -1.6 -25.45 -3.2 -27.45 Q-2.15 -27.2 -2.35 -28.3 L-2.4 -28.7 -1.6 -28.7 M12.8 -24.2 Q12.55 -23.35 13.2 -23.4 L13.6 -23.4 13.6 -20.1 12.8 -17.65 11.2 -20.1 12.0 -23.4 Q11.8 -24.25 12.4 -24.2 L12.8 -24.2 M0.8 -13.6 L0.85 -13.15 Q1.05 -12.1 0.0 -12.35 L-1.6 -12.35 -1.6 -13.6 0.0 -14.4 0.8 -14.4 0.8 -13.6 M15.2 -10.3 Q16.8 -9.7 16.8 -7.45 L16.8 -7.05 16.8 -3.75 16.0 -3.75 15.2 -10.3 M30.4 10.55 L30.4 11.75 28.8 11.75 28.8 10.55 28.8 9.3 30.4 9.3 30.4 10.55 M-4.8 15.05 L-4.0 15.05 -4.0 15.85 -4.4 15.85 Q-6.15 15.2 -5.6 17.05 L-7.2 17.05 -8.8 15.05 -7.2 15.05 -4.8 15.05 M0.0 20.35 Q-0.6 18.15 2.0 19.1 L2.4 19.1 2.4 23.6 1.6 23.6 0.8 22.4 1.1 22.3 Q2.4 20.95 0.8 20.35 L0.0 20.35 M-8.0 -36.45 Q-8.35 -37.3 -7.6 -37.3 L-7.2 -37.3 -5.6 -36.45 -4.8 -34.0 -4.8 -33.2 -7.2 -35.25 -7.15 -35.65 Q-6.95 -36.75 -8.0 -36.45 M-20.8 -13.6 L-20.8 -14.4 Q-19.05 -14.25 -18.6 -15.55 L-18.4 -15.6 -17.6 -13.6 -20.8 -13.6 M-19.2 -0.5 Q-18.35 -0.25 -18.4 -0.9 L-18.4 -1.3 Q-15.6 -0.85 -17.5 1.65 L-17.6 1.95 -17.6 2.75 -19.2 2.75 -19.2 -0.5 M-8.8 8.5 L-8.8 9.3 -8.0 12.6 -9.6 12.6 -9.6 8.5 -8.8 8.5 M-14.4 2.75 L-14.4 0.75 Q-12.0 0.5 -12.75 3.6 L-12.8 4.0 -14.4 2.75 M-20.8 12.6 L-21.6 12.6 -22.4 9.3 -21.6 9.3 -20.8 9.3 -20.8 12.6" fill="#2c3440" fill-rule="evenodd" stroke="none"/>
    <path d="M29.6 -23.4 L35.2 -7.05 34.4 -5.8 33.6 -8.05 29.6 -18.9 28.8 -22.15 Q29.7 -21.95 29.7 -22.65 L29.65 -23.0 29.6 -23.4 M19.2 -17.65 Q18.8 -19.4 20.4 -18.9 L20.8 -18.9 Q22.4 -18.3 20.9 -17.1 L20.8 -16.85 20.8 -15.6 20.0 -16.85 20.0 -17.25 Q20.05 -17.95 19.2 -17.65 M12.8 -17.65 L13.6 -20.1 13.7 -19.8 Q15.6 -17.3 12.8 -16.85 L12.8 -17.65 M27.2 -0.5 L27.2 0.75 27.2 1.95 25.6 1.95 25.6 -0.5 27.2 -0.5 M-6.4 37.9 L-8.0 37.9 -8.0 35.45 -8.0 34.65 -7.2 34.65 -6.4 37.9 M30.4 5.2 L30.4 6.05 30.4 7.25 28.0 7.25 28.0 6.05 29.6 5.2 30.4 5.2 M30.85 10.55 L30.4 10.55 30.4 9.3 30.85 10.55 M20.0 6.05 L20.0 9.3 19.2 9.3 18.4 9.3 18.4 6.05 20.0 6.05 M16.8 5.2 Q16.95 2.05 19.05 3.7 L19.2 4.0 19.0 4.05 Q18.55 5.35 16.8 5.2 M-4.8 13.8 L-4.8 15.05 -7.2 15.05 -6.4 12.6 -4.8 13.8 M4.0 12.6 L5.6 12.6 6.4 15.05 2.4 13.8 Q4.05 14.25 4.0 13.0 L4.0 12.6 M0.0 22.4 L0.0 25.65 -0.8 25.65 -1.6 25.65 -2.4 25.65 -0.8 22.4 0.0 22.4 M11.2 28.95 L11.15 29.35 Q10.4 34.05 9.6 30.15 L11.2 28.95 M-4.8 -33.2 L-4.8 -34.0 -2.4 -33.2 -4.0 -36.45 -3.2 -36.45 -1.6 -36.45 -2.4 -33.2 -2.4 -31.95 Q-3.8 -32.35 -3.25 -30.35 L-3.2 -29.9 -4.0 -29.9 -4.8 -33.2 M-14.3 -33.2 L-10.4 -33.2 -11.2 -28.7 -12.8 -29.9 -14.4 -30.75 -14.4 -33.2 -14.3 -33.2 M-20.0 -20.1 L-19.2 -22.15 -17.6 -22.15 -18.4 -20.1 -20.0 -20.1 M-36.8 -10.3 L-36.0 -10.3 -35.2 -7.05 -36.8 -5.8 -36.8 -10.3 M-35.2 -2.55 L-35.2 -1.3 -36.0 0.75 -36.35 0.6 Q-38.6 -0.15 -35.2 -2.55 M-27.2 6.05 Q-26.15 5.75 -26.35 6.85 L-26.4 7.25 Q-28.0 6.95 -27.3 8.95 L-27.2 9.3 -28.8 9.3 -28.0 6.05 -27.2 6.05 M-9.6 -17.65 L-6.4 -16.85 -6.4 -16.45 Q-6.35 -15.15 -8.0 -15.6 L-8.8 -15.6 -9.2 -15.6 Q-11.6 -16.65 -11.2 -14.4 L-12.0 -14.4 -11.2 -17.65 Q-9.95 -19.3 -9.65 -18.05 L-9.6 -17.65 M-14.4 12.6 L-13.6 12.6 -12.8 15.05 -13.6 15.05 -14.4 15.05 -14.35 14.6 Q-14.15 13.55 -15.2 13.8 L-15.25 13.4 Q-15.5 12.3 -14.4 12.6 M-10.4 15.85 L-10.4 18.3 -12.0 19.1 -12.0 17.05 -10.4 15.85 M-21.6 23.6 L-20.8 19.1 -20.0 19.1 -20.8 23.6 -21.6 23.6 M-5.6 28.95 L-5.6 30.15 -5.65 30.55 Q-6.2 32.35 -6.4 30.15 L-7.2 26.9 -5.6 26.9 -5.6 28.95 M-12.8 26.9 L-12.8 27.3 Q-12.75 28.55 -14.4 28.1 L-15.2 25.65 Q-14.45 26.5 -13.2 26.85 L-12.8 26.9" fill="#303840" fill-rule="evenodd" stroke="none"/>
    <path d="M12.8 -15.6 L12.75 -15.2 Q12.55 -13.45 10.4 -13.6 L10.5 -13.95 Q12.25 -16.65 8.0 -16.85 L10.4 -17.65 12.8 -15.6 M4.0 -7.85 L8.8 -11.15 8.8 -7.85 5.6 -7.05 4.0 -7.05 4.0 -7.85 M6.4 -5.8 L8.0 -5.8 7.2 -2.55 6.4 -0.5 6.0 -0.5 Q5.35 -0.45 5.6 -1.3 L4.8 -3.75 6.4 -5.8 M17.6 -1.3 L20.0 -3.75 20.0 -0.5 18.4 -0.5 17.6 -0.5 17.6 -1.3 M6.4 2.75 L7.2 5.2 7.2 8.5 6.8 8.5 Q6.1 8.5 6.4 9.3 L5.6 9.3 4.0 9.3 4.1 9.05 Q6.8 7.75 4.0 6.05 L4.0 2.75 4.8 2.75 Q5.75 8.4 6.4 3.2 L6.4 2.75 M-21.6 -24.2 L-21.55 -23.8 Q-21.15 -21.7 -23.2 -22.15 L-23.2 -23.4 -23.2 -24.2 -21.6 -24.2 M-13.6 -7.05 Q-11.85 -7.2 -11.4 -5.85 L-11.2 -5.8 -11.2 -2.55 -12.8 -3.75 -13.6 -7.05 M-33.6 7.25 L-36.0 8.5 -36.05 8.15 Q-37.25 4.95 -35.2 5.2 L-33.6 6.05 -33.6 7.25" fill="#2d3540" fill-rule="evenodd" stroke="none"/>
    <path d="M12.8 -15.6 L13.6 -15.6 13.6 -12.35 Q10.55 -13.55 11.15 -10.65 L11.2 -10.3 10.4 -10.3 10.4 -12.35 10.4 -13.6 Q12.55 -13.45 12.75 -15.2 L12.8 -15.6 M0.8 -0.5 L1.6 -0.5 1.6 0.75 1.6 1.95 0.0 2.75 -4.0 1.95 -4.05 1.55 Q-4.55 -0.25 -4.8 1.95 L-6.4 0.75 -6.7 0.5 Q-7.95 -0.4 -6.4 -0.5 L-3.2 -1.3 -1.6 -0.5 Q-0.75 2.0 0.7 -0.15 L0.8 -0.5 M-11.2 22.4 L-9.6 23.6 -8.8 25.65 -10.4 25.65 -11.2 25.65 -11.2 22.4" fill="#151211" fill-rule="evenodd" stroke="none"/>
    <path d="M8.0 -16.85 Q12.25 -16.65 10.5 -13.95 L10.4 -13.6 8.0 -14.4 5.6 -16.85 7.2 -16.85 8.0 -16.85 M27.2 12.6 L27.2 10.55 28.8 10.55 28.8 11.75 28.8 12.6 28.0 12.6 27.2 12.6 M10.4 15.85 L11.2 15.85 8.8 19.1 8.4 19.1 Q7.75 19.15 8.0 18.3 L7.95 17.95 Q7.2 14.8 10.4 15.85 M14.4 22.4 L16.8 22.4 16.75 22.8 Q16.45 24.25 15.2 24.85 L12.8 22.4 14.4 22.4 M-4.8 -34.0 L-5.6 -36.45 -4.0 -36.45 -2.4 -33.2 -4.8 -34.0 M-30.4 -10.3 Q-30.4 -11.7 -29.7 -12.6 -29.0 -13.6 -28.0 -13.6 L-27.2 -13.6 -27.2 -12.35 -28.8 -10.3 -30.4 -10.3 M-24.8 -4.6 Q-27.45 -4.85 -25.85 -6.95 L-25.6 -7.05 -24.8 -7.05 -24.8 -4.6 M-28.8 4.0 L-27.2 6.05 -28.0 6.05 -29.6 7.25 -28.8 4.0 M-4.8 -18.9 L-3.2 -18.9 Q-2.15 -19.15 -2.35 -18.05 L-2.4 -17.65 -4.8 -16.85 -4.8 -18.9 M-9.6 8.5 L-9.6 12.6 -10.4 12.6 -11.2 12.6 -11.2 8.5 -9.6 8.5 M-22.4 0.75 L-20.8 0.75 -21.6 4.0 -22.4 4.0 -22.4 0.75" fill="#544a2a" fill-rule="evenodd" stroke="none"/>
    <path d="M13.6 -15.6 L15.2 -15.6 Q15.2 -14.25 15.9 -13.25 16.6 -12.35 17.6 -12.35 L15.2 -11.15 13.6 -10.3 13.6 -11.15 13.6 -12.35 13.6 -15.6 M31.2 -3.75 L31.2 -2.55 32.6 0.6 31.2 0.75 31.25 0.3 Q31.45 -0.75 30.4 -0.5 L27.2 0.75 27.2 -0.5 27.2 -1.3 Q29.35 -1.4 29.6 -3.35 L29.6 -3.75 31.2 -3.75 M-30.4 28.95 Q-31.4 28.9 -32.1 28.35 -32.8 27.75 -32.8 26.9 L-32.8 24.85 -30.4 23.6 -31.2 25.65 -30.4 28.95 M0.0 5.2 L0.8 5.2 Q0.55 6.05 1.2 6.05 L1.6 6.05 1.6 7.25 1.35 7.35 Q-1.35 8.6 0.0 5.2 M-3.2 12.6 L0.0 11.75 0.8 11.75 1.6 13.8 1.6 15.05 1.2 15.0 Q-0.05 14.65 -0.8 13.8 L-1.2 13.85 Q-3.35 14.35 -3.2 12.6 M4.0 17.05 L4.0 18.3 4.0 19.1 2.4 19.1 0.0 18.3 -0.05 17.9 Q-0.25 16.75 0.8 17.05 L4.0 17.05 M2.4 35.45 L6.4 34.65 5.6 36.7 3.2 36.7 2.8 36.65 Q2.15 36.5 2.4 35.45 M-12.8 10.55 L-11.2 8.5 -11.2 12.6 -11.2 13.8 -11.4 13.75 Q-11.85 12.4 -13.6 12.6 L-12.8 10.55 M-16.8 15.85 L-16.0 15.85 -16.0 19.1 -16.8 21.55 -20.0 19.1 -20.8 17.05 Q-17.3 20.6 -16.8 16.25 L-16.8 15.85 M-29.6 25.65 L-28.0 24.85 Q-27.15 24.55 -27.2 25.25 L-27.2 25.65 -29.15 27.65 Q-29.55 27.1 -29.6 25.65 M-6.4 24.85 L-5.6 24.85 -5.6 26.9 -7.2 26.9 -8.8 25.65 -9.6 23.6 -6.4 24.85" fill="#2b3340" fill-rule="evenodd" stroke="none"/>
    <path d="M19.2 -15.6 L20.0 -16.85 20.8 -15.6 21.6 -11.15 Q19.7 -13.45 20.0 -10.7 L20.0 -10.3 19.6 -10.3 Q18.95 -10.3 19.2 -11.15 L19.2 -15.6 M6.4 -20.1 L7.2 -18.9 7.2 -16.85 5.6 -16.85 5.65 -17.25 Q6.05 -18.95 4.8 -18.9 L0.0 -20.1 0.0 -20.95 2.4 -22.15 Q3.4 -20.35 6.0 -20.1 L6.4 -20.1" fill="#232933" fill-rule="evenodd" stroke="none"/>
    <path d="M8.0 -23.4 Q9.05 -23.65 8.85 -22.55 L8.8 -22.15 8.8 -20.95 Q8.15 -20.95 7.7 -20.3 7.2 -19.75 7.2 -18.9 L6.4 -20.1 6.4 -20.95 Q7.65 -21.5 7.95 -23.0 L8.0 -23.4" fill="#313744" fill-rule="evenodd" stroke="none"/>
    <path d="M8.0 -24.2 L8.0 -23.4 7.95 -23.0 Q7.65 -21.5 6.4 -20.95 L6.4 -25.45 8.0 -24.2 M-18.4 -35.25 L-16.8 -35.25 -16.8 -35.2 -17.6 -33.2 -20.0 -34.0 Q-18.35 -33.55 -18.4 -34.85 L-18.4 -35.25 M-11.2 -28.7 L-10.4 -33.2 Q-7.05 -33.55 -7.2 -30.35 L-7.2 -29.9 -7.4 -29.9 Q-7.5 -27.1 -10.4 -27.45 L-11.2 -28.7 M-28.0 -18.9 L-27.2 -18.9 -27.2 -16.85 -28.0 -14.4 -28.0 -18.9 M-20.8 -13.6 L-17.6 -13.6 -18.4 -10.3 -20.8 -13.6 M-13.6 12.6 Q-11.85 12.4 -11.4 13.75 L-11.2 13.8 -10.4 15.05 -10.4 15.85 -12.0 17.05 -11.95 16.65 Q-11.75 15.55 -12.8 15.85 L-12.8 15.05 -13.6 12.6" fill="#524929" fill-rule="evenodd" stroke="none"/>
    <path d="M8.8 -22.15 L10.4 -23.4 9.6 -20.1 9.2 -20.1 Q8.55 -20.1 8.8 -20.95 L8.8 -22.15" fill="#261712" fill-rule="evenodd" stroke="none"/>
    <path d="M2.4 -22.15 L0.0 -20.95 -0.8 -23.4 Q0.05 -23.15 0.0 -23.8 L0.0 -24.2 Q1.05 -23.3 1.5 -23.85 L1.6 -24.2 Q2.45 -24.45 2.4 -23.8 L2.4 -23.4 2.4 -22.15" fill="#494431" fill-rule="evenodd" stroke="none"/>
    <path d="M0.0 -24.2 L0.0 -23.8 Q0.05 -23.15 -0.8 -23.4 L-4.8 -20.95 -5.6 -22.15 -4.8 -22.15 -4.0 -24.2 Q-2.25 -24.05 -1.8 -25.4 L-1.6 -25.45 -0.8 -25.45 0.0 -24.2" fill="#252c38" fill-rule="evenodd" stroke="none"/>
    <path d="M0.0 -20.95 L0.0 -20.1 -0.8 -20.1 Q-3.4 -20.75 -3.2 -19.3 L-3.2 -18.9 -4.8 -18.9 -4.8 -20.95 -0.8 -23.4 0.0 -20.95" fill="#33383d" fill-rule="evenodd" stroke="none"/>
    <path d="M0.8 -16.85 L2.4 -14.4 0.8 -14.4 0.0 -14.4 -0.8 -15.6 -0.85 -16.05 Q-1.0 -17.1 0.0 -16.85 L0.8 -16.85" fill="#4a4532" fill-rule="evenodd" stroke="none"/>
    <path d="M2.4 -17.65 L0.8 -16.85 0.0 -16.85 -0.8 -18.9 2.4 -17.65 M-26.4 -26.65 L-25.6 -26.65 -25.6 -25.45 -25.6 -24.2 -27.2 -18.9 -28.0 -18.9 -27.95 -19.3 Q-27.75 -20.4 -28.8 -20.1 L-28.8 -20.95 -29.6 -23.4 Q-28.75 -23.15 -28.8 -23.8 L-28.8 -24.2 -26.4 -26.65" fill="#242b39" fill-rule="evenodd" stroke="none"/>
    <path d="M4.8 -18.9 Q6.05 -18.95 5.65 -17.25 L5.6 -16.85 Q2.3 -17.95 3.15 -14.8 L3.2 -14.4 2.4 -14.4 0.8 -16.85 2.4 -17.65 4.8 -18.9" fill="#2f353d" fill-rule="evenodd" stroke="none"/>
    <path d="M2.4 -14.4 L3.2 -14.4 4.0 -14.4 4.05 -14.0 Q4.45 -11.9 2.4 -12.35 L2.4 -12.75 Q2.45 -14.05 0.8 -13.6 L0.8 -14.4 2.4 -14.4" fill="#262c35" fill-rule="evenodd" stroke="none"/>
    <path d="M0.0 -12.35 Q1.05 -12.1 0.85 -13.15 L0.8 -13.6 Q2.45 -14.05 2.4 -12.75 L2.4 -12.35 Q1.4 -12.7 1.55 -11.55 L1.6 -11.15 0.0 -11.15 0.0 -12.35" fill="#761a04" fill-rule="evenodd" stroke="none"/>
    <path d="M8.0 -14.4 L7.2 -14.4 4.8 -14.4 4.0 -14.4 3.2 -14.4 3.15 -14.8 Q2.3 -17.95 5.6 -16.85 L8.0 -14.4" fill="#2b2228" fill-rule="evenodd" stroke="none"/>
    <path d="M1.6 -11.15 L1.55 -11.55 Q1.4 -12.7 2.4 -12.35 4.45 -11.9 4.05 -14.0 L4.0 -14.4 4.8 -14.4 4.0 -7.85 4.0 -7.05 0.0 -7.85 1.6 -11.15" fill="#2d343c" fill-rule="evenodd" stroke="none"/>
    <path d="M-0.8 -30.75 L-1.6 -28.7 -2.4 -28.7 -3.2 -29.9 -3.25 -30.35 Q-3.8 -32.35 -2.4 -31.95 -2.75 -30.4 -1.2 -30.7 L-0.8 -30.75 M10.4 -13.6 L10.4 -12.35 8.8 -11.15 8.8 -11.55 Q8.75 -13.75 7.2 -14.4 L8.0 -14.4 10.4 -13.6 M19.2 -7.05 L19.2 -6.65 Q19.5 -4.1 17.6 -3.75 17.6 -5.15 18.1 -6.05 18.55 -7.05 19.2 -7.05 M30.4 7.25 L30.4 7.65 Q30.45 8.95 28.8 8.5 L26.4 8.5 26.0 8.55 Q24.45 8.85 24.8 7.25 L28.0 7.25 30.4 7.25 M24.0 2.75 L20.8 4.0 22.4 1.95 24.0 2.75 M28.8 12.6 Q30.2 13.15 28.9 14.7 L28.8 15.05 27.2 15.05 28.0 12.6 28.8 12.6 M15.2 26.9 L15.2 31.35 14.4 28.95 Q13.75 28.9 13.3 29.9 12.8 30.8 12.8 32.2 L11.2 35.45 9.6 35.45 9.2 35.5 Q7.85 35.8 8.0 34.65 L8.25 34.55 Q9.1 33.1 7.2 32.2 10.0 30.6 6.55 29.15 6.4 29.15 6.4 28.95 L7.2 28.95 Q9.3 28.4 9.55 29.75 L9.6 30.15 Q10.4 34.05 11.15 29.35 L11.2 28.95 Q13.5 28.8 14.3 27.25 L14.4 26.9 15.2 26.9 M-13.6 21.55 L-13.65 21.15 Q-13.8 20.0 -12.8 20.35 -11.75 20.6 -11.95 19.55 L-12.0 19.1 -10.4 18.3 Q-10.55 19.45 -9.2 19.15 L-8.8 19.1 -8.8 20.35 Q-10.15 20.35 -11.05 20.95 -12.0 21.5 -12.0 22.4 L-13.6 21.55 M-21.6 12.6 L-20.8 15.05 -22.4 15.05 -23.2 12.6 -21.6 12.6 M-24.8 11.75 L-24.8 9.3 Q-23.2 9.9 -23.2 12.15 L-23.2 12.6 -24.8 11.75 M-8.0 35.45 L-8.4 35.45 Q-10.85 34.55 -10.4 36.7 L-11.2 33.4 -8.0 34.65 -8.0 35.45" fill="#2a3240" fill-rule="evenodd" stroke="none"/>
    <path d="M21.6 -20.95 L21.6 -23.4 24.0 -22.15 24.0 -21.75 Q23.75 -19.0 21.6 -20.95 M7.2 -14.4 Q8.75 -13.75 8.8 -11.55 L8.8 -11.15 4.0 -7.85 4.8 -14.4 7.2 -14.4 M0.0 -11.15 L1.6 -11.15 0.0 -7.85 -0.8 -7.85 0.0 -11.15 M9.6 20.35 L9.7 20.1 Q13.5 17.0 11.2 21.55 L11.2 22.4 10.85 22.35 Q9.7 21.85 9.6 20.35 M-35.2 -1.3 L-32.0 -0.5 -31.2 -0.5 -29.6 1.95 -30.0 1.95 Q-30.6 1.9 -30.4 2.75 L-30.8 2.75 Q-33.5 1.9 -32.8 4.0 L-35.2 1.95 -35.15 1.55 Q-34.95 0.45 -36.0 0.75 L-35.2 -1.3 M-24.8 4.0 L-25.6 3.8 Q-25.55 2.55 -25.1 1.7 -24.65 0.7 -24.0 0.75 L-24.8 4.0 M-14.4 -20.95 L-14.4 -20.1 -16.8 -20.1 -18.4 -20.1 -17.6 -22.15 -14.4 -20.95 M-9.6 23.6 Q-10.1 21.35 -7.55 22.3 L-7.2 22.4 -6.4 24.85 -9.6 23.6 M-36.0 9.3 Q-30.95 9.15 -32.7 12.2 L-32.8 12.6 -34.4 12.6 -36.0 9.3" fill="#534929" fill-rule="evenodd" stroke="none"/>
    <path d="M8.8 -7.85 Q8.55 -7.0 9.2 -7.05 L9.6 -7.05 9.65 -6.65 Q9.85 -5.55 8.8 -5.8 L8.0 -5.8 6.4 -5.8 5.6 -7.05 8.8 -7.85" fill="#2f2f32" fill-rule="evenodd" stroke="none"/>
    <path d="M10.4 -12.35 L10.4 -10.3 10.4 -9.1 10.4 -7.05 9.6 -7.05 9.2 -7.05 Q8.55 -7.0 8.8 -7.85 L8.8 -11.15 10.4 -12.35" fill="#491409" fill-rule="evenodd" stroke="none"/>
    <path d="M9.6 -7.05 L10.4 -7.05 12.0 -7.05 12.8 -4.6 8.8 -5.8 Q9.85 -5.55 9.65 -6.65 L9.6 -7.05 M16.0 1.95 L18.4 -0.5 20.0 -0.5 20.8 1.95 16.0 1.95" fill="#63532d" fill-rule="evenodd" stroke="none"/>
    <path d="M5.6 -7.05 L6.4 -5.8 4.8 -3.75 4.4 -3.7 Q3.05 -3.4 3.2 -4.6 L3.1 -4.95 Q2.2 -7.0 -0.8 -7.05 L-0.8 -7.85 0.0 -7.85 4.0 -7.05 5.6 -7.05" fill="#31140c" fill-rule="evenodd" stroke="none"/>
    <path d="M-1.6 -12.35 L0.0 -12.35 0.0 -11.15 -0.8 -7.85 -1.6 -7.85 -1.55 -8.25 Q-1.35 -9.35 -2.4 -9.1 L-2.4 -10.3 -1.6 -12.35" fill="#181b21" fill-rule="evenodd" stroke="none"/>
    <path d="M-0.8 -5.8 L3.2 -4.6 Q3.05 -3.4 4.4 -3.7 L4.8 -3.75 5.6 -1.3 5.2 -1.3 Q4.6 -1.45 4.8 -0.5 L1.6 -0.5 0.8 -0.5 0.4 -0.5 Q-0.25 -0.45 0.0 -1.3 L0.1 -1.55 Q2.85 -3.55 -0.8 -4.6 L-0.8 -5.8" fill="#1c110f" fill-rule="evenodd" stroke="none"/>
    <path d="M-0.8 -7.05 Q2.2 -7.0 3.1 -4.95 L3.2 -4.6 -0.8 -5.8 -0.8 -7.05" fill="#363940" fill-rule="evenodd" stroke="none"/>
    <path d="M0.0 -1.3 L-1.6 -1.3 -2.4 -3.75 -2.4 -4.6 -0.8 -4.6 Q2.85 -3.55 0.1 -1.55 L0.0 -1.3" fill="#33333d" fill-rule="evenodd" stroke="none"/>
    <path d="M0.8 -0.5 L0.7 -0.15 Q-0.75 2.0 -1.6 -0.5 L-1.6 -1.3 0.0 -1.3 Q-0.25 -0.45 0.4 -0.5 L0.8 -0.5" fill="#3c3e36" fill-rule="evenodd" stroke="none"/>
    <path d="M4.8 -0.5 Q4.6 -1.45 5.2 -1.3 L5.6 -1.3 Q5.35 -0.45 6.0 -0.5 L6.4 -0.5 Q6.25 1.3 8.4 0.8 L8.8 0.75 8.8 1.95 8.0 5.2 7.2 5.2 6.4 2.75 4.8 2.75 4.0 2.75 4.0 1.95 Q6.6 1.9 4.9 -0.2 L4.8 -0.5" fill="#24110e" fill-rule="evenodd" stroke="none"/>
    <path d="M1.6 0.75 L1.6 -0.5 4.8 -0.5 4.9 -0.2 Q6.6 1.9 4.0 1.95 L3.95 1.55 Q3.7 0.2 1.6 0.75" fill="#413434" fill-rule="evenodd" stroke="none"/>
    <path d="M8.0 -5.8 L8.8 -5.8 12.8 -4.6 12.8 -3.75 8.8 -1.3 8.8 -1.75 Q8.85 -3.0 7.2 -2.55 L8.0 -5.8" fill="#49402a" fill-rule="evenodd" stroke="none"/>
    <path d="M6.4 -0.5 L7.2 -2.55 Q8.85 -3.0 8.8 -1.75 L8.8 -1.3 8.8 -0.5 8.8 0.75 8.4 0.8 Q6.25 1.3 6.4 -0.5" fill="#383027" fill-rule="evenodd" stroke="none"/>
    <path d="M20.0 -10.3 L20.0 -10.7 Q19.7 -13.45 21.6 -11.15 L21.6 -10.3 20.0 -5.8 20.05 -6.2 Q20.25 -7.3 19.2 -7.05 L20.0 -10.3" fill="#2f2423" fill-rule="evenodd" stroke="none"/>
    <path d="M17.6 -12.35 Q18.65 -12.65 18.45 -11.55 L18.4 -11.15 16.8 -7.05 16.8 -7.45 Q16.8 -9.7 15.2 -10.3 L15.2 -11.15 17.6 -12.35" fill="#61512d" fill-rule="evenodd" stroke="none"/>
    <path d="M13.6 -2.55 L13.6 -3.75 13.6 -7.05 13.6 -7.45 Q13.65 -8.1 12.8 -7.85 L13.6 -10.3 15.2 -11.15 15.2 -10.3 16.0 -3.75 Q15.0 -4.05 15.15 -2.95 L15.2 -2.55 13.6 -2.55" fill="#1c120f" fill-rule="evenodd" stroke="none"/>
    <path d="M19.2 -7.05 Q20.25 -7.3 20.05 -6.2 L20.0 -5.8 20.0 -3.75 17.6 -1.3 17.6 -3.75 Q19.5 -4.1 19.2 -6.65 L19.2 -7.05" fill="#1e0f0e" fill-rule="evenodd" stroke="none"/>
    <path d="M11.2 -10.3 L11.15 -10.65 Q10.55 -13.55 13.6 -12.35 L13.6 -11.15 11.2 -10.3" fill="#414033" fill-rule="evenodd" stroke="none"/>
    <path d="M12.8 -4.6 L12.0 -7.05 13.6 -7.05 13.6 -3.75 12.8 -3.75 12.8 -4.6" fill="#3a3c35" fill-rule="evenodd" stroke="none"/>
    <path d="M10.4 -0.5 L13.6 -2.55 15.2 -2.55 Q15.2 -0.5 17.2 -0.5 L17.6 -0.5 18.4 -0.5 16.0 1.95 14.4 2.75 13.6 2.75 13.7 2.45 Q16.35 0.15 13.6 -0.5 L10.4 -0.5" fill="#2e353f" fill-rule="evenodd" stroke="none"/>
    <path d="M10.4 -0.5 L13.6 -0.5 11.2 0.75 10.4 -0.5 M-0.8 34.65 L-1.6 32.2 0.0 32.2 -0.8 34.65" fill="#5c4e2e" fill-rule="evenodd" stroke="none"/>
    <path d="M17.6 -3.75 L17.6 -1.3 17.4 -1.35 Q16.95 -2.7 15.2 -2.55 L15.15 -2.95 Q15.0 -4.05 16.0 -3.75 L16.8 -3.75 17.6 -3.75" fill="#961e00" fill-rule="evenodd" stroke="none"/>
    <path d="M17.6 -0.5 L17.2 -0.5 Q15.2 -0.5 15.2 -2.55 16.95 -2.7 17.4 -1.35 L17.6 -1.3 17.6 -0.5" fill="#141619" fill-rule="evenodd" stroke="none"/>
    <path d="M27.2 -11.15 L26.55 -20.35 28.8 -22.15 29.6 -18.9 27.2 -11.15" fill="#504829" fill-rule="evenodd" stroke="none"/>
    <path d="M20.0 -22.15 L21.6 -20.95 Q23.75 -19.0 24.0 -21.75 L24.0 -22.15 Q25.05 -21.9 24.85 -23.0 L24.8 -23.4 27.2 -24.2 28.3 -23.8 29.6 -23.4 29.65 -23.0 29.7 -22.65 Q29.7 -21.95 28.8 -22.15 L26.55 -20.35 27.2 -11.15 27.2 -10.3 26.4 -7.85 26.2 -7.85 Q26.2 -10.75 24.0 -11.15 L23.2 -16.85 20.8 -16.85 20.9 -17.1 Q22.4 -18.3 20.8 -18.9 L20.0 -22.15" fill="#28303f" fill-rule="evenodd" stroke="none"/>
    <path d="M27.2 -24.2 L26.8 -24.25 Q26.15 -24.4 26.4 -25.45 L28.3 -23.8 27.2 -24.2" fill="#4a4531" fill-rule="evenodd" stroke="none"/>
    <path d="M21.6 -23.4 Q20.4 -27.1 24.55 -23.5 L24.8 -23.4 24.85 -23.0 Q25.05 -21.9 24.0 -22.15 L21.6 -23.4 M25.6 15.85 L27.2 15.85 27.2 18.3 24.0 19.1 24.0 17.05 25.6 15.85 M-18.4 -5.8 L-17.6 -5.8 -16.0 -5.8 -15.95 -5.4 Q-15.55 -3.3 -17.6 -3.75 L-18.4 -5.8 M-21.6 28.1 L-21.6 28.5 Q-21.55 29.15 -22.4 28.95 L-21.6 23.6 -21.6 28.1" fill="#343a3c" fill-rule="evenodd" stroke="none"/>
    <path d="M24.0 -11.15 Q26.2 -10.75 26.2 -7.85 L26.4 -7.85 24.8 -5.8 Q23.8 -6.15 23.95 -5.0 L24.0 -4.6 23.2 -4.6 23.2 -7.05 23.2 -10.3 Q24.05 -10.05 24.0 -10.7 L24.0 -11.15 M0.0 32.2 L1.6 32.2 1.6 34.65 -3.2 36.7 -3.6 36.75 Q-5.75 37.25 -5.6 35.45 L-0.8 34.65 0.0 32.2 M-33.6 6.05 L-35.2 5.2 -35.35 4.85 Q-38.75 1.3 -35.2 1.95 L-32.8 4.0 -32.8 5.2 -32.8 5.65 Q-32.75 6.3 -33.6 6.05" fill="#31383e" fill-rule="evenodd" stroke="none"/>
    <path d="M26.4 -7.85 L27.2 -10.3 28.8 -7.05 28.8 -4.6 27.2 -4.6 26.4 -7.85" fill="#141110" fill-rule="evenodd" stroke="none"/>
    <path d="M27.2 -11.15 L29.6 -18.9 33.6 -8.05 33.1 -9.2 33.6 -8.0 31.2 -7.05 34.4 -5.8 34.65 -5.7 Q38.4 -0.8 31.2 -2.55 L31.2 -3.75 28.8 -7.05 27.2 -10.3 27.2 -11.15" fill="#29313f" fill-rule="evenodd" stroke="none"/>
    <path d="M22.4 0.75 L20.8 -3.75 23.2 -4.6 24.0 -4.6 24.0 -3.75 25.6 -0.5 22.4 0.75" fill="#64532d" fill-rule="evenodd" stroke="none"/>
    <path d="M24.0 -4.6 L23.95 -5.0 Q23.8 -6.15 24.8 -5.8 26.55 -6.0 27.0 -4.65 L27.2 -4.6 28.8 -4.6 Q29.65 -4.85 29.6 -4.2 L29.6 -3.75 26.4 -3.75 24.0 -3.75 24.0 -4.6" fill="#49442c" fill-rule="evenodd" stroke="none"/>
    <path d="M24.0 -3.75 L26.4 -3.75 27.2 -1.3 27.2 -0.5 25.6 -0.5 24.0 -3.75" fill="#3b3c35" fill-rule="evenodd" stroke="none"/>
    <path d="M34.4 -5.8 L31.2 -7.05 33.6 -8.0 33.1 -9.2 33.6 -8.05 34.4 -5.8" fill="#373c3a" fill-rule="evenodd" stroke="none"/>
    <path d="M31.2 -2.55 Q38.4 -0.8 34.65 -5.7 L34.4 -5.8 35.2 -7.05 Q36.2 -7.05 36.9 -6.05 37.6 -5.15 37.6 -3.75 L37.6 -0.5 36.8 -0.5 34.4 7.25 30.4 6.05 30.4 5.2 32.0 4.0 32.6 0.6 31.2 -2.55" fill="#3f3f38" fill-rule="evenodd" stroke="none"/>
    <path d="M37.6 -3.75 L38.4 -3.75 38.4 0.75 37.6 -0.5 37.6 -3.75" fill="#635528" fill-rule="evenodd" stroke="none"/>
    <path d="M30.4 -0.5 Q31.45 -0.75 31.25 0.3 L31.2 0.75 32.0 2.75 30.4 2.75 30.0 2.8 Q28.65 3.1 28.8 1.95 30.05 1.4 30.35 -0.1 L30.4 -0.5" fill="#65542c" fill-rule="evenodd" stroke="none"/>
    <path d="M27.2 0.75 L30.4 -0.5 30.35 -0.1 Q30.05 1.4 28.8 1.95 L27.2 1.95 27.2 0.75" fill="#17191e" fill-rule="evenodd" stroke="none"/>
    <path d="M40.0 1.95 L38.85 6.75 36.8 6.05 36.8 5.2 38.4 1.95 40.0 1.95" fill="#3e4037" fill-rule="evenodd" stroke="none"/>
    <path d="M38.4 -3.75 L40.0 1.95 38.4 1.95 38.4 0.75 38.4 -3.75" fill="#434134" fill-rule="evenodd" stroke="none"/>
    <path d="M31.2 0.75 L32.6 0.6 32.0 4.0 32.0 2.75 31.2 0.75" fill="#5a4f28" fill-rule="evenodd" stroke="none"/>
    <path d="M32.0 12.6 L30.85 10.55 30.4 9.3 28.8 9.3 28.8 8.5 Q30.45 8.95 30.4 7.65 L30.4 7.25 34.4 7.25 32.0 12.6" fill="#49442f" fill-rule="evenodd" stroke="none"/>
    <path d="M38.85 6.75 Q39.1 8.5 36.0 8.5 L36.8 6.05 38.85 6.75" fill="#353c3c" fill-rule="evenodd" stroke="none"/>
    <path d="M25.6 1.95 L27.2 1.95 26.4 4.0 26.4 5.2 25.6 5.2 25.6 2.75 25.6 1.95 M-24.0 31.4 L-24.8 31.4 -25.6 28.95 -23.2 28.95 -22.4 28.95 -22.4 30.15 Q-24.2 29.65 -24.0 30.95 L-24.0 31.4" fill="#232936" fill-rule="evenodd" stroke="none"/>
    <path d="M21.6 1.95 L21.55 1.55 Q21.4 0.4 22.4 0.75 L25.6 -0.5 25.6 1.95 25.6 2.75 24.0 2.75 22.4 1.95 21.6 1.95" fill="#49442d" fill-rule="evenodd" stroke="none"/>
    <path d="M25.6 5.2 L26.4 5.2 Q26.25 6.4 27.6 6.1 L28.0 6.05 28.0 7.25 24.8 7.25 24.4 7.2 Q23.75 7.1 24.0 6.05 L24.0 5.65 Q24.0 4.65 25.6 5.2" fill="#49442e" fill-rule="evenodd" stroke="none"/>
    <path d="M28.8 4.0 Q28.55 5.05 29.2 5.15 L29.6 5.2 28.0 6.05 27.6 6.1 Q26.25 6.4 26.4 5.2 L26.4 4.0 28.8 4.0" fill="#471e15" fill-rule="evenodd" stroke="none"/>
    <path d="M21.6 7.25 L21.65 6.9 Q22.05 4.6 24.0 6.05 23.75 7.1 24.4 7.2 L24.8 7.25 Q24.45 8.85 26.0 8.55 L26.4 8.5 26.4 9.3 Q25.35 9.05 25.55 10.15 L25.6 10.55 25.4 10.6 Q24.95 11.9 23.2 11.75 L21.6 7.25" fill="#51482b" fill-rule="evenodd" stroke="none"/>
    <path d="M20.0 9.3 Q20.05 11.9 22.8 11.75 L23.2 11.75 19.2 17.05 19.1 16.8 Q17.65 16.0 17.6 13.8 L18.4 10.55 Q19.45 10.8 19.25 9.7 L19.2 9.3 20.0 9.3" fill="#564829" fill-rule="evenodd" stroke="none"/>
    <path d="M19.2 17.05 L23.2 11.75 Q24.95 11.9 25.4 10.6 L25.6 10.55 25.6 12.6 23.75 17.1 22.4 20.35 22.4 20.45 21.6 22.4 18.4 28.1 15.2 25.65 15.2 24.85 Q16.45 24.25 16.75 22.8 L16.8 22.4 Q21.5 22.2 19.3 18.65 L19.2 18.3 19.2 17.05" fill="#2f373f" fill-rule="evenodd" stroke="none"/>
    <path d="M25.6 10.55 L25.55 10.15 Q25.35 9.05 26.4 9.3 27.45 9.05 27.25 10.15 L27.2 10.55 27.2 12.6 26.4 12.6 25.6 12.6 25.6 10.55" fill="#262d3a" fill-rule="evenodd" stroke="none"/>
    <path d="M28.8 8.5 L28.8 9.3 28.8 10.55 27.2 10.55 27.25 10.15 Q27.45 9.05 26.4 9.3 L26.4 8.5 28.8 8.5 M-16.8 -20.1 L-14.4 -20.1 Q-12.75 -20.6 -12.8 -19.3 L-12.8 -18.9 -13.6 -18.9 Q-16.15 -19.65 -16.0 -18.05 L-16.0 -17.65 -16.8 -20.1" fill="#353a3c" fill-rule="evenodd" stroke="none"/>
    <path d="M30.4 11.75 L32.0 12.6 32.0 13.8 28.8 15.05 28.9 14.7 Q30.2 13.15 28.8 12.6 L28.8 11.75 30.4 11.75" fill="#5a4e2b" fill-rule="evenodd" stroke="none"/>
    <path d="M-2.4 39.95 L-5.6 38.75 -5.6 38.35 Q-5.55 37.65 -6.4 37.9 L-7.2 34.65 -7.25 34.25 Q-7.4 33.1 -6.4 33.4 L-5.6 35.45 Q-5.75 37.25 -3.6 36.75 L-3.2 36.7 -2.4 39.95 M25.6 12.6 L26.4 12.6 25.6 15.85 24.0 17.05 23.75 17.1 25.6 12.6 M22.4 21.55 L22.4 22.0 Q22.45 22.65 21.6 22.4 L22.4 20.45 22.4 21.55 M-24.0 24.85 L-24.0 23.6 -20.8 19.1 -21.6 23.6 -22.4 28.95 -23.2 28.95 -24.0 24.85" fill="#262e3d" fill-rule="evenodd" stroke="none"/>
    <path d="M32.0 13.8 L28.0 18.3 27.2 18.3 27.2 15.85 27.2 15.05 28.8 15.05 32.0 13.8" fill="#2b3436" fill-rule="evenodd" stroke="none"/>
    <path d="M28.0 18.3 Q28.0 21.35 26.6 23.5 25.2 25.65 23.2 25.65 L23.2 24.85 23.45 24.75 Q26.45 20.45 23.2 21.55 L22.4 21.55 22.4 20.45 22.4 20.35 24.0 19.1 27.2 18.3 28.0 18.3" fill="#2c333f" fill-rule="evenodd" stroke="none"/>
    <path d="M23.2 25.65 L23.0 25.7 Q22.35 29.15 18.4 28.1 L21.6 22.4 Q22.45 22.65 22.4 22.0 L22.4 21.55 23.2 21.55 23.2 24.85 23.2 25.65" fill="#1c2029" fill-rule="evenodd" stroke="none"/>
    <path d="M23.2 21.55 Q26.45 20.45 23.45 24.75 L23.2 24.85 23.2 21.55" fill="#383d34" fill-rule="evenodd" stroke="none"/>
    <path d="M16.0 5.2 L14.4 7.25 13.6 7.25 13.6 6.05 13.6 5.65 Q13.65 4.95 12.8 5.2 12.35 3.35 14.0 4.0 L14.4 4.0 Q14.05 5.55 15.6 5.25 L16.0 5.2" fill="#181a20" fill-rule="evenodd" stroke="none"/>
    <path d="M20.8 4.0 L20.0 6.05 18.4 6.05 16.8 6.05 16.8 5.2 Q18.55 5.35 19.0 4.05 L19.2 4.0 20.8 4.0" fill="#21252e" fill-rule="evenodd" stroke="none"/>
    <path d="M16.8 5.2 L16.8 6.05 16.8 9.3 Q14.95 8.6 15.2 10.15 L15.2 10.55 14.4 10.55 14.4 7.25 16.0 5.2 16.8 5.2" fill="#685029" fill-rule="evenodd" stroke="none"/>
    <path d="M13.6 2.75 L14.4 2.75 14.4 4.0 14.0 4.0 Q12.35 3.35 12.8 5.2 L11.2 4.0 10.4 2.75 11.2 2.75 13.6 2.75" fill="#262d38" fill-rule="evenodd" stroke="none"/>
    <path d="M13.6 6.05 L13.6 7.25 12.0 10.55 12.05 10.95 Q12.25 12.0 11.2 11.75 L11.2 10.55 10.4 6.05 13.6 6.05" fill="#2f110b" fill-rule="evenodd" stroke="none"/>
    <path d="M14.4 7.25 L14.4 10.55 12.0 10.55 13.6 7.25 14.4 7.25" fill="#4a4430" fill-rule="evenodd" stroke="none"/>
    <path d="M11.2 10.55 L11.2 11.75 13.6 12.6 13.6 15.05 13.6 15.45 Q13.65 16.1 12.8 15.85 L11.2 15.85 10.4 15.85 10.4 15.05 10.4 11.75 10.35 11.4 Q10.1 10.2 11.2 10.55" fill="#52402a" fill-rule="evenodd" stroke="none"/>
    <path d="M10.4 6.05 L11.2 10.55 Q10.1 10.2 10.35 11.4 L10.4 11.75 8.0 12.6 7.2 12.6 7.25 12.3 Q10.75 10.8 8.0 8.5 L8.8 6.05 10.4 6.05" fill="#2d343e" fill-rule="evenodd" stroke="none"/>
    <path d="M19.2 9.3 L19.25 9.7 Q19.45 10.8 18.4 10.55 17.75 10.55 17.3 11.5 16.8 12.4 16.8 13.8 L16.0 12.6 15.2 10.55 15.2 10.15 Q14.95 8.6 16.8 9.3 L18.4 9.3 19.2 9.3" fill="#2c3238" fill-rule="evenodd" stroke="none"/>
    <path d="M18.4 10.55 L17.6 13.8 16.8 13.8 Q16.8 12.4 17.3 11.5 17.75 10.55 18.4 10.55" fill="#4f1a0d" fill-rule="evenodd" stroke="none"/>
    <path d="M7.2 5.2 L8.0 5.2 8.8 5.2 8.8 6.05 8.0 8.5 7.2 8.5 7.2 5.2" fill="#320d09" fill-rule="evenodd" stroke="none"/>
    <path d="M8.0 5.2 L8.8 1.95 10.4 2.75 8.8 5.2 8.0 5.2" fill="#42241f" fill-rule="evenodd" stroke="none"/>
    <path d="M6.4 2.75 L6.4 3.2 Q5.75 8.4 4.8 2.75 L6.4 2.75 M3.2 36.7 L5.6 36.7 5.55 37.1 Q5.35 38.85 0.45 39.95 L3.2 36.7 M-7.2 -35.25 L-4.8 -33.2 -4.0 -29.9 -4.8 -29.9 -7.2 -35.25 M-35.2 -7.05 Q-34.15 -7.3 -34.35 -6.2 L-34.4 -5.8 Q-36.0 -6.3 -35.25 -4.15 L-35.2 -3.75 -35.6 -3.75 Q-37.35 -3.6 -36.8 -5.8 L-35.2 -7.05 M-30.4 9.3 L-30.8 9.35 Q-32.15 9.65 -32.0 8.5 L-31.2 7.25 -29.6 7.25 -30.4 9.3 M-32.8 24.85 L-32.75 24.45 Q-32.55 23.35 -33.6 23.6 L-33.6 22.4 -32.8 22.4 -30.4 22.4 -30.4 23.6 -32.8 24.85" fill="#564b2b" fill-rule="evenodd" stroke="none"/>
    <path d="M1.6 1.95 L1.6 0.75 Q3.7 0.2 3.95 1.55 L4.0 1.95 4.0 2.75 4.0 6.05 3.2 6.05 3.25 5.65 Q4.0 2.55 1.6 2.75 L1.6 1.95" fill="#1d191a" fill-rule="evenodd" stroke="none"/>
    <path d="M0.0 2.75 L1.6 1.95 1.6 2.75 0.8 5.2 0.0 5.2 0.0 2.75" fill="#75301a" fill-rule="evenodd" stroke="none"/>
    <path d="M1.6 2.75 Q4.0 2.55 3.25 5.65 L3.2 6.05 1.6 6.05 1.2 6.05 Q0.55 6.05 0.8 5.2 L1.6 2.75" fill="#34383a" fill-rule="evenodd" stroke="none"/>
    <path d="M4.0 6.05 Q6.8 7.75 4.1 9.05 L4.0 9.3 1.6 10.55 1.6 7.25 1.6 6.05 3.2 6.05 4.0 6.05" fill="#553c28" fill-rule="evenodd" stroke="none"/>
    <path d="M-4.0 1.95 L0.0 2.75 0.0 5.2 -0.35 5.3 Q-3.55 6.85 -3.2 4.0 L-4.0 1.95" fill="#3f3934" fill-rule="evenodd" stroke="none"/>
    <path d="M0.0 5.2 Q-1.35 8.6 1.35 7.35 L1.6 7.25 1.6 10.55 -1.6 9.3 -1.55 8.9 Q-1.15 6.8 -3.2 7.25 L-4.0 4.0 -3.2 4.0 Q-3.55 6.85 -0.35 5.3 L0.0 5.2 M-31.2 -14.4 L-32.0 -10.3 -32.4 -10.25 Q-33.75 -9.95 -33.6 -11.15 L-31.2 -14.4 M-32.0 -0.5 L-31.2 -3.75 -29.6 -3.75 -30.4 -0.5 -31.2 -0.5 -32.0 -0.5" fill="#1c1310" fill-rule="evenodd" stroke="none"/>
    <path d="M4.0 9.3 L5.6 9.3 5.5 9.65 Q4.6 11.7 1.6 11.75 L1.6 10.55 4.0 9.3" fill="#441b0b" fill-rule="evenodd" stroke="none"/>
    <path d="M-1.6 10.55 Q0.05 10.05 0.0 11.35 L0.0 11.75 -3.2 12.6 -4.0 15.05 -4.8 15.05 -4.8 13.8 -1.6 10.55" fill="#64401f" fill-rule="evenodd" stroke="none"/>
    <path d="M0.8 11.75 L1.6 11.75 4.0 12.6 4.0 13.0 Q4.05 14.25 2.4 13.8 L1.6 13.8 0.8 11.75" fill="#604425" fill-rule="evenodd" stroke="none"/>
    <path d="M6.4 9.3 Q6.1 8.5 6.8 8.5 L7.2 8.5 8.0 8.5 Q10.75 10.8 7.25 12.3 L7.2 12.6 5.6 12.6 6.4 9.3" fill="#504228" fill-rule="evenodd" stroke="none"/>
    <path d="M5.6 9.3 L6.4 9.3 5.6 12.6 4.0 12.6 1.6 11.75 Q4.6 11.7 5.5 9.65 L5.6 9.3" fill="#292937" fill-rule="evenodd" stroke="none"/>
    <path d="M10.4 15.05 L10.4 15.85 Q7.2 14.8 7.95 17.95 L8.0 18.3 7.8 18.25 Q7.35 16.9 5.6 17.05 L6.4 15.05 7.2 15.05 10.4 15.05" fill="#422621" fill-rule="evenodd" stroke="none"/>
    <path d="M5.6 17.05 Q7.35 16.9 7.8 18.25 L8.0 18.3 Q7.75 19.15 8.4 19.1 L8.8 19.1 8.8 20.35 7.2 20.35 5.6 19.1 5.6 18.3 5.6 17.05" fill="#1a1d22" fill-rule="evenodd" stroke="none"/>
    <path d="M10.4 11.75 L10.4 15.05 7.2 15.05 8.0 12.6 10.4 11.75 M-13.6 -27.45 L-12.8 -29.9 -11.2 -28.7 -10.4 -27.45 -10.4 -26.65 -10.4 -25.45 -11.2 -25.45 -13.6 -27.45" fill="#20110d" fill-rule="evenodd" stroke="none"/>
    <path d="M1.6 15.05 L1.6 15.85 Q0.5 15.55 0.75 16.7 L0.8 17.05 Q-0.25 16.75 -0.05 17.9 L0.0 18.3 -0.8 18.3 -1.6 18.3 -4.0 15.85 Q-0.75 16.7 -0.8 14.2 L-0.8 13.8 Q-0.05 14.65 1.2 15.0 L1.6 15.05" fill="#5f482e" fill-rule="evenodd" stroke="none"/>
    <path d="M1.6 15.85 Q3.7 15.3 3.95 16.65 L4.0 17.05 0.8 17.05 0.75 16.7 Q0.5 15.55 1.6 15.85" fill="#4c4630" fill-rule="evenodd" stroke="none"/>
    <path d="M0.0 20.35 L0.8 20.35 -1.6 21.55 -3.2 20.35 -3.2 19.1 Q-1.45 18.95 -1.0 20.3 L-0.8 20.35 0.0 20.35" fill="#61522a" fill-rule="evenodd" stroke="none"/>
    <path d="M-0.8 18.3 L0.0 18.3 2.4 19.1 2.0 19.1 Q-0.6 18.15 0.0 20.35 L-0.8 20.35 -0.8 18.3" fill="#1b0d0d" fill-rule="evenodd" stroke="none"/>
    <path d="M1.6 23.6 L2.4 23.6 3.2 23.6 4.0 23.6 4.8 25.65 5.6 28.95 4.0 28.95 4.0 28.5 Q3.8 25.7 1.6 24.85 L1.6 23.6" fill="#24262a" fill-rule="evenodd" stroke="none"/>
    <path d="M2.4 23.6 L2.4 19.1 4.0 19.1 4.0 22.4 Q2.95 22.1 3.15 23.2 L3.2 23.6 2.4 23.6" fill="#1f1d20" fill-rule="evenodd" stroke="none"/>
    <path d="M5.6 19.1 L7.2 20.35 7.25 20.75 Q8.75 26.2 4.0 23.6 L3.2 23.6 3.15 23.2 Q2.95 22.1 4.0 22.4 L5.6 19.1" fill="#5b4f2c" fill-rule="evenodd" stroke="none"/>
    <path d="M4.0 18.3 L5.6 18.3 5.6 19.1 4.0 22.4 4.0 19.1 4.0 18.3" fill="#323844" fill-rule="evenodd" stroke="none"/>
    <path d="M11.2 15.85 L12.8 15.85 Q12.45 17.4 14.0 17.15 L14.4 17.05 14.4 18.3 12.0 21.55 11.2 21.55 Q13.5 17.0 9.7 20.1 L9.6 20.35 8.8 20.35 8.8 19.1 11.2 15.85" fill="#2b323c" fill-rule="evenodd" stroke="none"/>
    <path d="M8.8 20.35 L9.6 20.35 Q9.7 21.85 10.85 22.35 L11.2 22.4 11.2 23.6 8.0 25.65 8.8 20.35" fill="#1b191b" fill-rule="evenodd" stroke="none"/>
    <path d="M17.6 13.8 Q17.65 16.0 19.1 16.8 L19.2 17.05 19.2 18.3 18.4 18.3 18.4 17.9 Q18.45 16.6 16.8 17.05 L16.8 16.65 Q16.85 14.15 13.6 15.05 L13.6 12.6 16.0 12.6 16.8 13.8 17.6 13.8" fill="#2b323e" fill-rule="evenodd" stroke="none"/>
    <path d="M12.8 15.85 Q13.65 16.1 13.6 15.45 L13.6 15.05 Q16.85 14.15 16.8 16.65 L16.8 17.05 16.0 17.05 15.9 16.7 Q14.75 14.6 14.4 17.05 L14.0 17.15 Q12.45 17.4 12.8 15.85" fill="#121315" fill-rule="evenodd" stroke="none"/>
    <path d="M16.8 17.05 Q18.45 16.6 18.4 17.9 L18.4 18.3 16.8 22.4 14.4 22.4 15.2 19.1 16.0 17.05 16.8 17.05" fill="#67562c" fill-rule="evenodd" stroke="none"/>
    <path d="M15.2 25.65 L15.2 26.9 14.4 26.9 12.0 24.85 11.2 23.6 11.2 22.4 11.2 21.55 12.0 21.55 Q11.75 22.4 12.4 22.4 L12.8 22.4 15.2 24.85 15.2 25.65 M-34.4 -13.6 L-33.6 -11.15 Q-33.75 -9.95 -32.4 -10.25 L-32.0 -10.3 -31.95 -9.9 Q-31.75 -8.85 -32.8 -9.1 L-36.0 -10.3 -36.8 -10.3 -38.4 -10.3 -38.4 -11.15 -36.0 -14.4 -34.4 -13.6" fill="#2e343d" fill-rule="evenodd" stroke="none"/>
    <path d="M12.0 21.55 L14.4 18.3 Q15.25 18.05 15.2 18.7 L15.2 19.1 14.4 22.4 12.8 22.4 12.4 22.4 Q11.75 22.4 12.0 21.55" fill="#1a191c" fill-rule="evenodd" stroke="none"/>
    <path d="M12.0 24.85 L14.4 26.9 14.3 27.25 Q13.5 28.8 11.2 28.95 L11.2 26.9 12.0 24.85" fill="#383c3b" fill-rule="evenodd" stroke="none"/>
    <path d="M11.2 23.6 L12.0 24.85 11.2 26.9 7.2 28.1 7.2 25.65 8.0 25.65 11.2 23.6" fill="#5c4f31" fill-rule="evenodd" stroke="none"/>
    <path d="M15.2 31.35 Q14.6 31.95 13.6 32.2 L14.4 28.95 15.2 31.35" fill="#4e4730" fill-rule="evenodd" stroke="none"/>
    <path d="M7.2 28.95 L6.4 28.95 5.6 28.95 4.8 25.65 7.2 25.65 7.2 28.1 7.2 28.95" fill="#20222a" fill-rule="evenodd" stroke="none"/>
    <path d="M6.4 28.95 Q6.4 29.15 6.55 29.15 10.0 30.6 7.2 32.2 L1.6 32.2 4.0 28.95 5.6 28.95 6.4 28.95" fill="#63522e" fill-rule="evenodd" stroke="none"/>
    <path d="M0.0 25.65 L1.6 24.85 Q3.8 25.7 4.0 28.5 L4.0 28.95 0.0 28.95 -0.8 25.65 0.0 25.65" fill="#634e28" fill-rule="evenodd" stroke="none"/>
    <path d="M4.0 28.95 L1.6 32.2 0.0 32.2 0.0 30.15 0.0 28.95 4.0 28.95" fill="#2b333c" fill-rule="evenodd" stroke="none"/>
    <path d="M0.45 39.95 L-2.4 39.95 -3.2 36.7 1.6 34.65 Q2.45 34.4 2.4 35.05 L2.4 35.45 Q2.15 36.5 2.8 36.65 L3.2 36.7 0.45 39.95" fill="#232935" fill-rule="evenodd" stroke="none"/>
    <path d="M6.4 39.95 L0.45 39.95 Q5.35 38.85 5.55 37.1 L5.6 36.7 6.4 34.65 8.0 34.65 Q7.85 35.8 9.2 35.5 L9.6 35.45 6.9 39.3 Q7.8 38.05 7.8 38.7 7.8 39.5 6.4 39.95" fill="#242a37" fill-rule="evenodd" stroke="none"/>
    <path d="M0.0 30.15 L0.0 32.2 -1.6 32.2 -3.2 30.15 0.0 30.15" fill="#27140f" fill-rule="evenodd" stroke="none"/>
    <path d="M-22.4 -35.25 L-22.3 -35.6 Q-21.2 -38.0 -18.4 -35.25 L-18.4 -34.85 Q-18.35 -33.55 -20.0 -34.0 L-21.6 -34.0 -21.55 -34.4 Q-21.35 -35.5 -22.4 -35.25" fill="#323b46" fill-rule="evenodd" stroke="none"/>
    <path d="M-17.6 -33.2 L-16.0 -33.2 -17.6 -28.7 -18.4 -28.7 -20.8 -29.9 Q-22.7 -30.45 -22.45 -29.1 L-22.4 -28.7 -23.2 -26.65 -24.8 -29.9 -23.2 -33.2 Q-23.55 -34.6 -21.95 -34.15 -21.8 -34.0 -21.6 -34.0 L-20.0 -34.0 -17.6 -33.2 M-11.2 -17.65 L-12.0 -14.4 -12.4 -14.4 Q-12.9 -14.4 -12.8 -13.6 L-14.4 -13.6 -14.3 -13.9 Q-11.65 -16.2 -14.4 -16.85 L-13.6 -18.9 -12.8 -18.9 Q-13.15 -17.3 -11.6 -17.6 L-11.2 -17.65" fill="#262d3c" fill-rule="evenodd" stroke="none"/>
    <path d="M-17.6 -26.65 Q-17.95 -25.1 -16.4 -25.4 L-16.0 -25.45 -19.2 -23.4 -20.0 -23.4 -20.0 -24.2 -17.6 -26.65" fill="#261610" fill-rule="evenodd" stroke="none"/>
    <path d="M-17.6 -28.7 L-16.8 -28.7 Q-16.8 -26.65 -14.8 -26.65 L-14.4 -26.65 -14.4 -26.25 Q-14.35 -25.0 -16.0 -25.45 L-16.4 -25.4 Q-17.95 -25.1 -17.6 -26.65 L-17.6 -28.7" fill="#212630" fill-rule="evenodd" stroke="none"/>
    <path d="M-16.8 -28.7 L-14.4 -30.75 -12.8 -29.9 -13.6 -27.45 -14.0 -27.45 Q-14.65 -27.65 -14.4 -26.65 L-14.8 -26.65 Q-16.8 -26.65 -16.8 -28.7 M-20.8 15.05 L-16.8 15.85 -16.8 16.25 Q-17.3 20.6 -20.8 17.05 L-21.6 17.05 -21.55 16.65 Q-21.35 15.55 -22.4 15.85 L-22.4 15.05 -20.8 15.05" fill="#50482c" fill-rule="evenodd" stroke="none"/>
    <path d="M-10.4 -25.45 Q-8.3 -25.95 -8.05 -24.6 L-8.0 -24.2 -8.0 -22.15 -9.6 -22.15 -14.4 -22.15 -11.2 -25.45 -10.4 -25.45" fill="#363a3c" fill-rule="evenodd" stroke="none"/>
    <path d="M-7.2 -29.9 L-7.2 -26.65 -10.4 -26.65 -10.4 -27.45 Q-7.5 -27.1 -7.4 -29.9 L-7.2 -29.9" fill="#5d4e2e" fill-rule="evenodd" stroke="none"/>
    <path d="M-7.2 -26.65 L-4.8 -29.9 -4.0 -29.9 -3.2 -29.9 -2.4 -28.7 -2.35 -28.3 Q-2.15 -27.2 -3.2 -27.45 -6.2 -30.7 -4.1 -24.55 L-4.0 -24.2 -4.8 -22.15 -4.85 -22.55 Q-5.2 -24.65 -8.0 -24.2 L-8.05 -24.6 Q-8.3 -25.95 -10.4 -25.45 L-10.4 -26.65 -7.2 -26.65" fill="#232025" fill-rule="evenodd" stroke="none"/>
    <path d="M0.0 -33.2 L-0.8 -30.75 -1.2 -30.7 Q-2.75 -30.4 -2.4 -31.95 L-2.4 -33.2 -1.6 -36.45 -0.8 -36.45 0.0 -33.2" fill="#3d3e38" fill-rule="evenodd" stroke="none"/>
    <path d="M-8.0 -36.45 Q-6.95 -36.75 -7.15 -35.65 L-7.2 -35.25 -4.8 -29.9 -7.2 -26.65 -7.2 -29.9 -7.2 -30.35 Q-7.05 -33.55 -10.4 -33.2 L-8.0 -36.45" fill="#30373e" fill-rule="evenodd" stroke="none"/>
    <path d="M-4.0 -24.2 L-4.1 -24.55 Q-6.2 -30.7 -3.2 -27.45 L-1.6 -25.45 -1.8 -25.4 Q-2.25 -24.05 -4.0 -24.2" fill="#3d3e36" fill-rule="evenodd" stroke="none"/>
    <path d="M-26.4 -28.7 L-24.8 -33.2 -24.8 -29.9 -25.6 -26.65 -26.4 -26.65 -26.4 -28.7" fill="#44412c" fill-rule="evenodd" stroke="none"/>
    <path d="M-29.6 -25.45 L-26.4 -28.7 -26.4 -26.65 -28.8 -24.2 -28.75 -24.6 Q-28.55 -25.7 -29.6 -25.45" fill="#3f4440" fill-rule="evenodd" stroke="none"/>
    <path d="M-23.2 -26.65 L-22.4 -28.7 -21.6 -26.65 -20.8 -24.2 -21.6 -24.2 -23.2 -24.2 -23.2 -25.45 -23.2 -26.65" fill="#33393c" fill-rule="evenodd" stroke="none"/>
    <path d="M-22.4 -28.7 L-22.45 -29.1 Q-22.7 -30.45 -20.8 -29.9 L-21.6 -26.65 -22.4 -28.7" fill="#47432e" fill-rule="evenodd" stroke="none"/>
    <path d="M-20.0 -24.2 L-20.0 -23.4 -20.8 -20.1 -23.2 -20.1 -23.2 -22.15 Q-21.15 -21.7 -21.55 -23.8 L-21.6 -24.2 -20.8 -24.2 -20.0 -24.2" fill="#151110" fill-rule="evenodd" stroke="none"/>
    <path d="M-23.2 -20.1 L-20.8 -20.1 -20.8 -19.7 Q-21.0 -15.85 -18.4 -20.1 L-16.8 -20.1 -16.0 -17.65 -16.0 -16.85 -16.8 -16.85 -18.4 -16.85 -20.0 -16.85 -23.2 -15.6 -23.3 -16.0 Q-24.2 -17.55 -25.6 -15.6 L-24.8 -18.9 -23.2 -20.1" fill="#242a34" fill-rule="evenodd" stroke="none"/>
    <path d="M-24.8 -20.1 L-24.8 -18.9 -25.6 -15.6 -25.55 -15.2 Q-25.35 -14.15 -26.4 -14.4 L-26.4 -16.85 -26.45 -17.2 Q-27.8 -20.9 -24.8 -20.1" fill="#6a3b19" fill-rule="evenodd" stroke="none"/>
    <path d="M-31.2 -22.15 Q-31.2 -23.55 -30.7 -24.45 -30.25 -25.45 -29.6 -25.45 -28.55 -25.7 -28.75 -24.6 L-28.8 -24.2 -28.8 -23.8 Q-28.75 -23.15 -29.6 -23.4 L-31.2 -22.15 M-15.2 -2.55 L-15.2 -3.75 Q-13.45 -3.95 -13.0 -2.6 L-12.8 -2.55 -12.0 -0.5 -14.4 -0.5 -15.2 -2.55" fill="#30353c" fill-rule="evenodd" stroke="none"/>
    <path d="M-33.9 -18.65 Q-33.7 -19.7 -31.2 -22.15 -31.35 -20.4 -29.2 -20.9 L-28.8 -20.95 -28.8 -20.1 -28.9 -19.75 Q-29.8 -18.2 -31.2 -20.1 L-32.0 -20.1 Q-32.8 -17.4 -33.75 -18.0 -34.05 -18.2 -33.9 -18.65" fill="#252d3b" fill-rule="evenodd" stroke="none"/>
    <path d="M-26.4 -14.4 Q-25.35 -14.15 -25.55 -15.2 L-25.6 -15.6 Q-24.2 -17.55 -23.3 -16.0 L-23.2 -15.6 -25.6 -12.35 -27.2 -12.35 -27.2 -13.6 Q-26.35 -13.35 -26.4 -14.0 L-26.4 -14.4" fill="#353839" fill-rule="evenodd" stroke="none"/>
    <path d="M-21.6 -14.4 L-20.8 -14.4 -20.8 -13.6 -18.4 -10.3 -18.4 -7.85 Q-20.2 -10.25 -20.0 -7.45 L-20.0 -7.05 -20.4 -7.05 Q-21.05 -7.0 -20.8 -7.85 L-21.6 -14.4" fill="#2f3641" fill-rule="evenodd" stroke="none"/>
    <path d="M-25.6 -12.35 L-23.2 -15.6 -20.0 -16.85 -20.8 -14.4 -21.6 -14.4 -23.2 -12.35 -25.6 -10.3 -25.6 -12.35" fill="#181210" fill-rule="evenodd" stroke="none"/>
    <path d="M-31.2 -20.1 L-30.4 -16.85 -32.0 -16.85 -32.0 -20.1 -31.2 -20.1" fill="#141518" fill-rule="evenodd" stroke="none"/>
    <path d="M-38.4 -11.15 L-36.0 -15.6 -36.0 -14.4 -38.4 -11.15" fill="#1a1d24" fill-rule="evenodd" stroke="none"/>
    <path d="M-30.4 -16.85 L-31.2 -14.4 -33.6 -11.15 -34.4 -13.6 Q-33.55 -13.35 -33.6 -14.0 L-33.6 -14.4 Q-32.35 -14.95 -32.05 -16.45 L-32.0 -16.85 -30.4 -16.85 M-8.8 19.1 L-7.2 18.3 Q-5.2 18.4 -5.8 20.35 L-5.6 20.35 -5.6 20.75 Q-5.55 22.0 -7.2 21.55 L-7.2 21.15 Q-7.15 19.85 -8.8 20.35 L-8.8 19.1" fill="#51482d" fill-rule="evenodd" stroke="none"/>
    <path d="M-36.0 -15.6 Q-36.0 -17.0 -34.8 -17.9 L-33.9 -18.65 Q-34.05 -18.2 -33.75 -18.0 -32.8 -17.4 -32.0 -20.1 L-32.0 -16.85 -32.05 -16.45 Q-32.35 -14.95 -33.6 -14.4 L-33.65 -14.8 Q-33.9 -16.15 -36.0 -15.6" fill="#232a36" fill-rule="evenodd" stroke="none"/>
    <path d="M-32.0 -10.3 L-30.4 -10.3 -29.6 -7.85 -32.8 -7.85 -32.8 -9.1 Q-31.75 -8.85 -31.95 -9.9 L-32.0 -10.3" fill="#1d212a" fill-rule="evenodd" stroke="none"/>
    <path d="M-34.4 -5.8 Q-33.35 -5.55 -33.55 -6.65 L-33.6 -7.05 -32.8 -4.6 -33.1 -4.5 Q-34.6 -2.8 -34.4 -5.8" fill="#681d07" fill-rule="evenodd" stroke="none"/>
    <path d="M-1.6 -13.6 L-1.6 -12.35 -2.4 -10.3 -2.8 -10.3 Q-3.45 -10.3 -3.2 -11.15 L-3.25 -11.55 Q-4.05 -14.3 -1.6 -13.6 M-36.0 -10.3 L-32.8 -9.1 -32.8 -7.85 -33.2 -7.85 Q-33.9 -7.95 -33.6 -7.05 L-33.55 -6.65 Q-33.35 -5.55 -34.4 -5.8 L-34.35 -6.2 Q-34.15 -7.3 -35.2 -7.05 L-36.0 -10.3" fill="#4f472c" fill-rule="evenodd" stroke="none"/>
    <path d="M-33.6 -7.05 Q-33.9 -7.95 -33.2 -7.85 L-32.8 -7.85 -29.6 -7.85 -31.2 -3.75 -31.6 -3.7 Q-32.95 -3.4 -32.8 -4.6 L-33.6 -7.05" fill="#3e3f38" fill-rule="evenodd" stroke="none"/>
    <path d="M-40.0 -4.6 L-38.4 -11.15 -38.4 -10.3 -40.0 -4.6" fill="#565031" fill-rule="evenodd" stroke="none"/>
    <path d="M-35.2 -3.75 L-35.25 -4.15 Q-36.0 -6.3 -34.4 -5.8 -34.6 -2.8 -33.1 -4.5 L-32.8 -4.6 Q-32.95 -3.4 -31.6 -3.7 L-31.2 -3.75 -32.0 -0.5 -35.2 -1.3 -35.2 -2.55 -35.2 -3.75" fill="#2c323b" fill-rule="evenodd" stroke="none"/>
    <path d="M-31.2 -0.5 L-30.4 -0.5 -28.8 -0.5 -29.6 1.95 -31.2 -0.5" fill="#262d39" fill-rule="evenodd" stroke="none"/>
    <path d="M-22.4 -5.8 L-21.6 -7.85 -20.8 -7.85 Q-21.05 -7.0 -20.4 -7.05 L-20.0 -7.05 -20.0 -5.8 -20.8 -3.75 -21.15 -3.8 Q-22.3 -4.3 -22.4 -5.8" fill="#211817" fill-rule="evenodd" stroke="none"/>
    <path d="M-23.2 -12.35 L-21.6 -7.85 -22.4 -5.8 Q-23.8 -6.3 -23.25 -4.2 L-23.2 -3.75 -24.0 -7.05 -23.95 -7.45 Q-23.55 -9.55 -25.6 -9.1 L-25.6 -10.3 -23.2 -12.35" fill="#383a38" fill-rule="evenodd" stroke="none"/>
    <path d="M-25.6 -10.3 L-25.6 -9.1 -25.6 -7.05 -25.85 -6.95 Q-27.45 -4.85 -24.8 -4.6 L-27.2 -3.75 -28.8 -10.3 -27.2 -12.35 Q-27.75 -10.15 -26.0 -10.3 L-25.6 -10.3" fill="#30373d" fill-rule="evenodd" stroke="none"/>
    <path d="M-30.4 -0.5 L-29.6 -3.75 Q-30.05 -6.65 -27.45 -3.9 L-27.2 -3.75 -27.2 -2.55 -26.4 -0.5 -28.8 -0.5 -30.4 -0.5" fill="#3a3636" fill-rule="evenodd" stroke="none"/>
    <path d="M-26.4 -0.5 L-25.6 -0.5 -25.6 3.8 -24.8 4.0 -25.6 6.05 -25.55 6.45 Q-25.35 7.5 -26.4 7.25 L-26.35 6.85 Q-26.15 5.75 -27.2 6.05 L-28.8 4.0 -30.4 4.0 -30.4 2.75 Q-30.6 1.9 -30.0 1.95 L-29.6 1.95 -28.8 -0.5 -26.4 -0.5" fill="#202631" fill-rule="evenodd" stroke="none"/>
    <path d="M-23.2 -3.75 L-23.25 -4.2 Q-23.8 -6.3 -22.4 -5.8 -22.3 -4.3 -21.15 -3.8 L-20.8 -3.75 -23.2 0.75 -24.0 0.75 -23.95 0.3 Q-23.75 -0.75 -24.8 -0.5 L-24.8 -1.3 Q-23.55 -1.9 -23.25 -3.35 L-23.2 -3.75" fill="#3e3e37" fill-rule="evenodd" stroke="none"/>
    <path d="M-8.0 -24.2 Q-5.2 -24.65 -4.85 -22.55 L-4.8 -22.15 -5.6 -22.15 -6.4 -22.15 -8.0 -22.15 -8.0 -24.2" fill="#2b303d" fill-rule="evenodd" stroke="none"/>
    <path d="M-4.8 -20.95 L-4.8 -18.9 -4.8 -16.85 -6.4 -16.85 -9.6 -17.65 -8.0 -18.9 Q-5.95 -18.45 -6.35 -20.55 L-6.4 -20.95 -6.4 -22.15 -5.6 -22.15 -4.8 -20.95" fill="#2d3441" fill-rule="evenodd" stroke="none"/>
    <path d="M-8.0 -18.9 L-9.6 -17.65 -9.65 -18.05 Q-9.95 -19.3 -11.2 -17.65 L-11.6 -17.6 Q-13.15 -17.3 -12.8 -18.9 L-9.6 -20.1 -8.8 -20.1 Q-7.75 -20.4 -7.95 -19.3 L-8.0 -18.9" fill="#301810" fill-rule="evenodd" stroke="none"/>
    <path d="M-6.4 -20.95 L-6.35 -20.55 Q-5.95 -18.45 -8.0 -18.9 L-7.95 -19.3 Q-7.75 -20.4 -8.8 -20.1 L-6.4 -20.95" fill="#3e322e" fill-rule="evenodd" stroke="none"/>
    <path d="M-14.4 -22.15 L-9.6 -22.15 Q-11.05 -21.95 -9.75 -20.3 L-9.6 -20.1 -12.8 -18.9 -12.8 -19.3 Q-12.75 -20.6 -14.4 -20.1 L-14.4 -20.95 -14.4 -22.15" fill="#252c39" fill-rule="evenodd" stroke="none"/>
    <path d="M-6.4 -16.85 L-4.8 -16.85 -4.75 -16.45 Q-4.2 -14.0 -6.4 -14.4 L-6.8 -14.35 Q-8.35 -14.05 -8.0 -15.6 -6.35 -15.15 -6.4 -16.45 L-6.4 -16.85" fill="#30140d" fill-rule="evenodd" stroke="none"/>
    <path d="M-11.2 -14.4 Q-11.6 -16.65 -9.2 -15.6 L-8.8 -15.6 Q-9.1 -11.2 -7.45 -13.5 L-7.2 -13.6 -7.2 -11.15 -11.2 -11.15 -11.2 -14.4" fill="#463d2d" fill-rule="evenodd" stroke="none"/>
    <path d="M-6.4 -13.6 L-4.8 -11.15 -4.8 -9.1 -6.4 -9.1 -6.3 -9.4 Q-4.75 -11.3 -7.2 -11.15 L-7.2 -13.6 -6.4 -13.6" fill="#24252b" fill-rule="evenodd" stroke="none"/>
    <path d="M-6.4 -14.4 Q-4.2 -14.0 -4.75 -16.45 L-4.8 -16.85 -2.4 -17.65 -1.6 -13.6 Q-4.05 -14.3 -3.25 -11.55 L-3.2 -11.15 -4.8 -11.15 -6.4 -13.6 -6.4 -14.4" fill="#333439" fill-rule="evenodd" stroke="none"/>
    <path d="M0.0 -14.4 L-1.6 -13.6 -2.4 -17.65 -1.6 -17.65 -0.8 -15.6 0.0 -14.4" fill="#191616" fill-rule="evenodd" stroke="none"/>
    <path d="M-20.0 -23.4 L-19.2 -23.4 -19.2 -22.15 -20.0 -20.1 -20.8 -20.1 -20.0 -23.4" fill="#222935" fill-rule="evenodd" stroke="none"/>
    <path d="M-13.6 -18.9 L-14.4 -16.85 -16.0 -16.85 -16.0 -17.65 -16.0 -18.05 Q-16.15 -19.65 -13.6 -18.9" fill="#514731" fill-rule="evenodd" stroke="none"/>
    <path d="M-14.4 -16.85 Q-11.65 -16.2 -14.3 -13.9 L-14.4 -13.6 Q-15.5 -13.85 -15.25 -12.75 L-15.2 -12.35 -15.6 -12.3 Q-17.15 -12.0 -16.8 -13.6 L-16.8 -16.85 -16.0 -16.85 -14.4 -16.85" fill="#32373c" fill-rule="evenodd" stroke="none"/>
    <path d="M-20.8 -14.4 L-20.0 -16.85 -18.4 -16.85 -18.4 -15.6 -18.6 -15.55 Q-19.05 -14.25 -20.8 -14.4" fill="#482014" fill-rule="evenodd" stroke="none"/>
    <path d="M-18.4 -7.85 L-18.4 -10.3 -17.6 -13.6 -16.8 -13.6 Q-17.15 -12.0 -15.6 -12.3 L-15.2 -12.35 -15.2 -10.3 -15.6 -10.35 Q-16.8 -10.8 -18.4 -7.85" fill="#271b1d" fill-rule="evenodd" stroke="none"/>
    <path d="M-12.0 -14.4 L-11.2 -14.4 -11.2 -11.15 -11.2 -10.3 -12.0 -10.3 -12.8 -12.35 -12.8 -13.6 Q-12.9 -14.4 -12.4 -14.4 L-12.0 -14.4" fill="#363b3e" fill-rule="evenodd" stroke="none"/>
    <path d="M-14.4 -13.6 L-12.8 -13.6 -12.8 -12.35 -13.05 -12.25 Q-13.9 -10.45 -15.2 -12.35 L-15.25 -12.75 Q-15.5 -13.85 -14.4 -13.6" fill="#201410" fill-rule="evenodd" stroke="none"/>
    <path d="M-12.0 -10.3 L-11.2 -10.3 Q-8.8 -10.5 -9.55 -7.45 L-9.6 -7.05 -10.0 -7.05 Q-10.55 -6.9 -10.4 -5.8 L-11.2 -5.8 -11.4 -5.85 Q-11.85 -7.2 -13.6 -7.05 L-13.6 -7.85 Q-8.75 -7.6 -11.9 -10.05 L-12.0 -10.3" fill="#36160d" fill-rule="evenodd" stroke="none"/>
    <path d="M-12.0 -10.3 L-11.9 -10.05 Q-8.75 -7.6 -13.6 -7.85 L-13.6 -10.3 -12.0 -10.3" fill="#3a3a35" fill-rule="evenodd" stroke="none"/>
    <path d="M-9.6 -7.05 L-9.55 -7.45 Q-8.8 -10.5 -11.2 -10.3 L-11.2 -11.15 -7.2 -11.15 -7.3 -10.8 Q-8.95 -9.1 -6.4 -9.1 L-6.4 -7.85 -9.6 -7.05" fill="#293037" fill-rule="evenodd" stroke="none"/>
    <path d="M-15.2 -12.35 Q-13.9 -10.45 -13.05 -12.25 L-12.8 -12.35 -12.0 -10.3 -13.6 -10.3 -15.2 -10.3 -15.2 -12.35" fill="#2e3545" fill-rule="evenodd" stroke="none"/>
    <path d="M-13.6 -7.85 L-13.6 -7.05 -17.6 -5.8 -18.4 -5.8 -19.2 -5.8 -18.4 -7.85 Q-16.8 -10.8 -15.6 -10.35 L-15.2 -10.3 -13.6 -10.3 -13.6 -7.85" fill="#30363f" fill-rule="evenodd" stroke="none"/>
    <path d="M-20.0 -5.8 L-20.0 -7.05 -20.0 -7.45 Q-20.2 -10.25 -18.4 -7.85 L-19.2 -5.8 -20.0 -5.8" fill="#703014" fill-rule="evenodd" stroke="none"/>
    <path d="M-17.6 -5.8 L-13.6 -7.05 -12.8 -3.75 -12.8 -2.55 -13.0 -2.6 Q-13.45 -3.95 -15.2 -3.75 L-15.15 -4.2 Q-14.75 -5.9 -16.0 -5.8 L-17.6 -5.8" fill="#25130f" fill-rule="evenodd" stroke="none"/>
    <path d="M-19.2 -5.8 L-18.4 -5.8 -17.6 -3.75 -17.6 -2.55 -18.0 -2.55 Q-18.75 -2.35 -18.4 -1.3 L-18.4 -0.9 Q-18.35 -0.25 -19.2 -0.5 L-20.0 -0.5 -19.2 -5.8" fill="#1e100e" fill-rule="evenodd" stroke="none"/>
    <path d="M-20.8 -3.75 L-20.0 -5.8 -19.2 -5.8 -20.0 -0.5 Q-21.0 -0.75 -20.85 0.3 L-20.8 0.75 -22.4 0.75 -23.2 0.75 -20.8 -3.75" fill="#282f3b" fill-rule="evenodd" stroke="none"/>
    <path d="M-17.6 -2.55 L-15.2 -2.55 -14.4 -0.5 -17.6 1.95 -17.5 1.65 Q-15.6 -0.85 -18.4 -1.3 -18.75 -2.35 -18.0 -2.55 L-17.6 -2.55" fill="#35150b" fill-rule="evenodd" stroke="none"/>
    <path d="M-20.0 -0.5 L-19.2 -0.5 -19.2 2.75 Q-19.5 5.3 -17.95 6.0 L-17.6 6.05 -17.6 9.3 -19.2 9.3 -19.6 9.3 Q-20.25 9.35 -20.0 8.5 L-20.0 5.2 -20.8 0.75 -20.85 0.3 Q-21.0 -0.75 -20.0 -0.5" fill="#383333" fill-rule="evenodd" stroke="none"/>
    <path d="M-11.2 -5.8 L-10.4 -5.8 Q-8.5 -5.75 -8.05 -4.2 L-8.0 -3.75 -8.8 -1.3 -9.2 -1.3 Q-9.85 -1.45 -9.6 -0.5 L-11.2 -1.3 -11.2 -2.55 -11.2 -5.8" fill="#3e352a" fill-rule="evenodd" stroke="none"/>
    <path d="M-12.0 -0.5 Q-11.15 -0.25 -11.2 -0.9 L-11.2 -1.3 -9.6 -0.5 -12.0 0.75 -12.0 -0.5" fill="#1a1412" fill-rule="evenodd" stroke="none"/>
    <path d="M-12.8 -3.75 L-11.2 -2.55 -11.2 -1.3 -11.2 -0.9 Q-11.15 -0.25 -12.0 -0.5 L-12.8 -2.55 -12.8 -3.75" fill="#711804" fill-rule="evenodd" stroke="none"/>
    <path d="M-12.0 -0.5 L-12.0 0.75 Q-11.9 2.25 -10.75 2.7 L-10.4 2.75 -9.6 7.25 -9.8 7.2 Q-10.25 5.85 -12.0 6.05 L-11.95 5.65 Q-11.55 3.95 -12.8 4.0 L-12.75 3.6 Q-12.0 0.5 -14.4 0.75 L-14.4 -0.5 -12.0 -0.5" fill="#1b1310" fill-rule="evenodd" stroke="none"/>
    <path d="M-4.8 -11.15 L-3.2 -11.15 Q-3.45 -10.3 -2.8 -10.3 L-2.4 -10.3 -2.4 -9.1 -2.5 -8.7 Q-3.4 -7.15 -4.8 -9.1 L-4.8 -11.15" fill="#221813" fill-rule="evenodd" stroke="none"/>
    <path d="M-2.4 -4.6 L-2.4 -3.75 -3.2 -1.3 -4.8 -3.75 -4.8 -4.2 Q-4.75 -4.85 -5.6 -4.6 L-6.4 -7.05 Q-4.35 -6.6 -4.75 -8.65 L-4.8 -9.1 Q-3.4 -7.15 -2.5 -8.7 L-2.4 -9.1 Q-1.35 -9.35 -1.55 -8.25 L-1.6 -7.85 -2.4 -4.6" fill="#3a3c3a" fill-rule="evenodd" stroke="none"/>
    <path d="M-6.4 -9.1 L-4.8 -9.1 -4.75 -8.65 Q-4.35 -6.6 -6.4 -7.05 L-6.4 -7.85 -6.4 -9.1" fill="#1f1c20" fill-rule="evenodd" stroke="none"/>
    <path d="M-10.4 -5.8 Q-10.55 -6.9 -10.0 -7.05 L-9.6 -7.05 -6.4 -7.85 -6.4 -7.05 -5.6 -4.6 -8.0 -3.75 -8.05 -4.2 Q-8.5 -5.75 -10.4 -5.8" fill="#45160a" fill-rule="evenodd" stroke="none"/>
    <path d="M-5.6 -4.6 Q-4.75 -4.85 -4.8 -4.2 L-4.8 -3.75 -6.4 -1.3 -8.0 -1.3 -8.8 -1.3 -8.0 -3.75 -5.6 -4.6" fill="#2e3543" fill-rule="evenodd" stroke="none"/>
    <path d="M-12.0 0.75 L-9.6 -0.5 Q-9.85 -1.45 -9.2 -1.3 L-8.8 -1.3 -8.0 -1.3 -8.0 1.95 Q-9.6 1.55 -8.85 3.6 L-8.8 4.0 -10.4 2.75 -10.75 2.7 Q-11.9 2.25 -12.0 0.75" fill="#363a3d" fill-rule="evenodd" stroke="none"/>
    <path d="M-3.2 -1.3 L-6.4 -0.5 -6.4 -1.3 -4.8 -3.75 -3.2 -1.3" fill="#441e0f" fill-rule="evenodd" stroke="none"/>
    <path d="M-1.6 -0.5 L-3.2 -1.3 -2.4 -3.75 -1.6 -1.3 -1.6 -0.5" fill="#6a200a" fill-rule="evenodd" stroke="none"/>
    <path d="M-4.8 1.95 Q-4.55 -0.25 -4.05 1.55 L-4.0 1.95 -3.2 4.0 -4.0 4.0 -4.8 4.0 -4.8 1.95" fill="#2b100c" fill-rule="evenodd" stroke="none"/>
    <path d="M-6.4 0.75 L-4.8 1.95 -4.8 4.0 -5.0 4.05 Q-5.7 5.9 -8.0 6.05 L-7.2 1.95 Q-6.15 2.2 -6.35 1.15 L-6.4 0.75" fill="#30363b" fill-rule="evenodd" stroke="none"/>
    <path d="M-4.8 4.0 L-4.0 4.0 -3.2 7.25 -5.6 10.55 -6.0 10.5 Q-7.25 10.15 -8.0 9.3 -6.65 9.3 -5.7 7.8 -4.8 6.2 -4.8 4.0" fill="#2e3039" fill-rule="evenodd" stroke="none"/>
    <path d="M-8.0 6.05 Q-5.7 5.9 -5.0 4.05 L-4.8 4.0 Q-4.8 6.2 -5.7 7.8 -6.65 9.3 -8.0 9.3 L-8.8 9.3 -8.8 8.5 -8.8 7.25 -8.8 6.05 -8.0 6.05" fill="#34170e" fill-rule="evenodd" stroke="none"/>
    <path d="M-8.0 1.95 L-7.2 1.95 -8.0 6.05 -8.8 6.05 -8.8 4.0 -8.85 3.6 Q-9.6 1.55 -8.0 1.95" fill="#161211" fill-rule="evenodd" stroke="none"/>
    <path d="M-8.8 6.05 L-8.8 7.25 -9.6 7.25 -10.4 2.75 -8.8 4.0 -8.8 6.05" fill="#303645" fill-rule="evenodd" stroke="none"/>
    <path d="M-8.8 7.25 L-8.8 8.5 -9.6 8.5 -11.2 8.5 -12.0 6.05 Q-10.25 5.85 -9.8 7.2 L-9.6 7.25 -8.8 7.25" fill="#2e3444" fill-rule="evenodd" stroke="none"/>
    <path d="M-8.8 9.3 L-8.0 9.3 Q-7.25 10.15 -6.0 10.5 L-5.6 10.55 -6.4 12.6 -8.0 12.6 -8.8 9.3" fill="#471509" fill-rule="evenodd" stroke="none"/>
    <path d="M-1.6 10.55 L-4.8 13.8 -6.4 12.6 -5.6 10.55 -3.2 7.25 Q-1.15 6.8 -1.55 8.9 L-1.6 9.3 -1.6 10.55" fill="#313436" fill-rule="evenodd" stroke="none"/>
    <path d="M-17.6 1.95 L-14.4 -0.5 -14.4 0.75 -14.4 2.75 -16.0 2.75 Q-17.0 2.5 -16.85 3.6 L-16.8 4.0 -17.6 4.0 -17.6 2.75 -17.6 1.95" fill="#48372c" fill-rule="evenodd" stroke="none"/>
    <path d="M-12.8 4.0 Q-11.55 3.95 -11.95 5.65 L-12.0 6.05 -12.25 6.15 Q-13.7 9.15 -14.4 7.25 L-14.4 2.75 -12.8 4.0" fill="#454236" fill-rule="evenodd" stroke="none"/>
    <path d="M-14.4 7.25 Q-13.7 9.15 -12.25 6.15 L-12.0 6.05 -11.2 8.5 -12.8 10.55 -12.9 10.2 Q-13.8 8.6 -15.2 10.55 L-15.2 7.25 -14.4 7.25" fill="#181311" fill-rule="evenodd" stroke="none"/>
    <path d="M-14.4 7.25 L-15.2 7.25 -16.8 7.25 -16.75 6.85 Q-16.55 5.75 -17.6 6.05 L-17.6 4.0 -16.8 4.0 Q-14.65 7.55 -15.95 3.2 L-16.0 2.75 -14.4 2.75 -14.4 7.25" fill="#2d3442" fill-rule="evenodd" stroke="none"/>
    <path d="M-17.6 6.05 L-17.95 6.0 Q-19.5 5.3 -19.2 2.75 L-17.6 2.75 -17.6 4.0 -17.6 6.05" fill="#281a21" fill-rule="evenodd" stroke="none"/>
    <path d="M-17.6 9.3 L-17.6 6.05 Q-16.55 5.75 -16.75 6.85 L-16.8 7.25 -16.8 9.3 -17.6 9.3" fill="#1c0c0c" fill-rule="evenodd" stroke="none"/>
    <path d="M-15.2 7.25 L-15.2 10.55 -16.0 10.55 -16.8 10.55 -16.8 9.3 -16.8 7.25 -15.2 7.25" fill="#5a2c16" fill-rule="evenodd" stroke="none"/>
    <path d="M-20.0 8.5 Q-20.25 9.35 -19.6 9.3 L-19.2 9.3 -17.6 11.75 -16.0 13.8 -18.4 13.8 -18.6 13.75 Q-19.05 12.4 -20.8 12.6 L-20.8 9.3 Q-21.0 8.5 -20.4 8.5 L-20.0 8.5" fill="#584d29" fill-rule="evenodd" stroke="none"/>
    <path d="M-15.2 10.55 Q-13.8 8.6 -12.9 10.2 L-12.8 10.55 -13.6 12.6 -14.4 12.6 -14.45 12.35 Q-15.9 12.05 -16.0 10.55 L-15.2 10.55" fill="#251712" fill-rule="evenodd" stroke="none"/>
    <path d="M-20.0 5.2 L-20.0 8.5 -20.4 8.5 Q-21.0 8.5 -20.8 9.3 L-21.6 9.3 -20.8 5.2 -20.0 5.2" fill="#5e4624" fill-rule="evenodd" stroke="none"/>
    <path d="M-13.6 15.05 L-12.8 15.05 -12.8 15.85 -12.8 20.35 Q-13.8 20.0 -13.65 21.15 L-13.6 21.55 -15.2 22.4 -15.2 20.35 -13.6 15.05" fill="#222833" fill-rule="evenodd" stroke="none"/>
    <path d="M-14.4 15.05 L-13.6 15.05 -15.2 20.35 -16.0 19.1 -16.0 15.85 -14.4 15.05" fill="#5f4c26" fill-rule="evenodd" stroke="none"/>
    <path d="M-10.4 15.05 L-8.8 15.05 -7.2 17.05 -7.2 18.3 -8.8 19.1 -9.2 19.15 Q-10.55 19.45 -10.4 18.3 L-10.4 15.85 -10.4 15.05" fill="#2d2d31" fill-rule="evenodd" stroke="none"/>
    <path d="M-18.4 13.8 L-14.4 15.05 -16.0 15.85 -16.8 15.85 -20.8 15.05 -21.6 12.6 -20.8 12.6 Q-19.05 12.4 -18.6 13.75 L-18.4 13.8" fill="#1a1d23" fill-rule="evenodd" stroke="none"/>
    <path d="M-15.2 20.35 L-15.2 22.4 -15.2 25.65 -16.0 25.65 -17.6 24.85 -17.6 23.6 -16.8 21.55 -16.0 19.1 -15.2 20.35" fill="#242a32" fill-rule="evenodd" stroke="none"/>
    <path d="M-20.0 19.1 L-16.8 21.55 -17.6 23.6 -17.8 23.65 Q-18.5 25.55 -20.8 25.65 L-20.8 23.6 -20.0 19.1" fill="#60512b" fill-rule="evenodd" stroke="none"/>
    <path d="M-15.2 22.4 L-13.6 21.55 -12.0 22.4 -11.2 22.4 -11.2 25.65 -11.2 26.05 Q-11.15 27.35 -12.8 26.9 L-13.2 26.85 Q-14.45 26.5 -15.2 25.65 L-15.2 22.4" fill="#4c462c" fill-rule="evenodd" stroke="none"/>
    <path d="M-12.0 22.4 Q-12.0 21.5 -11.05 20.95 -10.15 20.35 -8.8 20.35 -7.15 19.85 -7.2 21.15 L-7.2 21.55 -7.2 22.4 -7.55 22.3 Q-10.1 21.35 -9.6 23.6 L-11.2 22.4 -12.0 22.4" fill="#212228" fill-rule="evenodd" stroke="none"/>
    <path d="M-4.0 15.05 L-3.2 12.6 Q-3.35 14.35 -1.2 13.85 L-0.8 13.8 -0.8 14.2 Q-0.75 16.7 -4.0 15.85 L-4.0 15.05" fill="#1d1411" fill-rule="evenodd" stroke="none"/>
    <path d="M-7.2 22.4 L-7.2 21.55 Q-5.55 22.0 -5.6 20.75 L-5.6 20.35 Q-3.95 19.85 -4.0 21.15 L-4.0 21.55 -5.6 23.6 -5.6 24.85 -6.4 24.85 -7.2 22.4" fill="#343a3e" fill-rule="evenodd" stroke="none"/>
    <path d="M-1.6 22.4 L-0.8 22.4 -2.4 25.65 -2.4 26.9 -3.2 26.9 -3.2 24.85 -1.6 22.4" fill="#1b1f26" fill-rule="evenodd" stroke="none"/>
    <path d="M-22.4 0.75 L-22.4 4.0 -24.0 4.0 -24.8 4.0 -24.0 0.75 -23.2 0.75 -22.4 0.75" fill="#2a2830" fill-rule="evenodd" stroke="none"/>
    <path d="M-25.6 6.05 L-24.8 4.0 -24.0 4.0 -22.4 9.3 -21.6 12.6 -23.2 12.6 -23.2 12.15 Q-23.2 9.9 -24.8 9.3 L-25.6 6.05" fill="#42190d" fill-rule="evenodd" stroke="none"/>
    <path d="M-22.4 4.0 L-21.6 4.0 Q-21.85 5.05 -21.2 5.15 L-20.8 5.2 -21.6 9.3 -22.4 9.3 -24.0 4.0 -22.4 4.0" fill="#31363c" fill-rule="evenodd" stroke="none"/>
    <path d="M-20.8 0.75 L-20.0 5.2 -20.8 5.2 -21.2 5.15 Q-21.85 5.05 -21.6 4.0 L-20.8 0.75" fill="#31120d" fill-rule="evenodd" stroke="none"/>
    <path d="M-27.2 9.3 L-27.3 8.95 Q-28.0 6.95 -26.4 7.25 -26.95 9.45 -25.2 9.3 L-24.8 9.3 -24.8 11.75 -24.8 12.6 -26.4 12.6 -28.0 11.75 -27.2 9.3" fill="#444237" fill-rule="evenodd" stroke="none"/>
    <path d="M-29.6 11.75 L-30.0 11.75 Q-31.5 11.3 -31.2 12.6 L-32.0 15.05 -32.8 12.6 -32.7 12.2 Q-30.95 9.15 -36.0 9.3 L-36.0 8.5 -33.6 7.25 Q-33.95 8.85 -32.4 8.55 L-32.0 8.5 Q-32.15 9.65 -30.8 9.35 L-30.4 9.3 -28.8 9.3 -29.6 11.75" fill="#252c36" fill-rule="evenodd" stroke="none"/>
    <path d="M-31.2 12.6 Q-31.5 11.3 -30.0 11.75 L-29.6 11.75 -29.6 15.3 Q-29.65 13.2 -31.2 12.6" fill="#605030" fill-rule="evenodd" stroke="none"/>
    <path d="M-36.0 19.1 L-35.2 13.8 -35.25 13.4 Q-35.45 12.3 -34.4 12.6 L-32.8 12.6 -32.0 15.05 Q-29.15 15.25 -31.6 15.8 L-32.0 15.85 Q-33.65 20.65 -29.5 17.05 L-29.6 17.05 -29.6 15.3 -29.6 11.75 -28.0 11.75 -26.4 12.6 Q-29.05 12.45 -27.45 14.9 L-27.2 15.05 Q-28.7 18.3 -25.75 17.25 L-25.6 17.05 -22.4 18.3 -24.0 20.35 -24.1 20.0 Q-25.25 17.95 -25.6 20.35 L-29.6 21.55 -29.7 21.25 Q-31.2 19.4 -32.8 21.55 L-36.0 19.1 M-28.8 9.3 L-30.4 9.3 -29.6 7.25 -28.0 6.05 -28.8 9.3" fill="#242b38" fill-rule="evenodd" stroke="none"/>
    <path d="M-30.4 2.75 L-30.4 4.0 Q-32.0 3.55 -31.25 5.65 L-31.2 6.05 -32.8 5.2 -32.8 4.0 Q-33.5 1.9 -30.8 2.75 L-30.4 2.75" fill="#2e1916" fill-rule="evenodd" stroke="none"/>
    <path d="M-32.0 8.5 L-32.4 8.55 Q-33.95 8.85 -33.6 7.25 L-33.6 6.05 Q-32.75 6.3 -32.8 5.65 L-32.8 5.2 -31.2 6.05 -31.2 7.25 -32.0 8.5" fill="#232a37" fill-rule="evenodd" stroke="none"/>
    <path d="M-38.4 6.05 L-39.2 4.0 Q-36.95 1.8 -38.3 6.05 L-38.4 6.05" fill="#15161a" fill-rule="evenodd" stroke="none"/>
    <path d="M-35.2 13.8 L-38.4 7.25 Q-36.65 7.1 -36.2 8.45 L-36.0 8.5 -36.0 9.3 -34.4 12.6 Q-35.45 12.3 -35.25 13.4 L-35.2 13.8" fill="#403f36" fill-rule="evenodd" stroke="none"/>
    <path d="M-32.0 15.05 L-31.2 12.6 Q-29.65 13.2 -29.6 15.3 L-29.6 17.05 -30.0 17.15 Q-32.15 17.6 -32.0 15.85 L-31.6 15.8 Q-29.15 15.25 -32.0 15.05" fill="#564c27" fill-rule="evenodd" stroke="none"/>
    <path d="M-33.6 23.6 L-36.0 19.1 -32.8 21.55 -32.8 22.4 -33.6 22.4 -33.6 23.6" fill="#4a4632" fill-rule="evenodd" stroke="none"/>
    <path d="M-32.8 26.9 Q-35.15 25.45 -33.7 23.85 L-33.6 23.6 Q-32.55 23.35 -32.75 24.45 L-32.8 24.85 -32.8 26.9" fill="#2a3845" fill-rule="evenodd" stroke="none"/>
    <path d="M-30.4 22.4 Q-30.6 21.5 -30.0 21.55 L-29.6 21.55 -28.8 23.6 Q-27.75 23.35 -27.95 24.45 L-28.0 24.85 -29.6 25.65 -31.2 25.65 -30.4 23.6 -30.4 22.4" fill="#3b3d39" fill-rule="evenodd" stroke="none"/>
    <path d="M-20.8 17.05 L-20.0 19.1 -20.8 19.1 -24.0 23.6 -24.0 20.35 -22.4 18.3 Q-21.35 18.55 -21.55 17.5 L-21.6 17.05 -20.8 17.05" fill="#27130d" fill-rule="evenodd" stroke="none"/>
    <path d="M-22.4 18.3 L-25.6 17.05 -26.4 15.05 -22.4 15.85 Q-21.35 15.55 -21.55 16.65 L-21.6 17.05 -21.55 17.5 Q-21.35 18.55 -22.4 18.3" fill="#29140f" fill-rule="evenodd" stroke="none"/>
    <path d="M-27.2 15.05 L-27.45 14.9 Q-29.05 12.45 -26.4 12.6 L-26.4 15.05 -27.2 15.05" fill="#302828" fill-rule="evenodd" stroke="none"/>
    <path d="M-32.0 15.85 Q-32.15 17.6 -30.0 17.15 L-29.6 17.05 -29.5 17.05 Q-33.65 20.65 -32.0 15.85" fill="#373b3c" fill-rule="evenodd" stroke="none"/>
    <path d="M-25.6 20.35 Q-25.25 17.95 -24.1 20.0 L-24.0 20.35 -24.0 23.6 -24.0 24.85 -24.8 24.85 -25.2 24.8 Q-27.1 24.5 -27.2 22.4 -25.15 22.85 -25.55 20.75 L-25.6 20.35" fill="#373a39" fill-rule="evenodd" stroke="none"/>
    <path d="M-28.8 23.6 L-29.6 21.55 -25.6 20.35 -25.55 20.75 Q-25.15 22.85 -27.2 22.4 L-27.6 22.4 Q-29.2 21.75 -28.8 23.6" fill="#5a4f27" fill-rule="evenodd" stroke="none"/>
    <path d="M-31.2 25.65 L-29.6 25.65 Q-29.55 27.1 -29.15 27.65 -28.8 28.2 -28.05 27.95 L-30.4 28.95 -31.2 25.65" fill="#53492d" fill-rule="evenodd" stroke="none"/>
    <path d="M-24.8 31.4 Q-26.25 31.85 -26.3 30.95 -26.4 29.55 -30.4 28.95 L-28.05 27.95 Q-28.8 28.2 -29.15 27.65 L-27.2 25.65 -25.6 25.65 -25.6 28.95 -24.8 31.4" fill="#4f472b" fill-rule="evenodd" stroke="none"/>
    <path d="M-3.2 24.85 L-3.2 26.9 -3.15 27.3 Q-2.95 28.35 -4.0 28.1 L-4.0 27.7 Q-3.95 26.4 -5.6 26.9 L-5.6 24.85 -5.6 23.6 Q-4.85 24.45 -3.6 24.8 L-3.2 24.85" fill="#2e160d" fill-rule="evenodd" stroke="none"/>
    <path d="M-3.2 26.9 L-2.4 26.9 -3.2 30.15 -5.6 30.15 -5.6 28.95 -4.0 28.1 Q-2.95 28.35 -3.15 27.3 L-3.2 26.9" fill="#4e472c" fill-rule="evenodd" stroke="none"/>
    <path d="M-9.6 28.95 L-8.8 28.95 -7.2 30.15 -7.2 31.4 -7.6 31.45 Q-10.3 31.9 -9.6 28.95" fill="#242b36" fill-rule="evenodd" stroke="none"/>
    <path d="M-8.8 28.95 L-9.6 28.95 -12.0 28.95 -14.4 28.95 -14.4 28.1 Q-12.75 28.55 -12.8 27.3 L-12.8 26.9 Q-11.15 27.35 -11.2 26.05 L-11.2 25.65 -10.4 25.65 -8.8 28.95" fill="#2d282d" fill-rule="evenodd" stroke="none"/>
    <path d="M-7.2 26.9 L-6.4 30.15 -7.2 30.15 -8.8 28.95 -10.4 25.65 -8.8 25.65 -7.2 26.9" fill="#584d28" fill-rule="evenodd" stroke="none"/>
    <path d="M-12.0 28.95 L-9.6 28.95 Q-10.3 31.9 -7.6 31.45 L-7.2 31.4 -6.4 33.4 Q-7.4 33.1 -7.25 34.25 L-7.2 34.65 -8.0 34.65 -11.2 33.4 -12.0 28.95" fill="#574c29" fill-rule="evenodd" stroke="none"/>
    <path d="M-14.4 28.95 L-12.0 28.95 -11.2 33.4 -10.4 36.7 -10.4 37.9 -12.8 34.65 -14.4 30.15 -14.4 28.95" fill="#2a313b" fill-rule="evenodd" stroke="none"/>
    <path d="M-17.6 28.95 L-17.85 29.05 Q-21.2 31.1 -17.6 25.65 L-17.6 28.95" fill="#271a14" fill-rule="evenodd" stroke="none"/>
    <path d="M-15.2 34.65 L-16.8 33.4 -16.0 31.4 -14.4 30.15 -15.2 34.65" fill="#3d3e34" fill-rule="evenodd" stroke="none"/>
    <path d="M-10.4 37.9 L-12.0 37.9 -15.2 34.65 -12.8 34.65 -10.4 37.9" fill="#4b4632" fill-rule="evenodd" stroke="none"/>
  </g>
</svg>
