<?xml version="1.0" encoding="UTF-8" standalone="no"?>
<svg xmlns:ffdec="https://www.free-decompiler.com/flash" xmlns:xlink="http://www.w3.org/1999/xlink" ffdec:objectType="shape" height="23.0px" width="32.9px" xmlns="http://www.w3.org/2000/svg">
  <g transform="matrix(1.0, 0.0, 0.0, 1.0, 16.45, 2.55)">
    <path d="M1.55 -0.65 L1.5 -1.2 Q1.9 -0.45 3.25 0.2 L4.25 0.25 Q5.85 0.25 6.9 -0.9 L7.75 -2.05 Q7.45 1.5 7.8 5.1 L8.55 5.25 8.9 5.0 9.8 4.35 12.45 1.2 Q13.2 0.1 14.55 0.0 L15.35 0.25 Q16.2 1.0 15.85 2.25 L15.55 2.95 Q14.3 4.95 12.45 6.45 L12.2 6.9 11.35 7.7 8.05 11.25 Q7.55 11.8 7.2 12.55 6.25 14.6 4.35 15.3 L3.6 14.7 Q3.2 14.95 3.15 15.45 L3.0 16.15 Q2.5 18.1 1.2 19.4 0.65 20.0 0.0 19.95 L0.15 19.15 0.25 15.7 Q0.25 14.3 0.5 13.05 L0.8 11.0 1.25 10.85 1.4 10.7 1.5 10.65 1.65 10.45 1.8 10.3 1.7 5.05 1.8 2.4 Q1.95 0.9 1.55 -0.65 M2.95 11.1 Q2.05 11.55 2.2 12.75 2.25 13.2 2.6 13.45 3.2 13.85 3.45 13.15 L3.65 12.05 Q3.7 11.25 2.95 11.1 M3.75 10.25 Q6.05 10.25 7.0 7.55 6.05 10.25 3.75 10.25" fill="url(#gradient0)" fill-rule="evenodd" stroke="none"/>
    <path d="M-1.5 -0.65 L-0.85 -0.9 0.0 -0.75 0.85 -0.9 1.55 -0.65 Q1.95 0.9 1.8 2.4 L1.7 5.05 1.8 10.3 1.65 10.45 1.5 10.65 1.4 10.7 1.25 10.85 0.8 11.0 0.5 13.05 Q0.25 14.3 0.25 15.7 L0.15 19.15 0.0 19.95 -0.15 19.15 -0.25 15.7 Q-0.25 14.3 -0.5 13.05 L-0.8 11.0 -1.25 10.85 -1.4 10.7 -1.5 10.65 -1.65 10.45 -1.8 10.3 -1.7 5.05 -1.8 2.4 Q-1.95 0.9 -1.5 -0.65" fill="#979a91" fill-rule="evenodd" stroke="none"/>
    <path d="M0.0 19.95 Q-0.65 20.0 -1.2 19.4 -2.5 18.1 -3.0 16.15 L-3.15 15.45 Q-3.2 14.95 -3.6 14.7 L-4.35 15.3 Q-6.25 14.6 -7.2 12.55 -7.55 11.8 -8.05 11.25 L-11.35 7.7 -12.2 6.9 -12.45 6.45 Q-14.3 4.95 -15.55 2.95 L-15.85 2.25 Q-16.2 1.0 -15.35 0.25 L-14.55 0.0 Q-13.2 0.1 -12.45 1.2 L-9.8 4.35 -8.9 5.0 -8.55 5.25 -7.8 5.1 Q-7.45 1.5 -7.75 -2.05 L-6.9 -0.9 Q-5.85 0.25 -4.25 0.25 L-3.25 0.2 Q-1.9 -0.45 -1.5 -1.2 L-1.5 -0.65 Q-1.95 0.9 -1.8 2.4 L-1.7 5.05 -1.8 10.3 -1.65 10.45 -1.5 10.65 -1.4 10.7 -1.25 10.85 -0.8 11.0 -0.5 13.05 Q-0.25 14.3 -0.25 15.7 L-0.15 19.15 0.0 19.95 M-2.95 11.1 Q-3.7 11.25 -3.65 12.05 L-3.45 13.15 Q-3.2 13.85 -2.6 13.45 -2.25 13.2 -2.2 12.75 -2.05 11.55 -2.95 11.1 M-3.75 10.25 Q-6.05 10.25 -7.0 7.55 -6.05 10.25 -3.75 10.25" fill="url(#gradient1)" fill-rule="evenodd" stroke="none"/>
    <path d="M2.95 11.1 Q3.7 11.25 3.65 12.05 L3.45 13.15 Q3.2 13.85 2.6 13.45 2.25 13.2 2.2 12.75 2.05 11.55 2.95 11.1 M-2.95 11.1 Q-2.05 11.55 -2.2 12.75 -2.25 13.2 -2.6 13.45 -3.2 13.85 -3.45 13.15 L-3.65 12.05 Q-3.7 11.25 -2.95 11.1" fill="#9c8a5c" fill-rule="evenodd" stroke="none"/>
    <path d="M-1.5 -0.65 L-0.85 -0.9 0.0 -0.75 0.85 -0.9 1.55 -0.65 1.5 -1.2 Q1.9 -0.45 3.25 0.2 L4.25 0.25 Q5.85 0.25 6.9 -0.9 L7.75 -2.05 Q7.45 1.5 7.8 5.1 L8.55 5.25 8.9 5.0 9.8 4.35 12.45 1.2 Q13.2 0.1 14.55 0.0 L15.35 0.25 Q16.2 1.0 15.85 2.25 L15.55 2.95 Q14.3 4.95 12.45 6.45 L12.2 6.9 11.35 7.7 8.05 11.25 Q7.55 11.8 7.2 12.55 6.25 14.6 4.35 15.3 L3.6 14.7 Q3.2 14.95 3.15 15.45 L3.0 16.15 Q2.5 18.1 1.2 19.4 0.65 20.0 0.0 19.95 -0.65 20.0 -1.2 19.4 -2.5 18.1 -3.0 16.15 L-3.15 15.45 Q-3.2 14.95 -3.6 14.7 L-4.35 15.3 Q-6.25 14.6 -7.2 12.55 -7.55 11.8 -8.05 11.25 L-11.35 7.7 -12.2 6.9 -12.45 6.45 Q-14.3 4.95 -15.55 2.95 L-15.85 2.25 Q-16.2 1.0 -15.35 0.25 L-14.55 0.0 Q-13.2 0.1 -12.45 1.2 L-9.8 4.35 -8.9 5.0 -8.55 5.25 -7.8 5.1 Q-7.45 1.5 -7.75 -2.05 L-6.9 -0.9 Q-5.85 0.25 -4.25 0.25 L-3.25 0.2 Q-1.9 -0.45 -1.5 -1.2 L-1.5 -0.65 Q-1.95 0.9 -1.8 2.4 L-1.7 5.05 -1.8 10.3 -1.65 10.45 -1.5 10.65 -1.4 10.7 -1.25 10.85 -0.8 11.0 -0.5 13.05 Q-0.25 14.3 -0.25 15.7 L-0.15 19.15 0.0 19.95 0.15 19.15 0.25 15.7 Q0.25 14.3 0.5 13.05 L0.8 11.0 1.25 10.85 1.4 10.7 1.5 10.65 1.65 10.45 1.8 10.3 1.7 5.05 1.8 2.4 Q1.95 0.9 1.55 -0.65 M7.0 7.55 Q6.05 10.25 3.75 10.25 M-7.0 7.55 Q-6.05 10.25 -3.75 10.25" fill="none" stroke="#101010" stroke-linecap="round" stroke-linejoin="round" stroke-width="1.0"/>
  </g>
  <defs>
    <radialGradient cx="0" cy="0" gradientTransform="matrix(-0.0214, 0.0, 0.0, 0.0214, 4.7, 3.1)" gradientUnits="userSpaceOnUse" id="gradient0" r="819.2" spreadMethod="pad">
      <stop offset="0.0" stop-color="#d5d3b5"/>
      <stop offset="0.2196078431372549" stop-color="#3c3e4c"/>
    </radialGradient>
    <radialGradient cx="0" cy="0" gradientTransform="matrix(0.0214, 0.0, 0.0, 0.0214, -4.7, 3.1)" gradientUnits="userSpaceOnUse" id="gradient1" r="819.2" spreadMethod="pad">
      <stop offset="0.0" stop-color="#d5d3b5"/>
      <stop offset="0.2196078431372549" stop-color="#3c3e4c"/>
    </radialGradient>
  </defs>
</svg>
