<?xml version="1.0" encoding="UTF-8" standalone="no"?>
<svg xmlns:ffdec="https://www.free-decompiler.com/flash" xmlns:xlink="http://www.w3.org/1999/xlink" ffdec:objectType="shape" height="16.25px" width="26.5px" xmlns="http://www.w3.org/2000/svg">
  <g transform="matrix(1.0, 0.0, 0.0, 1.0, 12.25, 7.1)">
    <path d="M5.85 -4.5 L5.85 -5.0 Q8.95 -5.35 10.75 -4.3 L10.85 -4.0 Q12.95 -4.35 13.75 -3.4 L13.85 -3.0 13.85 -2.5 13.85 -2.0 13.9 -1.5 Q15.2 5.6 11.85 8.0 L11.35 8.0 10.85 8.0 10.75 8.3 Q7.75 10.05 5.85 8.0 L5.35 8.0 -2.15 8.0 -2.25 8.45 Q-2.55 9.35 -4.15 9.0 L-4.65 9.05 Q-6.35 9.45 -6.15 8.0 L-6.65 8.0 -9.15 8.0 -9.15 7.5 -9.15 7.0 -9.6 6.9 Q-10.5 6.6 -10.15 5.0 L-10.15 4.5 -10.15 4.0 -10.15 3.5 -10.15 0.0 -10.15 -0.5 -10.15 -1.0 -10.15 -1.5 -10.15 -3.0 -9.65 -3.0 -9.15 -3.0 -9.15 -3.5 -9.15 -4.0 -7.65 -4.0 -7.15 -4.0 -6.65 -4.0 -6.15 -4.0 -6.15 -4.5 -6.15 -5.0 Q-3.55 -5.35 -2.25 -4.35 L-2.15 -4.0 5.35 -4.0 5.85 -4.0 5.85 -4.5" fill="#000000" fill-opacity="0.5019608" fill-rule="evenodd" stroke="none"/>
    <path d="M3.85 -6.0 L3.85 -6.5 3.85 -7.0 Q6.95 -7.35 8.75 -6.3 L8.85 -6.0 8.35 -6.0 6.85 -6.0 6.35 -6.0 3.85 -6.0" fill="#3d4742" fill-rule="evenodd" stroke="none"/>
    <path d="M-9.15 -6.0 L-8.65 -6.0 -8.15 -6.0 -4.65 -6.0 -4.15 -6.0 3.35 -6.0 3.85 -6.0 3.85 -5.5 3.85 -5.0 3.35 -5.0 2.85 -5.0 2.35 -5.0 1.85 -5.0 1.35 -5.0 -0.15 -5.0 -0.65 -5.0 -2.15 -5.0 -2.65 -5.0 -3.15 -5.0 -3.15 -4.5 -3.15 -4.0 -3.65 -4.0 -4.15 -4.0 -4.25 -4.35 Q-5.65 -5.45 -7.15 -4.0 L-7.25 -4.45 Q-7.55 -5.35 -9.15 -5.0 L-9.15 -5.5 -9.15 -6.0" fill="#9a0304" fill-rule="evenodd" stroke="none"/>
    <path d="M9.85 6.0 L9.35 6.0 8.85 6.0 8.85 5.5 8.85 5.0 8.85 4.5 8.85 3.0 8.85 2.5 8.85 2.0 8.85 1.5 8.85 -2.0 8.85 -2.5 8.85 -3.0 8.85 -3.5 8.85 -5.0 9.35 -5.0 9.85 -5.0 9.85 5.5 9.85 6.0 M-12.15 3.0 L-12.15 2.5 -12.15 2.0 -7.65 2.0 -7.15 2.0 -7.15 2.5 -7.15 3.0 -7.65 3.0 -10.15 3.0 -10.65 3.0 -11.15 3.0 -11.65 3.0 -12.15 3.0 M3.85 -6.0 L6.35 -6.0 6.85 -6.0 6.85 -5.5 6.85 -5.0 6.85 -4.5 6.85 -4.0 6.35 -4.0 3.85 -4.0 3.85 -4.5 3.85 -5.0 3.85 -5.5 3.85 -6.0 M-1.15 -3.0 L-1.1 -2.5 Q-0.7 -0.8 -2.15 -1.0 L-2.15 -1.5 -2.15 -3.0 -1.65 -3.0 -1.15 -3.0 M5.85 4.0 L5.35 4.0 3.85 4.0 3.85 3.5 3.85 3.0 Q5.45 2.65 5.75 3.55 L5.85 4.0 M-10.15 -4.0 L-10.15 -4.5 -10.15 -5.0 -9.65 -5.0 -9.15 -5.0 Q-7.55 -5.35 -7.25 -4.45 L-7.15 -4.0 -7.65 -4.0 -10.15 -4.0" fill="#c42204" fill-rule="evenodd" stroke="none"/>
    <path d="M3.85 -5.0 L3.85 -4.5 3.85 -4.0 3.85 -3.5 3.85 -3.0 3.4 -3.1 2.85 -3.5 2.85 -4.0 2.85 -5.0 3.35 -5.0 3.85 -5.0 M6.85 -4.0 L6.85 -4.5 6.85 -5.0 8.35 -5.0 8.85 -5.0 8.85 -3.5 8.85 -3.0 8.35 -3.0 6.85 -3.0 6.85 -3.5 6.85 -4.0 M4.85 -2.0 L5.35 -2.0 5.85 -2.0 5.85 1.0 5.85 1.5 5.85 1.75 Q4.2 1.15 4.85 -2.0 M6.85 -2.0 L7.35 -2.0 7.85 -2.0 7.85 1.5 7.85 2.0 7.4 1.9 6.85 1.5 6.85 1.0 6.85 -2.0 M8.85 3.0 L8.85 4.5 8.85 5.0 8.35 5.0 6.85 5.0 6.85 4.5 6.85 4.0 6.85 3.5 6.85 3.0 8.35 3.0 8.85 3.0 M3.85 5.0 L3.4 4.9 Q2.5 4.6 2.85 3.0 L3.35 3.0 3.85 3.0 3.85 3.5 3.85 4.0 3.85 4.5 3.85 5.0" fill="#0c0e0c" fill-rule="evenodd" stroke="none"/>
    <path d="M-11.15 -5.0 L-11.15 -5.5 -11.15 -6.0 -9.65 -6.0 -9.15 -6.0 -9.15 -5.5 -9.15 -5.0 -9.65 -5.0 -10.15 -5.0 -10.65 -5.0 -11.15 -5.0 M2.85 -5.0 L2.85 -4.0 2.85 -3.5 2.4 -3.4 1.85 -3.0 1.85 -3.5 1.85 -5.0 2.35 -5.0 2.85 -5.0 M2.85 2.0 L2.85 1.5 2.85 0.5 2.85 0.0 Q2.9 -1.55 0.85 -1.0 L0.85 0.0 0.85 0.5 0.85 0.75 Q-0.5 0.15 -0.15 -2.0 L3.35 -2.0 3.85 -2.0 3.85 -2.5 3.85 -3.0 6.35 -3.0 6.85 -3.0 6.85 -2.5 6.85 -2.0 6.35 -2.0 5.85 -2.0 5.35 -2.0 4.85 -2.0 4.35 -2.0 3.85 -2.0 3.85 1.5 3.85 2.0 3.35 2.0 2.85 2.0" fill="#5c0204" fill-rule="evenodd" stroke="none"/>
    <path d="M2.85 -3.5 L3.4 -3.1 3.85 -3.0 3.85 -2.5 3.85 -2.0 3.35 -2.0 -0.15 -2.0 Q-0.5 0.15 0.85 0.75 L0.85 0.5 2.45 0.6 2.85 0.5 2.85 1.5 2.85 2.0 2.35 2.0 Q-0.45 2.3 -2.15 1.5 L-2.15 1.0 -2.15 -1.0 Q-0.7 -0.8 -1.1 -2.5 L-1.15 -3.0 0.35 -3.0 0.85 -3.0 1.35 -3.0 1.85 -3.0 2.4 -3.4 2.85 -3.5 M-6.15 5.0 L-6.65 5.0 Q-9.4 5.25 -10.15 5.0 L-10.15 4.5 -10.15 3.0 -7.65 3.0 -7.15 3.0 Q-7.0 4.1 -6.25 4.65 L-6.15 5.0" fill="#9b0204" fill-rule="evenodd" stroke="none"/>
    <path d="M11.85 -5.0 L11.85 -4.5 11.85 -4.0 11.9 -3.5 Q13.2 3.6 9.85 6.0 L9.85 5.5 9.85 -5.0 11.35 -5.0 11.85 -5.0 M-12.15 2.0 L-12.15 1.5 -12.15 -2.0 -7.6 -2.1 -7.15 -2.0 -7.15 1.5 -7.15 2.0 -7.65 2.0 -12.15 2.0 M-12.15 -3.0 L-12.15 -3.5 -12.15 -5.0 -11.65 -5.0 -11.15 -5.0 -11.15 -3.5 -11.15 -3.0 -11.65 -3.0 -12.15 -3.0 M3.85 -4.0 L6.35 -4.0 6.85 -4.0 6.85 -3.5 6.85 -3.0 6.35 -3.0 3.85 -3.0 3.85 -3.5 3.85 -4.0 M-10.15 -3.0 L-10.15 -3.5 -10.15 -4.0 -7.65 -4.0 -7.15 -4.0 -7.15 -3.5 -7.15 -3.0 -7.65 -3.0 -10.15 -3.0" fill="#9c0204" fill-rule="evenodd" stroke="none"/>
    <path d="M1.85 -5.0 L1.85 -3.5 1.85 -3.0 1.35 -3.0 0.85 -3.0 0.75 -3.35 Q0.0 -3.9 -0.15 -5.0 L1.35 -5.0 1.85 -5.0" fill="#64626c" fill-rule="evenodd" stroke="none"/>
    <path d="M-0.15 -5.0 Q0.0 -3.9 0.75 -3.35 L0.85 -3.0 0.35 -3.0 -1.15 -3.0 -1.65 -3.0 -2.15 -3.0 -2.15 -3.5 -2.15 -5.0 -0.65 -5.0 -0.15 -5.0" fill="#7d858c" fill-rule="evenodd" stroke="none"/>
    <path d="M6.85 -6.0 L8.35 -6.0 8.85 -6.0 8.85 -5.5 8.85 -5.0 8.35 -5.0 6.85 -5.0 6.85 -5.5 6.85 -6.0 M3.85 -2.0 L4.35 -2.0 4.85 -2.0 Q4.2 1.15 5.85 1.75 L5.85 1.5 6.35 1.5 6.85 1.5 7.4 1.9 7.85 2.0 8.35 2.0 8.85 2.0 8.85 2.5 8.85 3.0 8.35 3.0 6.85 3.0 6.85 3.5 6.85 4.0 6.35 4.0 5.85 4.0 5.75 3.55 Q5.45 2.65 3.85 3.0 L3.85 2.5 3.85 2.0 3.85 1.5 3.85 -2.0" fill="#980204" fill-rule="evenodd" stroke="none"/>
    <path d="M8.85 -6.0 Q10.95 -6.35 11.75 -5.4 L11.85 -5.0 11.35 -5.0 9.85 -5.0 9.35 -5.0 8.85 -5.0 8.85 -5.5 8.85 -6.0" fill="#d4321e" fill-rule="evenodd" stroke="none"/>
    <path d="M5.85 -2.0 L6.35 -2.0 6.85 -2.0 6.85 1.0 6.85 1.5 6.35 1.5 5.85 1.5 5.85 1.0 5.85 -2.0" fill="#910204" fill-rule="evenodd" stroke="none"/>
    <path d="M6.85 -2.0 L6.85 -2.5 6.85 -3.0 8.35 -3.0 8.85 -3.0 8.85 -2.5 8.85 -2.0 8.35 -2.0 7.85 -2.0 7.35 -2.0 6.85 -2.0" fill="#900204" fill-rule="evenodd" stroke="none"/>
    <path d="M7.85 2.0 L7.85 1.5 7.85 -2.0 8.35 -2.0 8.85 -2.0 8.85 1.5 8.85 2.0 8.35 2.0 7.85 2.0" fill="#5f0204" fill-rule="evenodd" stroke="none"/>
    <path d="M-10.15 5.0 L-10.65 5.0 -11.15 5.0 -11.15 4.5 -11.15 3.0 -10.65 3.0 -10.15 3.0 -10.15 4.5 -10.15 5.0 M-11.15 -5.0 L-10.65 -5.0 -10.15 -5.0 -10.15 -4.5 -10.15 -4.0 -10.15 -3.5 -10.15 -3.0 -10.65 -3.0 -11.15 -3.0 -11.15 -3.5 -11.15 -5.0" fill="#b4c2c4" fill-rule="evenodd" stroke="none"/>
    <path d="M-12.15 -2.0 L-12.15 -2.5 -12.15 -3.0 -11.65 -3.0 -11.15 -3.0 -10.65 -3.0 -10.15 -3.0 -7.65 -3.0 -7.15 -3.0 -7.15 -2.5 -7.15 -2.0 -7.6 -2.1 -12.15 -2.0 M-2.15 1.5 Q-0.45 2.3 2.35 2.0 L2.85 2.0 3.35 2.0 3.85 2.0 3.85 2.5 3.85 3.0 3.35 3.0 2.85 3.0 2.35 3.0 1.85 3.0 1.35 3.0 -2.15 3.0 -2.15 2.5 -2.15 2.0 -2.15 1.5" fill="#8c0204" fill-rule="evenodd" stroke="none"/>
    <path d="M-8.15 -6.0 L-8.15 -6.5 -8.15 -7.0 Q-5.55 -7.35 -4.25 -6.35 L-4.15 -6.0 -4.65 -6.0 -8.15 -6.0" fill="#3c4642" fill-rule="evenodd" stroke="none"/>
    <path d="M-3.15 4.0 L-3.45 4.1 Q-4.15 5.25 -6.15 5.0 L-6.25 4.65 Q-7.0 4.1 -7.15 3.0 L-7.15 2.5 -7.15 2.0 -7.15 1.5 -7.15 -2.0 -7.15 -2.5 -7.15 -3.0 -7.15 -3.5 -7.15 -4.0 Q-5.65 -5.45 -4.25 -4.35 L-4.15 -4.0 -4.5 -3.9 Q-5.05 -3.15 -6.15 -3.0 -7.6 2.7 -2.65 2.05 L-2.15 2.0 -2.15 2.5 -2.15 3.0 -2.15 3.5 Q-2.1 4.3 -3.15 4.0" fill="#474a40" fill-rule="evenodd" stroke="none"/>
    <path d="M-2.15 -5.0 L-2.15 -3.5 -2.15 -3.0 -2.65 -3.0 Q-3.45 -2.95 -3.15 -4.0 L-3.15 -4.5 -3.15 -5.0 -2.65 -5.0 -2.15 -5.0" fill="#8f3e38" fill-rule="evenodd" stroke="none"/>
    <path d="M-2.15 -1.0 L-2.15 1.0 -2.15 1.5 -2.15 2.0 -2.65 2.05 Q-7.6 2.7 -6.15 -3.0 -5.05 -3.15 -4.5 -3.9 L-4.15 -4.0 -3.65 -4.0 -3.15 -4.0 Q-3.45 -2.95 -2.65 -3.0 L-2.15 -3.0 -2.15 -1.5 -2.15 -1.0" fill="#66666f" fill-rule="evenodd" stroke="none"/>
    <path d="M3.85 6.0 L3.35 6.0 -4.15 6.0 -4.65 6.0 -6.15 6.0 -6.65 6.0 -8.15 6.0 -8.65 6.0 -11.15 6.0 -11.15 5.5 -11.15 5.0 -10.65 5.0 -10.15 5.0 Q-9.4 5.25 -6.65 5.0 L-6.15 5.0 Q-4.15 5.25 -3.45 4.1 L-3.15 4.0 Q-0.1 6.7 1.75 3.45 L1.85 3.0 2.35 3.0 2.85 3.0 Q2.5 4.6 3.4 4.9 L3.85 5.0 6.35 5.0 6.85 5.0 8.35 5.0 8.85 5.0 8.85 5.5 8.85 6.0 8.35 6.0 3.85 6.0" fill="#600204" fill-rule="evenodd" stroke="none"/>
    <path d="M-4.15 6.0 L-4.25 6.45 Q-4.55 7.35 -6.15 7.0 L-6.15 6.5 -6.15 6.0 -4.65 6.0 -4.15 6.0" fill="#343e40" fill-rule="evenodd" stroke="none"/>
    <path d="M1.85 3.0 L1.75 3.45 Q-0.1 6.7 -3.15 4.0 -2.1 4.3 -2.15 3.5 L-2.15 3.0 1.35 3.0 1.85 3.0" fill="#444e44" fill-rule="evenodd" stroke="none"/>
    <path d="M-6.15 7.0 L-6.65 7.05 Q-8.35 7.45 -8.15 6.0 L-6.65 6.0 -6.15 6.0 -6.15 6.5 -6.15 7.0" fill="#545858" fill-rule="evenodd" stroke="none"/>
    <path d="M-11.15 5.0 L-11.6 4.9 Q-12.5 4.6 -12.15 3.0 L-11.65 3.0 -11.15 3.0 -11.15 4.5 -11.15 5.0" fill="#940204" fill-rule="evenodd" stroke="none"/>
    <path d="M6.85 4.0 L6.85 4.5 6.85 5.0 6.35 5.0 3.85 5.0 3.85 4.5 3.85 4.0 5.35 4.0 5.85 4.0 6.35 4.0 6.85 4.0" fill="#920204" fill-rule="evenodd" stroke="none"/>
    <path d="M8.85 6.0 L8.75 6.3 Q5.75 8.05 3.85 6.0 L8.35 6.0 8.85 6.0" fill="#374140" fill-rule="evenodd" stroke="none"/>
    <path d="M2.85 0.5 L2.45 0.6 0.85 0.5 0.85 0.0 0.85 -1.0 Q2.9 -1.55 2.85 0.0 L2.85 0.5" fill="#8e0204" fill-rule="evenodd" stroke="none"/>
  </g>
</svg>
