<?xml version="1.0" encoding="UTF-8" standalone="no"?>
<svg xmlns:ffdec="https://www.free-decompiler.com/flash" xmlns:xlink="http://www.w3.org/1999/xlink" ffdec:objectType="shape" height="91.05px" width="216.1px" xmlns="http://www.w3.org/2000/svg">
  <g transform="matrix(1.0, 0.0, 0.0, 1.0, 95.7, 31.0)">
    <path d="M81.7 16.05 L87.1 15.45 87.7 21.5 87.95 14.8 93.35 14.2 94.25 26.4 97.75 19.9 101.7 28.9 120.4 30.05 110.4 35.15 110.05 45.1 107.1 36.45 100.3 39.05 99.35 41.75 101.5 43.0 86.8 53.0 86.75 50.2 83.85 51.5 82.75 54.0 73.5 59.2 72.75 56.4 69.35 58.05 66.95 52.35 61.6 59.2 54.45 51.8 52.5 52.65 51.7 57.15 48.4 55.95 47.95 60.05 38.5 54.65 36.9 50.85 33.7 49.15 33.3 53.85 12.8 36.75 12.05 45.2 9.25 35.55 -0.8 30.1 17.65 28.65 20.85 19.65 25.4 30.2 27.05 15.45 32.5 14.15 33.0 21.5 33.45 16.05 39.05 16.05 39.25 23.95 39.7 18.55 45.0 17.9 45.75 34.3 47.2 18.9 55.95 18.95 56.5 22.2 59.35 20.25 64.8 22.65 64.75 18.1 72.85 18.6 75.35 22.4 75.45 18.55 80.85 17.95 81.45 23.7 81.7 16.05 M93.8 29.95 L93.55 31.55 Q96.05 30.95 93.8 29.95 M12.8 36.45 L12.55 36.35 12.55 36.6 12.7 36.6 12.8 36.45 M88.45 45.6 L88.45 45.55 88.4 45.6 88.45 45.6" fill="#000000" fill-opacity="0.2509804" fill-rule="evenodd" stroke="none"/>
    <path d="M89.85 -30.0 Q92.75 -30.0 94.8 -27.95 96.9 -25.9 96.9 -23.0 96.9 -20.15 94.8 -18.1 92.75 -16.0 89.85 -16.0 86.95 -16.0 84.85 -18.1 82.8 -20.15 82.8 -23.0 82.8 -25.9 84.85 -27.95 86.95 -30.0 89.85 -30.0 M94.8 11.9 Q92.75 14.0 89.85 14.0 86.95 14.0 84.85 11.9 82.8 9.85 82.8 7.0 82.8 4.1 84.85 2.05 86.95 0.0 89.85 0.0 92.75 0.0 94.8 2.05 96.9 4.1 96.9 7.0 96.9 9.85 94.8 11.9 M-87.65 -30.0 Q-84.75 -30.0 -82.7 -27.95 -80.6 -25.9 -80.6 -23.0 -80.6 -20.15 -82.7 -18.1 -84.75 -16.0 -87.65 -16.0 -90.55 -16.0 -92.65 -18.1 -94.7 -20.15 -94.7 -23.0 -94.7 -25.9 -92.65 -27.95 -90.55 -30.0 -87.65 -30.0 M-87.65 14.0 Q-90.55 14.0 -92.65 11.9 -94.7 9.85 -94.7 7.0 -94.7 4.1 -92.65 2.05 -90.55 0.0 -87.65 0.0 -84.75 0.0 -82.7 2.05 -80.6 4.1 -80.6 7.0 -80.6 9.85 -82.7 11.9 -84.75 14.0 -87.65 14.0" fill="#e8f8e8" fill-rule="evenodd" stroke="none"/>
    <path d="M89.85 -30.0 Q92.75 -30.0 94.8 -27.95 96.9 -25.9 96.9 -23.0 96.9 -20.15 94.8 -18.1 92.75 -16.0 89.85 -16.0 86.95 -16.0 84.85 -18.1 82.8 -20.15 82.8 -23.0 82.8 -25.9 84.85 -27.95 86.95 -30.0 89.85 -30.0 M94.8 11.9 Q92.75 14.0 89.85 14.0 86.95 14.0 84.85 11.9 82.8 9.85 82.8 7.0 82.8 4.1 84.85 2.05 86.95 0.0 89.85 0.0 92.75 0.0 94.8 2.05 96.9 4.1 96.9 7.0 96.9 9.85 94.8 11.9 M-87.65 -30.0 Q-84.75 -30.0 -82.7 -27.95 -80.6 -25.9 -80.6 -23.0 -80.6 -20.15 -82.7 -18.1 -84.75 -16.0 -87.65 -16.0 -90.55 -16.0 -92.65 -18.1 -94.7 -20.15 -94.7 -23.0 -94.7 -25.9 -92.65 -27.95 -90.55 -30.0 -87.65 -30.0 M-87.65 14.0 Q-90.55 14.0 -92.65 11.9 -94.7 9.85 -94.7 7.0 -94.7 4.1 -92.65 2.05 -90.55 0.0 -87.65 0.0 -84.75 0.0 -82.7 2.05 -80.6 4.1 -80.6 7.0 -80.6 9.85 -82.7 11.9 -84.75 14.0 -87.65 14.0 Z" fill="none" stroke="#68a0c8" stroke-linecap="round" stroke-linejoin="round" stroke-width="2.0"/>
  </g>
</svg>
