<?xml version="1.0" encoding="UTF-8" standalone="no"?>
<svg xmlns:ffdec="https://www.free-decompiler.com/flash" xmlns:xlink="http://www.w3.org/1999/xlink" ffdec:objectType="shape" height="80.65px" width="183.85px" xmlns="http://www.w3.org/2000/svg">
  <g transform="matrix(1.0, 0.0, 0.0, 1.0, 91.0, 71.0)">
    <path d="M92.5 -20.95 L92.7 -19.45 92.75 -18.7 92.85 -14.55 92.65 -12.8 92.55 -12.3 92.4 -11.45 91.9 -10.4 Q90.55 -10.75 89.85 -11.8 L88.45 -13.95 Q87.5 -15.3 87.05 -16.7 L86.95 -17.2 Q86.7 -17.7 86.7 -18.3 L86.65 -18.7 Q86.35 -20.15 86.7 -21.45 L86.75 -21.8 Q86.95 -23.1 88.0 -23.85 L88.25 -24.05 88.75 -24.3 90.75 -24.25 91.0 -24.2 Q91.5 -24.15 91.65 -23.55 L91.8 -23.35 92.05 -22.8 92.15 -22.25 92.25 -21.95 92.45 -21.3 92.5 -20.95 M88.45 -0.85 L89.85 -3.0 Q90.55 -4.05 91.9 -4.4 L92.4 -3.35 92.55 -2.5 92.65 -2.0 92.85 -0.25 92.75 3.9 92.7 4.65 92.5 6.15 92.45 6.5 92.25 7.15 92.15 7.45 92.05 8.0 91.8 8.55 91.65 8.75 Q91.5 9.35 91.0 9.4 L90.75 9.45 88.75 9.5 88.25 9.25 88.0 9.05 Q86.95 8.3 86.75 7.0 L86.7 6.65 Q86.35 5.35 86.65 3.9 L86.7 3.5 Q86.7 2.9 86.95 2.4 L87.05 1.9 Q87.5 0.5 88.45 -0.85 M-84.75 -18.7 L-84.65 -14.55 -84.85 -12.8 -84.95 -12.3 -85.1 -11.45 Q-85.2 -10.85 -85.6 -10.4 -86.95 -10.75 -87.65 -11.8 L-89.05 -13.95 Q-90.0 -15.3 -90.45 -16.7 L-90.55 -17.2 -90.8 -18.3 -90.85 -18.7 Q-91.15 -20.15 -90.8 -21.45 L-90.75 -21.8 Q-90.55 -23.1 -89.5 -23.85 L-89.25 -24.05 -88.75 -24.3 -86.75 -24.25 -86.5 -24.2 Q-86.0 -24.15 -85.85 -23.55 L-85.7 -23.35 -85.45 -22.8 -85.35 -22.25 -85.25 -21.95 -85.05 -21.3 -85.0 -20.95 -84.8 -19.45 -84.75 -18.7 M-89.05 -0.85 L-87.65 -3.0 Q-86.95 -4.05 -85.6 -4.4 -85.2 -3.95 -85.1 -3.35 L-84.95 -2.5 -84.85 -2.0 -84.65 -0.25 -84.75 3.9 -84.8 4.65 -85.0 6.15 -85.05 6.5 -85.25 7.15 -85.35 7.45 -85.45 8.0 -85.7 8.55 -85.85 8.75 Q-86.0 9.35 -86.5 9.4 L-86.75 9.45 -88.75 9.5 -89.25 9.25 -89.5 9.05 Q-90.55 8.3 -90.75 7.0 L-90.8 6.65 Q-91.15 5.35 -90.85 3.9 L-90.8 3.5 -90.55 2.4 -90.45 1.9 Q-90.0 0.5 -89.05 -0.85" fill="#606060" fill-rule="evenodd" stroke="none"/>
    <path d="M60.35 -17.1 Q55.25 -14.2 53.35 -20.75 52.15 -24.85 54.2 -28.5 64.4 -46.95 77.35 -64.1 L81.0 -71.0 Q80.15 -56.25 82.1 -41.85 82.35 -39.8 81.6 -38.4 75.05 -25.35 60.35 -17.1 M-72.35 -64.1 Q-59.4 -46.95 -49.2 -28.5 -47.15 -24.85 -48.35 -20.75 -50.25 -14.2 -55.35 -17.1 -70.05 -25.35 -76.6 -38.4 -77.35 -39.8 -77.1 -41.85 -75.15 -56.25 -76.0 -71.0 L-72.35 -64.1" fill="#404030" fill-rule="evenodd" stroke="none"/>
  </g>
</svg>
