<?xml version="1.0" encoding="UTF-8" standalone="no"?>
<svg xmlns:ffdec="https://www.free-decompiler.com/flash" xmlns:xlink="http://www.w3.org/1999/xlink" ffdec:objectType="shape" height="92.5px" width="243.05px" xmlns="http://www.w3.org/2000/svg">
  <g transform="matrix(1.0, 0.0, 0.0, 1.0, 121.5, 49.35)">
    <path d="M67.0 -48.75 Q67.5 -47.5 67.6 -46.2 L68.65 -29.4 Q69.25 -19.9 66.55 -11.3 65.9 -9.3 63.8 -8.3 59.7 -6.5 55.85 -8.35 L56.0 -17.95 Q56.45 -22.35 56.15 -26.9 L55.7 -34.1 Q55.75 -40.8 56.15 -47.5 L56.7 -48.85 67.0 -48.75" fill="url(#gradient0)" fill-rule="evenodd" stroke="none"/>
    <path d="M54.5 -46.25 Q55.0 -45.0 55.1 -43.7 L55.7 -34.1 Q55.65 -28.7 55.85 -23.35 L56.0 -17.95 Q55.45 -13.25 54.05 -8.8 53.4 -6.8 51.3 -5.8 47.2 -4.0 43.35 -5.85 L43.5 -13.05 Q43.95 -17.4 43.65 -21.9 L43.2 -29.2 Q43.2 -37.1 43.65 -45.0 L44.2 -46.35 54.5 -46.25" fill="url(#gradient1)" fill-rule="evenodd" stroke="none"/>
    <path d="M30.85 -0.85 Q31.1 -8.45 30.85 -15.85 30.45 -27.85 31.15 -40.0 L31.7 -41.35 42.0 -41.25 Q42.5 -40.0 42.6 -38.7 L43.2 -29.2 Q43.2 -25.05 43.35 -20.85 L43.5 -13.05 Q42.95 -8.3 41.55 -3.8 40.9 -1.8 38.8 -0.8 34.7 1.0 30.85 -0.85" fill="url(#gradient2)" fill-rule="evenodd" stroke="none"/>
    <path d="M-41.2 -29.2 L-40.6 -38.7 Q-40.5 -40.0 -40.0 -41.5 L-29.7 -41.35 -29.15 -40.0 Q-28.45 -27.85 -28.85 -15.85 -29.1 -8.45 -28.85 -0.85 -32.7 1.0 -36.8 -0.8 -38.9 -1.8 -39.55 -3.8 -40.95 -8.3 -41.45 -13.05 L-41.35 -20.85 Q-41.2 -25.0 -41.2 -29.2" fill="url(#gradient3)" fill-rule="evenodd" stroke="none"/>
    <path d="M-53.7 -34.1 L-53.1 -43.7 Q-53.0 -45.0 -52.5 -46.5 L-42.2 -46.35 -41.65 -45.0 Q-41.2 -37.1 -41.2 -29.2 L-41.65 -21.9 Q-41.95 -17.4 -41.45 -13.05 L-41.35 -5.85 Q-45.2 -4.0 -49.3 -5.8 -51.4 -6.8 -52.05 -8.8 -53.45 -13.25 -53.95 -17.95 L-53.85 -23.35 Q-53.65 -28.7 -53.7 -34.1" fill="url(#gradient4)" fill-rule="evenodd" stroke="none"/>
    <path d="M-53.95 -17.95 L-53.85 -8.35 Q-57.7 -6.5 -61.8 -8.3 -63.9 -9.3 -64.55 -11.3 -67.25 -19.9 -66.65 -29.4 L-65.6 -46.2 Q-65.5 -47.5 -65.0 -48.75 L-54.7 -48.85 -54.15 -47.5 Q-53.75 -40.8 -53.7 -34.1 L-54.15 -26.9 Q-54.45 -22.35 -53.95 -17.95" fill="url(#gradient5)" fill-rule="evenodd" stroke="none"/>
    <path d="M30.85 -0.85 Q34.7 1.0 38.8 -0.8 40.9 -1.8 41.55 -3.8 42.95 -8.3 43.5 -13.05 L43.35 -20.85 Q43.2 -25.05 43.2 -29.2 L42.6 -38.7 Q42.5 -40.0 42.0 -41.25 L31.7 -41.35 31.15 -40.0 Q30.45 -27.85 30.85 -15.85 31.1 -8.45 30.85 -0.85 M67.0 -48.75 L56.7 -48.85 56.15 -47.5 Q55.75 -40.8 55.7 -34.1 L56.15 -26.9 Q56.45 -22.35 56.0 -17.95 L55.85 -8.35 Q59.7 -6.5 63.8 -8.3 65.9 -9.3 66.55 -11.3 69.25 -19.9 68.65 -29.4 L67.6 -46.2 Q67.5 -47.5 67.0 -48.75 M54.5 -46.25 L44.2 -46.35 43.65 -45.0 Q43.2 -37.1 43.2 -29.2 L43.65 -21.9 Q43.95 -17.4 43.5 -13.05 L43.35 -5.85 Q47.2 -4.0 51.3 -5.8 53.4 -6.8 54.05 -8.8 55.45 -13.25 56.0 -17.95 L55.85 -23.35 Q55.65 -28.7 55.7 -34.1 L55.1 -43.7 Q55.0 -45.0 54.5 -46.25 M-53.7 -34.1 L-53.1 -43.7 Q-53.0 -45.0 -52.5 -46.5 L-42.2 -46.35 -41.65 -45.0 Q-41.2 -37.1 -41.2 -29.2 L-40.6 -38.7 Q-40.5 -40.0 -40.0 -41.5 L-29.7 -41.35 -29.15 -40.0 Q-28.45 -27.85 -28.85 -15.85 -29.1 -8.45 -28.85 -0.85 -32.7 1.0 -36.8 -0.8 -38.9 -1.8 -39.55 -3.8 -40.95 -8.3 -41.45 -13.05 L-41.35 -5.85 Q-45.2 -4.0 -49.3 -5.8 -51.4 -6.8 -52.05 -8.8 -53.45 -13.25 -53.95 -17.95 L-53.85 -8.35 Q-57.7 -6.5 -61.8 -8.3 -63.9 -9.3 -64.55 -11.3 -67.25 -19.9 -66.65 -29.4 L-65.6 -46.2 Q-65.5 -47.5 -65.0 -48.75 L-54.7 -48.85 -54.15 -47.5 Q-53.75 -40.8 -53.7 -34.1 -53.65 -28.7 -53.85 -23.35 L-53.95 -17.95 Q-54.45 -22.35 -54.15 -26.9 L-53.7 -34.1 M-41.2 -29.2 Q-41.2 -25.0 -41.35 -20.85 L-41.45 -13.05 Q-41.95 -17.4 -41.65 -21.9 L-41.2 -29.2 Z" fill="none" stroke="#101010" stroke-linecap="round" stroke-linejoin="round" stroke-width="1.0"/>
    <path d="M10.0 -35.15 L9.75 -40.9 11.25 -41.55 Q19.65 -44.65 27.25 -40.85 L28.8 -35.7 Q20.0 -39.0 11.2 -35.6 L10.0 -35.15" fill="url(#gradient6)" fill-rule="evenodd" stroke="none"/>
    <path d="M10.0 -35.15 L11.2 -35.6 Q20.0 -39.0 28.8 -35.7 L28.8 -25.25 Q19.45 -28.95 9.95 -25.7 L9.6 -25.55 9.9 -31.8 10.0 -35.15" fill="url(#gradient7)" fill-rule="evenodd" stroke="none"/>
    <path d="M28.8 -25.25 L29.2 -7.7 29.2 -7.65 20.5 -11.9 Q19.7 -13.1 20.3 -14.35 22.4 -18.75 19.55 -22.5 L18.8 -22.8 Q14.95 -24.25 12.2 -21.45 L9.35 -21.65 9.6 -25.55 9.95 -25.7 Q19.45 -28.95 28.8 -25.25" fill="url(#gradient8)" fill-rule="evenodd" stroke="none"/>
    <path d="M29.2 -7.6 L30.05 -5.85 30.1 10.0 27.3 22.95 Q27.1 26.5 23.95 28.3 L23.5 28.5 Q19.4 25.0 18.3 18.85 L17.3 18.45 12.6 26.2 Q9.5 33.6 4.65 40.0 3.55 41.5 1.75 42.0 -6.85 36.6 -10.4 26.15 L-21.2 9.7 Q-25.7 4.45 -29.4 -1.45 -29.85 -2.2 -29.9 -3.15 L-29.85 -5.45 Q-29.85 -6.85 -29.1 -7.8 -28.35 -8.8 -27.3 -8.8 L-19.95 -10.5 -16.7 -20.8 -7.75 -21.3 Q-1.2 -23.75 5.85 -23.6 L6.55 -23.55 9.35 -21.65 12.2 -21.45 Q14.95 -24.25 18.8 -22.8 L19.55 -22.5 Q22.4 -18.75 20.3 -14.35 19.7 -13.1 20.5 -11.9 L29.2 -7.65 29.2 -7.6 M1.1 -21.1 Q-2.65 -21.1 -5.25 -18.45 -7.9 -15.85 -7.9 -12.1 -7.9 -8.35 -5.25 -5.7 -2.65 -3.1 1.1 -3.1 4.85 -3.1 7.5 -5.7 10.1 -8.35 10.1 -12.1 10.1 -15.85 7.5 -18.45 4.85 -21.1 1.1 -21.1 M1.5 32.5 L-3.9 29.05 -5.4 31.4 Q-3.35 36.75 1.9 39.35 L3.65 37.65 Q8.5 33.8 6.85 28.45 L1.55 32.5 1.5 32.5 1.55 32.5 1.5 32.5" fill="url(#gradient9)" fill-rule="evenodd" stroke="none"/>
    <path d="M70.9 15.65 L71.3 18.15 53.9 28.9 53.75 23.25 57.65 21.5 60.85 20.15 70.9 15.65 M45.1 27.05 L45.75 30.9 27.25 41.3 25.8 35.65 30.9 33.4 30.95 33.35 34.4 31.6 43.65 27.85 43.65 29.15 43.65 27.85 45.1 27.05 M-23.1 34.25 L-24.2 42.65 -42.35 31.9 -42.75 25.55 -41.45 26.1 -41.35 26.15 -32.35 29.35 -27.7 31.45 -27.5 31.55 -23.1 34.25 M-52.8 20.35 L-53.45 30.25 -66.65 18.85 -66.65 15.65 -58.8 18.2 -55.25 19.2 -52.8 20.35 M5.4 -18.25 L-4.55 -18.25 -4.55 -15.85 5.4 -15.85 5.4 -18.25 M1.1 -21.1 Q4.85 -21.1 7.5 -18.45 10.1 -15.85 10.1 -12.1 10.1 -8.35 7.5 -5.7 4.85 -3.1 1.1 -3.1 -2.65 -3.1 -5.25 -5.7 -7.9 -8.35 -7.9 -12.1 -7.9 -15.85 -5.25 -18.45 -2.65 -21.1 1.1 -21.1 M6.25 -9.6 Q6.25 -10.2 4.6 -10.6 L0.65 -11.0 -3.3 -10.6 Q-4.95 -10.2 -4.95 -9.6 -4.95 -9.0 -3.3 -8.6 L0.65 -8.2 4.6 -8.6 Q6.25 -9.0 6.25 -9.6 M1.55 32.5 L6.85 28.45 Q8.5 33.8 3.65 37.65 L1.9 39.35 Q-3.35 36.75 -5.4 31.4 L-3.9 29.05 1.5 32.5 1.55 32.5 M1.9 39.35 Q1.65 38.75 1.7 37.75 L1.65 36.0 1.6 35.25 1.5 32.5 1.6 35.25 1.65 36.0 1.7 37.75 Q1.65 38.75 1.9 39.35" fill="#707870" fill-rule="evenodd" stroke="none"/>
    <path d="M78.95 6.4 L83.25 8.85 70.9 15.65 60.85 20.15 60.6 13.0 78.95 6.4 M53.75 23.25 L48.05 25.75 48.0 25.75 47.0 17.2 47.0 17.15 57.1 14.05 57.2 14.05 57.65 21.5 53.75 23.25 M25.8 35.65 L18.95 39.0 Q18.4 32.45 14.15 27.55 L12.6 26.2 17.3 18.45 18.3 18.85 Q19.4 25.0 23.5 28.5 L23.95 28.3 Q27.1 26.5 27.3 22.95 L30.9 21.8 30.9 33.35 30.9 33.4 25.8 35.65 M-14.9 27.7 L-16.35 37.2 -18.95 37.35 -23.1 34.25 -27.5 31.55 -27.55 31.45 -27.9 23.15 -14.9 27.7 M-45.85 24.1 L-52.8 20.35 -55.25 19.2 -55.45 14.35 -45.85 17.1 -45.85 24.1 M-66.65 15.65 L-77.65 7.55 -58.9 13.35 -58.8 18.2 -66.65 15.65 M5.4 -18.25 L5.4 -15.85 -4.55 -15.85 -4.55 -18.25 5.4 -18.25 M6.25 -9.6 Q6.25 -9.0 4.6 -8.6 L0.65 -8.2 -3.3 -8.6 Q-4.95 -9.0 -4.95 -9.6 -4.95 -10.2 -3.3 -10.6 L0.65 -11.0 4.6 -10.6 Q6.25 -10.2 6.25 -9.6 M34.25 20.85 L43.2 18.35 43.65 27.85 34.4 31.6 34.25 20.85 M-32.35 29.35 L-41.35 26.15 -41.35 25.9 -41.35 18.7 -32.55 21.95 -32.35 29.35" fill="#404030" fill-rule="evenodd" stroke="none"/>
    <path d="M30.05 -5.85 L67.85 -14.2 67.45 -6.8 Q60.5 4.25 46.85 7.75 L37.75 10.15 Q33.95 11.1 30.1 10.0 L30.05 -5.85" fill="url(#gradient10)" fill-rule="evenodd" stroke="none"/>
    <path d="M69.05 -24.95 L75.8 -37.35 79.35 -36.4 83.75 -24.7 Q76.8 -21.6 69.6 -24.7 L69.05 -24.95" fill="url(#gradient11)" fill-rule="evenodd" stroke="none"/>
    <path d="M69.75 -17.2 Q67.6 -20.55 68.8 -24.35 L69.05 -24.95 69.6 -24.7 Q76.8 -21.6 83.75 -24.7 L83.7 -19.35 83.5 -18.15 Q78.95 -15.35 73.5 -16.4 71.65 -16.6 70.0 -17.15 L69.75 -17.2" fill="url(#gradient12)" fill-rule="evenodd" stroke="none"/>
    <path d="M71.0 -15.15 L69.95 -17.0 70.0 -17.15 Q71.65 -16.6 73.5 -16.4 78.95 -15.35 83.5 -18.15 82.65 -11.45 76.55 -12.15 73.05 -12.3 71.0 -15.15" fill="url(#gradient13)" fill-rule="evenodd" stroke="none"/>
    <path d="M67.85 -14.2 L71.0 -15.15 Q73.05 -12.3 76.55 -12.15 82.65 -11.45 83.5 -18.15 L83.7 -19.35 85.25 -19.35 Q102.6 -20.0 119.7 -17.8 120.65 -17.85 121.05 -17.05 120.0 -14.15 117.0 -13.1 L101.1 -6.85 101.05 -6.8 94.45 -4.2 Q87.3 -3.05 81.7 0.55 L81.35 0.8 80.85 1.0 80.6 1.3 80.55 1.3 80.45 1.7 78.95 6.4 60.6 13.0 57.2 14.0 57.1 14.05 47.0 17.15 46.8 17.2 43.2 18.35 34.25 20.85 30.9 21.8 27.3 22.95 30.1 10.0 Q33.95 11.1 37.75 10.15 L46.85 7.75 Q60.5 4.25 67.45 -6.8 L67.85 -14.2" fill="url(#gradient14)" fill-rule="evenodd" stroke="none"/>
    <path d="M101.15 -6.6 L102.15 3.1 Q98.95 1.75 95.85 3.05 L95.15 3.35 94.45 -4.2 101.05 -6.8 101.15 -6.6" fill="url(#gradient15)" fill-rule="evenodd" stroke="none"/>
    <path d="M102.15 3.1 L101.6 8.25 97.8 8.55 96.9 9.3 95.15 3.35 95.85 3.05 Q98.95 1.75 102.15 3.1" fill="url(#gradient16)" fill-rule="evenodd" stroke="none"/>
    <path d="M101.6 8.25 L100.4 13.1 96.9 9.3 97.8 8.55 101.6 8.25" fill="url(#gradient17)" fill-rule="evenodd" stroke="none"/>
    <path d="M48.0 25.8 L45.1 27.05 43.65 27.85 43.2 18.35 46.8 17.2 47.0 17.2 48.0 25.75 48.0 25.8 M-42.75 25.55 L-45.85 24.1 -45.85 17.1 -41.35 18.7 -41.35 25.9 -41.45 26.1 -42.75 25.55 M30.9 21.8 L34.25 20.85 34.4 31.6 30.95 33.35 30.9 33.35 30.9 21.8 M57.2 14.0 L60.6 13.0 60.85 20.15 57.65 21.5 57.2 14.05 57.2 14.0 M-32.55 21.95 L-32.5 21.95 -27.9 23.15 -27.55 31.45 -27.7 31.45 -32.35 29.35 -32.55 21.95 M-58.9 13.35 L-55.45 14.35 -55.25 19.2 -58.8 18.2 -58.9 13.35" fill="#283040" fill-rule="evenodd" stroke="none"/>
    <path d="M-84.0 -23.8 Q-83.1 -30.85 -78.8 -36.75 L-78.0 -37.85 -74.7 -38.0 -73.3 -37.15 -69.9 -24.8 Q-76.35 -20.85 -83.8 -23.7 L-84.0 -23.8" fill="url(#gradient18)" fill-rule="evenodd" stroke="none"/>
    <path d="M-10.4 26.15 L-14.9 27.7 -27.9 23.15 -32.5 21.95 -32.55 21.95 -41.35 18.7 -45.85 17.1 -55.45 14.35 -58.9 13.35 -77.65 7.55 Q-78.3 7.7 -78.6 7.3 L-78.65 7.25 Q-80.05 5.4 -79.5 2.8 -79.45 2.65 -79.7 2.4 L-94.6 -4.4 -100.7 -6.4 -116.8 -10.6 -117.45 -11.15 -119.85 -14.4 -120.8 -16.4 Q-121.35 -18.0 -120.5 -19.1 L-84.45 -19.3 -84.5 -17.9 Q-84.75 -14.95 -82.95 -12.6 -81.2 -10.25 -78.4 -9.9 -75.6 -9.6 -73.4 -11.5 -71.2 -13.45 -70.95 -16.5 L-70.8 -17.05 -70.3 -16.9 -68.95 -16.75 Q-68.9 -14.8 -68.3 -13.0 -66.4 -6.9 -62.05 -2.2 -60.4 -0.45 -58.45 0.9 -42.0 13.05 -21.2 9.7 L-10.4 26.15 M-78.65 7.25 L-77.65 7.55 -78.65 7.25" fill="url(#gradient19)" fill-rule="evenodd" stroke="none"/>
    <path d="M-84.45 -19.3 L-84.0 -23.8 -83.8 -23.7 Q-76.35 -20.85 -69.9 -24.8 L-70.8 -17.05 -70.95 -16.5 Q-77.95 -14.1 -84.0 -17.65 L-84.5 -17.9 -84.45 -19.3" fill="url(#gradient20)" fill-rule="evenodd" stroke="none"/>
    <path d="M-84.5 -17.9 L-84.0 -17.65 Q-77.95 -14.1 -70.95 -16.5 -71.2 -13.45 -73.4 -11.5 -75.6 -9.6 -78.4 -9.9 -81.2 -10.25 -82.95 -12.6 -84.75 -14.95 -84.5 -17.9" fill="url(#gradient21)" fill-rule="evenodd" stroke="none"/>
    <path d="M-94.6 -4.4 L-94.65 2.3 -100.85 2.3 -100.7 -6.4 -94.6 -4.4" fill="url(#gradient22)" fill-rule="evenodd" stroke="none"/>
    <path d="M-68.95 -16.75 L-29.85 -5.45 -29.9 -3.15 Q-29.85 -2.2 -29.4 -1.45 -25.7 4.45 -21.2 9.7 -42.0 13.05 -58.45 0.9 -60.4 -0.45 -62.05 -2.2 -66.4 -6.9 -68.3 -13.0 -68.9 -14.8 -68.95 -16.75" fill="url(#gradient23)" fill-rule="evenodd" stroke="none"/>
    <path d="M-25.95 -34.1 L-25.35 -39.35 -7.85 -39.2 -6.95 -34.9 Q-14.9 -37.4 -23.3 -34.9 L-25.95 -34.1" fill="url(#gradient24)" fill-rule="evenodd" stroke="none"/>
    <path d="M-25.85 -24.0 L-25.95 -34.1 -23.3 -34.9 Q-14.9 -37.4 -6.95 -34.9 L-6.7 -32.7 -7.5 -24.6 Q-16.2 -26.95 -25.0 -24.2 L-25.85 -24.0" fill="url(#gradient25)" fill-rule="evenodd" stroke="none"/>
    <path d="M-27.3 -8.8 L-25.85 -24.0 -25.0 -24.2 Q-16.2 -26.95 -7.5 -24.6 L-7.75 -21.3 -16.7 -20.8 -19.95 -10.5 -27.3 -8.8" fill="url(#gradient26)" fill-rule="evenodd" stroke="none"/>
    <path d="M-94.65 2.3 L-95.55 9.0 -99.1 9.35 -100.85 2.3 -94.65 2.3" fill="url(#gradient27)" fill-rule="evenodd" stroke="none"/>
    <path d="M-95.55 9.0 L-96.0 12.9 -99.1 9.35 -95.55 9.0" fill="url(#gradient28)" fill-rule="evenodd" stroke="none"/>
    <path d="M-6.7 -32.7 L-2.65 -36.4 -1.7 -39.05 1.9 -32.7 4.0 -38.6 6.5 -34.35 9.9 -31.8 9.6 -25.55 9.35 -21.65 6.55 -23.55 5.85 -23.6 Q-1.2 -23.75 -7.75 -21.3 L-7.5 -24.6 -6.7 -32.7" fill="#979f9f" fill-rule="evenodd" stroke="none"/>
    <path d="M28.8 -35.7 L27.25 -40.85 Q19.65 -44.65 11.25 -41.55 L9.75 -40.9 10.0 -35.15 11.2 -35.6 Q20.0 -39.0 28.8 -35.7 L28.8 -25.25 29.2 -7.7 29.2 -7.6 30.05 -5.85 67.85 -14.2 71.0 -15.15 69.95 -17.0 69.75 -17.2 Q67.6 -20.55 68.8 -24.35 L69.05 -24.95 75.8 -37.35 79.35 -36.4 83.75 -24.7 83.7 -19.35 85.25 -19.35 Q102.6 -20.0 119.7 -17.8 120.65 -17.85 121.05 -17.05 120.0 -14.15 117.0 -13.1 L101.1 -6.85 101.15 -6.6 102.15 3.1 101.6 8.25 100.4 13.1 96.9 9.3 95.15 3.35 94.45 -4.2 Q87.3 -3.05 81.7 0.55 L81.35 0.8 Q80.95 1.0 80.6 1.3 80.45 1.45 80.45 1.7 L78.95 6.4 83.25 8.85 70.9 15.65 71.3 18.15 53.9 28.9 53.75 23.25 48.05 25.75 48.0 25.8 45.1 27.05 45.75 30.9 27.25 41.3 25.8 35.65 18.95 39.0 Q18.4 32.45 14.15 27.55 L12.6 26.2 Q9.5 33.6 4.65 40.0 3.55 41.5 1.75 42.0 -6.85 36.6 -10.4 26.15 L-14.9 27.7 -16.35 37.2 -18.95 37.35 -23.1 34.25 -24.2 42.65 -42.35 31.9 -42.75 25.55 -45.85 24.1 -52.8 20.35 -53.45 30.25 -66.65 18.85 -66.65 15.65 -77.65 7.55 Q-78.3 7.7 -78.6 7.3 L-78.65 7.25 Q-80.05 5.4 -79.5 2.8 -79.45 2.65 -79.7 2.4 L-94.6 -4.4 -94.65 2.3 -95.55 9.0 -96.0 12.9 -99.1 9.35 -100.85 2.3 -100.7 -6.4 -116.8 -10.6 -117.45 -11.15 -119.85 -14.4 -120.8 -16.4 Q-121.35 -18.0 -120.5 -19.1 L-84.45 -19.3 -84.0 -23.8 Q-83.1 -30.85 -78.8 -36.75 L-78.0 -37.85 -74.7 -38.0 -73.3 -37.15 -69.9 -24.8 -70.8 -17.05 -70.3 -16.9 -68.95 -16.75 -29.85 -5.45 Q-29.85 -6.85 -29.1 -7.8 -28.35 -8.8 -27.3 -8.8 L-25.85 -24.0 -25.95 -34.1 -25.35 -39.35 -7.85 -39.2 -6.95 -34.9 -6.7 -32.7 -2.65 -36.4 -1.7 -39.05 1.9 -32.7 4.0 -38.6 6.5 -34.35 9.9 -31.8 10.0 -35.15 M9.6 -25.55 L9.95 -25.7 Q19.45 -28.95 28.8 -25.25 M9.9 -31.8 L9.6 -25.55 9.35 -21.65 12.2 -21.45 Q14.95 -24.25 18.8 -22.8 L19.55 -22.5 Q22.4 -18.75 20.3 -14.35 19.7 -13.1 20.5 -11.9 L29.2 -7.65 29.2 -7.6 M-7.75 -21.3 Q-1.2 -23.75 5.85 -23.6 L6.55 -23.55 9.35 -21.65 M70.0 -17.15 L69.75 -17.2 M83.5 -18.15 Q82.65 -11.45 76.55 -12.15 73.05 -12.3 71.0 -15.15 M70.0 -17.15 Q71.65 -16.6 73.5 -16.4 78.95 -15.35 83.5 -18.15 L83.7 -19.35 M67.85 -14.2 L67.45 -6.8 Q60.5 4.25 46.85 7.75 L37.75 10.15 Q33.95 11.1 30.1 10.0 L27.3 22.95 30.9 21.8 34.25 20.85 43.2 18.35 46.8 17.2 47.0 17.15 57.1 14.05 57.2 14.0 60.6 13.0 78.95 6.4 M83.75 -24.7 Q76.8 -21.6 69.6 -24.7 L69.05 -24.95 M94.45 -4.2 L101.05 -6.8 101.1 -6.85 M101.6 8.25 L97.8 8.55 96.9 9.3 M95.15 3.35 L95.85 3.05 Q98.95 1.75 102.15 3.1 M70.9 15.65 L60.85 20.15 57.65 21.5 53.75 23.25 M80.45 1.7 L80.55 1.3 80.6 1.3 80.85 1.0 81.35 0.8 M47.0 17.15 L47.0 17.2 48.0 25.75 48.0 25.8 M57.2 14.05 L57.65 21.5 M57.2 14.05 L57.2 14.0 M43.65 27.85 L43.65 29.15 M45.1 27.05 L43.65 27.85 43.2 18.35 M60.85 20.15 L60.6 13.0 M27.3 22.95 Q27.1 26.5 23.95 28.3 L23.5 28.5 Q19.4 25.0 18.3 18.85 L17.3 18.45 12.6 26.2 M34.4 31.6 L30.95 33.35 30.9 33.4 25.8 35.65 M30.9 33.4 L30.9 33.35 30.9 21.8 M34.25 20.85 L34.4 31.6 43.65 27.85 M30.05 -5.85 L30.1 10.0 M-100.7 -6.4 L-94.6 -4.4 M-84.0 -23.8 L-83.8 -23.7 Q-76.35 -20.85 -69.9 -24.8 M-84.45 -19.3 L-84.5 -17.9 -84.0 -17.65 Q-77.95 -14.1 -70.95 -16.5 L-70.8 -17.05 M-84.5 -17.9 Q-84.75 -14.95 -82.95 -12.6 -81.2 -10.25 -78.4 -9.9 -75.6 -9.6 -73.4 -11.5 -71.2 -13.45 -70.95 -16.5 M-68.95 -16.75 Q-68.9 -14.8 -68.3 -13.0 -66.4 -6.9 -62.05 -2.2 -60.4 -0.45 -58.45 0.9 -42.0 13.05 -21.2 9.7 -25.7 4.45 -29.4 -1.45 -29.85 -2.2 -29.9 -3.15 L-29.85 -5.45 M-6.95 -34.9 Q-14.9 -37.4 -23.3 -34.9 L-25.95 -34.1 M-25.85 -24.0 L-25.0 -24.2 Q-16.2 -26.95 -7.5 -24.6 L-6.7 -32.7 M-7.75 -21.3 L-7.5 -24.6 M-27.3 -8.8 L-19.95 -10.5 -16.7 -20.8 -7.75 -21.3 M-32.5 21.95 L-32.55 21.95 -32.35 29.35 -41.35 26.15 -41.45 26.1 -42.75 25.55 M-32.5 21.95 L-27.9 23.15 -14.9 27.7 M-27.55 31.45 L-27.9 23.15 M-27.5 31.55 L-23.1 34.25 M-27.55 31.45 L-27.5 31.55 -27.7 31.45 -32.35 29.35 M-10.4 26.15 L-21.2 9.7 M-58.9 13.35 L-55.45 14.35 -45.85 17.1 -41.35 18.7 -32.55 21.95 M-55.45 14.35 L-55.25 19.2 -52.8 20.35 M-55.25 19.2 L-58.8 18.2 -66.65 15.65 M-58.8 18.2 L-58.9 13.35 -77.65 7.55 -78.65 7.25 M-45.85 24.1 L-45.85 17.1 M-41.35 26.15 L-41.35 25.9 -41.35 18.7 M-99.1 9.35 L-95.55 9.0 M-94.65 2.3 L-100.85 2.3" fill="none" stroke="#101010" stroke-linecap="round" stroke-linejoin="round" stroke-width="1.0"/>
    <path d="M1.1 -21.1 Q-2.65 -21.1 -5.25 -18.45 -7.9 -15.85 -7.9 -12.1 -7.9 -8.35 -5.25 -5.7 -2.65 -3.1 1.1 -3.1 4.85 -3.1 7.5 -5.7 10.1 -8.35 10.1 -12.1 10.1 -15.85 7.5 -18.45 4.85 -21.1 1.1 -21.1 M1.55 32.5 L6.85 28.45 Q8.5 33.8 3.65 37.65 L1.9 39.35 Q-3.35 36.75 -5.4 31.4 L-3.9 29.05 1.5 32.5 1.55 32.5 M1.5 32.5 L1.6 35.25 1.65 36.0 1.7 37.75 Q1.65 38.75 1.9 39.35" fill="none" stroke="#101010" stroke-linecap="round" stroke-linejoin="round" stroke-width="1.0"/>
  </g>
  <defs>
    <linearGradient gradientTransform="matrix(0.008, 0.0, 0.0, 0.0253, 62.2, -28.15)" gradientUnits="userSpaceOnUse" id="gradient0" spreadMethod="pad" x1="-819.2" x2="819.2">
      <stop offset="0.08627450980392157" stop-color="#232523"/>
      <stop offset="0.20392156862745098" stop-color="#707870"/>
      <stop offset="0.796078431372549" stop-color="#707870"/>
      <stop offset="0.9137254901960784" stop-color="#232523"/>
    </linearGradient>
    <linearGradient gradientTransform="matrix(0.0078, 0.0, 0.0, 0.0253, 49.6, -25.65)" gradientUnits="userSpaceOnUse" id="gradient1" spreadMethod="pad" x1="-819.2" x2="819.2">
      <stop offset="0.08627450980392157" stop-color="#232523"/>
      <stop offset="0.20392156862745098" stop-color="#707870"/>
      <stop offset="0.796078431372549" stop-color="#707870"/>
      <stop offset="0.9137254901960784" stop-color="#232523"/>
    </linearGradient>
    <linearGradient gradientTransform="matrix(0.0078, 0.0, 0.0, 0.0253, 37.1, -20.65)" gradientUnits="userSpaceOnUse" id="gradient2" spreadMethod="pad" x1="-819.2" x2="819.2">
      <stop offset="0.08627450980392157" stop-color="#232523"/>
      <stop offset="0.20392156862745098" stop-color="#707870"/>
      <stop offset="0.796078431372549" stop-color="#707870"/>
      <stop offset="0.9137254901960784" stop-color="#232523"/>
    </linearGradient>
    <linearGradient gradientTransform="matrix(0.0078, 0.0, 0.0, 0.0254, -35.1, -20.7)" gradientUnits="userSpaceOnUse" id="gradient3" spreadMethod="pad" x1="-819.2" x2="819.2">
      <stop offset="0.08627450980392157" stop-color="#232523"/>
      <stop offset="0.20392156862745098" stop-color="#707870"/>
      <stop offset="0.796078431372549" stop-color="#707870"/>
      <stop offset="0.9137254901960784" stop-color="#232523"/>
    </linearGradient>
    <linearGradient gradientTransform="matrix(0.0078, 0.0, 0.0, 0.0254, -47.6, -25.7)" gradientUnits="userSpaceOnUse" id="gradient4" spreadMethod="pad" x1="-819.2" x2="819.2">
      <stop offset="0.08627450980392157" stop-color="#232523"/>
      <stop offset="0.20392156862745098" stop-color="#707870"/>
      <stop offset="0.796078431372549" stop-color="#707870"/>
      <stop offset="0.9137254901960784" stop-color="#232523"/>
    </linearGradient>
    <linearGradient gradientTransform="matrix(0.008, 0.0, 0.0, 0.0253, -60.25, -28.15)" gradientUnits="userSpaceOnUse" id="gradient5" spreadMethod="pad" x1="-819.2" x2="819.2">
      <stop offset="0.08627450980392157" stop-color="#232523"/>
      <stop offset="0.20392156862745098" stop-color="#707870"/>
      <stop offset="0.796078431372549" stop-color="#707870"/>
      <stop offset="0.9137254901960784" stop-color="#232523"/>
    </linearGradient>
    <linearGradient gradientTransform="matrix(0.0118, 0.0, 0.0, 0.0047, 19.1, -39.0)" gradientUnits="userSpaceOnUse" id="gradient6" spreadMethod="pad" x1="-819.2" x2="819.2">
      <stop offset="0.0" stop-color="#4f574d"/>
      <stop offset="0.5215686274509804" stop-color="#b8d0d8"/>
      <stop offset="1.0" stop-color="#4f574d"/>
    </linearGradient>
    <linearGradient gradientTransform="matrix(0.0118, 0.0, 0.0, 0.0072, 19.25, -31.15)" gradientUnits="userSpaceOnUse" id="gradient7" spreadMethod="pad" x1="-819.2" x2="819.2">
      <stop offset="0.0" stop-color="#605030"/>
      <stop offset="0.5215686274509804" stop-color="#e0e0b8"/>
      <stop offset="1.0" stop-color="#605030"/>
    </linearGradient>
    <linearGradient gradientTransform="matrix(0.0121, 0.0, 0.0, 0.0119, 19.25, -17.4)" gradientUnits="userSpaceOnUse" id="gradient8" spreadMethod="pad" x1="-819.2" x2="819.2">
      <stop offset="0.0" stop-color="#4f574d"/>
      <stop offset="0.5215686274509804" stop-color="#b8d0d8"/>
      <stop offset="1.0" stop-color="#4f574d"/>
    </linearGradient>
    <linearGradient gradientTransform="matrix(0.0, -0.0401, 0.037, 0.0, 0.35, 9.2)" gradientUnits="userSpaceOnUse" id="gradient9" spreadMethod="pad" x1="-819.2" x2="819.2">
      <stop offset="0.09411764705882353" stop-color="#404030"/>
      <stop offset="0.6980392156862745" stop-color="#b0b8b0"/>
    </linearGradient>
    <linearGradient gradientTransform="matrix(0.0232, 0.0, 0.0, 0.0151, 49.05, -1.85)" gradientUnits="userSpaceOnUse" id="gradient10" spreadMethod="pad" x1="-819.2" x2="819.2">
      <stop offset="0.0" stop-color="#707870"/>
      <stop offset="1.0" stop-color="#d8d8b8"/>
    </linearGradient>
    <linearGradient gradientTransform="matrix(0.009, 0.0, 0.0, 0.0087, 76.4, -30.35)" gradientUnits="userSpaceOnUse" id="gradient11" spreadMethod="pad" x1="-819.2" x2="819.2">
      <stop offset="0.0" stop-color="#4f574d"/>
      <stop offset="0.5215686274509804" stop-color="#b8d0d8"/>
      <stop offset="1.0" stop-color="#4f574d"/>
    </linearGradient>
    <linearGradient gradientTransform="matrix(0.0096, 0.0, 0.0, 0.0051, 75.95, -20.75)" gradientUnits="userSpaceOnUse" id="gradient12" spreadMethod="pad" x1="-819.2" x2="819.2">
      <stop offset="0.0" stop-color="#605030"/>
      <stop offset="0.5215686274509804" stop-color="#e0e0b8"/>
      <stop offset="1.0" stop-color="#605030"/>
    </linearGradient>
    <linearGradient gradientTransform="matrix(0.0083, 0.0, 0.0, 0.0038, 76.7, -15.0)" gradientUnits="userSpaceOnUse" id="gradient13" spreadMethod="pad" x1="-819.2" x2="819.2">
      <stop offset="0.0" stop-color="#4f574d"/>
      <stop offset="0.5215686274509804" stop-color="#b8d0d8"/>
      <stop offset="1.0" stop-color="#4f574d"/>
    </linearGradient>
    <linearGradient gradientTransform="matrix(0.0, 0.0258, -0.0572, 0.0, 74.15, 1.8)" gradientUnits="userSpaceOnUse" id="gradient14" spreadMethod="pad" x1="-819.2" x2="819.2">
      <stop offset="0.0" stop-color="#485048"/>
      <stop offset="1.0" stop-color="#989898"/>
    </linearGradient>
    <linearGradient gradientTransform="matrix(0.0048, 0.0, 0.0, 0.0062, 98.4, -1.75)" gradientUnits="userSpaceOnUse" id="gradient15" spreadMethod="pad" x1="-819.2" x2="819.2">
      <stop offset="0.0" stop-color="#4f574d"/>
      <stop offset="0.5215686274509804" stop-color="#b8d0d8"/>
      <stop offset="1.0" stop-color="#4f574d"/>
    </linearGradient>
    <linearGradient gradientTransform="matrix(0.0043, 0.0, 0.0, 0.0042, 98.65, 5.8)" gradientUnits="userSpaceOnUse" id="gradient16" spreadMethod="pad" x1="-819.2" x2="819.2">
      <stop offset="0.0" stop-color="#605030"/>
      <stop offset="0.5215686274509804" stop-color="#e0e0b8"/>
      <stop offset="1.0" stop-color="#605030"/>
    </linearGradient>
    <linearGradient gradientTransform="matrix(0.0029, 0.0, 0.0, 0.003, 99.25, 10.65)" gradientUnits="userSpaceOnUse" id="gradient17" spreadMethod="pad" x1="-819.2" x2="819.2">
      <stop offset="0.0" stop-color="#4f574d"/>
      <stop offset="0.5215686274509804" stop-color="#b8d0d8"/>
      <stop offset="1.0" stop-color="#4f574d"/>
    </linearGradient>
    <linearGradient gradientTransform="matrix(0.0086, 0.0, 0.0, 0.0096, -76.95, -30.35)" gradientUnits="userSpaceOnUse" id="gradient18" spreadMethod="pad" x1="-819.2" x2="819.2">
      <stop offset="0.0" stop-color="#4f574d"/>
      <stop offset="0.5215686274509804" stop-color="#b8d0d8"/>
      <stop offset="1.0" stop-color="#4f574d"/>
    </linearGradient>
    <linearGradient gradientTransform="matrix(0.0, 0.0289, -0.0675, 0.0, -65.7, 4.05)" gradientUnits="userSpaceOnUse" id="gradient19" spreadMethod="pad" x1="-819.2" x2="819.2">
      <stop offset="0.0" stop-color="#485048"/>
      <stop offset="1.0" stop-color="#989898"/>
    </linearGradient>
    <linearGradient gradientTransform="matrix(0.0089, 0.0, 0.0, 0.0055, -77.2, -20.35)" gradientUnits="userSpaceOnUse" id="gradient20" spreadMethod="pad" x1="-819.2" x2="819.2">
      <stop offset="0.0" stop-color="#605030"/>
      <stop offset="0.5215686274509804" stop-color="#e0e0b8"/>
      <stop offset="1.0" stop-color="#605030"/>
    </linearGradient>
    <linearGradient gradientTransform="matrix(0.0083, 0.0, 0.0, 0.0045, -77.75, -14.25)" gradientUnits="userSpaceOnUse" id="gradient21" spreadMethod="pad" x1="-819.2" x2="819.2">
      <stop offset="0.0" stop-color="#4f574d"/>
      <stop offset="0.5215686274509804" stop-color="#b8d0d8"/>
      <stop offset="1.0" stop-color="#4f574d"/>
    </linearGradient>
    <linearGradient gradientTransform="matrix(0.0038, 0.0, 0.0, 0.0053, -97.75, -2.05)" gradientUnits="userSpaceOnUse" id="gradient22" spreadMethod="pad" x1="-819.2" x2="819.2">
      <stop offset="0.0" stop-color="#4f574d"/>
      <stop offset="0.5215686274509804" stop-color="#b8d0d8"/>
      <stop offset="1.0" stop-color="#4f574d"/>
    </linearGradient>
    <linearGradient gradientTransform="matrix(-0.0291, 0.0, 0.0, -0.0165, -45.05, -3.25)" gradientUnits="userSpaceOnUse" id="gradient23" spreadMethod="pad" x1="-819.2" x2="819.2">
      <stop offset="0.0" stop-color="#707870"/>
      <stop offset="1.0" stop-color="#d8d8b8"/>
    </linearGradient>
    <linearGradient gradientTransform="matrix(0.0117, 0.0, 0.0, 0.0035, -16.5, -37.0)" gradientUnits="userSpaceOnUse" id="gradient24" spreadMethod="pad" x1="-819.2" x2="819.2">
      <stop offset="0.0" stop-color="#4f574d"/>
      <stop offset="0.5215686274509804" stop-color="#b8d0d8"/>
      <stop offset="1.0" stop-color="#4f574d"/>
    </linearGradient>
    <linearGradient gradientTransform="matrix(0.0119, 0.0, 0.0, 0.0073, -16.4, -29.95)" gradientUnits="userSpaceOnUse" id="gradient25" spreadMethod="pad" x1="-819.2" x2="819.2">
      <stop offset="0.0" stop-color="#605030"/>
      <stop offset="0.5215686274509804" stop-color="#e0e0b8"/>
      <stop offset="1.0" stop-color="#605030"/>
    </linearGradient>
    <linearGradient gradientTransform="matrix(0.0121, 0.0, 0.0, 0.0103, -17.4, -17.2)" gradientUnits="userSpaceOnUse" id="gradient26" spreadMethod="pad" x1="-819.2" x2="819.2">
      <stop offset="0.0" stop-color="#4f574d"/>
      <stop offset="0.5215686274509804" stop-color="#b8d0d8"/>
      <stop offset="1.0" stop-color="#4f574d"/>
    </linearGradient>
    <linearGradient gradientTransform="matrix(0.0038, 0.0, 0.0, 0.0045, -97.75, 5.6)" gradientUnits="userSpaceOnUse" id="gradient27" spreadMethod="pad" x1="-819.2" x2="819.2">
      <stop offset="0.0" stop-color="#605030"/>
      <stop offset="0.5215686274509804" stop-color="#e0e0b8"/>
      <stop offset="1.0" stop-color="#605030"/>
    </linearGradient>
    <linearGradient gradientTransform="matrix(0.0022, 0.0, 0.0, 0.0027, -97.35, 11.15)" gradientUnits="userSpaceOnUse" id="gradient28" spreadMethod="pad" x1="-819.2" x2="819.2">
      <stop offset="0.0" stop-color="#4f574d"/>
      <stop offset="0.5215686274509804" stop-color="#b8d0d8"/>
      <stop offset="1.0" stop-color="#4f574d"/>
    </linearGradient>
  </defs>
</svg>
