<?xml version="1.0" encoding="UTF-8" standalone="no"?>
<svg xmlns:ffdec="https://www.free-decompiler.com/flash" xmlns:xlink="http://www.w3.org/1999/xlink" ffdec:objectType="shape" height="20.0px" width="264.0px" xmlns="http://www.w3.org/2000/svg">
  <g transform="matrix(1.0, 0.0, 0.0, 1.0, -23.0, -315.0)">
    <path d="M25.95 317.95 Q28.5 315.35 32.1 315.05 L32.45 315.0 33.0 315.0 277.0 315.0 277.55 315.0 277.95 315.05 Q281.5 315.35 284.1 317.95 286.95 320.8 287.0 324.75 L287.0 325.15 287.0 325.25 Q286.9 329.25 284.1 332.1 281.15 335.0 277.0 335.0 L33.0 335.0 Q28.85 335.0 25.95 332.1 23.1 329.25 23.0 325.25 L23.0 325.15 23.0 324.8 23.0 324.75 Q23.05 320.8 25.95 317.95" fill="#000000" fill-opacity="0.5019608" fill-rule="evenodd" stroke="none"/>
  </g>
</svg>
