<?xml version="1.0" encoding="UTF-8" standalone="no"?>
<svg xmlns:ffdec="https://www.free-decompiler.com/flash" xmlns:xlink="http://www.w3.org/1999/xlink" ffdec:objectType="shape" height="21.6px" width="23.55px" xmlns="http://www.w3.org/2000/svg">
  <g transform="matrix(1.0, 0.0, 0.0, 1.0, 11.8, 10.8)">
    <path d="M5.3 6.75 L8.3 6.75 8.3 7.75 5.3 7.75 5.3 6.75 M-10.7 -4.25 L-10.7 -0.25 -11.1 -0.8 Q-12.0 -2.4 -11.7 -4.25 L-10.7 -4.25" fill="#686870" fill-rule="evenodd" stroke="none"/>
    <path d="M8.3 7.75 L8.3 9.25 5.3 9.25 5.3 7.75 8.3 7.75 M0.3 7.75 L0.3 9.25 -2.7 9.25 -2.7 7.75 0.3 7.75 M-10.7 -0.25 L-10.7 -4.25 -8.7 -5.25 -8.7 -4.25 -8.7 -2.75 -9.7 -2.75 -9.5 -1.4 -8.7 -1.25 -8.7 -0.25 -8.7 1.25 -10.7 -0.25" fill="#384048" fill-rule="evenodd" stroke="none"/>
    <path d="M9.3 -9.25 L5.3 -9.25 -0.7 -9.25 -4.7 -9.25 -4.7 -10.75 0.25 -10.8 Q5.0 -10.8 9.3 -9.25 M9.3 -0.25 L11.3 -0.25 11.3 1.25 7.3 1.25 7.3 -0.25 9.3 -0.25 M-0.7 -2.75 L0.05 -2.5 0.35 -2.0 0.05 -1.45 -0.7 -1.25 -5.7 -1.25 Q-5.3 -0.95 -4.8 -0.75 -2.85 0.45 -0.7 -0.25 L-0.4 0.75 Q-1.8 1.8 -3.7 1.55 L-4.7 1.25 -5.7 1.25 -5.7 5.25 -6.15 5.15 -6.7 2.75 -6.7 1.25 -6.7 -0.25 -6.7 -4.25 -6.7 -6.75 -6.7 -9.25 -4.7 -9.25 -4.7 -8.25 -5.7 -8.25 -5.7 -4.25 -4.8 -2.9 -0.7 -2.75" fill="#202010" fill-rule="evenodd" stroke="none"/>
    <path d="M-4.7 -9.25 L-0.7 -9.25 0.2 -8.65 Q2.1 -7.6 4.3 -8.25 1.75 -6.05 -1.75 -6.5 L-2.7 -6.75 -2.55 -7.75 -2.75 -8.15 -3.7 -8.25 -4.7 -8.25 -4.7 -9.25" fill="#493a28" fill-rule="evenodd" stroke="none"/>
    <path d="M-0.7 -1.25 L0.05 -1.45 0.35 -2.0 0.05 -2.5 -0.7 -2.75 -0.95 -3.6 Q-2.6 -4.85 -4.7 -4.25 L-4.7 -8.25 -3.7 -8.25 -3.45 -5.65 -2.7 -6.75 -1.75 -6.5 Q1.75 -6.05 4.3 -8.25 L5.3 -8.25 5.3 -5.25 4.3 -5.25 4.3 1.25 4.85 1.9 Q5.6 2.9 5.3 3.75 L-0.7 3.75 -0.85 3.45 -1.3 3.4 -2.7 3.75 -2.7 5.25 -3.7 5.25 -3.7 6.75 -4.7 6.75 -4.7 1.25 -3.7 1.55 Q-1.8 1.8 -0.4 0.75 L-0.7 -0.25 -0.7 -1.25" fill="#4f4628" fill-rule="evenodd" stroke="none"/>
    <path d="M5.3 -9.25 L5.3 -8.25 4.3 -8.25 Q2.1 -7.6 0.2 -8.65 L-0.7 -9.25 5.3 -9.25 M-2.7 -6.75 L-3.45 -5.65 -3.7 -8.25 -2.75 -8.15 -2.55 -7.75 -2.7 -6.75 M5.3 -5.25 L5.3 1.25 4.3 1.25 4.3 -5.25 5.3 -5.25" fill="#706860" fill-rule="evenodd" stroke="none"/>
    <path d="M-6.7 -6.75 L-6.7 -4.25 -8.7 -4.25 -8.7 -5.25 -6.7 -6.75" fill="#939a99" fill-rule="evenodd" stroke="none"/>
    <path d="M-6.7 -0.25 L-6.7 1.25 -8.7 1.25 -8.7 -0.25 -6.7 -0.25 M-8.7 -1.25 L-9.5 -1.4 -9.7 -2.75 -8.7 -2.75 -7.95 -2.5 -7.65 -2.0 Q-7.65 -1.7 -7.95 -1.45 L-8.7 -1.25" fill="#9ca8ac" fill-rule="evenodd" stroke="none"/>
    <path d="M-6.7 -4.25 L-6.7 -0.25 -8.7 -0.25 -8.7 -1.25 -7.95 -1.45 Q-7.65 -1.7 -7.65 -2.0 L-7.95 -2.5 -8.7 -2.75 -8.7 -4.25 -6.7 -4.25" fill="#2b3341" fill-rule="evenodd" stroke="none"/>
    <path d="M-0.7 -2.75 L-4.8 -2.9 -5.7 -4.25 -4.7 -4.25 Q-2.6 -4.85 -0.95 -3.6 L-0.7 -2.75 M-0.7 -0.25 Q-2.85 0.45 -4.8 -0.75 -5.3 -0.95 -5.7 -1.25 L-0.7 -1.25 -0.7 -0.25" fill="#706b63" fill-rule="evenodd" stroke="none"/>
    <path d="M-5.7 -4.25 L-5.7 -8.25 -4.7 -8.25 -4.7 -4.25 -5.7 -4.25" fill="#483828" fill-rule="evenodd" stroke="none"/>
    <path d="M5.3 -9.25 L9.3 -9.25 10.6 -7.8 Q11.45 -6.8 11.65 -5.3 12.0 -2.7 11.3 -0.25 L9.3 -0.25 7.3 -5.25 Q7.3 -6.5 6.75 -7.35 6.15 -8.25 5.3 -8.25 L5.3 -9.25" fill="#4f4728" fill-rule="evenodd" stroke="none"/>
    <path d="M5.3 -8.25 Q6.15 -8.25 6.75 -7.35 7.3 -6.5 7.3 -5.25 L6.3 -5.25 5.3 -5.25 5.3 -8.25" fill="#655d4d" fill-rule="evenodd" stroke="none"/>
    <path d="M6.3 -5.25 L7.3 -5.25 7.3 -1.25 6.65 -2.4 Q6.0 -3.7 6.3 -5.25" fill="#504828" fill-rule="evenodd" stroke="none"/>
    <path d="M7.3 -5.25 L9.3 -0.25 7.3 -0.25 7.3 -1.25 7.3 -5.25" fill="#6a6256" fill-rule="evenodd" stroke="none"/>
    <path d="M6.3 -5.25 Q6.0 -3.7 6.65 -2.4 L7.3 -1.25 7.3 -0.25 7.3 1.25 5.3 1.25 5.3 -5.25 6.3 -5.25" fill="#413424" fill-rule="evenodd" stroke="none"/>
    <path d="M11.3 2.75 L8.7 2.95 8.05 2.5 Q7.5 1.9 7.3 1.25 L11.3 1.25 11.3 2.75" fill="#706c64" fill-rule="evenodd" stroke="none"/>
    <path d="M5.3 1.25 L7.3 1.25 Q7.5 1.9 8.05 2.5 L8.7 2.95 11.3 2.75 Q11.35 4.4 10.65 5.75 10.35 6.4 9.55 6.65 L8.3 6.75 5.3 6.75 4.3 6.75 0.3 6.75 -0.5 6.6 -0.7 5.25 0.15 5.5 Q3.2 6.25 5.3 3.75 5.6 2.9 4.85 1.9 L4.3 1.25 5.3 1.25" fill="#4d4526" fill-rule="evenodd" stroke="none"/>
    <path d="M-0.7 5.25 L-0.5 6.6 0.3 6.75 0.3 7.75 -2.7 7.75 -2.7 6.75 -0.7 5.25" fill="#6a686a" fill-rule="evenodd" stroke="none"/>
    <path d="M4.3 6.75 L5.3 6.75 5.3 7.75 5.3 9.25 4.3 9.25 4.3 6.75" fill="#202326" fill-rule="evenodd" stroke="none"/>
    <path d="M8.3 9.25 Q7.45 10.6 6.2 10.8 4.9 10.75 4.3 9.25 L5.3 9.25 8.3 9.25 M-2.7 9.25 L0.3 9.25 Q-0.4 10.5 -1.75 10.75 -3.1 10.6 -3.7 9.25 L-2.7 9.25" fill="#5c5e66" fill-rule="evenodd" stroke="none"/>
    <path d="M5.3 3.75 Q3.2 6.25 0.15 5.5 L-0.7 5.25 -0.7 3.75 5.3 3.75" fill="#706a62" fill-rule="evenodd" stroke="none"/>
    <path d="M-0.7 3.75 L-0.7 5.25 -2.7 6.75 -2.7 5.25 -2.7 3.75 -1.3 3.4 -0.85 3.45 -0.7 3.75" fill="#3a351d" fill-rule="evenodd" stroke="none"/>
    <path d="M-2.7 7.75 L-2.7 9.25 -3.7 9.25 -3.7 6.75 -3.7 5.25 -2.7 5.25 -2.7 6.75 -2.7 7.75" fill="#20221e" fill-rule="evenodd" stroke="none"/>
    <path d="M-6.7 1.25 L-6.7 2.75 -8.5 2.5 -8.7 1.25 -6.7 1.25" fill="#283040" fill-rule="evenodd" stroke="none"/>
    <path d="M-5.7 5.25 L-5.7 1.25 -4.7 1.25 -4.7 6.75 -5.5 6.6 -5.7 5.25" fill="#3d3121" fill-rule="evenodd" stroke="none"/>
  </g>
</svg>
