<?xml version="1.0" encoding="UTF-8" standalone="no"?>
<svg xmlns:ffdec="https://www.free-decompiler.com/flash" xmlns:xlink="http://www.w3.org/1999/xlink" ffdec:objectType="shape" height="21.65px" width="23.35px" xmlns="http://www.w3.org/2000/svg">
  <g transform="matrix(1.0, 0.0, 0.0, 1.0, 11.7, 10.8)">
    <path d="M1.4 -9.25 L-2.6 -9.25 -2.6 -8.25 -2.6 -6.75 -4.6 -6.75 Q-5.75 -7.3 -5.65 -8.55 L-5.6 -9.25 -4.25 -9.85 Q-1.6 -10.95 1.4 -10.75 L1.4 -9.25" fill="#111112" fill-rule="evenodd" stroke="none"/>
    <path d="M-2.6 -8.25 L-2.6 -9.25 1.4 -9.25 1.2 -8.2 0.4 -8.25 -2.6 -8.25 M3.4 -8.25 L3.4 -9.25 7.4 -9.25 7.4 -6.75 6.4 -6.75 5.4 -6.75 5.45 -7.55 4.95 -8.25 3.4 -8.25" fill="#50545c" fill-rule="evenodd" stroke="none"/>
    <path d="M-2.6 -6.75 L-2.6 -8.25 0.4 -8.25 0.4 -6.75 -2.6 -6.75 M-6.6 2.75 L-8.4 2.65 -8.6 1.25 -6.6 1.25 -6.6 2.75 M-2.6 5.25 L-1.05 5.25 -0.55 5.95 -0.6 6.75 -2.6 6.75 -2.6 5.25" fill="#283040" fill-rule="evenodd" stroke="none"/>
    <path d="M1.4 -9.25 L1.4 -10.75 7.4 -10.75 7.4 -9.25 3.4 -9.25 3.4 -8.25 1.4 -9.25" fill="#4c452a" fill-rule="evenodd" stroke="none"/>
    <path d="M0.4 -8.25 L1.2 -8.2 1.4 -9.25 3.4 -8.25 3.4 -6.75 1.4 -6.75 0.4 -6.75 0.4 -8.25 M3.4 -5.25 L3.4 -4.45 4.4 -4.25 4.35 -2.85 3.4 -2.75 3.4 -1.25 Q2.45 -2.8 2.4 -4.3 L2.4 -5.25 3.4 -5.25" fill="#101010" fill-rule="evenodd" stroke="none"/>
    <path d="M3.4 -8.25 L4.95 -8.25 5.45 -7.55 5.4 -6.75 5.35 -5.35 4.4 -5.25 4.4 -4.25 3.4 -4.45 3.4 -5.25 3.4 -6.75 3.4 -8.25" fill="#222935" fill-rule="evenodd" stroke="none"/>
    <path d="M7.4 -9.25 L7.4 -10.75 8.95 -10.75 9.45 -10.05 9.4 -9.25 7.4 -6.75 7.4 -9.25" fill="#2d261a" fill-rule="evenodd" stroke="none"/>
    <path d="M6.4 -6.75 L7.4 -6.75 9.4 -9.25 9.4 -8.25 9.4 -2.75 9.4 -1.25 8.4 -1.25 Q8.9 -2.4 8.6 -3.7 L8.35 -4.55 6.4 -5.25 6.4 -6.75" fill="#45484b" fill-rule="evenodd" stroke="none"/>
    <path d="M-4.6 -6.75 L-2.6 -6.75 0.4 -6.75 1.4 -6.75 1.4 -5.25 0.4 -5.25 -4.6 -5.25 -4.6 -6.75 M9.4 -9.25 L11.25 -9.05 11.4 -6.75 10.4 -6.75 10.55 -7.75 10.35 -8.15 9.4 -8.25 9.4 -9.25 M4.4 6.75 L0.4 6.75 0.4 5.25 1.4 5.25 2.4 5.25 7.4 5.25 7.35 6.45 6.7 6.95 5.4 6.75 4.4 6.75" fill="#483828" fill-rule="evenodd" stroke="none"/>
    <path d="M9.4 -8.25 L10.35 -8.15 10.55 -7.75 10.4 -6.75 Q11.1 -5.2 10.45 -3.85 L10.15 -3.15 9.4 -2.75 9.4 -8.25 M0.4 -5.25 L1.4 -5.25 1.4 1.25 0.4 1.25 0.4 -5.25" fill="#706860" fill-rule="evenodd" stroke="none"/>
    <path d="M5.4 -6.75 L6.4 -6.75 6.4 -5.25 6.4 -4.25 5.4 -4.25 4.4 -4.25 4.4 -5.25 5.35 -5.35 5.4 -6.75" fill="#3e4450" fill-rule="evenodd" stroke="none"/>
    <path d="M11.4 -6.75 L11.4 -1.25 9.4 -1.25 9.4 -2.75 10.15 -3.15 10.45 -3.85 Q11.1 -5.2 10.4 -6.75 L11.4 -6.75" fill="#504828" fill-rule="evenodd" stroke="none"/>
    <path d="M6.4 -4.25 L6.4 -5.25 8.35 -4.55 8.6 -3.7 Q8.9 -2.4 8.4 -1.25 L6.4 -1.25 6.4 -4.25" fill="#232932" fill-rule="evenodd" stroke="none"/>
    <path d="M0.4 6.75 L0.4 7.75 -2.6 7.75 -2.6 6.75 -0.6 6.75 0.4 6.75 M-10.6 -0.25 L-11.0 -0.9 Q-11.9 -2.4 -11.6 -4.25 L-10.6 -4.25 -10.6 -0.25 M6.4 -4.25 L6.4 -1.25 6.4 -0.25 5.6 -0.25 5.4 -1.25 5.4 -4.25 6.4 -4.25 M9.4 1.25 L8.4 1.25 8.4 -1.25 9.4 -1.25 9.4 1.25 M3.4 1.25 L4.15 1.5 4.45 2.0 4.15 2.55 3.4 2.75 2.6 2.65 2.4 1.25 3.4 1.25" fill="#686870" fill-rule="evenodd" stroke="none"/>
    <path d="M11.4 -1.25 Q12.0 0.55 11.1 2.15 L10.9 2.45 9.4 2.75 9.4 1.25 9.4 -1.25 11.4 -1.25" fill="#141619" fill-rule="evenodd" stroke="none"/>
    <path d="M6.4 -1.25 L8.4 -1.25 8.4 1.25 7.4 1.25 6.6 1.15 6.4 -0.25 6.4 -1.25" fill="#202631" fill-rule="evenodd" stroke="none"/>
    <path d="M9.4 2.75 L11.2 4.7 11.1 5.4 8.4 6.75 8.55 5.75 8.35 5.35 7.4 5.25 Q8.05 3.8 7.65 2.2 L7.4 1.25 8.4 1.25 9.4 1.25 9.4 2.75" fill="#524b3a" fill-rule="evenodd" stroke="none"/>
    <path d="M7.4 1.25 L7.65 2.2 Q8.05 3.8 7.4 5.25 L2.4 5.25 2.4 3.75 3.2 3.8 3.4 2.75 4.15 2.55 4.45 2.0 4.15 1.5 3.4 1.25 3.4 -0.25 5.4 -1.25 5.6 -0.25 6.4 -0.25 6.6 1.15 7.4 1.25" fill="#373d46" fill-rule="evenodd" stroke="none"/>
    <path d="M8.4 7.75 L8.4 9.25 5.4 9.25 5.4 7.75 8.4 7.75 M0.4 7.75 L0.4 9.25 -2.6 9.25 -2.6 7.75 0.4 7.75 M-8.6 1.25 L-10.6 -0.25 -10.6 -4.25 -9.4 -4.9 -8.6 -4.25 -8.6 -2.75 -9.6 -2.75 -9.4 -1.35 -8.6 -1.25 -8.6 -0.25 -8.6 1.25 M3.4 -6.75 L3.4 -5.25 2.4 -5.25 1.4 -5.25 1.4 -6.75 3.4 -6.75" fill="#384048" fill-rule="evenodd" stroke="none"/>
    <path d="M3.4 -0.25 L3.4 1.25 2.4 1.25 1.4 1.25 1.4 -5.25 2.4 -5.25 2.4 -4.3 Q2.45 -2.8 3.4 -1.25 L3.4 -0.25" fill="#3c3227" fill-rule="evenodd" stroke="none"/>
    <path d="M5.4 -1.25 L3.4 -0.25 3.4 -1.25 3.4 -2.75 4.35 -2.85 4.4 -4.25 5.4 -4.25 5.4 -1.25" fill="#1d212a" fill-rule="evenodd" stroke="none"/>
    <path d="M-5.6 -9.25 L-5.65 -8.55 Q-5.75 -7.3 -4.6 -6.75 L-4.6 -5.25 -5.6 -5.25 -5.6 -4.25 -6.6 -4.25 -6.6 -9.25 -5.6 -9.25 M-6.6 3.75 L-6.6 2.75 -6.6 1.25 -6.6 -0.25 -3.9 0.85 -4.6 1.85 -5.6 2.75 -5.8 3.8 -6.6 3.75 M-6.6 -2.75 L-4.6 -2.75 -3.85 -1.45 -6.6 -1.25 -6.6 -2.75" fill="#202010" fill-rule="evenodd" stroke="none"/>
    <path d="M-5.6 -4.25 L-4.65 -4.15 -4.45 -3.75 -4.6 -2.75 -6.6 -2.75 -6.6 -4.25 -5.6 -4.25" fill="#605844" fill-rule="evenodd" stroke="none"/>
    <path d="M-4.6 -5.25 L0.4 -5.25 0.4 1.25 0.4 2.75 -5.6 2.75 -4.6 1.85 -3.9 0.85 -6.6 -0.25 -6.6 -1.25 -3.85 -1.45 -4.6 -2.75 -4.45 -3.75 -4.65 -4.15 -5.6 -4.25 -5.6 -5.25 -4.6 -5.25" fill="#4f4629" fill-rule="evenodd" stroke="none"/>
    <path d="M-2.6 5.25 L-2.6 3.75 0.4 3.75 1.4 3.75 1.4 5.25 0.4 5.25 0.4 6.75 -0.6 6.75 -0.55 5.95 -1.05 5.25 -2.6 5.25" fill="#414850" fill-rule="evenodd" stroke="none"/>
    <path d="M-3.6 6.75 Q-4.85 6.75 -5.7 5.9 -6.6 5.0 -6.6 3.75 L-5.8 3.8 -5.6 2.75 0.4 2.75 0.4 3.75 -2.6 3.75 -2.6 5.25 -2.6 6.75 -3.6 6.75" fill="#121214" fill-rule="evenodd" stroke="none"/>
    <path d="M0.4 2.75 L0.4 1.25 1.4 1.25 1.4 3.75 0.4 3.75 0.4 2.75" fill="#3b3431" fill-rule="evenodd" stroke="none"/>
    <path d="M3.4 2.75 L3.2 3.8 2.4 3.75 2.4 5.25 1.4 5.25 1.4 3.75 1.4 1.25 2.4 1.25 2.6 2.65 3.4 2.75" fill="#141410" fill-rule="evenodd" stroke="none"/>
    <path d="M4.4 9.25 L4.4 6.75 5.4 6.75 5.4 7.75 5.4 9.25 4.4 9.25 M-3.6 9.25 L-3.6 6.75 -2.6 6.75 -2.6 7.75 -2.6 9.25 -3.6 9.25" fill="#202326" fill-rule="evenodd" stroke="none"/>
    <path d="M8.4 9.25 L7.55 10.3 Q6.8 11.15 5.8 10.65 4.8 10.15 4.4 9.25 L5.4 9.25 8.4 9.25 M0.4 9.25 Q-0.05 10.45 -1.4 10.7 L-2.15 10.65 -3.1 9.9 -3.6 9.25 -2.6 9.25 0.4 9.25" fill="#5c5e66" fill-rule="evenodd" stroke="none"/>
    <path d="M8.4 6.75 L8.4 7.75 5.4 7.75 5.4 6.75 6.7 6.95 7.35 6.45 7.4 5.25 8.35 5.35 8.55 5.75 8.4 6.75" fill="#6a686a" fill-rule="evenodd" stroke="none"/>
    <path d="M-8.6 -2.75 L-7.85 -2.5 Q-7.55 -2.3 -7.55 -2.0 -7.55 -1.7 -7.85 -1.45 L-8.6 -1.25 -9.4 -1.35 -9.6 -2.75 -8.6 -2.75 M-8.6 -0.25 L-6.6 -0.25 -6.6 1.25 -8.6 1.25 -8.6 -0.25" fill="#9ca8ac" fill-rule="evenodd" stroke="none"/>
    <path d="M-8.6 -4.25 L-6.6 -4.25 -6.6 -2.75 -6.6 -1.25 -6.6 -0.25 -8.6 -0.25 -8.6 -1.25 -7.85 -1.45 Q-7.55 -1.7 -7.55 -2.0 -7.55 -2.3 -7.85 -2.5 L-8.6 -2.75 -8.6 -4.25" fill="#2b3341" fill-rule="evenodd" stroke="none"/>
  </g>
</svg>
