<?xml version="1.0" encoding="UTF-8" standalone="no"?>
<svg xmlns:ffdec="https://www.free-decompiler.com/flash" xmlns:xlink="http://www.w3.org/1999/xlink" ffdec:objectType="shape" height="21.85px" width="23.45px" xmlns="http://www.w3.org/2000/svg">
  <g transform="matrix(1.0, 0.0, 0.0, 1.0, 11.8, 10.9)">
    <path d="M9.2 -9.3 L7.2 -9.3 6.1 -9.3 Q4.4 -9.25 3.2 -8.3 L1.2 -9.3 -4.8 -9.3 0.7 -10.4 9.15 -10.8 9.2 -9.3 11.15 -9.3 11.6 -4.5 Q11.9 -0.05 9.9 3.75 L8.2 6.7 10.2 2.7 10.15 -0.3 9.2 -0.3 9.2 -4.3 Q10.35 -4.8 10.25 -6.05 L10.2 -6.8 10.15 -8.3 9.35 -8.25 9.2 -9.3 M-5.8 5.2 L-7.05 4.5 -6.8 2.7 -5.8 2.7 -5.65 3.75 -4.85 3.7 -4.8 5.2 -5.8 5.2 M-6.8 -6.8 L-6.7 -9.1 -4.8 -9.3 -5.8 -6.8 -6.8 -6.8 M0.2 -4.3 L1.7 -4.9 Q3.05 -5.0 4.2 -4.3 L4.2 -2.9 5.15 -2.8 5.2 -1.3 3.2 -0.3 3.2 1.2 1.2 1.2 1.2 -0.3 3.2 -0.3 3.15 -1.3 Q1.7 -1.0 0.8 -2.15 0.0 -3.1 0.2 -4.3" fill="#101010" fill-rule="evenodd" stroke="none"/>
    <path d="M9.2 -6.8 L10.2 -6.8 10.25 -6.05 Q10.35 -4.8 9.2 -4.3 L9.2 -6.8 M4.2 9.2 L4.2 7.7 7.2 7.7 7.2 9.2 4.2 9.2 M-3.8 9.2 L-3.8 7.7 -0.8 7.7 -0.8 9.2 -3.8 9.2 M-6.8 2.7 Q-7.9 3.3 -8.95 2.7 L-9.3 2.5 -9.8 -0.3 -10.8 -0.3 -10.8 -4.3 -9.8 -4.3 -9.8 -2.8 -9.8 -1.3 -9.8 -0.3 -8.8 -0.3 -8.75 0.9 -8.1 1.4 -6.8 1.2 -6.8 2.7 M9.2 2.7 L9.2 -0.3 10.15 -0.3 10.2 2.7 9.2 2.7 M6.2 -4.3 L7.2 -4.3 7.2 -0.3 6.2 -0.3 6.2 -4.3 M5.2 -0.3 L6.2 -0.3 6.2 2.7 4.2 3.7 4.2 2.7 4.2 1.2 4.95 1.1 5.2 -0.3 M0.2 1.2 L0.2 2.7 0.2 3.7 -0.65 3.75 -0.8 2.7 -0.8 1.2 0.2 1.2 M-1.8 -4.3 L-1.8 -1.3 -3.1 -2.25 -2.8 -4.3 -1.8 -4.3" fill="#384048" fill-rule="evenodd" stroke="none"/>
    <path d="M7.2 -9.3 L9.2 -9.3 9.35 -8.25 10.15 -8.3 10.2 -6.8 9.2 -6.8 7.55 -6.75 7.2 -9.3" fill="#222834" fill-rule="evenodd" stroke="none"/>
    <path d="M1.2 -9.3 L3.2 -8.3 5.15 -8.3 5.2 -6.8 4.2 -6.8 3.5 -6.95 Q0.85 -7.4 -0.8 -5.3 L-1.8 -5.3 Q-1.2 -7.25 0.35 -8.6 L1.2 -9.3" fill="#293140" fill-rule="evenodd" stroke="none"/>
    <path d="M-4.8 -9.3 L1.2 -9.3 0.35 -8.6 Q-1.2 -7.25 -1.8 -5.3 L-3.8 -5.3 -4.35 -5.85 -4.8 -4.3 -5.8 -4.3 -5.8 -6.8 -4.8 -9.3" fill="#66686e" fill-rule="evenodd" stroke="none"/>
    <path d="M-0.8 -5.3 Q0.85 -7.4 3.5 -6.95 L4.2 -6.8 4.2 -5.3 4.2 -4.3 Q3.05 -5.0 1.7 -4.9 L0.2 -4.3 -0.8 -4.3 -0.8 -5.3" fill="#3d444c" fill-rule="evenodd" stroke="none"/>
    <path d="M3.2 -8.3 Q4.4 -9.25 6.1 -9.3 L7.2 -9.3 7.55 -6.75 9.2 -6.8 9.2 -4.3 9.2 -0.3 9.2 2.7 7.2 2.7 7.2 1.2 Q8.25 -0.65 8.2 -2.9 L8.2 -4.3 8.15 -5.3 6.2 -5.3 6.15 -6.8 5.2 -6.8 5.15 -8.3 3.2 -8.3 M-10.8 -0.3 Q-11.75 -1.05 -11.8 -2.05 L-11.5 -3.3 -10.8 -4.3 -10.8 -0.3 M4.2 1.2 L4.2 2.7 0.2 2.7 0.2 1.2 1.2 1.2 3.2 1.2 4.2 1.2 M-0.8 -1.3 L-0.8 -0.3 -1.65 -0.25 -1.8 -1.3 -1.8 -4.3 -0.8 -4.3 -0.8 -1.3" fill="#686870" fill-rule="evenodd" stroke="none"/>
    <path d="M5.2 -6.8 L6.15 -6.8 6.2 -5.3 5.2 -5.3 4.2 -5.3 4.2 -6.8 5.2 -6.8 M7.2 1.2 L7.2 2.7 6.2 2.7 6.2 -0.3 7.2 -0.3 7.2 1.2" fill="#283040" fill-rule="evenodd" stroke="none"/>
    <path d="M3.2 6.7 L1.2 6.7 1.2 3.7 3.2 5.2 3.2 6.7 M-3.8 -5.3 L-1.8 -5.3 -0.8 -5.3 -0.8 -4.3 -1.8 -4.3 -2.8 -4.3 -3.8 -4.3 -3.8 -5.3 M6.2 -5.3 L8.15 -5.3 8.2 -4.3 7.2 -4.3 6.2 -4.3 5.35 -4.25 5.2 -5.3 6.2 -5.3" fill="#323a45" fill-rule="evenodd" stroke="none"/>
    <path d="M4.2 -4.3 L4.2 -5.3 5.2 -5.3 5.35 -4.25 6.2 -4.3 6.2 -0.3 5.2 -0.3 5.2 -1.3 5.15 -2.8 4.2 -2.9 4.2 -4.3" fill="#61646a" fill-rule="evenodd" stroke="none"/>
    <path d="M5.2 -0.3 L4.95 1.1 4.2 1.2 3.2 1.2 3.2 -0.3 5.2 -1.3 5.2 -0.3 M0.2 1.2 L-0.8 1.2 -0.8 -0.3 -0.8 -1.3 1.2 -0.3 1.2 1.2 0.2 1.2" fill="#4a4f57" fill-rule="evenodd" stroke="none"/>
    <path d="M8.2 -4.3 L8.2 -2.9 Q8.25 -0.65 7.2 1.2 L7.2 -0.3 7.2 -4.3 8.2 -4.3" fill="#2c3442" fill-rule="evenodd" stroke="none"/>
    <path d="M-0.8 -4.3 L0.2 -4.3 Q0.0 -3.1 0.8 -2.15 1.7 -1.0 3.15 -1.3 L3.2 -0.3 1.2 -0.3 -0.8 -1.3 -0.8 -4.3" fill="#252a32" fill-rule="evenodd" stroke="none"/>
    <path d="M-6.8 -4.3 L-6.8 -6.8 -5.8 -6.8 -5.8 -4.3 -5.8 1.2 -5.8 2.7 -6.8 2.7 -6.8 1.2 -6.8 -0.3 -6.85 -1.3 -7.8 -1.3 -7.8 -2.8 -7.05 -2.9 -6.8 -4.3" fill="#524a31" fill-rule="evenodd" stroke="none"/>
    <path d="M-4.8 -4.3 L-4.35 -5.85 -3.8 -5.3 -3.8 -4.3 -3.8 -0.3 -3.8 1.2 -4.8 1.2 -4.8 -4.3" fill="#483828" fill-rule="evenodd" stroke="none"/>
    <path d="M-0.8 1.2 L-0.8 2.7 -2.8 2.7 -2.85 -0.3 -3.8 -0.3 -3.8 -4.3 -2.8 -4.3 -3.1 -2.25 -1.8 -1.3 -1.65 -0.25 -0.8 -0.3 -0.8 1.2" fill="#2a3241" fill-rule="evenodd" stroke="none"/>
    <path d="M-3.8 -0.3 L-2.85 -0.3 -2.8 2.7 -3.8 2.7 -3.8 1.2 -3.8 -0.3" fill="#50545c" fill-rule="evenodd" stroke="none"/>
    <path d="M-9.8 -4.3 L-9.15 -4.7 -6.8 -4.3 -7.05 -2.9 -7.8 -2.8 -9.8 -2.8 -9.8 -4.3" fill="#2f3743" fill-rule="evenodd" stroke="none"/>
    <path d="M-9.8 -1.3 L-7.8 -1.3 -6.85 -1.3 -6.8 -0.3 -8.8 -0.3 -9.8 -0.3 -9.8 -1.3" fill="#2d3542" fill-rule="evenodd" stroke="none"/>
    <path d="M-7.8 -1.3 L-9.8 -1.3 -9.8 -2.8 -7.8 -2.8 -7.8 -1.3 M-8.8 -0.3 L-6.8 -0.3 -6.8 1.2 -8.1 1.4 -8.75 0.9 -8.8 -0.3" fill="#9ca8ac" fill-rule="evenodd" stroke="none"/>
    <path d="M-5.8 -4.3 L-4.8 -4.3 -4.8 1.2 -5.8 1.2 -5.8 -4.3" fill="#706860" fill-rule="evenodd" stroke="none"/>
    <path d="M-4.8 1.2 L-3.8 1.2 -3.8 2.7 -5.8 2.7 -5.8 1.2 -4.8 1.2" fill="#2c302c" fill-rule="evenodd" stroke="none"/>
    <path d="M-5.8 2.7 L-3.8 2.7 -3.8 5.2 -4.8 5.2 -4.85 3.7 -5.65 3.75 -5.8 2.7" fill="#555862" fill-rule="evenodd" stroke="none"/>
    <path d="M-3.8 2.7 L-2.8 2.7 -2.8 3.4 Q-2.7 4.65 -3.8 5.2 L-3.8 2.7" fill="#1e232c" fill-rule="evenodd" stroke="none"/>
    <path d="M1.2 6.7 L0.2 6.7 -0.35 6.15 -0.8 7.7 -3.8 7.7 -3.8 6.7 -3.8 5.2 Q-2.7 4.65 -2.8 3.4 L-2.8 2.7 -0.8 2.7 -0.65 3.75 0.2 3.7 1.2 3.7 1.2 6.7" fill="#6a6b71" fill-rule="evenodd" stroke="none"/>
    <path d="M-3.8 6.7 L-5.1 6.9 -5.75 6.4 -5.8 5.2 -4.8 5.2 -3.8 5.2 -3.8 6.7" fill="#181810" fill-rule="evenodd" stroke="none"/>
    <path d="M8.2 6.7 L8.2 9.2 7.2 9.2 7.2 7.7 7.2 6.7 8.2 6.7 M0.2 6.7 L0.2 9.2 -0.8 9.2 -0.8 7.7 -0.35 6.15 0.2 6.7" fill="#202326" fill-rule="evenodd" stroke="none"/>
    <path d="M8.2 9.2 L6.6 10.9 6.0 10.95 5.25 10.45 4.2 9.2 7.2 9.2 8.2 9.2 M0.2 9.2 L-0.3 9.85 -1.1 10.5 -1.85 10.65 Q-3.35 10.3 -3.8 9.2 L-0.8 9.2 0.2 9.2" fill="#5c5e66" fill-rule="evenodd" stroke="none"/>
    <path d="M4.2 7.7 L4.15 6.7 3.2 6.7 3.2 5.2 3.0 4.2 3.2 3.8 4.2 3.7 6.2 2.7 7.2 2.7 7.2 6.7 7.2 7.7 4.2 7.7" fill="#6a6b72" fill-rule="evenodd" stroke="none"/>
    <path d="M4.2 2.7 L4.2 3.7 3.2 3.8 3.0 4.2 3.2 5.2 1.2 3.7 0.2 3.7 0.2 2.7 4.2 2.7" fill="#212732" fill-rule="evenodd" stroke="none"/>
    <path d="M7.2 2.7 L9.2 2.7 10.2 2.7 8.2 6.7 7.2 6.7 7.2 2.7" fill="#242b39" fill-rule="evenodd" stroke="none"/>
  </g>
</svg>
