<?xml version="1.0" encoding="UTF-8" standalone="no"?>
<svg xmlns:ffdec="https://www.free-decompiler.com/flash" xmlns:xlink="http://www.w3.org/1999/xlink" ffdec:objectType="shape" height="25.15px" width="24.3px" xmlns="http://www.w3.org/2000/svg">
  <g transform="matrix(1.0, 0.0, 0.0, 1.0, 12.15, 12.55)">
    <path d="M-7.1 -11.55 L-7.1 -12.55 -1.1 -12.55 -1.1 -11.75 -0.1 -11.55 -0.1 -10.05 -1.1 -10.05 -3.1 -10.05 -4.1 -10.05 -4.2 -10.9 -7.1 -11.55" fill="#6e7470" fill-rule="evenodd" stroke="none"/>
    <path d="M3.9 -6.05 L4.9 -3.55 3.9 -3.55 3.9 -2.05 3.45 -2.15 2.9 -4.55 2.9 -6.05 3.9 -6.05 M6.9 5.95 L6.9 1.95 7.9 1.95 7.9 5.25 6.9 5.95 M5.9 0.45 L5.9 -3.55 6.9 -3.55 6.9 -0.25 5.9 0.45 M6.9 -4.55 L6.9 -8.55 7.4 -9.1 7.9 -7.55 7.9 -4.55 6.9 -4.55 M-11.1 5.95 L-11.55 5.85 -12.1 3.45 -11.1 3.45 -11.1 5.95 M-12.1 -4.55 L-12.1 -7.55 -11.1 -7.55 -11.1 -4.55 -12.1 -4.55 M-8.1 -10.05 L-8.1 -11.55 -7.1 -11.55 -4.2 -10.9 -4.1 -10.05 -6.1 -10.05 -8.1 -10.05 M-0.1 -11.55 L0.65 -11.7 Q3.3 -12.05 4.9 -10.05 L-0.1 -10.05 -0.1 -11.55 M-0.1 -8.55 L0.4 -9.1 0.9 -7.55 0.9 -6.05 0.1 -6.2 -0.1 -7.55 -0.1 -8.55 M-8.1 -6.05 L-7.1 -6.05 -7.1 -4.55 -7.1 -3.55 -8.1 -3.55 -9.1 -3.55 -9.1 -4.55 -8.15 -4.65 -8.1 -6.05 M-5.1 -7.55 L-5.1 -8.55 -4.1 -8.55 -4.1 -7.55 -4.1 -6.05 -5.1 -6.05 -5.1 -7.55 M-9.1 0.45 L-8.1 0.45 -7.1 0.45 -7.1 1.95 -8.1 1.95 -8.9 1.8 -9.1 0.45 M-3.1 1.95 L-3.1 3.45 -3.1 4.45 -4.1 4.45 -4.1 5.95 -4.9 5.8 -5.1 4.45 -5.1 3.45 -4.15 3.35 -4.1 1.95 -3.1 1.95" fill="#384048" fill-rule="evenodd" stroke="none"/>
    <path d="M-11.1 -7.55 L-11.1 -8.55 -10.1 -8.55 -9.8 -7.55 -8.1 -7.55 -7.1 -7.55 -7.1 -6.05 -8.1 -6.05 -10.1 -6.05 -10.1 -4.55 -11.1 -4.55 -11.1 -7.55" fill="#a8b7c3" fill-rule="evenodd" stroke="none"/>
    <path d="M-11.1 1.95 Q-12.2 -0.5 -12.15 -3.15 L-12.1 -4.55 -11.1 -4.55 -11.1 1.95" fill="#242b38" fill-rule="evenodd" stroke="none"/>
    <path d="M3.9 -7.55 L3.9 -6.05 2.9 -6.05 2.95 -6.85 2.45 -7.55 0.9 -7.55 0.4 -9.1 -0.1 -8.55 -0.9 -8.7 -1.1 -10.05 -0.1 -10.05 4.9 -10.05 4.85 -8.65 3.9 -8.55 3.9 -7.55" fill="#8a928e" fill-rule="evenodd" stroke="none"/>
    <path d="M-4.1 -10.05 L-3.1 -10.05 -3.15 -8.65 -4.1 -8.55 -5.1 -8.55 -5.1 -7.55 -7.1 -7.55 -7.1 -8.55 -6.15 -8.65 -6.1 -10.05 -4.1 -10.05" fill="#838984" fill-rule="evenodd" stroke="none"/>
    <path d="M-0.1 -8.55 L-0.1 -7.55 -4.1 -7.55 -4.1 -8.55 -3.15 -8.65 -3.1 -10.05 -1.1 -10.05 -0.9 -8.7 -0.1 -8.55" fill="#2b3341" fill-rule="evenodd" stroke="none"/>
    <path d="M-0.1 -7.55 L0.1 -6.2 0.9 -6.05 0.9 -4.55 -3.1 -4.55 -2.95 -5.55 -3.15 -5.95 -4.1 -6.05 -4.1 -7.55 -0.1 -7.55" fill="#7c817f" fill-rule="evenodd" stroke="none"/>
    <path d="M-10.1 -8.55 L-10.1 -10.05 -9.1 -10.05 -8.1 -7.55 -9.8 -7.55 -10.1 -8.55" fill="#434854" fill-rule="evenodd" stroke="none"/>
    <path d="M5.9 -7.55 L5.85 -6.4 5.0 -5.85 3.9 -6.05 3.9 -7.55 5.9 -7.55 M-9.1 -10.05 L-8.1 -10.05 -6.1 -10.05 -6.15 -8.65 -7.1 -8.55 -7.1 -7.55 -8.1 -7.55 -9.1 -10.05 M-7.1 -3.55 L-7.1 -4.55 -6.1 -4.55 -6.1 -3.55 -6.1 -2.05 -6.9 -2.2 -7.1 -3.55 M-5.1 -4.55 L-5.1 -6.05 -4.1 -6.05 -3.15 -5.95 -2.95 -5.55 -3.1 -4.55 -5.1 -4.55 M-8.1 4.45 L-7.1 4.45 -7.1 7.45 -8.1 7.45 -8.1 4.45" fill="#b0c0d0" fill-rule="evenodd" stroke="none"/>
    <path d="M-7.1 -6.05 L-7.1 -7.55 -5.1 -7.55 -5.1 -6.05 -6.1 -6.05 -6.1 -4.55 -7.1 -4.55 -7.1 -6.05" fill="#2d3542" fill-rule="evenodd" stroke="none"/>
    <path d="M-6.1 -4.55 L-6.1 -6.05 -5.1 -6.05 -5.1 -4.55 -5.3 -3.5 -6.1 -3.55 -6.1 -4.55" fill="#747879" fill-rule="evenodd" stroke="none"/>
    <path d="M0.9 -4.55 L0.9 -3.55 0.85 -2.15 -0.1 -2.05 Q-1.15 -2.8 -2.05 -2.9 L-2.75 -3.1 -4.1 -2.05 -3.45 -0.5 -2.1 0.45 -2.1 1.95 -3.1 1.95 -4.1 1.95 -6.1 0.45 -6.1 -2.05 -6.1 -3.55 -5.3 -3.5 -5.1 -4.55 -3.1 -4.55 0.9 -4.55" fill="#2a3241" fill-rule="evenodd" stroke="none"/>
    <path d="M-10.1 5.95 L-11.1 5.95 -11.1 3.45 -11.1 1.95 -10.4 0.6 Q-9.25 -1.95 -10.1 -4.55 L-10.1 -6.05 -8.1 -6.05 -8.15 -4.65 -9.1 -4.55 -9.1 -3.55 -9.1 0.45 -8.9 1.8 -8.1 1.95 -7.1 4.45 -8.1 4.45 -10.1 4.45 -10.1 5.95" fill="#88908b" fill-rule="evenodd" stroke="none"/>
    <path d="M4.9 -3.55 L4.9 0.45 3.9 0.25 3.9 -0.55 3.9 -2.05 3.9 -3.55 4.9 -3.55 M-0.1 5.95 L-1.1 5.95 -1.1 7.45 -3.1 7.45 -2.95 6.45 -3.15 6.05 -4.1 5.95 -4.1 4.45 -3.1 4.45 -0.1 4.45 -0.1 5.95 M-9.1 7.45 L-8.95 6.45 -9.15 6.05 -10.1 5.95 -10.1 4.45 -8.1 4.45 -8.1 7.45 -9.1 7.45 M-9.1 -3.55 L-8.1 -3.55 -8.1 0.45 -9.1 0.45 -9.1 -3.55 M-2.1 1.95 L-1.15 2.05 -0.95 2.45 -1.1 3.45 -3.1 3.45 -3.1 1.95 -2.1 1.95" fill="#283040" fill-rule="evenodd" stroke="none"/>
    <path d="M-7.1 -3.55 L-6.9 -2.2 -6.1 -2.05 -6.1 0.45 -7.1 0.45 -8.1 0.45 -8.1 -3.55 -7.1 -3.55" fill="#7b807e" fill-rule="evenodd" stroke="none"/>
    <path d="M7.9 -7.55 Q8.75 -7.55 9.35 -6.65 9.9 -5.8 9.9 -4.55 L7.9 -4.55 7.9 -7.55 M0.9 11.45 Q-1.6 13.5 -4.4 11.95 L-5.1 11.45 -4.15 11.35 -4.1 8.45 -3.3 8.5 -3.1 7.45 -1.1 7.45 2.9 9.75 -0.1 9.95 0.1 11.3 0.9 11.45 M-8.1 9.95 L-8.1 8.45 -5.65 8.6 -5.1 9.95 -8.1 9.95 M-0.1 -2.05 L-0.1 -0.55 -2.1 0.45 -3.45 -0.5 -4.1 -2.05 -2.75 -3.1 -2.05 -2.9 Q-1.15 -2.8 -0.1 -2.05" fill="#101010" fill-rule="evenodd" stroke="none"/>
    <path d="M0.9 -3.55 L1.5 -2.95 Q1.9 -2.4 1.95 -1.7 L1.9 0.45 -0.1 1.95 -0.1 -0.55 -0.1 -2.05 0.85 -2.15 0.9 -3.55" fill="#323a45" fill-rule="evenodd" stroke="none"/>
    <path d="M-11.1 -4.55 L-10.1 -4.55 Q-9.25 -1.95 -10.4 0.6 L-11.1 1.95 -11.1 -4.55" fill="#353d46" fill-rule="evenodd" stroke="none"/>
    <path d="M5.9 -7.55 L3.9 -7.55 3.9 -8.55 4.85 -8.65 4.9 -10.05 5.85 -9.95 6.05 -9.55 5.9 -8.55 5.9 -7.55" fill="#2e3643" fill-rule="evenodd" stroke="none"/>
    <path d="M3.9 -6.05 L5.0 -5.85 5.85 -6.4 5.9 -7.55 5.9 -8.55 6.9 -8.55 6.9 -4.55 5.9 -4.55 5.9 -3.55 5.9 0.45 6.1 1.8 6.9 1.95 6.9 5.95 5.9 5.95 5.95 5.15 5.45 4.45 3.9 4.45 3.9 7.45 -1.1 7.45 -1.1 5.95 -0.1 5.95 2.9 3.45 Q3.75 3.45 4.35 2.6 4.9 1.7 4.9 0.45 L4.9 -3.55 3.9 -6.05" fill="#838a84" fill-rule="evenodd" stroke="none"/>
    <path d="M0.9 -6.05 L0.9 -7.55 2.45 -7.55 2.95 -6.85 2.9 -6.05 2.9 -4.55 0.9 -4.55 0.9 -6.05 M7.9 0.45 L9.9 0.45 9.85 1.6 Q9.4 2.05 8.75 2.1 L7.9 1.95 7.9 0.45 M-5.1 3.45 L-5.1 4.45 -7.1 4.45 -8.1 1.95 -7.1 1.95 -5.1 3.45" fill="#303844" fill-rule="evenodd" stroke="none"/>
    <path d="M3.9 -2.05 L3.9 -0.55 2.9 -0.55 2.9 0.45 1.9 0.45 1.95 -1.7 Q1.9 -2.4 1.5 -2.95 L0.9 -3.55 0.9 -4.55 2.9 -4.55 3.45 -2.15 3.9 -2.05" fill="#7d8280" fill-rule="evenodd" stroke="none"/>
    <path d="M4.9 0.45 Q4.9 1.7 4.35 2.6 3.75 3.45 2.9 3.45 L2.9 0.45 2.9 -0.55 3.9 -0.55 3.9 0.25 4.9 0.45" fill="#333b45" fill-rule="evenodd" stroke="none"/>
    <path d="M5.9 -3.55 L5.9 -4.55 6.9 -4.55 7.9 -4.55 9.9 -4.55 10.45 -3.8 10.65 -3.2 9.9 -0.55 8.9 -0.55 Q8.9 -1.8 8.35 -2.65 7.75 -3.55 6.9 -3.55 L5.9 -3.55" fill="#22272e" fill-rule="evenodd" stroke="none"/>
    <path d="M6.9 1.95 L6.1 1.8 5.9 0.45 6.9 -0.25 6.9 -3.55 Q7.75 -3.55 8.35 -2.65 8.9 -1.8 8.9 -0.55 L7.9 -0.55 7.9 0.45 7.9 1.95 6.9 1.95" fill="#333948" fill-rule="evenodd" stroke="none"/>
    <path d="M8.9 -0.55 L9.9 -0.55 10.95 -0.25 9.9 0.45 7.9 0.45 7.9 -0.55 8.9 -0.55" fill="#181a20" fill-rule="evenodd" stroke="none"/>
    <path d="M5.9 5.95 L6.9 5.95 7.9 5.25 7.9 1.95 8.75 2.1 Q9.4 2.05 9.85 1.6 L9.9 0.45 10.95 -0.25 9.9 -0.55 10.65 -3.2 Q12.5 1.0 12.05 5.7 11.9 7.45 11.0 8.8 9.9 10.45 8.25 11.1 L3.6 11.45 3.9 8.45 4.7 8.5 4.9 7.45 5.85 7.35 5.9 5.95 M9.9 -4.55 L10.3 -4.3 10.45 -3.8 9.9 -4.55" fill="#101111" fill-rule="evenodd" stroke="none"/>
    <path d="M3.9 7.45 L3.9 4.45 5.45 4.45 5.95 5.15 5.9 5.95 5.85 7.35 4.9 7.45 3.9 7.45" fill="#404852" fill-rule="evenodd" stroke="none"/>
    <path d="M1.9 0.45 L2.9 0.45 2.9 3.45 -0.1 3.45 -0.1 1.95 1.9 0.45" fill="#8b939b" fill-rule="evenodd" stroke="none"/>
    <path d="M2.9 3.45 L-0.1 5.95 -0.1 4.45 -0.1 3.45 2.9 3.45 M-1.1 7.45 L3.9 7.45 4.9 7.45 4.7 8.5 3.9 8.45 3.6 11.45 0.9 11.45 0.1 11.3 -0.1 9.95 2.9 9.75 -1.1 7.45 M-5.1 11.45 L-7.8 11.25 -8.1 9.95 -5.1 9.95 -5.65 8.6 -8.1 8.45 -9.1 8.25 -9.1 7.45 -8.1 7.45 -7.1 7.45 -3.1 7.45 -3.3 8.5 -4.1 8.45 -4.15 11.35 -5.1 11.45" fill="#343c46" fill-rule="evenodd" stroke="none"/>
    <path d="M-0.1 -0.55 L-0.1 1.95 -0.1 3.45 -1.1 3.45 -0.95 2.45 -1.15 2.05 -2.1 1.95 -2.1 0.45 -0.1 -0.55" fill="#53595e" fill-rule="evenodd" stroke="none"/>
    <path d="M-0.1 3.45 L-0.1 4.45 -3.1 4.45 -3.1 3.45 -1.1 3.45 -0.1 3.45" fill="#686870" fill-rule="evenodd" stroke="none"/>
    <path d="M-5.1 4.45 L-4.9 5.8 -4.1 5.95 -3.15 6.05 -2.95 6.45 -3.1 7.45 -7.1 7.45 -7.1 4.45 -5.1 4.45" fill="#828984" fill-rule="evenodd" stroke="none"/>
    <path d="M-4.1 1.95 L-4.15 3.35 -5.1 3.45 -7.1 1.95 -7.1 0.45 -6.1 0.45 -4.1 1.95" fill="#787c7c" fill-rule="evenodd" stroke="none"/>
  </g>
</svg>
