<?xml version="1.0" encoding="UTF-8" standalone="no"?>
<svg xmlns:ffdec="https://www.free-decompiler.com/flash" xmlns:xlink="http://www.w3.org/1999/xlink" ffdec:objectType="shape" height="62.25px" width="45.65px" xmlns="http://www.w3.org/2000/svg">
  <g transform="matrix(1.0, 0.0, 0.0, 1.0, 20.55, 28.1)">
    <path d="M12.8 -14.3 Q14.6 -23.0 22.05 -19.45 23.15 -18.9 23.45 -17.65 25.2 -9.55 25.1 -1.25 L24.85 16.1 Q24.7 24.8 20.75 31.85 20.25 32.7 19.0 32.65 14.65 32.4 12.8 28.25 L-3.4 28.45 Q-5.05 31.1 -7.35 33.65 -7.85 34.2 -8.5 34.15 -13.15 33.85 -14.15 28.1 -15.05 23.1 -14.95 18.0 -14.85 9.6 -15.0 1.15 -15.15 -8.25 -14.5 -17.5 -14.35 -19.65 -12.25 -20.35 -4.6 -23.1 -3.65 -15.5 1.4 -20.3 8.3 -17.95 L9.95 -17.35 10.65 -16.6 11.95 -15.25 12.8 -14.3" fill="#000000" fill-opacity="0.5019608" fill-rule="evenodd" stroke="none"/>
    <path d="M17.25 -23.05 L15.15 -23.1 14.1 -23.3 13.05 -22.85 Q12.15 -20.85 13.65 -19.6 L16.35 -16.65 Q16.65 -16.25 16.15 -15.9 15.1 -15.35 14.4 -16.4 L13.9 -16.95 Q12.3 -18.05 11.4 -19.55 L11.05 -20.6 Q10.6 -24.35 14.2 -25.05 16.4 -25.15 17.35 -23.4 L17.25 -23.05 M0.05 -18.9 Q-0.05 -17.15 -1.35 -18.3 L-1.65 -18.9 Q-1.85 -21.05 -1.5 -23.1 L-1.15 -23.4 -1.0 -23.45 Q0.1 -22.85 0.15 -21.35 L0.05 -18.9 M2.85 -23.45 Q4.05 -22.7 3.8 -21.0 L3.35 -17.8 Q3.25 -17.15 2.65 -17.4 1.65 -17.7 1.8 -18.85 L1.8 -21.3 Q1.75 -22.5 2.5 -23.25 2.65 -23.45 2.85 -23.45 M-4.5 -23.15 Q-3.25 -22.45 -3.5 -20.7 L-3.8 -18.3 Q-4.0 -16.8 -5.1 -17.85 L-5.4 -18.45 Q-5.45 -20.75 -4.95 -22.8 L-4.65 -23.15 -4.5 -23.15 M-11.75 -24.1 Q-10.2 -23.6 -11.45 -22.5 -13.25 -21.05 -15.2 -19.95 L-17.05 -18.95 Q-17.45 -18.8 -17.6 -19.15 -18.2 -20.35 -16.8 -21.15 -14.2 -22.55 -11.75 -24.1 M-17.0 11.95 Q-16.85 11.35 -16.25 11.35 -14.3 11.95 -12.45 13.2 -11.25 14.05 -10.95 15.6 -10.55 17.9 -11.05 20.1 -11.1 20.35 -11.4 20.35 -12.7 20.2 -12.6 18.75 L-12.6 16.75 -13.1 14.7 -16.95 12.35 -17.0 11.95" fill="#9e9795" fill-rule="evenodd" stroke="none"/>
    <path d="M15.35 -4.95 L14.55 -4.5 Q13.35 -4.35 13.35 -5.4 13.35 -6.25 14.3 -6.3 16.2 -6.4 15.35 -4.95 M-14.2 -6.0 Q-13.55 -5.7 -13.95 -5.05 -14.15 -4.65 -14.55 -4.6 -16.05 -4.3 -17.25 -4.95 -17.8 -5.25 -17.5 -5.85 L-16.8 -6.3 Q-15.4 -6.65 -14.2 -6.0" fill="#849078" fill-rule="evenodd" stroke="none"/>
    <path d="M6.0 -6.3 Q7.4 -4.15 8.25 -6.55 9.4 -9.6 7.25 -11.0 5.25 -10.15 5.55 -7.55 5.65 -6.85 6.0 -6.3 M7.45 -4.25 Q5.45 -3.4 5.85 -0.8 L6.35 0.45 Q7.75 2.6 8.55 0.15 9.55 -2.85 7.45 -4.25 M4.25 -12.9 Q2.3 -13.55 0.15 -13.4 -0.55 -13.4 -0.65 -12.7 L-0.55 -12.3 Q1.3 -11.3 3.7 -11.7 4.45 -11.8 4.5 -12.55 L4.25 -12.9 M2.1 -15.4 Q8.05 -15.9 10.65 -10.9 15.3 -1.55 9.6 6.45 8.4 8.1 6.5 8.4 L-4.05 8.6 Q-10.55 9.3 -11.7 4.05 L-13.05 -2.7 Q-14.9 -13.4 -5.1 -15.7 L2.1 -15.4 M4.35 3.7 L4.45 3.55 4.55 3.15 4.5 3.0 4.2 2.7 0.9 2.45 0.2 2.85 0.1 3.0 0.0 3.3 0.0 3.4 0.0 3.55 4.35 3.7 M-1.85 -12.75 Q-3.1 -13.65 -4.85 -13.35 L-5.2 -13.2 Q-6.2 -12.35 -4.95 -11.8 L-2.4 -11.55 Q-1.95 -11.6 -1.75 -12.0 -1.45 -12.45 -1.85 -12.75 M-1.65 3.7 L-1.55 3.55 -1.45 3.15 -1.5 3.0 -1.5 2.85 Q-2.85 1.65 -4.95 2.45 L-5.15 2.55 Q-5.65 2.7 -5.65 3.2 L-5.65 3.35 Q-4.05 4.9 -1.65 3.7 M-8.85 -3.9 Q-9.65 -3.4 -9.75 -2.55 -10.25 0.65 -7.75 1.0 L-7.65 0.9 Q-6.05 -2.1 -8.3 -4.0 L-8.6 -3.95 -8.85 -3.9 M-8.1 -10.35 L-8.4 -10.35 -8.7 -10.25 Q-9.35 -9.75 -9.6 -8.9 -10.55 -5.75 -7.95 -5.4 -7.5 -5.65 -7.35 -6.15 -6.25 -8.95 -8.1 -10.35" fill="#888880" fill-rule="evenodd" stroke="none"/>
    <path d="M4.25 -12.9 L4.5 -12.55 Q4.45 -11.8 3.7 -11.7 1.3 -11.3 -0.55 -12.3 L-0.65 -12.7 Q-0.55 -13.4 0.15 -13.4 2.3 -13.55 4.25 -12.9 M7.45 -4.25 Q9.55 -2.85 8.55 0.15 7.75 2.6 6.35 0.45 L5.85 -0.8 Q5.45 -3.4 7.45 -4.25 M6.0 -6.3 Q5.65 -6.85 5.55 -7.55 5.25 -10.15 7.25 -11.0 9.4 -9.6 8.25 -6.55 7.4 -4.15 6.0 -6.3 M4.35 3.7 L0.0 3.55 0.0 3.4 0.0 3.3 0.1 3.0 0.2 2.85 0.9 2.45 4.2 2.7 4.5 3.0 4.55 3.15 4.45 3.55 4.35 3.7 M-1.85 -12.75 Q-1.45 -12.45 -1.75 -12.0 -1.95 -11.6 -2.4 -11.55 L-4.95 -11.8 Q-6.2 -12.35 -5.2 -13.2 L-4.85 -13.35 Q-3.1 -13.65 -1.85 -12.75 M-8.1 -10.35 Q-6.25 -8.95 -7.35 -6.15 -7.5 -5.65 -7.95 -5.4 -10.55 -5.75 -9.6 -8.9 -9.35 -9.75 -8.7 -10.25 L-8.4 -10.35 -8.1 -10.35 M-8.85 -3.9 L-8.6 -3.95 -8.3 -4.0 Q-6.05 -2.1 -7.65 0.9 L-7.75 1.0 Q-10.25 0.65 -9.75 -2.55 -9.65 -3.4 -8.85 -3.9 M-1.65 3.7 Q-4.05 4.9 -5.65 3.35 L-5.65 3.2 Q-5.65 2.7 -5.15 2.55 L-4.95 2.45 Q-2.85 1.65 -1.5 2.85 L-1.5 3.0 -1.45 3.15 -1.55 3.55 -1.65 3.7" fill="#b0a8a8" fill-rule="evenodd" stroke="none"/>
    <path d="M1.95 11.9 L-2.2 11.85 Q-2.65 12.95 -3.45 12.0 L-3.6 11.85 -5.4 11.8 -7.25 11.6 Q-8.45 11.45 -7.75 10.5 -7.25 9.85 -6.4 9.95 L-5.4 9.9 -3.6 10.0 Q-3.4 9.55 -2.85 9.35 L-2.2 10.05 1.65 10.1 Q1.65 9.2 2.55 9.0 3.25 9.35 3.5 10.05 L5.5 9.95 Q6.3 9.9 7.0 10.35 7.75 10.9 7.05 11.45 L5.75 11.9 3.45 11.9 3.1 12.3 Q2.2 13.0 1.95 12.0 L1.95 11.9" fill="#262628" fill-rule="evenodd" stroke="none"/>
    <path d="M5.05 16.7 Q4.55 17.55 3.45 17.7 0.95 18.1 0.9 15.85 0.8 14.2 2.65 14.1 L2.95 14.1 Q6.75 13.95 5.05 16.7 M-5.5 16.3 Q-5.8 15.1 -4.55 14.55 L-3.6 14.25 Q0.4 14.0 -1.2 17.0 -1.45 17.55 -2.05 17.75 -4.9 18.75 -5.5 16.3" fill="#686870" fill-rule="evenodd" stroke="none"/>
    <path d="M17.25 -23.05 L17.35 -23.4 Q16.4 -25.15 14.2 -25.05 10.6 -24.35 11.05 -20.6 L11.4 -19.55 Q12.3 -18.05 13.9 -16.95 L14.4 -16.4 Q15.1 -15.35 16.15 -15.9 16.65 -16.25 16.35 -16.65 L13.65 -19.6 Q12.15 -20.85 13.05 -22.85 L14.1 -23.3 15.15 -23.1 17.25 -23.05 M7.8 -20.8 Q9.6 -29.5 17.05 -25.95 18.15 -25.4 18.45 -24.15 20.2 -16.05 20.1 -7.75 L19.85 9.6 Q19.7 18.3 15.75 25.35 15.25 26.2 14.0 26.15 9.65 25.9 7.8 21.75 L7.9 21.7 8.1 19.5 Q7.35 10.7 14.4 6.4 L14.85 5.75 Q16.05 -0.65 16.35 -7.4 L16.2 -8.85 Q14.8 -16.35 7.8 -20.8" fill="url(#gradient0)" fill-rule="evenodd" stroke="none"/>
    <path d="M-8.65 -22.0 Q-3.6 -26.8 3.3 -24.45 4.1 -24.1 4.95 -23.85 L5.65 -23.1 6.95 -21.75 7.8 -20.8 Q14.8 -16.35 16.2 -8.85 L16.35 -7.4 Q16.05 -0.65 14.85 5.75 L14.4 6.4 Q7.35 10.7 8.1 19.5 L7.9 21.7 7.8 21.75 -8.4 21.95 Q-8.25 16.7 -9.65 11.7 -9.8 11.35 -14.5 9.65 -19.2 7.95 -18.5 -0.4 -17.8 -8.75 -17.85 -14.85 L-8.65 -22.0 M2.85 -23.45 Q2.65 -23.45 2.5 -23.25 1.75 -22.5 1.8 -21.3 L1.8 -18.85 Q1.65 -17.7 2.65 -17.4 3.25 -17.15 3.35 -17.8 L3.8 -21.0 Q4.05 -22.7 2.85 -23.45 M0.05 -18.9 L0.15 -21.35 Q0.1 -22.85 -1.0 -23.45 L-1.15 -23.4 -1.5 -23.1 Q-1.85 -21.05 -1.65 -18.9 L-1.35 -18.3 Q-0.05 -17.15 0.05 -18.9 M15.35 -4.95 Q16.2 -6.4 14.3 -6.3 13.35 -6.25 13.35 -5.4 13.35 -4.35 14.55 -4.5 L15.35 -4.95 M2.1 -15.4 L-5.1 -15.7 Q-14.9 -13.4 -13.05 -2.7 L-11.7 4.05 Q-10.55 9.3 -4.05 8.6 L6.5 8.4 Q8.4 8.1 9.6 6.45 15.3 -1.55 10.65 -10.9 8.05 -15.9 2.1 -15.4 M1.95 11.9 L1.95 12.0 Q2.2 13.0 3.1 12.3 L3.45 11.9 5.75 11.9 7.05 11.45 Q7.75 10.9 7.0 10.35 6.3 9.9 5.5 9.95 L3.5 10.05 Q3.25 9.35 2.55 9.0 1.65 9.2 1.65 10.1 L-2.2 10.05 -2.85 9.35 Q-3.4 9.55 -3.6 10.0 L-5.4 9.9 -6.4 9.95 Q-7.25 9.85 -7.75 10.5 -8.45 11.45 -7.25 11.6 L-5.4 11.8 -3.6 11.85 -3.45 12.0 Q-2.65 12.95 -2.2 11.85 L1.95 11.9 M5.05 16.7 Q6.75 13.95 2.95 14.1 L2.65 14.1 Q0.8 14.2 0.9 15.85 0.95 18.1 3.45 17.7 4.55 17.55 5.05 16.7 M-4.5 -23.15 L-4.65 -23.15 -4.95 -22.8 Q-5.45 -20.75 -5.4 -18.45 L-5.1 -17.85 Q-4.0 -16.8 -3.8 -18.3 L-3.5 -20.7 Q-3.25 -22.45 -4.5 -23.15 M-14.2 -6.0 Q-15.4 -6.65 -16.8 -6.3 L-17.5 -5.85 Q-17.8 -5.25 -17.25 -4.95 -16.05 -4.3 -14.55 -4.6 -14.15 -4.65 -13.95 -5.05 -13.55 -5.7 -14.2 -6.0 M-5.5 16.3 Q-4.9 18.75 -2.05 17.75 -1.45 17.55 -1.2 17.0 0.4 14.0 -3.6 14.25 L-4.55 14.55 Q-5.8 15.1 -5.5 16.3" fill="url(#gradient1)" fill-rule="evenodd" stroke="none"/>
    <path d="M-8.4 21.95 Q-10.05 24.6 -12.35 27.15 -12.85 27.7 -13.5 27.65 -18.15 27.35 -19.15 21.6 -20.05 16.6 -19.95 11.5 -19.85 3.1 -20.0 -5.35 -20.15 -14.75 -19.5 -24.0 -19.35 -26.15 -17.25 -26.85 -9.6 -29.6 -8.65 -22.0 L-17.85 -14.85 Q-17.8 -8.75 -18.5 -0.4 -19.2 7.95 -14.5 9.65 -9.8 11.35 -9.65 11.7 -8.25 16.7 -8.4 21.95 M-11.75 -24.1 Q-14.2 -22.55 -16.8 -21.15 -18.2 -20.35 -17.6 -19.15 -17.45 -18.8 -17.05 -18.95 L-15.2 -19.95 Q-13.25 -21.05 -11.45 -22.5 -10.2 -23.6 -11.75 -24.1 M-17.0 11.95 L-16.95 12.35 -13.1 14.7 -12.6 16.75 -12.6 18.75 Q-12.7 20.2 -11.4 20.35 -11.1 20.35 -11.05 20.1 -10.55 17.9 -10.95 15.6 -11.25 14.05 -12.45 13.2 -14.3 11.95 -16.25 11.35 -16.85 11.35 -17.0 11.95" fill="url(#gradient2)" fill-rule="evenodd" stroke="none"/>
    <path d="M-8.65 -22.0 Q-3.6 -26.8 3.3 -24.45 4.1 -24.1 4.95 -23.85 L5.65 -23.1 6.95 -21.75 7.8 -20.8 Q9.6 -29.5 17.05 -25.95 18.15 -25.4 18.45 -24.15 20.2 -16.05 20.1 -7.75 L19.85 9.6 Q19.7 18.3 15.75 25.35 15.25 26.2 14.0 26.15 9.65 25.9 7.8 21.75 L-8.4 21.95 Q-10.05 24.6 -12.35 27.15 -12.85 27.7 -13.5 27.65 -18.15 27.35 -19.15 21.6 -20.05 16.6 -19.95 11.5 -19.85 3.1 -20.0 -5.35 -20.15 -14.75 -19.5 -24.0 -19.35 -26.15 -17.25 -26.85 -9.6 -29.6 -8.65 -22.0 L-17.85 -14.85 Q-17.8 -8.75 -18.5 -0.4 -19.2 7.95 -14.5 9.65 -9.8 11.35 -9.65 11.7 -8.25 16.7 -8.4 21.95 M7.8 -20.8 Q14.8 -16.35 16.2 -8.85 L16.35 -7.4 Q16.05 -0.65 14.85 5.75 L14.4 6.4 Q7.35 10.7 8.1 19.5 L7.9 21.7 7.8 21.75" fill="none" stroke="#000000" stroke-linecap="round" stroke-linejoin="round" stroke-width="1.0"/>
    <path d="M2.1 -15.4 L-5.1 -15.7 Q-14.9 -13.4 -13.05 -2.7 L-11.7 4.05 Q-10.55 9.3 -4.05 8.6 L6.5 8.4 Q8.4 8.1 9.6 6.45 15.3 -1.55 10.65 -10.9 8.05 -15.9 2.1 -15.4 Z" fill="none" stroke="#000000" stroke-linecap="round" stroke-linejoin="round" stroke-width="1.0"/>
  </g>
  <defs>
    <linearGradient gradientTransform="matrix(-0.0075, 0.0, 0.0, -0.0324, 13.9, -0.4)" gradientUnits="userSpaceOnUse" id="gradient0" spreadMethod="pad" x1="-819.2" x2="819.2">
      <stop offset="0.2784313725490196" stop-color="#303840"/>
      <stop offset="0.796078431372549" stop-color="#686870"/>
    </linearGradient>
    <linearGradient gradientTransform="matrix(0.0, -0.0288, 0.0213, 0.0, -1.1, -1.6)" gradientUnits="userSpaceOnUse" id="gradient1" spreadMethod="pad" x1="-819.2" x2="819.2">
      <stop offset="0.2784313725490196" stop-color="#303840"/>
      <stop offset="0.796078431372549" stop-color="#686870"/>
    </linearGradient>
    <linearGradient gradientTransform="matrix(0.0071, 0.0, 0.0, 0.0337, -14.25, 0.0)" gradientUnits="userSpaceOnUse" id="gradient2" spreadMethod="pad" x1="-819.2" x2="819.2">
      <stop offset="0.2784313725490196" stop-color="#303840"/>
      <stop offset="0.796078431372549" stop-color="#686870"/>
    </linearGradient>
  </defs>
</svg>
