<?xml version="1.0" encoding="UTF-8" standalone="no"?>
<svg xmlns:ffdec="https://www.free-decompiler.com/flash" xmlns:xlink="http://www.w3.org/1999/xlink" ffdec:objectType="shape" height="62.15px" width="92.95px" xmlns="http://www.w3.org/2000/svg">
  <g transform="matrix(1.0, 0.0, 0.0, 1.0, 46.45, 27.7)">
    <path d="M42.75 -13.45 L44.85 -18.05 45.0 -18.75 45.1 -19.55 45.95 -19.95 Q46.1 -18.2 45.75 -16.5 44.9 -13.05 43.45 -9.6 L42.9 -9.15 40.75 -6.65 39.3 -5.15 Q34.15 1.75 27.45 7.3 24.45 10.55 19.8 12.1 15.15 13.7 10.35 14.55 L10.1 6.3 9.95 1.25 12.45 1.45 Q12.7 3.55 12.5 5.65 12.35 7.55 13.2 8.95 L13.35 9.0 16.65 8.1 Q24.65 5.8 30.9 0.25 37.65 -5.95 42.75 -13.45 M-10.05 6.3 L-10.3 14.55 Q-15.1 13.7 -19.75 12.1 -24.45 10.55 -27.4 7.3 -34.15 1.75 -39.3 -5.15 L-42.9 -9.15 -43.4 -9.6 Q-44.9 -13.05 -45.7 -16.5 -46.05 -18.2 -45.9 -19.95 L-45.05 -19.55 -45.0 -18.75 -44.8 -18.05 -42.7 -13.45 Q-37.6 -5.95 -30.85 0.25 -24.6 5.8 -16.6 8.1 L-13.35 9.0 -13.15 8.95 Q-12.3 7.55 -12.45 5.65 -12.65 3.55 -12.45 1.45 L-9.9 1.25 -10.05 6.3 M3.05 -2.95 Q2.2 -1.1 0.0 -1.1 -2.2 -1.1 -3.0 -2.95 -5.75 -9.05 0.0 -9.65 5.8 -9.05 3.05 -2.95 M20.45 -15.35 L24.0 -15.35 24.0 -10.7 27.75 -10.7 27.75 -15.35 31.85 -15.35 Q31.7 -12.05 31.2 -8.7 L30.55 -6.55 Q28.5 -8.35 26.1 -8.75 23.45 -8.8 21.6 -6.75 20.85 -11.05 20.45 -15.35 M2.15 6.15 L5.6 6.0 Q5.25 10.1 1.1 10.95 L0.0 11.05 -1.05 10.95 Q-5.2 10.1 -5.55 6.0 L-2.1 6.15 2.15 6.15 M-27.75 -15.35 L-27.75 -10.7 -24.0 -10.7 -24.0 -15.35 -20.4 -15.35 -21.55 -6.75 Q-23.4 -8.8 -26.05 -8.75 -28.5 -8.35 -30.5 -6.55 L-31.15 -8.7 -31.8 -15.35 -27.75 -15.35" fill="#101010" fill-rule="evenodd" stroke="none"/>
    <path d="M27.75 -15.35 L27.75 -10.7 24.0 -10.7 24.0 -15.35 27.75 -15.35 M-27.75 -15.35 L-24.0 -15.35 -24.0 -10.7 -27.75 -10.7 -27.75 -15.35" fill="#707870" fill-rule="evenodd" stroke="none"/>
    <path d="M3.55 1.6 Q3.8 2.65 3.45 4.05 3.2 5.2 2.15 6.15 L-2.1 6.15 Q-3.2 5.2 -3.45 4.05 -3.8 2.65 -3.5 1.6 -2.95 -0.45 0.0 -1.1 3.0 -0.45 3.55 1.6" fill="#8858c8" fill-rule="evenodd" stroke="none"/>
    <path d="M10.3 -17.05 Q10.45 -22.15 9.9 -27.2 L13.85 -27.15 Q16.9 -26.75 19.9 -25.65 19.95 -20.5 20.45 -15.35 20.85 -11.05 21.6 -6.75 23.45 -8.8 26.1 -8.75 28.5 -8.35 30.55 -6.55 L31.2 -8.7 Q31.7 -12.05 31.85 -15.35 32.0 -19.0 31.7 -22.55 L32.6 -22.15 Q39.0 -19.4 42.75 -13.45 37.65 -5.95 30.9 0.25 24.65 5.8 16.65 8.1 L13.35 9.0 13.2 8.95 Q12.35 7.55 12.5 5.65 12.7 3.55 12.45 1.45 L9.95 1.25 7.5 1.7 7.25 1.6 6.9 -2.3 Q6.25 -6.25 8.85 -8.9 L9.6 -9.4 Q10.15 -13.25 10.3 -17.05" fill="url(#gradient0)" fill-rule="evenodd" stroke="none"/>
    <path d="M-4.2 -22.6 Q-2.5 -23.65 -0.55 -24.35 L0.0 -24.45 0.6 -24.35 Q2.4 -23.7 4.05 -22.7 L4.05 -15.55 -4.2 -15.55 -4.2 -22.6" fill="url(#gradient1)" fill-rule="evenodd" stroke="none"/>
    <path d="M-10.25 -17.05 Q-7.65 -20.5 -4.2 -22.6 L-4.2 -15.55 4.05 -15.55 4.05 -22.7 Q7.6 -20.6 10.3 -17.05 10.15 -13.25 9.6 -9.4 L8.85 -8.9 Q6.25 -6.25 6.9 -2.3 L7.25 1.6 3.55 1.6 Q3.0 -0.45 0.0 -1.1 -2.95 -0.45 -3.5 1.6 L-7.2 1.6 -6.85 -2.3 Q-6.2 -6.25 -8.85 -8.9 L-9.6 -9.4 Q-10.15 -13.25 -10.25 -17.05 M3.05 -2.95 Q5.8 -9.05 0.0 -9.65 -5.75 -9.05 -3.0 -2.95 -2.2 -1.1 0.0 -1.1 2.2 -1.1 3.05 -2.95" fill="url(#gradient2)" fill-rule="evenodd" stroke="none"/>
    <path d="M19.9 -25.65 Q28.35 -27.65 31.7 -22.55 32.0 -19.0 31.85 -15.35 L27.75 -15.35 24.0 -15.35 20.45 -15.35 Q19.95 -20.5 19.9 -25.65" fill="url(#gradient3)" fill-rule="evenodd" stroke="none"/>
    <path d="M10.1 6.3 L6.75 11.2 Q4.4 14.4 0.9 15.55 L0.0 15.7 -0.25 15.7 -0.9 15.55 Q-4.4 14.4 -6.75 11.2 L-10.05 6.3 -9.9 1.25 -7.45 1.7 -7.2 1.6 -3.5 1.6 Q-3.8 2.65 -3.45 4.05 -3.2 5.2 -2.1 6.15 L-5.55 6.0 Q-5.2 10.1 -1.05 10.95 L0.0 11.05 1.1 10.95 Q5.25 10.1 5.6 6.0 L2.15 6.15 Q3.2 5.2 3.45 4.05 3.8 2.65 3.55 1.6 L7.25 1.6 7.5 1.7 9.95 1.25 10.1 6.3" fill="url(#gradient4)" fill-rule="evenodd" stroke="none"/>
    <path d="M6.75 11.2 Q7.55 20.5 5.55 29.5 4.65 33.4 -0.25 33.45 L-0.25 15.7 0.0 15.7 0.9 15.55 Q4.4 14.4 6.75 11.2" fill="url(#gradient5)" fill-rule="evenodd" stroke="none"/>
    <path d="M-42.7 -13.45 Q-39.0 -19.4 -32.55 -22.15 L-31.65 -22.55 Q-32.0 -19.0 -31.8 -15.35 L-31.15 -8.7 -30.5 -6.55 Q-28.5 -8.35 -26.05 -8.75 -23.4 -8.8 -21.55 -6.75 L-20.4 -15.35 Q-19.95 -20.5 -19.85 -25.65 -16.85 -26.75 -13.8 -27.15 L-9.9 -27.2 Q-10.45 -22.15 -10.25 -17.05 -10.15 -13.25 -9.6 -9.4 L-8.85 -8.9 Q-6.2 -6.25 -6.85 -2.3 L-7.2 1.6 -7.45 1.7 -9.9 1.25 -12.45 1.45 Q-12.65 3.55 -12.45 5.65 -12.3 7.55 -13.15 8.95 L-13.35 9.0 -16.6 8.1 Q-24.6 5.8 -30.85 0.25 -37.6 -5.95 -42.7 -13.45" fill="url(#gradient6)" fill-rule="evenodd" stroke="none"/>
    <path d="M-31.65 -22.55 Q-28.35 -27.65 -19.85 -25.65 -19.95 -20.5 -20.4 -15.35 L-24.0 -15.35 -27.75 -15.35 -31.8 -15.35 Q-32.0 -19.0 -31.65 -22.55" fill="url(#gradient7)" fill-rule="evenodd" stroke="none"/>
    <path d="M-0.25 33.45 Q-4.6 33.4 -5.5 29.5 -7.55 20.5 -6.75 11.2 -4.4 14.4 -0.9 15.55 L-0.25 15.7 -0.25 33.45" fill="url(#gradient8)" fill-rule="evenodd" stroke="none"/>
    <path d="M10.3 -17.05 Q10.45 -22.15 9.9 -27.2 L13.85 -27.15 Q16.9 -26.75 19.9 -25.65 28.35 -27.65 31.7 -22.55 L32.6 -22.15 Q39.0 -19.4 42.75 -13.45 L44.85 -18.05 45.0 -18.75 45.1 -19.55 45.95 -19.95 Q46.1 -18.2 45.75 -16.5 44.9 -13.05 43.45 -9.6 L42.9 -9.15 40.75 -6.65 39.3 -5.15 Q34.15 1.75 27.45 7.3 24.45 10.55 19.8 12.1 15.15 13.7 10.35 14.55 L10.1 6.3 6.75 11.2 Q7.55 20.5 5.55 29.5 4.65 33.4 -0.25 33.45 -4.6 33.4 -5.5 29.5 -7.55 20.5 -6.75 11.2 L-10.05 6.3 -10.3 14.55 Q-15.1 13.7 -19.75 12.1 -24.45 10.55 -27.4 7.3 -34.15 1.75 -39.3 -5.15 L-42.9 -9.15 -43.4 -9.6 Q-44.9 -13.05 -45.7 -16.5 -46.05 -18.2 -45.9 -19.95 L-45.05 -19.55 -45.0 -18.75 -44.8 -18.05 -42.7 -13.45 Q-39.0 -19.4 -32.55 -22.15 L-31.65 -22.55 Q-28.35 -27.65 -19.85 -25.65 -16.85 -26.75 -13.8 -27.15 L-9.9 -27.2 Q-10.45 -22.15 -10.25 -17.05 -7.65 -20.5 -4.2 -22.6 -2.5 -23.65 -0.55 -24.35 L0.0 -24.45 0.6 -24.35 Q2.4 -23.7 4.05 -22.7 7.6 -20.6 10.3 -17.05 10.15 -13.25 9.6 -9.4 L8.85 -8.9 Q6.25 -6.25 6.9 -2.3 L7.25 1.6 7.5 1.7 9.95 1.25 12.45 1.45 Q12.7 3.55 12.5 5.65 12.35 7.55 13.2 8.95 L13.35 9.0 16.65 8.1 Q24.65 5.8 30.9 0.25 37.65 -5.95 42.75 -13.45 M-4.2 -22.6 L-4.2 -15.55 4.05 -15.55 4.05 -22.7 M3.05 -2.95 Q5.8 -9.05 0.0 -9.65 -5.75 -9.05 -3.0 -2.95 -2.2 -1.1 0.0 -1.1 2.2 -1.1 3.05 -2.95 M31.85 -15.35 Q32.0 -19.0 31.7 -22.55 M24.0 -15.35 L20.45 -15.35 Q20.85 -11.05 21.6 -6.75 23.45 -8.8 26.1 -8.75 28.5 -8.35 30.55 -6.55 L31.2 -8.7 Q31.7 -12.05 31.85 -15.35 L27.75 -15.35 27.75 -10.7 24.0 -10.7 24.0 -15.35 27.75 -15.35 M19.9 -25.65 Q19.95 -20.5 20.45 -15.35 M3.55 1.6 Q3.8 2.65 3.45 4.05 3.2 5.2 2.15 6.15 L5.6 6.0 Q5.25 10.1 1.1 10.95 L0.0 11.05 -1.05 10.95 Q-5.2 10.1 -5.55 6.0 L-2.1 6.15 Q-3.2 5.2 -3.45 4.05 -3.8 2.65 -3.5 1.6 L-7.2 1.6 -7.45 1.7 -9.9 1.25 -10.05 6.3 M7.25 1.6 L3.55 1.6 Q3.0 -0.45 0.0 -1.1 -2.95 -0.45 -3.5 1.6 M10.1 6.3 L9.95 1.25 M6.75 11.2 Q4.4 14.4 0.9 15.55 L0.0 15.7 -0.25 15.7 -0.9 15.55 Q-4.4 14.4 -6.75 11.2 M-24.0 -15.35 L-27.75 -15.35 -27.75 -10.7 -24.0 -10.7 -24.0 -15.35 -20.4 -15.35 Q-19.95 -20.5 -19.85 -25.65 M-31.65 -22.55 Q-32.0 -19.0 -31.8 -15.35 L-27.75 -15.35 M-31.8 -15.35 L-31.15 -8.7 -30.5 -6.55 Q-28.5 -8.35 -26.05 -8.75 -23.4 -8.8 -21.55 -6.75 L-20.4 -15.35 M-7.2 1.6 L-6.85 -2.3 Q-6.2 -6.25 -8.85 -8.9 L-9.6 -9.4 Q-10.15 -13.25 -10.25 -17.05 M-42.7 -13.45 Q-37.6 -5.95 -30.85 0.25 -24.6 5.8 -16.6 8.1 L-13.35 9.0 -13.15 8.95 Q-12.3 7.55 -12.45 5.65 -12.65 3.55 -12.45 1.45 L-9.9 1.25 M2.15 6.15 L-2.1 6.15" fill="none" stroke="#000000" stroke-linecap="round" stroke-linejoin="round" stroke-width="1.0"/>
    <path d="M-0.25 15.7 L-0.25 33.45" fill="none" stroke="#000000" stroke-linecap="round" stroke-linejoin="round" stroke-width="2.0"/>
  </g>
  <defs>
    <linearGradient gradientTransform="matrix(-0.0219, 0.0, 0.0, 0.0221, 24.75, -9.1)" gradientUnits="userSpaceOnUse" id="gradient0" spreadMethod="pad" x1="-819.2" x2="819.2">
      <stop offset="0.17254901960784313" stop-color="#a8b0b8"/>
      <stop offset="1.0" stop-color="#484858"/>
    </linearGradient>
    <linearGradient gradientTransform="matrix(0.005, 0.0, 0.0, 0.0054, -0.05, -20.05)" gradientUnits="userSpaceOnUse" id="gradient1" spreadMethod="pad" x1="-819.2" x2="819.2">
      <stop offset="0.1450980392156863" stop-color="#404838"/>
      <stop offset="0.3176470588235294" stop-color="#98a880"/>
      <stop offset="0.4980392156862745" stop-color="#e8f0e8"/>
      <stop offset="0.6784313725490196" stop-color="#98a880"/>
      <stop offset="0.8666666666666667" stop-color="#404838"/>
    </linearGradient>
    <linearGradient gradientTransform="matrix(0.0125, 0.0, 0.0, 0.0148, 0.0, -10.55)" gradientUnits="userSpaceOnUse" id="gradient2" spreadMethod="pad" x1="-819.2" x2="819.2">
      <stop offset="0.1450980392156863" stop-color="#404838"/>
      <stop offset="0.3176470588235294" stop-color="#98a880"/>
      <stop offset="0.4980392156862745" stop-color="#e8f0e8"/>
      <stop offset="0.6784313725490196" stop-color="#98a880"/>
      <stop offset="0.8666666666666667" stop-color="#404838"/>
    </linearGradient>
    <radialGradient cx="0" cy="0" gradientTransform="matrix(-0.01, 0.0, 0.0, 0.01, 25.9, -20.5)" gradientUnits="userSpaceOnUse" id="gradient3" r="819.2" spreadMethod="pad">
      <stop offset="0.17254901960784313" stop-color="#e8f0e8"/>
      <stop offset="0.7333333333333333" stop-color="#283040"/>
    </radialGradient>
    <linearGradient gradientTransform="matrix(0.0123, 0.0, 0.0, 0.0088, 0.0, 8.45)" gradientUnits="userSpaceOnUse" id="gradient4" spreadMethod="pad" x1="-819.2" x2="819.2">
      <stop offset="0.17254901960784313" stop-color="#a8b0b8"/>
      <stop offset="0.9058823529411765" stop-color="#283040"/>
    </linearGradient>
    <linearGradient gradientTransform="matrix(-0.0044, 0.0, 0.0, -0.0136, 3.4, 22.3)" gradientUnits="userSpaceOnUse" id="gradient5" spreadMethod="pad" x1="-819.2" x2="819.2">
      <stop offset="0.13725490196078433" stop-color="#101010"/>
      <stop offset="0.4470588235294118" stop-color="#707870"/>
      <stop offset="0.7490196078431373" stop-color="#98a880"/>
      <stop offset="0.9490196078431372" stop-color="#e8f0e8"/>
    </linearGradient>
    <linearGradient gradientTransform="matrix(0.022, 0.0, 0.0, 0.0221, -24.75, -9.1)" gradientUnits="userSpaceOnUse" id="gradient6" spreadMethod="pad" x1="-819.2" x2="819.2">
      <stop offset="0.17254901960784313" stop-color="#a8b0b8"/>
      <stop offset="1.0" stop-color="#484858"/>
    </linearGradient>
    <radialGradient cx="0" cy="0" gradientTransform="matrix(0.01, 0.0, 0.0, 0.01, -25.85, -20.5)" gradientUnits="userSpaceOnUse" id="gradient7" r="819.2" spreadMethod="pad">
      <stop offset="0.17254901960784313" stop-color="#e8f0e8"/>
      <stop offset="0.7333333333333333" stop-color="#283040"/>
    </radialGradient>
    <linearGradient gradientTransform="matrix(0.0041, 0.0, 0.0, 0.0136, -3.65, 22.3)" gradientUnits="userSpaceOnUse" id="gradient8" spreadMethod="pad" x1="-819.2" x2="819.2">
      <stop offset="0.13725490196078433" stop-color="#101010"/>
      <stop offset="0.4470588235294118" stop-color="#707870"/>
      <stop offset="0.7490196078431373" stop-color="#98a880"/>
      <stop offset="0.9490196078431372" stop-color="#e8f0e8"/>
    </linearGradient>
  </defs>
</svg>
