<?xml version="1.0" encoding="UTF-8" standalone="no"?>
<svg xmlns:ffdec="https://www.free-decompiler.com/flash" xmlns:xlink="http://www.w3.org/1999/xlink" ffdec:objectType="shape" height="26.85px" width="77.85px" xmlns="http://www.w3.org/2000/svg">
  <g transform="matrix(1.0, 0.0, 0.0, 1.0, 38.8, 12.15)">
    <path d="M-3.3 -2.6 L-3.3 6.55 1.35 1.95 -3.3 -2.6 M-11.1 1.95 L-10.95 1.65 -11.3 1.95 -15.95 -2.6 -15.95 7.2 -6.0 7.2 -10.95 2.3 -11.1 1.95 M-9.9 1.95 L-5.3 6.5 -5.3 -2.6 -9.9 1.95 M-17.95 -3.15 L-23.7 -3.15 -23.7 7.2 -17.95 7.2 -17.95 -3.15 M-6.1 -3.2 L-15.1 -3.15 -10.6 1.25 -6.1 -3.2 M-24.7 -3.15 L-28.3 -3.1 -28.3 7.2 -24.7 7.2 -24.7 -3.15 M-31.3 -3.1 L-33.3 -3.1 -33.3 7.2 -31.3 7.2 -31.3 -3.1 M7.45 7.2 L7.35 -2.6 -2.6 7.2 7.45 7.2 M2.05 1.25 L6.55 -3.25 -2.5 -3.2 2.05 1.25 M13.55 2.0 L16.95 6.7 16.95 -2.75 13.55 2.0 M12.55 2.35 L12.5 2.3 12.5 2.25 9.35 -2.05 9.45 7.2 16.1 7.2 12.55 2.35 M32.05 -1.15 L22.55 -1.15 22.55 3.85 32.05 3.85 32.05 -1.15 M16.15 -3.3 L9.7 -3.25 12.9 1.15 16.15 -3.3 M8.3 -5.3 L8.55 -5.25 16.95 -5.3 16.95 -7.15 Q16.95 -8.2 17.65 -8.95 18.4 -9.65 19.45 -9.65 L36.55 -9.65 Q37.6 -9.65 38.3 -8.95 39.05 -8.2 39.05 -7.15 L39.05 12.2 Q39.05 13.25 38.35 13.95 L38.3 14.0 Q37.6 14.7 36.55 14.7 L19.45 14.7 Q18.4 14.7 17.65 13.95 16.95 13.25 16.95 12.2 L16.95 9.2 -34.95 9.2 -35.65 8.9 -35.95 8.2 -35.9 7.9 -36.3 7.9 -36.3 -4.1 -35.95 -4.1 -35.65 -4.8 -34.95 -5.1 -17.4 -5.15 -16.95 -5.3 -16.45 -5.15 -4.65 -5.2 -4.3 -5.3 -3.9 -5.2 8.05 -5.25 8.3 -5.3" fill="#000000" fill-opacity="0.5019608" fill-rule="evenodd" stroke="none"/>
    <path d="M19.55 -8.4 L19.55 -6.3 19.55 -4.15 19.55 1.85 19.55 4.7 19.55 11.7 16.95 11.7 Q16.1 11.7 15.5 11.1 14.95 10.55 14.95 9.7 L14.95 5.7 14.95 -6.8 14.95 -9.65 Q14.95 -10.5 15.5 -11.1 16.1 -11.65 16.95 -11.65 L19.55 -11.65 19.55 -8.4 M17.55 -6.8 L14.95 -6.8 17.55 -6.8 M17.55 5.7 L14.95 5.7 17.55 5.7" fill="#182020" fill-rule="evenodd" stroke="none"/>
    <path d="M19.55 -4.15 L19.55 -6.3 30.05 -6.3 30.05 -4.15 19.55 -4.15 M30.05 1.85 L30.05 4.7 19.55 4.7 19.55 1.85 30.05 1.85" fill="#887020" fill-rule="evenodd" stroke="none"/>
    <path d="M19.55 -6.3 L19.55 -8.4 30.05 -8.4 30.05 -6.3 19.55 -6.3 M33.3 -11.65 L34.05 -11.65 Q34.9 -11.65 35.45 -11.1 36.05 -10.5 36.05 -9.65 L36.05 9.7 Q36.05 10.55 35.45 11.1 34.9 11.7 34.05 11.7 L33.3 11.7 33.3 -11.65 M30.05 11.7 L19.55 11.7 19.55 4.7 30.05 4.7 30.05 11.7" fill="#382018" fill-rule="evenodd" stroke="none"/>
    <path d="M19.55 -8.4 L19.55 -11.65 30.05 -11.65 30.05 -8.4 19.55 -8.4" fill="#605030" fill-rule="evenodd" stroke="none"/>
    <path d="M30.05 -6.3 L30.05 -8.4 30.05 -11.65 33.3 -11.65 33.3 11.7 30.05 11.7 30.05 4.7 30.05 1.85 30.05 -4.15 30.05 -6.3" fill="#586870" fill-rule="evenodd" stroke="none"/>
    <path d="M19.55 -6.3 L19.55 -8.4 19.55 -11.65 16.95 -11.65 Q16.1 -11.65 15.5 -11.1 14.95 -10.5 14.95 -9.65 L14.95 -6.8 14.95 5.7 14.95 9.7 Q14.95 10.55 15.5 11.1 16.1 11.7 16.95 11.7 L19.55 11.7 19.55 4.7 19.55 1.85 19.55 -4.15 19.55 -6.3 30.05 -6.3 30.05 -8.4 19.55 -8.4 M30.05 -4.15 L30.05 -6.3 M30.05 -11.65 L30.05 -8.4 M30.05 -11.65 L33.3 -11.65 34.05 -11.65 Q34.9 -11.65 35.45 -11.1 36.05 -10.5 36.05 -9.65 L36.05 9.7 Q36.05 10.55 35.45 11.1 34.9 11.7 34.05 11.7 L33.3 11.7 30.05 11.7 19.55 11.7 M19.55 -4.15 L30.05 -4.15 30.05 1.85 30.05 4.7 30.05 11.7 M19.55 -11.65 L30.05 -11.65 M30.05 1.85 L19.55 1.85 M19.55 4.7 L30.05 4.7 M33.3 11.7 L33.3 -11.65" fill="none" stroke="#000000" stroke-linecap="round" stroke-linejoin="round" stroke-width="1.0"/>
    <path d="M5.8 -6.8 L5.95 5.7 M-6.8 -6.8 L-6.8 5.7 M-19.45 5.7 L-19.45 -6.8" fill="none" stroke="#888880" stroke-linecap="round" stroke-linejoin="round" stroke-width="2.0"/>
    <path d="M14.95 -6.8 L17.55 -6.8 M14.95 -6.8 L5.8 -6.8 -6.8 -6.8 -19.45 -6.8 -26.7 -6.8 -37.45 -6.8 M14.95 5.7 L5.95 5.7 -6.8 5.7 -19.45 5.7 -26.7 5.7 -37.45 5.7 M14.95 5.7 L17.55 5.7" fill="none" stroke="#887020" stroke-linecap="round" stroke-linejoin="round" stroke-width="2.0"/>
    <path d="M5.8 -6.8 L10.4 -0.5 14.95 -6.8 M5.95 5.7 L10.4 -0.5 14.95 5.7 M-6.8 5.7 L-0.45 -0.55 -6.8 -6.8 -13.1 -0.55 -19.45 -6.8 M-6.8 5.7 L-13.1 -0.55 -19.45 5.7 M-26.7 -6.8 L-26.7 5.7 M5.8 -6.8 L-0.45 -0.55 5.95 5.7" fill="none" stroke="#887020" stroke-linecap="round" stroke-linejoin="round" stroke-width="1.0"/>
    <path d="M-30.8 -6.6 L-30.8 5.4 -33.8 5.4 -33.8 -6.6 -30.8 -6.6" fill="url(#gradient0)" fill-rule="evenodd" stroke="none"/>
    <path d="M-35.8 -6.6 L-35.8 5.4 -38.8 5.4 -38.8 -6.6 -35.8 -6.6" fill="url(#gradient1)" fill-rule="evenodd" stroke="none"/>
  </g>
  <defs>
    <linearGradient gradientTransform="matrix(0.0018, 0.0, 0.0, 0.0073, -32.3, -0.65)" gradientUnits="userSpaceOnUse" id="gradient0" spreadMethod="pad" x1="-819.2" x2="819.2">
      <stop offset="0.0" stop-color="#303840"/>
      <stop offset="0.23921568627450981" stop-color="#888880"/>
      <stop offset="0.5450980392156862" stop-color="#a0b0b8"/>
      <stop offset="0.803921568627451" stop-color="#888880"/>
      <stop offset="1.0" stop-color="#303840"/>
    </linearGradient>
    <linearGradient gradientTransform="matrix(0.0018, 0.0, 0.0, 0.0073, -37.3, -0.65)" gradientUnits="userSpaceOnUse" id="gradient1" spreadMethod="pad" x1="-819.2" x2="819.2">
      <stop offset="0.0" stop-color="#303840"/>
      <stop offset="0.23921568627450981" stop-color="#888880"/>
      <stop offset="0.5450980392156862" stop-color="#a0b0b8"/>
      <stop offset="0.803921568627451" stop-color="#888880"/>
      <stop offset="1.0" stop-color="#303840"/>
    </linearGradient>
  </defs>
</svg>
