<?xml version="1.0" encoding="UTF-8" standalone="no"?>
<svg xmlns:ffdec="https://www.free-decompiler.com/flash" xmlns:xlink="http://www.w3.org/1999/xlink" ffdec:objectType="shape" height="24.35px" width="75.35px" xmlns="http://www.w3.org/2000/svg">
  <g transform="matrix(1.0, 0.0, 0.0, 1.0, 38.8, 12.15)">
    <path d="M-30.8 -6.6 L-30.8 5.4 -33.8 5.4 -33.8 -6.6 -30.8 -6.6" fill="url(#gradient0)" fill-rule="evenodd" stroke="none"/>
    <path d="M-35.8 -6.6 L-35.8 5.4 -38.8 5.4 -38.8 -6.6 -35.8 -6.6" fill="url(#gradient1)" fill-rule="evenodd" stroke="none"/>
    <path d="M14.95 -6.8 L14.95 -9.65 Q14.95 -10.5 15.5 -11.1 16.1 -11.65 16.95 -11.65 L19.55 -11.65 19.55 -8.4 19.55 -6.3 19.55 -4.15 19.55 1.85 19.55 4.7 19.55 11.7 16.95 11.7 Q16.1 11.7 15.5 11.1 14.95 10.55 14.95 9.7 L14.95 5.7 14.95 -6.8 17.55 -6.8 14.95 -6.8 M17.55 5.7 L14.95 5.7 17.55 5.7" fill="#182020" fill-rule="evenodd" stroke="none"/>
    <path d="M19.55 -6.3 L30.05 -6.3 30.05 -4.15 19.55 -4.15 19.55 -6.3 M30.05 1.85 L30.05 4.7 19.55 4.7 19.55 1.85 30.05 1.85" fill="#887020" fill-rule="evenodd" stroke="none"/>
    <path d="M33.3 -11.65 L34.05 -11.65 Q34.9 -11.65 35.45 -11.1 36.05 -10.5 36.05 -9.65 L36.05 9.7 Q36.05 10.55 35.45 11.1 34.9 11.7 34.05 11.7 L33.3 11.7 33.3 -11.65 M30.05 11.7 L19.55 11.7 19.55 4.7 30.05 4.7 30.05 11.7 M19.55 -6.3 L19.55 -8.4 30.05 -8.4 30.05 -6.3 19.55 -6.3" fill="#382018" fill-rule="evenodd" stroke="none"/>
    <path d="M19.55 -8.4 L19.55 -11.65 30.05 -11.65 30.05 -8.4 19.55 -8.4" fill="#605030" fill-rule="evenodd" stroke="none"/>
    <path d="M30.05 -11.65 L33.3 -11.65 33.3 11.7 30.05 11.7 30.05 4.7 30.05 1.85 30.05 -4.15 30.05 -6.3 30.05 -8.4 30.05 -11.65" fill="#586870" fill-rule="evenodd" stroke="none"/>
    <path d="M19.55 -11.65 L16.95 -11.65 Q16.1 -11.65 15.5 -11.1 14.95 -10.5 14.95 -9.65 L14.95 -6.8 14.95 5.7 14.95 9.7 Q14.95 10.55 15.5 11.1 16.1 11.7 16.95 11.7 L19.55 11.7 30.05 11.7 33.3 11.7 34.05 11.7 Q34.9 11.7 35.45 11.1 36.05 10.55 36.05 9.7 L36.05 -9.65 Q36.05 -10.5 35.45 -11.1 34.9 -11.65 34.05 -11.65 L33.3 -11.65 33.3 11.7 M19.55 -8.4 L19.55 -11.65 30.05 -11.65 33.3 -11.65 M19.55 -8.4 L19.55 -6.3 30.05 -6.3 30.05 -8.4 19.55 -8.4 M19.55 -6.3 L19.55 -4.15 30.05 -4.15 30.05 -6.3 M30.05 -11.65 L30.05 -8.4 M30.05 4.7 L30.05 1.85 19.55 1.85 19.55 4.7 30.05 4.7 30.05 11.7 M19.55 4.7 L19.55 11.7 M30.05 -4.15 L30.05 1.85 M19.55 -4.15 L19.55 1.85" fill="none" stroke="#000000" stroke-linecap="round" stroke-linejoin="round" stroke-width="1.0"/>
    <path d="M-19.45 5.7 L-19.45 -6.8 M5.8 -6.8 L5.95 5.7 M-6.8 -6.8 L-6.8 5.7" fill="none" stroke="#888880" stroke-linecap="round" stroke-linejoin="round" stroke-width="2.0"/>
    <path d="M14.95 -6.8 L17.55 -6.8 M14.95 5.7 L5.95 5.7 -6.8 5.7 -19.45 5.7 -26.7 5.7 -37.45 5.7 M14.95 -6.8 L5.8 -6.8 -6.8 -6.8 -19.45 -6.8 -26.7 -6.8 -37.45 -6.8 M14.95 5.7 L17.55 5.7" fill="none" stroke="#887020" stroke-linecap="round" stroke-linejoin="round" stroke-width="2.0"/>
    <path d="M14.95 -6.8 L10.4 -0.5 14.95 5.7 M5.8 -6.8 L10.4 -0.5 5.95 5.7 -0.45 -0.55 -6.8 5.7 -13.1 -0.55 -19.45 5.7 M-26.7 -6.8 L-26.7 5.7 M-19.45 -6.8 L-13.1 -0.55 -6.8 -6.8 -0.45 -0.55 5.8 -6.8" fill="none" stroke="#887020" stroke-linecap="round" stroke-linejoin="round" stroke-width="1.0"/>
  </g>
  <defs>
    <linearGradient gradientTransform="matrix(0.0018, 0.0, 0.0, 0.0073, -32.3, -0.65)" gradientUnits="userSpaceOnUse" id="gradient0" spreadMethod="pad" x1="-819.2" x2="819.2">
      <stop offset="0.0" stop-color="#303840"/>
      <stop offset="0.23921568627450981" stop-color="#888880"/>
      <stop offset="0.5450980392156862" stop-color="#a0b0b8"/>
      <stop offset="0.803921568627451" stop-color="#888880"/>
      <stop offset="1.0" stop-color="#303840"/>
    </linearGradient>
    <linearGradient gradientTransform="matrix(0.0018, 0.0, 0.0, 0.0073, -37.3, -0.65)" gradientUnits="userSpaceOnUse" id="gradient1" spreadMethod="pad" x1="-819.2" x2="819.2">
      <stop offset="0.0" stop-color="#303840"/>
      <stop offset="0.23921568627450981" stop-color="#888880"/>
      <stop offset="0.5450980392156862" stop-color="#a0b0b8"/>
      <stop offset="0.803921568627451" stop-color="#888880"/>
      <stop offset="1.0" stop-color="#303840"/>
    </linearGradient>
  </defs>
</svg>
