<?xml version="1.0" encoding="UTF-8" standalone="no"?>
<svg xmlns:ffdec="https://www.free-decompiler.com/flash" xmlns:xlink="http://www.w3.org/1999/xlink" ffdec:objectType="shape" height="227.15px" width="149.55px" xmlns="http://www.w3.org/2000/svg">
  <g transform="matrix(1.0, 0.0, 0.0, 1.0, 71.05, 53.0)">
    <path d="M70.45 -14.85 L78.5 1.8 78.5 61.65 67.95 126.9 39.45 174.15 -20.55 174.15 -49.05 126.9 -59.55 61.65 -59.55 1.8 -51.5 -14.85 -30.5 -14.85 -9.9 -41.5 28.8 -41.5 49.45 -14.85 70.45 -14.85" fill="#000000" fill-opacity="0.5019608" fill-rule="evenodd" stroke="none"/>
    <path d="M4.95 -51.5 L18.8 -51.5 20.2 -40.75 4.95 -40.75 20.2 -40.75 20.5 -38.35 13.4 -38.35 13.4 -33.85 -14.45 -33.85 -14.45 -38.35 -21.55 -38.35 -21.25 -40.75 -19.9 -51.5 -6.0 -51.5 -6.0 -40.75 -6.0 -38.75 4.95 -38.75 4.95 -40.75 4.95 -51.5 M-67.85 -11.75 L-61.5 -24.85 -40.5 -24.85 -19.9 -51.5 -21.25 -40.75 -21.55 -38.35 Q-34.95 -27.4 -38.25 -11.75 L-67.85 -11.75 M-21.25 -40.75 L-6.0 -40.75 -21.25 -40.75" fill="#303840" fill-rule="evenodd" stroke="none"/>
    <path d="M18.8 -51.5 L39.45 -24.85 60.45 -24.85 66.8 -11.75 37.2 -11.75 Q33.85 -27.4 20.5 -38.35 L20.2 -40.75 18.8 -51.5 M57.95 116.9 L29.45 164.15 14.5 42.25 Q19.5 37.3 22.65 29.8 19.5 37.3 14.5 42.25 L-15.55 42.25 Q-20.6 37.3 -23.75 29.8 -27.15 21.6 -28.3 10.4 L-28.3 -18.1 -20.05 -26.35 19.0 -26.35 27.25 -18.1 27.25 10.4 Q26.1 21.6 22.65 29.8 L57.95 116.9 M-6.0 -51.5 L4.95 -51.5 4.95 -40.75 4.95 -38.75 -6.0 -38.75 -6.0 -40.75 4.95 -40.75 -6.0 -40.75 -6.0 -51.5" fill="#283040" fill-rule="evenodd" stroke="none"/>
    <path d="M-30.55 164.15 L-59.05 116.9 -23.75 29.8 Q-20.6 37.3 -15.55 42.25 L-30.55 164.15 M-21.55 -38.35 L-14.45 -38.35 -14.45 -33.85 13.4 -33.85 13.4 -38.35 20.5 -38.35 19.0 -26.35 -20.05 -26.35 -21.55 -38.35" fill="#586870" fill-rule="evenodd" stroke="none"/>
    <path d="M-69.55 51.65 L-69.55 -8.2 -67.85 -11.75 -38.25 -11.75 Q-34.95 -27.4 -21.55 -38.35 L-20.05 -26.35 -28.3 -18.1 -28.3 10.4 -69.55 51.65" fill="#707878" fill-rule="evenodd" stroke="none"/>
    <path d="M-59.05 116.9 L-69.55 51.65 -28.3 10.4 Q-27.15 21.6 -23.75 29.8 L-59.05 116.9" fill="#687070" fill-rule="evenodd" stroke="none"/>
    <path d="M66.8 -11.75 L68.5 -8.2 68.5 51.65 27.25 10.4 27.25 -18.1 19.05 -26.35 19.0 -26.35 20.5 -38.35 Q33.85 -27.4 37.2 -11.75 L66.8 -11.75" fill="#384048" fill-rule="evenodd" stroke="none"/>
    <path d="M68.5 51.65 L57.95 116.9 22.65 29.8 Q26.1 21.6 27.25 10.4 L68.5 51.65" fill="#283848" fill-rule="evenodd" stroke="none"/>
    <path d="M29.45 164.15 L-30.55 164.15 -15.55 42.25 14.5 42.25 29.45 164.15" fill="#405058" fill-rule="evenodd" stroke="none"/>
    <path d="M4.95 -51.5 L4.95 -40.75 4.95 -38.75 -6.0 -38.75 -6.0 -40.75 -6.0 -51.5 M20.2 -40.75 L18.8 -51.5 M27.25 -18.1 L27.25 10.4 68.5 51.65 M19.05 -26.35 L19.0 -26.35 27.25 -18.1 M20.5 -38.35 L20.2 -40.75 M20.5 -38.35 L19.0 -26.35 -20.05 -26.35 -21.55 -38.35 -21.25 -40.75 -19.9 -51.5 M37.2 -11.75 L66.8 -11.75 M27.25 10.4 Q26.1 21.6 22.65 29.8 L57.95 116.9 M22.65 29.8 Q19.5 37.3 14.5 42.25 L29.45 164.15 M-38.25 -11.75 L-67.85 -11.75 M-20.05 -26.35 L-28.3 -18.1 -28.3 10.4 Q-27.15 21.6 -23.75 29.8 -20.6 37.3 -15.55 42.25 L14.5 42.25 M-69.55 51.65 L-28.3 10.4 M-59.05 116.9 L-23.75 29.8 M-15.55 42.25 L-30.55 164.15" fill="none" stroke="#000000" stroke-linecap="round" stroke-linejoin="round" stroke-width="1.0"/>
    <path d="M-21.55 -38.35 L-14.45 -38.35 -14.45 -33.85 13.4 -33.85 13.4 -38.35 20.5 -38.35 Q33.85 -27.4 37.2 -11.75 M-21.55 -38.35 Q-34.95 -27.4 -38.25 -11.75" fill="none" stroke="#101010" stroke-linecap="round" stroke-linejoin="round" stroke-width="1.0"/>
    <path d="M4.95 -40.75 L20.2 -40.75 M4.95 -40.75 L-6.0 -40.75 -21.25 -40.75" fill="none" stroke="#485850" stroke-linecap="round" stroke-linejoin="round" stroke-width="2.0"/>
    <path d="M4.95 -51.5 L18.8 -51.5 39.45 -24.85 60.45 -24.85 66.8 -11.75 68.5 -8.2 68.5 51.65 57.95 116.9 29.45 164.15 -30.55 164.15 -59.05 116.9 -69.55 51.65 -69.55 -8.2 -67.85 -11.75 -61.5 -24.85 -40.5 -24.85 -19.9 -51.5 -6.0 -51.5 4.95 -51.5 Z" fill="none" stroke="#98b0c0" stroke-linecap="round" stroke-linejoin="round" stroke-width="3.0"/>
  </g>
</svg>
