<?xml version="1.0" encoding="UTF-8" standalone="no"?>
<svg xmlns:ffdec="https://www.free-decompiler.com/flash" xmlns:xlink="http://www.w3.org/1999/xlink" ffdec:objectType="shape" height="36.0px" width="37.0px" xmlns="http://www.w3.org/2000/svg">
  <g transform="matrix(1.0, 0.0, 0.0, 1.0, 18.5, 0.0)">
    <path d="M12.55 34.3 Q10.7 34.3 9.35 33.6 8.05 32.9 8.05 32.0 8.05 31.05 9.35 30.35 10.7 29.7 12.55 29.7 14.4 29.7 15.7 30.35 17.05 31.05 17.05 32.0 17.05 32.9 15.7 33.6 14.4 34.3 12.55 34.3 M3.2 33.6 Q1.9 34.3 0.05 34.3 -1.8 34.3 -3.15 33.6 -4.45 32.9 -4.45 32.0 -4.45 31.05 -3.15 30.35 -1.8 29.7 0.05 29.7 1.9 29.7 3.2 30.35 4.55 31.05 4.55 32.0 4.55 32.9 3.2 33.6 M-9.3 33.6 Q-10.6 34.3 -12.45 34.3 -14.3 34.3 -15.65 33.6 -16.95 32.9 -16.95 32.0 -16.95 31.05 -15.65 30.35 -14.3 29.7 -12.45 29.7 -10.6 29.7 -9.3 30.35 -7.95 31.05 -7.95 32.0 -7.95 32.9 -9.3 33.6" fill="#000000" fill-rule="evenodd" stroke="none"/>
    <path d="M6.5 0.0 L18.5 0.0 18.5 34.05 Q12.5 37.95 6.5 34.05 L6.5 0.0 M12.55 34.3 Q14.4 34.3 15.7 33.6 17.05 32.9 17.05 32.0 17.05 31.05 15.7 30.35 14.4 29.7 12.55 29.7 10.7 29.7 9.35 30.35 8.05 31.05 8.05 32.0 8.05 32.9 9.35 33.6 10.7 34.3 12.55 34.3" fill="url(#gradient0)" fill-rule="evenodd" stroke="none"/>
    <path d="M3.2 33.6 Q4.55 32.9 4.55 32.0 4.55 31.05 3.2 30.35 1.9 29.7 0.05 29.7 -1.8 29.7 -3.15 30.35 -4.45 31.05 -4.45 32.0 -4.45 32.9 -3.15 33.6 -1.8 34.3 0.05 34.3 1.9 34.3 3.2 33.6 M6.0 34.05 Q0.0 37.95 -6.0 34.05 L-6.0 0.0 6.0 0.0 6.0 34.05" fill="url(#gradient1)" fill-rule="evenodd" stroke="none"/>
    <path d="M-18.5 0.0 L-6.5 0.0 -6.5 34.05 Q-12.5 37.95 -18.5 34.05 L-18.5 0.0 M-9.3 33.6 Q-7.95 32.9 -7.95 32.0 -7.95 31.05 -9.3 30.35 -10.6 29.7 -12.45 29.7 -14.3 29.7 -15.65 30.35 -16.95 31.05 -16.95 32.0 -16.95 32.9 -15.65 33.6 -14.3 34.3 -12.45 34.3 -10.6 34.3 -9.3 33.6" fill="url(#gradient2)" fill-rule="evenodd" stroke="none"/>
  </g>
  <defs>
    <linearGradient gradientTransform="matrix(0.0073, 0.0, 0.0, 0.0242, 12.5, 16.2)" gradientUnits="userSpaceOnUse" id="gradient0" spreadMethod="pad" x1="-819.2" x2="819.2">
      <stop offset="0.0" stop-color="#483820"/>
      <stop offset="0.5019607843137255" stop-color="#e0e0b8"/>
      <stop offset="1.0" stop-color="#483820"/>
    </linearGradient>
    <linearGradient gradientTransform="matrix(0.0073, 0.0, 0.0, 0.0242, 0.0, 16.2)" gradientUnits="userSpaceOnUse" id="gradient1" spreadMethod="pad" x1="-819.2" x2="819.2">
      <stop offset="0.0" stop-color="#483820"/>
      <stop offset="0.5019607843137255" stop-color="#e0e0b8"/>
      <stop offset="1.0" stop-color="#483820"/>
    </linearGradient>
    <linearGradient gradientTransform="matrix(0.0073, 0.0, 0.0, 0.0242, -12.5, 16.2)" gradientUnits="userSpaceOnUse" id="gradient2" spreadMethod="pad" x1="-819.2" x2="819.2">
      <stop offset="0.0" stop-color="#483820"/>
      <stop offset="0.5019607843137255" stop-color="#e0e0b8"/>
      <stop offset="1.0" stop-color="#483820"/>
    </linearGradient>
  </defs>
</svg>
