<?xml version="1.0" encoding="UTF-8" standalone="no"?>
<svg xmlns:ffdec="https://www.free-decompiler.com/flash" xmlns:xlink="http://www.w3.org/1999/xlink" ffdec:objectType="shape" height="178.4px" width="130.65px" xmlns="http://www.w3.org/2000/svg">
  <g transform="matrix(1.0, 0.0, 0.0, 1.0, 65.6, 26.85)">
    <path d="M17.3 -26.35 L19.0 -26.35 27.25 -18.1 27.25 -3.5 21.8 -3.5 21.8 7.55 17.3 6.45 17.3 -18.1 17.3 -22.25 17.3 -26.35 M13.2 23.9 L-14.25 23.9 -13.7 15.65 12.65 15.65 13.2 23.9" fill="#706860" fill-rule="evenodd" stroke="none"/>
    <path d="M17.3 -22.25 L17.3 -18.1 -18.4 -18.1 -18.4 -22.25 17.3 -22.25" fill="#705000" fill-rule="evenodd" stroke="none"/>
    <path d="M21.8 7.55 L13.2 23.9 12.65 15.65 17.3 6.45 21.8 7.55" fill="#485048" fill-rule="evenodd" stroke="none"/>
    <path d="M17.3 -18.1 L17.3 6.45 12.65 15.65 -13.7 15.65 -18.4 6.45 -18.4 -18.1 17.3 -18.1" fill="#908880" fill-rule="evenodd" stroke="none"/>
    <path d="M-18.4 -26.35 L17.3 -26.35 17.3 -22.25 -18.4 -22.25 -18.4 -26.35" fill="#101010" fill-rule="evenodd" stroke="none"/>
    <path d="M-22.9 7.55 L-22.9 -3.5 -28.3 -3.5 -28.3 -18.1 -20.05 -26.35 -18.4 -26.35 -18.4 -22.25 -18.4 -18.1 -18.4 6.45 -22.9 7.55" fill="#888880" fill-rule="evenodd" stroke="none"/>
    <path d="M-14.25 23.9 L-22.9 7.55 -18.4 6.45 -13.7 15.65 -14.25 23.9" fill="#707870" fill-rule="evenodd" stroke="none"/>
    <path d="M17.3 -26.35 L19.0 -26.35 27.25 -18.1 27.25 -3.5 21.8 -3.5 21.8 7.55 13.2 23.9 -14.25 23.9 -22.9 7.55 -22.9 -3.5 -28.3 -3.5 -28.3 -18.1 -20.05 -26.35 -18.4 -26.35 17.3 -26.35 17.3 -22.25 17.3 -18.1 17.3 6.45 21.8 7.55 M13.2 23.9 L12.65 15.65 -13.7 15.65 -14.25 23.9 M12.65 15.65 L17.3 6.45 M-18.4 -18.1 L-18.4 -22.25 -18.4 -26.35 M-22.9 7.55 L-18.4 6.45 -18.4 -18.1 17.3 -18.1 M-18.4 6.45 L-13.7 15.65 M-18.4 -22.25 L17.3 -22.25" fill="none" stroke="#000000" stroke-linecap="round" stroke-linejoin="round" stroke-width="1.0"/>
    <path d="M30.15 -6.5 L40.65 -6.5 40.65 10.0 30.15 10.0 30.15 -6.5" fill="url(#gradient0)" fill-rule="evenodd" stroke="none"/>
    <path d="M41.6 30.65 Q44.9 31.6 47.1 34.25 48.3 35.7 49.15 37.4 50.05 39.15 50.6 41.15 50.75 43.05 49.6 44.55 L48.2 45.8 46.25 46.7 44.15 46.5 42.25 45.65 Q40.8 44.85 39.85 43.35 38.75 41.65 39.1 39.8 L39.35 37.6 39.4 37.4 Q39.55 35.05 40.2 32.85 40.45 31.95 41.1 31.15 L41.6 30.65" fill="url(#gradient1)" fill-rule="evenodd" stroke="none"/>
    <path d="M60.2 45.5 Q62.7 48.55 63.7 52.4 63.9 54.3 62.75 55.8 L61.35 57.05 Q60.4 57.65 59.35 57.95 L57.3 57.75 55.4 56.9 Q53.9 56.1 53.0 54.6 51.9 52.9 52.25 51.05 L52.5 48.85 Q52.65 46.4 53.3 44.1 53.55 43.2 54.2 42.4 L54.7 41.9 Q58.05 42.85 60.2 45.5" fill="url(#gradient2)" fill-rule="evenodd" stroke="none"/>
    <path d="M30.35 17.5 Q33.65 18.45 35.85 21.15 L36.8 22.4 Q38.55 24.95 39.35 28.0 39.5 29.95 38.35 31.4 L36.95 32.7 35.0 33.6 32.9 33.35 31.4 32.75 31.0 32.5 Q29.55 31.7 28.6 30.2 27.5 28.5 27.85 26.65 L28.1 24.5 Q28.3 22.05 28.95 19.7 29.2 18.8 29.85 18.05 L30.35 17.5" fill="url(#gradient3)" fill-rule="evenodd" stroke="none"/>
    <path d="M27.15 42.8 L27.15 48.8 18.15 60.4 18.15 54.4 27.15 42.8" fill="url(#gradient4)" fill-rule="evenodd" stroke="none"/>
    <path d="M14.6 54.25 L14.6 68.5 Q14.55 69.75 13.7 70.6 12.8 71.5 11.6 71.5 L3.9 71.5 Q2.65 71.5 1.8 70.6 0.9 69.75 0.9 68.5 L0.9 54.25 Q0.9 53.0 1.8 52.1 2.65 51.25 3.9 51.25 L11.6 51.25 Q12.8 51.25 13.7 52.1 14.55 53.0 14.6 54.25" fill="url(#gradient5)" fill-rule="evenodd" stroke="none"/>
    <path d="M20.05 66.05 L20.05 60.05 29.05 48.4 29.05 54.4 20.05 66.05" fill="url(#gradient6)" fill-rule="evenodd" stroke="none"/>
    <path d="M4.7 91.95 Q5.45 92.75 5.5 93.8 L5.5 106.25 Q5.45 107.3 4.7 108.05 3.95 108.8 2.9 108.85 L-3.8 108.85 Q-4.9 108.8 -5.65 108.05 -6.45 107.3 -6.4 106.25 L-6.4 93.8 Q-6.45 92.75 -5.65 91.95 -4.9 91.2 -3.8 91.2 L2.9 91.2 Q3.95 91.2 4.7 91.95" fill="url(#gradient7)" fill-rule="evenodd" stroke="none"/>
    <path d="M19.7 93.8 L19.7 106.25 Q19.7 107.3 18.95 108.05 18.15 108.8 17.05 108.85 L10.4 108.85 Q9.3 108.8 8.55 108.05 7.75 107.3 7.75 106.25 L7.75 93.8 Q7.75 92.75 8.55 91.95 9.3 91.2 10.4 91.2 L17.05 91.2 Q18.15 91.2 18.95 91.95 19.7 92.75 19.7 93.8" fill="url(#gradient8)" fill-rule="evenodd" stroke="none"/>
    <path d="M23.4 96.65 L23.4 87.65 36.9 70.25 36.9 79.25 23.4 96.65" fill="url(#gradient9)" fill-rule="evenodd" stroke="none"/>
    <path d="M49.55 62.85 Q49.8 61.95 50.45 61.15 L50.95 60.65 Q54.3 61.6 56.45 64.25 58.95 67.3 59.95 71.15 60.15 73.05 59.0 74.55 L57.6 75.8 55.6 76.7 53.55 76.5 51.65 75.65 Q50.15 74.85 49.25 73.35 48.15 71.65 48.5 69.8 L48.75 67.6 Q48.9 65.15 49.55 62.85" fill="url(#gradient10)" fill-rule="evenodd" stroke="none"/>
    <path d="M40.65 77.75 L40.65 86.75 27.15 104.15 27.15 95.15 40.65 77.75" fill="url(#gradient11)" fill-rule="evenodd" stroke="none"/>
    <path d="M43.85 127.9 L43.85 120.6 54.8 106.45 54.8 113.75 43.85 127.9" fill="url(#gradient12)" fill-rule="evenodd" stroke="none"/>
    <path d="M41.65 125.2 L41.65 132.5 30.7 146.65 30.7 139.35 41.65 125.2" fill="url(#gradient13)" fill-rule="evenodd" stroke="none"/>
    <path d="M6.85 130.0 L22.4 130.0 Q23.65 130.0 24.55 130.85 25.4 131.75 25.4 133.0 L25.4 148.55 Q25.4 149.8 24.55 150.65 23.65 151.55 22.4 151.55 L6.85 151.55 Q5.6 151.55 4.75 150.65 3.85 149.8 3.85 148.55 L3.85 133.0 Q3.85 131.75 4.75 130.85 5.6 130.0 6.85 130.0" fill="url(#gradient14)" fill-rule="evenodd" stroke="none"/>
    <path d="M-30.75 -6.5 L-30.75 10.0 -41.25 10.0 -41.25 -6.5 -30.75 -6.5" fill="url(#gradient15)" fill-rule="evenodd" stroke="none"/>
    <path d="M-30.45 18.05 Q-29.85 18.8 -29.55 19.7 -28.95 22.05 -28.75 24.5 L-28.45 26.65 Q-28.15 28.5 -29.2 30.2 -30.15 31.7 -31.6 32.5 L-32.05 32.75 -33.55 33.35 -35.6 33.6 -37.6 32.7 -38.95 31.4 Q-40.15 29.95 -39.95 28.0 -39.15 24.95 -37.4 22.4 L-36.45 21.15 Q-34.3 18.45 -30.95 17.5 L-30.45 18.05" fill="url(#gradient16)" fill-rule="evenodd" stroke="none"/>
    <path d="M-40.0 37.4 L-40.0 37.6 -39.7 39.8 Q-39.4 41.65 -40.45 43.35 -41.4 44.85 -42.85 45.65 -43.8 46.15 -44.8 46.5 L-46.85 46.7 -48.85 45.8 -50.2 44.55 Q-51.4 43.05 -51.2 41.15 -50.7 39.15 -49.75 37.4 -48.95 35.7 -47.7 34.25 -45.55 31.6 -42.2 30.65 L-41.7 31.15 Q-41.1 31.95 -40.8 32.85 -40.2 35.05 -40.0 37.4" fill="url(#gradient17)" fill-rule="evenodd" stroke="none"/>
    <path d="M-27.8 42.8 L-18.8 54.4 -18.8 60.4 -27.8 48.8 -27.8 42.8" fill="url(#gradient18)" fill-rule="evenodd" stroke="none"/>
    <path d="M-55.3 41.9 L-54.85 42.4 Q-54.2 43.2 -53.95 44.1 -53.3 46.4 -53.1 48.85 L-52.85 51.05 Q-52.5 52.9 -53.6 54.6 -54.55 56.1 -56.0 56.9 L-57.9 57.75 -59.95 57.95 -61.95 57.05 -63.35 55.8 Q-64.5 54.3 -64.3 52.4 -63.35 48.55 -60.85 45.5 -58.65 42.85 -55.3 41.9" fill="url(#gradient19)" fill-rule="evenodd" stroke="none"/>
    <path d="M-51.55 60.65 L-51.1 61.15 Q-50.45 61.95 -50.2 62.85 -49.55 65.15 -49.35 67.6 L-49.1 69.8 Q-48.75 71.65 -49.85 73.35 -50.8 74.85 -52.25 75.65 L-54.15 76.5 -56.2 76.7 Q-57.3 76.4 -58.2 75.8 L-59.6 74.55 Q-60.75 73.05 -60.55 71.15 -59.6 67.3 -57.1 64.25 -54.9 61.6 -51.55 60.65" fill="url(#gradient20)" fill-rule="evenodd" stroke="none"/>
    <path d="M-41.3 77.75 L-27.8 95.15 -27.8 104.15 -41.3 86.75 -41.3 77.75" fill="url(#gradient21)" fill-rule="evenodd" stroke="none"/>
    <path d="M-2.4 52.1 Q-1.5 53.0 -1.5 54.25 L-1.5 68.5 Q-1.5 69.75 -2.4 70.6 -3.3 71.5 -4.5 71.5 L-12.2 71.5 Q-13.45 71.5 -14.35 70.6 -15.2 69.75 -15.2 68.5 L-15.2 54.25 Q-15.2 53.0 -14.35 52.1 -13.45 51.25 -12.2 51.25 L-4.5 51.25 Q-3.3 51.25 -2.4 52.1" fill="url(#gradient22)" fill-rule="evenodd" stroke="none"/>
    <path d="M-29.65 54.4 L-29.65 48.4 -20.65 60.05 -20.65 66.05 -29.65 54.4" fill="url(#gradient23)" fill-rule="evenodd" stroke="none"/>
    <path d="M-37.55 79.25 L-37.55 70.25 -24.05 87.65 -24.05 96.65 -37.55 79.25" fill="url(#gradient24)" fill-rule="evenodd" stroke="none"/>
    <path d="M-9.2 91.95 Q-8.4 92.75 -8.4 93.8 L-8.4 106.25 Q-8.4 107.3 -9.2 108.05 -9.95 108.8 -11.0 108.85 L-17.7 108.85 Q-18.75 108.8 -19.55 108.05 -20.3 107.3 -20.3 106.25 L-20.3 93.8 Q-20.3 92.75 -19.55 91.95 -18.75 91.2 -17.7 91.2 L-11.0 91.2 Q-9.95 91.2 -9.2 91.95" fill="url(#gradient25)" fill-rule="evenodd" stroke="none"/>
    <path d="M-24.55 133.0 Q-24.55 131.75 -23.65 130.85 -22.8 130.0 -21.55 130.0 L-5.95 130.0 Q-4.75 130.0 -3.85 130.85 -2.95 131.75 -2.95 133.0 L-2.95 148.55 Q-2.95 149.8 -3.85 150.65 -4.75 151.55 -5.95 151.55 L-21.55 151.55 Q-22.8 151.55 -23.65 150.65 -24.55 149.8 -24.55 148.55 L-24.55 133.0" fill="url(#gradient26)" fill-rule="evenodd" stroke="none"/>
    <path d="M-29.85 146.65 L-40.75 132.5 -40.75 125.2 -29.85 139.35 -29.85 146.65" fill="url(#gradient27)" fill-rule="evenodd" stroke="none"/>
    <path d="M-42.95 127.9 L-53.9 113.75 -53.9 106.45 -42.95 120.6 -42.95 127.9" fill="url(#gradient28)" fill-rule="evenodd" stroke="none"/>
    <path d="M12.05 -1.75 L10.75 -1.95 9.6 -2.4 Q8.85 -2.75 8.25 -3.25 L7.55 -3.85 Q7.15 -4.6 7.45 -5.35 L8.0 -7.0 Q8.45 -8.35 9.2 -9.5 M4.7 -6.3 L2.0 -14.0 M12.05 1.7 L10.75 1.95 Q10.15 2.1 9.6 2.4 8.85 2.7 8.25 3.25 L7.55 3.8 Q7.15 4.55 7.45 5.3 L8.0 6.95 Q8.45 8.3 9.2 9.5 M4.7 6.3 L2.0 14.0 M-12.9 -1.75 L-11.6 -1.95 -10.45 -2.4 -9.1 -3.25 -8.35 -3.85 Q-8.0 -4.6 -8.3 -5.35 L-8.85 -7.0 Q-9.3 -8.35 -10.0 -9.5 M-4.75 -6.3 L-2.0 -14.0 M-4.75 6.3 L-2.0 14.0 M-12.9 1.7 Q-12.3 1.65 -11.6 1.95 -11.0 2.1 -10.45 2.4 L-9.1 3.25 Q-8.7 3.45 -8.35 3.8 -8.0 4.55 -8.3 5.3 L-8.85 6.95 -10.0 9.5" fill="none" stroke="#a8a888" stroke-linecap="round" stroke-linejoin="round" stroke-width="2.0"/>
    <path d="M-63.7 -7.3 Q-64.6 -6.4 -64.6 -5.15 L-64.6 19.6 Q-64.6 20.85 -63.7 21.7 -62.85 22.6 -61.6 22.6 L-58.4 22.6 Q-57.15 22.6 -56.3 21.7 -55.4 20.85 -55.4 19.6 L-55.4 -5.15 Q-55.4 -6.4 -56.3 -7.3 -57.15 -8.15 -58.4 -8.15 L-61.6 -8.15 Q-62.85 -8.15 -63.7 -7.3 M-52.75 -5.15 L-52.75 12.2 Q-52.75 13.35 -51.9 14.2 -51.0 15.1 -49.75 15.1 L-46.6 15.1 Q-45.35 15.1 -44.5 14.2 -43.65 13.35 -43.6 12.2 L-43.6 -5.15 Q-43.6 -6.4 -44.5 -7.3 -45.35 -8.15 -46.6 -8.15 L-49.75 -8.15 Q-51.0 -8.15 -51.9 -7.3 -52.8 -6.4 -52.75 -5.15" fill="none" stroke="#405058" stroke-linecap="round" stroke-linejoin="round" stroke-width="2.0"/>
    <path d="M52.25 -5.15 L52.25 12.2 Q52.2 13.35 51.35 14.2 50.45 15.1 49.25 15.1 L46.05 15.1 Q44.8 15.1 43.95 14.2 43.05 13.35 43.05 12.2 L43.05 -5.15 Q43.05 -6.4 43.95 -7.3 44.8 -8.15 46.05 -8.15 L49.25 -8.15 Q50.45 -8.15 51.35 -7.3 52.2 -6.4 52.25 -5.15 M55.75 -7.3 Q56.6 -8.15 57.85 -8.15 L61.05 -8.15 Q62.25 -8.15 63.2 -7.3 64.05 -6.4 64.05 -5.15 L64.05 19.6 Q64.05 20.85 63.2 21.7 62.25 22.6 61.05 22.6 L57.85 22.6 Q56.6 22.6 55.75 21.7 54.85 20.85 54.85 19.6 L54.85 -5.15 Q54.85 -6.4 55.75 -7.3 Z" fill="none" stroke="#283040" stroke-linecap="round" stroke-linejoin="round" stroke-width="2.0"/>
  </g>
  <defs>
    <linearGradient gradientTransform="matrix(0.0, 0.0101, 0.0064, 0.0, 35.35, 1.7)" gradientUnits="userSpaceOnUse" id="gradient0" spreadMethod="pad" x1="-819.2" x2="819.2">
      <stop offset="0.0" stop-color="#101010"/>
      <stop offset="1.0" stop-color="#101010" stop-opacity="0.0"/>
    </linearGradient>
    <linearGradient gradientTransform="matrix(0.0, 0.0098, 0.0071, 0.0, 44.8, 38.65)" gradientUnits="userSpaceOnUse" id="gradient1" spreadMethod="pad" x1="-819.2" x2="819.2">
      <stop offset="0.0" stop-color="#101010"/>
      <stop offset="1.0" stop-color="#101010" stop-opacity="0.0"/>
    </linearGradient>
    <linearGradient gradientTransform="matrix(0.0, 0.0098, 0.0071, 0.0, 57.9, 49.9)" gradientUnits="userSpaceOnUse" id="gradient2" spreadMethod="pad" x1="-819.2" x2="819.2">
      <stop offset="0.0" stop-color="#101010"/>
      <stop offset="1.0" stop-color="#101010" stop-opacity="0.0"/>
    </linearGradient>
    <linearGradient gradientTransform="matrix(0.0, 0.0098, 0.0071, 0.0, 33.55, 25.5)" gradientUnits="userSpaceOnUse" id="gradient3" spreadMethod="pad" x1="-819.2" x2="819.2">
      <stop offset="0.0" stop-color="#101010"/>
      <stop offset="1.0" stop-color="#101010" stop-opacity="0.0"/>
    </linearGradient>
    <linearGradient gradientTransform="matrix(0.0, 0.0037, 0.0055, -0.0071, 22.65, 51.6)" gradientUnits="userSpaceOnUse" id="gradient4" spreadMethod="pad" x1="-819.2" x2="819.2">
      <stop offset="0.0" stop-color="#101010"/>
      <stop offset="1.0" stop-color="#101010" stop-opacity="0.0"/>
    </linearGradient>
    <linearGradient gradientTransform="matrix(0.0, 0.0124, 0.0084, 0.0, 7.7, 61.35)" gradientUnits="userSpaceOnUse" id="gradient5" spreadMethod="pad" x1="-819.2" x2="819.2">
      <stop offset="0.0" stop-color="#101010"/>
      <stop offset="1.0" stop-color="#101010" stop-opacity="0.0"/>
    </linearGradient>
    <linearGradient gradientTransform="matrix(0.0, 0.0037, 0.0055, -0.0071, 24.5, 57.2)" gradientUnits="userSpaceOnUse" id="gradient6" spreadMethod="pad" x1="-819.2" x2="819.2">
      <stop offset="0.0" stop-color="#101010"/>
      <stop offset="1.0" stop-color="#101010" stop-opacity="0.0"/>
    </linearGradient>
    <linearGradient gradientTransform="matrix(0.0, 0.0108, -0.0073, 0.0, -0.45, 100.0)" gradientUnits="userSpaceOnUse" id="gradient7" spreadMethod="pad" x1="-819.2" x2="819.2">
      <stop offset="0.0" stop-color="#101010"/>
      <stop offset="1.0" stop-color="#101010" stop-opacity="0.0"/>
    </linearGradient>
    <linearGradient gradientTransform="matrix(0.0, 0.0108, 0.0073, 0.0, 13.7, 100.0)" gradientUnits="userSpaceOnUse" id="gradient8" spreadMethod="pad" x1="-819.2" x2="819.2">
      <stop offset="0.0" stop-color="#101010"/>
      <stop offset="1.0" stop-color="#101010" stop-opacity="0.0"/>
    </linearGradient>
    <linearGradient gradientTransform="matrix(0.0, 0.0055, 0.0082, -0.0106, 30.15, 83.45)" gradientUnits="userSpaceOnUse" id="gradient9" spreadMethod="pad" x1="-819.2" x2="819.2">
      <stop offset="0.0" stop-color="#101010"/>
      <stop offset="1.0" stop-color="#101010" stop-opacity="0.0"/>
    </linearGradient>
    <linearGradient gradientTransform="matrix(0.0, 0.0098, 0.0071, 0.0, 54.15, 68.65)" gradientUnits="userSpaceOnUse" id="gradient10" spreadMethod="pad" x1="-819.2" x2="819.2">
      <stop offset="0.0" stop-color="#101010"/>
      <stop offset="1.0" stop-color="#101010" stop-opacity="0.0"/>
    </linearGradient>
    <linearGradient gradientTransform="matrix(0.0, 0.0055, 0.0082, -0.0106, 33.9, 90.95)" gradientUnits="userSpaceOnUse" id="gradient11" spreadMethod="pad" x1="-819.2" x2="819.2">
      <stop offset="0.0" stop-color="#101010"/>
      <stop offset="1.0" stop-color="#101010" stop-opacity="0.0"/>
    </linearGradient>
    <linearGradient gradientTransform="matrix(0.0, 0.0045, 0.0067, -0.0086, 49.3, 117.15)" gradientUnits="userSpaceOnUse" id="gradient12" spreadMethod="pad" x1="-819.2" x2="819.2">
      <stop offset="0.0" stop-color="#101010"/>
      <stop offset="1.0" stop-color="#101010" stop-opacity="0.0"/>
    </linearGradient>
    <linearGradient gradientTransform="matrix(0.0, 0.0045, 0.0067, -0.0086, 36.15, 135.9)" gradientUnits="userSpaceOnUse" id="gradient13" spreadMethod="pad" x1="-819.2" x2="819.2">
      <stop offset="0.0" stop-color="#101010"/>
      <stop offset="1.0" stop-color="#101010" stop-opacity="0.0"/>
    </linearGradient>
    <linearGradient gradientTransform="matrix(0.0, 0.0132, 0.0132, 0.0, 14.6, 140.75)" gradientUnits="userSpaceOnUse" id="gradient14" spreadMethod="pad" x1="-819.2" x2="819.2">
      <stop offset="0.0" stop-color="#101010"/>
      <stop offset="1.0" stop-color="#101010" stop-opacity="0.0"/>
    </linearGradient>
    <linearGradient gradientTransform="matrix(0.0, 0.0101, -0.0064, 0.0, -36.0, 1.7)" gradientUnits="userSpaceOnUse" id="gradient15" spreadMethod="pad" x1="-819.2" x2="819.2">
      <stop offset="0.0" stop-color="#101010"/>
      <stop offset="1.0" stop-color="#101010" stop-opacity="0.0"/>
    </linearGradient>
    <linearGradient gradientTransform="matrix(0.0, 0.0098, -0.0071, 0.0, -34.2, 25.5)" gradientUnits="userSpaceOnUse" id="gradient16" spreadMethod="pad" x1="-819.2" x2="819.2">
      <stop offset="0.0" stop-color="#101010"/>
      <stop offset="1.0" stop-color="#101010" stop-opacity="0.0"/>
    </linearGradient>
    <linearGradient gradientTransform="matrix(0.0, 0.0098, -0.0071, 0.0, -45.45, 38.65)" gradientUnits="userSpaceOnUse" id="gradient17" spreadMethod="pad" x1="-819.2" x2="819.2">
      <stop offset="0.0" stop-color="#101010"/>
      <stop offset="1.0" stop-color="#101010" stop-opacity="0.0"/>
    </linearGradient>
    <linearGradient gradientTransform="matrix(0.0, 0.0037, -0.0055, -0.0071, -23.25, 51.6)" gradientUnits="userSpaceOnUse" id="gradient18" spreadMethod="pad" x1="-819.2" x2="819.2">
      <stop offset="0.0" stop-color="#101010"/>
      <stop offset="1.0" stop-color="#101010" stop-opacity="0.0"/>
    </linearGradient>
    <linearGradient gradientTransform="matrix(0.0, 0.0098, -0.0071, 0.0, -58.55, 49.9)" gradientUnits="userSpaceOnUse" id="gradient19" spreadMethod="pad" x1="-819.2" x2="819.2">
      <stop offset="0.0" stop-color="#101010"/>
      <stop offset="1.0" stop-color="#101010" stop-opacity="0.0"/>
    </linearGradient>
    <linearGradient gradientTransform="matrix(0.0, 0.0098, -0.0071, 0.0, -54.8, 68.65)" gradientUnits="userSpaceOnUse" id="gradient20" spreadMethod="pad" x1="-819.2" x2="819.2">
      <stop offset="0.0" stop-color="#101010"/>
      <stop offset="1.0" stop-color="#101010" stop-opacity="0.0"/>
    </linearGradient>
    <linearGradient gradientTransform="matrix(0.0, 0.0055, -0.0082, -0.0106, -34.5, 90.95)" gradientUnits="userSpaceOnUse" id="gradient21" spreadMethod="pad" x1="-819.2" x2="819.2">
      <stop offset="0.0" stop-color="#101010"/>
      <stop offset="1.0" stop-color="#101010" stop-opacity="0.0"/>
    </linearGradient>
    <linearGradient gradientTransform="matrix(0.0, 0.0124, -0.0083, 0.0, -8.35, 61.35)" gradientUnits="userSpaceOnUse" id="gradient22" spreadMethod="pad" x1="-819.2" x2="819.2">
      <stop offset="0.0" stop-color="#101010"/>
      <stop offset="1.0" stop-color="#101010" stop-opacity="0.0"/>
    </linearGradient>
    <linearGradient gradientTransform="matrix(0.0, 0.0037, -0.0055, -0.0071, -25.15, 57.2)" gradientUnits="userSpaceOnUse" id="gradient23" spreadMethod="pad" x1="-819.2" x2="819.2">
      <stop offset="0.0" stop-color="#101010"/>
      <stop offset="1.0" stop-color="#101010" stop-opacity="0.0"/>
    </linearGradient>
    <linearGradient gradientTransform="matrix(0.0, 0.0055, -0.0082, -0.0106, -30.75, 83.45)" gradientUnits="userSpaceOnUse" id="gradient24" spreadMethod="pad" x1="-819.2" x2="819.2">
      <stop offset="0.0" stop-color="#101010"/>
      <stop offset="1.0" stop-color="#101010" stop-opacity="0.0"/>
    </linearGradient>
    <linearGradient gradientTransform="matrix(0.0, 0.0108, -0.0073, 0.0, -14.35, 100.0)" gradientUnits="userSpaceOnUse" id="gradient25" spreadMethod="pad" x1="-819.2" x2="819.2">
      <stop offset="0.0" stop-color="#101010"/>
      <stop offset="1.0" stop-color="#101010" stop-opacity="0.0"/>
    </linearGradient>
    <linearGradient gradientTransform="matrix(0.0, 0.0132, -0.0132, 0.0, -13.75, 140.75)" gradientUnits="userSpaceOnUse" id="gradient26" spreadMethod="pad" x1="-819.2" x2="819.2">
      <stop offset="0.0" stop-color="#101010"/>
      <stop offset="1.0" stop-color="#101010" stop-opacity="0.0"/>
    </linearGradient>
    <linearGradient gradientTransform="matrix(0.0, 0.0045, -0.0067, -0.0086, -35.3, 135.9)" gradientUnits="userSpaceOnUse" id="gradient27" spreadMethod="pad" x1="-819.2" x2="819.2">
      <stop offset="0.0" stop-color="#101010"/>
      <stop offset="1.0" stop-color="#101010" stop-opacity="0.0"/>
    </linearGradient>
    <linearGradient gradientTransform="matrix(0.0, 0.0045, -0.0067, -0.0086, -48.45, 117.15)" gradientUnits="userSpaceOnUse" id="gradient28" spreadMethod="pad" x1="-819.2" x2="819.2">
      <stop offset="0.0" stop-color="#101010"/>
      <stop offset="1.0" stop-color="#101010" stop-opacity="0.0"/>
    </linearGradient>
  </defs>
</svg>
