<?xml version="1.0" encoding="UTF-8" standalone="no"?>
<svg xmlns:ffdec="https://www.free-decompiler.com/flash" xmlns:xlink="http://www.w3.org/1999/xlink" ffdec:objectType="shape" height="33.3px" width="49.5px" xmlns="http://www.w3.org/2000/svg">
  <g transform="matrix(1.0, 0.0, 0.0, 1.0, 24.8, 6.8)">
    <path d="M13.45 3.4 Q17.5 -1.45 23.05 -1.4 23.45 -1.45 23.6 -1.1 24.5 1.2 24.0 3.15 13.95 13.7 9.45 11.55 L9.4 8.55 Q13.6 8.05 13.45 4.2 L13.45 3.4 M7.9 20.45 Q5.1 24.2 1.1 25.8 L1.5 25.05 Q3.85 20.6 4.6 15.7 L7.9 20.45 M-1.2 25.8 Q-5.25 24.2 -8.0 20.45 L-4.75 15.7 Q-4.0 20.6 -1.65 25.05 L-1.2 25.8 M-24.1 3.15 Q-24.6 1.2 -23.75 -1.1 -23.6 -1.45 -23.2 -1.4 -17.6 -1.45 -13.55 3.4 L-13.6 4.2 Q-13.75 8.05 -9.5 8.55 L-9.6 11.55 Q-14.1 13.7 -24.1 3.15" fill="#887020" fill-rule="evenodd" stroke="none"/>
    <path d="M4.8 -1.65 L4.6 -2.65 Q8.95 -0.35 13.35 -2.65 L13.45 3.4 13.45 4.2 Q13.6 8.05 9.4 8.55 7.35 9.0 5.3 8.55 L5.1 8.5 4.8 -1.65 M-13.55 3.4 L-13.5 -2.6 Q-9.1 -0.35 -4.7 -2.65 L-4.9 -1.65 -5.25 8.5 -5.4 8.55 Q-7.45 9.0 -9.5 8.55 -13.75 8.05 -13.6 4.2 L-13.55 3.4 M-7.05 1.8 L-11.8 1.8 -11.8 6.6 -7.05 6.6 -7.05 1.8 M11.7 1.8 L6.95 1.8 6.95 6.6 11.7 6.6 11.7 1.8" fill="#b29e4a" fill-rule="evenodd" stroke="none"/>
    <path d="M24.0 3.15 Q23.55 4.95 21.8 6.5 17.5 10.25 14.3 15.1 L11.9 18.2 11.45 18.2 Q10.95 18.1 10.55 17.75 9.65 16.85 9.6 15.35 L9.55 14.6 9.45 11.55 Q13.95 13.7 24.0 3.15 M-10.65 17.75 Q-11.05 18.1 -11.55 18.2 L-12.05 18.2 -14.45 15.1 Q-17.65 10.25 -21.95 6.5 -23.65 4.95 -24.1 3.15 -14.1 13.7 -9.6 11.55 L-9.7 14.6 -9.7 15.35 Q-9.75 16.85 -10.65 17.75" fill="#b7a153" fill-rule="evenodd" stroke="none"/>
    <path d="M-7.05 1.8 L-7.05 6.6 -11.8 6.6 -11.8 1.8 -7.05 1.8 M11.7 1.8 L11.7 6.6 6.95 6.6 6.95 1.8 11.7 1.8" fill="#d8e0d8" fill-rule="evenodd" stroke="none"/>
    <path d="M10.55 17.75 L7.9 20.45 4.6 15.7 4.55 15.35 9.55 14.6 9.6 15.35 Q9.65 16.85 10.55 17.75 M-8.0 20.45 L-10.65 17.75 Q-9.75 16.85 -9.7 15.35 L-9.7 14.6 -4.7 15.35 -4.75 15.7 -8.0 20.45" fill="#404838" fill-rule="evenodd" stroke="none"/>
    <path d="M-1.7 17.5 L-1.7 0.25 1.55 0.25 1.55 17.5 -1.7 17.5" fill="#705000" fill-rule="evenodd" stroke="none"/>
    <path d="M4.6 -2.65 L4.2 -4.7 4.35 -5.1 Q8.0 -7.1 11.7 -5.7 12.95 -5.25 13.35 -3.95 L13.35 -2.65 Q8.95 -0.35 4.6 -2.65" fill="url(#gradient0)" fill-rule="evenodd" stroke="none"/>
    <path d="M-4.9 -1.65 Q-3.65 -2.35 -2.35 -2.65 L-0.05 -2.95 2.25 -2.65 4.8 -1.65 5.1 8.5 5.3 8.55 Q7.35 9.0 9.4 8.55 L9.45 11.55 9.55 14.6 4.55 15.35 4.6 15.7 Q3.85 20.6 1.5 25.05 L1.1 25.8 0.65 25.95 -0.05 25.95 -0.8 25.95 -1.2 25.8 -1.65 25.05 Q-4.0 20.6 -4.75 15.7 L-4.7 15.35 -9.7 14.6 -9.6 11.55 -9.5 8.55 Q-7.45 9.0 -5.4 8.55 L-5.25 8.5 -4.9 -1.65 M-1.7 17.5 L1.55 17.5 1.55 0.25 -1.7 0.25 -1.7 17.5" fill="url(#gradient1)" fill-rule="evenodd" stroke="none"/>
    <path d="M-13.5 -2.6 L-13.45 -3.95 Q-13.1 -5.25 -11.85 -5.7 -8.15 -7.1 -4.5 -5.1 -4.3 -5.0 -4.35 -4.7 L-4.7 -2.65 Q-9.1 -0.35 -13.5 -2.6" fill="url(#gradient2)" fill-rule="evenodd" stroke="none"/>
    <path d="M-4.9 -1.65 Q-3.65 -2.35 -2.35 -2.65 L-0.05 -2.95 2.25 -2.65 4.8 -1.65 4.6 -2.65 4.2 -4.7 4.35 -5.1 Q8.0 -7.1 11.7 -5.7 12.95 -5.25 13.35 -3.95 L13.35 -2.65 13.45 3.4 Q17.5 -1.45 23.05 -1.4 23.45 -1.45 23.6 -1.1 24.5 1.2 24.0 3.15 23.55 4.95 21.8 6.5 17.5 10.25 14.3 15.1 L11.9 18.2 11.45 18.2 Q10.95 18.1 10.55 17.75 L7.9 20.45 Q5.1 24.2 1.1 25.8 L0.65 25.95 -0.05 25.95 -0.8 25.95 -1.2 25.8 Q-5.25 24.2 -8.0 20.45 L-10.65 17.75 Q-11.05 18.1 -11.55 18.2 L-12.05 18.2 -14.45 15.1 Q-17.65 10.25 -21.95 6.5 -23.65 4.95 -24.1 3.15 -24.6 1.2 -23.75 -1.1 -23.6 -1.45 -23.2 -1.4 -17.6 -1.45 -13.55 3.4 L-13.5 -2.6 -13.45 -3.95 Q-13.1 -5.25 -11.85 -5.7 -8.15 -7.1 -4.5 -5.1 -4.3 -5.0 -4.35 -4.7 L-4.7 -2.65 -4.9 -1.65 -5.25 8.5 -5.4 8.55 Q-7.45 9.0 -9.5 8.55 L-9.6 11.55 -9.7 14.6 -4.7 15.35 -4.75 15.7 Q-4.0 20.6 -1.65 25.05 L-1.2 25.8 M4.6 -2.65 Q8.95 -0.35 13.35 -2.65 M-13.5 -2.6 Q-9.1 -0.35 -4.7 -2.65 M-13.55 3.4 L-13.6 4.2 Q-13.75 8.05 -9.5 8.55 M-10.65 17.75 Q-9.75 16.85 -9.7 15.35 L-9.7 14.6 M13.45 3.4 L13.45 4.2 Q13.6 8.05 9.4 8.55 L9.45 11.55 9.55 14.6 9.6 15.35 Q9.65 16.85 10.55 17.75 M4.8 -1.65 L5.1 8.5 5.3 8.55 Q7.35 9.0 9.4 8.55 M4.6 15.7 L4.55 15.35 9.55 14.6 M4.6 15.7 Q3.85 20.6 1.5 25.05 L1.1 25.8" fill="none" stroke="#000000" stroke-linecap="round" stroke-linejoin="round" stroke-width="1.0"/>
  </g>
  <defs>
    <linearGradient gradientTransform="matrix(-0.0056, 0.0, 0.0, 0.0029, 8.8, -3.9)" gradientUnits="userSpaceOnUse" id="gradient0" spreadMethod="pad" x1="-819.2" x2="819.2">
      <stop offset="0.0" stop-color="#404838"/>
      <stop offset="0.4196078431372549" stop-color="#e8f8e8"/>
      <stop offset="0.5882352941176471" stop-color="#e8f8e8"/>
      <stop offset="1.0" stop-color="#404838"/>
    </linearGradient>
    <linearGradient gradientTransform="matrix(0.0118, 0.0, 0.0, -0.0177, -0.05, 11.55)" gradientUnits="userSpaceOnUse" id="gradient1" spreadMethod="pad" x1="-819.2" x2="819.2">
      <stop offset="0.0" stop-color="#504820"/>
      <stop offset="0.5647058823529412" stop-color="#a89838"/>
      <stop offset="0.796078431372549" stop-color="#a89838"/>
      <stop offset="1.0" stop-color="#d0b081"/>
    </linearGradient>
    <linearGradient gradientTransform="matrix(-0.0056, 0.0, 0.0, 0.0029, -8.9, -3.9)" gradientUnits="userSpaceOnUse" id="gradient2" spreadMethod="pad" x1="-819.2" x2="819.2">
      <stop offset="0.0" stop-color="#404838"/>
      <stop offset="0.4196078431372549" stop-color="#e8f8e8"/>
      <stop offset="0.5882352941176471" stop-color="#e8f8e8"/>
      <stop offset="1.0" stop-color="#404838"/>
    </linearGradient>
  </defs>
</svg>
