<?xml version="1.0" encoding="UTF-8" standalone="no"?>
<svg xmlns:ffdec="https://www.free-decompiler.com/flash" xmlns:xlink="http://www.w3.org/1999/xlink" ffdec:objectType="shape" height="34.35px" width="22.6px" xmlns="http://www.w3.org/2000/svg">
  <g transform="matrix(1.0, 0.0, 0.0, 1.0, 11.3, 7.85)">
    <path d="M9.05 -3.0 L8.45 -0.85 7.35 2.95 Q5.45 9.75 -0.9 9.35 L-1.1 9.1 -1.15 7.0 -1.15 6.7 Q-1.2 4.1 -0.9 1.6 L0.05 1.4 Q5.2 1.8 7.3 -3.3 L7.7 -3.3 9.05 -3.0 M-9.8 6.9 Q-8.95 11.8 -6.3 15.9 L-5.8 16.75 -6.8 16.15 Q-11.05 12.65 -9.8 6.9 M-1.55 25.65 Q-2.05 24.05 -1.55 22.5 -0.1 18.0 2.9 21.55 L2.75 22.05 Q1.65 24.35 -0.4 26.0 L-1.4 26.0 -1.55 25.65" fill="#887020" fill-rule="evenodd" stroke="none"/>
    <path d="M7.3 -3.3 Q5.2 1.8 0.05 1.4 L-0.9 1.6 Q-1.2 4.1 -1.15 6.7 -3.05 2.5 -2.0 -2.5 L5.2 -3.3 5.55 -3.6 7.3 -3.3" fill="#b29e4a" fill-rule="evenodd" stroke="none"/>
    <path d="M-1.15 6.7 L-1.15 7.0 -1.1 9.1 -0.9 9.35 Q-2.45 14.2 2.5 16.5 L4.45 17.15 3.9 18.55 Q-0.3 17.75 -2.2 13.75 -3.0 12.05 -3.2 10.15 -4.0 3.9 -3.25 -2.35 L-2.0 -2.5 Q-3.05 2.5 -1.15 6.7" fill="#705000" fill-rule="evenodd" stroke="none"/>
    <path d="M-9.9 -3.5 L-9.4 -3.05 -5.4 -2.3 Q-5.05 1.45 -5.3 5.1 L-5.6 5.05 Q-7.45 4.45 -8.5 2.75 -9.9 1.3 -10.55 -0.35 -11.25 -2.05 -9.9 -3.5" fill="#404838" fill-rule="evenodd" stroke="none"/>
    <path d="M-0.9 9.35 Q5.45 9.75 7.35 2.95 L8.45 -0.85 9.05 -3.0 10.8 -2.55 Q10.8 1.7 9.65 5.75 7.9 11.85 4.45 17.15 L2.5 16.5 Q-2.45 14.2 -0.9 9.35" fill="#a89838" fill-rule="evenodd" stroke="none"/>
    <path d="M-9.9 -3.5 Q-10.4 -5.15 -9.15 -6.25 L-8.4 -6.8 -8.35 -7.1 Q-1.3 -7.45 5.7 -7.3 7.1 -6.25 6.5 -4.6 L5.85 -3.75 5.55 -3.6 5.2 -3.3 -2.0 -2.5 -3.25 -2.35 -5.4 -2.3 -9.4 -3.05 -9.9 -3.5" fill="url(#gradient0)" fill-rule="evenodd" stroke="none"/>
    <path d="M-5.4 -2.3 L-3.25 -2.35 Q-4.0 3.9 -3.2 10.15 -3.0 12.05 -2.2 13.75 -0.3 17.75 3.9 18.55 L2.9 21.55 Q-0.1 18.0 -1.55 22.5 -2.05 24.05 -1.55 25.65 L-1.8 25.7 Q-4.8 21.9 -5.8 16.75 L-6.3 15.9 Q-8.95 11.8 -9.8 6.9 L-9.75 6.15 Q-9.45 4.3 -8.5 2.75 -7.45 4.45 -5.6 5.05 L-5.3 5.1 Q-5.05 1.45 -5.4 -2.3" fill="url(#gradient1)" fill-rule="evenodd" stroke="none"/>
    <path d="M-1.8 25.7 L-1.55 25.65 -1.4 26.0 -1.8 25.7" fill="url(#gradient2)" fill-rule="evenodd" stroke="none"/>
    <path d="M-0.9 9.35 Q5.45 9.75 7.35 2.95 L8.45 -0.85 9.05 -3.0 7.7 -3.3 7.3 -3.3 Q5.2 1.8 0.05 1.4 L-0.9 1.6 Q-1.2 4.1 -1.15 6.7 L-1.15 7.0 -1.1 9.1 -0.9 9.35 M4.45 17.15 Q7.9 11.85 9.65 5.75 10.8 1.7 10.8 -2.55 L9.05 -3.0 M5.55 -3.6 L5.85 -3.75 6.5 -4.6 Q7.1 -6.25 5.7 -7.3 -1.3 -7.45 -8.35 -7.1 L-8.4 -6.8 -9.15 -6.25 Q-10.4 -5.15 -9.9 -3.5 L-9.4 -3.05 -5.4 -2.3 -3.25 -2.35 -2.0 -2.5 5.2 -3.3 5.55 -3.6 7.3 -3.3 M-8.5 2.75 Q-9.9 1.3 -10.55 -0.35 -11.25 -2.05 -9.9 -3.5 M-8.5 2.75 Q-9.45 4.3 -9.75 6.15 L-9.8 6.9 Q-11.05 12.65 -6.8 16.15 L-5.8 16.75 Q-4.8 21.9 -1.8 25.7 L-1.4 26.0 -1.55 25.65 Q-2.05 24.05 -1.55 22.5 -0.1 18.0 2.9 21.55 L3.9 18.55 Q-0.3 17.75 -2.2 13.75 -3.0 12.05 -3.2 10.15 -4.0 3.9 -3.25 -2.35 M-5.4 -2.3 Q-5.05 1.45 -5.3 5.1 L-5.6 5.05 Q-7.45 4.45 -8.5 2.75 M2.9 21.55 L2.75 22.05 Q1.65 24.35 -0.4 26.0 L-1.4 26.0 M3.9 18.55 L4.45 17.15" fill="none" stroke="#000000" stroke-linecap="round" stroke-linejoin="round" stroke-width="1.0"/>
  </g>
  <defs>
    <linearGradient gradientTransform="matrix(0.0102, 0.0, 0.0, 0.0031, -1.65, -4.8)" gradientUnits="userSpaceOnUse" id="gradient0" spreadMethod="pad" x1="-819.2" x2="819.2">
      <stop offset="0.0" stop-color="#404838"/>
      <stop offset="0.14901960784313725" stop-color="#e8f8e8"/>
      <stop offset="0.2823529411764706" stop-color="#e8f8e8"/>
      <stop offset="0.45098039215686275" stop-color="#404838"/>
      <stop offset="0.6274509803921569" stop-color="#e8f8e8"/>
      <stop offset="0.8117647058823529" stop-color="#e8f8e8"/>
      <stop offset="1.0" stop-color="#404838"/>
    </linearGradient>
    <linearGradient gradientTransform="matrix(0.0084, 0.0, 0.0, 0.0173, -2.95, 11.8)" gradientUnits="userSpaceOnUse" id="gradient1" spreadMethod="pad" x1="-819.2" x2="819.2">
      <stop offset="0.0" stop-color="#504820"/>
      <stop offset="0.5647058823529412" stop-color="#a89838"/>
      <stop offset="0.796078431372549" stop-color="#a89838"/>
      <stop offset="1.0" stop-color="#d0b081"/>
    </linearGradient>
    <linearGradient gradientTransform="matrix(0.0084, 0.0, 0.0, 0.0173, -2.95, 11.8)" gradientUnits="userSpaceOnUse" id="gradient2" spreadMethod="pad" x1="-819.2" x2="819.2">
      <stop offset="0.0" stop-color="#404838"/>
      <stop offset="0.996078431372549" stop-color="#d8e0d8"/>
    </linearGradient>
  </defs>
</svg>
