<?xml version="1.0" encoding="UTF-8" standalone="no"?>
<svg xmlns:ffdec="https://www.free-decompiler.com/flash" xmlns:xlink="http://www.w3.org/1999/xlink" ffdec:objectType="shape" height="33.5px" width="27.05px" xmlns="http://www.w3.org/2000/svg">
  <g transform="matrix(1.0, 0.0, 0.0, 1.0, 13.5, 7.05)">
    <path d="M-5.1 -1.45 L-3.8 -1.15 Q-4.65 8.25 -6.75 5.9 L-6.3 1.05 -6.05 0.0 -5.55 -0.95 -5.1 -1.45" fill="#a89838" fill-rule="evenodd" stroke="none"/>
    <path d="M3.05 21.95 Q1.45 26.05 -2.35 25.95 L-3.25 25.3 -4.85 22.45 -4.0 21.8 Q-2.5 20.45 -2.1 18.35 L-1.65 18.45 Q0.0 18.7 1.0 17.45 1.05 19.6 2.45 21.3 L3.05 21.95" fill="#887020" fill-rule="evenodd" stroke="none"/>
    <path d="M2.45 -1.7 L3.75 -2.9 Q8.5 -1.7 12.4 -5.65 L12.95 -6.1 Q13.55 -1.8 10.15 1.4 L6.05 4.95 5.3 5.35 5.25 4.25 Q5.05 0.6 2.45 -1.7" fill="#404838" fill-rule="evenodd" stroke="none"/>
    <path d="M-6.8 8.7 L-8.4 7.6 Q-13.65 4.0 -12.9 -2.05 L-12.7 -2.1 Q-8.95 -2.85 -6.05 0.0 L-6.3 1.05 -6.75 5.9 -6.8 8.7" fill="#7e8680" fill-rule="evenodd" stroke="none"/>
    <path d="M3.75 -2.9 L2.45 -1.7 0.85 -0.9 -2.55 -0.9 -3.8 -1.15 -5.1 -1.45 -6.2 -1.85 -6.5 -3.1 Q-6.7 -4.15 -5.8 -5.25 -2.2 -7.1 1.75 -6.35 4.6 -5.8 3.75 -2.9" fill="url(#gradient0)" fill-rule="evenodd" stroke="none"/>
    <path d="M-3.8 -1.15 L-2.55 -0.9 Q-1.9 5.25 -3.2 11.2 -3.4 11.9 -4.1 12.25 L-6.2 13.05 -6.8 8.7 -6.75 5.9 Q-4.65 8.25 -3.8 -1.15" fill="#d8e0d8" fill-rule="evenodd" stroke="none"/>
    <path d="M2.45 -1.7 Q5.05 0.6 5.25 4.25 L5.3 5.35 Q5.5 8.4 5.3 11.45 L4.7 13.5 4.55 13.7 4.45 13.85 4.0 14.4 3.65 14.9 1.0 17.45 Q0.0 18.7 -1.65 18.45 L-2.1 18.35 -4.35 16.55 -4.9 15.9 Q-5.65 15.3 -5.95 14.3 L-6.2 13.05 -4.1 12.25 Q-3.4 11.9 -3.2 11.2 -1.9 5.25 -2.55 -0.9 L0.85 -0.9 2.45 -1.7" fill="url(#gradient1)" fill-rule="evenodd" stroke="none"/>
    <path d="M3.65 14.9 Q4.3 18.1 3.35 21.25 L3.05 21.95 2.45 21.3 Q1.05 19.6 1.0 17.45 L3.65 14.9" fill="#8858c7" fill-rule="evenodd" stroke="none"/>
    <path d="M-4.85 22.45 Q-6.25 19.9 -5.3 17.05 L-4.9 15.9 -4.35 16.55 -2.1 18.35 Q-2.5 20.45 -4.0 21.8 L-4.85 22.45" fill="#707870" fill-rule="evenodd" stroke="none"/>
    <path d="M3.75 -2.9 L2.45 -1.7 Q5.05 0.6 5.25 4.25 L5.3 5.35 6.05 4.95 10.15 1.4 Q13.55 -1.8 12.95 -6.1 L12.4 -5.65 Q8.5 -1.7 3.75 -2.9 4.6 -5.8 1.75 -6.35 -2.2 -7.1 -5.8 -5.25 -6.7 -4.15 -6.5 -3.1 L-6.2 -1.85 -5.1 -1.45 -3.8 -1.15 -2.55 -0.9 0.85 -0.9 2.45 -1.7 M5.3 5.35 Q5.5 8.4 5.3 11.45 L4.7 13.5 4.55 13.7 4.45 13.85 4.0 14.4 3.65 14.9 Q4.3 18.1 3.35 21.25 L3.05 21.95 Q1.45 26.05 -2.35 25.95 L-3.25 25.3 -4.85 22.45 Q-6.25 19.9 -5.3 17.05 L-4.9 15.9 Q-5.65 15.3 -5.95 14.3 L-6.2 13.05 -6.8 8.7 -8.4 7.6 Q-13.65 4.0 -12.9 -2.05 L-12.7 -2.1 Q-8.95 -2.85 -6.05 0.0 L-5.55 -0.95 -5.1 -1.45 M3.65 14.9 L1.0 17.45 Q1.05 19.6 2.45 21.3 L3.05 21.95 M-2.55 -0.9 Q-1.9 5.25 -3.2 11.2 -3.4 11.9 -4.1 12.25 L-6.2 13.05 M-6.75 5.9 L-6.8 8.7 M-6.05 0.0 L-6.3 1.05 -6.75 5.9 Q-4.65 8.25 -3.8 -1.15 M-4.9 15.9 L-4.35 16.55 -2.1 18.35 -1.65 18.45 Q0.0 18.7 1.0 17.45 M-2.1 18.35 Q-2.5 20.45 -4.0 21.8 L-4.85 22.45" fill="none" stroke="#000000" stroke-linecap="round" stroke-linejoin="round" stroke-width="1.0"/>
  </g>
  <defs>
    <linearGradient gradientTransform="matrix(-0.0064, 0.0, 0.0, 0.0035, -1.3, -3.75)" gradientUnits="userSpaceOnUse" id="gradient0" spreadMethod="pad" x1="-819.2" x2="819.2">
      <stop offset="0.0" stop-color="#404838"/>
      <stop offset="0.4196078431372549" stop-color="#e8f8e8"/>
      <stop offset="0.5882352941176471" stop-color="#e8f8e8"/>
      <stop offset="1.0" stop-color="#404838"/>
    </linearGradient>
    <linearGradient gradientTransform="matrix(-0.0071, 0.0, 0.0, 0.0123, -0.4, 8.4)" gradientUnits="userSpaceOnUse" id="gradient1" spreadMethod="pad" x1="-819.2" x2="819.2">
      <stop offset="0.0" stop-color="#504820"/>
      <stop offset="0.5647058823529412" stop-color="#a89838"/>
      <stop offset="0.796078431372549" stop-color="#a89838"/>
      <stop offset="1.0" stop-color="#d0b081"/>
    </linearGradient>
  </defs>
</svg>
