<?xml version="1.0" encoding="UTF-8" standalone="no"?>
<svg xmlns:ffdec="https://www.free-decompiler.com/flash" xmlns:xlink="http://www.w3.org/1999/xlink" ffdec:objectType="shape" height="34.3px" width="22.55px" xmlns="http://www.w3.org/2000/svg">
  <g transform="matrix(1.0, 0.0, 0.0, 1.0, 11.3, 7.8)">
    <path d="M5.35 -2.25 L9.4 -3.05 9.85 -3.5 Q11.2 -2.05 10.55 -0.35 9.85 1.3 8.55 2.75 7.45 4.5 5.6 5.1 L5.3 5.1 Q5.0 1.45 5.35 -2.25" fill="#404838" fill-rule="evenodd" stroke="none"/>
    <path d="M9.8 6.9 Q11.05 12.65 6.75 16.15 L5.8 16.75 6.25 15.9 Q8.9 11.8 9.8 6.9 M1.35 26.0 L0.4 26.0 Q-1.7 24.35 -2.75 22.05 L-2.9 21.5 Q0.05 18.0 1.5 22.5 2.05 24.25 1.35 26.0" fill="#887020" fill-rule="evenodd" stroke="none"/>
    <path d="M-7.3 -3.25 Q-5.25 1.8 -0.1 1.4 L0.9 1.6 1.15 6.7 1.15 7.0 1.05 9.15 0.9 9.35 Q-5.5 9.75 -7.4 2.95 L-8.5 -0.85 -9.05 -2.95 -7.7 -3.3 -7.3 -3.25" fill="#7e8680" fill-rule="evenodd" stroke="none"/>
    <path d="M-9.05 -2.95 L-8.5 -0.85 -7.4 2.95 Q-5.5 9.75 0.9 9.35 2.45 14.15 -2.5 16.5 L-4.45 17.15 Q-7.9 11.85 -9.65 5.75 -10.85 1.7 -10.8 -2.55 L-9.05 -2.95" fill="#a89838" fill-rule="evenodd" stroke="none"/>
    <path d="M9.85 -3.5 L9.4 -3.05 5.35 -2.25 3.25 -2.35 2.0 -2.5 -5.25 -3.25 -5.55 -3.6 -5.85 -3.75 -6.5 -4.6 Q-7.15 -6.25 -5.75 -7.25 1.3 -7.4 8.35 -7.05 L8.4 -6.8 9.15 -6.2 Q10.4 -5.15 9.85 -3.5" fill="url(#gradient0)" fill-rule="evenodd" stroke="none"/>
    <path d="M5.35 -2.25 Q5.0 1.45 5.3 5.1 L5.6 5.1 Q7.45 4.5 8.55 2.75 9.4 4.3 9.7 6.15 L9.8 6.9 Q8.9 11.8 6.25 15.9 L5.8 16.75 Q4.75 21.85 1.8 25.7 L1.35 26.0 Q2.05 24.25 1.5 22.5 0.05 18.0 -2.9 21.5 L-3.85 18.55 Q0.3 17.75 2.2 13.75 2.95 12.05 3.2 10.15 3.95 3.95 3.25 -2.35 L5.35 -2.25" fill="url(#gradient1)" fill-rule="evenodd" stroke="none"/>
    <path d="M2.0 -2.5 L3.25 -2.35 Q3.95 3.95 3.2 10.15 2.95 12.05 2.2 13.75 0.3 17.75 -3.85 18.55 L-4.45 17.15 -2.5 16.5 Q2.45 14.15 0.9 9.35 L1.05 9.15 1.15 7.0 1.15 6.7 Q3.0 2.5 2.0 -2.5" fill="#646c62" fill-rule="evenodd" stroke="none"/>
    <path d="M-5.55 -3.6 L-5.25 -3.25 2.0 -2.5 Q3.0 2.5 1.15 6.7 L0.9 1.6 -0.1 1.4 Q-5.25 1.8 -7.3 -3.25 L-5.55 -3.6" fill="#b29e4a" fill-rule="evenodd" stroke="none"/>
    <path d="M9.85 -3.5 L9.4 -3.05 5.35 -2.25 Q5.0 1.45 5.3 5.1 L5.6 5.1 Q7.45 4.5 8.55 2.75 9.85 1.3 10.55 -0.35 11.2 -2.05 9.85 -3.5 10.4 -5.15 9.15 -6.2 L8.4 -6.8 8.35 -7.05 Q1.3 -7.4 -5.75 -7.25 -7.15 -6.25 -6.5 -4.6 L-5.85 -3.75 -5.55 -3.6 -5.25 -3.25 2.0 -2.5 3.25 -2.35 5.35 -2.25 M1.15 6.7 L0.9 1.6 -0.1 1.4 Q-5.25 1.8 -7.3 -3.25 L-7.7 -3.3 -9.05 -2.95 -8.5 -0.85 -7.4 2.95 Q-5.5 9.75 0.9 9.35 L1.05 9.15 1.15 7.0 1.15 6.7 M8.55 2.75 Q9.4 4.3 9.7 6.15 L9.8 6.9 Q11.05 12.65 6.75 16.15 L5.8 16.75 Q4.75 21.85 1.8 25.7 L1.35 26.0 0.4 26.0 Q-1.7 24.35 -2.75 22.05 L-2.9 21.5 -3.85 18.55 -4.45 17.15 Q-7.9 11.85 -9.65 5.75 -10.85 1.7 -10.8 -2.55 L-9.05 -2.95 M3.25 -2.35 Q3.95 3.95 3.2 10.15 2.95 12.05 2.2 13.75 0.3 17.75 -3.85 18.55 M-2.9 21.5 Q0.05 18.0 1.5 22.5 2.05 24.25 1.35 26.0 M-5.55 -3.6 L-7.3 -3.25" fill="none" stroke="#000000" stroke-linecap="round" stroke-linejoin="round" stroke-width="1.0"/>
  </g>
  <defs>
    <linearGradient gradientTransform="matrix(-0.0102, 0.0, 0.0, 0.0031, 1.65, -4.8)" gradientUnits="userSpaceOnUse" id="gradient0" spreadMethod="pad" x1="-819.2" x2="819.2">
      <stop offset="0.0" stop-color="#404838"/>
      <stop offset="0.14901960784313725" stop-color="#e8f8e8"/>
      <stop offset="0.2823529411764706" stop-color="#e8f8e8"/>
      <stop offset="0.45098039215686275" stop-color="#404838"/>
      <stop offset="0.6274509803921569" stop-color="#e8f8e8"/>
      <stop offset="0.8117647058823529" stop-color="#e8f8e8"/>
      <stop offset="1.0" stop-color="#404838"/>
    </linearGradient>
    <linearGradient gradientTransform="matrix(-0.0084, 0.0, 0.0, 0.0173, 2.95, 11.8)" gradientUnits="userSpaceOnUse" id="gradient1" spreadMethod="pad" x1="-819.2" x2="819.2">
      <stop offset="0.0" stop-color="#404838"/>
      <stop offset="0.996078431372549" stop-color="#d8e0d8"/>
    </linearGradient>
  </defs>
</svg>
