<?xml version="1.0" encoding="UTF-8" standalone="no"?>
<svg xmlns:ffdec="https://www.free-decompiler.com/flash" xmlns:xlink="http://www.w3.org/1999/xlink" ffdec:objectType="shape" height="34.5px" width="34.6px" xmlns="http://www.w3.org/2000/svg">
  <g transform="matrix(1.0, 0.0, 0.0, 1.0, 17.3, 8.0)">
    <path d="M1.0 -1.2 L1.75 -1.75 Q3.85 -3.4 5.65 -4.4 L6.1 -4.7 Q6.75 -3.3 6.6 -1.9 6.85 0.1 6.1 1.9 L5.95 2.25 2.7 6.1 0.95 8.35 0.4 8.7 0.4 6.9 0.25 -0.75 1.0 -1.2 M10.8 0.3 Q13.8 -1.55 16.15 0.0 17.0 0.65 16.7 1.75 15.7 5.0 13.9 8.0 L11.65 11.8 Q10.25 11.75 9.1 10.9 L8.65 10.55 8.9 9.7 Q9.15 8.15 9.75 6.65 L9.85 6.4 Q10.55 3.35 10.8 0.3" fill="#404838" fill-rule="evenodd" stroke="none"/>
    <path d="M-16.7 2.15 L-16.8 -2.5 -13.7 -0.7 -10.25 1.0 -10.05 1.15 -9.65 1.65 Q-8.25 3.95 -6.4 5.85 L-4.55 7.6 -4.55 11.65 -7.3 11.45 Q-12.55 9.5 -15.45 4.35 L-16.7 2.15" fill="#7e8680" fill-rule="evenodd" stroke="none"/>
    <path d="M1.0 -1.2 L0.25 -0.75 0.4 6.9 Q-0.7 7.6 -1.85 7.8 L-2.45 7.85 -3.7 7.9 -4.55 7.6 -6.4 5.85 -3.6 5.85 -3.6 1.0 -10.0 1.0 Q-9.55 0.0 -9.85 -1.25 L-9.95 -2.1 Q-5.45 -0.9 -2.25 -1.3 L1.0 -1.2" fill="#b29e4a" fill-rule="evenodd" stroke="none"/>
    <path d="M11.65 11.8 Q9.8 15.75 6.3 17.75 L5.65 17.9 8.65 10.55 9.1 10.9 Q10.25 11.75 11.65 11.8" fill="#a89838" fill-rule="evenodd" stroke="none"/>
    <path d="M6.6 -1.9 Q6.75 -3.3 6.1 -4.7 L5.65 -4.4 Q3.85 -3.4 1.75 -1.75 L1.0 -1.2 -2.25 -1.3 Q-5.45 -0.9 -9.95 -2.1 -10.45 -2.5 -10.45 -3.1 -10.25 -8.8 -4.85 -7.15 L-2.85 -6.8 9.15 -6.7 9.4 -6.1 Q10.9 -3.8 8.95 -1.9 L6.6 -1.9" fill="url(#gradient0)" fill-rule="evenodd" stroke="none"/>
    <path d="M2.7 6.1 L5.95 2.25 6.4 2.35 Q8.55 1.95 10.3 0.35 L10.8 0.3 Q10.55 3.35 9.85 6.4 L9.75 6.65 5.65 6.45 2.95 6.2 2.7 6.1" fill="#a8b0b0" fill-rule="evenodd" stroke="none"/>
    <path d="M0.4 6.9 L0.4 8.7 0.95 8.35 2.7 6.1 2.95 6.2 5.65 6.45 3.0 12.0 Q0.05 14.35 -1.9 10.7 -2.6 9.35 -2.45 7.85 L-1.85 7.8 Q-0.7 7.6 0.4 6.9" fill="#707870" fill-rule="evenodd" stroke="none"/>
    <path d="M5.65 17.9 Q4.9 21.85 2.55 24.05 -3.25 21.3 -4.85 13.35 L-4.55 11.65 -4.55 7.6 -3.7 7.9 -2.45 7.85 Q-2.6 9.35 -1.9 10.7 0.05 14.35 3.0 12.0 L5.65 6.45 9.75 6.65 Q9.15 8.15 8.9 9.7 L8.65 10.55 5.65 17.9" fill="url(#gradient1)" fill-rule="evenodd" stroke="none"/>
    <path d="M-10.0 1.0 L-3.6 1.0 -3.6 5.85 -6.4 5.85 Q-8.25 3.95 -9.65 1.65 L-10.05 1.15 -10.0 1.0" fill="#d8e0d8" fill-rule="evenodd" stroke="none"/>
    <path d="M2.55 24.05 Q1.3 25.1 -0.3 25.75 -2.05 26.5 -3.2 24.85 -5.6 21.35 -6.65 17.25 L-6.05 16.2 -4.85 13.35 Q-3.25 21.3 2.55 24.05" fill="#705000" fill-rule="evenodd" stroke="none"/>
    <path d="M6.6 -1.9 Q6.75 -3.3 6.1 -4.7 L5.65 -4.4 Q3.85 -3.4 1.75 -1.75 L1.0 -1.2 0.25 -0.75 0.4 6.9 0.4 8.7 0.95 8.35 2.7 6.1 5.95 2.25 6.1 1.9 Q6.85 0.1 6.6 -1.9 L8.95 -1.9 Q10.9 -3.8 9.4 -6.1 L9.15 -6.7 -2.85 -6.8 -4.85 -7.15 Q-10.25 -8.8 -10.45 -3.1 -10.45 -2.5 -9.95 -2.1 -5.45 -0.9 -2.25 -1.3 L1.0 -1.2 M10.8 0.3 Q13.8 -1.55 16.15 0.0 17.0 0.65 16.7 1.75 15.7 5.0 13.9 8.0 L11.65 11.8 Q9.8 15.75 6.3 17.75 L5.65 17.9 Q4.9 21.85 2.55 24.05 1.3 25.1 -0.3 25.75 -2.05 26.5 -3.2 24.85 -5.6 21.35 -6.65 17.25 -11.25 13.2 -14.65 8.15 -16.5 5.45 -16.7 2.15 L-16.8 -2.5 -13.7 -0.7 -10.25 1.0 -10.0 1.0 Q-9.55 0.0 -9.85 -1.25 L-9.95 -2.1 M8.95 -1.9 Q9.0 -0.4 10.1 0.3 L10.3 0.35 10.8 0.05 10.8 0.3 Q10.55 3.35 9.85 6.4 L9.75 6.65 Q9.15 8.15 8.9 9.7 L8.65 10.55 5.65 17.9 M10.8 0.3 L10.3 0.35 M5.65 6.45 L9.75 6.65 M5.65 6.45 L2.95 6.2 2.7 6.1 M-2.45 7.85 Q-2.6 9.35 -1.9 10.7 0.05 14.35 3.0 12.0 L5.65 6.45 M-10.0 1.0 L-10.05 1.15 -9.65 1.65 Q-8.25 3.95 -6.4 5.85 L-4.55 7.6 -3.7 7.9 -2.45 7.85 -1.85 7.8 Q-0.7 7.6 0.4 6.9 M-4.55 11.65 L-4.55 7.6 M-6.65 17.25 L-6.05 16.2 -4.85 13.35 -4.55 11.65 M-10.25 1.0 L-10.05 1.15 M2.55 24.05 Q-3.25 21.3 -4.85 13.35" fill="none" stroke="#000000" stroke-linecap="round" stroke-linejoin="round" stroke-width="1.0"/>
  </g>
  <defs>
    <linearGradient gradientTransform="matrix(-0.0125, 0.0, 0.0, 0.0039, -0.2, -4.35)" gradientUnits="userSpaceOnUse" id="gradient0" spreadMethod="pad" x1="-819.2" x2="819.2">
      <stop offset="0.0" stop-color="#404838"/>
      <stop offset="0.14901960784313725" stop-color="#e8f8e8"/>
      <stop offset="0.2823529411764706" stop-color="#e8f8e8"/>
      <stop offset="0.45098039215686275" stop-color="#404838"/>
      <stop offset="0.6274509803921569" stop-color="#e8f8e8"/>
      <stop offset="0.8117647058823529" stop-color="#e8f8e8"/>
      <stop offset="1.0" stop-color="#404838"/>
    </linearGradient>
    <linearGradient gradientTransform="matrix(-0.0089, 0.0, 0.0, 0.0107, 2.4, 15.25)" gradientUnits="userSpaceOnUse" id="gradient1" spreadMethod="pad" x1="-819.2" x2="819.2">
      <stop offset="0.0" stop-color="#504820"/>
      <stop offset="0.5647058823529412" stop-color="#a89838"/>
      <stop offset="0.796078431372549" stop-color="#a89838"/>
      <stop offset="1.0" stop-color="#d0b081"/>
    </linearGradient>
  </defs>
</svg>
