<?xml version="1.0" encoding="UTF-8" standalone="no"?>
<svg xmlns:ffdec="https://www.free-decompiler.com/flash" xmlns:xlink="http://www.w3.org/1999/xlink" ffdec:objectType="shape" height="33.3px" width="49.5px" xmlns="http://www.w3.org/2000/svg">
  <g transform="matrix(1.0, 0.0, 0.0, 1.0, 24.8, 6.8)">
    <path d="M4.8 -1.65 L4.6 -2.65 Q9.0 -0.4 13.4 -2.65 L13.5 3.4 13.5 4.2 Q13.65 8.05 9.45 8.55 7.35 9.0 5.3 8.55 L5.15 8.5 4.8 -1.65 M-13.5 3.4 L-13.45 -2.65 Q-9.05 -0.4 -4.65 -2.65 L-4.9 -1.65 -5.2 8.5 -5.4 8.55 Q-7.45 9.0 -9.45 8.55 -13.7 8.05 -13.55 4.2 L-13.5 3.4 M-7.05 6.6 L-7.05 1.8 -11.8 1.8 -11.8 6.6 -7.05 6.6 M11.75 6.6 L11.75 1.8 7.0 1.8 7.0 6.6 11.75 6.6" fill="#b29e4a" fill-rule="evenodd" stroke="none"/>
    <path d="M10.6 17.75 L7.95 20.4 4.65 15.7 4.6 15.3 9.6 14.6 9.65 15.35 Q9.7 16.8 10.6 17.75 M-8.0 20.4 L-10.65 17.75 Q-9.75 16.8 -9.7 15.35 L-9.65 14.6 -4.65 15.3 -4.7 15.7 -8.0 20.4" fill="#404838" fill-rule="evenodd" stroke="none"/>
    <path d="M13.5 3.4 Q17.5 -1.45 23.1 -1.4 23.5 -1.45 23.65 -1.1 24.5 1.2 24.05 3.1 14.0 13.7 9.5 11.55 L9.45 8.55 Q13.65 8.05 13.5 4.2 L13.5 3.4 M-24.1 3.1 Q-24.6 1.2 -23.7 -1.1 -23.6 -1.45 -23.15 -1.4 -17.6 -1.45 -13.5 3.4 L-13.55 4.2 Q-13.7 8.05 -9.45 8.55 L-9.55 11.55 Q-14.05 13.7 -24.1 3.1" fill="#a8b0b0" fill-rule="evenodd" stroke="none"/>
    <path d="M-1.65 0.25 L1.6 0.25 1.6 17.5 -1.65 17.5 -1.65 0.25" fill="#707870" fill-rule="evenodd" stroke="none"/>
    <path d="M-7.05 6.6 L-11.8 6.6 -11.8 1.8 -7.05 1.8 -7.05 6.6 M11.75 6.6 L7.0 6.6 7.0 1.8 11.75 1.8 11.75 6.6" fill="#d8e0d8" fill-rule="evenodd" stroke="none"/>
    <path d="M24.05 3.1 Q23.55 4.95 21.85 6.45 17.5 10.25 14.35 15.1 L11.95 18.2 11.5 18.2 10.6 17.75 Q9.7 16.8 9.65 15.35 L9.6 14.6 9.5 11.55 Q14.0 13.7 24.05 3.1 M-10.65 17.75 Q-11.05 18.05 -11.55 18.2 L-12.0 18.2 -14.4 15.1 Q-17.6 10.25 -21.9 6.45 -23.65 4.95 -24.1 3.1 -14.05 13.7 -9.55 11.55 L-9.65 14.6 -9.7 15.35 Q-9.75 16.8 -10.65 17.75" fill="#b7a153" fill-rule="evenodd" stroke="none"/>
    <path d="M7.95 20.4 Q5.15 24.2 1.15 25.8 L1.55 25.05 Q3.85 20.6 4.65 15.7 L7.95 20.4 M-1.2 25.8 Q-5.2 24.2 -8.0 20.4 L-4.7 15.7 Q-3.95 20.6 -1.6 25.05 L-1.2 25.8" fill="#887020" fill-rule="evenodd" stroke="none"/>
    <path d="M-4.9 -1.65 Q-3.65 -2.35 -2.35 -2.65 L-0.05 -2.95 2.25 -2.65 4.8 -1.65 5.15 8.5 5.3 8.55 Q7.35 9.0 9.45 8.55 L9.5 11.55 9.6 14.6 4.6 15.3 4.65 15.7 Q3.85 20.6 1.55 25.05 L1.15 25.8 0.7 25.95 -0.05 25.95 -0.75 25.95 -1.2 25.8 -1.6 25.05 Q-3.95 20.6 -4.7 15.7 L-4.65 15.3 -9.65 14.6 -9.55 11.55 -9.45 8.55 Q-7.45 9.0 -5.4 8.55 L-5.2 8.5 -4.9 -1.65 M-1.65 0.25 L-1.65 17.5 1.6 17.5 1.6 0.25 -1.65 0.25" fill="url(#gradient0)" fill-rule="evenodd" stroke="none"/>
    <path d="M4.6 -2.65 L4.25 -4.7 Q4.2 -5.0 4.4 -5.1 8.05 -7.15 11.75 -5.7 12.95 -5.25 13.35 -3.95 L13.4 -2.65 Q9.0 -0.4 4.6 -2.65" fill="url(#gradient1)" fill-rule="evenodd" stroke="none"/>
    <path d="M-13.45 -2.65 L-13.4 -3.95 Q-13.05 -5.25 -11.8 -5.7 -8.1 -7.15 -4.45 -5.1 L-4.3 -4.7 -4.65 -2.65 Q-9.05 -0.4 -13.45 -2.65" fill="url(#gradient2)" fill-rule="evenodd" stroke="none"/>
    <path d="M-4.9 -1.65 Q-3.65 -2.35 -2.35 -2.65 L-0.05 -2.95 2.25 -2.65 4.8 -1.65 4.6 -2.65 4.25 -4.7 Q4.2 -5.0 4.4 -5.1 8.05 -7.15 11.75 -5.7 12.95 -5.25 13.35 -3.95 L13.4 -2.65 13.5 3.4 Q17.5 -1.45 23.1 -1.4 23.5 -1.45 23.65 -1.1 24.5 1.2 24.05 3.1 23.55 4.95 21.85 6.45 17.5 10.25 14.35 15.1 L11.95 18.2 11.5 18.2 10.6 17.75 7.95 20.4 Q5.15 24.2 1.15 25.8 L0.7 25.95 -0.05 25.95 -0.75 25.95 -1.2 25.8 Q-5.2 24.2 -8.0 20.4 L-10.65 17.75 Q-11.05 18.05 -11.55 18.2 L-12.0 18.2 -14.4 15.1 Q-17.6 10.25 -21.9 6.45 -23.65 4.95 -24.1 3.1 -24.6 1.2 -23.7 -1.1 -23.6 -1.45 -23.15 -1.4 -17.6 -1.45 -13.5 3.4 L-13.45 -2.65 -13.4 -3.95 Q-13.05 -5.25 -11.8 -5.7 -8.1 -7.15 -4.45 -5.1 L-4.3 -4.7 -4.65 -2.65 -4.9 -1.65 -5.2 8.5 -5.4 8.55 Q-7.45 9.0 -9.45 8.55 L-9.55 11.55 -9.65 14.6 -4.65 15.3 -4.7 15.7 Q-3.95 20.6 -1.6 25.05 L-1.2 25.8 M4.6 -2.65 Q9.0 -0.4 13.4 -2.65 M-4.65 -2.65 Q-9.05 -0.4 -13.45 -2.65 M-9.45 8.55 Q-13.7 8.05 -13.55 4.2 L-13.5 3.4 M-10.65 17.75 Q-9.75 16.8 -9.7 15.35 L-9.65 14.6 M13.5 3.4 L13.5 4.2 Q13.65 8.05 9.45 8.55 L9.5 11.55 9.6 14.6 4.6 15.3 4.65 15.7 Q3.85 20.6 1.55 25.05 L1.15 25.8 M4.8 -1.65 L5.15 8.5 5.3 8.55 Q7.35 9.0 9.45 8.55 M10.6 17.75 Q9.7 16.8 9.65 15.35 L9.6 14.6" fill="none" stroke="#000000" stroke-linecap="round" stroke-linejoin="round" stroke-width="1.0"/>
  </g>
  <defs>
    <linearGradient gradientTransform="matrix(-0.0118, 0.0, 0.0, -0.0177, -0.05, 11.55)" gradientUnits="userSpaceOnUse" id="gradient0" spreadMethod="pad" x1="-819.2" x2="819.2">
      <stop offset="0.0" stop-color="#404838"/>
      <stop offset="0.996078431372549" stop-color="#d8e0d8"/>
    </linearGradient>
    <linearGradient gradientTransform="matrix(0.0056, 0.0, 0.0, 0.0029, 8.8, -3.9)" gradientUnits="userSpaceOnUse" id="gradient1" spreadMethod="pad" x1="-819.2" x2="819.2">
      <stop offset="0.0" stop-color="#404838"/>
      <stop offset="0.4196078431372549" stop-color="#e8f8e8"/>
      <stop offset="0.5882352941176471" stop-color="#e8f8e8"/>
      <stop offset="1.0" stop-color="#404838"/>
    </linearGradient>
    <linearGradient gradientTransform="matrix(0.0056, 0.0, 0.0, 0.0029, -8.9, -3.9)" gradientUnits="userSpaceOnUse" id="gradient2" spreadMethod="pad" x1="-819.2" x2="819.2">
      <stop offset="0.0" stop-color="#404838"/>
      <stop offset="0.4196078431372549" stop-color="#e8f8e8"/>
      <stop offset="0.5882352941176471" stop-color="#e8f8e8"/>
      <stop offset="1.0" stop-color="#404838"/>
    </linearGradient>
  </defs>
</svg>
