<?xml version="1.0" encoding="UTF-8" standalone="no"?>
<svg xmlns:ffdec="https://www.free-decompiler.com/flash" xmlns:xlink="http://www.w3.org/1999/xlink" ffdec:objectType="shape" height="34.3px" width="22.6px" xmlns="http://www.w3.org/2000/svg">
  <g transform="matrix(1.0, 0.0, 0.0, 1.0, 11.35, 7.8)">
    <path d="M-9.95 -3.5 Q-10.5 -5.15 -9.25 -6.2 L-8.5 -6.8 -8.4 -7.05 Q-1.4 -7.4 5.65 -7.25 7.05 -6.25 6.45 -4.6 L5.8 -3.75 5.5 -3.6 5.15 -3.25 -2.05 -2.5 -3.3 -2.35 -5.45 -2.25 -9.45 -3.05 -9.95 -3.5" fill="url(#gradient0)" fill-rule="evenodd" stroke="none"/>
    <path d="M5.5 -3.6 L7.25 -3.25 Q5.15 1.8 0.0 1.4 L-0.95 1.6 Q-1.25 4.1 -1.2 6.7 -3.1 2.5 -2.05 -2.5 L5.15 -3.25 5.5 -3.6" fill="#b29e4a" fill-rule="evenodd" stroke="none"/>
    <path d="M7.25 -3.25 L7.65 -3.3 9.0 -2.95 8.4 -0.85 7.3 2.95 Q5.4 9.75 -0.95 9.35 L-1.15 9.15 -1.2 7.0 -1.2 6.7 Q-1.25 4.1 -0.95 1.6 L0.0 1.4 Q5.15 1.8 7.25 -3.25" fill="#7e8680" fill-rule="evenodd" stroke="none"/>
    <path d="M9.0 -2.95 L10.75 -2.55 Q10.75 1.7 9.6 5.75 7.8 11.85 4.35 17.15 L2.45 16.5 Q-2.55 14.15 -0.95 9.35 5.4 9.75 7.3 2.95 L8.4 -0.85 9.0 -2.95" fill="#a89838" fill-rule="evenodd" stroke="none"/>
    <path d="M3.8 18.55 L2.8 21.5 Q-0.15 18.0 -1.6 22.5 -2.15 24.25 -1.45 26.0 L-1.85 25.7 Q-4.85 21.85 -5.85 16.75 L-6.35 15.9 Q-9.0 11.8 -9.9 6.9 L-9.8 6.15 Q-9.5 4.3 -8.6 2.75 -7.55 4.5 -5.65 5.1 L-5.35 5.1 Q-5.1 1.45 -5.45 -2.25 L-3.3 -2.35 Q-4.05 3.95 -3.25 10.15 -3.05 12.05 -2.25 13.75 -0.4 17.75 3.8 18.55" fill="url(#gradient1)" fill-rule="evenodd" stroke="none"/>
    <path d="M2.8 21.5 L2.65 22.05 Q1.6 24.35 -0.45 26.0 L-1.45 26.0 Q-2.15 24.25 -1.6 22.5 -0.15 18.0 2.8 21.5 M-5.85 16.75 L-6.85 16.15 Q-11.15 12.65 -9.9 6.9 -9.0 11.8 -6.35 15.9 L-5.85 16.75" fill="#887020" fill-rule="evenodd" stroke="none"/>
    <path d="M4.35 17.15 L3.8 18.55 Q-0.4 17.75 -2.25 13.75 -3.05 12.05 -3.25 10.15 -4.05 3.95 -3.3 -2.35 L-2.05 -2.5 Q-3.1 2.5 -1.2 6.7 L-1.2 7.0 -1.15 9.15 -0.95 9.35 Q-2.55 14.15 2.45 16.5 L4.35 17.15" fill="#646c62" fill-rule="evenodd" stroke="none"/>
    <path d="M-8.6 2.75 Q-9.95 1.3 -10.6 -0.35 -11.3 -2.05 -9.95 -3.5 L-9.45 -3.05 -5.45 -2.25 Q-5.1 1.45 -5.35 5.1 L-5.65 5.1 Q-7.55 4.5 -8.6 2.75" fill="#404838" fill-rule="evenodd" stroke="none"/>
    <path d="M-9.95 -3.5 Q-10.5 -5.15 -9.25 -6.2 L-8.5 -6.8 -8.4 -7.05 Q-1.4 -7.4 5.65 -7.25 7.05 -6.25 6.45 -4.6 L5.8 -3.75 5.5 -3.6 7.25 -3.25 7.65 -3.3 9.0 -2.95 10.75 -2.55 Q10.75 1.7 9.6 5.75 7.8 11.85 4.35 17.15 L3.8 18.55 2.8 21.5 2.65 22.05 Q1.6 24.35 -0.45 26.0 L-1.45 26.0 -1.85 25.7 Q-4.85 21.85 -5.85 16.75 L-6.85 16.15 Q-11.15 12.65 -9.9 6.9 L-9.8 6.15 Q-9.5 4.3 -8.6 2.75 -9.95 1.3 -10.6 -0.35 -11.3 -2.05 -9.95 -3.5 L-9.45 -3.05 -5.45 -2.25 -3.3 -2.35 -2.05 -2.5 5.15 -3.25 5.5 -3.6 M9.0 -2.95 L8.4 -0.85 7.3 2.95 Q5.4 9.75 -0.95 9.35 L-1.15 9.15 -1.2 7.0 -1.2 6.7 Q-1.25 4.1 -0.95 1.6 L0.0 1.4 Q5.15 1.8 7.25 -3.25 M-5.45 -2.25 Q-5.1 1.45 -5.35 5.1 L-5.65 5.1 Q-7.55 4.5 -8.6 2.75 M-3.3 -2.35 Q-4.05 3.95 -3.25 10.15 -3.05 12.05 -2.25 13.75 -0.4 17.75 3.8 18.55 M2.8 21.5 Q-0.15 18.0 -1.6 22.5 -2.15 24.25 -1.45 26.0" fill="none" stroke="#000000" stroke-linecap="round" stroke-linejoin="round" stroke-width="1.0"/>
  </g>
  <defs>
    <linearGradient gradientTransform="matrix(0.0102, 0.0, 0.0, 0.0031, -1.75, -4.8)" gradientUnits="userSpaceOnUse" id="gradient0" spreadMethod="pad" x1="-819.2" x2="819.2">
      <stop offset="0.0" stop-color="#404838"/>
      <stop offset="0.14901960784313725" stop-color="#e8f8e8"/>
      <stop offset="0.2823529411764706" stop-color="#e8f8e8"/>
      <stop offset="0.45098039215686275" stop-color="#404838"/>
      <stop offset="0.6274509803921569" stop-color="#e8f8e8"/>
      <stop offset="0.8117647058823529" stop-color="#e8f8e8"/>
      <stop offset="1.0" stop-color="#404838"/>
    </linearGradient>
    <linearGradient gradientTransform="matrix(0.0084, 0.0, 0.0, 0.0173, -3.05, 11.8)" gradientUnits="userSpaceOnUse" id="gradient1" spreadMethod="pad" x1="-819.2" x2="819.2">
      <stop offset="0.0" stop-color="#404838"/>
      <stop offset="0.996078431372549" stop-color="#d8e0d8"/>
    </linearGradient>
  </defs>
</svg>
