<?xml version="1.0" encoding="UTF-8" standalone="no"?>
<svg xmlns:ffdec="https://www.free-decompiler.com/flash" xmlns:xlink="http://www.w3.org/1999/xlink" ffdec:objectType="shape" height="33.5px" width="27.0px" xmlns="http://www.w3.org/2000/svg">
  <g transform="matrix(1.0, 0.0, 0.0, 1.0, 15.9, 7.05)">
    <path d="M2.75 -1.45 L3.15 -0.95 3.65 0.0 3.9 1.05 4.4 5.9 Q2.25 8.25 1.45 -1.15 L2.75 -1.45" fill="#a89838" fill-rule="evenodd" stroke="none"/>
    <path d="M1.45 -1.15 Q2.25 8.25 4.4 5.9 L4.45 8.7 3.8 13.05 1.75 12.25 Q1.0 11.9 0.85 11.2 -0.5 5.25 0.15 -0.9 L1.45 -1.15" fill="#d8e0d8" fill-rule="evenodd" stroke="none"/>
    <path d="M2.75 -1.45 L1.45 -1.15 0.15 -0.9 -3.25 -0.9 -4.85 -1.7 -6.1 -2.9 Q-7.0 -5.8 -4.15 -6.35 -0.2 -7.1 3.4 -5.25 4.3 -4.15 4.1 -3.1 L3.8 -1.85 2.75 -1.45" fill="url(#gradient0)" fill-rule="evenodd" stroke="none"/>
    <path d="M4.4 5.9 L3.9 1.05 3.65 0.0 Q6.55 -2.85 10.3 -2.1 L10.5 -2.05 Q11.25 4.0 6.0 7.6 L4.45 8.7 4.4 5.9" fill="#7e8680" fill-rule="evenodd" stroke="none"/>
    <path d="M3.8 13.05 L3.55 14.3 Q3.25 15.3 2.5 15.9 L1.95 16.55 -0.25 18.35 -0.7 18.45 Q-2.4 18.7 -3.4 17.45 L-6.0 14.9 -6.4 14.4 -6.8 13.85 -6.95 13.7 -7.1 13.5 -7.7 11.45 Q-7.9 8.4 -7.7 5.35 L-7.6 4.25 Q-7.45 0.6 -4.85 -1.7 L-3.25 -0.9 0.15 -0.9 Q-0.5 5.25 0.85 11.2 1.0 11.9 1.75 12.25 L3.8 13.05" fill="url(#gradient1)" fill-rule="evenodd" stroke="none"/>
    <path d="M2.5 15.9 L2.9 17.05 Q3.85 19.9 2.5 22.45 L1.65 21.8 Q0.1 20.45 -0.25 18.35 L1.95 16.55 2.5 15.9" fill="#707870" fill-rule="evenodd" stroke="none"/>
    <path d="M2.5 22.45 L0.9 25.3 Q0.55 25.9 -0.05 25.95 -3.85 26.05 -5.4 21.95 L-4.8 21.3 Q-3.45 19.6 -3.4 17.45 -2.4 18.7 -0.7 18.45 L-0.25 18.35 Q0.1 20.45 1.65 21.8 L2.5 22.45" fill="#887020" fill-rule="evenodd" stroke="none"/>
    <path d="M-7.7 5.35 L-8.4 4.95 -12.5 1.4 Q-15.95 -1.8 -15.3 -6.1 L-14.75 -5.65 Q-10.9 -1.7 -6.1 -2.9 L-4.85 -1.7 Q-7.45 0.6 -7.6 4.25 L-7.7 5.35" fill="#404838" fill-rule="evenodd" stroke="none"/>
    <path d="M-5.4 21.95 L-5.75 21.25 Q-6.7 18.1 -6.0 14.9 L-3.4 17.45 Q-3.45 19.6 -4.8 21.3 L-5.4 21.95" fill="#8858c7" fill-rule="evenodd" stroke="none"/>
    <path d="M3.65 0.0 L3.15 -0.95 2.75 -1.45 1.45 -1.15 Q2.25 8.25 4.4 5.9 L3.9 1.05 3.65 0.0 Q6.55 -2.85 10.3 -2.1 L10.5 -2.05 Q11.25 4.0 6.0 7.6 L4.45 8.7 3.8 13.05 3.55 14.3 Q3.25 15.3 2.5 15.9 L2.9 17.05 Q3.85 19.9 2.5 22.45 L0.9 25.3 Q0.55 25.9 -0.05 25.95 -3.85 26.05 -5.4 21.95 L-5.75 21.25 Q-6.7 18.1 -6.0 14.9 L-6.4 14.4 -6.8 13.85 -6.95 13.7 -7.1 13.5 -7.7 11.45 Q-7.9 8.4 -7.7 5.35 L-8.4 4.95 -12.5 1.4 Q-15.95 -1.8 -15.3 -6.1 L-14.75 -5.65 Q-10.9 -1.7 -6.1 -2.9 -7.0 -5.8 -4.15 -6.35 -0.2 -7.1 3.4 -5.25 4.3 -4.15 4.1 -3.1 L3.8 -1.85 2.75 -1.45 M0.15 -0.9 L1.45 -1.15 M3.8 13.05 L1.75 12.25 Q1.0 11.9 0.85 11.2 -0.5 5.25 0.15 -0.9 L-3.25 -0.9 -4.85 -1.7 Q-7.45 0.6 -7.6 4.25 L-7.7 5.35 M4.4 5.9 L4.45 8.7 M-0.25 18.35 Q0.1 20.45 1.65 21.8 L2.5 22.45 M-0.25 18.35 L1.95 16.55 2.5 15.9 M-6.1 -2.9 L-4.85 -1.7 M-3.4 17.45 Q-2.4 18.7 -0.7 18.45 L-0.25 18.35 M-5.4 21.95 L-4.8 21.3 Q-3.45 19.6 -3.4 17.45 L-6.0 14.9" fill="none" stroke="#000000" stroke-linecap="round" stroke-linejoin="round" stroke-width="1.0"/>
  </g>
  <defs>
    <linearGradient gradientTransform="matrix(0.0064, 0.0, 0.0, 0.0035, -1.1, -3.75)" gradientUnits="userSpaceOnUse" id="gradient0" spreadMethod="pad" x1="-819.2" x2="819.2">
      <stop offset="0.0" stop-color="#404838"/>
      <stop offset="0.4196078431372549" stop-color="#e8f8e8"/>
      <stop offset="0.5882352941176471" stop-color="#e8f8e8"/>
      <stop offset="1.0" stop-color="#404838"/>
    </linearGradient>
    <linearGradient gradientTransform="matrix(0.0071, 0.0, 0.0, 0.0123, -2.0, 8.4)" gradientUnits="userSpaceOnUse" id="gradient1" spreadMethod="pad" x1="-819.2" x2="819.2">
      <stop offset="0.0" stop-color="#504820"/>
      <stop offset="0.5647058823529412" stop-color="#a89838"/>
      <stop offset="0.796078431372549" stop-color="#a89838"/>
      <stop offset="1.0" stop-color="#d0b081"/>
    </linearGradient>
  </defs>
</svg>
