<?xml version="1.0" encoding="UTF-8" standalone="no"?>
<svg xmlns:ffdec="https://www.free-decompiler.com/flash" xmlns:xlink="http://www.w3.org/1999/xlink" ffdec:objectType="shape" height="20.0px" width="264.0px" xmlns="http://www.w3.org/2000/svg">
  <g transform="matrix(1.0, 0.0, 0.0, 1.0, -18.0, -310.0)">
    <path d="M20.95 312.95 Q23.5 310.35 27.1 310.05 L27.45 310.0 28.0 310.0 272.0 310.0 272.55 310.0 272.95 310.05 Q276.5 310.35 279.1 312.95 281.95 315.8 282.0 319.75 L282.0 320.15 282.0 320.25 Q281.9 324.25 279.1 327.1 276.15 330.0 272.0 330.0 L28.0 330.0 Q23.85 330.0 20.95 327.1 18.1 324.25 18.0 320.25 L18.0 320.15 18.0 319.8 18.0 319.75 Q18.05 315.8 20.95 312.95 M22.0 320.15 Q22.05 322.55 23.75 324.25 25.5 326.0 28.0 326.0 L272.0 326.0 Q274.5 326.0 276.25 324.25 277.95 322.55 278.0 320.15 L278.0 319.8 Q277.95 317.45 276.25 315.75 274.7 314.2 272.55 314.0 L27.45 314.0 Q25.3 314.2 23.75 315.75 22.05 317.45 22.0 319.8 L22.0 320.15" fill="url(#gradient0)" fill-rule="evenodd" stroke="none"/>
  </g>
  <defs>
    <linearGradient gradientTransform="matrix(0.0, 0.0122, -0.1611, 0.0, 150.0, 320.0)" gradientUnits="userSpaceOnUse" id="gradient0" spreadMethod="pad" x1="-819.2" x2="819.2">
      <stop offset="0.0" stop-color="#cccccc"/>
      <stop offset="1.0" stop-color="#333333"/>
    </linearGradient>
  </defs>
</svg>
