<?xml version="1.0" encoding="UTF-8" standalone="no"?>
<svg xmlns:ffdec="https://www.free-decompiler.com/flash" xmlns:xlink="http://www.w3.org/1999/xlink" ffdec:objectType="shape" height="34.35px" width="22.55px" xmlns="http://www.w3.org/2000/svg">
  <g transform="matrix(1.0, 0.0, 0.0, 1.0, 11.25, 7.85)">
    <path d="M9.9 -3.5 L9.4 -3.05 5.4 -2.3 3.3 -2.35 2.05 -2.5 -5.2 -3.3 -5.55 -3.6 -5.8 -3.75 -6.45 -4.6 Q-7.1 -6.25 -5.7 -7.3 1.35 -7.45 8.35 -7.1 L8.45 -6.8 9.2 -6.25 Q10.4 -5.15 9.9 -3.5" fill="url(#gradient0)" fill-rule="evenodd" stroke="none"/>
    <path d="M2.05 -2.5 L3.3 -2.35 Q4.0 3.9 3.25 10.15 3.0 12.05 2.25 13.75 0.3 17.75 -3.85 18.55 L-4.4 17.15 -2.5 16.5 Q2.45 14.2 0.9 9.35 L1.1 9.1 1.2 7.0 1.2 6.7 Q3.05 2.5 2.05 -2.5" fill="#705000" fill-rule="evenodd" stroke="none"/>
    <path d="M5.4 -2.3 L9.4 -3.05 9.9 -3.5 Q11.25 -2.05 10.6 -0.35 9.9 1.3 8.55 2.75 7.45 4.45 5.65 5.05 L5.35 5.1 Q5.05 1.45 5.4 -2.3" fill="#404838" fill-rule="evenodd" stroke="none"/>
    <path d="M5.4 -2.3 Q5.05 1.45 5.35 5.1 L5.65 5.05 Q7.45 4.45 8.55 2.75 9.45 4.3 9.75 6.15 L9.85 6.9 Q8.95 11.8 6.3 15.9 L5.85 16.75 Q4.8 21.9 1.85 25.7 L1.55 25.65 Q2.05 24.05 1.55 22.5 0.1 18.0 -2.85 21.55 L-3.85 18.55 Q0.3 17.75 2.25 13.75 3.0 12.05 3.25 10.15 4.0 3.9 3.3 -2.35 L5.4 -2.3" fill="url(#gradient1)" fill-rule="evenodd" stroke="none"/>
    <path d="M-7.3 -3.3 Q-5.2 1.8 -0.05 1.4 L0.95 1.6 1.2 6.7 1.2 7.0 1.1 9.1 0.9 9.35 Q-5.45 9.75 -7.35 2.95 L-8.45 -0.85 -9.0 -3.0 -7.65 -3.3 -7.3 -3.3 M9.85 6.9 Q11.05 12.65 6.8 16.15 L5.85 16.75 6.3 15.9 Q8.95 11.8 9.85 6.9 M1.4 26.0 L0.45 26.0 Q-1.65 24.35 -2.7 22.05 L-2.85 21.55 Q0.1 18.0 1.55 22.5 2.05 24.05 1.55 25.65 L1.4 26.0" fill="#887020" fill-rule="evenodd" stroke="none"/>
    <path d="M-5.55 -3.6 L-5.2 -3.3 2.05 -2.5 Q3.05 2.5 1.2 6.7 L0.95 1.6 -0.05 1.4 Q-5.2 1.8 -7.3 -3.3 L-5.55 -3.6" fill="#b29e4a" fill-rule="evenodd" stroke="none"/>
    <path d="M1.85 25.7 L1.4 26.0 1.55 25.65 1.85 25.7" fill="url(#gradient2)" fill-rule="evenodd" stroke="none"/>
    <path d="M-9.0 -3.0 L-8.45 -0.85 -7.35 2.95 Q-5.45 9.75 0.9 9.35 2.45 14.2 -2.5 16.5 L-4.4 17.15 Q-7.9 11.85 -9.6 5.75 -10.8 1.7 -10.75 -2.55 L-9.0 -3.0" fill="#a89838" fill-rule="evenodd" stroke="none"/>
    <path d="M9.9 -3.5 L9.4 -3.05 5.4 -2.3 Q5.05 1.45 5.35 5.1 L5.65 5.05 Q7.45 4.45 8.55 2.75 9.9 1.3 10.6 -0.35 11.25 -2.05 9.9 -3.5 10.4 -5.15 9.2 -6.25 L8.45 -6.8 8.35 -7.1 Q1.35 -7.45 -5.7 -7.3 -7.1 -6.25 -6.45 -4.6 L-5.8 -3.75 -5.55 -3.6 -5.2 -3.3 2.05 -2.5 3.3 -2.35 5.4 -2.3 M1.2 6.7 L0.95 1.6 -0.05 1.4 Q-5.2 1.8 -7.3 -3.3 L-7.65 -3.3 -9.0 -3.0 -8.45 -0.85 -7.35 2.95 Q-5.45 9.75 0.9 9.35 L1.1 9.1 1.2 7.0 1.2 6.7 M8.55 2.75 Q9.45 4.3 9.75 6.15 L9.85 6.9 Q11.05 12.65 6.8 16.15 L5.85 16.75 Q4.8 21.9 1.85 25.7 L1.4 26.0 0.45 26.0 Q-1.65 24.35 -2.7 22.05 L-2.85 21.55 -3.85 18.55 -4.4 17.15 Q-7.9 11.85 -9.6 5.75 -10.8 1.7 -10.75 -2.55 L-9.0 -3.0 M3.3 -2.35 Q4.0 3.9 3.25 10.15 3.0 12.05 2.25 13.75 0.3 17.75 -3.85 18.55 M1.55 25.65 L1.4 26.0 M-2.85 21.55 Q0.1 18.0 1.55 22.5 2.05 24.05 1.55 25.65 M-5.55 -3.6 L-7.3 -3.3" fill="none" stroke="#000000" stroke-linecap="round" stroke-linejoin="round" stroke-width="1.0"/>
  </g>
  <defs>
    <linearGradient gradientTransform="matrix(-0.0102, 0.0, 0.0, 0.0031, 1.65, -4.8)" gradientUnits="userSpaceOnUse" id="gradient0" spreadMethod="pad" x1="-819.2" x2="819.2">
      <stop offset="0.0" stop-color="#404838"/>
      <stop offset="0.14901960784313725" stop-color="#e8f8e8"/>
      <stop offset="0.2823529411764706" stop-color="#e8f8e8"/>
      <stop offset="0.45098039215686275" stop-color="#404838"/>
      <stop offset="0.6274509803921569" stop-color="#e8f8e8"/>
      <stop offset="0.8117647058823529" stop-color="#e8f8e8"/>
      <stop offset="1.0" stop-color="#404838"/>
    </linearGradient>
    <linearGradient gradientTransform="matrix(-0.0084, 0.0, 0.0, 0.0173, 2.95, 11.8)" gradientUnits="userSpaceOnUse" id="gradient1" spreadMethod="pad" x1="-819.2" x2="819.2">
      <stop offset="0.0" stop-color="#504820"/>
      <stop offset="0.5647058823529412" stop-color="#a89838"/>
      <stop offset="0.796078431372549" stop-color="#a89838"/>
      <stop offset="1.0" stop-color="#d0b081"/>
    </linearGradient>
    <linearGradient gradientTransform="matrix(-0.0084, 0.0, 0.0, 0.0173, 2.95, 11.8)" gradientUnits="userSpaceOnUse" id="gradient2" spreadMethod="pad" x1="-819.2" x2="819.2">
      <stop offset="0.0" stop-color="#404838"/>
      <stop offset="0.996078431372549" stop-color="#d8e0d8"/>
    </linearGradient>
  </defs>
</svg>
