<?xml version="1.0" encoding="UTF-8" standalone="no"?>
<svg xmlns:ffdec="https://www.free-decompiler.com/flash" xmlns:xlink="http://www.w3.org/1999/xlink" ffdec:objectType="shape" height="55.0px" width="55.0px" xmlns="http://www.w3.org/2000/svg">
  <g transform="matrix(1.0, 0.0, 0.0, 1.0, 24.55, 24.5)">
    <path d="M-14.55 -14.5 L30.45 -14.5 30.45 30.5 -14.55 30.5 -14.55 -14.5" fill="#000000" fill-opacity="0.5019608" fill-rule="evenodd" stroke="none"/>
    <path d="M0.6 -12.35 L1.8 -12.35 6.6 -12.35 6.6 -0.6 6.6 1.65 2.55 1.65 0.6 1.65 0.6 -12.35 M-2.8 -12.35 L-1.55 -12.35 -1.55 1.65 -3.55 1.65 -7.55 1.65 -7.55 -0.6 -7.55 -12.35 -2.8 -12.35 M0.6 1.65 L0.6 5.3 -1.55 5.3 -1.55 1.65 0.6 1.65" fill="#b0b8b0" fill-rule="evenodd" stroke="none"/>
    <path d="M10.05 -2.7 L10.05 -9.7 7.55 -9.7 7.55 -2.7 10.05 -2.7 M6.6 -0.6 L6.6 -12.35 1.8 -12.35 1.8 -14.45 10.95 -14.45 14.45 -10.45 14.45 8.9 11.55 10.8 11.55 15.4 1.7 15.4 1.7 13.3 9.3 13.3 9.3 9.4 10.55 9.4 10.55 -0.6 6.6 -0.6 M-2.7 13.3 L-2.7 15.4 -12.55 15.4 -12.55 10.8 -15.45 8.9 -15.45 -10.45 -11.95 -14.45 -2.8 -14.45 -2.8 -12.35 -7.55 -12.35 -7.55 -0.6 -11.55 -0.6 -11.55 9.4 -10.3 9.4 -10.3 13.3 -2.7 13.3 M10.8 -9.7 L10.8 -2.7 13.3 -2.7 13.3 -9.7 10.8 -9.7 M-14.3 -9.7 L-14.3 -2.7 -11.8 -2.7 -11.8 -9.7 -14.3 -9.7 M-11.05 -9.7 L-11.05 -2.7 -8.55 -2.7 -8.55 -9.7 -11.05 -9.7" fill="#666e66" fill-rule="evenodd" stroke="none"/>
    <path d="M1.8 -12.35 L0.6 -12.35 -1.55 -12.35 -2.8 -12.35 -2.8 -14.45 -11.95 -14.45 -15.45 -10.45 -15.45 8.9 -12.55 10.8 -12.55 15.4 -2.7 15.4 -2.7 13.3 -2.7 9.4 1.7 9.4 1.7 13.3 1.7 15.4 11.55 15.4 11.55 10.8 14.45 8.9 14.45 -10.45 10.95 -14.45 1.8 -14.45 1.8 -12.35 M20.4 20.5 L-20.5 20.5 -20.5 -20.4 20.4 -20.4 20.4 20.5" fill="#385420" fill-rule="evenodd" stroke="none"/>
    <path d="M10.05 -2.7 L7.55 -2.7 7.55 -9.7 10.05 -9.7 10.05 -2.7 M10.8 -9.7 L13.3 -9.7 13.3 -2.7 10.8 -2.7 10.8 -9.7 M-11.05 -9.7 L-8.55 -9.7 -8.55 -2.7 -11.05 -2.7 -11.05 -9.7 M-14.3 -9.7 L-11.8 -9.7 -11.8 -2.7 -14.3 -2.7 -14.3 -9.7" fill="#a8a888" fill-rule="evenodd" stroke="none"/>
    <path d="M2.55 1.65 L6.6 1.65 6.6 -0.6 10.55 -0.6 10.55 9.4 9.3 9.4 2.55 9.4 2.55 5.3 2.55 1.65 M-10.3 9.4 L-11.55 9.4 -11.55 -0.6 -7.55 -0.6 -7.55 1.65 -3.55 1.65 -3.55 5.3 -3.55 9.4 -10.3 9.4" fill="#485048" fill-rule="evenodd" stroke="none"/>
    <path d="M0.6 -12.35 L0.6 1.65 2.55 1.65 2.55 5.3 0.6 5.3 0.6 1.65 -1.55 1.65 -1.55 5.3 -3.55 5.3 -3.55 1.65 -1.55 1.65 -1.55 -12.35 0.6 -12.35" fill="#707870" fill-rule="evenodd" stroke="none"/>
    <path d="M1.7 13.3 L1.7 9.4 -2.7 9.4 -2.7 13.3 -10.3 13.3 -10.3 9.4 -3.55 9.4 -3.55 5.3 -1.55 5.3 0.6 5.3 2.55 5.3 2.55 9.4 9.3 9.4 9.3 13.3 1.7 13.3" fill="#101010" fill-rule="evenodd" stroke="none"/>
    <path d="M1.8 -12.35 L0.6 -12.35 0.6 1.65 2.55 1.65 6.6 1.65 6.6 -0.6 6.6 -12.35 1.8 -12.35 1.8 -14.45 10.95 -14.45 14.45 -10.45 14.45 8.9 11.55 10.8 11.55 15.4 1.7 15.4 1.7 13.3 1.7 9.4 -2.7 9.4 -2.7 13.3 -2.7 15.4 -12.55 15.4 -12.55 10.8 -15.45 8.9 -15.45 -10.45 -11.95 -14.45 -2.8 -14.45 -2.8 -12.35 -1.55 -12.35 0.6 -12.35 M9.3 9.4 L10.55 9.4 10.55 -0.6 6.6 -0.6 M0.6 1.65 L0.6 5.3 2.55 5.3 2.55 1.65 M2.55 5.3 L2.55 9.4 9.3 9.4 9.3 13.3 1.7 13.3 M-7.55 -0.6 L-7.55 -12.35 -2.8 -12.35 M-7.55 -0.6 L-11.55 -0.6 -11.55 9.4 -10.3 9.4 -3.55 9.4 -3.55 5.3 -3.55 1.65 -7.55 1.65 -7.55 -0.6 M-1.55 5.3 L-1.55 1.65 -3.55 1.65 M-3.55 5.3 L-1.55 5.3 0.6 5.3 M-10.3 9.4 L-10.3 13.3 -2.7 13.3 M-1.55 1.65 L-1.55 -12.35 M0.6 1.65 L-1.55 1.65" fill="none" stroke="#000000" stroke-linecap="round" stroke-linejoin="round" stroke-width="1.0"/>
    <path d="M22.45 22.5 L-22.55 22.5 -22.55 -22.5 22.45 -22.5 22.45 22.5" fill="none" stroke="#706860" stroke-linecap="round" stroke-linejoin="round" stroke-width="4.0"/>
    <path d="M20.4 20.5 L-20.5 20.5 -20.5 -20.4 20.4 -20.4 20.4 20.5 Z" fill="none" stroke="#908880" stroke-linecap="round" stroke-linejoin="round" stroke-width="2.0"/>
    <path d="M19.75 -19.8 Q20.35 -19.2 20.35 -18.35 L20.35 -18.25 20.35 -18.15 Q20.35 -17.3 19.75 -16.75 19.2 -16.15 18.35 -16.15 17.5 -16.15 16.9 -16.75 16.35 -17.3 16.35 -18.15 L16.35 -18.25 16.35 -18.35 Q16.35 -19.2 16.9 -19.8 17.5 -20.35 18.35 -20.35 19.2 -20.35 19.75 -19.8 M12.75 -19.8 Q13.35 -19.2 13.35 -18.35 13.35 -17.5 12.75 -16.95 12.2 -16.35 11.35 -16.35 10.5 -16.35 9.9 -16.95 9.35 -17.5 9.35 -18.35 9.35 -19.2 9.9 -19.8 10.5 -20.35 11.35 -20.35 12.2 -20.35 12.75 -19.8 M19.75 -12.6 Q20.35 -12.0 20.35 -11.15 20.35 -10.3 19.75 -9.75 19.2 -9.15 18.35 -9.15 17.5 -9.15 16.9 -9.75 16.35 -10.3 16.35 -11.15 16.35 -12.0 16.9 -12.6 17.5 -13.15 18.35 -13.15 19.2 -13.15 19.75 -12.6 M4.35 -20.35 Q5.2 -20.35 5.75 -19.8 6.35 -19.2 6.35 -18.35 6.35 -17.5 5.75 -16.95 5.2 -16.35 4.35 -16.35 3.5 -16.35 2.9 -16.95 2.35 -17.5 2.35 -18.35 2.35 -19.2 2.9 -19.8 3.5 -20.35 4.35 -20.35 M19.75 -5.6 Q20.35 -5.0 20.35 -4.15 20.35 -3.3 19.75 -2.75 19.2 -2.15 18.35 -2.15 17.5 -2.15 16.9 -2.75 16.35 -3.3 16.35 -4.15 16.35 -5.0 16.9 -5.6 17.5 -6.15 18.35 -6.15 19.2 -6.15 19.75 -5.6 M16.9 1.4 Q17.5 0.85 18.35 0.85 19.2 0.85 19.75 1.4 20.35 2.0 20.35 2.85 20.35 3.7 19.75 4.25 19.2 4.85 18.35 4.85 17.5 4.85 16.9 4.25 16.35 3.7 16.35 2.85 16.35 2.0 16.9 1.4 M19.75 8.4 Q20.35 9.0 20.35 9.85 20.35 10.7 19.75 11.25 19.2 11.85 18.35 11.85 17.5 11.85 16.9 11.25 16.35 10.7 16.35 9.85 16.35 9.0 16.9 8.4 17.5 7.85 18.35 7.85 19.2 7.85 19.75 8.4 M7.35 17.0 Q7.95 17.6 7.95 18.45 7.95 19.3 7.35 19.85 6.8 20.45 5.95 20.45 5.1 20.45 4.5 19.85 3.95 19.3 3.95 18.45 3.95 17.6 4.5 17.0 5.1 16.45 5.95 16.45 6.8 16.45 7.35 17.0 M0.95 18.45 Q0.95 19.3 0.35 19.85 -0.2 20.45 -1.05 20.45 -1.9 20.45 -2.5 19.85 -3.05 19.3 -3.05 18.45 -3.05 17.6 -2.5 17.0 -1.9 16.45 -1.05 16.45 -0.2 16.45 0.35 17.0 0.95 17.6 0.95 18.45 M16.9 15.4 Q17.5 14.85 18.35 14.85 19.2 14.85 19.75 15.4 20.35 16.0 20.35 16.85 20.35 17.7 19.75 18.25 19.2 18.85 18.35 18.85 17.5 18.85 16.9 18.25 16.35 17.7 16.35 16.85 16.35 16.0 16.9 15.4 M14.35 17.0 Q14.95 17.6 14.95 18.45 14.95 19.3 14.35 19.85 13.8 20.45 12.95 20.45 12.1 20.45 11.5 19.85 10.95 19.3 10.95 18.45 10.95 17.6 11.5 17.0 12.1 16.45 12.95 16.45 13.8 16.45 14.35 17.0 M-1.25 -19.8 Q-0.65 -19.2 -0.65 -18.35 -0.65 -17.5 -1.25 -16.95 -1.8 -16.35 -2.65 -16.35 -3.5 -16.35 -4.1 -16.95 -4.65 -17.5 -4.65 -18.35 -4.65 -19.2 -4.1 -19.8 -3.5 -20.35 -2.65 -20.35 -1.8 -20.35 -1.25 -19.8 M-8.25 -19.8 Q-7.65 -19.2 -7.65 -18.35 -7.65 -17.5 -8.25 -16.95 -8.8 -16.35 -9.65 -16.35 -10.5 -16.35 -11.1 -16.95 -11.65 -17.5 -11.65 -18.35 -11.65 -19.2 -11.1 -19.8 -10.5 -20.35 -9.65 -20.35 -8.8 -20.35 -8.25 -19.8 M-15.25 -19.8 Q-14.65 -19.2 -14.65 -18.35 -14.65 -17.5 -15.25 -16.95 -15.8 -16.35 -16.65 -16.35 -17.5 -16.35 -18.1 -16.95 -18.65 -17.5 -18.65 -18.35 -18.65 -19.2 -18.1 -19.8 -17.5 -20.35 -16.65 -20.35 -15.8 -20.35 -15.25 -19.8 M-16.45 -13.15 Q-16.45 -12.3 -17.05 -11.75 -17.6 -11.15 -18.45 -11.15 -19.3 -11.15 -19.9 -11.75 -20.45 -12.3 -20.45 -13.15 -20.45 -14.0 -19.9 -14.6 -19.3 -15.15 -18.45 -15.15 -17.6 -15.15 -17.05 -14.6 -16.45 -14.0 -16.45 -13.15 M-17.05 -7.6 Q-16.45 -7.0 -16.45 -6.15 -16.45 -5.3 -17.05 -4.75 -17.6 -4.15 -18.45 -4.15 -19.3 -4.15 -19.9 -4.75 -20.45 -5.3 -20.45 -6.15 -20.45 -7.0 -19.9 -7.6 -19.3 -8.15 -18.45 -8.15 -17.6 -8.15 -17.05 -7.6 M-18.45 -1.15 Q-17.6 -1.15 -17.05 -0.6 -16.45 0.0 -16.45 0.85 -16.45 1.7 -17.05 2.25 -17.6 2.85 -18.45 2.85 -19.3 2.85 -19.9 2.25 -20.45 1.7 -20.45 0.85 -20.45 0.0 -19.9 -0.6 -19.3 -1.15 -18.45 -1.15 M-16.45 7.85 Q-16.45 8.7 -17.05 9.25 -17.6 9.85 -18.45 9.85 -19.3 9.85 -19.9 9.25 -20.45 8.7 -20.45 7.85 -20.45 7.0 -19.9 6.4 -19.3 5.85 -18.45 5.85 -17.6 5.85 -17.05 6.4 -16.45 7.0 -16.45 7.85 M-13.05 18.45 Q-13.05 19.3 -13.65 19.85 -14.2 20.45 -15.05 20.45 -15.9 20.45 -16.5 19.85 -17.05 19.3 -17.05 18.45 -17.05 17.6 -16.5 17.0 -15.9 16.45 -15.05 16.45 -14.2 16.45 -13.65 17.0 -13.05 17.6 -13.05 18.45 M-17.05 13.4 Q-16.45 14.0 -16.45 14.85 -16.45 15.7 -17.05 16.25 -17.6 16.85 -18.45 16.85 -19.3 16.85 -19.9 16.25 -20.45 15.7 -20.45 14.85 -20.45 14.0 -19.9 13.4 -19.3 12.85 -18.45 12.85 -17.6 12.85 -17.05 13.4 M-6.65 17.0 Q-6.05 17.6 -6.05 18.45 -6.05 19.3 -6.65 19.85 -7.2 20.45 -8.05 20.45 -8.9 20.45 -9.5 19.85 -10.05 19.3 -10.05 18.45 -10.05 17.6 -9.5 17.0 -8.9 16.45 -8.05 16.45 -7.2 16.45 -6.65 17.0" fill="#908880" fill-rule="evenodd" stroke="none"/>
  </g>
</svg>
