<?xml version="1.0" encoding="UTF-8" standalone="no"?>
<svg xmlns:ffdec="https://www.free-decompiler.com/flash" xmlns:xlink="http://www.w3.org/1999/xlink" ffdec:objectType="shape" height="91.3px" width="218.65px" xmlns="http://www.w3.org/2000/svg">
  <g transform="matrix(1.0, 0.0, 0.0, 1.0, 109.3, 45.1)">
    <path d="M35.0 -12.7 L28.0 12.5 19.75 20.05 -5.5 20.05 5.65 -19.95 27.25 -19.95 35.0 -12.7 M15.45 -6.4 L12.05 5.8 21.2 -1.05 15.45 -6.4 M52.95 -5.1 L65.45 -5.1 63.65 1.4 51.15 1.4 49.05 8.9 61.55 8.9 58.5 19.9 31.0 19.9 42.1 -20.1 69.6 -20.1 66.85 -10.1 54.35 -10.1 52.95 -5.1 M89.7 -0.1 L100.85 -40.05 108.35 -20.1 97.2 19.9 87.2 19.9 81.55 -0.1 76.0 19.9 63.5 19.9 74.6 -20.1 84.1 -20.1 89.7 -0.1" fill="url(#gradient0)" fill-rule="evenodd" stroke="none"/>
    <path d="M-107.95 45.15 L-95.35 -6.85 -108.3 -19.95 -51.75 -19.95 -55.7 -5.55 -66.5 4.3 -60.2 10.65 -62.75 20.05 -76.25 20.05 -76.25 14.05 -81.75 14.05 -89.3 45.15 -107.95 45.15 M-66.3 -9.75 L-76.0 -9.75 -78.75 1.6 -66.3 -9.75 M-40.4 3.1 L-45.35 10.05 -35.5 10.05 -40.4 3.1 M-57.75 20.05 L-52.6 1.35 -37.5 -19.95 -20.5 20.05 -57.75 20.05" fill="url(#gradient1)" fill-rule="evenodd" stroke="none"/>
    <path d="M35.0 -12.7 L28.0 12.5 19.75 20.05 -5.5 20.05 5.65 -19.95 27.25 -19.95 35.0 -12.7 M15.45 -6.4 L12.05 5.8 21.2 -1.05 15.45 -6.4 M52.95 -5.1 L65.45 -5.1 63.65 1.4 51.15 1.4 49.05 8.9 61.55 8.9 58.5 19.9 31.0 19.9 42.1 -20.1 69.6 -20.1 66.85 -10.1 54.35 -10.1 52.95 -5.1 M89.7 -0.1 L100.85 -40.05 108.35 -20.1 97.2 19.9 87.2 19.9 81.55 -0.1 76.0 19.9 63.5 19.9 74.6 -20.1 84.1 -20.1 89.7 -0.1 M-107.95 45.15 L-95.35 -6.85 -108.3 -19.95 -51.75 -19.95 -55.7 -5.55 -66.5 4.3 -60.2 10.65 -62.75 20.05 -76.25 20.05 -76.25 14.05 -81.75 14.05 -89.3 45.15 -89.3 45.2 -107.95 45.2 -107.95 45.15 M-66.3 -9.75 L-78.75 1.6 -76.0 -9.75 -66.3 -9.75 M-40.4 3.1 L-45.35 10.05 -35.5 10.05 -40.4 3.1 M-57.75 20.05 L-20.5 20.05 -37.5 -19.95 -52.6 1.35 -57.75 20.05 Z" fill="none" stroke="#333333" stroke-linecap="round" stroke-linejoin="round" stroke-width="2.0"/>
    <path d="M-26.75 -45.1 L-22.5 -40.1 -27.75 -4.35 -33.5 0.65 -26.75 -45.1" fill="#808080" fill-rule="evenodd" stroke="none"/>
    <path d="M9.5 -13.1 L0.55 -8.1 -13.4 -8.1 -6.0 -13.1 9.5 -13.1 M9.5 -45.1 L2.1 -40.1 -22.5 -40.1 -26.75 -45.1 9.5 -45.1" fill="#b8b3b2" fill-rule="evenodd" stroke="none"/>
    <path d="M0.55 -8.1 L9.5 -13.1 -27.25 33.1 -25.0 24.05 0.55 -8.1 M-6.0 -13.1 L-13.4 -8.1 2.1 -40.1 9.5 -45.1 -6.0 -13.1 M-27.75 -4.35 L-18.05 -4.35 -19.25 0.65 -33.5 0.65 -27.75 -4.35" fill="#635a58" fill-rule="evenodd" stroke="none"/>
    <path d="M-13.4 -8.1 L0.55 -8.1 -25.0 24.05 -19.25 0.65 -18.05 -4.35 -27.75 -4.35 -22.5 -40.1 2.1 -40.1 -13.4 -8.1" fill="url(#gradient2)" fill-rule="evenodd" stroke="none"/>
  </g>
  <defs>
    <linearGradient gradientTransform="matrix(0.0, 0.052, -0.1417, 0.0, 3.35, 2.45)" gradientUnits="userSpaceOnUse" id="gradient0" spreadMethod="pad" x1="-819.2" x2="819.2">
      <stop offset="0.06666666666666667" stop-color="#e8e8e8"/>
      <stop offset="0.23921568627450981" stop-color="#a0a0a0"/>
      <stop offset="0.35294117647058826" stop-color="#e0e0e0"/>
      <stop offset="0.43529411764705883" stop-color="#e0e0e0"/>
      <stop offset="0.5372549019607843" stop-color="#808080"/>
      <stop offset="0.6392156862745098" stop-color="#707070"/>
      <stop offset="0.7450980392156863" stop-color="#404040"/>
      <stop offset="1.0" stop-color="#606060"/>
    </linearGradient>
    <linearGradient gradientTransform="matrix(0.0, 0.052, -0.1417, 0.0, 0.85, 2.45)" gradientUnits="userSpaceOnUse" id="gradient1" spreadMethod="pad" x1="-819.2" x2="819.2">
      <stop offset="0.06666666666666667" stop-color="#e8e8e8"/>
      <stop offset="0.23921568627450981" stop-color="#a0a0a0"/>
      <stop offset="0.35294117647058826" stop-color="#e0e0e0"/>
      <stop offset="0.43529411764705883" stop-color="#e0e0e0"/>
      <stop offset="0.5372549019607843" stop-color="#808080"/>
      <stop offset="0.6392156862745098" stop-color="#707070"/>
      <stop offset="0.7450980392156863" stop-color="#404040"/>
      <stop offset="1.0" stop-color="#606060"/>
    </linearGradient>
    <linearGradient gradientTransform="matrix(0.0, 0.0391, -0.0182, 0.0, -12.8, -8.05)" gradientUnits="userSpaceOnUse" id="gradient2" spreadMethod="pad" x1="-819.2" x2="819.2">
      <stop offset="0.0392156862745098" stop-color="#800000"/>
      <stop offset="0.22745098039215686" stop-color="#ff0000"/>
      <stop offset="0.596078431372549" stop-color="#ffff00"/>
      <stop offset="0.9176470588235294" stop-color="#ffcc00"/>
    </linearGradient>
  </defs>
</svg>
