<?xml version="1.0" encoding="UTF-8" standalone="no"?>
<svg xmlns:ffdec="https://www.free-decompiler.com/flash" xmlns:xlink="http://www.w3.org/1999/xlink" ffdec:objectType="shape" height="55.35px" width="60.7px" xmlns="http://www.w3.org/2000/svg">
  <g transform="matrix(1.0, 0.0, 0.0, 1.0, 30.35, 27.65)">
    <path d="M6.25 13.7 L6.25 14.45 Q6.1 14.85 5.65 14.8 L3.75 14.8 -0.1 14.8 -3.55 14.8 -5.65 14.8 Q-6.1 14.85 -6.2 14.45 L-6.2 13.7 -6.15 8.95 -6.75 -11.0 -6.65 -13.55 Q-6.55 -17.6 -5.6 -21.75 -5.05 -23.7 -4.4 -24.35 L-2.7 -25.8 Q-2.15 -26.2 -1.0 -26.25 L0.0 -26.25 1.0 -26.25 Q2.15 -26.2 2.7 -25.8 L4.4 -24.35 Q5.05 -23.7 5.6 -21.75 6.55 -17.6 6.65 -13.55 L6.75 -11.0 6.15 8.95 Q6.05 11.3 6.25 13.7 M3.65 -18.3 L2.95 -18.75 1.0 -19.35 0.0 -19.4 -1.0 -19.35 -2.95 -18.75 -3.65 -18.3 Q-5.2 -3.95 -3.35 10.3 L-0.95 11.0 -0.5 11.1 -0.25 11.1 0.25 11.1 0.5 11.1 1.0 11.0 3.35 10.3 Q5.2 -3.95 3.65 -18.3" fill="url(#gradient0)" fill-rule="evenodd" stroke="none"/>
    <path d="M11.7 -22.55 Q15.55 -28.0 22.55 -27.0 L23.2 -26.6 Q17.3 -20.2 15.3 -12.6 L13.2 -12.5 13.25 -15.85 Q13.5 -19.6 11.7 -22.55 M14.9 7.3 L13.5 17.45 Q12.4 19.35 11.25 18.35 L10.95 18.15 Q8.1 15.6 8.95 11.4 L9.6 -4.7 Q11.25 -5.15 12.35 -3.8 15.7 0.2 14.9 7.3 M-8.95 11.4 Q-8.1 15.6 -10.95 18.15 L-11.25 18.35 Q-12.35 19.35 -13.5 17.45 L-14.9 7.3 Q-15.7 0.2 -12.35 -3.8 -11.25 -5.15 -9.6 -4.7 L-8.95 11.4 M-15.3 -12.6 Q-17.3 -20.2 -23.2 -26.6 L-22.55 -27.0 Q-15.55 -28.0 -11.7 -22.55 -13.5 -19.6 -13.25 -15.85 L-13.2 -12.5 -15.3 -12.6 M11.8 10.9 L10.25 11.9 Q9.85 12.95 10.2 14.1 L10.85 15.95 11.65 15.8 12.4 15.1 12.75 11.4 11.8 10.9 M-10.25 11.9 L-11.8 10.9 -12.75 11.4 -12.4 15.1 -11.65 15.8 -10.85 15.95 -10.2 14.1 Q-9.85 12.95 -10.25 11.9" fill="#485850" fill-rule="evenodd" stroke="none"/>
    <path d="M17.0 -13.4 L18.5 -15.05 20.0 -15.25 20.25 -8.8 23.85 -15.4 27.25 -15.05 27.5 -7.45 24.7 -4.75 Q20.75 -1.05 17.0 3.2 L17.0 -13.4 M-17.0 3.2 Q-20.75 -1.05 -24.7 -4.75 L-27.5 -7.45 -27.25 -15.05 -23.8 -15.4 -20.25 -8.8 -20.0 -15.25 -18.5 -15.05 -17.0 -13.4 -17.0 3.2 M0.45 -5.1 L0.3 -5.6 -0.05 -16.7 2.15 -16.55 Q3.65 -11.45 2.55 -6.2 L2.35 -5.5 2.25 -5.25 0.45 -5.1 M0.25 -1.95 L0.5 -2.45 2.4 -2.55 Q3.1 3.1 1.75 8.8 L0.15 8.8 0.05 8.4 Q-0.45 3.2 0.25 -1.95" fill="#384048" fill-rule="evenodd" stroke="none"/>
    <path d="M20.0 -15.25 L23.85 -15.4 20.25 -8.8 20.0 -15.25 M27.25 -15.05 L27.75 -14.8 Q32.05 -11.65 27.5 -7.45 L27.25 -15.05 M-27.5 -7.45 Q-32.05 -11.65 -27.75 -14.8 L-27.25 -15.05 -27.5 -7.45 M-23.8 -15.4 L-20.0 -15.25 -20.25 -8.8 -23.8 -15.4" fill="#101010" fill-rule="evenodd" stroke="none"/>
    <path d="M-11.7 -22.55 L-11.3 -23.1 Q-8.15 -25.2 -5.6 -21.75 -6.55 -17.6 -6.65 -13.55 L-6.75 -11.0 -7.65 -10.5 Q-10.7 -9.3 -13.15 -11.4 L-13.2 -12.5 -13.25 -15.85 Q-13.5 -19.6 -11.7 -22.55 M5.6 -21.75 Q8.15 -25.2 11.3 -23.1 L11.7 -22.55 Q13.5 -19.6 13.25 -15.85 L13.2 -12.5 13.15 -11.4 Q10.7 -9.3 7.65 -10.5 L6.75 -11.0 6.65 -13.55 Q6.55 -17.6 5.6 -21.75" fill="#707870" fill-rule="evenodd" stroke="none"/>
    <path d="M3.65 -18.3 Q5.2 -3.95 3.35 10.3 L1.0 11.0 0.5 11.1 0.25 11.1 -0.25 11.1 -0.5 11.1 -0.95 11.0 -3.35 10.3 Q-5.2 -3.95 -3.65 -18.3 L-2.95 -18.75 -1.0 -19.35 0.0 -19.4 1.0 -19.35 2.95 -18.75 3.65 -18.3 M0.25 -1.95 Q-0.45 3.2 0.05 8.4 L0.15 8.8 1.75 8.8 Q3.1 3.1 2.4 -2.55 L0.5 -2.45 0.25 -1.95 M0.45 -5.1 L2.25 -5.25 2.35 -5.5 2.55 -6.2 Q3.65 -11.45 2.15 -16.55 L-0.05 -16.7 0.3 -5.6 0.45 -5.1" fill="url(#gradient1)" fill-rule="evenodd" stroke="none"/>
    <path d="M15.3 -12.6 L17.0 -13.4 17.0 3.2 14.9 7.3 Q15.7 0.2 12.35 -3.8 11.25 -5.15 9.6 -4.7 L8.95 11.4 6.25 13.7 Q6.05 11.3 6.15 8.95 L6.75 -11.0 7.65 -10.5 Q10.7 -9.3 13.15 -11.4 L13.2 -12.5 15.3 -12.6 M-6.2 13.7 L-8.95 11.4 -9.6 -4.7 Q-11.25 -5.15 -12.35 -3.8 -15.7 0.2 -14.9 7.3 L-17.0 3.2 -17.0 -13.4 -15.3 -12.6 -13.2 -12.5 -13.15 -11.4 Q-10.7 -9.3 -7.65 -10.5 L-6.75 -11.0 -6.15 8.95 -6.2 13.7" fill="#202010" fill-rule="evenodd" stroke="none"/>
    <path d="M11.8 10.9 L12.75 11.4 12.4 15.1 11.65 15.8 10.85 15.95 10.2 14.1 Q9.85 12.95 10.25 11.9 L11.8 10.9 M-10.25 11.9 Q-9.85 12.95 -10.2 14.1 L-10.85 15.95 -11.65 15.8 -12.4 15.1 -12.75 11.4 -11.8 10.9 -10.25 11.9" fill="#8858c8" fill-rule="evenodd" stroke="none"/>
    <path d="M5.65 14.8 L5.55 18.55 3.75 18.55 3.75 14.8 5.65 14.8 M-3.5 18.55 L-3.55 14.8 -0.1 14.8 -0.1 18.55 -3.5 18.55" fill="#dadbbe" fill-rule="evenodd" stroke="none"/>
    <path d="M5.55 18.55 L5.6 21.05 5.1 22.4 -5.05 22.4 -5.6 21.05 -5.55 18.55 -3.5 18.55 -0.1 18.55 3.75 18.55 5.55 18.55" fill="url(#gradient2)" fill-rule="evenodd" stroke="none"/>
    <path d="M-5.55 18.55 L-5.65 14.8 -3.55 14.8 -3.5 18.55 -5.55 18.55 M3.75 14.8 L3.75 18.55 -0.1 18.55 -0.1 14.8 3.75 14.8" fill="#98a880" fill-rule="evenodd" stroke="none"/>
    <path d="M5.1 22.4 L3.95 24.95 2.7 26.25 Q2.1 26.8 1.0 27.05 L0.0 27.2 -0.95 27.05 Q-2.1 26.8 -2.7 26.25 L-3.95 24.95 -5.05 22.4 5.1 22.4" fill="url(#gradient3)" fill-rule="evenodd" stroke="none"/>
    <path d="M11.7 -22.55 Q15.55 -28.0 22.55 -27.0 L23.2 -26.6 Q17.3 -20.2 15.3 -12.6 L17.0 -13.4 18.5 -15.05 20.0 -15.25 23.85 -15.4 27.25 -15.05 27.75 -14.8 Q32.05 -11.65 27.5 -7.45 L24.7 -4.75 Q20.75 -1.05 17.0 3.2 L14.9 7.3 13.5 17.45 Q12.4 19.35 11.25 18.35 L10.95 18.15 Q8.1 15.6 8.95 11.4 L6.25 13.7 6.25 14.45 Q6.1 14.85 5.65 14.8 L5.55 18.55 5.6 21.05 5.1 22.4 3.95 24.95 2.7 26.25 Q2.1 26.8 1.0 27.05 L0.0 27.2 -0.95 27.05 Q-2.1 26.8 -2.7 26.25 L-3.95 24.95 -5.05 22.4 -5.6 21.05 -5.55 18.55 -5.65 14.8 Q-6.1 14.85 -6.2 14.45 L-6.2 13.7 -8.95 11.4 Q-8.1 15.6 -10.95 18.15 L-11.25 18.35 Q-12.35 19.35 -13.5 17.45 L-14.9 7.3 -17.0 3.2 Q-20.75 -1.05 -24.7 -4.75 L-27.5 -7.45 Q-32.05 -11.65 -27.75 -14.8 L-27.25 -15.05 -23.8 -15.4 -20.0 -15.25 -18.5 -15.05 -17.0 -13.4 -15.3 -12.6 Q-17.3 -20.2 -23.2 -26.6 L-22.55 -27.0 Q-15.55 -28.0 -11.7 -22.55 L-11.3 -23.1 Q-8.15 -25.2 -5.6 -21.75 -5.05 -23.7 -4.4 -24.35 L-2.7 -25.8 Q-2.15 -26.2 -1.0 -26.25 L0.0 -26.25 1.0 -26.25 Q2.15 -26.2 2.7 -25.8 L4.4 -24.35 Q5.05 -23.7 5.6 -21.75 8.15 -25.2 11.3 -23.1 L11.7 -22.55 Q13.5 -19.6 13.25 -15.85 L13.2 -12.5 15.3 -12.6 M5.6 -21.75 Q6.55 -17.6 6.65 -13.55 L6.75 -11.0 7.65 -10.5 Q10.7 -9.3 13.15 -11.4 L13.2 -12.5 M3.65 -18.3 Q5.2 -3.95 3.35 10.3 L1.0 11.0 0.5 11.1 0.25 11.1 -0.25 11.1 -0.5 11.1 -0.95 11.0 -3.35 10.3 Q-5.2 -3.95 -3.65 -18.3 L-2.95 -18.75 -1.0 -19.35 0.0 -19.4 1.0 -19.35 2.95 -18.75 3.65 -18.3 M0.25 -1.95 Q-0.45 3.2 0.05 8.4 L0.15 8.8 1.75 8.8 Q3.1 3.1 2.4 -2.55 L0.5 -2.45 0.25 -1.95 M0.45 -5.1 L2.25 -5.25 2.35 -5.5 2.55 -6.2 Q3.65 -11.45 2.15 -16.55 L-0.05 -16.7 0.3 -5.6 0.45 -5.1 M14.9 7.3 Q15.7 0.2 12.35 -3.8 11.25 -5.15 9.6 -4.7 L8.95 11.4 M20.0 -15.25 L20.25 -8.8 23.85 -15.4 M27.25 -15.05 L27.5 -7.45 M11.8 10.9 L10.25 11.9 Q9.85 12.95 10.2 14.1 L10.85 15.95 11.65 15.8 12.4 15.1 12.75 11.4 11.8 10.9 M3.75 14.8 L3.75 18.55 5.55 18.55 M3.75 14.8 L5.65 14.8 M6.75 -11.0 L6.15 8.95 Q6.05 11.3 6.25 13.7 M17.0 -13.4 L17.0 3.2 M-27.25 -15.05 L-27.5 -7.45 M-6.75 -11.0 L-6.65 -13.55 Q-6.55 -17.6 -5.6 -21.75 M-13.2 -12.5 L-13.25 -15.85 Q-13.5 -19.6 -11.7 -22.55 M-15.3 -12.6 L-13.2 -12.5 -13.15 -11.4 Q-10.7 -9.3 -7.65 -10.5 L-6.75 -11.0 -6.15 8.95 -6.2 13.7 M-20.0 -15.25 L-20.25 -8.8 -23.8 -15.4 M-14.9 7.3 Q-15.7 0.2 -12.35 -3.8 -11.25 -5.15 -9.6 -4.7 L-8.95 11.4 M-10.25 11.9 Q-9.85 12.95 -10.2 14.1 L-10.85 15.95 -11.65 15.8 -12.4 15.1 -12.75 11.4 -11.8 10.9 -10.25 11.9 M-3.55 14.8 L-3.5 18.55 -0.1 18.55 -0.1 14.8 -3.55 14.8 -5.65 14.8 M-3.5 18.55 L-5.55 18.55 M-17.0 -13.4 L-17.0 3.2 M-0.1 14.8 L3.75 14.8 M-5.05 22.4 L5.1 22.4 M3.75 18.55 L-0.1 18.55" fill="none" stroke="#000000" stroke-linecap="round" stroke-linejoin="round" stroke-width="1.0"/>
  </g>
  <defs>
    <linearGradient gradientTransform="matrix(0.0082, 0.0, 0.0, 0.0251, 0.0, -5.75)" gradientUnits="userSpaceOnUse" id="gradient0" spreadMethod="pad" x1="-819.2" x2="819.2">
      <stop offset="0.0" stop-color="#707870"/>
      <stop offset="0.2549019607843137" stop-color="#a8b0b0"/>
      <stop offset="0.5529411764705883" stop-color="#a8b0b0"/>
      <stop offset="1.0" stop-color="#384048"/>
    </linearGradient>
    <linearGradient gradientTransform="matrix(0.0053, 0.0, 0.0, 0.0186, 0.0, -4.15)" gradientUnits="userSpaceOnUse" id="gradient1" spreadMethod="pad" x1="-819.2" x2="819.2">
      <stop offset="0.0" stop-color="#707870"/>
      <stop offset="0.2549019607843137" stop-color="#a8b0b0"/>
      <stop offset="0.5529411764705883" stop-color="#a8b0b0"/>
      <stop offset="1.0" stop-color="#384048"/>
    </linearGradient>
    <linearGradient gradientTransform="matrix(0.0068, 0.0, 0.0, 0.0023, 0.0, 20.45)" gradientUnits="userSpaceOnUse" id="gradient2" spreadMethod="pad" x1="-819.2" x2="819.2">
      <stop offset="0.0" stop-color="#707870"/>
      <stop offset="0.2549019607843137" stop-color="#a8b0b0"/>
      <stop offset="0.5529411764705883" stop-color="#a8b0b0"/>
      <stop offset="1.0" stop-color="#384048"/>
    </linearGradient>
    <linearGradient gradientTransform="matrix(0.0062, 0.0, 0.0, 0.0029, 0.0, 24.8)" gradientUnits="userSpaceOnUse" id="gradient3" spreadMethod="pad" x1="-819.2" x2="819.2">
      <stop offset="0.0" stop-color="#707870"/>
      <stop offset="0.2549019607843137" stop-color="#a8b0b0"/>
      <stop offset="0.5529411764705883" stop-color="#a8b0b0"/>
      <stop offset="1.0" stop-color="#384048"/>
    </linearGradient>
  </defs>
</svg>
