<?xml version="1.0" encoding="UTF-8" standalone="no"?>
<svg xmlns:ffdec="https://www.free-decompiler.com/flash" xmlns:xlink="http://www.w3.org/1999/xlink" ffdec:objectType="shape" height="46.25px" width="33.25px" xmlns="http://www.w3.org/2000/svg">
  <g transform="matrix(1.0, 0.0, 0.0, 1.0, 14.85, 20.35)">
    <path d="M18.4 -0.45 L18.4 21.55 Q18.05 26.15 13.9 25.9 L8.15 25.9 8.15 23.65 -0.1 23.65 -0.1 25.9 -5.85 25.9 Q-10.05 26.15 -10.35 21.55 L-10.35 -0.45 Q-10.45 -5.05 -7.6 -5.7 L-4.1 -5.7 -4.1 -5.85 Q-4.15 -9.15 -1.8 -11.5 0.55 -13.85 3.9 -13.85 7.2 -13.85 9.55 -11.5 11.85 -9.15 11.9 -5.85 L11.9 -5.75 12.15 -5.7 15.65 -5.7 Q18.45 -5.05 18.4 -0.45" fill="#000000" fill-opacity="0.5019608" fill-rule="evenodd" stroke="none"/>
    <path d="M7.35 -8.95 Q7.85 -10.25 7.9 -11.75 L8.15 -11.7 11.65 -11.7 Q14.45 -11.05 14.4 -6.45 L14.4 15.55 Q14.05 20.15 9.9 19.9 L4.15 19.9 4.15 17.65 -4.1 17.65 -4.1 19.9 -9.85 19.9 Q-14.05 20.15 -14.35 15.55 L-14.35 -6.45 Q-14.45 -11.05 -11.6 -11.7 L-8.1 -11.7 Q-8.1 -10.25 -7.6 -8.95 L-6.0 1.8 -9.0 1.85 -9.0 15.85 -1.0 15.85 -0.95 7.5 Q-0.15 7.7 0.75 7.5 L0.8 15.8 8.8 15.8 8.8 1.8 5.75 1.75 7.35 -8.95" fill="url(#gradient0)" fill-rule="evenodd" stroke="none"/>
    <path d="M7.9 -11.75 Q7.85 -10.25 7.35 -8.95 6.75 -7.4 5.55 -6.15 3.2 -3.85 -0.1 -3.85 -3.45 -3.85 -5.8 -6.15 -7.05 -7.4 -7.6 -8.95 -8.1 -10.25 -8.1 -11.7 L-8.1 -11.85 Q-8.15 -15.15 -5.8 -17.5 -3.45 -19.85 -0.1 -19.85 3.2 -19.85 5.55 -17.5 7.85 -15.15 7.9 -11.85 L7.9 -11.75 M-0.1 -15.85 Q-1.8 -15.85 -2.95 -14.65 -4.1 -13.5 -4.1 -11.85 L-4.1 -11.75 -3.85 -10.4 Q-3.6 -9.65 -2.95 -9.0 -1.8 -7.85 -0.1 -7.85 1.55 -7.85 2.7 -9.0 L3.65 -10.4 3.9 -11.85 Q3.85 -13.5 2.7 -14.65 1.55 -15.85 -0.1 -15.85" fill="url(#gradient1)" fill-rule="evenodd" stroke="none"/>
    <path d="M-0.1 -15.85 Q1.55 -15.85 2.7 -14.65 3.85 -13.5 3.9 -11.85 L3.65 -10.4 2.7 -9.0 Q1.55 -7.85 -0.1 -7.85 -1.8 -7.85 -2.95 -9.0 -3.6 -9.65 -3.85 -10.4 L-4.1 -11.75 -4.1 -11.85 Q-4.1 -13.5 -2.95 -14.65 -1.8 -15.85 -0.1 -15.85" fill="url(#gradient2)" fill-rule="evenodd" stroke="none"/>
    <path d="M7.35 -8.95 L5.75 1.75 Q3.85 5.6 1.9 6.9 L1.9 -1.35 -2.1 -1.35 -2.1 6.95 Q-4.05 5.65 -6.0 1.8 L-7.6 -8.95 Q-7.05 -7.4 -5.8 -6.15 -3.45 -3.85 -0.1 -3.85 3.2 -3.85 5.55 -6.15 6.75 -7.4 7.35 -8.95" fill="url(#gradient3)" fill-rule="evenodd" stroke="none"/>
    <path d="M0.75 7.5 Q-0.15 7.7 -0.95 7.5 L-2.1 6.95 -2.1 -1.35 1.9 -1.35 1.9 6.9 0.75 7.5" fill="#706860" fill-rule="evenodd" stroke="none"/>
    <path d="M5.75 1.75 L8.8 1.8 8.8 15.8 0.8 15.8 0.75 7.5 1.9 6.9 Q3.85 5.6 5.75 1.75" fill="url(#gradient4)" fill-rule="evenodd" stroke="none"/>
    <path d="M-0.95 7.5 L-1.0 15.85 -9.0 15.85 -9.0 1.85 -6.0 1.8 Q-4.05 5.65 -2.1 6.95 L-0.95 7.5" fill="url(#gradient5)" fill-rule="evenodd" stroke="none"/>
    <path d="M7.9 -11.75 Q7.85 -10.25 7.35 -8.95 L5.75 1.75 8.8 1.8 8.8 15.8 0.8 15.8 0.75 7.5 M-0.95 7.5 L-1.0 15.85 -9.0 15.85 -9.0 1.85 -6.0 1.8 -7.6 -8.95 Q-8.1 -10.25 -8.1 -11.7 L-11.6 -11.7 Q-14.45 -11.05 -14.35 -6.45 L-14.35 15.55 Q-14.05 20.15 -9.85 19.9 L-4.1 19.9 -4.1 17.65 4.15 17.65 4.15 19.9 9.9 19.9 Q14.05 20.15 14.4 15.55 L14.4 -6.45 Q14.45 -11.05 11.65 -11.7 L8.15 -11.7 M7.9 -11.75 L7.9 -11.85 Q7.85 -15.15 5.55 -17.5 3.2 -19.85 -0.1 -19.85 -3.45 -19.85 -5.8 -17.5 -8.15 -15.15 -8.1 -11.85 L-8.1 -11.7 M1.9 6.9 L1.9 -1.35 -2.1 -1.35 -2.1 6.95 M7.35 -8.95 Q6.75 -7.4 5.55 -6.15 3.2 -3.85 -0.1 -3.85 -3.45 -3.85 -5.8 -6.15 -7.05 -7.4 -7.6 -8.95" fill="none" stroke="#000000" stroke-linecap="round" stroke-linejoin="round" stroke-width="1.0"/>
    <path d="M0.75 7.5 Q-0.15 7.7 -0.95 7.5 L-2.1 6.95 Q-4.05 5.65 -6.0 1.8 M0.75 7.5 L1.9 6.9 Q3.85 5.6 5.75 1.75" fill="none" stroke="#000000" stroke-linecap="round" stroke-linejoin="round" stroke-width="1.0"/>
  </g>
  <defs>
    <linearGradient gradientTransform="matrix(0.0, -0.0193, 0.0175, 0.0, 0.0, 4.1)" gradientUnits="userSpaceOnUse" id="gradient0" spreadMethod="pad" x1="-819.2" x2="819.2">
      <stop offset="0.33725490196078434" stop-color="#202010"/>
      <stop offset="0.8274509803921568" stop-color="#a29a93"/>
      <stop offset="1.0" stop-color="#202010"/>
    </linearGradient>
    <linearGradient gradientTransform="matrix(0.005, 0.005, -0.0069, 0.0069, -0.3, -12.05)" gradientUnits="userSpaceOnUse" id="gradient1" spreadMethod="pad" x1="-819.2" x2="819.2">
      <stop offset="0.0" stop-color="#e8f0e8"/>
      <stop offset="0.6980392156862745" stop-color="#908860"/>
    </linearGradient>
    <radialGradient cx="0" cy="0" gradientTransform="matrix(0.0078, 0.0, 0.0, 0.0078, 2.0, -10.95)" gradientUnits="userSpaceOnUse" id="gradient2" r="819.2" spreadMethod="pad">
      <stop offset="0.396078431372549" stop-color="#7c7460"/>
      <stop offset="1.0" stop-color="#605030"/>
    </radialGradient>
    <linearGradient gradientTransform="matrix(0.009, 0.0052, -0.0056, 0.0098, -1.15, -3.15)" gradientUnits="userSpaceOnUse" id="gradient3" spreadMethod="pad" x1="-819.2" x2="819.2">
      <stop offset="0.07058823529411765" stop-color="#e8f0e8"/>
      <stop offset="0.5607843137254902" stop-color="#968e72"/>
      <stop offset="1.0" stop-color="#1f2012"/>
    </linearGradient>
    <linearGradient gradientTransform="matrix(0.0, 0.0086, -0.0049, 0.0, 4.75, 8.75)" gradientUnits="userSpaceOnUse" id="gradient4" spreadMethod="pad" x1="-819.2" x2="819.2">
      <stop offset="0.33725490196078434" stop-color="#202010"/>
      <stop offset="0.8274509803921568" stop-color="#a29a93"/>
      <stop offset="1.0" stop-color="#202010"/>
    </linearGradient>
    <linearGradient gradientTransform="matrix(0.0, 0.0086, -0.0049, 0.0, -5.0, 8.8)" gradientUnits="userSpaceOnUse" id="gradient5" spreadMethod="pad" x1="-819.2" x2="819.2">
      <stop offset="0.33725490196078434" stop-color="#202010"/>
      <stop offset="0.8274509803921568" stop-color="#a29a93"/>
      <stop offset="1.0" stop-color="#202010"/>
    </linearGradient>
  </defs>
</svg>
