<?xml version="1.0" encoding="UTF-8" standalone="no"?>
<svg xmlns:ffdec="https://www.free-decompiler.com/flash" xmlns:xlink="http://www.w3.org/1999/xlink" ffdec:objectType="shape" height="37.0px" width="38.05px" xmlns="http://www.w3.org/2000/svg">
  <g transform="matrix(1.0, 0.0, 0.0, 1.0, 16.8, 16.25)">
    <path d="M9.15 -10.65 L12.0 -10.1 Q20.45 -12.6 20.4 -3.6 L20.45 -1.0 21.25 7.3 21.0 10.1 18.85 18.85 Q17.6 19.8 16.05 19.35 14.4 18.95 13.75 17.45 6.25 23.45 -2.45 18.55 L-3.75 17.45 Q-5.2 20.0 -8.2 19.3 L-8.55 19.15 -10.35 13.5 -11.3 6.75 -10.5 -1.0 Q-11.85 -7.25 -7.1 -10.0 -4.65 -11.35 -2.0 -10.1 L0.7 -10.75 1.95 -9.45 2.15 -7.85 7.85 -7.85 9.15 -10.65" fill="#000000" fill-opacity="0.5019608" fill-rule="evenodd" stroke="none"/>
    <path d="M2.85 -12.85 L4.15 -15.65 7.0 -15.1 7.5 -10.6 3.25 -10.35 2.85 -12.85 M16.05 -1.35 L16.2 0.1 Q15.5 0.15 15.0 0.45 L14.6 1.0 14.95 1.45 16.3 1.75 16.25 3.0 13.65 2.95 13.6 -0.85 16.05 -1.35 M15.7 6.5 L15.35 8.5 11.55 7.0 15.7 6.5 M-7.0 -15.1 L-4.3 -15.75 -3.05 -14.45 -2.85 -12.85 -3.25 -10.35 -7.5 -10.6 -7.0 -15.1 M7.75 3.15 L7.45 7.35 -7.45 7.35 -7.75 3.15 -2.5 2.95 -1.1 2.95 -2.5 2.95 -2.7 -3.6 2.7 -3.6 2.5 2.95 7.75 3.15 M1.05 2.95 L2.5 2.95 1.05 2.95 1.2 -0.25 -1.25 -0.25 -1.1 2.95 1.05 2.95" fill="#687070" fill-rule="evenodd" stroke="none"/>
    <path d="M3.25 -10.35 L7.5 -10.6 7.75 -3.6 2.7 -3.6 -2.7 -3.6 -7.75 -3.6 -7.5 -10.6 -3.25 -10.35 3.25 -10.35" fill="url(#gradient0)" fill-rule="evenodd" stroke="none"/>
    <path d="M2.7 -3.6 L7.75 -3.6 7.75 3.15 2.5 2.95 2.7 -3.6" fill="#313434" fill-rule="evenodd" stroke="none"/>
    <path d="M7.0 -15.1 Q15.45 -17.6 15.4 -8.6 L15.45 -6.0 12.05 -5.85 11.5 5.3 11.55 7.0 15.35 8.5 13.85 13.85 Q12.6 14.8 11.05 14.35 9.4 13.95 8.75 12.45 L7.55 8.9 7.45 7.35 7.75 3.15 7.75 -3.6 7.5 -10.6 7.0 -15.1" fill="url(#gradient1)" fill-rule="evenodd" stroke="none"/>
    <path d="M15.45 -6.0 L16.05 -1.35 13.6 -0.85 13.65 2.95 16.25 3.0 16.0 5.1 11.5 5.3 12.05 -5.85 15.45 -6.0 M16.2 0.1 L16.3 1.75 14.95 1.45 14.6 1.0 15.0 0.45 Q15.5 0.15 16.2 0.1 M8.75 12.45 Q1.25 18.45 -7.45 13.55 L-8.75 12.45 -7.55 8.9 7.55 8.9 8.75 12.45 M1.05 2.95 L-1.1 2.95 -1.25 -0.25 1.2 -0.25 1.05 2.95 M2.2 10.45 L-2.2 10.45 -2.2 13.2 2.2 13.2 2.2 10.45" fill="#101010" fill-rule="evenodd" stroke="none"/>
    <path d="M-2.85 -12.85 L2.85 -12.85 3.25 -10.35 -3.25 -10.35 -2.85 -12.85" fill="#783868" fill-rule="evenodd" stroke="none"/>
    <path d="M16.0 5.1 L15.7 6.5 11.55 7.0 11.5 5.3 16.0 5.1" fill="#2e343a" fill-rule="evenodd" stroke="none"/>
    <path d="M7.45 7.35 L7.55 8.9 -7.55 8.9 -7.45 7.35 7.45 7.35 M-2.5 2.95 L-7.75 3.15 -7.75 -3.6 -2.7 -3.6 -2.5 2.95 M2.2 10.45 L2.2 13.2 -2.2 13.2 -2.2 10.45 2.2 10.45" fill="#384048" fill-rule="evenodd" stroke="none"/>
    <path d="M-16.0 5.1 L-16.25 3.0 -13.5 2.25 -13.6 -0.85 -16.1 -1.35 -15.5 -6.0 -12.05 -5.85 -11.5 5.3 -16.0 5.1" fill="#9ca4ac" fill-rule="evenodd" stroke="none"/>
    <path d="M-16.25 3.0 L-16.3 1.75 Q-14.5 2.3 -14.65 1.0 L-14.8 0.75 Q-15.45 0.35 -16.2 0.1 L-16.1 -1.35 -13.6 -0.85 -13.5 2.25 -16.25 3.0" fill="#d3cec5" fill-rule="evenodd" stroke="none"/>
    <path d="M-8.75 12.45 Q-10.2 15.0 -13.2 14.3 L-13.55 14.15 -15.35 8.5 -11.6 7.0 -11.5 5.3 -12.05 -5.85 -15.5 -6.0 Q-16.85 -12.25 -12.1 -15.0 -9.65 -16.35 -7.0 -15.1 L-7.5 -10.6 -7.75 -3.6 -7.75 3.15 -7.45 7.35 -7.55 8.9 -8.75 12.45" fill="url(#gradient2)" fill-rule="evenodd" stroke="none"/>
    <path d="M-16.3 1.75 L-16.2 0.1 Q-15.45 0.35 -14.8 0.75 L-14.65 1.0 Q-14.5 2.3 -16.3 1.75" fill="#686870" fill-rule="evenodd" stroke="none"/>
    <path d="M-15.35 8.5 L-15.7 6.5 -11.6 7.0 -15.35 8.5" fill="#747c84" fill-rule="evenodd" stroke="none"/>
    <path d="M-15.7 6.5 L-16.0 5.1 -11.5 5.3 -11.6 7.0 -15.7 6.5" fill="#989898" fill-rule="evenodd" stroke="none"/>
    <path d="M2.85 -12.85 L4.15 -15.65 7.0 -15.1 Q15.45 -17.6 15.4 -8.6 L15.45 -6.0 16.05 -1.35 16.2 0.1 16.3 1.75 16.25 3.0 16.0 5.1 15.7 6.5 15.35 8.5 13.85 13.85 Q12.6 14.8 11.05 14.35 9.4 13.95 8.75 12.45 1.25 18.45 -7.45 13.55 L-8.75 12.45 Q-10.2 15.0 -13.2 14.3 L-13.55 14.15 -15.35 8.5 -15.7 6.5 -16.0 5.1 -16.25 3.0 -16.3 1.75 -16.2 0.1 -16.1 -1.35 -15.5 -6.0 Q-16.85 -12.25 -12.1 -15.0 -9.65 -16.35 -7.0 -15.1 L-4.3 -15.75 -3.05 -14.45 -2.85 -12.85 2.85 -12.85 3.25 -10.35 7.5 -10.6 7.0 -15.1 M7.75 -3.6 L7.5 -10.6 M2.7 -3.6 L7.75 -3.6 7.75 3.15 7.45 7.35 7.55 8.9 8.75 12.45 M16.05 -1.35 L13.6 -0.85 13.65 2.95 16.25 3.0 M15.45 -6.0 L12.05 -5.85 11.5 5.3 16.0 5.1 M16.2 0.1 Q15.5 0.15 15.0 0.45 L14.6 1.0 14.95 1.45 16.3 1.75 M11.55 7.0 L15.7 6.5 M11.5 5.3 L11.55 7.0 15.35 8.5 M2.5 2.95 L1.05 2.95 -1.1 2.95 -2.5 2.95 -7.75 3.15 -7.45 7.35 7.45 7.35 M7.75 3.15 L2.5 2.95 2.7 -3.6 -2.7 -3.6 -2.5 2.95 M2.2 10.45 L-2.2 10.45 -2.2 13.2 2.2 13.2 2.2 10.45 M1.05 2.95 L1.2 -0.25 -1.25 -0.25 -1.1 2.95 M-16.1 -1.35 L-13.6 -0.85 -13.5 2.25 -16.25 3.0 M-15.5 -6.0 L-12.05 -5.85 -11.5 5.3 -11.6 7.0 -15.35 8.5 M-3.25 -10.35 L-7.5 -10.6 -7.75 -3.6 -2.7 -3.6 M-3.25 -10.35 L-2.85 -12.85 M-7.5 -10.6 L-7.0 -15.1 M-7.45 7.35 L-7.55 8.9 7.55 8.9 M-16.2 0.1 Q-15.45 0.35 -14.8 0.75 L-14.65 1.0 Q-14.5 2.3 -16.3 1.75 M-11.6 7.0 L-15.7 6.5 M-11.5 5.3 L-16.0 5.1 M-7.55 8.9 L-8.75 12.45 M-7.75 -3.6 L-7.75 3.15 M3.25 -10.35 L-3.25 -10.35" fill="none" stroke="#17150e" stroke-linecap="round" stroke-linejoin="round" stroke-width="1.0"/>
  </g>
  <defs>
    <linearGradient gradientTransform="matrix(0.0, 0.0043, -0.0095, 0.0, 0.0, -7.1)" gradientUnits="userSpaceOnUse" id="gradient0" spreadMethod="pad" x1="-819.2" x2="819.2">
      <stop offset="0.0" stop-color="#382018"/>
      <stop offset="0.1843137254901961" stop-color="#d0b080"/>
      <stop offset="0.3843137254901961" stop-color="#d0b080"/>
      <stop offset="0.6549019607843137" stop-color="#b880b8"/>
      <stop offset="0.8509803921568627" stop-color="#d8e0e8"/>
      <stop offset="1.0" stop-color="#384048"/>
    </linearGradient>
    <linearGradient gradientTransform="matrix(0.0, 0.0185, -0.0052, 0.0, 11.25, -0.7)" gradientUnits="userSpaceOnUse" id="gradient1" spreadMethod="pad" x1="-819.2" x2="819.2">
      <stop offset="0.0" stop-color="#101010"/>
      <stop offset="0.2980392156862745" stop-color="#705000"/>
      <stop offset="0.4823529411764706" stop-color="#705000"/>
      <stop offset="0.8627450980392157" stop-color="#783868"/>
    </linearGradient>
    <linearGradient gradientTransform="matrix(0.0, 0.0185, -0.0052, 0.0, -11.25, -0.7)" gradientUnits="userSpaceOnUse" id="gradient2" spreadMethod="pad" x1="-819.2" x2="819.2">
      <stop offset="0.0" stop-color="#101010"/>
      <stop offset="0.2980392156862745" stop-color="#705000"/>
      <stop offset="0.4823529411764706" stop-color="#705000"/>
      <stop offset="0.8627450980392157" stop-color="#783868"/>
    </linearGradient>
  </defs>
</svg>
