<?xml version="1.0" encoding="UTF-8" standalone="no"?>
<svg xmlns:ffdec="https://www.free-decompiler.com/flash" xmlns:xlink="http://www.w3.org/1999/xlink" ffdec:objectType="shape" height="58.8px" width="28.5px" xmlns="http://www.w3.org/2000/svg">
  <g transform="matrix(1.0, 0.0, 0.0, 1.0, 12.2, 34.9)">
    <path d="M8.4 -34.55 Q9.25 -33.8 9.45 -32.8 L9.6 -32.4 9.85 -31.15 9.9 -30.65 10.1 -30.05 10.25 -29.9 Q10.6 -28.3 11.45 -27.2 L12.2 -27.15 13.6 -28.95 13.8 -29.25 Q14.0 -29.8 14.6 -29.8 L14.75 -29.8 Q15.55 -30.0 15.85 -29.4 16.35 -28.4 16.3 -27.15 L16.15 -25.75 15.95 -24.45 15.5 -22.9 15.05 -21.45 14.7 -20.0 14.65 -19.7 14.35 -19.0 14.2 -18.6 13.75 -16.8 13.3 -15.05 12.95 -13.65 12.75 -12.95 12.65 -12.7 11.75 -9.8 11.55 -9.15 Q11.3 -7.45 10.5 -6.25 L10.4 -6.05 10.15 -5.8 9.1 -5.15 7.55 -4.9 7.1 -4.9 3.6 -4.65 -2.65 -4.65 -4.2 -4.9 -4.85 -4.95 -5.6 -5.1 -5.8 -5.2 Q-6.7 -5.4 -7.15 -5.75 L-7.35 -5.9 -7.6 -6.1 -7.8 -6.25 -8.1 -7.05 -8.3 -7.6 -9.3 -10.75 -9.65 -11.7 -10.45 -14.25 -10.6 -14.7 Q-10.9 -15.15 -10.85 -15.7 L-10.9 -16.2 Q-11.2 -16.95 -11.15 -17.8 L-11.25 -18.75 -11.5 -20.8 -11.55 -21.3 Q-11.85 -22.0 -11.8 -22.9 L-11.85 -23.35 -12.05 -24.95 -12.15 -26.05 -12.15 -28.3 -12.1 -28.45 Q-11.95 -29.25 -11.5 -29.5 L-11.25 -29.55 Q-10.5 -29.6 -10.1 -28.95 L-9.85 -28.55 -9.3 -28.1 -9.15 -28.0 Q-8.85 -27.9 -8.7 -28.1 L-8.45 -28.6 -7.9 -30.05 -7.0 -31.55 -6.85 -31.75 -6.75 -31.95 Q-6.25 -32.4 -6.0 -33.05 L-5.85 -33.25 -5.4 -33.9 -5.0 -34.5 -4.35 -34.85 -4.05 -34.9 Q-3.65 -35.0 -3.4 -34.55 L-3.3 -34.35 -2.45 -32.75 -2.3 -32.6 -1.9 -32.2 -1.65 -31.95 -0.1 -31.55 0.75 -31.5 3.45 -32.0 4.5 -32.65 6.0 -33.6 6.15 -33.7 7.25 -34.55 Q7.55 -34.85 8.0 -34.75 L8.4 -34.55" fill="url(#gradient0)" fill-rule="evenodd" stroke="none"/>
    <path d="M12.55 -10.1 L12.5 -10.15 Q15.4 -3.2 14.3 4.45 13.5 9.75 13.0 15.15 L13.0 15.2 Q12.8 16.8 11.65 18.2 L11.65 18.25 Q7.45 24.8 0.4 23.75 -1.5 23.5 -2.75 22.05 L-2.7 22.05 Q-4.35 20.15 -5.35 17.75 L-5.35 17.7 Q-8.7 10.85 -8.1 3.05 L-7.2 -4.4 Q-6.7 -7.9 -4.8 -10.65 L-4.5 -10.9 11.0 -11.4 Q12.05 -11.4 12.55 -10.1" fill="#000000" fill-opacity="0.5019608" fill-rule="evenodd" stroke="none"/>
    <path d="M9.2 13.95 L9.1 12.9 Q8.85 1.35 9.1 -4.45 9.35 -10.3 6.55 -12.25 3.75 -14.2 -0.05 -13.55 -3.85 -12.95 -5.5 -10.25 -7.05 -7.75 -7.05 -4.6 L-7.1 -2.3 Q-7.4 5.6 -6.9 13.5 -10.2 6.8 -9.6 -0.9 L-8.7 -8.35 Q-8.2 -11.7 -6.4 -14.4 L8.9 -14.9 Q9.7 -14.9 10.05 -13.95 12.9 -7.15 11.8 0.35 11.0 5.7 10.5 11.1 10.3 12.65 9.2 13.95" fill="#989898" fill-rule="evenodd" stroke="none"/>
    <path d="M-6.9 13.5 Q-7.4 5.6 -7.1 -2.3 L-7.05 -4.6 Q-7.05 -7.75 -5.5 -10.25 -3.85 -12.95 -0.05 -13.55 3.75 -14.2 6.55 -12.25 9.35 -10.3 9.1 -4.45 8.85 1.35 9.1 12.9 L9.2 13.95 Q5.2 20.25 -1.55 19.25 -3.25 19.05 -4.35 17.7 -5.95 15.85 -6.9 13.5" fill="#305020" fill-rule="evenodd" stroke="none"/>
    <path d="M-6.9 13.5 Q-7.4 5.6 -7.1 -2.3 L-7.05 -4.6 Q-7.05 -7.75 -5.5 -10.25 -3.85 -12.95 -0.05 -13.55 3.75 -14.2 6.55 -12.25 9.35 -10.3 9.1 -4.45 8.85 1.35 9.1 12.9 L9.2 13.95 Q10.3 12.65 10.5 11.1 11.0 5.7 11.8 0.35 12.9 -7.15 10.05 -13.95 9.7 -14.9 8.9 -14.9 L-6.4 -14.4 Q-8.2 -11.7 -8.7 -8.35 L-9.6 -0.9 Q-10.2 6.8 -6.9 13.5 -5.95 15.85 -4.35 17.7 -3.25 19.05 -1.55 19.25 5.2 20.25 9.2 13.95" fill="none" stroke="#000000" stroke-linecap="round" stroke-linejoin="round" stroke-width="1.0"/>
    <path d="M5.15 -5.4 L5.55 -5.3 Q7.1 -4.7 7.95 -3.25 8.7 -1.85 8.05 -0.4 L7.7 0.3 Q7.05 1.6 7.25 3.5 7.3 4.35 6.95 5.05 L6.85 5.55 6.75 6.3 6.55 6.6 6.45 6.9 6.3 7.05 Q5.7 7.5 5.0 7.6 L3.35 7.35 3.05 7.15 1.85 5.9 -0.4 3.6 -1.45 2.65 -2.15 1.45 Q-2.65 -0.05 -2.5 -1.75 L-2.2 -2.9 -1.4 -3.6 -0.95 -4.15 -0.5 -4.45 Q0.15 -4.95 0.85 -5.1 L5.15 -5.4" fill="#101010" fill-rule="evenodd" stroke="none"/>
  </g>
  <defs>
    <radialGradient cx="0" cy="0" gradientTransform="matrix(0.0369, 0.0, 0.0, 0.0211, 2.05, -19.8)" gradientUnits="userSpaceOnUse" id="gradient0" r="819.2" spreadMethod="pad">
      <stop offset="0.11764705882352941" stop-color="#485850"/>
      <stop offset="1.0" stop-color="#283040" stop-opacity="0.5019608"/>
    </radialGradient>
  </defs>
</svg>
