<?xml version="1.0" encoding="UTF-8" standalone="no"?>
<svg xmlns:ffdec="https://www.free-decompiler.com/flash" xmlns:xlink="http://www.w3.org/1999/xlink" ffdec:objectType="shape" height="28.5px" width="58.7px" xmlns="http://www.w3.org/2000/svg">
  <g transform="matrix(1.0, 0.0, 0.0, 1.0, 36.1, 13.1)">
    <path d="M-26.15 -12.95 L-24.55 -12.75 -24.1 -12.7 -22.5 -12.45 -22.0 -12.4 -19.95 -12.15 -19.0 -12.05 -17.4 -11.8 -16.9 -11.75 -15.9 -11.5 -15.45 -11.35 -12.9 -10.55 -11.95 -10.2 -8.8 -9.2 -8.25 -9.0 -7.45 -8.7 -7.3 -8.5 -7.1 -8.25 -6.95 -8.05 Q-6.6 -7.6 -6.4 -6.7 L-6.3 -6.5 Q-6.1 -6.3 -6.15 -5.75 L-6.1 -5.1 Q-5.8 -4.35 -5.85 -3.55 L-5.85 2.7 -6.1 6.2 -6.1 6.65 Q-6.1 7.5 -6.35 8.2 L-7.0 9.25 -7.25 9.5 -7.45 9.6 Q-8.65 10.4 -10.35 10.65 L-11.0 10.85 -13.9 11.75 -14.15 11.85 -14.85 12.05 -16.25 12.4 -18.0 12.85 -19.8 13.3 -20.2 13.45 -20.9 13.75 -21.2 13.8 -22.65 14.15 -24.1 14.6 -25.65 15.05 -26.95 15.25 -28.35 15.4 Q-29.6 15.45 -30.6 14.95 -31.2 14.65 -31.0 13.85 L-31.0 13.7 Q-31.0 13.1 -30.45 12.9 L-30.15 12.7 -28.35 11.3 Q-27.85 10.95 -28.4 10.55 -29.5 9.7 -31.1 9.35 L-31.25 9.2 -31.85 9.0 -32.35 8.95 -33.6 8.7 -34.0 8.55 -35.75 7.5 -35.95 7.1 Q-36.05 6.65 -35.75 6.35 L-34.9 5.25 -34.8 5.1 -33.85 3.6 -33.2 2.55 Q-32.75 1.25 -32.7 -0.15 L-32.75 -1.0 -33.15 -2.55 -33.4 -2.8 -33.8 -3.2 -33.95 -3.35 -35.55 -4.2 -35.75 -4.3 Q-36.2 -4.55 -36.1 -4.95 L-36.05 -5.25 -35.7 -5.9 -35.1 -6.3 -34.45 -6.75 -34.25 -6.9 Q-33.6 -7.15 -33.15 -7.65 L-32.95 -7.75 -32.75 -7.9 -31.25 -8.8 -29.8 -9.35 Q-29.6 -9.4 -29.3 -9.6 -29.1 -9.75 -29.2 -10.05 L-29.3 -10.2 -29.75 -10.75 -30.15 -11.0 Q-30.8 -11.4 -30.75 -12.15 L-30.7 -12.4 Q-30.45 -12.85 -29.65 -13.0 L-29.5 -13.05 -27.25 -13.05 -26.15 -12.95" fill="url(#gradient0)" fill-rule="evenodd" stroke="none"/>
    <path d="M16.4 -6.25 L16.45 -6.25 Q18.85 -5.25 20.75 -3.6 L20.75 -3.65 Q22.25 -2.4 22.45 -0.5 23.5 6.55 16.95 10.75 L16.9 10.75 Q15.5 11.9 13.8 12.1 L3.15 13.4 Q-4.5 14.5 -11.5 11.6 L-11.45 11.65 Q-12.7 11.15 -12.75 10.1 -13.85 2.3 -12.2 -5.4 L-11.95 -5.7 Q-9.2 -7.6 -5.75 -8.1 L1.75 -9.0 Q9.55 -9.6 16.4 -6.25" fill="#000000" fill-opacity="0.5019608" fill-rule="evenodd" stroke="none"/>
    <path d="M12.3 -7.8 Q4.4 -8.3 -3.5 -8.0 L-5.8 -7.95 Q-8.95 -7.95 -11.45 -6.4 -14.15 -4.75 -14.75 -0.95 -15.4 2.85 -13.45 5.65 -11.5 8.45 -5.65 8.2 0.15 7.95 11.7 8.2 L12.75 8.3 Q11.45 9.4 9.9 9.6 L-0.85 10.9 Q-8.35 12.0 -15.15 9.15 -16.1 8.8 -16.1 8.0 -17.25 0.3 -15.6 -7.3 -12.9 -9.1 -9.55 -9.6 L-2.1 -10.5 Q5.6 -11.1 12.3 -7.8" fill="#989898" fill-rule="evenodd" stroke="none"/>
    <path d="M12.3 -7.8 Q14.65 -6.85 16.5 -5.25 17.85 -4.15 18.05 -2.45 19.05 4.3 12.75 8.3 L11.7 8.2 Q0.15 7.95 -5.65 8.2 -11.5 8.45 -13.45 5.65 -15.4 2.85 -14.75 -0.95 -14.15 -4.75 -11.45 -6.4 -8.95 -7.95 -5.8 -7.95 L-3.5 -8.0 Q4.4 -8.3 12.3 -7.8" fill="#305020" fill-rule="evenodd" stroke="none"/>
    <path d="M12.75 8.3 Q19.05 4.3 18.05 -2.45 17.85 -4.15 16.5 -5.25 14.65 -6.85 12.3 -7.8 4.4 -8.3 -3.5 -8.0 L-5.8 -7.95 Q-8.95 -7.95 -11.45 -6.4 -14.15 -4.75 -14.75 -0.95 -15.4 2.85 -13.45 5.65 -11.5 8.45 -5.65 8.2 0.15 7.95 11.7 8.2 L12.75 8.3 Q11.45 9.4 9.9 9.6 L-0.85 10.9 Q-8.35 12.0 -15.15 9.15 -16.1 8.8 -16.1 8.0 -17.25 0.3 -15.6 -7.3 -12.9 -9.1 -9.55 -9.6 L-2.1 -10.5 Q5.6 -11.1 12.3 -7.8" fill="none" stroke="#000000" stroke-linecap="round" stroke-linejoin="round" stroke-width="1.0"/>
    <path d="M7.95 -3.25 Q8.7 -1.85 8.05 -0.4 L7.7 0.3 Q7.05 1.6 7.25 3.5 7.3 4.35 6.95 5.05 L6.85 5.55 6.75 6.3 6.55 6.6 6.45 6.9 6.3 7.05 Q5.7 7.5 5.0 7.6 L3.35 7.35 3.05 7.15 1.85 5.9 -0.4 3.6 -1.45 2.65 -2.15 1.45 Q-2.65 -0.05 -2.5 -1.75 L-2.2 -2.9 -1.4 -3.6 -0.95 -4.15 -0.5 -4.45 Q0.15 -4.95 0.85 -5.1 L5.15 -5.4 5.55 -5.3 Q7.1 -4.7 7.95 -3.25" fill="#101010" fill-rule="evenodd" stroke="none"/>
  </g>
  <defs>
    <radialGradient cx="0" cy="0" gradientTransform="matrix(0.0, 0.0369, 0.0211, 0.0, -21.0, 1.15)" gradientUnits="userSpaceOnUse" id="gradient0" r="819.2" spreadMethod="pad">
      <stop offset="0.11764705882352941" stop-color="#485850"/>
      <stop offset="1.0" stop-color="#283040" stop-opacity="0.5019608"/>
    </radialGradient>
  </defs>
</svg>
