<?xml version="1.0" encoding="UTF-8" standalone="no"?>
<svg xmlns:ffdec="https://www.free-decompiler.com/flash" xmlns:xlink="http://www.w3.org/1999/xlink" ffdec:objectType="shape" height="28.5px" width="54.85px" xmlns="http://www.w3.org/2000/svg">
  <g transform="matrix(1.0, 0.0, 0.0, 1.0, 17.2, 13.1)">
    <path d="M9.8 -9.0 L10.3 -9.2 13.5 -10.2 14.45 -10.55 Q15.65 -11.05 17.0 -11.35 L17.45 -11.5 Q17.85 -11.8 18.4 -11.75 L18.9 -11.8 20.5 -12.05 21.45 -12.15 23.5 -12.4 24.0 -12.45 25.6 -12.7 26.05 -12.75 27.65 -12.95 28.8 -13.05 31.0 -13.05 31.15 -13.0 Q31.95 -12.85 32.25 -12.4 L32.3 -12.15 Q32.3 -11.4 31.7 -11.0 L31.3 -10.75 30.85 -10.2 30.7 -10.05 Q30.6 -9.75 30.85 -9.6 31.1 -9.4 31.35 -9.35 L32.75 -8.8 34.25 -7.9 34.5 -7.75 34.65 -7.65 Q35.1 -7.15 35.75 -6.9 L36.0 -6.75 36.65 -6.3 37.2 -5.9 37.6 -5.25 37.65 -4.95 Q37.7 -4.55 37.25 -4.3 L37.1 -4.2 35.5 -3.35 35.3 -3.2 34.9 -2.8 34.65 -2.55 34.25 -1.0 34.2 -0.15 Q34.25 1.25 34.7 2.55 L35.35 3.6 36.3 5.1 36.45 5.25 37.3 6.35 Q37.55 6.65 37.45 7.1 L37.25 7.5 35.5 8.55 35.1 8.7 33.9 8.95 33.4 9.0 Q32.95 9.0 32.75 9.2 L32.6 9.35 Q31.0 9.7 29.95 10.55 29.35 10.95 29.9 11.3 L31.7 12.7 32.0 12.9 Q32.5 13.1 32.5 13.7 L32.55 13.85 Q32.7 14.65 32.1 14.95 31.1 15.45 29.9 15.4 L28.45 15.25 27.2 15.05 25.6 14.6 24.15 14.15 22.75 13.8 22.4 13.75 21.7 13.45 21.35 13.3 19.55 12.85 17.8 12.4 16.35 12.05 15.65 11.85 15.4 11.75 12.55 10.85 11.9 10.65 Q10.15 10.4 8.95 9.6 L8.75 9.5 8.5 9.25 7.9 8.2 Q7.6 7.5 7.65 6.65 L7.6 6.2 Q7.35 4.5 7.35 2.7 L7.35 -3.55 Q7.3 -4.35 7.6 -5.1 L7.7 -5.75 Q7.6 -6.3 7.85 -6.5 L7.95 -6.7 8.45 -8.05 8.6 -8.25 8.85 -8.5 9.0 -8.7 9.8 -9.0" fill="url(#gradient0)" fill-rule="evenodd" stroke="none"/>
    <path d="M7.65 -9.0 L15.2 -8.1 Q18.6 -7.6 21.4 -5.7 L21.6 -5.4 Q23.25 2.3 22.15 10.1 22.1 11.15 20.9 11.65 L20.9 11.6 Q13.9 14.5 6.3 13.4 L-4.4 12.1 Q-6.1 11.9 -7.45 10.75 L-7.5 10.75 Q-14.1 6.55 -13.05 -0.5 -12.85 -2.4 -11.3 -3.65 L-11.3 -3.6 Q-9.45 -5.25 -7.0 -6.25 L-6.95 -6.25 Q-0.15 -9.6 7.65 -9.0" fill="#000000" fill-opacity="0.5019608" fill-rule="evenodd" stroke="none"/>
    <path d="M-10.8 -7.8 Q-4.1 -11.1 3.6 -10.5 L11.1 -9.6 Q14.4 -9.1 17.1 -7.3 18.75 0.3 17.65 8.0 17.6 8.8 16.7 9.15 9.85 12.0 2.35 10.9 L-8.35 9.6 Q-9.95 9.4 -11.25 8.3 L-10.15 8.2 Q1.35 7.95 7.2 8.2 13.0 8.45 14.95 5.65 16.9 2.85 16.3 -0.95 15.65 -4.75 13.0 -6.4 10.45 -7.95 7.35 -7.95 L5.0 -8.0 Q-2.9 -8.3 -10.8 -7.8" fill="#989898" fill-rule="evenodd" stroke="none"/>
    <path d="M-10.8 -7.8 Q-2.9 -8.3 5.0 -8.0 L7.35 -7.95 Q10.45 -7.95 13.0 -6.4 15.65 -4.75 16.3 -0.95 16.9 2.85 14.95 5.65 13.0 8.45 7.2 8.2 1.35 7.95 -10.15 8.2 L-11.25 8.3 Q-17.55 4.3 -16.55 -2.45 -16.35 -4.15 -15.0 -5.25 -13.15 -6.85 -10.8 -7.8" fill="#305020" fill-rule="evenodd" stroke="none"/>
    <path d="M-11.25 8.3 Q-9.95 9.4 -8.35 9.6 L2.35 10.9 Q9.85 12.0 16.7 9.15 17.6 8.8 17.65 8.0 18.75 0.3 17.1 -7.3 14.4 -9.1 11.1 -9.6 L3.6 -10.5 Q-4.1 -11.1 -10.8 -7.8 -2.9 -8.3 5.0 -8.0 L7.35 -7.95 Q10.45 -7.95 13.0 -6.4 15.65 -4.75 16.3 -0.95 16.9 2.85 14.95 5.65 13.0 8.45 7.2 8.2 1.35 7.95 -10.15 8.2 L-11.25 8.3 Q-17.55 4.3 -16.55 -2.45 -16.35 -4.15 -15.0 -5.25 -13.15 -6.85 -10.8 -7.8" fill="none" stroke="#000000" stroke-linecap="round" stroke-linejoin="round" stroke-width="1.0"/>
    <path d="M7.95 -3.25 Q8.7 -1.85 8.05 -0.4 L7.7 0.3 Q7.05 1.6 7.25 3.5 7.3 4.35 6.95 5.05 L6.85 5.55 6.75 6.3 6.55 6.6 6.45 6.9 6.3 7.05 Q5.7 7.5 5.0 7.6 L3.35 7.35 3.05 7.15 1.85 5.9 -0.4 3.6 -1.45 2.65 -2.15 1.45 Q-2.65 -0.05 -2.5 -1.75 L-2.2 -2.9 -1.4 -3.6 -0.95 -4.15 -0.5 -4.45 Q0.15 -4.95 0.85 -5.1 L5.15 -5.4 5.55 -5.3 Q7.1 -4.7 7.95 -3.25" fill="#101010" fill-rule="evenodd" stroke="none"/>
  </g>
  <defs>
    <radialGradient cx="0" cy="0" gradientTransform="matrix(0.0, 0.0369, -0.0211, 0.0, 22.5, 1.15)" gradientUnits="userSpaceOnUse" id="gradient0" r="819.2" spreadMethod="pad">
      <stop offset="0.11764705882352941" stop-color="#485850"/>
      <stop offset="1.0" stop-color="#283040" stop-opacity="0.5019608"/>
    </radialGradient>
  </defs>
</svg>
