<?xml version="1.0" encoding="UTF-8" standalone="no"?>
<svg xmlns:ffdec="https://www.free-decompiler.com/flash" xmlns:xlink="http://www.w3.org/1999/xlink" ffdec:objectType="shape" height="24.8px" width="39.8px" xmlns="http://www.w3.org/2000/svg">
  <g transform="matrix(1.0, 0.0, 0.0, 1.0, 17.2, 11.1)">
    <path d="M7.65 -9.0 L15.2 -8.1 Q18.6 -7.6 21.4 -5.7 L21.6 -5.4 Q23.25 2.3 22.15 10.1 22.1 11.15 20.9 11.65 L20.9 11.6 Q13.9 14.5 6.3 13.4 L-4.4 12.1 Q-6.1 11.9 -7.45 10.75 L-7.5 10.75 Q-14.1 6.55 -13.05 -0.5 -12.85 -2.4 -11.3 -3.65 L-11.3 -3.6 Q-9.45 -5.25 -7.0 -6.25 L-6.95 -6.25 Q-0.15 -9.6 7.65 -9.0" fill="#000000" fill-opacity="0.5019608" fill-rule="evenodd" stroke="none"/>
    <path d="M-10.8 -7.8 Q-4.1 -11.1 3.6 -10.5 L11.1 -9.6 Q14.4 -9.1 17.1 -7.3 18.75 0.3 17.65 8.0 17.6 8.8 16.7 9.15 9.85 12.0 2.35 10.9 L-8.35 9.6 Q-9.95 9.4 -11.25 8.3 L-10.15 8.2 Q1.35 7.95 7.2 8.2 13.0 8.45 14.95 5.65 16.9 2.85 16.3 -0.95 15.65 -4.75 13.0 -6.4 10.45 -7.95 7.35 -7.95 L5.0 -8.0 Q-2.9 -8.3 -10.8 -7.8" fill="#989898" fill-rule="evenodd" stroke="none"/>
    <path d="M-11.25 8.3 Q-17.55 4.3 -16.55 -2.45 -16.35 -4.15 -15.0 -5.25 -13.15 -6.85 -10.8 -7.8 -2.9 -8.3 5.0 -8.0 L7.35 -7.95 Q10.45 -7.95 13.0 -6.4 15.65 -4.75 16.3 -0.95 16.9 2.85 14.95 5.65 13.0 8.45 7.2 8.2 1.35 7.95 -10.15 8.2 L-11.25 8.3" fill="#305020" fill-rule="evenodd" stroke="none"/>
    <path d="M-11.25 8.3 Q-17.55 4.3 -16.55 -2.45 -16.35 -4.15 -15.0 -5.25 -13.15 -6.85 -10.8 -7.8 -4.1 -11.1 3.6 -10.5 L11.1 -9.6 Q14.4 -9.1 17.1 -7.3 18.75 0.3 17.65 8.0 17.6 8.8 16.7 9.15 9.85 12.0 2.35 10.9 L-8.35 9.6 Q-9.95 9.4 -11.25 8.3 L-10.15 8.2 Q1.35 7.95 7.2 8.2 13.0 8.45 14.95 5.65 16.9 2.85 16.3 -0.95 15.65 -4.75 13.0 -6.4 10.45 -7.95 7.35 -7.95 L5.0 -8.0 Q-2.9 -8.3 -10.8 -7.8" fill="none" stroke="#000000" stroke-linecap="round" stroke-linejoin="round" stroke-width="1.0"/>
    <path d="M7.95 -3.25 Q8.7 -1.85 8.05 -0.4 L7.7 0.3 Q7.05 1.6 7.25 3.5 7.3 4.35 6.95 5.05 L6.85 5.55 6.75 6.3 6.55 6.6 6.45 6.9 6.3 7.05 Q5.7 7.5 5.0 7.6 L3.35 7.35 3.05 7.15 1.85 5.9 -0.4 3.6 -1.45 2.65 -2.15 1.45 Q-2.65 -0.05 -2.5 -1.75 L-2.2 -2.9 -1.4 -3.6 -0.95 -4.15 -0.5 -4.45 Q0.15 -4.95 0.85 -5.1 L5.15 -5.4 5.55 -5.3 Q7.1 -4.7 7.95 -3.25" fill="#101010" fill-rule="evenodd" stroke="none"/>
  </g>
</svg>
