<?xml version="1.0" encoding="UTF-8" standalone="no"?>
<svg xmlns:ffdec="https://www.free-decompiler.com/flash" xmlns:xlink="http://www.w3.org/1999/xlink" ffdec:objectType="shape" height="54.85px" width="28.5px" xmlns="http://www.w3.org/2000/svg">
  <g transform="matrix(1.0, 0.0, 0.0, 1.0, 12.2, 15.5)">
    <path d="M10.4 10.45 L10.5 10.65 Q11.3 11.85 11.55 13.6 L11.75 14.25 12.65 17.1 12.75 17.35 12.95 18.05 13.3 19.5 13.75 21.25 Q13.9 22.15 14.2 23.05 L14.35 23.4 14.65 24.1 14.7 24.45 15.05 25.85 15.5 27.3 15.95 28.9 16.15 30.15 16.3 31.6 Q16.35 32.8 15.85 33.8 15.55 34.4 14.75 34.25 L14.6 34.2 Q14.0 34.2 13.8 33.7 L13.6 33.4 12.2 31.6 11.45 31.65 Q10.6 32.7 10.25 34.3 L10.1 34.45 9.9 35.1 9.85 35.6 9.6 36.8 9.45 37.2 Q9.25 38.2 8.4 38.95 L8.0 39.15 7.25 39.0 6.15 38.15 6.0 38.0 4.5 37.05 3.45 36.4 0.75 35.9 -0.1 35.95 -1.65 36.35 -1.9 36.6 -2.3 37.0 -2.45 37.2 -3.3 38.8 -3.4 38.95 Q-3.65 39.4 -4.05 39.35 L-4.35 39.3 -5.0 38.9 -5.4 38.35 -5.85 37.7 -6.0 37.45 Q-6.25 36.8 -6.75 36.35 L-6.85 36.2 -7.0 35.95 -7.9 34.45 -8.45 33.05 -8.7 32.55 Q-8.85 32.3 -9.15 32.4 L-9.3 32.55 -9.85 33.0 -10.1 33.4 Q-10.5 34.0 -11.25 34.0 L-11.5 33.95 Q-11.95 33.65 -12.1 32.85 L-12.15 32.7 -12.15 30.5 -12.05 29.35 -11.85 27.75 -11.8 27.3 Q-11.85 26.4 -11.55 25.7 L-11.5 25.2 -11.25 23.15 -11.15 22.2 Q-11.2 21.35 -10.9 20.6 L-10.85 20.1 Q-10.9 19.55 -10.6 19.15 L-10.45 18.7 -9.65 16.15 -9.3 15.2 -8.3 12.0 -8.1 11.5 -7.8 10.7 -7.6 10.55 -7.35 10.3 -7.15 10.15 -5.8 9.65 -5.6 9.55 Q-5.4 9.3 -4.85 9.4 L-4.2 9.3 -2.65 9.05 3.6 9.05 7.1 9.3 7.55 9.35 Q8.4 9.3 9.1 9.6 L10.15 10.2 10.4 10.45" fill="url(#gradient0)" fill-rule="evenodd" stroke="none"/>
    <path d="M13.0 -3.15 Q13.5 2.25 14.3 7.6 15.4 15.2 12.5 22.15 L12.55 22.15 Q12.05 23.4 11.0 23.4 L-4.5 22.9 -4.8 22.7 Q-6.7 19.9 -7.2 16.45 L-8.1 8.95 Q-8.7 1.15 -5.35 -5.65 L-5.35 -5.7 Q-4.35 -8.15 -2.7 -10.0 L-2.75 -10.0 Q-1.5 -11.5 0.4 -11.75 7.45 -12.8 11.65 -6.2 12.8 -4.8 13.0 -3.15" fill="#000000" fill-opacity="0.5019608" fill-rule="evenodd" stroke="none"/>
    <path d="M9.2 -9.55 Q10.3 -8.25 10.5 -6.65 11.0 -1.3 11.8 4.05 12.9 11.55 10.05 18.4 9.7 19.3 8.9 19.35 L-6.4 18.8 Q-8.2 16.1 -8.7 12.8 L-9.6 5.3 Q-10.2 -2.4 -6.9 -9.1 -7.4 -1.2 -7.1 6.7 L-7.05 9.05 Q-7.05 12.15 -5.5 14.7 -3.85 17.35 -0.05 18.0 3.75 18.6 6.55 16.65 9.35 14.7 9.1 8.9 8.85 3.05 9.1 -8.45 L9.2 -9.55" fill="#989898" fill-rule="evenodd" stroke="none"/>
    <path d="M9.2 -9.55 L9.1 -8.45 Q8.85 3.05 9.1 8.9 9.35 14.7 6.55 16.65 3.75 18.6 -0.05 18.0 -3.85 17.35 -5.5 14.7 -7.05 12.15 -7.05 9.05 L-7.1 6.7 Q-7.4 -1.2 -6.9 -9.1 -5.95 -11.45 -4.35 -13.3 -3.25 -14.65 -1.55 -14.85 5.2 -15.85 9.2 -9.55" fill="#305020" fill-rule="evenodd" stroke="none"/>
    <path d="M-6.9 -9.1 Q-10.2 -2.4 -9.6 5.3 L-8.7 12.8 Q-8.2 16.1 -6.4 18.8 L8.9 19.35 Q9.7 19.3 10.05 18.4 12.9 11.55 11.8 4.05 11.0 -1.3 10.5 -6.65 10.3 -8.25 9.2 -9.55 L9.1 -8.45 Q8.85 3.05 9.1 8.9 9.35 14.7 6.55 16.65 3.75 18.6 -0.05 18.0 -3.85 17.35 -5.5 14.7 -7.05 12.15 -7.05 9.05 L-7.1 6.7 Q-7.4 -1.2 -6.9 -9.1 -5.95 -11.45 -4.35 -13.3 -3.25 -14.65 -1.55 -14.85 5.2 -15.85 9.2 -9.55" fill="none" stroke="#000000" stroke-linecap="round" stroke-linejoin="round" stroke-width="1.0"/>
    <path d="M7.95 -3.25 Q8.7 -1.85 8.05 -0.4 L7.7 0.3 Q7.05 1.6 7.25 3.5 7.3 4.35 6.95 5.05 L6.85 5.55 6.75 6.3 6.55 6.6 6.45 6.9 6.3 7.05 Q5.7 7.5 5.0 7.6 L3.35 7.35 3.05 7.15 1.85 5.9 -0.4 3.6 -1.45 2.65 -2.15 1.45 Q-2.65 -0.05 -2.5 -1.75 L-2.2 -2.9 -1.4 -3.6 -0.95 -4.15 -0.5 -4.45 Q0.15 -4.95 0.85 -5.1 L5.15 -5.4 5.55 -5.3 Q7.1 -4.7 7.95 -3.25" fill="#101010" fill-rule="evenodd" stroke="none"/>
  </g>
  <defs>
    <radialGradient cx="0" cy="0" gradientTransform="matrix(0.0369, 0.0, 0.0, -0.0211, 2.05, 24.2)" gradientUnits="userSpaceOnUse" id="gradient0" r="819.2" spreadMethod="pad">
      <stop offset="0.11764705882352941" stop-color="#485850"/>
      <stop offset="1.0" stop-color="#283040" stop-opacity="0.5019608"/>
    </radialGradient>
  </defs>
</svg>
