<?xml version="1.0" encoding="UTF-8" standalone="no"?>
<svg xmlns:ffdec="https://www.free-decompiler.com/flash" xmlns:xlink="http://www.w3.org/1999/xlink" ffdec:objectType="shape" height="163.25px" width="71.95px" xmlns="http://www.w3.org/2000/svg">
  <g transform="matrix(1.0, 0.0, 0.0, 1.0, 33.7, 26.9)">
    <path d="M2.25 -14.9 L-2.4 -15.0 -3.2 -18.3 -4.6 -18.1 -5.25 -17.85 Q-6.35 -17.15 -7.0 -15.75 L-7.35 -15.0 -7.45 -14.7 -10.25 -14.0 -11.1 -13.75 -13.8 -12.85 -15.15 -12.2 Q-15.7 1.2 -15.15 14.6 L-14.7 26.15 -12.05 26.1 -7.35 26.15 -4.95 26.0 -4.95 17.8 5.85 17.8 5.85 26.05 14.25 26.05 Q14.05 19.55 14.35 14.6 14.65 9.25 15.85 4.4 L16.25 2.95 Q17.05 0.45 18.6 -1.5 19.55 -2.75 20.85 -3.75 L20.5 -5.45 17.1 -5.5 17.5 -7.9 20.05 -8.4 20.4 -8.95 20.8 -9.55 20.9 -9.85 20.9 -10.2 20.65 -11.2 20.0 -11.2 Q13.45 -11.3 9.05 -15.4 7.65 -16.65 6.5 -18.3 L3.05 -18.65 2.65 -16.2 2.25 -14.9 M-12.7 -16.9 L-7.6 -17.1 Q-5.4 -22.35 -0.1 -23.0 L2.6 -23.2 Q7.55 -18.45 14.05 -17.35 L21.0 -17.1 21.45 -16.8 21.7 -13.8 Q23.2 6.8 22.2 27.4 L22.2 27.75 Q18.1 32.55 13.7 29.45 L11.85 27.8 9.2 27.75 Q6.95 29.35 5.65 31.85 L4.65 32.55 Q-2.95 35.35 -7.45 28.8 -8.75 26.9 -11.15 27.25 L-12.05 27.35 Q-16.9 28.1 -21.15 30.4 -23.35 31.55 -25.05 29.55 -27.35 26.8 -28.15 24.05 -30.1 17.5 -24.1 10.5 L-23.65 9.9 Q-22.35 8.05 -22.05 5.8 -21.05 -3.5 -21.15 -13.05 L-21.2 -16.9 -12.7 -16.9" fill="url(#gradient0)" fill-rule="evenodd" stroke="none"/>
    <path d="M28.85 -16.8 L29.05 -15.65 Q30.7 -5.4 30.7 5.4 30.7 8.05 32.1 10.3 34.15 13.45 32.55 17.0 31.9 18.4 31.7 20.1 L31.45 20.35 Q32.3 50.55 30.45 80.3 29.95 88.45 29.7 96.7 29.55 100.95 26.85 104.25 22.7 109.15 19.65 114.45 18.65 116.1 18.65 118.15 18.7 121.95 15.5 123.75 16.3 106.25 16.05 94.7 15.8 83.15 15.9 75.9 L15.8 73.05 18.95 70.45 18.95 60.9 13.7 57.7 13.7 29.45 Q18.1 32.55 22.2 27.75 L22.2 27.4 Q23.2 6.8 21.7 -13.8 L21.45 -16.8 28.85 -16.8 M29.55 35.8 L19.8 35.8 19.8 50.8 29.55 50.8 29.55 35.8" fill="url(#gradient1)" fill-rule="evenodd" stroke="none"/>
    <path d="M29.55 35.8 L29.55 50.8 19.8 50.8 19.8 35.8 29.55 35.8" fill="url(#gradient2)" fill-rule="evenodd" stroke="none"/>
    <path d="M14.05 -17.35 Q15.3 -27.95 26.3 -25.2 27.2 -25.05 27.45 -23.85 L28.85 -16.8 21.45 -16.8 21.0 -17.1 14.05 -17.35" fill="url(#gradient3)" fill-rule="evenodd" stroke="none"/>
    <path d="M-16.55 122.65 L-16.65 122.6 Q-22.4 120.15 -21.65 113.6 L-21.35 109.7 -21.3 106.1 -21.3 92.0 -21.3 82.8 -21.3 50.8 -19.2 50.8 -19.2 35.8 -28.95 35.8 -28.95 50.8 -31.3 50.8 -31.55 50.1 Q-34.15 43.5 -32.7 36.35 -30.75 26.45 -32.85 17.15 L-33.15 14.7 Q-33.35 10.35 -29.25 7.65 L-29.0 7.05 Q-28.5 -5.25 -27.05 -17.25 L-21.2 -16.9 -21.15 -13.05 Q-21.05 -3.5 -22.05 5.8 -22.35 8.05 -23.65 9.9 L-24.1 10.5 Q-30.1 17.5 -28.15 24.05 -27.35 26.8 -25.05 29.55 -23.35 31.55 -21.15 30.4 -16.9 28.1 -12.05 27.35 L-12.05 57.7 -17.3 60.9 -17.3 70.45 -14.7 73.5 Q-15.65 80.35 -15.2 93.75 -14.75 108.35 -15.15 123.25 L-16.55 122.65" fill="url(#gradient4)" fill-rule="evenodd" stroke="none"/>
    <path d="M-27.05 -17.25 L-26.4 -22.35 Q-26.3 -23.2 -25.35 -23.9 -17.5 -30.2 -13.25 -20.6 -12.5 -18.85 -12.7 -16.9 L-21.2 -16.9 -27.05 -17.25" fill="url(#gradient5)" fill-rule="evenodd" stroke="none"/>
    <path d="M-12.05 27.35 L-11.15 27.25 Q-8.75 26.9 -7.45 28.8 -2.95 35.35 4.65 32.55 L5.65 31.85 Q6.95 29.35 9.2 27.75 L11.85 27.8 13.7 29.45 13.7 57.7 -12.05 57.7 -12.05 27.35 M-8.1 49.3 L-10.35 49.3 -10.35 53.8 -8.1 53.8 -8.1 49.3 M-0.6 42.55 L-0.6 47.05 1.65 47.05 1.65 42.55 -0.6 42.55 M-2.1 47.05 L-2.1 42.55 -6.6 42.55 -6.6 47.05 -2.1 47.05 M-2.1 49.3 L-6.6 49.3 -6.6 53.8 -2.1 53.8 -2.1 49.3 M-10.35 42.55 L-10.35 47.05 -8.1 47.05 -8.1 42.55 -10.35 42.55 M-2.1 35.8 L-6.6 35.8 -6.6 40.3 -2.1 40.3 -2.1 35.8 M-10.35 40.3 L-8.1 40.3 -8.1 35.8 -10.35 35.8 -10.35 40.3 M-0.6 35.8 L-0.6 40.3 1.65 40.3 1.65 35.8 -0.6 35.8 M-0.6 53.8 L1.65 53.8 1.65 49.3 -0.6 49.3 -0.6 53.8 M3.15 35.8 L3.15 40.3 7.65 40.3 7.65 35.8 3.15 35.8 M7.65 42.55 L3.15 42.55 3.15 47.05 7.65 47.05 7.65 42.55 M9.15 42.55 L9.15 47.05 11.4 47.05 11.4 42.55 9.15 42.55 M3.15 49.3 L3.15 53.8 7.65 53.8 7.65 49.3 3.15 49.3 M9.15 35.8 L9.15 40.3 11.4 40.3 11.4 35.8 9.15 35.8 M11.4 49.3 L9.15 49.3 9.15 53.8 11.4 53.8 11.4 49.3" fill="url(#gradient6)" fill-rule="evenodd" stroke="none"/>
    <path d="M-28.95 50.8 L-28.95 35.8 -19.2 35.8 -19.2 50.8 -21.3 50.8 -28.95 50.8" fill="url(#gradient7)" fill-rule="evenodd" stroke="none"/>
    <path d="M-12.05 65.3 L-12.05 57.7 13.7 57.7 13.7 65.9 Q12.15 65.0 7.05 65.25 0.95 65.5 -12.05 65.3" fill="url(#gradient8)" fill-rule="evenodd" stroke="none"/>
    <path d="M-2.1 35.8 L-2.1 40.3 -6.6 40.3 -6.6 35.8 -2.1 35.8 M-10.35 42.55 L-8.1 42.55 -8.1 47.05 -10.35 47.05 -10.35 42.55 M-2.1 49.3 L-2.1 53.8 -6.6 53.8 -6.6 49.3 -2.1 49.3 M-2.1 47.05 L-6.6 47.05 -6.6 42.55 -2.1 42.55 -2.1 47.05 M-0.6 42.55 L1.65 42.55 1.65 47.05 -0.6 47.05 -0.6 42.55 M-8.1 49.3 L-8.1 53.8 -10.35 53.8 -10.35 49.3 -8.1 49.3 M-10.35 40.3 L-10.35 35.8 -8.1 35.8 -8.1 40.3 -10.35 40.3 M-0.6 35.8 L1.65 35.8 1.65 40.3 -0.6 40.3 -0.6 35.8 M-0.6 53.8 L-0.6 49.3 1.65 49.3 1.65 53.8 -0.6 53.8 M7.65 42.55 L7.65 47.05 3.15 47.05 3.15 42.55 7.65 42.55 M3.15 35.8 L7.65 35.8 7.65 40.3 3.15 40.3 3.15 35.8 M9.15 42.55 L11.4 42.55 11.4 47.05 9.15 47.05 9.15 42.55 M3.15 49.3 L7.65 49.3 7.65 53.8 3.15 53.8 3.15 49.3 M11.4 49.3 L11.4 53.8 9.15 53.8 9.15 49.3 11.4 49.3 M9.15 35.8 L11.4 35.8 11.4 40.3 9.15 40.3 9.15 35.8" fill="#000000" fill-rule="evenodd" stroke="none"/>
    <path d="M29.05 -15.65 L31.3 -15.2 Q32.2 -15.05 32.45 -13.85 L33.85 -6.8 Q35.7 4.0 35.7 15.4 35.7 18.05 37.1 20.3 38.7 22.8 38.05 25.55 L37.55 27.0 Q36.9 28.4 36.7 30.1 L36.45 30.35 Q37.3 60.55 35.45 90.3 34.95 98.45 34.7 106.7 34.55 110.95 31.85 114.25 30.65 115.6 29.6 117.05 26.85 120.65 24.65 124.45 23.65 126.1 23.65 128.15 23.7 131.95 20.5 133.75 L20.15 133.9 17.45 135.05 Q8.8 137.0 0.7 136.0 -4.85 135.3 -10.15 133.25 L-11.65 132.6 Q-17.4 130.15 -16.65 123.6 L-16.55 122.65 -15.15 123.25 Q-9.85 125.3 -4.3 126.0 3.8 127.0 12.45 125.05 L15.15 123.9 15.5 123.75 Q18.7 121.95 18.65 118.15 18.65 116.1 19.65 114.45 22.7 109.15 26.85 104.25 29.55 100.95 29.7 96.7 29.95 88.45 30.45 80.3 32.3 50.55 31.45 20.35 L31.7 20.1 Q31.9 18.4 32.55 17.0 34.15 13.45 32.1 10.3 30.7 8.05 30.7 5.4 30.7 -5.4 29.05 -15.65" fill="#000000" fill-opacity="0.5019608" fill-rule="evenodd" stroke="none"/>
    <path d="M-21.3 106.1 L-23.45 103.9 Q-28.0 98.6 -28.75 92.0 L-28.75 91.8 Q-29.1 88.75 -29.0 85.3 L-28.95 82.8 -28.9 79.35 Q-26.15 64.15 -31.3 50.8 L-28.95 50.8 -21.3 50.8 -21.3 82.8 -21.3 92.0 -21.3 106.1 M-12.05 65.3 Q0.95 65.5 7.05 65.25 12.15 65.0 13.7 65.9 L14.15 66.3 Q15.15 67.7 15.6 70.95 L15.8 73.05 15.9 75.9 Q15.8 83.15 16.05 94.7 16.3 106.25 15.5 123.75 L15.15 123.9 12.45 125.05 Q3.8 127.0 -4.3 126.0 -9.85 125.3 -15.15 123.25 -14.75 108.35 -15.2 93.75 -15.65 80.35 -14.7 73.5 L-14.5 72.3 Q-13.35 65.5 -12.05 65.3 M-21.3 82.8 L-28.95 82.8 -21.3 82.8 M-28.75 92.0 L-21.3 92.0 -28.75 92.0" fill="#202020" fill-rule="evenodd" stroke="none"/>
    <path d="M2.25 -14.9 L2.65 -16.2 3.05 -18.65 6.5 -18.3 Q7.65 -16.65 9.05 -15.4 13.45 -11.3 20.0 -11.2 L20.65 -11.2 20.9 -10.2 20.9 -9.85 20.8 -9.55 20.4 -8.95 20.05 -8.4 17.5 -7.9 17.1 -5.5 20.5 -5.45 20.85 -3.75 Q19.55 -2.75 18.6 -1.5 17.05 0.45 16.25 2.95 L15.85 4.4 Q14.65 9.25 14.35 14.6 14.05 19.55 14.25 26.05 L5.85 26.05 5.85 17.8 -4.95 17.8 -4.95 26.0 -7.35 26.15 -12.05 26.1 -14.7 26.15 -15.15 14.6 Q-15.7 1.2 -15.15 -12.2 L-13.8 -12.85 -11.1 -13.75 -10.25 -14.0 -7.45 -14.7 -7.35 -15.0 -7.0 -15.75 Q-6.35 -17.15 -5.25 -17.85 L-4.6 -18.1 -3.2 -18.3 -2.4 -15.0 2.25 -14.9 M-14.7 73.5 L-17.3 70.45 -17.3 60.9 -12.05 57.7 -12.05 65.3 Q-13.35 65.5 -14.5 72.3 L-14.7 73.5 M13.7 65.9 L13.7 57.7 18.95 60.9 18.95 70.45 15.8 73.05 15.6 70.95 Q15.15 67.7 14.15 66.3 L13.7 65.9" fill="#101010" fill-rule="evenodd" stroke="none"/>
    <path d="M-12.7 -16.9 L-7.6 -17.1 Q-5.4 -22.35 -0.1 -23.0 L2.6 -23.2 Q7.55 -18.45 14.05 -17.35 15.3 -27.95 26.3 -25.2 27.2 -25.05 27.45 -23.85 L28.85 -16.8 29.05 -15.65 Q30.7 -5.4 30.7 5.4 30.7 8.05 32.1 10.3 34.15 13.45 32.55 17.0 31.9 18.4 31.7 20.1 L31.45 20.35 Q32.3 50.55 30.45 80.3 29.95 88.45 29.7 96.7 29.55 100.95 26.85 104.25 22.7 109.15 19.65 114.45 18.65 116.1 18.65 118.15 18.7 121.95 15.5 123.75 16.3 106.25 16.05 94.7 15.8 83.15 15.9 75.9 L15.8 73.05 15.6 70.95 Q15.15 67.7 14.15 66.3 L13.7 65.9 13.7 57.7 -12.05 57.7 -12.05 27.35 -11.15 27.25 Q-8.75 26.9 -7.45 28.8 -2.95 35.35 4.65 32.55 L5.65 31.85 Q6.95 29.35 9.2 27.75 L11.85 27.8 13.7 29.45 Q18.1 32.55 22.2 27.75 L22.2 27.4 Q23.2 6.8 21.7 -13.8 L21.45 -16.8 21.0 -17.1 14.05 -17.35 M-16.55 122.65 L-16.65 122.6 Q-22.4 120.15 -21.65 113.6 L-21.35 109.7 -21.3 106.1 -23.45 103.9 Q-28.0 98.6 -28.75 92.0 L-28.75 91.8 Q-29.1 88.75 -29.0 85.3 L-28.95 82.8 -28.9 79.35 Q-26.15 64.15 -31.3 50.8 L-31.55 50.1 Q-34.15 43.5 -32.7 36.35 -30.75 26.45 -32.85 17.15 L-33.15 14.7 Q-33.35 10.35 -29.25 7.65 L-29.0 7.05 Q-28.5 -5.25 -27.05 -17.25 L-26.4 -22.35 Q-26.3 -23.2 -25.35 -23.9 -17.5 -30.2 -13.25 -20.6 -12.5 -18.85 -12.7 -16.9 L-21.2 -16.9 -21.15 -13.05 Q-21.05 -3.5 -22.05 5.8 -22.35 8.05 -23.65 9.9 L-24.1 10.5 Q-30.1 17.5 -28.15 24.05 -27.35 26.8 -25.05 29.55 -23.35 31.55 -21.15 30.4 -16.9 28.1 -12.05 27.35 M21.45 -16.8 L28.85 -16.8 M-21.2 -16.9 L-27.05 -17.25 M-21.3 50.8 L-19.2 50.8 -19.2 35.8 -28.95 35.8 -28.95 50.8 -21.3 50.8 -21.3 82.8 -21.3 92.0 -21.3 106.1 M-14.7 73.5 L-17.3 70.45 -17.3 60.9 -12.05 57.7 -12.05 65.3 Q0.95 65.5 7.05 65.25 12.15 65.0 13.7 65.9 M-12.05 65.3 Q-13.35 65.5 -14.5 72.3 L-14.7 73.5 Q-15.65 80.35 -15.2 93.75 -14.75 108.35 -15.15 123.25 -9.85 125.3 -4.3 126.0 3.8 127.0 12.45 125.05 L15.15 123.9 15.5 123.75 M-28.95 50.8 L-31.3 50.8 M-21.3 92.0 L-28.75 92.0 M-28.95 82.8 L-21.3 82.8 M-15.15 123.25 L-16.55 122.65 M29.55 35.8 L29.55 50.8 19.8 50.8 19.8 35.8 29.55 35.8 M13.7 57.7 L18.95 60.9 18.95 70.45 15.8 73.05 M13.7 29.45 L13.7 57.7" fill="none" stroke="#000000" stroke-linecap="round" stroke-linejoin="round" stroke-width="1.0"/>
  </g>
  <defs>
    <linearGradient gradientTransform="matrix(0.0313, 0.0, 0.0, 0.0345, -3.05, 5.05)" gradientUnits="userSpaceOnUse" id="gradient0" spreadMethod="pad" x1="-819.2" x2="819.2">
      <stop offset="0.0" stop-color="#586870"/>
      <stop offset="1.0" stop-color="#101010"/>
    </linearGradient>
    <linearGradient gradientTransform="matrix(0.0119, 0.0, 0.0, 0.0858, 23.45, 53.45)" gradientUnits="userSpaceOnUse" id="gradient1" spreadMethod="pad" x1="-819.2" x2="819.2">
      <stop offset="0.0" stop-color="#586870"/>
      <stop offset="1.0" stop-color="#101010"/>
    </linearGradient>
    <linearGradient gradientTransform="matrix(0.006, 0.0, 0.0, 0.0092, 24.65, 43.3)" gradientUnits="userSpaceOnUse" id="gradient2" spreadMethod="pad" x1="-819.2" x2="819.2">
      <stop offset="0.0" stop-color="#586870"/>
      <stop offset="1.0" stop-color="#101010"/>
    </linearGradient>
    <linearGradient gradientTransform="matrix(0.0091, 0.0, 0.0, 0.0055, 21.45, -21.35)" gradientUnits="userSpaceOnUse" id="gradient3" spreadMethod="pad" x1="-819.2" x2="819.2">
      <stop offset="0.0" stop-color="#586870"/>
      <stop offset="1.0" stop-color="#101010"/>
    </linearGradient>
    <linearGradient gradientTransform="matrix(0.0129, 0.0, 0.0, 0.0858, -22.65, 53.0)" gradientUnits="userSpaceOnUse" id="gradient4" spreadMethod="pad" x1="-819.2" x2="819.2">
      <stop offset="0.0" stop-color="#586870"/>
      <stop offset="1.0" stop-color="#101010"/>
    </linearGradient>
    <linearGradient gradientTransform="matrix(0.0088, 0.0, 0.0, 0.0058, -19.85, -21.65)" gradientUnits="userSpaceOnUse" id="gradient5" spreadMethod="pad" x1="-819.2" x2="819.2">
      <stop offset="0.0" stop-color="#586870"/>
      <stop offset="1.0" stop-color="#101010"/>
    </linearGradient>
    <linearGradient gradientTransform="matrix(0.0157, 0.0, 0.0, 0.0186, 0.8, 42.45)" gradientUnits="userSpaceOnUse" id="gradient6" spreadMethod="pad" x1="-819.2" x2="819.2">
      <stop offset="0.0" stop-color="#586870"/>
      <stop offset="1.0" stop-color="#101010"/>
    </linearGradient>
    <linearGradient gradientTransform="matrix(0.006, 0.0, 0.0, 0.0092, -24.1, 43.3)" gradientUnits="userSpaceOnUse" id="gradient7" spreadMethod="pad" x1="-819.2" x2="819.2">
      <stop offset="0.0" stop-color="#586870"/>
      <stop offset="1.0" stop-color="#101010"/>
    </linearGradient>
    <linearGradient gradientTransform="matrix(0.0157, 0.0, 0.0, 0.005, 0.8, 61.8)" gradientUnits="userSpaceOnUse" id="gradient8" spreadMethod="pad" x1="-819.2" x2="819.2">
      <stop offset="0.0" stop-color="#586870"/>
      <stop offset="1.0" stop-color="#101010"/>
    </linearGradient>
  </defs>
</svg>
