<?xml version="1.0" encoding="UTF-8" standalone="no"?>
<svg xmlns:ffdec="https://www.free-decompiler.com/flash" xmlns:xlink="http://www.w3.org/1999/xlink" ffdec:objectType="shape" height="77.25px" width="39.15px" xmlns="http://www.w3.org/2000/svg">
  <g transform="matrix(1.0, 0.0, 0.0, 1.0, 17.95, 40.25)">
    <path d="M16.05 -34.1 L17.2 -33.15 17.95 -32.35 18.85 -30.75 19.0 -30.35 Q19.7 -28.35 20.25 -24.95 21.35 -18.3 21.2 -8.9 21.0 0.5 21.15 7.4 21.3 14.35 19.55 20.15 16.75 29.55 9.05 36.2 L9.05 33.55 0.2 33.55 0.2 37.0 0.05 36.55 -0.25 36.15 -0.65 35.9 -0.85 35.65 -1.1 35.25 Q-7.0 28.05 -9.35 18.8 L-10.2 15.1 -11.4 8.5 -12.15 2.25 Q-12.6 -2.65 -12.35 -7.45 -12.0 -15.9 -10.95 -24.3 -10.6 -27.5 -9.9 -30.55 L-9.85 -30.75 -9.8 -31.0 -9.35 -32.35 Q-7.7 -35.95 -2.2 -34.1 -1.4 -33.35 -1.15 -32.35 L-1.1 -32.1 -0.8 -30.75 -0.7 -30.55 10.3 -30.35 10.7 -30.85 Q10.85 -31.75 11.15 -32.35 11.95 -33.95 13.65 -34.0 L16.05 -34.1 M2.75 -0.85 L2.8 -0.85 2.75 -0.85" fill="#000000" fill-opacity="0.5019608" fill-rule="evenodd" stroke="none"/>
    <path d="M14.0 -35.35 Q14.7 -33.35 15.25 -29.95 16.35 -23.3 16.2 -13.9 16.0 -4.5 16.15 2.4 16.3 9.35 14.55 15.15 11.75 24.55 4.05 31.2 L4.05 28.55 4.05 19.6 -4.8 19.6 -4.8 28.55 -4.8 32.0 -4.95 31.55 -5.25 31.15 Q-5.5 30.95 -5.65 30.9 L-5.85 30.65 -6.1 30.25 Q-12.0 23.05 -14.35 13.8 L-15.2 10.1 -16.4 3.5 -17.15 -2.75 Q-17.6 -7.65 -17.35 -12.45 -17.0 -20.9 -15.95 -29.3 -15.6 -32.5 -14.9 -35.55 -12.95 -34.1 -11.1 -33.75 L-12.15 -32.6 -12.35 -32.15 -12.65 -31.5 -12.75 -31.25 -12.9 -30.3 -12.9 -30.15 -13.1 -29.6 -13.3 -29.3 -13.45 -29.05 -13.85 -28.2 -13.95 -27.9 -14.55 -25.8 -14.6 -25.65 -15.0 -24.3 -15.05 -23.75 -15.15 -21.15 -15.15 -20.75 -15.2 -17.4 -15.1 -15.3 -14.95 -14.6 -14.75 -14.3 -14.65 -14.0 -14.25 -12.9 -13.35 -11.75 -12.55 -11.0 -12.6 -10.95 -12.75 -10.7 -12.75 -10.65 -12.75 -10.4 -12.75 -10.35 -12.6 -10.3 -10.7 -10.15 -9.05 -10.0 -7.55 -9.85 -7.4 -10.0 -7.0 -10.0 -6.8 -9.9 -6.3 -9.15 -5.85 -8.55 -5.75 -8.45 -5.85 -8.3 -5.85 -8.25 -6.1 -8.25 -6.15 -8.15 -6.35 -7.8 -6.3 -7.6 Q-5.3 -6.9 -4.05 -7.0 L-3.9 -7.1 -3.9 -7.0 -3.6 -1.8 -2.7 -1.3 -2.8 -1.1 -2.85 -0.35 -5.0 -0.45 -5.25 -0.35 -5.3 -0.3 -5.45 -0.1 -5.45 0.2 -5.4 0.3 -5.2 0.45 -2.35 0.6 -0.65 0.8 Q1.75 1.05 4.2 0.75 L4.5 0.65 4.55 0.6 4.65 0.4 4.65 0.3 4.65 0.25 4.55 0.05 4.5 -0.05 4.35 -0.1 2.1 -0.15 3.1 -0.9 3.2 -1.1 3.2 -1.35 Q4.3 -1.8 4.35 -3.35 5.85 -5.2 5.75 -7.75 L7.15 -7.75 Q7.9 -8.3 8.1 -9.2 L10.45 -9.8 11.1 -10.25 Q12.95 -12.95 11.85 -16.2 L11.75 -16.2 11.5 -16.3 11.35 -16.25 11.2 -16.2 11.15 -16.1 11.05 -16.0 11.05 -15.75 Q11.45 -13.8 11.1 -11.85 L10.7 -11.4 Q9.8 -10.65 8.65 -10.3 9.45 -10.7 9.6 -11.55 L9.6 -11.75 9.6 -12.7 9.35 -13.95 9.35 -14.2 Q9.25 -15.3 9.4 -16.25 L9.5 -17.2 Q9.6 -17.8 9.3 -17.85 L8.55 -18.0 6.85 -18.25 6.8 -18.25 6.5 -18.3 6.4 -18.7 6.3 -20.2 6.4 -20.55 Q6.75 -21.35 6.7 -22.65 L6.75 -23.0 7.05 -23.65 Q6.85 -21.2 7.05 -18.85 L7.5 -18.75 7.65 -18.9 8.0 -21.5 8.65 -21.55 8.7 -21.0 Q8.8 -20.4 9.2 -19.85 L12.9 -19.6 13.05 -20.1 12.9 -20.35 9.9 -20.65 9.7 -21.15 9.35 -22.55 9.25 -22.6 8.7 -22.65 8.55 -22.65 8.0 -22.7 7.9 -24.15 9.3 -24.25 Q9.85 -24.2 10.1 -24.65 L10.2 -24.9 10.35 -25.2 10.7 -25.75 10.9 -24.35 11.35 -24.25 11.4 -24.35 Q11.7 -27.5 11.1 -30.45 L11.0 -30.55 10.8 -30.6 10.65 -30.6 10.55 -30.55 10.4 -30.4 10.35 -30.7 10.3 -30.9 Q9.95 -31.95 10.05 -33.4 12.1 -33.5 14.0 -35.35 M-2.25 -5.85 L-2.55 -5.2 Q-2.7 -4.05 -2.15 -3.45 -1.8 -3.05 -1.0 -3.05 L-0.8 -3.0 1.25 -2.95 Q2.2 -2.95 2.6 -3.7 L2.7 -3.9 Q2.85 -4.45 3.15 -4.65 L3.3 -4.85 3.5 -5.55 3.75 -6.3 Q4.05 -7.2 4.65 -7.8 L4.75 -8.0 Q5.0 -8.9 5.75 -9.35 L5.95 -9.45 6.45 -9.6 7.4 -9.9 6.75 -8.7 5.4 -8.75 5.05 -8.25 4.15 -4.55 3.85 -4.3 3.65 -3.95 Q3.45 -2.55 2.3 -1.85 L-2.7 -2.4 -2.7 -2.65 -3.05 -8.25 -2.3 -8.05 -2.25 -6.15 -2.25 -5.95 -2.2 -5.85 -2.25 -5.85 M8.7 -8.55 L8.45 -8.55 8.4 -8.5 8.35 -8.4 8.25 -8.35 8.25 -8.3 8.2 -8.1 8.25 -8.0 8.3 -7.85 8.35 -7.8 8.3 -7.45 8.25 -7.35 8.3 -7.2 8.35 -7.2 8.55 -7.05 12.05 -6.95 12.55 -7.05 12.6 -7.1 12.65 -7.15 12.7 -7.3 12.7 -7.35 12.7 -7.4 Q12.8 -7.9 12.45 -8.3 L12.4 -8.3 12.35 -8.35 12.25 -8.4 8.7 -8.6 8.7 -8.55 M7.05 -6.8 L6.95 -6.65 6.9 -6.6 6.85 -2.3 Q6.75 3.25 7.05 8.65 L7.6 8.7 Q8.0 6.55 8.0 4.2 L7.65 -6.8 7.55 -6.85 7.35 -6.9 7.15 -6.85 7.05 -6.8 M9.9 -4.95 L9.9 -4.8 9.95 -4.2 Q11.9 -2.65 14.65 -3.35 L15.15 -3.75 15.3 -3.9 15.5 -4.45 15.45 -4.6 15.35 -4.85 15.15 -5.15 14.95 -5.25 10.8 -5.55 10.2 -5.35 9.9 -4.95 M10.65 -3.45 L10.65 -3.4 10.5 -3.4 10.35 -3.35 10.2 -3.2 10.15 -3.05 10.2 -2.85 Q11.05 -0.55 13.5 -0.95 L13.65 -1.2 13.65 -1.3 11.4 -2.45 11.4 -2.55 Q11.35 -3.3 10.65 -3.45 M15.35 3.95 L15.6 3.5 15.7 3.25 15.55 2.8 15.35 2.55 15.15 2.45 14.4 2.3 Q11.85 1.65 10.15 3.0 L10.05 3.6 10.15 3.85 Q12.6 5.35 15.35 3.95 M10.35 5.45 L10.4 5.55 13.5 5.7 13.55 5.65 13.6 5.6 13.65 5.45 13.65 5.4 13.65 5.3 13.65 5.25 13.55 5.1 13.5 5.0 13.35 4.95 10.8 4.8 10.6 4.9 10.5 4.95 10.35 5.25 10.35 5.3 10.35 5.45 M15.0 9.3 L14.75 9.2 11.0 9.05 10.6 9.15 10.4 9.3 10.2 9.6 Q10.0 9.9 10.1 10.25 L10.15 10.4 10.45 10.65 Q12.65 11.7 15.0 10.7 L15.15 10.4 15.3 10.1 15.3 10.0 15.25 9.75 15.1 9.45 15.0 9.3 M5.0 17.05 L4.8 17.1 4.7 17.1 4.65 17.2 4.6 17.25 4.55 17.35 4.5 17.45 4.55 17.6 4.55 17.7 4.75 17.85 5.75 18.3 6.0 18.65 6.3 18.95 6.6 19.65 6.85 20.1 Q6.8 23.55 7.05 26.95 7.35 27.15 7.65 26.95 L7.8 26.7 7.8 26.65 Q8.4 25.3 8.35 23.65 L8.1 21.35 Q9.5 20.75 10.25 19.25 L10.2 19.05 10.1 18.9 10.0 18.85 9.8 18.75 9.65 18.8 9.55 18.85 7.95 20.45 7.55 19.35 7.55 19.2 7.5 19.2 Q6.7 17.65 5.0 17.0 L5.0 17.05 M4.25 16.15 L3.9 15.8 -3.9 15.6 Q-4.6 15.6 -5.2 15.9 L-5.25 15.95 -5.3 16.2 -5.2 16.5 -5.1 16.6 3.45 16.75 4.15 16.5 4.2 16.35 4.25 16.2 4.25 16.15 M5.3 1.05 L5.2 0.95 5.0 0.9 4.85 0.9 4.75 0.95 4.65 1.1 4.5 1.25 4.5 3.9 Q4.35 9.4 4.6 14.9 4.8 15.25 5.25 15.2 L5.4 15.05 5.55 14.8 Q5.35 13.4 5.4 12.0 5.55 6.45 5.3 1.05 M10.35 12.3 L10.2 12.15 10.05 11.85 10.05 11.65 9.75 9.5 9.6 9.45 9.45 9.4 9.2 9.45 9.15 9.5 9.0 9.65 9.0 9.7 8.95 10.0 9.15 12.25 9.3 12.4 9.3 12.45 9.5 12.75 Q11.25 13.6 13.4 13.6 L13.55 13.4 13.65 13.15 Q12.4 11.95 10.35 12.3 M-4.9 14.9 L4.0 14.9 4.0 1.4 -5.0 1.4 -5.0 14.75 -5.1 14.65 -5.3 12.0 -5.55 1.05 -5.7 1.05 -5.85 0.95 -6.1 1.05 -6.15 1.05 -6.3 1.2 -6.3 1.25 -6.5 4.5 -6.5 7.95 -7.75 8.0 -7.8 8.0 -7.65 4.1 -7.65 3.75 -7.65 3.7 Q-7.7 -1.65 -8.0 -6.85 L-8.1 -6.9 -8.3 -7.0 -8.55 -6.9 -8.6 -6.9 -8.7 -6.75 -8.75 -6.65 -8.8 -5.1 -8.8 -4.15 -8.95 -5.1 -9.05 -5.15 -9.3 -5.25 -9.45 -5.2 -9.6 -5.1 -9.65 -5.05 -9.75 -4.95 -9.8 -4.7 -9.7 -3.0 -9.75 -2.85 Q-10.0 -1.8 -11.1 -1.55 L-11.9 -1.65 -14.0 -3.45 -14.0 -3.4 -14.25 -3.35 -14.3 -3.3 -14.4 -3.15 -14.45 -3.1 -14.45 -2.85 -14.35 -2.35 -13.95 -1.85 Q-12.8 -0.4 -11.0 -0.65 -9.5 -0.9 -9.1 -1.85 L-8.9 -1.9 -8.85 -2.0 -8.8 -2.3 -8.8 -2.25 -8.7 3.25 Q-9.1 3.35 -9.4 3.6 -10.2 4.25 -10.65 5.15 -11.75 5.55 -12.4 4.8 -12.7 4.6 -12.95 4.65 L-13.4 4.9 -13.45 5.05 -13.45 5.25 -13.4 5.35 -13.05 5.7 -12.45 6.0 Q-9.9 6.75 -8.9 4.35 L-8.7 4.3 -8.5 8.0 -8.55 8.1 -8.55 8.15 -8.6 8.25 -8.6 8.35 -8.6 8.4 -8.55 8.7 -6.45 9.05 Q-6.35 12.25 -5.85 15.4 L-5.1 15.55 -4.95 15.35 -4.85 15.1 -4.9 14.9 M-12.85 -8.75 L-12.95 -8.7 -13.3 -8.5 -13.45 -8.3 -13.45 -7.95 -13.45 -7.65 -13.4 -7.6 -13.35 -7.55 -13.35 -7.5 -13.35 -7.45 -13.2 -7.1 -12.9 -7.05 -9.1 -7.0 Q-8.55 -7.35 -8.4 -7.95 L-8.4 -8.05 -8.55 -8.5 -8.7 -8.5 -12.7 -8.8 -12.85 -8.75 M-16.0 -5.7 L-16.4 -5.65 -16.6 -5.55 -16.9 -5.1 -16.95 -4.95 -16.95 -4.8 -16.95 -4.65 -16.9 -4.55 -16.85 -4.4 Q-15.5 -3.7 -14.05 -3.55 L-11.45 -3.75 -11.35 -3.9 -11.25 -4.05 -11.2 -4.2 -11.1 -4.3 -11.1 -4.45 -11.1 -4.6 -11.2 -4.7 -11.25 -4.85 -11.35 -5.0 -11.45 -5.15 -11.7 -5.25 -16.0 -5.75 -16.0 -5.7 M-9.65 9.1 L-9.75 9.15 -9.85 9.3 -9.9 9.3 -9.9 9.6 -9.75 11.85 Q-10.7 12.75 -12.3 12.7 L-12.3 12.65 Q-13.3 12.0 -13.8 10.95 L-13.95 10.9 -14.1 10.8 -14.1 10.85 -14.4 10.95 Q-14.7 12.3 -13.2 13.2 -11.95 13.9 -10.4 13.5 -9.65 13.3 -9.25 12.9 -8.8 13.35 -8.5 13.9 L-7.8 13.85 -7.65 13.65 -7.65 13.5 -8.1 12.8 -8.5 12.05 -9.15 9.15 -9.25 9.1 -9.45 9.0 -9.65 9.1 M-11.15 9.25 L-11.25 9.1 -11.5 9.0 -14.1 8.85 -14.55 9.0 -14.7 9.1 -14.95 9.4 Q-15.15 9.7 -15.0 10.05 L-15.0 10.2 -14.1 10.75 -11.25 10.5 -11.1 10.2 -10.95 9.9 -10.95 9.8 -11.0 9.55 -11.15 9.25 M-11.15 2.85 L-11.25 2.7 -11.5 2.65 -15.25 2.5 -15.25 2.55 -15.5 2.55 -15.75 2.65 -15.9 2.8 -16.1 3.05 -16.2 3.2 -16.2 3.45 -16.0 4.2 -15.85 4.35 -12.95 4.55 -11.25 4.15 -11.1 3.85 -10.95 3.6 -10.95 3.45 -11.0 3.15 -11.15 2.85 M-6.9 19.0 L-7.15 19.05 -7.35 19.2 -7.9 20.0 -9.6 18.6 -9.85 18.65 -9.9 18.7 -10.1 19.05 -10.05 19.25 -9.9 19.4 -9.6 19.55 -9.4 19.9 -7.65 21.85 -7.45 22.2 -7.3 22.5 -7.2 23.75 -6.9 26.55 -6.6 26.65 -6.15 26.55 -6.1 26.4 -6.0 25.35 Q-5.9 22.85 -7.1 20.85 L-7.2 20.75 -7.15 20.7 -7.0 20.35 -6.9 20.25 Q-6.45 19.95 -6.35 19.45 L-6.4 19.3 -6.5 19.05 -6.6 19.05 -6.9 18.95 -6.9 19.0" fill="#786860" fill-rule="evenodd" stroke="none"/>
    <path d="M1.95 -28.25 L2.15 -23.75 2.7 -23.3 -2.25 -23.0 -2.3 -23.4 -2.35 -23.95 -2.25 -27.7 Q-2.25 -28.1 -2.4 -28.3 L1.95 -28.25 M2.55 -18.5 L5.55 -18.3 5.7 -18.3 5.7 -12.9 4.95 -12.9 4.45 -12.8 2.9 -12.75 2.55 -12.75 2.55 -18.5 M2.15 -9.85 L2.15 -9.7 2.25 -7.95 2.25 -6.85 2.2 -5.95 Q2.05 -5.55 1.6 -5.5 L1.4 -5.45 -0.05 -5.4 -0.05 -9.85 2.15 -9.85" fill="#586870" fill-rule="evenodd" stroke="none"/>
    <path d="M5.1 -35.35 L5.15 -31.65 5.0 -31.2 4.9 -30.7 4.9 -29.75 4.85 -29.4 Q4.75 -28.85 4.9 -28.6 4.95 -28.35 4.35 -28.25 L3.05 -28.2 1.95 -28.25 -2.4 -28.3 -2.7 -28.4 -4.2 -28.45 -4.4 -28.5 -4.6 -29.75 -4.6 -35.5 5.1 -35.35" fill="#7c8682" fill-rule="evenodd" stroke="none"/>
    <path d="M2.55 -18.75 L2.55 -18.7 2.55 -18.5 2.55 -12.75 Q2.25 -12.7 2.3 -12.3 L2.25 -12.0 2.15 -11.4 2.1 -10.65 2.15 -9.85 -0.05 -9.85 -2.35 -9.85 -2.35 -11.95 -2.25 -13.05 Q-2.15 -13.7 -2.7 -13.7 L-3.45 -13.8 -7.6 -13.95 Q-8.3 -13.85 -8.2 -14.55 L-8.05 -14.85 -7.8 -15.0 -7.6 -15.05 -5.9 -15.3 -4.85 -15.5 -4.8 -17.75 Q-4.85 -18.3 -4.4 -18.3 L-3.85 -18.35 -3.45 -18.45 Q-3.15 -18.5 -3.25 -18.9 L-3.35 -19.2 Q-3.5 -19.6 -4.2 -19.5 L-6.1 -19.5 Q-6.3 -19.5 -6.3 -19.65 L-6.45 -21.15 -6.55 -22.05 Q-6.65 -22.8 -6.1 -22.8 L-2.25 -23.0 2.7 -23.3 2.55 -18.75 M5.7 -18.3 L6.3 -18.3 6.5 -18.3 6.8 -18.25 6.8 -13.0 5.7 -12.9 5.7 -18.3 M9.9 -4.95 L10.2 -5.35 10.8 -5.55 14.95 -5.25 15.15 -5.15 15.35 -4.85 15.45 -4.6 15.5 -4.45 15.3 -3.9 15.15 -3.75 14.65 -3.35 Q11.9 -2.65 9.95 -4.2 L9.9 -4.8 9.9 -4.95 M15.35 3.95 Q12.6 5.35 10.15 3.85 L10.05 3.6 10.15 3.0 Q11.85 1.65 14.4 2.3 L15.15 2.45 15.35 2.55 15.55 2.8 15.7 3.25 15.6 3.5 15.35 3.95 M15.0 9.3 L15.1 9.45 15.25 9.75 15.3 10.0 15.3 10.1 15.15 10.4 15.0 10.7 Q12.65 11.7 10.45 10.65 L10.15 10.4 10.1 10.25 Q10.0 9.9 10.2 9.6 L10.4 9.3 10.6 9.15 11.0 9.05 14.75 9.2 15.0 9.3 M-5.0 14.75 L-5.0 1.4 4.0 1.4 4.0 14.9 -4.9 14.9 -4.95 14.85 -5.0 14.75 M-16.0 -5.7 L-16.0 -5.75 -11.7 -5.25 -11.45 -5.15 -11.35 -5.0 -11.25 -4.85 -11.2 -4.7 -11.1 -4.6 -11.1 -4.45 -11.1 -4.3 -11.2 -4.2 -11.25 -4.05 -11.35 -3.9 -11.45 -3.75 -14.05 -3.55 Q-15.5 -3.7 -16.85 -4.4 L-16.9 -4.55 -16.95 -4.65 -16.95 -4.8 -16.95 -4.95 -16.9 -5.1 -16.6 -5.55 -16.4 -5.65 -16.0 -5.7 M-11.15 2.85 L-11.0 3.15 -10.95 3.45 -10.95 3.6 -11.1 3.85 -11.25 4.15 -12.95 4.55 -15.85 4.35 -16.0 4.2 -16.2 3.45 -16.2 3.2 -16.1 3.05 -15.9 2.8 -15.75 2.65 -15.5 2.55 -15.25 2.55 -15.25 2.5 -11.5 2.65 -11.25 2.7 -11.15 2.85 M-11.15 9.25 L-11.0 9.55 -10.95 9.8 -10.95 9.9 -11.1 10.2 -11.25 10.5 -14.1 10.75 -15.0 10.2 -15.0 10.05 Q-15.15 9.7 -14.95 9.4 L-14.7 9.1 -14.55 9.0 -14.1 8.85 -11.5 9.0 -11.25 9.1 -11.15 9.25" fill="#889088" fill-rule="evenodd" stroke="none"/>
    <path d="M7.05 -23.65 L7.05 -24.0 7.05 -24.15 7.2 -24.3 7.3 -24.45 7.4 -24.5 7.55 -24.55 7.75 -24.45 7.85 -24.45 7.9 -24.15 8.0 -22.7 8.55 -22.65 8.7 -22.65 9.25 -22.6 9.35 -22.55 9.7 -21.15 9.9 -20.65 12.9 -20.35 13.05 -20.1 12.9 -19.6 9.2 -19.85 Q8.8 -20.4 8.7 -21.0 L8.65 -21.55 8.0 -21.5 7.65 -18.9 7.5 -18.75 7.05 -18.85 Q6.85 -21.2 7.05 -23.65 L7.9 -24.15 7.05 -23.65 M10.7 -25.75 Q10.4 -27.85 10.35 -30.05 L10.35 -30.25 10.4 -30.4 10.55 -30.55 10.65 -30.6 10.8 -30.6 11.0 -30.55 11.1 -30.45 Q11.7 -27.5 11.4 -24.35 L11.35 -24.25 10.9 -24.35 10.7 -25.75 10.7 -25.8 10.65 -26.3 10.75 -26.55 10.8 -28.65 10.75 -28.95 Q10.5 -29.55 10.4 -30.4 10.5 -29.55 10.75 -28.95 L10.8 -28.65 10.75 -26.55 10.65 -26.3 10.7 -25.8 10.7 -25.75 M8.65 -10.3 Q9.8 -10.65 10.7 -11.4 L11.1 -11.85 Q11.45 -13.8 11.05 -15.75 L11.05 -16.0 11.15 -16.1 11.2 -16.2 11.35 -16.25 11.5 -16.3 11.75 -16.2 11.85 -16.2 Q12.95 -12.95 11.1 -10.25 L10.45 -9.8 8.1 -9.2 Q7.9 -8.3 7.15 -7.75 L5.75 -7.75 Q5.85 -5.2 4.35 -3.35 4.3 -1.8 3.2 -1.35 L3.2 -1.1 3.1 -0.9 2.1 -0.15 4.35 -0.1 4.5 -0.05 4.55 0.05 4.65 0.25 4.65 0.3 4.65 0.4 4.55 0.6 4.5 0.65 4.2 0.75 Q1.75 1.05 -0.65 0.8 L-2.35 0.6 -5.2 0.45 -5.4 0.3 -5.45 0.2 -5.45 -0.1 -5.3 -0.3 -5.25 -0.35 -5.0 -0.45 -2.85 -0.35 -2.8 -1.1 -2.7 -1.3 -3.6 -1.8 -3.9 -7.0 -3.9 -7.1 -4.05 -7.0 Q-5.3 -6.9 -6.3 -7.6 L-6.35 -7.8 -6.15 -8.15 -6.1 -8.25 -5.85 -8.25 -5.85 -8.3 -5.35 -8.15 -3.9 -7.95 -3.9 -8.65 -3.6 -9.45 -3.3 -9.5 -3.3 -9.55 -3.15 -9.45 -3.0 -9.45 -3.05 -8.25 -2.7 -2.65 -2.7 -2.4 2.3 -1.85 Q3.45 -2.55 3.65 -3.95 L3.85 -4.3 4.15 -4.55 5.05 -8.25 5.4 -8.75 6.75 -8.7 7.4 -9.9 7.45 -9.95 7.5 -10.05 8.6 -10.25 8.65 -10.3 M-7.4 -10.0 L-7.55 -9.85 -9.05 -10.0 -10.7 -10.15 -12.6 -10.3 -12.75 -10.35 -12.75 -10.4 -12.75 -10.65 -12.75 -10.7 -12.6 -10.95 -12.55 -11.0 -12.45 -11.05 -12.25 -11.1 -7.55 -10.8 -7.45 -10.75 -7.35 -10.65 -7.3 -10.45 -7.3 -10.2 -7.35 -10.05 -7.4 -10.0 -9.05 -10.0 -7.4 -10.0 M8.6 -10.25 L7.4 -9.9 8.6 -10.25 M7.05 -6.8 L7.15 -6.85 7.35 -6.9 7.55 -6.85 7.65 -6.8 8.0 4.2 Q8.0 6.55 7.6 8.7 L7.05 8.65 Q6.75 3.25 6.85 -2.3 L6.9 -6.6 6.95 -6.65 7.05 -6.8 M8.7 -8.55 L8.7 -8.6 12.25 -8.4 12.35 -8.35 12.4 -8.3 12.45 -8.3 Q12.8 -7.9 12.7 -7.4 L12.7 -7.35 12.7 -7.3 12.65 -7.15 12.6 -7.1 12.55 -7.05 12.05 -6.95 8.55 -7.05 8.35 -7.2 8.3 -7.2 8.25 -7.35 8.3 -7.45 8.35 -7.8 8.3 -7.85 8.25 -8.0 8.2 -8.1 8.25 -8.3 8.25 -8.35 8.35 -8.4 8.4 -8.5 8.45 -8.55 8.7 -8.55 M10.65 -3.45 Q11.35 -3.3 11.4 -2.55 L11.4 -2.45 13.65 -1.3 13.65 -1.2 13.5 -0.95 Q11.05 -0.55 10.2 -2.85 L10.15 -3.05 10.2 -3.2 10.35 -3.35 10.5 -3.4 10.65 -3.4 10.65 -3.45 M10.35 5.45 L10.35 5.3 10.35 5.25 10.5 4.95 10.6 4.9 10.8 4.8 13.35 4.95 13.5 5.0 13.55 5.1 13.65 5.25 13.65 5.3 13.65 5.4 13.65 5.45 13.6 5.6 13.55 5.65 13.5 5.7 10.4 5.55 10.35 5.45 M10.35 12.3 Q12.4 11.95 13.65 13.15 L13.55 13.4 13.4 13.6 Q11.25 13.6 9.5 12.75 L9.3 12.45 9.3 12.4 9.15 12.25 8.95 10.0 9.0 9.7 9.0 9.65 9.15 9.5 9.2 9.45 9.45 9.4 9.6 9.45 9.75 9.5 10.05 11.65 10.05 11.85 10.2 12.15 10.35 12.3 M5.3 1.05 Q5.55 6.45 5.4 12.0 5.35 13.4 5.55 14.8 L5.4 15.05 5.25 15.2 Q4.8 15.25 4.6 14.9 4.35 9.4 4.5 3.9 L4.5 1.25 4.65 1.1 4.75 0.95 4.85 0.9 5.0 0.9 5.2 0.95 5.3 1.05 M4.25 16.15 L4.25 16.2 4.2 16.35 4.15 16.5 3.45 16.75 -5.1 16.6 -5.2 16.5 -5.3 16.2 -5.25 15.95 -5.2 15.9 Q-4.6 15.6 -3.9 15.6 L3.9 15.8 4.25 16.15 M5.0 17.05 L5.0 17.0 Q6.7 17.65 7.5 19.2 L7.55 19.2 7.55 19.35 7.95 20.45 9.55 18.85 9.65 18.8 9.8 18.75 10.0 18.85 10.1 18.9 10.2 19.05 10.25 19.25 Q9.5 20.75 8.1 21.35 L8.35 23.65 Q8.4 25.3 7.8 26.65 L7.8 26.7 7.65 26.95 Q7.35 27.15 7.05 26.95 6.8 23.55 6.85 20.1 L6.6 19.65 6.3 18.95 6.0 18.65 5.75 18.3 4.75 17.85 4.55 17.7 4.55 17.6 4.5 17.45 4.55 17.35 4.6 17.25 4.65 17.2 4.7 17.1 4.8 17.1 5.0 17.05 M-4.9 14.9 L-4.85 15.1 -4.95 15.35 -5.1 15.55 -5.85 15.4 Q-6.35 12.25 -6.45 9.05 L-8.55 8.7 -8.6 8.4 -8.6 8.35 -8.6 8.25 -8.55 8.15 -8.55 8.1 -8.5 8.0 -8.7 4.3 -8.9 4.35 Q-9.9 6.75 -12.45 6.0 L-13.05 5.7 -13.4 5.35 -13.45 5.25 -13.45 5.05 -13.4 4.9 -12.95 4.65 Q-12.7 4.6 -12.4 4.8 -11.75 5.55 -10.65 5.15 -10.2 4.25 -9.4 3.6 -9.1 3.35 -8.7 3.25 L-8.8 -2.25 -8.8 -2.3 -8.85 -2.0 -8.9 -1.9 -9.1 -1.85 Q-9.5 -0.9 -11.0 -0.65 -12.8 -0.4 -13.95 -1.85 L-14.35 -2.35 -14.45 -2.85 -14.45 -3.1 -14.4 -3.15 -14.3 -3.3 -14.25 -3.35 -14.0 -3.4 -14.0 -3.45 -11.9 -1.65 -11.1 -1.55 Q-10.0 -1.8 -9.75 -2.85 L-9.7 -3.0 -9.8 -4.7 -9.75 -4.95 -9.65 -5.05 -9.6 -5.1 -9.45 -5.2 -9.3 -5.25 -9.05 -5.15 -8.95 -5.1 -8.8 -4.15 -8.8 -5.1 -8.75 -6.65 -8.7 -6.75 -8.6 -6.9 -8.55 -6.9 -8.3 -7.0 -8.1 -6.9 -8.0 -6.85 Q-7.7 -1.65 -7.65 3.7 L-7.65 3.75 -7.65 4.1 -7.8 8.0 -7.75 8.0 -6.5 7.95 -6.5 4.5 -6.3 1.25 -6.3 1.2 -6.15 1.05 -6.1 1.05 -5.85 0.95 -5.7 1.05 -5.55 1.05 -5.3 12.0 -5.1 14.65 -5.0 14.75 -4.95 14.85 -4.9 14.9 M-12.55 -11.0 Q-11.7 -10.4 -10.7 -10.15 -11.7 -10.4 -12.55 -11.0 M-12.85 -8.75 L-12.7 -8.8 -8.7 -8.5 -8.55 -8.5 -8.4 -8.05 -8.4 -7.95 Q-8.55 -7.35 -9.1 -7.0 L-12.9 -7.05 -13.2 -7.1 -13.35 -7.45 -13.35 -7.5 -13.35 -7.55 -13.4 -7.6 -13.45 -7.65 -13.45 -7.95 -13.45 -8.3 -13.3 -8.5 -12.95 -8.7 -12.85 -8.75 M-3.9 -7.95 L-3.65 -8.1 -3.05 -8.25 -3.65 -8.1 -3.9 -7.95 M-9.65 9.1 L-9.45 9.0 -9.25 9.1 -9.15 9.15 -8.5 12.05 -8.1 12.8 -7.65 13.5 -7.65 13.65 -7.8 13.85 -8.5 13.9 Q-8.8 13.35 -9.25 12.9 -9.65 13.3 -10.4 13.5 -11.95 13.9 -13.2 13.2 -14.7 12.3 -14.4 10.95 L-14.1 10.85 -14.1 10.8 -13.95 10.9 -13.8 10.95 Q-13.3 12.0 -12.3 12.65 L-12.3 12.7 Q-10.7 12.75 -9.75 11.85 L-9.9 9.6 -9.9 9.3 -9.85 9.3 -9.75 9.15 -9.65 9.1 M-6.9 19.0 L-6.9 18.95 -6.6 19.05 -6.5 19.05 -6.4 19.3 -6.35 19.45 Q-6.45 19.95 -6.9 20.25 L-7.0 20.35 -7.15 20.7 -7.2 20.75 -7.1 20.85 Q-5.9 22.85 -6.0 25.35 L-6.1 26.4 -6.15 26.55 -6.6 26.65 -6.9 26.55 -7.2 23.75 -7.3 22.5 -7.45 22.2 -7.65 21.85 -9.4 19.9 -9.6 19.55 -9.9 19.4 -10.05 19.25 -10.1 19.05 -9.9 18.7 -9.85 18.65 -9.6 18.6 -7.9 20.0 -7.35 19.2 -7.15 19.05 -6.9 19.0" fill="#605030" fill-rule="evenodd" stroke="none"/>
    <path d="M-0.05 -5.4 L-1.8 -5.4 -2.05 -5.45 -2.2 -5.85 -2.25 -5.95 -2.25 -6.15 -2.3 -8.05 -2.3 -8.2 -2.35 -9.85 -0.05 -9.85 -0.05 -5.4" fill="#8858c8" fill-rule="evenodd" stroke="none"/>
    <path d="M4.05 28.55 L-4.8 28.55 -4.8 19.6 4.05 19.6 4.05 28.55 M2.55 -12.75 L2.9 -12.75 4.45 -12.8 4.95 -12.9 5.7 -12.9 6.8 -13.0 7.2 -13.05 8.55 -13.15 Q9.3 -13.2 9.35 -13.95 9.3 -13.2 8.55 -13.15 L7.2 -13.05 6.8 -13.0 6.8 -18.25 6.85 -18.25 8.55 -18.0 9.3 -17.85 Q9.6 -17.8 9.5 -17.2 L9.4 -16.25 Q9.25 -15.3 9.35 -14.2 L9.35 -13.95 9.6 -12.7 9.6 -11.75 9.6 -11.55 Q9.45 -10.7 8.65 -10.3 L8.6 -10.25 7.5 -10.05 7.45 -9.95 7.4 -9.9 6.45 -9.6 5.95 -9.45 5.75 -9.35 Q5.0 -8.9 4.75 -8.0 L4.65 -7.8 Q4.05 -7.2 3.75 -6.3 L3.5 -5.55 3.3 -4.85 3.15 -4.65 Q2.85 -4.45 2.7 -3.9 L2.6 -3.7 Q2.2 -2.95 1.25 -2.95 L-0.8 -3.0 -1.0 -3.05 Q-1.8 -3.05 -2.15 -3.45 -2.7 -4.05 -2.55 -5.2 L-2.25 -5.85 -2.2 -5.85 -2.05 -5.45 -1.8 -5.4 -0.05 -5.4 1.4 -5.45 1.6 -5.5 Q2.05 -5.55 2.2 -5.95 L2.25 -6.85 2.25 -7.95 2.15 -9.7 2.15 -9.85 2.1 -10.65 2.15 -11.4 2.25 -12.0 2.3 -12.3 Q2.25 -12.7 2.55 -12.75" fill="#283040" fill-rule="evenodd" stroke="none"/>
    <path d="M6.15 -37.35 Q6.95 -38.95 8.65 -39.0 L11.05 -39.1 12.2 -38.15 12.95 -37.35 6.15 -37.35" fill="url(#gradient0)" fill-rule="evenodd" stroke="none"/>
    <path d="M13.85 -35.75 L14.0 -35.35 Q12.1 -33.5 10.05 -33.4 7.75 -33.3 5.3 -35.35 L5.6 -35.75 13.85 -35.75" fill="url(#gradient1)" fill-rule="evenodd" stroke="none"/>
    <path d="M5.3 -35.35 Q7.75 -33.3 10.05 -33.4 9.95 -31.95 10.3 -30.9 L10.35 -30.7 10.4 -30.4 10.35 -30.25 10.35 -30.05 Q10.4 -27.85 10.7 -25.75 L10.35 -25.2 10.2 -24.9 10.1 -24.65 Q9.85 -24.2 9.3 -24.25 L7.9 -24.15 7.85 -24.45 7.75 -24.45 7.55 -24.55 7.4 -24.5 7.3 -24.45 7.2 -24.3 7.05 -24.15 7.05 -24.0 7.05 -23.65 6.75 -23.0 6.7 -22.65 Q6.75 -21.35 6.4 -20.55 L6.3 -20.2 6.4 -18.7 6.5 -18.3 6.3 -18.3 5.7 -18.3 5.55 -18.3 2.55 -18.5 2.55 -18.7 2.55 -18.75 Q2.55 -19.25 3.3 -19.15 L4.2 -19.05 Q5.2 -18.95 5.45 -19.5 L5.45 -20.1 5.35 -20.55 5.15 -22.95 4.95 -23.1 2.7 -23.3 2.15 -23.75 1.95 -28.25 3.05 -28.2 4.35 -28.25 Q4.95 -28.35 4.9 -28.6 4.75 -28.85 4.85 -29.4 L4.9 -29.75 4.9 -30.7 5.0 -31.2 5.15 -31.65 5.1 -35.35 5.3 -35.35" fill="url(#gradient2)" fill-rule="evenodd" stroke="none"/>
    <path d="M6.15 -37.35 L12.95 -37.35 13.85 -35.75 5.6 -35.75 5.7 -35.85 Q5.85 -36.75 6.15 -37.35" fill="url(#gradient3)" fill-rule="evenodd" stroke="none"/>
    <path d="M-14.35 -37.35 Q-12.7 -40.95 -7.2 -39.1 -6.4 -38.35 -6.15 -37.35 L-14.35 -37.35" fill="url(#gradient4)" fill-rule="evenodd" stroke="none"/>
    <path d="M-5.75 -8.45 L-5.85 -8.55 -6.3 -9.15 -6.8 -9.9 -7.0 -10.0 -7.4 -10.0 -7.35 -10.05 -7.3 -10.2 -7.3 -10.45 -7.35 -10.65 -7.45 -10.75 -7.55 -10.8 -12.25 -11.1 -12.45 -11.05 -12.55 -11.0 -13.35 -11.75 -14.25 -12.9 -14.65 -14.0 -14.75 -14.3 -14.95 -14.6 -15.1 -15.3 -15.2 -17.4 -15.15 -20.75 -15.15 -21.15 -15.05 -23.75 -15.0 -24.3 -14.6 -25.65 -14.55 -25.8 -13.95 -27.9 -13.85 -28.2 -13.45 -29.05 -13.3 -29.3 -13.1 -29.6 -12.9 -30.15 -12.9 -30.3 -12.75 -31.25 -12.65 -31.5 -12.35 -32.15 -12.15 -32.6 -11.1 -33.75 -10.95 -33.75 Q-8.25 -33.35 -5.7 -35.55 L-4.6 -35.5 -4.6 -29.75 -4.4 -28.5 -4.2 -28.45 -2.7 -28.4 -2.4 -28.3 Q-2.25 -28.1 -2.25 -27.7 L-2.35 -23.95 -2.3 -23.4 -2.25 -23.0 -6.1 -22.8 Q-6.65 -22.8 -6.55 -22.05 L-6.45 -21.15 -6.3 -19.65 Q-6.3 -19.5 -6.1 -19.5 L-4.2 -19.5 Q-3.5 -19.6 -3.35 -19.2 L-3.25 -18.9 Q-3.15 -18.5 -3.45 -18.45 L-3.85 -18.35 -4.4 -18.3 Q-4.85 -18.3 -4.8 -17.75 L-4.85 -15.5 -5.9 -15.3 -7.6 -15.05 -7.8 -15.0 -8.05 -14.85 -8.2 -14.55 Q-8.3 -13.85 -7.6 -13.95 L-3.45 -13.8 -2.7 -13.7 Q-2.15 -13.7 -2.25 -13.05 L-2.35 -11.95 -2.35 -9.85 -2.3 -8.2 -2.3 -8.05 -3.05 -8.25 -3.0 -9.45 -3.15 -9.45 -3.3 -9.55 -3.3 -9.5 -3.6 -9.45 -3.9 -8.65 -3.9 -7.95 -5.35 -8.15 -5.7 -8.4 -5.75 -8.45" fill="url(#gradient5)" fill-rule="evenodd" stroke="none"/>
    <path d="M-14.9 -35.55 L-14.85 -35.75 -5.8 -35.75 -5.7 -35.55 Q-8.25 -33.35 -10.95 -33.75 L-11.1 -33.75 Q-12.95 -34.1 -14.9 -35.55" fill="url(#gradient6)" fill-rule="evenodd" stroke="none"/>
    <path d="M-14.85 -35.75 L-14.8 -36.0 -14.35 -37.35 -6.15 -37.35 -6.1 -37.1 -5.8 -35.75 -14.85 -35.75" fill="url(#gradient7)" fill-rule="evenodd" stroke="none"/>
    <path d="M12.95 -37.35 L12.2 -38.15 11.05 -39.1 8.65 -39.0 Q6.95 -38.95 6.15 -37.35 L12.95 -37.35 13.85 -35.75 14.0 -35.35 Q14.7 -33.35 15.25 -29.95 16.35 -23.3 16.2 -13.9 16.0 -4.5 16.15 2.4 16.3 9.35 14.55 15.15 11.75 24.55 4.05 31.2 L4.05 28.55 -4.8 28.55 -4.8 32.0 -4.95 31.55 -5.25 31.15 Q-5.5 30.95 -5.65 30.9 L-5.85 30.65 -6.1 30.25 Q-12.0 23.05 -14.35 13.8 L-15.2 10.1 -16.4 3.5 -17.15 -2.75 Q-17.6 -7.65 -17.35 -12.45 -17.0 -20.9 -15.95 -29.3 -15.6 -32.5 -14.9 -35.55 L-14.85 -35.75 -14.8 -36.0 -14.35 -37.35 Q-12.7 -40.95 -7.2 -39.1 -6.4 -38.35 -6.15 -37.35 L-6.1 -37.1 -5.8 -35.75 -4.6 -35.75 -4.6 -37.05 M6.15 -37.35 Q5.85 -36.75 5.7 -35.85 L5.6 -35.75 13.85 -35.75 M5.6 -35.75 L5.3 -35.35 Q7.75 -33.3 10.05 -33.4 12.1 -33.5 14.0 -35.35 M5.3 -35.35 L5.1 -35.35 5.15 -31.65 5.0 -31.2 4.9 -30.7 4.9 -29.75 4.85 -29.4 Q4.75 -28.85 4.9 -28.6 4.95 -28.35 4.35 -28.25 L3.05 -28.2 1.95 -28.25 2.15 -23.75 2.7 -23.3 4.95 -23.1 5.15 -22.95 5.35 -20.55 5.45 -20.1 5.45 -19.5 Q5.2 -18.95 4.2 -19.05 L3.3 -19.15 Q2.55 -19.25 2.55 -18.75 L2.55 -18.7 2.55 -18.5 5.55 -18.3 5.7 -18.3 6.3 -18.3 6.5 -18.3 6.4 -18.7 6.3 -20.2 6.4 -20.55 Q6.75 -21.35 6.7 -22.65 L6.75 -23.0 7.05 -23.65 7.9 -24.15 9.3 -24.25 Q9.85 -24.2 10.1 -24.65 L10.2 -24.9 10.35 -25.2 10.7 -25.75 10.7 -25.8 10.65 -26.3 10.75 -26.55 10.8 -28.65 10.75 -28.95 Q10.5 -29.55 10.4 -30.4 L10.35 -30.7 10.3 -30.9 Q9.95 -31.95 10.05 -33.4 M-5.75 -8.45 L-5.85 -8.55 -6.3 -9.15 -6.8 -9.9 -7.0 -10.0 -7.4 -10.0 -9.05 -10.0 -10.7 -10.15 Q-11.7 -10.4 -12.55 -11.0 L-13.35 -11.75 -14.25 -12.9 -14.65 -14.0 -14.75 -14.3 -14.95 -14.6 -15.1 -15.3 -15.2 -17.4 -15.15 -20.75 -15.15 -21.15 -15.05 -23.75 -15.0 -24.3 -14.6 -25.65 -14.55 -25.8 -13.95 -27.9 -13.85 -28.2 -13.45 -29.05 -13.3 -29.3 -13.1 -29.6 -12.9 -30.15 -12.9 -30.3 -12.75 -31.25 -12.65 -31.5 -12.35 -32.15 -12.15 -32.6 -11.1 -33.75 Q-12.95 -34.1 -14.9 -35.55 M5.7 -12.9 L4.95 -12.9 4.45 -12.8 2.9 -12.75 2.55 -12.75 Q2.25 -12.7 2.3 -12.3 L2.25 -12.0 2.15 -11.4 2.1 -10.65 2.15 -9.85 2.15 -9.7 2.25 -7.95 2.25 -6.85 2.2 -5.95 Q2.05 -5.55 1.6 -5.5 L1.4 -5.45 -0.05 -5.4 -1.8 -5.4 -2.05 -5.45 -2.2 -5.85 -2.25 -5.95 -2.25 -6.15 -2.3 -8.05 -2.3 -8.2 -2.35 -9.85 -2.35 -11.95 -2.25 -13.05 Q-2.15 -13.7 -2.7 -13.7 L-3.45 -13.8 -7.6 -13.95 Q-8.3 -13.85 -8.2 -14.55 L-8.05 -14.85 -7.8 -15.0 -7.6 -15.05 -5.9 -15.3 -4.85 -15.5 -4.8 -17.75 Q-4.85 -18.3 -4.4 -18.3 L-3.85 -18.35 -3.45 -18.45 Q-3.15 -18.5 -3.25 -18.9 L-3.35 -19.2 Q-3.5 -19.6 -4.2 -19.5 L-6.1 -19.5 Q-6.3 -19.5 -6.3 -19.65 L-6.45 -21.15 -6.55 -22.05 Q-6.65 -22.8 -6.1 -22.8 L-2.25 -23.0 -2.3 -23.4 -2.35 -23.95 -2.25 -27.7 Q-2.25 -28.1 -2.4 -28.3 L-2.7 -28.4 -4.2 -28.45 -4.4 -28.5 -4.6 -29.75 -4.6 -35.5 -5.7 -35.55 Q-8.25 -33.35 -10.95 -33.75 L-11.1 -33.75 M-2.25 -5.85 L-2.55 -5.2 Q-2.7 -4.05 -2.15 -3.45 -1.8 -3.05 -1.0 -3.05 L-0.8 -3.0 1.25 -2.95 Q2.2 -2.95 2.6 -3.7 L2.7 -3.9 Q2.85 -4.45 3.15 -4.65 L3.3 -4.85 3.5 -5.55 3.75 -6.3 Q4.05 -7.2 4.65 -7.8 L4.75 -8.0 Q5.0 -8.9 5.75 -9.35 L5.95 -9.45 6.45 -9.6 7.4 -9.9 8.6 -10.25 8.65 -10.3 Q9.45 -10.7 9.6 -11.55 L9.6 -11.75 9.6 -12.7 9.35 -13.95 Q9.3 -13.2 8.55 -13.15 L7.2 -13.05 6.8 -13.0 5.7 -12.9 M9.35 -13.95 L9.35 -14.2 Q9.25 -15.3 9.4 -16.25 L9.5 -17.2 Q9.6 -17.8 9.3 -17.85 L8.55 -18.0 6.85 -18.25 6.8 -18.25 6.5 -18.3 M-5.0 14.75 L-5.0 1.4 4.0 1.4 4.0 14.9 -4.9 14.9 M4.05 28.55 L4.05 19.6 -4.8 19.6 -4.8 28.55 M5.6 -35.75 L-4.6 -35.75 -4.6 -35.5 5.1 -35.35 M-5.7 -35.55 L-5.8 -35.75 -14.85 -35.75 M-6.15 -37.35 L-14.35 -37.35 M-3.05 -8.25 L-2.3 -8.05 M-3.05 -8.25 L-3.65 -8.1 -3.9 -7.95 -5.35 -8.15 -5.7 -8.4 -5.75 -8.45 M-2.25 -5.85 L-2.2 -5.85" fill="none" stroke="#000000" stroke-linecap="round" stroke-linejoin="round" stroke-width="1.0"/>
  </g>
  <defs>
    <linearGradient gradientTransform="matrix(0.0042, 0.0, 0.0, 0.0011, 9.55, -38.25)" gradientUnits="userSpaceOnUse" id="gradient0" spreadMethod="pad" x1="-819.2" x2="819.2">
      <stop offset="0.0" stop-color="#283040"/>
      <stop offset="0.5215686274509804" stop-color="#a8b8b0"/>
      <stop offset="1.0" stop-color="#000000"/>
    </linearGradient>
    <linearGradient gradientTransform="matrix(0.0053, 0.0, 0.0, 0.0014, 9.65, -34.6)" gradientUnits="userSpaceOnUse" id="gradient1" spreadMethod="pad" x1="-819.2" x2="819.2">
      <stop offset="0.0" stop-color="#283040"/>
      <stop offset="0.5215686274509804" stop-color="#a8b8b0"/>
      <stop offset="1.0" stop-color="#000000"/>
    </linearGradient>
    <linearGradient gradientTransform="matrix(0.0053, 0.0, 0.0, 0.0104, 6.3, -26.85)" gradientUnits="userSpaceOnUse" id="gradient2" spreadMethod="pad" x1="-819.2" x2="819.2">
      <stop offset="0.0" stop-color="#101010"/>
      <stop offset="0.4" stop-color="#786860"/>
      <stop offset="0.788235294117647" stop-color="#98a49c"/>
      <stop offset="1.0" stop-color="#a8b8b0"/>
    </linearGradient>
    <linearGradient gradientTransform="matrix(0.005, 0.0, 0.0, 0.001, 9.7, -36.6)" gradientUnits="userSpaceOnUse" id="gradient3" spreadMethod="pad" x1="-819.2" x2="819.2">
      <stop offset="0.0" stop-color="#101010"/>
      <stop offset="0.5215686274509804" stop-color="#586870"/>
      <stop offset="1.0" stop-color="#000000"/>
    </linearGradient>
    <linearGradient gradientTransform="matrix(0.005, 0.0, 0.0, 0.0014, -10.25, -38.6)" gradientUnits="userSpaceOnUse" id="gradient4" spreadMethod="pad" x1="-819.2" x2="819.2">
      <stop offset="0.0" stop-color="#283040"/>
      <stop offset="0.5215686274509804" stop-color="#a8b8b0"/>
      <stop offset="1.0" stop-color="#000000"/>
    </linearGradient>
    <linearGradient gradientTransform="matrix(0.0079, 0.0, 0.0, 0.0168, -8.75, -21.75)" gradientUnits="userSpaceOnUse" id="gradient5" spreadMethod="pad" x1="-819.2" x2="819.2">
      <stop offset="0.0" stop-color="#101010"/>
      <stop offset="0.4" stop-color="#786860"/>
      <stop offset="0.788235294117647" stop-color="#98a49c"/>
      <stop offset="1.0" stop-color="#a8b8b0"/>
    </linearGradient>
    <linearGradient gradientTransform="matrix(0.0056, 0.0, 0.0, 0.0013, -10.3, -34.7)" gradientUnits="userSpaceOnUse" id="gradient6" spreadMethod="pad" x1="-819.2" x2="819.2">
      <stop offset="0.0" stop-color="#283040"/>
      <stop offset="0.5215686274509804" stop-color="#a8b8b0"/>
      <stop offset="1.0" stop-color="#000000"/>
    </linearGradient>
    <linearGradient gradientTransform="matrix(0.0055, 0.0, 0.0, 0.001, -10.35, -36.6)" gradientUnits="userSpaceOnUse" id="gradient7" spreadMethod="pad" x1="-819.2" x2="819.2">
      <stop offset="0.0" stop-color="#101010"/>
      <stop offset="0.5215686274509804" stop-color="#586870"/>
      <stop offset="1.0" stop-color="#000000"/>
    </linearGradient>
  </defs>
</svg>
