<?xml version="1.0" encoding="UTF-8" standalone="no"?>
<svg xmlns:ffdec="https://www.free-decompiler.com/flash" xmlns:xlink="http://www.w3.org/1999/xlink" ffdec:objectType="shape" height="79.85px" width="66.35px" xmlns="http://www.w3.org/2000/svg">
  <g transform="matrix(1.0, 0.0, 0.0, 1.0, 32.5, 32.85)">
    <path d="M21.15 -28.8 L23.1 -30.9 23.75 -31.3 25.05 -30.6 26.35 -27.8 Q28.4 -20.4 28.25 -12.55 27.8 7.8 33.3 27.15 35.3 34.1 30.25 36.6 L28.2 35.9 Q22.8 34.3 22.6 40.25 22.5 43.4 20.8 45.95 19.6 47.8 17.6 46.45 11.75 42.35 5.65 44.85 3.0 46.0 0.6 44.3 -4.65 40.35 -8.3 46.0 -12.2 46.1 -14.2 43.0 -16.15 40.05 -15.2 36.65 -13.1 28.85 -15.7 27.4 -18.75 31.8 -22.0 33.95 -25.25 36.05 -27.15 36.8 -33.15 39.4 -32.4 32.6 L-31.85 27.85 Q-29.5 10.5 -29.75 -6.9 -29.8 -9.2 -30.45 -11.25 -33.55 -20.6 -26.05 -25.65 -26.7 -31.15 -21.45 -30.95 -19.25 -30.5 -16.95 -31.0 -15.15 -31.45 -13.45 -31.0 -9.55 -29.65 -5.7 -31.05 -2.3 -32.4 1.35 -31.6 6.35 -30.25 11.15 -32.15 17.4 -34.55 21.15 -28.8" fill="url(#gradient0)" fill-rule="evenodd" stroke="none"/>
    <path d="M1.55 -27.25 Q2.0 -27.2 2.35 -27.55 L4.2 -29.2 Q5.25 -29.0 6.2 -28.25 L7.1 -27.55 Q8.25 -26.35 9.75 -26.9 L11.35 -28.1 13.0 -30.25 Q14.55 -30.4 15.1 -28.6 15.8 -26.3 17.05 -24.3 L18.2 -22.65 Q18.5 -22.2 19.2 -22.05 20.9 -24.15 22.0 -26.8 23.5 -22.75 23.7 -18.25 -1.3 36.0 -24.3 -18.25 -24.1 -22.75 -22.6 -26.8 -21.55 -24.15 -19.8 -22.05 -19.1 -22.2 -18.8 -22.65 L-17.65 -24.3 Q-16.45 -26.3 -15.7 -28.6 -15.15 -30.4 -13.6 -30.25 L-11.95 -28.1 Q-11.25 -27.3 -10.35 -26.9 -8.9 -26.35 -7.7 -27.55 L-6.8 -28.25 Q-5.9 -29.0 -4.8 -29.2 L-2.95 -27.55 Q-2.6 -27.2 -2.15 -27.25 L-2.05 -27.35 Q-1.5 -28.05 -0.3 -28.1 0.85 -28.05 1.45 -27.35 L1.55 -27.25" fill="#908860" fill-rule="evenodd" stroke="none"/>
    <path d="M24.0 -18.65 L23.9 -17.1 Q22.75 -4.4 24.1 8.3 24.65 13.7 20.85 16.35 16.9 19.2 11.85 18.9 5.95 18.35 0.0 18.8 -5.95 18.35 -11.85 18.9 -16.9 19.2 -20.85 16.35 -24.65 13.7 -24.05 8.3 -22.75 -4.4 -23.85 -17.1 L-24.0 -18.65 0.0 -18.9 24.0 -18.65" fill="#36501a" fill-rule="evenodd" stroke="none"/>
    <path d="M24.0 -18.65 L23.9 -17.1 Q22.75 -4.4 24.1 8.3 24.65 13.7 20.85 16.35 16.9 19.2 11.85 18.9 5.95 18.35 0.0 18.8 -5.95 18.35 -11.85 18.9 -16.9 19.2 -20.85 16.35 -24.65 13.7 -24.05 8.3 -22.75 -4.4 -23.85 -17.1 L-24.0 -18.65 0.0 -18.9 24.0 -18.65 Z" fill="none" stroke="#000000" stroke-linecap="round" stroke-linejoin="round" stroke-width="1.0"/>
    <path d="M3.15 -14.65 L3.15 -15.25 3.75 -15.4 4.65 -15.75 10.9 -16.0 13.2 -15.4 13.9 -15.0 14.7 -14.4 Q16.65 -12.55 17.75 -9.95 L17.85 -9.55 17.9 -8.5 Q18.6 -4.35 18.2 -0.05 L17.8 1.85 17.2 3.85 16.85 4.9 15.85 7.0 13.6 10.6 13.2 11.25 12.6 12.3 Q11.7 14.2 9.9 15.5 L9.1 15.9 3.1 16.15 2.9 14.95 2.8 9.85 7.15 8.55 Q7.5 9.3 8.25 9.8 L10.55 9.95 12.75 8.5 13.2 7.95 Q13.6 7.05 13.2 5.45 12.85 4.1 11.9 2.25 10.4 1.05 8.4 1.25 L8.4 0.25 8.45 -2.7 Q10.85 -3.2 12.2 -5.2 13.4 -6.95 12.6 -8.9 11.9 -10.8 10.25 -11.9 7.9 -12.55 6.25 -11.05 L4.95 -12.9 4.25 -13.45 3.9 -13.8 3.15 -14.65 M-2.75 9.85 L-2.9 14.95 -3.1 16.15 -9.1 15.9 -9.9 15.5 Q-11.7 14.2 -12.6 12.3 L-13.6 10.6 -15.8 7.0 -16.8 4.9 -17.2 3.85 -17.75 1.85 -18.15 -0.05 Q-18.55 -4.35 -17.9 -8.5 L-17.8 -9.55 -17.7 -9.95 Q-16.65 -12.55 -14.65 -14.4 L-13.85 -15.0 Q-12.55 -15.8 -10.85 -16.0 L-4.65 -15.75 -3.7 -15.4 -3.15 -15.25 -3.15 -14.65 -3.85 -13.8 -4.2 -13.45 -4.9 -12.9 -6.2 -11.05 Q-7.9 -12.55 -10.25 -11.9 -11.85 -10.8 -12.6 -8.9 -13.35 -6.95 -12.2 -5.2 -10.85 -3.2 -8.4 -2.7 L-8.35 0.25 -8.35 1.25 Q-10.35 1.05 -11.9 2.25 -14.4 7.2 -12.7 8.5 L-10.55 9.95 -8.2 9.8 -7.1 8.55 -2.75 9.85" fill="#707870" fill-rule="evenodd" stroke="none"/>
    <path d="M6.25 -11.05 Q7.9 -12.55 10.25 -11.9 11.9 -10.8 12.6 -8.9 13.4 -6.95 12.2 -5.2 10.85 -3.2 8.45 -2.7 8.9 -6.1 7.45 -9.05 L6.8 -10.15 6.25 -11.05 M8.4 1.25 Q10.4 1.05 11.9 2.25 12.85 4.1 13.2 5.45 13.6 7.05 13.2 7.95 L12.75 8.5 10.55 9.95 8.25 9.8 Q7.5 9.3 7.15 8.55 8.35 7.8 8.35 6.45 8.3 3.85 8.4 1.25 M-8.4 -2.7 Q-10.85 -3.2 -12.2 -5.2 -13.35 -6.95 -12.6 -8.9 -11.85 -10.8 -10.25 -11.9 -7.9 -12.55 -6.2 -11.05 L-6.8 -10.15 -7.4 -9.05 Q-8.9 -6.1 -8.4 -2.7 M-8.35 1.25 L-8.3 6.45 Q-8.3 7.8 -7.1 8.55 L-8.2 9.8 -10.55 9.95 -12.7 8.5 Q-14.4 7.2 -11.9 2.25 -10.35 1.05 -8.35 1.25" fill="#a8a888" fill-rule="evenodd" stroke="none"/>
    <path d="M4.55 -7.85 L4.65 -7.8 4.35 -2.3 Q4.35 -1.85 4.05 -1.55 3.75 -1.3 3.4 -1.35 L0.0 -1.3 Q-1.7 -1.55 -3.35 -1.35 -3.75 -1.3 -4.0 -1.55 L-4.35 -2.3 -4.6 -7.8 -4.5 -7.85 -4.4 -7.95 0.0 -7.9 4.4 -7.95 4.55 -7.85 M0.0 -6.65 L-2.0 -6.65 Q-2.2 -6.7 -2.2 -6.4 -2.05 -5.15 -2.2 -4.05 L-2.15 -3.2 -2.0 -3.15 0.0 -3.0 2.05 -3.15 2.15 -3.2 2.25 -4.05 Q2.1 -5.15 2.2 -6.4 L2.05 -6.65 0.0 -6.65" fill="#d0c8c0" fill-rule="evenodd" stroke="none"/>
    <path d="M0.0 -6.65 L2.05 -6.65 2.2 -6.4 Q2.1 -5.15 2.25 -4.05 L2.15 -3.2 2.05 -3.15 0.0 -3.0 -2.0 -3.15 -2.15 -3.2 -2.2 -4.05 Q-2.05 -5.15 -2.2 -6.4 -2.2 -6.7 -2.0 -6.65 L0.0 -6.65" fill="#101010" fill-rule="evenodd" stroke="none"/>
    <path d="M1.6 2.05 L1.3 1.5 -1.3 1.5 -1.55 2.05 Q-3.9 0.4 -6.75 0.3 L-8.35 0.25 -8.4 -2.7 Q-8.9 -6.1 -7.4 -9.05 L-6.8 -10.15 -6.2 -11.05 -4.9 -12.9 -4.2 -13.45 -3.85 -13.8 -3.15 -14.65 -2.55 -12.55 2.6 -12.55 3.15 -14.65 3.9 -13.8 4.25 -13.45 4.95 -12.9 6.25 -11.05 6.8 -10.15 7.45 -9.05 Q8.9 -6.1 8.45 -2.7 L8.4 0.25 6.75 0.3 Q3.95 0.4 1.6 2.05 M4.55 -7.85 L4.4 -7.95 0.0 -7.9 -4.4 -7.95 -4.5 -7.85 -4.6 -7.8 -4.35 -2.3 -4.0 -1.55 Q-3.75 -1.3 -3.35 -1.35 -1.7 -1.55 0.0 -1.3 L3.4 -1.35 Q3.75 -1.3 4.05 -1.55 4.35 -1.85 4.35 -2.3 L4.65 -7.8 4.55 -7.85" fill="url(#gradient1)" fill-rule="evenodd" stroke="none"/>
    <path d="M2.8 9.85 L2.6 9.25 1.85 7.7 Q0.85 5.95 1.3 4.0 L1.45 3.8 Q1.95 3.0 1.6 2.05 3.95 0.4 6.75 0.3 L8.4 0.25 8.4 1.25 Q8.3 3.85 8.35 6.45 8.35 7.8 7.15 8.55 L2.8 9.85" fill="url(#gradient2)" fill-rule="evenodd" stroke="none"/>
    <path d="M-1.55 2.05 Q-1.9 3.0 -1.4 3.8 L-1.25 4.0 Q-0.85 5.95 -1.85 7.7 L-2.6 9.25 -2.75 9.85 -7.1 8.55 Q-8.3 7.8 -8.3 6.45 L-8.35 1.25 -8.35 0.25 -6.75 0.3 Q-3.9 0.4 -1.55 2.05" fill="url(#gradient3)" fill-rule="evenodd" stroke="none"/>
    <path d="M5.0 -26.0 L5.0 -21.0 -5.0 -21.0 -5.0 -26.0 5.0 -26.0" fill="#2c302c" fill-rule="evenodd" stroke="none"/>
    <path d="M3.15 -14.65 L3.15 -15.25 3.75 -15.4 4.65 -15.75 10.9 -16.0 13.2 -15.4 13.9 -15.0 14.7 -14.4 Q16.65 -12.55 17.75 -9.95 L17.85 -9.55 17.9 -8.5 Q18.6 -4.35 18.2 -0.05 L17.8 1.85 17.2 3.85 16.85 4.9 15.85 7.0 13.6 10.6 13.2 11.25 12.6 12.3 Q11.7 14.2 9.9 15.5 L9.1 15.9 3.1 16.15 2.9 14.95 2.8 9.85 2.6 9.25 1.85 7.7 Q0.85 5.95 1.3 4.0 L1.45 3.8 Q1.95 3.0 1.6 2.05 L1.3 1.5 -1.3 1.5 -1.55 2.05 Q-1.9 3.0 -1.4 3.8 L-1.25 4.0 Q-0.85 5.95 -1.85 7.7 L-2.6 9.25 -2.75 9.85 -2.9 14.95 -3.1 16.15 -9.1 15.9 -9.9 15.5 Q-11.7 14.2 -12.6 12.3 L-13.6 10.6 -15.8 7.0 -16.8 4.9 -17.2 3.85 -17.75 1.85 -18.15 -0.05 Q-18.55 -4.35 -17.9 -8.5 L-17.8 -9.55 -17.7 -9.95 Q-16.65 -12.55 -14.65 -14.4 L-13.85 -15.0 Q-12.55 -15.8 -10.85 -16.0 L-4.65 -15.75 -3.7 -15.4 -3.15 -15.25 -3.15 -14.65 -2.55 -12.55 2.6 -12.55 3.15 -14.65 3.9 -13.8 4.25 -13.45 4.95 -12.9 6.25 -11.05 Q7.9 -12.55 10.25 -11.9 11.9 -10.8 12.6 -8.9 13.4 -6.95 12.2 -5.2 10.85 -3.2 8.45 -2.7 L8.4 0.25 8.4 1.25 Q10.4 1.05 11.9 2.25 12.85 4.1 13.2 5.45 13.6 7.05 13.2 7.95 L12.75 8.5 10.55 9.95 8.25 9.8 Q7.5 9.3 7.15 8.55 L2.8 9.85 M6.25 -11.05 L6.8 -10.15 7.45 -9.05 Q8.9 -6.1 8.45 -2.7 M5.0 -21.0 L-5.0 -21.0 M8.4 0.25 L6.75 0.3 Q3.95 0.4 1.6 2.05 M7.15 8.55 Q8.35 7.8 8.35 6.45 8.3 3.85 8.4 1.25 M-6.2 -11.05 L-4.9 -12.9 -4.2 -13.45 -3.85 -13.8 -3.15 -14.65 M-6.2 -11.05 Q-7.9 -12.55 -10.25 -11.9 -11.85 -10.8 -12.6 -8.9 -13.35 -6.95 -12.2 -5.2 -10.85 -3.2 -8.4 -2.7 -8.9 -6.1 -7.4 -9.05 L-6.8 -10.15 -6.2 -11.05 M-1.55 2.05 Q-3.9 0.4 -6.75 0.3 L-8.35 0.25 -8.35 1.25 -8.3 6.45 Q-8.3 7.8 -7.1 8.55 L-2.75 9.85 M-8.35 1.25 Q-10.35 1.05 -11.9 2.25 -14.4 7.2 -12.7 8.5 L-10.55 9.95 -8.2 9.8 -7.1 8.55 M-8.35 0.25 L-8.4 -2.7" fill="none" stroke="#000000" stroke-linecap="round" stroke-linejoin="round" stroke-width="1.0"/>
    <path d="M-5.0 -26.0 L5.0 -26.0" fill="none" stroke="#e8f0e8" stroke-linecap="round" stroke-linejoin="round" stroke-width="1.0"/>
    <path d="M-5.0 -21.0 L-5.0 -26.0" fill="none" stroke="#283040" stroke-linecap="round" stroke-linejoin="round" stroke-width="1.0"/>
    <path d="M5.0 -26.0 L5.0 -21.0" fill="none" stroke="#485048" stroke-linecap="round" stroke-linejoin="round" stroke-width="1.0"/>
  </g>
  <defs>
    <radialGradient cx="0" cy="0" gradientTransform="matrix(0.0601, 0.0, 0.0, 0.0601, 2.25, 1.5)" gradientUnits="userSpaceOnUse" id="gradient0" r="819.2" spreadMethod="pad">
      <stop offset="0.24705882352941178" stop-color="#a8b0b0"/>
      <stop offset="0.6039215686274509" stop-color="#485850"/>
      <stop offset="1.0" stop-color="#283040" stop-opacity="0.5019608"/>
    </radialGradient>
    <linearGradient gradientTransform="matrix(0.0104, 0.0, 0.0, 0.0102, 0.0, -6.3)" gradientUnits="userSpaceOnUse" id="gradient1" spreadMethod="pad" x1="-819.2" x2="819.2">
      <stop offset="0.0" stop-color="#101010"/>
      <stop offset="0.1843137254901961" stop-color="#707870"/>
      <stop offset="0.4470588235294118" stop-color="#707870"/>
      <stop offset="0.803921568627451" stop-color="#283040"/>
    </linearGradient>
    <linearGradient gradientTransform="matrix(0.0044, 0.0, 0.0, 0.0059, 4.75, 5.05)" gradientUnits="userSpaceOnUse" id="gradient2" spreadMethod="pad" x1="-819.2" x2="819.2">
      <stop offset="0.0" stop-color="#101010"/>
      <stop offset="0.3176470588235294" stop-color="#b0b8b0"/>
      <stop offset="0.5490196078431373" stop-color="#b0b8b0"/>
      <stop offset="1.0" stop-color="#283040"/>
    </linearGradient>
    <linearGradient gradientTransform="matrix(-0.0044, 0.0, 0.0, -0.0059, -4.75, 5.05)" gradientUnits="userSpaceOnUse" id="gradient3" spreadMethod="pad" x1="-819.2" x2="819.2">
      <stop offset="0.0" stop-color="#101010"/>
      <stop offset="0.3176470588235294" stop-color="#b0b8b0"/>
      <stop offset="0.5490196078431373" stop-color="#b0b8b0"/>
      <stop offset="1.0" stop-color="#283040"/>
    </linearGradient>
  </defs>
</svg>
