<?xml version="1.0" encoding="UTF-8" standalone="no"?>
<svg xmlns:ffdec="https://www.free-decompiler.com/flash" xmlns:xlink="http://www.w3.org/1999/xlink" ffdec:objectType="shape" height="74.7px" width="139.0px" xmlns="http://www.w3.org/2000/svg">
  <g transform="matrix(1.0, 0.0, 0.0, 1.0, 64.75, 33.6)">
    <path d="M1.1 -16.1 L18.9 -16.1 18.9 -20.25 25.25 -20.25 25.25 -22.4 31.25 -22.4 31.25 -23.1 73.85 -23.1 73.85 0.15 71.25 0.15 71.25 20.4 65.25 20.4 65.25 22.65 74.25 22.65 74.25 41.05 25.25 41.05 25.25 38.5 21.65 38.5 19.9 41.1 12.05 41.1 10.0 39.0 7.95 41.1 0.1 41.1 -1.65 38.5 -5.25 38.5 -5.25 41.05 -54.25 41.05 -54.25 22.65 -45.25 22.65 -45.25 20.4 -51.25 20.4 -51.25 0.15 -53.85 0.15 -53.85 -23.1 -11.25 -23.1 -11.25 -22.4 -5.25 -22.4 -5.25 -20.25 1.1 -20.25 1.1 -16.1 M21.4 -1.05 L21.45 -1.05 21.4 -1.05" fill="#000000" fill-opacity="0.5019608" fill-rule="evenodd" stroke="none"/>
    <path d="M25.65 -26.1 L25.65 -28.2 41.8 -28.2 41.8 -26.1 41.8 -23.5 39.6 -23.5 39.6 -25.3 34.95 -25.3 32.45 -25.3 27.5 -25.3 27.5 -23.5 25.65 -23.5 25.65 -26.1 M15.25 -26.1 L21.25 -26.1 21.25 -23.5 21.25 -18.1 15.25 -18.1 15.25 -26.1 M0.0 -6.95 L-5.0 -0.05 0.0 6.9 5.0 -0.05 0.0 -6.95 M3.95 -9.05 L9.0 -4.05 9.0 4.0 4.0 8.95 -3.95 8.95 -8.95 4.0 -8.95 -4.05 -3.95 -9.05 3.95 -9.05 M17.65 2.05 L15.35 2.05 15.35 -3.2 17.65 -3.2 21.35 -3.2 21.35 2.05 17.65 2.05 M37.65 -3.0 L37.65 -5.55 43.65 -5.55 43.65 -3.0 43.65 0.45 37.65 0.45 37.65 -3.0 M-41.8 -26.1 L-41.8 -28.2 -25.65 -28.2 -25.65 -26.1 -25.65 -23.5 -27.5 -23.5 -27.5 -25.3 -32.45 -25.3 -34.95 -25.3 -32.45 -25.3 -32.45 -23.5 -34.95 -23.5 -34.95 -25.3 -39.6 -25.3 -39.6 -23.5 -41.8 -23.5 -41.8 -26.1 M-21.25 -18.1 L-21.25 -23.5 -21.25 -26.1 -15.25 -26.1 -15.25 -18.1 -21.25 -18.1 M-43.65 0.45 L-43.65 -3.0 -43.65 -5.55 -37.65 -5.55 -37.65 -3.0 -37.65 0.45 -43.65 0.45 M-21.35 2.05 L-24.8 2.05 -27.35 2.05 -27.35 -3.2 -24.8 -3.2 -21.35 -3.2 -21.35 2.05" fill="#b0a8a8" fill-rule="evenodd" stroke="none"/>
    <path d="M25.65 -26.1 L21.25 -26.1 21.25 -32.4 21.25 -33.1 63.85 -33.1 63.85 -26.1 41.8 -26.1 41.8 -28.2 25.65 -28.2 25.65 -26.1 M-63.85 -26.1 L-63.85 -33.1 -21.25 -33.1 -21.25 -32.4 -21.25 -26.1 -25.65 -26.1 -25.65 -28.2 -41.8 -28.2 -41.8 -26.1 -63.85 -26.1" fill="#485850" fill-rule="evenodd" stroke="none"/>
    <path d="M15.25 -30.25 L15.25 -26.1 8.9 -26.1 8.9 -30.25 15.25 -30.25 M55.25 17.25 L55.25 12.65 64.25 12.65 64.25 17.25 64.25 25.4 47.35 25.4 47.35 23.15 55.25 23.15 55.25 17.25 64.25 17.25 55.25 17.25 M55.25 10.4 L55.25 -9.85 55.25 -18.1 55.25 -23.5 63.85 -26.1 63.85 -9.85 61.25 -9.85 61.25 10.4 55.25 10.4 M55.25 -9.85 L61.25 -9.85 55.25 -9.85 M-64.25 25.4 L-64.25 17.25 -64.25 12.65 -55.25 12.65 -55.25 17.25 -55.25 23.15 -47.35 23.15 -47.35 25.4 -64.25 25.4 M-55.25 10.4 L-61.25 10.4 -61.25 -9.85 -63.85 -9.85 -63.85 -26.1 -55.25 -23.5 -55.25 -18.1 -55.25 -9.85 -61.25 -9.85 -55.25 -9.85 -55.25 10.4 M-15.25 -30.25 L-8.9 -30.25 -8.9 -26.1 -15.25 -26.1 -15.25 -30.25 M-64.25 17.25 L-55.25 17.25 -64.25 17.25" fill="#283848" fill-rule="evenodd" stroke="none"/>
    <path d="M15.25 -18.1 L21.25 -18.1 23.8 -18.1 36.8 -18.1 55.25 -18.1 55.25 -9.85 55.25 10.4 55.25 12.65 55.25 17.25 52.65 17.25 36.8 17.25 36.8 15.05 42.2 15.05 42.2 8.45 42.2 15.05 36.8 15.05 36.8 17.25 23.8 17.25 23.8 15.05 23.8 13.15 36.8 13.15 36.8 15.05 36.8 13.15 23.8 13.15 23.8 15.05 23.8 17.25 11.65 17.25 0.0 17.25 -11.65 17.25 -23.8 17.25 -36.8 17.25 -36.8 15.05 -36.8 17.25 -52.65 17.25 -55.25 17.25 -55.25 12.65 -55.25 10.4 -55.25 -9.85 -55.25 -18.1 -36.8 -18.1 -23.8 -18.1 -21.25 -18.1 -15.25 -18.1 15.25 -18.1 M11.4 -11.05 L3.95 -11.05 3.95 -9.05 -3.95 -9.05 -3.95 -11.05 3.95 -11.05 3.95 -14.1 -3.95 -14.1 -3.95 -11.05 -11.4 -11.05 -11.45 11.0 -4.0 10.95 4.0 10.95 -4.0 10.95 -4.0 14.0 3.9 14.0 3.9 10.95 -4.0 10.95 -4.0 8.95 -3.95 8.95 4.0 8.95 4.0 10.95 11.45 11.0 11.45 -11.05 11.4 -11.05 M17.65 -7.5 L13.35 -7.5 13.35 6.5 17.65 6.5 24.8 6.5 29.35 6.5 29.35 -7.5 24.8 -7.5 17.65 -7.5 M42.2 -7.55 L42.2 -13.75 36.8 -13.75 36.8 -18.1 36.8 -13.75 42.2 -13.75 42.2 -7.55 32.75 -7.55 32.75 -3.0 32.75 4.15 32.75 8.45 42.2 8.45 48.75 8.45 48.75 4.15 48.75 -3.0 48.75 -7.55 42.2 -7.55 M36.8 -13.75 L36.8 -11.85 23.8 -11.85 23.8 -13.75 23.8 -18.1 23.8 -13.75 23.8 -11.85 36.8 -11.85 36.8 -13.75 M16.3 -13.75 L23.8 -13.75 16.3 -13.75 M23.8 15.05 L16.3 15.05 23.8 15.05 M-48.7 -3.0 L-48.7 4.15 -48.7 8.45 -42.2 8.45 -32.7 8.45 -32.7 4.15 -32.7 -3.0 -32.7 -7.55 -42.2 -7.55 -48.7 -7.55 -48.7 -3.0 M-42.2 -7.55 L-42.2 -13.75 -36.8 -13.75 -36.8 -11.85 -23.8 -11.85 -23.8 -13.75 -16.3 -13.75 -23.8 -13.75 -23.8 -11.85 -36.8 -11.85 -36.8 -13.75 -42.2 -13.75 -42.2 -7.55 M-36.8 -13.75 L-36.8 -18.1 -36.8 -13.75 M-23.8 -13.75 L-23.8 -18.1 -23.8 -13.75 M-17.65 -7.5 L-24.8 -7.5 -29.35 -7.5 -29.35 6.5 -24.8 6.5 -17.65 6.5 -13.35 6.5 -13.35 -7.5 -17.65 -7.5 M-16.3 15.05 L-23.8 15.05 -23.8 13.15 -36.8 13.15 -36.8 15.05 -42.2 15.05 -42.2 8.45 -42.2 15.05 -36.8 15.05 -36.8 13.15 -23.8 13.15 -23.8 15.05 -16.3 15.05 M-23.8 15.05 L-23.8 17.25 -23.8 15.05" fill="#a09890" fill-rule="evenodd" stroke="none"/>
    <path d="M21.25 -32.4 L21.25 -26.1 25.65 -26.1 25.65 -23.5 21.25 -23.5 25.65 -23.5 27.5 -23.5 32.45 -23.5 34.95 -23.5 39.6 -23.5 41.8 -23.5 41.8 -26.1 63.85 -26.1 55.25 -23.5 55.25 -18.1 36.8 -18.1 23.8 -18.1 21.25 -18.1 21.25 -23.5 21.25 -26.1 15.25 -26.1 15.25 -30.25 15.25 -32.4 21.25 -32.4 M11.4 -11.05 L9.0 -9.05 3.95 -9.05 3.95 -11.05 11.4 -11.05 M-8.95 -4.05 L-8.95 4.0 -8.95 8.95 -11.45 11.0 -11.4 -11.05 -3.95 -11.05 -3.95 -14.1 3.95 -14.1 3.95 -11.05 -3.95 -11.05 -3.95 -9.05 -8.95 -9.05 -8.95 -4.05 M41.8 -23.5 L55.25 -23.5 41.8 -23.5 M-21.25 -32.4 L-15.25 -32.4 -15.25 -30.25 -15.25 -26.1 -21.25 -26.1 -21.25 -23.5 -21.25 -18.1 -23.8 -18.1 -36.8 -18.1 -55.25 -18.1 -55.25 -23.5 -41.8 -23.5 -55.25 -23.5 -63.85 -26.1 -41.8 -26.1 -41.8 -23.5 -39.6 -23.5 -34.95 -23.5 -32.45 -23.5 -27.5 -23.5 -25.65 -23.5 -25.65 -26.1 -21.25 -26.1 -21.25 -32.4 M3.9 10.95 L3.9 14.0 -4.0 14.0 -4.0 10.95 3.9 10.95 M-25.65 -23.5 L-21.25 -23.5 -25.65 -23.5 M-11.4 -11.05 L-8.95 -9.05 -11.4 -11.05" fill="#707870" fill-rule="evenodd" stroke="none"/>
    <path d="M17.65 -3.2 L15.35 -3.2 15.35 2.05 17.65 2.05 17.65 6.5 17.65 2.05 21.35 2.05 24.8 2.05 27.35 2.05 27.35 -3.2 24.8 -3.2 24.8 -7.5 24.8 -3.2 21.35 -3.2 17.65 -3.2 17.65 -7.5 17.65 -3.2 M17.65 6.5 L13.35 6.5 13.35 -7.5 17.65 -7.5 24.8 -7.5 29.35 -7.5 29.35 6.5 24.8 6.5 24.8 2.05 24.8 6.5 17.65 6.5 M42.2 -7.55 L48.75 -7.55 48.75 -3.0 48.75 4.15 48.75 8.45 42.2 8.45 32.75 8.45 32.75 4.15 32.75 -3.0 32.75 -7.55 42.2 -7.55 M43.65 -3.0 L43.65 -5.55 37.65 -5.55 37.65 -3.0 32.75 -3.0 37.65 -3.0 37.65 0.45 37.65 4.15 32.75 4.15 37.65 4.15 37.65 6.45 43.65 6.45 43.65 4.15 43.65 0.45 43.65 -3.0 48.75 -3.0 43.65 -3.0 M64.25 28.5 L64.25 31.05 15.25 31.05 15.25 28.5 64.25 28.5 M-15.25 28.5 L-15.25 31.05 -64.25 31.05 -64.25 28.5 -15.25 28.5 M48.75 4.15 L43.65 4.15 48.75 4.15 M-48.7 -3.0 L-43.65 -3.0 -48.7 -3.0 -48.7 -7.55 -42.2 -7.55 -32.7 -7.55 -32.7 -3.0 -37.65 -3.0 -32.7 -3.0 -32.7 4.15 -32.7 8.45 -42.2 8.45 -48.7 8.45 -48.7 4.15 -48.7 -3.0 M-43.65 4.15 L-48.7 4.15 -43.65 4.15 -43.65 6.45 -37.65 6.45 -37.65 4.15 -37.65 0.45 -37.65 -3.0 -37.65 -5.55 -43.65 -5.55 -43.65 -3.0 -43.65 0.45 -43.65 4.15 M-21.35 -3.2 L-24.8 -3.2 -27.35 -3.2 -27.35 2.05 -24.8 2.05 -21.35 2.05 -17.65 2.05 -15.35 2.05 -15.35 -3.2 -17.65 -3.2 -21.35 -3.2 M-17.65 -7.5 L-17.65 -3.2 -17.65 -7.5 -13.35 -7.5 -13.35 6.5 -17.65 6.5 -24.8 6.5 -29.35 6.5 -29.35 -7.5 -24.8 -7.5 -17.65 -7.5 M-24.8 -3.2 L-24.8 -7.5 -24.8 -3.2 M-17.65 6.5 L-17.65 2.05 -17.65 6.5 M-24.8 6.5 L-24.8 2.05 -24.8 6.5 M-37.65 4.15 L-32.7 4.15 -37.65 4.15" fill="#283040" fill-rule="evenodd" stroke="none"/>
    <path d="M8.9 -26.1 L15.25 -26.1 15.25 -18.1 -15.25 -18.1 -15.25 -26.1 -8.9 -26.1 8.9 -26.1 M9.0 -9.05 L11.4 -11.05 11.45 -11.05 11.45 11.0 4.0 10.95 4.0 8.95 9.0 8.95 9.0 4.0 9.0 -4.05 9.0 -9.05 M-4.0 10.95 L-11.45 11.0 -8.95 8.95 -4.0 8.95 -4.0 10.95 M21.35 2.05 L21.35 -3.2 24.8 -3.2 27.35 -3.2 27.35 2.05 24.8 2.05 21.35 2.05 M52.65 17.25 L55.25 17.25 55.25 23.15 47.35 23.15 45.35 23.15 45.0 25.4 36.35 25.4 36.35 23.15 34.35 23.15 34.35 25.4 25.35 25.4 25.35 23.15 23.35 23.15 23.35 25.4 17.1 25.4 17.1 23.15 15.1 23.15 15.1 20.9 52.7 20.9 52.65 17.25 M37.65 0.45 L43.65 0.45 43.65 4.15 43.65 6.45 37.65 6.45 37.65 4.15 37.65 0.45 M11.45 11.0 L9.0 8.95 11.45 11.0 M-43.65 4.15 L-43.65 0.45 -37.65 0.45 -37.65 4.15 -37.65 6.45 -43.65 6.45 -43.65 4.15 M-21.35 2.05 L-21.35 -3.2 -17.65 -3.2 -15.35 -3.2 -15.35 2.05 -17.65 2.05 -21.35 2.05 M-52.65 17.25 L-52.7 20.9 -15.1 20.9 -15.1 23.15 -17.1 23.15 -17.1 25.4 -23.35 25.4 -23.35 23.15 -25.35 23.15 -25.35 25.4 -34.35 25.4 -34.35 23.15 -36.35 23.15 -36.35 25.4 -45.35 25.4 -45.35 23.15 -47.35 23.15 -55.25 23.15 -55.25 17.25 -52.65 17.25" fill="#485048" fill-rule="evenodd" stroke="none"/>
    <path d="M27.5 -23.5 L27.5 -25.3 32.45 -25.3 32.45 -23.5 27.5 -23.5 M34.95 -25.3 L39.6 -25.3 39.6 -23.5 34.95 -23.5 34.95 -25.3 M-39.6 -23.5 L-39.6 -25.3 -34.95 -25.3 -34.95 -23.5 -39.6 -23.5 M-32.45 -25.3 L-27.5 -25.3 -27.5 -23.5 -32.45 -23.5 -32.45 -25.3" fill="#282c28" fill-rule="evenodd" stroke="none"/>
    <path d="M3.95 -9.05 L9.0 -9.05 9.0 -4.05 3.95 -9.05 M-3.95 -9.05 L-8.95 -4.05 -8.95 -9.05 -3.95 -9.05 M-8.95 4.0 L-3.95 8.95 -4.0 8.95 -8.95 8.95 -8.95 4.0 M4.0 8.95 L9.0 4.0 9.0 8.95 4.0 8.95 M8.65 23.1 L8.65 27.1 2.65 27.1 2.65 23.1 8.65 23.1 M-8.65 23.1 L-2.65 23.1 -2.65 27.1 -8.65 27.1 -8.65 23.1" fill="#101010" fill-rule="evenodd" stroke="none"/>
    <path d="M36.8 17.25 L52.65 17.25 52.7 20.9 15.1 20.9 15.1 23.15 17.1 23.15 17.1 25.4 23.35 25.4 23.35 23.15 25.35 23.15 25.35 25.4 34.35 25.4 34.35 23.15 36.35 23.15 36.35 25.4 45.0 25.4 45.35 23.15 47.35 23.15 47.35 25.4 64.25 25.4 64.25 28.5 15.25 28.5 11.65 28.5 11.65 17.25 23.8 17.25 36.8 17.25 M-11.65 28.5 L-15.25 28.5 -64.25 28.5 -64.25 25.4 -47.35 25.4 -47.35 23.15 -45.35 23.15 -45.35 25.4 -36.35 25.4 -36.35 23.15 -34.35 23.15 -34.35 25.4 -25.35 25.4 -25.35 23.15 -23.35 23.15 -23.35 25.4 -17.1 25.4 -17.1 23.15 -15.1 23.15 -15.1 20.9 -52.7 20.9 -52.65 17.25 -36.8 17.25 -23.8 17.25 -11.65 17.25 -11.65 28.5" fill="#202010" fill-rule="evenodd" stroke="none"/>
    <path d="M11.65 28.5 L9.9 31.1 2.05 31.1 0.0 29.0 -2.05 31.1 -9.9 31.1 -11.65 28.5 -11.65 17.25 0.0 17.25 11.65 17.25 11.65 28.5 M8.65 23.1 L2.65 23.1 2.65 27.1 8.65 27.1 8.65 23.1 M0.0 29.0 L0.0 17.25 0.0 29.0 M-8.65 23.1 L-8.65 27.1 -2.65 27.1 -2.65 23.1 -8.65 23.1" fill="#303840" fill-rule="evenodd" stroke="none"/>
    <path d="M21.25 -32.4 L21.25 -26.1 25.65 -26.1 25.65 -28.2 41.8 -28.2 41.8 -26.1 63.85 -26.1 63.85 -33.1 21.25 -33.1 21.25 -32.4 15.25 -32.4 15.25 -30.25 15.25 -26.1 21.25 -26.1 21.25 -23.5 25.65 -23.5 25.65 -26.1 M27.5 -23.5 L27.5 -25.3 32.45 -25.3 34.95 -25.3 39.6 -25.3 39.6 -23.5 41.8 -23.5 41.8 -26.1 M8.9 -26.1 L15.25 -26.1 15.25 -18.1 21.25 -18.1 21.25 -23.5 M8.9 -26.1 L8.9 -30.25 15.25 -30.25 M9.0 -9.05 L11.4 -11.05 3.95 -11.05 3.95 -9.05 9.0 -9.05 9.0 -4.05 3.95 -9.05 -3.95 -9.05 -8.95 -4.05 -8.95 4.0 -3.95 8.95 4.0 8.95 9.0 4.0 9.0 -4.05 M11.4 -11.05 L11.45 -11.05 11.45 11.0 4.0 10.95 -4.0 10.95 -11.45 11.0 -11.4 -11.05 -3.95 -11.05 -3.95 -14.1 3.95 -14.1 3.95 -11.05 -3.95 -11.05 -3.95 -9.05 -8.95 -9.05 -8.95 -4.05 M11.45 -11.05 L11.4 -11.05 M17.65 2.05 L15.35 2.05 15.35 -3.2 17.65 -3.2 17.65 -7.5 13.35 -7.5 13.35 6.5 17.65 6.5 17.65 2.05 21.35 2.05 21.35 -3.2 17.65 -3.2 M42.2 -7.55 L48.75 -7.55 48.75 -3.0 48.75 4.15 48.75 8.45 42.2 8.45 32.75 8.45 32.75 4.15 37.65 4.15 37.65 0.45 43.65 0.45 43.65 -3.0 48.75 -3.0 M36.8 17.25 L52.65 17.25 55.25 17.25 55.25 12.65 55.25 10.4 55.25 -9.85 55.25 -18.1 36.8 -18.1 23.8 -18.1 21.25 -18.1 M39.6 -23.5 L34.95 -23.5 32.45 -23.5 27.5 -23.5 25.65 -23.5 M24.8 6.5 L29.35 6.5 29.35 -7.5 24.8 -7.5 24.8 -3.2 27.35 -3.2 27.35 2.05 24.8 2.05 24.8 6.5 17.65 6.5 M21.35 -3.2 L24.8 -3.2 M37.65 -3.0 L37.65 -5.55 43.65 -5.55 43.65 -3.0 M32.75 -3.0 L37.65 -3.0 37.65 0.45 M42.2 -7.55 L32.75 -7.55 32.75 -3.0 32.75 4.15 M24.8 -7.5 L17.65 -7.5 M34.95 -23.5 L34.95 -25.3 M32.45 -25.3 L32.45 -23.5 M55.25 -18.1 L55.25 -23.5 41.8 -23.5 M63.85 -26.1 L63.85 -9.85 61.25 -9.85 61.25 10.4 55.25 10.4 M63.85 -26.1 L55.25 -23.5 M61.25 -9.85 L55.25 -9.85 M55.25 12.65 L64.25 12.65 64.25 17.25 64.25 25.4 64.25 28.5 64.25 31.05 15.25 31.05 15.25 28.5 11.65 28.5 9.9 31.1 2.05 31.1 0.0 29.0 -2.05 31.1 -9.9 31.1 -11.65 28.5 -15.25 28.5 -15.25 31.05 -64.25 31.05 -64.25 28.5 -64.25 25.4 -64.25 17.25 -64.25 12.65 -55.25 12.65 -55.25 10.4 -61.25 10.4 -61.25 -9.85 -63.85 -9.85 -63.85 -26.1 -63.85 -33.1 -21.25 -33.1 -21.25 -32.4 -15.25 -32.4 -15.25 -30.25 -8.9 -30.25 -8.9 -26.1 8.9 -26.1 M43.65 0.45 L43.65 4.15 48.75 4.15 M37.65 4.15 L37.65 6.45 43.65 6.45 43.65 4.15 M52.65 17.25 L52.7 20.9 15.1 20.9 15.1 23.15 17.1 23.15 17.1 25.4 23.35 25.4 23.35 23.15 25.35 23.15 25.35 25.4 34.35 25.4 34.35 23.15 36.35 23.15 36.35 25.4 45.0 25.4 45.35 23.15 47.35 23.15 55.25 23.15 55.25 17.25 64.25 17.25 M47.35 23.15 L47.35 25.4 64.25 25.4 M21.35 2.05 L24.8 2.05 M23.8 17.25 L36.8 17.25 M9.0 4.0 L9.0 8.95 11.45 11.0 M4.0 10.95 L4.0 8.95 9.0 8.95 M8.65 23.1 L8.65 27.1 2.65 27.1 2.65 23.1 8.65 23.1 M-4.0 10.95 L-4.0 14.0 3.9 14.0 3.9 10.95 M11.65 17.25 L0.0 17.25 0.0 29.0 M23.8 17.25 L11.65 17.25 11.65 28.5 M64.25 28.5 L15.25 28.5 M-25.65 -26.1 L-25.65 -28.2 -41.8 -28.2 -41.8 -26.1 -41.8 -23.5 -39.6 -23.5 -39.6 -25.3 -34.95 -25.3 -32.45 -25.3 -27.5 -25.3 -27.5 -23.5 -25.65 -23.5 -25.65 -26.1 -21.25 -26.1 -21.25 -32.4 M-41.8 -23.5 L-55.25 -23.5 -55.25 -18.1 -36.8 -18.1 -23.8 -18.1 -21.25 -18.1 -21.25 -23.5 -25.65 -23.5 M-55.25 -9.85 L-55.25 -18.1 M-43.65 -3.0 L-48.7 -3.0 -48.7 4.15 -43.65 4.15 -43.65 0.45 -43.65 -3.0 -43.65 -5.55 -37.65 -5.55 -37.65 -3.0 -32.7 -3.0 -32.7 -7.55 -42.2 -7.55 -48.7 -7.55 -48.7 -3.0 M-61.25 -9.85 L-55.25 -9.85 -55.25 10.4 M-41.8 -26.1 L-63.85 -26.1 -55.25 -23.5 M-15.25 -26.1 L-15.25 -30.25 M-15.25 -26.1 L-8.9 -26.1 M-39.6 -23.5 L-34.95 -23.5 -34.95 -25.3 M-34.95 -23.5 L-32.45 -23.5 -32.45 -25.3 M-21.35 -3.2 L-24.8 -3.2 -27.35 -3.2 -27.35 2.05 -24.8 2.05 -21.35 2.05 -21.35 -3.2 -17.65 -3.2 -17.65 -7.5 -24.8 -7.5 -24.8 -3.2 M-17.65 -7.5 L-13.35 -7.5 -13.35 6.5 -17.65 6.5 -24.8 6.5 -29.35 6.5 -29.35 -7.5 -24.8 -7.5 M-27.5 -23.5 L-32.45 -23.5 M-21.35 2.05 L-17.65 2.05 -15.35 2.05 -15.35 -3.2 -17.65 -3.2 M-8.95 -9.05 L-11.4 -11.05 M-21.25 -18.1 L-15.25 -18.1 -15.25 -26.1 -21.25 -26.1 -21.25 -23.5 M-4.0 8.95 L-4.0 10.95 M-4.0 8.95 L-8.95 8.95 -11.45 11.0 M-8.95 4.0 L-8.95 8.95 M-3.95 8.95 L-4.0 8.95 M-17.65 2.05 L-17.65 6.5 M-52.65 17.25 L-52.7 20.9 -15.1 20.9 -15.1 23.15 -17.1 23.15 -17.1 25.4 -23.35 25.4 -23.35 23.15 -25.35 23.15 -25.35 25.4 -34.35 25.4 -34.35 23.15 -36.35 23.15 -36.35 25.4 -45.35 25.4 -45.35 23.15 -47.35 23.15 -47.35 25.4 -64.25 25.4 M-8.65 23.1 L-8.65 27.1 -2.65 27.1 -2.65 23.1 -8.65 23.1 M-24.8 2.05 L-24.8 6.5 M-32.7 -3.0 L-32.7 4.15 -32.7 8.45 -42.2 8.45 -48.7 8.45 -48.7 4.15 M-43.65 4.15 L-43.65 6.45 -37.65 6.45 -37.65 4.15 -37.65 0.45 -43.65 0.45 M-32.7 4.15 L-37.65 4.15 M-36.8 17.25 L-23.8 17.25 -11.65 17.25 -11.65 28.5 M-55.25 12.65 L-55.25 17.25 -52.65 17.25 -36.8 17.25 M-47.35 23.15 L-55.25 23.15 -55.25 17.25 -64.25 17.25 M-15.25 28.5 L-64.25 28.5 M-37.65 0.45 L-37.65 -3.0 M0.0 17.25 L-11.65 17.25 M15.25 -18.1 L-15.25 -18.1" fill="none" stroke="#000000" stroke-linecap="round" stroke-linejoin="round" stroke-width="1.0"/>
    <path d="M36.8 -18.1 L36.8 -13.75 42.2 -13.75 42.2 -7.55 M42.2 8.45 L42.2 15.05 36.8 15.05 36.8 17.25 M23.8 -18.1 L23.8 -13.75 23.8 -11.85 36.8 -11.85 36.8 -13.75 M23.8 -13.75 L16.3 -13.75 M36.8 15.05 L36.8 13.15 23.8 13.15 23.8 15.05 23.8 17.25 M16.3 15.05 L23.8 15.05 M-16.3 -13.75 L-23.8 -13.75 -23.8 -11.85 -36.8 -11.85 -36.8 -13.75 -42.2 -13.75 -42.2 -7.55 M-23.8 -18.1 L-23.8 -13.75 M-36.8 -18.1 L-36.8 -13.75 M-42.2 8.45 L-42.2 15.05 -36.8 15.05 -36.8 13.15 -23.8 13.15 -23.8 15.05 -16.3 15.05 M-36.8 15.05 L-36.8 17.25 M-23.8 17.25 L-23.8 15.05" fill="none" stroke="#485048" stroke-linecap="round" stroke-linejoin="round" stroke-width="1.0"/>
  </g>
</svg>
