<?xml version="1.0" encoding="UTF-8" standalone="no"?>
<svg xmlns:ffdec="https://www.free-decompiler.com/flash" xmlns:xlink="http://www.w3.org/1999/xlink" ffdec:objectType="shape" height="18.55px" width="18.55px" xmlns="http://www.w3.org/2000/svg">
  <g transform="matrix(1.0, 0.0, 0.0, 1.0, 8.5, 8.5)">
    <path d="M8.2 -2.3 Q13.05 4.25 5.15 10.05 L-1.05 10.05 Q-8.95 4.25 -4.1 -2.3 -1.3 -6.15 1.9 -5.95 5.4 -6.15 8.2 -2.3" fill="#000000" fill-opacity="0.5019608" fill-rule="evenodd" stroke="none"/>
    <path d="M-0.15 -8.0 Q3.35 -8.2 6.15 -4.35 11.0 2.2 3.1 8.0 L-3.1 8.0 Q-11.0 2.2 -6.15 -4.35 -3.35 -8.2 -0.15 -8.0" fill="#888880" fill-rule="evenodd" stroke="none"/>
    <path d="M-0.15 -8.0 Q3.35 -8.2 6.15 -4.35 11.0 2.2 3.1 8.0 L-3.1 8.0 Q-11.0 2.2 -6.15 -4.35 -3.35 -8.2 -0.15 -8.0 Z" fill="none" stroke="#40474b" stroke-linecap="round" stroke-linejoin="round" stroke-width="1.0"/>
  </g>
</svg>
