<?xml version="1.0" encoding="UTF-8" standalone="no"?>
<svg xmlns:ffdec="https://www.free-decompiler.com/flash" xmlns:xlink="http://www.w3.org/1999/xlink" ffdec:objectType="shape" height="74.05px" width="68.0px" xmlns="http://www.w3.org/2000/svg">
  <g transform="matrix(1.0, 0.0, 0.0, 1.0, 34.0, 37.05)">
    <path d="M28.75 -36.75 L28.75 -36.85 Q29.9 -37.25 28.75 -36.75 M28.3 -36.4 L28.05 -36.4 28.05 -36.65 28.3 -36.65 28.3 -36.4 28.5 -36.4 28.5 -36.65 28.6 -36.4 28.5 -36.4 28.3 -36.2 28.3 -36.4 M27.85 -36.4 L27.6 -36.2 27.6 -35.95 27.85 -35.95 27.85 -35.75 27.6 -35.75 27.6 -35.95 27.4 -35.95 27.4 -36.2 27.6 -36.2 27.6 -36.4 27.85 -36.4 M28.3 -35.75 L28.3 -35.95 Q29.05 -35.9 28.5 -35.25 L28.3 -35.75 M28.5 -35.25 L28.6 -35.0 28.5 -35.0 28.75 -34.35 Q28.7 -34.5 28.8 -34.45 29.65 -35.25 29.65 -34.35 L29.85 -34.1 29.85 -33.9 29.4 -33.9 28.75 -34.35 28.65 -34.35 Q27.7 -34.0 28.5 -35.0 L28.5 -35.25 M29.85 -34.35 L31.2 -34.1 29.85 -32.75 29.65 -32.75 29.65 -32.5 28.05 -32.5 28.05 -32.75 29.4 -33.45 29.4 -33.65 Q28.75 -33.75 29.2 -33.9 L29.4 -33.9 29.4 -33.65 29.65 -33.65 29.65 -33.45 29.4 -33.45 29.65 -33.35 29.65 -33.45 29.85 -33.65 29.85 -33.9 29.95 -33.9 29.85 -34.1 29.85 -34.35 M31.65 -34.1 L31.9 -33.9 32.1 -33.9 32.1 -33.65 31.9 -33.65 31.9 -33.9 31.65 -33.9 31.65 -34.1 M32.35 -33.9 L33.0 -33.65 32.1 -33.65 32.35 -33.9 M32.55 -33.0 L32.55 -32.75 32.8 -32.75 32.8 -32.5 32.55 -32.5 32.55 -32.75 32.35 -32.75 32.35 -32.5 32.35 -32.25 32.55 -32.25 32.35 -32.05 32.35 -32.25 32.1 -32.25 32.1 -32.05 32.35 -31.35 Q33.35 -31.8 32.5 -31.2 L32.35 -31.15 32.35 -31.35 32.1 -31.35 32.1 -31.15 32.1 -30.9 31.9 -30.9 31.9 -31.15 31.9 -31.35 32.1 -31.35 31.9 -31.6 31.9 -31.8 31.65 -32.05 31.65 -32.25 32.35 -32.75 32.35 -33.0 32.55 -33.0 M33.0 -32.5 L32.8 -32.25 32.8 -32.5 33.0 -32.5 M32.35 -30.9 Q32.35 -29.8 31.7 -28.95 31.05 -28.15 30.1 -28.15 L29.65 -27.7 29.4 -27.95 30.1 -28.15 30.75 -28.6 30.85 -28.6 30.75 -28.85 31.9 -30.25 32.1 -30.45 32.1 -30.7 32.1 -30.9 32.35 -30.9 M29.4 -27.7 L28.95 -27.5 28.75 -27.25 28.75 -27.5 28.95 -27.5 28.95 -27.7 Q28.85 -28.1 29.4 -27.95 L29.4 -27.7 M28.5 -27.25 L28.05 -26.1 27.85 -26.55 27.6 -26.3 27.6 -26.55 27.85 -26.55 27.85 -26.75 28.05 -27.0 28.5 -27.25 M27.85 -26.1 L27.4 -25.2 27.1 -25.2 27.1 -24.95 26.45 -25.85 24.85 -24.95 24.8 -24.75 Q24.65 -24.2 24.4 -24.75 L24.85 -24.95 26.55 -26.1 26.45 -25.85 27.6 -26.1 27.85 -26.1 M23.95 -24.5 L23.75 -24.25 23.75 -24.5 23.95 -24.5 M23.75 -24.0 L23.85 -24.0 Q23.75 -23.35 23.3 -23.8 L23.05 -23.55 23.05 -23.8 23.3 -23.8 23.75 -24.0 M22.85 -23.55 L22.6 -23.35 22.6 -23.15 Q22.65 -22.75 22.15 -22.9 L22.6 -23.35 22.6 -23.55 22.85 -23.55 M21.7 -22.45 L21.65 -22.25 Q21.45 -21.5 21.05 -22.0 L21.7 -22.45 M20.6 -21.5 L20.35 -21.25 20.35 -21.5 20.6 -21.5 M20.15 -21.25 L19.9 -21.05 19.7 -20.8 19.7 -21.05 19.9 -21.05 19.9 -21.25 19.45 -21.25 19.25 -21.05 19.25 -21.25 19.45 -21.25 19.5 -21.4 Q20.65 -22.25 19.9 -21.25 L20.15 -21.25 M19.45 -20.6 L19.6 -20.55 Q19.7 -20.25 19.25 -20.35 L19.0 -20.15 19.0 -20.35 19.25 -20.35 19.25 -20.6 19.45 -20.6 M18.8 -20.15 L18.55 -19.9 18.35 -19.7 18.1 -19.45 17.9 -19.25 17.65 -19.0 17.65 -19.25 17.9 -19.25 17.9 -19.45 17.65 -19.45 17.65 -19.7 17.45 -19.7 17.45 -19.45 17.2 -19.45 17.2 -19.7 17.45 -19.7 17.45 -19.9 17.65 -19.9 17.65 -19.7 17.9 -19.7 17.9 -19.45 18.1 -19.45 18.1 -19.7 18.35 -19.7 18.35 -19.9 18.55 -19.9 18.55 -20.15 18.8 -20.15 M17.45 -19.0 L17.2 -18.75 17.2 -19.0 17.45 -19.0 M16.3 -17.85 L16.1 -17.6 15.8 -17.4 15.6 -17.15 15.35 -16.95 15.35 -17.15 15.6 -17.15 15.6 -17.4 15.8 -17.4 15.8 -17.6 16.1 -17.6 16.1 -17.85 15.8 -17.85 15.8 -18.05 15.6 -18.05 15.6 -17.85 15.35 -17.85 15.35 -18.05 15.6 -18.05 15.6 -18.3 15.8 -18.3 15.8 -18.5 16.1 -18.5 16.3 -18.75 16.3 -19.0 16.55 -19.0 16.55 -18.75 16.3 -18.75 16.3 -18.5 16.1 -18.5 16.1 -18.3 16.3 -18.3 16.3 -18.5 16.55 -18.5 16.3 -18.3 16.1 -18.05 16.1 -17.85 16.3 -17.85 M13.1 -14.85 L12.9 -14.65 12.65 -14.4 12.45 -14.2 12.2 -13.95 12.0 -13.75 12.0 -13.95 12.2 -13.95 12.2 -14.2 12.45 -14.2 12.45 -14.4 12.65 -14.4 12.65 -14.65 12.9 -14.65 12.9 -14.85 12.65 -14.85 12.65 -15.1 12.9 -15.1 12.9 -15.3 12.65 -15.3 12.65 -15.1 12.45 -15.1 12.2 -15.1 12.2 -15.3 12.45 -15.55 12.45 -15.75 12.65 -15.75 12.9 -15.55 12.9 -15.3 13.1 -15.3 12.9 -15.1 12.9 -14.85 13.1 -14.85 M11.3 -13.5 L11.3 -13.75 10.85 -13.5 10.2 -13.0 9.95 -12.8 9.75 -12.8 9.75 -12.55 8.85 -10.5 8.9 -10.75 Q9.15 -11.1 8.4 -11.45 L9.75 -12.8 9.75 -13.0 9.5 -13.0 9.5 -13.25 9.75 -13.25 9.75 -13.5 9.95 -13.5 9.95 -13.75 10.2 -13.75 9.95 -13.5 9.75 -13.25 9.75 -13.0 10.2 -13.0 10.65 -13.75 10.85 -13.5 10.85 -13.75 11.55 -14.4 11.75 -14.4 11.75 -14.2 11.55 -14.2 11.55 -13.95 11.3 -13.95 11.3 -13.75 11.55 -13.75 11.55 -13.95 11.75 -13.95 11.75 -13.75 11.55 -13.75 11.55 -13.5 11.3 -13.5 M8.6 -10.5 L8.4 -10.25 8.4 -10.5 8.6 -10.5 M8.15 -10.05 L7.95 -9.8 7.7 -9.6 7.5 -9.35 Q6.45 -8.25 7.15 -9.35 L7.25 -9.35 7.5 -9.35 7.5 -9.6 7.7 -9.6 7.7 -9.8 7.95 -9.8 7.95 -10.05 8.15 -10.05 M7.5 -9.8 L7.5 -10.05 7.25 -10.05 7.25 -10.25 7.5 -10.25 7.5 -10.5 7.7 -10.5 7.7 -10.25 7.5 -10.25 7.5 -10.05 7.7 -10.05 7.7 -9.8 7.5 -9.8 M7.05 -9.8 L6.8 -9.6 6.6 -9.35 6.35 -9.15 6.15 -8.9 5.9 -8.7 5.7 -8.45 5.25 -8.0 5.0 -7.75 4.8 -7.5 4.55 -7.3 4.3 -7.05 4.05 -6.85 3.85 -6.6 3.6 -6.6 3.6 -6.85 3.85 -6.85 4.05 -6.85 4.05 -7.05 4.3 -7.05 4.3 -7.3 4.55 -7.3 4.55 -7.5 4.8 -7.5 4.8 -7.75 5.0 -7.75 5.0 -8.0 5.25 -8.0 5.25 -8.25 5.25 -8.45 5.45 -8.45 5.7 -8.45 5.7 -8.7 5.9 -8.7 5.9 -8.9 5.7 -8.9 5.7 -8.7 5.45 -8.7 5.45 -8.9 5.25 -8.9 5.25 -9.15 5.45 -9.15 5.45 -8.9 5.7 -8.9 5.7 -9.15 5.9 -9.15 5.9 -9.35 6.15 -9.35 6.15 -9.15 5.9 -9.15 5.9 -8.9 6.15 -8.9 6.15 -9.15 6.35 -9.15 6.35 -9.35 6.6 -9.35 6.6 -9.6 6.8 -9.6 6.8 -9.8 6.6 -9.8 6.6 -10.05 6.8 -10.05 6.8 -9.8 7.05 -9.8 M3.15 -5.7 L3.15 -5.5 3.4 -5.5 3.4 -5.25 3.6 -5.25 3.6 -5.5 3.85 -5.5 3.85 -5.7 3.6 -5.7 3.6 -5.95 3.85 -5.95 3.85 -5.7 4.05 -5.7 3.85 -5.5 3.6 -5.25 3.4 -5.0 3.4 -5.25 3.15 -5.25 3.15 -5.5 2.95 -5.5 2.7 -5.25 2.7 -5.0 2.5 -5.25 2.7 -5.25 2.7 -5.5 2.95 -5.5 2.95 -5.7 2.7 -5.7 2.7 -5.5 2.5 -5.5 2.5 -5.7 2.7 -5.7 2.7 -5.95 2.95 -5.95 2.95 -5.7 3.15 -5.7 M4.05 -6.15 L4.05 -6.4 4.3 -6.4 5.25 -7.3 5.25 -7.05 4.55 -6.4 4.3 -6.4 4.3 -6.15 4.05 -6.15 M5.45 -7.5 L5.55 -7.3 5.45 -7.3 5.45 -7.5 M4.3 -5.95 L4.05 -5.7 4.05 -5.95 4.3 -5.95 M3.4 -4.75 L2.95 -3.2 2.95 -2.75 3.4 -2.0 5.7 0.95 3.15 -1.8 3.4 -2.0 3.15 -2.0 2.7 -2.5 2.95 -2.75 2.7 -2.75 2.95 -3.2 2.95 -4.55 2.7 -4.55 2.5 -4.55 2.5 -4.3 2.45 -4.2 Q2.05 -4.3 2.5 -4.55 L2.7 -5.0 3.15 -5.0 3.15 -4.75 2.95 -4.75 2.95 -4.55 3.15 -4.55 3.15 -4.75 3.4 -4.75 M6.15 1.2 Q6.3 0.55 6.4 1.45 L6.15 1.2 M7.05 2.3 L7.2 2.35 7.25 2.55 7.05 2.3 M8.85 4.15 L9.05 4.4 8.85 4.4 8.85 4.6 9.05 4.6 9.05 4.85 9.3 4.85 9.3 4.6 9.5 4.85 9.3 4.85 9.75 5.5 9.5 5.5 9.05 4.85 8.85 4.6 8.75 4.55 8.85 4.4 8.85 4.15 M9.95 5.3 L10.2 5.5 10.85 6.25 11.1 6.45 11.3 7.15 12.0 7.8 11.75 7.75 Q11.35 7.65 11.3 7.15 L9.75 5.8 9.95 5.8 10.2 5.5 9.95 5.5 9.95 5.3 M13.55 9.45 L13.8 9.65 14.25 10.1 14.25 10.55 14.25 10.8 13.55 9.9 13.45 9.8 13.55 9.65 13.55 9.45 M14.45 10.35 L15.15 10.8 14.9 10.8 14.9 11.0 15.15 11.0 15.6 11.5 15.8 11.75 Q16.3 11.55 16.3 11.95 L16.3 12.2 16.75 12.4 16.3 12.4 16.3 12.65 16.1 12.4 16.3 12.4 16.3 12.2 16.1 12.2 15.8 11.95 15.8 11.75 15.6 11.75 15.6 11.5 15.15 11.5 14.9 11.3 14.9 11.0 14.7 11.0 14.45 10.8 14.45 10.55 14.45 10.35 M16.75 12.85 L17.0 12.85 17.0 12.65 17.2 12.85 17.3 13.1 17.2 13.1 17.2 13.3 17.0 13.1 16.75 12.85 M17.45 13.55 L17.65 13.75 17.9 14.05 19.0 14.95 19.45 15.4 Q20.05 15.5 20.3 15.85 L20.35 16.05 20.35 16.3 19.9 16.05 19.85 16.25 Q19.7 16.7 19.45 16.05 L18.55 15.85 18.35 16.05 18.35 16.3 18.1 16.05 18.35 16.05 18.35 15.85 18.55 15.85 18.35 15.7 18.35 15.85 18.1 15.85 17.9 15.7 17.9 15.85 17.2 14.7 17.45 14.7 17.65 14.95 17.9 15.15 18.1 15.25 18.1 15.15 18.35 15.15 18.8 15.15 19.0 15.25 19.0 15.15 19.0 14.95 18.8 14.95 18.35 14.95 18.1 14.95 17.9 14.7 17.65 14.25 17.9 14.05 17.65 14.05 17.65 13.75 17.45 13.75 17.45 13.55 M20.35 18.15 L20.6 18.35 20.7 18.35 Q20.75 19.15 20.35 18.6 L20.15 18.35 20.35 18.35 20.35 18.6 20.6 18.35 20.35 18.35 20.35 18.15 M19.25 17.9 L19.0 17.9 19.0 18.15 18.95 18.05 Q18.65 17.35 19.25 17.9 M19.45 18.8 Q20.45 18.9 19.95 19.55 19.85 19.6 19.9 19.75 L19.45 18.8 M26.2 26.6 L26.45 26.85 26.65 27.05 26.9 27.5 Q27.75 27.6 27.35 27.95 L27.1 28.0 26.9 27.8 26.9 27.5 26.65 27.5 26.45 27.3 26.2 27.05 26.0 26.85 25.55 26.85 25.55 27.05 25.75 27.3 25.55 27.3 25.6 27.45 Q26.3 28.15 25.3 27.8 L25.3 28.0 25.1 27.8 25.3 27.8 25.1 27.5 24.85 27.3 24.85 27.05 25.1 27.05 25.3 27.05 25.3 26.85 25.1 26.85 25.1 26.6 24.85 26.6 24.85 26.4 24.65 26.4 24.65 26.15 24.4 26.15 24.4 26.4 24.2 26.4 24.2 26.15 23.95 26.15 23.75 26.15 23.75 25.95 23.75 25.7 23.95 25.7 24.2 25.95 24.2 26.15 24.4 26.15 24.4 25.95 24.65 26.15 24.85 26.4 25.1 26.6 25.3 26.85 25.55 26.85 Q25.45 26.15 25.85 26.7 L26.0 26.85 26.2 26.85 26.2 27.05 26.45 27.05 26.45 26.85 26.2 26.85 26.2 26.6 M27.4 28.25 L27.6 28.45 27.4 28.45 27.4 28.25 M27.6 28.7 Q29.15 30.05 27.9 29.2 L27.4 28.7 27.1 28.45 26.9 28.25 27.1 28.25 27.1 28.45 27.4 28.45 27.4 28.7 27.6 28.7 M27.85 31.0 L28.05 31.2 Q28.9 31.9 28.1 31.55 L28.05 31.45 28.05 31.2 27.85 31.2 27.85 31.0 M21.95 26.15 L21.5 26.4 21.4 26.35 Q21.05 25.15 21.95 26.15 M28.05 32.8 L28.3 33.0 28.5 33.3 28.5 33.5 28.3 33.3 28.3 33.0 28.05 33.0 28.05 32.8 M28.75 33.5 L29.2 33.95 Q30.0 34.3 29.2 34.3 L29.2 34.2 29.2 33.95 28.95 33.95 28.75 33.75 28.75 33.5 M28.05 33.3 L27.85 33.0 27.6 32.8 27.4 32.55 27.6 32.55 27.6 32.8 27.85 32.8 27.85 33.0 28.05 33.0 28.05 33.3 M24.85 30.75 L24.65 30.75 24.65 31.0 24.85 31.2 25.1 31.45 25.3 31.65 25.55 31.9 25.3 31.9 25.3 31.65 25.1 31.65 25.1 31.45 24.85 31.45 24.85 31.65 24.65 31.45 24.4 31.2 24.65 31.2 24.65 31.45 24.85 31.45 24.85 31.2 24.65 31.2 24.65 31.0 24.4 31.0 24.4 30.75 24.65 30.75 24.65 30.55 24.85 30.75 M26.0 32.1 L26.2 32.35 26.45 32.55 Q27.55 33.35 26.45 32.9 L26.45 32.8 26.45 32.55 26.2 32.55 26.2 32.35 26.0 32.35 26.0 32.55 25.75 32.35 25.55 32.1 25.75 32.1 25.75 32.35 26.0 32.35 26.0 32.1 M24.2 31.0 L23.75 30.55 23.95 30.55 24.2 30.75 24.2 31.0 M22.85 29.8 L22.6 29.6 22.85 29.6 22.9 29.4 Q23.5 28.75 23.5 29.6 L23.5 29.8 23.3 29.6 23.05 29.45 23.05 29.6 22.85 29.6 22.85 29.8 M21.95 29.15 L21.7 29.15 21.7 29.35 21.5 29.15 21.7 29.15 21.7 28.9 21.95 29.15 M22.6 30.25 L22.85 30.55 23.05 30.75 22.85 30.75 22.85 30.55 22.6 30.55 22.6 30.75 22.4 30.75 22.4 30.55 22.15 30.25 22.4 30.25 22.4 30.55 22.6 30.55 22.6 30.25 M23.3 31.0 L23.5 31.2 23.5 31.45 23.3 31.2 23.3 31.0 M23.95 31.65 L24.2 31.9 23.75 31.9 23.75 32.1 23.95 32.35 23.75 32.35 23.75 32.1 23.5 32.1 23.5 31.9 23.3 31.9 23.3 31.65 23.5 31.65 23.5 31.45 23.75 31.45 23.75 31.65 23.5 31.65 23.5 31.9 23.75 31.9 23.75 31.65 23.95 31.65 M24.4 31.9 L25.1 33.0 25.1 33.3 25.3 33.3 25.3 33.5 25.1 33.5 25.1 33.3 24.85 33.3 24.85 33.0 25.1 33.0 24.4 32.1 24.4 31.9 M25.75 33.95 L26.4 34.65 26.45 34.85 26.55 35.1 26.45 35.1 26.9 36.05 Q29.25 37.5 27.15 36.7 L26.65 36.5 24.85 35.3 26.2 35.55 26.0 35.1 26.45 35.1 26.45 34.85 25.75 34.2 25.75 33.95 M20.8 32.35 Q20.1 32.35 19.7 31.9 19.2 31.4 19.25 30.75 L19.9 31.65 20.15 31.9 20.15 31.65 20.35 31.9 20.15 31.9 20.6 32.1 20.8 32.35 M18.8 30.55 L18.55 30.55 18.55 30.25 18.35 30.25 18.35 30.05 18.1 30.05 18.1 29.8 17.9 29.8 17.9 29.6 18.1 29.8 18.35 30.05 18.55 30.25 18.8 30.55 M17.65 29.6 L17.65 29.8 17.45 29.8 17.2 29.7 17.2 29.8 17.45 29.8 17.45 30.05 17.2 29.8 17.0 29.6 16.55 28.7 16.4 28.6 Q15.3 27.3 16.55 28.45 L16.55 28.7 16.75 28.7 17.65 29.6 M16.75 29.6 L14.25 27.8 14.15 27.85 Q13.65 28.15 14.0 27.5 L14.25 27.8 14.25 27.5 14.25 27.3 14.0 27.3 14.0 27.05 13.8 27.05 13.8 27.3 13.35 26.85 12.45 26.4 12.45 26.5 12.2 26.4 9.75 24.3 9.65 24.25 9.75 24.1 9.75 24.3 9.85 24.3 9.75 24.1 9.75 23.65 10.85 24.55 12.65 25.95 12.9 26.15 13.1 26.4 13.35 26.6 13.35 26.85 13.55 26.6 13.35 26.6 13.35 26.4 13.1 26.4 13.1 26.15 12.9 26.15 12.9 25.95 13.1 26.15 13.35 26.4 13.55 26.6 14.0 27.05 14.25 27.3 16.75 29.6 M5.0 20.2 L4.8 20.2 4.8 20.0 5.0 20.2 M2.4 17.8 L2.3 17.75 2.3 17.7 Q2.65 17.75 2.4 17.8 M-2.25 13.1 L-3.35 12.4 -3.6 12.2 -3.35 12.2 -3.35 12.4 -3.15 12.4 -2.9 12.4 -2.25 13.1 M-3.8 11.95 L-4.05 11.75 -3.8 11.75 -3.8 11.95 M-6.05 9.65 L-6.3 9.65 -6.4 9.55 -6.3 9.45 -6.3 9.65 -6.05 9.65 M-7.7 9.45 L-7.9 9.65 -7.9 9.45 -7.7 9.45 M-8.15 9.65 L-8.35 9.9 -8.35 9.65 -8.15 9.65 M-8.8 10.35 L-9.05 10.55 -9.25 10.8 -9.5 11.0 -9.7 11.3 -9.95 11.5 -10.05 11.5 Q-10.7 11.75 -10.15 11.5 L-9.95 11.5 -9.95 11.3 -9.7 11.3 -9.7 11.0 -9.5 11.0 -9.5 10.8 -9.25 10.8 -9.25 10.55 -9.05 10.55 -9.05 10.35 -8.8 10.35 M-10.15 11.3 L-10.15 11.0 -10.4 11.0 -10.6 11.3 -10.6 11.0 -10.4 11.0 -10.4 10.8 -10.15 10.8 -10.15 11.0 -9.95 11.0 -9.95 11.3 -10.15 11.3 M-10.85 11.75 L-11.05 11.95 -11.3 12.2 -11.5 12.4 -11.5 12.2 -11.3 12.2 -11.3 11.95 -11.05 11.95 -11.05 11.75 -10.85 11.75 M-11.95 13.1 L-12.2 13.55 -12.4 13.75 -12.4 13.55 -12.2 13.55 -12.15 13.15 -11.95 13.1 M-14.0 14.95 L-14.2 15.15 -14.2 14.95 -14.0 14.95 M-14.2 15.4 L-14.45 15.6 -14.65 15.85 -14.65 15.95 -14.9 15.85 -14.65 15.85 -14.65 15.6 -14.9 15.6 -14.9 15.5 -14.65 15.6 -14.45 15.6 -14.45 15.4 -14.2 15.4 M-15.35 16.05 L-15.8 16.5 -15.8 16.6 -16.0 16.5 -16.25 16.5 -16.25 16.3 -16.0 16.3 -16.0 16.5 -15.8 16.5 -16.0 16.3 -15.35 16.05 M-16.9 17.25 L-17.15 17.45 -17.15 17.25 -16.9 17.25 M-18.05 18.15 L-18.3 18.35 -18.3 18.6 Q-18.3 18.95 -18.75 18.8 L-19.0 19.05 -19.0 18.8 -18.75 18.8 -18.3 18.35 -18.3 18.15 -18.05 18.15 M-19.0 19.25 L-19.2 19.55 -19.45 19.75 -19.45 19.55 -19.65 19.55 -19.65 19.75 -20.8 21.55 -21.0 21.55 -21.25 21.8 -21.25 21.55 -21.45 21.55 -21.45 21.35 -21.25 21.35 -21.25 21.55 -21.0 21.55 -19.65 19.25 -19.45 19.55 -19.2 19.55 -19.2 19.25 -19.0 19.25 M-21.0 22.3 L-21.25 22.5 -21.25 22.3 -21.4 22.35 Q-21.95 22.45 -21.45 21.8 L-21.25 22.0 -21.25 22.3 -21.0 22.3 M-21.45 23.65 L-21.25 23.65 -21.2 23.45 Q-20.2 22.7 -21.0 23.65 L-21.25 23.65 -21.0 23.85 -21.25 24.1 -21.45 24.1 -21.45 23.65 M-21.25 24.3 L-21.45 24.55 -21.45 24.3 -21.25 24.3 M-21.45 24.75 L-21.7 25.05 -21.7 24.75 -21.45 24.75 M-22.15 25.95 L-22.35 26.15 -22.35 25.95 -22.15 25.95 M-22.35 26.4 L-22.35 26.6 -22.6 26.6 -22.6 26.4 -22.35 26.4 M-22.15 26.6 L-22.15 26.4 -21.9 26.4 -22.15 26.6 M-21.0 25.05 L-20.8 24.75 -20.8 24.55 -20.55 24.55 -20.55 24.3 -20.35 24.3 -20.55 24.55 -20.55 24.75 -20.1 24.75 -20.1 25.05 -20.35 25.05 -20.55 25.05 -20.55 24.75 -20.8 24.75 -20.8 25.05 -20.55 25.05 -20.55 25.25 -20.35 25.25 -20.1 25.25 -20.1 25.5 -20.1 25.7 -20.35 25.7 Q-20.7 25.75 -20.55 25.25 L-20.8 25.25 -20.8 25.05 -21.0 25.05 M-20.35 24.1 L-20.35 23.85 -20.1 23.85 -20.35 24.1 M-19.9 23.4 L-19.9 23.2 -19.65 23.2 -19.65 22.95 -19.45 22.95 -19.45 22.75 -19.2 22.75 -19.2 22.5 -19.0 22.5 -18.75 22.5 -18.75 22.3 -18.55 22.3 -18.75 22.5 -19.0 22.75 -19.2 22.75 -19.2 22.95 -19.0 22.95 -19.2 23.2 -19.2 22.95 -19.45 22.95 -19.65 23.2 -19.9 23.4 M-19.0 22.3 L-19.0 22.0 -18.75 22.0 -18.75 22.3 -19.0 22.3 M-18.55 21.55 L-18.55 21.35 -18.3 21.35 -18.3 21.2 Q-18.2 21.2 -18.05 21.35 L-18.3 21.35 -18.3 21.55 -18.05 21.55 -18.3 21.8 -18.55 22.0 -18.55 21.8 -18.3 21.8 -18.3 21.55 -18.55 21.55 M-19.2 23.4 L-19.45 23.65 -19.65 23.85 -19.65 23.65 -19.45 23.65 -19.45 23.4 -19.2 23.4 M-19.65 24.1 L-19.65 24.3 -19.45 24.3 -19.45 24.2 Q-19.35 24.2 -19.2 24.3 L-19.45 24.3 -19.45 24.55 -19.65 24.75 -19.65 24.3 -19.9 24.3 -19.9 24.1 -19.65 24.1 M-19.65 25.05 L-19.9 25.25 -19.9 25.05 -19.65 25.05 M-20.1 25.95 L-20.35 26.15 -20.55 26.4 -20.8 26.6 -20.8 26.4 -20.55 26.4 -20.55 26.15 -20.35 26.15 -20.35 25.95 -20.1 25.95 M-21.0 27.05 L-21.25 27.3 -21.25 27.05 -21.0 27.05 M-21.25 27.8 L-21.45 28.0 -21.7 28.25 -21.7 28.0 -21.45 28.0 -21.45 27.8 -21.25 27.8 M-22.15 28.7 L-22.6 30.25 -22.8 30.75 -23.05 30.75 -23.05 31.0 -23.25 31.0 -23.25 30.25 -23.25 30.05 -23.05 30.05 -22.8 30.05 -22.6 30.25 -22.8 29.8 -23.05 29.8 -23.25 29.8 -22.8 29.35 -22.15 28.7 M-22.8 31.0 L-23.05 31.2 -23.25 31.45 -23.5 31.45 -23.5 31.65 -23.25 31.65 -23.5 31.9 -23.5 31.65 -23.7 31.65 -23.7 31.45 -23.95 31.45 -23.95 31.2 -23.7 31.2 -23.7 31.45 -23.5 31.45 -23.5 31.2 -23.25 31.2 -23.05 31.2 -23.05 31.0 -22.8 31.0 M-23.5 32.1 L-23.7 32.55 -23.7 32.1 -23.95 32.1 -23.95 31.9 -24.15 31.9 -24.4 32.1 -24.4 31.9 -24.15 31.9 -24.15 31.65 -23.95 31.65 -23.95 31.9 -23.7 31.9 -23.7 32.1 -23.5 32.1 M-23.95 33.5 L-24.15 33.75 -24.15 33.5 -23.95 33.5 M-24.15 33.95 L-24.4 34.2 -24.4 33.95 -24.15 33.95 M-24.4 34.4 L-24.6 34.65 -24.6 34.4 -24.4 34.4 M-25.05 35.75 L-25.05 35.85 -25.3 35.75 -25.05 35.75 M-25.3 35.55 L-25.5 35.55 -25.75 35.75 -25.75 35.85 -25.95 35.75 -26.2 35.75 -26.4 36.05 -26.45 36.15 Q-26.95 36.4 -26.85 36.05 L-26.4 36.05 -26.4 35.75 -26.2 35.75 Q-26.4 35.05 -25.85 35.5 L-25.75 35.55 -25.5 35.55 -25.35 35.45 -25.3 35.55 M-26.85 35.75 L-27.1 35.75 -27.3 36.05 -27.3 35.75 -27.1 35.75 Q-27.3 35.1 -26.95 35.6 L-26.85 35.75 M-27.3 36.25 L-27.55 36.5 -27.55 36.25 -27.3 36.25 M-27.75 36.5 L-27.9 36.25 -27.75 36.25 -27.75 36.5 M-27.75 35.75 L-27.75 35.55 Q-27.25 34.15 -27.7 35.65 L-27.75 35.75 M-28.0 35.75 Q-28.55 36.6 -28.35 35.55 L-28.2 35.55 -28.0 35.75 M-28.2 35.3 L-28.65 35.1 -28.6 34.9 Q-27.7 34.2 -28.2 35.3 M-29.85 35.55 L-29.85 35.65 -30.05 35.55 -29.85 35.55 M-30.05 35.3 L-30.3 34.4 -30.5 34.4 -30.5 34.2 -30.3 34.2 -30.3 34.4 -30.05 34.4 -30.05 35.3 M-30.95 34.65 L-30.95 34.4 -31.2 34.2 -30.95 34.2 -30.95 34.4 -30.75 34.4 -30.95 34.65 M-31.2 33.75 L-31.2 33.5 -30.95 33.5 -30.5 32.8 -30.5 33.5 -30.75 33.5 -30.95 33.5 -30.95 33.75 -30.75 33.75 -30.5 33.75 -30.75 33.95 -30.95 33.95 -30.95 33.75 -31.2 33.75 M-30.3 31.9 L-30.25 31.5 -30.05 31.45 -30.05 31.2 -29.85 31.2 -30.05 31.45 -30.3 31.9 M-30.05 31.0 L-30.05 30.75 -29.85 30.7 -29.85 31.2 -30.05 31.0 M-30.3 30.25 L-30.45 30.3 -30.95 29.8 -31.2 30.05 -31.2 29.8 -30.95 29.8 -30.9 29.7 Q-30.35 29.45 -30.3 29.9 L-30.3 30.25 M-31.4 29.8 L-31.4 29.35 -31.2 29.8 -31.4 29.8 M-31.4 29.15 L-31.4 28.9 -31.65 28.9 -31.65 29.0 -31.85 28.9 -31.65 28.9 -31.65 28.7 -31.4 28.7 -31.4 28.9 -31.2 28.9 -31.4 29.15 M-31.85 28.7 L-32.3 28.25 -32.55 28.25 Q-33.05 27.9 -32.55 27.8 L-32.3 28.25 Q-31.4 28.15 -31.8 28.5 L-31.85 28.7 M-32.55 27.5 L-32.55 27.3 -32.45 27.5 -32.55 27.5 M-33.45 25.95 L-33.5 26.05 Q-34.4 26.1 -33.65 25.5 L-33.45 25.95 M-33.65 25.05 L-33.65 24.75 -33.45 24.75 -33.65 25.05 M-33.45 24.55 L-33.45 24.3 -33.2 24.3 -33.45 24.55 M-33.2 24.1 L-33.2 23.85 -33.0 23.85 -33.2 24.1 M-32.75 22.75 L-32.75 22.5 -32.55 22.5 -32.75 22.75 M-32.55 22.3 L-32.55 22.0 -32.3 22.0 -32.3 21.8 -32.1 21.8 -32.3 22.0 -32.55 22.3 M-32.1 21.55 L-32.2 21.45 Q-33.0 20.85 -32.1 20.9 L-31.85 20.9 -31.85 20.65 -32.1 20.65 -32.15 20.65 Q-32.35 19.2 -31.85 20.65 L-31.65 20.65 -31.65 20.45 -31.4 20.45 -31.65 20.65 -31.85 20.9 -31.85 21.1 Q-31.7 21.6 -32.1 21.55 M-31.4 20.2 L-31.4 20.0 -31.2 20.0 -31.4 20.2 M-31.2 19.75 L-31.4 19.55 -31.65 19.25 -31.4 19.25 -31.65 19.05 -31.6 18.9 Q-31.05 18.65 -31.2 19.25 L-31.4 19.25 -31.4 19.55 -31.2 19.55 -31.2 19.75 M-30.95 19.55 L-30.95 19.25 -30.75 19.25 -30.95 19.55 M-30.5 18.15 L-30.6 18.1 Q-30.8 17.05 -30.3 17.9 L-30.3 17.7 -30.05 17.7 -30.3 17.9 -30.5 18.15 M-29.85 17.45 L-29.85 17.25 -29.6 17.25 -29.85 17.45 M-29.6 17.0 L-29.6 16.8 -29.35 16.8 -29.6 17.0 M-29.35 16.5 L-29.35 16.3 -29.1 16.3 -29.1 15.85 Q-28.75 15.8 -29.0 16.25 L-29.1 16.3 -29.35 16.5 M-29.1 15.6 L-29.2 15.55 -29.1 15.4 -29.1 15.6 M-29.1 15.15 L-29.1 14.95 -28.9 14.95 -29.1 15.15 M-28.45 14.5 L-28.45 14.25 -28.2 14.25 -28.2 14.5 -28.0 14.5 -28.0 14.05 -27.75 14.05 -28.0 14.5 -28.0 14.6 -28.2 14.5 -28.45 14.5 M-28.0 13.75 L-28.0 13.55 -27.75 13.55 -27.75 13.75 -28.0 13.75 M-27.75 13.1 L-28.0 13.1 -28.0 13.2 -28.2 13.1 -28.0 13.1 -28.0 12.4 -28.2 11.5 Q-27.85 11.5 -27.8 11.95 L-27.75 12.2 -27.55 12.65 -27.55 12.4 -27.3 12.4 -27.55 12.65 -27.75 13.1 M-28.45 12.85 Q-29.15 12.35 -28.2 12.35 L-28.2 12.4 -28.45 12.85 M-28.2 10.8 L-28.2 10.55 -28.0 10.55 -28.0 10.35 -27.75 10.35 -28.0 10.55 -28.2 10.8 M-27.75 10.1 Q-28.55 10.35 -28.35 9.7 L-28.2 9.65 Q-27.4 9.3 -27.65 10.05 L-27.75 10.1 M-27.75 9.0 L-27.75 8.75 -27.55 8.75 -27.75 9.0 M-27.55 8.55 L-27.55 8.05 -27.75 8.05 -28.0 7.8 -28.2 8.05 -28.2 7.8 -28.0 7.8 -27.3 6.9 -27.25 6.75 Q-26.5 5.7 -26.85 6.9 L-26.65 6.9 -26.85 7.15 -26.85 6.9 -27.1 6.9 -27.3 6.9 -27.1 7.15 -27.1 7.35 -26.85 7.35 -27.1 7.6 -27.1 7.35 Q-27.35 7.35 -27.4 7.55 L-27.55 8.05 -27.3 8.05 -27.3 7.8 -27.1 7.8 -27.3 8.05 -27.55 8.55 M-28.2 8.75 Q-28.6 9.25 -28.55 8.75 L-28.45 8.75 -28.2 8.75 M-28.45 8.55 L-28.45 8.25 -28.2 8.25 -28.2 8.55 -28.45 8.55 M-26.4 6.45 L-26.4 6.25 -26.2 6.25 -26.4 6.45 M-26.2 6.0 L-26.2 5.8 -25.95 5.8 -26.2 6.0 M-25.95 5.5 L-25.95 5.3 -25.75 5.3 -25.95 5.5 M-24.85 3.95 L-24.85 3.7 -24.6 3.7 -24.6 3.5 -24.4 3.5 -24.6 3.7 -24.85 3.95 M-24.15 3.0 L-24.15 2.75 -23.95 2.75 -23.95 2.55 -23.7 2.55 -23.95 2.75 -24.15 3.0 M-23.05 1.65 L-23.05 1.4 -22.8 1.4 -22.8 1.2 -22.6 1.2 -22.6 0.95 -22.35 0.95 -22.35 0.75 -22.15 0.75 -22.35 0.95 -22.6 1.2 -22.8 1.4 -23.05 1.65 M-21.45 0.0 L-21.45 -0.2 -21.25 -0.2 -21.25 -0.45 -21.0 -0.45 -21.25 -0.2 -21.45 0.0 M-20.8 -0.9 L-20.8 -1.1 -20.55 -1.1 -20.8 -0.9 M-20.1 -1.55 L-20.1 -1.8 -19.9 -1.8 -19.9 -2.0 -19.65 -2.0 -19.9 -1.8 -20.1 -1.55 M-19.45 -2.25 L-19.45 -2.5 -19.2 -2.5 -19.2 -2.75 -19.0 -2.75 -19.0 -2.95 -18.75 -2.95 -18.75 -3.2 -18.55 -3.2 -18.75 -2.95 -19.0 -2.75 -19.2 -2.5 -19.45 -2.25 M-18.05 -3.65 L-18.05 -3.85 -17.8 -3.85 -18.05 -3.65 M-16.45 -5.5 L-16.45 -5.7 -16.25 -5.7 -16.25 -5.95 -16.0 -5.95 -16.25 -5.7 -16.45 -5.5 M-15.8 -6.6 L-16.0 -6.85 -15.85 -6.8 -15.8 -6.6 M-17.6 -9.35 L-17.8 -9.6 -17.65 -9.55 -17.6 -9.35 M-32.75 -30.25 L-33.0 -30.7 -33.1 -30.9 -33.0 -30.9 -33.0 -31.15 Q-33.05 -31.6 -32.75 -31.15 L-32.75 -30.9 -32.55 -30.9 -32.55 -30.7 -32.75 -30.7 -32.75 -30.9 -33.0 -30.9 -33.0 -30.7 -32.75 -30.7 -32.75 -30.45 -32.75 -30.25 M-32.1 -31.15 L-32.3 -31.6 -32.4 -31.65 -32.3 -31.8 -32.3 -31.6 -32.1 -31.6 -32.1 -31.15 M-32.1 -31.8 L-31.65 -32.05 -31.65 -32.25 -31.4 -32.05 Q-30.9 -31.8 -31.4 -31.7 L-31.4 -31.8 -31.4 -32.05 -31.65 -32.05 -31.65 -31.8 -31.65 -31.6 Q-31.75 -31.1 -31.85 -31.6 L-32.1 -31.8 M-31.85 -32.75 Q-32.5 -32.9 -31.8 -33.35 L-31.65 -33.45 -31.4 -33.45 -31.4 -33.65 -31.65 -33.65 -31.75 -33.7 Q-32.1 -34.3 -31.4 -33.9 L-31.2 -34.35 -31.2 -34.55 -30.95 -34.55 -30.95 -34.35 -31.2 -34.35 -30.95 -34.1 -30.95 -34.35 -30.75 -34.35 -30.75 -34.55 -30.5 -34.35 -30.3 -34.1 -30.05 -33.9 -30.3 -33.9 -30.3 -34.1 -30.5 -34.1 -30.5 -33.9 -30.75 -33.9 -30.75 -34.1 -30.95 -34.1 -30.75 -33.9 -30.5 -33.65 -30.5 -33.9 -30.3 -33.9 -30.3 -33.65 -30.5 -33.65 -30.5 -33.45 -30.75 -33.45 -30.95 -33.45 -30.95 -33.2 -30.75 -33.2 -30.5 -33.2 -30.5 -33.45 -30.3 -33.45 -30.05 -33.2 -30.5 -33.2 -30.5 -33.0 -29.6 -32.25 -29.6 -32.75 -29.1 -32.25 -29.35 -32.25 -29.6 -32.25 -29.65 -32.15 Q-30.2 -31.8 -30.5 -33.0 L-30.95 -33.2 -31.2 -33.45 -31.4 -33.45 -31.85 -32.75 M-29.6 -33.45 L-29.6 -34.1 -29.35 -34.1 -29.35 -34.55 -29.85 -34.55 -29.85 -34.8 -30.05 -34.8 -30.3 -35.0 -30.5 -35.25 -30.75 -35.5 -30.95 -35.75 -30.75 -35.75 -30.75 -35.5 -30.5 -35.5 -30.5 -35.25 -30.3 -35.25 -30.3 -35.0 -30.05 -35.0 -29.85 -35.0 -29.85 -35.25 -29.6 -35.0 -29.85 -35.0 -29.85 -34.8 -29.6 -34.8 -29.35 -34.55 -28.9 -34.1 -28.65 -33.9 -28.9 -33.9 -28.9 -34.1 -29.1 -34.1 -29.35 -34.1 -29.6 -33.45 M-30.95 -35.95 L-31.05 -36.0 Q-31.2 -37.25 -30.75 -35.95 L-30.5 -35.75 -30.75 -35.75 -30.75 -35.95 -30.95 -35.95 M-30.05 -35.95 L-30.15 -36.05 Q-30.45 -36.85 -29.85 -36.2 L-29.6 -36.2 -29.6 -36.1 -29.85 -36.2 -30.05 -35.95 M-29.6 -36.4 L-29.6 -36.55 -29.35 -36.4 -29.6 -36.4 M-28.2 -35.25 L-26.85 -35.0 -26.75 -35.0 Q-27.65 -34.2 -28.2 -35.25 M-26.2 -35.5 L-26.2 -35.75 -25.95 -35.75 -25.95 -35.85 -25.75 -35.75 -25.05 -35.0 -24.85 -34.8 -24.85 -34.55 -24.6 -34.55 -24.15 -34.55 -24.15 -34.8 -24.6 -34.8 -24.85 -35.0 -24.85 -35.25 Q-24.9 -35.65 -24.15 -34.8 -23.6 -34.75 -23.35 -34.3 L-23.25 -34.1 -23.5 -34.1 -23.5 -33.9 -24.15 -34.35 -24.35 -34.3 Q-24.7 -33.9 -24.85 -34.55 L-25.05 -34.6 Q-25.85 -34.8 -25.75 -35.75 L-25.95 -35.75 -26.2 -35.5 M-23.05 -34.1 L-22.8 -33.9 -22.8 -33.65 -23.05 -33.65 -23.05 -33.9 -23.05 -34.1 M-22.6 -33.65 L-22.35 -33.45 -22.8 -33.45 -22.8 -33.65 -22.6 -33.65 M-22.15 -33.45 L-21.7 -33.0 -19.9 -31.6 -19.9 -31.35 -20.1 -31.35 -20.1 -31.15 -19.45 -31.15 -19.45 -31.35 -19.65 -31.35 -19.65 -31.6 -19.45 -31.35 -17.8 -29.5 -17.8 -29.75 Q-18.6 -30.65 -17.85 -29.95 L-17.8 -29.75 -17.7 -29.5 -17.8 -29.5 -15.1 -26.3 -14.9 -26.1 -13.3 -24.0 -13.3 -24.15 -13.1 -24.0 -13.0 -23.8 -13.1 -23.8 -11.95 -21.5 Q-11.65 -22.35 -11.9 -21.55 L-11.95 -21.5 -10.4 -19.7 -10.15 -19.45 -10.4 -19.45 -9.05 -17.85 -8.8 -17.6 -8.6 -17.15 Q-8.1 -17.0 -7.95 -16.5 L-7.9 -16.25 -7.7 -16.0 -7.9 -15.75 -7.9 -16.25 -8.15 -16.25 -8.2 -16.35 -8.35 -16.25 -9.95 -17.4 -9.7 -17.4 -9.5 -17.4 -9.7 -17.6 -9.7 -18.05 -10.15 -18.05 -10.4 -18.05 -11.5 -18.5 -11.3 -18.5 -11.05 -18.5 -11.3 -18.75 -11.5 -18.75 -14.45 -22.9 -14.2 -22.9 -14.0 -22.65 -13.75 -23.1 -14.0 -23.35 -14.2 -23.45 -14.2 -23.35 -15.35 -24.25 -15.35 -24.5 -15.1 -24.5 -15.0 -24.5 -15.1 -24.75 -15.1 -24.95 -15.35 -24.95 -15.35 -24.75 -16.7 -25.4 -17.8 -26.75 -17.35 -26.55 -17.35 -26.75 -17.15 -26.75 -17.05 -26.75 -17.15 -27.0 -17.35 -27.0 -17.8 -27.0 -17.8 -27.5 -17.9 -27.65 -18.05 -27.7 -19.0 -28.15 -19.2 -28.4 -19.2 -28.15 -19.2 -27.95 -19.0 -27.95 -18.05 -27.0 -19.2 -27.95 -19.65 -28.4 -19.2 -28.4 -19.9 -29.05 -19.65 -28.4 -20.35 -29.05 -20.35 -29.3 -20.1 -29.3 -20.1 -29.65 Q-19.25 -29.65 -20.1 -29.75 L-20.1 -31.15 -20.35 -31.35 -20.55 -31.6 -21.0 -31.8 -21.25 -32.05 -21.45 -32.25 -21.9 -32.5 -21.45 -32.5 -21.45 -32.25 -21.25 -32.25 -21.25 -32.05 -21.0 -32.05 -21.0 -31.8 -20.55 -31.8 -20.55 -31.6 -20.35 -31.6 -20.35 -31.35 -20.1 -31.35 -20.35 -31.6 -20.55 -31.8 -21.0 -32.05 -21.25 -32.25 -21.45 -32.5 -21.7 -33.0 -22.15 -33.0 -22.15 -33.2 -22.15 -33.45 M-7.45 -16.0 Q-7.45 -16.85 -7.1 -16.0 L-7.0 -15.75 -7.1 -15.6 Q-7.6 -15.05 -7.45 -16.0 M-6.3 -16.25 L-6.3 -16.5 -6.05 -16.5 -6.05 -16.7 -5.85 -16.7 -5.85 -16.95 -5.6 -16.95 -5.6 -17.15 -5.4 -17.15 -5.6 -16.95 -5.85 -16.7 -6.05 -16.5 -6.3 -16.25 M-4.25 -18.5 L-4.25 -18.75 -4.05 -18.75 -4.05 -19.0 -3.8 -19.0 -3.8 -19.25 -3.6 -19.25 -3.6 -19.45 -3.35 -19.45 -3.35 -19.7 -3.15 -19.7 -3.15 -19.9 -2.9 -19.9 -3.15 -19.7 -3.35 -19.45 -3.6 -19.25 -3.8 -19.0 -4.05 -18.75 -4.25 -18.5 M-1.55 -21.05 L-1.55 -21.25 -1.35 -21.25 -1.55 -21.05 M-1.1 -21.25 L-1.1 -21.5 -0.9 -21.5 -1.1 -21.25 M0.0 -22.45 L0.0 -22.65 0.25 -22.65 0.25 -22.9 0.45 -22.9 0.25 -22.65 0.0 -22.45 M0.7 -23.1 L0.7 -23.35 0.9 -23.35 0.9 -23.55 1.15 -23.55 0.9 -23.35 0.7 -23.1 M2.5 -24.75 L2.5 -24.95 2.7 -24.95 2.5 -24.75 M3.85 -25.85 L3.85 -26.1 4.05 -26.1 4.05 -26.3 4.3 -26.3 4.05 -26.1 3.85 -25.85 M4.55 -26.55 L4.55 -26.75 4.8 -26.75 4.55 -26.55 M5.25 -27.0 L5.25 -27.25 5.45 -27.25 5.45 -27.5 5.7 -27.5 5.45 -27.25 5.25 -27.0 M5.9 -27.7 L5.9 -27.95 6.15 -27.95 6.15 -28.15 6.35 -28.15 6.35 -28.4 6.6 -28.4 6.35 -28.15 6.15 -27.95 5.9 -27.7 M7.25 -28.85 L7.25 -29.05 7.5 -29.05 7.5 -29.3 7.7 -29.3 7.7 -29.5 7.95 -29.5 7.95 -29.75 8.15 -29.75 7.95 -29.5 7.7 -29.3 7.5 -29.05 7.25 -28.85 M9.3 -30.7 L9.3 -30.9 9.5 -30.9 9.3 -30.7 M10.4 -31.6 L10.4 -31.8 10.65 -31.8 10.4 -31.6 M11.1 -32.05 L11.1 -32.25 11.3 -32.25 11.3 -32.5 11.55 -32.5 11.55 -32.75 11.75 -32.75 11.75 -33.0 12.0 -33.0 11.75 -32.75 11.55 -32.5 11.3 -32.25 11.1 -32.05 M12.2 -33.0 L12.2 -33.2 12.45 -33.2 12.45 -33.45 12.65 -33.45 12.65 -33.65 12.9 -33.65 12.65 -33.45 12.45 -33.2 12.2 -33.0 M13.55 -34.1 L13.55 -34.35 13.8 -34.35 13.8 -34.55 14.0 -34.55 14.0 -34.8 14.25 -34.8 14.25 -35.0 14.45 -35.0 14.25 -34.8 14.0 -34.55 13.8 -34.35 13.55 -34.1 M14.9 -35.25 L14.9 -35.5 15.15 -35.5 14.9 -35.25 M15.6 -35.75 L15.6 -35.95 15.8 -35.95 Q16.1 -36.55 16.15 -36.0 L16.1 -35.95 15.8 -35.95 15.8 -35.75 15.6 -35.75 M16.1 -35.75 L16.3 -35.75 16.1 -35.5 16.1 -35.75 M17.0 -36.2 L17.0 -36.4 Q18.0 -36.65 17.2 -35.95 L17.0 -36.2 M17.2 -35.75 L17.0 -35.5 16.75 -35.25 16.75 -35.5 17.0 -35.5 17.0 -35.75 17.2 -35.75 M16.75 -35.0 L17.2 -35.0 17.15 -34.85 Q16.65 -34.3 16.75 -35.0 M17.45 -35.25 L17.5 -35.45 Q18.3 -35.95 17.65 -35.25 L17.45 -35.25 M17.65 -35.0 Q18.15 -35.2 18.0 -34.85 L17.9 -34.8 17.65 -35.0 M17.45 -34.35 L17.2 -34.1 17.0 -33.9 16.75 -33.65 16.55 -33.45 16.55 -33.65 16.75 -33.65 16.75 -33.9 17.0 -33.9 17.0 -34.1 17.2 -34.1 17.2 -34.35 17.45 -34.35 M16.1 -32.75 L15.8 -32.5 15.8 -32.75 16.1 -32.75 M15.8 -32.25 L15.6 -32.05 15.35 -31.8 15.35 -32.05 15.6 -32.05 15.6 -32.25 15.8 -32.25 M14.9 -31.35 L14.7 -31.15 14.7 -31.35 14.9 -31.35 M14.7 -30.9 L14.45 -30.7 14.45 -30.9 14.7 -30.9 M14.25 -30.7 L14.0 -30.45 13.8 -30.25 13.8 -30.45 14.0 -30.45 14.0 -30.7 14.25 -30.7 M13.8 -30.0 L13.55 -29.75 13.55 -30.0 13.8 -30.0 M13.35 -29.5 L13.1 -29.3 12.9 -29.05 12.65 -28.85 12.65 -29.05 12.9 -29.05 12.9 -29.3 13.1 -29.3 13.1 -29.5 13.35 -29.5 M12.65 -28.6 L12.9 -28.6 12.9 -28.4 12.65 -28.6 M13.1 -28.6 L13.1 -28.85 13.35 -28.85 13.35 -29.05 13.55 -29.05 13.55 -28.85 13.8 -29.05 13.8 -29.3 14.0 -29.3 14.0 -29.5 14.25 -29.5 14.0 -29.3 14.6 -29.35 14.7 -29.5 14.7 -29.75 14.9 -29.75 14.9 -30.0 15.15 -30.0 14.9 -29.75 14.9 -29.55 Q14.8 -28.6 13.35 -27.95 L13.25 -28.05 13.1 -27.95 13.0 -27.85 Q12.2 -27.2 12.9 -28.4 L13.35 -28.6 13.1 -28.6 M15.35 -30.0 L15.35 -30.25 15.6 -30.25 15.35 -30.0 M15.8 -30.25 L15.8 -30.45 16.1 -30.45 15.8 -30.25 M16.3 -30.45 L16.3 -30.7 16.55 -30.7 16.3 -30.45 M16.75 -30.7 L16.75 -30.9 17.0 -30.9 17.0 -30.7 17.45 -30.7 17.45 -30.9 17.2 -30.9 17.2 -31.15 17.45 -31.15 17.45 -30.9 17.55 -30.7 17.45 -30.7 17.0 -30.25 17.0 -30.45 17.0 -30.7 16.75 -30.7 M17.9 -31.35 L17.9 -31.6 18.1 -31.6 17.9 -31.35 M19.0 -31.8 L19.0 -32.05 19.25 -32.05 19.25 -32.25 19.45 -32.25 19.45 -32.5 19.7 -32.5 19.45 -32.25 19.25 -32.05 19.0 -31.8 M20.6 -33.0 L20.6 -33.2 20.8 -33.2 20.6 -33.0 M21.95 -33.9 L21.95 -34.1 22.15 -34.1 22.15 -33.9 22.4 -33.9 22.6 -33.9 22.4 -34.1 22.85 -34.55 23.95 -34.8 23.95 -35.0 24.2 -35.0 23.95 -34.8 23.3 -34.35 22.85 -34.55 23.05 -34.35 22.6 -33.9 22.55 -33.75 Q22.15 -33.55 22.15 -33.9 L21.95 -33.9 M25.1 -35.0 L25.3 -35.0 25.3 -35.25 25.55 -35.25 25.55 -35.5 25.75 -35.5 25.75 -35.75 26.0 -35.75 25.75 -35.5 25.55 -35.25 25.3 -35.0 25.3 -34.9 25.1 -35.0 M26.9 -35.75 L26.9 -35.95 27.1 -35.95 26.9 -35.75 M28.05 -35.75 L27.85 -35.5 27.85 -35.75 28.05 -35.75 M27.6 -35.5 L27.5 -35.75 27.6 -35.75 27.6 -35.5 M27.6 -34.7 L27.6 -34.8 Q28.5 -34.7 27.6 -34.7 M27.1 -30.9 L27.0 -31.0 27.1 -31.15 27.85 -32.75 28.05 -32.5 Q27.6 -31.85 28.3 -31.6 L28.5 -31.6 28.95 -31.8 29.65 -32.25 29.2 -31.6 29.65 -31.35 29.6 -31.25 Q28.8 -30.95 28.95 -31.6 L28.5 -31.6 27.4 -30.9 27.1 -31.15 27.1 -30.9 M27.6 -33.55 L27.6 -33.65 Q28.1 -33.55 27.6 -33.55 M26.0 -31.25 L26.0 -31.35 Q26.45 -31.25 26.0 -31.25 M26.65 -31.8 Q27.15 -31.7 26.65 -31.7 L26.65 -31.8 M30.3 -33.8 Q30.8 -33.8 30.3 -33.9 L30.3 -33.8 M29.85 -32.5 L30.55 -32.5 30.3 -32.05 29.65 -32.25 29.65 -32.5 29.85 -32.5 M30.75 -32.5 L30.75 -32.75 Q31.35 -32.55 30.75 -32.25 L30.75 -32.5 M30.75 -32.05 L31.0 -32.05 31.0 -31.8 31.2 -31.8 31.2 -31.6 31.45 -31.8 31.65 -31.8 31.65 -31.6 31.6 -31.45 Q31.15 -31.25 31.2 -31.6 L31.0 -31.6 31.0 -31.8 30.3 -32.05 30.75 -32.05 M27.85 -33.35 L27.85 -33.45 Q28.7 -33.35 27.85 -33.35 M28.3 -33.55 L28.3 -33.65 Q28.8 -33.55 28.3 -33.55 M28.95 -31.6 L29.2 -31.6 28.95 -31.8 28.95 -31.6 M23.95 -34.45 L23.95 -34.55 Q25.15 -34.45 23.95 -34.45 M21.7 -33.45 Q22.2 -33.35 21.7 -33.35 L21.7 -33.45 M30.3 -29.4 L30.3 -29.5 Q30.8 -29.4 30.3 -29.4 M30.1 -29.2 L30.1 -29.3 Q30.6 -29.2 30.1 -29.2 M25.3 -26.65 L25.3 -26.75 Q26.2 -26.65 25.3 -26.65 M20.8 -32.65 L20.8 -32.75 Q21.7 -32.65 20.8 -32.65 M27.85 -27.0 L27.85 -26.75 27.6 -26.75 27.6 -26.55 27.05 -26.5 27.85 -27.0 M25.75 -26.9 L25.75 -27.0 Q26.25 -26.9 25.75 -26.9 M28.5 -27.6 L28.5 -27.7 Q29.0 -27.6 28.5 -27.6 M31.45 -33.65 L31.65 -33.65 31.45 -33.45 31.45 -33.65 M31.0 -33.35 L31.0 -33.45 Q31.5 -33.35 31.0 -33.35 M31.0 -31.25 L31.0 -31.35 Q31.5 -31.25 31.0 -31.25 M30.55 -31.05 L30.55 -31.15 Q31.4 -31.05 30.55 -31.05 M31.65 -31.15 L31.65 -30.9 31.45 -30.9 31.65 -31.15 M33.45 -32.5 Q34.35 -32.4 33.45 -32.4 L33.45 -32.5 M30.55 -34.0 Q31.05 -34.0 30.55 -34.1 L30.55 -34.0 M33.25 -30.8 L33.25 -30.9 Q34.8 -31.15 33.25 -30.8 M31.9 -30.45 L31.9 -30.25 31.75 -30.45 31.9 -30.45 M31.65 -29.4 Q32.15 -29.4 31.65 -29.5 L31.65 -29.4 M31.0 -30.6 L31.0 -30.7 Q31.5 -30.6 31.0 -30.6 M31.2 -30.15 L31.2 -30.25 Q31.7 -30.15 31.2 -30.15 M17.65 -36.75 L17.65 -36.85 Q18.15 -36.75 17.65 -36.75 M13.35 -28.6 L13.55 -28.85 13.35 -28.85 13.35 -28.6 M12.2 -28.3 L12.2 -28.4 Q12.7 -28.3 12.2 -28.3 M12.2 -27.5 L12.2 -27.25 11.55 -26.75 Q10.15 -25.4 11.15 -26.7 L11.3 -26.75 11.55 -26.75 11.55 -27.0 12.2 -27.5 M16.1 -29.9 L16.1 -30.0 Q17.25 -30.35 16.1 -29.9 M15.35 -29.4 L15.35 -29.5 Q16.5 -29.9 15.35 -29.4 M16.75 -19.0 L16.75 -19.25 17.0 -19.25 17.0 -19.45 17.2 -19.45 17.2 -19.25 17.0 -19.25 17.0 -19.0 16.75 -18.75 16.55 -18.5 16.55 -18.75 16.75 -18.75 16.75 -19.0 M18.1 -20.15 L18.1 -20.35 18.35 -20.35 18.35 -20.6 18.55 -20.6 18.55 -20.8 18.8 -20.8 18.8 -20.6 18.55 -20.6 18.55 -20.35 18.35 -20.35 18.35 -20.15 18.35 -19.9 18.1 -19.9 18.1 -19.7 17.9 -19.7 17.9 -19.9 18.1 -19.9 18.1 -20.15 M14.9 -17.15 L14.7 -16.95 14.45 -16.95 14.45 -16.7 14.25 -16.7 Q14.15 -17.05 14.45 -17.15 L14.7 -17.15 14.9 -17.15 M14.7 -16.7 L14.7 -16.5 14.45 -16.5 14.45 -16.7 14.7 -16.7 M14.25 -16.5 L14.0 -16.25 13.8 -16.0 13.55 -15.75 13.35 -15.75 13.35 -16.0 13.55 -16.0 13.8 -16.0 13.8 -16.25 14.0 -16.25 14.0 -16.5 14.0 -16.7 14.25 -16.7 14.25 -16.5 M15.15 -17.6 L15.15 -17.4 14.9 -17.4 14.9 -17.6 15.15 -17.6 15.35 -17.85 15.35 -17.6 15.15 -17.6 M13.8 -16.85 L13.8 -16.95 Q14.3 -16.85 13.8 -16.85 M13.55 -16.25 L13.35 -16.25 13.35 -16.0 13.1 -16.0 13.1 -16.25 13.8 -16.5 13.8 -16.25 13.55 -16.25 M13.1 -16.0 L13.1 -15.75 12.9 -15.75 12.9 -16.0 13.1 -16.0 M12.0 -15.3 L12.0 -15.55 12.2 -15.55 12.2 -15.3 12.0 -15.3 M12.45 -14.65 L12.45 -14.85 12.65 -14.85 12.65 -14.65 12.45 -14.65 M12.0 -14.85 L12.2 -14.85 12.0 -14.65 12.0 -14.85 M12.0 -14.4 L12.2 -14.4 12.2 -14.2 12.0 -14.2 12.0 -14.4 M11.55 -14.85 L11.75 -14.85 11.55 -14.65 11.55 -14.85 M10.65 -14.2 L10.4 -13.95 10.4 -14.2 10.65 -14.2 M17.2 -18.2 L17.2 -18.3 Q18.35 -18.65 17.2 -18.2 M16.1 -18.3 L15.8 -18.3 15.8 -18.05 16.1 -18.05 16.1 -18.3 M15.6 -17.6 L15.6 -17.85 15.8 -17.85 15.8 -17.6 15.6 -17.6 M7.7 -11.45 L7.7 -11.65 7.95 -11.65 7.95 -11.9 8.15 -11.9 8.15 -12.1 8.4 -12.1 8.4 -12.35 8.6 -12.35 8.6 -12.55 8.85 -12.55 8.85 -12.8 9.05 -12.8 9.05 -13.0 9.3 -13.0 9.05 -12.8 8.85 -12.55 8.6 -12.35 8.4 -12.1 8.15 -11.9 7.95 -11.65 7.7 -11.45 M7.5 -11.2 L7.5 -11.0 7.7 -11.0 7.5 -10.75 7.5 -11.0 7.25 -11.0 7.25 -11.2 7.5 -11.2 M7.95 -10.6 L7.95 -10.75 Q8.45 -10.65 7.95 -10.6 M7.25 -11.0 L7.25 -10.75 7.5 -10.75 7.5 -10.5 7.25 -10.5 7.25 -10.75 7.05 -10.75 7.05 -10.5 6.8 -10.5 6.8 -10.75 7.05 -10.75 7.25 -11.0 M6.35 -8.35 L6.35 -8.45 Q6.85 -8.35 6.35 -8.35 M5.9 -8.25 Q6.4 -8.15 5.9 -8.15 L5.9 -8.25 M2.05 -6.5 L2.05 -6.6 Q3.4 -7.1 2.05 -6.5 M4.55 -8.25 L4.55 -8.45 4.8 -8.45 4.8 -8.7 5.0 -8.7 5.0 -8.9 5.25 -8.9 5.0 -8.7 4.8 -8.45 4.8 -8.25 5.0 -8.25 5.0 -8.0 4.8 -8.0 4.8 -8.25 4.55 -8.25 M3.15 -6.85 L3.15 -7.05 3.4 -7.05 3.4 -7.3 3.6 -7.3 3.6 -7.5 3.85 -7.5 3.85 -7.75 4.05 -7.75 4.05 -8.0 4.3 -8.0 4.3 -7.75 4.05 -7.75 3.85 -7.5 3.6 -7.3 3.4 -7.05 3.15 -6.85 M4.55 -7.75 L4.55 -8.0 4.8 -8.0 4.8 -7.75 4.55 -7.75 4.55 -7.5 4.3 -7.5 4.3 -7.75 4.55 -7.75 M2.7 -6.15 L2.7 -6.4 2.95 -6.4 2.95 -6.15 2.7 -6.15 2.7 -5.95 2.5 -5.95 2.5 -6.15 2.7 -6.15 M2.95 -7.2 L2.95 -7.3 Q3.45 -7.2 2.95 -7.2 M3.15 -7.65 L3.15 -7.75 Q3.65 -7.65 3.15 -7.65 M2.95 -5.95 L2.95 -6.15 3.15 -6.15 3.15 -5.95 2.95 -5.95 M2.25 -5.7 L2.05 -5.5 2.05 -5.7 2.25 -5.7 M2.05 -5.25 L2.25 -5.25 2.05 -5.0 2.05 -5.25 M1.8 -5.0 L1.8 -4.75 2.05 -4.75 1.8 -4.55 1.8 -4.75 1.6 -4.75 1.6 -5.0 1.8 -5.0 M1.8 -4.55 Q1.35 -4.05 1.45 -4.7 L1.6 -4.75 1.8 -4.55 M2.7 -1.45 L2.7 -1.55 Q3.2 -1.45 2.7 -1.45 M3.85 -0.45 Q4.35 -0.35 3.85 -0.35 L3.85 -0.45 M3.4 -0.8 L3.4 -0.9 Q3.9 -0.8 3.4 -0.8 M2.95 -1.25 L2.95 -1.35 Q3.45 -1.25 2.95 -1.25 M3.15 -1.0 L3.15 -1.1 Q3.65 -1.0 3.15 -1.0 M3.6 -0.55 L3.6 -0.65 Q4.1 -0.55 3.6 -0.55 M26.45 -24.65 L26.45 -24.75 Q26.95 -24.65 26.45 -24.65 M21.5 -23.0 L21.5 -23.1 Q22.0 -23.0 21.5 -23.0 M21.25 -22.8 L21.25 -22.9 Q21.75 -22.8 21.25 -22.8 M20.8 -22.55 L20.8 -22.65 Q21.3 -22.55 20.8 -22.55 M20.35 -22.2 Q20.85 -22.1 20.35 -22.1 L20.35 -22.2 M21.95 -23.45 L21.95 -23.55 Q22.45 -23.45 21.95 -23.45 M21.7 -23.25 L21.7 -23.35 Q22.2 -23.25 21.7 -23.25 M23.5 -21.5 Q24.0 -21.4 23.5 -21.4 L23.5 -21.5 M20.6 16.3 Q21.1 16.4 20.6 16.4 L20.6 16.3 M21.05 16.8 Q21.9 16.9 21.05 16.9 L21.05 16.8 M21.5 19.35 L21.5 19.25 Q22.0 19.35 21.5 19.35 M22.2 20.1 L22.15 20.0 Q23.3 20.5 22.2 20.1 M21.95 19.75 Q22.45 19.85 21.95 19.85 L21.95 19.75 M21.7 19.65 L21.7 19.55 Q22.2 19.65 21.7 19.65 M23.95 21.35 Q24.45 21.45 23.95 21.45 L23.95 21.35 M22.85 20.45 Q24.4 21.6 22.9 20.55 L22.85 20.45 M21.5 17.1 L21.5 17.0 Q22.0 17.1 21.5 17.1 M21.05 18.8 L21.05 19.05 20.95 18.95 21.05 18.8 M21.05 19.05 L21.25 18.8 21.35 18.8 Q21.4 19.6 21.05 19.05 M23.5 24.3 Q24.0 24.4 23.5 24.4 L23.5 24.3 M26.0 23.2 Q26.5 23.3 26.0 23.3 L26.0 23.2 M25.55 22.75 Q26.4 22.85 25.55 22.85 L25.55 22.75 M11.1 6.45 L10.85 6.45 10.85 6.25 10.75 6.4 10.85 6.45 11.1 6.55 11.1 6.45 M13.55 9.9 L13.8 9.65 13.55 9.65 13.55 9.9 M14.7 11.3 L14.9 11.3 14.9 11.5 14.7 11.3 M14.9 11.5 L15.15 11.5 15.15 11.75 14.9 11.5 M15.35 11.75 L15.6 11.75 15.6 11.95 15.8 11.95 15.8 12.2 16.1 12.2 16.1 12.4 15.8 12.2 15.6 11.95 15.35 11.75 M6.8 2.75 Q7.3 2.85 6.8 2.85 L6.8 2.75 M1.4 16.65 L1.35 16.5 Q2.05 17.1 1.4 16.65 M1.6 15.15 L1.4 15.15 Q0.65 14.15 1.6 15.15 M5.7 17.7 Q6.5 18.6 5.75 17.85 L5.7 17.7 M4.3 0.1 L4.3 0.0 Q4.75 0.1 4.3 0.1 M7.05 3.0 Q7.55 3.1 7.05 3.15 L7.05 3.0 M6.35 18.6 Q6.85 18.7 6.35 18.7 L6.35 18.6 M1.8 17.0 Q2.25 17.55 1.85 17.15 L1.8 17.0 M7.5 24.0 L7.5 23.85 Q8.7 24.65 7.5 24.0 M6.15 22.4 L6.15 22.3 Q6.65 22.4 6.15 22.4 M5.9 22.0 Q6.4 22.1 5.9 22.1 L5.9 22.0 M6.65 22.9 L6.6 22.75 Q7.7 24.0 6.65 22.9 M6.35 22.5 Q6.85 22.6 6.35 22.6 L6.35 22.5 M10.0 22.9 L9.95 22.75 Q10.4 23.25 10.0 22.9 M9.75 22.5 Q10.25 22.6 9.75 22.6 L9.75 22.5 M9.05 21.8 Q10.05 23.0 9.1 21.95 L9.05 21.8 M8.2 24.65 L8.15 24.55 Q9.4 25.35 8.2 24.65 M9.75 23.65 L9.5 23.65 Q9.1 23.65 9.3 23.2 L9.75 23.65 M12.65 25.7 L12.9 25.95 12.65 25.95 12.65 25.7 M9.0 24.15 Q8.45 24.65 8.95 23.9 L9.0 24.15 M8.65 21.7 L8.6 21.55 Q9.05 22.1 8.65 21.7 M17.9 14.7 L17.9 14.95 18.1 14.95 18.1 15.15 17.9 15.15 17.9 14.95 17.65 14.95 17.65 14.7 17.9 14.7 M17.45 14.5 L17.25 14.5 17.45 13.75 17.65 14.05 17.65 14.25 17.45 14.25 17.45 14.5 M19.35 15.4 L19.45 15.6 19.45 15.4 19.35 15.4 M17.2 12.85 L17.0 12.85 17.0 13.1 17.2 13.1 17.2 12.85 M16.6 13.9 L16.55 13.75 Q17.25 14.35 16.6 13.9 M16.1 13.4 L16.1 13.3 Q16.6 13.4 16.1 13.4 M20.15 16.65 L20.15 16.5 Q21.0 16.95 20.15 16.65 M19.45 15.6 L19.45 16.05 19.9 16.05 19.45 15.6 M17.9 15.85 L18.1 15.85 18.1 16.05 17.9 15.85 M18.55 16.4 L18.55 16.3 Q19.05 16.4 18.55 16.4 M17.9 22.95 Q18.4 23.05 17.9 23.05 L17.9 22.95 M18.8 23.95 L18.8 23.85 Q19.25 23.95 18.8 23.95 M12.9 22.6 L12.9 22.5 Q13.4 22.6 12.9 22.6 M13.35 22.95 Q13.85 23.05 13.35 23.05 L13.35 22.95 M10.2 23.2 Q10.8 23.4 10.2 23.3 L10.2 23.2 M12.2 24.1 Q12.65 24.6 12.25 24.25 L12.2 24.1 M10.65 23.65 Q11.5 24.05 10.65 23.75 L10.65 23.65 M10.4 23.4 Q10.9 23.5 10.4 23.5 L10.4 23.4 M10.85 23.05 L10.85 22.95 Q11.35 23.05 10.85 23.05 M12.45 22.1 L12.45 22.0 Q12.95 22.1 12.45 22.1 M12.0 21.55 Q12.5 21.65 12.0 21.65 L12.0 21.55 M11.55 21.1 Q12.0 21.2 11.55 21.2 L11.55 21.1 M11.1 20.65 Q11.6 20.75 11.1 20.75 L11.1 20.65 M16.75 26.15 L17.0 26.4 17.2 26.6 17.0 26.6 17.0 26.4 16.75 26.4 16.75 26.15 M15.6 25.25 L15.6 25.5 15.8 25.5 16.0 25.55 Q16.65 26.7 15.6 25.5 L15.35 25.25 15.15 25.05 15.0 24.85 Q12.3 22.0 15.15 24.75 L15.15 25.05 15.35 25.05 15.35 25.25 15.6 25.25 M16.1 29.8 Q16.6 29.9 16.1 29.9 L16.1 29.8 M15.6 30.65 L15.6 30.55 Q16.1 30.65 15.6 30.65 M19.0 28.45 L18.3 27.85 Q16.8 26.25 19.0 28.45 19.5 28.55 19.0 28.55 L19.0 28.45 M19.45 28.9 Q19.95 29.0 19.45 29.0 L19.45 28.9 M19.9 29.35 Q20.4 29.45 19.9 29.45 L19.9 29.35 M13.1 25.25 Q13.6 25.35 13.1 25.35 L13.1 25.25 M13.55 25.8 L13.55 25.7 Q14.05 25.8 13.55 25.8 M15.15 27.4 L15.15 27.3 Q16.3 27.8 15.15 27.4 M14.25 26.5 L14.25 26.4 Q15.1 26.8 14.25 26.5 M14.7 26.85 Q15.2 26.95 14.7 26.95 L14.7 26.85 M11.1 25.35 Q11.6 25.35 11.1 25.25 L11.1 25.35 M10.65 26.95 L10.65 26.85 Q11.15 26.95 10.65 26.95 M10.85 26.6 Q11.35 26.7 10.85 26.7 L10.85 26.6 M12.35 26.3 Q12.25 26.3 12.2 26.4 L12.45 26.4 12.35 26.3 M12.65 27.8 Q13.15 27.9 12.65 27.9 L12.65 27.8 M14.0 30.25 Q14.5 30.35 14.0 30.35 L14.0 30.25 M13.35 28.7 Q14.45 29.25 13.35 28.8 L13.35 28.7 M11.75 27.05 Q13.1 28.1 11.8 27.2 L11.75 27.05 M12.2 26.85 Q12.7 26.95 12.2 26.95 L12.2 26.85 M12.7 24.9 L12.65 24.75 Q13.5 25.2 12.7 24.9 M17.95 33.45 L17.9 33.3 Q19.0 34.55 17.95 33.45 M19.45 34.85 Q19.95 34.95 19.45 34.95 L19.45 34.85 M19.7 35.2 L19.7 35.1 Q20.85 35.6 19.7 35.2 M31.2 36.15 L31.2 36.05 Q31.7 36.15 31.2 36.15 M30.55 26.95 L30.55 26.85 Q31.05 26.95 30.55 26.95 M8.85 25.25 Q10.2 26.65 8.9 25.4 L8.85 25.25 M9.8 25.4 L9.75 25.25 Q10.45 25.85 9.8 25.4 M9.75 26.15 Q10.45 26.75 9.8 26.3 L9.75 26.15 M25.55 27.05 L25.3 27.05 25.55 27.3 25.55 27.05 M26.45 27.3 L26.65 27.05 26.45 27.05 26.45 27.3 M27.85 28.35 L27.85 28.25 Q28.35 28.35 27.85 28.35 M28.75 30.05 Q29.95 30.8 28.75 30.15 L28.75 30.05 M26.45 28.55 L26.45 28.45 Q26.95 28.55 26.45 28.55 M24.4 25.25 Q24.9 25.35 24.4 25.35 L24.4 25.25 M23.95 25.5 L23.75 25.5 23.75 25.7 23.5 25.7 23.5 25.95 23.5 26.15 23.3 25.95 23.3 25.7 23.5 25.7 23.5 25.5 23.75 25.5 23.75 25.25 23.5 25.25 23.5 25.05 23.75 25.25 23.95 25.5 M23.05 25.7 Q22.1 24.7 23.2 25.55 L23.3 25.7 23.05 25.7 M23.5 26.15 L23.75 26.15 23.75 26.4 23.5 26.15 M23.75 26.4 L23.95 26.4 23.95 26.6 23.75 26.4 M24.4 26.6 L24.4 26.4 24.65 26.4 24.85 26.6 24.85 26.85 24.65 26.85 24.4 26.6 M23.95 26.6 L24.2 26.6 24.2 26.85 23.95 26.6 M24.4 27.05 L24.65 27.05 24.65 27.3 24.85 27.3 24.85 27.5 24.65 27.3 24.4 27.05 M24.85 27.5 L25.1 27.5 25.1 27.8 24.85 27.5 M20.8 25.35 L20.8 25.25 Q21.3 25.35 20.8 25.35 M21.05 25.6 L21.05 25.5 Q21.55 25.6 21.05 25.6 M22.6 28.9 L22.45 28.8 Q21.2 27.65 22.85 28.9 L22.6 28.9 M20.8 28.45 L20.7 28.4 Q20.5 27.65 20.8 28.25 L20.8 28.45 M20.6 29.15 Q21.15 29.35 20.6 29.25 L20.6 29.15 M20.6 29.9 L20.6 29.8 Q21.1 29.9 20.6 29.9 M21.05 30.25 Q21.55 30.35 21.05 30.35 L21.05 30.25 M21.05 29.6 Q20.5 29.25 21.15 29.6 L21.25 29.6 21.05 29.6 M22.15 30.75 L22.4 30.75 22.4 31.0 22.15 30.75 M21.5 30.05 L21.7 30.05 21.7 30.25 21.5 30.05 M23.3 32.35 L23.3 32.1 23.05 32.1 22.95 32.05 Q22.95 31.8 23.3 31.9 L23.3 32.1 23.5 32.1 23.5 32.35 23.75 32.35 23.75 32.55 23.5 32.55 23.5 32.35 23.3 32.35 M23.75 32.8 L23.95 32.8 24.2 32.8 24.2 32.55 23.95 32.55 23.95 32.35 24.2 32.55 24.4 32.8 24.65 33.0 24.4 33.0 24.4 32.8 24.2 32.8 24.2 33.0 24.2 33.3 24.4 33.3 24.4 33.5 24.2 33.3 23.75 32.8 M24.65 33.5 L24.65 33.3 24.85 33.3 24.85 33.5 24.65 33.5 M24.65 33.75 L24.85 33.75 24.85 33.5 25.1 33.5 25.1 33.75 25.3 33.75 25.3 33.95 25.55 33.95 25.55 34.2 25.3 34.2 25.3 33.95 25.1 33.95 25.1 33.75 24.85 33.75 24.85 33.95 24.65 33.75 M24.85 33.95 L25.1 33.95 25.1 34.2 25.3 34.2 25.3 34.4 25.1 34.2 24.85 33.95 M22.6 31.75 L22.6 31.65 Q23.1 31.75 22.6 31.75 M22.15 31.2 Q22.65 31.3 22.15 31.3 L22.15 31.2 M21.95 33.85 L21.95 33.75 Q22.45 33.85 21.95 33.85 M21.7 33.5 Q22.2 33.6 21.7 33.6 L21.7 33.5 M21.5 33.4 L21.5 33.3 Q22.0 33.4 21.5 33.4 M27.15 33.4 L27.1 33.3 Q27.95 33.7 27.15 33.4 M26.2 35.55 L26.65 36.5 Q27.4 36.45 26.95 36.15 L26.9 36.05 26.2 35.55 M30.1 34.85 Q30.6 34.95 30.1 34.95 L30.1 34.85 M29.65 34.4 Q30.35 35.0 29.7 34.55 L29.65 34.4 M-16.0 -28.15 Q-15.5 -28.05 -16.0 -28.05 L-16.0 -28.15 M-16.25 -28.3 L-16.25 -28.4 Q-15.75 -28.3 -16.25 -28.3 M-17.15 -29.3 Q-16.65 -29.2 -17.15 -29.2 L-17.15 -29.3 M-19.45 -30.8 Q-18.95 -30.8 -19.45 -30.9 L-19.45 -30.8 M-19.65 -30.35 Q-19.15 -30.35 -19.65 -30.45 L-19.65 -30.35 M-19.9 -30.6 Q-19.4 -30.6 -19.9 -30.7 L-19.9 -30.6 M-22.15 -32.75 L-22.35 -33.0 -22.6 -33.2 -22.35 -33.2 -22.35 -33.0 -22.15 -33.0 -22.15 -32.75 M-23.05 -33.45 L-23.1 -33.3 Q-23.5 -33.1 -23.5 -33.45 L-23.6 -33.5 -23.5 -33.65 -23.5 -33.9 -23.25 -33.9 -23.25 -33.65 -23.05 -33.65 -23.05 -33.45 M-19.2 -29.9 Q-18.7 -29.9 -19.2 -30.0 L-19.2 -29.9 M-19.45 -30.15 Q-18.95 -30.15 -19.45 -30.25 L-19.45 -30.15 M-19.45 -29.3 L-19.45 -29.2 Q-18.95 -29.2 -19.45 -29.3 M-19.9 -27.7 L-19.9 -27.95 -20.1 -27.95 Q-20.9 -28.5 -20.0 -28.05 L-19.9 -27.95 -19.65 -27.7 -19.9 -27.7 M-15.1 -24.95 L-14.65 -24.95 -14.9 -25.65 -14.8 -25.65 -14.9 -25.85 -14.9 -26.1 -15.1 -26.1 -15.1 -26.3 -15.2 -26.15 -15.1 -26.1 -14.9 -25.85 -14.9 -25.65 Q-15.65 -25.9 -15.2 -25.2 L-15.1 -24.95 M-18.55 -29.05 L-18.3 -28.85 Q-18.2 -28.75 -18.05 -28.75 L-18.05 -28.85 -17.9 -28.9 Q-17.85 -29.25 -18.3 -29.05 L-18.4 -29.15 -18.55 -29.05 M-18.55 -28.5 Q-18.05 -28.5 -18.55 -28.6 L-18.55 -28.5 M-18.05 -28.6 L-18.0 -28.45 Q-17.6 -28.1 -18.05 -28.6 M-18.75 -26.75 L-18.55 -26.55 -18.75 -26.55 -18.75 -26.75 -19.0 -26.75 -19.45 -27.25 -19.45 -27.5 -19.65 -27.5 -19.65 -27.7 -19.45 -27.5 -18.75 -26.75 M-17.8 -25.55 L-17.8 -25.65 Q-17.3 -25.55 -17.8 -25.55 M-18.3 -25.95 L-18.3 -26.1 Q-17.45 -25.65 -18.3 -25.95 M-16.0 -26.55 L-16.0 -26.45 Q-15.5 -26.45 -16.0 -26.55 M-16.25 -26.75 L-16.25 -26.65 Q-15.75 -26.65 -16.25 -26.75 M-16.45 -26.9 Q-15.95 -26.9 -16.45 -27.0 L-16.45 -26.9 M-16.9 -27.5 L-16.9 -27.4 Q-16.4 -27.4 -16.9 -27.5 M-17.15 -27.7 L-17.15 -27.5 -17.35 -27.5 -17.35 -27.7 -17.15 -27.7 -17.35 -27.85 -17.35 -27.7 -17.5 -27.7 -17.35 -27.5 Q-17.25 -27.4 -17.15 -27.4 L-17.15 -27.5 -17.05 -27.5 -17.15 -27.7 M-16.9 -26.75 L-16.9 -26.65 Q-16.4 -26.65 -16.9 -26.75 M-17.6 -25.4 Q-16.85 -24.8 -17.55 -25.3 L-17.6 -25.4 M-16.0 -25.75 Q-15.5 -25.75 -16.0 -25.85 L-16.0 -25.75 M-15.8 -25.55 Q-15.3 -25.55 -15.8 -25.65 L-15.8 -25.55 M-15.8 -26.2 Q-15.3 -26.2 -15.8 -26.3 L-15.8 -26.2 M-30.75 -34.1 L-30.5 -34.1 -30.5 -34.35 -30.75 -34.35 -30.75 -34.1 M-31.2 -33.45 L-30.95 -33.45 -31.2 -33.65 -31.2 -33.45 M-31.4 -33.9 L-31.4 -33.65 -31.2 -33.65 -31.4 -33.9 M-31.2 -32.65 L-31.2 -32.75 Q-30.7 -32.65 -31.2 -32.65 M-32.1 -30.6 L-32.1 -30.7 Q-31.6 -30.6 -32.1 -30.6 M-31.6 -31.2 L-31.65 -31.35 Q-30.85 -30.45 -31.6 -31.2 M-32.1 -30.0 Q-31.6 -29.9 -32.1 -29.9 L-32.1 -30.0 M-24.15 -34.35 L-24.05 -34.35 -24.15 -34.55 -24.15 -34.35 M-23.25 -33.65 L-23.5 -33.65 -23.5 -33.45 -23.25 -33.65 M-23.7 -31.7 L-23.7 -31.8 Q-23.2 -31.7 -23.7 -31.7 M-23.05 -31.35 Q-22.55 -31.25 -23.05 -31.25 L-23.05 -31.35 M-22.8 -31.0 L-22.8 -31.15 Q-21.95 -30.7 -22.8 -31.0 M-23.5 -31.5 L-23.5 -31.6 Q-22.65 -31.5 -23.5 -31.5 M-23.95 -31.35 Q-23.45 -31.25 -23.95 -31.25 L-23.95 -31.35 M-23.95 -32.05 Q-23.45 -31.95 -23.95 -31.95 L-23.95 -32.05 M-22.8 -32.65 L-22.8 -32.75 Q-22.3 -32.65 -22.8 -32.65 M-23.05 -32.9 L-23.05 -33.0 Q-22.55 -32.9 -23.05 -32.9 M-22.6 -32.4 L-22.6 -32.5 Q-22.1 -32.4 -22.6 -32.4 M-20.8 -31.05 L-20.8 -31.15 Q-20.3 -31.05 -20.8 -31.05 M-22.35 -32.15 L-22.35 -32.25 Q-21.85 -32.15 -22.35 -32.15 M-21.9 -31.05 L-21.9 -31.15 Q-21.4 -31.05 -21.9 -31.05 M-25.95 -34.35 Q-25.45 -34.25 -25.95 -34.25 L-25.95 -34.35 M-26.65 -34.45 L-26.65 -34.55 Q-26.15 -34.45 -26.65 -34.45 M-28.65 -36.1 L-28.65 -36.2 Q-28.15 -36.1 -28.65 -36.1 M-28.45 -35.95 Q-27.95 -35.85 -28.45 -35.85 L-28.45 -35.95 M-29.35 -31.25 L-29.35 -31.35 Q-28.85 -31.25 -29.35 -31.25 M-28.6 -32.8 L-28.65 -33.0 Q-28.0 -31.95 -28.6 -32.8 M-28.65 -33.55 L-28.65 -33.65 Q-28.15 -33.55 -28.65 -33.55 M-28.45 -33.45 Q-27.95 -33.35 -28.45 -33.35 L-28.45 -33.45 M-21.25 -30.0 L-21.0 -29.75 -21.25 -29.75 -21.25 -30.0 -21.45 -30.0 -21.45 -30.25 -21.7 -30.25 -21.7 -30.45 -21.45 -30.25 -21.25 -30.0 M-21.0 -30.35 L-21.0 -30.45 Q-20.5 -30.35 -21.0 -30.35 M-21.25 -30.7 Q-20.75 -30.6 -21.25 -30.6 L-21.25 -30.7 M-26.2 -33.9 Q-25.7 -33.8 -26.2 -33.8 L-26.2 -33.9 M-29.1 -31.95 L-29.1 -32.05 Q-28.6 -31.95 -29.1 -31.95 M-21.0 -29.75 Q-20.2 -29.4 -21.0 -29.4 L-21.0 -29.5 -21.0 -29.75 M-20.8 -28.6 Q-20.3 -28.5 -20.8 -28.5 L-20.8 -28.6 M-22.15 -29.65 L-22.15 -29.75 Q-21.65 -29.65 -22.15 -29.65 M-22.35 -29.9 L-22.35 -30.0 Q-21.85 -29.9 -22.35 -29.9 M-22.35 -30.6 L-22.35 -30.7 Q-21.5 -30.6 -22.35 -30.6 M-21.7 -30.8 L-21.7 -30.9 Q-20.85 -30.8 -21.7 -30.8 M-23.5 -30.8 L-23.5 -30.9 Q-23.0 -30.8 -23.5 -30.8 M-22.8 -30.35 L-22.8 -30.45 Q-22.3 -30.35 -22.8 -30.35 M-3.6 -19.8 L-3.6 -19.9 Q-3.1 -19.8 -3.6 -19.8 M-9.7 -19.7 Q-9.2 -19.6 -9.7 -19.6 L-9.7 -19.7 M-9.0 -18.6 L-9.05 -18.75 Q-8.6 -18.2 -9.0 -18.6 M-8.8 -17.6 L-9.05 -17.6 -9.05 -17.85 -9.25 -17.85 -9.05 -17.6 -8.8 -17.15 -8.6 -17.05 -8.6 -17.15 -8.8 -17.15 -8.8 -17.6 M-9.05 -16.1 L-9.05 -16.25 Q-8.55 -16.15 -9.05 -16.1 M-7.7 -16.6 L-7.7 -16.7 Q-7.2 -16.6 -7.7 -16.6 M-8.8 -16.0 Q-8.3 -15.9 -8.8 -15.9 L-8.8 -16.0 M-8.15 -16.0 L-8.35 -16.25 -8.15 -16.25 -8.15 -16.0 M-13.55 -24.75 Q-13.05 -24.65 -13.55 -24.65 L-13.55 -24.75 M-13.55 -23.45 Q-13.05 -23.45 -13.55 -23.55 L-13.55 -23.45 M-13.75 -23.8 L-13.75 -23.7 Q-13.25 -23.7 -13.75 -23.8 M-13.3 -24.0 L-13.1 -23.8 -13.1 -24.0 -13.3 -24.0 M-14.2 -24.25 L-14.2 -24.15 Q-13.7 -24.15 -14.2 -24.25 M-14.9 -24.4 Q-14.4 -24.4 -14.9 -24.5 L-14.9 -24.4 M-14.65 -24.15 Q-14.15 -24.15 -14.65 -24.25 L-14.65 -24.15 M-14.2 -23.35 L-14.0 -23.35 -14.0 -23.1 -14.0 -22.9 -14.2 -22.9 -14.2 -23.35 M-14.45 -24.0 L-14.45 -23.9 Q-13.95 -23.9 -14.45 -24.0 M-14.0 -23.9 Q-13.5 -23.9 -14.0 -24.0 L-14.0 -23.9 M-12.85 -22.55 Q-12.35 -22.55 -12.85 -22.65 L-12.85 -22.55 M-13.3 -22.9 L-13.3 -22.8 Q-12.45 -22.8 -13.3 -22.9 M-13.75 -22.65 L-13.75 -22.55 Q-13.25 -22.55 -13.75 -22.65 M-12.85 -21.4 Q-12.35 -21.4 -12.85 -21.5 L-12.85 -21.4 M-11.95 -20.25 Q-11.45 -20.25 -11.95 -20.35 L-11.95 -20.25 M-12.2 -20.6 L-12.2 -20.5 Q-11.7 -20.5 -12.2 -20.6 M-12.65 -21.25 L-12.6 -21.15 Q-11.95 -20.65 -12.65 -21.25 M-11.5 -21.15 L-11.5 -21.25 Q-11.0 -21.15 -11.5 -21.15 M-11.5 -19.7 L-11.5 -19.9 -11.65 -19.9 -11.5 -19.7 -11.3 -19.6 -11.3 -19.7 -11.5 -19.7 M-11.3 -19.7 L-11.2 -19.7 -11.3 -19.9 -11.5 -20.05 -11.5 -19.9 -11.3 -19.9 -11.3 -19.7 M-10.4 -19.7 L-10.5 -19.7 -10.4 -19.45 -10.4 -19.7 M-11.3 -19.45 L-11.3 -19.35 Q-10.8 -19.35 -11.3 -19.45 M-10.85 -19.8 Q-10.35 -19.8 -10.85 -19.9 L-10.85 -19.8 M-13.1 -21.75 L-13.1 -21.6 Q-12.6 -21.65 -13.1 -21.75 M-15.55 -24.25 L-15.35 -24.25 -15.35 -23.8 -15.55 -24.25 M-16.0 -24.75 L-15.85 -24.7 -15.8 -24.5 -16.0 -24.75 M-16.9 -24.65 L-16.9 -24.75 Q-16.4 -24.65 -16.9 -24.65 M-16.7 -24.15 L-16.7 -24.25 Q-16.2 -24.15 -16.7 -24.15 M-16.45 -23.9 L-16.45 -24.0 Q-15.95 -23.9 -16.45 -23.9 M-15.8 -23.25 L-15.8 -23.35 Q-15.3 -23.25 -15.8 -23.25 M-16.0 -23.45 L-16.0 -23.55 Q-15.5 -23.45 -16.0 -23.45 M-10.4 -18.5 L-10.4 -18.4 Q-9.9 -18.4 -10.4 -18.5 M-20.1 -2.15 L-20.1 -2.25 Q-19.6 -2.15 -20.1 -2.15 M-9.95 10.8 L-10.15 10.8 -10.15 10.55 Q-9.55 10.55 -9.95 10.8 M-5.6 10.9 L-5.6 10.8 Q-5.1 10.9 -5.6 10.9 M-4.25 10.65 L-4.25 10.55 Q-3.75 10.65 -4.25 10.65 M-4.7 9.9 Q-4.2 10.0 -4.7 10.0 L-4.7 9.9 M-3.8 11.75 L-3.8 11.6 -3.6 11.75 -3.8 11.75 M-3.6 11.75 L-3.15 11.95 -2.9 12.2 -3.15 12.2 -3.15 11.95 -3.35 11.95 -3.6 11.75 M-3.15 11.6 L-3.15 11.5 Q-2.65 11.6 -3.15 11.6 M-12.65 5.15 L-12.65 5.05 Q-12.15 5.15 -12.65 5.15 M-12.2 4.7 L-12.2 4.6 Q-11.7 4.7 -12.2 4.7 M-12.4 4.85 Q-11.9 4.95 -12.4 4.95 L-12.4 4.85 M-15.55 9.2 L-15.55 9.0 -15.35 9.0 -15.35 8.75 -15.1 8.75 -14.9 8.75 -14.9 8.55 -14.9 8.35 Q-14.4 8.35 -14.9 8.75 L-15.1 9.0 -15.35 9.0 -15.35 9.2 -15.55 9.2 M-15.1 9.2 L-15.35 9.45 -15.55 9.65 -15.55 9.45 -15.35 9.45 -15.35 9.2 -15.1 9.2 M-15.8 9.9 L-15.9 10.05 Q-16.6 10.85 -16.0 9.9 L-15.8 9.9 M-16.45 9.55 L-16.45 9.45 Q-15.95 9.55 -16.45 9.55 M-16.25 9.3 L-16.25 9.2 Q-15.75 9.3 -16.25 9.3 M-15.8 11.4 L-15.8 11.3 Q-15.3 11.4 -15.8 11.4 M-16.7 9.75 L-16.7 9.65 Q-16.2 9.75 -16.7 9.75 M-16.9 10.2 L-16.9 10.1 Q-16.4 10.2 -16.9 10.2 M-14.65 8.15 L-14.65 8.05 Q-14.15 8.15 -14.65 8.15 M-14.45 7.9 L-14.45 7.8 Q-13.95 7.9 -14.45 7.9 M-18.75 15.85 Q-18.25 15.95 -18.75 15.95 L-18.75 15.85 M-15.55 16.6 L-15.55 16.5 Q-15.05 16.6 -15.55 16.6 M-17.6 17.1 L-17.6 17.0 Q-17.1 17.1 -17.6 17.1 M-17.35 16.9 L-17.35 16.8 Q-16.9 16.9 -17.35 16.9 M-16.7 19.35 L-16.7 19.25 Q-15.9 19.3 -16.7 19.35 M-17.35 20.55 L-17.35 20.45 Q-16.65 20.8 -17.35 20.55 M-19.45 18.6 L-19.45 18.8 -19.65 18.8 -19.65 18.6 -19.45 18.6 Q-18.6 17.75 -19.15 18.55 L-19.2 18.6 -19.45 18.6 M-20.1 19.25 L-20.35 19.55 -20.35 19.25 -20.1 19.25 M-20.35 19.75 L-20.55 20.0 -20.8 20.2 -20.8 20.0 -20.55 20.0 -20.55 19.75 -20.35 19.75 M-21.0 20.65 L-21.25 20.9 -21.25 20.65 -21.0 20.65 M-17.8 21.2 L-17.8 21.1 Q-17.05 21.15 -17.8 21.2 M-20.1 24.55 L-20.1 24.3 -19.9 24.3 -20.1 24.55 M-0.35 13.55 L-0.45 13.3 -0.45 13.55 -0.9 13.55 -0.65 13.1 -0.45 13.3 -0.45 13.2 0.45 13.55 -0.35 13.55 M-2.45 13.3 Q-1.95 13.4 -2.45 13.4 L-2.45 13.3 M-26.6 5.65 L-26.65 5.5 Q-26.2 6.05 -26.6 5.65 M-27.55 11.95 Q-27.05 11.5 -27.25 12.35 L-27.3 12.4 -27.55 11.95 M-21.0 18.35 Q-20.5 18.45 -21.0 18.45 L-21.0 18.35 M-32.55 24.2 L-32.55 24.1 Q-32.05 24.2 -32.55 24.2 M-32.7 24.45 L-32.75 24.3 Q-32.35 24.85 -32.7 24.45 M-31.65 22.4 L-31.65 22.3 Q-31.15 22.4 -31.65 22.4 M-29.35 14.95 L-29.6 14.95 -29.6 14.7 Q-29.55 14.15 -29.35 14.95 M-26.65 21.9 L-26.65 21.8 Q-25.85 21.85 -26.65 21.9 M-27.55 23.05 L-27.55 22.95 Q-27.05 23.05 -27.55 23.05 M-27.75 23.2 Q-27.25 23.3 -27.75 23.3 L-27.75 23.2 M-26.2 23.85 Q-25.75 24.4 -26.15 24.0 L-26.2 23.85 M-28.0 23.5 L-28.0 23.4 Q-27.5 23.5 -28.0 23.5 M-26.2 21.35 Q-25.7 21.45 -26.2 21.45 L-26.2 21.35 M-21.9 19.75 L-21.7 19.75 -21.7 19.85 -21.9 19.75 M-21.7 19.55 L-21.9 19.55 -21.85 19.4 Q-20.85 19.0 -21.7 19.55 M-22.6 20.45 L-22.8 20.45 -22.75 20.25 Q-22.2 19.8 -22.6 20.45 M-22.8 20.65 L-22.6 20.65 -22.8 20.9 -22.8 21.0 -23.05 20.9 -22.8 20.9 -22.8 20.65 M-22.15 20.9 L-22.15 21.0 -22.35 20.9 -22.15 20.9 M-22.15 20.2 Q-21.45 20.6 -22.1 20.35 L-22.15 20.2 M-22.6 21.1 Q-22.15 21.65 -22.55 21.25 L-22.6 21.1 M-25.05 22.85 L-25.05 22.75 Q-24.55 22.85 -25.05 22.85 M-23.5 22.75 Q-23.0 22.85 -23.5 22.85 L-23.5 22.75 M-23.45 21.5 L-23.5 21.35 Q-23.05 21.85 -23.45 21.5 M-24.6 24.1 L-24.6 23.85 -24.4 23.85 -24.4 24.1 -24.6 24.1 M-24.15 23.65 L-24.1 23.45 Q-23.2 22.25 -23.95 23.65 -23.55 23.7 -23.8 24.25 L-23.95 24.3 -24.15 24.3 -24.4 24.3 -24.4 24.1 -24.15 24.1 -23.95 23.65 -24.15 23.65 M-23.95 24.55 L-24.0 24.75 Q-24.3 25.4 -24.6 24.75 L-24.6 24.85 -24.85 24.75 -24.6 24.75 -24.6 24.55 -24.4 24.55 -24.15 24.55 -23.95 24.55 M-20.8 25.25 L-20.9 25.55 -21.0 25.25 -20.8 25.25 M-21.25 25.7 Q-20.8 25.8 -21.25 25.8 L-21.25 25.7 M-22.6 27.05 L-22.7 27.15 Q-23.4 27.45 -22.6 26.85 L-22.6 27.05 M-24.6 25.35 L-24.6 25.25 Q-24.15 25.35 -24.6 25.35 M-23.25 27.6 L-23.25 27.5 Q-22.75 27.6 -23.25 27.6 M-23.5 28.1 L-23.5 28.0 Q-23.0 28.1 -23.5 28.1 M-23.7 30.75 L-23.7 30.55 -23.5 30.55 -23.7 30.75 M-23.05 30.25 L-23.05 30.35 Q-22.55 30.35 -23.05 30.25 M-22.8 29.45 Q-22.3 29.45 -22.8 29.35 L-22.8 29.45 M-25.95 25.7 L-26.2 25.7 -26.4 25.95 -26.65 26.15 -26.65 25.95 -26.4 25.95 -26.4 25.7 -26.2 25.7 Q-25.05 23.3 -25.95 25.5 L-25.95 25.7 M-25.95 26.15 L-26.2 26.4 -26.2 26.15 -25.95 26.15 M-25.9 27.65 L-25.95 27.5 Q-25.35 28.25 -25.9 27.65 M-26.65 25.35 L-26.65 25.25 Q-26.15 25.35 -26.65 25.35 M-27.1 24.75 Q-26.65 25.3 -27.05 24.9 L-27.1 24.75 M-25.5 25.8 L-25.5 25.7 Q-25.0 25.8 -25.5 25.8 M-26.45 27.5 Q-26.65 28.3 -26.65 27.3 L-26.4 27.3 -26.45 27.5 M-26.4 27.05 L-26.4 26.85 -26.2 26.85 -26.4 27.05 M-29.1 29.15 L-29.1 29.0 -28.9 29.15 -29.1 29.15 M-28.9 28.8 L-28.9 28.7 Q-28.05 28.8 -28.9 28.8 M-28.4 28.15 L-28.45 28.0 Q-28.0 28.55 -28.4 28.15 M-25.7 26.3 L-25.75 26.15 Q-25.3 26.7 -25.7 26.3 M-28.9 29.6 L-28.9 29.8 Q-29.15 30.7 -29.1 29.6 L-28.9 29.6 M-29.35 28.55 L-29.35 28.45 Q-28.85 28.55 -29.35 28.55 M-29.85 29.6 L-30.05 29.6 -30.05 29.45 -29.85 29.6 M-30.05 29.6 L-30.05 29.8 -29.85 29.8 -29.85 30.05 -30.05 30.05 -30.05 29.8 -30.3 29.8 -30.3 29.6 -30.05 29.6 M-28.2 30.55 L-28.0 30.55 -28.05 30.75 Q-28.25 31.25 -28.2 30.55 M-28.0 30.05 L-28.2 30.05 -28.15 29.8 Q-27.5 28.9 -28.0 30.05 M-25.95 28.7 L-26.2 28.7 -26.2 28.55 -25.95 28.7 M-26.2 28.9 L-26.2 29.15 -25.95 29.15 -26.2 29.35 -26.2 29.15 -26.4 29.15 -26.4 28.9 -26.2 28.9 M-26.2 29.6 L-26.2 29.7 -26.4 29.6 -26.2 29.6 M-27.1 29.0 L-27.1 28.9 Q-26.6 29.0 -27.1 29.0 M-28.65 31.9 Q-28.3 32.8 -28.65 32.1 L-28.65 31.9 M-27.75 32.8 Q-27.25 32.9 -27.75 32.9 L-27.75 32.8 M-27.55 32.0 L-27.55 31.9 Q-26.8 31.9 -27.55 32.0 M-27.3 27.9 L-27.3 27.8 Q-26.8 27.9 -27.3 27.9 M-29.85 33.3 L-30.05 33.3 -30.0 33.05 Q-29.45 32.0 -29.85 33.3 M-30.05 33.75 L-30.05 33.95 -29.85 33.95 -30.05 34.2 -30.05 33.95 -30.3 33.95 -30.3 33.75 -30.05 33.75 M-28.9 34.5 L-28.9 34.4 Q-28.4 34.5 -28.9 34.5 M-29.1 33.6 L-29.1 33.5 Q-28.6 33.6 -29.1 33.6 M-28.85 32.7 L-28.9 32.55 Q-28.45 33.1 -28.85 32.7 M-25.75 35.55 L-25.95 35.55 -25.95 35.75 -25.75 35.75 -25.75 35.55 M-24.4 32.55 L-24.4 32.8 -24.15 32.8 -24.4 33.0 -24.4 32.8 -24.6 32.8 -24.6 32.55 -24.4 32.55 M-24.15 32.55 L-24.15 32.35 -23.95 32.35 -24.15 32.55 M-24.6 33.0 L-24.4 33.3 -24.45 33.45 Q-25.25 33.4 -24.6 33.0 M-24.85 33.95 L-25.05 33.95 -25.05 33.85 -24.85 33.95 M-25.05 34.2 L-24.85 34.2 -25.05 34.4 -25.3 34.4 -25.3 34.2 -25.05 34.2 M-25.05 34.65 L-25.2 34.75 Q-25.7 35.15 -25.3 34.65 L-25.05 34.65 M-32.95 25.0 L-33.0 24.75 Q-32.6 25.75 -32.95 25.0 M-25.3 35.2 L-25.3 35.1 Q-24.8 35.2 -25.3 35.2 M-31.2 28.7 L-31.2 28.45 -31.1 28.7 -31.2 28.7" fill="#ffffbf" fill-rule="evenodd" stroke="none"/>
    <path d="M28.3 -36.4 L28.3 -36.65 28.5 -36.65 28.5 -36.4 28.3 -36.4 M29.65 -34.35 L29.85 -34.35 29.85 -34.1 29.65 -34.35 M32.1 -33.9 L32.35 -33.9 32.1 -33.65 32.1 -33.9 M32.8 -32.75 L33.0 -32.75 Q33.5 -32.55 33.0 -32.5 L32.8 -32.5 32.8 -32.25 32.55 -32.25 32.35 -32.25 32.35 -32.5 32.55 -32.5 32.8 -32.5 32.8 -32.75 M32.35 -32.05 L32.1 -32.05 32.1 -32.25 32.35 -32.25 32.35 -32.05 M32.35 -31.15 L32.35 -30.9 32.1 -30.9 32.1 -31.15 32.35 -31.15 M29.65 -27.7 L29.4 -27.7 29.4 -27.95 29.65 -27.7 M28.05 -26.1 L27.85 -26.1 27.6 -26.1 27.6 -26.3 27.85 -26.55 28.05 -26.1 M27.4 -25.2 L27.1 -24.95 27.1 -25.2 27.4 -25.2 M11.75 -13.75 L11.55 -13.5 11.3 -13.25 11.3 -13.5 11.55 -13.5 11.55 -13.75 11.75 -13.75 M9.95 -12.8 L9.75 -12.55 9.75 -12.8 9.95 -12.8 M7.25 -9.35 L7.25 -9.6 7.5 -9.6 7.5 -9.35 7.25 -9.35 M3.15 -5.95 L3.15 -5.7 2.95 -5.7 2.95 -5.95 3.15 -5.95 M3.85 -5.95 L4.05 -5.95 4.05 -6.15 4.3 -6.15 4.3 -6.4 4.55 -6.4 4.3 -6.15 4.3 -5.95 4.05 -5.95 4.05 -5.7 3.85 -5.7 3.85 -5.95 M5.25 -7.3 L5.25 -7.5 5.45 -7.5 5.45 -7.3 5.25 -7.05 5.25 -7.3 M3.4 -5.0 L3.4 -4.75 3.15 -4.75 3.15 -4.55 2.95 -4.55 2.95 -4.75 3.15 -4.75 3.15 -5.0 3.15 -5.25 3.4 -5.25 3.4 -5.0 M9.05 4.4 L9.05 4.6 9.3 4.6 9.3 4.85 9.05 4.85 9.05 4.6 8.85 4.6 8.85 4.4 9.05 4.4 M14.25 10.1 L14.45 10.35 14.45 10.55 14.25 10.55 14.25 10.1 M15.15 10.8 L15.15 11.0 14.9 11.0 14.9 10.8 15.15 10.8 M20.35 16.05 L20.45 16.3 20.35 16.3 20.35 16.05 M27.1 28.25 L27.4 28.25 27.4 28.45 27.6 28.45 27.6 28.7 27.4 28.7 27.4 28.45 27.1 28.45 27.1 28.25 M28.05 31.45 L27.85 31.2 28.05 31.2 28.05 31.45 M27.6 32.55 L27.85 32.8 28.05 32.8 28.05 33.0 28.3 33.0 28.3 33.3 28.05 33.3 28.05 33.0 27.85 33.0 27.85 32.8 27.6 32.8 27.6 32.55 M28.5 33.3 L28.75 33.5 28.75 33.75 28.5 33.5 28.5 33.3 M29.2 34.2 L28.95 33.95 29.2 33.95 29.2 34.2 M25.55 31.9 L25.75 32.1 26.0 32.1 26.0 32.35 25.75 32.35 25.75 32.1 25.55 32.1 25.3 31.9 25.1 31.65 24.85 31.65 24.85 31.45 25.1 31.45 25.1 31.65 25.3 31.65 25.3 31.9 25.55 31.9 M26.45 32.8 L26.2 32.55 26.0 32.55 26.0 32.35 26.2 32.35 26.2 32.55 26.45 32.55 26.45 32.8 M24.4 31.0 L24.2 31.0 24.2 30.75 24.4 30.75 24.4 31.0 M22.4 30.25 L22.6 30.25 22.6 30.55 22.4 30.55 22.4 30.25 M23.05 30.75 L23.3 31.0 23.3 31.2 22.85 30.75 22.6 30.75 22.6 30.55 22.85 30.55 22.85 30.75 23.05 30.75 M23.5 31.2 L23.75 31.45 23.95 31.65 23.75 31.65 23.75 31.45 23.5 31.45 23.5 31.2 M24.2 31.9 L24.4 31.9 24.4 32.1 24.2 31.9 M25.3 33.5 L25.3 33.75 25.55 33.95 25.75 33.95 25.75 34.2 25.55 34.2 25.55 33.95 25.3 33.95 25.3 33.75 25.1 33.75 25.1 33.5 25.3 33.5 M17.65 29.8 L17.45 30.05 17.45 29.8 17.2 29.8 17.2 29.7 17.45 29.8 17.65 29.8 M14.0 27.5 L14.0 27.3 13.8 27.3 13.8 27.05 14.0 27.05 14.0 27.3 14.25 27.3 14.25 27.5 14.0 27.5 M-10.15 11.5 L-10.15 11.3 -9.95 11.3 -9.95 11.5 -10.15 11.5 M-14.9 15.85 L-14.9 15.6 -14.65 15.6 -14.65 15.85 -14.9 15.85 M-19.45 19.75 L-19.65 19.75 -19.65 19.55 -19.45 19.55 -19.45 19.75 M-21.0 23.65 L-21.0 23.85 -21.25 23.65 -21.0 23.65 M-21.25 24.1 L-21.25 24.3 -21.45 24.3 -21.45 24.1 -21.25 24.1 M-21.0 25.25 L-21.0 25.05 -20.8 25.05 -20.8 24.75 -20.55 24.75 -20.55 25.05 -20.35 25.05 -20.35 25.25 -20.55 25.25 -20.55 25.05 -20.8 25.05 -20.8 25.25 -21.0 25.25 M-19.0 22.5 L-19.0 22.3 -18.75 22.3 -18.75 22.0 -18.75 21.8 -18.55 21.8 -18.55 21.55 -18.3 21.55 -18.3 21.8 -18.55 21.8 -18.55 22.0 -18.55 22.3 -18.75 22.3 -18.75 22.5 -19.0 22.5 M-18.05 21.35 L-18.05 21.55 -18.3 21.55 -18.3 21.35 -18.05 21.35 M-19.2 24.3 L-19.45 24.55 -19.45 24.3 -19.2 24.3 M-19.65 24.75 L-19.65 25.05 -19.9 25.05 -19.9 24.75 -19.65 24.75 M-19.9 25.25 L-20.1 25.5 -20.1 25.25 -20.1 25.05 -19.9 25.05 -19.9 25.25 M-22.8 30.75 L-22.8 31.0 -23.05 31.0 -23.05 30.75 -22.8 30.75 M-23.25 31.45 L-23.25 31.65 -23.5 31.65 -23.5 31.45 -23.25 31.45 M-23.5 31.9 L-23.5 32.1 -23.7 32.1 -23.7 31.9 -23.7 31.65 -23.5 31.65 -23.5 31.9 M-31.2 34.2 L-31.2 33.75 -30.95 33.75 -30.95 33.95 -30.95 34.2 -31.2 34.2 M-30.05 31.2 L-30.05 31.0 -29.85 31.2 -30.05 31.2 M-31.2 30.05 L-31.4 29.8 -31.2 29.8 -31.2 30.05 M-32.1 20.9 L-32.1 20.65 -31.85 20.65 -31.85 20.9 -32.1 20.9 M-31.65 19.25 L-31.65 19.05 -31.4 19.25 -31.2 19.25 -31.2 19.55 -31.4 19.55 -31.4 19.25 -31.65 19.25 M-28.2 14.25 L-28.2 14.05 -28.0 14.05 -28.0 13.75 -27.75 13.75 -27.75 14.05 -28.0 14.05 -28.0 14.5 -28.2 14.5 -28.2 14.25 M-27.75 8.05 L-28.2 8.55 -28.2 8.75 -28.45 8.75 -28.45 8.55 -28.2 8.55 -28.2 8.25 -28.2 8.05 -28.0 7.8 -27.75 8.05 M-32.75 -31.15 L-32.55 -30.9 -32.75 -30.9 -32.75 -31.15 M-32.3 -31.8 L-32.1 -31.8 -32.1 -31.6 -32.3 -31.6 -32.3 -31.8 M-31.65 -33.45 L-31.65 -33.65 -31.4 -33.65 -31.4 -33.45 -31.65 -33.45 M-30.95 -34.55 L-30.75 -34.55 -30.75 -34.35 -30.95 -34.35 -30.95 -34.55 M-29.85 -34.55 L-30.05 -34.8 -29.85 -34.8 -29.85 -34.55 M-30.95 -35.75 L-30.95 -35.95 -30.75 -35.95 -30.75 -35.75 -30.5 -35.75 -30.5 -35.5 -30.3 -35.25 -30.05 -35.0 -30.3 -35.0 -30.3 -35.25 -30.5 -35.25 -30.5 -35.5 -30.75 -35.5 -30.75 -35.75 -30.95 -35.75 M-25.05 -35.0 L-24.85 -35.0 -24.85 -34.8 -24.6 -34.8 -24.6 -34.55 -24.85 -34.55 -24.85 -34.8 -25.05 -35.0 M-23.25 -34.1 L-23.05 -34.1 -23.05 -33.9 -23.25 -33.9 -23.25 -34.1 M-22.8 -33.9 L-22.6 -33.65 -22.8 -33.65 -22.8 -33.9 M-22.35 -33.45 L-22.15 -33.45 -22.15 -33.2 -22.35 -33.2 -22.35 -33.45 M-19.9 -31.6 L-19.65 -31.6 -19.65 -31.35 -19.45 -31.35 -19.45 -31.15 -19.65 -31.35 -19.9 -31.35 -19.9 -31.6 M16.1 -35.95 L16.1 -35.75 15.8 -35.75 15.8 -35.95 16.1 -35.95 M12.9 -28.6 L13.1 -28.6 13.35 -28.6 13.35 -28.85 13.55 -28.85 13.35 -28.6 12.9 -28.4 12.9 -28.6 M13.55 -29.05 L13.8 -29.05 13.55 -28.85 13.55 -29.05 M14.25 -29.5 L14.7 -29.5 14.6 -29.35 14.0 -29.3 14.25 -29.5 M17.0 -30.9 L17.2 -30.9 17.45 -30.9 17.45 -30.7 17.0 -30.7 17.0 -30.9 M22.15 -34.1 L22.4 -34.1 22.4 -33.9 22.15 -33.9 22.15 -34.1 M29.4 -33.9 L29.85 -33.9 29.85 -34.1 29.95 -33.9 29.85 -33.9 29.85 -33.65 29.65 -33.65 29.4 -33.65 29.4 -33.9 M30.3 -33.8 L30.3 -33.9 Q30.8 -33.8 30.3 -33.8 M28.95 -31.6 L28.95 -31.8 29.2 -31.6 28.95 -31.6 M31.45 -31.8 L31.65 -32.05 31.9 -31.8 31.65 -31.8 31.45 -31.8 M30.55 -34.0 L30.55 -34.1 Q31.05 -34.0 30.55 -34.0 M32.1 -30.45 L31.9 -30.25 31.9 -30.45 32.1 -30.45 M18.35 -20.15 L18.55 -20.15 18.55 -19.9 18.35 -19.9 18.35 -20.15 M13.1 -16.0 L13.35 -16.0 13.35 -16.25 13.55 -16.25 13.55 -16.0 13.35 -16.0 13.35 -15.75 13.1 -15.75 12.9 -15.55 12.65 -15.75 12.9 -15.75 13.1 -15.75 13.1 -16.0 M12.2 -15.1 L12.45 -15.1 12.45 -14.85 12.2 -14.85 12.0 -14.85 12.0 -15.1 12.2 -15.1 M10.65 -13.75 L10.85 -13.75 10.85 -13.5 10.65 -13.75 M6.15 -9.35 L6.35 -9.35 6.35 -9.6 6.6 -9.6 6.6 -9.8 6.8 -9.8 6.8 -9.6 6.6 -9.6 6.6 -9.35 6.35 -9.35 6.35 -9.15 6.15 -9.15 6.15 -9.35 M5.45 -8.7 L5.7 -8.7 5.7 -8.9 5.9 -8.9 5.9 -8.7 5.7 -8.7 5.7 -8.45 5.45 -8.45 5.45 -8.7 M4.3 -7.3 L4.3 -7.05 4.05 -7.05 4.05 -6.85 3.85 -6.85 3.85 -7.05 4.05 -7.05 4.05 -7.3 4.3 -7.3 M2.5 -5.25 L2.5 -5.5 2.7 -5.5 2.7 -5.25 2.5 -5.25 M2.7 -2.75 L2.95 -2.75 2.7 -2.5 2.7 -2.75 M20.35 18.35 L20.6 18.35 20.35 18.6 20.35 18.35 M21.05 19.05 L21.05 18.8 21.25 18.8 21.05 19.05 M11.1 6.45 L11.1 6.55 10.85 6.45 10.75 6.4 10.85 6.25 10.85 6.45 11.1 6.45 M13.55 9.9 L13.55 9.65 13.8 9.65 13.55 9.9 M9.95 5.8 L9.95 5.5 10.2 5.5 9.95 5.8 M10.85 24.55 L12.65 25.7 12.65 25.95 12.9 25.95 12.9 26.15 13.1 26.15 13.1 26.4 13.35 26.4 13.35 26.6 13.55 26.6 13.35 26.85 13.35 26.6 13.1 26.4 12.9 26.15 12.65 25.95 10.85 24.55 M17.9 14.05 L17.65 14.25 17.9 14.7 18.1 14.95 18.35 14.95 18.35 15.15 18.1 15.15 18.1 14.95 17.9 14.95 17.9 14.7 17.65 14.7 17.45 14.7 17.45 14.5 17.45 14.25 17.65 14.25 17.65 14.05 17.9 14.05 M18.8 14.95 L19.0 14.95 19.0 15.15 18.8 15.15 18.8 14.95 M26.2 26.85 L26.45 26.85 26.45 27.05 26.2 27.05 26.2 26.85 M26.45 27.3 L26.45 27.05 26.65 27.05 26.45 27.3 M23.75 25.7 L23.75 25.95 23.5 25.95 23.5 25.7 23.75 25.7 M23.95 26.15 L24.2 26.15 24.2 26.4 24.4 26.4 24.4 26.6 24.2 26.6 24.2 26.4 23.95 26.4 23.95 26.15 M25.1 27.05 L24.85 27.05 24.65 27.05 24.65 26.85 24.85 26.85 25.1 26.85 25.1 27.05 M23.75 32.35 L23.95 32.35 23.95 32.55 24.2 32.55 24.2 32.8 23.95 32.8 23.95 32.55 23.75 32.55 23.75 32.35 M24.4 33.0 L24.2 33.0 24.2 32.8 24.4 32.8 24.4 33.0 M-19.9 -30.6 L-19.9 -30.7 Q-19.4 -30.6 -19.9 -30.6 M-19.65 -30.35 L-19.65 -30.45 Q-19.15 -30.35 -19.65 -30.35 M-19.45 -29.3 Q-18.95 -29.2 -19.45 -29.2 L-19.45 -29.3 M-19.45 -30.15 L-19.45 -30.25 Q-18.95 -30.15 -19.45 -30.15 M-19.2 -29.9 L-19.2 -30.0 Q-18.7 -29.9 -19.2 -29.9 M-19.0 -27.95 L-19.0 -28.15 -19.2 -28.15 -19.2 -28.4 -19.0 -28.15 -18.05 -27.7 -17.8 -27.5 -17.8 -27.0 -18.05 -27.0 -19.0 -27.95 M-17.8 -26.75 L-17.8 -27.0 -17.35 -27.0 -17.35 -26.75 -17.35 -26.55 -17.8 -26.75 M-17.15 -27.0 L-17.05 -26.75 -17.15 -26.75 -17.15 -27.0 M-15.35 -24.75 L-15.35 -24.95 -15.1 -24.95 -15.1 -24.75 -15.0 -24.5 -15.1 -24.5 -15.1 -24.75 -15.35 -24.75 M-14.2 -23.35 L-14.2 -23.45 -14.0 -23.35 -13.75 -23.1 -14.0 -23.1 -14.0 -23.35 -14.2 -23.35 M-14.0 -22.65 L-14.2 -22.9 -14.0 -22.9 -14.0 -22.65 M-11.3 -18.75 L-11.05 -18.5 -11.3 -18.5 -11.3 -18.75 M-10.15 -18.05 L-9.7 -18.05 -9.7 -17.6 -9.5 -17.4 -9.7 -17.4 -9.7 -17.6 -9.95 -17.6 -10.15 -17.85 -10.15 -18.05 M-18.55 -29.05 L-18.4 -29.15 -18.3 -29.05 Q-17.85 -29.25 -17.9 -28.9 L-18.05 -28.85 -18.3 -28.85 -18.3 -29.05 -18.55 -29.05 M-16.9 -26.75 Q-16.4 -26.65 -16.9 -26.65 L-16.9 -26.75 M-15.8 -25.55 L-15.8 -25.65 Q-15.3 -25.55 -15.8 -25.55 M-16.0 -25.75 L-16.0 -25.85 Q-15.5 -25.75 -16.0 -25.75 M-30.75 -34.1 L-30.75 -34.35 -30.5 -34.35 -30.5 -34.1 -30.75 -34.1 M-30.5 -33.9 L-30.5 -34.1 -30.3 -34.1 -30.3 -33.9 -30.5 -33.9 M-30.75 -33.2 L-30.75 -33.45 -30.5 -33.45 -30.5 -33.2 -30.75 -33.2 M-23.25 -33.65 L-23.5 -33.45 -23.5 -33.65 -23.25 -33.65 M-9.95 -17.05 L-9.95 -17.15 Q-9.45 -17.05 -9.95 -17.05 M-14.65 -24.15 L-14.65 -24.25 Q-14.15 -24.15 -14.65 -24.15 M-14.9 -24.4 L-14.9 -24.5 Q-14.4 -24.4 -14.9 -24.4 M-14.45 -24.0 Q-13.95 -23.9 -14.45 -23.9 L-14.45 -24.0 M-11.3 -19.7 L-11.3 -19.9 -11.5 -19.9 -11.5 -20.05 -11.3 -19.9 -11.2 -19.7 -11.3 -19.7 M-10.4 -18.5 Q-9.9 -18.4 -10.4 -18.4 L-10.4 -18.5 M-6.05 9.65 L-6.3 9.65 -6.3 9.45 -6.05 9.65 M-3.35 12.2 L-3.15 12.2 -3.15 12.4 -3.35 12.4 -3.35 12.2 M-0.45 13.55 L-0.45 13.3 -0.35 13.55 -0.45 13.55 M-0.45 13.2 L-0.45 13.3 -0.65 13.1 -0.45 13.1 -0.45 13.2 M-27.1 7.15 L-27.3 6.9 -27.1 6.9 -27.1 7.15 M-29.6 14.95 L-29.35 14.95 -29.6 15.4 -29.6 14.95 M-24.4 24.3 L-24.15 24.3 -24.15 24.55 -24.4 24.55 -24.4 24.3 M-24.15 24.1 L-24.15 23.65 -23.95 23.65 -24.15 24.1 M-23.05 30.05 L-23.05 29.8 -22.8 29.8 -22.8 30.05 -23.05 30.05 M-23.25 31.2 L-23.25 31.0 -23.05 31.0 -23.05 31.2 -23.25 31.2 M-25.95 35.75 L-25.95 35.55 -25.75 35.55 -25.75 35.75 -25.95 35.75 M-30.95 33.5 L-30.75 33.5 -30.75 33.75 -30.95 33.75 -30.95 33.5" fill="#fbf06c" fill-rule="evenodd" stroke="none"/>
    <path d="M28.05 -36.4 L28.3 -36.4 28.3 -36.2 27.85 -35.95 27.6 -35.95 27.6 -36.2 27.85 -36.4 28.05 -36.4 M3.85 -6.6 L3.15 -5.95 3.15 -6.15 3.6 -6.6 3.85 -6.6 M27.1 28.0 L27.1 28.25 26.9 28.25 25.75 27.3 25.55 27.05 25.55 26.85 26.0 26.85 26.2 27.05 26.45 27.3 26.65 27.5 26.9 27.8 27.1 28.0 M-30.05 30.75 L-30.3 30.25 -30.05 30.05 -29.85 30.05 -29.85 30.7 -30.05 30.75 M-28.2 13.1 L-28.45 12.85 -28.2 12.4 -28.0 12.4 -28.0 13.1 -28.2 13.1 M-29.6 -34.1 L-29.85 -34.55 -29.35 -34.55 -29.35 -34.1 -29.6 -34.1 M-16.7 -25.4 L-15.35 -24.75 -15.35 -24.5 -15.35 -24.25 -15.55 -24.25 -15.8 -24.5 -15.85 -24.7 -16.0 -24.75 -16.7 -25.4" fill="#faef6b" fill-rule="evenodd" stroke="none"/>
    <path d="M28.3 -35.75 L28.5 -35.25 28.5 -35.0 Q27.7 -34.0 28.65 -34.35 L28.75 -34.35 29.4 -33.9 29.2 -33.9 Q28.75 -33.75 29.4 -33.65 L29.4 -33.45 28.05 -32.75 27.85 -32.75 27.1 -31.15 27.0 -31.0 27.1 -30.9 27.4 -30.9 28.5 -31.6 28.95 -31.6 Q28.8 -30.95 29.6 -31.25 L29.65 -31.35 31.0 -31.6 31.2 -31.6 31.2 -31.8 31.45 -31.8 31.2 -31.6 Q31.15 -31.25 31.6 -31.45 L31.65 -31.6 31.9 -31.6 32.1 -31.35 31.9 -31.35 31.9 -31.15 31.65 -31.15 31.45 -30.9 31.3 -30.9 Q31.3 -30.4 31.65 -30.9 L31.9 -30.9 32.1 -30.9 32.1 -30.7 31.9 -30.7 31.9 -30.45 31.75 -30.45 31.9 -30.25 30.75 -28.85 30.75 -28.6 30.1 -28.15 29.4 -27.95 Q28.85 -28.1 28.95 -27.7 L28.95 -27.5 28.75 -27.5 28.75 -27.25 28.5 -27.25 28.05 -27.0 27.85 -27.0 27.05 -26.5 26.55 -26.1 24.85 -24.95 24.4 -24.75 23.95 -24.5 23.75 -24.5 23.75 -24.25 23.75 -24.0 23.3 -23.8 23.05 -23.8 23.05 -23.55 22.85 -23.55 22.6 -23.55 22.6 -23.35 22.15 -22.9 21.7 -22.45 21.05 -22.0 20.6 -21.5 20.35 -21.5 20.35 -21.25 20.15 -21.25 19.9 -21.25 Q20.65 -22.25 19.5 -21.4 L19.45 -21.25 19.25 -21.25 19.25 -21.05 19.0 -21.05 19.0 -20.8 18.8 -20.8 18.55 -20.8 18.55 -20.6 18.35 -20.6 18.35 -20.35 18.1 -20.35 18.1 -20.15 17.9 -20.15 17.9 -19.9 17.65 -19.9 17.45 -19.9 17.45 -19.7 17.2 -19.7 17.2 -19.45 17.0 -19.45 17.0 -19.25 16.75 -19.25 16.75 -19.0 16.55 -19.0 16.3 -19.0 16.3 -18.75 16.1 -18.5 15.8 -18.5 15.8 -18.3 15.6 -18.3 15.6 -18.05 15.35 -18.05 15.35 -17.85 15.15 -17.6 14.9 -17.6 14.9 -17.4 14.7 -17.4 14.7 -17.15 14.45 -17.15 Q14.15 -17.05 14.25 -16.7 L14.0 -16.7 14.0 -16.5 13.8 -16.5 13.1 -16.25 12.9 -16.25 12.9 -16.0 12.65 -16.0 12.65 -15.75 12.45 -15.75 12.45 -15.55 12.2 -15.55 12.0 -15.55 12.0 -15.3 11.55 -14.85 10.65 -14.2 10.4 -14.2 10.4 -13.95 10.2 -13.95 10.2 -13.75 9.95 -13.75 9.95 -13.5 9.75 -13.5 9.75 -13.25 9.5 -13.25 9.5 -13.0 9.3 -13.0 9.05 -13.0 9.05 -12.8 8.85 -12.8 8.85 -12.55 8.6 -12.55 8.6 -12.35 8.4 -12.35 8.4 -12.1 8.15 -12.1 8.15 -11.9 7.95 -11.9 7.95 -11.65 7.7 -11.65 7.7 -11.45 7.5 -11.2 7.25 -11.2 7.25 -11.0 7.05 -10.75 6.8 -10.75 6.8 -10.5 5.45 -9.15 5.25 -9.15 5.25 -8.9 5.0 -8.9 5.0 -8.7 4.8 -8.7 4.8 -8.45 4.55 -8.45 4.55 -8.25 4.3 -8.0 4.05 -8.0 4.05 -7.75 3.85 -7.75 3.85 -7.5 3.6 -7.5 3.6 -7.3 3.4 -7.3 3.4 -7.05 3.15 -7.05 3.15 -6.85 2.95 -6.4 2.7 -6.4 2.7 -6.15 2.5 -6.15 2.5 -5.95 2.25 -5.95 2.25 -5.7 2.05 -5.7 2.05 -5.5 2.05 -5.25 1.8 -5.25 1.8 -5.0 1.6 -5.0 1.6 -4.75 1.45 -4.7 Q1.35 -4.05 1.8 -4.55 L2.05 -4.75 2.05 -5.0 2.25 -5.25 2.5 -5.25 2.7 -5.0 2.5 -4.55 Q2.05 -4.3 2.45 -4.2 L2.5 -4.3 2.7 -4.55 2.95 -4.55 2.95 -3.2 2.7 -2.75 2.6 -2.6 2.7 -2.5 3.15 -2.0 3.15 -1.8 5.7 0.95 6.15 1.2 6.4 1.45 7.05 2.3 7.25 2.55 8.85 4.15 8.85 4.4 8.75 4.55 8.85 4.6 9.05 4.85 9.5 5.5 9.75 5.8 11.3 7.15 Q11.35 7.65 11.75 7.75 L12.0 7.8 13.55 9.45 13.55 9.65 13.45 9.8 13.55 9.9 14.25 10.8 14.45 10.8 14.7 11.0 14.7 11.3 14.9 11.5 15.15 11.75 15.35 11.75 15.6 11.95 15.8 12.2 16.1 12.4 16.3 12.65 16.75 12.85 17.0 13.1 17.2 13.3 17.45 13.55 17.45 13.75 17.65 13.75 17.65 14.05 17.45 13.75 17.25 14.5 17.2 14.7 17.9 15.85 18.1 16.05 18.35 16.3 20.35 18.15 20.35 18.35 20.15 18.35 19.25 17.9 Q18.65 17.35 18.95 18.05 L19.0 18.15 19.45 18.8 19.9 19.75 26.2 26.6 26.2 26.85 26.0 26.85 25.85 26.7 Q25.45 26.15 25.55 26.85 L25.3 26.85 25.1 26.6 24.85 26.4 24.65 26.15 24.4 25.95 24.2 25.95 23.95 25.7 23.95 25.5 23.75 25.25 23.5 25.05 23.4 25.05 23.5 25.25 23.5 25.5 23.5 25.7 23.3 25.7 23.2 25.55 Q22.1 24.7 23.05 25.7 L23.3 25.95 23.5 26.15 23.75 26.4 23.95 26.6 24.2 26.85 24.4 27.05 24.65 27.3 24.85 27.5 25.1 27.8 25.3 28.0 27.85 31.0 27.85 31.2 21.95 26.15 Q21.05 25.15 21.4 26.35 L21.5 26.4 27.6 32.55 27.4 32.55 24.85 30.75 24.65 30.55 23.5 29.6 Q23.5 28.75 22.9 29.4 L22.85 29.6 22.6 29.6 21.95 29.15 21.7 28.9 20.8 28.25 Q20.5 27.65 20.7 28.4 L20.8 28.45 21.5 29.15 21.7 29.35 22.4 30.25 22.15 30.25 21.7 30.05 21.25 29.6 21.15 29.6 Q20.5 29.25 21.05 29.6 L21.5 30.05 21.7 30.25 22.15 30.75 22.4 31.0 23.3 31.65 23.3 31.9 23.5 31.9 23.5 32.1 23.75 32.1 23.75 32.35 23.5 32.35 23.5 32.1 23.3 32.1 23.3 31.9 Q22.95 31.8 22.95 32.05 L23.05 32.1 23.3 32.35 23.5 32.55 23.75 32.8 24.2 33.3 24.4 33.5 24.65 33.5 24.65 33.75 24.85 33.95 25.1 34.2 25.3 34.4 26.0 35.1 26.2 35.55 24.85 35.3 20.8 32.35 20.6 32.1 20.35 31.9 20.15 31.65 19.9 31.65 19.25 30.75 18.8 30.55 18.55 30.25 18.35 30.05 18.1 29.8 17.9 29.6 17.65 29.6 16.75 28.7 16.55 28.45 Q15.3 27.3 16.4 28.6 L16.55 28.7 17.0 29.6 16.75 29.6 14.25 27.3 14.0 27.05 13.55 26.6 13.35 26.4 13.1 26.15 12.9 25.95 12.65 25.7 10.85 24.55 9.75 23.65 9.3 23.2 Q9.1 23.65 9.5 23.65 L9.75 24.1 5.0 20.2 4.8 20.0 2.4 17.8 Q2.65 17.75 2.3 17.7 L-2.25 13.1 -2.9 12.4 -2.9 12.2 -3.15 11.95 -3.6 11.75 -3.8 11.6 -3.8 11.75 -4.05 11.75 -6.05 9.65 -6.3 9.45 -6.4 9.55 -7.7 9.45 -7.9 9.45 -7.9 9.65 -8.15 9.65 -8.35 9.65 -8.35 9.9 -8.8 10.35 -9.05 10.35 -9.05 10.55 -9.25 10.55 -9.25 10.8 -9.5 10.8 -9.5 11.0 -9.7 11.0 -9.7 11.3 -9.95 11.3 -9.95 11.0 -9.95 10.8 Q-9.55 10.55 -10.15 10.55 L-10.15 10.8 -10.4 10.8 -10.4 11.0 -10.6 11.0 -10.6 11.3 -10.85 11.75 -11.05 11.75 -11.05 11.95 -11.3 11.95 -11.3 12.2 -11.5 12.2 -11.5 12.4 -11.95 13.1 -12.15 13.15 -12.2 13.55 -12.4 13.55 -12.4 13.75 -14.0 14.95 -14.2 14.95 -14.2 15.15 -14.2 15.4 -14.45 15.4 -14.45 15.6 -14.65 15.6 -14.9 15.5 -14.9 15.6 -15.35 16.05 -16.0 16.3 -16.25 16.3 -16.25 16.5 -16.9 17.25 -17.15 17.25 -17.15 17.45 -18.05 18.15 -18.3 18.15 -18.3 18.35 -18.75 18.8 -19.0 18.8 -19.0 19.05 -19.0 19.25 -19.2 19.25 -19.2 19.55 -19.45 19.55 -19.65 19.25 -19.45 18.8 -19.2 18.6 -19.15 18.55 Q-18.6 17.75 -19.45 18.6 L-19.65 18.6 -19.65 18.8 -20.1 19.25 -20.35 19.25 -20.35 19.55 -20.35 19.75 -20.55 19.75 -20.55 20.0 -20.8 20.0 -20.8 20.2 -21.0 20.65 -21.25 20.65 -21.25 20.9 -21.25 21.35 -21.45 21.35 -21.45 21.55 -21.45 21.8 Q-21.95 22.45 -21.4 22.35 L-21.25 22.3 -21.25 22.5 -21.45 23.65 -21.45 24.1 -21.45 24.3 -21.45 24.55 -21.45 24.75 -21.7 24.75 -21.7 25.05 -22.15 25.95 -22.35 25.95 -22.35 26.15 -22.35 26.4 -22.6 26.4 -22.6 26.6 -22.6 26.85 Q-23.4 27.45 -22.7 27.15 L-22.6 27.05 -22.35 26.6 -22.15 26.6 -21.9 26.4 -21.0 25.25 -20.9 25.55 -20.8 25.25 -20.55 25.25 Q-20.7 25.75 -20.35 25.7 L-20.1 25.7 -20.1 25.95 -20.35 25.95 -20.35 26.15 -20.55 26.15 -20.55 26.4 -20.8 26.4 -20.8 26.6 -21.0 27.05 -21.25 27.05 -21.25 27.3 -21.25 27.8 -21.45 27.8 -21.45 28.0 -21.7 28.0 -21.7 28.25 -22.15 28.7 -22.8 29.35 -23.25 29.8 -23.25 30.05 -23.25 30.25 -23.5 30.25 -23.5 30.55 -23.7 30.55 -23.7 30.75 -23.7 31.2 -23.95 31.2 -23.95 31.45 -23.95 31.65 -24.15 31.65 -24.15 31.9 -24.4 31.9 -24.4 32.1 -24.4 32.55 -24.6 32.55 -24.6 32.8 -24.6 33.0 Q-25.25 33.4 -24.45 33.45 L-24.4 33.3 -24.4 33.0 -24.15 32.8 -24.15 32.55 -23.95 32.35 -23.95 32.1 -23.7 32.1 -23.7 32.55 -23.95 33.5 -24.15 33.5 -24.15 33.75 -24.15 33.95 -24.4 33.95 -24.4 34.2 -24.4 34.4 -24.6 34.4 -24.6 34.65 -25.05 35.75 -25.3 35.75 -25.3 35.55 -25.35 35.45 -25.5 35.55 -25.75 35.55 -25.85 35.5 Q-26.4 35.05 -26.2 35.75 L-26.4 35.75 -26.4 36.05 -26.85 36.05 -26.85 35.75 -26.95 35.6 Q-27.3 35.1 -27.1 35.75 L-27.3 35.75 -27.3 36.05 -27.3 36.25 -27.55 36.25 -27.55 36.5 -27.75 36.5 -27.75 36.25 -27.75 35.75 -27.7 35.65 Q-27.25 34.15 -27.75 35.55 L-28.0 35.55 -28.0 35.75 -28.2 35.55 -28.2 35.3 Q-27.7 34.2 -28.6 34.9 L-28.65 35.1 -29.85 35.55 -30.05 35.55 -30.05 35.3 -30.05 34.4 -30.05 34.2 -29.85 33.95 -29.85 33.3 Q-29.45 32.0 -30.0 33.05 L-30.05 33.3 -30.05 33.75 -30.3 33.75 -30.3 33.95 -30.3 34.2 -30.5 34.2 -30.5 34.4 -30.55 34.6 Q-30.75 35.15 -30.95 34.65 L-30.75 34.4 -30.75 33.95 -30.5 33.75 -30.5 33.5 -30.5 32.8 -30.3 31.9 -30.05 31.45 -29.85 31.2 -29.85 30.7 -29.85 30.05 -29.85 29.8 -29.85 29.6 -30.05 29.45 -30.05 29.6 -30.3 29.6 -30.3 29.8 -30.3 29.9 Q-30.35 29.45 -30.9 29.7 L-30.95 29.8 -31.2 29.8 -31.4 29.35 -31.4 29.15 -31.2 28.9 -31.2 28.7 -31.1 28.7 -31.2 28.45 -31.4 28.45 -31.4 28.7 -31.65 28.7 -31.65 28.9 -31.85 28.9 -31.85 28.7 -31.8 28.5 Q-31.4 28.15 -32.3 28.25 L-32.55 27.8 -32.55 27.5 -32.45 27.5 -32.55 27.3 -33.15 26.9 -33.45 25.95 -33.65 25.5 -33.65 25.05 -33.45 24.75 -33.45 24.55 -33.2 24.3 -33.2 24.1 -33.0 23.85 -32.75 22.75 -32.55 22.5 -32.55 22.3 -32.3 22.0 -32.1 21.8 -32.1 21.55 Q-31.7 21.6 -31.85 21.1 L-31.85 20.9 -31.65 20.65 -31.4 20.45 -31.4 20.2 -31.2 20.0 -31.2 19.75 -31.2 19.55 -30.95 19.55 -30.75 19.25 -30.5 18.15 -30.3 17.9 -30.05 17.7 -29.85 17.45 -29.6 17.25 -29.6 17.0 -29.35 16.8 -29.35 16.5 -29.1 16.3 -29.0 16.25 Q-28.75 15.8 -29.1 15.85 L-29.1 15.6 -29.1 15.4 -29.1 15.15 -28.9 14.95 -28.45 14.5 -28.2 14.5 -28.0 14.6 -28.0 14.5 -27.75 14.05 -27.75 13.75 -27.75 13.55 -27.75 13.1 -27.55 12.65 -27.3 12.4 -27.25 12.35 Q-27.05 11.5 -27.55 11.95 L-27.75 12.2 -27.8 11.95 Q-27.85 11.5 -28.2 11.5 L-28.2 10.8 -28.0 10.55 -27.75 10.35 -27.75 10.1 -27.65 10.05 Q-27.4 9.3 -28.2 9.65 L-27.75 9.0 -27.55 8.75 -27.55 8.55 -27.3 8.05 -27.1 7.8 -27.1 7.6 -26.85 7.35 -26.85 7.15 -26.65 6.9 -26.4 6.45 -26.2 6.25 -26.2 6.0 -25.95 5.8 -25.95 5.5 -25.75 5.3 -24.85 3.95 -24.6 3.7 -24.4 3.5 -24.15 3.0 -23.95 2.75 -23.7 2.55 -23.05 1.65 -22.8 1.4 -22.6 1.2 -22.35 0.95 -22.15 0.75 -21.95 0.25 -21.45 0.0 -21.25 -0.2 -21.0 -0.45 -20.8 -0.9 -20.55 -1.1 -20.1 -1.55 -19.9 -1.8 -19.65 -2.0 -19.65 -2.25 -19.45 -2.25 -19.2 -2.5 -19.0 -2.75 -18.75 -2.95 -18.55 -3.2 -18.05 -3.65 -17.8 -3.85 -16.45 -5.5 -16.25 -5.7 -16.0 -5.95 -15.55 -6.4 -15.8 -6.6 -15.85 -6.8 -16.0 -6.85 -17.6 -9.35 -17.65 -9.55 -17.8 -9.6 -32.75 -30.25 -32.75 -30.45 -32.55 -30.7 -32.55 -30.9 -32.1 -30.95 -32.1 -31.15 -32.1 -31.6 -31.85 -31.6 Q-31.75 -31.1 -31.65 -31.6 L-31.65 -31.8 -31.4 -31.8 -31.4 -31.7 Q-30.9 -31.8 -31.4 -32.05 L-31.65 -32.25 -31.85 -32.75 -31.4 -33.45 -31.2 -33.45 -30.95 -33.2 -30.5 -33.0 Q-30.2 -31.8 -29.65 -32.15 L-29.6 -32.25 -29.35 -32.25 Q-29.3 -32.15 -29.1 -32.15 L-29.1 -32.25 -29.6 -32.75 -30.05 -33.2 -30.3 -33.45 -30.3 -33.65 -30.3 -33.9 -30.05 -33.9 -29.6 -33.45 -29.35 -34.1 -29.1 -34.1 -28.9 -33.9 Q-28.8 -33.8 -28.65 -33.8 L-28.65 -33.9 -28.9 -34.1 -29.35 -34.55 -29.6 -34.8 -29.6 -35.0 -29.85 -35.25 -30.05 -35.95 -29.85 -36.2 -29.6 -36.1 -29.6 -36.2 -29.6 -36.4 -29.35 -36.4 -28.2 -35.25 Q-27.65 -34.2 -26.75 -35.0 L-26.85 -35.0 -26.85 -35.25 -26.2 -35.5 -25.95 -35.75 -25.75 -35.75 Q-25.85 -34.8 -25.05 -34.6 L-24.85 -34.55 Q-24.7 -33.9 -24.35 -34.3 L-24.15 -34.35 -23.5 -33.9 -23.5 -33.65 -23.6 -33.5 -23.5 -33.45 Q-23.5 -33.1 -23.1 -33.3 L-23.05 -33.45 -22.8 -33.45 -22.6 -33.2 -22.35 -33.0 -22.15 -32.75 -21.9 -32.5 -21.45 -32.25 -21.25 -32.05 -21.0 -31.8 -20.55 -31.6 -20.35 -31.35 -20.1 -31.15 -20.1 -29.75 -20.1 -29.65 -20.1 -29.3 -20.35 -29.3 -20.45 -29.15 -20.35 -29.05 -19.65 -28.4 -19.2 -27.95 -18.05 -27.0 -17.8 -26.75 -16.7 -25.4 -16.0 -24.75 -15.8 -24.5 -15.55 -24.25 -15.35 -23.8 -14.45 -22.9 -11.5 -18.75 -11.5 -18.5 -10.4 -18.05 -10.15 -17.85 -9.95 -17.6 -9.95 -17.4 -8.35 -16.25 -8.15 -16.0 -7.9 -15.75 -7.7 -16.0 -7.45 -16.0 Q-7.6 -15.05 -7.1 -15.6 L-7.0 -15.75 -6.3 -16.25 -6.05 -16.5 -5.85 -16.7 -5.6 -16.95 -5.4 -17.15 -4.25 -18.5 -4.05 -18.75 -3.8 -19.0 -3.6 -19.25 -3.35 -19.45 -3.15 -19.7 -2.9 -19.9 -1.55 -21.05 -1.35 -21.25 -1.1 -21.25 -0.9 -21.5 0.0 -22.45 0.25 -22.65 0.45 -22.9 0.7 -23.1 0.9 -23.35 1.15 -23.55 2.5 -24.75 2.7 -24.95 3.85 -25.85 4.05 -26.1 4.3 -26.3 4.55 -26.55 4.8 -26.75 5.25 -27.0 5.45 -27.25 5.7 -27.5 5.7 -27.7 5.9 -27.7 6.15 -27.95 6.35 -28.15 6.6 -28.4 7.25 -28.85 7.5 -29.05 7.7 -29.3 7.95 -29.5 8.15 -29.75 9.3 -30.7 9.5 -30.9 10.4 -31.6 10.65 -31.8 11.1 -32.05 11.3 -32.25 11.55 -32.5 11.75 -32.75 12.0 -33.0 12.2 -33.0 12.45 -33.2 12.65 -33.45 12.9 -33.65 13.55 -34.1 13.8 -34.35 14.0 -34.55 14.25 -34.8 14.45 -35.0 14.9 -35.25 15.15 -35.5 15.6 -35.75 15.8 -35.75 16.1 -35.5 16.3 -35.75 17.0 -36.2 17.2 -35.95 17.2 -35.75 17.0 -35.75 17.0 -35.5 16.75 -35.5 16.75 -35.25 16.75 -35.0 Q16.65 -34.3 17.15 -34.85 L17.2 -35.0 17.2 -35.25 17.45 -35.25 17.65 -35.25 17.65 -35.0 17.9 -34.8 17.45 -34.35 17.2 -34.35 17.2 -34.1 17.0 -34.1 17.0 -33.9 16.75 -33.9 16.75 -33.65 16.55 -33.65 16.55 -33.45 16.1 -32.75 15.8 -32.75 15.8 -32.5 15.8 -32.25 15.6 -32.25 15.6 -32.05 15.35 -32.05 15.35 -31.8 14.9 -31.35 14.7 -31.35 14.7 -31.15 14.7 -30.9 14.45 -30.9 14.45 -30.7 14.25 -30.7 14.0 -30.7 14.0 -30.45 13.8 -30.45 13.8 -30.25 13.8 -30.0 13.55 -30.0 13.55 -29.75 13.35 -29.5 13.1 -29.5 13.1 -29.3 12.9 -29.3 12.9 -29.05 12.65 -29.05 12.65 -28.85 12.65 -28.6 12.9 -28.4 Q12.2 -27.2 13.0 -27.85 L13.1 -27.95 13.35 -27.95 Q14.8 -28.6 14.9 -29.55 L14.9 -29.75 15.15 -30.0 15.35 -30.0 15.6 -30.25 15.8 -30.25 16.1 -30.45 16.3 -30.45 16.55 -30.7 16.75 -30.7 17.0 -30.7 17.0 -30.45 16.85 -30.45 17.0 -30.25 17.45 -30.7 17.55 -30.7 17.45 -30.9 17.45 -31.15 17.9 -31.35 18.1 -31.6 19.0 -31.8 19.25 -32.05 19.45 -32.25 19.7 -32.5 20.6 -33.0 20.8 -33.2 21.95 -33.9 22.15 -33.9 Q22.15 -33.55 22.55 -33.75 L22.6 -33.9 23.05 -34.35 23.3 -34.35 23.95 -34.8 24.2 -35.0 25.1 -35.0 25.3 -34.9 25.3 -35.0 25.55 -35.25 25.75 -35.5 26.0 -35.75 26.9 -35.75 27.1 -35.95 27.4 -35.95 27.6 -35.95 27.6 -35.75 27.5 -35.75 27.6 -35.5 27.85 -35.5 28.05 -35.75 28.3 -35.75 M7.5 -9.6 L7.5 -9.8 7.7 -9.8 7.7 -9.6 7.5 -9.6 M24.4 31.2 L24.4 31.0 24.65 31.0 24.65 31.2 24.85 31.2 24.85 31.45 24.65 31.45 24.65 31.2 24.4 31.2 M-19.0 22.75 L-19.0 22.95 -19.2 22.95 -19.2 22.75 -19.0 22.75 M27.6 -34.7 Q28.5 -34.7 27.6 -34.8 L27.6 -34.7 M26.65 -31.8 L26.65 -31.7 Q27.15 -31.7 26.65 -31.8 M26.0 -31.25 Q26.45 -31.25 26.0 -31.35 L26.0 -31.25 M27.6 -33.55 Q28.1 -33.55 27.6 -33.65 L27.6 -33.55 M28.3 -33.55 Q28.8 -33.55 28.3 -33.65 L28.3 -33.55 M27.85 -33.35 Q28.7 -33.35 27.85 -33.45 L27.85 -33.35 M23.95 -34.45 Q25.15 -34.45 23.95 -34.55 L23.95 -34.45 M21.7 -33.45 L21.7 -33.35 Q22.2 -33.35 21.7 -33.45 M20.8 -32.65 Q21.7 -32.65 20.8 -32.75 L20.8 -32.65 M25.3 -26.65 Q26.2 -26.65 25.3 -26.75 L25.3 -26.65 M30.1 -29.2 Q30.6 -29.2 30.1 -29.3 L30.1 -29.2 M30.3 -29.4 Q30.8 -29.4 30.3 -29.5 L30.3 -29.4 M25.75 -26.9 Q26.25 -26.9 25.75 -27.0 L25.75 -26.9 M28.5 -27.6 Q29.0 -27.6 28.5 -27.7 L28.5 -27.6 M30.55 -31.05 Q31.4 -31.05 30.55 -31.15 L30.55 -31.05 M31.0 -31.25 Q31.5 -31.25 31.0 -31.35 L31.0 -31.25 M31.2 -30.15 Q31.7 -30.15 31.2 -30.25 L31.2 -30.15 M31.0 -30.6 Q31.5 -30.6 31.0 -30.7 L31.0 -30.6 M12.2 -28.3 Q12.7 -28.3 12.2 -28.4 L12.2 -28.3 M12.2 -27.5 L11.55 -27.0 11.3 -27.0 11.3 -26.75 11.15 -26.7 Q10.15 -25.4 11.55 -26.75 L12.2 -27.25 12.3 -27.25 12.2 -27.5 M15.35 -29.4 Q16.5 -29.9 15.35 -29.5 L15.35 -29.4 M16.1 -29.9 Q17.25 -30.35 16.1 -30.0 L16.1 -29.9 M17.9 -19.45 L17.9 -19.7 18.1 -19.7 18.1 -19.9 18.35 -19.9 18.35 -19.7 18.1 -19.7 18.1 -19.45 17.9 -19.45 M13.8 -16.85 Q14.3 -16.85 13.8 -16.95 L13.8 -16.85 M12.65 -14.85 L12.9 -14.85 12.9 -14.65 12.65 -14.65 12.65 -14.4 12.45 -14.4 12.45 -14.2 12.2 -14.2 12.2 -14.4 12.45 -14.4 12.45 -14.65 12.65 -14.65 12.65 -14.85 M15.8 -17.85 L16.1 -17.85 16.1 -17.6 15.8 -17.6 15.8 -17.85 M5.9 -8.9 L5.9 -9.15 6.15 -9.15 6.15 -8.9 5.9 -8.9 M5.25 -8.25 L5.25 -8.0 5.0 -8.0 5.0 -7.75 4.8 -7.75 4.8 -7.5 4.55 -7.5 4.55 -7.3 4.3 -7.3 4.3 -7.5 4.55 -7.5 4.55 -7.75 4.8 -7.75 4.8 -8.0 5.0 -8.0 5.0 -8.25 5.25 -8.25 M2.05 -6.5 Q3.4 -7.1 2.05 -6.6 L2.05 -6.5 M2.95 -7.2 Q3.45 -7.2 2.95 -7.3 L2.95 -7.2 M3.15 -7.65 Q3.65 -7.65 3.15 -7.75 L3.15 -7.65 M2.7 -5.5 L2.7 -5.7 2.95 -5.7 2.95 -5.5 2.7 -5.5 M3.6 -0.55 Q4.1 -0.55 3.6 -0.65 L3.6 -0.55 M3.15 -1.0 Q3.65 -1.0 3.15 -1.1 L3.15 -1.0 M2.95 -1.25 Q3.45 -1.25 2.95 -1.35 L2.95 -1.25 M3.4 -0.8 Q3.9 -0.8 3.4 -0.9 L3.4 -0.8 M3.85 -0.45 L3.85 -0.35 Q4.35 -0.35 3.85 -0.45 M2.7 -1.45 Q3.2 -1.45 2.7 -1.55 L2.7 -1.45 M21.7 -23.25 Q22.2 -23.25 21.7 -23.35 L21.7 -23.25 M21.95 -23.45 Q22.45 -23.45 21.95 -23.55 L21.95 -23.45 M20.35 -22.2 L20.35 -22.1 Q20.85 -22.1 20.35 -22.2 M20.8 -22.55 Q21.3 -22.55 20.8 -22.65 L20.8 -22.55 M21.25 -22.8 Q21.75 -22.8 21.25 -22.9 L21.25 -22.8 M21.5 -23.0 Q22.0 -23.0 21.5 -23.1 L21.5 -23.0 M23.5 24.3 L23.5 24.4 Q24.0 24.4 23.5 24.3 M6.8 2.75 L6.8 2.85 Q7.3 2.85 6.8 2.75 M7.05 3.0 L7.05 3.15 Q7.55 3.1 7.05 3.0 M4.3 0.1 Q4.75 0.1 4.3 0.0 L4.3 0.1 M5.7 17.7 L5.75 17.85 Q6.5 18.6 5.7 17.7 M1.6 15.15 Q0.65 14.15 1.4 15.15 L1.6 15.15 M1.4 16.65 Q2.05 17.1 1.35 16.5 L1.4 16.65 M1.8 17.0 L1.85 17.15 Q2.25 17.55 1.8 17.0 M6.35 18.6 L6.35 18.7 Q6.85 18.7 6.35 18.6 M9.05 21.8 L9.1 21.95 Q10.05 23.0 9.05 21.8 M9.75 22.5 L9.75 22.6 Q10.25 22.6 9.75 22.5 M10.0 22.9 Q10.4 23.25 9.95 22.75 L10.0 22.9 M8.65 21.7 Q9.05 22.1 8.6 21.55 L8.65 21.7 M16.6 13.9 Q17.25 14.35 16.55 13.75 L16.6 13.9 M16.1 13.4 Q16.6 13.4 16.1 13.3 L16.1 13.4 M11.1 20.65 L11.1 20.75 Q11.6 20.75 11.1 20.65 M11.55 21.1 L11.55 21.2 Q12.0 21.2 11.55 21.1 M12.0 21.55 L12.0 21.65 Q12.5 21.65 12.0 21.55 M12.45 22.1 Q12.95 22.1 12.45 22.0 L12.45 22.1 M10.85 23.05 Q11.35 23.05 10.85 22.95 L10.85 23.05 M10.4 23.4 L10.4 23.5 Q10.9 23.5 10.4 23.4 M10.65 23.65 L10.65 23.75 Q11.5 24.05 10.65 23.65 M12.2 24.1 L12.25 24.25 Q12.65 24.6 12.2 24.1 M10.2 23.2 L10.2 23.3 Q10.8 23.4 10.2 23.2 M13.35 22.95 L13.35 23.05 Q13.85 23.05 13.35 22.95 M12.9 22.6 Q13.4 22.6 12.9 22.5 L12.9 22.6 M18.8 23.95 Q19.25 23.95 18.8 23.85 L18.8 23.95 M17.9 22.95 L17.9 23.05 Q18.4 23.05 17.9 22.95 M16.75 26.15 L16.65 26.15 16.75 26.4 17.0 26.6 17.2 26.7 17.2 26.6 17.0 26.4 16.75 26.15 M15.8 25.5 L15.6 25.25 15.35 25.05 15.15 24.75 Q12.3 22.0 15.0 24.85 L15.15 25.05 15.35 25.25 15.6 25.5 Q16.65 26.7 16.0 25.55 L15.8 25.5 M17.2 26.95 Q17.7 26.95 17.2 26.85 L17.2 26.95 M19.45 28.9 L19.45 29.0 Q19.95 29.0 19.45 28.9 M19.0 28.45 Q16.8 26.25 18.3 27.85 L19.0 28.45 19.0 28.55 Q19.5 28.55 19.0 28.45 M19.9 29.35 L19.9 29.45 Q20.4 29.45 19.9 29.35 M14.0 26.25 Q14.5 26.25 14.0 26.15 L14.0 26.25 M13.55 25.8 Q14.05 25.8 13.55 25.7 L13.55 25.8 M13.1 25.25 L13.1 25.35 Q13.6 25.35 13.1 25.25 M14.7 26.85 L14.7 26.95 Q15.2 26.95 14.7 26.85 M14.25 26.5 Q15.1 26.8 14.25 26.4 L14.25 26.5 M15.15 27.4 Q16.3 27.8 15.15 27.3 L15.15 27.4 M12.7 24.9 Q13.5 25.2 12.65 24.75 L12.7 24.9 M24.4 25.25 L24.4 25.35 Q24.9 25.35 24.4 25.25 M23.05 24.85 Q23.55 24.85 23.05 24.75 L23.05 24.85 M21.05 25.6 Q21.55 25.6 21.05 25.5 L21.05 25.6 M20.8 25.35 Q21.3 25.35 20.8 25.25 L20.8 25.35 M22.85 28.9 Q21.2 27.65 22.45 28.8 L22.6 28.9 22.85 29.0 22.85 28.9 M20.6 29.15 L20.6 29.25 Q21.15 29.35 20.6 29.15 M21.05 30.25 L21.05 30.35 Q21.55 30.35 21.05 30.25 M20.6 29.9 Q21.1 29.9 20.6 29.8 L20.6 29.9 M25.1 33.3 L25.1 33.5 24.85 33.5 24.85 33.3 25.1 33.3 M22.15 31.2 L22.15 31.3 Q22.65 31.3 22.15 31.2 M22.6 31.75 Q23.1 31.75 22.6 31.65 L22.6 31.75 M-20.1 -27.95 L-19.9 -27.7 -19.65 -27.5 -19.45 -27.25 -19.0 -26.75 -18.75 -26.55 Q-18.65 -26.45 -18.55 -26.45 L-18.55 -26.55 -18.75 -26.75 -19.45 -27.5 -19.65 -27.7 -19.9 -27.95 -20.0 -28.05 Q-20.9 -28.5 -20.1 -27.95 M-18.3 -25.95 Q-17.45 -25.65 -18.3 -26.1 L-18.3 -25.95 M-17.8 -25.55 Q-17.3 -25.55 -17.8 -25.65 L-17.8 -25.55 M-18.55 -26.2 Q-18.05 -26.2 -18.55 -26.3 L-18.55 -26.2 M-17.6 -25.4 L-17.55 -25.3 Q-16.85 -24.8 -17.6 -25.4 M-31.2 -32.65 Q-30.7 -32.65 -31.2 -32.75 L-31.2 -32.65 M-31.6 -31.2 Q-30.85 -30.45 -31.65 -31.35 L-31.6 -31.2 M-32.1 -30.6 Q-31.6 -30.6 -32.1 -30.7 L-32.1 -30.6 M-32.55 -30.45 L-32.55 -30.35 Q-32.05 -30.35 -32.55 -30.45 M-32.1 -30.0 L-32.1 -29.9 Q-31.6 -29.9 -32.1 -30.0 M-32.3 -30.15 Q-31.8 -30.15 -32.3 -30.25 L-32.3 -30.15 M-23.05 -32.9 Q-22.55 -32.9 -23.05 -33.0 L-23.05 -32.9 M-22.8 -32.65 Q-22.3 -32.65 -22.8 -32.75 L-22.8 -32.65 M-23.95 -32.05 L-23.95 -31.95 Q-23.45 -31.95 -23.95 -32.05 M-23.95 -31.35 L-23.95 -31.25 Q-23.45 -31.25 -23.95 -31.35 M-23.5 -31.5 Q-22.65 -31.5 -23.5 -31.6 L-23.5 -31.5 M-22.8 -31.0 Q-21.95 -30.7 -22.8 -31.15 L-22.8 -31.0 M-23.05 -31.35 L-23.05 -31.25 Q-22.55 -31.25 -23.05 -31.35 M-23.7 -31.7 Q-23.2 -31.7 -23.7 -31.8 L-23.7 -31.7 M-21.9 -31.05 Q-21.4 -31.05 -21.9 -31.15 L-21.9 -31.05 M-22.35 -32.15 Q-21.85 -32.15 -22.35 -32.25 L-22.35 -32.15 M-20.8 -31.05 Q-20.3 -31.05 -20.8 -31.15 L-20.8 -31.05 M-22.6 -32.4 Q-22.1 -32.4 -22.6 -32.5 L-22.6 -32.4 M-26.65 -34.45 Q-26.15 -34.45 -26.65 -34.55 L-26.65 -34.45 M-25.95 -34.35 L-25.95 -34.25 Q-25.45 -34.25 -25.95 -34.35 M-28.45 -33.45 L-28.45 -33.35 Q-27.95 -33.35 -28.45 -33.45 M-28.65 -33.55 Q-28.15 -33.55 -28.65 -33.65 L-28.65 -33.55 M-28.6 -32.8 Q-28.0 -31.95 -28.65 -33.0 L-28.6 -32.8 M-29.35 -31.25 Q-28.85 -31.25 -29.35 -31.35 L-29.35 -31.25 M-29.1 -31.95 Q-28.6 -31.95 -29.1 -32.05 L-29.1 -31.95 M-26.2 -33.9 L-26.2 -33.8 Q-25.7 -33.8 -26.2 -33.9 M-21.25 -30.7 L-21.25 -30.6 Q-20.75 -30.6 -21.25 -30.7 M-21.0 -30.35 Q-20.5 -30.35 -21.0 -30.45 L-21.0 -30.35 M-21.0 -29.75 L-21.25 -30.0 -21.45 -30.25 -21.7 -30.45 -21.8 -30.45 -21.7 -30.25 -21.45 -30.0 -21.25 -29.75 -21.0 -29.5 -21.0 -29.4 Q-20.2 -29.4 -21.0 -29.75 M-21.7 -30.8 Q-20.85 -30.8 -21.7 -30.9 L-21.7 -30.8 M-22.35 -30.6 Q-21.5 -30.6 -22.35 -30.7 L-22.35 -30.6 M-22.35 -29.9 Q-21.85 -29.9 -22.35 -30.0 L-22.35 -29.9 M-22.15 -29.65 Q-21.65 -29.65 -22.15 -29.75 L-22.15 -29.65 M-20.8 -28.6 L-20.8 -28.5 Q-20.3 -28.5 -20.8 -28.6 M-22.8 -30.35 Q-22.3 -30.35 -22.8 -30.45 L-22.8 -30.35 M-23.5 -30.8 Q-23.0 -30.8 -23.5 -30.9 L-23.5 -30.8 M-9.95 -17.05 Q-9.45 -17.05 -9.95 -17.15 L-9.95 -17.05 M-9.05 -16.1 Q-8.55 -16.15 -9.05 -16.25 L-9.05 -16.1 M-8.8 -16.0 L-8.8 -15.9 Q-8.3 -15.9 -8.8 -16.0 M-16.0 -23.45 Q-15.5 -23.45 -16.0 -23.55 L-16.0 -23.45 M-15.8 -23.25 Q-15.3 -23.25 -15.8 -23.35 L-15.8 -23.25 M-16.45 -23.9 Q-15.95 -23.9 -16.45 -24.0 L-16.45 -23.9 M-16.7 -24.15 Q-16.2 -24.15 -16.7 -24.25 L-16.7 -24.15 M-16.9 -24.65 Q-16.4 -24.65 -16.9 -24.75 L-16.9 -24.65 M-4.7 9.9 L-4.7 10.0 Q-4.2 10.0 -4.7 9.9 M-4.25 10.65 Q-3.75 10.65 -4.25 10.55 L-4.25 10.65 M-3.15 11.6 Q-2.65 11.6 -3.15 11.5 L-3.15 11.6 M-12.4 4.85 L-12.4 4.95 Q-11.9 4.95 -12.4 4.85 M-12.2 4.7 Q-11.7 4.7 -12.2 4.6 L-12.2 4.7 M-12.65 5.15 Q-12.15 5.15 -12.65 5.05 L-12.65 5.15 M-15.1 8.75 L-15.35 8.75 -15.35 9.0 -15.55 9.0 -15.55 9.2 -15.55 9.45 -16.0 9.9 Q-16.6 10.85 -15.9 10.05 L-15.8 9.9 -15.55 9.65 -15.35 9.45 -15.1 9.2 -15.1 9.0 -14.9 8.75 Q-14.4 8.35 -14.9 8.35 L-14.9 8.55 -15.1 8.55 -15.1 8.75 M-16.45 9.55 Q-15.95 9.55 -16.45 9.45 L-16.45 9.55 M-16.9 10.2 Q-16.4 10.2 -16.9 10.1 L-16.9 10.2 M-16.7 9.75 Q-16.2 9.75 -16.7 9.65 L-16.7 9.75 M-15.8 11.4 Q-15.3 11.4 -15.8 11.3 L-15.8 11.4 M-16.25 9.3 Q-15.75 9.3 -16.25 9.2 L-16.25 9.3 M-14.45 7.9 Q-13.95 7.9 -14.45 7.8 L-14.45 7.9 M-14.65 8.15 Q-14.15 8.15 -14.65 8.05 L-14.65 8.15 M-18.75 15.85 L-18.75 15.95 Q-18.25 15.95 -18.75 15.85 M-17.35 16.9 Q-16.9 16.9 -17.35 16.8 L-17.35 16.9 M-17.6 17.1 Q-17.1 17.1 -17.6 17.0 L-17.6 17.1 M-0.45 13.55 L-0.35 13.55 0.45 13.55 -0.45 13.2 -0.45 13.1 -0.65 13.1 -0.9 13.55 -0.45 13.55 M-31.65 22.4 Q-31.15 22.4 -31.65 22.3 L-31.65 22.4 M-32.7 24.45 Q-32.35 24.85 -32.75 24.3 L-32.7 24.45 M-32.55 24.2 Q-32.05 24.2 -32.55 24.1 L-32.55 24.2 M-21.0 18.35 L-21.0 18.45 Q-20.5 18.45 -21.0 18.35 M-26.2 21.35 L-26.2 21.45 Q-25.7 21.45 -26.2 21.35 M-28.0 23.5 Q-27.5 23.5 -28.0 23.4 L-28.0 23.5 M-26.2 23.85 L-26.15 24.0 Q-25.75 24.4 -26.2 23.85 M-27.75 23.2 L-27.75 23.3 Q-27.25 23.3 -27.75 23.2 M-27.55 23.05 Q-27.05 23.05 -27.55 22.95 L-27.55 23.05 M-26.65 21.9 Q-25.85 21.85 -26.65 21.8 L-26.65 21.9 M-21.7 19.75 L-21.7 19.55 Q-20.85 19.0 -21.85 19.4 L-21.9 19.55 -21.9 19.75 -21.7 19.85 -21.7 19.75 M-22.6 20.65 L-22.6 20.45 Q-22.2 19.8 -22.75 20.25 L-22.8 20.45 -22.8 20.65 -23.05 20.65 -23.05 20.9 -22.8 21.0 -22.8 20.9 -22.6 20.65 M-22.35 20.9 L-22.15 21.0 -22.15 20.9 -22.35 20.75 -22.35 20.9 M-22.6 21.1 L-22.55 21.25 Q-22.15 21.65 -22.6 21.1 M-22.15 20.2 L-22.1 20.35 Q-21.45 20.6 -22.15 20.2 M-23.45 21.5 Q-23.05 21.85 -23.5 21.35 L-23.45 21.5 M-23.5 22.75 L-23.5 22.85 Q-23.0 22.85 -23.5 22.75 M-25.05 22.85 Q-24.55 22.85 -25.05 22.75 L-25.05 22.85 M-24.4 23.85 L-24.6 23.85 -24.6 24.1 -24.6 24.55 -24.85 24.55 -24.85 24.75 -24.6 24.85 -24.6 24.75 Q-24.3 25.4 -24.0 24.75 L-23.95 24.55 -23.95 24.3 -23.8 24.25 Q-23.55 23.7 -23.95 23.65 -23.2 22.25 -24.1 23.45 L-24.15 23.65 -24.4 23.65 -24.4 23.85 M-21.25 25.7 L-21.25 25.8 Q-20.8 25.8 -21.25 25.7 M-23.25 27.6 Q-22.75 27.6 -23.25 27.5 L-23.25 27.6 M-24.6 25.35 Q-24.15 25.35 -24.6 25.25 L-24.6 25.35 M-23.5 28.1 Q-23.0 28.1 -23.5 28.0 L-23.5 28.1 M-25.95 26.15 L-26.2 26.15 -26.2 26.4 -25.95 26.15 M-25.95 25.7 L-25.95 25.5 Q-25.05 23.3 -26.2 25.7 L-26.4 25.7 -26.4 25.95 -26.65 25.95 -26.65 26.15 -26.4 25.95 -26.2 25.7 -25.95 25.7 M-25.5 25.8 Q-25.0 25.8 -25.5 25.7 L-25.5 25.8 M-27.1 24.75 L-27.05 24.9 Q-26.65 25.3 -27.1 24.75 M-26.65 25.35 Q-26.15 25.35 -26.65 25.25 L-26.65 25.35 M-25.9 27.65 Q-25.35 28.25 -25.95 27.5 L-25.9 27.65 M-26.4 27.05 L-26.2 26.85 -26.4 26.85 -26.4 27.05 M-26.45 27.5 L-26.4 27.3 -26.65 27.3 Q-26.65 28.3 -26.45 27.5 M-25.7 26.3 Q-25.3 26.7 -25.75 26.15 L-25.7 26.3 M-28.4 28.15 Q-28.0 28.55 -28.45 28.0 L-28.4 28.15 M-28.9 28.8 Q-28.05 28.8 -28.9 28.7 L-28.9 28.8 M-28.9 29.15 L-29.1 29.0 -29.1 29.15 -29.1 29.6 Q-29.15 30.7 -28.9 29.8 L-28.9 29.6 -28.9 29.15 M-29.35 28.55 Q-28.85 28.55 -29.35 28.45 L-29.35 28.55 M-28.0 30.55 L-28.0 30.05 Q-27.5 28.9 -28.15 29.8 L-28.2 30.05 -28.2 30.55 Q-28.25 31.25 -28.05 30.75 L-28.0 30.55 M-26.2 28.7 L-26.2 28.9 -26.4 28.9 -26.4 29.15 -26.4 29.6 -26.2 29.7 -26.2 29.6 -26.2 29.35 -25.95 29.15 -25.95 28.7 -26.2 28.55 -26.2 28.7 M-27.1 29.0 Q-26.6 29.0 -27.1 28.9 L-27.1 29.0 M-27.3 27.9 Q-26.8 27.9 -27.3 27.8 L-27.3 27.9 M-27.55 32.0 Q-26.8 31.9 -27.55 31.9 L-27.55 32.0 M-27.75 32.8 L-27.75 32.9 Q-27.25 32.9 -27.75 32.8 M-28.65 31.9 L-28.65 32.1 Q-28.3 32.8 -28.65 31.9 M-28.85 32.7 Q-28.45 33.1 -28.9 32.55 L-28.85 32.7 M-29.1 33.6 Q-28.6 33.6 -29.1 33.5 L-29.1 33.6 M-28.9 34.5 Q-28.4 34.5 -28.9 34.4 L-28.9 34.5 M-24.85 33.95 L-25.05 33.85 -25.05 33.95 -25.05 34.2 -25.3 34.2 -25.3 34.4 -25.3 34.65 Q-25.7 35.15 -25.2 34.75 L-25.05 34.65 -25.05 34.4 -24.85 34.2 -24.85 33.95 M-25.3 35.2 Q-24.8 35.2 -25.3 35.1 L-25.3 35.2 M-32.95 25.0 Q-32.6 25.75 -33.0 24.75 L-32.95 25.0" fill="#f7ec6a" fill-rule="evenodd" stroke="none"/>
    <path d="M31.2 -34.1 L31.65 -34.1 31.65 -33.9 31.45 -33.65 31.3 -33.65 31.45 -33.45 31.65 -33.65 31.9 -33.65 32.1 -33.65 33.0 -33.65 Q34.55 -33.7 32.75 -33.05 L32.55 -33.0 32.35 -33.0 32.35 -32.75 31.65 -32.25 31.0 -32.05 30.75 -32.05 30.75 -32.25 Q31.35 -32.55 30.75 -32.75 L30.75 -32.5 30.55 -32.5 29.85 -32.5 29.85 -32.75 31.2 -34.1 M19.7 -20.8 L19.45 -20.8 19.45 -20.6 19.25 -20.6 19.25 -20.35 19.0 -20.35 19.0 -20.15 18.8 -20.15 18.55 -20.15 18.55 -20.35 18.8 -20.6 19.0 -20.8 19.25 -21.05 19.45 -21.25 19.9 -21.25 19.9 -21.05 19.7 -21.05 19.7 -20.8 M17.65 -19.0 L17.45 -19.0 17.2 -19.0 17.2 -19.25 17.45 -19.45 17.65 -19.45 17.9 -19.45 17.9 -19.25 17.65 -19.25 17.65 -19.0 M17.2 -18.75 L16.3 -17.85 16.1 -17.85 16.1 -18.05 16.3 -18.3 16.55 -18.5 16.75 -18.75 17.0 -19.0 17.2 -19.0 17.2 -18.75 M15.35 -16.95 L14.7 -16.5 13.1 -14.85 12.9 -14.85 12.9 -15.1 13.1 -15.3 13.55 -15.75 13.8 -16.0 14.0 -16.25 14.25 -16.5 14.45 -16.5 14.7 -16.5 14.7 -16.7 14.7 -16.95 14.9 -17.15 15.15 -17.4 15.35 -17.6 15.6 -17.6 15.8 -17.6 15.8 -17.4 15.6 -17.4 15.6 -17.15 15.35 -17.15 15.35 -16.95 M8.85 -10.5 L8.6 -10.5 8.4 -10.5 8.4 -10.25 8.15 -10.25 8.15 -10.05 7.95 -10.05 7.95 -9.8 7.7 -9.8 7.7 -10.05 7.7 -10.25 7.8 -10.25 7.7 -10.5 7.5 -10.5 7.5 -10.75 7.7 -11.0 8.4 -11.45 Q9.15 -11.1 8.9 -10.75 L8.85 -10.5 M9.5 4.85 L9.95 5.3 9.95 5.5 9.75 5.5 9.3 4.85 9.5 4.85 M23.75 30.55 L22.85 29.8 22.85 29.6 23.05 29.6 23.3 29.6 23.5 29.8 23.95 30.55 23.75 30.55 M-20.8 21.55 L-21.0 22.3 -21.25 22.3 -21.25 22.0 -21.25 21.8 -21.0 21.55 -20.8 21.55 M-20.35 24.3 L-20.35 24.1 -20.1 23.85 -19.9 23.4 -19.65 23.2 -19.45 22.95 -19.2 22.95 -19.2 23.2 -19.2 23.4 -19.45 23.4 -19.45 23.65 -19.65 23.65 -19.65 23.85 -19.65 24.1 -19.9 24.1 -19.9 24.3 -20.1 24.3 -20.1 24.55 -20.1 24.75 -20.55 24.75 -20.55 24.55 -20.35 24.3 M31.0 -33.35 Q31.5 -33.35 31.0 -33.45 L31.0 -33.35 M12.0 -14.65 L12.0 -14.4 11.75 -14.4 11.55 -14.4 11.55 -14.65 11.75 -14.85 12.0 -14.85 12.0 -14.65 M7.95 -10.6 Q8.45 -10.65 7.95 -10.75 L7.95 -10.6 M24.65 33.0 L24.85 33.0 24.85 33.3 24.65 33.3 24.4 33.3 24.4 33.0 24.65 33.0 M26.2 35.55 L26.9 36.05 26.95 36.15 Q27.4 36.45 26.65 36.5 L26.2 35.55 M-19.2 -28.4 L-19.65 -28.4 -19.9 -29.05 -19.2 -28.4 M-15.35 -24.25 L-14.2 -23.35 -14.2 -22.9 -14.45 -22.9 -15.35 -23.8 -15.35 -24.25 M-30.05 -33.2 L-29.6 -32.75 -29.6 -32.25 -30.5 -33.0 -30.5 -33.2 -30.05 -33.2" fill="#f9ee6b" fill-rule="evenodd" stroke="none"/>
    <path d="M12.0 -13.75 L11.75 -13.75 11.75 -13.95 11.75 -14.2 12.0 -14.2 12.2 -14.2 12.2 -13.95 12.0 -13.95 12.0 -13.75 M7.25 -10.05 L7.05 -9.8 6.8 -9.8 6.8 -10.05 7.05 -10.5 7.25 -10.5 7.5 -10.5 7.5 -10.25 7.25 -10.25 7.25 -10.05 M3.4 -5.5 L3.4 -5.7 3.6 -5.7 3.85 -5.7 3.85 -5.5 3.6 -5.5 3.6 -5.25 3.4 -5.25 3.4 -5.5 M-3.6 12.2 L-3.8 11.95 -3.8 11.75 -3.6 11.75 -3.35 11.95 -3.35 12.2 -3.6 12.2" fill="#f8ed6a" fill-rule="evenodd" stroke="none"/>
  </g>
</svg>
