<?xml version="1.0" encoding="UTF-8" standalone="no"?>
<svg xmlns:ffdec="https://www.free-decompiler.com/flash" xmlns:xlink="http://www.w3.org/1999/xlink" ffdec:objectType="shape" height="51.0px" width="81.0px" xmlns="http://www.w3.org/2000/svg">
  <g transform="matrix(1.0, 0.0, 0.0, 1.0, 40.5, 25.5)">
    <path d="M-40.0 -25.0 L40.0 -25.0 40.0 -24.95 35.0 -18.8 17.5 -18.8 -17.5 -18.8 -35.0 -18.8 -40.0 -25.0" fill="#a0a098" fill-rule="evenodd" stroke="none"/>
    <path d="M-39.95 25.0 L-40.0 25.0 -40.0 -25.0 -35.0 -18.8 -35.0 -13.8 -35.0 -6.3 -35.0 -3.8 -35.0 -1.3 -35.0 1.2 -35.0 11.2 -35.0 18.7 -39.95 25.0" fill="#707870" fill-rule="evenodd" stroke="none"/>
    <path d="M-35.0 -18.8 L-17.5 -18.8 -17.5 -13.8 -35.0 -13.8 -35.0 -18.8 M17.5 -18.8 L35.0 -18.8 35.0 -13.8 17.5 -13.8 17.5 -18.8 17.5 -13.8 17.5 -6.3 17.5 -3.8 17.5 -1.3 17.5 -3.8 35.0 -3.8 35.0 -1.3 17.5 -1.3 17.5 1.2 17.5 11.2 17.5 18.7 0.05 0.0 17.5 -18.7 17.5 -18.8 M-35.0 -1.3 L-35.0 -3.8 -17.5 -3.8 -17.5 -1.3 -35.0 -1.3" fill="#706860" fill-rule="evenodd" stroke="none"/>
    <path d="M17.5 11.2 L17.5 1.2 17.5 -1.3 35.0 -1.3 35.0 1.2 35.0 11.2 30.0 11.2 30.0 8.7 22.5 8.7 22.5 11.2 17.5 11.2 17.5 1.2 17.5 -1.3 17.5 1.2 35.0 1.2 17.5 1.2 17.5 11.2 M17.5 -3.8 L17.5 -6.3 17.5 -3.8 17.5 -6.3 35.0 -6.3 35.0 -3.8 17.5 -3.8 M-17.5 -13.8 L-17.5 -18.8 0.05 0.0 -17.5 18.7 -17.5 11.2 -17.5 1.2 -17.5 -1.3 -17.5 1.2 -17.5 11.2 -22.5 11.2 -22.5 8.7 -30.0 8.7 -30.0 11.2 -35.0 11.2 -35.0 1.2 -35.0 -1.3 -17.5 -1.3 -17.5 -3.8 -35.0 -3.8 -35.0 -6.3 -17.5 -6.3 -17.5 -13.8 M-17.5 -3.8 L-17.5 -6.3 -17.5 -3.8 M-17.5 1.2 L-35.0 1.2 -17.5 1.2" fill="#b0a8a8" fill-rule="evenodd" stroke="none"/>
    <path d="M17.5 -6.3 L17.5 -13.8 17.5 -6.3 17.5 -13.8 35.0 -13.8 35.0 -6.3 17.5 -6.3 M-35.0 -6.3 L-35.0 -13.8 -17.5 -13.8 -17.5 -6.3 -35.0 -6.3" fill="#101010" fill-rule="evenodd" stroke="none"/>
    <path d="M-17.5 -18.8 L17.5 -18.8 17.5 -18.7 0.05 0.0 -17.5 -18.8 M7.1 -12.5 L3.1 -12.5 7.1 -12.5 M-2.9 -12.5 L-6.9 -12.5 -2.9 -12.5" fill="#d0c8c0" fill-rule="evenodd" stroke="none"/>
    <path d="M40.0 -24.95 L40.0 25.0 35.0 18.7 35.0 11.2 35.0 1.2 35.0 -1.3 35.0 -3.8 35.0 -6.3 35.0 -13.8 35.0 -18.8 40.0 -24.95" fill="#303840" fill-rule="evenodd" stroke="none"/>
    <path d="M40.0 25.0 L-39.95 25.0 -35.0 18.7 -17.5 18.7 17.5 18.7 35.0 18.7 40.0 25.0 M-22.5 11.2 L-30.0 11.2 -30.0 8.7 -22.5 8.7 -22.5 11.2 M30.0 11.2 L22.5 11.2 22.5 8.7 30.0 8.7 30.0 11.2" fill="#283040" fill-rule="evenodd" stroke="none"/>
    <path d="M17.5 18.7 L17.5 11.2 22.5 11.2 30.0 11.2 35.0 11.2 35.0 18.7 17.5 18.7 17.5 11.2 17.5 18.7 M-17.5 11.2 L-17.5 18.7 -35.0 18.7 -35.0 11.2 -30.0 11.2 -22.5 11.2 -17.5 11.2" fill="#a09890" fill-rule="evenodd" stroke="none"/>
    <path d="M0.05 0.0 L17.5 18.7 -17.5 18.7 0.05 0.0 M-2.9 12.5 L-6.9 12.5 -2.9 12.5 M7.1 12.5 L3.1 12.5 7.1 12.5" fill="#485048" fill-rule="evenodd" stroke="none"/>
    <path d="M-40.0 -25.0 L40.0 -25.0 40.0 -24.95 40.0 25.0 -39.95 25.0 -40.0 25.0 -40.0 -25.0 M-35.0 -18.8 L-17.5 -18.8 17.5 -18.8 35.0 -18.8 M17.5 -18.8 L17.5 -18.7 M17.5 -13.8 L35.0 -13.8 M35.0 -6.3 L17.5 -6.3 M35.0 11.2 L35.0 18.7 17.5 18.7 -17.5 18.7 -35.0 18.7 -35.0 11.2 -35.0 1.2 -35.0 -1.3 -35.0 -3.8 -35.0 -6.3 -17.5 -6.3 -17.5 -13.8 -17.5 -18.8 M17.5 1.2 L35.0 1.2 M-35.0 -13.8 L-35.0 -18.8 M-35.0 -6.3 L-35.0 -13.8 -17.5 -13.8 M-17.5 -1.3 L-17.5 -3.8 -17.5 -6.3 M-17.5 -1.3 L-17.5 1.2 -17.5 11.2 -17.5 18.7 M-30.0 11.2 L-35.0 11.2 M-30.0 11.2 L-30.0 8.7 -22.5 8.7 -22.5 11.2 -17.5 11.2 M-35.0 1.2 L-17.5 1.2 M35.0 11.2 L30.0 11.2 30.0 8.7 22.5 8.7 22.5 11.2 17.5 11.2" fill="none" stroke="#000000" stroke-linecap="round" stroke-linejoin="round" stroke-width="1.0"/>
    <path d="M3.1 -12.5 L7.1 -12.5 M-6.9 -12.5 L-2.9 -12.5 M-6.9 12.5 L-2.9 12.5 M3.1 12.5 L7.1 12.5" fill="none" stroke="#303840" stroke-linecap="round" stroke-linejoin="round" stroke-width="4.0"/>
    <path d="M-40.0 -25.0 L-35.0 -18.8 M35.0 -18.8 L40.0 -24.95 M17.5 -13.8 L17.5 -18.8 M17.5 -1.3 L17.5 -3.8 17.5 -6.3 17.5 -13.8 M35.0 -13.8 L35.0 -18.8 M35.0 -3.8 L35.0 -6.3 35.0 -13.8 M35.0 -3.8 L35.0 -1.3 35.0 1.2 35.0 11.2 M35.0 18.7 L40.0 25.0 M17.5 -1.3 L17.5 1.2 17.5 11.2 17.5 18.7 M-35.0 18.7 L-39.95 25.0" fill="none" stroke="#000000" stroke-linecap="round" stroke-linejoin="round" stroke-width="1.0"/>
  </g>
</svg>
