<?xml version="1.0" encoding="UTF-8" standalone="no"?>
<svg xmlns:ffdec="https://www.free-decompiler.com/flash" xmlns:xlink="http://www.w3.org/1999/xlink" ffdec:objectType="shape" height="51.0px" width="81.0px" xmlns="http://www.w3.org/2000/svg">
  <g transform="matrix(1.0, 0.0, 0.0, 1.0, 40.5, 25.5)">
    <path d="M-40.0 -25.0 L40.0 -25.0 40.0 -24.95 35.0 -18.8 17.5 -18.8 -17.5 -18.8 -35.0 -18.8 -40.0 -25.0" fill="#a0a098" fill-rule="evenodd" stroke="none"/>
    <path d="M-35.0 -18.8 L-17.5 -18.8 -17.5 -13.8 -35.0 -13.8 -35.0 -18.8 M17.5 -18.8 L35.0 -18.8 35.0 -13.8 17.5 -13.8 17.5 -18.8 M17.5 -1.3 L17.5 -3.8 35.0 -3.8 35.0 -1.3 17.5 -1.3 M-35.0 -1.3 L-35.0 -3.8 -17.5 -3.8 -17.5 -1.3 -35.0 -1.3" fill="#706860" fill-rule="evenodd" stroke="none"/>
    <path d="M17.5 -6.3 L17.5 -13.8 35.0 -13.8 35.0 -6.3 17.5 -6.3 M-35.0 -6.3 L-35.0 -13.8 -17.5 -13.8 -17.5 -6.3 -35.0 -6.3" fill="#101010" fill-rule="evenodd" stroke="none"/>
    <path d="M17.5 11.2 L17.5 1.2 17.5 -1.3 35.0 -1.3 35.0 1.2 35.0 11.2 30.0 11.2 30.0 8.7 22.5 8.7 22.5 11.2 17.5 11.2 17.5 1.2 17.5 -1.3 17.5 1.2 35.0 1.2 17.5 1.2 17.5 11.2 M17.5 -3.8 L17.5 -6.3 17.5 -3.8 17.5 -6.3 35.0 -6.3 35.0 -3.8 17.5 -3.8 M-35.0 -3.8 L-35.0 -6.3 -17.5 -6.3 -17.5 -3.8 -35.0 -3.8 M-17.5 -1.3 L-17.5 1.2 -17.5 11.2 -22.5 11.2 -22.5 8.7 -30.0 8.7 -30.0 11.2 -35.0 11.2 -35.0 1.2 -35.0 -1.3 -17.5 -1.3 M-17.5 1.2 L-35.0 1.2 -17.5 1.2" fill="#b0a8a8" fill-rule="evenodd" stroke="none"/>
    <path d="M40.0 -24.95 L40.0 25.0 35.0 18.7 35.0 11.2 35.0 1.2 35.0 -1.3 35.0 -3.8 35.0 -6.3 35.0 -13.8 35.0 -18.8 40.0 -24.95" fill="#303840" fill-rule="evenodd" stroke="none"/>
    <path d="M-39.95 25.0 L-40.0 25.0 -40.0 -25.0 -35.0 -18.8 -35.0 -13.8 -35.0 -6.3 -35.0 -3.8 -35.0 -1.3 -35.0 1.2 -35.0 11.2 -35.0 18.7 -39.95 25.0" fill="#707870" fill-rule="evenodd" stroke="none"/>
    <path d="M35.0 11.2 L35.0 18.7 17.5 18.7 17.5 11.2 22.5 11.2 30.0 11.2 35.0 11.2 M-17.5 11.2 L-17.5 18.7 -35.0 18.7 -35.0 11.2 -30.0 11.2 -22.5 11.2 -17.5 11.2 M17.5 18.7 L17.5 11.2 17.5 18.7" fill="#a09890" fill-rule="evenodd" stroke="none"/>
    <path d="M40.0 25.0 L-39.95 25.0 -35.0 18.7 -17.5 18.7 17.5 18.7 35.0 18.7 40.0 25.0 M-30.0 11.2 L-30.0 8.7 -22.5 8.7 -22.5 11.2 -30.0 11.2 M30.0 11.2 L22.5 11.2 22.5 8.7 30.0 8.7 30.0 11.2" fill="#283040" fill-rule="evenodd" stroke="none"/>
    <path d="M-17.5 -18.8 L17.5 -18.8 17.5 -13.8 17.5 -6.3 17.5 -3.8 17.5 -1.3 17.5 1.2 17.5 11.2 17.5 18.7 -17.5 18.7 -17.5 11.2 -17.5 1.2 -17.5 -1.3 -17.5 -3.8 -17.5 -6.3 -17.5 -13.8 -17.5 -18.8 M9.6 -9.5 L8.45 -7.0 7.9 -5.35 Q7.55 -4.6 7.95 -3.85 L8.65 -3.25 Q9.3 -2.75 10.0 -2.4 L11.2 -1.95 12.5 -1.75 11.2 -1.95 10.0 -2.4 Q9.3 -2.75 8.65 -3.25 L7.95 -3.85 Q7.55 -4.6 7.9 -5.35 L8.45 -7.0 9.6 -9.5 M2.4 -14.0 L5.15 -6.3 2.4 -14.0 M-1.6 -14.0 L-4.35 -6.3 -1.6 -14.0 M-9.6 -9.5 L-8.45 -7.0 -7.9 -5.35 Q-7.6 -4.6 -7.95 -3.85 L-8.7 -3.25 Q-9.35 -2.75 -10.05 -2.4 L-11.2 -1.95 -12.5 -1.75 -11.2 -1.95 -10.05 -2.4 Q-9.35 -2.75 -8.7 -3.25 L-7.95 -3.85 Q-7.6 -4.6 -7.9 -5.35 L-8.45 -7.0 -9.6 -9.5 M-1.6 14.0 L-4.35 6.3 -1.6 14.0 M-9.6 9.5 Q-8.9 8.3 -8.45 6.95 L-7.9 5.3 Q-7.6 4.55 -7.95 3.8 -8.3 3.45 -8.7 3.25 -9.35 2.7 -10.05 2.4 -10.6 2.1 -11.2 1.95 L-12.5 1.7 -11.2 1.95 Q-10.6 2.1 -10.05 2.4 -9.35 2.7 -8.7 3.25 -8.3 3.45 -7.95 3.8 -7.6 4.55 -7.9 5.3 L-8.45 6.95 Q-8.9 8.3 -9.6 9.5 M2.4 14.0 L5.15 6.3 2.4 14.0 M9.6 9.5 Q8.9 8.3 8.45 6.95 L7.9 5.3 Q7.55 4.55 7.95 3.8 8.3 3.45 8.65 3.25 9.3 2.7 10.0 2.4 10.55 2.1 11.2 1.95 L12.5 1.7 11.2 1.95 Q10.55 2.1 10.0 2.4 9.3 2.7 8.65 3.25 8.3 3.45 7.95 3.8 7.55 4.55 7.9 5.3 L8.45 6.95 Q8.9 8.3 9.6 9.5" fill="#000000" fill-rule="evenodd" stroke="none"/>
    <path d="M-40.0 -25.0 L40.0 -25.0 40.0 -24.95 40.0 25.0 -39.95 25.0 -40.0 25.0 -40.0 -25.0 -35.0 -18.8 -17.5 -18.8 17.5 -18.8 35.0 -18.8 40.0 -24.95 M17.5 -13.8 L17.5 -18.8 M17.5 -1.3 L17.5 -3.8 17.5 -6.3 35.0 -6.3 35.0 -13.8 35.0 -18.8 M17.5 -6.3 L17.5 -13.8 35.0 -13.8 M35.0 -3.8 L35.0 -1.3 35.0 1.2 35.0 11.2 35.0 18.7 40.0 25.0 M35.0 -6.3 L35.0 -3.8 M17.5 -1.3 L17.5 1.2 35.0 1.2 M-35.0 -3.8 L-35.0 -6.3 -35.0 -13.8 -35.0 -18.8 M-35.0 -1.3 L-35.0 -3.8 M-17.5 -3.8 L-17.5 -6.3 -35.0 -6.3 M-17.5 -18.8 L-17.5 -13.8 -17.5 -6.3 M-17.5 -3.8 L-17.5 -1.3 -17.5 1.2 -17.5 11.2 -17.5 18.7 17.5 18.7 35.0 18.7 M17.5 11.2 L17.5 1.2 M-35.0 -1.3 L-35.0 1.2 -17.5 1.2 M-17.5 -13.8 L-35.0 -13.8 M-35.0 1.2 L-35.0 11.2 -30.0 11.2 -30.0 8.7 -22.5 8.7 -22.5 11.2 -17.5 11.2 M-35.0 18.7 L-35.0 11.2 M-35.0 18.7 L-39.95 25.0 M-17.5 18.7 L-35.0 18.7 M30.0 11.2 L30.0 8.7 22.5 8.7 22.5 11.2 17.5 11.2 17.5 18.7 M35.0 11.2 L30.0 11.2" fill="none" stroke="#000000" stroke-linecap="round" stroke-linejoin="round" stroke-width="1.0"/>
    <path d="M12.5 -1.75 L11.2 -1.95 10.0 -2.4 Q9.3 -2.75 8.65 -3.25 L7.95 -3.85 Q7.55 -4.6 7.9 -5.35 L8.45 -7.0 9.6 -9.5 M5.15 -6.3 L2.4 -14.0 M-12.5 -1.75 L-11.2 -1.95 -10.05 -2.4 Q-9.35 -2.75 -8.7 -3.25 L-7.95 -3.85 Q-7.6 -4.6 -7.9 -5.35 L-8.45 -7.0 -9.6 -9.5 M-4.35 -6.3 L-1.6 -14.0 M-12.5 1.7 L-11.2 1.95 Q-10.6 2.1 -10.05 2.4 -9.35 2.7 -8.7 3.25 -8.3 3.45 -7.95 3.8 -7.6 4.55 -7.9 5.3 L-8.45 6.95 Q-8.9 8.3 -9.6 9.5 M-4.35 6.3 L-1.6 14.0 M12.5 1.7 L11.2 1.95 Q10.55 2.1 10.0 2.4 9.3 2.7 8.65 3.25 8.3 3.45 7.95 3.8 7.55 4.55 7.9 5.3 L8.45 6.95 Q8.9 8.3 9.6 9.5 M5.15 6.3 L2.4 14.0" fill="none" stroke="#b0a8a8" stroke-linecap="round" stroke-linejoin="round" stroke-width="2.0"/>
  </g>
</svg>
