<?xml version="1.0" encoding="UTF-8" standalone="no"?>
<svg xmlns:ffdec="https://www.free-decompiler.com/flash" xmlns:xlink="http://www.w3.org/1999/xlink" ffdec:objectType="shape" height="47.5px" width="67.5px" xmlns="http://www.w3.org/2000/svg">
  <g transform="matrix(1.0, 0.0, 0.0, 1.0, 30.5, 20.5)">
    <path d="M37.0 27.0 L-23.0 27.0 -23.0 -13.0 37.0 -13.0 37.0 27.0" fill="#000000" fill-opacity="0.5019608" fill-rule="evenodd" stroke="none"/>
    <path d="M-0.05 -6.0 Q-2.5 -6.0 -4.25 -4.25 -6.05 -2.45 -6.05 0.0 -6.05 2.5 -4.25 4.3 -2.5 6.05 -0.05 6.0 2.4 6.05 4.2 4.3 5.95 2.5 5.95 0.0 5.95 -2.45 4.2 -4.25 2.4 -6.0 -0.05 -6.0 2.4 -6.0 4.2 -4.25 5.95 -2.45 5.95 0.0 5.95 2.5 4.2 4.3 2.4 6.05 -0.05 6.0 -2.5 6.05 -4.25 4.3 -6.05 2.5 -6.05 0.0 -6.05 -2.45 -4.25 -4.25 -2.5 -6.0 -0.05 -6.0 M20.0 -15.0 L20.0 15.0 -20.0 15.0 -20.0 -15.0 20.0 -15.0" fill="#59534d" fill-rule="evenodd" stroke="none"/>
    <path d="M-0.05 -6.0 Q2.4 -6.0 4.2 -4.25 5.95 -2.45 5.95 0.0 5.95 2.5 4.2 4.3 2.4 6.05 -0.05 6.0 -2.5 6.05 -4.25 4.3 -6.05 2.5 -6.05 0.0 -6.05 -2.45 -4.25 -4.25 -2.5 -6.0 -0.05 -6.0 Z" fill="none" stroke="#a8a888" stroke-linecap="round" stroke-linejoin="round" stroke-width="2.0"/>
    <path d="M30.0 -20.0 L30.0 -1.15 24.8 -1.15 24.8 -15.3 24.75 -15.3 30.0 -20.0 M21.0 -9.8 L21.1 -9.8 22.25 -9.8 22.25 -6.05 18.1 -6.05 18.1 -7.05 18.1 -7.2 18.1 -9.8 20.8 -9.8 21.0 -9.8 M28.25 -7.75 L28.25 -10.45 26.65 -10.45 26.65 -7.75 26.65 -4.8 28.25 -4.8 28.25 -7.75 M28.25 7.8 L28.25 4.85 26.65 4.85 26.65 7.8 26.65 10.5 28.25 10.5 28.25 7.8 M18.1 7.25 L18.1 7.15 18.1 6.05 22.25 6.05 22.25 9.85 21.0 9.85 18.1 9.85 18.1 7.6 18.1 7.25 M24.8 1.2 L30.0 1.2 30.0 20.05 24.75 15.35 24.8 15.35 24.8 1.2 M-24.8 -1.15 L-30.0 -1.15 -30.0 -20.0 -24.8 -15.3 -24.8 -1.15 M-18.1 -7.2 L-18.1 -6.05 -22.3 -6.05 -22.3 -9.8 -21.05 -9.8 -20.95 -9.8 -20.8 -9.8 -18.1 -9.8 -18.1 -7.2 M-26.65 -7.75 L-26.65 -10.45 -28.25 -10.45 -28.25 -7.75 -28.25 -4.8 -26.65 -4.8 -26.65 -7.75 M-30.0 20.05 L-30.0 1.2 -24.8 1.2 -24.8 15.35 -30.0 20.05 M-18.1 7.25 L-18.1 9.85 -20.95 9.85 -22.3 9.85 -22.3 6.05 -18.1 6.05 -18.1 7.25 M-26.65 7.8 L-26.65 4.85 -28.25 4.85 -28.25 7.8 -28.25 10.5 -26.65 10.5 -26.65 7.8" fill="#d0c8c0" fill-rule="evenodd" stroke="none"/>
    <path d="M12.6 -17.4 L15.85 -17.4 15.85 -18.85 12.6 -18.85 9.6 -18.85 9.6 -17.4 12.6 -17.4 M1.3 -15.3 L1.3 -20.0 30.0 -20.0 24.75 -15.3 1.3 -15.3 M5.0 -7.8 L1.3 -8.2 1.3 -12.65 5.0 -11.9 5.0 -7.8 M18.1 -7.2 L13.15 -7.2 13.15 -11.9 20.95 -11.9 21.0 -9.8 20.8 -9.8 18.1 -9.8 18.1 -7.2 M21.0 9.85 L20.95 11.95 13.15 11.95 13.15 7.25 18.1 7.25 18.1 7.6 18.1 9.85 21.0 9.85 M24.75 15.35 L30.0 20.05 1.3 20.05 1.3 15.35 24.75 15.35 M1.3 12.65 L1.3 8.25 5.0 7.8 5.0 11.95 1.3 12.65 M12.6 17.45 L9.6 17.45 9.6 18.9 12.6 18.9 15.85 18.9 15.85 17.45 12.6 17.45 M-24.8 -15.3 L-30.0 -20.0 -1.3 -20.0 -1.3 -15.3 -24.8 -15.3 M-1.3 -12.65 L-1.3 -8.2 -5.05 -7.8 -5.05 -11.9 -1.3 -12.65 M-20.95 -9.8 L-21.0 -11.9 -13.15 -11.9 -13.15 -7.2 -18.1 -7.2 -18.1 -9.8 -20.8 -9.8 -20.95 -9.8 M-12.6 -17.4 L-9.6 -17.4 -9.6 -18.85 -12.6 -18.85 -15.85 -18.85 -15.85 -17.4 -12.6 -17.4 M-5.05 7.8 L-1.3 8.25 -1.3 12.65 -5.05 11.95 -5.05 7.8 M-1.3 15.35 L-1.3 20.05 -30.0 20.05 -24.8 15.35 -1.3 15.35 M-20.95 9.85 L-18.1 9.85 -18.1 7.25 -13.15 7.25 -13.15 11.95 -21.0 11.95 -20.95 9.85 M-12.6 17.45 L-15.85 17.45 -15.85 18.9 -12.6 18.9 -9.6 18.9 -9.6 17.45 -12.6 17.45" fill="#303840" fill-rule="evenodd" stroke="none"/>
    <path d="M24.8 -1.15 L12.7 -1.15 Q12.9 -3.95 12.15 -6.05 10.55 -10.35 5.0 -11.9 L1.3 -12.65 1.3 -15.3 24.75 -15.3 24.8 -15.3 24.8 -1.15 M21.0 -9.8 L20.95 -11.9 13.15 -11.9 13.15 -7.2 18.1 -7.2 18.1 -7.05 18.1 -6.05 22.25 -6.05 22.25 -9.8 21.1 -9.8 21.0 -9.8 M21.0 9.85 L22.25 9.85 22.25 6.05 18.1 6.05 18.1 7.15 18.1 7.25 13.15 7.25 13.15 11.95 20.95 11.95 21.0 9.85 M24.8 1.2 L24.8 15.35 24.75 15.35 1.3 15.35 1.3 12.65 5.0 11.95 Q10.55 10.35 12.15 6.05 12.9 3.95 12.7 1.2 L24.8 1.2 M-24.8 -1.15 L-24.8 -15.3 -1.3 -15.3 -1.3 -12.65 -5.05 -11.9 Q-10.6 -10.35 -12.15 -6.05 -12.95 -3.95 -12.75 -1.15 L-24.8 -1.15 M-18.1 -7.2 L-13.15 -7.2 -13.15 -11.9 -21.0 -11.9 -20.95 -9.8 -21.05 -9.8 -22.3 -9.8 -22.3 -6.05 -18.1 -6.05 -18.1 -7.2 M-12.75 1.2 Q-12.95 3.95 -12.15 6.05 -10.6 10.35 -5.05 11.95 L-1.3 12.65 -1.3 15.35 -24.8 15.35 -24.8 1.2 -12.75 1.2 M-18.1 7.25 L-18.1 6.05 -22.3 6.05 -22.3 9.85 -20.95 9.85 -21.0 11.95 -13.15 11.95 -13.15 7.25 -18.1 7.25" fill="#a09890" fill-rule="evenodd" stroke="none"/>
    <path d="M12.6 -18.85 L12.6 -17.4 9.6 -17.4 9.6 -18.85 12.6 -18.85 M7.4 -6.05 Q6.55 -7.25 5.0 -7.8 L5.0 -11.9 Q10.55 -10.35 12.15 -6.05 L7.4 -6.05 M28.25 -7.75 L26.65 -7.75 26.65 -10.45 28.25 -10.45 28.25 -7.75 M26.65 7.8 L28.25 7.8 28.25 10.5 26.65 10.5 26.65 7.8 M5.0 7.8 Q6.55 7.25 7.4 6.05 L12.15 6.05 Q10.55 10.35 5.0 11.95 L5.0 7.8 M12.6 18.9 L9.6 18.9 9.6 17.45 12.6 17.45 12.6 18.9 M-5.05 -7.8 Q-6.6 -7.25 -7.4 -6.05 L-12.15 -6.05 Q-10.6 -10.35 -5.05 -11.9 L-5.05 -7.8 M-28.25 -7.75 L-28.25 -10.45 -26.65 -10.45 -26.65 -7.75 -28.25 -7.75 M-12.6 -18.85 L-9.6 -18.85 -9.6 -17.4 -12.6 -17.4 -12.6 -18.85 M-12.15 6.05 L-7.4 6.05 Q-6.6 7.25 -5.05 7.8 L-5.05 11.95 Q-10.6 10.35 -12.15 6.05 M-12.6 18.9 L-12.6 17.45 -9.6 17.45 -9.6 18.9 -12.6 18.9 M-26.65 7.8 L-26.65 10.5 -28.25 10.5 -28.25 7.8 -26.65 7.8" fill="#485048" fill-rule="evenodd" stroke="none"/>
    <path d="M12.6 -17.4 L12.6 -18.85 15.85 -18.85 15.85 -17.4 12.6 -17.4 M12.7 -1.15 L8.35 -1.15 Q8.6 -4.3 7.4 -6.05 L12.15 -6.05 Q12.9 -3.95 12.7 -1.15 M26.65 -7.75 L28.25 -7.75 28.25 -4.8 26.65 -4.8 26.65 -7.75 M26.65 7.8 L26.65 4.85 28.25 4.85 28.25 7.8 26.65 7.8 M7.4 6.05 Q8.6 4.3 8.35 1.2 L12.7 1.2 Q12.9 3.95 12.15 6.05 L7.4 6.05 M12.6 18.9 L12.6 17.45 15.85 17.45 15.85 18.9 12.6 18.9 M-7.4 -6.05 Q-8.65 -4.3 -8.4 -1.15 L-12.75 -1.15 Q-12.95 -3.95 -12.15 -6.05 L-7.4 -6.05 M-28.25 -7.75 L-26.65 -7.75 -26.65 -4.8 -28.25 -4.8 -28.25 -7.75 M-12.6 -18.85 L-12.6 -17.4 -15.85 -17.4 -15.85 -18.85 -12.6 -18.85 M-12.75 1.2 L-8.4 1.2 Q-8.65 4.3 -7.4 6.05 L-12.15 6.05 Q-12.95 3.95 -12.75 1.2 M-12.6 17.45 L-12.6 18.9 -15.85 18.9 -15.85 17.45 -12.6 17.45 M-28.25 7.8 L-28.25 4.85 -26.65 4.85 -26.65 7.8 -28.25 7.8" fill="#707870" fill-rule="evenodd" stroke="none"/>
    <path d="M1.3 -15.3 L1.3 -20.0 30.0 -20.0 30.0 -1.15 24.8 -1.15 12.7 -1.15 8.35 -1.15 Q8.6 -4.3 7.4 -6.05 6.55 -7.25 5.0 -7.8 L1.3 -8.2 1.3 -12.65 1.3 -15.3 24.75 -15.3 30.0 -20.0 M24.75 -15.3 L24.8 -15.3 24.8 -1.15 M30.0 20.05 L30.0 1.2 24.8 1.2 24.8 15.35 24.75 15.35 30.0 20.05 1.3 20.05 1.3 15.35 1.3 12.65 1.3 8.25 5.0 7.8 Q6.55 7.25 7.4 6.05 8.6 4.3 8.35 1.2 L12.7 1.2 24.8 1.2 M24.75 15.35 L1.3 15.35 M-30.0 -20.0 L-30.0 -1.15 -24.8 -1.15 -24.8 -15.3 -30.0 -20.0 -1.3 -20.0 -1.3 -15.3 -1.3 -12.65 -1.3 -8.2 -5.05 -7.8 Q-6.6 -7.25 -7.4 -6.05 -8.65 -4.3 -8.4 -1.15 L-12.75 -1.15 -24.8 -1.15 M-24.8 -15.3 L-1.3 -15.3 M-7.4 6.05 Q-8.65 4.3 -8.4 1.2 L-12.75 1.2 -24.8 1.2 -24.8 15.35 -1.3 15.35 -1.3 20.05 -30.0 20.05 -30.0 1.2 -24.8 1.2 M-7.4 6.05 Q-6.6 7.25 -5.05 7.8 L-1.3 8.25 -1.3 12.65 -1.3 15.35 M-24.8 15.35 L-30.0 20.05" fill="none" stroke="#000000" stroke-linecap="round" stroke-linejoin="round" stroke-width="1.0"/>
  </g>
</svg>
