<?xml version="1.0" encoding="UTF-8" standalone="no"?>
<svg xmlns:ffdec="https://www.free-decompiler.com/flash" xmlns:xlink="http://www.w3.org/1999/xlink" ffdec:objectType="shape" height="26.0px" width="26.0px" xmlns="http://www.w3.org/2000/svg">
  <g transform="matrix(1.0, 0.0, 0.0, 1.0, 8.25, 7.95)">
    <path d="M7.4 -3.6 Q9.7 -1.35 9.75 1.85 L9.75 2.25 Q9.7 5.45 7.4 7.7 5.15 9.95 2.0 10.05 L1.55 10.05 Q-1.65 10.0 -3.9 7.7 -6.2 5.45 -6.25 2.25 L-6.25 2.05 -6.2 2.05 -6.25 2.05 -6.25 1.85 Q-6.2 -1.35 -3.9 -3.6 -1.65 -5.9 1.55 -5.95 L2.0 -5.95 Q5.15 -5.85 7.4 -3.6" fill="#000000" fill-opacity="0.5019608" fill-rule="evenodd" stroke="none"/>
    <path d="M15.4 4.4 Q17.7 6.65 17.75 9.85 L17.75 10.25 Q17.7 13.45 15.4 15.7 13.15 17.95 10.0 18.05 L9.55 18.05 Q6.35 18.0 4.1 15.7 2.9 14.5 2.3 13.05 L2.25 12.85 -5.25 -4.95 12.25 2.45 13.2 2.8 Q14.4 3.35 15.4 4.4" fill="#000000" fill-opacity="0.4" fill-rule="evenodd" stroke="none"/>
    <path d="M-8.25 0.05 L-8.25 -0.15 Q-8.2 -3.35 -5.9 -5.6 -3.65 -7.9 -0.45 -7.95 L0.0 -7.95 Q3.15 -7.85 5.4 -5.6 7.7 -3.35 7.75 -0.15 L7.75 0.05 0.0 -7.9 -8.25 0.05 -8.2 0.05 0.0 8.05 -0.45 8.05 Q-3.65 8.0 -5.9 5.7 -8.2 3.45 -8.25 0.25 L-8.25 0.05 M7.75 0.1 L7.75 0.25 Q7.7 3.45 5.4 5.7 3.15 7.95 0.0 8.05 L7.75 0.1" fill="#908860" fill-rule="evenodd" stroke="none"/>
    <path d="M0.0 -7.9 L7.75 0.05 0.0 0.05 0.0 8.05 -8.2 0.05 0.0 0.05 0.0 -7.9" fill="#706840" fill-rule="evenodd" stroke="none"/>
    <path d="M7.75 0.05 L7.75 0.1 0.0 8.05 0.0 0.05 7.75 0.05" fill="#504828" fill-rule="evenodd" stroke="none"/>
    <path d="M-8.2 0.05 L-8.25 0.05 0.0 -7.9 0.0 0.05 -8.2 0.05" fill="#aaaca4" fill-rule="evenodd" stroke="none"/>
  </g>
</svg>
