<?xml version="1.0" encoding="UTF-8" standalone="no"?>
<svg xmlns:ffdec="https://www.free-decompiler.com/flash" xmlns:xlink="http://www.w3.org/1999/xlink" ffdec:objectType="shape" height="169.8px" width="200.9px" xmlns="http://www.w3.org/2000/svg">
  <g transform="matrix(1.0, 0.0, 0.0, 1.0, 90.5, 54.05)">
    <path d="M32.25 -36.65 Q43.75 -15.9 50.45 7.8 68.15 23.05 73.2 40.25 85.3 49.7 101.9 60.95 115.1 69.9 107.8 76.25 100.5 82.55 91.05 81.65 81.55 80.75 78.45 91.4 80.7 97.55 78.55 103.85 L76.7 107.9 Q77.7 109.05 78.05 110.65 78.35 111.95 78.25 113.5 L77.85 115.75 50.35 115.75 50.5 113.5 51.0 110.65 Q51.4 109.0 52.05 107.9 53.15 105.95 54.95 105.5 L54.25 103.85 Q53.3 100.7 55.0 97.0 L53.45 97.4 53.45 90.85 Q43.3 92.45 35.35 97.15 L33.1 97.15 33.1 95.65 30.7 95.65 30.7 99.75 -10.8 99.75 -10.8 95.65 -13.15 95.65 -13.15 97.15 -15.4 97.15 Q-23.4 92.45 -33.55 90.85 L-33.55 97.4 -35.1 97.0 Q-33.4 100.7 -34.3 103.85 L-35.05 105.5 Q-33.25 105.95 -32.15 107.9 -31.5 109.0 -31.1 110.65 L-30.6 113.5 -30.4 115.75 -57.9 115.75 -58.3 113.5 Q-58.45 111.95 -58.15 110.65 -57.8 109.05 -56.8 107.9 L-58.6 103.85 Q-60.8 97.55 -58.55 91.4 -61.65 80.75 -71.1 81.65 -80.55 82.55 -87.85 76.25 -95.2 69.9 -82.0 60.95 -65.4 49.7 -53.25 40.25 -48.25 23.05 -30.5 7.8 -23.85 -15.9 -12.3 -36.65 -7.4 -45.55 -1.6 -54.05 L21.55 -54.05 Q27.3 -45.55 32.25 -36.65" fill="#000000" fill-opacity="0.5019608" fill-rule="evenodd" stroke="none"/>
  </g>
</svg>
