<?xml version="1.0" encoding="UTF-8" standalone="no"?>
<svg xmlns:ffdec="https://www.free-decompiler.com/flash" xmlns:xlink="http://www.w3.org/1999/xlink" ffdec:objectType="shape" height="129.1px" width="145.3px" xmlns="http://www.w3.org/2000/svg">
  <g transform="matrix(1.0, 0.0, 0.0, 1.0, 0.05, 0.0)">
    <path d="M137.4 0.0 Q146.2 51.7 145.15 101.0 144.75 119.65 134.75 126.6 126.6 132.3 119.5 125.05 112.4 117.75 108.85 105.0 105.3 92.2 115.9 0.0 L137.4 0.0" fill="url(#gradient0)" fill-rule="evenodd" stroke="none"/>
    <path d="M7.85 0.0 L29.35 0.0 Q39.9 92.2 36.4 105.0 32.85 117.75 25.75 125.05 18.6 132.3 10.5 126.6 0.45 119.65 0.05 101.0 -1.0 51.7 7.85 0.0" fill="url(#gradient1)" fill-rule="evenodd" stroke="none"/>
  </g>
  <defs>
    <radialGradient cx="0" cy="0" gradientTransform="matrix(-0.0262, 0.0, 0.0, 0.0886, 126.9, 62.0)" gradientUnits="userSpaceOnUse" id="gradient0" r="819.2" spreadMethod="pad">
      <stop offset="0.3803921568627451" stop-color="#e8f8e8"/>
      <stop offset="0.6313725490196078" stop-color="#f8f8b0"/>
      <stop offset="0.796078431372549" stop-color="#e0c870"/>
      <stop offset="0.9490196078431372" stop-color="#c07018"/>
    </radialGradient>
    <radialGradient cx="0" cy="0" gradientTransform="matrix(0.0262, 0.0, 0.0, 0.0886, 18.3, 62.0)" gradientUnits="userSpaceOnUse" id="gradient1" r="819.2" spreadMethod="pad">
      <stop offset="0.3803921568627451" stop-color="#e8f8e8"/>
      <stop offset="0.6313725490196078" stop-color="#f8f8b0"/>
      <stop offset="0.796078431372549" stop-color="#e0c870"/>
      <stop offset="0.9490196078431372" stop-color="#c07018"/>
    </radialGradient>
  </defs>
</svg>
