<?xml version="1.0" encoding="UTF-8" standalone="no"?>
<svg xmlns:ffdec="https://www.free-decompiler.com/flash" xmlns:xlink="http://www.w3.org/1999/xlink" ffdec:objectType="shape" height="103.3px" width="137.95px" xmlns="http://www.w3.org/2000/svg">
  <g transform="matrix(1.0, 0.0, 0.0, 1.0, -3.6, 0.0)">
    <path d="M9.95 0.0 L27.15 0.0 Q35.65 73.75 32.8 84.0 29.95 94.2 24.3 100.05 18.6 105.85 12.05 101.25 4.0 95.7 3.7 80.8 2.85 41.35 9.95 0.0" fill="url(#gradient0)" fill-rule="evenodd" stroke="none"/>
    <path d="M141.45 80.8 Q141.1 95.7 133.1 101.25 126.55 105.85 120.9 100.05 115.2 94.2 112.4 84.0 109.55 73.75 118.0 0.0 L135.2 0.0 Q142.25 41.35 141.45 80.8" fill="url(#gradient1)" fill-rule="evenodd" stroke="none"/>
  </g>
  <defs>
    <radialGradient cx="0" cy="0" gradientTransform="matrix(0.021, 0.0, 0.0, 0.0708, 18.3, 49.6)" gradientUnits="userSpaceOnUse" id="gradient0" r="819.2" spreadMethod="pad">
      <stop offset="0.3803921568627451" stop-color="#e8f8e8"/>
      <stop offset="0.6313725490196078" stop-color="#f8f8b0"/>
      <stop offset="0.796078431372549" stop-color="#e0c870"/>
      <stop offset="0.9490196078431372" stop-color="#c07018"/>
    </radialGradient>
    <radialGradient cx="0" cy="0" gradientTransform="matrix(-0.021, 0.0, 0.0, 0.0708, 126.8, 49.6)" gradientUnits="userSpaceOnUse" id="gradient1" r="819.2" spreadMethod="pad">
      <stop offset="0.3803921568627451" stop-color="#e8f8e8"/>
      <stop offset="0.6313725490196078" stop-color="#f8f8b0"/>
      <stop offset="0.796078431372549" stop-color="#e0c870"/>
      <stop offset="0.9490196078431372" stop-color="#c07018"/>
    </radialGradient>
  </defs>
</svg>
