<?xml version="1.0" encoding="UTF-8" standalone="no"?>
<svg xmlns:ffdec="https://www.free-decompiler.com/flash" xmlns:xlink="http://www.w3.org/1999/xlink" ffdec:objectType="shape" height="180.45px" width="202.4px" xmlns="http://www.w3.org/2000/svg">
  <g transform="matrix(1.0, 0.0, 0.0, 1.0, 101.25, 73.95)">
    <path d="M9.35 -67.55 L11.7 -64.05 Q17.3 -55.55 22.25 -46.65 22.8 -37.0 24.55 -27.7 L20.7 -27.65 Q11.5 -43.65 9.35 -67.55 M-22.3 -46.65 Q-17.4 -55.55 -11.6 -64.05 L-9.35 -67.2 Q-11.6 -43.65 -20.8 -27.65 L-24.65 -27.7 Q-22.9 -37.0 -22.3 -46.65 M-2.45 -72.8 L-2.4 -72.75 2.6 -72.75 Q3.6 -34.1 10.25 -5.05 9.45 -6.85 7.95 -8.35 4.75 -11.5 0.4 -11.65 L0.15 -11.65 -0.2 -11.65 -0.45 -11.65 Q-4.85 -11.5 -8.0 -8.35 -9.5 -6.85 -10.3 -5.05 -3.7 -34.1 -2.45 -72.75 L-2.4 -72.75 -2.45 -72.75 -2.45 -72.8 M3.15 -32.85 L2.95 -32.9 Q1.2 -31.95 1.55 -29.55 L2.0 -24.9 Q2.0 -24.15 2.8 -24.25 4.25 -24.45 4.2 -26.05 L4.1 -27.8 Q4.1 -30.3 3.6 -32.45 3.55 -32.8 3.15 -32.85 M4.9 -21.15 Q4.8 -21.85 4.1 -21.85 1.9 -21.3 2.25 -18.65 L2.45 -15.4 Q2.45 -13.65 4.3 -13.2 6.75 -12.6 6.1 -15.05 5.3 -18.1 4.9 -21.15 M-10.75 3.15 Q-10.0 5.6 -8.0 7.55 -4.85 10.7 -0.45 10.85 L-0.2 10.85 0.15 10.85 0.4 10.85 Q4.75 10.7 7.95 7.55 9.9 5.6 10.7 3.15 13.3 7.85 17.95 11.1 L11.45 11.1 10.8 12.1 5.2 12.1 5.2 14.95 -5.25 14.95 -5.25 12.1 -10.85 12.1 -11.55 11.1 -18.05 11.1 Q-13.4 7.85 -10.75 3.15 M59.95 78.0 L43.45 80.85 43.45 75.65 43.45 60.35 43.45 29.7 47.25 32.25 59.95 40.4 59.95 78.0 M51.4 47.75 L51.2 47.75 Q49.4 48.6 49.75 51.0 49.95 52.7 49.75 54.4 49.5 56.25 50.4 57.8 50.75 58.35 51.35 58.05 52.7 57.25 52.6 55.45 L52.55 53.45 Q52.7 50.7 52.0 48.2 51.85 47.8 51.4 47.75 M47.45 47.55 L47.1 47.5 Q45.35 48.35 45.55 50.7 45.75 53.75 45.55 56.7 45.45 58.0 46.7 58.05 47.9 58.1 48.0 57.0 48.55 52.35 47.85 47.9 47.8 47.65 47.45 47.55 M18.75 20.75 L19.85 20.75 22.35 35.75 18.75 35.75 18.75 20.75 M14.75 65.1 L13.05 65.15 12.65 65.1 12.2 64.65 Q11.35 62.2 11.7 59.5 11.95 57.65 11.5 55.8 11.0 53.8 11.8 51.95 L12.15 51.55 Q14.2 50.55 16.6 50.95 L23.7 51.1 Q24.95 51.05 24.55 52.15 L24.75 56.4 Q24.8 60.15 24.35 63.8 L23.9 64.65 Q22.8 65.5 21.5 65.6 21.2 65.2 20.6 65.25 L19.6 65.35 16.55 65.15 15.8 64.85 Q15.05 64.8 14.75 65.1 M23.6 53.75 L23.45 52.35 23.4 52.35 16.65 52.05 14.3 52.05 14.2 52.05 12.85 52.35 12.7 52.95 Q12.45 54.75 12.75 56.55 L12.8 57.05 12.75 62.6 Q12.75 63.35 13.05 64.0 L13.4 64.05 19.05 64.4 22.65 64.25 22.9 64.1 Q23.5 62.75 23.55 61.2 L23.6 53.75 M45.1 73.55 Q45.05 74.8 46.35 75.1 49.05 75.65 50.9 74.15 51.35 73.75 51.1 73.2 50.75 72.4 49.95 72.4 47.5 72.05 45.5 72.95 45.15 73.1 45.1 73.55 M55.05 63.5 L54.6 63.3 54.6 63.25 54.4 63.35 54.25 63.4 Q53.4 69.2 53.9 75.15 L54.0 75.45 Q54.35 75.75 54.7 75.45 54.55 69.6 55.05 63.8 L55.05 63.5 M-3.25 -32.85 L-3.7 -32.45 Q-4.15 -30.3 -4.2 -27.8 L-4.25 -26.05 Q-4.35 -24.45 -2.9 -24.25 -2.1 -24.15 -2.05 -24.9 L-1.6 -29.55 Q-1.25 -31.95 -3.05 -32.9 L-3.25 -32.85 M-2.35 -18.65 Q-1.95 -21.3 -4.15 -21.85 -4.85 -21.85 -4.95 -21.15 -5.4 -18.1 -6.2 -15.05 -6.85 -12.6 -4.35 -13.2 -2.5 -13.65 -2.55 -15.4 L-2.35 -18.65 M-18.8 35.75 L-22.45 35.75 -19.95 20.75 -18.8 20.75 -18.8 35.75 M-47.3 32.25 L-43.55 29.7 -43.55 60.35 -43.55 75.65 -43.55 80.85 -60.0 78.0 -60.0 40.4 -47.3 32.25 M-47.5 47.55 Q-47.85 47.65 -47.9 47.9 -48.6 52.35 -48.1 57.0 -47.95 58.1 -46.8 58.05 -45.5 58.0 -45.6 56.7 -45.85 53.75 -45.6 50.7 -45.45 48.35 -47.15 47.5 L-47.5 47.55 M-51.5 47.75 Q-51.95 47.8 -52.05 48.2 -52.75 50.7 -52.65 53.45 L-52.65 55.45 Q-52.8 57.25 -51.45 58.05 -50.85 58.35 -50.5 57.8 -49.55 56.25 -49.8 54.4 -50.05 52.7 -49.8 51.0 -49.5 48.6 -51.3 47.75 L-51.5 47.75 M-51.2 73.2 Q-51.45 73.75 -50.95 74.15 -49.1 75.65 -46.4 75.1 -45.15 74.8 -45.2 73.55 -45.2 73.1 -45.6 72.95 -47.6 72.05 -50.05 72.4 -50.85 72.4 -51.2 73.2 M-54.45 63.35 L-54.65 63.25 -54.65 63.3 -55.1 63.5 -55.15 63.8 Q-54.65 69.6 -54.75 75.45 -54.4 75.75 -54.05 75.45 L-53.95 75.15 Q-53.5 69.2 -54.3 63.4 L-54.45 63.35 M-12.95 52.35 L-14.25 52.05 -14.4 52.05 -16.75 52.05 -23.5 52.35 -23.7 53.75 -23.6 61.2 Q-23.55 62.75 -23.0 64.1 L-22.75 64.25 -19.1 64.4 -13.45 64.05 -13.15 64.0 Q-12.8 63.35 -12.8 62.6 L-12.9 57.05 -12.85 56.55 Q-12.55 54.75 -12.75 52.95 L-12.95 52.35 M-21.55 65.6 Q-22.9 65.5 -23.95 64.65 L-24.4 63.8 Q-24.9 60.15 -24.8 56.4 L-24.65 52.15 Q-25.05 51.05 -23.8 51.1 L-16.7 50.95 Q-14.25 50.55 -12.2 51.55 L-11.85 51.95 Q-11.1 53.8 -11.6 55.8 -12.05 57.65 -11.8 59.5 -11.4 62.2 -12.25 64.65 L-12.7 65.1 -13.15 65.15 -14.8 65.1 Q-15.15 64.8 -15.85 64.85 L-16.6 65.15 -19.7 65.35 -20.7 65.25 Q-21.3 65.2 -21.55 65.6" fill="#a0b0b8" fill-rule="evenodd" stroke="none"/>
    <path d="M9.35 -67.55 Q11.5 -43.65 20.7 -27.65 L24.55 -27.7 26.15 -20.25 18.2 -20.15 16.35 -23.65 Q8.0 -42.45 5.75 -71.1 7.65 -69.75 9.35 -67.55 M5.25 -5.7 Q3.2 -7.75 0.4 -7.85 L-0.05 -7.9 -0.45 -7.85 Q-3.3 -7.75 -5.35 -5.7 -7.55 -3.5 -7.55 -0.4 -7.55 2.7 -5.35 4.9 -3.3 6.95 -0.45 7.1 L-0.05 7.1 0.4 7.1 Q3.2 6.95 5.25 4.9 7.45 2.7 7.45 -0.4 7.45 -3.5 5.25 -5.7 M-10.3 -5.05 Q-9.5 -6.85 -8.0 -8.35 -4.85 -11.5 -0.45 -11.65 L-0.2 -11.65 0.15 -11.65 0.4 -11.65 Q4.75 -11.5 7.95 -8.35 9.45 -6.85 10.25 -5.05 L10.3 -4.9 Q11.05 -3.25 11.2 -1.35 L11.25 -0.4 Q11.2 1.45 10.7 3.15 9.9 5.6 7.95 7.55 4.75 10.7 0.4 10.85 L0.15 10.85 -0.2 10.85 -0.45 10.85 Q-4.85 10.7 -8.0 7.55 -10.0 5.6 -10.75 3.15 -11.3 1.45 -11.3 -0.4 L-11.25 -1.35 Q-11.1 -3.25 -10.35 -4.9 L-10.3 -5.05 M47.25 21.65 L47.25 16.8 Q52.7 21.85 59.95 27.7 L59.95 34.1 47.25 21.65 M22.4 73.4 L22.65 73.4 22.9 73.55 22.9 73.5 23.15 73.7 Q23.6 75.05 23.45 76.6 L23.45 76.85 23.4 77.35 23.4 78.0 23.25 78.35 Q22.7 79.2 22.25 78.35 L22.1 77.9 22.1 77.3 21.8 77.3 Q21.25 76.75 21.3 76.0 L21.2 74.75 Q21.25 73.45 22.4 73.4 M14.2 73.55 L14.35 73.7 Q14.75 76.05 14.5 78.55 L14.3 78.85 Q13.2 79.3 13.45 78.1 12.15 77.9 12.35 76.55 L12.35 74.85 Q12.1 73.35 13.55 73.4 L14.2 73.55 M-9.35 -67.2 L-5.6 -71.0 Q-8.1 -42.45 -16.4 -23.65 L-18.3 -20.15 -26.25 -20.25 -24.65 -27.7 -20.8 -27.65 Q-11.6 -43.65 -9.35 -67.2 M-47.3 16.8 L-47.3 21.65 Q-53.35 28.0 -60.0 34.1 L-60.0 27.7 Q-52.8 21.85 -47.3 16.8 M-14.3 73.55 L-13.6 73.4 Q-12.2 73.35 -12.4 74.85 L-12.4 76.55 Q-12.2 77.9 -13.5 78.1 -13.25 79.3 -14.35 78.85 L-14.55 78.55 Q-14.85 76.05 -14.45 73.7 L-14.3 73.55 M-22.7 73.4 L-22.5 73.4 Q-21.3 73.45 -21.3 74.75 L-21.4 76.0 Q-21.35 76.75 -21.9 77.3 L-22.15 77.3 -22.2 77.3 -22.2 77.9 -22.35 78.35 Q-22.75 79.2 -23.3 78.35 L-23.45 78.0 -23.5 77.35 -23.5 76.85 -23.55 76.6 Q-23.65 75.05 -23.25 73.7 L-23.0 73.5 -22.95 73.55 Q-22.85 73.4 -22.7 73.4" fill="#384048" fill-rule="evenodd" stroke="none"/>
    <path d="M-2.55 -72.7 L-2.45 -72.8 -2.45 -72.75 Q-3.7 -34.1 -10.3 -5.05 L-10.35 -4.9 Q-11.1 -3.25 -11.25 -1.35 L-11.3 -0.4 Q-11.3 1.45 -10.75 3.15 -13.4 7.85 -18.05 11.1 L-11.55 11.1 -10.85 12.1 -8.8 15.1 -22.8 15.1 -20.55 11.1 -18.05 11.1 -20.55 11.1 -22.8 15.1 -33.35 22.7 -43.55 29.7 -47.3 32.25 -47.3 21.65 -47.3 16.8 -44.4 14.0 Q-36.75 6.4 -33.35 0.6 -32.3 -1.3 -31.6 -3.0 -28.4 -11.45 -26.25 -20.25 L-18.3 -20.15 -16.4 -23.65 Q-8.1 -42.45 -5.6 -71.0 L-2.55 -72.7 -2.45 -72.75 -2.55 -72.7 M2.6 -72.75 L2.75 -72.75 3.05 -72.6 5.75 -71.1 Q8.0 -42.45 16.35 -23.65 L18.2 -20.15 26.15 -20.25 Q28.3 -11.45 31.55 -3.0 32.2 -1.3 33.3 0.6 36.65 6.4 44.35 14.0 L47.25 16.8 47.25 21.65 47.25 32.25 43.45 29.7 33.3 22.7 22.7 15.1 20.45 11.1 17.95 11.1 20.45 11.1 22.7 15.1 8.7 15.1 10.8 12.1 11.45 11.1 17.95 11.1 Q13.3 7.85 10.7 3.15 11.2 1.45 11.25 -0.4 L11.2 -1.35 Q11.05 -3.25 10.3 -4.9 L10.25 -5.05 Q3.6 -34.1 2.6 -72.75 L3.05 -72.6 2.6 -72.75 M16.35 -23.65 L16.35 -1.35 11.2 -1.35 16.35 -1.35 16.35 -23.65 M81.25 51.75 L81.0 52.1 Q71.65 47.55 59.95 40.4 L59.95 34.1 Q69.9 43.25 81.25 51.75 M82.05 56.75 L82.15 56.7 82.45 56.5 82.55 56.6 Q83.3 60.15 82.45 63.65 L81.8 63.7 81.7 63.45 82.05 56.75 M85.95 56.75 L86.0 56.7 86.35 56.5 86.5 56.55 86.8 56.8 86.8 57.1 86.55 63.75 86.5 63.8 86.3 64.0 85.7 63.9 85.65 63.6 Q85.65 60.15 85.95 56.75 M47.45 47.55 Q47.8 47.65 47.85 47.9 48.55 52.35 48.0 57.0 47.9 58.1 46.7 58.05 45.45 58.0 45.55 56.7 45.75 53.75 45.55 50.7 45.35 48.35 47.1 47.5 L47.45 47.55 M51.4 47.75 Q51.85 47.8 52.0 48.2 52.7 50.7 52.55 53.45 L52.6 55.45 Q52.7 57.25 51.35 58.05 50.75 58.35 50.4 57.8 49.5 56.25 49.75 54.4 49.95 52.7 49.75 51.0 49.4 48.6 51.2 47.75 L51.4 47.75 M29.9 1.5 L29.45 1.4 Q27.65 2.3 27.7 4.75 27.8 10.4 28.3 16.0 28.35 17.0 29.35 16.75 30.6 16.45 30.45 15.05 30.15 11.65 30.1 8.15 L30.2 1.95 Q30.25 1.65 29.9 1.5 M77.75 55.2 L78.05 55.4 78.05 55.7 Q77.7 60.3 78.05 65.0 L78.0 65.05 77.8 65.25 77.2 65.15 77.15 64.85 Q76.7 60.05 77.2 55.4 L77.25 55.3 77.6 55.15 77.75 55.2 M-11.25 -1.35 L-16.4 -1.35 -16.4 -23.65 -16.4 -1.35 -11.25 -1.35 M-30.3 1.95 Q-30.15 4.95 -30.15 8.15 -30.2 11.65 -30.55 15.05 -30.65 16.45 -29.45 16.75 -28.45 17.0 -28.35 16.0 -27.9 10.4 -27.75 4.75 -27.7 2.3 -29.55 1.4 L-29.95 1.5 Q-30.3 1.65 -30.3 1.95 M-51.5 47.75 L-51.3 47.75 Q-49.5 48.6 -49.8 51.0 -50.05 52.7 -49.8 54.4 -49.55 56.25 -50.5 57.8 -50.85 58.35 -51.45 58.05 -52.8 57.25 -52.65 55.45 L-52.65 53.45 Q-52.75 50.7 -52.05 48.2 -51.95 47.8 -51.5 47.75 M-47.5 47.55 L-47.15 47.5 Q-45.45 48.35 -45.6 50.7 -45.85 53.75 -45.6 56.7 -45.5 58.0 -46.8 58.05 -47.95 58.1 -48.1 57.0 -48.6 52.35 -47.9 47.9 -47.85 47.65 -47.5 47.55 M-60.0 34.1 L-60.0 40.4 Q-71.75 47.55 -81.05 52.1 L-81.3 51.75 Q-70.0 43.25 -60.0 34.1 M-78.1 55.4 L-77.8 55.2 -77.65 55.15 -77.35 55.3 -77.25 55.4 Q-76.75 60.05 -77.2 64.85 L-77.3 65.15 -77.9 65.25 -78.1 65.05 -78.15 65.0 Q-77.75 60.3 -78.15 55.7 L-78.1 55.4 M-86.1 56.7 L-86.0 56.75 Q-85.75 60.15 -85.75 63.6 L-85.8 63.9 -86.4 64.0 -86.6 63.8 -86.65 63.75 -86.9 57.1 -86.85 56.8 -86.55 56.55 -86.4 56.5 -86.1 56.7 M-82.15 56.75 L-81.75 63.45 -81.85 63.7 -82.5 63.65 Q-83.4 60.15 -82.65 56.6 L-82.55 56.5 -82.2 56.7 -82.15 56.75" fill="#687070" fill-rule="evenodd" stroke="none"/>
    <path d="M3.15 -32.85 Q3.55 -32.8 3.6 -32.45 4.1 -30.3 4.1 -27.8 L4.2 -26.05 Q4.25 -24.45 2.8 -24.25 2.0 -24.15 2.0 -24.9 L1.55 -29.55 Q1.2 -31.95 2.95 -32.9 L3.15 -32.85 M27.95 79.65 L27.95 82.15 25.35 82.15 8.7 82.15 8.7 79.65 8.7 70.4 8.7 58.85 8.7 42.6 8.7 58.85 -8.8 58.85 -8.8 70.4 -8.8 79.65 -8.8 82.15 -25.4 82.15 -28.05 82.15 -28.05 79.65 -28.05 70.4 -28.05 60.35 -28.05 50.0 Q-14.6 46.3 -8.8 42.6 L-8.8 38.6 -8.8 18.35 -8.8 15.1 -10.85 12.1 -5.25 12.1 -5.25 14.95 5.2 14.95 5.2 12.1 10.8 12.1 8.7 15.1 8.7 18.35 8.7 38.6 8.7 42.6 Q14.55 46.3 27.95 50.0 L27.95 60.35 27.95 70.4 8.7 70.4 27.95 70.4 27.95 79.65 M1.6 20.1 L1.55 20.75 Q1.1 23.25 2.35 25.0 2.5 25.25 2.75 25.1 4.1 24.4 3.9 22.65 3.75 21.15 4.0 19.8 4.4 17.85 2.85 17.25 1.3 18.0 1.6 20.1 M2.45 44.15 Q3.4 45.45 4.1 44.0 L4.45 42.95 Q4.75 41.05 3.7 39.95 L3.35 39.75 Q1.6 40.55 1.95 42.9 2.05 43.6 2.45 44.15 M21.5 65.6 Q22.8 65.5 23.9 64.65 L24.35 63.8 Q24.8 60.15 24.75 56.4 L24.55 52.15 Q24.95 51.05 23.7 51.1 L16.6 50.95 Q14.2 50.55 12.15 51.55 L11.8 51.95 Q11.0 53.8 11.5 55.8 11.95 57.65 11.7 59.5 11.35 62.2 12.2 64.65 L12.65 65.1 13.05 65.15 14.75 65.1 Q14.25 65.5 14.5 66.45 14.55 66.8 14.95 66.95 16.05 67.25 16.65 66.45 L16.75 65.9 Q17.0 65.4 16.55 65.15 L19.6 65.35 Q19.3 65.6 19.35 66.2 19.35 66.95 20.05 67.1 20.95 67.4 21.5 66.85 21.8 66.55 21.7 66.15 L21.5 65.6 M23.6 53.75 L23.55 61.2 Q23.5 62.75 22.9 64.1 L22.65 64.25 19.05 64.4 13.4 64.05 13.05 64.0 Q12.75 63.35 12.75 62.6 L12.8 57.05 12.75 56.55 Q12.45 54.75 12.7 52.95 L12.85 52.35 14.2 52.05 14.3 52.05 16.65 52.05 23.4 52.35 23.45 52.35 23.6 53.75 M20.5 61.8 Q19.9 62.7 21.05 62.9 L21.5 62.6 21.65 55.8 Q21.65 55.15 21.05 55.05 20.2 55.55 20.4 56.7 L20.5 58.0 20.5 61.8 M22.4 73.4 Q21.25 73.45 21.2 74.75 L21.3 76.0 Q21.25 76.75 21.8 77.3 L22.1 77.3 22.1 77.9 22.25 78.35 Q22.7 79.2 23.25 78.35 L23.4 78.0 23.4 77.35 23.45 76.85 23.45 76.6 Q23.6 75.05 23.15 73.7 L22.9 73.5 22.9 73.55 22.65 73.4 22.4 73.4 M15.0 55.0 Q14.15 55.45 14.3 56.55 L14.45 58.25 14.45 62.5 14.65 62.65 Q15.6 62.7 15.6 61.6 L15.3 55.25 15.05 55.0 15.0 55.0 M4.0 55.85 Q4.05 53.5 3.3 51.45 3.15 51.0 2.75 51.0 1.15 51.85 1.55 54.05 L1.65 55.15 Q0.65 54.9 -0.05 55.35 L-1.7 55.15 -1.6 54.05 Q-1.2 51.85 -2.8 51.0 -3.25 51.0 -3.4 51.45 -4.15 53.5 -4.1 55.85 -4.05 56.7 -3.35 57.1 L-0.05 57.25 3.25 57.1 Q4.0 56.7 4.0 55.85 M14.2 73.55 L13.55 73.4 Q12.1 73.35 12.35 74.85 L12.35 76.55 Q12.15 77.9 13.45 78.1 13.2 79.3 14.3 78.85 L14.5 78.55 Q14.75 76.05 14.35 73.7 L14.2 73.55 M-3.25 -32.85 L-3.05 -32.9 Q-1.25 -31.95 -1.6 -29.55 L-2.05 -24.9 Q-2.1 -24.15 -2.9 -24.25 -4.35 -24.45 -4.25 -26.05 L-4.2 -27.8 Q-4.15 -30.3 -3.7 -32.45 L-3.25 -32.85 M-4.1 19.8 Q-3.8 21.15 -4.0 22.65 -4.2 24.4 -2.85 25.1 -2.55 25.25 -2.4 25.0 -1.15 23.25 -1.65 20.75 L-1.65 20.1 Q-1.35 18.0 -2.95 17.25 -4.45 17.85 -4.1 19.8 M-8.8 58.85 L-8.8 42.6 -8.8 58.85 M-3.45 39.75 L-3.75 39.95 Q-4.85 41.05 -4.5 42.95 L-4.2 44.0 Q-3.5 45.45 -2.55 44.15 L-2.0 42.9 Q-1.65 40.55 -3.45 39.75 M-15.05 55.0 L-15.15 55.0 -15.4 55.25 -15.7 61.6 Q-15.7 62.7 -14.7 62.65 L-14.55 62.5 -14.5 58.25 -14.4 56.55 Q-14.25 55.45 -15.05 55.0 M-14.8 65.1 L-13.15 65.15 -12.7 65.1 -12.25 64.65 Q-11.4 62.2 -11.8 59.5 -12.05 57.65 -11.6 55.8 -11.1 53.8 -11.85 51.95 L-12.2 51.55 Q-14.25 50.55 -16.7 50.95 L-23.8 51.1 Q-25.05 51.05 -24.65 52.15 L-24.8 56.4 Q-24.9 60.15 -24.4 63.8 L-23.95 64.65 Q-22.9 65.5 -21.55 65.6 L-21.8 66.15 -21.6 66.85 Q-21.0 67.4 -20.1 67.1 -19.45 66.95 -19.4 66.2 -19.4 65.6 -19.7 65.35 L-16.6 65.15 Q-17.05 65.4 -16.85 65.9 L-16.7 66.45 Q-16.1 67.25 -15.0 66.95 L-14.55 66.45 Q-14.35 65.5 -14.8 65.1 M-12.95 52.35 L-12.75 52.95 Q-12.55 54.75 -12.85 56.55 L-12.9 57.05 -12.8 62.6 Q-12.8 63.35 -13.15 64.0 L-13.45 64.05 -19.1 64.4 -22.75 64.25 -23.0 64.1 Q-23.55 62.75 -23.6 61.2 L-23.7 53.75 -23.5 52.35 -16.75 52.05 -14.4 52.05 -14.25 52.05 -12.95 52.35 M-14.3 73.55 L-14.45 73.7 Q-14.85 76.05 -14.55 78.55 L-14.35 78.85 Q-13.25 79.3 -13.5 78.1 -12.2 77.9 -12.4 76.55 L-12.4 74.85 Q-12.2 73.35 -13.6 73.4 L-14.3 73.55 M-20.55 61.8 L-20.55 58.0 -20.45 56.7 Q-20.3 55.55 -21.1 55.05 -21.75 55.15 -21.7 55.8 L-21.55 62.6 Q-21.55 63.0 -21.15 62.9 -19.95 62.7 -20.55 61.8 M-22.7 73.4 Q-22.85 73.4 -22.95 73.55 L-23.0 73.5 -23.25 73.7 Q-23.65 75.05 -23.55 76.6 L-23.5 76.85 -23.5 77.35 -23.45 78.0 -23.3 78.35 Q-22.75 79.2 -22.35 78.35 L-22.2 77.9 -22.2 77.3 -22.15 77.3 -21.9 77.3 Q-21.35 76.75 -21.4 76.0 L-21.3 74.75 Q-21.3 73.45 -22.5 73.4 L-22.7 73.4 M-28.05 70.4 L-8.8 70.4 -28.05 70.4" fill="#b8d0d8" fill-rule="evenodd" stroke="none"/>
    <path d="M4.9 -21.15 Q5.3 -18.1 6.1 -15.05 6.75 -12.6 4.3 -13.2 2.45 -13.65 2.45 -15.4 L2.25 -18.65 Q1.9 -21.3 4.1 -21.85 4.8 -21.85 4.9 -21.15 M27.95 45.85 L27.95 50.0 Q14.55 46.3 8.7 42.6 L8.7 38.6 Q17.05 43.25 27.95 45.85 M15.0 35.75 L11.25 35.75 11.25 20.75 15.0 20.75 15.0 35.75 M23.45 41.2 L23.2 40.65 Q22.95 39.45 23.8 38.95 24.65 39.4 24.5 40.6 L24.3 41.2 Q23.85 41.9 23.45 41.2 M21.85 38.95 L22.1 39.05 Q22.6 39.7 22.5 40.65 L22.2 41.2 Q21.4 41.95 21.25 40.9 L21.2 40.65 Q21.05 39.4 21.85 38.95 M20.5 61.8 L20.5 58.0 20.4 56.7 Q20.2 55.55 21.05 55.05 21.65 55.15 21.65 55.8 L21.5 62.6 21.05 62.9 Q19.9 62.7 20.5 61.8 M31.4 72.45 L31.55 74.15 Q31.65 75.05 30.9 75.2 L30.55 75.0 30.1 72.5 Q29.9 71.3 30.75 70.85 31.05 70.8 31.15 71.15 L31.4 72.45 M33.35 72.3 L33.3 73.8 Q33.45 74.75 32.75 75.15 L32.45 75.1 Q31.95 74.2 32.1 73.0 L32.1 72.55 Q31.95 71.35 32.75 70.9 33.55 71.25 33.35 72.3 M15.0 55.0 L15.05 55.0 15.3 55.25 15.6 61.6 Q15.6 62.7 14.65 62.65 L14.45 62.5 14.45 58.25 14.3 56.55 Q14.15 55.45 15.0 55.0 M73.45 60.85 Q72.5 65.4 67.7 65.1 L62.45 65.1 62.45 60.85 73.45 60.85 M62.45 53.85 L62.45 48.85 Q69.95 48.85 73.45 53.85 L62.45 53.85 M70.2 68.85 L70.05 68.8 69.75 68.4 69.85 68.25 Q71.2 67.5 72.1 66.3 L72.25 66.25 72.45 66.15 72.6 66.2 72.9 66.45 72.9 66.55 Q72.4 68.4 70.2 68.85 M63.2 71.95 L63.1 71.7 63.15 71.65 66.2 69.65 66.6 69.9 66.65 70.45 Q65.4 72.1 63.35 72.15 L63.2 71.95 M55.05 63.5 L55.05 63.8 Q54.55 69.6 54.7 75.45 54.35 75.75 54.0 75.45 L53.9 75.15 Q53.4 69.2 54.25 63.4 L54.4 63.35 54.6 63.25 54.6 63.3 55.05 63.5 M45.1 73.55 Q45.15 73.1 45.5 72.95 47.5 72.05 49.95 72.4 50.75 72.4 51.1 73.2 51.35 73.75 50.9 74.15 49.05 75.65 46.35 75.1 45.05 74.8 45.1 73.55 M-2.35 -18.65 L-2.55 -15.4 Q-2.5 -13.65 -4.35 -13.2 -6.85 -12.6 -6.2 -15.05 -5.4 -18.1 -4.95 -21.15 -4.85 -21.85 -4.15 -21.85 -1.95 -21.3 -2.35 -18.65 M-15.05 20.75 L-11.3 20.75 -11.3 35.75 -15.05 35.75 -15.05 20.75 M-8.8 38.6 L-8.8 42.6 Q-14.6 46.3 -28.05 50.0 L-28.05 45.85 Q-17.15 43.25 -8.8 38.6 M-21.95 38.95 Q-21.15 39.4 -21.3 40.65 L-21.35 40.9 Q-21.45 41.95 -22.25 41.2 L-22.55 40.65 Q-22.65 39.7 -22.15 39.05 L-21.95 38.95 M-24.55 40.6 Q-24.7 39.4 -23.85 38.95 -23.0 39.45 -23.3 40.65 L-23.5 41.2 Q-23.9 41.9 -24.35 41.2 L-24.55 40.6 M-54.45 63.35 L-54.3 63.4 Q-53.5 69.2 -53.95 75.15 L-54.05 75.45 Q-54.4 75.75 -54.75 75.45 -54.65 69.6 -55.15 63.8 L-55.1 63.5 -54.65 63.3 -54.65 63.25 -54.45 63.35 M-51.2 73.2 Q-50.85 72.4 -50.05 72.4 -47.6 72.05 -45.6 72.95 -45.2 73.1 -45.2 73.55 -45.15 74.8 -46.4 75.1 -49.1 75.65 -50.95 74.15 -51.45 73.75 -51.2 73.2 M-62.55 53.85 L-73.55 53.85 Q-70.05 48.85 -62.55 48.85 L-62.55 53.85 M-73.55 60.85 L-62.55 60.85 -62.55 65.1 -67.8 65.1 Q-72.6 65.4 -73.55 60.85 M-73.0 66.45 L-72.7 66.2 -72.55 66.15 -72.35 66.25 -72.2 66.3 Q-71.3 67.5 -69.9 68.25 L-69.8 68.4 -70.15 68.8 -70.3 68.85 Q-72.5 68.4 -73.0 66.55 L-73.0 66.45 M-66.65 69.9 L-66.3 69.65 -63.25 71.65 -63.2 71.7 -63.3 71.95 -63.45 72.15 Q-65.45 72.1 -66.75 70.45 L-66.65 69.9 M-15.05 55.0 Q-14.25 55.45 -14.4 56.55 L-14.5 58.25 -14.55 62.5 -14.7 62.65 Q-15.7 62.7 -15.7 61.6 L-15.4 55.25 -15.15 55.0 -15.05 55.0 M-20.55 61.8 Q-19.95 62.7 -21.15 62.9 -21.55 63.0 -21.55 62.6 L-21.7 55.8 Q-21.75 55.15 -21.1 55.05 -20.3 55.55 -20.45 56.7 L-20.55 58.0 -20.55 61.8 M-33.45 72.3 Q-33.6 71.25 -32.8 70.9 -32.0 71.35 -32.15 72.55 L-32.15 73.0 Q-32.0 74.2 -32.55 75.1 L-32.8 75.15 Q-33.5 74.75 -33.4 73.8 L-33.45 72.3 M-31.45 72.45 L-31.2 71.15 -30.8 70.85 Q-30.0 71.3 -30.2 72.5 L-30.65 75.0 Q-30.7 75.3 -30.95 75.2 -31.75 75.05 -31.65 74.15 L-31.45 72.45" fill="#989898" fill-rule="evenodd" stroke="none"/>
    <path d="M68.05 100.65 Q68.35 101.95 68.25 103.5 L40.5 103.5 41.0 100.65 68.05 100.65 M43.45 80.85 Q33.3 82.45 25.35 87.15 L25.35 82.15 27.95 82.15 27.95 79.65 Q35.2 76.15 43.45 75.65 L43.45 80.85 M-25.4 87.15 Q-33.4 82.45 -43.55 80.85 L-43.55 75.65 Q-35.3 76.15 -28.05 79.65 L-28.05 82.15 -25.4 82.15 -25.4 87.15 M-41.1 100.65 L-40.6 103.5 -68.3 103.5 Q-68.45 101.95 -68.15 100.65 L-41.1 100.65 M29.9 1.5 Q30.25 1.65 30.2 1.95 L30.1 8.15 Q30.15 11.65 30.45 15.05 30.6 16.45 29.35 16.75 28.35 17.0 28.3 16.0 27.8 10.4 27.7 4.75 27.65 2.3 29.45 1.4 L29.9 1.5 M15.0 20.75 L18.75 20.75 18.75 35.75 15.0 35.75 15.0 20.75 M-18.8 20.75 L-15.05 20.75 -15.05 35.75 -18.8 35.75 -18.8 20.75 M-30.3 1.95 Q-30.3 1.65 -29.95 1.5 L-29.55 1.4 Q-27.7 2.3 -27.75 4.75 -27.9 10.4 -28.35 16.0 -28.45 17.0 -29.45 16.75 -30.65 16.45 -30.55 15.05 -30.2 11.65 -30.15 8.15 -30.15 4.95 -30.3 1.95" fill="#101010" fill-rule="evenodd" stroke="none"/>
    <path d="M81.0 52.1 L83.05 53.1 Q102.5 63.0 86.5 65.7 69.65 68.55 63.45 77.4 L59.95 78.0 59.95 40.4 Q71.65 47.55 81.0 52.1 M43.45 75.65 Q35.2 76.15 27.95 79.65 L27.95 70.4 27.95 60.35 43.45 60.35 43.45 75.65 M85.95 56.75 Q85.65 60.15 85.65 63.6 L85.7 63.9 86.3 64.0 86.5 63.8 86.55 63.75 86.8 57.1 86.8 56.8 86.5 56.55 86.35 56.5 86.0 56.7 85.95 56.75 M82.05 56.75 L81.7 63.45 81.8 63.7 82.45 63.65 Q83.3 60.15 82.55 56.6 L82.45 56.5 82.15 56.7 82.05 56.75 M23.35 18.35 L27.95 42.85 27.95 45.85 Q17.05 43.25 8.7 38.6 L8.7 18.35 23.35 18.35 M18.75 20.75 L15.0 20.75 11.25 20.75 11.25 35.75 15.0 35.75 18.75 35.75 22.35 35.75 19.85 20.75 18.75 20.75 M21.85 38.95 Q21.05 39.4 21.2 40.65 L21.25 40.9 Q21.4 41.95 22.2 41.2 L22.5 40.65 Q22.6 39.7 22.1 39.05 L21.85 38.95 M23.45 41.2 Q23.85 41.9 24.3 41.2 L24.5 40.6 Q24.65 39.4 23.8 38.95 22.95 39.45 23.2 40.65 L23.45 41.2 M33.35 72.3 Q33.55 71.25 32.75 70.9 31.95 71.35 32.1 72.55 L32.1 73.0 Q31.95 74.2 32.45 75.1 L32.75 75.15 Q33.45 74.75 33.3 73.8 L33.35 72.3 M31.4 72.45 L31.15 71.15 Q31.05 70.8 30.75 70.85 29.9 71.3 30.1 72.5 L30.55 75.0 30.9 75.2 Q31.65 75.05 31.55 74.15 L31.4 72.45 M8.7 58.85 L8.7 70.4 8.7 79.65 -8.8 79.65 -8.8 70.4 -8.8 58.85 8.7 58.85 M77.75 55.2 L77.6 55.15 77.25 55.3 77.2 55.4 Q76.7 60.05 77.15 64.85 L77.2 65.15 77.8 65.25 78.0 65.05 78.05 65.0 Q77.7 60.3 78.05 55.7 L78.05 55.4 77.75 55.2 M73.45 60.85 L73.45 53.85 Q69.95 48.85 62.45 48.85 L62.45 53.85 62.45 60.85 62.45 65.1 67.7 65.1 Q72.5 65.4 73.45 60.85 M63.2 71.95 L63.35 72.15 Q65.4 72.1 66.65 70.45 L66.6 69.9 66.2 69.65 63.15 71.65 63.1 71.7 63.2 71.95 M70.2 68.85 Q72.4 68.4 72.9 66.55 L72.9 66.45 72.6 66.2 72.45 66.15 72.25 66.25 72.1 66.3 Q71.2 67.5 69.85 68.25 L69.75 68.4 70.05 68.8 70.2 68.85 M-15.05 20.75 L-18.8 20.75 -19.95 20.75 -22.45 35.75 -18.8 35.75 -15.05 35.75 -11.3 35.75 -11.3 20.75 -15.05 20.75 M-23.4 18.35 L-8.8 18.35 -8.8 38.6 Q-17.15 43.25 -28.05 45.85 L-28.05 42.85 -23.4 18.35 M-24.55 40.6 L-24.35 41.2 Q-23.9 41.9 -23.5 41.2 L-23.3 40.65 Q-23.0 39.45 -23.85 38.95 -24.7 39.4 -24.55 40.6 M-21.95 38.95 L-22.15 39.05 Q-22.65 39.7 -22.55 40.65 L-22.25 41.2 Q-21.45 41.95 -21.35 40.9 L-21.3 40.65 Q-21.15 39.4 -21.95 38.95 M-43.55 60.35 L-28.05 60.35 -28.05 70.4 -28.05 79.65 Q-35.3 76.15 -43.55 75.65 L-43.55 60.35 M-62.55 60.85 L-62.55 53.85 -62.55 48.85 Q-70.05 48.85 -73.55 53.85 L-73.55 60.85 Q-72.6 65.4 -67.8 65.1 L-62.55 65.1 -62.55 60.85 M-78.1 55.4 L-78.15 55.7 Q-77.75 60.3 -78.15 65.0 L-78.1 65.05 -77.9 65.25 -77.3 65.15 -77.2 64.85 Q-76.75 60.05 -77.25 55.4 L-77.35 55.3 -77.65 55.15 -77.8 55.2 -78.1 55.4 M-66.65 69.9 L-66.75 70.45 Q-65.45 72.1 -63.45 72.15 L-63.3 71.95 -63.2 71.7 -63.25 71.65 -66.3 69.65 -66.65 69.9 M-73.0 66.45 L-73.0 66.55 Q-72.5 68.4 -70.3 68.85 L-70.15 68.8 -69.8 68.4 -69.9 68.25 Q-71.3 67.5 -72.2 66.3 L-72.35 66.25 -72.55 66.15 -72.7 66.2 -73.0 66.45 M-60.0 78.0 L-63.55 77.4 Q-69.75 68.55 -86.55 65.7 -102.6 63.0 -83.1 53.1 L-81.05 52.1 Q-71.75 47.55 -60.0 40.4 L-60.0 78.0 M-31.45 72.45 L-31.65 74.15 Q-31.75 75.05 -30.95 75.2 -30.7 75.3 -30.65 75.0 L-30.2 72.5 Q-30.0 71.3 -30.8 70.85 L-31.2 71.15 -31.45 72.45 M-33.45 72.3 L-33.4 73.8 Q-33.5 74.75 -32.8 75.15 L-32.55 75.1 Q-32.0 74.2 -32.15 73.0 L-32.15 72.55 Q-32.0 71.35 -32.8 70.9 -33.6 71.25 -33.45 72.3 M-82.15 56.75 L-82.2 56.7 -82.55 56.5 -82.65 56.6 Q-83.4 60.15 -82.5 63.65 L-81.85 63.7 -81.75 63.45 -82.15 56.75 M-86.1 56.7 L-86.4 56.5 -86.55 56.55 -86.85 56.8 -86.9 57.1 -86.65 63.75 -86.6 63.8 -86.4 64.0 -85.8 63.9 -85.75 63.6 Q-85.75 60.15 -86.0 56.75 L-86.1 56.7" fill="#b0c0d0" fill-rule="evenodd" stroke="none"/>
    <path d="M1.6 20.1 Q1.3 18.0 2.85 17.25 4.4 17.85 4.0 19.8 3.75 21.15 3.9 22.65 4.1 24.4 2.75 25.1 2.5 25.25 2.35 25.0 1.1 23.25 1.55 20.75 L1.6 20.1 M-4.1 19.8 Q-4.45 17.85 -2.95 17.25 -1.35 18.0 -1.65 20.1 L-1.65 20.75 Q-1.15 23.25 -2.4 25.0 -2.55 25.25 -2.85 25.1 -4.2 24.4 -4.0 22.65 -3.8 21.15 -4.1 19.8" fill="#98a880" fill-rule="evenodd" stroke="none"/>
    <path d="M4.0 55.85 Q4.0 56.7 3.25 57.1 L-0.05 57.25 -3.35 57.1 Q-4.05 56.7 -4.1 55.85 -4.15 53.5 -3.4 51.45 -3.25 51.0 -2.8 51.0 -1.2 51.85 -1.6 54.05 L-1.7 55.15 -0.05 55.35 Q0.65 54.9 1.65 55.15 L1.55 54.05 Q1.15 51.85 2.75 51.0 3.15 51.0 3.3 51.45 4.05 53.5 4.0 55.85 M73.45 53.85 L73.45 60.85 62.45 60.85 62.45 53.85 73.45 53.85 M-62.55 53.85 L-62.55 60.85 -73.55 60.85 -73.55 53.85 -62.55 53.85" fill="#283040" fill-rule="evenodd" stroke="none"/>
    <path d="M2.45 44.15 Q2.05 43.6 1.95 42.9 1.6 40.55 3.35 39.75 L3.7 39.95 Q4.75 41.05 4.45 42.95 L4.1 44.0 Q3.4 45.45 2.45 44.15 M36.2 48.5 Q37.0 48.6 37.55 49.35 37.95 49.85 37.5 50.2 36.55 51.05 35.2 50.95 L33.75 50.55 Q32.7 50.1 33.35 49.2 34.3 47.85 36.2 48.5 M33.25 45.85 Q32.85 43.85 35.0 43.95 L35.85 44.0 Q37.35 43.9 38.05 45.05 38.5 45.75 37.75 46.1 36.0 46.95 33.95 46.55 33.35 46.4 33.25 45.85 M37.85 40.75 L37.8 40.95 Q38.05 41.95 37.2 42.45 36.25 43.0 35.1 43.0 L34.3 42.9 Q33.5 42.75 33.5 42.0 33.3 38.65 36.85 39.25 38.15 39.45 37.85 40.75 M36.2 52.25 L36.4 52.3 Q36.9 52.35 37.2 52.7 38.8 54.25 36.35 54.55 L35.95 54.6 Q34.25 55.0 33.05 54.0 32.65 53.65 32.95 53.2 33.65 52.0 35.15 52.1 L36.2 52.25 M14.75 65.1 Q15.05 64.8 15.8 64.85 L16.55 65.15 Q17.0 65.4 16.75 65.9 L16.65 66.45 Q16.05 67.25 14.95 66.95 14.55 66.8 14.5 66.45 14.25 65.5 14.75 65.1 M19.6 65.35 L20.6 65.25 Q21.2 65.2 21.5 65.6 L21.7 66.15 Q21.8 66.55 21.5 66.85 20.95 67.4 20.05 67.1 19.35 66.95 19.35 66.2 19.3 65.6 19.6 65.35 M-34.4 42.9 L-35.15 43.0 Q-36.35 43.0 -37.3 42.45 -38.1 41.95 -37.85 40.95 L-37.9 40.75 Q-38.2 39.45 -36.9 39.25 -33.4 38.65 -33.55 42.0 -33.6 42.75 -34.4 42.9 M-38.15 45.05 Q-37.4 43.9 -35.9 44.0 L-35.05 43.95 Q-32.95 43.85 -33.3 45.85 -33.4 46.4 -34.0 46.55 -36.05 46.95 -37.85 46.1 -38.55 45.75 -38.15 45.05 M-36.3 48.5 Q-34.35 47.85 -33.4 49.2 -32.75 50.1 -33.85 50.55 L-35.3 50.95 Q-36.6 51.05 -37.6 50.2 -38.05 49.85 -37.65 49.35 -37.1 48.6 -36.3 48.5 M-3.45 39.75 Q-1.65 40.55 -2.0 42.9 L-2.55 44.15 Q-3.5 45.45 -4.2 44.0 L-4.5 42.95 Q-4.85 41.05 -3.75 39.95 L-3.45 39.75 M-14.8 65.1 Q-14.35 65.5 -14.55 66.45 L-15.0 66.95 Q-16.1 67.25 -16.7 66.45 L-16.85 65.9 Q-17.05 65.4 -16.6 65.15 L-15.85 64.85 Q-15.15 64.8 -14.8 65.1 M-19.7 65.35 Q-19.4 65.6 -19.4 66.2 -19.45 66.95 -20.1 67.1 -21.0 67.4 -21.6 66.85 L-21.8 66.15 -21.55 65.6 Q-21.3 65.2 -20.7 65.25 L-19.7 65.35 M-33.15 54.0 Q-34.3 55.0 -36.0 54.6 L-36.4 54.55 Q-38.9 54.25 -37.25 52.7 -36.95 52.35 -36.5 52.3 L-36.3 52.25 -35.2 52.1 Q-33.75 52.0 -33.0 53.2 -32.75 53.65 -33.15 54.0" fill="#586870" fill-rule="evenodd" stroke="none"/>
    <path d="M25.35 87.15 L23.1 87.15 23.1 85.65 20.7 85.65 7.85 85.65 -7.9 85.65 -20.8 85.65 -23.15 85.65 -23.15 87.15 -25.4 87.15 -25.4 82.15 -8.8 82.15 -8.8 79.65 8.7 79.65 8.7 82.15 25.35 82.15 25.35 87.15" fill="#708068" fill-rule="evenodd" stroke="none"/>
    <path d="M20.7 85.65 L20.7 89.75 7.85 89.75 -7.9 89.75 -20.8 89.75 -20.8 85.65 -7.9 85.65 7.85 85.65 7.85 89.75 7.85 85.65 20.7 85.65 M-7.9 89.75 L-7.9 85.65 -7.9 89.75" fill="#a8bcac" fill-rule="evenodd" stroke="none"/>
    <path d="M22.7 15.1 L23.35 18.35 8.7 18.35 8.7 15.1 22.7 15.1 M-22.8 15.1 L-8.8 15.1 -8.8 18.35 -23.4 18.35 -22.8 15.1" fill="#9ca4a8" fill-rule="evenodd" stroke="none"/>
    <path d="M24.55 -27.7 Q22.8 -37.0 22.25 -46.65 33.75 -25.9 40.45 -2.2 42.65 5.75 44.35 14.0 36.65 6.4 33.3 0.6 32.2 -1.3 31.55 -3.0 28.3 -11.45 26.15 -20.25 L24.55 -27.7" fill="url(#gradient0)" fill-rule="evenodd" stroke="none"/>
    <path d="M5.25 -5.7 Q7.45 -3.5 7.45 -0.4 7.45 2.7 5.25 4.9 3.2 6.95 0.4 7.1 L-0.05 7.1 -0.45 7.1 Q-3.3 6.95 -5.35 4.9 -7.55 2.7 -7.55 -0.4 -7.55 -3.5 -5.35 -5.7 -3.3 -7.75 -0.45 -7.85 L-0.05 -7.9 0.4 -7.85 Q3.2 -7.75 5.25 -5.7" fill="url(#gradient1)" fill-rule="evenodd" stroke="none"/>
    <path d="M63.2 30.25 Q75.3 39.7 91.9 50.95 105.1 59.9 97.8 66.25 90.5 72.55 81.05 71.65 71.55 70.75 68.45 81.4 L45.0 87.0 43.45 87.4 43.45 80.85 59.95 78.0 63.45 77.4 Q69.65 68.55 86.5 65.7 102.5 63.0 83.05 53.1 L81.25 51.75 Q69.9 43.25 59.95 34.1 L59.95 27.7 63.2 30.25" fill="url(#gradient2)" fill-rule="evenodd" stroke="none"/>
    <path d="M40.45 -2.2 Q58.15 13.05 63.2 30.25 L59.95 27.7 Q52.7 21.85 47.25 16.8 L44.35 14.0 Q42.65 5.75 40.45 -2.2" fill="url(#gradient3)" fill-rule="evenodd" stroke="none"/>
    <path d="M59.95 34.1 L59.95 40.4 47.25 32.25 47.25 21.65 59.95 34.1" fill="url(#gradient4)" fill-rule="evenodd" stroke="none"/>
    <path d="M43.45 29.7 L43.45 60.35 27.95 60.35 27.95 50.0 27.95 45.85 27.95 42.85 23.35 18.35 22.7 15.1 33.3 22.7 43.45 29.7 M37.85 40.75 Q38.15 39.45 36.85 39.25 33.3 38.65 33.5 42.0 33.5 42.75 34.3 42.9 L35.1 43.0 Q36.25 43.0 37.2 42.45 38.05 41.95 37.8 40.95 L37.85 40.75 M33.25 45.85 Q33.35 46.4 33.95 46.55 36.0 46.95 37.75 46.1 38.5 45.75 38.05 45.05 37.35 43.9 35.85 44.0 L35.0 43.95 Q32.85 43.85 33.25 45.85 M36.2 48.5 Q34.3 47.85 33.35 49.2 32.7 50.1 33.75 50.55 L35.2 50.95 Q36.55 51.05 37.5 50.2 37.95 49.85 37.55 49.35 37.0 48.6 36.2 48.5 M36.2 52.25 L35.15 52.1 Q33.65 52.0 32.95 53.2 32.65 53.65 33.05 54.0 34.25 55.0 35.95 54.6 L36.35 54.55 Q38.8 54.25 37.2 52.7 36.9 52.35 36.4 52.3 L36.2 52.25" fill="url(#gradient5)" fill-rule="evenodd" stroke="none"/>
    <path d="M68.55 93.85 L66.7 97.9 42.05 97.9 Q43.15 95.95 44.95 95.5 L44.25 93.85 68.55 93.85" fill="url(#gradient6)" fill-rule="evenodd" stroke="none"/>
    <path d="M68.45 81.4 Q70.7 87.55 68.55 93.85 L44.25 93.85 Q43.3 90.7 45.0 87.0 L68.45 81.4" fill="url(#gradient7)" fill-rule="evenodd" stroke="none"/>
    <path d="M66.7 97.9 Q67.7 99.05 68.05 100.65 L41.0 100.65 Q41.4 99.0 42.05 97.9 L66.7 97.9" fill="url(#gradient8)" fill-rule="evenodd" stroke="none"/>
    <path d="M68.25 103.5 L67.85 105.75 40.35 105.75 40.5 103.5 68.25 103.5" fill="url(#gradient9)" fill-rule="evenodd" stroke="none"/>
    <path d="M-40.5 -2.2 Q-33.85 -25.9 -22.3 -46.65 -22.9 -37.0 -24.65 -27.7 L-26.25 -20.25 Q-28.4 -11.45 -31.6 -3.0 -32.3 -1.3 -33.35 0.6 -36.75 6.4 -44.4 14.0 -42.75 5.75 -40.5 -2.2" fill="url(#gradient10)" fill-rule="evenodd" stroke="none"/>
    <path d="M-22.8 15.1 L-23.4 18.35 -28.05 42.85 -28.05 45.85 -28.05 50.0 -28.05 60.35 -43.55 60.35 -43.55 29.7 -33.35 22.7 -22.8 15.1 M-36.3 48.5 Q-37.1 48.6 -37.65 49.35 -38.05 49.85 -37.6 50.2 -36.6 51.05 -35.3 50.95 L-33.85 50.55 Q-32.75 50.1 -33.4 49.2 -34.35 47.85 -36.3 48.5 M-38.15 45.05 Q-38.55 45.75 -37.85 46.1 -36.05 46.95 -34.0 46.55 -33.4 46.4 -33.3 45.85 -32.95 43.85 -35.05 43.95 L-35.9 44.0 Q-37.4 43.9 -38.15 45.05 M-34.4 42.9 Q-33.6 42.75 -33.55 42.0 -33.4 38.65 -36.9 39.25 -38.2 39.45 -37.9 40.75 L-37.85 40.95 Q-38.1 41.95 -37.3 42.45 -36.35 43.0 -35.15 43.0 L-34.4 42.9 M-33.15 54.0 Q-32.75 53.65 -33.0 53.2 -33.75 52.0 -35.2 52.1 L-36.3 52.25 -36.5 52.3 Q-36.95 52.35 -37.25 52.7 -38.9 54.25 -36.4 54.55 L-36.0 54.6 Q-34.3 55.0 -33.15 54.0" fill="url(#gradient11)" fill-rule="evenodd" stroke="none"/>
    <path d="M-63.25 30.25 Q-58.25 13.05 -40.5 -2.2 -42.75 5.75 -44.4 14.0 L-47.3 16.8 Q-52.8 21.85 -60.0 27.7 L-63.25 30.25" fill="url(#gradient12)" fill-rule="evenodd" stroke="none"/>
    <path d="M-43.55 80.85 L-43.55 87.4 -45.1 87.0 -68.55 81.4 Q-71.65 70.75 -81.1 71.65 -90.55 72.55 -97.85 66.25 -105.2 59.9 -92.0 50.95 -75.4 39.7 -63.25 30.25 L-60.0 27.7 -60.0 34.1 Q-70.0 43.25 -81.3 51.75 L-83.1 53.1 Q-102.6 63.0 -86.55 65.7 -69.75 68.55 -63.55 77.4 L-60.0 78.0 -43.55 80.85" fill="url(#gradient13)" fill-rule="evenodd" stroke="none"/>
    <path d="M-47.3 21.65 L-47.3 32.25 -60.0 40.4 -60.0 34.1 Q-53.35 28.0 -47.3 21.65" fill="url(#gradient14)" fill-rule="evenodd" stroke="none"/>
    <path d="M-45.1 87.0 Q-43.4 90.7 -44.3 93.85 L-68.6 93.85 Q-70.8 87.55 -68.55 81.4 L-45.1 87.0" fill="url(#gradient15)" fill-rule="evenodd" stroke="none"/>
    <path d="M-44.3 93.85 L-45.05 95.5 Q-43.25 95.95 -42.15 97.9 L-66.8 97.9 -68.6 93.85 -44.3 93.85" fill="url(#gradient16)" fill-rule="evenodd" stroke="none"/>
    <path d="M-42.15 97.9 Q-41.5 99.0 -41.1 100.65 L-68.15 100.65 Q-67.8 99.05 -66.8 97.9 L-42.15 97.9" fill="url(#gradient17)" fill-rule="evenodd" stroke="none"/>
    <path d="M-40.6 103.5 L-40.4 105.75 -67.9 105.75 -68.3 103.5 -40.6 103.5" fill="url(#gradient18)" fill-rule="evenodd" stroke="none"/>
    <path d="M22.25 -46.65 Q17.3 -55.55 11.7 -64.05 L9.35 -67.55 Q11.5 -43.65 20.7 -27.65 L24.55 -27.7 Q22.8 -37.0 22.25 -46.65 33.75 -25.9 40.45 -2.2 58.15 13.05 63.2 30.25 75.3 39.7 91.9 50.95 105.1 59.9 97.8 66.25 90.5 72.55 81.05 71.65 71.55 70.75 68.45 81.4 L45.0 87.0 43.45 87.4 43.45 80.85 Q33.3 82.45 25.35 87.15 L23.1 87.15 23.1 85.65 20.7 85.65 20.7 89.75 7.85 89.75 -7.9 89.75 -20.8 89.75 -20.8 85.65 -23.15 85.65 -23.15 87.15 -25.4 87.15 Q-33.4 82.45 -43.55 80.85 L-43.55 87.4 -45.1 87.0 -68.55 81.4 Q-71.65 70.75 -81.1 71.65 -90.55 72.55 -97.85 66.25 -105.2 59.9 -92.0 50.95 -75.4 39.7 -63.25 30.25 -58.25 13.05 -40.5 -2.2 -33.85 -25.9 -22.3 -46.65 -17.4 -55.55 -11.6 -64.05 -7.05 -71.1 -2.55 -72.7 L-2.45 -72.75 -2.45 -72.8 M-2.4 -72.75 Q0.05 -73.65 2.6 -72.75 L2.75 -72.75 M3.05 -72.6 L5.75 -71.1 Q7.65 -69.75 9.35 -67.55 M2.6 -72.75 L3.05 -72.6 M5.75 -71.1 Q8.0 -42.45 16.35 -23.65 L18.2 -20.15 26.15 -20.25 24.55 -27.7 M5.25 -5.7 Q7.45 -3.5 7.45 -0.4 7.45 2.7 5.25 4.9 3.2 6.95 0.4 7.1 L-0.05 7.1 -0.45 7.1 Q-3.3 6.95 -5.35 4.9 -7.55 2.7 -7.55 -0.4 -7.55 -3.5 -5.35 -5.7 -3.3 -7.75 -0.45 -7.85 L-0.05 -7.9 0.4 -7.85 Q3.2 -7.75 5.25 -5.7 M10.25 -5.05 Q9.45 -6.85 7.95 -8.35 4.75 -11.5 0.4 -11.65 L0.15 -11.65 -0.2 -11.65 -0.45 -11.65 Q-4.85 -11.5 -8.0 -8.35 -9.5 -6.85 -10.3 -5.05 L-10.35 -4.9 Q-11.1 -3.25 -11.25 -1.35 L-11.3 -0.4 Q-11.3 1.45 -10.75 3.15 -10.0 5.6 -8.0 7.55 -4.85 10.7 -0.45 10.85 L-0.2 10.85 0.15 10.85 0.4 10.85 Q4.75 10.7 7.95 7.55 9.9 5.6 10.7 3.15 11.2 1.45 11.25 -0.4 L11.2 -1.35 Q11.05 -3.25 10.3 -4.9 L10.25 -5.05 Q3.6 -34.1 2.6 -72.75 M-2.4 -72.75 L-2.45 -72.75 Q-3.7 -34.1 -10.3 -5.05 M11.2 -1.35 L16.35 -1.35 16.35 -23.65 M26.15 -20.25 Q28.3 -11.45 31.55 -3.0 32.2 -1.3 33.3 0.6 36.65 6.4 44.35 14.0 42.65 5.75 40.45 -2.2 M83.05 53.1 L81.25 51.75 Q69.9 43.25 59.95 34.1 L59.95 27.7 63.2 30.25 M81.0 52.1 L83.05 53.1 Q102.5 63.0 86.5 65.7 69.65 68.55 63.45 77.4 L59.95 78.0 43.45 80.85 43.45 75.65 Q35.2 76.15 27.95 79.65 L27.95 82.15 25.35 82.15 25.35 87.15 M47.25 16.8 L44.35 14.0 M47.25 21.65 L47.25 16.8 Q52.7 21.85 59.95 27.7 M47.25 32.25 L43.45 29.7 43.45 60.35 43.45 75.65 M59.95 40.4 L59.95 34.1 47.25 21.65 47.25 32.25 59.95 40.4 Q71.65 47.55 81.0 52.1 M22.7 15.1 L23.35 18.35 27.95 42.85 27.95 45.85 27.95 50.0 27.95 60.35 43.45 60.35 M17.95 11.1 L20.45 11.1 22.7 15.1 33.3 22.7 43.45 29.7 M10.8 12.1 L11.45 11.1 17.95 11.1 Q13.3 7.85 10.7 3.15 M8.7 15.1 L8.7 18.35 23.35 18.35 M15.0 20.75 L18.75 20.75 19.85 20.75 22.35 35.75 18.75 35.75 15.0 35.75 11.25 35.75 11.25 20.75 15.0 20.75 M-10.85 12.1 L-5.25 12.1 -5.25 14.95 5.2 14.95 5.2 12.1 10.8 12.1 8.7 15.1 22.7 15.1 M8.7 38.6 L8.7 42.6 8.7 58.85 -8.8 58.85 -8.8 70.4 -8.8 79.65 -8.8 82.15 -25.4 82.15 -25.4 87.15 M8.7 38.6 L8.7 18.35 M27.95 70.4 L27.95 60.35 M8.7 58.85 L8.7 70.4 27.95 70.4 27.95 79.65 M7.85 89.75 L7.85 85.65 -7.9 85.65 -7.9 89.75 M8.7 79.65 L8.7 82.15 25.35 82.15 M20.7 85.65 L7.85 85.65 M8.7 70.4 L8.7 79.65 -8.8 79.65 M73.45 53.85 L73.45 60.85 Q72.5 65.4 67.7 65.1 L62.45 65.1 62.45 60.85 62.45 53.85 62.45 48.85 Q69.95 48.85 73.45 53.85 M59.95 78.0 L59.95 40.4 M-9.35 -67.2 Q-11.6 -43.65 -20.8 -27.65 L-24.65 -27.7 -26.25 -20.25 -18.3 -20.15 -16.4 -23.65 Q-8.1 -42.45 -5.6 -71.0 M-24.65 -27.7 Q-22.9 -37.0 -22.3 -46.65 M-44.4 14.0 Q-36.75 6.4 -33.35 0.6 -32.3 -1.3 -31.6 -3.0 -28.4 -11.45 -26.25 -20.25 M-16.4 -23.65 L-16.4 -1.35 -11.25 -1.35 M-10.85 12.1 L-11.55 11.1 -18.05 11.1 -20.55 11.1 -22.8 15.1 -8.8 15.1 -10.85 12.1 M-10.75 3.15 Q-13.4 7.85 -18.05 11.1 M-18.8 20.75 L-15.05 20.75 -11.3 20.75 -11.3 35.75 -15.05 35.75 -18.8 35.75 -22.45 35.75 -19.95 20.75 -18.8 20.75 M-8.8 18.35 L-8.8 15.1 M-22.8 15.1 L-23.4 18.35 -8.8 18.35 -8.8 38.6 -8.8 42.6 -8.8 58.85 M-43.55 29.7 L-33.35 22.7 -22.8 15.1 M-23.4 18.35 L-28.05 42.85 -28.05 45.85 -28.05 50.0 -28.05 60.35 -43.55 60.35 -43.55 29.7 -47.3 32.25 -47.3 21.65 -47.3 16.8 -44.4 14.0 Q-42.75 5.75 -40.5 -2.2 M-60.0 27.7 L-60.0 34.1 Q-53.35 28.0 -47.3 21.65 M-60.0 34.1 L-60.0 40.4 -47.3 32.25 M-63.25 30.25 L-60.0 27.7 Q-52.8 21.85 -47.3 16.8 M-62.55 60.85 L-62.55 53.85 -62.55 48.85 Q-70.05 48.85 -73.55 53.85 L-73.55 60.85 Q-72.6 65.4 -67.8 65.1 L-62.55 65.1 -62.55 60.85 M-43.55 75.65 L-43.55 80.85 -60.0 78.0 -63.55 77.4 Q-69.75 68.55 -86.55 65.7 -102.6 63.0 -83.1 53.1 L-81.3 51.75 Q-70.0 43.25 -60.0 34.1 M-43.55 75.65 L-43.55 60.35 M-28.05 79.65 L-28.05 70.4 -28.05 60.35 M-25.4 82.15 L-28.05 82.15 -28.05 79.65 Q-35.3 76.15 -43.55 75.65 M-8.8 70.4 L-28.05 70.4 M-7.9 85.65 L-20.8 85.65 M-60.0 40.4 L-60.0 78.0 M-83.1 53.1 L-81.05 52.1 Q-71.75 47.55 -60.0 40.4" fill="none" stroke="#333333" stroke-linecap="round" stroke-linejoin="round" stroke-width="1.5"/>
    <path d="M68.45 81.4 Q70.7 87.55 68.55 93.85 L66.7 97.9 Q67.7 99.05 68.05 100.65 68.35 101.95 68.25 103.5 L67.85 105.75 40.35 105.75 40.5 103.5 41.0 100.65 Q41.4 99.0 42.05 97.9 43.15 95.95 44.95 95.5 L44.25 93.85 Q43.3 90.7 45.0 87.0 M-45.1 87.0 Q-43.4 90.7 -44.3 93.85 L-45.05 95.5 Q-43.25 95.95 -42.15 97.9 -41.5 99.0 -41.1 100.65 L-40.6 103.5 -40.4 105.75 -67.9 105.75 -68.3 103.5 Q-68.45 101.95 -68.15 100.65 -67.8 99.05 -66.8 97.9 L-68.6 93.85 Q-70.8 87.55 -68.55 81.4" fill="none" stroke="#000000" stroke-linecap="round" stroke-linejoin="round" stroke-width="1.5"/>
  </g>
  <defs>
    <radialGradient cx="0" cy="0" gradientTransform="matrix(-0.0395, 0.0, 0.0, 0.0395, 33.45, -16.25)" gradientUnits="userSpaceOnUse" id="gradient0" r="819.2" spreadMethod="pad">
      <stop offset="0.0" stop-color="#989898"/>
      <stop offset="1.0" stop-color="#182020"/>
    </radialGradient>
    <radialGradient cx="0" cy="0" gradientTransform="matrix(0.0101, 0.0, 0.0, 0.0101, -0.05, -0.4)" gradientUnits="userSpaceOnUse" id="gradient1" r="819.2" spreadMethod="pad">
      <stop offset="0.0" stop-color="#000000"/>
      <stop offset="0.6470588235294118" stop-color="#98a880"/>
    </radialGradient>
    <radialGradient cx="0" cy="0" gradientTransform="matrix(-0.074, 0.0, 0.0, 0.074, 94.95, 55.35)" gradientUnits="userSpaceOnUse" id="gradient2" r="819.2" spreadMethod="pad">
      <stop offset="0.0" stop-color="#989898"/>
      <stop offset="1.0" stop-color="#182020"/>
    </radialGradient>
    <radialGradient cx="0" cy="0" gradientTransform="matrix(-0.0255, 0.0, 0.0, 0.0255, 51.85, 12.75)" gradientUnits="userSpaceOnUse" id="gradient3" r="819.2" spreadMethod="pad">
      <stop offset="0.0" stop-color="#989898"/>
      <stop offset="1.0" stop-color="#182020"/>
    </radialGradient>
    <radialGradient cx="0" cy="0" gradientTransform="matrix(-0.0158, 0.0, 0.0, 0.0158, 52.7, 29.6)" gradientUnits="userSpaceOnUse" id="gradient4" r="819.2" spreadMethod="pad">
      <stop offset="0.0" stop-color="#989898"/>
      <stop offset="1.0" stop-color="#283040"/>
    </radialGradient>
    <linearGradient gradientTransform="matrix(0.0063, 0.0, 0.0, -0.0276, 35.15, 37.75)" gradientUnits="userSpaceOnUse" id="gradient5" spreadMethod="pad" x1="-819.2" x2="819.2">
      <stop offset="0.0" stop-color="#666f70"/>
      <stop offset="1.0" stop-color="#b0c0d0"/>
    </linearGradient>
    <radialGradient cx="0" cy="0" gradientTransform="matrix(-0.0172, 0.0, 0.0, 0.0172, 56.1, 96.1)" gradientUnits="userSpaceOnUse" id="gradient6" r="819.2" spreadMethod="pad">
      <stop offset="0.0" stop-color="#aac1c7"/>
      <stop offset="1.0" stop-color="#283040"/>
    </radialGradient>
    <linearGradient gradientTransform="matrix(-0.0157, 0.0, 0.0, 0.0076, 56.75, 87.6)" gradientUnits="userSpaceOnUse" id="gradient7" spreadMethod="pad" x1="-819.2" x2="819.2">
      <stop offset="0.0" stop-color="#586870"/>
      <stop offset="0.27058823529411763" stop-color="#707878"/>
      <stop offset="0.6039215686274509" stop-color="#283040"/>
      <stop offset="1.0" stop-color="#101010"/>
    </linearGradient>
    <radialGradient cx="0" cy="0" gradientTransform="matrix(-0.0172, 0.0, 0.0, 0.0172, 54.1, 99.0)" gradientUnits="userSpaceOnUse" id="gradient8" r="819.2" spreadMethod="pad">
      <stop offset="0.0" stop-color="#6e7b68"/>
      <stop offset="1.0" stop-color="#101010"/>
    </radialGradient>
    <radialGradient cx="0" cy="0" gradientTransform="matrix(-0.0188, 0.0, 0.0, 0.0188, 55.7, 104.5)" gradientUnits="userSpaceOnUse" id="gradient9" r="819.2" spreadMethod="pad">
      <stop offset="0.0" stop-color="#98a880"/>
      <stop offset="1.0" stop-color="#283040"/>
    </radialGradient>
    <radialGradient cx="0" cy="0" gradientTransform="matrix(0.0395, 0.0, 0.0, 0.0395, -33.55, -16.25)" gradientUnits="userSpaceOnUse" id="gradient10" r="819.2" spreadMethod="pad">
      <stop offset="0.0" stop-color="#989898"/>
      <stop offset="1.0" stop-color="#182020"/>
    </radialGradient>
    <linearGradient gradientTransform="matrix(-0.0063, 0.0, 0.0, -0.0276, -35.2, 37.75)" gradientUnits="userSpaceOnUse" id="gradient11" spreadMethod="pad" x1="-819.2" x2="819.2">
      <stop offset="0.0" stop-color="#666f70"/>
      <stop offset="1.0" stop-color="#b0c0d0"/>
    </linearGradient>
    <radialGradient cx="0" cy="0" gradientTransform="matrix(0.0255, 0.0, 0.0, 0.0255, -51.9, 12.75)" gradientUnits="userSpaceOnUse" id="gradient12" r="819.2" spreadMethod="pad">
      <stop offset="0.0" stop-color="#989898"/>
      <stop offset="1.0" stop-color="#182020"/>
    </radialGradient>
    <radialGradient cx="0" cy="0" gradientTransform="matrix(0.074, 0.0, 0.0, 0.074, -95.05, 55.35)" gradientUnits="userSpaceOnUse" id="gradient13" r="819.2" spreadMethod="pad">
      <stop offset="0.0" stop-color="#989898"/>
      <stop offset="1.0" stop-color="#182020"/>
    </radialGradient>
    <radialGradient cx="0" cy="0" gradientTransform="matrix(0.0158, 0.0, 0.0, 0.0158, -52.8, 29.6)" gradientUnits="userSpaceOnUse" id="gradient14" r="819.2" spreadMethod="pad">
      <stop offset="0.0" stop-color="#989898"/>
      <stop offset="1.0" stop-color="#283040"/>
    </radialGradient>
    <linearGradient gradientTransform="matrix(0.0157, 0.0, 0.0, 0.0076, -56.85, 87.6)" gradientUnits="userSpaceOnUse" id="gradient15" spreadMethod="pad" x1="-819.2" x2="819.2">
      <stop offset="0.0" stop-color="#586870"/>
      <stop offset="0.27058823529411763" stop-color="#707878"/>
      <stop offset="0.6039215686274509" stop-color="#283040"/>
      <stop offset="1.0" stop-color="#101010"/>
    </linearGradient>
    <radialGradient cx="0" cy="0" gradientTransform="matrix(0.0172, 0.0, 0.0, 0.0172, -56.15, 96.1)" gradientUnits="userSpaceOnUse" id="gradient16" r="819.2" spreadMethod="pad">
      <stop offset="0.0" stop-color="#aac1c7"/>
      <stop offset="1.0" stop-color="#283040"/>
    </radialGradient>
    <radialGradient cx="0" cy="0" gradientTransform="matrix(0.0172, 0.0, 0.0, 0.0172, -54.15, 99.0)" gradientUnits="userSpaceOnUse" id="gradient17" r="819.2" spreadMethod="pad">
      <stop offset="0.0" stop-color="#6e7b68"/>
      <stop offset="1.0" stop-color="#101010"/>
    </radialGradient>
    <radialGradient cx="0" cy="0" gradientTransform="matrix(0.0188, 0.0, 0.0, 0.0188, -55.8, 104.5)" gradientUnits="userSpaceOnUse" id="gradient18" r="819.2" spreadMethod="pad">
      <stop offset="0.0" stop-color="#98a880"/>
      <stop offset="1.0" stop-color="#283040"/>
    </radialGradient>
  </defs>
</svg>
