<?xml version="1.0" encoding="UTF-8" standalone="no"?>
<svg xmlns:ffdec="https://www.free-decompiler.com/flash" xmlns:xlink="http://www.w3.org/1999/xlink" ffdec:objectType="shape" height="39.3px" width="81.15px" xmlns="http://www.w3.org/2000/svg">
  <g transform="matrix(1.0, 0.0, 0.0, 1.0, -9.65, -30.1)">
    <path d="M81.4 43.3 L82.8 45.0 82.85 45.1 82.85 45.25 82.75 45.35 76.75 49.2 Q83.4 49.0 88.8 50.6 89.9 50.8 90.4 52.05 91.55 54.65 89.5 57.05 L89.5 57.1 Q88.65 58.15 87.25 58.25 86.0 58.4 85.3 57.5 84.45 56.6 83.55 56.6 82.55 56.6 81.5 57.6 L77.75 60.3 77.8 60.3 Q75.35 61.8 72.55 62.5 L72.4 62.5 72.35 62.45 72.2 62.35 72.0 62.15 71.75 61.85 71.55 61.45 71.4 60.9 70.95 60.85 70.35 61.0 70.4 61.0 70.15 61.05 70.15 61.1 69.6 61.65 Q68.95 62.6 67.8 62.2 L67.7 62.05 66.9 60.75 66.0 61.2 59.7 64.5 58.35 64.6 58.2 64.5 58.1 64.35 57.9 64.1 57.85 64.1 56.05 62.7 56.15 62.45 56.05 62.55 55.85 62.55 55.4 63.6 53.35 67.4 Q52.15 69.25 50.1 69.4 48.05 69.25 46.9 67.4 45.75 65.6 44.85 63.6 L44.3 62.3 42.2 63.9 41.9 64.2 41.8 64.35 40.65 64.25 34.35 61.0 33.25 60.45 32.35 61.95 Q31.4 62.3 30.85 61.5 L30.2 60.85 29.95 60.75 29.35 60.6 28.65 60.65 28.45 61.35 28.25 61.7 28.0 62.0 27.9 62.15 27.75 62.25 Q24.95 61.55 22.6 60.05 L18.9 57.4 Q16.55 55.35 14.75 57.35 14.1 58.15 13.0 58.0 11.7 57.9 10.9 56.9 8.95 54.6 10.05 52.15 10.5 51.05 11.5 50.8 17.3 49.15 24.55 49.45 21.2 47.7 17.6 45.15 L19.05 43.45 Q19.85 42.6 20.65 42.55 L25.7 43.5 25.8 43.35 26.0 43.35 Q26.05 42.7 26.2 42.4 26.75 40.95 27.45 39.55 L30.0 39.55 30.1 39.4 30.25 39.3 Q30.35 36.95 30.75 34.65 L31.1 35.05 Q32.05 36.55 34.5 35.8 34.9 34.3 35.85 32.95 L36.75 33.35 37.35 33.85 37.45 33.9 Q38.6 30.6 41.75 30.25 L41.8 30.25 42.0 30.35 42.05 30.45 42.0 30.3 41.8 30.25 42.9 30.25 42.95 30.25 44.9 30.4 45.05 30.5 45.1 30.65 45.2 31.75 Q46.8 30.3 49.1 30.1 L50.1 30.5 51.1 30.1 51.15 30.1 Q53.4 30.3 55.05 31.8 L55.1 30.65 55.2 30.5 55.35 30.4 57.3 30.25 58.45 30.25 58.25 30.3 58.15 30.45 58.25 30.35 58.45 30.25 58.5 30.25 Q61.5 30.6 62.7 33.65 L63.35 33.15 63.35 33.1 64.3 32.7 64.45 32.7 64.6 32.8 Q65.5 34.15 65.95 35.6 68.05 36.2 68.95 34.9 L69.35 34.45 69.5 34.4 69.65 34.45 69.75 34.6 70.25 39.3 72.8 39.3 72.95 39.35 73.0 39.45 74.3 42.35 74.25 42.3 74.5 43.25 79.55 42.3 79.6 42.3 Q80.45 42.3 81.4 43.3 M50.25 30.55 L50.05 30.55 49.9 30.65 50.1 30.75 50.35 30.65 50.25 30.55 M44.95 32.1 L44.95 32.35 45.15 32.15 45.1 32.15 44.95 32.1" fill="#000000" fill-opacity="0.2509804" fill-rule="evenodd" stroke="none"/>
  </g>
</svg>
