<?xml version="1.0" encoding="UTF-8" standalone="no"?>
<svg xmlns:ffdec="https://www.free-decompiler.com/flash" xmlns:xlink="http://www.w3.org/1999/xlink" ffdec:objectType="shape" height="79.05px" width="162.8px" xmlns="http://www.w3.org/2000/svg">
  <g transform="matrix(1.0, 0.0, 0.0, 1.0, 81.4, 39.5)">
    <path d="M-51.1 -0.8 Q-57.8 -4.25 -65.0 -9.45 L-62.15 -12.8 Q-60.5 -14.55 -58.95 -14.65 -53.75 -14.0 -48.35 -12.6 -44.05 -11.5 -39.6 -9.95 L-39.4 -7.45 -42.9 -6.5 -43.75 -5.5 Q-46.05 -0.2 -43.55 2.75 L-51.1 -0.8" fill="url(#gradient0)" fill-rule="evenodd" stroke="none"/>
    <path d="M39.75 -20.6 L45.35 -20.6 47.85 -14.9 48.35 -12.6 Q44.05 -11.5 39.65 -9.95 40.0 -15.25 39.75 -20.6 M-48.35 -12.6 L-47.85 -14.9 -45.35 -20.6 -39.75 -20.6 Q-40.0 -15.25 -39.6 -9.95 -44.05 -11.5 -48.35 -12.6" fill="#939493" fill-rule="evenodd" stroke="none"/>
    <path d="M0.0 -38.2 Q6.1 -28.25 3.9 -15.8 L3.5 -12.7 -3.5 -12.7 -3.9 -15.8 Q-6.1 -28.25 0.0 -38.2 M30.9 -6.85 L39.25 -5.9 39.45 -7.45 42.9 -6.5 43.75 -5.5 Q46.05 -0.2 43.55 2.75 42.85 3.55 41.35 4.2 38.5 5.5 37.45 8.55 37.25 9.15 36.45 9.2 L33.35 9.45 32.45 3.25 30.9 -6.85 M-43.55 2.75 Q-46.05 -0.2 -43.75 -5.5 L-42.9 -6.5 -39.4 -7.45 -39.25 -5.9 -30.9 -6.85 -32.4 3.25 -33.35 9.45 -36.45 9.2 Q-37.25 9.15 -37.45 8.55 -38.5 5.5 -41.35 4.2 -42.85 3.55 -43.55 2.75" fill="#485850" fill-rule="evenodd" stroke="none"/>
    <path d="M-25.0 -31.45 Q-22.8 -38.05 -16.6 -38.7 L-16.2 -34.2 Q-20.6 -35.95 -21.0 -30.7 -21.3 -26.85 -15.9 -26.9 L-16.0 -24.7 Q-18.5 -25.75 -20.15 -24.1 -22.75 -21.5 -17.75 -17.5 -18.85 -15.65 -20.65 -15.45 -24.45 -16.8 -25.45 -21.1 -21.55 -22.85 -21.95 -25.75 -22.85 -32.65 -25.4 -29.25 L-25.0 -31.45" fill="url(#gradient1)" fill-rule="evenodd" stroke="none"/>
    <path d="M25.4 -29.25 L25.0 -31.45 25.5 -32.05 26.7 -33.05 28.5 -33.85 Q30.4 -31.05 31.25 -28.1 33.05 -21.7 29.95 -14.6 L29.7 -14.05 Q29.05 -12.9 27.95 -12.0 23.4 -8.2 19.6 -9.6 17.55 -10.35 15.7 -12.6 7.55 -22.45 10.35 -35.05 L10.5 -38.45 14.4 -38.75 16.6 -38.7 16.2 -34.2 Q15.9 -30.15 15.95 -26.9 L16.05 -24.7 Q16.35 -19.85 17.75 -17.5 18.85 -15.65 20.65 -15.45 24.45 -16.8 25.45 -21.1 26.2 -24.35 25.4 -29.25 M-31.25 -28.1 Q-30.4 -31.05 -28.5 -33.85 L-26.7 -33.05 -25.5 -32.05 -25.0 -31.45 -25.4 -29.25 Q-26.2 -24.35 -25.45 -21.1 -24.45 -16.8 -20.65 -15.45 -18.85 -15.65 -17.75 -17.5 -16.35 -19.85 -16.0 -24.7 L-15.9 -26.9 Q-15.9 -30.15 -16.2 -34.2 L-16.6 -38.7 -14.4 -38.75 -10.5 -38.45 -10.3 -35.05 Q-7.55 -22.45 -15.7 -12.6 -17.55 -10.35 -19.55 -9.6 -23.4 -8.2 -27.95 -12.0 -29.05 -12.9 -29.65 -14.05 L-29.95 -14.6 Q-33.05 -21.7 -31.25 -28.1" fill="#b0c0d0" fill-rule="evenodd" stroke="none"/>
    <path d="M25.45 -21.1 Q21.55 -22.85 21.95 -25.75 22.85 -32.65 25.4 -29.25 26.2 -24.35 25.45 -21.1 M16.2 -34.2 Q20.6 -35.95 21.0 -30.7 21.3 -26.85 15.95 -26.9 15.9 -30.15 16.2 -34.2 M16.05 -24.7 Q18.5 -25.75 20.15 -24.1 22.75 -21.5 17.75 -17.5 16.35 -19.85 16.05 -24.7 M-16.2 -34.2 Q-15.9 -30.15 -15.9 -26.9 -21.3 -26.85 -21.0 -30.7 -20.6 -35.95 -16.2 -34.2 M-16.0 -24.7 Q-16.35 -19.85 -17.75 -17.5 -22.75 -21.5 -20.15 -24.1 -18.5 -25.75 -16.0 -24.7 M-25.45 -21.1 Q-26.2 -24.35 -25.4 -29.25 -22.85 -32.65 -21.95 -25.75 -21.55 -22.85 -25.45 -21.1" fill="#9cad8b" fill-rule="evenodd" stroke="none"/>
    <path d="M-10.3 -35.05 Q-6.95 -38.6 -2.0 -39.0 -1.4 -39.0 0.0 -38.2 -6.1 -28.25 -3.9 -15.8 L-3.5 -12.7 -8.85 -8.35 -11.35 -6.0 -14.35 2.45 -14.5 3.55 Q-28.1 1.25 -30.9 -6.85 -31.5 -9.8 -29.65 -14.05 -29.05 -12.9 -27.95 -12.0 -23.4 -8.2 -19.55 -9.6 -17.55 -10.35 -15.7 -12.6 -7.55 -22.45 -10.3 -35.05" fill="url(#gradient2)" fill-rule="evenodd" stroke="none"/>
    <path d="M31.25 -28.1 Q36.15 -26.65 38.05 -29.65 L38.75 -30.45 Q39.5 -25.5 39.75 -20.6 40.0 -15.25 39.65 -9.95 L39.45 -7.45 39.25 -5.9 30.9 -6.85 Q31.5 -9.8 29.7 -14.05 L29.95 -14.6 Q33.05 -21.7 31.25 -28.1 M-39.75 -20.6 Q-39.5 -25.5 -38.75 -30.45 L-38.05 -29.65 Q-36.15 -26.65 -31.25 -28.1 -33.05 -21.7 -29.95 -14.6 L-29.65 -14.05 Q-31.5 -9.8 -30.9 -6.85 L-39.25 -5.9 -39.4 -7.45 -39.6 -9.95 Q-40.0 -15.25 -39.75 -20.6 M14.55 3.55 Q28.1 1.25 30.9 -6.85 L32.45 3.25 Q31.5 13.85 28.3 17.9 20.05 20.95 11.85 24.4 15.75 14.1 14.55 3.55 M-14.5 3.55 Q-15.75 14.1 -11.85 24.4 -20.05 20.95 -28.3 17.9 -31.5 13.85 -32.4 3.25 L-30.9 -6.85 Q-28.1 1.25 -14.5 3.55 M22.55 16.25 L23.2 15.3 Q23.85 12.95 22.0 12.15 20.1 13.2 20.7 15.7 21.15 17.35 22.55 16.25 M26.45 14.25 L26.9 13.15 Q27.3 10.75 25.5 9.9 23.65 10.8 24.0 13.25 L24.3 14.15 Q25.3 15.95 26.45 14.25 M18.2 16.2 Q18.7 15.1 18.8 13.85 18.9 12.15 17.35 11.8 15.6 12.75 15.75 15.15 15.8 15.95 16.4 16.5 17.55 17.6 18.2 16.2 M-18.2 16.2 Q-17.55 17.6 -16.4 16.5 -15.8 15.95 -15.75 15.15 -15.6 12.75 -17.35 11.8 -18.9 12.15 -18.8 13.85 -18.7 15.1 -18.2 16.2 M-23.2 15.3 L-22.55 16.25 Q-21.15 17.35 -20.7 15.7 -20.1 13.2 -22.0 12.15 -23.85 12.95 -23.2 15.3 M-24.3 14.15 L-24.0 13.25 Q-23.65 10.8 -25.5 9.9 -27.3 10.75 -26.9 13.15 L-26.45 14.25 Q-25.3 15.95 -24.3 14.15" fill="#7898b0" fill-rule="evenodd" stroke="none"/>
    <path d="M11.65 24.9 L10.55 27.5 Q8.75 31.5 6.45 35.05 4.1 38.75 0.0 39.05 -4.1 38.75 -6.45 35.05 -8.75 31.5 -10.55 27.5 L-11.65 24.9 -11.85 24.4 Q-15.75 14.1 -14.5 3.55 L-14.35 2.45 -11.35 -6.0 -8.85 -8.35 -3.5 -12.7 3.5 -12.7 8.85 -8.35 11.35 -6.0 14.4 2.45 14.55 3.55 Q15.75 14.1 11.85 24.4 L11.65 24.9 M3.15 -3.3 Q3.15 -4.8 2.1 -5.85 1.05 -6.9 -0.45 -6.9 -1.95 -6.9 -3.0 -5.85 -4.05 -4.8 -4.05 -3.3 -4.05 -1.8 -3.0 -0.75 -1.95 0.3 -0.45 0.3 1.05 0.3 2.1 -0.75 3.15 -1.8 3.15 -3.3 M3.15 9.2 Q3.15 7.7 2.1 6.65 1.05 5.6 -0.45 5.6 -1.95 5.6 -3.0 6.65 -4.05 7.7 -4.05 9.2 -4.05 10.7 -3.0 11.75 -1.95 12.8 -0.45 12.8 1.05 12.8 2.1 11.75 3.15 10.7 3.15 9.2 M0.75 35.9 Q4.7 31.85 4.1 29.15 2.85 28.3 0.75 30.4 L0.75 35.9 M-1.75 35.9 L-1.75 30.4 Q-3.85 28.3 -5.1 29.15 -5.7 31.85 -1.75 35.9" fill="url(#gradient3)" fill-rule="evenodd" stroke="none"/>
    <path d="M3.15 -3.3 Q3.15 -1.8 2.1 -0.75 1.05 0.3 -0.45 0.3 -1.95 0.3 -3.0 -0.75 -4.05 -1.8 -4.05 -3.3 -4.05 -4.8 -3.0 -5.85 -1.95 -6.9 -0.45 -6.9 1.05 -6.9 2.1 -5.85 3.15 -4.8 3.15 -3.3 M3.15 9.2 Q3.15 10.7 2.1 11.75 1.05 12.8 -0.45 12.8 -1.95 12.8 -3.0 11.75 -4.05 10.7 -4.05 9.2 -4.05 7.7 -3.0 6.65 -1.95 5.6 -0.45 5.6 1.05 5.6 2.1 6.65 3.15 7.7 3.15 9.2" fill="#283848" fill-rule="evenodd" stroke="none"/>
    <path d="M25.4 -29.25 Q22.85 -32.65 21.95 -25.75 21.55 -22.85 25.45 -21.1 24.45 -16.8 20.65 -15.45 18.85 -15.65 17.75 -17.5 22.75 -21.5 20.15 -24.1 18.5 -25.75 16.05 -24.7 L15.95 -26.9 Q21.3 -26.85 21.0 -30.7 20.6 -35.95 16.2 -34.2 L16.6 -38.7 Q22.8 -38.05 25.0 -31.45 L25.4 -29.25" fill="url(#gradient4)" fill-rule="evenodd" stroke="none"/>
    <path d="M0.0 -38.2 Q1.4 -39.0 2.0 -39.0 6.95 -38.6 10.35 -35.05 7.55 -22.45 15.7 -12.6 17.55 -10.35 19.6 -9.6 23.4 -8.2 27.95 -12.0 29.05 -12.9 29.7 -14.05 31.5 -9.8 30.9 -6.85 28.1 1.25 14.55 3.55 L14.4 2.45 11.35 -6.0 8.85 -8.35 3.5 -12.7 3.9 -15.8 Q6.1 -28.25 0.0 -38.2" fill="url(#gradient5)" fill-rule="evenodd" stroke="none"/>
    <path d="M48.35 -12.6 Q53.75 -14.0 58.95 -14.65 60.5 -14.55 62.15 -12.8 L65.0 -9.45 Q57.8 -4.25 51.1 -0.8 L43.55 2.75 Q46.05 -0.2 43.75 -5.5 L42.9 -6.5 39.45 -7.45 39.65 -9.95 Q44.05 -11.5 48.35 -12.6" fill="url(#gradient6)" fill-rule="evenodd" stroke="none"/>
    <path d="M51.1 -0.8 Q65.6 -1.45 77.25 1.9 79.2 2.35 80.15 4.55 82.3 9.5 78.4 14.1 76.8 16.1 74.2 16.3 72.05 16.55 70.7 14.95 67.15 10.95 62.4 15.05 59.0 18.0 55.05 20.4 50.3 23.4 44.7 24.75 L44.45 24.55 44.2 24.3 43.7 23.7 43.35 23.0 42.9 21.55 41.55 21.5 40.35 21.75 39.8 22.0 38.55 23.3 Q37.45 24.85 35.55 24.15 L33.7 21.15 34.25 18.05 33.2 16.3 32.05 16.5 28.3 17.9 Q31.5 13.85 32.45 3.25 L33.35 9.45 36.45 9.2 Q37.25 9.15 37.45 8.55 38.5 5.5 41.35 4.2 42.85 3.55 43.55 2.75 L51.1 -0.8" fill="url(#gradient7)" fill-rule="evenodd" stroke="none"/>
    <path d="M26.45 14.25 Q25.3 15.95 24.3 14.15 L24.0 13.25 Q23.65 10.8 25.5 9.9 27.3 10.75 26.9 13.15 L26.45 14.25 M22.55 16.25 Q21.15 17.35 20.7 15.7 20.1 13.2 22.0 12.15 23.85 12.95 23.2 15.3 L22.55 16.25 M18.2 16.2 Q17.55 17.6 16.4 16.5 15.8 15.95 15.75 15.15 15.6 12.75 17.35 11.8 18.9 12.15 18.8 13.85 18.7 15.1 18.2 16.2 M-18.2 16.2 Q-18.7 15.1 -18.8 13.85 -18.9 12.15 -17.35 11.8 -15.6 12.75 -15.75 15.15 -15.8 15.95 -16.4 16.5 -17.55 17.6 -18.2 16.2 M-24.3 14.15 Q-25.3 15.95 -26.45 14.25 L-26.9 13.15 Q-27.3 10.75 -25.5 9.9 -23.65 10.8 -24.0 13.25 L-24.3 14.15 M-23.2 15.3 Q-23.85 12.95 -22.0 12.15 -20.1 13.2 -20.7 15.7 -21.15 17.35 -22.55 16.25 L-23.2 15.3" fill="#182020" fill-rule="evenodd" stroke="none"/>
    <path d="M33.7 21.15 L31.5 22.25 18.9 28.8 16.6 28.95 16.4 28.65 15.8 28.05 11.65 24.9 11.85 24.4 Q20.05 20.95 28.3 17.9 L32.05 16.5 33.2 16.3 34.25 18.05 33.7 21.15 M-11.65 24.9 L-15.8 28.05 -16.4 28.65 -16.6 28.95 -18.9 28.8 -31.5 22.25 -33.7 21.15 -34.25 18.05 -33.2 16.3 -32.05 16.5 -28.3 17.9 Q-20.05 20.95 -11.85 24.4 L-11.65 24.9" fill="#b8d0d8" fill-rule="evenodd" stroke="none"/>
    <path d="M0.75 35.9 L0.75 30.4 Q2.85 28.3 4.1 29.15 4.7 31.85 0.75 35.9 M-1.75 35.9 Q-5.7 31.85 -5.1 29.15 -3.85 28.3 -1.75 30.4 L-1.75 35.9" fill="#7878a0" fill-rule="evenodd" stroke="none"/>
    <path d="M-33.7 21.15 L-35.55 24.15 Q-37.45 24.85 -38.55 23.3 L-39.8 22.0 -40.35 21.75 -41.55 21.5 -42.9 21.55 -43.35 23.0 -43.7 23.7 -44.2 24.3 -44.45 24.55 -44.7 24.75 Q-50.3 23.4 -55.05 20.4 -59.0 18.0 -62.4 15.05 -67.15 10.95 -70.7 14.95 -72.05 16.55 -74.2 16.3 -76.8 16.1 -78.4 14.1 -82.3 9.5 -80.15 4.55 -79.2 2.35 -77.25 1.9 -65.6 -1.45 -51.1 -0.8 L-43.55 2.75 Q-42.85 3.55 -41.35 4.2 -38.5 5.5 -37.45 8.55 -37.25 9.15 -36.45 9.2 L-33.35 9.45 -32.4 3.25 Q-31.5 13.85 -28.3 17.9 L-32.05 16.5 -33.2 16.3 -34.25 18.05 -33.7 21.15" fill="url(#gradient8)" fill-rule="evenodd" stroke="none"/>
    <path d="M25.45 -21.1 Q21.55 -22.85 21.95 -25.75 22.85 -32.65 25.4 -29.25 L25.0 -31.45 Q22.8 -38.05 16.6 -38.7 L16.2 -34.2 Q20.6 -35.95 21.0 -30.7 21.3 -26.85 15.95 -26.9 L16.05 -24.7 Q18.5 -25.75 20.15 -24.1 22.75 -21.5 17.75 -17.5 18.85 -15.65 20.65 -15.45 24.45 -16.8 25.45 -21.1 26.2 -24.35 25.4 -29.25 M25.0 -31.45 L25.5 -32.05 26.7 -33.05 28.5 -33.85 Q30.4 -31.05 31.25 -28.1 36.15 -26.65 38.05 -29.65 L38.75 -30.45 Q39.5 -25.5 39.75 -20.6 L45.35 -20.6 47.85 -14.9 48.35 -12.6 Q53.75 -14.0 58.95 -14.65 60.5 -14.55 62.15 -12.8 L65.0 -9.45 Q57.8 -4.25 51.1 -0.8 65.6 -1.45 77.25 1.9 79.2 2.35 80.15 4.55 82.3 9.5 78.4 14.1 76.8 16.1 74.2 16.3 72.05 16.55 70.7 14.95 67.15 10.95 62.4 15.05 59.0 18.0 55.05 20.4 50.3 23.4 44.7 24.75 L44.45 24.55 44.2 24.3 43.7 23.7 43.35 23.0 42.9 21.55 41.55 21.5 40.35 21.75 39.8 22.0 38.55 23.3 Q37.45 24.85 35.55 24.15 L33.7 21.15 31.5 22.25 18.9 28.8 16.6 28.95 16.4 28.65 15.8 28.05 11.65 24.9 10.55 27.5 Q8.75 31.5 6.45 35.05 4.1 38.75 0.0 39.05 -4.1 38.75 -6.45 35.05 -8.75 31.5 -10.55 27.5 L-11.65 24.9 -15.8 28.05 -16.4 28.65 -16.6 28.95 -18.9 28.8 -31.5 22.25 -33.7 21.15 -35.55 24.15 Q-37.45 24.85 -38.55 23.3 L-39.8 22.0 -40.35 21.75 -41.55 21.5 -42.9 21.55 -43.35 23.0 -43.7 23.7 -44.2 24.3 -44.45 24.55 -44.7 24.75 Q-50.3 23.4 -55.05 20.4 -59.0 18.0 -62.4 15.05 -67.15 10.95 -70.7 14.95 -72.05 16.55 -74.2 16.3 -76.8 16.1 -78.4 14.1 -82.3 9.5 -80.15 4.55 -79.2 2.35 -77.25 1.9 -65.6 -1.45 -51.1 -0.8 -57.8 -4.25 -65.0 -9.45 L-62.15 -12.8 Q-60.5 -14.55 -58.95 -14.65 -53.75 -14.0 -48.35 -12.6 L-47.85 -14.9 -45.35 -20.6 -39.75 -20.6 Q-39.5 -25.5 -38.75 -30.45 L-38.05 -29.65 Q-36.15 -26.65 -31.25 -28.1 -30.4 -31.05 -28.5 -33.85 L-26.7 -33.05 -25.5 -32.05 -25.0 -31.45 Q-22.8 -38.05 -16.6 -38.7 L-14.4 -38.75 -10.5 -38.45 -10.3 -35.05 Q-6.95 -38.6 -2.0 -39.0 -1.4 -39.0 0.0 -38.2 1.4 -39.0 2.0 -39.0 6.95 -38.6 10.35 -35.05 L10.5 -38.45 14.4 -38.75 16.6 -38.7 M15.95 -26.9 Q15.9 -30.15 16.2 -34.2 M16.05 -24.7 Q16.35 -19.85 17.75 -17.5 M10.35 -35.05 Q7.55 -22.45 15.7 -12.6 17.55 -10.35 19.6 -9.6 23.4 -8.2 27.95 -12.0 29.05 -12.9 29.7 -14.05 L29.95 -14.6 Q33.05 -21.7 31.25 -28.1 M3.5 -12.7 L8.85 -8.35 11.35 -6.0 14.4 2.45 14.55 3.55 Q28.1 1.25 30.9 -6.85 31.5 -9.8 29.7 -14.05 M0.0 -38.2 Q6.1 -28.25 3.9 -15.8 L3.5 -12.7 M-3.5 -12.7 L-8.85 -8.35 -11.35 -6.0 -14.35 2.45 -14.5 3.55 Q-15.75 14.1 -11.85 24.4 L-11.65 24.9 M30.9 -6.85 L39.25 -5.9 39.45 -7.45 39.65 -9.95 Q40.0 -15.25 39.75 -20.6 M43.55 2.75 Q46.05 -0.2 43.75 -5.5 L42.9 -6.5 39.45 -7.45 M39.65 -9.95 Q44.05 -11.5 48.35 -12.6 M32.45 3.25 L33.35 9.45 36.45 9.2 Q37.25 9.15 37.45 8.55 38.5 5.5 41.35 4.2 42.85 3.55 43.55 2.75 L51.1 -0.8 M33.7 21.15 L34.25 18.05 33.2 16.3 32.05 16.5 28.3 17.9 Q20.05 20.95 11.85 24.4 L11.65 24.9 M28.3 17.9 Q31.5 13.85 32.45 3.25 L30.9 -6.85 M14.55 3.55 Q15.75 14.1 11.85 24.4 M0.75 35.9 Q4.7 31.85 4.1 29.15 2.85 28.3 0.75 30.4 L0.75 35.9 M-39.4 -7.45 L-42.9 -6.5 -43.75 -5.5 Q-46.05 -0.2 -43.55 2.75 -42.85 3.55 -41.35 4.2 -38.5 5.5 -37.45 8.55 -37.25 9.15 -36.45 9.2 L-33.35 9.45 -32.4 3.25 -30.9 -6.85 -39.25 -5.9 -39.4 -7.45 -39.6 -9.95 Q-44.05 -11.5 -48.35 -12.6 M-15.9 -26.9 Q-15.9 -30.15 -16.2 -34.2 -20.6 -35.95 -21.0 -30.7 -21.3 -26.85 -15.9 -26.9 L-16.0 -24.7 Q-16.35 -19.85 -17.75 -17.5 -18.85 -15.65 -20.65 -15.45 -24.45 -16.8 -25.45 -21.1 -26.2 -24.35 -25.4 -29.25 L-25.0 -31.45 M-16.2 -34.2 L-16.6 -38.7 M-25.45 -21.1 Q-21.55 -22.85 -21.95 -25.75 -22.85 -32.65 -25.4 -29.25 M-31.25 -28.1 Q-33.05 -21.7 -29.95 -14.6 L-29.65 -14.05 Q-29.05 -12.9 -27.95 -12.0 -23.4 -8.2 -19.55 -9.6 -17.55 -10.35 -15.7 -12.6 -7.55 -22.45 -10.3 -35.05 M-39.75 -20.6 Q-40.0 -15.25 -39.6 -9.95 M-30.9 -6.85 Q-31.5 -9.8 -29.65 -14.05 M0.0 -38.2 Q-6.1 -28.25 -3.9 -15.8 L-3.5 -12.7 M-16.0 -24.7 Q-18.5 -25.75 -20.15 -24.1 -22.75 -21.5 -17.75 -17.5 M-28.3 17.9 L-32.05 16.5 -33.2 16.3 -34.25 18.05 -33.7 21.15 M-32.4 3.25 Q-31.5 13.85 -28.3 17.9 -20.05 20.95 -11.85 24.4 M-1.75 35.9 Q-5.7 31.85 -5.1 29.15 -3.85 28.3 -1.75 30.4 L-1.75 35.9 M-43.55 2.75 L-51.1 -0.8 M-14.5 3.55 Q-28.1 1.25 -30.9 -6.85" fill="none" stroke="#000000" stroke-linecap="round" stroke-linejoin="round" stroke-width="1.0"/>
    <path d="M3.5 -12.7 L-3.5 -12.7" fill="none" stroke="#000000" stroke-linecap="round" stroke-linejoin="round" stroke-width="1.0"/>
  </g>
  <defs>
    <linearGradient gradientTransform="matrix(-0.002, 0.0057, -0.0143, -0.0051, -52.45, -7.65)" gradientUnits="userSpaceOnUse" id="gradient0" spreadMethod="pad" x1="-819.2" x2="819.2">
      <stop offset="0.15294117647058825" stop-color="#60696b"/>
      <stop offset="0.4823529411764706" stop-color="#283848"/>
      <stop offset="0.8156862745098039" stop-color="#502010"/>
    </linearGradient>
    <linearGradient gradientTransform="matrix(0.0058, 0.0, 0.0, 0.0142, -20.7, -27.1)" gradientUnits="userSpaceOnUse" id="gradient1" spreadMethod="pad" x1="-819.2" x2="819.2">
      <stop offset="0.13725490196078433" stop-color="#c5b1da"/>
      <stop offset="0.8392156862745098" stop-color="#e8f8e8"/>
    </linearGradient>
    <linearGradient gradientTransform="matrix(-0.0039, 0.0, 0.0, -0.026, -8.3, -17.7)" gradientUnits="userSpaceOnUse" id="gradient2" spreadMethod="pad" x1="-819.2" x2="819.2">
      <stop offset="0.10588235294117647" stop-color="#b8d0d8"/>
      <stop offset="0.8392156862745098" stop-color="#283848"/>
    </linearGradient>
    <radialGradient cx="0" cy="0" gradientTransform="matrix(0.0165, 0.0, 0.0, 0.0433, 0.0, 8.8)" gradientUnits="userSpaceOnUse" id="gradient3" r="819.2" spreadMethod="pad">
      <stop offset="0.10588235294117647" stop-color="#b8d0d8"/>
      <stop offset="0.8392156862745098" stop-color="#283848"/>
    </radialGradient>
    <linearGradient gradientTransform="matrix(-0.0058, 0.0, 0.0, 0.0142, 20.7, -27.1)" gradientUnits="userSpaceOnUse" id="gradient4" spreadMethod="pad" x1="-819.2" x2="819.2">
      <stop offset="0.13725490196078433" stop-color="#c5b1da"/>
      <stop offset="0.8392156862745098" stop-color="#e8f8e8"/>
    </linearGradient>
    <linearGradient gradientTransform="matrix(0.0039, 0.0, 0.0, -0.026, 8.3, -17.7)" gradientUnits="userSpaceOnUse" id="gradient5" spreadMethod="pad" x1="-819.2" x2="819.2">
      <stop offset="0.10588235294117647" stop-color="#b8d0d8"/>
      <stop offset="0.8392156862745098" stop-color="#283848"/>
    </linearGradient>
    <linearGradient gradientTransform="matrix(0.002, 0.0057, 0.0143, -0.0051, 52.45, -7.65)" gradientUnits="userSpaceOnUse" id="gradient6" spreadMethod="pad" x1="-819.2" x2="819.2">
      <stop offset="0.15294117647058825" stop-color="#60696b"/>
      <stop offset="0.4823529411764706" stop-color="#283848"/>
      <stop offset="0.8156862745098039" stop-color="#502010"/>
    </linearGradient>
    <linearGradient gradientTransform="matrix(0.0, 0.0157, 0.0321, 0.0, 54.6, 11.9)" gradientUnits="userSpaceOnUse" id="gradient7" spreadMethod="pad" x1="-819.2" x2="819.2">
      <stop offset="0.15294117647058825" stop-color="#b0c0d0"/>
      <stop offset="0.4823529411764706" stop-color="#608088"/>
      <stop offset="0.8156862745098039" stop-color="#283848"/>
    </linearGradient>
    <linearGradient gradientTransform="matrix(0.0, 0.0157, -0.0321, 0.0, -54.6, 11.9)" gradientUnits="userSpaceOnUse" id="gradient8" spreadMethod="pad" x1="-819.2" x2="819.2">
      <stop offset="0.15294117647058825" stop-color="#b0c0d0"/>
      <stop offset="0.4823529411764706" stop-color="#608088"/>
      <stop offset="0.8156862745098039" stop-color="#283848"/>
    </linearGradient>
  </defs>
</svg>
