<?xml version="1.0" encoding="UTF-8" standalone="no"?>
<svg xmlns:ffdec="https://www.free-decompiler.com/flash" xmlns:xlink="http://www.w3.org/1999/xlink" ffdec:objectType="shape" height="8.15px" width="8.15px" xmlns="http://www.w3.org/2000/svg">
  <g transform="matrix(1.0, 0.0, 0.0, 1.0, 4.05, 4.05)">
    <path d="M2.3 -2.3 Q3.25 -1.3 3.25 0.05 3.25 1.4 2.3 2.35 1.35 3.3 0.0 3.3 -1.35 3.3 -2.3 2.35 -3.25 1.4 -3.25 0.05 -3.25 -1.3 -2.3 -2.3 -1.35 -3.25 0.0 -3.25 1.35 -3.25 2.3 -2.3" fill="url(#gradient0)" fill-rule="evenodd" stroke="none"/>
    <path d="M2.9 -2.9 Q4.05 -1.65 4.1 0.05 4.05 1.75 2.9 2.95 1.7 4.1 0.0 4.1 -1.7 4.1 -2.85 2.95 -4.05 1.75 -4.05 0.05 -4.05 -1.65 -2.85 -2.9 -1.7 -4.1 0.0 -4.05 1.7 -4.1 2.9 -2.9 M2.3 -2.3 Q1.35 -3.25 0.0 -3.25 -1.35 -3.25 -2.3 -2.3 -3.25 -1.3 -3.25 0.05 -3.25 1.4 -2.3 2.35 -1.35 3.3 0.0 3.3 1.35 3.3 2.3 2.35 3.25 1.4 3.25 0.05 3.25 -1.3 2.3 -2.3" fill="#606060" fill-rule="evenodd" stroke="none"/>
  </g>
  <defs>
    <radialGradient cx="0" cy="0" gradientTransform="matrix(0.006, 0.0, 0.0, 0.006, -1.6, -0.55)" gradientUnits="userSpaceOnUse" id="gradient0" r="819.2" spreadMethod="pad">
      <stop offset="0.0" stop-color="#ffffff"/>
      <stop offset="0.34509803921568627" stop-color="#740204"/>
      <stop offset="0.6392156862745098" stop-color="#740204"/>
      <stop offset="1.0" stop-color="#f43204"/>
    </radialGradient>
  </defs>
</svg>
