<?xml version="1.0" encoding="UTF-8" standalone="no"?>
<svg xmlns:ffdec="https://www.free-decompiler.com/flash" xmlns:xlink="http://www.w3.org/1999/xlink" ffdec:objectType="shape" height="29.05px" width="63.75px" xmlns="http://www.w3.org/2000/svg">
  <g transform="matrix(1.0, 0.0, 0.0, 1.0, -7.85, -19.6)">
    <path d="M43.8 23.35 Q43.2 22.8 43.2 22.0 43.2 21.25 43.85 20.7 44.45 20.15 45.55 20.2 L45.95 19.85 47.35 19.7 Q47.85 19.9 48.0 20.25 L48.5 20.2 49.65 20.65 49.9 20.9 Q50.7 21.8 50.15 22.95 L49.85 23.2 49.55 23.45 Q49.1 23.9 48.25 23.9 L48.2 25.5 49.2 25.15 50.4 25.1 52.2 25.15 52.6 25.4 53.25 26.0 54.05 27.15 54.5 28.0 55.65 29.55 55.9 29.8 56.1 30.15 56.3 30.5 56.55 30.7 57.3 31.15 58.45 31.45 58.5 31.85 60.9 31.65 62.4 31.15 66.3 29.3 67.15 28.95 68.35 28.15 Q68.55 28.0 68.8 27.95 L69.25 27.8 71.15 29.95 71.5 30.55 71.6 31.0 Q71.7 32.05 71.35 32.95 L70.45 34.35 68.85 35.5 68.0 35.8 67.35 36.1 66.75 36.4 64.55 37.65 62.8 38.55 Q61.6 39.15 60.55 39.9 L60.0 40.3 59.6 40.5 56.75 41.75 56.6 41.8 Q53.15 45.0 48.6 45.15 L48.6 45.2 48.5 45.35 Q47.55 46.05 46.4 46.2 L43.55 46.15 43.15 46.05 Q42.8 46.15 42.6 46.35 L42.65 46.35 42.05 47.2 41.85 47.6 41.65 47.9 41.6 47.95 41.55 48.0 40.95 48.45 40.7 48.55 39.85 48.65 39.0 48.55 38.8 48.45 38.2 48.0 38.15 48.0 37.9 47.6 37.7 47.2 37.1 46.35 36.6 46.05 36.2 46.15 36.15 46.15 33.35 46.2 Q32.25 46.05 31.3 45.4 26.8 45.05 23.05 42.0 L22.9 42.0 20.0 40.75 19.55 40.5 19.0 40.1 16.85 38.8 15.05 37.85 12.85 36.6 12.3 36.35 12.25 36.3 11.7 36.05 11.65 36.05 10.8 35.75 10.8 35.7 9.1 34.55 Q8.45 33.85 8.15 33.05 7.8 32.1 7.85 31.0 L8.0 30.45 8.0 30.5 8.4 29.8 Q9.25 28.6 10.35 27.65 L10.4 27.6 10.5 27.55 11.0 27.7 Q11.25 27.75 11.5 27.95 L12.7 28.75 13.5 29.1 17.45 30.9 17.4 30.9 18.9 31.4 21.0 31.6 21.05 31.4 21.1 31.25 21.25 31.2 22.3 30.9 23.0 30.5 23.05 30.5 23.25 30.35 23.4 30.05 23.65 29.65 23.7 29.6 23.9 29.4 23.9 29.35 25.0 27.9 25.5 27.0 26.25 25.9 26.3 25.85 26.95 25.2 Q27.15 25.0 27.45 24.9 L27.5 24.9 29.35 24.85 29.4 24.85 30.55 24.9 30.6 24.9 31.2 25.1 31.25 24.2 31.45 24.2 31.5 24.2 31.5 23.95 30.2 23.45 29.85 23.2 29.6 22.95 Q29.05 21.8 29.85 20.9 L30.05 20.65 31.2 20.2 31.7 20.25 32.35 19.7 33.8 19.85 34.2 20.2 Q35.3 20.15 35.9 20.7 36.5 21.25 36.55 22.0 36.55 22.8 35.95 23.35 35.4 23.85 34.6 23.95 L34.75 25.4 Q35.45 25.3 35.8 26.1 L35.85 26.15 35.9 26.35 Q40.1 24.35 44.05 26.45 L44.15 26.2 Q44.45 25.45 45.25 25.65 L45.4 23.95 Q44.4 23.9 43.8 23.35" fill="#000000" fill-opacity="0.2509804" fill-rule="evenodd" stroke="none"/>
  </g>
</svg>
