<?xml version="1.0" encoding="UTF-8" standalone="no"?>
<svg xmlns:ffdec="https://www.free-decompiler.com/flash" xmlns:xlink="http://www.w3.org/1999/xlink" ffdec:objectType="shape" height="58.6px" width="128.1px" xmlns="http://www.w3.org/2000/svg">
  <g transform="matrix(1.0, 0.0, 0.0, 1.0, 64.05, 25.4)">
    <path d="M44.25 -0.6 Q46.15 0.0 47.2 1.95 47.7 2.85 47.65 3.8 47.55 5.55 45.95 4.75 L44.95 3.9 Q43.8 2.25 43.15 0.45 43.05 0.1 43.35 -0.2 43.75 -0.6 44.25 -0.6 M41.65 6.05 Q40.95 7.9 39.55 6.45 L38.75 5.15 38.2 3.75 Q36.85 2.4 38.55 1.55 L38.85 1.4 Q40.95 2.35 41.7 4.85 L41.65 6.05 M-46.15 -1.1 Q-43.75 -0.35 -45.35 1.75 L-47.15 4.2 Q-48.5 6.0 -49.4 4.1 -49.8 3.35 -49.3 2.65 L-46.85 -0.7 Q-46.55 -1.1 -46.15 -1.1 M-39.45 0.4 Q-37.15 1.25 -38.8 3.25 L-39.95 5.15 Q-41.0 7.5 -42.7 5.9 -43.1 5.5 -42.85 4.95 -41.8 2.3 -39.75 0.55 L-39.45 0.4" fill="#222a2a" fill-rule="evenodd" stroke="none"/>
    <path d="M16.3 -23.65 Q16.75 -22.6 16.75 -21.35 L16.75 -16.3 16.7 -13.15 16.3 -13.0 Q14.9 -12.25 13.25 -12.05 11.9 -12.15 10.75 -12.8 L11.1 -16.2 Q11.25 -19.2 11.0 -22.15 10.95 -23.05 11.35 -23.7 L12.15 -24.45 Q13.55 -25.25 15.0 -24.7 15.95 -24.35 16.3 -23.65 M20.1 -3.65 L25.55 -4.15 28.1 -4.75 Q30.3 -4.0 28.2 -3.0 L26.65 -2.45 Q22.45 -1.05 18.25 -2.0 17.9 -2.05 17.95 -2.45 18.3 -3.85 20.1 -3.65 M-16.8 -13.2 L-16.75 -16.2 -16.75 -21.35 Q-16.75 -22.6 -16.3 -23.65 -15.95 -24.35 -15.0 -24.7 -13.55 -25.25 -12.15 -24.45 L-11.35 -23.75 Q-10.95 -23.1 -11.0 -22.15 L-11.05 -16.2 -10.7 -12.8 Q-11.9 -12.15 -13.25 -12.05 -14.9 -12.25 -16.3 -13.0 L-16.8 -13.2 M-29.35 -3.1 Q-29.95 -3.6 -29.4 -4.2 L-28.75 -4.5 Q-23.75 -3.25 -18.65 -3.05 L-18.3 -2.7 Q-17.95 -0.95 -20.05 -1.35 L-24.6 -1.85 -26.85 -2.0 Q-28.3 -2.2 -29.35 -3.1" fill="#687070" fill-rule="evenodd" stroke="none"/>
    <path d="M16.75 -16.3 L16.75 -21.35 Q16.75 -22.6 16.3 -23.65 L17.3 -23.7 19.6 -22.8 20.05 -22.35 Q21.65 -20.55 20.55 -18.25 L20.0 -17.75 19.35 -17.25 Q18.5 -16.35 16.75 -16.3 M11.35 -23.7 Q10.95 -23.05 11.0 -22.15 11.25 -19.2 11.1 -16.2 9.05 -16.3 7.85 -17.4 6.65 -18.55 6.7 -20.1 6.7 -21.65 7.95 -22.75 9.15 -23.85 11.35 -23.7 M-16.75 -16.2 Q-18.5 -16.35 -19.35 -17.25 L-20.0 -17.75 -20.55 -18.25 Q-21.65 -20.55 -20.05 -22.35 L-19.6 -22.8 -17.3 -23.7 -16.3 -23.65 Q-16.75 -22.6 -16.75 -21.35 L-16.75 -16.2 M-11.35 -23.75 Q-9.15 -23.85 -7.9 -22.75 -6.7 -21.65 -6.65 -20.1 -6.65 -18.55 -7.85 -17.4 -9.05 -16.3 -11.05 -16.2 L-11.0 -22.15 Q-10.95 -23.1 -11.35 -23.75" fill="#b4bdbd" fill-rule="evenodd" stroke="none"/>
    <path d="M26.75 -12.1 Q27.0 -9.6 26.65 -7.0 26.5 -5.85 25.8 -5.15 L20.7 -4.65 Q19.75 -7.0 20.7 -9.35 L20.9 -10.1 21.05 -13.95 24.65 -13.85 25.5 -13.35 26.75 -12.1 M-26.75 -12.1 L-25.5 -13.35 -24.65 -13.85 -21.0 -13.95 -20.9 -10.1 -20.7 -9.35 Q-19.75 -7.0 -20.7 -4.65 L-25.8 -5.15 Q-26.5 -5.85 -26.65 -7.0 -27.0 -9.6 -26.75 -12.1" fill="#182020" fill-rule="evenodd" stroke="none"/>
    <path d="M10.75 -12.8 Q11.9 -12.15 13.25 -12.05 14.9 -12.25 16.3 -13.0 L16.7 -13.15 18.7 -13.85 21.05 -13.95 20.9 -10.1 20.7 -9.35 Q19.75 -7.0 20.7 -4.65 L25.8 -5.15 Q26.5 -5.85 26.65 -7.0 27.0 -9.6 26.75 -12.1 L28.35 -9.85 29.3 -8.15 Q30.15 -6.55 31.55 -5.05 L32.05 -4.55 32.5 -3.8 32.9 -3.1 33.35 -2.75 32.15 -2.1 Q31.45 -1.6 30.45 -1.4 L28.2 -1.1 19.0 -0.4 17.9 -0.7 Q16.5 -1.25 15.35 -2.3 L14.3 -3.7 12.8 -6.2 12.4 -7.25 11.15 -7.95 Q10.7 -8.0 10.25 -8.3 L8.4 -9.1 Q8.15 -9.9 8.3 -10.75 L8.55 -11.7 Q9.2 -13.2 10.75 -12.8 M-8.25 -10.75 Q-8.15 -9.9 -8.4 -9.1 L-10.25 -8.3 Q-10.7 -8.0 -11.15 -7.95 L-12.4 -7.25 -12.75 -6.2 -14.3 -3.7 -15.35 -2.3 Q-16.5 -1.25 -17.9 -0.7 L-19.0 -0.4 -28.2 -1.1 -30.45 -1.4 Q-31.45 -1.6 -32.15 -2.1 L-33.35 -2.75 -32.9 -3.1 -32.5 -3.8 -32.05 -4.55 -31.55 -5.05 Q-30.15 -6.55 -29.3 -8.15 L-28.35 -9.85 -26.75 -12.1 Q-27.0 -9.6 -26.65 -7.0 -26.5 -5.85 -25.8 -5.15 L-20.7 -4.65 Q-19.75 -7.0 -20.7 -9.35 L-20.9 -10.1 -21.0 -13.95 -18.7 -13.85 -16.8 -13.2 -16.3 -13.0 Q-14.9 -12.25 -13.25 -12.05 -11.9 -12.15 -10.7 -12.8 -9.2 -13.2 -8.55 -11.7 L-8.25 -10.75 M18.35 -8.55 Q18.95 -8.65 19.3 -9.1 20.85 -10.75 18.5 -11.25 L15.3 -10.9 Q12.95 -10.95 13.05 -9.0 13.05 -8.65 13.35 -8.6 15.7 -8.05 18.35 -8.55 M20.1 -3.65 Q18.3 -3.85 17.95 -2.45 17.9 -2.05 18.25 -2.0 22.45 -1.05 26.65 -2.45 L28.2 -3.0 Q30.3 -4.0 28.1 -4.75 L25.55 -4.15 20.1 -3.65 M-29.35 -3.1 Q-28.3 -2.2 -26.85 -2.0 L-24.6 -1.85 -20.05 -1.35 Q-17.95 -0.95 -18.3 -2.7 L-18.65 -3.05 Q-23.75 -3.25 -28.75 -4.5 L-29.4 -4.2 Q-29.95 -3.6 -29.35 -3.1 M-11.95 -9.1 Q-11.55 -9.6 -12.05 -10.0 -14.05 -11.7 -17.1 -11.1 -18.35 -11.05 -18.45 -9.85 -18.6 -8.65 -17.35 -8.7 L-14.55 -8.3 Q-12.85 -7.8 -11.95 -9.1" fill="#1e292f" fill-rule="evenodd" stroke="none"/>
    <path d="M18.35 -8.55 Q15.7 -8.05 13.35 -8.6 13.05 -8.65 13.05 -9.0 12.95 -10.95 15.3 -10.9 L18.5 -11.25 Q20.85 -10.75 19.3 -9.1 18.95 -8.65 18.35 -8.55 M-11.95 -9.1 Q-12.85 -7.8 -14.55 -8.3 L-17.35 -8.7 Q-18.6 -8.65 -18.45 -9.85 -18.35 -11.05 -17.1 -11.1 -14.05 -11.7 -12.05 -10.0 -11.55 -9.6 -11.95 -9.1" fill="#101010" fill-rule="evenodd" stroke="none"/>
    <path d="M15.7 2.4 Q14.1 2.95 13.0 1.5 L12.3 0.6 Q11.1 -0.95 13.0 -1.5 15.65 -0.7 16.1 1.75 16.2 2.25 15.7 2.4 M14.15 8.7 Q12.5 9.05 11.15 7.85 L10.65 7.45 Q8.75 5.95 11.0 5.0 14.1 5.5 14.55 8.15 14.65 8.6 14.15 8.7 M-13.15 -1.35 Q-10.8 -0.65 -12.5 1.0 L-12.7 1.1 Q-13.85 2.95 -15.75 3.15 -16.3 3.2 -16.4 2.7 -16.8 0.9 -15.1 -0.35 L-14.1 -1.0 -13.15 -1.35 M-13.2 5.6 L-11.4 5.25 Q-8.85 5.95 -10.85 7.55 L-11.8 8.15 -14.9 8.25 Q-15.45 7.95 -15.25 7.35 -14.75 5.95 -13.2 5.6" fill="#381e12" fill-rule="evenodd" stroke="none"/>
    <path d="M-0.3 -7.3 L0.3 -7.3 Q2.8 -7.1 4.6 -5.25 6.65 -3.25 6.65 -0.3 6.65 2.6 4.6 4.65 2.55 6.65 -0.3 6.7 L-0.35 6.7 Q-3.25 6.7 -5.3 4.65 -7.1 2.85 -7.3 0.35 L-7.35 -0.3 -7.3 -0.95 Q-7.1 -3.45 -5.3 -5.25 -3.5 -7.1 -0.95 -7.3 L-0.35 -7.3 -0.3 -7.3 M-0.3 6.7 Q4.65 2.8 -0.45 -0.3 -5.55 -3.4 -0.35 -7.3 -5.55 -3.4 -0.45 -0.3 4.65 2.8 -0.3 6.7 M24.6 2.45 Q24.75 1.9 25.35 1.9 27.05 2.85 26.95 5.2 L27.05 7.0 Q27.7 11.15 27.25 15.2 27.25 15.55 26.85 15.55 24.9 15.6 24.9 13.45 24.9 10.5 24.35 7.6 23.8 4.95 24.6 2.45 M17.85 2.0 Q19.65 2.9 19.25 5.25 19.05 6.6 19.3 7.85 L19.55 9.6 Q19.8 12.0 19.4 14.3 19.3 14.85 18.7 14.8 16.9 14.7 17.0 12.7 L17.0 11.7 16.45 4.3 Q16.25 2.45 17.85 2.0" fill="#e04800" fill-rule="evenodd" stroke="none"/>
    <path d="M33.45 19.5 Q26.35 26.05 16.95 26.2 18.95 25.05 20.3 23.45 L23.1 20.6 Q24.8 18.95 27.3 18.95 L29.55 19.55 33.45 19.45 33.45 19.5 M-16.95 26.2 Q-25.95 25.6 -33.4 19.45 L-29.55 19.55 -27.3 18.95 Q-24.8 18.95 -23.1 20.6 L-20.3 23.45 Q-18.95 25.05 -16.95 26.2" fill="#8e9e7a" fill-rule="evenodd" stroke="none"/>
    <path d="M16.95 26.2 Q15.15 27.5 13.0 27.8 10.3 28.3 7.5 27.7 L6.55 27.5 Q19.2 24.5 7.5 9.95 9.8 11.3 12.05 12.9 14.9 15.05 15.75 18.5 L15.95 18.75 16.2 19.2 16.95 21.15 Q17.5 22.65 17.2 24.25 L16.95 26.2 M-6.5 27.5 L-7.5 27.7 Q-10.3 28.3 -13.0 27.8 -15.15 27.5 -16.95 26.2 L-17.2 24.25 Q-17.5 22.65 -16.95 21.15 L-16.2 19.2 -15.95 18.75 -15.75 18.5 Q-14.9 15.05 -12.05 12.9 -9.8 11.3 -7.5 9.95 -18.3 23.95 -6.5 27.5" fill="#280000" fill-rule="evenodd" stroke="none"/>
    <path d="M-7.5 9.95 L-2.8 19.45 -3.5 20.1 -3.75 21.35 -3.9 22.25 Q-4.3 24.85 -2.65 26.8 L-1.7 28.05 Q-1.3 28.75 -0.5 28.95 L0.0 28.95 0.5 28.95 Q1.3 28.75 1.7 28.05 L2.65 26.8 Q4.3 24.85 3.9 22.25 L3.75 21.35 3.5 20.1 2.85 19.45 7.5 9.95 Q5.95 26.15 3.05 31.5 L3.05 31.55 1.95 32.3 1.55 32.45 0.0 32.7 -1.55 32.45 -1.95 32.3 -3.0 31.55 Q-7.05 21.25 -7.5 9.95" fill="#bc420c" fill-rule="evenodd" stroke="none"/>
    <path d="M6.55 27.5 Q5.7 27.7 5.15 28.25 4.45 29.0 3.9 30.0 L3.5 30.85 3.05 31.5 Q5.95 26.15 7.5 9.95 19.2 24.5 6.55 27.5 M-3.0 31.55 L-3.5 30.85 -3.9 30.0 Q-4.45 29.0 -5.15 28.25 -5.7 27.7 -6.5 27.5 -18.3 23.95 -7.5 9.95 -7.05 21.25 -3.0 31.55" fill="#51260d" fill-rule="evenodd" stroke="none"/>
    <path d="M8.3 -10.75 Q8.15 -9.9 8.4 -9.1 L10.25 -8.3 Q10.7 -8.0 11.15 -7.95 L12.4 -7.25 12.8 -6.2 Q12.35 -3.7 11.3 -1.3 10.1 1.45 9.4 4.15 L7.5 9.95 2.85 19.45 Q1.7 21.45 0.0 22.95 -1.7 21.45 -2.8 19.45 L-7.5 9.95 -9.4 4.15 Q-10.1 1.45 -11.3 -1.3 -12.35 -3.7 -12.75 -6.2 L-12.4 -7.25 -11.15 -7.95 Q-10.7 -8.0 -10.25 -8.3 L-8.4 -9.1 Q-8.15 -9.9 -8.25 -10.75 0.3 -15.0 8.3 -10.75 M-0.35 -7.3 L-0.95 -7.3 Q-3.5 -7.1 -5.3 -5.25 -7.1 -3.45 -7.3 -0.95 L-7.35 -0.3 -7.3 0.35 Q-7.1 2.85 -5.3 4.65 -3.25 6.7 -0.35 6.7 L-0.3 6.7 Q2.55 6.65 4.6 4.65 6.65 2.6 6.65 -0.3 6.65 -3.25 4.6 -5.25 2.8 -7.1 0.3 -7.3 L-0.3 -7.3 -0.35 -7.3 -0.3 -7.3 -0.35 -7.3" fill="url(#gradient0)" fill-rule="evenodd" stroke="none"/>
    <path d="M12.8 -6.2 L14.3 -3.7 15.35 -2.3 Q16.5 -1.25 17.9 -0.7 L19.0 -0.4 28.2 -1.1 30.45 -1.4 Q31.45 -1.6 32.15 -2.1 L33.35 -2.75 34.9 -1.85 37.15 -1.25 37.25 -0.4 Q37.3 0.9 36.25 1.9 L32.1 6.25 Q30.8 7.75 30.25 9.55 L30.05 10.45 Q29.75 12.3 29.7 14.3 L29.9 15.3 Q31.15 17.75 33.45 19.45 L29.55 19.55 27.3 18.95 Q24.8 18.95 23.1 20.6 L20.3 23.45 Q18.95 25.05 16.95 26.2 L17.2 24.25 Q17.5 22.65 16.95 21.15 L16.2 19.2 15.95 18.75 15.75 18.5 Q14.9 15.05 12.05 12.9 9.8 11.3 7.5 9.95 L9.4 4.15 Q10.1 1.45 11.3 -1.3 12.35 -3.7 12.8 -6.2 M24.6 2.45 Q23.8 4.95 24.35 7.6 24.9 10.5 24.9 13.45 24.9 15.6 26.85 15.55 27.25 15.55 27.25 15.2 27.7 11.15 27.05 7.0 L26.95 5.2 Q27.05 2.85 25.35 1.9 24.75 1.9 24.6 2.45 M17.85 2.0 Q16.25 2.45 16.45 4.3 L17.0 11.7 17.0 12.7 Q16.9 14.7 18.7 14.8 19.3 14.85 19.4 14.3 19.8 12.0 19.55 9.6 L19.3 7.85 Q19.05 6.6 19.25 5.25 19.65 2.9 17.85 2.0 M14.15 8.7 Q14.65 8.6 14.55 8.15 14.1 5.5 11.0 5.0 8.75 5.95 10.65 7.45 L11.15 7.85 Q12.5 9.05 14.15 8.7 M15.7 2.4 Q16.2 2.25 16.1 1.75 15.65 -0.7 13.0 -1.5 11.1 -0.95 12.3 0.6 L13.0 1.5 Q14.1 2.95 15.7 2.4" fill="url(#gradient1)" fill-rule="evenodd" stroke="none"/>
    <path d="M37.25 -0.4 L42.05 -0.85 45.1 -1.85 52.9 -5.5 54.6 -6.25 57.0 -7.85 57.85 -8.25 58.75 -8.5 Q60.85 -6.6 62.55 -4.25 L63.25 -3.0 63.5 -2.1 Q63.65 -0.05 62.95 1.8 62.4 3.3 61.15 4.6 59.75 6.15 57.95 6.85 L56.25 7.5 55.0 8.05 Q54.35 8.3 53.75 8.65 L49.4 11.15 45.85 13.0 41.4 15.7 40.3 16.45 39.5 16.9 Q36.7 18.45 33.75 19.35 L33.45 19.45 Q31.15 17.75 29.9 15.3 L29.7 14.3 Q29.75 12.3 30.05 10.45 L30.25 9.55 Q30.8 7.75 32.1 6.25 L36.25 1.9 Q37.3 0.9 37.25 -0.4 M41.65 6.05 L41.7 4.85 Q40.95 2.35 38.85 1.4 L38.55 1.55 Q36.85 2.4 38.2 3.75 L38.75 5.15 39.55 6.45 Q40.95 7.9 41.65 6.05 M44.25 -0.6 Q43.75 -0.6 43.35 -0.2 43.05 0.1 43.15 0.45 43.8 2.25 44.95 3.9 L45.95 4.75 Q47.55 5.55 47.65 3.8 47.7 2.85 47.2 1.95 46.15 0.0 44.25 -0.6" fill="url(#gradient2)" fill-rule="evenodd" stroke="none"/>
    <path d="M-33.4 19.45 L-33.75 19.35 Q-36.7 18.45 -39.5 16.9 L-40.3 16.45 -41.4 15.7 -45.85 13.0 -49.4 11.15 -53.75 8.65 Q-54.35 8.3 -55.0 8.05 L-56.25 7.5 -57.95 6.85 Q-59.75 6.15 -61.15 4.6 -62.4 3.3 -62.95 1.8 -63.65 -0.05 -63.5 -2.1 L-63.25 -3.0 -62.55 -4.25 Q-60.85 -6.6 -58.75 -8.5 L-57.85 -8.25 -57.0 -7.85 -54.6 -6.25 -52.9 -5.5 -45.1 -1.85 -42.05 -0.85 -37.25 -0.4 Q-37.3 0.9 -36.25 1.9 L-32.1 6.25 Q-30.8 7.75 -30.25 9.55 L-30.05 10.45 Q-29.75 12.3 -29.7 14.3 L-29.9 15.3 Q-31.15 17.75 -33.4 19.45 M-46.15 -1.1 Q-46.55 -1.1 -46.85 -0.7 L-49.3 2.65 Q-49.8 3.35 -49.4 4.1 -48.5 6.0 -47.15 4.2 L-45.35 1.75 Q-43.75 -0.35 -46.15 -1.1 M-39.45 0.4 L-39.75 0.55 Q-41.8 2.3 -42.85 4.95 -43.1 5.5 -42.7 5.9 -41.0 7.5 -39.95 5.15 L-38.8 3.25 Q-37.15 1.25 -39.45 0.4" fill="url(#gradient3)" fill-rule="evenodd" stroke="none"/>
    <path d="M-12.75 -6.2 Q-12.35 -3.7 -11.3 -1.3 -10.1 1.45 -9.4 4.15 L-7.5 9.95 Q-9.8 11.3 -12.05 12.9 -14.9 15.05 -15.75 18.5 L-15.95 18.75 -16.2 19.2 -16.95 21.15 Q-17.5 22.65 -17.2 24.25 L-16.95 26.2 Q-18.95 25.05 -20.3 23.45 L-23.1 20.6 Q-24.8 18.95 -27.3 18.95 L-29.55 19.55 -33.4 19.45 Q-31.15 17.75 -29.9 15.3 L-29.7 14.3 Q-29.75 12.3 -30.05 10.45 L-30.25 9.55 Q-30.8 7.75 -32.1 6.25 L-36.25 1.9 Q-37.3 0.9 -37.25 -0.4 L-37.15 -1.25 -34.9 -1.85 -33.35 -2.75 -32.15 -2.1 Q-31.45 -1.6 -30.45 -1.4 L-28.2 -1.1 -19.0 -0.4 -17.9 -0.7 Q-16.5 -1.25 -15.35 -2.3 L-14.3 -3.7 -12.75 -6.2 M-13.2 5.6 Q-14.75 5.95 -15.25 7.35 -15.45 7.95 -14.9 8.25 L-11.8 8.15 -10.85 7.55 Q-8.85 5.95 -11.4 5.25 L-13.2 5.6 M-13.15 -1.35 L-14.1 -1.0 -15.1 -0.35 Q-16.8 0.9 -16.4 2.7 -16.3 3.2 -15.75 3.15 -13.85 2.95 -12.7 1.1 L-12.5 1.0 Q-10.8 -0.65 -13.15 -1.35" fill="url(#gradient4)" fill-rule="evenodd" stroke="none"/>
    <path d="M-2.8 19.45 Q-1.7 21.45 0.0 22.95 1.7 21.45 2.85 19.45 L3.5 20.1 3.75 21.35 3.9 22.25 Q4.3 24.85 2.65 26.8 L1.7 28.05 Q1.3 28.75 0.5 28.95 L0.0 28.95 -0.5 28.95 Q-1.3 28.75 -1.7 28.05 L-2.65 26.8 Q-4.3 24.85 -3.9 22.25 L-3.75 21.35 -3.5 20.1 -2.8 19.45 M0.0 28.95 L0.0 22.95 0.0 28.95" fill="#0052b5" fill-rule="evenodd" stroke="none"/>
    <path d="M16.3 -23.65 Q16.75 -22.6 16.75 -21.35 L16.75 -16.3 Q18.5 -16.35 19.35 -17.25 L20.0 -17.75 20.55 -18.25 Q21.65 -20.55 20.05 -22.35 L19.6 -22.8 17.3 -23.7 16.3 -23.65 Q15.95 -24.35 15.0 -24.7 13.55 -25.25 12.15 -24.45 L11.35 -23.7 Q10.95 -23.05 11.0 -22.15 11.25 -19.2 11.1 -16.2 L10.75 -12.8 Q11.9 -12.15 13.25 -12.05 14.9 -12.25 16.3 -13.0 L16.7 -13.15 16.75 -16.3 M21.05 -13.95 L18.7 -13.85 16.7 -13.15 M11.1 -16.2 Q9.05 -16.3 7.85 -17.4 6.65 -18.55 6.7 -20.1 6.7 -21.65 7.95 -22.75 9.15 -23.85 11.35 -23.7 M8.3 -10.75 Q8.15 -9.9 8.4 -9.1 L10.25 -8.3 Q10.7 -8.0 11.15 -7.95 L12.4 -7.25 12.8 -6.2 14.3 -3.7 15.35 -2.3 Q16.5 -1.25 17.9 -0.7 L19.0 -0.4 28.2 -1.1 30.45 -1.4 Q31.45 -1.6 32.15 -2.1 L33.35 -2.75 32.9 -3.1 32.5 -3.8 32.05 -4.55 31.55 -5.05 Q30.15 -6.55 29.3 -8.15 L28.35 -9.85 26.75 -12.1 Q27.0 -9.6 26.65 -7.0 26.5 -5.85 25.8 -5.15 L20.7 -4.65 Q19.75 -7.0 20.7 -9.35 L20.9 -10.1 21.05 -13.95 24.65 -13.85 25.5 -13.35 26.75 -12.1 M10.75 -12.8 Q9.2 -13.2 8.55 -11.7 L8.3 -10.75 M-8.25 -10.75 Q-8.15 -9.9 -8.4 -9.1 L-10.25 -8.3 Q-10.7 -8.0 -11.15 -7.95 L-12.4 -7.25 -12.75 -6.2 Q-12.35 -3.7 -11.3 -1.3 -10.1 1.45 -9.4 4.15 L-7.5 9.95 -2.8 19.45 Q-1.7 21.45 0.0 22.95 1.7 21.45 2.85 19.45 L7.5 9.95 9.4 4.15 Q10.1 1.45 11.3 -1.3 12.35 -3.7 12.8 -6.2 M33.35 -2.75 L34.9 -1.85 37.15 -1.25 37.25 -0.4 42.05 -0.85 45.1 -1.85 52.9 -5.5 54.6 -6.25 57.0 -7.85 57.85 -8.25 58.75 -8.5 Q60.85 -6.6 62.55 -4.25 L63.25 -3.0 63.5 -2.1 Q63.65 -0.05 62.95 1.8 62.4 3.3 61.15 4.6 59.75 6.15 57.95 6.85 L56.25 7.5 55.0 8.05 Q54.35 8.3 53.75 8.65 L49.4 11.15 45.85 13.0 41.4 15.7 40.3 16.45 39.5 16.9 Q36.7 18.45 33.75 19.35 L33.45 19.45 Q31.15 17.75 29.9 15.3 L29.7 14.3 Q29.75 12.3 30.05 10.45 L30.25 9.55 Q30.8 7.75 32.1 6.25 L36.25 1.9 Q37.3 0.9 37.25 -0.4 M16.95 26.2 Q15.15 27.5 13.0 27.8 10.3 28.3 7.5 27.7 L6.55 27.5 Q5.7 27.7 5.15 28.25 4.45 29.0 3.9 30.0 L3.5 30.85 3.05 31.5 3.05 31.55 1.95 32.3 1.55 32.45 0.0 32.7 -1.55 32.45 -1.95 32.3 -3.0 31.55 -3.5 30.85 -3.9 30.0 Q-4.45 29.0 -5.15 28.25 -5.7 27.7 -6.5 27.5 L-7.5 27.7 Q-10.3 28.3 -13.0 27.8 -15.15 27.5 -16.95 26.2 -18.95 25.05 -20.3 23.45 L-23.1 20.6 Q-24.8 18.95 -27.3 18.95 L-29.55 19.55 -33.4 19.45 Q-31.15 17.75 -29.9 15.3 L-29.7 14.3 Q-29.75 12.3 -30.05 10.45 L-30.25 9.55 Q-30.8 7.75 -32.1 6.25 L-36.25 1.9 Q-37.3 0.9 -37.25 -0.4 L-37.15 -1.25 -34.9 -1.85 -33.35 -2.75 -32.9 -3.1 -32.5 -3.8 -32.05 -4.55 -31.55 -5.05 Q-30.15 -6.55 -29.3 -8.15 L-28.35 -9.85 -26.75 -12.1 -25.5 -13.35 -24.65 -13.85 -21.0 -13.95 -18.7 -13.85 -16.8 -13.2 -16.75 -16.2 Q-18.5 -16.35 -19.35 -17.25 L-20.0 -17.75 -20.55 -18.25 Q-21.65 -20.55 -20.05 -22.35 L-19.6 -22.8 -17.3 -23.7 -16.3 -23.65 Q-15.95 -24.35 -15.0 -24.7 -13.55 -25.25 -12.15 -24.45 L-11.35 -23.75 Q-9.15 -23.85 -7.9 -22.75 -6.7 -21.65 -6.65 -20.1 -6.65 -18.55 -7.85 -17.4 -9.05 -16.3 -11.05 -16.2 L-10.7 -12.8 Q-9.2 -13.2 -8.55 -11.7 L-8.25 -10.75 M-33.4 19.45 L-33.75 19.35 Q-36.7 18.45 -39.5 16.9 L-40.3 16.45 -41.4 15.7 -45.85 13.0 -49.4 11.15 -53.75 8.65 Q-54.35 8.3 -55.0 8.05 L-56.25 7.5 -57.95 6.85 Q-59.75 6.15 -61.15 4.6 -62.4 3.3 -62.95 1.8 -63.65 -0.05 -63.5 -2.1 L-63.25 -3.0 -62.55 -4.25 Q-60.85 -6.6 -58.75 -8.5 L-57.85 -8.25 -57.0 -7.85 -54.6 -6.25 -52.9 -5.5 -45.1 -1.85 -42.05 -0.85 -37.25 -0.4 M16.95 26.2 Q18.95 25.05 20.3 23.45 L23.1 20.6 Q24.8 18.95 27.3 18.95 L29.55 19.55 33.45 19.45 M2.85 19.45 L3.5 20.1 3.75 21.35 3.9 22.25 Q4.3 24.85 2.65 26.8 L1.7 28.05 Q1.3 28.75 0.5 28.95 L0.0 28.95 -0.5 28.95 Q-1.3 28.75 -1.7 28.05 L-2.65 26.8 Q-4.3 24.85 -3.9 22.25 L-3.75 21.35 -3.5 20.1 -2.8 19.45 M7.5 9.95 Q9.8 11.3 12.05 12.9 14.9 15.05 15.75 18.5 L15.95 18.75 16.2 19.2 16.95 21.15 Q17.5 22.65 17.2 24.25 L16.95 26.2 M-33.35 -2.75 L-32.15 -2.1 Q-31.45 -1.6 -30.45 -1.4 L-28.2 -1.1 -19.0 -0.4 -17.9 -0.7 Q-16.5 -1.25 -15.35 -2.3 L-14.3 -3.7 -12.75 -6.2 M-21.0 -13.95 L-20.9 -10.1 -20.7 -9.35 Q-19.75 -7.0 -20.7 -4.65 L-25.8 -5.15 Q-26.5 -5.85 -26.65 -7.0 -27.0 -9.6 -26.75 -12.1 M-11.05 -16.2 L-11.0 -22.15 Q-10.95 -23.1 -11.35 -23.75 M-16.3 -23.65 Q-16.75 -22.6 -16.75 -21.35 L-16.75 -16.2 M-10.7 -12.8 Q-11.9 -12.15 -13.25 -12.05 -14.9 -12.25 -16.3 -13.0 L-16.8 -13.2 M-7.5 9.95 Q-9.8 11.3 -12.05 12.9 -14.9 15.05 -15.75 18.5 L-15.95 18.75 -16.2 19.2 -16.95 21.15 Q-17.5 22.65 -17.2 24.25 L-16.95 26.2" fill="none" stroke="#000000" stroke-linecap="round" stroke-linejoin="round" stroke-width="1.0"/>
    <path d="M-0.3 -7.3 L0.3 -7.3 Q2.8 -7.1 4.6 -5.25 6.65 -3.25 6.65 -0.3 6.65 2.6 4.6 4.65 2.55 6.65 -0.3 6.7 L-0.35 6.7 Q-3.25 6.7 -5.3 4.65 -7.1 2.85 -7.3 0.35 L-7.35 -0.3 -7.3 -0.95 Q-7.1 -3.45 -5.3 -5.25 -3.5 -7.1 -0.95 -7.3 L-0.35 -7.3 -0.3 -7.3 -0.35 -7.3 Q-5.55 -3.4 -0.45 -0.3 4.65 2.8 -0.3 6.7" fill="none" stroke="#532210" stroke-linecap="round" stroke-linejoin="round" stroke-width="2.0"/>
    <path d="M8.3 -10.75 Q0.3 -15.0 -8.25 -10.75 M33.45 19.45 L33.45 19.5 Q26.35 26.05 16.95 26.2 M-16.95 26.2 Q-25.95 25.6 -33.4 19.45 M0.0 22.95 L0.0 28.95 M7.5 9.95 Q5.95 26.15 3.05 31.5 M6.55 27.5 Q19.2 24.5 7.5 9.95 M-3.0 31.55 Q-7.05 21.25 -7.5 9.95 -18.3 23.95 -6.5 27.5" fill="none" stroke="#000000" stroke-linecap="round" stroke-linejoin="round" stroke-width="1.0"/>
    <path d="M2.25 11.45 L2.3 11.45 Q2.85 11.75 2.75 12.5 L2.65 13.9 2.5 17.1 2.4 17.2 Q1.75 17.25 1.8 16.5 L1.85 15.2 2.1 11.6 Q2.1 11.45 2.25 11.45 M-1.9 12.9 L-1.95 13.85 Q-1.9 15.3 -2.15 16.75 -2.1 17.55 -2.8 17.1 L-2.95 16.8 -2.55 11.9 -2.3 11.65 Q-1.7 12.0 -1.9 12.9" fill="#101010" fill-rule="evenodd" stroke="none"/>
  </g>
  <defs>
    <radialGradient cx="0" cy="0" gradientTransform="matrix(0.0155, 0.0, 0.0, 0.0302, 0.25, 2.9)" gradientUnits="userSpaceOnUse" id="gradient0" r="819.2" spreadMethod="pad">
      <stop offset="0.15294117647058825" stop-color="#e04800"/>
      <stop offset="0.8156862745098039" stop-color="#4d2011"/>
    </radialGradient>
    <linearGradient gradientTransform="matrix(-0.0182, 0.0, 0.0, -0.0198, 22.4, 10.0)" gradientUnits="userSpaceOnUse" id="gradient1" spreadMethod="pad" x1="-819.2" x2="819.2">
      <stop offset="0.21176470588235294" stop-color="#9c2e00"/>
      <stop offset="0.8156862745098039" stop-color="#280000"/>
    </linearGradient>
    <linearGradient gradientTransform="matrix(0.0033, 0.0056, -0.0201, 0.0116, 46.15, 5.2)" gradientUnits="userSpaceOnUse" id="gradient2" spreadMethod="pad" x1="-819.2" x2="819.2">
      <stop offset="0.15294117647058825" stop-color="#60696b"/>
      <stop offset="0.4823529411764706" stop-color="#283848"/>
      <stop offset="0.8156862745098039" stop-color="#502010"/>
    </linearGradient>
    <linearGradient gradientTransform="matrix(-0.0031, 0.0054, -0.0202, -0.0116, -46.05, 5.25)" gradientUnits="userSpaceOnUse" id="gradient3" spreadMethod="pad" x1="-819.2" x2="819.2">
      <stop offset="0.15294117647058825" stop-color="#60696b"/>
      <stop offset="0.4823529411764706" stop-color="#283848"/>
      <stop offset="0.8156862745098039" stop-color="#502010"/>
    </linearGradient>
    <linearGradient gradientTransform="matrix(0.0182, 0.0, 0.0, 0.0198, -22.4, 10.0)" gradientUnits="userSpaceOnUse" id="gradient4" spreadMethod="pad" x1="-819.2" x2="819.2">
      <stop offset="0.21176470588235294" stop-color="#9c2e00"/>
      <stop offset="0.8156862745098039" stop-color="#280000"/>
    </linearGradient>
  </defs>
</svg>
