<?xml version="1.0" encoding="UTF-8" standalone="no"?>
<svg xmlns:ffdec="https://www.free-decompiler.com/flash" xmlns:xlink="http://www.w3.org/1999/xlink" ffdec:objectType="shape" height="18.6px" width="30.25px" xmlns="http://www.w3.org/2000/svg">
  <g transform="matrix(1.0, 0.0, 0.0, 1.0, -14.9, -23.75)">
    <path d="M24.4 24.4 L27.45 24.2 31.4 25.15 35.65 24.4 36.8 26.55 Q41.45 28.95 40.45 23.8 L43.4 23.85 Q48.4 36.15 39.3 41.45 39.65 38.15 36.7 38.8 37.3 41.75 35.4 41.0 32.95 39.65 32.6 40.4 31.9 42.0 30.1 42.35 L25.5 40.3 Q24.3 41.95 23.85 40.75 23.45 39.7 23.35 38.6 20.6 37.5 20.9 39.9 L20.85 41.05 Q12.1 37.55 16.25 24.3 L19.55 23.75 Q18.05 28.05 21.5 27.05 L24.4 24.4" fill="#000000" fill-opacity="0.2509804" fill-rule="evenodd" stroke="none"/>
  </g>
</svg>
