<?xml version="1.0" encoding="UTF-8" standalone="no"?>
<svg xmlns:ffdec="https://www.free-decompiler.com/flash" xmlns:xlink="http://www.w3.org/1999/xlink" ffdec:objectType="shape" height="26.05px" width="28.8px" xmlns="http://www.w3.org/2000/svg">
  <g transform="matrix(1.0, 0.0, 0.0, 1.0, 14.45, 13.1)">
    <path d="M-9.1 -10.65 L-1.9 -10.65 -3.15 -5.65 -6.9 -2.5 -6.9 -0.65 -10.65 -0.65 Q-10.65 -2.2 -11.35 -3.3 -12.1 -4.4 -13.15 -4.4 -13.15 -7.0 -11.3 -8.8 L-9.1 -10.65" fill="#7da95a" fill-rule="evenodd" stroke="none"/>
    <path d="M-9.1 -10.65 L-6.9 -12.5 Q1.1 -14.1 8.75 -11.35 L10.6 -10.65 6.85 -9.4 5.6 -9.4 -0.65 -10.65 -1.9 -10.65 -9.1 -10.65" fill="#507838" fill-rule="evenodd" stroke="none"/>
    <path d="M-6.9 -0.65 L-6.9 -2.5 -3.15 -5.65 -1.9 -5.65 -0.65 4.35 -4.4 4.35 -6.9 -0.65" fill="#485850" fill-rule="evenodd" stroke="none"/>
    <path d="M-1.9 -10.65 L-0.65 -10.65 -0.65 -5.65 -1.9 -5.65 -3.15 -5.65 -1.9 -10.65" fill="#a8b8b0" fill-rule="evenodd" stroke="none"/>
    <path d="M-0.65 -10.65 L5.6 -9.4 Q5.6 -7.85 3.8 -6.75 1.95 -5.65 -0.65 -5.65 L-0.65 -10.65" fill="#78a8a8" fill-rule="evenodd" stroke="none"/>
    <path d="M5.6 -9.4 L6.85 -9.4 9.35 4.35 -0.65 4.35 -1.9 -5.65 -0.65 -5.65 Q1.95 -5.65 3.8 -6.75 5.6 -7.85 5.6 -9.4 M-6.9 -0.65 L-4.4 4.35 Q-8.0 6.3 -12.15 5.8 L-13.15 5.6 -13.2 4.6 -12.6 4.2 Q-10.25 2.35 -10.65 -0.65 L-6.9 -0.65" fill="#305020" fill-rule="evenodd" stroke="none"/>
    <path d="M6.85 -9.4 L10.6 -10.65 14.35 -10.65 9.35 4.35 6.85 -9.4" fill="#185068" fill-rule="evenodd" stroke="none"/>
    <path d="M14.35 -10.65 L14.3 -8.7 Q11.15 25.1 -13.85 6.15 L-13.15 5.6 -12.15 5.8 Q-8.0 6.3 -4.4 4.35 L-0.65 4.35 9.35 4.35 14.35 -10.65" fill="#203808" fill-rule="evenodd" stroke="none"/>
    <path d="M-13.85 6.15 Q-15.15 1.55 -13.6 -3.0 L-13.15 -4.4 Q-12.1 -4.4 -11.35 -3.3 -10.65 -2.2 -10.65 -0.65 -10.25 2.35 -12.6 4.2 L-13.2 4.6 -13.15 5.6 -13.85 6.15" fill="#4b7234" fill-rule="evenodd" stroke="none"/>
  </g>
</svg>
