<?xml version="1.0" encoding="UTF-8" standalone="no"?>
<svg xmlns:ffdec="https://www.free-decompiler.com/flash" xmlns:xlink="http://www.w3.org/1999/xlink" ffdec:objectType="shape" height="25.15px" width="27.0px" xmlns="http://www.w3.org/2000/svg">
  <g transform="matrix(1.0, 0.0, 0.0, 1.0, 13.55, 12.55)">
    <path d="M-8.55 -8.55 L-7.55 -4.55 -7.55 -3.55 -12.55 0.45 -12.55 -2.05 -8.55 -8.55 M-0.55 -7.55 L-7.55 -11.55 3.45 -12.55 1.45 -10.05 1.45 -7.55 0.45 -7.55 -0.55 -7.55" fill="#507838" fill-rule="evenodd" stroke="none"/>
    <path d="M-8.55 -8.55 L-7.55 -11.55 -0.55 -7.55 -7.55 -4.55 -8.55 -8.55" fill="#b8d0d8" fill-rule="evenodd" stroke="none"/>
    <path d="M-8.55 8.45 L-13.55 3.45 -12.55 0.45 -7.55 -3.55 -3.55 4.45 0.45 -7.55 1.45 -7.55 10.45 -4.55 Q11.25 -6.2 11.4 -4.05 L11.45 -3.55 Q11.45 -0.25 7.05 2.1 2.65 4.45 -3.55 4.45 L-8.55 8.45" fill="#305020" fill-rule="evenodd" stroke="none"/>
    <path d="M-7.55 -4.55 L-0.55 -7.55 0.45 -7.55 -3.55 4.45 -7.55 -3.55 -7.55 -4.55" fill="#485850" fill-rule="evenodd" stroke="none"/>
    <path d="M3.45 -12.55 L6.45 -11.55 10.45 -4.55 1.45 -7.55 1.45 -10.05 3.45 -12.55" fill="#47574e" fill-rule="evenodd" stroke="none"/>
    <path d="M13.45 -4.55 Q13.55 4.35 8.45 11.45 L7.35 11.75 Q-1.45 14.45 -8.55 8.45 L-3.55 4.45 Q2.65 4.45 7.05 2.1 11.45 -0.25 11.45 -3.55 L13.45 -4.55" fill="#203808" fill-rule="evenodd" stroke="none"/>
    <path d="M6.45 -11.55 Q9.35 -11.55 11.4 -9.5 13.45 -7.45 13.45 -4.55 L11.45 -3.55 11.4 -4.05 Q11.25 -6.2 10.45 -4.55 L6.45 -11.55" fill="#2f4d1f" fill-rule="evenodd" stroke="none"/>
  </g>
</svg>
