<?xml version="1.0" encoding="UTF-8" standalone="no"?>
<svg xmlns:ffdec="https://www.free-decompiler.com/flash" xmlns:xlink="http://www.w3.org/1999/xlink" ffdec:objectType="shape" height="26.3px" width="29.0px" xmlns="http://www.w3.org/2000/svg">
  <g transform="matrix(1.0, 0.0, 0.0, 1.0, 14.25, 13.15)">
    <path d="M1.75 -7.65 L3.75 -13.15 10.8 -6.4 14.75 -1.15 6.75 -3.65 1.75 -7.65 M-10.25 0.35 Q-10.25 1.4 -9.65 2.15 -9.1 2.85 -8.25 2.85 L-8.25 4.35 -12.25 4.35 -12.25 1.85 -10.25 0.35" fill="#305020" fill-rule="evenodd" stroke="none"/>
    <path d="M0.75 -7.65 L-0.25 -7.65 -3.25 -10.15 3.75 -13.15 1.75 -7.65 0.75 -7.65" fill="#507838" fill-rule="evenodd" stroke="none"/>
    <path d="M0.75 -7.65 L1.75 -7.65 6.75 -3.65 14.75 -1.15 14.75 0.35 Q10.05 10.3 1.45 12.6 -6.3 14.7 -11.7 9.05 -13.6 7.05 -14.25 4.35 L-12.25 4.35 -8.25 4.35 -7.6 4.6 Q-2.75 6.05 -3.25 0.35 L0.75 -7.65" fill="#203808" fill-rule="evenodd" stroke="none"/>
    <path d="M-0.25 -7.65 L0.75 -7.65 -3.25 0.35 -5.25 -3.65 -0.25 -7.65" fill="#b8d0d8" fill-rule="evenodd" stroke="none"/>
    <path d="M-14.25 4.35 L-13.5 0.8 Q-11.7 -6.5 -5.25 -10.15 L-6.25 -3.65 Q-7.9 -3.65 -9.1 -2.45 -10.25 -1.3 -10.25 0.35 L-12.25 1.85 -12.25 4.35 -14.25 4.35" fill="#50723c" fill-rule="evenodd" stroke="none"/>
    <path d="M-5.25 -3.65 L-3.25 0.35 -8.25 2.85 Q-9.1 2.85 -9.65 2.15 -10.25 1.4 -10.25 0.35 -10.25 -1.3 -9.1 -2.45 -7.9 -3.65 -6.25 -3.65 L-5.25 -3.65" fill="#485850" fill-rule="evenodd" stroke="none"/>
    <path d="M-3.25 -10.15 L-0.25 -7.65 -5.25 -3.65 -6.25 -3.65 -5.25 -10.15 -3.25 -10.15" fill="#76a54e" fill-rule="evenodd" stroke="none"/>
    <path d="M-8.25 2.85 L-3.25 0.35 Q-2.75 6.05 -7.6 4.6 L-8.25 4.35 -8.25 2.85" fill="#185068" fill-rule="evenodd" stroke="none"/>
  </g>
</svg>
