<?xml version="1.0" encoding="UTF-8" standalone="no"?>
<svg xmlns:ffdec="https://www.free-decompiler.com/flash" xmlns:xlink="http://www.w3.org/1999/xlink" ffdec:objectType="shape" height="22.85px" width="26.2px" xmlns="http://www.w3.org/2000/svg">
  <g transform="matrix(1.0, 0.0, 0.0, 1.0, 12.95, 11.4)">
    <path d="M-5.9 -2.25 L3.1 -3.25 13.1 0.75 Q3.9 19.3 -10.95 5.7 L-11.9 4.75 -4.6 7.25 Q-2.9 3.6 -5.9 -0.75 L-5.9 -2.25" fill="#203808" fill-rule="evenodd" stroke="none"/>
    <path d="M3.1 -3.25 L4.1 -11.25 5.3 -11.0 Q14.35 -8.7 13.1 0.75 L3.1 -3.25" fill="#305020" fill-rule="evenodd" stroke="none"/>
    <path d="M-5.9 -2.25 L-6.9 -10.25 Q-1.5 -11.75 4.1 -11.25 L3.1 -3.25 -5.9 -2.25" fill="#77a64f" fill-rule="evenodd" stroke="none"/>
    <path d="M-6.9 -10.25 L-5.9 -2.25 -5.9 -0.75 -11.9 1.75 -11.9 3.25 -12.95 1.25 -6.9 -10.25" fill="#48594e" fill-rule="evenodd" stroke="none"/>
    <path d="M-11.9 3.25 L-11.9 1.75 -5.9 -0.75 Q-2.9 3.6 -4.6 7.25 L-11.9 4.75 -11.9 3.25" fill="#185068" fill-rule="evenodd" stroke="none"/>
  </g>
</svg>
