<?xml version="1.0" encoding="UTF-8" standalone="no"?>
<svg xmlns:ffdec="https://www.free-decompiler.com/flash" xmlns:xlink="http://www.w3.org/1999/xlink" ffdec:objectType="shape" height="23.2px" width="25.9px" xmlns="http://www.w3.org/2000/svg">
  <g transform="matrix(1.0, 0.0, 0.0, 1.0, 12.8, 11.6)">
    <path d="M3.85 -10.1 L6.65 -11.6 7.95 -11.1 6.85 -2.1 -0.15 -8.6 0.45 -8.5 Q2.75 -7.9 3.85 -10.1" fill="#48594f" fill-rule="evenodd" stroke="none"/>
    <path d="M-0.15 -8.6 L6.85 -2.1 6.8 -0.7 5.85 -0.6 -2.15 1.9 -2.15 3.4 -6.15 3.4 -7.15 3.4 -8.15 -0.6 -8.15 -2.1 -0.15 -8.6" fill="#78a850" fill-rule="evenodd" stroke="none"/>
    <path d="M7.95 -11.1 L10.2 -8.9 Q15.25 -3.7 11.5 2.1 1.25 18.0 -12.8 7.35 L-12.15 7.25 -11.15 6.9 -10.45 5.2 -7.15 3.4 -6.15 3.4 -4.65 6.9 -4.15 6.95 -3.75 6.6 Q-2.3 5.35 -2.15 3.4 L-1.3 3.9 Q5.2 7.2 5.85 -0.6 L6.8 -0.7 6.85 -2.1 7.95 -11.1" fill="#203808" fill-rule="evenodd" stroke="none"/>
    <path d="M-12.8 7.35 L-10.2 -5.1 Q-8.1 -5.1 -6.65 -6.1 -5.15 -7.15 -5.15 -8.6 L3.85 -10.1 Q2.75 -7.9 0.45 -8.5 L-0.15 -8.6 -8.15 -2.1 -8.15 -0.6 -12.15 4.4 -12.15 7.25 -12.8 7.35" fill="#507838" fill-rule="evenodd" stroke="none"/>
    <path d="M-2.15 3.4 L-2.15 1.9 5.85 -0.6 Q5.2 7.2 -1.3 3.9 L-2.15 3.4 Q-2.3 5.35 -3.75 6.6 L-4.15 6.95 -4.65 6.9 -6.15 3.4 -2.15 3.4" fill="#185068" fill-rule="evenodd" stroke="none"/>
    <path d="M-10.2 -5.1 L-10.15 -6.1 -5.15 -8.6 Q-5.15 -7.15 -6.65 -6.1 -8.1 -5.1 -10.2 -5.1" fill="#8c8c87" fill-rule="evenodd" stroke="none"/>
    <path d="M-7.15 3.4 L-10.45 5.2 -11.15 6.9 -12.15 7.25 -12.15 4.4 -8.15 -0.6 -7.15 3.4" fill="#485850" fill-rule="evenodd" stroke="none"/>
  </g>
</svg>
