<?xml version="1.0" encoding="UTF-8" standalone="no"?>
<svg xmlns:ffdec="https://www.free-decompiler.com/flash" xmlns:xlink="http://www.w3.org/1999/xlink" ffdec:objectType="shape" height="25.35px" width="26.95px" xmlns="http://www.w3.org/2000/svg">
  <g transform="matrix(1.0, 0.0, 0.0, 1.0, 13.55, 12.65)">
    <path d="M-12.6 0.75 Q-12.25 -4.45 -10.1 -9.1 -9.35 -9.4 -8.6 -9.75 L-7.6 -4.75 -12.6 0.75" fill="#507838" fill-rule="evenodd" stroke="none"/>
    <path d="M-12.6 0.75 L-7.6 -4.75 -5.6 4.75 -12.9 2.35 -12.6 0.75" fill="#485850" fill-rule="evenodd" stroke="none"/>
    <path d="M-7.6 -4.75 L-8.6 -9.75 -6.6 -9.75 0.4 -7.25 -0.6 -7.25 -7.6 -4.75" fill="#7aa855" fill-rule="evenodd" stroke="none"/>
    <path d="M5.65 -11.5 L8.15 -11.0 13.4 -4.75 11.4 -4.75 8.4 -5.75 5.65 -11.5" fill="#314f23" fill-rule="evenodd" stroke="none"/>
    <path d="M8.4 -5.75 L11.4 -4.75 4.4 2.25 0.4 -7.25 8.4 -5.75" fill="#48584f" fill-rule="evenodd" stroke="none"/>
    <path d="M-6.6 -9.75 L2.4 -12.65 5.65 -11.5 8.4 -5.75 0.4 -7.25 -6.6 -9.75" fill="#52783b" fill-rule="evenodd" stroke="none"/>
    <path d="M-0.6 -7.25 L0.4 -7.25 4.4 2.25 -4.6 4.75 -0.6 -7.25" fill="#78a850" fill-rule="evenodd" stroke="none"/>
    <path d="M-4.6 4.75 L-5.6 4.75 -7.6 -4.75 -0.6 -7.25 -4.6 4.75" fill="#a8b8b0" fill-rule="evenodd" stroke="none"/>
    <path d="M-11.45 8.8 Q-14.75 6.65 -12.9 2.35 L-5.6 4.75 -4.6 4.75 -11.45 8.8" fill="#335026" fill-rule="evenodd" stroke="none"/>
    <path d="M13.4 -4.75 Q12.85 14.4 -3.55 12.55 -8.1 12.05 -11.45 8.8 L-4.6 4.75 4.4 2.25 11.4 -4.75 13.4 -4.75" fill="#1f3509" fill-rule="evenodd" stroke="none"/>
  </g>
</svg>
