<?xml version="1.0" encoding="UTF-8" standalone="no"?>
<svg xmlns:ffdec="https://www.free-decompiler.com/flash" xmlns:xlink="http://www.w3.org/1999/xlink" ffdec:objectType="shape" height="25.0px" width="27.55px" xmlns="http://www.w3.org/2000/svg">
  <g transform="matrix(1.0, 0.0, 0.0, 1.0, 13.85, 12.5)">
    <path d="M-10.55 -0.45 L-10.6 -1.85 -11.55 -1.95 -1.55 -12.45 -4.55 -5.95 -5.55 -5.95 -5.55 -4.45 Q-7.2 -4.45 -8.4 -3.25 -9.55 -2.1 -9.55 -0.45 L-10.55 -0.45" fill="#507838" fill-rule="evenodd" stroke="none"/>
    <path d="M-11.55 -1.95 L-10.6 -1.85 -10.55 -0.45 Q-10.55 0.6 -11.45 1.35 -12.3 2.05 -13.55 2.05 L-11.55 -1.95 M-9.55 -0.45 Q-9.55 -2.1 -8.4 -3.25 -7.2 -4.45 -5.55 -4.45 L-7.55 1.05 -9.55 -0.45 M1.45 -12.45 L2.2 -12.5 Q5.15 -12.6 6.45 -9.95 3.5 -9.45 1.85 -11.8 L1.45 -12.45" fill="#485850" fill-rule="evenodd" stroke="none"/>
    <path d="M-4.55 -5.95 L-1.55 -12.45 1.45 -12.45 1.85 -11.8 Q3.5 -9.45 6.45 -9.95 L7.5 -9.6 Q11.65 -8.35 13.45 -4.45 L4.45 -1.95 -4.55 -5.95" fill="#315021" fill-rule="evenodd" stroke="none"/>
    <path d="M-5.55 -4.45 L-5.55 -5.95 -4.55 -5.95 4.45 -1.95 Q1.15 7.35 -6.65 2.7 L-7.55 2.05 -7.55 1.05 -5.55 -4.45" fill="#185068" fill-rule="evenodd" stroke="none"/>
    <path d="M13.45 -4.45 L13.7 -4.45 Q13.8 3.7 7.7 8.95 1.75 14.15 -5.7 11.75 -9.25 10.6 -11.55 7.55 L-10.95 7.6 Q-6.25 7.0 -7.55 2.05 L-6.65 2.7 Q1.15 7.35 4.45 -1.95 L13.45 -4.45" fill="#203808" fill-rule="evenodd" stroke="none"/>
    <path d="M-10.55 -0.45 L-9.55 -0.45 -7.55 1.05 -7.55 2.05 Q-6.25 7.0 -10.95 7.6 L-11.55 7.55 Q-14.25 5.9 -13.75 2.85 L-13.55 2.05 Q-12.3 2.05 -11.45 1.35 -10.55 0.6 -10.55 -0.45" fill="#304f20" fill-rule="evenodd" stroke="none"/>
  </g>
</svg>
