<?xml version="1.0" encoding="UTF-8" standalone="no"?>
<svg xmlns:ffdec="https://www.free-decompiler.com/flash" xmlns:xlink="http://www.w3.org/1999/xlink" ffdec:objectType="shape" height="22.0px" width="24.95px" xmlns="http://www.w3.org/2000/svg">
  <g transform="matrix(1.0, 0.0, 0.0, 1.0, 12.45, 11.05)">
    <path d="M5.55 -7.05 L5.55 -11.05 Q7.2 -11.05 8.35 -10.3 9.55 -9.6 9.55 -8.55 L8.95 -7.35 5.55 -7.05 Q6.25 -2.45 2.8 0.6 L2.4 0.9 Q-2.35 0.55 -5.45 -3.05 L-5.45 -4.55 5.55 -7.05" fill="#185068" fill-rule="evenodd" stroke="none"/>
    <path d="M5.55 -11.05 L5.55 -7.05 -5.45 -4.55 -5.45 -3.05 -12.45 4.95 Q-12.3 -0.05 -10.05 -4.45 -8.2 -8.05 -5.5 -10.85 L5.55 -11.05" fill="#507838" fill-rule="evenodd" stroke="none"/>
    <path d="M5.55 -7.05 L8.95 -7.35 9.55 -8.55 12.5 3.65 Q5.75 13.25 -5.1 10.2 -11.35 8.45 -12.45 4.95 L-5.45 -3.05 Q-2.35 0.55 2.4 0.9 L2.8 0.6 Q6.25 -2.45 5.55 -7.05" fill="#203808" fill-rule="evenodd" stroke="none"/>
  </g>
</svg>
