<?xml version="1.0" encoding="UTF-8" standalone="no"?>
<svg xmlns:ffdec="https://www.free-decompiler.com/flash" xmlns:xlink="http://www.w3.org/1999/xlink" ffdec:objectType="shape" height="24.95px" width="26.5px" xmlns="http://www.w3.org/2000/svg">
  <g transform="matrix(1.0, 0.0, 0.0, 1.0, 13.1, 12.45)">
    <path d="M-7.6 -5.2 L-9.9 -5.05 -9.6 -7.7 -7.75 -8.95 -6.5 -8.5 Q-5.85 -6.65 -7.25 -5.45 -7.4 -5.3 -7.6 -5.2" fill="#4e733b" fill-rule="evenodd" stroke="none"/>
    <path d="M-6.5 -8.5 L-7.75 -8.95 Q-1.7 -14.45 6.0 -11.35 10.55 -9.5 13.35 -5.4 L13.4 -5.2 12.4 -5.2 3.4 -5.2 -6.5 -8.5" fill="#48594e" fill-rule="evenodd" stroke="none"/>
    <path d="M-4.6 5.3 L-7.6 -1.2 -7.6 -5.2 Q-7.4 -5.3 -7.25 -5.45 -5.85 -6.65 -6.5 -8.5 L3.4 -5.2 2.4 2.8 -4.6 5.3" fill="#305020" fill-rule="evenodd" stroke="none"/>
    <path d="M-7.6 -1.2 L-8.6 -1.2 -12.65 0.8 -12.65 -2.95 -9.9 -5.05 -7.6 -5.2 -7.6 -1.2" fill="#475b50" fill-rule="evenodd" stroke="none"/>
    <path d="M-8.6 -1.2 L-7.6 -1.2 -4.6 5.3 -9.6 8.3 -8.6 -1.2 M3.4 -5.2 L12.4 -5.2 Q9.35 -0.05 3.75 2.25 L2.4 2.8 3.4 -5.2" fill="#185068" fill-rule="evenodd" stroke="none"/>
    <path d="M-9.6 8.3 L-4.6 5.3 2.4 2.8 3.75 2.25 Q9.35 -0.05 12.4 -5.2 L13.4 -5.2 Q13.6 0.4 10.95 5.3 7.2 12.1 -0.45 12.45 -8.3 12.95 -13.1 6.75 L-9.6 8.3" fill="#203808" fill-rule="evenodd" stroke="none"/>
    <path d="M-8.6 -1.2 L-9.6 8.3 -13.1 6.75 -12.65 0.8 -8.6 -1.2" fill="#2f4e1e" fill-rule="evenodd" stroke="none"/>
  </g>
</svg>
