<?xml version="1.0" encoding="UTF-8" standalone="no"?>
<svg xmlns:ffdec="https://www.free-decompiler.com/flash" xmlns:xlink="http://www.w3.org/1999/xlink" ffdec:objectType="shape" height="23.0px" width="26.15px" xmlns="http://www.w3.org/2000/svg">
  <g transform="matrix(1.0, 0.0, 0.0, 1.0, 13.05, 11.55)">
    <path d="M9.95 -7.45 L10.7 -6.7 Q13.7 -3.7 12.95 0.55 L4.95 -7.45 4.95 -8.95 9.95 -7.45" fill="#185068" fill-rule="evenodd" stroke="none"/>
    <path d="M4.95 -7.45 L12.95 0.55 Q3.0 19.15 -11.75 6.05 L-13.05 4.55 Q-9.8 2.7 -6.25 1.65 -1.5 0.4 3.45 0.55 L4.95 -7.45" fill="#203808" fill-rule="evenodd" stroke="none"/>
    <path d="M9.95 -7.45 L4.95 -8.95 4.95 -7.45 3.45 0.55 Q-1.5 0.4 -6.25 1.65 -9.8 2.7 -13.05 4.55 L-12.05 0.55 -7.25 -5.9 4.95 -11.45 Q7.0 -11.45 8.5 -10.3 9.95 -9.1 9.95 -7.45" fill="#305020" fill-rule="evenodd" stroke="none"/>
    <path d="M-12.05 0.55 Q-9.15 -11.8 3.4 -11.55 L4.95 -11.45 -7.25 -5.9 -12.05 0.55" fill="#507838" fill-rule="evenodd" stroke="none"/>
  </g>
</svg>
