<?xml version="1.0" encoding="UTF-8" standalone="no"?>
<svg xmlns:ffdec="https://www.free-decompiler.com/flash" xmlns:xlink="http://www.w3.org/1999/xlink" ffdec:objectType="shape" height="26.45px" width="24.15px" xmlns="http://www.w3.org/2000/svg">
  <g transform="matrix(1.0, 0.0, 0.0, 1.0, 12.05, 13.25)">
    <path d="M6.95 -11.95 L9.95 -10.45 10.95 -7.95 6.95 -7.95 6.95 -11.95" fill="#1a5061" fill-rule="evenodd" stroke="none"/>
    <path d="M-6.05 -9.45 L-1.7 -13.25 Q2.25 -10.45 6.95 -11.95 L6.95 -7.95 -4.05 -3.95 Q-0.85 -7.95 -5.4 -9.3 L-6.05 -9.45" fill="#4f7638" fill-rule="evenodd" stroke="none"/>
    <path d="M-7.05 -7.95 L-7.05 -9.45 -6.05 -9.45 -5.4 -9.3 Q-0.85 -7.95 -4.05 -3.95 L-5.05 -3.95 -7.05 -7.95" fill="#78a850" fill-rule="evenodd" stroke="none"/>
    <path d="M-10.05 -3.95 L-10.05 -6.45 -7.05 -7.95 -5.05 -3.95 -10.05 -3.95" fill="#507838" fill-rule="evenodd" stroke="none"/>
    <path d="M10.95 -7.95 Q15.55 6.5 2.05 12.25 L-2.0 13.2 -7.75 12.8 -10.2 12.05 Q-10.3 10.8 -10.95 9.75 L-12.05 8.05 -12.05 4.05 -10.95 3.4 Q-6.65 0.8 -5.05 -3.95 L-4.05 -3.95 6.95 -7.95 10.95 -7.95" fill="#213708" fill-rule="evenodd" stroke="none"/>
    <path d="M-12.05 4.05 L-10.05 -3.95 -5.05 -3.95 Q-6.65 0.8 -10.95 3.4 L-12.05 4.05" fill="#44544b" fill-rule="evenodd" stroke="none"/>
  </g>
</svg>
