<?xml version="1.0" encoding="UTF-8" standalone="no"?>
<svg xmlns:ffdec="https://www.free-decompiler.com/flash" xmlns:xlink="http://www.w3.org/1999/xlink" ffdec:objectType="shape" height="24.5px" width="27.35px" xmlns="http://www.w3.org/2000/svg">
  <g transform="matrix(1.0, 0.0, 0.0, 1.0, 13.65, 12.25)">
    <path d="M-13.15 -4.7 L-12.8 -8.15 -9.9 -10.5 -9.65 -10.15 Q-9.25 -8.4 -7.85 -7.5 L-7.15 -7.15 Q-5.6 -6.5 -3.9 -6.85 L-2.95 -5.8 -3.0 -4.8 -13.15 -4.7" fill="#c8b890" fill-rule="evenodd" stroke="none"/>
    <path d="M-7.85 -7.5 L-7.85 -11.7 -3.9 -11.7 -3.9 -6.85 Q-5.6 -6.5 -7.15 -7.15 L-7.85 -7.5 M3.85 -6.85 L3.85 -11.75 7.8 -11.75 7.8 -7.45 6.95 -7.15 3.85 -6.85" fill="#d8e0e8" fill-rule="evenodd" stroke="none"/>
    <path d="M-6.0 1.9 L-8.9 10.1 -9.55 8.95 Q-13.4 2.65 -13.15 -4.7 L-3.0 -4.8 -3.65 -2.75 -6.0 1.9 M-7.25 1.25 L-7.25 -2.75 -7.25 1.25 M-10.25 1.25 L-10.25 -2.75 -10.25 1.25" fill="#d8d0d0" fill-rule="evenodd" stroke="none"/>
    <path d="M7.8 -7.45 Q9.0 -8.4 9.6 -10.05 L9.85 -10.5 12.7 -8.15 13.1 -4.7 2.95 -4.8 2.9 -5.8 3.85 -6.85 6.95 -7.15 7.8 -7.45" fill="#504820" fill-rule="evenodd" stroke="none"/>
    <path d="M13.1 -4.7 Q13.75 2.75 9.55 8.85 L8.85 10.1 5.95 1.9 5.9 1.8 3.55 -2.75 2.95 -4.8 13.1 -4.7 M10.25 1.25 L10.25 -2.75 10.25 1.25 M7.25 1.25 L7.25 -2.75 7.25 1.25" fill="#686870" fill-rule="evenodd" stroke="none"/>
    <path d="M1.65 -0.85 L-0.05 6.65 -1.75 -0.85 -1.25 -0.5 1.3 -0.55 1.65 -0.85" fill="#a67be6" fill-rule="evenodd" stroke="none"/>
    <path d="M5.95 1.9 Q5.75 5.65 4.8 9.2 L4.2 11.35 2.05 4.05 3.55 -2.75 5.9 1.8 5.95 1.9" fill="url(#gradient0)" fill-rule="evenodd" stroke="none"/>
    <path d="M-2.1 4.05 L-4.3 11.35 -4.9 9.15 Q-5.8 5.65 -6.0 1.9 L-3.65 -2.75 -2.1 4.05" fill="url(#gradient1)" fill-rule="evenodd" stroke="none"/>
    <path d="M2.05 4.05 Q2.05 7.25 1.45 9.5 0.8 11.75 -0.05 11.75 -0.9 11.75 -1.5 9.5 -2.1 7.25 -2.1 4.05 L-3.65 -2.75 -3.0 -4.8 -2.95 -5.8 -1.15 -10.15 -0.05 -6.25 1.1 -10.15 2.9 -5.8 2.95 -4.8 3.55 -2.75 2.05 4.05 M1.65 -0.85 L1.3 -0.55 -1.25 -0.5 -1.75 -0.85 -0.05 6.65 1.65 -0.85" fill="url(#gradient2)" fill-rule="evenodd" stroke="none"/>
    <path d="M7.8 -7.45 Q9.0 -8.4 9.6 -10.05 L9.85 -10.5 12.7 -8.15 13.1 -4.7 Q13.75 2.75 9.55 8.85 L8.85 10.1 5.95 1.9 Q5.75 5.65 4.8 9.2 L4.2 11.35 2.05 4.05 Q2.05 7.25 1.45 9.5 0.8 11.75 -0.05 11.75 -0.9 11.75 -1.5 9.5 -2.1 7.25 -2.1 4.05 L-4.3 11.35 -4.9 9.15 Q-5.8 5.65 -6.0 1.9 L-8.9 10.1 -9.55 8.95 Q-13.4 2.65 -13.15 -4.7 L-12.8 -8.15 -9.9 -10.5 -9.65 -10.15 Q-9.25 -8.4 -7.85 -7.5 L-7.85 -11.7 -3.9 -11.7 -3.9 -6.85 -2.95 -5.8 -1.15 -10.15 -0.05 -6.25 1.1 -10.15 2.9 -5.8 3.85 -6.85 3.85 -11.75 7.8 -11.75 7.8 -7.45 6.95 -7.15 3.85 -6.85 M2.95 -4.8 L3.55 -2.75 5.9 1.8 5.95 1.9 M1.65 -0.85 L-0.05 6.65 -1.75 -0.85 -1.25 -0.5 1.3 -0.55 1.65 -0.85 M2.95 -4.8 L2.9 -5.8 M13.1 -4.7 L2.95 -4.8 M3.55 -2.75 L2.05 4.05 M-7.85 -7.5 L-7.15 -7.15 Q-5.6 -6.5 -3.9 -6.85 M-2.95 -5.8 L-3.0 -4.8 -3.65 -2.75 -2.1 4.05 M-13.15 -4.7 L-3.0 -4.8 M-3.65 -2.75 L-6.0 1.9" fill="none" stroke="#000000" stroke-linecap="round" stroke-linejoin="round" stroke-width="1.0"/>
    <path d="M7.25 -2.75 L7.25 1.25 M10.25 -2.75 L10.25 1.25 M-10.25 -2.75 L-10.25 1.25 M-7.25 -2.75 L-7.25 1.25" fill="none" stroke="#485048" stroke-linecap="round" stroke-linejoin="round" stroke-width="2.0"/>
  </g>
  <defs>
    <linearGradient gradientTransform="matrix(0.0024, 0.0, 0.0, 0.0086, 4.0, 4.3)" gradientUnits="userSpaceOnUse" id="gradient0" spreadMethod="pad" x1="-819.2" x2="819.2">
      <stop offset="0.0" stop-color="#101010"/>
      <stop offset="0.6313725490196078" stop-color="#d8e0e8"/>
    </linearGradient>
    <linearGradient gradientTransform="matrix(0.0024, 0.0, 0.0, 0.0086, -4.05, 4.3)" gradientUnits="userSpaceOnUse" id="gradient1" spreadMethod="pad" x1="-819.2" x2="819.2">
      <stop offset="0.0" stop-color="#101010"/>
      <stop offset="0.6313725490196078" stop-color="#d8e0e8"/>
    </linearGradient>
    <linearGradient gradientTransform="matrix(0.0, -0.0134, 0.0044, 0.0, -0.05, 0.8)" gradientUnits="userSpaceOnUse" id="gradient2" spreadMethod="pad" x1="-819.2" x2="819.2">
      <stop offset="0.0" stop-color="#283040"/>
      <stop offset="1.0" stop-color="#d8e0e8"/>
    </linearGradient>
  </defs>
</svg>
