<?xml version="1.0" encoding="UTF-8" standalone="no"?>
<svg xmlns:ffdec="https://www.free-decompiler.com/flash" xmlns:xlink="http://www.w3.org/1999/xlink" ffdec:objectType="shape" height="39.0px" width="39.0px" xmlns="http://www.w3.org/2000/svg">
  <g transform="matrix(1.0, 0.0, 0.0, 1.0, 19.5, 19.5)">
    <path d="M4.0 -11.0 L-4.0 -11.0 -4.0 -19.0 4.0 -19.0 4.0 -11.0 M4.0 19.0 L-4.0 19.0 -4.0 11.0 4.0 11.0 4.0 19.0 M-11.0 -4.0 L-11.0 4.0 -19.0 4.0 -19.0 -4.0 -11.0 -4.0" fill="#780000" fill-rule="evenodd" stroke="none"/>
    <path d="M19.0 -4.0 L19.0 4.0 11.0 4.0 11.0 -4.0 19.0 -4.0" fill="url(#gradient0)" fill-rule="evenodd" stroke="none"/>
    <path d="M4.0 -11.0 L-4.0 -11.0 -4.0 -19.0 4.0 -19.0 4.0 -11.0 M19.0 -4.0 L19.0 4.0 11.0 4.0 11.0 -4.0 19.0 -4.0 M4.0 19.0 L-4.0 19.0 -4.0 11.0 4.0 11.0 4.0 19.0 M-11.0 -4.0 L-11.0 4.0 -19.0 4.0 -19.0 -4.0 -11.0 -4.0 Z" fill="none" stroke="#404838" stroke-linecap="round" stroke-linejoin="round" stroke-width="1.0"/>
  </g>
  <defs>
    <radialGradient cx="0" cy="0" gradientTransform="matrix(0.0069, 0.0, 0.0, 0.0069, 15.0, 0.0)" gradientUnits="userSpaceOnUse" id="gradient0" r="819.2" spreadMethod="pad">
      <stop offset="0.19607843137254902" stop-color="#f8f8b0"/>
      <stop offset="0.5137254901960784" stop-color="#f8d000"/>
      <stop offset="1.0" stop-color="#e05000"/>
    </radialGradient>
  </defs>
</svg>
