<?xml version="1.0" encoding="UTF-8" standalone="no"?>
<svg xmlns:ffdec="https://www.free-decompiler.com/flash" xmlns:xlink="http://www.w3.org/1999/xlink" ffdec:objectType="shape" height="39.0px" width="39.0px" xmlns="http://www.w3.org/2000/svg">
  <g transform="matrix(1.0, 0.0, 0.0, 1.0, 19.5, 19.5)">
    <path d="M19.0 -4.0 L19.0 4.0 11.0 4.0 11.0 -4.0 19.0 -4.0 M4.0 -11.0 L-4.0 -11.0 -4.0 -19.0 4.0 -19.0 4.0 -11.0 M-11.0 -4.0 L-11.0 4.0 -19.0 4.0 -19.0 -4.0 -11.0 -4.0 M-4.0 11.0 L4.0 11.0 4.0 19.0 -4.0 19.0 -4.0 11.0" fill="#780000" fill-rule="evenodd" stroke="none"/>
    <path d="M19.0 -4.0 L19.0 4.0 11.0 4.0 11.0 -4.0 19.0 -4.0 M4.0 -11.0 L-4.0 -11.0 -4.0 -19.0 4.0 -19.0 4.0 -11.0 M-11.0 -4.0 L-11.0 4.0 -19.0 4.0 -19.0 -4.0 -11.0 -4.0 M-4.0 11.0 L4.0 11.0 4.0 19.0 -4.0 19.0 -4.0 11.0 Z" fill="none" stroke="#404838" stroke-linecap="round" stroke-linejoin="round" stroke-width="1.0"/>
  </g>
</svg>
