<?xml version="1.0" encoding="UTF-8" standalone="no"?>
<svg xmlns:ffdec="https://www.free-decompiler.com/flash" xmlns:xlink="http://www.w3.org/1999/xlink" ffdec:objectType="shape" height="43.5px" width="43.5px" xmlns="http://www.w3.org/2000/svg">
  <g transform="matrix(1.0, 0.0, 0.0, 1.0, 19.5, 19.5)">
    <path d="M9.0 -14.0 L9.0 -10.0 16.1 -10.0 Q17.7 -9.95 18.8 -8.85 19.95 -7.7 20.0 -6.1 L20.0 1.0 24.0 1.0 24.0 9.0 20.0 9.0 20.0 16.1 Q19.95 17.7 18.8 18.8 17.7 19.95 16.1 20.0 L9.0 20.0 9.0 24.0 1.0 24.0 1.0 20.0 -6.1 20.0 Q-7.7 19.95 -8.85 18.8 -9.95 17.7 -10.0 16.1 L-10.0 9.0 -14.0 9.0 -14.0 1.0 -10.0 1.0 -10.0 -6.1 Q-9.95 -7.7 -8.85 -8.85 -7.7 -9.95 -6.1 -10.0 L1.0 -10.0 1.0 -14.0 9.0 -14.0" fill="#000000" fill-opacity="0.5019608" fill-rule="evenodd" stroke="none"/>
    <path d="M5.0 -6.95 L1.0 -6.95 5.0 -6.95 M11.95 -4.95 L11.95 5.1 5.0 12.1 -4.9 12.1 -12.05 4.95 -12.05 -4.85 -4.95 -11.9 5.05 -11.9 11.95 -4.95 M-6.45 4.55 L-6.45 0.55 -6.45 4.55 M-0.95 6.05 L-4.95 6.05 -0.95 6.05 M-6.45 -1.4 L-6.45 -5.4 -6.45 -1.4 M-0.95 -6.95 L-4.95 -6.95 -0.95 -6.95 M6.55 4.55 L6.55 0.55 6.55 4.55 M5.0 6.05 L1.0 6.05 5.0 6.05 M6.55 -1.4 L6.55 -5.4 6.55 -1.4" fill="#888880" fill-rule="evenodd" stroke="none"/>
    <path d="M11.95 -4.95 L5.05 -11.9 -4.95 -11.9 -12.05 -4.85 -12.05 4.95 -4.9 12.1 5.0 12.1 11.95 5.1 11.95 -4.95 M11.1 -15.0 Q12.7 -14.95 13.8 -13.85 14.95 -12.7 15.0 -11.1 L15.0 11.1 Q14.95 12.7 13.8 13.8 12.7 14.95 11.1 15.0 L-11.1 15.0 Q-12.7 14.95 -13.85 13.8 -14.95 12.7 -15.0 11.1 L-15.0 -11.1 Q-14.95 -12.7 -13.85 -13.85 -12.7 -14.95 -11.1 -15.0 L11.1 -15.0" fill="#607050" fill-rule="evenodd" stroke="none"/>
    <path d="M1.0 -6.95 L5.0 -6.95 M6.55 -5.4 L6.55 -1.4 M1.0 6.05 L5.0 6.05 M6.55 0.55 L6.55 4.55 M-4.95 -6.95 L-0.95 -6.95 M-6.45 -5.4 L-6.45 -1.4 M-4.95 6.05 L-0.95 6.05 M-6.45 0.55 L-6.45 4.55" fill="none" stroke="#989898" stroke-linecap="round" stroke-linejoin="round" stroke-width="1.0"/>
    <path d="M11.95 -4.95 L11.95 5.1 5.0 12.1 -4.9 12.1 -12.05 4.95 -12.05 -4.85 -4.95 -11.9 5.05 -11.9 11.95 -4.95 M11.1 -15.0 L-11.1 -15.0 Q-12.7 -14.95 -13.85 -13.85 -14.95 -12.7 -15.0 -11.1 L-15.0 11.1 Q-14.95 12.7 -13.85 13.8 -12.7 14.95 -11.1 15.0 L11.1 15.0 Q12.7 14.95 13.8 13.8 14.95 12.7 15.0 11.1 L15.0 -11.1 Q14.95 -12.7 13.8 -13.85 12.7 -14.95 11.1 -15.0 Z" fill="none" stroke="#485048" stroke-linecap="round" stroke-linejoin="round" stroke-width="1.0"/>
    <path d="M4.0 -11.0 L-4.0 -11.0 -4.0 -19.0 4.0 -19.0 4.0 -11.0 M19.0 -4.0 L19.0 4.0 11.0 4.0 11.0 -4.0 19.0 -4.0 M4.0 19.0 L-4.0 19.0 -4.0 11.0 4.0 11.0 4.0 19.0 M-11.0 -4.0 L-11.0 4.0 -19.0 4.0 -19.0 -4.0 -11.0 -4.0" fill="#780000" fill-rule="evenodd" stroke="none"/>
    <path d="M4.0 -11.0 L-4.0 -11.0 -4.0 -19.0 4.0 -19.0 4.0 -11.0 M19.0 -4.0 L19.0 4.0 11.0 4.0 11.0 -4.0 19.0 -4.0 M4.0 19.0 L-4.0 19.0 -4.0 11.0 4.0 11.0 4.0 19.0 M-11.0 -4.0 L-11.0 4.0 -19.0 4.0 -19.0 -4.0 -11.0 -4.0 Z" fill="none" stroke="#404838" stroke-linecap="round" stroke-linejoin="round" stroke-width="1.0"/>
  </g>
</svg>
