<?xml version="1.0" encoding="UTF-8" standalone="no"?>
<svg xmlns:ffdec="https://www.free-decompiler.com/flash" xmlns:xlink="http://www.w3.org/1999/xlink" ffdec:objectType="shape" height="96.05px" width="92.0px" xmlns="http://www.w3.org/2000/svg">
  <g transform="matrix(1.0, 0.0, 0.0, 1.0, 40.85, 25.4)">
    <path d="M28.95 -5.25 L28.9 -13.4 38.8 -8.8 38.8 10.1 38.5 10.25 35.55 12.2 Q32.25 14.1 28.6 15.15 L28.55 15.15 29.1 6.0 28.95 -5.25 M6.0 6.5 L8.35 11.4 6.65 11.35 7.1 15.95 Q7.75 22.9 7.05 30.05 L2.9 30.1 2.5 29.45 Q2.1 24.45 2.6 19.4 L3.3 11.2 -3.35 11.2 -6.7 11.35 -8.35 11.4 -6.05 6.5 6.0 6.5 M6.4 43.15 L0.0 43.9 -6.4 43.15 -6.6 41.85 -6.4 31.65 Q-2.75 37.15 0.0 35.1 2.7 37.15 6.35 31.65 L6.55 41.85 6.4 43.15 M-28.6 15.15 Q-32.3 14.1 -35.6 12.2 L-38.5 10.25 -38.8 10.1 -38.8 -8.8 -28.9 -13.4 -28.95 -5.25 -29.15 6.0 -28.6 15.15 M6.65 11.35 L3.3 11.2 6.65 11.35" fill="#303840" fill-rule="evenodd" stroke="none"/>
    <path d="M10.75 -22.6 L10.9 -13.05 0.0 -13.1 0.0 -24.9 0.0 -13.1 -10.9 -13.05 -10.8 -22.6 -9.85 -24.9 0.0 -24.9 9.8 -24.9 10.75 -22.6 M-7.05 30.05 Q-7.8 22.9 -7.15 15.95 L-6.7 11.35 -3.35 11.2 -2.6 19.4 Q-2.15 24.45 -2.5 29.45 L-2.9 30.1 -7.05 30.05" fill="#a8b8b0" fill-rule="evenodd" stroke="none"/>
    <path d="M10.9 -13.05 L10.95 -9.6 13.55 -5.95 28.95 -5.25 29.1 6.0 26.4 6.1 27.55 4.75 Q27.8 1.4 25.55 -0.55 L24.55 -0.75 Q23.05 -0.75 22.25 0.75 L22.1 1.65 Q21.7 4.6 23.75 6.2 L20.25 6.25 Q19.2 2.5 19.75 -1.4 L17.25 -1.65 16.85 -0.9 Q15.85 2.5 16.75 6.25 L15.55 6.3 15.2 -1.6 13.05 -1.7 13.6 6.45 8.35 11.45 8.35 11.4 8.75 -9.0 -8.8 -9.0 -8.35 11.4 -8.35 11.45 -13.65 6.45 -13.1 -1.7 -15.25 -1.6 -15.65 6.3 -16.75 6.25 Q-15.9 2.5 -16.85 -0.9 L-17.3 -1.65 -19.75 -1.4 Q-19.25 2.5 -20.25 6.25 L-23.8 6.2 Q-21.8 4.6 -22.15 1.65 L-22.25 0.75 Q-23.1 -0.75 -24.6 -0.75 L-25.6 -0.55 Q-27.8 1.4 -27.6 4.75 L-26.4 6.1 -29.15 6.0 -28.95 -5.25 -13.55 -5.95 -10.95 -9.6 -10.9 -13.05 0.0 -13.1 10.9 -13.05" fill="#485048" fill-rule="evenodd" stroke="none"/>
    <path d="M10.9 -13.05 L10.75 -22.6 28.9 -22.15 29.1 -19.35 29.35 -17.25 28.9 -13.5 28.9 -13.4 28.95 -5.25 13.55 -5.95 10.95 -9.6 10.9 -13.05 M5.45 -5.95 L5.45 -5.9 6.1 -1.25 Q6.6 2.6 6.0 6.5 L-6.05 6.5 Q-6.7 2.6 -6.15 -1.25 L-5.45 -5.95 5.45 -5.95 M17.25 -9.1 L16.75 -9.25 16.15 -10.2 Q13.2 -14.95 16.5 -19.25 13.2 -14.95 16.15 -10.2 L16.75 -9.25 17.25 -9.1 M8.35 11.45 L13.6 6.45 13.05 -1.7 15.2 -1.6 15.55 6.3 16.75 6.25 Q15.85 2.5 16.85 -0.9 L17.25 -1.65 19.75 -1.4 Q19.2 2.5 20.25 6.25 L23.75 6.2 26.4 6.1 29.1 6.0 28.55 15.15 28.75 21.3 29.3 27.75 28.6 28.0 10.05 28.1 8.35 11.45 M21.7 -14.3 L20.0 -14.7 20.0 -9.8 20.0 -14.7 21.7 -14.3 M22.65 -8.4 L24.3 -9.8 24.5 -10.95 Q25.05 -15.3 22.8 -18.8 25.05 -15.3 24.5 -10.95 L24.3 -9.8 22.65 -8.4 M25.8 42.55 L39.35 42.5 40.35 53.5 41.4 53.75 Q44.55 55.0 43.2 59.8 L40.15 60.9 39.7 64.95 41.25 65.35 41.75 69.9 31.15 70.1 30.9 63.0 27.95 61.85 27.85 59.1 16.55 59.1 16.55 42.95 25.8 42.55 M-8.35 11.45 L-10.05 28.1 -28.6 28.0 -29.3 27.75 -28.8 21.3 -28.6 15.15 -29.15 6.0 -26.4 6.1 -23.8 6.2 -20.25 6.25 Q-19.25 2.5 -19.75 -1.4 L-17.3 -1.65 -16.85 -0.9 Q-15.9 2.5 -16.75 6.25 L-15.65 6.3 -15.25 -1.6 -13.1 -1.7 -13.65 6.45 -8.35 11.45 M-28.9 -13.4 L-28.9 -13.5 -29.35 -17.25 -29.15 -19.35 -28.95 -22.15 -10.8 -22.6 -10.9 -13.05 -10.95 -9.6 -13.55 -5.95 -28.95 -5.25 -28.9 -13.4 M23.4 22.65 L25.7 19.65 25.7 18.65 Q25.6 14.25 23.0 11.4 25.6 14.25 25.7 18.65 L25.7 19.65 23.4 22.65 M13.6 6.45 L15.55 6.3 13.6 6.45 M20.6 22.2 L20.0 11.4 20.25 10.95 20.0 11.4 20.6 22.2 M20.25 6.25 L16.75 6.25 20.25 6.25 M18.9 22.65 L18.0 21.85 Q13.4 17.2 16.85 10.95 13.4 17.2 18.0 21.85 L18.9 22.65 M30.45 59.7 L31.7 60.1 34.2 60.45 35.5 60.3 37.1 57.75 37.3 55.15 28.95 55.5 29.35 57.55 29.65 58.5 30.15 59.3 30.45 59.7 M-22.65 -8.4 L-24.35 -9.8 -24.5 -10.95 Q-25.1 -15.3 -22.85 -18.8 -25.1 -15.3 -24.5 -10.95 L-24.35 -9.8 -22.65 -8.4 M-17.3 -9.1 L-16.8 -9.25 -16.15 -10.2 Q-13.25 -14.95 -16.55 -19.25 -13.25 -14.95 -16.15 -10.2 L-16.8 -9.25 -17.3 -9.1 M-21.75 -14.3 L-20.05 -14.7 -20.05 -9.8 -20.05 -14.7 -21.75 -14.3 M-15.65 6.3 L-13.65 6.45 -15.65 6.3 M-18.95 22.65 L-18.0 21.85 Q-13.45 17.2 -16.9 10.95 -13.45 17.2 -18.0 21.85 L-18.95 22.65 M-23.4 22.65 L-25.75 19.65 -25.75 18.65 Q-25.7 14.25 -23.05 11.4 -25.7 14.25 -25.75 18.65 L-25.75 19.65 -23.4 22.65 M-16.75 6.25 L-20.25 6.25 -16.75 6.25 M-20.6 22.2 L-20.05 11.4 -20.6 22.2" fill="#586870" fill-rule="evenodd" stroke="none"/>
    <path d="M8.75 -9.0 L5.45 -5.95 -5.45 -5.95 -6.15 -1.25 Q-6.7 2.6 -6.05 6.5 L-8.35 11.4 -8.8 -9.0 8.75 -9.0 M-2.9 30.1 Q-1.6 33.9 0.0 35.1 1.55 33.9 2.9 30.1 L7.05 30.05 6.7 31.1 6.35 31.65 Q2.7 37.15 0.0 35.1 -2.75 37.15 -6.4 31.65 L-6.75 31.1 -7.05 30.05 -2.9 30.1 M-5.45 -5.95 L-8.8 -9.0 -5.45 -5.95" fill="#687070" fill-rule="evenodd" stroke="none"/>
    <path d="M23.75 6.2 Q21.7 4.6 22.1 1.65 L22.25 0.75 Q23.05 -0.75 24.55 -0.75 L25.55 -0.55 Q27.8 1.4 27.55 4.75 L26.4 6.1 23.75 6.2 M7.05 30.05 L9.8 30.55 9.9 32.85 9.65 40.5 9.65 42.75 6.4 43.15 6.55 41.85 6.35 31.65 6.7 31.1 7.05 30.05 M39.35 42.5 L47.85 43.65 48.1 50.95 50.3 51.3 50.15 54.5 47.3 54.6 47.0 58.75 50.5 59.85 Q50.9 60.7 50.35 61.7 L46.95 66.5 46.4 67.2 49.95 70.15 41.75 69.9 41.25 65.35 39.7 64.95 40.15 60.9 43.2 59.8 Q44.55 55.0 41.4 53.75 L40.35 53.5 39.35 42.5 M31.15 70.1 L16.35 69.95 16.25 69.45 Q16.25 64.3 16.55 59.1 L27.85 59.1 27.95 61.85 30.9 63.0 31.15 70.1 M-6.4 43.15 L-9.65 42.75 -9.8 30.55 -7.05 30.05 -6.75 31.1 -6.4 31.65 -6.6 41.85 -6.4 43.15 M-3.35 11.2 L3.3 11.2 2.6 19.4 Q2.1 24.45 2.5 29.45 L2.9 30.1 Q1.55 33.9 0.0 35.1 -1.6 33.9 -2.9 30.1 L-2.5 29.45 Q-2.15 24.45 -2.6 19.4 L-3.35 11.2 M30.45 59.7 L30.15 59.3 29.65 58.5 29.35 57.55 28.95 55.5 37.3 55.15 37.1 57.75 35.5 60.3 34.2 60.45 31.7 60.1 30.45 59.7 M-26.4 6.1 L-27.6 4.75 Q-27.8 1.4 -25.6 -0.55 L-24.6 -0.75 Q-23.1 -0.75 -22.25 0.75 L-22.15 1.65 Q-21.8 4.6 -23.8 6.2 L-26.4 6.1" fill="#888880" fill-rule="evenodd" stroke="none"/>
    <path d="M6.0 6.5 Q6.6 2.6 6.1 -1.25 L5.45 -5.9 5.45 -5.95 8.75 -9.0 8.35 11.4 6.0 6.5" fill="#283040" fill-rule="evenodd" stroke="none"/>
    <path d="M9.9 32.85 L10.55 32.8 Q19.25 26.6 26.8 33.9 27.65 34.8 28.0 36.65 28.55 39.6 27.25 42.0 L25.8 42.55 16.55 42.95 Q13.9 42.45 11.35 41.3 L9.65 40.5 9.9 32.85" fill="url(#gradient0)" fill-rule="evenodd" stroke="none"/>
    <path d="M28.9 -13.5 L29.35 -17.25 40.1 -17.0 40.3 -13.35 39.2 -12.9 Q34.0 -11.35 28.9 -13.5 M29.1 -19.35 L28.9 -22.15 Q34.9 -25.35 39.7 -21.6 L40.2 -21.0 40.0 -19.8 29.1 -19.35 M28.55 15.15 L28.6 15.15 39.55 15.95 40.25 19.7 28.75 21.3 39.45 24.05 Q39.8 24.05 40.1 24.35 L40.0 28.15 Q34.25 29.65 28.6 28.0 L29.3 27.75 28.75 21.3 28.55 15.15 M-28.6 28.0 Q-34.3 29.65 -40.05 28.15 L-40.15 24.35 -39.5 24.05 -28.8 21.3 -40.25 19.7 -39.6 15.95 -28.6 15.15 -28.8 21.3 -29.3 27.75 -28.6 28.0 M-28.9 -13.5 Q-34.05 -11.35 -39.2 -12.9 L-40.35 -13.35 -40.15 -17.0 -29.35 -17.25 -28.9 -13.5 M-29.15 -19.35 L-40.05 -19.8 -40.25 -21.0 -39.75 -21.6 Q-34.95 -25.35 -28.95 -22.15 L-29.15 -19.35" fill="#d8e0d8" fill-rule="evenodd" stroke="none"/>
    <path d="M10.75 -22.6 L10.9 -13.05 10.95 -9.6 13.55 -5.95 28.95 -5.25 28.9 -13.4 28.9 -13.5 29.35 -17.25 29.1 -19.35 28.9 -22.15 10.75 -22.6 9.8 -24.9 0.0 -24.9 -9.85 -24.9 -10.8 -22.6 -28.95 -22.15 Q-34.95 -25.35 -39.75 -21.6 L-40.25 -21.0 -40.05 -19.8 -29.15 -19.35 -28.95 -22.15 M0.0 -13.1 L10.9 -13.05 M5.45 -5.95 L5.45 -5.9 6.1 -1.25 Q6.6 2.6 6.0 6.5 L8.35 11.4 8.75 -9.0 5.45 -5.95 -5.45 -5.95 -6.15 -1.25 Q-6.7 2.6 -6.05 6.5 L6.0 6.5 M8.35 11.45 L13.6 6.45 13.05 -1.7 15.2 -1.6 15.55 6.3 16.75 6.25 Q15.85 2.5 16.85 -0.9 L17.25 -1.65 19.75 -1.4 Q19.2 2.5 20.25 6.25 L23.75 6.2 Q21.7 4.6 22.1 1.65 L22.25 0.75 Q23.05 -0.75 24.55 -0.75 L25.55 -0.55 Q27.8 1.4 27.55 4.75 L26.4 6.1 29.1 6.0 28.95 -5.25 M29.35 -17.25 L40.1 -17.0 40.3 -13.35 39.2 -12.9 Q34.0 -11.35 28.9 -13.5 M28.9 -22.15 Q34.9 -25.35 39.7 -21.6 L40.2 -21.0 40.0 -19.8 29.1 -19.35 M28.6 15.15 Q32.25 14.1 35.55 12.2 L38.5 10.25 38.8 10.1 38.8 -8.8 28.9 -13.4 M23.75 6.2 L26.4 6.1 M28.55 15.15 L28.6 15.15 39.55 15.95 40.25 19.7 28.75 21.3 39.45 24.05 Q39.8 24.05 40.1 24.35 L40.0 28.15 Q34.25 29.65 28.6 28.0 L10.05 28.1 8.35 11.45 M8.35 11.4 L6.65 11.35 7.1 15.95 Q7.75 22.9 7.05 30.05 L9.8 30.55 9.9 32.85 10.55 32.8 Q19.25 26.6 26.8 33.9 27.65 34.8 28.0 36.65 28.55 39.6 27.25 42.0 L25.8 42.55 39.35 42.5 47.85 43.65 48.1 50.95 50.3 51.3 50.15 54.5 47.3 54.6 47.0 58.75 50.5 59.85 Q50.9 60.7 50.35 61.7 L46.95 66.5 46.4 67.2 49.95 70.15 41.75 69.9 31.15 70.1 16.35 69.95 16.25 69.45 Q16.25 64.3 16.55 59.1 L16.55 42.95 Q13.9 42.45 11.35 41.3 L9.65 40.5 9.65 42.75 6.4 43.15 0.0 43.9 -6.4 43.15 -9.65 42.75 -9.8 30.55 -7.05 30.05 Q-7.8 22.9 -7.15 15.95 L-6.7 11.35 -8.35 11.4 -8.8 -9.0 8.75 -9.0 M-8.35 11.45 L-10.05 28.1 -28.6 28.0 Q-34.3 29.65 -40.05 28.15 L-40.15 24.35 -39.5 24.05 -28.8 21.3 -40.25 19.7 -39.6 15.95 -28.6 15.15 Q-32.3 14.1 -35.6 12.2 L-38.5 10.25 -38.8 10.1 -38.8 -8.8 -28.9 -13.4 -28.9 -13.5 Q-34.05 -11.35 -39.2 -12.9 L-40.35 -13.35 -40.15 -17.0 -29.35 -17.25 -29.15 -19.35 M28.55 15.15 L28.75 21.3 29.3 27.75 28.6 28.0 M29.1 6.0 L28.55 15.15 M15.55 6.3 L13.6 6.45 M16.75 6.25 L20.25 6.25 M3.3 11.2 L6.65 11.35 M2.9 30.1 L2.5 29.45 Q2.1 24.45 2.6 19.4 L3.3 11.2 -3.35 11.2 -2.6 19.4 Q-2.15 24.45 -2.5 29.45 L-2.9 30.1 Q-1.6 33.9 0.0 35.1 1.55 33.9 2.9 30.1 L7.05 30.05 6.7 31.1 6.35 31.65 6.55 41.85 6.4 43.15 M9.65 40.5 L9.9 32.85 M16.55 42.95 L25.8 42.55 M30.45 59.7 L30.15 59.3 29.65 58.5 29.35 57.55 28.95 55.5 37.3 55.15 37.1 57.75 35.5 60.3 34.2 60.45 31.7 60.1 30.45 59.7 M31.15 70.1 L30.9 63.0 27.95 61.85 27.85 59.1 16.55 59.1 M39.35 42.5 L40.35 53.5 41.4 53.75 Q44.55 55.0 43.2 59.8 L40.15 60.9 39.7 64.95 41.25 65.35 41.75 69.9 M-28.9 -13.5 L-29.35 -17.25 M-23.8 6.2 Q-21.8 4.6 -22.15 1.65 L-22.25 0.75 Q-23.1 -0.75 -24.6 -0.75 L-25.6 -0.55 Q-27.8 1.4 -27.6 4.75 L-26.4 6.1 -23.8 6.2 -20.25 6.25 Q-19.25 2.5 -19.75 -1.4 L-17.3 -1.65 -16.85 -0.9 Q-15.9 2.5 -16.75 6.25 L-15.65 6.3 -15.25 -1.6 -13.1 -1.7 -13.65 6.45 -8.35 11.45 M-28.9 -13.4 L-28.95 -5.25 -13.55 -5.95 -10.95 -9.6 -10.9 -13.05 -10.8 -22.6 M-8.8 -9.0 L-5.45 -5.95 M-10.9 -13.05 L0.0 -13.1 M-6.05 6.5 L-8.35 11.4 M-6.7 11.35 L-3.35 11.2 M-13.65 6.45 L-15.65 6.3 M-29.15 6.0 L-26.4 6.1 M-28.6 15.15 L-29.15 6.0 -28.95 -5.25 M-28.8 21.3 L-28.6 15.15 M-28.6 28.0 L-29.3 27.75 -28.8 21.3 M6.35 31.65 Q2.7 37.15 0.0 35.1 -2.75 37.15 -6.4 31.65 L-6.6 41.85 -6.4 43.15 M-2.9 30.1 L-7.05 30.05 -6.75 31.1 -6.4 31.65 M-20.25 6.25 L-16.75 6.25" fill="none" stroke="#101010" stroke-linecap="round" stroke-linejoin="round" stroke-width="1.0"/>
    <path d="M0.0 -24.9 L0.0 -13.1 M16.5 -19.25 Q13.2 -14.95 16.15 -10.2 L16.75 -9.25 17.25 -9.1 M20.0 -9.8 L20.0 -14.7 21.7 -14.3 M22.8 -18.8 Q25.05 -15.3 24.5 -10.95 L24.3 -9.8 22.65 -8.4 M23.0 11.4 Q25.6 14.25 25.7 18.65 L25.7 19.65 23.4 22.65 M20.25 10.95 L20.0 11.4 20.6 22.2 M16.85 10.95 Q13.4 17.2 18.0 21.85 L18.9 22.65 M-22.85 -18.8 Q-25.1 -15.3 -24.5 -10.95 L-24.35 -9.8 -22.65 -8.4 M-16.55 -19.25 Q-13.25 -14.95 -16.15 -10.2 L-16.8 -9.25 -17.3 -9.1 M-20.05 -9.8 L-20.05 -14.7 -21.75 -14.3 M-16.9 10.95 Q-13.45 17.2 -18.0 21.85 L-18.95 22.65 M-23.05 11.4 Q-25.7 14.25 -25.75 18.65 L-25.75 19.65 -23.4 22.65 M-20.05 11.4 L-20.6 22.2" fill="none" stroke="#404848" stroke-linecap="round" stroke-linejoin="round" stroke-width="1.0"/>
  </g>
  <defs>
    <linearGradient gradientTransform="matrix(0.0, -0.0081, 0.0113, 0.0, 18.95, 36.65)" gradientUnits="userSpaceOnUse" id="gradient0" spreadMethod="pad" x1="-819.2" x2="819.2">
      <stop offset="0.0" stop-color="#182020"/>
      <stop offset="0.41568627450980394" stop-color="#d8e0d8"/>
      <stop offset="0.6274509803921569" stop-color="#d8e0d8"/>
      <stop offset="1.0" stop-color="#182020"/>
    </linearGradient>
  </defs>
</svg>
