<?xml version="1.0" encoding="UTF-8" standalone="no"?>
<svg xmlns:ffdec="https://www.free-decompiler.com/flash" xmlns:xlink="http://www.w3.org/1999/xlink" ffdec:objectType="shape" height="47.0px" width="55.0px" xmlns="http://www.w3.org/2000/svg">
  <g transform="matrix(1.0, 0.0, 0.0, 1.0, 25.0, 20.95)">
    <path d="M23.95 -12.35 L30.0 9.85 24.65 15.3 24.4 17.7 Q23.9 22.0 19.65 24.2 11.55 28.35 3.6 23.15 L-0.35 24.3 Q-7.9 26.45 -12.45 20.9 -23.7 7.25 -18.15 -9.95 -10.2 -11.4 -3.05 -14.3 6.65 -18.3 14.9 -12.65 L23.95 -12.35" fill="#000000" fill-opacity="0.5019608" fill-rule="evenodd" stroke="none"/>
    <path d="M-21.55 6.55 L-7.45 4.5 Q1.55 10.15 9.35 2.8 13.4 -1.15 19.0 -2.6 L21.25 4.95 16.5 7.85 15.4 14.75 Q13.9 17.8 7.15 18.05 2.35 16.75 0.95 14.5 -6.05 17.8 -13.95 16.0 L-21.55 6.55" fill="#336600" fill-rule="evenodd" stroke="none"/>
    <path d="M0.9 -7.05 L0.7 -6.95 0.6 -6.9 -3.2 -6.7 -5.4 -6.85 Q-8.15 -5.8 -10.85 -5.2 L-11.2 -5.7 Q-12.0 -8.4 -11.7 -11.25 L-11.8 -11.3 -12.1 -11.35 Q-14.05 -9.05 -15.6 -6.55 -17.7 -3.35 -18.5 0.15 L-18.45 0.25 -18.05 0.2 Q-17.0 -1.1 -16.55 -2.55 -15.65 -5.55 -13.85 -7.95 -14.4 -5.05 -12.95 -2.75 -10.9 -2.6 -9.1 -3.6 -7.15 -4.8 -5.35 -4.3 -5.1 -3.9 -4.5 -4.1 L-0.75 -4.45 1.15 -6.95 0.9 -7.05 M13.15 -14.45 L13.05 -14.55 7.2 -14.6 Q4.45 -14.6 1.9 -13.6 L1.7 -13.55 1.65 -13.45 -0.15 -11.1 -0.25 -11.0 -0.25 -10.95 0.1 -10.9 1.0 -11.35 Q5.8 -12.9 11.05 -12.1 L11.9 -10.6 11.95 -10.5 13.6 -9.8 13.8 -9.4 13.85 -9.3 13.85 -9.2 14.2 -8.4 14.25 -8.35 Q14.45 -8.1 14.8 -8.25 L14.85 -8.3 16.45 -10.45 16.45 -10.55 16.45 -10.6 Q16.05 -11.15 15.95 -11.75 L15.95 -11.85 15.7 -12.15 15.7 -12.2 14.3 -12.85 14.1 -12.95 13.15 -14.45 M-21.55 6.55 Q-23.65 -2.65 -21.35 -11.8 -9.45 -17.8 4.35 -17.35 L17.1 -14.75 19.0 -2.6 Q13.4 -1.15 9.35 2.8 1.55 10.15 -7.45 4.5 L-21.55 6.55" fill="#4a9500" fill-rule="evenodd" stroke="none"/>
    <path d="M18.95 -17.35 L25.0 4.85 19.65 10.3 19.4 12.7 Q18.9 17.0 14.65 19.2 6.55 23.35 -1.4 18.15 L-5.35 19.3 Q-12.9 21.45 -17.45 15.9 -28.7 2.25 -23.15 -14.95 -15.2 -16.4 -8.05 -19.3 1.65 -23.3 9.9 -17.65 L18.95 -17.35 M19.0 -2.6 L17.1 -14.75 4.35 -17.35 Q-9.45 -17.8 -21.35 -11.8 -23.65 -2.65 -21.55 6.55 L-13.95 16.0 Q-6.05 17.8 0.95 14.5 2.35 16.75 7.15 18.05 13.9 17.8 15.4 14.75 L16.5 7.85 21.25 4.95 19.0 -2.6" fill="#003300" fill-rule="evenodd" stroke="none"/>
    <path d="M13.15 -14.45 L14.1 -12.95 14.3 -12.85 15.7 -12.2 15.7 -12.15 15.95 -11.85 15.95 -11.75 Q16.05 -11.15 16.45 -10.6 L16.45 -10.55 16.45 -10.45 14.85 -8.3 14.8 -8.25 Q14.45 -8.1 14.25 -8.35 L14.2 -8.4 13.85 -9.2 13.85 -9.3 13.8 -9.4 13.6 -9.8 11.95 -10.5 11.9 -10.6 11.05 -12.1 Q5.8 -12.9 1.0 -11.35 L0.1 -10.9 -0.25 -10.95 -0.25 -11.0 -0.15 -11.1 1.65 -13.45 1.7 -13.55 1.9 -13.6 Q4.45 -14.6 7.2 -14.6 L13.05 -14.55 13.15 -14.45 M0.9 -7.05 L1.15 -6.95 -0.75 -4.45 -4.5 -4.1 Q-5.1 -3.9 -5.35 -4.3 -7.15 -4.8 -9.1 -3.6 -10.9 -2.6 -12.95 -2.75 -14.4 -5.05 -13.85 -7.95 -15.65 -5.55 -16.55 -2.55 -17.0 -1.1 -18.05 0.2 L-18.45 0.25 -18.5 0.15 Q-17.7 -3.35 -15.6 -6.55 -14.05 -9.05 -12.1 -11.35 L-11.8 -11.3 -11.7 -11.25 Q-12.0 -8.4 -11.2 -5.7 L-10.85 -5.2 Q-8.15 -5.8 -5.4 -6.85 L-3.2 -6.7 0.6 -6.9 0.7 -6.95 0.9 -7.05" fill="#7cf900" fill-rule="evenodd" stroke="none"/>
  </g>
</svg>
