<?xml version="1.0" encoding="UTF-8" standalone="no"?>
<svg xmlns:ffdec="https://www.free-decompiler.com/flash" xmlns:xlink="http://www.w3.org/1999/xlink" ffdec:objectType="shape" height="36.05px" width="18.0px" xmlns="http://www.w3.org/2000/svg">
  <g transform="matrix(1.0, 0.0, 0.0, 1.0, 9.0, 18.0)">
    <path d="M4.5 0.05 Q4.45 -1.85 3.15 -3.15 1.85 -4.45 0.0 -4.45 L0.0 -18.0 9.0 0.1 4.5 0.1 4.5 0.05" fill="#980000" fill-rule="evenodd" stroke="none"/>
    <path d="M0.0 -4.45 L0.0 0.05 -4.5 0.05 Q-4.55 -1.85 -3.2 -3.15 -1.9 -4.45 0.0 -4.45" fill="#f08888" fill-rule="evenodd" stroke="none"/>
    <path d="M0.0 -18.0 L0.0 -4.45 Q-1.9 -4.45 -3.2 -3.15 -4.55 -1.85 -4.5 0.05 L-4.5 0.1 -9.0 0.1 0.0 -18.0" fill="#f8c8c8" fill-rule="evenodd" stroke="none"/>
    <path d="M0.0 -4.45 Q1.85 -4.45 3.15 -3.15 4.45 -1.85 4.5 0.05 L0.0 0.05 0.0 -4.45" fill="#200000" fill-rule="evenodd" stroke="none"/>
    <path d="M4.5 0.1 L9.0 0.1 0.05 18.05 0.0 18.0 0.0 4.55 Q-1.9 4.55 -3.2 3.25 -4.5 1.95 -4.5 0.1 L-4.5 0.05 0.0 0.05 0.0 4.55 0.45 4.55 Q2.0 4.4 3.15 3.25 4.45 1.95 4.5 0.1" fill="#700000" fill-rule="evenodd" stroke="none"/>
    <path d="M-9.0 0.1 L-4.5 0.1 Q-4.5 1.95 -3.2 3.25 -1.9 4.55 0.0 4.55 L0.0 18.0 -9.0 0.1" fill="#e80000" fill-rule="evenodd" stroke="none"/>
    <path d="M4.5 0.05 L4.5 0.1 Q4.45 1.95 3.15 3.25 2.0 4.4 0.45 4.55 L0.0 4.55 0.0 0.05 4.5 0.05" fill="#580000" fill-rule="evenodd" stroke="none"/>
  </g>
</svg>
