<?xml version="1.0" encoding="UTF-8" standalone="no"?>
<svg xmlns:ffdec="https://www.free-decompiler.com/flash" xmlns:xlink="http://www.w3.org/1999/xlink" ffdec:objectType="shape" height="18.1px" width="20.35px" xmlns="http://www.w3.org/2000/svg">
  <g transform="matrix(1.0, 0.0, 0.0, 1.0, 6.5, 6.8)">
    <path d="M11.55 9.2 L9.35 11.3 8.75 11.15 7.25 8.95 5.6 5.0 6.1 4.2 8.6 4.2 8.75 3.6 11.6 3.6 11.2 4.45 13.45 4.85 13.85 5.65 11.55 9.2" fill="#000000" fill-opacity="0.5019608" fill-rule="evenodd" stroke="none"/>
    <path d="M1.1 -6.0 L7.75 -4.95 3.35 1.65 -0.1 5.2 -2.7 1.2 -5.75 -6.05 1.1 -6.0" fill="#ff9900" fill-rule="evenodd" stroke="none"/>
    <path d="M1.1 -6.0 L-5.75 -6.05 -2.7 1.2 -0.1 5.2 3.35 1.65 7.75 -4.95 1.1 -6.0 Z" fill="none" stroke="#990000" stroke-linecap="round" stroke-linejoin="round" stroke-width="1.5"/>
  </g>
</svg>
