<?xml version="1.0" encoding="UTF-8" standalone="no"?>
<svg xmlns:ffdec="https://www.free-decompiler.com/flash" xmlns:xlink="http://www.w3.org/1999/xlink" ffdec:objectType="shape" height="12.0px" width="6.75px" xmlns="http://www.w3.org/2000/svg">
  <g transform="matrix(1.0, 0.0, 0.0, 1.0, 1.95, 8.7)">
    <path d="M2.4 -3.85 L1.25 -3.05 3.7 -7.95 4.8 -8.7 2.4 -3.85 M3.45 -3.05 L4.8 -3.85 -0.95 3.3 -0.6 1.85 3.45 -3.05 M0.3 -1.7 L-1.95 -1.7 -1.0 -2.5 0.5 -2.5 0.3 -1.7" fill="#635a58" fill-rule="evenodd" stroke="none"/>
    <path d="M2.4 -3.85 L4.8 -3.85 3.45 -3.05 1.25 -3.05 2.4 -3.85 M-0.85 -8.7 L4.8 -8.7 3.7 -7.95 -0.2 -7.95 -0.85 -8.7" fill="#b8b3b2" fill-rule="evenodd" stroke="none"/>
    <path d="M1.25 -3.05 L3.45 -3.05 -0.6 1.85 0.3 -1.7 0.5 -2.5 -1.0 -2.5 -0.2 -7.95 3.7 -7.95 1.25 -3.05" fill="#ffff00" fill-rule="evenodd" stroke="none"/>
    <path d="M-1.95 -1.7 L-0.85 -8.7 -0.2 -7.95 -1.0 -2.5 -1.95 -1.7" fill="#808080" fill-rule="evenodd" stroke="none"/>
  </g>
</svg>
