<?xml version="1.0" encoding="UTF-8" standalone="no"?>
<svg xmlns:ffdec="https://www.free-decompiler.com/flash" xmlns:xlink="http://www.w3.org/1999/xlink" ffdec:objectType="shape" height="166.9px" width="154.35px" xmlns="http://www.w3.org/2000/svg">
  <g transform="matrix(1.0, 0.0, 0.0, 1.0, 73.9, 72.1)">
    <path d="M41.85 -72.1 L44.7 -69.15 63.0 -69.15 70.15 -62.55 70.15 -37.2 Q76.7 -40.05 80.45 -32.15 L80.45 1.8 Q72.4 10.7 67.35 -2.35 L67.35 38.75 70.15 38.75 70.15 89.0 61.9 94.8 55.7 94.8 46.15 88.05 46.15 52.9 42.4 56.55 35.25 54.1 17.85 72.1 7.5 65.05 -2.8 72.1 -20.25 54.1 -27.35 56.55 -31.1 52.9 -31.1 88.05 -40.65 94.8 -46.85 94.8 -55.1 89.0 -55.1 38.75 -52.3 38.75 -52.3 -2.35 Q-57.4 10.7 -65.4 1.8 L-65.4 -32.15 Q-61.7 -40.05 -55.1 -37.2 L-55.1 -62.55 -48.0 -69.15 -29.65 -69.15 -26.8 -72.1 1.7 -72.1 1.7 -61.25 13.35 -61.25 13.35 -72.1 41.85 -72.1" fill="#000000" fill-opacity="0.5019608" fill-rule="evenodd" stroke="none"/>
    <path d="M59.85 31.25 L62.65 31.25 62.65 81.5 54.4 87.3 54.4 33.85 55.05 33.5 59.85 31.25 M-54.35 87.3 L-62.6 81.5 -62.6 31.25 -59.8 31.25 Q-57.4 32.35 -55.05 33.5 L-54.35 33.85 -54.35 87.3" fill="#889088" fill-rule="evenodd" stroke="none"/>
    <path d="M54.4 87.3 L48.2 87.3 48.2 36.8 54.4 33.85 54.4 87.3 M-48.15 87.3 L-54.35 87.3 -54.35 33.85 -48.15 36.8 -48.15 87.3" fill="#485850" fill-rule="evenodd" stroke="none"/>
    <path d="M48.2 87.3 L38.65 80.55 38.65 45.4 34.9 49.05 27.75 46.6 10.35 64.6 0.0 57.55 -10.3 64.6 -27.75 46.6 -34.85 49.05 -38.6 45.4 -38.6 80.55 -48.15 87.3 -48.15 36.8 -47.35 37.2 -55.05 33.5 Q-57.4 32.35 -59.8 31.25 L-54.35 26.35 -33.35 26.35 -28.1 33.65 -20.8 33.65 -12.9 42.85 -9.35 37.6 0.0 43.65 9.4 37.6 12.95 42.85 20.85 33.65 28.15 33.65 33.4 26.35 54.4 26.35 59.85 31.25 55.05 33.5 47.4 37.2 48.2 36.8 48.2 87.3 M38.65 45.4 L46.9 37.4 47.4 37.2 46.9 37.4 38.65 45.4 M-47.35 37.2 L-46.85 37.4 -38.6 45.4 -46.85 37.4 -47.35 37.2" fill="#283040" fill-rule="evenodd" stroke="none"/>
    <path d="M-54.35 -1.15 L-53.05 0.1 -51.15 -5.35 -47.25 -5.35 -42.9 0.85 -29.6 0.85 -26.4 -1.95 -17.25 1.4 -12.0 -12.1 12.0 -12.1 17.25 1.4 26.45 -1.95 29.65 0.85 42.95 0.85 47.25 -5.35 51.2 -5.35 53.1 0.1 54.4 -1.15 54.4 26.35 33.4 26.35 28.15 33.65 20.85 33.65 12.95 42.85 9.4 37.6 0.0 43.65 -9.35 37.6 -12.9 42.85 -20.8 33.65 -28.1 33.65 -33.35 26.35 -54.35 26.35 -54.35 -1.15" fill="#101010" fill-rule="evenodd" stroke="none"/>
    <path d="M54.4 -1.15 L59.85 -6.3 59.85 31.25 54.4 26.35 54.4 -1.15" fill="#484858" fill-rule="evenodd" stroke="none"/>
    <path d="M-59.8 31.25 L-59.8 -6.3 -54.35 -1.15 -54.35 26.35 -59.8 31.25" fill="#989898" fill-rule="evenodd" stroke="none"/>
    <path d="M59.85 -9.85 L59.85 -39.15 Q60.55 -42.6 62.65 -44.7 69.2 -47.55 72.95 -39.65 L72.95 -5.7 Q64.9 3.2 59.85 -9.85" fill="url(#gradient0)" fill-rule="evenodd" stroke="none"/>
    <path d="M-59.8 -9.85 Q-64.9 3.2 -72.9 -5.7 L-72.9 -39.65 Q-69.2 -47.55 -62.6 -44.7 -60.55 -42.6 -59.8 -39.15 L-59.8 -9.85" fill="url(#gradient1)" fill-rule="evenodd" stroke="none"/>
    <path d="M59.85 -6.3 L59.85 31.25 62.65 31.25 62.65 81.5 54.4 87.3 48.2 87.3 38.65 80.55 38.65 45.4 34.9 49.05 27.75 46.6 10.35 64.6 0.0 57.55 -10.3 64.6 -27.75 46.6 -34.85 49.05 -38.6 45.4 -38.6 80.55 -48.15 87.3 -54.35 87.3 -62.6 81.5 -62.6 31.25 -59.8 31.25 -59.8 -6.3 M-54.35 -1.15 L-54.35 26.35 -33.35 26.35 -28.1 33.65 -20.8 33.65 -12.9 42.85 -9.35 37.6 0.0 43.65 9.4 37.6 12.95 42.85 20.85 33.65 28.15 33.65 33.4 26.35 54.4 26.35 54.4 -1.15 M47.4 37.2 L46.9 37.4 38.65 45.4 M55.05 33.5 L47.4 37.2 M54.4 26.35 L59.85 31.25 55.05 33.5 M-62.6 -44.7 Q-69.2 -47.55 -72.9 -39.65 L-72.9 -5.7 Q-64.9 3.2 -59.8 -9.85 M-47.35 37.2 L-55.05 33.5 Q-57.4 32.35 -59.8 31.25 L-54.35 26.35 M-38.6 45.4 L-46.85 37.4 -47.35 37.2" fill="none" stroke="#000000" stroke-linecap="round" stroke-linejoin="round" stroke-width="2.0"/>
    <path d="M62.65 -44.7 Q69.2 -47.55 72.95 -39.65 L72.95 -5.7 Q64.9 3.2 59.85 -9.85" fill="none" stroke="#000000" stroke-linecap="round" stroke-linejoin="round" stroke-width="2.0"/>
  </g>
  <defs>
    <linearGradient gradientTransform="matrix(-0.008, 0.0, 0.0, -0.0265, 66.4, -23.75)" gradientUnits="userSpaceOnUse" id="gradient0" spreadMethod="pad" x1="-819.2" x2="819.2">
      <stop offset="0.0" stop-color="#101010"/>
      <stop offset="0.6352941176470588" stop-color="#889088"/>
    </linearGradient>
    <linearGradient gradientTransform="matrix(0.008, 0.0, 0.0, 0.0265, -66.35, -23.75)" gradientUnits="userSpaceOnUse" id="gradient1" spreadMethod="pad" x1="-819.2" x2="819.2">
      <stop offset="0.0" stop-color="#101010"/>
      <stop offset="0.6352941176470588" stop-color="#889088"/>
    </linearGradient>
  </defs>
</svg>
