<?xml version="1.0" encoding="UTF-8" standalone="no"?>
<svg xmlns:ffdec="https://www.free-decompiler.com/flash" xmlns:xlink="http://www.w3.org/1999/xlink" ffdec:objectType="shape" height="125.05px" width="29.05px" xmlns="http://www.w3.org/2000/svg">
  <g transform="matrix(1.0, 0.0, 0.0, 1.0, 14.5, 0.5)">
    <path d="M0.0 0.0 L11.5 20.0 11.5 28.0 7.5 28.0 7.55 33.0 11.5 33.0 11.5 41.0 7.5 41.0 7.5 46.0 11.5 46.0 11.5 54.0 7.5 54.0 7.5 59.0 11.5 59.0 11.5 67.0 7.5 67.0 7.5 72.0 11.5 72.0 11.5 80.0 7.5 80.0 7.5 85.0 11.5 85.0 11.5 93.0 7.5 93.0 7.5 98.0 11.5 98.0 11.5 106.0 7.5 106.0 7.5 111.0 3.0 116.0 -3.0 116.0 -4.0 114.9 -4.0 6.95 0.0 0.0" fill="#283040" fill-rule="evenodd" stroke="none"/>
    <path d="M0.0 0.0 L14.0 20.0 14.0 116.0 14.05 116.0 14.0 116.0 7.5 111.0 7.5 106.0 11.5 106.0 11.5 98.0 7.5 98.0 7.5 93.0 11.5 93.0 11.5 85.0 7.5 85.0 7.5 80.0 11.5 80.0 11.5 72.0 7.5 72.0 7.5 67.0 11.5 67.0 11.5 59.0 7.5 59.0 7.5 54.0 11.5 54.0 11.5 46.0 7.5 46.0 7.5 41.0 11.5 41.0 11.5 33.0 7.55 33.0 7.5 28.0 11.5 28.0 11.5 20.0 0.0 0.0" fill="#484858" fill-rule="evenodd" stroke="none"/>
    <path d="M14.0 116.0 L8.05 124.05 3.0 116.0 7.5 111.0 14.0 116.0 M-7.5 111.0 L-7.5 106.0 -11.5 106.0 -11.5 98.0 -7.5 98.0 -7.5 93.0 -11.5 93.0 -11.5 85.0 -7.5 85.0 -7.5 80.0 -11.5 80.0 -11.5 72.0 -7.5 72.0 -7.5 67.0 -11.5 67.0 -11.5 59.0 -7.5 59.0 -7.5 54.0 -11.5 54.0 -11.5 46.0 -7.5 46.0 -7.5 41.0 -11.5 41.0 -11.5 33.0 -7.55 33.0 -7.5 28.0 -11.5 28.0 -11.5 20.0 -4.0 6.95 -4.0 114.9 -7.5 111.0" fill="#101010" fill-rule="evenodd" stroke="none"/>
    <path d="M8.05 124.05 L-8.0 124.05 -3.0 116.0 3.0 116.0 8.05 124.05" fill="#182020" fill-rule="evenodd" stroke="none"/>
    <path d="M-14.0 116.0 L-14.0 20.0 0.0 0.0 -4.0 6.95 -11.5 20.0 -11.5 28.0 -7.5 28.0 -7.55 33.0 -11.5 33.0 -11.5 41.0 -7.5 41.0 -7.5 46.0 -11.5 46.0 -11.5 54.0 -7.5 54.0 -7.5 59.0 -11.5 59.0 -11.5 67.0 -7.5 67.0 -7.5 72.0 -11.5 72.0 -11.5 80.0 -7.5 80.0 -7.5 85.0 -11.5 85.0 -11.5 93.0 -7.5 93.0 -7.5 98.0 -11.5 98.0 -11.5 106.0 -7.5 106.0 -7.5 111.0 -14.0 116.0" fill="#989898" fill-rule="evenodd" stroke="none"/>
    <path d="M-8.0 124.05 L-8.05 124.05 -14.0 116.0 -7.5 111.0 -4.0 114.9 -3.0 116.0 -8.0 124.05" fill="#485048" fill-rule="evenodd" stroke="none"/>
    <path d="M0.0 0.0 L14.0 20.0 14.0 116.0 14.05 116.0 14.0 116.0 8.05 124.05 -8.0 124.05 -8.05 124.05 -14.0 116.0 -14.0 20.0 0.0 0.0 11.5 20.0 11.5 28.0 7.5 28.0 7.55 33.0 11.5 33.0 11.5 41.0 7.5 41.0 7.5 46.0 11.5 46.0 11.5 54.0 7.5 54.0 7.5 59.0 11.5 59.0 11.5 67.0 7.5 67.0 7.5 72.0 11.5 72.0 11.5 80.0 7.5 80.0 7.5 85.0 11.5 85.0 11.5 93.0 7.5 93.0 7.5 98.0 11.5 98.0 11.5 106.0 7.5 106.0 7.5 111.0 14.0 116.0 M7.5 111.0 L3.0 116.0 8.05 124.05 M-4.0 6.95 L-11.5 20.0 -11.5 28.0 -7.5 28.0 -7.55 33.0 -11.5 33.0 -11.5 41.0 -7.5 41.0 -7.5 46.0 -11.5 46.0 -11.5 54.0 -7.5 54.0 -7.5 59.0 -11.5 59.0 -11.5 67.0 -7.5 67.0 -7.5 72.0 -11.5 72.0 -11.5 80.0 -7.5 80.0 -7.5 85.0 -11.5 85.0 -11.5 93.0 -7.5 93.0 -7.5 98.0 -11.5 98.0 -11.5 106.0 -7.5 106.0 -7.5 111.0 -4.0 114.9 -3.0 116.0 3.0 116.0 M-4.0 6.95 L0.0 0.0 M-3.0 116.0 L-8.0 124.05 M-7.5 111.0 L-14.0 116.0" fill="none" stroke="#000000" stroke-linecap="round" stroke-linejoin="round" stroke-width="1.0"/>
  </g>
</svg>
