<?xml version="1.0" encoding="UTF-8" standalone="no"?>
<svg xmlns:ffdec="https://www.free-decompiler.com/flash" xmlns:xlink="http://www.w3.org/1999/xlink" ffdec:objectType="shape" height="83.0px" width="127.25px" xmlns="http://www.w3.org/2000/svg">
  <g transform="matrix(1.0, 0.0, 0.0, 1.0, 63.6, 80.6)">
    <path d="M41.3 -62.9 L39.2 -65.1 35.25 -65.1 29.85 -70.7 13.9 -70.7 13.9 -75.85 5.85 -75.85 5.85 -79.6 34.35 -79.6 37.2 -76.65 59.85 -52.95 54.4 -52.95 50.85 -52.95 41.3 -62.9 M-37.15 -76.65 L-34.3 -79.6 -5.8 -79.6 -5.8 -75.85 -13.85 -75.85 -13.85 -70.7 -29.8 -70.7 -35.2 -65.1 -39.15 -65.1 -41.25 -62.9 -50.8 -52.95 -54.35 -52.95 -59.8 -52.95 -37.15 -76.65 M15.75 -74.0 L26.25 -74.0 26.25 -77.75 15.75 -77.75 15.75 -74.0 M-15.75 -74.0 L-15.75 -77.75 -26.25 -77.75 -26.25 -74.0 -15.75 -74.0" fill="#b0b8b0" fill-rule="evenodd" stroke="none"/>
    <path d="M-5.8 -68.75 L5.85 -68.75 5.85 -66.5 -5.8 -66.5 -5.8 -68.75 M15.75 -74.0 L15.75 -77.75 26.25 -77.75 26.25 -74.0 15.75 -74.0 M-15.75 -74.0 L-26.25 -74.0 -26.25 -77.75 -15.75 -77.75 -15.75 -74.0" fill="#a89838" fill-rule="evenodd" stroke="none"/>
    <path d="M35.25 -65.1 L30.0 -65.1 30.0 -55.4 24.0 -48.45 5.85 -48.45 5.85 -50.35 5.85 -63.1 5.85 -66.5 5.85 -68.75 5.85 -75.85 13.9 -75.85 13.9 -70.7 29.85 -70.7 35.25 -65.1 M12.0 -12.1 L-12.0 -12.1 -17.25 1.4 -26.4 -1.95 -29.6 0.85 -42.9 0.85 -45.05 -2.25 -39.15 -10.55 Q-38.45 -9.35 -37.35 -8.25 -34.25 -5.15 -29.9 -5.1 L-29.75 -5.1 Q-25.55 -5.2 -22.5 -8.25 -19.4 -11.3 -19.4 -15.6 -19.4 -19.95 -22.5 -23.05 L-22.85 -23.4 -18.15 -31.2 -12.15 -28.05 -14.6 -35.7 -21.45 -45.0 21.45 -45.0 14.65 -35.7 12.2 -28.05 6.75 -19.95 12.0 -12.1 M-5.8 -75.85 L-5.8 -68.75 -5.8 -66.5 -5.8 -63.1 -5.8 -50.35 -5.8 -48.45 -24.0 -48.45 -30.0 -55.4 -30.0 -65.1 -35.2 -65.1 -29.8 -70.7 -13.85 -70.7 -13.85 -75.85 -5.8 -75.85 M16.9 -61.35 L16.9 -57.6 24.4 -57.6 24.4 -61.35 16.9 -61.35 M11.65 -39.3 L6.75 -39.3 11.65 -39.3 M-12.0 -12.1 L-6.75 -19.95 -12.15 -28.05 -6.75 -19.95 -12.0 -12.1 M-24.35 -61.35 L-24.35 -57.6 -16.85 -57.6 -16.85 -61.35 -24.35 -61.35 M-6.75 -39.3 L-11.6 -39.3 -6.75 -39.3" fill="#888880" fill-rule="evenodd" stroke="none"/>
    <path d="M49.2 -74.3 L54.45 -74.3 54.45 -68.3 49.2 -68.3 49.2 -74.3 M-49.15 -74.3 L-49.15 -68.3 -54.4 -68.3 -54.4 -74.3 -49.15 -74.3" fill="#a01000" fill-rule="evenodd" stroke="none"/>
    <path d="M49.2 -74.3 L49.2 -68.3 54.45 -68.3 54.45 -74.3 49.2 -74.3 M59.85 -52.95 L37.2 -76.65 55.5 -76.65 62.65 -70.05 62.65 -44.7 Q60.55 -42.6 59.85 -39.15 L59.85 -52.95 M-59.8 -39.15 Q-60.55 -42.6 -62.6 -44.7 L-62.6 -70.05 -55.5 -76.65 -37.15 -76.65 -59.8 -52.95 -59.8 -39.15 M-49.15 -74.3 L-54.4 -74.3 -54.4 -68.3 -49.15 -68.3 -49.15 -74.3" fill="#708080" fill-rule="evenodd" stroke="none"/>
    <path d="M32.45 -41.55 L46.7 -41.55 46.7 -36.1 32.45 -36.1 32.45 -41.55 22.7 -35.55 22.7 -40.2 14.65 -35.7 21.45 -45.0 -21.45 -45.0 -14.6 -35.7 -22.65 -40.2 -22.65 -35.55 -32.4 -41.55 -32.4 -36.1 -46.65 -36.1 -46.65 -41.55 -32.4 -41.55 -24.0 -48.45 -5.8 -48.45 -5.8 -50.35 5.85 -50.35 5.85 -48.45 24.0 -48.45 32.45 -41.55 M54.4 -29.85 L54.4 -52.95 59.85 -52.95 59.85 -39.15 59.85 -25.4 54.4 -29.85 M16.9 -61.35 L24.4 -61.35 24.4 -57.6 16.9 -57.6 16.9 -61.35 M5.85 -66.5 L5.85 -63.1 1.15 -63.1 1.15 -59.9 -1.1 -59.9 -1.1 -63.1 -5.8 -63.1 -5.8 -66.5 5.85 -66.5 M-24.35 -61.35 L-16.85 -61.35 -16.85 -57.6 -24.35 -57.6 -24.35 -61.35" fill="#485048" fill-rule="evenodd" stroke="none"/>
    <path d="M41.3 -55.4 L41.3 -62.9 50.85 -52.95 54.4 -52.95 54.4 -29.85 46.7 -36.1 46.7 -41.55 32.45 -41.55 41.3 -46.6 41.3 -55.4 M-41.25 -62.9 L-41.25 -55.4 -41.25 -46.6 -32.4 -41.55 -46.65 -41.55 -46.65 -36.1 -54.35 -29.85 -54.35 -52.95 -50.8 -52.95 -41.25 -62.9" fill="#101010" fill-rule="evenodd" stroke="none"/>
    <path d="M30.0 -55.4 L41.3 -55.4 41.3 -46.6 32.45 -41.55 24.0 -48.45 30.0 -55.4 M-30.0 -55.4 L-24.0 -48.45 -32.4 -41.55 -41.25 -46.6 -41.25 -55.4 -30.0 -55.4" fill="#686870" fill-rule="evenodd" stroke="none"/>
    <path d="M46.7 -36.1 L54.4 -29.85 54.4 -1.15 53.1 0.1 51.2 -5.35 47.25 -5.35 42.95 0.85 29.65 0.85 26.45 -1.95 17.25 1.4 12.0 -12.1 6.75 -19.95 12.2 -28.05 14.65 -35.7 22.7 -40.2 22.7 -35.55 32.45 -41.55 32.45 -36.1 46.7 -36.1 M30.15 -26.1 L30.0 -26.1 Q25.65 -26.1 22.6 -23.05 19.5 -19.95 19.5 -15.6 19.5 -12.85 20.8 -10.55 21.5 -9.35 22.6 -8.25 25.65 -5.15 30.0 -5.1 L30.15 -5.1 Q34.4 -5.2 37.4 -8.25 40.5 -11.3 40.5 -15.6 40.5 -19.95 37.4 -23.05 L37.05 -23.4 Q34.15 -26.05 30.15 -26.1" fill="#182020" fill-rule="evenodd" stroke="none"/>
    <path d="M5.85 -63.1 L5.85 -50.35 -5.8 -50.35 -5.8 -63.1 -1.1 -63.1 -1.1 -59.9 1.15 -59.9 1.15 -63.1 5.85 -63.1" fill="#304008" fill-rule="evenodd" stroke="none"/>
    <path d="M59.85 -25.4 L59.85 -6.3 54.4 -1.15 54.4 -29.85 59.85 -25.4 M-54.35 -1.15 L-59.8 -6.3 -59.8 -25.4 -54.35 -29.85 -54.35 -1.15" fill="#283040" fill-rule="evenodd" stroke="none"/>
    <path d="M-45.05 -2.25 L-47.25 -5.35 -51.15 -5.35 -53.05 0.1 -54.35 -1.15 -54.35 -29.85 -46.65 -36.1 -32.4 -36.1 -32.4 -41.55 -22.65 -35.55 -22.65 -40.2 -14.6 -35.7 -12.15 -28.05 -18.15 -31.2 -22.85 -23.4 Q-25.8 -26.05 -29.75 -26.1 L-29.9 -26.1 Q-34.25 -26.1 -37.35 -23.05 -40.4 -19.95 -40.4 -15.6 -40.45 -12.85 -39.15 -10.55 L-45.05 -2.25" fill="#a8a888" fill-rule="evenodd" stroke="none"/>
    <path d="M-59.8 -25.4 L-59.8 -39.15 -59.8 -52.95 -54.35 -52.95 -54.35 -29.85 -59.8 -25.4" fill="#989898" fill-rule="evenodd" stroke="none"/>
    <path d="M41.3 -62.9 L41.3 -55.4 30.0 -55.4 30.0 -65.1 35.25 -65.1 39.2 -65.1 41.3 -62.9" fill="url(#gradient0)" fill-rule="evenodd" stroke="none"/>
    <path d="M30.15 -26.1 Q34.15 -26.05 37.05 -23.4 L37.4 -23.05 Q40.5 -19.95 40.5 -15.6 40.5 -11.3 37.4 -8.25 34.4 -5.2 30.15 -5.1 L30.0 -5.1 Q25.65 -5.15 22.6 -8.25 21.5 -9.35 20.8 -10.55 19.5 -12.85 19.5 -15.6 19.5 -19.95 22.6 -23.05 25.65 -26.1 30.0 -26.1 L30.15 -26.1 M30.0 -11.15 L30.0 -8.1 30.0 -11.15 M25.55 -15.6 L22.55 -15.6 25.55 -15.6 M30.0 -23.1 L30.0 -20.1 30.0 -23.1 M37.5 -15.6 L34.5 -15.6 37.5 -15.6" fill="url(#gradient1)" fill-rule="evenodd" stroke="none"/>
    <path d="M-35.2 -65.1 L-30.0 -65.1 -30.0 -55.4 -41.25 -55.4 -41.25 -62.9 -39.15 -65.1 -35.2 -65.1" fill="url(#gradient2)" fill-rule="evenodd" stroke="none"/>
    <path d="M-22.85 -23.4 L-22.5 -23.05 Q-19.4 -19.95 -19.4 -15.6 -19.4 -11.3 -22.5 -8.25 -25.55 -5.2 -29.75 -5.1 L-29.9 -5.1 Q-34.25 -5.15 -37.35 -8.25 -38.45 -9.35 -39.15 -10.55 -40.45 -12.85 -40.4 -15.6 -40.4 -19.95 -37.35 -23.05 -34.25 -26.1 -29.9 -26.1 L-29.75 -26.1 Q-25.8 -26.05 -22.85 -23.4 M-29.9 -11.15 L-29.9 -8.1 -29.9 -11.15 M-34.35 -15.6 L-37.35 -15.6 -34.35 -15.6 M-29.9 -23.1 L-29.9 -20.1 -29.9 -23.1 M-22.4 -15.6 L-25.4 -15.6 -22.4 -15.6" fill="url(#gradient3)" fill-rule="evenodd" stroke="none"/>
    <path d="M6.75 -39.3 L11.65 -39.3 M-11.6 -39.3 L-6.75 -39.3" fill="none" stroke="#000000" stroke-linecap="round" stroke-linejoin="round" stroke-width="3.0"/>
    <path d="M34.5 -15.6 L37.5 -15.6 M30.0 -20.1 L30.0 -23.1 M22.55 -15.6 L25.55 -15.6 M30.0 -8.1 L30.0 -11.15 M-25.4 -15.6 L-22.4 -15.6 M-29.9 -20.1 L-29.9 -23.1 M-37.35 -15.6 L-34.35 -15.6 M-29.9 -8.1 L-29.9 -11.15" fill="none" stroke="#283040" stroke-linecap="round" stroke-linejoin="round" stroke-width="3.0"/>
    <path d="M49.2 -74.3 L49.2 -68.3 54.45 -68.3 54.45 -74.3 49.2 -74.3 M41.3 -55.4 L41.3 -62.9 39.2 -65.1 35.25 -65.1 30.0 -65.1 30.0 -55.4 41.3 -55.4 41.3 -46.6 32.45 -41.55 46.7 -41.55 46.7 -36.1 54.4 -29.85 54.4 -52.95 50.85 -52.95 41.3 -62.9 M54.4 -52.95 L59.85 -52.95 37.2 -76.65 34.35 -79.6 5.85 -79.6 5.85 -75.85 13.9 -75.85 13.9 -70.7 29.85 -70.7 35.25 -65.1 M37.2 -76.65 L55.5 -76.65 62.65 -70.05 62.65 -44.7 Q60.55 -42.6 59.85 -39.15 L59.85 -25.4 59.85 -6.3 54.4 -1.15 53.1 0.1 51.2 -5.35 47.25 -5.35 42.95 0.85 29.65 0.85 26.45 -1.95 17.25 1.4 12.0 -12.1 6.75 -19.95 12.2 -28.05 14.65 -35.7 22.7 -40.2 22.7 -35.55 32.45 -41.55 24.0 -48.45 30.0 -55.4 M-12.0 -12.1 L-17.25 1.4 -26.4 -1.95 -29.6 0.85 -42.9 0.85 -45.05 -2.25 -47.25 -5.35 -51.15 -5.35 -53.05 0.1 -54.35 -1.15 -59.8 -6.3 -59.8 -25.4 -59.8 -39.15 Q-60.55 -42.6 -62.6 -44.7 L-62.6 -70.05 -55.5 -76.65 -37.15 -76.65 -34.3 -79.6 -5.8 -79.6 -5.8 -75.85 -5.8 -68.75 5.85 -68.75 5.85 -75.85 M5.85 -66.5 L5.85 -63.1 5.85 -50.35 5.85 -48.45 24.0 -48.45 M5.85 -66.5 L5.85 -68.75 M5.85 -63.1 L1.15 -63.1 1.15 -59.9 -1.1 -59.9 -1.1 -63.1 -5.8 -63.1 -5.8 -50.35 5.85 -50.35 M15.75 -74.0 L15.75 -77.75 26.25 -77.75 26.25 -74.0 15.75 -74.0 M30.15 -26.1 Q34.15 -26.05 37.05 -23.4 L37.4 -23.05 Q40.5 -19.95 40.5 -15.6 40.5 -11.3 37.4 -8.25 34.4 -5.2 30.15 -5.1 L30.0 -5.1 Q25.65 -5.15 22.6 -8.25 21.5 -9.35 20.8 -10.55 19.5 -12.85 19.5 -15.6 19.5 -19.95 22.6 -23.05 25.65 -26.1 30.0 -26.1 L30.15 -26.1 M32.45 -41.55 L32.45 -36.1 46.7 -36.1 M21.45 -45.0 L-21.45 -45.0 M-14.6 -35.7 L-12.15 -28.05 -6.75 -19.95 -12.0 -12.1 M59.85 -25.4 L54.4 -29.85 54.4 -1.15 M59.85 -52.95 L59.85 -39.15 M-35.2 -65.1 L-29.8 -70.7 -13.85 -70.7 -13.85 -75.85 -5.8 -75.85 M-35.2 -65.1 L-30.0 -65.1 -30.0 -55.4 -24.0 -48.45 -5.8 -48.45 -5.8 -50.35 M-41.25 -62.9 L-39.15 -65.1 -35.2 -65.1 M-5.8 -68.75 L-5.8 -66.5 5.85 -66.5 M-5.8 -63.1 L-5.8 -66.5 M-15.75 -74.0 L-26.25 -74.0 -26.25 -77.75 -15.75 -77.75 -15.75 -74.0 M-49.15 -74.3 L-49.15 -68.3 -54.4 -68.3 -54.4 -74.3 -49.15 -74.3 M-54.35 -52.95 L-59.8 -52.95 -59.8 -39.15 M-41.25 -55.4 L-41.25 -62.9 -50.8 -52.95 -54.35 -52.95 -54.35 -29.85 -46.65 -36.1 -46.65 -41.55 -32.4 -41.55 -41.25 -46.6 -41.25 -55.4 -30.0 -55.4 M-59.8 -25.4 L-54.35 -29.85 -54.35 -1.15 M-12.15 -28.05 L-18.15 -31.2 -22.85 -23.4 -22.5 -23.05 Q-19.4 -19.95 -19.4 -15.6 -19.4 -11.3 -22.5 -8.25 -25.55 -5.2 -29.75 -5.1 L-29.9 -5.1 Q-34.25 -5.15 -37.35 -8.25 -38.45 -9.35 -39.15 -10.55 L-45.05 -2.25 M-39.15 -10.55 Q-40.45 -12.85 -40.4 -15.6 -40.4 -19.95 -37.35 -23.05 -34.25 -26.1 -29.9 -26.1 L-29.75 -26.1 Q-25.8 -26.05 -22.85 -23.4 M-14.6 -35.7 L-22.65 -40.2 -22.65 -35.55 -32.4 -41.55 -32.4 -36.1 -46.65 -36.1 M-24.0 -48.45 L-32.4 -41.55 M-37.15 -76.65 L-59.8 -52.95" fill="none" stroke="#000000" stroke-linecap="round" stroke-linejoin="round" stroke-width="2.0"/>
    <path d="M14.65 -35.7 L21.45 -45.0 M-21.45 -45.0 L-14.6 -35.7" fill="none" stroke="#000000" stroke-linecap="round" stroke-linejoin="round" stroke-width="2.0"/>
  </g>
  <defs>
    <linearGradient gradientTransform="matrix(0.0069, 0.0, 0.0, 0.0059, 35.65, -60.25)" gradientUnits="userSpaceOnUse" id="gradient0" spreadMethod="pad" x1="-819.2" x2="819.2">
      <stop offset="0.0" stop-color="#304008"/>
      <stop offset="0.4823529411764706" stop-color="#e0c830"/>
      <stop offset="0.5803921568627451" stop-color="#e0c830"/>
      <stop offset="1.0" stop-color="#304008"/>
    </linearGradient>
    <radialGradient cx="0" cy="0" gradientTransform="matrix(0.0172, 0.0, 0.0, 0.0172, 27.75, -18.3)" gradientUnits="userSpaceOnUse" id="gradient1" r="819.2" spreadMethod="pad">
      <stop offset="0.0" stop-color="#989898"/>
      <stop offset="1.0" stop-color="#484f4a"/>
    </radialGradient>
    <linearGradient gradientTransform="matrix(0.0069, 0.0, 0.0, 0.0059, -35.6, -60.25)" gradientUnits="userSpaceOnUse" id="gradient2" spreadMethod="pad" x1="-819.2" x2="819.2">
      <stop offset="0.0" stop-color="#304008"/>
      <stop offset="0.4823529411764706" stop-color="#e0c830"/>
      <stop offset="0.5803921568627451" stop-color="#e0c830"/>
      <stop offset="1.0" stop-color="#304008"/>
    </linearGradient>
    <radialGradient cx="0" cy="0" gradientTransform="matrix(0.0172, 0.0, 0.0, 0.0172, -32.15, -18.3)" gradientUnits="userSpaceOnUse" id="gradient3" r="819.2" spreadMethod="pad">
      <stop offset="0.0" stop-color="#989898"/>
      <stop offset="1.0" stop-color="#484f4a"/>
    </radialGradient>
  </defs>
</svg>
