<?xml version="1.0" encoding="UTF-8" standalone="no"?>
<svg xmlns:ffdec="https://www.free-decompiler.com/flash" xmlns:xlink="http://www.w3.org/1999/xlink" ffdec:objectType="shape" height="43.65px" width="43.65px" xmlns="http://www.w3.org/2000/svg">
  <g transform="matrix(1.0, 0.0, 0.0, 1.0, 21.8, 13.45)">
    <path d="M12.0 -11.6 L12.05 -11.55 12.0 -11.55 12.05 -11.55 17.25 1.9 21.85 0.2 21.85 20.1 12.05 14.85 12.0 -11.55 12.0 -11.6" fill="#484858" fill-rule="evenodd" stroke="none"/>
    <path d="M21.85 20.1 L13.3 30.2 -13.3 30.2 -21.8 20.1 -12.0 14.85 -11.25 14.85 0.2 14.85 11.3 14.85 12.05 14.85 21.85 20.1" fill="#e8f8e8" fill-rule="evenodd" stroke="none"/>
    <path d="M8.85 -11.6 Q2.5 -7.75 0.2 8.5 -2.15 -7.75 -8.45 -11.6 L8.85 -11.6" fill="#d8e0e8" fill-rule="evenodd" stroke="none"/>
    <path d="M-21.8 20.1 L-21.8 0.2 -17.25 1.9 -12.0 -11.6 -12.0 14.85 -21.8 20.1" fill="#707878" fill-rule="evenodd" stroke="none"/>
    <path d="M12.0 -11.55 L11.25 -11.25 11.3 14.85 M-11.25 -11.6 L-11.25 -11.4 Q-2.75 -8.1 0.2 14.85 3.05 -7.6 11.25 -11.25 L11.25 -11.6 M-11.75 -11.6 L-11.25 -11.4 -11.25 14.85" fill="none" stroke="#7038c0" stroke-linecap="round" stroke-linejoin="round" stroke-width="2.0"/>
    <path d="M12.0 -11.55 L12.05 -11.55 M-12.0 -11.6 L-11.75 -11.6 -11.25 -11.6 -8.45 -11.6 8.85 -11.6 11.25 -11.6 12.0 -11.6" fill="none" stroke="#e8f8e8" stroke-linecap="round" stroke-linejoin="round" stroke-width="2.0"/>
    <path d="M12.0 -11.6 L12.0 -11.55 12.05 14.85 M-8.45 -11.6 L-10.4 -12.45 M10.75 -12.45 L8.85 -11.6 Q2.5 -7.75 0.2 8.5 -2.15 -7.75 -8.45 -11.6 M-12.0 14.85 L-12.0 -11.6" fill="none" stroke="#b890f8" stroke-linecap="round" stroke-linejoin="round" stroke-width="2.0"/>
    <path d="M-10.4 -12.45 Q0.55 -11.3 10.75 -12.45" fill="none" stroke="#b890f8" stroke-linecap="round" stroke-linejoin="round" stroke-width="2.0"/>
  </g>
</svg>
