<?xml version="1.0" encoding="UTF-8" standalone="no"?>
<svg xmlns:ffdec="https://www.free-decompiler.com/flash" xmlns:xlink="http://www.w3.org/1999/xlink" ffdec:objectType="shape" height="65.1px" width="58.35px" xmlns="http://www.w3.org/2000/svg">
  <g transform="matrix(1.0, 0.0, 0.0, 1.0, 25.45, 24.5)">
    <path d="M15.7 -17.3 L20.25 -18.5 20.7 -15.2 25.2 -15.0 26.05 -16.25 Q27.25 -17.4 28.9 -17.4 L28.95 -17.4 Q30.55 -17.4 31.7 -16.25 32.9 -15.1 32.9 -13.4 L32.9 -3.35 Q32.9 -1.75 31.7 -0.6 L30.55 0.25 30.15 22.8 Q31.0 23.05 31.7 23.75 32.9 24.9 32.9 26.6 L32.9 36.65 Q32.9 38.25 31.7 39.4 30.55 40.6 28.95 40.6 L28.9 40.6 Q27.25 40.6 26.05 39.4 24.9 38.25 24.9 36.65 L24.9 36.5 -15.1 36.5 -15.1 36.65 Q-15.1 38.25 -16.3 39.4 -17.45 40.6 -19.05 40.6 L-19.1 40.6 Q-20.75 40.6 -21.95 39.4 -23.1 38.25 -23.1 36.65 L-23.1 26.6 Q-23.1 24.9 -21.95 23.75 -20.75 22.6 -19.1 22.6 L-19.05 22.6 -19.0 22.6 -19.4 0.6 Q-20.9 0.45 -21.95 -0.6 -23.1 -1.75 -23.1 -3.35 L-23.1 -13.4 Q-23.1 -15.1 -21.95 -16.25 -20.75 -17.4 -19.1 -17.4 L-19.05 -17.4 Q-17.45 -17.4 -16.3 -16.25 L-15.4 -14.95 -9.6 -15.2 -9.15 -18.5 -4.55 -17.3 -0.9 -17.3 -0.85 -18.3 11.95 -18.3 12.0 -17.3 15.7 -17.3" fill="#000000" fill-opacity="0.5019608" fill-rule="evenodd" stroke="none"/>
    <path d="M-6.4 -22.8 L-6.35 -23.8 6.45 -23.8 6.5 -22.8 6.7 -18.4 4.3 -18.4 1.35 -18.4 -1.2 -18.4 -4.15 -18.4 -6.3 -18.4 -6.4 -22.8" fill="#687070" fill-rule="evenodd" stroke="none"/>
    <path d="M10.2 -22.8 L14.75 -24.0 15.2 -20.7 10.15 -20.35 10.2 -22.8 M-24.55 12.05 L-24.95 -6.05 -24.6 -20.3 -15.1 -20.7 -14.65 -24.0 -10.05 -22.8 -10.05 -20.35 -15.1 -20.7 -20.2 -16.55 -20.75 -16.45 -21.4 11.8 -17.9 13.7 -17.65 25.3 -21.15 23.45 -21.4 11.8 -24.55 12.05 M15.35 -13.95 L15.2 -20.7 21.45 -15.9 21.5 11.8 18.15 13.3 18.0 13.7 17.3 -13.95 15.35 -13.95" fill="#304008" fill-rule="evenodd" stroke="none"/>
    <path d="M10.2 -22.8 L10.15 -20.35 10.35 -18.4 6.7 -18.4 6.5 -22.8 10.2 -22.8 M-10.05 -22.8 L-6.4 -22.8 -6.3 -18.4 -10.15 -18.4 -10.05 -20.35 -10.05 -22.8" fill="#384048" fill-rule="evenodd" stroke="none"/>
    <path d="M-14.35 -13.65 L-17.0 -14.1 -17.9 13.7 -21.4 11.8 -20.75 -16.45 -20.2 -16.55 -15.1 -20.7 -14.35 -13.65 M10.9 19.65 L11.2 15.65 14.95 15.55 16.05 16.65 15.95 20.3 10.9 19.65" fill="#485048" fill-rule="evenodd" stroke="none"/>
    <path d="M24.65 12.05 L24.4 30.45 23.65 31.0 -23.55 31.0 -24.25 30.45 -24.55 12.05 -21.4 11.8 -21.15 23.45 -17.65 25.3 -8.65 25.55 -7.25 19.25 -5.5 25.85 -4.45 26.0 -2.45 19.4 -0.25 26.25 0.4 26.25 2.55 19.4 4.45 25.9 5.65 25.85 7.4 19.4 8.85 25.7 17.7 25.35 Q22.35 26.45 21.5 11.8 L24.65 12.05 M4.3 -18.4 L4.15 -17.2 1.35 -17.15 1.35 -18.4 4.3 -18.4 M-1.2 -18.4 L-1.2 -17.1 -4.0 -17.2 -4.15 -18.4 -1.2 -18.4" fill="#101010" fill-rule="evenodd" stroke="none"/>
    <path d="M10.35 -18.4 L10.5 -15.85 14.1 -13.65 15.35 -13.95 17.3 -13.95 18.0 13.7 17.7 25.35 8.85 25.7 7.4 19.4 5.65 25.85 4.45 25.9 2.55 19.4 0.4 26.25 -0.25 26.25 -2.45 19.4 -4.45 26.0 -5.5 25.85 -7.25 19.25 -8.65 25.55 -17.65 25.3 -17.9 13.7 -17.0 -14.1 -14.35 -13.65 -10.5 -15.75 -10.2 -16.05 -10.15 -18.4 -6.3 -18.4 -4.15 -18.4 -4.0 -17.2 -1.2 -17.1 -1.2 -18.4 1.35 -18.4 1.35 -17.15 4.15 -17.2 4.3 -18.4 6.7 -18.4 10.35 -18.4 M15.95 20.3 L16.05 16.65 14.95 15.55 11.2 15.65 10.9 19.65 10.65 22.4 15.55 22.2 15.95 20.3 M-10.75 19.65 L-11.1 15.65 -14.85 15.5 -15.95 16.65 -15.85 20.3 -15.4 22.2 -10.55 22.4 -10.75 19.65" fill="#809058" fill-rule="evenodd" stroke="none"/>
    <path d="M10.15 -20.35 L15.2 -20.7 15.35 -13.95 14.1 -13.65 10.5 -15.85 10.35 -18.4 10.15 -20.35 M-10.15 -18.4 L-10.2 -16.05 -10.5 -15.75 -14.35 -13.65 -15.1 -20.7 -10.05 -20.35 -10.15 -18.4 M15.95 20.3 L15.55 22.2 10.65 22.4 10.9 19.65 15.95 20.3" fill="#586870" fill-rule="evenodd" stroke="none"/>
    <path d="M15.2 -20.7 L24.75 -20.3 25.05 -6.05 24.65 12.05 21.5 11.8 21.45 -15.9 15.2 -20.7 M18.0 13.7 L18.15 13.3 21.5 11.8 Q22.35 26.45 17.7 25.35 L18.0 13.7" fill="#202010" fill-rule="evenodd" stroke="none"/>
    <path d="M-15.85 20.3 L-15.95 16.65 -14.85 15.5 -11.1 15.65 -10.75 19.65 -15.85 20.3" fill="#98a880" fill-rule="evenodd" stroke="none"/>
    <path d="M-10.75 19.65 L-10.55 22.4 -15.4 22.2 -15.85 20.3 -10.75 19.65" fill="#f83800" fill-rule="evenodd" stroke="none"/>
    <path d="M15.2 -20.7 L14.75 -24.0 10.2 -22.8 10.15 -20.35 15.2 -20.7 24.75 -20.3 25.05 -6.05 24.65 12.05 24.4 30.45 23.65 31.0 -23.55 31.0 -24.25 30.45 -24.55 12.05 -24.95 -6.05 -24.6 -20.3 -15.1 -20.7 -14.65 -24.0 -10.05 -22.8 -6.4 -22.8 -6.35 -23.8 6.45 -23.8 6.5 -22.8 10.2 -22.8 M10.35 -18.4 L10.5 -15.85 14.1 -13.65 15.35 -13.95 15.2 -20.7 21.45 -15.9 21.5 11.8 24.65 12.05 M15.35 -13.95 L17.3 -13.95 18.0 13.7 18.15 13.3 21.5 11.8 Q22.35 26.45 17.7 25.35 L8.85 25.7 7.4 19.4 5.65 25.85 4.45 25.9 2.55 19.4 0.4 26.25 -0.25 26.25 -2.45 19.4 -4.45 26.0 -5.5 25.85 -7.25 19.25 -8.65 25.55 -17.65 25.3 -21.15 23.45 -21.4 11.8 -24.55 12.05 M10.15 -20.35 L10.35 -18.4 6.7 -18.4 4.3 -18.4 4.15 -17.2 1.35 -17.15 1.35 -18.4 -1.2 -18.4 -1.2 -17.1 -4.0 -17.2 -4.15 -18.4 -6.3 -18.4 -10.15 -18.4 -10.2 -16.05 -10.5 -15.75 -14.35 -13.65 -17.0 -14.1 -17.9 13.7 -17.65 25.3 M1.35 -18.4 L4.3 -18.4 M6.7 -18.4 L6.5 -22.8 M10.9 19.65 L11.2 15.65 14.95 15.55 16.05 16.65 15.95 20.3 15.55 22.2 10.65 22.4 10.9 19.65 15.95 20.3 M18.0 13.7 L17.7 25.35 M-10.05 -22.8 L-10.05 -20.35 -10.15 -18.4 M-1.2 -18.4 L-4.15 -18.4 M-6.4 -22.8 L-6.3 -18.4 M-15.1 -20.7 L-14.35 -13.65 M-21.4 11.8 L-20.75 -16.45 -20.2 -16.55 -15.1 -20.7 -10.05 -20.35 M-15.85 20.3 L-15.95 16.65 -14.85 15.5 -11.1 15.65 -10.75 19.65 -10.55 22.4 -15.4 22.2 -15.85 20.3 -10.75 19.65 M-17.9 13.7 L-21.4 11.8" fill="none" stroke="#000000" stroke-linecap="round" stroke-linejoin="round" stroke-width="1.0"/>
  </g>
</svg>
