<?xml version="1.0" encoding="UTF-8" standalone="no"?>
<svg xmlns:ffdec="https://www.free-decompiler.com/flash" xmlns:xlink="http://www.w3.org/1999/xlink" ffdec:objectType="shape" height="32.75px" width="32.45px" xmlns="http://www.w3.org/2000/svg">
  <g transform="matrix(1.0, 0.0, 0.0, 1.0, 16.25, 16.4)">
    <path d="M1.35 -8.55 L1.5 -8.7 Q1.95 -9.25 1.95 -9.95 1.95 -10.8 1.35 -11.35 0.8 -11.95 0.0 -11.95 -0.85 -11.95 -1.4 -11.35 -2.0 -10.8 -2.0 -9.95 -2.0 -9.25 -1.55 -8.7 L-1.4 -8.55 Q-0.85 -8.0 0.0 -7.95 0.8 -8.0 1.35 -8.55 M2.95 -7.4 L2.75 -7.15 Q1.6 -6.0 -0.05 -6.0 -1.65 -6.0 -2.8 -7.15 L-3.05 -7.4 Q-3.95 -8.5 -3.95 -9.95 -3.95 -11.6 -2.8 -12.75 -1.65 -13.95 -0.05 -13.95 1.6 -13.95 2.75 -12.75 3.9 -11.6 3.9 -9.95 3.9 -8.5 2.95 -7.4 M-7.35 -3.1 L-7.1 -2.85 Q-5.95 -1.7 -5.95 -0.05 -5.95 1.6 -7.1 2.75 L-7.35 3.0 Q-8.4 3.9 -9.85 3.95 -11.5 3.9 -12.65 2.75 -13.8 1.6 -13.8 -0.05 -13.8 -1.7 -12.65 -2.85 -11.5 -4.0 -9.85 -4.0 -8.4 -4.05 -7.35 -3.1 M-3.05 7.3 L-2.8 7.1 Q-1.65 5.9 -0.05 5.9 1.6 5.9 2.75 7.1 L2.95 7.3 Q3.9 8.4 3.9 9.9 3.9 11.5 2.75 12.7 1.6 13.85 -0.05 13.85 -1.65 13.85 -2.8 12.7 -3.95 11.5 -3.95 9.9 -4.0 8.4 -3.05 7.3 M7.25 2.95 L7.0 2.75 Q5.85 1.6 5.85 -0.05 5.85 -1.7 7.0 -2.85 L7.25 -3.05 Q8.3 -4.0 9.8 -4.0 11.4 -4.0 12.55 -2.85 13.7 -1.7 13.75 -0.05 13.7 1.6 12.55 2.75 11.4 3.9 9.8 3.95 8.3 3.9 7.25 2.95 M1.95 -0.05 Q1.95 -0.85 1.35 -1.45 0.8 -2.05 0.0 -2.0 -0.85 -2.05 -1.4 -1.45 -2.0 -0.85 -2.0 -0.05 L-1.55 1.25 -1.4 1.35 Q-0.85 1.95 0.0 1.95 0.8 1.95 1.35 1.35 L1.5 1.25 Q1.95 0.7 1.95 -0.05 M3.9 -0.05 Q3.9 1.6 2.75 2.75 1.6 3.9 -0.05 3.95 -1.65 3.9 -2.8 2.75 -3.95 1.6 -3.95 -0.05 -3.95 -1.7 -2.8 -2.85 -1.65 -4.0 -0.05 -4.0 1.6 -4.0 2.75 -2.85 3.9 -1.7 3.9 -0.05 M8.4 -1.45 Q7.85 -0.85 7.85 -0.05 7.8 0.7 8.3 1.25 L8.4 1.35 Q9.0 1.95 9.8 1.95 10.6 1.95 11.2 1.35 L11.3 1.25 Q11.75 0.7 11.75 -0.05 11.75 -0.85 11.2 -1.45 10.6 -2.05 9.8 -2.0 9.0 -2.05 8.4 -1.45 M1.35 11.3 L1.5 11.2 1.95 9.9 Q1.95 9.05 1.35 8.5 0.8 7.9 0.0 7.9 -0.85 7.9 -1.4 8.5 -2.0 9.05 -2.0 9.9 L-1.55 11.2 -1.4 11.3 Q-0.85 11.9 0.0 11.9 0.8 11.9 1.35 11.3 M-11.25 -1.45 Q-11.8 -0.85 -11.8 -0.05 -11.85 0.7 -11.35 1.25 L-11.25 1.35 Q-10.65 1.95 -9.85 1.95 -9.05 1.95 -8.45 1.35 L-8.35 1.25 Q-7.9 0.7 -7.9 -0.05 -7.9 -0.85 -8.45 -1.45 -9.05 -2.05 -9.85 -2.0 -10.65 -2.05 -11.25 -1.45" fill="#384048" fill-rule="evenodd" stroke="none"/>
    <path d="M1.35 -8.55 Q0.8 -8.0 0.0 -7.95 -0.85 -8.0 -1.4 -8.55 L-1.55 -8.7 Q-2.0 -9.25 -2.0 -9.95 -2.0 -10.8 -1.4 -11.35 -0.85 -11.95 0.0 -11.95 0.8 -11.95 1.35 -11.35 1.95 -10.8 1.95 -9.95 1.95 -9.25 1.5 -8.7 L1.35 -8.55 M1.95 -0.05 Q1.95 0.7 1.5 1.25 L1.35 1.35 Q0.8 1.95 0.0 1.95 -0.85 1.95 -1.4 1.35 L-1.55 1.25 -2.0 -0.05 Q-2.0 -0.85 -1.4 -1.45 -0.85 -2.05 0.0 -2.0 0.8 -2.05 1.35 -1.45 1.95 -0.85 1.95 -0.05 M8.4 -1.45 Q9.0 -2.05 9.8 -2.0 10.6 -2.05 11.2 -1.45 11.75 -0.85 11.75 -0.05 11.75 0.7 11.3 1.25 L11.2 1.35 Q10.6 1.95 9.8 1.95 9.0 1.95 8.4 1.35 L8.3 1.25 Q7.8 0.7 7.85 -0.05 7.85 -0.85 8.4 -1.45 M1.35 11.3 Q0.8 11.9 0.0 11.9 -0.85 11.9 -1.4 11.3 L-1.55 11.2 -2.0 9.9 Q-2.0 9.05 -1.4 8.5 -0.85 7.9 0.0 7.9 0.8 7.9 1.35 8.5 1.95 9.05 1.95 9.9 L1.5 11.2 1.35 11.3 M-11.25 -1.45 Q-10.65 -2.05 -9.85 -2.0 -9.05 -2.05 -8.45 -1.45 -7.9 -0.85 -7.9 -0.05 -7.9 0.7 -8.35 1.25 L-8.45 1.35 Q-9.05 1.95 -9.85 1.95 -10.65 1.95 -11.25 1.35 L-11.35 1.25 Q-11.85 0.7 -11.8 -0.05 -11.8 -0.85 -11.25 -1.45" fill="#101010" fill-rule="evenodd" stroke="none"/>
    <path d="M-3.05 -7.4 L-2.8 -7.15 Q-1.65 -6.0 -0.05 -6.0 1.6 -6.0 2.75 -7.15 L2.95 -7.4 Q4.35 -6.85 5.5 -5.65 6.65 -4.5 7.25 -3.05 L7.0 -2.85 Q5.85 -1.7 5.85 -0.05 5.85 1.6 7.0 2.75 L7.25 2.95 Q6.65 4.35 5.5 5.55 4.35 6.7 2.95 7.3 L2.75 7.1 Q1.6 5.9 -0.05 5.9 -1.65 5.9 -2.8 7.1 L-3.05 7.3 Q-4.45 6.7 -5.6 5.55 -6.75 4.4 -7.35 3.0 L-7.1 2.75 Q-5.95 1.6 -5.95 -0.05 -5.95 -1.7 -7.1 -2.85 L-7.35 -3.1 Q-6.75 -4.5 -5.6 -5.65 -4.45 -6.85 -3.05 -7.4 M3.9 -0.05 Q3.9 -1.7 2.75 -2.85 1.6 -4.0 -0.05 -4.0 -1.65 -4.0 -2.8 -2.85 -3.95 -1.7 -3.95 -0.05 -3.95 1.6 -2.8 2.75 -1.65 3.9 -0.05 3.95 1.6 3.9 2.75 2.75 3.9 1.6 3.9 -0.05" fill="#485048" fill-rule="evenodd" stroke="none"/>
    <path d="M-3.05 -7.4 Q-4.45 -6.85 -5.6 -5.65 -6.75 -4.5 -7.35 -3.1 -8.4 -4.05 -9.85 -4.0 -11.5 -4.0 -12.65 -2.85 -13.8 -1.7 -13.8 -0.05 -13.8 1.6 -12.65 2.75 -11.5 3.9 -9.85 3.95 -8.4 3.9 -7.35 3.0 -6.75 4.4 -5.6 5.55 -4.45 6.7 -3.05 7.3 -4.0 8.4 -3.95 9.9 -3.95 11.5 -2.8 12.7 -1.65 13.85 -0.05 13.85 1.6 13.85 2.75 12.7 3.9 11.5 3.9 9.9 3.9 8.4 2.95 7.3 4.35 6.7 5.5 5.55 6.65 4.35 7.25 2.95 8.3 3.9 9.8 3.95 11.4 3.9 12.55 2.75 13.7 1.6 13.75 -0.05 13.7 -1.7 12.55 -2.85 11.4 -4.0 9.8 -4.0 8.3 -4.0 7.25 -3.05 6.65 -4.5 5.5 -5.65 4.35 -6.85 2.95 -7.4 3.9 -8.5 3.9 -9.95 3.9 -11.6 2.75 -12.75 1.6 -13.95 -0.05 -13.95 -1.65 -13.95 -2.8 -12.75 -3.95 -11.6 -3.95 -9.95 -3.95 -8.5 -3.05 -7.4 M15.7 -0.05 Q15.7 6.5 11.1 11.2 6.5 15.85 0.0 15.85 -6.55 15.85 -11.15 11.2 -15.75 6.5 -15.75 -0.05 -15.75 -6.6 -11.15 -11.25 -6.55 -15.9 0.0 -15.9 6.5 -15.9 11.1 -11.25 15.7 -6.6 15.7 -0.05" fill="#586870" fill-rule="evenodd" stroke="none"/>
    <path d="M2.95 -7.4 L2.75 -7.15 Q1.6 -6.0 -0.05 -6.0 -1.65 -6.0 -2.8 -7.15 L-3.05 -7.4 Q-3.95 -8.5 -3.95 -9.95 -3.95 -11.6 -2.8 -12.75 -1.65 -13.95 -0.05 -13.95 1.6 -13.95 2.75 -12.75 3.9 -11.6 3.9 -9.95 3.9 -8.5 2.95 -7.4 M-7.35 -3.1 L-7.1 -2.85 Q-5.95 -1.7 -5.95 -0.05 -5.95 1.6 -7.1 2.75 L-7.35 3.0 Q-8.4 3.9 -9.85 3.95 -11.5 3.9 -12.65 2.75 -13.8 1.6 -13.8 -0.05 -13.8 -1.7 -12.65 -2.85 -11.5 -4.0 -9.85 -4.0 -8.4 -4.05 -7.35 -3.1 M-3.05 7.3 L-2.8 7.1 Q-1.65 5.9 -0.05 5.9 1.6 5.9 2.75 7.1 L2.95 7.3 Q3.9 8.4 3.9 9.9 3.9 11.5 2.75 12.7 1.6 13.85 -0.05 13.85 -1.65 13.85 -2.8 12.7 -3.95 11.5 -3.95 9.9 -4.0 8.4 -3.05 7.3 M7.25 2.95 L7.0 2.75 Q5.85 1.6 5.85 -0.05 5.85 -1.7 7.0 -2.85 L7.25 -3.05 Q8.3 -4.0 9.8 -4.0 11.4 -4.0 12.55 -2.85 13.7 -1.7 13.75 -0.05 13.7 1.6 12.55 2.75 11.4 3.9 9.8 3.95 8.3 3.9 7.25 2.95 M3.9 -0.05 Q3.9 1.6 2.75 2.75 1.6 3.9 -0.05 3.95 -1.65 3.9 -2.8 2.75 -3.95 1.6 -3.95 -0.05 -3.95 -1.7 -2.8 -2.85 -1.65 -4.0 -0.05 -4.0 1.6 -4.0 2.75 -2.85 3.9 -1.7 3.9 -0.05" fill="none" stroke="#d0c8c0" stroke-linecap="round" stroke-linejoin="round" stroke-width="1.0"/>
    <path d="M-3.05 -7.4 Q-4.45 -6.85 -5.6 -5.65 -6.75 -4.5 -7.35 -3.1 M-7.35 3.0 Q-6.75 4.4 -5.6 5.55 -4.45 6.7 -3.05 7.3 M2.95 7.3 Q4.35 6.7 5.5 5.55 6.65 4.35 7.25 2.95 M7.25 -3.05 Q6.65 -4.5 5.5 -5.65 4.35 -6.85 2.95 -7.4" fill="none" stroke="#27291c" stroke-linecap="round" stroke-linejoin="round" stroke-width="1.0"/>
    <path d="M15.7 -0.05 Q15.7 6.5 11.1 11.2 6.5 15.85 0.0 15.85 -6.55 15.85 -11.15 11.2 -15.75 6.5 -15.75 -0.05 -15.75 -6.6 -11.15 -11.25 -6.55 -15.9 0.0 -15.9 6.5 -15.9 11.1 -11.25 15.7 -6.6 15.7 -0.05 Z" fill="none" stroke="#000000" stroke-linecap="round" stroke-linejoin="round" stroke-width="1.0"/>
  </g>
</svg>
