<?xml version="1.0" encoding="UTF-8" standalone="no"?>
<svg xmlns:ffdec="https://www.free-decompiler.com/flash" xmlns:xlink="http://www.w3.org/1999/xlink" ffdec:objectType="shape" height="59.0px" width="57.0px" xmlns="http://www.w3.org/2000/svg">
  <g transform="matrix(1.0, 0.0, 0.0, 1.0, 29.1, 23.4)">
    <path d="M27.4 -13.1 L27.4 -8.85 Q27.4 -7.25 26.2 -6.1 25.05 -4.9 23.45 -4.9 L23.4 -4.9 Q21.75 -4.9 20.55 -6.1 19.4 -7.25 19.4 -8.85 L19.4 -18.9 Q19.4 -20.6 20.55 -21.75 21.75 -22.9 23.4 -22.9 L23.45 -22.9 Q25.05 -22.9 26.2 -21.75 27.4 -20.6 27.4 -18.9 L27.4 -13.2 27.4 -13.1" fill="url(#gradient0)" fill-rule="evenodd" stroke="none"/>
    <path d="M27.4 26.9 L27.4 31.15 Q27.4 32.75 26.2 33.9 25.05 35.1 23.45 35.1 L23.4 35.1 Q21.75 35.1 20.55 33.9 19.4 32.75 19.4 31.15 L19.4 21.1 Q19.4 19.4 20.55 18.25 21.75 17.1 23.4 17.1 L23.45 17.1 Q25.05 17.1 26.2 18.25 27.4 19.4 27.4 21.1 L27.4 26.8 27.4 26.9" fill="url(#gradient1)" fill-rule="evenodd" stroke="none"/>
    <path d="M-20.6 -13.1 L-20.6 -8.85 Q-20.6 -7.25 -21.8 -6.1 -22.95 -4.9 -24.55 -4.9 L-24.6 -4.9 Q-26.25 -4.9 -27.45 -6.1 -28.6 -7.25 -28.6 -8.85 L-28.6 -18.9 Q-28.6 -20.6 -27.45 -21.75 -26.25 -22.9 -24.6 -22.9 L-24.55 -22.9 Q-22.95 -22.9 -21.8 -21.75 -20.6 -20.6 -20.6 -18.9 L-20.6 -13.2 -20.6 -13.1" fill="url(#gradient2)" fill-rule="evenodd" stroke="none"/>
    <path d="M-20.6 26.9 L-20.6 31.15 Q-20.6 32.75 -21.8 33.9 -22.95 35.1 -24.55 35.1 L-24.6 35.1 Q-26.25 35.1 -27.45 33.9 -28.6 32.75 -28.6 31.15 L-28.6 21.1 Q-28.6 19.4 -27.45 18.25 -26.25 17.1 -24.6 17.1 L-24.55 17.1 Q-22.95 17.1 -21.8 18.25 -20.6 19.4 -20.6 21.1 L-20.6 26.8 -20.6 26.9" fill="url(#gradient3)" fill-rule="evenodd" stroke="none"/>
    <path d="M27.4 -13.2 L27.4 -18.9 Q27.4 -20.6 26.2 -21.75 25.05 -22.9 23.45 -22.9 L23.4 -22.9 Q21.75 -22.9 20.55 -21.75 19.4 -20.6 19.4 -18.9 L19.4 -8.85 Q19.4 -7.25 20.55 -6.1 21.75 -4.9 23.4 -4.9 L23.45 -4.9 Q25.05 -4.9 26.2 -6.1 27.4 -7.25 27.4 -8.85 L27.4 -13.1 M27.4 26.8 L27.4 21.1 Q27.4 19.4 26.2 18.25 25.05 17.1 23.45 17.1 L23.4 17.1 Q21.75 17.1 20.55 18.25 19.4 19.4 19.4 21.1 L19.4 31.15 Q19.4 32.75 20.55 33.9 21.75 35.1 23.4 35.1 L23.45 35.1 Q25.05 35.1 26.2 33.9 27.4 32.75 27.4 31.15 L27.4 26.9 M-20.6 -13.2 L-20.6 -18.9 Q-20.6 -20.6 -21.8 -21.75 -22.95 -22.9 -24.55 -22.9 L-24.6 -22.9 Q-26.25 -22.9 -27.45 -21.75 -28.6 -20.6 -28.6 -18.9 L-28.6 -8.85 Q-28.6 -7.25 -27.45 -6.1 -26.25 -4.9 -24.6 -4.9 L-24.55 -4.9 Q-22.95 -4.9 -21.8 -6.1 -20.6 -7.25 -20.6 -8.85 L-20.6 -13.1 M-20.6 26.8 L-20.6 21.1 Q-20.6 19.4 -21.8 18.25 -22.95 17.1 -24.55 17.1 L-24.6 17.1 Q-26.25 17.1 -27.45 18.25 -28.6 19.4 -28.6 21.1 L-28.6 31.15 Q-28.6 32.75 -27.45 33.9 -26.25 35.1 -24.6 35.1 L-24.55 35.1 Q-22.95 35.1 -21.8 33.9 -20.6 32.75 -20.6 31.15 L-20.6 26.9" fill="none" stroke="#000000" stroke-linecap="round" stroke-linejoin="round" stroke-width="1.0"/>
  </g>
  <defs>
    <linearGradient gradientTransform="matrix(0.0, -0.011, 0.0049, 0.0, 23.4, -13.9)" gradientUnits="userSpaceOnUse" id="gradient0" spreadMethod="pad" x1="-819.2" x2="819.2">
      <stop offset="0.0" stop-color="#000000"/>
      <stop offset="1.0" stop-color="#203040"/>
    </linearGradient>
    <linearGradient gradientTransform="matrix(0.0, -0.011, 0.0049, 0.0, 23.4, 26.1)" gradientUnits="userSpaceOnUse" id="gradient1" spreadMethod="pad" x1="-819.2" x2="819.2">
      <stop offset="0.0" stop-color="#000000"/>
      <stop offset="1.0" stop-color="#203040"/>
    </linearGradient>
    <linearGradient gradientTransform="matrix(0.0, -0.011, 0.0049, 0.0, -24.6, -13.9)" gradientUnits="userSpaceOnUse" id="gradient2" spreadMethod="pad" x1="-819.2" x2="819.2">
      <stop offset="0.0" stop-color="#000000"/>
      <stop offset="1.0" stop-color="#203040"/>
    </linearGradient>
    <linearGradient gradientTransform="matrix(0.0, -0.011, 0.0049, 0.0, -24.6, 26.1)" gradientUnits="userSpaceOnUse" id="gradient3" spreadMethod="pad" x1="-819.2" x2="819.2">
      <stop offset="0.0" stop-color="#000000"/>
      <stop offset="1.0" stop-color="#203040"/>
    </linearGradient>
  </defs>
</svg>
