<?xml version="1.0" encoding="UTF-8" standalone="no"?>
<svg xmlns:ffdec="https://www.free-decompiler.com/flash" xmlns:xlink="http://www.w3.org/1999/xlink" ffdec:objectType="shape" height="38.0px" width="38.0px" xmlns="http://www.w3.org/2000/svg">
  <g transform="matrix(1.0, 0.0, 0.0, 1.0, 17.0, 17.0)">
    <path d="M19.0 -11.0 Q19.85 -11.0 20.4 -10.4 21.0 -9.8 21.0 -9.0 L21.0 19.0 Q21.0 19.85 20.4 20.4 19.85 21.0 19.0 21.0 L-9.0 21.0 Q-9.8 21.0 -10.4 20.4 -11.0 19.85 -11.0 19.0 L-11.0 -9.0 Q-11.0 -9.8 -10.4 -10.4 -9.8 -11.0 -9.0 -11.0 L19.0 -11.0" fill="#000000" fill-opacity="0.5019608" fill-rule="evenodd" stroke="none"/>
    <path d="M7.25 -7.2 L6.55 -7.5 -6.55 -7.5 Q-6.95 -7.5 -7.2 -7.2 L-7.5 -6.55 -7.5 6.6 -7.2 7.25 -6.55 7.5 6.55 7.5 7.25 7.25 7.5 6.6 7.5 -6.55 7.25 -7.2 M11.55 -11.55 L12.0 -10.5 12.0 10.5 11.55 11.55 10.5 12.0 -10.5 12.0 -11.55 11.55 -12.0 10.5 -12.0 -10.5 -11.55 -11.55 -10.5 -12.0 10.5 -12.0 11.55 -11.55" fill="#707870" fill-rule="evenodd" stroke="none"/>
    <path d="M11.55 -11.55 L10.5 -12.0 -10.5 -12.0 -11.55 -11.55 -12.0 -10.5 -12.0 10.5 -11.55 11.55 -10.5 12.0 10.5 12.0 11.55 11.55 12.0 10.5 12.0 -10.5 11.55 -11.55 M15.4 -15.4 Q16.0 -14.8 16.0 -14.0 L16.0 14.0 Q16.0 14.85 15.4 15.4 14.85 16.0 14.0 16.0 L-14.0 16.0 Q-14.8 16.0 -15.4 15.4 -16.0 14.85 -16.0 14.0 L-16.0 -14.0 Q-16.0 -14.8 -15.4 -15.4 -14.8 -16.0 -14.0 -16.0 L14.0 -16.0 Q14.85 -16.0 15.4 -15.4" fill="#101010" fill-rule="evenodd" stroke="none"/>
    <path d="M7.25 -7.2 L7.5 -6.55 7.5 6.6 7.25 7.25 6.55 7.5 -6.55 7.5 -7.2 7.25 -7.5 6.6 -7.5 -6.55 -7.2 -7.2 Q-6.95 -7.5 -6.55 -7.5 L6.55 -7.5 7.25 -7.2" fill="#384048" fill-rule="evenodd" stroke="none"/>
    <path d="M15.4 -15.4 Q14.85 -16.0 14.0 -16.0 L-14.0 -16.0 Q-14.8 -16.0 -15.4 -15.4 -16.0 -14.8 -16.0 -14.0 L-16.0 14.0 Q-16.0 14.85 -15.4 15.4 -14.8 16.0 -14.0 16.0 L14.0 16.0 Q14.85 16.0 15.4 15.4 16.0 14.85 16.0 14.0 L16.0 -14.0 Q16.0 -14.8 15.4 -15.4 Z" fill="none" stroke="#98a880" stroke-linecap="round" stroke-linejoin="round" stroke-width="2.0"/>
  </g>
</svg>
