<?xml version="1.0" encoding="UTF-8" standalone="no"?>
<svg xmlns:ffdec="https://www.free-decompiler.com/flash" xmlns:xlink="http://www.w3.org/1999/xlink" ffdec:objectType="shape" height="36.7px" width="14.25px" xmlns="http://www.w3.org/2000/svg">
  <g transform="matrix(1.0, 0.0, 0.0, 1.0, 7.3, 13.8)">
    <path d="M3.6 21.85 L3.6 21.9 3.5 22.2 2.45 22.35 Q-1.0 21.65 -1.55 19.6 3.25 17.8 3.65 21.6 L3.6 21.85" fill="#000000" fill-rule="evenodd" stroke="none"/>
    <path d="M-3.95 3.3 Q-4.75 3.6 -5.45 3.05 -6.6 2.1 -6.75 0.55 -7.15 -3.2 -5.1 -7.35 -2.55 -7.2 -2.3 -9.45 -2.0 -14.45 2.55 -12.95 7.0 -11.5 6.4 -7.35 5.1 -5.15 5.15 -2.9 5.2 -1.35 5.65 0.1 L5.65 0.35 Q6.15 2.7 3.95 1.8 -0.2 -0.45 -3.25 2.8 L-3.95 3.3" fill="url(#gradient0)" fill-rule="evenodd" stroke="none"/>
    <path d="M-3.95 3.3 L-3.25 2.8 Q-0.2 -0.45 3.95 1.8 5.85 4.5 5.35 7.25 4.45 6.75 3.55 6.4 L2.4 6.05 Q-1.35 5.05 -3.05 8.1 -4.65 5.75 -3.95 3.3" fill="url(#gradient1)" fill-rule="evenodd" stroke="none"/>
    <path d="M3.55 6.4 Q5.85 9.3 4.45 12.0 1.55 9.1 -1.25 12.0 -1.35 9.6 -3.05 8.1 -1.35 5.05 2.4 6.05 L3.55 6.4" fill="url(#gradient2)" fill-rule="evenodd" stroke="none"/>
    <path d="M4.45 12.0 L4.5 15.6 4.25 19.5 Q4.1 20.75 3.6 21.85 L3.65 21.6 Q3.25 17.8 -1.55 19.6 -0.95 15.95 -1.25 12.0 1.55 9.1 4.45 12.0" fill="url(#gradient3)" fill-rule="evenodd" stroke="none"/>
    <path d="M3.95 1.8 Q6.15 2.7 5.65 0.35 L5.65 0.1 Q5.2 -1.35 5.15 -2.9 5.1 -5.15 6.4 -7.35 7.0 -11.5 2.55 -12.95 -2.0 -14.45 -2.3 -9.45 -2.55 -7.2 -5.1 -7.35 -7.15 -3.2 -6.75 0.55 -6.6 2.1 -5.45 3.05 -4.75 3.6 -3.95 3.3 L-3.25 2.8 Q-0.2 -0.45 3.95 1.8 5.85 4.5 5.35 7.25 4.45 6.75 3.55 6.4 5.85 9.3 4.45 12.0 L4.5 15.6 4.25 19.5 Q4.1 20.75 3.6 21.85 L3.6 21.9 3.5 22.2 2.45 22.35 Q-1.0 21.65 -1.55 19.6 -0.95 15.95 -1.25 12.0 -1.35 9.6 -3.05 8.1 -4.65 5.75 -3.95 3.3 M3.55 6.4 L2.4 6.05 Q-1.35 5.05 -3.05 8.1 M3.6 21.85 L3.65 21.6 Q3.25 17.8 -1.55 19.6 M-1.25 12.0 Q1.55 9.1 4.45 12.0" fill="none" stroke="#000000" stroke-linecap="round" stroke-linejoin="round" stroke-width="1.0"/>
  </g>
  <defs>
    <linearGradient gradientTransform="matrix(0.0072, 0.0, 0.0, 0.0102, 0.25, -5.05)" gradientUnits="userSpaceOnUse" id="gradient0" spreadMethod="pad" x1="-819.2" x2="819.2">
      <stop offset="0.0" stop-color="#959672"/>
      <stop offset="0.47058823529411764" stop-color="#ccd3d3"/>
      <stop offset="1.0" stop-color="#485248"/>
    </linearGradient>
    <linearGradient gradientTransform="matrix(0.0046, -2.0E-4, 2.0E-4, 0.0043, 0.9, 4.3)" gradientUnits="userSpaceOnUse" id="gradient1" spreadMethod="pad" x1="-819.2" x2="819.2">
      <stop offset="0.0" stop-color="#17191b"/>
      <stop offset="0.47058823529411764" stop-color="#ccd3d3"/>
      <stop offset="1.0" stop-color="#485248"/>
    </linearGradient>
    <linearGradient gradientTransform="matrix(0.0026, -1.0E-4, 2.0E-4, 0.0038, 1.25, 8.9)" gradientUnits="userSpaceOnUse" id="gradient2" spreadMethod="pad" x1="-819.2" x2="819.2">
      <stop offset="0.0" stop-color="#17191b"/>
      <stop offset="0.47058823529411764" stop-color="#ccd3d3"/>
      <stop offset="1.0" stop-color="#485248"/>
    </linearGradient>
    <linearGradient gradientTransform="matrix(0.0022, -1.0E-4, 2.0E-4, 0.007, 1.65, 16.15)" gradientUnits="userSpaceOnUse" id="gradient3" spreadMethod="pad" x1="-819.2" x2="819.2">
      <stop offset="0.0" stop-color="#17191b"/>
      <stop offset="0.47058823529411764" stop-color="#ccd3d3"/>
      <stop offset="1.0" stop-color="#485248"/>
    </linearGradient>
  </defs>
</svg>
