<?xml version="1.0" encoding="UTF-8" standalone="no"?>
<svg xmlns:ffdec="https://www.free-decompiler.com/flash" xmlns:xlink="http://www.w3.org/1999/xlink" ffdec:objectType="shape" height="23.15px" width="29.0px" xmlns="http://www.w3.org/2000/svg">
  <g transform="matrix(1.0, 0.0, 0.0, 1.0, -15.25, -8.65)">
    <path d="M41.85 28.05 Q40.5 30.1 38.35 29.3 L37.4 28.55 37.35 28.6 Q35.9 30.45 31.2 30.05 L30.1 31.7 30.05 31.75 29.85 31.8 29.7 31.75 29.65 31.7 29.6 31.6 28.55 30.05 Q24.05 30.45 22.55 28.75 L21.5 29.5 21.45 29.55 Q19.1 30.4 17.7 28.2 17.0 27.1 16.55 25.15 L15.85 21.5 Q15.3 17.5 15.25 11.55 15.2 11.4 15.3 11.35 L15.5 11.3 16.0 11.3 16.0 9.75 16.05 9.55 16.25 9.5 18.75 9.5 18.9 9.55 19.0 9.75 19.0 11.9 22.5 11.9 22.5 13.65 23.5 13.65 23.5 11.3 22.1 11.3 22.1 9.8 23.95 8.65 28.5 8.65 28.3 9.15 28.45 9.3 28.45 9.35 31.3 9.35 31.3 9.3 31.45 9.15 31.25 8.65 35.8 8.65 37.6 9.8 37.6 11.3 36.25 11.3 36.25 13.65 37.25 13.65 37.25 11.9 41.0 11.9 41.0 9.75 43.5 9.75 43.5 11.55 44.25 11.55 Q44.0 24.65 41.85 28.05" fill="#000000" fill-opacity="0.2509804" fill-rule="evenodd" stroke="none"/>
  </g>
</svg>
