<?xml version="1.0" encoding="UTF-8" standalone="no"?>
<svg xmlns:ffdec="https://www.free-decompiler.com/flash" xmlns:xlink="http://www.w3.org/1999/xlink" ffdec:objectType="shape" height="46.8px" width="58.5px" xmlns="http://www.w3.org/2000/svg">
  <g transform="matrix(1.0, 0.0, 0.0, 1.0, 29.25, 23.4)">
    <path d="M5.15 15.5 L5.1 15.55 0.0 17.65 -5.1 15.5 -4.9 15.8 -5.1 15.5 5.15 15.5" fill="#283040" fill-rule="evenodd" stroke="none"/>
    <path d="M22.25 -16.4 L22.25 -20.75 27.25 -20.75 27.25 -17.15 24.65 -17.15 22.25 -12.85 16.75 -2.9 16.75 -12.9 22.25 -12.85 22.25 -16.4 M14.65 16.6 Q11.8 20.2 2.45 19.35 L4.4 16.65 5.15 15.5 5.15 6.5 10.7 2.1 12.25 3.6 12.25 14.85 14.65 16.6 M-2.4 19.35 Q-11.75 20.2 -14.6 16.6 L-12.25 14.85 -12.25 3.6 -10.65 2.1 -5.1 6.5 -5.1 15.5 -4.9 15.8 -2.4 19.35 M-27.25 -17.15 L-27.25 -20.75 -22.25 -20.75 -22.25 -16.4 -22.25 -12.85 -24.6 -17.15 -27.25 -17.15 M-3.35 -21.5 L3.35 -21.5 6.75 -13.65 3.25 -13.65 -3.25 -13.65 -6.75 -13.65 -3.35 -21.5 M5.1 15.55 L5.15 15.5 5.1 15.55 M-22.25 -12.85 L-16.75 -12.9 -16.75 -2.9 -22.25 -12.85" fill="#404838" fill-rule="evenodd" stroke="none"/>
    <path d="M-22.25 -16.4 L-14.75 -16.4 -14.75 -12.9 -16.75 -12.9 -22.25 -12.85 -22.25 -16.4" fill="url(#gradient0)" fill-rule="evenodd" stroke="none"/>
    <path d="M-15.5 -20.65 L-11.85 -22.9 -2.75 -22.9 -3.35 -21.5 -6.75 -13.65 -3.25 -13.65 3.25 -13.65 6.75 -13.65 3.35 -21.5 2.75 -22.9 11.9 -22.9 15.5 -20.65 6.75 -20.65 6.75 -13.65 6.75 -11.0 -6.75 -11.0 -6.75 -13.65 -6.75 -20.65 -15.5 -20.65" fill="#707870" fill-rule="evenodd" stroke="none"/>
    <path d="M-14.75 -12.9 L-12.75 -12.9 -12.75 -17.65 -15.5 -17.65 -15.5 -20.65 -6.75 -20.65 -6.75 -13.65 -6.75 -11.0 -6.75 -8.5 -6.75 -1.65 -16.75 -2.9 -16.75 -12.9 -14.75 -12.9 M15.5 -20.65 L15.5 -17.65 12.75 -17.65 12.75 -12.9 14.75 -12.9 16.75 -12.9 16.75 -2.9 16.75 14.85 12.25 14.85 12.25 3.6 16.75 -2.9 6.75 -1.65 6.75 -8.5 6.75 -11.0 6.75 -13.65 6.75 -20.65 15.5 -20.65 M10.7 2.1 L5.15 6.5 5.15 15.5 -5.1 15.5 -5.1 6.5 -10.65 2.1 -6.75 -1.65 0.0 6.25 6.75 -1.65 10.7 2.1 M-12.25 3.6 L-12.25 14.85 -16.75 14.85 -16.75 -2.9 -12.25 3.6" fill="#888880" fill-rule="evenodd" stroke="none"/>
    <path d="M6.75 -11.0 L6.75 -8.5 -6.75 -8.5 -6.75 -11.0 6.75 -11.0" fill="#d8d8b8" fill-rule="evenodd" stroke="none"/>
    <path d="M6.75 -8.5 L6.75 -1.65 0.0 6.25 -6.75 -1.65 -6.75 -8.5 6.75 -8.5" fill="#989898" fill-rule="evenodd" stroke="none"/>
    <path d="M27.25 -17.15 L28.75 -17.15 Q28.25 9.1 23.95 15.9 21.35 19.95 17.0 18.35 L14.65 16.6 12.25 14.85 16.75 14.85 16.75 -2.9 22.25 -12.85 24.65 -17.15 27.25 -17.15 M-14.6 16.6 L-17.0 18.35 Q-21.35 19.95 -23.95 15.9 -25.25 13.8 -26.2 9.95 -27.0 6.85 -27.5 2.65 -28.55 -5.25 -28.75 -17.15 L-27.25 -17.15 -24.6 -17.15 -22.25 -12.85 -16.75 -2.9 -6.75 -1.65 -10.65 2.1 -12.25 3.6 -16.75 -2.9 -16.75 14.85 -12.25 14.85 -14.6 16.6 M6.75 -1.65 L16.75 -2.9 12.25 3.6 10.7 2.1 6.75 -1.65" fill="#484858" fill-rule="evenodd" stroke="none"/>
    <path d="M14.75 -12.9 L14.75 -16.4 22.25 -16.4 22.25 -12.85 16.75 -12.9 14.75 -12.9" fill="url(#gradient1)" fill-rule="evenodd" stroke="none"/>
    <path d="M2.45 19.35 L0.05 22.85 0.0 22.9 0.0 22.85 -2.4 19.35 -4.9 15.8 -5.1 15.5 0.0 17.65 5.1 15.55 5.15 15.5 4.4 16.65 2.45 19.35 M0.05 22.85 L0.0 22.9 0.0 22.85 0.0 22.9 0.05 22.85 M0.0 22.9 L0.0 17.65 0.0 22.9 M5.1 15.55 L4.4 16.65 5.1 15.55" fill="#8858c8" fill-rule="evenodd" stroke="none"/>
    <path d="M14.75 -12.9 L14.75 -16.4 22.25 -16.4 22.25 -20.75 27.25 -20.75 27.25 -17.15 28.75 -17.15 Q28.25 9.1 23.95 15.9 21.35 19.95 17.0 18.35 L14.65 16.6 Q11.8 20.2 2.45 19.35 M0.0 22.9 L0.0 22.85 -2.4 19.35 Q-11.75 20.2 -14.6 16.6 L-17.0 18.35 Q-21.35 19.95 -23.95 15.9 -25.25 13.8 -26.2 9.95 -27.0 6.85 -27.5 2.65 -28.55 -5.25 -28.75 -17.15 L-27.25 -17.15 -27.25 -20.75 -22.25 -20.75 -22.25 -16.4 -14.75 -16.4 -14.75 -12.9 -12.75 -12.9 -12.75 -17.65 -15.5 -17.65 -15.5 -20.65 -11.85 -22.9 -2.75 -22.9 -3.35 -21.5 3.35 -21.5 2.75 -22.9 11.9 -22.9 15.5 -20.65 15.5 -17.65 12.75 -17.65 12.75 -12.9 14.75 -12.9 16.75 -12.9 22.25 -12.85 22.25 -16.4 M-3.35 -21.5 L-6.75 -13.65 -3.25 -13.65 3.25 -13.65 6.75 -13.65 3.35 -21.5 M15.5 -20.65 L6.75 -20.65 6.75 -13.65 6.75 -11.0 6.75 -8.5 6.75 -1.65 16.75 -2.9 16.75 -12.9 M27.25 -17.15 L24.65 -17.15 22.25 -12.85 16.75 -2.9 16.75 14.85 12.25 14.85 14.65 16.6 M12.25 3.6 L10.7 2.1 5.15 6.5 5.15 15.5 5.1 15.55 5.15 15.5 M0.0 22.9 L0.0 22.85 M0.0 22.9 L0.05 22.85 M4.4 16.65 L5.1 15.55 0.0 17.65 -5.1 15.5 -4.9 15.8 -2.4 19.35 M12.25 14.85 L12.25 3.6 16.75 -2.9 M10.7 2.1 L6.75 -1.65 0.0 6.25 -6.75 -1.65 -10.65 2.1 -5.1 6.5 -5.1 15.5 -4.9 15.8 M-22.25 -12.85 L-22.25 -16.4 M-27.25 -17.15 L-24.6 -17.15 -22.25 -12.85 -16.75 -12.9 -14.75 -12.9 M-15.5 -20.65 L-6.75 -20.65 -6.75 -13.65 -6.75 -11.0 6.75 -11.0 M-6.75 -8.5 L-6.75 -11.0 M-6.75 -1.65 L-6.75 -8.5 6.75 -8.5 M-16.75 -2.9 L-6.75 -1.65 M-16.75 -12.9 L-16.75 -2.9 -22.25 -12.85 M-10.65 2.1 L-12.25 3.6 -12.25 14.85 -14.6 16.6 M-12.25 14.85 L-16.75 14.85 -16.75 -2.9 -12.25 3.6" fill="none" stroke="#101010" stroke-linecap="round" stroke-linejoin="round" stroke-width="1.0"/>
    <path d="M2.45 19.35 L0.05 22.85 0.0 22.9 0.0 17.65 M5.15 15.5 L4.4 16.65 2.45 19.35" fill="none" stroke="#101010" stroke-linecap="round" stroke-linejoin="round" stroke-width="1.0"/>
  </g>
  <defs>
    <linearGradient gradientTransform="matrix(-0.0046, 0.0, 0.0, 0.0022, -18.5, -14.6)" gradientUnits="userSpaceOnUse" id="gradient0" spreadMethod="pad" x1="-819.2" x2="819.2">
      <stop offset="0.0" stop-color="#404838"/>
      <stop offset="0.32941176470588235" stop-color="#e8f0e8"/>
      <stop offset="0.4392156862745098" stop-color="#e8f0e8"/>
      <stop offset="0.7019607843137254" stop-color="#98a880"/>
      <stop offset="0.8980392156862745" stop-color="#404838"/>
    </linearGradient>
    <linearGradient gradientTransform="matrix(0.0046, 0.0, 0.0, 0.0022, 18.5, -14.6)" gradientUnits="userSpaceOnUse" id="gradient1" spreadMethod="pad" x1="-819.2" x2="819.2">
      <stop offset="0.0" stop-color="#404838"/>
      <stop offset="0.32941176470588235" stop-color="#e8f0e8"/>
      <stop offset="0.4392156862745098" stop-color="#e8f0e8"/>
      <stop offset="0.7019607843137254" stop-color="#98a880"/>
      <stop offset="0.8980392156862745" stop-color="#404838"/>
    </linearGradient>
  </defs>
</svg>
