<?xml version="1.0" encoding="UTF-8" standalone="no"?>
<svg xmlns:ffdec="https://www.free-decompiler.com/flash" xmlns:xlink="http://www.w3.org/1999/xlink" ffdec:objectType="shape" height="50.75px" width="33.65px" xmlns="http://www.w3.org/2000/svg">
  <g transform="matrix(1.0, 0.0, 0.0, 1.0, 9.0, 25.95)">
    <path d="M24.65 3.8 L24.65 22.15 Q20.65 27.45 16.65 22.15 L16.65 3.8 24.65 3.8" fill="#000000" fill-opacity="0.2509804" fill-rule="evenodd" stroke="none"/>
    <path d="M9.0 5.55 Q7.65 13.2 -0.2 12.9 L-3.05 12.55 Q4.2 10.15 5.1 5.55 L9.0 5.55" fill="#a03000" fill-rule="evenodd" stroke="none"/>
    <path d="M-4.5 -18.45 L-9.0 -18.45 -9.0 -25.95 9.0 -25.95 9.0 -18.45 4.9 -18.45 4.5 -18.45 -4.5 -18.45" fill="url(#gradient0)" fill-rule="evenodd" stroke="none"/>
    <path d="M-4.5 -18.45 L4.5 -18.45 4.5 -13.95 -4.5 -13.95 -4.5 -18.45" fill="url(#gradient1)" fill-rule="evenodd" stroke="none"/>
    <path d="M-9.0 -7.95 L-9.0 -13.95 -4.5 -13.95 -4.5 -13.9 9.0 -13.95 9.0 -7.95 -9.0 -7.95 M2.9 -13.6 L4.5 -13.5 4.5 -13.55 2.9 -13.6" fill="url(#gradient2)" fill-rule="evenodd" stroke="none"/>
    <path d="M9.0 4.05 L9.0 5.55 5.1 5.55 -9.0 5.55 -9.0 4.05 9.0 4.05" fill="url(#gradient3)" fill-rule="evenodd" stroke="none"/>
    <path d="M-9.0 -7.95 L9.0 -7.95 9.0 4.05 -9.0 4.05 -9.0 -7.95" fill="url(#gradient4)" fill-rule="evenodd" stroke="none"/>
    <path d="M-3.05 12.55 Q-8.25 11.2 -9.0 5.55 L5.1 5.55 Q4.2 10.15 -3.05 12.55" fill="url(#gradient5)" fill-rule="evenodd" stroke="none"/>
  </g>
  <defs>
    <linearGradient gradientTransform="matrix(0.011, 0.0, 0.0, 0.0046, 0.0, -22.2)" gradientUnits="userSpaceOnUse" id="gradient0" spreadMethod="pad" x1="-819.2" x2="819.2">
      <stop offset="0.047058823529411764" stop-color="#ae3e0e"/>
      <stop offset="0.19607843137254902" stop-color="#f8a848"/>
      <stop offset="0.3607843137254902" stop-color="#f8a848"/>
      <stop offset="0.5843137254901961" stop-color="#502000"/>
      <stop offset="0.7215686274509804" stop-color="#502000"/>
      <stop offset="0.9137254901960784" stop-color="#a03000"/>
    </linearGradient>
    <linearGradient gradientTransform="matrix(0.0055, 0.0, 0.0, 0.0027, 0.0, -16.25)" gradientUnits="userSpaceOnUse" id="gradient1" spreadMethod="pad" x1="-819.2" x2="819.2">
      <stop offset="0.07058823529411765" stop-color="#101010"/>
      <stop offset="0.5058823529411764" stop-color="#d0c8c0"/>
      <stop offset="0.9137254901960784" stop-color="#101010"/>
    </linearGradient>
    <linearGradient gradientTransform="matrix(0.011, 0.0, 0.0, 0.0037, -0.05, -10.95)" gradientUnits="userSpaceOnUse" id="gradient2" spreadMethod="pad" x1="-819.2" x2="819.2">
      <stop offset="0.047058823529411764" stop-color="#101010"/>
      <stop offset="0.16862745098039217" stop-color="#333a41"/>
      <stop offset="0.2823529411764706" stop-color="#d0c8c0"/>
      <stop offset="0.5843137254901961" stop-color="#384048"/>
      <stop offset="0.7215686274509804" stop-color="#384048"/>
      <stop offset="0.9137254901960784" stop-color="#101010"/>
    </linearGradient>
    <linearGradient gradientTransform="matrix(0.011, 0.0, 0.0, 9.0E-4, -0.05, 4.8)" gradientUnits="userSpaceOnUse" id="gradient3" spreadMethod="pad" x1="-819.2" x2="819.2">
      <stop offset="0.047058823529411764" stop-color="#101010"/>
      <stop offset="0.16862745098039217" stop-color="#333a41"/>
      <stop offset="0.2823529411764706" stop-color="#d0c8c0"/>
      <stop offset="0.5843137254901961" stop-color="#384048"/>
      <stop offset="0.7215686274509804" stop-color="#384048"/>
      <stop offset="0.9137254901960784" stop-color="#101010"/>
    </linearGradient>
    <linearGradient gradientTransform="matrix(0.011, 0.0, 0.0, 0.0073, -0.05, -2.0)" gradientUnits="userSpaceOnUse" id="gradient4" spreadMethod="pad" x1="-819.2" x2="819.2">
      <stop offset="0.047058823529411764" stop-color="#ae3e0e"/>
      <stop offset="0.19607843137254902" stop-color="#f8a848"/>
      <stop offset="0.2823529411764706" stop-color="#d8e0e8"/>
      <stop offset="0.3607843137254902" stop-color="#f8a848"/>
      <stop offset="0.5843137254901961" stop-color="#502000"/>
      <stop offset="0.7215686274509804" stop-color="#502000"/>
      <stop offset="0.9137254901960784" stop-color="#a03000"/>
    </linearGradient>
    <radialGradient cx="0" cy="0" gradientTransform="matrix(0.0093, 0.0, 0.0, 0.0093, -4.5, 8.3)" gradientUnits="userSpaceOnUse" id="gradient5" r="819.2" spreadMethod="pad">
      <stop offset="0.06666666666666667" stop-color="#d8e0e8"/>
      <stop offset="0.32941176470588235" stop-color="#600000"/>
    </radialGradient>
  </defs>
</svg>
