<?xml version="1.0" encoding="UTF-8" standalone="no"?>
<svg xmlns:ffdec="https://www.free-decompiler.com/flash" xmlns:xlink="http://www.w3.org/1999/xlink" ffdec:objectType="shape" height="71.0px" width="71.0px" xmlns="http://www.w3.org/2000/svg">
  <g transform="matrix(1.0, 0.0, 0.0, 1.0, 35.5, 35.5)">
    <path d="M0.0 -35.5 L0.0 -7.5 -5.0 -7.5 -5.0 -35.5 0.0 -35.5 M7.5 0.0 L7.5 -5.0 35.5 -5.0 35.5 0.0 7.5 0.0 M0.0 7.5 L0.0 35.5 -5.0 35.5 -5.0 7.5 0.0 7.5 M-35.5 0.0 L-35.5 -5.0 -7.5 -5.0 -7.5 0.0 -35.5 0.0" fill="#989898" fill-rule="evenodd" stroke="none"/>
    <path d="M0.0 -7.5 L0.0 -35.5 5.0 -35.5 5.0 -7.5 0.0 -7.5 M35.5 0.0 L35.5 5.0 7.5 5.0 7.5 0.0 35.5 0.0 M0.0 7.5 L5.0 7.5 5.0 35.5 0.0 35.5 0.0 7.5 M-35.5 0.0 L-7.5 0.0 -7.5 5.0 -35.5 5.0 -35.5 0.0" fill="#d0c8c0" fill-rule="evenodd" stroke="none"/>
  </g>
</svg>
