<?xml version="1.0" encoding="UTF-8" standalone="no"?>
<svg xmlns:ffdec="https://www.free-decompiler.com/flash" xmlns:xlink="http://www.w3.org/1999/xlink" ffdec:objectType="shape" height="110.65px" width="51.25px" xmlns="http://www.w3.org/2000/svg">
  <g transform="matrix(1.0, 0.0, 0.0, 1.0, 25.6, 55.3)">
    <path d="M-19.75 -43.5 Q-19.8 -53.6 -13.55 -54.25 -7.35 -54.95 -7.0 -43.5 L-10.75 -43.5 -19.75 -43.5" fill="url(#gradient0)" fill-rule="evenodd" stroke="none"/>
    <path d="M-7.0 -43.5 L7.0 -43.5 6.85 -39.0 Q5.7 -16.4 0.0 -15.0 -5.7 -16.4 -6.8 -39.0 L-7.0 -43.5 M-6.8 -39.0 L6.85 -39.0 -6.8 -39.0" fill="url(#gradient1)" fill-rule="evenodd" stroke="none"/>
    <path d="M-19.25 -16.0 Q-26.45 -16.2 -24.0 -39.0 L-23.5 -43.5 -19.75 -43.5 -10.75 -43.5 -11.2 -39.0 Q-13.55 -19.15 -19.25 -16.0 M-11.2 -39.0 L-24.0 -39.0 -11.2 -39.0" fill="url(#gradient2)" fill-rule="evenodd" stroke="none"/>
    <path d="M-7.0 -43.5 Q-5.8 -51.0 -3.7 -52.65 -1.6 -54.35 0.0 -54.3 1.6 -54.3 3.7 -52.65 5.8 -51.0 7.0 -43.5 L-7.0 -43.5" fill="url(#gradient3)" fill-rule="evenodd" stroke="none"/>
    <path d="M19.75 -43.5 L23.5 -43.5 24.05 -39.0 Q26.45 -16.2 19.25 -16.0 13.55 -19.15 11.25 -39.0 L10.75 -43.5 19.75 -43.5 M24.05 -39.0 L11.25 -39.0 24.05 -39.0" fill="url(#gradient4)" fill-rule="evenodd" stroke="none"/>
    <path d="M7.0 -43.5 Q7.35 -54.95 13.6 -54.25 19.8 -53.6 19.75 -43.5 L10.75 -43.5 7.0 -43.5" fill="url(#gradient5)" fill-rule="evenodd" stroke="none"/>
    <path d="M19.25 18.5 L19.35 18.5 19.35 22.25 19.35 23.5 13.35 23.5 13.35 18.5 19.25 18.5 19.35 22.25 19.25 18.5 M-19.25 23.5 L-19.3 23.5 -19.3 18.5 -19.25 18.5 -19.3 23.5 -19.25 18.5 -13.3 18.5 -13.3 23.5 -19.25 23.5" fill="#989898" fill-rule="evenodd" stroke="none"/>
    <path d="M19.25 37.0 Q13.75 54.35 0.0 54.35 -12.1 54.35 -17.8 40.9 L-16.55 42.55 Q-13.9 46.75 -10.55 47.65 -6.85 49.6 -2.5 49.3 6.95 48.55 19.25 37.0" fill="#502000" fill-rule="evenodd" stroke="none"/>
    <path d="M-12.0 23.5 L-12.0 18.5 0.0 18.5 0.0 23.5 -12.0 23.5" fill="#d8e0e8" fill-rule="evenodd" stroke="none"/>
    <path d="M19.25 -16.0 L19.25 11.75 19.25 18.5 13.35 18.5 13.35 23.5 19.35 23.5 19.25 37.0 -19.25 37.0 19.25 37.0 Q6.95 48.55 -2.5 49.3 -6.85 49.6 -10.55 47.65 -13.9 46.75 -16.55 42.55 -18.0 40.25 -19.25 37.0 L-19.25 23.5 -13.3 23.5 -13.3 18.5 -19.25 18.5 -19.25 11.75 -19.25 -16.0 Q-13.55 -19.15 -11.2 -39.0 L-10.75 -43.5 -7.0 -43.5 -6.8 -39.0 Q-5.7 -16.4 0.0 -15.0 5.7 -16.4 6.85 -39.0 L7.0 -43.5 10.75 -43.5 11.25 -39.0 Q13.55 -19.15 19.25 -16.0 M-19.25 11.75 L-10.75 11.75 -19.25 11.75 M-12.0 23.5 L0.0 23.5 0.0 18.5 -12.0 18.5 -12.0 23.5 M-10.75 11.75 L-2.25 11.75 -10.75 11.75 M13.3 5.3 L13.3 -2.7 13.3 5.3 M8.3 5.3 L8.3 -2.7 8.3 5.3 M3.3 5.3 L3.3 -2.7 3.3 5.3 M-8.3 5.3 L-8.3 -2.7 -8.3 5.3 M-13.3 5.3 L-13.3 -2.7 -13.3 5.3 M-3.3 5.3 L-3.3 -2.7 -3.3 5.3 M-2.25 11.75 L19.25 11.75 -2.25 11.75" fill="url(#gradient6)" fill-rule="evenodd" stroke="none"/>
    <path d="M-7.0 -43.5 Q-5.8 -51.0 -3.7 -52.65 -1.6 -54.35 0.0 -54.3 1.6 -54.3 3.7 -52.65 5.8 -51.0 7.0 -43.5 7.35 -54.95 13.6 -54.25 19.8 -53.6 19.75 -43.5 L23.5 -43.5 24.05 -39.0 Q26.45 -16.2 19.25 -16.0 L19.25 11.75 19.25 18.5 19.35 22.25 19.35 23.5 19.25 37.0 Q13.75 54.35 0.0 54.35 -12.1 54.35 -17.8 40.9 L-19.25 37.0 -19.25 23.5 M-19.25 18.5 L-19.25 11.75 -19.25 -16.0 Q-26.45 -16.2 -24.0 -39.0 L-23.5 -43.5 -19.75 -43.5 Q-19.8 -53.6 -13.55 -54.25 -7.35 -54.95 -7.0 -43.5 L7.0 -43.5 10.75 -43.5 19.75 -43.5 M10.75 -43.5 L11.25 -39.0 Q13.55 -19.15 19.25 -16.0 M7.0 -43.5 L6.85 -39.0 Q5.7 -16.4 0.0 -15.0 -5.7 -16.4 -6.8 -39.0 L-7.0 -43.5 -10.75 -43.5 -11.2 -39.0 Q-13.55 -19.15 -19.25 -16.0 M-10.75 -43.5 L-19.75 -43.5 M-19.3 23.5 L-19.25 18.5" fill="none" stroke="#000000" stroke-linecap="round" stroke-linejoin="round" stroke-width="2.0"/>
    <path d="M11.25 -39.0 L24.05 -39.0 M-24.0 -39.0 L-11.2 -39.0" fill="none" stroke="#502000" stroke-linecap="round" stroke-linejoin="round" stroke-width="2.0"/>
    <path d="M-2.25 11.75 L-10.75 11.75 M6.85 -39.0 L-6.8 -39.0" fill="none" stroke="#a03000" stroke-linecap="round" stroke-linejoin="round" stroke-width="2.0"/>
    <path d="M-10.75 11.75 L-19.25 11.75 M-19.25 37.0 L19.25 37.0 M19.25 11.75 L-2.25 11.75" fill="none" stroke="#280000" stroke-linecap="round" stroke-linejoin="round" stroke-width="2.0"/>
    <path d="M-3.3 -2.7 L-3.3 5.3 M-13.3 -2.7 L-13.3 5.3 M-8.3 -2.7 L-8.3 5.3 M3.3 -2.7 L3.3 5.3 M8.3 -2.7 L8.3 5.3 M13.3 -2.7 L13.3 5.3" fill="none" stroke="#101010" stroke-linecap="round" stroke-linejoin="round" stroke-width="2.0"/>
  </g>
  <defs>
    <linearGradient gradientTransform="matrix(-0.0078, 0.0, 0.0, -0.0066, -13.35, -48.9)" gradientUnits="userSpaceOnUse" id="gradient0" spreadMethod="pad" x1="-819.2" x2="819.2">
      <stop offset="0.10588235294117647" stop-color="#687070"/>
      <stop offset="0.42745098039215684" stop-color="#d8e0e8"/>
      <stop offset="0.5803921568627451" stop-color="#d8e0e8"/>
      <stop offset="0.8862745098039215" stop-color="#989898"/>
    </linearGradient>
    <radialGradient cx="0" cy="0" gradientTransform="matrix(0.0082, 0.0, 0.0, 0.0256, -0.1, -35.95)" gradientUnits="userSpaceOnUse" id="gradient1" r="819.2" spreadMethod="pad">
      <stop offset="0.10196078431372549" stop-color="#d8e0e8"/>
      <stop offset="0.3333333333333333" stop-color="#f8a848"/>
      <stop offset="0.6509803921568628" stop-color="#b04010"/>
      <stop offset="0.8941176470588236" stop-color="#502000"/>
    </radialGradient>
    <radialGradient cx="0" cy="0" gradientTransform="matrix(0.0095, 0.0, 0.0, 0.0232, -19.25, -35.0)" gradientUnits="userSpaceOnUse" id="gradient2" r="819.2" spreadMethod="pad">
      <stop offset="0.10196078431372549" stop-color="#d8e0e8"/>
      <stop offset="0.3333333333333333" stop-color="#f8a848"/>
      <stop offset="0.6509803921568628" stop-color="#b04010"/>
      <stop offset="0.8941176470588236" stop-color="#502000"/>
    </radialGradient>
    <linearGradient gradientTransform="matrix(-0.0085, 0.0, 0.0, -0.0066, 0.0, -48.9)" gradientUnits="userSpaceOnUse" id="gradient3" spreadMethod="pad" x1="-819.2" x2="819.2">
      <stop offset="0.10588235294117647" stop-color="#687070"/>
      <stop offset="0.42745098039215684" stop-color="#d8e0e8"/>
      <stop offset="0.5803921568627451" stop-color="#d8e0e8"/>
      <stop offset="0.8862745098039215" stop-color="#989898"/>
    </linearGradient>
    <radialGradient cx="0" cy="0" gradientTransform="matrix(-0.0095, 0.0, 0.0, 0.0232, 19.25, -35.0)" gradientUnits="userSpaceOnUse" id="gradient4" r="819.2" spreadMethod="pad">
      <stop offset="0.10196078431372549" stop-color="#d8e0e8"/>
      <stop offset="0.3333333333333333" stop-color="#f8a848"/>
      <stop offset="0.6509803921568628" stop-color="#b04010"/>
      <stop offset="0.8941176470588236" stop-color="#502000"/>
    </radialGradient>
    <linearGradient gradientTransform="matrix(-0.0078, 0.0, 0.0, -0.0066, 13.4, -48.9)" gradientUnits="userSpaceOnUse" id="gradient5" spreadMethod="pad" x1="-819.2" x2="819.2">
      <stop offset="0.10588235294117647" stop-color="#687070"/>
      <stop offset="0.42745098039215684" stop-color="#d8e0e8"/>
      <stop offset="0.5803921568627451" stop-color="#d8e0e8"/>
      <stop offset="0.8862745098039215" stop-color="#989898"/>
    </linearGradient>
    <radialGradient cx="0" cy="0" gradientTransform="matrix(0.0256, 0.0, 0.0, 0.0624, -1.75, -1.25)" gradientUnits="userSpaceOnUse" id="gradient6" r="819.2" spreadMethod="pad">
      <stop offset="0.10196078431372549" stop-color="#d8e0e8"/>
      <stop offset="0.3333333333333333" stop-color="#f8a848"/>
      <stop offset="0.6509803921568628" stop-color="#b04010"/>
      <stop offset="0.8941176470588236" stop-color="#502000"/>
    </radialGradient>
  </defs>
</svg>
