<?xml version="1.0" encoding="UTF-8" standalone="no"?>
<svg xmlns:ffdec="https://www.free-decompiler.com/flash" xmlns:xlink="http://www.w3.org/1999/xlink" ffdec:objectType="shape" height="24.5px" width="27.35px" xmlns="http://www.w3.org/2000/svg">
  <g transform="matrix(1.0, 0.0, 0.0, 1.0, 13.65, 10.15)">
    <path d="M-13.15 -2.6 L-12.8 -6.05 -9.9 -8.4 -9.65 -8.05 Q-9.25 -6.3 -7.85 -5.4 L-7.15 -5.05 Q-5.6 -4.4 -3.9 -4.75 L-2.95 -3.7 -3.0 -2.7 -13.15 -2.6" fill="#b0c0d0" fill-rule="evenodd" stroke="none"/>
    <path d="M-7.85 -5.4 L-7.85 -9.6 -3.9 -9.6 -3.9 -4.75 Q-5.6 -4.4 -7.15 -5.05 L-7.85 -5.4 M3.85 -4.75 L3.85 -9.65 7.8 -9.65 7.8 -5.35 6.95 -5.05 3.85 -4.75" fill="#d8e0e8" fill-rule="evenodd" stroke="none"/>
    <path d="M-6.0 4.0 L-8.9 12.2 -9.55 11.05 Q-13.4 4.75 -13.15 -2.6 L-3.0 -2.7 -3.65 -0.65 -6.0 4.0 M-10.25 3.35 L-10.25 -0.65 -10.25 3.35 M-7.25 3.35 L-7.25 -0.65 -7.25 3.35" fill="#d8d0d0" fill-rule="evenodd" stroke="none"/>
    <path d="M2.05 6.15 Q2.05 9.35 1.45 11.6 0.8 13.85 -0.05 13.85 -0.9 13.85 -1.5 11.6 -2.1 9.35 -2.1 6.15 L-3.65 -0.65 -3.0 -2.7 -2.95 -3.7 -1.15 -8.05 -0.05 -4.15 1.1 -8.05 2.9 -3.7 2.95 -2.7 3.55 -0.65 2.05 6.15 M1.65 1.25 L1.3 1.55 -1.25 1.6 -1.75 1.25 -0.05 8.75 1.65 1.25" fill="url(#gradient0)" fill-rule="evenodd" stroke="none"/>
    <path d="M7.8 -5.35 Q9.0 -6.3 9.6 -7.95 L9.85 -8.4 12.7 -6.05 13.1 -2.6 2.95 -2.7 2.9 -3.7 3.85 -4.75 6.95 -5.05 7.8 -5.35" fill="#9f6783" fill-rule="evenodd" stroke="none"/>
    <path d="M13.1 -2.6 Q13.75 4.85 9.55 10.95 L8.85 12.2 5.95 4.0 5.9 3.9 3.55 -0.65 2.95 -2.7 13.1 -2.6 M10.25 3.35 L10.25 -0.65 10.25 3.35 M7.25 3.35 L7.25 -0.65 7.25 3.35" fill="#686870" fill-rule="evenodd" stroke="none"/>
    <path d="M5.95 4.0 Q5.75 7.75 4.8 11.3 L4.2 13.45 2.05 6.15 3.55 -0.65 5.9 3.9 5.95 4.0" fill="url(#gradient1)" fill-rule="evenodd" stroke="none"/>
    <path d="M1.65 1.25 L-0.05 8.75 -1.75 1.25 -1.25 1.6 1.3 1.55 1.65 1.25" fill="#a67be6" fill-rule="evenodd" stroke="none"/>
    <path d="M-2.1 6.15 L-4.3 13.45 -4.9 11.25 Q-5.8 7.75 -6.0 4.0 L-3.65 -0.65 -2.1 6.15" fill="url(#gradient2)" fill-rule="evenodd" stroke="none"/>
    <path d="M7.8 -5.35 Q9.0 -6.3 9.6 -7.95 L9.85 -8.4 12.7 -6.05 13.1 -2.6 Q13.75 4.85 9.55 10.95 L8.85 12.2 5.95 4.0 Q5.75 7.75 4.8 11.3 L4.2 13.45 2.05 6.15 Q2.05 9.35 1.45 11.6 0.8 13.85 -0.05 13.85 -0.9 13.85 -1.5 11.6 -2.1 9.35 -2.1 6.15 L-4.3 13.45 -4.9 11.25 Q-5.8 7.75 -6.0 4.0 L-8.9 12.2 -9.55 11.05 Q-13.4 4.75 -13.15 -2.6 L-12.8 -6.05 -9.9 -8.4 -9.65 -8.05 Q-9.25 -6.3 -7.85 -5.4 L-7.85 -9.6 -3.9 -9.6 -3.9 -4.75 -2.95 -3.7 -1.15 -8.05 -0.05 -4.15 1.1 -8.05 2.9 -3.7 3.85 -4.75 3.85 -9.65 7.8 -9.65 7.8 -5.35 6.95 -5.05 3.85 -4.75 M2.95 -2.7 L3.55 -0.65 5.9 3.9 5.95 4.0 M2.95 -2.7 L2.9 -3.7 M13.1 -2.6 L2.95 -2.7 M1.65 1.25 L-0.05 8.75 -1.75 1.25 -1.25 1.6 1.3 1.55 1.65 1.25 M3.55 -0.65 L2.05 6.15 M-7.85 -5.4 L-7.15 -5.05 Q-5.6 -4.4 -3.9 -4.75 M-2.95 -3.7 L-3.0 -2.7 -3.65 -0.65 -2.1 6.15 M-3.0 -2.7 L-13.15 -2.6 M-3.65 -0.65 L-6.0 4.0" fill="none" stroke="#000000" stroke-linecap="round" stroke-linejoin="round" stroke-width="1.0"/>
    <path d="M7.25 -0.65 L7.25 3.35 M10.25 -0.65 L10.25 3.35 M-7.25 -0.65 L-7.25 3.35 M-10.25 -0.65 L-10.25 3.35" fill="none" stroke="#d09828" stroke-linecap="round" stroke-linejoin="round" stroke-width="2.0"/>
  </g>
  <defs>
    <linearGradient gradientTransform="matrix(0.0, -0.0134, 0.0044, 0.0, -0.05, 2.9)" gradientUnits="userSpaceOnUse" id="gradient0" spreadMethod="pad" x1="-819.2" x2="819.2">
      <stop offset="0.0" stop-color="#283040"/>
      <stop offset="1.0" stop-color="#d8e0e8"/>
    </linearGradient>
    <linearGradient gradientTransform="matrix(0.0024, 0.0, 0.0, 0.0086, 4.0, 6.4)" gradientUnits="userSpaceOnUse" id="gradient1" spreadMethod="pad" x1="-819.2" x2="819.2">
      <stop offset="0.0" stop-color="#101010"/>
      <stop offset="0.6313725490196078" stop-color="#d8e0e8"/>
    </linearGradient>
    <linearGradient gradientTransform="matrix(0.0024, 0.0, 0.0, 0.0086, -4.05, 6.4)" gradientUnits="userSpaceOnUse" id="gradient2" spreadMethod="pad" x1="-819.2" x2="819.2">
      <stop offset="0.0" stop-color="#101010"/>
      <stop offset="0.6313725490196078" stop-color="#d8e0e8"/>
    </linearGradient>
  </defs>
</svg>
