<?xml version="1.0" encoding="UTF-8" standalone="no"?>
<svg xmlns:ffdec="https://www.free-decompiler.com/flash" xmlns:xlink="http://www.w3.org/1999/xlink" ffdec:objectType="shape" height="96.55px" width="141.85px" xmlns="http://www.w3.org/2000/svg">
  <g transform="matrix(1.0, 0.0, 0.0, 1.0, 65.95, 34.45)">
    <path d="M0.3 -4.2 L19.65 -4.2 0.3 -4.2 M4.0 -8.05 L15.9 -8.05 4.0 -8.05 M23.15 -18.45 L23.15 -24.45 39.15 -24.45 44.4 -18.7 57.65 -18.7 57.65 3.55 66.65 3.55 75.9 14.8 75.9 50.6 70.15 50.6 70.15 55.6 62.15 62.1 35.4 62.1 35.4 43.35 19.65 43.35 19.65 44.85 0.3 44.85 0.3 43.35 -15.45 43.35 -15.45 62.1 -42.2 62.1 -50.2 55.6 -50.2 50.6 -55.95 50.6 -55.95 14.8 -46.7 3.55 -37.7 3.55 -37.7 -18.7 -24.45 -18.7 -19.2 -24.45 -3.2 -24.45 -3.2 -18.45 1.05 -18.45 1.05 -22.45 18.9 -22.45 18.9 -18.45 23.15 -18.45 M2.95 31.7 L3.0 32.05 2.95 31.7 16.95 31.7 2.95 31.7" fill="#000000" fill-opacity="0.5019608" fill-rule="evenodd" stroke="none"/>
    <path d="M15.9 -8.05 L4.0 -8.05 M19.65 -4.2 L0.3 -4.2" fill="none" stroke="#101010" stroke-linecap="round" stroke-linejoin="round" stroke-width="3.0"/>
    <path d="M3.0 32.05 L2.95 31.7" fill="none" stroke="#ffff00" stroke-linecap="round" stroke-linejoin="round" stroke-width="1.0"/>
    <path d="M2.95 31.7 L16.95 31.7" fill="none" stroke="#303840" stroke-linecap="round" stroke-linejoin="round" stroke-width="2.0"/>
    <path d="M34.4 -28.7 L28.4 -28.7 28.4 -0.95 18.65 -0.95 12.65 -7.1 12.65 -25.7 6.15 -25.7 -6.2 -25.7 -12.7 -25.7 -12.7 -7.1 -18.7 -0.95 -28.45 -0.95 -28.45 -28.7 -34.45 -28.7 -29.2 -34.45 -13.2 -34.45 -13.2 -28.45 -8.95 -28.45 8.9 -28.45 13.15 -28.45 13.15 -34.45 29.15 -34.45 34.4 -28.7 M28.4 -0.95 L34.4 -0.95 36.4 -0.95 40.9 3.8 34.9 7.8 28.4 -0.95 M43.15 -28.7 L47.65 -28.7 47.65 -6.45 43.15 -6.45 43.15 -12.7 43.15 -28.7 M-47.7 -6.45 L-47.7 -28.7 -43.2 -28.7 -43.2 -12.7 -43.2 -6.45 -47.7 -6.45 M-34.45 -0.95 L-28.45 -0.95 -34.95 7.8 -40.95 3.8 -36.45 -0.95 -34.45 -0.95 M25.2 -25.15 Q23.95 -28.45 22.15 -28.45 20.35 -28.45 19.05 -25.15 17.75 -21.85 17.75 -17.2 17.75 -12.55 19.05 -9.25 20.35 -5.95 22.15 -5.95 23.95 -5.95 25.2 -9.25 26.5 -12.55 26.5 -17.2 26.5 -21.85 25.2 -25.15 M13.65 12.85 L13.65 30.55 9.65 30.55 -9.7 30.55 -13.7 30.55 -13.7 12.85 13.65 12.85 M6.95 21.7 L5.4 17.3 4.9 16.8 4.4 16.3 -0.05 14.7 -4.45 16.3 -5.0 16.8 -5.45 17.3 -7.05 21.7 -7.0 22.05 -7.0 22.1 -5.4 26.2 -5.0 26.65 -4.45 27.15 -0.05 28.7 4.4 27.15 4.9 26.65 5.35 26.2 6.95 22.1 6.95 22.05 6.95 21.7 M-25.3 -25.15 Q-26.6 -21.85 -26.6 -17.2 -26.6 -12.55 -25.3 -9.25 -24.0 -5.95 -22.2 -5.95 -20.4 -5.95 -19.1 -9.25 -17.85 -12.55 -17.85 -17.2 -17.85 -21.85 -19.1 -25.15 -20.4 -28.45 -22.2 -28.45 -24.0 -28.45 -25.3 -25.15" fill="#b0b8b0" fill-rule="evenodd" stroke="none"/>
    <path d="M-28.45 -0.95 L-18.7 -0.95 -18.7 3.05 -27.95 3.05 -27.95 12.6 -31.95 7.8 -34.95 7.8 -28.45 -0.95 M18.65 -0.95 L28.4 -0.95 34.9 7.8 31.9 7.8 27.85 12.6 27.85 3.05 18.65 3.05 18.65 -0.95 M43.15 3.8 L55.15 3.8 47.9 7.8 34.9 7.8 40.9 3.8 43.15 3.8 M48.85 38.6 L49.35 38.25 49.5 38.2 Q51.45 39.1 50.8 41.5 50.35 43.15 50.75 44.9 51.45 47.75 50.5 50.35 50.3 50.8 49.8 50.7 48.0 50.35 48.3 48.55 L48.4 47.55 44.6 47.35 Q43.3 47.2 43.65 46.0 43.9 45.15 44.75 45.1 L48.15 45.0 48.05 44.2 47.0 43.95 45.35 43.65 Q42.75 43.35 43.95 41.4 44.2 41.0 44.65 40.95 L48.15 41.45 Q48.3 40.0 48.85 38.6 M18.65 7.95 L22.5 7.95 22.5 10.8 26.6 14.15 25.4 15.55 18.65 12.85 18.65 7.95 M27.35 46.85 Q27.6 45.25 29.4 45.2 31.5 44.8 33.35 45.55 34.45 45.95 33.95 47.0 33.7 47.6 33.1 47.75 30.15 48.4 27.65 47.35 27.3 47.25 27.35 46.85 M27.25 42.1 Q27.5 41.05 28.5 40.95 31.7 40.55 33.7 42.5 33.95 42.75 33.7 43.1 32.5 44.5 30.35 43.85 L28.1 43.3 Q27.0 43.15 27.25 42.1 M-43.2 3.8 L-40.95 3.8 -34.95 7.8 -47.95 7.8 -55.2 3.8 -43.2 3.8 M-18.7 7.95 L-18.7 12.85 -25.45 15.55 -26.65 14.15 -22.55 10.8 -22.55 7.95 -18.7 7.95 M-34.05 47.0 Q-34.5 45.95 -33.45 45.55 -31.55 44.8 -29.45 45.2 -27.65 45.25 -27.45 46.85 -27.4 47.25 -27.75 47.35 -30.2 48.4 -33.15 47.75 -33.8 47.6 -34.05 47.0 M-33.75 43.1 Q-34.05 42.75 -33.75 42.5 -31.75 40.55 -28.6 40.95 -27.6 41.05 -27.35 42.1 -27.1 43.15 -28.15 43.3 L-30.45 43.85 Q-32.55 44.5 -33.75 43.1 M-50.85 44.9 Q-50.45 43.15 -50.9 41.5 -51.5 39.1 -49.6 38.2 L-49.4 38.25 -48.95 38.6 Q-48.4 40.0 -48.2 41.45 L-44.7 40.95 Q-44.25 41.0 -44.0 41.4 -42.8 43.35 -45.4 43.65 L-47.05 43.95 -48.1 44.2 -48.2 45.0 -44.85 45.1 Q-43.95 45.15 -43.75 46.0 -43.4 47.2 -44.7 47.35 L-48.45 47.55 -48.35 48.55 Q-48.1 50.35 -49.9 50.7 -50.4 50.8 -50.55 50.35 -51.5 47.75 -50.85 44.9" fill="#a8a888" fill-rule="evenodd" stroke="none"/>
    <path d="M-12.7 -7.1 L-12.7 -25.7 -6.2 -25.7 -6.2 -23.2 -3.7 -23.2 -3.7 -20.45 -6.0 -18.05 -9.7 -14.2 -9.7 -10.2 -12.7 -7.1 M6.15 -25.7 L12.65 -25.7 12.65 -7.1 9.65 -10.2 9.65 -14.2 5.9 -18.05 3.65 -20.45 3.65 -23.2 6.15 -23.2 6.15 -25.7 M47.65 -6.45 L56.65 -6.45 65.9 4.8 65.9 40.6 60.15 40.6 60.15 10.3 55.15 3.8 43.15 3.8 43.15 -6.45 47.65 -6.45 M-60.2 40.6 L-65.95 40.6 -65.95 4.8 -56.7 -6.45 -47.7 -6.45 -43.2 -6.45 -43.2 3.8 -55.2 3.8 -60.2 10.3 -60.2 40.6" fill="#485048" fill-rule="evenodd" stroke="none"/>
    <path d="M28.4 -0.95 L28.4 -28.7 34.4 -28.7 34.4 -12.7 34.4 -0.95 28.4 -0.95 M-34.45 -28.7 L-28.45 -28.7 -28.45 -0.95 -34.45 -0.95 -34.45 -12.7 -34.45 -28.7 M60.15 40.6 L60.15 45.6 52.15 52.1 52.15 12.55 47.9 7.8 55.15 3.8 60.15 10.3 60.15 40.6 M-52.2 52.1 L-60.2 45.6 -60.2 40.6 -60.2 10.3 -55.2 3.8 -47.95 7.8 -52.2 12.55 -52.2 52.1 M-27.95 12.6 L-27.95 3.05 -18.7 3.05 -18.7 7.95 -22.55 7.95 -22.55 10.8 -26.65 14.15 -27.95 12.6 M18.65 3.05 L27.85 3.05 27.85 12.6 26.6 14.15 22.5 10.8 22.5 7.95 18.65 7.95 18.65 3.05" fill="#708080" fill-rule="evenodd" stroke="none"/>
    <path d="M8.9 -28.45 L-8.95 -28.45 -8.95 -32.45 8.9 -32.45 8.9 -28.45 M5.9 -18.05 L-6.0 -18.05 -3.7 -20.45 3.65 -20.45 5.9 -18.05 M-9.7 -14.2 L9.65 -14.2 9.65 -10.2 4.65 -10.2 4.65 -7.45 -4.7 -7.45 -4.7 -10.2 -9.7 -10.2 -9.7 -14.2 M49.4 15.2 L34.5 15.7 31.2 15.35 Q30.1 14.95 30.6 13.9 30.9 13.25 31.65 13.15 L39.9 12.55 49.3 12.85 Q51.35 12.95 50.5 14.6 50.15 15.25 49.4 15.2 M28.4 20.45 Q30.2 19.9 31.4 21.0 32.25 21.75 31.35 22.45 30.2 23.35 28.6 23.2 L27.9 23.1 Q25.95 22.8 27.0 21.2 27.5 20.5 28.4 20.45 M-7.05 21.7 L-5.45 17.3 -5.0 16.8 -4.45 16.3 -0.05 14.7 4.4 16.3 4.9 16.8 5.4 17.3 6.95 21.7 -7.05 21.7 6.95 21.7 6.95 22.05 6.95 22.1 5.35 26.2 4.9 26.65 4.4 27.15 -0.05 28.7 -4.45 27.15 -5.0 26.65 -5.4 26.2 -7.0 22.1 -7.0 22.05 -7.05 21.7 M36.0 36.95 Q37.85 37.95 37.5 40.4 37.2 42.15 37.35 43.85 L37.55 49.0 Q37.6 50.15 36.55 50.5 35.05 51.05 35.05 49.5 35.15 46.25 34.8 43.05 34.5 40.05 35.35 37.35 35.45 37.05 35.85 37.0 L36.0 36.95 M31.7 26.65 Q31.0 27.45 29.9 27.25 L27.5 26.8 Q25.9 26.5 26.75 25.1 27.05 24.6 27.65 24.55 30.1 23.95 31.65 25.45 32.2 26.0 31.7 26.65 M-31.7 13.15 Q-30.95 13.25 -30.65 13.9 -30.2 14.95 -31.25 15.35 L-34.6 15.7 -49.45 15.2 Q-50.25 15.25 -50.55 14.6 -51.45 12.95 -49.4 12.85 L-39.95 12.55 -31.7 13.15 M-31.4 22.45 Q-32.35 21.75 -31.5 21.0 -30.3 19.9 -28.45 20.45 -27.6 20.5 -27.1 21.2 -26.0 22.8 -28.0 23.1 L-28.65 23.2 Q-30.25 23.35 -31.4 22.45 M-36.1 36.95 L-35.9 37.0 Q-35.5 37.05 -35.4 37.35 -34.55 40.05 -34.85 43.05 -35.2 46.25 -35.15 49.5 -35.1 51.05 -36.6 50.5 -37.65 50.15 -37.65 49.0 L-37.4 43.85 Q-37.3 42.15 -37.55 40.4 -37.95 37.95 -36.1 36.95 M-26.8 25.1 Q-26.0 26.5 -27.55 26.8 L-29.95 27.25 Q-31.05 27.45 -31.75 26.65 -32.3 26.0 -31.75 25.45 -30.15 23.95 -27.7 24.55 -27.1 24.6 -26.8 25.1" fill="#707870" fill-rule="evenodd" stroke="none"/>
    <path d="M-6.2 -25.7 L6.15 -25.7 6.15 -23.2 3.65 -23.2 3.65 -20.45 -3.7 -20.45 -3.7 -23.2 -6.2 -23.2 -6.2 -25.7" fill="#989898" fill-rule="evenodd" stroke="none"/>
    <path d="M52.15 52.1 L25.4 52.1 25.4 33.35 25.4 15.55 26.6 14.15 27.85 12.6 31.9 7.8 34.9 7.8 47.9 7.8 52.15 12.55 52.15 52.1 M9.65 33.35 L9.65 34.85 -9.7 34.85 -9.7 33.35 -9.7 30.55 9.65 30.55 9.65 33.35 M-25.45 33.35 L-25.45 52.1 -52.2 52.1 -52.2 12.55 -47.95 7.8 -34.95 7.8 -31.95 7.8 -27.95 12.6 -26.65 14.15 -25.45 15.55 -25.45 33.35 M47.75 12.2 Q48.8 12.2 48.95 11.25 49.1 10.15 47.95 10.05 L33.0 9.45 Q32.05 9.5 31.8 10.45 31.45 11.8 32.9 11.85 L47.75 12.2 M49.4 15.2 Q50.15 15.25 50.5 14.6 51.35 12.95 49.3 12.85 L39.9 12.55 31.65 13.15 Q30.9 13.25 30.6 13.9 30.1 14.95 31.2 15.35 L34.5 15.7 49.4 15.2 M48.85 38.6 Q48.3 40.0 48.15 41.45 L44.65 40.95 Q44.2 41.0 43.95 41.4 42.75 43.35 45.35 43.65 L47.0 43.95 48.05 44.2 48.15 45.0 44.75 45.1 Q43.9 45.15 43.65 46.0 43.3 47.2 44.6 47.35 L48.4 47.55 48.3 48.55 Q48.0 50.35 49.8 50.7 50.3 50.8 50.5 50.35 51.45 47.75 50.75 44.9 50.35 43.15 50.8 41.5 51.45 39.1 49.5 38.2 L49.35 38.25 48.85 38.6 M28.4 20.45 Q27.5 20.5 27.0 21.2 25.95 22.8 27.9 23.1 L28.6 23.2 Q30.2 23.35 31.35 22.45 32.25 21.75 31.4 21.0 30.2 19.9 28.4 20.45 M31.7 26.65 Q32.2 26.0 31.65 25.45 30.1 23.95 27.65 24.55 27.05 24.6 26.75 25.1 25.9 26.5 27.5 26.8 L29.9 27.25 Q31.0 27.45 31.7 26.65 M36.0 36.95 L35.85 37.0 Q35.45 37.05 35.35 37.35 34.5 40.05 34.8 43.05 35.15 46.25 35.05 49.5 35.05 51.05 36.55 50.5 37.6 50.15 37.55 49.0 L37.35 43.85 Q37.2 42.15 37.5 40.4 37.85 37.95 36.0 36.95 M27.25 42.1 Q27.0 43.15 28.1 43.3 L30.35 43.85 Q32.5 44.5 33.7 43.1 33.95 42.75 33.7 42.5 31.7 40.55 28.5 40.95 27.5 41.05 27.25 42.1 M27.35 46.85 Q27.3 47.25 27.65 47.35 30.15 48.4 33.1 47.75 33.7 47.6 33.95 47.0 34.45 45.95 33.35 45.55 31.5 44.8 29.4 45.2 27.6 45.25 27.35 46.85 M-31.9 10.45 Q-32.15 9.5 -33.1 9.45 L-48.0 10.05 Q-49.15 10.15 -49.0 11.25 -48.85 12.2 -47.85 12.2 L-32.95 11.85 Q-31.55 11.8 -31.9 10.45 M-31.4 22.45 Q-30.25 23.35 -28.65 23.2 L-28.0 23.1 Q-26.0 22.8 -27.1 21.2 -27.6 20.5 -28.45 20.45 -30.3 19.9 -31.5 21.0 -32.35 21.75 -31.4 22.45 M-31.7 13.15 L-39.95 12.55 -49.4 12.85 Q-51.45 12.95 -50.55 14.6 -50.25 15.25 -49.45 15.2 L-34.6 15.7 -31.25 15.35 Q-30.2 14.95 -30.65 13.9 -30.95 13.25 -31.7 13.15 M-26.8 25.1 Q-27.1 24.6 -27.7 24.55 -30.15 23.95 -31.75 25.45 -32.3 26.0 -31.75 26.65 -31.05 27.45 -29.95 27.25 L-27.55 26.8 Q-26.0 26.5 -26.8 25.1 M-36.1 36.95 Q-37.95 37.95 -37.55 40.4 -37.3 42.15 -37.4 43.85 L-37.65 49.0 Q-37.65 50.15 -36.6 50.5 -35.1 51.05 -35.15 49.5 -35.2 46.25 -34.85 43.05 -34.55 40.05 -35.4 37.35 -35.5 37.05 -35.9 37.0 L-36.1 36.95 M-33.75 43.1 Q-32.55 44.5 -30.45 43.85 L-28.15 43.3 Q-27.1 43.15 -27.35 42.1 -27.6 41.05 -28.6 40.95 -31.75 40.55 -33.75 42.5 -34.05 42.75 -33.75 43.1 M-34.05 47.0 Q-33.8 47.6 -33.15 47.75 -30.2 48.4 -27.75 47.35 -27.4 47.25 -27.45 46.85 -27.65 45.25 -29.45 45.2 -31.55 44.8 -33.45 45.55 -34.5 45.95 -34.05 47.0 M-50.85 44.9 Q-51.5 47.75 -50.55 50.35 -50.4 50.8 -49.9 50.7 -48.1 50.35 -48.35 48.55 L-48.45 47.55 -44.7 47.35 Q-43.4 47.2 -43.75 46.0 -43.95 45.15 -44.85 45.1 L-48.2 45.0 -48.1 44.2 -47.05 43.95 -45.4 43.65 Q-42.8 43.35 -44.0 41.4 -44.25 41.0 -44.7 40.95 L-48.2 41.45 Q-48.4 40.0 -48.95 38.6 L-49.4 38.25 -49.6 38.2 Q-51.5 39.1 -50.9 41.5 -50.45 43.15 -50.85 44.9" fill="#d8d8b8" fill-rule="evenodd" stroke="none"/>
    <path d="M-11.45 1.8 L-6.2 -3.45 -9.7 -10.2 -4.7 -10.2 -4.7 -7.45 4.65 -7.45 4.65 -10.2 9.65 -10.2 6.15 -3.45 11.4 1.8 11.4 6.55 -11.45 6.55 -11.45 1.8 M3.25 2.8 L3.25 -3.45 -3.3 -3.45 -3.3 2.8 3.25 2.8" fill="#c07018" fill-rule="evenodd" stroke="none"/>
    <path d="M-18.7 3.05 L-18.7 -0.95 -11.45 1.8 -11.45 6.55 -18.7 12.85 -18.7 7.95 -18.7 3.05" fill="#901800" fill-rule="evenodd" stroke="none"/>
    <path d="M-18.7 -0.95 L-12.7 -7.1 -9.7 -10.2 -6.2 -3.45 -11.45 1.8 -18.7 -0.95 M12.65 -7.1 L18.65 -0.95 11.4 1.8 6.15 -3.45 9.65 -10.2 12.65 -7.1" fill="#b04010" fill-rule="evenodd" stroke="none"/>
    <path d="M3.25 2.8 L-3.3 2.8 -3.3 -3.45 3.25 -3.45 3.25 2.8" fill="#889098" fill-rule="evenodd" stroke="none"/>
    <path d="M11.4 1.8 L18.65 -0.95 18.65 3.05 18.65 7.95 18.65 12.85 11.4 6.55 11.4 1.8" fill="#600000" fill-rule="evenodd" stroke="none"/>
    <path d="M11.4 6.55 L18.65 12.85 13.65 12.85 -13.7 12.85 -18.7 12.85 -11.45 6.55 11.4 6.55" fill="#500000" fill-rule="evenodd" stroke="none"/>
    <path d="M47.75 12.2 L32.9 11.85 Q31.45 11.8 31.8 10.45 32.05 9.5 33.0 9.45 L47.95 10.05 Q49.1 10.15 48.95 11.25 48.8 12.2 47.75 12.2 M-31.9 10.45 Q-31.55 11.8 -32.95 11.85 L-47.85 12.2 Q-48.85 12.2 -49.0 11.25 -49.15 10.15 -48.0 10.05 L-33.1 9.45 Q-32.15 9.5 -31.9 10.45" fill="#101010" fill-rule="evenodd" stroke="none"/>
    <path d="M25.4 33.35 L9.65 33.35 9.65 30.55 13.65 30.55 13.65 12.85 18.65 12.85 25.4 15.55 25.4 33.35 M-9.7 33.35 L-25.45 33.35 -25.45 15.55 -18.7 12.85 -13.7 12.85 -13.7 30.55 -9.7 30.55 -9.7 33.35" fill="#283040" fill-rule="evenodd" stroke="none"/>
    <path d="M25.2 -25.15 Q26.5 -21.85 26.5 -17.2 26.5 -12.55 25.2 -9.25 23.95 -5.95 22.15 -5.95 20.35 -5.95 19.05 -9.25 17.75 -12.55 17.75 -17.2 17.75 -21.85 19.05 -25.15 20.35 -28.45 22.15 -28.45 23.95 -28.45 25.2 -25.15" fill="url(#gradient0)" fill-rule="evenodd" stroke="none"/>
    <path d="M5.9 -18.05 L9.65 -14.2 -9.7 -14.2 -6.0 -18.05 5.9 -18.05" fill="url(#gradient1)" fill-rule="evenodd" stroke="none"/>
    <path d="M34.4 -0.95 L34.4 -12.7 43.15 -12.7 43.15 -6.45 43.15 3.8 40.9 3.8 36.4 -0.95 34.4 -0.95" fill="url(#gradient2)" fill-rule="evenodd" stroke="none"/>
    <path d="M34.4 -12.7 L34.4 -28.7 43.15 -28.7 43.15 -12.7 34.4 -12.7" fill="url(#gradient3)" fill-rule="evenodd" stroke="none"/>
    <path d="M-34.45 -12.7 L-34.45 -0.95 -36.45 -0.95 -40.95 3.8 -43.2 3.8 -43.2 -6.45 -43.2 -12.7 -34.45 -12.7" fill="url(#gradient4)" fill-rule="evenodd" stroke="none"/>
    <path d="M-43.2 -28.7 L-34.45 -28.7 -34.45 -12.7 -43.2 -12.7 -43.2 -28.7" fill="url(#gradient5)" fill-rule="evenodd" stroke="none"/>
    <path d="M-25.3 -25.15 Q-24.0 -28.45 -22.2 -28.45 -20.4 -28.45 -19.1 -25.15 -17.85 -21.85 -17.85 -17.2 -17.85 -12.55 -19.1 -9.25 -20.4 -5.95 -22.2 -5.95 -24.0 -5.95 -25.3 -9.25 -26.6 -12.55 -26.6 -17.2 -26.6 -21.85 -25.3 -25.15" fill="url(#gradient6)" fill-rule="evenodd" stroke="none"/>
    <path d="M5.9 -18.05 L-6.0 -18.05 M-9.7 -14.2 L9.65 -14.2" fill="none" stroke="#101010" stroke-linecap="round" stroke-linejoin="round" stroke-width="3.0"/>
    <path d="M-7.05 21.7 L6.95 21.7" fill="none" stroke="#303840" stroke-linecap="round" stroke-linejoin="round" stroke-width="2.0"/>
    <path d="M-7.0 22.1 L-7.0 22.05 -7.05 21.7" fill="none" stroke="#ffff00" stroke-linecap="round" stroke-linejoin="round" stroke-width="1.0"/>
  </g>
  <defs>
    <radialGradient cx="0" cy="0" gradientTransform="matrix(0.005, 0.0, 0.0, 0.0146, 22.4, -17.7)" gradientUnits="userSpaceOnUse" id="gradient0" r="819.2" spreadMethod="pad">
      <stop offset="0.0" stop-color="#989898"/>
      <stop offset="1.0" stop-color="#303840"/>
    </radialGradient>
    <radialGradient cx="0" cy="0" gradientTransform="matrix(0.0125, 0.0, 0.0, 0.0125, 0.25, -16.45)" gradientUnits="userSpaceOnUse" id="gradient1" r="819.2" spreadMethod="pad">
      <stop offset="0.16470588235294117" stop-color="#989898"/>
      <stop offset="0.5607843137254902" stop-color="#2a3240"/>
    </radialGradient>
    <linearGradient gradientTransform="matrix(0.0053, 0.0, 0.0, 0.0101, 38.75, -4.45)" gradientUnits="userSpaceOnUse" id="gradient2" spreadMethod="pad" x1="-819.2" x2="819.2">
      <stop offset="0.16470588235294117" stop-color="#989898"/>
      <stop offset="0.5607843137254902" stop-color="#2a3240"/>
    </linearGradient>
    <linearGradient gradientTransform="matrix(0.0053, 0.0, 0.0, 0.0098, 38.75, -20.7)" gradientUnits="userSpaceOnUse" id="gradient3" spreadMethod="pad" x1="-819.2" x2="819.2">
      <stop offset="0.0" stop-color="#2a3240"/>
      <stop offset="0.4117647058823529" stop-color="#989898"/>
      <stop offset="0.6039215686274509" stop-color="#989898"/>
      <stop offset="1.0" stop-color="#2a3240"/>
    </linearGradient>
    <linearGradient gradientTransform="matrix(-0.0053, 0.0, 0.0, 0.0101, -38.85, -4.45)" gradientUnits="userSpaceOnUse" id="gradient4" spreadMethod="pad" x1="-819.2" x2="819.2">
      <stop offset="0.16470588235294117" stop-color="#989898"/>
      <stop offset="0.5607843137254902" stop-color="#2a3240"/>
    </linearGradient>
    <linearGradient gradientTransform="matrix(-0.0053, 0.0, 0.0, 0.0098, -38.85, -20.7)" gradientUnits="userSpaceOnUse" id="gradient5" spreadMethod="pad" x1="-819.2" x2="819.2">
      <stop offset="0.0" stop-color="#2a3240"/>
      <stop offset="0.4117647058823529" stop-color="#989898"/>
      <stop offset="0.6039215686274509" stop-color="#989898"/>
      <stop offset="1.0" stop-color="#2a3240"/>
    </linearGradient>
    <radialGradient cx="0" cy="0" gradientTransform="matrix(-0.005, 0.0, 0.0, 0.0146, -22.45, -17.7)" gradientUnits="userSpaceOnUse" id="gradient6" r="819.2" spreadMethod="pad">
      <stop offset="0.0" stop-color="#989898"/>
      <stop offset="1.0" stop-color="#303840"/>
    </radialGradient>
  </defs>
</svg>
