<?xml version="1.0" encoding="UTF-8" standalone="no"?>
<svg xmlns:ffdec="https://www.free-decompiler.com/flash" xmlns:xlink="http://www.w3.org/1999/xlink" ffdec:objectType="shape" height="235.25px" width="245.6px" xmlns="http://www.w3.org/2000/svg">
  <g transform="matrix(1.0, 0.0, 0.0, 1.0, 122.8, 57.6)">
    <path d="M8.5 -14.35 L8.5 9.4 3.25 18.4 -3.25 18.4 -8.5 9.4 -8.5 -14.35 8.5 -14.35 M63.05 -33.2 L63.25 -33.2 Q64.95 -32.35 64.85 -30.05 L64.9 -27.35 Q65.2 -24.55 62.75 -25.65 62.4 -25.8 62.35 -26.25 L62.5 -26.9 Q61.6 -30.0 62.55 -32.85 62.65 -33.15 63.05 -33.2 M39.05 2.4 L39.05 10.4 31.05 10.4 39.05 2.4 M-63.0 -33.2 Q-62.65 -33.15 -62.55 -32.85 -61.55 -30.0 -62.45 -26.9 L-62.35 -26.25 Q-62.35 -25.8 -62.7 -25.65 -65.2 -24.55 -64.9 -27.35 L-64.8 -30.05 Q-64.95 -32.35 -63.2 -33.2 L-63.0 -33.2 M-39.0 2.4 L-31.0 10.4 -39.0 10.4 -39.0 2.4" fill="#382018" fill-rule="evenodd" stroke="none"/>
    <path d="M-7.25 -35.35 L-3.25 -30.6 3.3 -30.6 7.3 -35.35 12.8 -20.6 8.5 -17.35 5.55 -21.1 -5.5 -21.1 -8.5 -17.35 -12.75 -20.6 -7.25 -35.35 M63.05 -33.2 Q62.65 -33.15 62.55 -32.85 61.6 -30.0 62.5 -26.9 L62.35 -26.25 Q62.4 -25.8 62.75 -25.65 65.2 -24.55 64.9 -27.35 L64.85 -30.05 Q64.95 -32.35 63.25 -33.2 L63.05 -33.2 M58.0 -20.6 Q56.85 -17.55 60.0 -16.55 61.25 -16.2 61.8 -17.3 63.5 -20.95 59.6 -21.85 58.4 -21.7 58.0 -20.6 M70.0 -8.0 L69.8 -8.2 Q68.2 -9.5 66.0 -9.45 L66.05 -10.55 Q66.3 -12.75 64.6 -13.6 L64.25 -13.5 Q63.8 -13.4 63.7 -13.0 63.35 -11.6 63.3 -10.1 L63.3 -9.0 Q63.3 -7.95 64.25 -7.5 65.65 -6.8 67.2 -6.45 69.1 -6.05 69.95 -7.4 L70.0 -7.4 70.0 8.1 Q68.3 6.6 66.15 6.55 L66.35 5.9 Q66.95 3.55 65.1 2.65 64.0 2.75 63.85 3.9 L63.5 5.55 Q63.15 7.2 63.65 8.8 63.9 9.55 64.7 9.35 L67.05 9.5 Q69.0 10.3 70.0 8.85 L70.0 18.9 58.0 18.9 55.3 19.2 55.35 -16.1 Q63.6 -51.05 70.0 -16.1 L70.0 -8.0 M60.3 -5.25 Q59.05 -3.95 59.5 -1.85 58.2 -2.15 57.15 -1.35 56.55 -0.95 56.95 -0.3 57.95 1.35 60.25 0.95 61.45 0.7 61.75 -0.4 L62.15 -2.3 Q62.5 -4.6 60.75 -5.45 L60.3 -5.25 M55.9 -7.6 Q55.9 -7.25 56.2 -7.1 58.65 -5.95 61.75 -6.3 62.75 -6.45 62.85 -7.45 L63.2 -10.1 Q63.55 -12.55 61.75 -13.45 61.25 -13.45 61.05 -13.0 60.2 -11.2 60.5 -9.0 L57.1 -8.9 Q55.9 -8.8 55.9 -7.6 M64.75 -5.6 Q64.4 -5.55 64.2 -5.25 63.1 -3.65 62.9 -1.55 62.75 0.4 64.6 0.8 L67.25 1.25 Q68.25 1.4 68.9 0.6 69.45 -0.1 68.85 -0.65 67.5 -1.9 65.6 -1.6 L65.75 -2.25 Q66.7 -4.6 64.75 -5.6 M62.8 5.5 Q63.15 3.2 61.35 2.4 60.8 2.45 60.65 2.95 60.05 4.6 59.85 6.5 L59.25 6.5 Q57.85 6.2 57.1 7.2 56.65 7.8 57.2 8.3 58.75 9.7 61.1 9.25 L61.8 8.75 Q62.6 7.25 62.8 5.5 M65.25 10.75 Q64.4 9.1 62.25 9.8 61.4 9.85 60.95 10.5 60.3 11.45 60.25 12.75 60.2 14.45 61.6 15.25 63.1 16.1 64.85 15.75 65.4 15.65 65.65 15.2 66.4 14.05 66.05 12.7 L65.25 10.75 M-63.0 -33.2 L-63.2 -33.2 Q-64.95 -32.35 -64.8 -30.05 L-64.9 -27.35 Q-65.2 -24.55 -62.7 -25.65 -62.35 -25.8 -62.35 -26.25 L-62.45 -26.9 Q-61.55 -30.0 -62.55 -32.85 -62.65 -33.15 -63.0 -33.2 M-69.9 -7.4 Q-69.05 -6.05 -67.15 -6.45 -65.6 -6.8 -64.2 -7.5 -63.3 -7.95 -63.25 -9.0 L-63.25 -10.1 -63.7 -13.0 Q-63.8 -13.4 -64.25 -13.5 L-64.6 -13.6 Q-66.3 -12.75 -66.0 -10.55 L-65.95 -9.45 Q-68.2 -9.5 -69.8 -8.2 L-69.95 -8.0 -69.95 -16.1 Q-63.6 -51.05 -55.3 -16.1 L-55.3 19.2 -57.95 18.9 -69.95 18.9 -69.95 8.85 Q-69.0 10.3 -67.0 9.5 L-64.65 9.35 Q-63.85 9.55 -63.65 8.8 -63.15 7.2 -63.5 5.55 L-63.8 3.9 Q-63.95 2.75 -65.1 2.65 -66.95 3.55 -66.3 5.9 L-66.1 6.55 Q-68.3 6.6 -69.95 8.1 L-69.95 -7.4 -69.9 -7.4 M-61.7 -13.45 Q-63.5 -12.55 -63.15 -10.1 L-62.8 -7.45 Q-62.7 -6.45 -61.7 -6.3 -58.65 -5.95 -56.15 -7.1 -55.85 -7.25 -55.85 -7.6 -55.85 -8.8 -57.1 -8.9 L-60.45 -9.0 Q-60.2 -11.2 -61.05 -13.0 L-61.7 -13.45 M-61.75 -0.4 Q-61.4 0.7 -60.25 0.95 -57.95 1.35 -56.9 -0.3 -56.55 -0.95 -57.1 -1.35 -58.2 -2.15 -59.45 -1.85 -59.05 -3.95 -60.3 -5.25 -60.45 -5.45 -60.7 -5.45 -62.5 -4.6 -62.15 -2.3 L-61.75 -0.4 M-64.7 -5.6 Q-66.65 -4.6 -65.75 -2.25 L-65.6 -1.6 Q-67.45 -1.9 -68.8 -0.65 -69.45 -0.1 -68.9 0.6 -68.25 1.4 -67.2 1.25 L-64.55 0.8 Q-62.7 0.4 -62.9 -1.55 -63.05 -3.65 -64.15 -5.25 L-64.7 -5.6 M-58.0 -20.6 Q-58.4 -21.7 -59.6 -21.85 -63.5 -20.95 -61.75 -17.3 -61.2 -16.2 -60.0 -16.55 -56.85 -17.55 -58.0 -20.6 M-59.85 6.5 Q-60.0 4.6 -60.6 2.95 -60.8 2.45 -61.35 2.4 -63.1 3.2 -62.8 5.5 -62.55 7.25 -61.8 8.75 L-61.1 9.25 Q-58.7 9.7 -57.15 8.3 -56.65 7.8 -57.1 7.2 -57.85 6.2 -59.2 6.5 L-59.85 6.5 M-65.25 10.75 L-66.0 12.7 Q-66.4 14.05 -65.65 15.2 -65.35 15.65 -64.85 15.75 -63.05 16.1 -61.6 15.25 -60.2 14.45 -60.25 12.75 -60.3 11.45 -60.9 10.5 -61.4 9.85 -62.2 9.8 -64.4 9.1 -65.25 10.75" fill="#b0a8a8" fill-rule="evenodd" stroke="none"/>
    <path d="M-55.25 65.55 L-55.15 106.9 -86.1 106.9 -86.1 -19.7 Q-78.05 -46.15 -64.75 -35.5 -67.3 -33.5 -70.3 -27.7 -76.6 -15.55 -78.2 -4.85 L-78.2 26.2 -76.4 28.7 Q-77.45 32.1 -78.1 37.9 -70.3 34.45 -62.6 34.55 L-56.25 35.2 -55.85 35.3 -55.3 35.4 -55.25 42.9 -55.25 49.4 -55.25 65.55" fill="url(#gradient0)" fill-rule="evenodd" stroke="none"/>
    <path d="M-8.5 -17.35 L-5.5 -21.1 5.55 -21.1 8.5 -17.35 8.5 -14.35 -8.5 -14.35 -8.5 -17.35 M8.5 9.4 L16.5 30.4 9.5 44.15 3.25 18.4 8.5 9.4 M50.5 5.9 L50.5 -17.6 56.9 -31.55 Q60.3 -39.0 64.75 -35.5 67.3 -33.5 70.3 -27.7 76.6 -15.55 78.25 -4.85 L78.25 26.2 76.4 28.7 Q73.95 20.6 70.0 18.9 L70.0 8.85 70.05 8.75 Q70.3 8.35 70.0 8.1 L70.0 -7.4 70.0 -7.5 70.0 -8.0 70.0 -16.1 Q63.6 -51.05 55.35 -16.1 L55.3 19.2 Q52.3 20.1 50.5 24.2 L50.5 20.4 50.5 5.9 M58.0 -20.6 Q58.4 -21.7 59.6 -21.85 63.5 -20.95 61.8 -17.3 61.25 -16.2 60.0 -16.55 56.85 -17.55 58.0 -20.6 M-64.75 -35.5 Q-60.3 -39.0 -56.85 -31.55 L-50.45 -17.6 -50.45 5.9 -50.45 20.4 -50.45 24.2 Q-52.3 20.1 -55.3 19.2 L-55.3 -16.1 Q-63.6 -51.05 -69.95 -16.1 L-69.95 -8.0 -69.95 -7.5 -69.95 -7.4 -69.95 8.1 -70.0 8.1 Q-70.25 8.35 -70.05 8.75 L-69.95 8.85 -69.95 18.9 Q-73.95 20.6 -76.4 28.7 L-78.2 26.2 -78.2 -4.85 Q-76.6 -15.55 -70.3 -27.7 -67.3 -33.5 -64.75 -35.5 M-9.5 44.15 L-16.5 30.4 -8.5 9.4 -3.25 18.4 -9.5 44.15 M-58.0 -20.6 Q-56.85 -17.55 -60.0 -16.55 -61.2 -16.2 -61.75 -17.3 -63.5 -20.95 -59.6 -21.85 -58.4 -21.7 -58.0 -20.6" fill="#605030" fill-rule="evenodd" stroke="none"/>
    <path d="M55.9 -7.6 Q55.9 -8.8 57.1 -8.9 L60.5 -9.0 Q60.2 -11.2 61.05 -13.0 61.25 -13.45 61.75 -13.45 63.55 -12.55 63.2 -10.1 L62.85 -7.45 Q62.75 -6.45 61.75 -6.3 58.65 -5.95 56.2 -7.1 55.9 -7.25 55.9 -7.6 M60.3 -5.25 L60.75 -5.45 Q62.5 -4.6 62.15 -2.3 L61.75 -0.4 Q61.45 0.7 60.25 0.95 57.95 1.35 56.95 -0.3 56.55 -0.95 57.15 -1.35 58.2 -2.15 59.5 -1.85 59.05 -3.95 60.3 -5.25 M69.95 -7.4 Q69.1 -6.05 67.2 -6.45 65.65 -6.8 64.25 -7.5 63.3 -7.95 63.3 -9.0 L63.3 -10.1 Q63.35 -11.6 63.7 -13.0 63.8 -13.4 64.25 -13.5 L64.6 -13.6 Q66.3 -12.75 66.05 -10.55 L66.0 -9.45 Q68.2 -9.5 69.8 -8.2 L70.0 -8.0 70.0 -7.5 69.95 -7.4 M70.0 8.85 Q69.0 10.3 67.05 9.5 L64.7 9.35 Q63.9 9.55 63.65 8.8 63.15 7.2 63.5 5.55 L63.85 3.9 Q64.0 2.75 65.1 2.65 66.95 3.55 66.35 5.9 L66.15 6.55 Q68.3 6.6 70.0 8.1 70.3 8.35 70.05 8.75 L70.0 8.85 M64.75 -5.6 Q66.7 -4.6 65.75 -2.25 L65.6 -1.6 Q67.5 -1.9 68.85 -0.65 69.45 -0.1 68.9 0.6 68.25 1.4 67.25 1.25 L64.6 0.8 Q62.75 0.4 62.9 -1.55 63.1 -3.65 64.2 -5.25 64.4 -5.55 64.75 -5.6 M62.8 5.5 Q62.6 7.25 61.8 8.75 L61.1 9.25 Q58.75 9.7 57.2 8.3 56.65 7.8 57.1 7.2 57.85 6.2 59.25 6.5 L59.85 6.5 Q60.05 4.6 60.65 2.95 60.8 2.45 61.35 2.4 63.15 3.2 62.8 5.5 M3.25 18.4 L9.5 44.15 -9.5 44.15 -3.25 18.4 3.25 18.4 M-69.95 -8.0 L-69.8 -8.2 Q-68.2 -9.5 -65.95 -9.45 L-66.0 -10.55 Q-66.3 -12.75 -64.6 -13.6 L-64.25 -13.5 Q-63.8 -13.4 -63.7 -13.0 L-63.25 -10.1 -63.25 -9.0 Q-63.3 -7.95 -64.2 -7.5 -65.6 -6.8 -67.15 -6.45 -69.05 -6.05 -69.9 -7.4 L-69.95 -7.5 -69.95 -8.0 M-69.95 8.1 Q-68.3 6.6 -66.1 6.55 L-66.3 5.9 Q-66.95 3.55 -65.1 2.65 -63.95 2.75 -63.8 3.9 L-63.5 5.55 Q-63.15 7.2 -63.65 8.8 -63.85 9.55 -64.65 9.35 L-67.0 9.5 Q-69.0 10.3 -69.95 8.85 L-70.05 8.75 Q-70.25 8.35 -70.0 8.1 L-69.95 8.1 M-61.7 -13.45 L-61.05 -13.0 Q-60.2 -11.2 -60.45 -9.0 L-57.1 -8.9 Q-55.85 -8.8 -55.85 -7.6 -55.85 -7.25 -56.15 -7.1 -58.65 -5.95 -61.7 -6.3 -62.7 -6.45 -62.8 -7.45 L-63.15 -10.1 Q-63.5 -12.55 -61.7 -13.45 M-64.7 -5.6 L-64.15 -5.25 Q-63.05 -3.65 -62.9 -1.55 -62.7 0.4 -64.55 0.8 L-67.2 1.25 Q-68.25 1.4 -68.9 0.6 -69.45 -0.1 -68.8 -0.65 -67.45 -1.9 -65.6 -1.6 L-65.75 -2.25 Q-66.65 -4.6 -64.7 -5.6 M-61.75 -0.4 L-62.15 -2.3 Q-62.5 -4.6 -60.7 -5.45 -60.45 -5.45 -60.3 -5.25 -59.05 -3.95 -59.45 -1.85 -58.2 -2.15 -57.1 -1.35 -56.55 -0.95 -56.9 -0.3 -57.95 1.35 -60.25 0.95 -61.4 0.7 -61.75 -0.4 M-59.85 6.5 L-59.2 6.5 Q-57.85 6.2 -57.1 7.2 -56.65 7.8 -57.15 8.3 -58.7 9.7 -61.1 9.25 L-61.8 8.75 Q-62.55 7.25 -62.8 5.5 -63.1 3.2 -61.35 2.4 -60.8 2.45 -60.6 2.95 -60.0 4.6 -59.85 6.5" fill="#706860" fill-rule="evenodd" stroke="none"/>
    <path d="M-7.25 -35.35 L-12.75 -20.6 -36.0 -20.6 -34.15 -23.7 Q-27.6 -33.8 -18.5 -35.35 L-7.25 -35.35" fill="url(#gradient1)" fill-rule="evenodd" stroke="none"/>
    <path d="M-12.75 -20.6 L-8.5 -17.35 -8.5 -14.35 -16.5 -9.1 -36.75 -9.1 -50.45 5.9 -50.45 -17.6 Q-44.25 -22.85 -34.15 -23.7 L-36.0 -20.6 -12.75 -20.6" fill="url(#gradient2)" fill-rule="evenodd" stroke="none"/>
    <path d="M8.5 -14.35 L16.5 -9.1 16.5 2.4 16.5 24.15 16.5 30.4 8.5 9.4 8.5 -14.35 M-16.5 30.4 L-16.5 24.15 -16.5 2.4 -16.5 -9.1 -8.5 -14.35 -8.5 9.4 -16.5 30.4" fill="#404030" fill-rule="evenodd" stroke="none"/>
    <path d="M-23.5 20.4 L-50.45 20.4 -50.45 5.9 -36.75 -9.1 -16.5 -9.1 -16.5 2.4 -23.5 2.4 -23.5 20.4 M-39.0 2.4 L-39.0 10.4 -31.0 10.4 -39.0 2.4" fill="url(#gradient3)" fill-rule="evenodd" stroke="none"/>
    <path d="M12.8 -20.6 L7.3 -35.35 18.5 -35.35 Q27.6 -33.8 34.2 -23.7 L36.05 -20.6 12.8 -20.6" fill="url(#gradient4)" fill-rule="evenodd" stroke="none"/>
    <path d="M8.5 -17.35 L12.8 -20.6 36.05 -20.6 34.2 -23.7 Q44.25 -22.85 50.5 -17.6 L50.5 5.9 36.8 -9.1 16.5 -9.1 8.5 -14.35 8.5 -17.35" fill="url(#gradient5)" fill-rule="evenodd" stroke="none"/>
    <path d="M16.5 2.4 L16.5 -9.1 36.8 -9.1 50.5 5.9 50.5 20.4 23.55 20.4 23.55 2.4 16.5 2.4 M39.05 2.4 L31.05 10.4 39.05 10.4 39.05 2.4" fill="url(#gradient6)" fill-rule="evenodd" stroke="none"/>
    <path d="M76.4 28.7 L78.25 26.2 78.25 -4.85 Q76.6 -15.55 70.3 -27.7 67.3 -33.5 64.75 -35.5 78.05 -46.15 86.1 -19.7 L86.1 106.9 55.2 106.9 55.25 64.65 55.75 65.2 55.25 64.65 55.3 49.05 55.3 42.55 55.3 35.4 55.85 35.3 56.3 35.2 62.65 34.55 Q70.3 34.45 78.1 37.9 77.45 32.1 76.4 28.7 M55.85 42.55 L55.3 42.55 55.85 42.55 M55.9 49.05 L55.3 49.05 55.9 49.05" fill="url(#gradient7)" fill-rule="evenodd" stroke="none"/>
    <path d="M86.1 -19.7 Q101.7 -43.4 120.25 9.65 L120.25 50.65 104.75 67.4 104.75 110.9 86.1 110.9 86.1 106.9 86.1 -19.7" fill="url(#gradient8)" fill-rule="evenodd" stroke="none"/>
    <path d="M120.25 50.65 L120.25 156.4 86.1 156.4 86.1 110.9 104.75 110.9 104.75 67.4 120.25 50.65" fill="url(#gradient9)" fill-rule="evenodd" stroke="none"/>
    <path d="M65.25 10.75 L66.05 12.7 Q66.4 14.05 65.65 15.2 65.4 15.65 64.85 15.75 63.1 16.1 61.6 15.25 60.2 14.45 60.25 12.75 60.3 11.45 60.95 10.5 61.4 9.85 62.25 9.8 64.4 9.1 65.25 10.75 M-65.25 10.75 Q-64.4 9.1 -62.2 9.8 -61.4 9.85 -60.9 10.5 -60.3 11.45 -60.25 12.75 -60.2 14.45 -61.6 15.25 -63.05 16.1 -64.85 15.75 -65.35 15.65 -65.65 15.2 -66.4 14.05 -66.0 12.7 L-65.25 10.75" fill="#202010" fill-rule="evenodd" stroke="none"/>
    <path d="M55.3 19.2 L58.0 18.9 70.0 18.9 Q73.95 20.6 76.4 28.7 77.45 32.1 78.1 37.9 70.3 34.45 62.65 34.55 L56.3 35.2 55.85 35.3 55.3 35.4 Q51.6 36.25 48.0 37.9 48.25 31.55 49.4 27.3 L50.5 24.2 Q52.3 20.1 55.3 19.2" fill="url(#gradient10)" fill-rule="evenodd" stroke="none"/>
    <path d="M16.5 30.4 L16.5 24.15 23.55 24.15 23.55 20.4 50.5 20.4 50.5 24.2 49.4 27.3 32.65 27.3 26.15 27.3 24.0 31.6 18.6 42.4 16.0 47.65 16.0 76.95 9.0 94.2 9.0 93.1 9.0 94.2 -8.95 94.2 -15.95 76.95 -15.95 49.4 -15.95 47.65 -18.3 42.9 -23.7 32.1 -26.1 27.3 -32.05 27.3 -48.8 27.3 -49.4 27.3 Q-49.85 25.55 -50.45 24.2 L-50.45 20.4 -23.5 20.4 -23.5 24.15 -16.5 24.15 -16.5 30.4 -9.5 44.15 -9.5 78.7 -6.2 82.45 6.25 82.45 9.5 78.7 9.5 44.15 16.5 30.4" fill="#283040" fill-rule="evenodd" stroke="none"/>
    <path d="M16.5 24.15 L16.5 2.4 23.55 2.4 23.55 20.4 23.55 24.15 16.5 24.15 M-16.5 24.15 L-23.5 24.15 -23.5 20.4 -23.5 2.4 -16.5 2.4 -16.5 24.15" fill="#a8a888" fill-rule="evenodd" stroke="none"/>
    <path d="M9.5 78.7 L6.25 82.45 -6.2 82.45 -9.5 78.7 9.5 78.7" fill="#101010" fill-rule="evenodd" stroke="none"/>
    <path d="M9.5 44.15 L9.5 78.7 -9.5 78.7 -9.5 44.15 9.5 44.15" fill="#485850" fill-rule="evenodd" stroke="none"/>
    <path d="M86.1 156.4 Q77.5 173.9 66.6 168.8 55.65 163.65 55.2 147.25 L55.2 106.9 86.1 106.9 86.1 110.9 86.1 156.4" fill="url(#gradient11)" fill-rule="evenodd" stroke="none"/>
    <path d="M120.25 156.4 Q123.85 161.6 120.25 163.9 L116.25 163.9 91.25 163.9 86.75 163.9 Q83.6 161.75 86.1 156.4 L120.25 156.4" fill="url(#gradient12)" fill-rule="evenodd" stroke="none"/>
    <path d="M116.25 163.9 L119.75 176.9 83.0 176.9 91.25 163.9 116.25 163.9" fill="url(#gradient13)" fill-rule="evenodd" stroke="none"/>
    <path d="M-50.45 24.2 Q-49.85 25.55 -49.4 27.3 -48.25 31.5 -47.95 37.9 -51.6 36.25 -55.3 35.4 L-55.85 35.3 -56.25 35.2 -62.6 34.55 Q-70.3 34.45 -78.1 37.9 -77.45 32.1 -76.4 28.7 -73.95 20.6 -69.95 18.9 L-57.95 18.9 -55.3 19.2 Q-52.3 20.1 -50.45 24.2" fill="url(#gradient14)" fill-rule="evenodd" stroke="none"/>
    <path d="M-120.25 156.4 L-120.25 50.65 -104.75 67.4 -104.75 110.9 -86.1 110.9 -86.1 156.4 -120.25 156.4" fill="url(#gradient15)" fill-rule="evenodd" stroke="none"/>
    <path d="M-120.25 50.65 L-120.25 9.65 Q-101.7 -43.4 -86.1 -19.7 L-86.1 106.9 -86.1 110.9 -104.75 110.9 -104.75 67.4 -120.25 50.65" fill="url(#gradient16)" fill-rule="evenodd" stroke="none"/>
    <path d="M-55.15 106.9 L-55.15 147.25 Q-55.65 163.65 -66.55 168.8 -77.5 173.9 -86.1 156.4 L-86.1 110.9 -86.1 106.9 -55.15 106.9" fill="url(#gradient17)" fill-rule="evenodd" stroke="none"/>
    <path d="M-86.1 156.4 Q-83.6 161.75 -86.75 163.9 L-91.25 163.9 -116.25 163.9 -120.25 163.9 Q-123.85 161.6 -120.25 156.4 L-86.1 156.4" fill="url(#gradient18)" fill-rule="evenodd" stroke="none"/>
    <path d="M-91.25 163.9 L-83.0 176.9 -119.75 176.9 -116.25 163.9 -91.25 163.9" fill="url(#gradient19)" fill-rule="evenodd" stroke="none"/>
    <path d="M7.3 -35.35 L3.3 -30.6 -3.25 -30.6 -7.25 -35.35 -18.5 -35.35 Q-17.25 -47.25 0.0 -56.85 17.25 -47.25 18.5 -35.35 L7.3 -35.35" fill="url(#gradient20)" fill-rule="evenodd" stroke="none"/>
    <path d="M7.3 -35.35 L3.3 -30.6 -3.25 -30.6 -7.25 -35.35 -12.75 -20.6 -8.5 -17.35 -5.5 -21.1 5.55 -21.1 8.5 -17.35 12.8 -20.6 7.3 -35.35 18.5 -35.35 Q17.25 -47.25 0.0 -56.85 -17.25 -47.25 -18.5 -35.35 L-7.25 -35.35 M16.5 -9.1 L8.5 -14.35 8.5 9.4 16.5 30.4 16.5 24.15 16.5 2.4 16.5 -9.1 36.8 -9.1 50.5 5.9 50.5 -17.6 Q44.25 -22.85 34.2 -23.7 L36.05 -20.6 12.8 -20.6 M8.5 -14.35 L8.5 -17.35 M18.5 -35.35 Q27.6 -33.8 34.2 -23.7 M76.4 28.7 L78.25 26.2 78.25 -4.85 Q76.6 -15.55 70.3 -27.7 67.3 -33.5 64.75 -35.5 60.3 -39.0 56.9 -31.55 L50.5 -17.6 M70.0 -8.0 L70.0 -16.1 Q63.6 -51.05 55.35 -16.1 L55.3 19.2 58.0 18.9 70.0 18.9 70.0 8.85 M70.0 8.1 L70.0 -7.4 70.0 -7.5 70.0 -8.0 M64.75 -35.5 Q78.05 -46.15 86.1 -19.7 101.7 -43.4 120.25 9.65 L120.25 50.65 120.25 156.4 Q123.85 161.6 120.25 163.9 L116.25 163.9 119.75 176.9 83.0 176.9 91.25 163.9 86.75 163.9 Q83.6 161.75 86.1 156.4 77.5 173.9 66.6 168.8 55.65 163.65 55.2 147.25 L55.2 106.9 55.25 64.65 55.3 49.05 55.3 42.55 55.3 35.4 55.85 35.3 56.3 35.2 62.65 34.55 Q70.3 34.45 78.1 37.9 77.45 32.1 76.4 28.7 73.95 20.6 70.0 18.9 M86.1 110.9 L104.75 110.9 104.75 67.4 120.25 50.65 M50.5 24.2 Q52.3 20.1 55.3 19.2 M50.5 24.2 L50.5 20.4 23.55 20.4 23.55 24.15 16.5 24.15 M50.5 5.9 L50.5 20.4 M49.4 27.3 Q48.25 31.55 48.0 37.9 51.6 36.25 55.3 35.4 M18.6 42.4 L16.0 47.65 16.0 76.95 9.0 94.2 -8.95 94.2 -15.95 76.95 -15.95 49.4 -15.95 47.65 -18.3 42.9 -23.7 32.1 -26.1 27.3 -32.05 27.3 -48.8 27.3 -49.4 27.3 Q-49.85 25.55 -50.45 24.2 -52.3 20.1 -55.3 19.2 L-55.3 -16.1 Q-63.6 -51.05 -69.95 -16.1 L-69.95 -8.0 -69.95 -7.5 -69.95 -7.4 -69.95 8.1 M-55.25 65.55 L-55.15 106.9 -55.15 147.25 Q-55.65 163.65 -66.55 168.8 -77.5 173.9 -86.1 156.4 -83.6 161.75 -86.75 163.9 L-91.25 163.9 -83.0 176.9 -119.75 176.9 -116.25 163.9 -120.25 163.9 Q-123.85 161.6 -120.25 156.4 L-120.25 50.65 -120.25 9.65 Q-101.7 -43.4 -86.1 -19.7 -78.05 -46.15 -64.75 -35.5 -60.3 -39.0 -56.85 -31.55 L-50.45 -17.6 Q-44.25 -22.85 -34.15 -23.7 -27.6 -33.8 -18.5 -35.35 M49.4 27.3 L50.5 24.2 M23.55 20.4 L23.55 2.4 16.5 2.4 M3.25 18.4 L8.5 9.4 M16.5 30.4 L9.5 44.15 9.5 78.7 6.25 82.45 -6.2 82.45 -9.5 78.7 -9.5 44.15 -16.5 30.4 -16.5 24.15 -23.5 24.15 -23.5 20.4 -50.45 20.4 -50.45 24.2 M24.0 31.6 L18.6 42.4 M24.0 31.6 L26.15 27.3 32.65 27.3 49.4 27.3 M3.25 18.4 L9.5 44.15 -9.5 44.15 -3.25 18.4 -8.5 9.4 -16.5 30.4 M86.1 106.9 L86.1 110.9 86.1 156.4 120.25 156.4 M116.25 163.9 L91.25 163.9 M86.1 106.9 L55.2 106.9 M86.1 -19.7 L86.1 106.9 M-76.4 28.7 L-78.2 26.2 -78.2 -4.85 Q-76.6 -15.55 -70.3 -27.7 -67.3 -33.5 -64.75 -35.5 M-69.95 8.85 L-69.95 18.9 -57.95 18.9 -55.3 19.2 M-34.15 -23.7 L-36.0 -20.6 -12.75 -20.6 M-8.5 -14.35 L-16.5 -9.1 -16.5 2.4 -16.5 24.15 M-8.5 -17.35 L-8.5 -14.35 8.5 -14.35 M-16.5 -9.1 L-36.75 -9.1 -50.45 5.9 -50.45 20.4 M-16.5 2.4 L-23.5 2.4 -23.5 20.4 M-55.25 49.4 L-55.25 65.55 M-62.6 34.55 L-56.25 35.2 -55.85 35.3 -55.3 35.4 Q-51.6 36.25 -47.95 37.9 -48.25 31.5 -49.4 27.3 M-76.4 28.7 Q-77.45 32.1 -78.1 37.9 -70.3 34.45 -62.6 34.55 M-55.3 35.4 L-55.25 42.9 -55.25 49.4 M-69.95 18.9 Q-73.95 20.6 -76.4 28.7 M-120.25 50.65 L-104.75 67.4 -104.75 110.9 -86.1 110.9 -86.1 106.9 -86.1 -19.7 M-86.1 156.4 L-120.25 156.4 M-91.25 163.9 L-116.25 163.9 M-86.1 110.9 L-86.1 156.4 M-55.15 106.9 L-86.1 106.9 M-50.45 5.9 L-50.45 -17.6 M-8.5 -14.35 L-8.5 9.4 M-3.25 18.4 L3.25 18.4 M9.5 78.7 L-9.5 78.7" fill="none" stroke="#000000" stroke-linecap="round" stroke-linejoin="round" stroke-width="1.5"/>
    <path d="M55.25 64.65 L41.2 49.05 16.55 49.05 M55.3 42.55 L55.85 42.55 M55.3 49.05 L55.9 49.05 M55.3 49.05 L41.2 49.05 34.85 42.55 18.6 42.4 M-15.95 49.4 L-40.6 49.4 -55.25 65.55 M34.85 42.55 L32.65 40.3 24.0 31.6 M55.25 64.65 L55.75 65.2 M34.85 42.55 L55.3 42.55 M-34.25 42.9 L-32.05 40.65 -23.7 32.1 M-18.3 42.9 L-34.25 42.9 -40.6 49.4 -55.25 49.4 M-55.25 42.9 L-34.25 42.9" fill="none" stroke="#e85800" stroke-linecap="round" stroke-linejoin="round" stroke-width="1.5"/>
    <path d="M32.65 40.3 L32.65 27.3 M49.4 27.3 L34.85 42.55 M-32.05 40.65 L-32.05 27.3 M-34.25 42.9 L-48.8 27.3" fill="none" stroke="#500000" stroke-linecap="round" stroke-linejoin="round" stroke-width="1.5"/>
  </g>
  <defs>
    <linearGradient gradientTransform="matrix(0.0189, 0.0, 0.0, 0.0888, -70.65, 34.2)" gradientUnits="userSpaceOnUse" id="gradient0" spreadMethod="pad" x1="-819.2" x2="819.2">
      <stop offset="0.06666666666666667" stop-color="#707878"/>
      <stop offset="0.22745098039215686" stop-color="#d8e0d8"/>
      <stop offset="0.3686274509803922" stop-color="#d8e0d8"/>
      <stop offset="0.5450980392156862" stop-color="#707878"/>
      <stop offset="0.6941176470588235" stop-color="#605030"/>
      <stop offset="0.8784313725490196" stop-color="#382018"/>
    </linearGradient>
    <linearGradient gradientTransform="matrix(-0.0142, -0.0037, 0.0034, -0.0127, -21.65, -27.95)" gradientUnits="userSpaceOnUse" id="gradient1" spreadMethod="pad" x1="-819.2" x2="819.2">
      <stop offset="0.06666666666666667" stop-color="#707878"/>
      <stop offset="0.22745098039215686" stop-color="#d8e0d8"/>
      <stop offset="0.3686274509803922" stop-color="#d8e0d8"/>
      <stop offset="0.5450980392156862" stop-color="#707878"/>
      <stop offset="0.6941176470588235" stop-color="#605030"/>
      <stop offset="0.8784313725490196" stop-color="#382018"/>
    </linearGradient>
    <linearGradient gradientTransform="matrix(-0.0201, -0.0116, -0.0127, 0.0221, -33.7, -8.55)" gradientUnits="userSpaceOnUse" id="gradient2" spreadMethod="pad" x1="-819.2" x2="819.2">
      <stop offset="0.14901960784313725" stop-color="#605030"/>
      <stop offset="0.35294117647058826" stop-color="#888880"/>
      <stop offset="0.5607843137254902" stop-color="#888880"/>
      <stop offset="0.7725490196078432" stop-color="#605030"/>
      <stop offset="0.9647058823529412" stop-color="#382018"/>
    </linearGradient>
    <linearGradient gradientTransform="matrix(-0.0207, 0.0, 0.0, 0.018, -33.45, 5.65)" gradientUnits="userSpaceOnUse" id="gradient3" spreadMethod="pad" x1="-819.2" x2="819.2">
      <stop offset="0.14901960784313725" stop-color="#280000"/>
      <stop offset="0.35294117647058826" stop-color="#502010"/>
      <stop offset="0.5607843137254902" stop-color="#a03000"/>
      <stop offset="0.8117647058823529" stop-color="#e85800"/>
    </linearGradient>
    <linearGradient gradientTransform="matrix(0.0142, -0.0037, 0.0034, 0.0128, 21.65, -28.0)" gradientUnits="userSpaceOnUse" id="gradient4" spreadMethod="pad" x1="-819.2" x2="819.2">
      <stop offset="0.06666666666666667" stop-color="#707878"/>
      <stop offset="0.22745098039215686" stop-color="#d8e0d8"/>
      <stop offset="0.3686274509803922" stop-color="#d8e0d8"/>
      <stop offset="0.5450980392156862" stop-color="#707878"/>
      <stop offset="0.6941176470588235" stop-color="#605030"/>
      <stop offset="0.8784313725490196" stop-color="#382018"/>
    </linearGradient>
    <linearGradient gradientTransform="matrix(0.0202, -0.0116, 0.0127, 0.0221, 33.75, -8.55)" gradientUnits="userSpaceOnUse" id="gradient5" spreadMethod="pad" x1="-819.2" x2="819.2">
      <stop offset="0.14901960784313725" stop-color="#605030"/>
      <stop offset="0.35294117647058826" stop-color="#888880"/>
      <stop offset="0.5607843137254902" stop-color="#888880"/>
      <stop offset="0.7725490196078432" stop-color="#605030"/>
      <stop offset="0.9647058823529412" stop-color="#382018"/>
    </linearGradient>
    <linearGradient gradientTransform="matrix(0.0207, 0.0, 0.0, 0.018, 33.5, 5.65)" gradientUnits="userSpaceOnUse" id="gradient6" spreadMethod="pad" x1="-819.2" x2="819.2">
      <stop offset="0.14901960784313725" stop-color="#280000"/>
      <stop offset="0.35294117647058826" stop-color="#502010"/>
      <stop offset="0.5607843137254902" stop-color="#a03000"/>
      <stop offset="0.8117647058823529" stop-color="#e85800"/>
    </linearGradient>
    <linearGradient gradientTransform="matrix(0.0189, 0.0, 0.0, 0.0888, 70.65, 34.2)" gradientUnits="userSpaceOnUse" id="gradient7" spreadMethod="pad" x1="-819.2" x2="819.2">
      <stop offset="0.06666666666666667" stop-color="#707878"/>
      <stop offset="0.22745098039215686" stop-color="#d8e0d8"/>
      <stop offset="0.3686274509803922" stop-color="#d8e0d8"/>
      <stop offset="0.5450980392156862" stop-color="#707878"/>
      <stop offset="0.6941176470588235" stop-color="#605030"/>
      <stop offset="0.8784313725490196" stop-color="#382018"/>
    </linearGradient>
    <linearGradient gradientTransform="matrix(0.0208, 0.0, 0.0, 0.0842, 103.2, 41.95)" gradientUnits="userSpaceOnUse" id="gradient8" spreadMethod="pad" x1="-819.2" x2="819.2">
      <stop offset="0.06666666666666667" stop-color="#707878"/>
      <stop offset="0.22745098039215686" stop-color="#d8e0d8"/>
      <stop offset="0.3686274509803922" stop-color="#d8e0d8"/>
      <stop offset="0.5450980392156862" stop-color="#707878"/>
      <stop offset="0.6941176470588235" stop-color="#605030"/>
      <stop offset="0.8784313725490196" stop-color="#382018"/>
    </linearGradient>
    <linearGradient gradientTransform="matrix(0.0208, 0.0, 0.0, 0.0645, 103.2, 103.55)" gradientUnits="userSpaceOnUse" id="gradient9" spreadMethod="pad" x1="-819.2" x2="819.2">
      <stop offset="0.06666666666666667" stop-color="#605030"/>
      <stop offset="0.22745098039215686" stop-color="#b0a8a8"/>
      <stop offset="0.3686274509803922" stop-color="#b0a8a8"/>
      <stop offset="0.5450980392156862" stop-color="#706860"/>
      <stop offset="0.6941176470588235" stop-color="#605030"/>
      <stop offset="0.8784313725490196" stop-color="#202010"/>
    </linearGradient>
    <linearGradient gradientTransform="matrix(0.018, 0.0048, -0.0038, 0.0142, 64.5, 29.85)" gradientUnits="userSpaceOnUse" id="gradient10" spreadMethod="pad" x1="-819.2" x2="819.2">
      <stop offset="0.06666666666666667" stop-color="#483820"/>
      <stop offset="0.22745098039215686" stop-color="#a09890"/>
      <stop offset="0.3686274509803922" stop-color="#a09890"/>
      <stop offset="0.5450980392156862" stop-color="#887020"/>
      <stop offset="0.6941176470588235" stop-color="#706840"/>
      <stop offset="0.8784313725490196" stop-color="#483820"/>
    </linearGradient>
    <linearGradient gradientTransform="matrix(0.0189, 0.0, 0.0, 0.0385, 70.65, 138.45)" gradientUnits="userSpaceOnUse" id="gradient11" spreadMethod="pad" x1="-819.2" x2="819.2">
      <stop offset="0.06666666666666667" stop-color="#382018"/>
      <stop offset="0.22745098039215686" stop-color="#b0a8a8"/>
      <stop offset="0.3686274509803922" stop-color="#b0a8a8"/>
      <stop offset="0.5450980392156862" stop-color="#605030"/>
      <stop offset="0.6941176470588235" stop-color="#404030"/>
      <stop offset="0.8784313725490196" stop-color="#382018"/>
    </linearGradient>
    <linearGradient gradientTransform="matrix(0.0226, 0.0, 0.0, 0.0046, 103.55, 160.15)" gradientUnits="userSpaceOnUse" id="gradient12" spreadMethod="pad" x1="-819.2" x2="819.2">
      <stop offset="0.06666666666666667" stop-color="#707878"/>
      <stop offset="0.22745098039215686" stop-color="#d8e0d8"/>
      <stop offset="0.3686274509803922" stop-color="#d8e0d8"/>
      <stop offset="0.5450980392156862" stop-color="#707878"/>
      <stop offset="0.6941176470588235" stop-color="#283040"/>
      <stop offset="0.8784313725490196" stop-color="#101010"/>
    </linearGradient>
    <linearGradient gradientTransform="matrix(0.0224, 0.0, 0.0, 0.0079, 101.4, 170.4)" gradientUnits="userSpaceOnUse" id="gradient13" spreadMethod="pad" x1="-819.2" x2="819.2">
      <stop offset="0.06666666666666667" stop-color="#483820"/>
      <stop offset="0.22745098039215686" stop-color="#887020"/>
      <stop offset="0.3686274509803922" stop-color="#a09890"/>
      <stop offset="0.5450980392156862" stop-color="#a09890"/>
      <stop offset="0.6941176470588235" stop-color="#706840"/>
      <stop offset="0.8313725490196079" stop-color="#887020"/>
      <stop offset="1.0" stop-color="#000000"/>
    </linearGradient>
    <linearGradient gradientTransform="matrix(-0.018, 0.0048, 0.0038, 0.0142, -64.45, 29.85)" gradientUnits="userSpaceOnUse" id="gradient14" spreadMethod="pad" x1="-819.2" x2="819.2">
      <stop offset="0.06666666666666667" stop-color="#483820"/>
      <stop offset="0.22745098039215686" stop-color="#a09890"/>
      <stop offset="0.3686274509803922" stop-color="#a09890"/>
      <stop offset="0.5450980392156862" stop-color="#887020"/>
      <stop offset="0.6941176470588235" stop-color="#706840"/>
      <stop offset="0.8784313725490196" stop-color="#483820"/>
    </linearGradient>
    <linearGradient gradientTransform="matrix(-0.0208, 0.0, 0.0, 0.0645, -103.15, 103.55)" gradientUnits="userSpaceOnUse" id="gradient15" spreadMethod="pad" x1="-819.2" x2="819.2">
      <stop offset="0.06666666666666667" stop-color="#605030"/>
      <stop offset="0.22745098039215686" stop-color="#b0a8a8"/>
      <stop offset="0.3686274509803922" stop-color="#b0a8a8"/>
      <stop offset="0.5450980392156862" stop-color="#706860"/>
      <stop offset="0.6941176470588235" stop-color="#605030"/>
      <stop offset="0.8784313725490196" stop-color="#202010"/>
    </linearGradient>
    <linearGradient gradientTransform="matrix(-0.0208, 0.0, 0.0, 0.0842, -103.15, 41.95)" gradientUnits="userSpaceOnUse" id="gradient16" spreadMethod="pad" x1="-819.2" x2="819.2">
      <stop offset="0.06666666666666667" stop-color="#707878"/>
      <stop offset="0.22745098039215686" stop-color="#d8e0d8"/>
      <stop offset="0.3686274509803922" stop-color="#d8e0d8"/>
      <stop offset="0.5450980392156862" stop-color="#707878"/>
      <stop offset="0.6941176470588235" stop-color="#605030"/>
      <stop offset="0.8784313725490196" stop-color="#382018"/>
    </linearGradient>
    <linearGradient gradientTransform="matrix(-0.0189, 0.0, 0.0, 0.0385, -70.6, 138.45)" gradientUnits="userSpaceOnUse" id="gradient17" spreadMethod="pad" x1="-819.2" x2="819.2">
      <stop offset="0.06666666666666667" stop-color="#382018"/>
      <stop offset="0.22745098039215686" stop-color="#b0a8a8"/>
      <stop offset="0.3686274509803922" stop-color="#b0a8a8"/>
      <stop offset="0.5450980392156862" stop-color="#605030"/>
      <stop offset="0.6941176470588235" stop-color="#404030"/>
      <stop offset="0.8784313725490196" stop-color="#382018"/>
    </linearGradient>
    <linearGradient gradientTransform="matrix(-0.0226, 0.0, 0.0, 0.0046, -103.5, 160.15)" gradientUnits="userSpaceOnUse" id="gradient18" spreadMethod="pad" x1="-819.2" x2="819.2">
      <stop offset="0.06666666666666667" stop-color="#707878"/>
      <stop offset="0.22745098039215686" stop-color="#d8e0d8"/>
      <stop offset="0.3686274509803922" stop-color="#d8e0d8"/>
      <stop offset="0.5450980392156862" stop-color="#707878"/>
      <stop offset="0.6941176470588235" stop-color="#283040"/>
      <stop offset="0.8784313725490196" stop-color="#101010"/>
    </linearGradient>
    <linearGradient gradientTransform="matrix(-0.0224, 0.0, 0.0, 0.0079, -101.35, 170.4)" gradientUnits="userSpaceOnUse" id="gradient19" spreadMethod="pad" x1="-819.2" x2="819.2">
      <stop offset="0.06666666666666667" stop-color="#483820"/>
      <stop offset="0.22745098039215686" stop-color="#887020"/>
      <stop offset="0.3686274509803922" stop-color="#a09890"/>
      <stop offset="0.5450980392156862" stop-color="#a09890"/>
      <stop offset="0.6941176470588235" stop-color="#706840"/>
      <stop offset="0.8313725490196079" stop-color="#887020"/>
      <stop offset="1.0" stop-color="#000000"/>
    </linearGradient>
    <linearGradient gradientTransform="matrix(0.0226, 0.0, 0.0, 0.016, 0.0, -43.75)" gradientUnits="userSpaceOnUse" id="gradient20" spreadMethod="pad" x1="-819.2" x2="819.2">
      <stop offset="0.06666666666666667" stop-color="#707878"/>
      <stop offset="0.22745098039215686" stop-color="#d8e0d8"/>
      <stop offset="0.3686274509803922" stop-color="#d8e0d8"/>
      <stop offset="0.5450980392156862" stop-color="#707878"/>
      <stop offset="0.6941176470588235" stop-color="#605030"/>
      <stop offset="0.8784313725490196" stop-color="#382018"/>
    </linearGradient>
  </defs>
</svg>
