<?xml version="1.0" encoding="UTF-8" standalone="no"?>
<svg xmlns:ffdec="https://www.free-decompiler.com/flash" xmlns:xlink="http://www.w3.org/1999/xlink" ffdec:objectType="shape" height="39.5px" width="149.05px" xmlns="http://www.w3.org/2000/svg">
  <g transform="matrix(1.0, 0.0, 0.0, 1.0, 74.5, 19.75)">
    <path d="M-74.3 -6.0 L-74.45 -9.6 -74.5 -13.4 -74.45 -17.5 Q-63.35 -22.05 -51.45 -17.35 L-51.5 -15.95 -51.65 -11.1 -51.85 -6.6 -52.15 -2.45 -52.8 3.1 -53.3 6.35 -54.2 10.6 Q-55.0 13.4 -56.25 15.9 -57.15 17.75 -59.05 18.75 L-60.9 19.5 -62.2 19.75 Q-65.3 19.15 -67.55 17.0 -69.55 15.05 -70.6 12.55 L-72.05 8.35 -73.25 3.35 -74.05 -2.65 -74.3 -6.0" fill="url(#gradient0)" fill-rule="evenodd" stroke="none"/>
    <path d="M51.7 -6.0 L51.55 -9.6 51.5 -13.4 51.55 -17.5 Q62.65 -22.05 74.55 -17.35 L74.5 -15.95 74.35 -11.1 74.15 -6.6 73.85 -2.45 73.2 3.1 72.7 6.35 71.8 10.6 Q71.0 13.4 69.75 15.9 68.85 17.75 66.95 18.75 L65.1 19.5 63.8 19.75 Q60.7 19.15 58.45 17.0 56.45 15.05 55.4 12.55 L53.95 8.35 Q53.2 5.85 52.75 3.35 L51.95 -2.65 Q51.75 -4.35 51.7 -6.0" fill="url(#gradient1)" fill-rule="evenodd" stroke="none"/>
  </g>
  <defs>
    <radialGradient cx="0" cy="0" gradientTransform="matrix(0.0129, 0.0, 0.0, 0.0273, -63.05, 0.55)" gradientUnits="userSpaceOnUse" id="gradient0" r="819.2" spreadMethod="pad">
      <stop offset="0.33725490196078434" stop-color="#e8f8e8"/>
      <stop offset="1.0" stop-color="#a8a0c8"/>
    </radialGradient>
    <radialGradient cx="0" cy="0" gradientTransform="matrix(0.0129, 0.0, 0.0, 0.0273, 62.95, 0.55)" gradientUnits="userSpaceOnUse" id="gradient1" r="819.2" spreadMethod="pad">
      <stop offset="0.33725490196078434" stop-color="#e8f8e8"/>
      <stop offset="1.0" stop-color="#a8a0c8"/>
    </radialGradient>
  </defs>
</svg>
