<?xml version="1.0" encoding="UTF-8" standalone="no"?>
<svg xmlns:ffdec="https://www.free-decompiler.com/flash" xmlns:xlink="http://www.w3.org/1999/xlink" ffdec:objectType="shape" height="49.35px" width="154.85px" xmlns="http://www.w3.org/2000/svg">
  <g transform="matrix(1.0, 0.0, 0.0, 1.0, 77.4, 19.4)">
    <path d="M77.45 -16.4 L77.4 -14.65 77.2 -8.6 76.95 -3.0 76.6 2.2 75.75 9.15 75.15 13.2 74.0 18.5 Q73.0 22.0 71.45 25.15 70.35 27.45 67.95 28.7 L65.65 29.65 64.0 29.95 Q60.15 29.2 57.35 26.5 54.8 24.05 53.5 20.95 52.45 18.35 51.7 15.7 50.75 12.6 50.2 9.45 L49.2 1.95 48.9 -2.25 48.7 -6.75 48.65 -11.5 48.65 -16.6 48.7 -16.6 Q62.6 -22.3 77.45 -16.4" fill="url(#gradient0)" fill-rule="evenodd" stroke="none"/>
    <path d="M-48.55 -16.4 L-48.6 -14.65 -48.8 -8.6 -49.05 -3.0 -49.4 2.2 -50.25 9.15 -50.85 13.2 Q-51.3 15.95 -52.0 18.5 -53.0 22.0 -54.55 25.15 -55.65 27.45 -58.05 28.7 L-60.35 29.65 -62.0 29.95 Q-65.85 29.2 -68.65 26.5 -71.2 24.05 -72.5 20.95 L-74.3 15.7 Q-75.25 12.6 -75.8 9.45 L-76.8 1.95 -77.1 -2.25 -77.3 -6.75 -77.35 -11.5 -77.35 -16.6 -77.3 -16.6 Q-63.4 -22.3 -48.55 -16.4" fill="url(#gradient1)" fill-rule="evenodd" stroke="none"/>
  </g>
  <defs>
    <radialGradient cx="0" cy="0" gradientTransform="matrix(0.0161, 0.0, 0.0, 0.0341, 62.95, 5.95)" gradientUnits="userSpaceOnUse" id="gradient0" r="819.2" spreadMethod="pad">
      <stop offset="0.33725490196078434" stop-color="#e8f8e8"/>
      <stop offset="1.0" stop-color="#a8a0c8"/>
    </radialGradient>
    <radialGradient cx="0" cy="0" gradientTransform="matrix(0.0161, 0.0, 0.0, 0.0341, -63.05, 5.95)" gradientUnits="userSpaceOnUse" id="gradient1" r="819.2" spreadMethod="pad">
      <stop offset="0.33725490196078434" stop-color="#e8f8e8"/>
      <stop offset="1.0" stop-color="#a8a0c8"/>
    </radialGradient>
  </defs>
</svg>
