<?xml version="1.0" encoding="UTF-8" standalone="no"?>
<svg xmlns:ffdec="https://www.free-decompiler.com/flash" xmlns:xlink="http://www.w3.org/1999/xlink" ffdec:objectType="shape" height="96.0px" width="232.05px" xmlns="http://www.w3.org/2000/svg">
  <g transform="matrix(1.0, 0.0, 0.0, 1.0, 116.0, 48.0)">
    <path d="M116.05 -47.95 L115.65 -36.1 115.3 -23.5 114.9 -12.2 114.15 2.85 113.55 11.65 112.45 23.15 Q111.5 30.7 110.0 37.5 108.9 42.55 106.6 45.25 105.6 46.6 104.4 47.3 L102.85 47.95 Q99.1 46.35 96.4 40.5 93.95 35.2 92.7 28.45 91.65 22.75 90.95 17.05 90.05 10.25 89.55 3.5 88.9 -4.65 88.55 -12.75 L88.25 -21.85 88.1 -31.6 88.05 -41.9 88.05 -48.0 116.05 -48.0 116.05 -47.95" fill="url(#gradient0)" fill-rule="evenodd" stroke="none"/>
    <path d="M-116.0 -47.95 L-115.6 -36.1 -115.3 -23.5 -114.9 -12.2 -114.15 2.8 -113.55 11.6 -112.45 23.15 Q-111.5 30.7 -110.0 37.55 -108.9 42.5 -106.65 45.25 -105.6 46.6 -104.35 47.3 L-102.8 48.0 Q-99.1 46.35 -96.4 40.5 -94.0 35.2 -92.75 28.45 -91.7 22.75 -91.0 17.05 -90.05 10.25 -89.5 3.5 L-88.55 -12.75 -88.25 -21.85 -88.05 -31.6 -88.0 -41.9 -88.0 -48.0 -116.0 -48.0 -116.0 -47.95" fill="url(#gradient1)" fill-rule="evenodd" stroke="none"/>
  </g>
  <defs>
    <radialGradient cx="0" cy="0" gradientTransform="matrix(0.0155, 0.0, 0.0, 0.074, 101.8, -4.1)" gradientUnits="userSpaceOnUse" id="gradient0" r="819.2" spreadMethod="pad">
      <stop offset="0.33725490196078434" stop-color="#e8f8e8"/>
      <stop offset="1.0" stop-color="#a8a0c8"/>
    </radialGradient>
    <radialGradient cx="0" cy="0" gradientTransform="matrix(-0.0155, 0.0, 0.0, 0.074, -101.8, -4.1)" gradientUnits="userSpaceOnUse" id="gradient1" r="819.2" spreadMethod="pad">
      <stop offset="0.33725490196078434" stop-color="#e8f8e8"/>
      <stop offset="1.0" stop-color="#a8a0c8"/>
    </radialGradient>
  </defs>
</svg>
