<?xml version="1.0" encoding="UTF-8" standalone="no"?>
<svg xmlns:ffdec="https://www.free-decompiler.com/flash" xmlns:xlink="http://www.w3.org/1999/xlink" ffdec:objectType="shape" height="119.95px" width="239.05px" xmlns="http://www.w3.org/2000/svg">
  <g transform="matrix(1.0, 0.0, 0.0, 1.0, 119.5, 48.25)">
    <path d="M-84.5 -40.65 L-84.6 -27.75 -84.8 -15.55 -85.15 -4.2 Q-85.65 5.95 -86.4 16.1 -87.05 24.6 -88.15 33.1 -89.1 40.2 -90.35 47.3 -91.95 55.75 -94.95 62.4 -98.35 69.65 -103.0 71.7 -104.0 71.55 -104.95 70.85 -106.5 70.0 -107.75 68.35 -110.65 64.9 -112.0 58.65 -113.85 50.15 -115.05 40.65 -115.9 33.7 -116.4 26.3 L-117.15 15.3 -118.1 -3.5 -118.6 -17.6 -119.0 -33.35 -119.5 -48.2 -119.5 -48.25 -84.5 -48.25 -84.5 -40.65" fill="url(#gradient0)" fill-rule="evenodd" stroke="none"/>
    <path d="M119.05 -33.35 L118.65 -17.6 118.15 -3.5 117.15 15.3 116.4 26.3 115.1 40.65 Q113.9 50.15 112.0 58.65 110.65 64.9 107.75 68.35 106.5 70.0 105.0 70.85 104.0 71.55 103.05 71.7 98.35 69.65 95.0 62.4 91.95 55.75 90.4 47.3 89.1 40.2 88.2 33.1 87.05 24.6 86.4 16.1 85.65 5.95 85.2 -4.2 L84.85 -15.55 Q84.65 -21.65 84.6 -27.75 L84.55 -40.65 84.55 -48.25 119.55 -48.25 119.55 -48.2 119.05 -33.35" fill="url(#gradient1)" fill-rule="evenodd" stroke="none"/>
  </g>
  <defs>
    <radialGradient cx="0" cy="0" gradientTransform="matrix(-0.0194, 0.0, 0.0, 0.0925, -101.75, 6.65)" gradientUnits="userSpaceOnUse" id="gradient0" r="819.2" spreadMethod="pad">
      <stop offset="0.33725490196078434" stop-color="#e8f8e8"/>
      <stop offset="1.0" stop-color="#a8a0c8"/>
    </radialGradient>
    <radialGradient cx="0" cy="0" gradientTransform="matrix(0.0194, 0.0, 0.0, 0.0925, 101.75, 6.65)" gradientUnits="userSpaceOnUse" id="gradient1" r="819.2" spreadMethod="pad">
      <stop offset="0.33725490196078434" stop-color="#e8f8e8"/>
      <stop offset="1.0" stop-color="#a8a0c8"/>
    </radialGradient>
  </defs>
</svg>
