<?xml version="1.0" encoding="UTF-8" standalone="no"?>
<svg xmlns:ffdec="https://www.free-decompiler.com/flash" xmlns:xlink="http://www.w3.org/1999/xlink" ffdec:objectType="shape" height="62.0px" width="51.25px" xmlns="http://www.w3.org/2000/svg">
  <g transform="matrix(1.0, 0.0, 0.0, 1.0, 20.85, 26.25)">
    <path d="M8.4 -18.25 L23.65 -18.25 23.65 -20.75 30.4 -20.75 30.4 33.0 22.4 33.0 22.4 35.75 -5.85 35.75 -15.35 30.5 -15.35 -20.75 -8.6 -20.75 -8.6 -18.25 6.65 -18.25 6.65 -15.1 8.4 -15.1 8.4 -18.25" fill="#000000" fill-opacity="0.5019608" fill-rule="evenodd" stroke="none"/>
    <path d="M1.65 -20.1 L1.65 -17.0 -12.1 -17.0 -12.1 0.75 -20.35 0.75 -20.35 -25.75 -13.6 -25.75 -13.6 -23.25 1.65 -23.25 1.65 -20.1" fill="url(#gradient0)" fill-rule="evenodd" stroke="none"/>
    <path d="M17.15 -11.35 L17.15 -17.0 11.3 -17.0 5.4 -17.0 3.4 -17.0 3.4 -20.1 3.4 -23.25 18.65 -23.25 18.65 -25.75 25.4 -25.75 25.4 0.75 20.15 0.75 17.15 0.75 17.15 -3.85 17.15 -11.35" fill="url(#gradient1)" fill-rule="evenodd" stroke="none"/>
    <path d="M11.3 -17.0 L17.15 -17.0 17.15 -11.35 8.4 0.75 3.4 0.75 3.4 -7.5 11.3 -17.0 M17.15 -3.85 L17.15 0.75 13.0 0.75 17.15 -3.85 M3.4 -17.0 L5.4 -17.0 3.4 -14.0 3.4 -17.0 M1.65 -17.0 L1.65 -11.4 -6.55 0.75 -12.1 0.75 -12.1 -17.0 1.65 -17.0 M1.65 -5.35 L1.65 0.75 -3.4 0.75 1.65 -5.35 M-17.2 8.65 L-17.2 3.15 -8.15 3.15 -11.85 8.65 -17.2 8.65 M-5.4 3.15 L6.7 3.15 -1.1 13.9 -1.1 8.65 -9.95 8.65 -5.4 3.15 M10.9 3.15 L17.15 3.15 17.15 8.65 12.65 8.65 12.65 13.9 9.8 13.9 9.8 10.4 7.3 10.4 7.3 13.9 6.05 13.9 6.05 10.4 4.4 10.4 10.9 3.15 M3.55 11.35 L3.55 13.9 1.25 13.9 3.55 11.35" fill="#888880" fill-rule="evenodd" stroke="none"/>
    <path d="M17.15 0.75 L20.15 0.75 25.4 0.75 25.4 8.65 21.05 8.65 17.15 8.65 17.15 3.15 10.9 3.15 6.7 3.15 -5.4 3.15 -8.15 3.15 -17.2 3.15 -17.2 8.65 -20.35 8.65 -20.35 0.75 -12.1 0.75 -6.55 0.75 -3.4 0.75 1.65 0.75 1.65 -5.35 1.65 -11.4 1.65 -17.0 1.65 -20.1 3.4 -20.1 3.4 -17.0 3.4 -14.0 3.4 -7.5 3.4 0.75 8.4 0.75 13.0 0.75 17.15 0.75" fill="url(#gradient2)" fill-rule="evenodd" stroke="none"/>
    <path d="M17.15 -11.35 L17.15 -3.85 13.0 0.75 8.4 0.75 17.15 -11.35 M5.4 -17.0 L11.3 -17.0 3.4 -7.5 3.4 -14.0 5.4 -17.0 M1.65 -11.4 L1.65 -5.35 -3.4 0.75 -6.55 0.75 1.65 -11.4 M-8.15 3.15 L-5.4 3.15 -9.95 8.65 -11.85 8.65 -8.15 3.15 M6.7 3.15 L10.9 3.15 4.4 10.4 3.55 10.4 3.55 11.35 1.25 13.9 3.55 13.9 3.55 25.25 -1.1 25.25 -1.1 22.15 -1.1 13.9 1.25 13.9 -1.1 13.9 6.7 3.15 M12.65 13.9 L12.65 18.65 12.65 25.25 9.8 25.25 9.8 13.9 12.65 13.9 M7.3 13.9 L7.3 25.25 6.05 25.25 6.05 13.9 7.3 13.9" fill="#485048" fill-rule="evenodd" stroke="none"/>
    <path d="M-20.35 8.65 L-17.2 8.65 -17.2 10.4 -10.85 17.35 -10.85 30.75 -20.35 25.5 -20.35 8.65 M21.05 8.65 L25.4 8.65 25.4 28.0 17.45 28.0 17.45 20.8 21.05 17.25 21.05 8.65 M3.55 11.35 L3.55 10.4 4.4 10.4 6.05 10.4 6.05 13.9 6.05 25.25 7.3 25.25 7.3 13.9 7.3 10.4 9.8 10.4 9.8 13.9 9.8 25.25 9.8 28.0 -1.1 28.0 -1.1 25.25 3.55 25.25 3.55 13.9 3.55 11.35" fill="#101010" fill-rule="evenodd" stroke="none"/>
    <path d="M17.15 8.65 L21.05 8.65 21.05 17.25 17.45 20.8 15.9 22.25 15.9 18.65 12.65 18.65 12.65 13.9 12.65 8.65 17.15 8.65 M-1.1 13.9 L-1.1 22.15 -6.45 22.15 -10.85 17.35 -17.2 10.4 -17.2 8.65 -11.85 8.65 -9.95 8.65 -1.1 8.65 -1.1 13.9" fill="#384048" fill-rule="evenodd" stroke="none"/>
    <path d="M12.65 18.65 L15.9 18.65 15.9 22.25 17.45 20.8 17.45 28.0 17.45 30.75 -1.1 30.75 -1.1 28.0 -1.1 30.75 -10.85 30.75 -10.85 17.35 -6.45 22.15 -1.1 22.15 -1.1 25.25 -1.1 28.0 9.8 28.0 9.8 25.25 12.65 25.25 12.65 18.65 M-3.05 27.8 Q-3.05 27.2 -3.95 26.8 L-6.05 26.4 -8.15 26.8 Q-9.0 27.2 -9.0 27.8 -9.0 28.35 -8.15 28.8 L-6.05 29.2 Q-4.8 29.2 -3.95 28.8 -3.05 28.35 -3.05 27.8" fill="#283040" fill-rule="evenodd" stroke="none"/>
    <path d="M-3.05 27.8 Q-3.05 28.35 -3.95 28.8 -4.8 29.2 -6.05 29.2 L-8.15 28.8 Q-9.0 28.35 -9.0 27.8 -9.0 27.2 -8.15 26.8 L-6.05 26.4 -3.95 26.8 Q-3.05 27.2 -3.05 27.8" fill="#8858c8" fill-rule="evenodd" stroke="none"/>
    <path d="M11.3 -17.0 L17.15 -17.0 17.15 -11.35 17.15 -3.85 17.15 0.75 M20.15 0.75 L25.4 0.75 M25.4 -25.75 L18.65 -25.75 18.65 -23.25 3.4 -23.25 3.4 -20.1 3.4 -17.0 5.4 -17.0 11.3 -17.0 M3.4 -7.5 L3.4 0.75 M3.4 -14.0 L3.4 -17.0 M3.4 -14.0 L3.4 -7.5 M1.65 -20.1 L1.65 -17.0 1.65 -11.4 1.65 -5.35 1.65 0.75 -3.4 0.75 -6.55 0.75 -12.1 0.75 -20.35 0.75 M-20.35 -25.75 L-13.6 -25.75 -13.6 -23.25 1.65 -23.25 1.65 -20.1 M17.45 28.0 L25.4 28.0 M4.4 10.4 L3.55 10.4 3.55 11.35 3.55 13.9 3.55 25.25 -1.1 25.25 M-1.1 28.0 L9.8 28.0 M9.8 25.25 L9.8 13.9 9.8 10.4 7.3 10.4 7.3 13.9 7.3 25.25 6.05 25.25 6.05 13.9 6.05 10.4 4.4 10.4 M12.65 25.25 L9.8 25.25 M1.65 -17.0 L-12.1 -17.0 -12.1 0.75" fill="none" stroke="#000000" stroke-linecap="round" stroke-linejoin="round" stroke-width="1.0"/>
    <path d="M17.15 0.75 L20.15 0.75 M25.4 0.75 L25.4 -25.75 M3.4 0.75 L8.4 0.75 13.0 0.75 17.15 0.75 M-20.35 0.75 L-20.35 8.65 -17.2 8.65 -17.2 3.15 -8.15 3.15 -5.4 3.15 6.7 3.15 10.9 3.15 17.15 3.15 17.15 8.65 21.05 8.65 25.4 8.65 25.4 0.75 M1.65 -20.1 L3.4 -20.1 M17.45 20.8 L21.05 17.25 21.05 8.65 M17.15 8.65 L12.65 8.65 12.65 13.9 12.65 18.65 15.9 18.65 15.9 22.25 17.45 20.8 17.45 28.0 17.45 30.75 -1.1 30.75 -10.85 30.75 -20.35 25.5 -20.35 8.65 M25.4 28.0 L25.4 8.65 M-1.1 25.25 L-1.1 28.0 -1.1 30.75 M9.8 28.0 L9.8 25.25 M3.55 13.9 L1.25 13.9 -1.1 13.9 -1.1 22.15 -1.1 25.25 M7.3 13.9 L6.05 13.9 M12.65 13.9 L9.8 13.9 M12.65 18.65 L12.65 25.25 M-9.95 8.65 L-1.1 8.65 -1.1 13.9 M-9.95 8.65 L-11.85 8.65 -17.2 8.65 -17.2 10.4 -10.85 17.35 -6.45 22.15 -1.1 22.15 M-10.85 17.35 L-10.85 30.75 M-20.35 0.75 L-20.35 -25.75" fill="none" stroke="#000000" stroke-linecap="round" stroke-linejoin="round" stroke-width="1.0"/>
  </g>
  <defs>
    <linearGradient gradientTransform="matrix(-0.0134, 0.0, 0.0, -0.0162, -9.35, -12.5)" gradientUnits="userSpaceOnUse" id="gradient0" spreadMethod="pad" x1="-819.2" x2="819.2">
      <stop offset="0.0" stop-color="#888880"/>
      <stop offset="1.0" stop-color="#101010"/>
    </linearGradient>
    <linearGradient gradientTransform="matrix(0.0134, 0.0, 0.0, 0.0162, 14.4, -12.5)" gradientUnits="userSpaceOnUse" id="gradient1" spreadMethod="pad" x1="-819.2" x2="819.2">
      <stop offset="0.0" stop-color="#888880"/>
      <stop offset="1.0" stop-color="#101010"/>
    </linearGradient>
    <linearGradient gradientTransform="matrix(0.0279, 0.0, 0.0, 0.0175, 2.55, -5.75)" gradientUnits="userSpaceOnUse" id="gradient2" spreadMethod="pad" x1="-819.2" x2="819.2">
      <stop offset="0.0" stop-color="#283040"/>
      <stop offset="1.0" stop-color="#101010"/>
    </linearGradient>
  </defs>
</svg>
