<?xml version="1.0" encoding="UTF-8" standalone="no"?>
<svg xmlns:ffdec="https://www.free-decompiler.com/flash" xmlns:xlink="http://www.w3.org/1999/xlink" ffdec:objectType="shape" height="120.0px" width="120.0px" xmlns="http://www.w3.org/2000/svg">
  <g transform="matrix(1.0, 0.0, 0.0, 1.0, 60.0, -9.95)">
    <path d="M0.0 10.4 L0.0 12.25 0.0 14.05 -0.6 14.15 Q-4.55 14.8 -3.6 10.5 L0.0 10.4 M-12.0 126.85 L-15.6 126.85 -15.6 125.05 Q-16.25 121.8 -12.6 123.2 L-12.0 123.2 -12.0 126.85" fill="#424135" fill-rule="evenodd" stroke="none"/>
    <path d="M4.8 12.25 L0.0 12.25 0.0 10.4 4.8 12.25" fill="#3c3e3c" fill-rule="evenodd" stroke="none"/>
    <path d="M31.2 25.15 L32.4 25.15 Q36.9 30.0 36.6 30.0 31.15 30.4 31.2 25.15 M24.0 19.0 L20.4 23.9 20.4 25.15 18.0 25.15 13.45 20.45 13.2 20.2 24.0 19.0 M4.8 12.25 L6.0 15.3 4.8 15.3 0.0 14.05 0.0 14.7 Q0.1 15.7 -1.2 15.3 L-2.4 15.3 -4.8 15.3 -10.8 14.05 -11.4 14.05 Q-12.5 14.05 -12.0 15.3 L-27.6 17.15 Q-14.45 8.1 -4.25 10.4 L-3.6 10.5 Q-4.55 14.8 -0.6 14.15 L0.0 14.05 0.0 12.25 4.8 12.25 M6.0 26.95 L9.6 25.15 9.55 25.75 Q9.1 27.95 7.2 28.8 L6.0 26.95 M15.6 34.9 L14.4 31.85 18.0 30.0 19.2 33.7 18.6 33.7 Q17.7 33.6 18.0 34.9 L15.6 34.9 M16.8 39.85 L19.2 43.5 19.2 44.75 19.2 46.6 15.6 43.5 10.8 41.65 Q10.8 40.35 11.55 39.55 12.25 38.6 13.2 38.6 12.85 39.9 13.8 39.85 L14.4 39.85 16.8 39.85 M3.6 36.75 L3.6 34.9 6.0 34.9 Q6.15 38.1 9.0 38.5 L9.6 38.6 9.6 39.85 9.0 39.85 Q5.1 39.5 3.6 36.75 M20.4 64.35 L20.4 66.2 15.6 69.25 13.2 69.25 13.2 68.05 19.2 64.35 20.4 64.35 M36.0 74.15 L38.4 74.15 38.4 77.8 Q36.0 77.0 36.0 78.45 L36.0 79.05 Q33.1 76.9 32.5 80.35 L32.4 80.9 30.0 83.95 30.0 79.05 31.2 76.0 36.0 74.15 M39.6 88.9 L40.8 88.9 42.0 88.9 40.8 92.55 40.8 93.75 38.4 93.75 39.6 88.9 M33.6 100.5 L35.65 95.65 36.0 95.6 36.0 98.65 33.6 100.5 M20.4 118.3 L16.8 123.2 19.2 118.3 Q19.2 116.2 19.95 114.85 20.65 113.4 21.6 113.4 L20.4 118.3 M-37.2 20.2 L-36.0 20.2 -34.8 20.2 -37.2 25.15 -34.8 30.0 -34.8 31.85 -38.4 31.85 -38.4 30.0 -37.2 25.15 -37.2 20.2 M55.2 69.25 L56.4 69.25 57.6 71.1 57.6 72.95 55.2 77.8 55.2 69.25 M-25.2 17.2 Q-15.8 17.5 -17.3 18.85 -19.05 20.15 -21.45 20.2 L-21.6 20.2 -24.0 20.2 -26.4 20.2 -25.2 17.2 M-40.8 44.75 L-39.6 44.75 -39.6 48.4 -39.6 49.0 Q-39.5 50.0 -40.8 49.6 L-42.0 49.6 -42.0 48.4 -40.8 44.75 M-27.6 46.6 L-27.6 44.75 -25.2 44.75 -25.2 49.6 -26.4 49.6 -27.6 46.6 M-46.8 36.75 L-44.4 34.9 -43.2 38.6 -43.8 38.65 Q-47.0 39.4 -46.8 36.75 M-38.4 59.45 L-38.4 56.35 Q-35.3 55.65 -35.9 58.85 L-36.0 59.45 -37.2 59.45 -38.4 59.45 M-40.8 66.2 Q-38.15 65.95 -37.5 67.95 L-37.2 68.05 -37.2 69.25 -38.4 69.25 -39.6 69.25 -40.8 66.2 M-12.0 72.95 L-12.0 68.05 -9.6 68.05 -9.6 69.25 Q-11.9 69.4 -10.05 70.75 L-9.6 71.1 -9.5 71.7 Q-9.2 73.3 -10.8 72.95 L-12.0 72.95 M-18.0 95.6 L-18.0 98.65 -17.9 99.3 Q-17.6 100.9 -19.2 100.5 L-19.2 93.75 Q-17.6 93.35 -17.9 95.0 L-18.0 95.6 M-19.2 121.95 L-22.8 121.95 -21.6 115.25 -19.2 121.95 M-24.0 108.5 L-25.2 113.4 -26.4 113.4 -26.4 108.5 -26.4 107.25 -24.0 108.5 M-37.2 107.25 L-36.0 107.25 -34.8 113.4 -38.4 113.4 -38.4 108.5 Q-37.1 108.85 -37.2 107.85 L-37.2 107.25 M-44.4 102.35 L-45.0 102.35 Q-45.9 102.25 -45.6 103.6 L-49.2 103.6 -49.2 102.35 Q-46.8 99.1 -44.55 101.9 -44.4 102.0 -44.4 102.35" fill="#101010" fill-rule="evenodd" stroke="none"/>
    <path d="M0.0 14.05 L4.8 15.3 3.6 20.2 Q3.3 20.2 3.25 20.35 1.95 23.05 0.0 20.2 L-1.2 15.3 Q0.1 15.7 0.0 14.7 L0.0 14.05" fill="#4e462c" fill-rule="evenodd" stroke="none"/>
    <path d="M24.0 19.0 L13.2 20.2 13.45 20.45 7.2 19.0 6.0 15.3 4.8 12.25 24.0 19.0 M20.4 54.55 L19.2 58.2 18.6 58.15 Q16.75 57.65 15.6 56.35 L15.6 54.55 16.8 54.55 20.4 53.3 20.4 54.55 M16.8 87.65 Q18.4 88.0 18.1 86.4 L18.0 85.8 21.6 85.8 22.8 85.8 24.0 88.9 20.4 88.9 16.8 87.65" fill="#3c3e3a" fill-rule="evenodd" stroke="none"/>
    <path d="M6.0 15.3 L7.2 19.0 7.2 22.05 6.6 22.0 Q4.75 21.5 3.6 20.2 L4.8 15.3 6.0 15.3" fill="#30363d" fill-rule="evenodd" stroke="none"/>
    <path d="M26.4 19.0 L30.0 23.9 26.4 25.15 22.8 25.15 24.0 19.0 26.4 19.0" fill="#12150e" fill-rule="evenodd" stroke="none"/>
    <path d="M52.8 59.45 L44.4 34.9 42.45 34.3 39.6 31.85 Q40.5 31.85 40.0 31.6 L32.4 25.15 Q43.8 23.95 50.85 51.15 L52.8 59.45" fill="#2a3442" fill-rule="evenodd" stroke="none"/>
    <path d="M44.4 34.9 L44.5 35.5 44.55 36.0 Q44.5 37.1 43.2 36.75 L39.85 39.45 40.8 53.3 40.8 54.55 39.6 58.2 39.3 58.2 Q39.3 53.9 36.0 53.3 L34.8 44.75 31.2 44.75 Q31.2 44.4 31.35 44.35 33.6 42.55 31.2 41.65 L30.0 36.75 32.4 38.6 Q35.65 41.5 36.0 37.35 L36.0 36.75 Q37.6 37.1 37.3 35.5 L37.2 34.9 40.8 33.7 42.45 34.3 44.4 34.9" fill="#28303f" fill-rule="evenodd" stroke="none"/>
    <path d="M44.4 41.65 L43.2 36.75 Q44.5 37.1 44.55 36.0 L44.5 35.5 44.4 34.9 52.8 59.45 51.6 61.3 50.4 57.95 44.4 41.65 M31.2 41.65 Q33.6 42.55 31.35 44.35 31.2 44.4 31.2 44.75 L31.2 46.6 30.0 44.75 30.0 44.1 Q30.1 43.1 28.8 43.5 28.2 40.9 30.6 41.65 L31.2 41.65 M19.2 43.5 L20.4 39.85 Q20.4 40.15 20.55 40.3 23.4 44.05 19.2 44.75 L19.2 43.5 M38.4 69.25 L40.8 69.25 40.8 71.1 40.8 72.95 38.4 72.95 38.4 69.25 M6.0 88.9 L8.4 88.9 9.6 92.55 3.6 90.7 Q6.1 91.4 6.0 89.5 L6.0 88.9 M-7.2 90.7 L-7.2 92.55 -10.8 92.55 -9.6 88.9 -7.2 90.7 M42.0 80.9 L42.0 79.05 44.4 77.8 45.6 77.8 45.6 79.05 45.6 80.9 42.0 80.9 M28.8 76.0 L28.5 76.05 Q27.85 78.05 25.2 77.8 25.45 73.05 28.6 75.55 L28.8 76.0 M27.6 79.05 L30.0 79.05 30.0 83.95 28.8 83.95 27.6 83.95 27.6 79.05 M-9.6 126.85 L-12.0 126.85 -12.0 123.2 -12.0 121.95 -10.8 121.95 -9.6 126.85 M45.6 83.95 L46.25 85.8 45.6 85.8 45.6 83.95 M16.8 113.4 L16.75 114.0 Q15.6 121.05 14.4 115.25 L16.8 113.4 M0.0 103.6 L0.0 108.5 -1.2 108.5 -2.4 108.5 -3.6 108.5 -1.2 103.6 0.0 103.6 M-4.8 15.3 L-2.4 15.3 -3.6 20.2 -3.6 22.05 Q-5.7 21.5 -4.85 24.5 L-4.8 25.15 -6.0 25.15 -7.2 20.2 -7.2 19.0 -3.6 20.2 -6.0 15.3 -4.8 15.3 M-21.45 20.2 L-15.6 20.2 -16.8 26.95 -19.2 25.15 -21.6 23.9 -21.6 20.2 -21.45 20.2 M-28.8 36.75 L-26.4 36.75 -27.6 39.85 -30.0 39.85 -28.8 36.75 M-14.4 43.5 L-9.6 44.75 -9.6 45.35 Q-9.5 47.25 -12.0 46.6 L-13.2 46.6 -13.8 46.6 Q-17.4 45.05 -16.8 48.4 L-18.0 48.4 -16.8 43.5 Q-14.9 41.05 -14.45 42.9 L-14.4 43.5 M-55.2 54.55 L-54.0 54.55 -52.8 59.45 -55.2 61.3 -55.2 54.55 M-52.8 66.2 L-52.8 68.05 -54.0 71.1 Q-54.3 71.1 -54.5 70.9 -57.9 69.75 -52.8 66.2 M-42.0 79.05 L-40.8 79.05 Q-39.2 78.65 -39.5 80.3 L-39.6 80.9 Q-42.0 80.45 -40.95 83.45 -40.8 83.65 -40.8 83.95 L-43.2 83.95 -42.0 79.05 M-22.8 90.7 L-22.85 90.1 Q-23.25 88.5 -21.6 88.9 L-20.4 88.9 -19.2 92.55 -20.4 92.55 -21.6 92.55 -21.5 91.9 Q-21.2 90.3 -22.8 90.7 M-31.2 98.65 L-30.0 98.65 -31.2 105.4 -32.4 105.4 -31.2 98.65 M-15.6 93.75 L-15.6 97.45 -18.0 98.65 -18.0 95.6 -15.6 93.75 M-10.8 110.35 L-8.4 110.35 -8.4 113.4 -8.4 115.25 -8.45 115.85 Q-9.3 118.5 -9.6 115.25 L-10.8 110.35 M-22.8 108.5 Q-21.65 109.8 -19.8 110.25 L-19.2 110.35 -19.2 110.95 Q-19.1 112.85 -21.6 112.15 L-22.8 108.5" fill="#303840" fill-rule="evenodd" stroke="none"/>
    <path d="M43.2 36.75 L44.4 41.65 40.8 53.3 39.85 39.45 43.2 36.75" fill="#504829" fill-rule="evenodd" stroke="none"/>
    <path d="M42.45 34.3 L40.8 33.7 40.2 33.6 Q39.25 33.45 39.6 31.85 L42.45 34.3" fill="#4a4531" fill-rule="evenodd" stroke="none"/>
    <path d="M44.4 41.65 L50.4 57.95 49.65 56.2 50.4 58.0 46.8 59.45 51.6 61.3 Q51.9 61.25 52.0 61.45 57.6 68.8 46.8 66.2 L46.8 64.35 43.2 59.45 40.8 54.55 40.8 53.3 44.4 41.65" fill="#29313f" fill-rule="evenodd" stroke="none"/>
    <path d="M50.4 57.95 L51.6 61.3 46.8 59.45 50.4 58.0 49.65 56.2 50.4 57.95" fill="#373c3a" fill-rule="evenodd" stroke="none"/>
    <path d="M30.0 36.75 L31.2 41.65 30.6 41.65 Q28.2 40.9 28.8 43.5 L28.2 43.5 Q23.5 43.7 24.0 38.6 25.65 36.3 28.3 35.05 28.5 34.9 28.8 34.9 28.45 36.5 29.4 36.7 L30.0 36.75 M-4.8 41.65 L-4.8 41.05 Q-5.1 38.9 -1.2 39.85 L-1.2 41.65 Q-2.7 41.2 -2.45 42.9 L-2.4 43.5 -3.6 43.5 -3.5 42.9 Q-3.2 41.3 -4.8 41.65 M33.6 54.55 L34.8 54.55 34.8 59.45 33.6 54.55 M43.2 63.1 L43.2 59.45 46.8 64.35 44.4 64.35 44.4 63.7 Q44.5 62.7 43.2 63.1 M27.6 53.3 L28.8 53.3 Q28.45 54.6 29.4 54.55 L30.0 54.55 28.8 59.45 Q27.85 59.45 27.15 60.9 26.4 62.3 26.4 64.35 L25.2 64.35 25.2 59.45 27.6 53.3 M30.0 69.25 L30.0 64.35 31.2 64.35 33.6 71.1 Q32.1 70.65 32.35 72.3 L32.4 72.95 31.2 72.95 30.0 69.25 M20.4 69.25 Q24.55 70.25 20.55 73.7 20.4 73.8 20.4 74.15 L16.8 74.15 16.8 71.1 20.4 69.25 M15.6 74.15 L16.8 76.0 15.6 79.05 13.2 79.05 13.2 77.8 15.6 74.15 M-6.0 93.75 L-2.4 97.45 -7.2 97.45 -7.1 96.85 Q-6.8 95.2 -8.4 95.6 -9.2 92.8 -6.6 93.75 L-6.0 93.75 M28.8 97.45 L28.95 98.0 Q32.25 103.35 25.2 103.6 L27.6 97.45 28.8 97.45 M25.2 79.05 L27.6 79.05 27.6 83.95 25.2 83.95 25.2 79.05 M-31.2 118.3 L-36.0 117.1 -36.0 116.45 Q-36.3 114.45 -33.6 115.25 L-31.2 118.3 M-36.0 20.2 Q-37.05 16.45 -34.2 17.15 L-33.6 17.15 Q-32.0 16.75 -32.3 18.4 L-32.4 19.0 -32.9 18.75 Q-35.3 18.15 -34.8 20.2 L-36.0 20.2 M14.4 115.25 L14.35 114.6 Q13.95 112.6 10.8 113.4 L10.8 112.15 16.8 110.35 16.8 113.4 14.4 115.25 M10.8 118.3 Q13.65 119.65 12.4 121.8 L12.0 121.95 9.6 121.95 3.6 123.2 3.6 122.6 Q3.7 121.55 2.4 121.95 L2.4 118.3 10.8 118.3 M-2.4 102.35 L1.2 100.5 Q3.6 101.45 1.65 103.45 L1.2 103.6 0.0 103.6 -1.2 103.6 -2.4 103.6 -2.4 102.35 M-43.2 83.95 L-40.8 83.95 -42.0 87.65 -44.4 87.65 -43.2 83.95 M-14.4 88.9 L-12.0 88.9 -9.6 88.9 -10.8 92.55 -13.2 92.55 -15.6 88.9 -14.4 88.9 M-2.4 108.5 L-1.2 108.5 0.0 113.4 -0.5 113.3 Q-2.85 112.3 -2.4 108.5 M-21.6 115.25 L-24.0 117.1 -25.2 113.4 -21.6 113.4 -21.6 115.25 M-8.4 123.2 L-9.6 120.1 Q-7.8 117.65 -3.0 118.3 L-2.4 118.3 -1.2 121.95 -8.4 123.2 M-31.2 105.4 L-31.2 108.5 -32.4 112.15 -32.4 105.4 -31.2 105.4" fill="#504828" fill-rule="evenodd" stroke="none"/>
    <path d="M39.6 58.2 L40.8 54.55 43.2 59.45 43.2 63.1 40.8 63.1 39.6 58.2" fill="#141110" fill-rule="evenodd" stroke="none"/>
    <path d="M40.8 63.1 L43.2 63.1 Q44.5 62.7 44.4 63.7 L44.4 64.35 39.6 64.35 36.0 64.35 36.0 63.1 35.95 62.5 Q35.7 60.8 37.2 61.3 39.85 61.05 40.5 63.05 L40.8 63.1" fill="#49442c" fill-rule="evenodd" stroke="none"/>
    <path d="M18.0 25.15 L20.4 25.15 20.4 26.95 Q18.85 26.5 19.15 28.25 L19.2 28.8 19.2 29.4 Q19.3 30.4 18.0 30.0 L18.0 25.15 M18.0 34.9 L16.8 39.85 14.4 39.85 15.6 34.9 18.0 34.9 M10.8 44.75 L10.8 41.65 15.6 43.5 12.0 44.75 10.8 44.75 M37.2 61.3 L39.6 58.2 40.8 63.1 40.5 63.05 Q39.85 61.05 37.2 61.3 M19.2 58.2 Q20.5 57.8 20.4 58.85 L20.4 59.45 18.0 59.45 15.6 59.45 15.6 56.35 Q16.75 57.65 18.6 58.15 L19.2 58.2 M-2.4 58.2 L-1.2 58.2 -1.2 59.45 -1.2 61.3 -1.2 63.1 -3.6 63.1 -2.4 58.2 M9.6 92.55 L8.4 88.9 10.8 88.9 12.0 88.9 10.8 92.55 9.6 92.55 M54.0 82.75 L48.0 90.7 48.0 88.9 45.6 87.65 45.6 85.8 46.25 85.8 48.0 88.9 51.6 80.9 45.6 80.9 45.6 79.05 51.6 80.9 55.2 69.25 55.2 77.8 55.2 79.05 54.0 82.75 M-4.8 98.65 L-4.8 100.5 -4.7 101.15 Q-4.4 102.7 -6.0 102.35 L-6.0 101.75 Q-5.9 99.8 -8.4 100.5 L-8.7 100.5 Q-7.8 97.6 -10.8 97.45 L-10.8 95.6 -8.4 95.6 Q-6.8 95.2 -7.1 96.85 L-7.2 97.45 Q-7.4 99.2 -5.4 98.75 L-4.8 98.65 M1.2 103.6 L2.4 105.4 2.4 107.25 0.0 108.5 0.0 103.6 1.2 103.6 M0.0 113.4 L0.0 115.25 -4.8 115.25 -3.6 110.35 -3.6 108.5 -2.4 108.5 Q-2.85 112.3 -0.5 113.3 L0.0 113.4 M-10.8 14.05 L-4.8 15.3 -6.0 15.3 -8.4 15.3 -10.8 14.05 M-12.0 15.3 L-15.6 20.2 -21.45 20.2 Q-19.05 20.15 -17.3 18.85 -15.8 17.5 -25.2 17.2 L-25.2 17.15 -27.6 17.15 -12.0 15.3 M-36.0 34.9 L-38.4 33.7 -38.4 31.85 -34.8 31.85 -34.8 33.7 -34.8 34.9 -36.0 34.9 M-32.4 48.4 L-31.2 58.2 -32.4 58.2 -34.8 51.45 -32.4 48.4 M-12.0 46.6 Q-12.5 48.95 -10.2 48.5 L-9.6 48.4 -9.6 49.6 -10.8 49.6 Q-11.1 49.6 -11.15 49.75 -13.65 53.2 -13.2 46.6 L-12.0 46.6 M-44.4 58.2 L-45.6 54.55 -43.2 54.55 -40.8 64.35 -37.2 63.1 -37.2 59.45 -36.0 59.45 -34.8 64.35 -34.85 64.95 Q-35.3 67.2 -37.2 68.05 L-37.5 67.95 Q-38.15 65.95 -40.8 66.2 L-40.8 64.35 -41.15 64.15 Q-45.05 60.05 -44.4 64.35 L-46.8 64.35 -44.4 58.2 M-22.8 64.35 L-22.8 66.2 -26.4 66.2 -26.4 64.35 Q-23.3 65.05 -23.9 61.9 L-24.0 61.3 Q-22.1 61.2 -22.7 63.7 L-22.8 64.35 M-26.4 87.65 Q-24.8 88.0 -25.1 86.4 L-25.2 85.8 -24.0 85.8 Q-23.85 88.1 -21.65 88.55 L-21.6 88.9 Q-23.25 88.5 -22.85 90.1 L-22.8 90.7 -24.0 90.7 -26.4 87.65 M-8.4 110.35 Q-5.9 109.6 -6.0 111.55 L-6.0 112.15 -8.4 113.4 -8.4 110.35 M-22.8 108.5 L-21.6 112.15 -21.6 113.4 -25.2 113.4 -24.0 108.5 -22.8 108.5 M-10.8 115.25 L-9.6 115.25 Q-9.3 118.5 -8.45 115.85 L-8.4 115.25 -4.8 115.25 -2.4 118.3 -3.0 118.3 Q-7.8 117.65 -9.6 120.1 L-10.8 117.1 -10.8 115.25 M-43.2 105.4 Q-43.8 102.65 -41.4 103.6 L-40.8 103.6 Q-40.65 106.8 -37.8 107.2 L-37.2 107.25 -37.2 107.85 Q-37.1 108.85 -38.4 108.5 L-40.8 108.5 -40.8 107.85 Q-40.7 106.85 -42.0 107.25 L-41.9 106.65 Q-41.6 105.05 -43.2 105.4" fill="#283040" fill-rule="evenodd" stroke="none"/>
    <path d="M20.4 46.6 L22.8 46.6 Q22.8 48.65 23.85 50.1 24.9 51.45 26.4 51.45 L22.8 53.3 20.4 54.55 20.4 53.3 20.4 51.45 20.4 46.6 M40.8 69.25 L40.8 68.05 Q44.05 67.95 44.4 64.95 L44.4 64.35 46.8 64.35 46.8 66.2 48.9 70.9 Q48.4 71.55 46.8 71.1 L46.9 70.45 Q47.2 68.85 45.6 69.25 L40.8 71.1 40.8 69.25 M0.0 77.8 L1.2 77.8 Q0.85 79.1 1.8 79.05 L2.4 79.05 2.4 80.9 Q2.2 80.95 2.05 81.05 -2.0 82.95 0.0 77.8 M1.2 87.65 L2.4 90.7 2.4 92.55 1.8 92.5 Q-0.05 92.0 -1.2 90.7 L-1.8 90.8 Q-5.0 91.55 -4.8 88.9 L0.0 87.65 1.2 87.65 M0.0 97.45 L-0.05 96.85 Q-0.35 95.15 1.2 95.6 L6.0 95.6 6.0 97.45 6.0 98.65 3.6 98.65 0.0 97.45 M-45.6 113.4 Q-47.1 113.4 -48.15 112.55 -49.2 111.6 -49.2 110.35 L-49.2 107.25 -45.6 105.4 -46.8 108.5 -45.6 113.4 M3.6 123.2 L9.6 121.95 8.4 125.05 4.8 125.05 4.2 124.95 Q3.25 124.8 3.6 123.2 M-19.2 85.8 L-16.8 82.75 -16.8 88.9 -16.8 90.7 -17.1 90.65 Q-17.75 88.65 -20.4 88.9 L-19.2 85.8 M-31.2 95.6 Q-25.95 100.9 -25.2 94.4 L-25.2 93.75 -24.0 93.75 -24.0 98.65 -25.2 102.35 -30.0 98.65 -31.2 95.6 M-9.6 107.25 L-8.4 107.25 -8.4 110.35 -10.8 110.35 -13.2 108.5 -14.4 105.4 -9.6 107.25 M-44.4 108.5 L-42.0 107.25 Q-40.7 106.85 -40.8 107.85 L-40.8 108.5 -43.7 111.45 Q-44.35 110.6 -44.4 108.5" fill="#2b3340" fill-rule="evenodd" stroke="none"/>
    <path d="M4.8 25.15 Q1.5 25.25 3.55 20.75 L3.6 20.2 Q4.75 21.5 6.6 22.0 L7.2 22.05 4.8 25.15 M39.6 64.35 L44.4 64.35 44.4 64.95 Q44.05 67.95 40.8 68.05 L39.6 64.35 M-34.8 36.75 L-34.8 39.85 -37.2 41.65 -37.2 39.85 -36.0 34.9 -34.8 34.9 -34.8 36.75 M-38.4 51.45 L-38.4 54.55 -39.0 54.55 Q-41.6 54.75 -40.8 51.45 L-38.4 51.45 M-10.8 53.3 Q-7.1 53.05 -9.45 55.9 L-9.6 56.35 Q-13.4 56.35 -10.95 53.8 L-10.8 53.3" fill="#584c2c" fill-rule="evenodd" stroke="none"/>
    <path d="M36.0 64.35 L39.6 64.35 40.8 68.05 40.8 69.25 38.4 69.25 36.0 64.35" fill="#3b3c35" fill-rule="evenodd" stroke="none"/>
    <path d="M51.6 61.3 L52.8 59.45 Q54.3 59.45 55.35 60.9 56.4 62.3 56.4 64.35 L56.4 69.25 55.2 69.25 51.6 80.9 45.6 79.05 45.6 77.8 48.0 76.0 48.9 70.9 46.8 66.2 Q57.6 68.8 52.0 61.45 51.9 61.25 51.6 61.3" fill="#3f3f38" fill-rule="evenodd" stroke="none"/>
    <path d="M56.4 64.35 L57.6 64.35 57.6 71.1 56.4 69.25 56.4 64.35" fill="#635528" fill-rule="evenodd" stroke="none"/>
    <path d="M39.6 31.85 Q39.25 33.45 40.2 33.6 L40.8 33.7 37.2 34.9 36.85 34.75 Q30.6 29.4 32.4 34.9 L32.4 38.6 30.0 36.75 29.4 36.7 Q28.45 36.5 28.8 34.9 L28.8 33.7 29.1 33.6 Q30.9 27.85 26.4 25.15 L30.0 23.9 Q31.3 23.5 31.2 24.5 L31.2 25.15 Q31.15 30.4 36.6 30.0 36.9 30.0 32.4 25.15 L40.0 31.6 Q40.5 31.85 39.6 31.85 M12.0 34.9 L12.0 33.7 13.2 30.0 Q14.8 29.6 14.5 31.25 L14.4 31.85 15.6 34.9 13.2 36.75 13.3 36.15 Q13.6 34.55 12.0 34.9 M3.6 90.7 L9.6 92.55 8.4 95.6 8.4 97.45 6.0 97.45 6.0 95.6 5.95 95.0 Q5.55 93.0 2.4 93.75 L2.4 92.55 2.4 90.7 3.6 90.7" fill="#242a38" fill-rule="evenodd" stroke="none"/>
    <path d="M31.2 25.15 L31.2 24.5 Q31.3 23.5 30.0 23.9 L26.4 19.0 32.4 25.15 31.2 25.15 M-25.2 120.1 L-31.2 118.3 -33.6 115.25 -33.6 113.4 Q-32.3 113.75 -32.4 112.75 L-32.4 112.15 -31.2 108.5 Q-27.75 108.3 -26.7 105.5 L-26.4 105.4 -26.4 107.25 -26.4 108.5 Q-31.8 116.7 -26.75 113.55 L-26.4 113.4 -25.2 113.4 -24.0 117.1 -25.2 120.1" fill="#293240" fill-rule="evenodd" stroke="none"/>
    <path d="M26.4 25.15 Q30.9 27.85 29.1 33.6 L28.8 33.7 26.4 30.0 20.4 26.95 20.4 25.15 20.4 23.9 22.8 25.15 26.4 25.15" fill="#343a3d" fill-rule="evenodd" stroke="none"/>
    <path d="M20.4 23.9 L24.0 19.0 22.8 25.15 20.4 23.9" fill="#454437" fill-rule="evenodd" stroke="none"/>
    <path d="M7.2 22.05 Q14.55 21.9 9.75 24.7 9.6 24.8 9.6 25.15 L6.0 26.95 6.1 26.35 Q6.4 24.75 4.8 25.15 L7.2 22.05 M18.0 30.0 Q19.3 30.4 19.2 29.4 L19.2 28.8 21.6 28.8 20.4 31.85 20.5 32.5 Q20.8 34.05 19.2 33.7 L18.0 30.0 M0.0 44.75 Q-1.5 44.35 -1.25 45.95 L-1.2 46.6 -2.4 43.5 -2.45 42.9 Q-2.7 41.2 -1.2 41.65 L0.0 44.75 M26.4 46.6 L28.8 46.6 28.8 53.3 27.6 53.3 27.7 52.7 Q28.0 51.05 26.4 51.45 L26.4 46.6 M13.2 72.95 L13.2 71.1 13.2 69.25 15.6 69.25 16.8 71.1 16.8 74.15 15.6 74.15 13.2 72.95 M16.8 76.0 L19.2 77.8 Q20.5 77.45 20.4 78.45 L20.4 79.05 15.6 79.05 16.8 76.0 M2.4 87.65 L1.2 87.65 0.0 87.65 0.0 87.05 Q0.1 85.1 -2.4 85.8 L-2.4 83.95 2.4 85.8 2.4 87.65 M-2.4 97.45 L-1.2 97.45 -1.2 100.5 -1.5 100.45 Q-2.15 98.45 -4.8 98.65 L-5.4 98.75 Q-7.4 99.2 -7.2 97.45 L-2.4 97.45 M6.0 105.4 Q13.15 109.3 10.9 101.15 L10.8 100.5 13.2 100.5 12.0 108.5 10.8 108.5 7.2 108.5 6.0 105.4 M-4.8 100.5 L-2.4 102.35 -2.4 103.6 -4.8 107.25 -5.4 107.2 Q-7.25 106.7 -8.4 105.4 L-6.0 102.35 Q-4.4 102.7 -4.7 101.15 L-4.8 100.5 M-31.2 25.15 L-27.6 26.95 -32.4 30.0 -31.2 25.15 M-26.4 26.95 L-24.0 20.2 -21.6 20.2 -21.6 23.9 -25.2 26.95 -26.4 26.95 M-38.4 33.7 L-36.0 34.9 -37.2 39.85 Q-41.7 38.65 -39.65 44.2 L-39.6 44.75 -40.8 44.75 -40.8 41.65 -38.4 33.7 M-46.8 39.85 Q-44.7 42.75 -43.35 40.35 L-43.2 39.85 Q-41.6 39.45 -41.9 41.05 L-42.0 41.65 -42.0 48.4 -42.0 49.6 Q-43.5 49.6 -44.55 51.1 -45.6 52.45 -45.6 54.55 L-48.0 54.55 -46.8 48.4 -45.6 44.75 -46.8 39.85 M-43.2 76.0 L-44.4 80.9 -46.8 80.9 -46.8 79.05 -46.85 78.45 Q-48.0 75.35 -45.6 76.0 L-43.2 76.0 M-36.0 71.1 Q-36.95 71.1 -37.65 72.55 -38.3 73.85 -38.4 75.7 L-38.4 69.25 -37.2 69.25 Q-35.6 68.85 -35.9 70.45 L-36.0 71.1 M-28.8 83.95 L-26.4 83.95 -25.2 83.95 -25.2 85.8 -25.1 86.4 Q-24.8 88.0 -26.4 87.65 L-28.8 83.95 M-24.0 90.7 L-22.8 90.7 Q-21.2 90.3 -21.5 91.9 L-21.6 92.55 -27.6 90.7 -24.0 90.7 M-16.8 88.9 L-15.6 88.9 -13.2 92.55 -15.6 92.55 -16.8 90.7 -16.8 88.9" fill="#2e3640" fill-rule="evenodd" stroke="none"/>
    <path d="M8.4 31.85 L9.6 31.85 9.6 38.6 9.0 38.5 Q6.15 38.1 6.0 34.9 L8.4 31.85 M25.2 31.85 L20.4 31.85 21.6 28.8 25.2 30.0 25.2 31.85 M32.4 54.55 L33.6 54.55 34.8 59.45 34.8 63.1 31.2 64.35 30.0 64.35 30.0 61.3 32.4 54.55 M21.6 97.45 L21.6 95.6 Q22.15 91.9 23.85 95.05 L24.0 95.6 22.8 98.65 22.8 98.05 Q22.9 97.05 21.6 97.45 M32.4 80.9 L34.8 87.65 34.2 87.65 Q30.1 87.85 30.0 83.95 L32.4 80.9 M48.0 76.0 L45.6 77.8 44.4 77.8 43.8 77.75 Q42.85 77.6 43.2 76.0 45.7 76.7 45.6 74.8 L45.6 74.15 48.0 74.15 48.0 76.0 M-24.0 31.85 Q-21.5 32.55 -21.6 30.65 L-21.6 30.0 Q-21.95 28.55 -21.0 28.8 L-20.4 28.8 -16.8 31.85 -21.6 36.75 -21.6 38.6 -26.4 36.75 -28.8 36.75 -28.8 34.9 -24.0 31.85 M-54.0 48.4 L-54.0 46.6 Q-50.85 45.8 -50.45 47.8 L-50.4 48.4 -50.4 49.0 Q-50.3 50.0 -51.6 49.6 L-54.0 48.4 M-39.6 92.55 L-39.6 88.9 -37.2 88.9 Q-37.05 92.1 -34.2 92.5 L-33.6 92.55 -33.6 93.75 -39.6 92.55 M-38.4 79.05 L-37.2 83.95 -37.8 83.95 Q-40.4 84.2 -39.6 80.9 -38.0 81.25 -38.3 79.65 L-38.4 79.05" fill="#293140" fill-rule="evenodd" stroke="none"/>
    <path d="M28.8 33.7 L28.8 34.9 Q28.5 34.9 28.3 35.05 25.65 36.3 24.0 38.6 23.5 43.7 28.2 43.5 L28.8 43.5 Q30.1 43.1 30.0 44.1 L30.0 44.75 28.8 46.6 26.4 46.6 22.8 46.6 20.4 46.6 19.2 46.6 19.2 44.75 Q23.4 44.05 20.55 40.3 20.4 40.15 20.4 39.85 L20.4 34.9 Q25.3 36.2 25.2 32.5 L25.2 31.85 25.2 30.0 26.4 30.0 28.8 33.7" fill="#2e2b33" fill-rule="evenodd" stroke="none"/>
    <path d="M20.4 34.9 L19.8 34.9 Q18.85 35.0 19.2 33.7 20.8 34.05 20.5 32.5 L20.4 31.85 25.2 31.85 25.2 32.5 Q25.3 36.2 20.4 34.9 M-40.8 92.55 L-39.6 92.55 -38.4 95.6 -38.6 95.85 Q-43.05 97.45 -40.8 92.55 M-25.2 76.0 L-25.25 75.4 Q-25.5 73.75 -24.0 74.15 L-23.9 74.8 Q-21.95 81.35 -25.2 76.0" fill="#353a3b" fill-rule="evenodd" stroke="none"/>
    <path d="M19.2 28.8 L19.15 28.25 Q18.85 26.5 20.4 26.95 L26.4 30.0 25.2 30.0 21.6 28.8 19.2 28.8 M0.0 39.85 L7.2 41.65 3.6 43.5 -1.2 41.65 -1.2 39.85 0.0 39.85 M22.8 108.5 L27.6 112.15 22.8 117.0 22.8 110.35 22.8 108.5 M16.8 123.2 L16.8 123.8 Q16.6 128.15 9.6 129.95 11.7 129.25 11.7 128.05 11.7 127.05 10.35 128.95 L14.4 123.2 16.8 123.2 M-27.6 26.95 L-26.4 26.95 -26.4 30.0 -30.0 33.7 -31.2 33.7 -32.4 30.0 -27.6 26.95 M-9.6 36.75 L-9.6 38.6 -13.2 39.85 -14.4 39.85 -14.6 39.55 Q-16.55 37.05 -14.4 36.75 L-12.0 36.75 -9.6 36.75 M-37.2 87.65 L-34.8 88.9 -33.6 92.55 -34.2 92.5 Q-37.05 92.1 -37.2 88.9 L-37.2 87.65" fill="#554a2a" fill-rule="evenodd" stroke="none"/>
    <path d="M19.2 33.7 Q18.85 35.0 19.8 34.9 L20.4 34.9 20.4 39.85 19.2 43.5 16.8 39.85 18.0 34.9 Q17.7 33.6 18.6 33.7 L19.2 33.7 M-1.2 28.8 L-1.2 31.85 -2.4 31.85 -4.8 28.8 Q-3.2 29.15 -3.5 27.55 L-3.6 26.95 -2.4 26.95 -1.2 28.8 M0.0 48.4 L1.2 48.4 1.2 49.6 1.3 50.25 Q1.6 51.85 0.0 51.45 L-2.4 51.45 -2.4 49.6 0.0 48.4 M24.0 64.35 L22.8 54.55 Q25.2 55.45 25.2 58.85 L25.2 59.45 25.2 64.35 24.0 64.35 M-7.2 92.55 L-6.0 92.55 -6.0 93.75 -6.6 93.75 Q-9.2 92.8 -8.4 95.6 L-10.8 95.6 -13.2 92.55 -10.8 92.55 -7.2 92.55 M0.0 100.5 Q-0.9 97.2 3.0 98.65 L3.6 98.65 3.6 105.4 2.4 105.4 1.2 103.6 1.65 103.45 Q3.6 101.45 1.2 100.5 L0.0 100.5 M43.2 83.95 L45.6 83.95 45.6 85.8 45.6 87.65 43.2 87.65 43.2 85.8 43.2 83.95 M-12.0 15.3 Q-12.5 14.05 -11.4 14.05 L-10.8 14.05 -8.4 15.3 -7.2 19.0 -7.2 20.2 -10.8 17.15 -10.7 16.55 Q-10.4 14.9 -12.0 15.3 M-31.2 49.6 L-31.2 48.4 Q-28.55 48.65 -27.9 46.65 L-27.6 46.6 -26.4 49.6 -31.2 49.6 M-28.8 69.25 Q-27.5 69.65 -27.6 68.65 L-27.6 68.05 Q-23.4 68.7 -26.25 72.45 L-26.4 72.95 -26.4 74.15 -28.8 74.15 -28.8 69.25 M-21.6 71.1 Q-18.0 70.8 -19.1 75.4 L-19.2 76.0 -21.6 74.15 -21.6 71.1 M-33.6 83.95 L-32.4 83.95 -31.2 83.95 -31.2 88.9 -32.4 88.9 -33.6 83.95 M-13.2 82.75 L-13.2 83.95 -12.0 88.9 -14.4 88.9 -14.4 82.75 -13.2 82.75" fill="#2c3440" fill-rule="evenodd" stroke="none"/>
    <path d="M37.2 34.9 L37.3 35.5 Q37.6 37.1 36.0 36.75 L32.4 34.9 Q30.6 29.4 36.85 34.75 L37.2 34.9 M38.4 93.75 L40.8 93.75 40.8 97.45 36.0 98.65 36.0 95.6 38.4 93.75 M-27.6 61.3 L-26.4 61.3 -24.0 61.3 -23.9 61.9 Q-23.3 65.05 -26.4 64.35 L-27.6 61.3 M-32.4 112.15 L-32.4 112.75 Q-32.3 113.75 -33.6 113.4 L-32.4 105.4 -32.4 112.15" fill="#343a3c" fill-rule="evenodd" stroke="none"/>
    <path d="M36.0 36.75 L36.0 37.35 Q35.65 41.5 32.4 38.6 L32.4 34.9 36.0 36.75 M7.2 48.4 L10.8 48.4 Q13.15 49.4 13.2 52.7 L13.2 53.3 6.0 58.2 7.2 48.4 M2.4 53.3 L0.0 58.2 -1.2 58.2 0.0 53.3 2.4 53.3 M14.4 100.5 Q14.4 100.2 14.55 100.15 20.25 95.5 16.8 102.35 L16.8 103.6 16.3 103.5 Q14.55 102.8 14.4 100.5 M-26.4 36.75 L-21.6 38.6 -21.6 39.85 -25.2 39.85 -27.6 39.85 -26.4 36.75 M-52.8 68.05 L-48.0 69.25 -46.8 69.25 -44.4 72.95 -45.0 72.95 Q-45.9 72.85 -45.6 74.15 L-46.2 74.15 Q-50.25 72.85 -49.2 76.0 L-52.8 72.95 -52.7 72.3 Q-52.4 70.7 -54.0 71.1 L-52.8 68.05 M-54.0 83.95 Q-46.4 83.7 -49.05 88.3 L-49.2 88.9 -51.6 88.9 -54.0 83.95 M-38.4 75.7 Q-38.3 73.85 -37.65 72.55 -36.95 71.1 -36.0 71.1 L-37.2 76.0 -38.4 75.7 M-10.8 103.6 L-9.6 107.25 -14.4 105.4 Q-15.15 102.05 -11.3 103.45 L-10.8 103.6" fill="#534929" fill-rule="evenodd" stroke="none"/>
    <path d="M31.2 44.75 L34.8 44.75 33.6 54.55 32.4 54.55 32.4 53.3 31.2 46.6 31.2 44.75 M7.2 30.0 Q8.8 29.6 8.5 31.25 L8.4 31.85 6.0 34.9 3.6 34.9 3.6 34.3 Q3.7 33.3 2.4 33.7 L2.25 33.15 Q-0.3 26.55 7.2 30.0 M22.8 46.6 L26.4 46.6 26.4 51.45 Q24.9 51.45 23.85 50.1 22.8 48.65 22.8 46.6 M21.6 74.15 L24.0 72.95 31.2 72.95 32.4 72.95 33.6 72.95 31.2 76.0 28.8 76.0 28.6 75.55 Q25.45 73.05 25.2 77.8 L24.0 77.8 23.4 77.9 Q21.1 78.35 21.6 76.0 L21.6 74.15" fill="#514828" fill-rule="evenodd" stroke="none"/>
    <path d="M13.45 20.45 L18.0 25.15 Q9.6 21.65 10.75 28.15 L10.8 28.8 9.6 31.85 8.4 31.85 8.5 31.25 Q8.8 29.6 7.2 30.0 L7.2 28.8 Q9.1 27.95 9.55 25.75 L9.6 25.15 Q9.6 24.8 9.75 24.7 14.55 21.9 7.2 22.05 L7.2 19.0 13.45 20.45" fill="#262e3c" fill-rule="evenodd" stroke="none"/>
    <path d="M34.8 44.75 L36.0 53.3 36.0 53.95 Q36.1 54.9 34.8 54.55 L33.6 54.55 34.8 44.75 M10.8 28.8 L10.75 28.15 Q9.6 21.65 18.0 25.15 L18.0 30.0 14.4 31.85 14.5 31.25 Q14.8 29.6 13.2 30.0 L13.15 29.4 Q12.75 28.35 10.8 28.8 M40.8 72.95 L43.2 72.95 Q43.0 74.65 45.0 74.2 L45.6 74.15 45.6 74.8 Q45.7 76.7 43.2 76.0 L39.6 76.0 40.8 72.95" fill="#2f3740" fill-rule="evenodd" stroke="none"/>
    <path d="M9.6 31.85 L10.8 28.8 Q12.75 28.35 13.15 29.4 L13.2 30.0 12.0 33.7 9.6 31.85 M-31.2 39.85 L-30.0 39.85 -27.6 39.85 Q-31.5 46.25 -31.2 40.45 L-31.2 39.85" fill="#3a3d38" fill-rule="evenodd" stroke="none"/>
    <path d="M0.0 20.2 Q1.95 23.05 3.25 20.35 3.3 20.2 3.6 20.2 L3.55 20.75 Q1.5 25.25 4.8 25.15 6.4 24.75 6.1 26.35 L6.0 26.95 5.5 26.9 Q-0.35 24.25 -1.2 28.8 L-2.4 26.95 -1.2 23.9 0.0 20.2 M-57.6 80.9 L-57.6 79.05 -57.45 79.05 Q-55.4 72.7 -58.8 76.0 L-60.0 68.05 -60.0 63.1 -57.6 54.55 -55.2 54.55 -55.2 61.3 Q-56.0 64.6 -53.4 64.35 L-52.8 64.35 -52.8 66.2 Q-57.9 69.75 -54.5 70.9 -54.3 71.1 -54.0 71.1 -52.4 70.7 -52.7 72.3 L-52.8 72.95 Q-58.1 71.9 -53.0 77.3 L-52.8 77.8 Q-55.85 77.45 -54.05 82.2 L-54.0 82.75 -54.3 82.65 Q-54.95 80.65 -57.6 80.9" fill="#252b37" fill-rule="evenodd" stroke="none"/>
    <path d="M7.2 28.8 L7.2 30.0 Q-0.3 26.55 2.25 33.15 L2.4 33.7 2.25 34.25 Q1.6 35.05 0.0 33.7 L-1.2 31.85 -1.2 28.8 Q-0.35 24.25 5.5 26.9 L6.0 26.95 7.2 28.8" fill="#3b3031" fill-rule="evenodd" stroke="none"/>
    <path d="M0.0 33.7 Q1.6 35.05 2.25 34.25 L2.4 33.7 Q3.7 33.3 3.6 34.3 L3.6 34.9 3.6 36.75 0.0 38.6 -1.2 34.9 Q0.1 35.3 0.0 34.3 L0.0 33.7" fill="#494431" fill-rule="evenodd" stroke="none"/>
    <path d="M-1.2 31.85 L0.0 33.7 0.0 34.3 Q0.1 35.3 -1.2 34.9 L-7.2 38.6 -8.4 36.75 -7.2 36.75 -6.0 33.7 Q-3.35 33.9 -2.7 31.9 L-2.4 31.85 -1.2 31.85" fill="#252c38" fill-rule="evenodd" stroke="none"/>
    <path d="M0.0 38.6 L0.0 39.85 -1.2 39.85 Q-5.1 38.9 -4.8 41.05 L-4.8 41.65 -7.2 41.65 -7.2 38.6 -1.2 34.9 0.0 38.6" fill="#33383d" fill-rule="evenodd" stroke="none"/>
    <path d="M3.6 36.75 Q5.1 39.5 9.0 39.85 L9.6 39.85 10.8 41.65 10.8 44.75 8.4 44.75 8.5 44.1 Q9.1 41.55 7.2 41.65 L0.0 39.85 0.0 38.6 3.6 36.75 M28.8 46.6 L30.0 44.75 31.2 46.6 32.4 53.3 Q29.55 49.85 30.0 53.95 L30.0 54.55 29.4 54.55 Q28.45 54.6 28.8 53.3 L28.8 46.6" fill="#232933" fill-rule="evenodd" stroke="none"/>
    <path d="M0.0 44.75 L1.2 44.75 3.6 48.4 1.2 48.4 0.0 48.4 -1.2 46.6 -1.25 45.95 Q-1.5 44.35 0.0 44.75" fill="#4a4532" fill-rule="evenodd" stroke="none"/>
    <path d="M1.2 44.75 L0.0 44.75 -1.2 41.65 3.6 43.5 1.2 44.75 M-39.6 30.0 L-38.4 30.0 -38.4 31.85 -38.4 33.7 -40.8 41.65 -42.0 41.65 -41.9 41.05 Q-41.6 39.45 -43.2 39.85 L-43.2 38.6 -44.4 34.9 Q-43.1 35.3 -43.2 34.3 L-43.2 33.7 -39.6 30.0" fill="#242b39" fill-rule="evenodd" stroke="none"/>
    <path d="M7.2 41.65 Q9.1 41.55 8.5 44.1 L8.4 44.75 Q3.45 43.1 4.75 47.8 L4.8 48.4 3.6 48.4 1.2 44.75 3.6 43.5 7.2 41.65" fill="#2f353d" fill-rule="evenodd" stroke="none"/>
    <path d="M9.6 38.6 Q11.5 37.75 11.95 35.5 L12.0 34.9 Q13.6 34.55 13.3 36.15 L13.2 36.75 13.2 38.6 Q12.25 38.6 11.55 39.55 10.8 40.35 10.8 41.65 L9.6 39.85 9.6 38.6" fill="#313744" fill-rule="evenodd" stroke="none"/>
    <path d="M12.0 33.7 L12.0 34.9 11.95 35.5 Q11.5 37.75 9.6 38.6 L9.6 31.85 12.0 33.7 M-15.6 20.2 Q-10.55 19.65 -10.8 24.5 L-10.8 25.15 -11.1 25.15 Q-11.25 29.35 -15.6 28.8 L-16.8 26.95 -15.6 20.2 M-27.6 17.15 L-25.2 17.15 -25.2 17.2 -26.4 20.2 -30.0 19.0 Q-27.5 19.65 -27.6 17.75 L-27.6 17.15 M-40.8 41.65 L-40.8 44.75 -42.0 48.4 -42.0 41.65 -40.8 41.65 M-27.6 54.55 L-31.2 49.6 -26.4 49.6 -27.6 54.55 M-19.2 92.55 L-20.4 88.9 Q-17.75 88.65 -17.1 90.65 L-16.8 90.7 -15.6 92.55 -15.6 93.75 -18.0 95.6 -17.9 95.0 Q-17.6 93.35 -19.2 93.75 L-19.2 92.55" fill="#524929" fill-rule="evenodd" stroke="none"/>
    <path d="M13.2 36.75 L15.6 34.9 14.4 39.85 13.8 39.85 Q12.85 39.9 13.2 38.6 L13.2 36.75" fill="#261712" fill-rule="evenodd" stroke="none"/>
    <path d="M8.4 44.75 L10.8 44.75 12.0 44.75 Q18.4 45.0 15.75 49.1 15.6 49.3 15.6 49.6 L12.0 48.4 8.4 44.75 M-7.2 41.65 L-4.8 41.65 Q-3.2 41.3 -3.5 42.9 L-3.6 43.5 -7.2 44.75 -7.2 41.65 M15.6 93.75 L16.8 93.75 13.2 98.65 12.6 98.65 Q11.65 98.75 12.0 97.45 L11.95 96.9 Q10.8 92.2 15.6 93.75 M40.8 88.9 L40.8 85.8 43.2 85.8 43.2 87.65 43.2 88.9 42.0 88.9 40.8 88.9 M25.2 103.6 L25.15 104.2 Q24.7 106.4 22.8 107.25 L19.2 103.6 21.6 103.6 25.2 103.6 M-8.4 15.3 L-6.0 15.3 -3.6 20.2 -7.2 19.0 -8.4 15.3 M-45.6 54.55 Q-45.6 52.45 -44.55 51.1 -43.5 49.6 -42.0 49.6 L-40.8 49.6 -40.8 51.45 -43.2 54.55 -45.6 54.55 M-37.2 63.1 Q-41.15 62.7 -38.75 59.6 -38.7 59.4 -38.4 59.45 L-37.2 59.45 -37.2 63.1 M-40.8 79.05 L-42.0 79.05 -44.4 80.9 -43.2 76.0 -40.8 79.05 M-33.6 71.1 L-31.2 71.1 -32.4 76.0 -33.6 76.0 -33.6 71.1 M-14.4 82.75 L-14.4 88.9 -15.6 88.9 -16.8 88.9 -16.8 82.75 -14.4 82.75" fill="#544a2a" fill-rule="evenodd" stroke="none"/>
    <path d="M15.6 49.6 Q15.6 49.3 15.75 49.1 18.4 45.0 12.0 44.75 L15.6 43.5 19.2 46.6 19.15 47.2 Q18.85 49.85 15.6 49.6 M6.0 59.45 L6.0 58.2 13.2 53.3 13.2 58.2 8.4 59.45 6.0 59.45 M26.4 68.05 L30.0 64.35 30.0 69.25 27.6 69.25 26.4 69.25 26.4 68.05 M9.6 61.3 L12.0 61.3 10.8 66.2 9.6 69.25 9.0 69.25 Q8.05 69.35 8.4 68.05 L7.2 64.35 9.6 61.3 M6.0 74.15 L7.2 74.15 Q8.65 82.55 9.6 74.8 L9.6 74.15 10.8 77.8 10.8 82.75 10.2 82.75 Q9.15 82.7 9.6 83.95 L8.4 83.95 6.0 83.95 Q6.0 83.65 6.15 83.6 10.2 81.65 6.0 79.05 L6.0 74.15 M-32.4 33.7 L-32.3 34.3 Q-31.7 37.45 -34.8 36.75 L-34.8 34.9 -34.8 33.7 -32.4 33.7 M-50.4 79.05 L-50.4 80.9 -54.0 82.75 -54.05 82.2 Q-55.85 77.45 -52.8 77.8 L-50.4 79.05 M-20.4 59.45 Q-17.75 59.2 -17.1 61.2 L-16.8 61.3 -16.8 66.2 -19.2 64.35 -20.4 59.45" fill="#2d3540" fill-rule="evenodd" stroke="none"/>
    <path d="M15.6 49.6 Q18.85 49.85 19.15 47.2 L19.2 46.6 20.4 46.6 20.4 51.45 Q15.85 49.7 16.75 54.0 L16.8 54.55 15.6 54.55 15.6 51.45 15.6 49.6 M1.2 69.25 L2.4 69.25 2.4 71.1 2.4 72.95 0.0 74.15 -6.0 72.95 -6.05 72.3 Q-6.8 69.6 -7.2 72.95 L-9.6 71.1 -10.05 70.75 Q-11.9 69.4 -9.6 69.25 L-4.8 68.05 -2.4 69.25 Q-1.1 73.0 1.05 69.8 L1.2 69.25 M-16.8 103.6 L-14.4 105.4 -13.2 108.5 -15.6 108.5 -16.8 108.5 -16.8 103.6" fill="#151211" fill-rule="evenodd" stroke="none"/>
    <path d="M4.8 48.4 L4.75 47.8 Q3.45 43.1 8.4 44.75 L12.0 48.4 10.8 48.4 7.2 48.4 6.0 48.4 4.8 48.4" fill="#2b2228" fill-rule="evenodd" stroke="none"/>
    <path d="M12.0 48.4 L15.6 49.6 15.6 51.45 13.2 53.3 13.2 52.7 Q13.15 49.4 10.8 48.4 L12.0 48.4 M26.4 64.35 Q26.4 62.3 27.15 60.9 27.85 59.45 28.8 59.45 L28.8 60.05 Q29.25 63.85 26.4 64.35 M33.6 72.95 L36.0 74.15 31.2 76.0 33.6 72.95 M37.2 80.9 L42.0 80.9 45.6 80.9 45.6 81.5 Q45.7 83.4 43.2 82.75 L39.6 82.75 39.0 82.8 Q36.7 83.25 37.2 80.9 M40.8 92.55 L42.0 88.9 43.2 88.9 Q45.3 89.7 43.35 92.05 43.2 92.2 43.2 92.55 L40.8 92.55 M21.6 110.35 L22.8 110.35 22.8 117.0 21.6 113.4 Q20.65 113.4 19.95 114.85 19.2 116.2 19.2 118.3 L16.8 123.2 14.4 123.2 13.8 123.25 Q11.8 123.7 12.0 121.95 L12.4 121.8 Q13.65 119.65 10.8 118.3 15.0 115.9 9.85 113.7 L9.6 113.4 10.8 113.4 Q13.95 112.6 14.35 114.6 L14.4 115.25 Q15.6 121.05 16.75 114.0 L16.8 113.4 Q20.25 113.25 21.45 110.85 L21.6 110.35 M-4.8 25.15 L-4.85 24.5 Q-5.7 21.5 -3.6 22.05 -4.1 24.4 -1.8 23.95 L-1.2 23.9 -2.4 26.95 -3.6 26.95 -4.8 25.15 M-37.2 83.95 Q-34.8 84.85 -34.8 88.25 L-34.8 88.9 -32.4 88.9 -31.2 92.55 -33.6 92.55 -34.8 88.9 -37.2 87.65 -37.2 83.95 M-18.0 98.65 L-15.6 97.45 Q-15.8 99.2 -13.8 98.75 L-13.2 98.65 -13.2 100.5 Q-15.2 100.5 -16.55 101.45 -18.0 102.25 -18.0 103.6 L-20.4 102.35 -20.45 101.75 Q-20.7 100.05 -19.2 100.5 -17.6 100.9 -17.9 99.3 L-18.0 98.65 M-12.0 123.2 L-12.6 123.2 Q-16.25 121.8 -15.6 125.05 L-16.8 120.1 -12.0 121.95 -12.0 123.2" fill="#2a3240" fill-rule="evenodd" stroke="none"/>
    <path d="M15.6 54.55 L15.6 56.35 15.6 59.45 14.4 59.45 13.8 59.45 Q12.85 59.5 13.2 58.2 L13.2 53.3 15.6 51.45 15.6 54.55" fill="#491409" fill-rule="evenodd" stroke="none"/>
    <path d="M20.4 53.3 L16.8 54.55 16.75 54.0 Q15.85 49.7 20.4 51.45 L20.4 53.3" fill="#414033" fill-rule="evenodd" stroke="none"/>
    <path d="M6.0 48.4 L7.2 48.4 6.0 58.2 6.0 59.45 0.0 58.2 2.4 53.3 2.35 52.7 Q2.1 51.0 3.6 51.45 6.7 52.15 6.1 49.0 L6.0 48.4" fill="#2d343c" fill-rule="evenodd" stroke="none"/>
    <path d="M1.2 48.4 L3.6 48.4 4.8 48.4 6.0 48.4 6.1 49.0 Q6.7 52.15 3.6 51.45 L3.6 50.85 Q3.7 48.9 1.2 49.6 L1.2 48.4" fill="#262c35" fill-rule="evenodd" stroke="none"/>
    <path d="M3.6 51.45 Q2.1 51.0 2.35 52.7 L2.4 53.3 0.0 53.3 0.0 51.45 Q1.6 51.85 1.3 50.25 L1.2 49.6 Q3.7 48.9 3.6 50.85 L3.6 51.45" fill="#761a04" fill-rule="evenodd" stroke="none"/>
    <path d="M0.0 53.3 L-1.2 58.2 -2.4 58.2 -2.3 57.6 Q-2.0 56.0 -3.6 56.35 L-3.6 54.55 -2.4 51.45 0.0 51.45 0.0 53.3" fill="#181b21" fill-rule="evenodd" stroke="none"/>
    <path d="M0.0 58.2 L6.0 59.45 8.4 59.45 9.6 61.3 7.2 64.35 6.6 64.45 Q4.6 64.85 4.8 63.1 L4.65 62.6 Q3.3 59.5 -1.2 59.45 L-1.2 58.2 0.0 58.2" fill="#31140c" fill-rule="evenodd" stroke="none"/>
    <path d="M13.2 61.3 L12.0 61.3 9.6 61.3 8.4 59.45 13.2 58.2 Q12.85 59.5 13.8 59.45 L14.4 59.45 14.5 60.05 Q14.8 61.65 13.2 61.3" fill="#2f2f32" fill-rule="evenodd" stroke="none"/>
    <path d="M-1.2 59.45 Q3.3 59.5 4.65 62.6 L4.8 63.1 -1.2 61.3 -1.2 59.45" fill="#363940" fill-rule="evenodd" stroke="none"/>
    <path d="M4.8 63.1 Q4.6 64.85 6.6 64.45 L7.2 64.35 8.4 68.05 7.8 68.05 Q6.9 67.8 7.2 69.25 L2.4 69.25 1.2 69.25 0.6 69.25 Q-0.35 69.35 0.0 68.05 0.0 67.7 0.15 67.65 4.3 64.65 -1.2 63.1 L-1.2 61.3 4.8 63.1" fill="#1c110f" fill-rule="evenodd" stroke="none"/>
    <path d="M-1.2 63.1 Q4.3 64.65 0.15 67.65 0.0 67.7 0.0 68.05 L-2.4 68.05 -3.6 64.35 -3.6 63.1 -1.2 63.1" fill="#33333d" fill-rule="evenodd" stroke="none"/>
    <path d="M-2.4 68.05 L0.0 68.05 Q-0.35 69.35 0.6 69.25 L1.2 69.25 1.05 69.8 Q-1.1 73.0 -2.4 69.25 L-2.4 68.05" fill="#3c3e36" fill-rule="evenodd" stroke="none"/>
    <path d="M8.4 68.05 Q8.05 69.35 9.0 69.25 L9.6 69.25 Q9.4 71.95 12.6 71.2 L13.2 71.1 13.2 72.95 12.0 77.8 10.8 77.8 9.6 74.15 7.2 74.15 6.0 74.15 6.0 72.95 Q9.9 72.85 7.35 69.7 7.2 69.55 7.2 69.25 6.9 67.8 7.8 68.05 L8.4 68.05" fill="#24110e" fill-rule="evenodd" stroke="none"/>
    <path d="M7.2 69.25 Q7.2 69.55 7.35 69.7 9.9 72.85 6.0 72.95 L5.95 72.3 Q5.55 70.3 2.4 71.1 L2.4 69.25 7.2 69.25" fill="#413434" fill-rule="evenodd" stroke="none"/>
    <path d="M27.6 69.25 L30.0 69.25 31.2 72.95 24.0 72.95 27.6 69.25 M13.2 61.3 Q14.8 61.65 14.5 60.05 L14.4 59.45 15.6 59.45 18.0 59.45 19.2 63.1 13.2 61.3" fill="#63532d" fill-rule="evenodd" stroke="none"/>
    <path d="M20.4 59.45 L20.4 64.35 19.2 64.35 19.2 63.1 18.0 59.45 20.4 59.45" fill="#3a3c35" fill-rule="evenodd" stroke="none"/>
    <path d="M12.0 61.3 L13.2 61.3 19.2 63.1 19.2 64.35 13.2 68.05 13.2 67.4 Q13.3 65.45 10.8 66.2 L12.0 61.3" fill="#49402a" fill-rule="evenodd" stroke="none"/>
    <path d="M10.8 66.2 Q13.3 65.45 13.2 67.4 L13.2 68.05 13.2 69.25 13.2 71.1 12.6 71.2 Q9.4 71.95 9.6 69.25 L10.8 66.2" fill="#383027" fill-rule="evenodd" stroke="none"/>
    <path d="M36.0 53.3 Q39.3 53.9 39.3 58.2 L39.6 58.2 37.2 61.3 Q35.7 60.8 35.95 62.5 L36.0 63.1 34.8 63.1 34.8 59.45 34.8 54.55 Q36.1 54.9 36.0 53.95 L36.0 53.3 M0.0 118.3 L2.4 118.3 2.4 121.95 -4.8 125.05 -5.4 125.1 Q-8.6 125.85 -8.4 123.2 L-1.2 121.95 0.0 118.3 M-52.8 72.95 L-49.2 76.0 -49.2 77.8 -49.2 78.45 Q-49.1 79.45 -50.4 79.05 L-52.8 77.8 -53.0 77.3 Q-58.1 71.9 -52.8 72.95" fill="#31383e" fill-rule="evenodd" stroke="none"/>
    <path d="M32.4 53.3 L32.4 54.55 30.0 61.3 30.1 60.7 Q30.4 59.05 28.8 59.45 L30.0 54.55 30.0 53.95 Q29.55 49.85 32.4 53.3" fill="#2f2423" fill-rule="evenodd" stroke="none"/>
    <path d="M22.8 53.3 L22.8 54.55 24.0 64.35 Q22.5 63.95 22.75 65.55 L22.8 66.2 20.4 66.2 20.4 64.35 20.4 59.45 20.4 58.85 Q20.5 57.8 19.2 58.2 L20.4 54.55 22.8 53.3" fill="#1c120f" fill-rule="evenodd" stroke="none"/>
    <path d="M26.4 51.45 Q28.0 51.05 27.7 52.7 L27.6 53.3 25.2 59.45 25.2 58.85 Q25.2 55.45 22.8 54.55 L22.8 53.3 26.4 51.45" fill="#61512d" fill-rule="evenodd" stroke="none"/>
    <path d="M28.8 59.45 Q30.4 59.05 30.1 60.7 L30.0 61.3 30.0 64.35 26.4 68.05 26.4 64.35 Q29.25 63.85 28.8 60.05 L28.8 59.45" fill="#1e0f0e" fill-rule="evenodd" stroke="none"/>
    <path d="M22.8 66.2 L22.75 65.55 Q22.5 63.95 24.0 64.35 L25.2 64.35 26.4 64.35 26.4 68.05 26.1 67.95 Q25.45 65.95 22.8 66.2" fill="#961e00" fill-rule="evenodd" stroke="none"/>
    <path d="M20.4 66.2 L22.8 66.2 Q22.8 69.25 25.8 69.25 L26.4 69.25 27.6 69.25 24.0 72.95 21.6 74.15 20.4 74.15 Q20.4 73.8 20.55 73.7 24.55 70.25 20.4 69.25 L15.6 69.25 20.4 66.2" fill="#2e353f" fill-rule="evenodd" stroke="none"/>
    <path d="M22.8 66.2 Q25.45 65.95 26.1 67.95 L26.4 68.05 26.4 69.25 25.8 69.25 Q22.8 69.25 22.8 66.2" fill="#141619" fill-rule="evenodd" stroke="none"/>
    <path d="M36.0 63.1 L36.0 64.35 38.4 69.25 33.6 71.1 31.2 64.35 34.8 63.1 36.0 63.1" fill="#64532d" fill-rule="evenodd" stroke="none"/>
    <path d="M16.8 71.1 L15.6 69.25 20.4 69.25 16.8 71.1 M-1.2 121.95 L-2.4 118.3 0.0 118.3 -1.2 121.95" fill="#5c4e2e" fill-rule="evenodd" stroke="none"/>
    <path d="M38.4 74.15 L38.4 72.95 40.8 72.95 39.6 76.0 39.6 77.8 38.4 77.8 38.4 74.15 M-36.0 117.1 L-37.2 117.1 -38.4 113.4 -34.8 113.4 -33.6 113.4 -33.6 115.25 Q-36.3 114.45 -36.0 116.45 L-36.0 117.1" fill="#232936" fill-rule="evenodd" stroke="none"/>
    <path d="M33.6 72.95 L32.4 72.95 32.35 72.3 Q32.1 70.65 33.6 71.1 L38.4 69.25 38.4 72.95 38.4 74.15 36.0 74.15 33.6 72.95" fill="#49442d" fill-rule="evenodd" stroke="none"/>
    <path d="M36.0 79.05 Q35.65 80.65 36.6 80.8 L37.2 80.9 Q36.7 83.25 39.0 82.8 L39.6 82.75 39.6 83.95 Q38.05 83.6 38.35 85.2 L38.4 85.8 Q38.1 85.8 38.1 85.9 37.45 87.85 34.8 87.65 L32.4 80.9 32.5 80.35 Q33.1 76.9 36.0 79.05" fill="#51482b" fill-rule="evenodd" stroke="none"/>
    <path d="M36.0 79.05 L36.0 78.45 Q36.0 77.0 38.4 77.8 L39.6 77.8 Q39.4 79.55 41.4 79.15 L42.0 79.05 42.0 80.9 37.2 80.9 36.6 80.8 Q35.65 80.65 36.0 79.05" fill="#49442e" fill-rule="evenodd" stroke="none"/>
    <path d="M42.0 79.05 L41.4 79.15 Q39.4 79.55 39.6 77.8 L39.6 76.0 43.2 76.0 Q42.85 77.6 43.8 77.75 L44.4 77.8 42.0 79.05" fill="#471e15" fill-rule="evenodd" stroke="none"/>
    <path d="M20.4 74.15 L21.6 74.15 21.6 76.0 21.0 76.0 Q18.55 75.05 19.2 77.8 L16.8 76.0 15.6 74.15 16.8 74.15 20.4 74.15" fill="#262d38" fill-rule="evenodd" stroke="none"/>
    <path d="M22.8 85.8 L21.6 85.8 21.6 80.9 24.0 77.8 25.2 77.8 25.2 79.05 25.2 83.95 Q22.45 82.9 22.8 85.2 L22.8 85.8" fill="#685029" fill-rule="evenodd" stroke="none"/>
    <path d="M19.2 77.8 Q18.55 75.05 21.0 76.0 L21.6 76.0 Q21.1 78.35 23.4 77.9 L24.0 77.8 21.6 80.9 20.4 80.9 20.4 79.05 20.4 78.45 Q20.5 77.45 19.2 77.8" fill="#181a20" fill-rule="evenodd" stroke="none"/>
    <path d="M18.0 85.8 L20.4 80.9 21.6 80.9 21.6 85.8 18.0 85.8" fill="#4a4430" fill-rule="evenodd" stroke="none"/>
    <path d="M18.0 85.8 L18.1 86.4 Q18.4 88.0 16.8 87.65 L16.8 85.8 15.6 79.05 20.4 79.05 20.4 80.9 18.0 85.8" fill="#2f110b" fill-rule="evenodd" stroke="none"/>
    <path d="M25.2 77.8 Q27.85 78.05 28.5 76.05 L28.8 76.0 31.2 76.0 30.0 79.05 27.6 79.05 25.2 79.05 25.2 77.8" fill="#21252e" fill-rule="evenodd" stroke="none"/>
    <path d="M24.0 88.9 L22.8 85.8 22.8 85.2 Q22.45 82.9 25.2 83.95 L27.6 83.95 28.8 83.95 28.9 84.55 Q29.2 86.15 27.6 85.8 26.65 85.8 25.95 87.25 25.2 88.65 25.2 90.7 L24.0 88.9" fill="#2c3238" fill-rule="evenodd" stroke="none"/>
    <path d="M25.2 90.7 Q25.2 88.65 25.95 87.25 26.65 85.8 27.6 85.8 L26.4 90.7 25.2 90.7" fill="#4f1a0d" fill-rule="evenodd" stroke="none"/>
    <path d="M34.8 87.65 L28.8 95.6 28.65 95.2 Q26.5 94.0 26.4 90.7 L27.6 85.8 Q29.2 86.15 28.9 84.55 L28.8 83.95 30.0 83.95 Q30.1 87.85 34.2 87.65 L34.8 87.65" fill="#564829" fill-rule="evenodd" stroke="none"/>
    <path d="M20.4 88.9 L24.0 88.9 25.2 90.7 26.4 90.7 Q26.5 94.0 28.65 95.2 L28.8 95.6 28.8 97.45 27.6 97.45 27.6 96.85 Q27.7 94.9 25.2 95.6 L25.2 95.0 Q25.3 91.25 20.4 92.55 L20.4 88.9" fill="#2b323e" fill-rule="evenodd" stroke="none"/>
    <path d="M16.8 85.8 L16.8 87.65 20.4 88.9 20.4 92.55 20.4 93.15 Q20.5 94.15 19.2 93.75 L16.8 93.75 15.6 93.75 15.6 92.55 15.6 87.65 15.55 87.1 Q15.15 85.35 16.8 85.8" fill="#52402a" fill-rule="evenodd" stroke="none"/>
    <path d="M19.2 93.75 Q20.5 94.15 20.4 93.15 L20.4 92.55 Q25.3 91.25 25.2 95.0 L25.2 95.6 24.0 95.6 23.85 95.05 Q22.15 91.9 21.6 95.6 L21.0 95.7 Q18.7 96.15 19.2 93.75" fill="#121315" fill-rule="evenodd" stroke="none"/>
    <path d="M39.6 83.95 L39.6 82.75 43.2 82.75 43.2 83.95 43.2 85.8 40.8 85.8 40.9 85.2 Q41.2 83.6 39.6 83.95 M-25.2 39.85 L-21.6 39.85 Q-19.1 39.15 -19.2 41.05 L-19.2 41.65 -20.4 41.65 Q-24.2 40.5 -24.0 42.9 L-24.0 43.5 -25.2 39.85" fill="#353a3c" fill-rule="evenodd" stroke="none"/>
    <path d="M38.4 85.8 L38.35 85.2 Q38.05 83.6 39.6 83.95 41.2 83.6 40.9 85.2 L40.8 85.8 40.8 88.9 39.6 88.9 38.4 88.9 38.4 85.8" fill="#262d3a" fill-rule="evenodd" stroke="none"/>
    <path d="M34.8 87.65 Q37.45 87.85 38.1 85.9 38.1 85.8 38.4 85.8 L38.4 88.9 35.65 95.65 33.6 100.5 33.6 100.65 32.4 103.6 27.6 112.15 22.8 108.5 22.8 107.25 Q24.7 106.4 25.15 104.2 L25.2 103.6 Q32.25 103.35 28.95 98.0 L28.8 97.45 28.8 95.6 34.8 87.65" fill="#2f373f" fill-rule="evenodd" stroke="none"/>
    <path d="M38.4 88.9 L39.6 88.9 38.4 93.75 36.0 95.6 35.65 95.65 38.4 88.9 M32.4 103.6 L33.6 100.65 33.6 102.35 33.6 103.0 Q33.7 103.95 32.4 103.6 M-3.6 129.95 L-8.4 128.1 -8.4 127.5 Q-8.3 126.5 -9.6 126.85 L-10.8 121.95 -10.85 121.35 Q-11.1 119.65 -9.6 120.1 L-8.4 123.2 Q-8.6 125.85 -5.4 125.1 L-4.8 125.05 -3.6 129.95 M-36.0 105.4 L-31.2 98.65 -32.4 105.4 -33.6 113.4 -34.8 113.4 -36.0 107.25 -36.0 105.4" fill="#262e3d" fill-rule="evenodd" stroke="none"/>
    <path d="M10.8 77.8 L12.0 77.8 13.2 77.8 13.2 79.05 12.0 82.75 10.8 82.75 10.8 77.8" fill="#320d09" fill-rule="evenodd" stroke="none"/>
    <path d="M12.0 77.8 L13.2 72.95 15.6 74.15 13.2 77.8 12.0 77.8" fill="#42241f" fill-rule="evenodd" stroke="none"/>
    <path d="M13.2 79.05 L15.6 79.05 16.8 85.8 Q15.15 85.35 15.55 87.1 L15.6 87.65 12.0 88.9 10.8 88.9 10.9 88.45 Q16.15 86.25 12.0 82.75 L13.2 79.05" fill="#2d343e" fill-rule="evenodd" stroke="none"/>
    <path d="M7.2 74.15 L9.6 74.15 9.6 74.8 Q8.65 82.55 7.2 74.15 M8.4 125.05 L8.35 125.65 Q8.05 128.3 0.7 129.95 L4.8 125.05 8.4 125.05 M-7.2 25.15 L-10.8 17.15 -7.2 20.2 -6.0 25.15 -7.2 25.15 M-52.8 59.45 Q-51.2 59.05 -51.5 60.7 L-51.6 61.3 Q-54.0 60.55 -52.85 63.8 L-52.8 64.35 -53.4 64.35 Q-56.0 64.6 -55.2 61.3 L-52.8 59.45 M-48.0 82.75 L-46.8 80.9 -44.4 80.9 -45.6 83.95 -46.2 84.05 Q-48.2 84.5 -48.0 82.75 M-45.6 103.6 L-45.6 105.4 -49.2 107.25 -49.1 106.65 Q-48.8 105.05 -50.4 105.4 L-50.4 103.6 -49.2 103.6 -45.6 103.6" fill="#564b2b" fill-rule="evenodd" stroke="none"/>
    <path d="M6.0 72.95 L6.0 74.15 6.0 79.05 4.8 79.05 4.9 78.45 Q6.0 73.85 2.4 74.15 L2.4 72.95 2.4 71.1 Q5.55 70.3 5.95 72.3 L6.0 72.95" fill="#1d191a" fill-rule="evenodd" stroke="none"/>
    <path d="M0.0 74.15 L2.4 72.95 2.4 74.15 1.2 77.8 0.0 77.8 0.0 74.15" fill="#75301a" fill-rule="evenodd" stroke="none"/>
    <path d="M2.4 74.15 Q6.0 73.85 4.9 78.45 L4.8 79.05 2.4 79.05 1.8 79.05 Q0.85 79.1 1.2 77.8 L2.4 74.15" fill="#34383a" fill-rule="evenodd" stroke="none"/>
    <path d="M4.8 79.05 L6.0 79.05 Q10.2 81.65 6.15 83.6 6.0 83.65 6.0 83.95 L2.4 85.8 2.4 80.9 2.4 79.05 4.8 79.05" fill="#553c28" fill-rule="evenodd" stroke="none"/>
    <path d="M0.0 77.8 Q-2.0 82.95 2.05 81.05 2.2 80.95 2.4 80.9 L2.4 85.8 -2.4 83.95 -2.3 83.35 Q-1.7 80.2 -4.8 80.9 L-6.0 76.0 -4.8 76.0 Q-5.3 80.25 -0.5 77.95 L0.0 77.8 M-46.8 48.4 L-48.0 54.55 -48.6 54.6 Q-50.6 55.05 -50.4 53.3 L-46.8 48.4 M-48.0 69.25 L-46.8 64.35 -44.4 64.35 -45.6 69.25 -46.8 69.25 -48.0 69.25" fill="#1c1310" fill-rule="evenodd" stroke="none"/>
    <path d="M0.0 74.15 L0.0 77.8 -0.5 77.95 Q-5.3 80.25 -4.8 76.0 L-6.0 72.95 0.0 74.15" fill="#3f3934" fill-rule="evenodd" stroke="none"/>
    <path d="M2.4 85.8 L6.0 83.95 8.4 83.95 8.25 84.5 Q6.9 87.55 2.4 87.65 L2.4 85.8" fill="#441b0b" fill-rule="evenodd" stroke="none"/>
    <path d="M2.4 87.65 Q6.9 87.55 8.25 84.5 L8.4 83.95 9.6 83.95 8.4 88.9 6.0 88.9 2.4 87.65" fill="#292937" fill-rule="evenodd" stroke="none"/>
    <path d="M0.0 87.65 L-4.8 88.9 -6.0 92.55 -7.2 92.55 -7.2 90.7 -2.4 85.8 Q0.1 85.1 0.0 87.05 L0.0 87.65" fill="#64401f" fill-rule="evenodd" stroke="none"/>
    <path d="M6.0 88.9 L6.0 89.5 Q6.1 91.4 3.6 90.7 L2.4 90.7 1.2 87.65 2.4 87.65 6.0 88.9" fill="#604425" fill-rule="evenodd" stroke="none"/>
    <path d="M-1.2 90.7 Q-0.05 92.0 1.8 92.5 L2.4 92.55 2.4 93.75 Q0.75 93.35 1.15 95.05 L1.2 95.6 Q-0.35 95.15 -0.05 96.85 L0.0 97.45 -1.2 97.45 -2.4 97.45 -6.0 93.75 Q-1.1 95.05 -1.2 91.3 L-1.2 90.7" fill="#5f482e" fill-rule="evenodd" stroke="none"/>
    <path d="M10.8 82.75 L12.0 82.75 Q16.15 86.25 10.9 88.45 L10.8 88.9 8.4 88.9 9.6 83.95 Q9.15 82.7 10.2 82.75 L10.8 82.75" fill="#504228" fill-rule="evenodd" stroke="none"/>
    <path d="M10.8 92.55 L12.0 88.9 15.6 87.65 15.6 92.55 10.8 92.55 M-16.8 26.95 L-15.6 28.8 -15.6 30.0 -15.6 31.85 -16.8 31.85 -20.4 28.8 -19.2 25.15 -16.8 26.95" fill="#20110d" fill-rule="evenodd" stroke="none"/>
    <path d="M8.4 95.6 L9.6 92.55 10.8 92.55 15.6 92.55 15.6 93.75 Q10.8 92.2 11.95 96.9 L12.0 97.45 11.7 97.35 Q11.05 95.35 8.4 95.6" fill="#422621" fill-rule="evenodd" stroke="none"/>
    <path d="M16.8 93.75 L19.2 93.75 Q18.7 96.15 21.0 95.7 L21.6 95.6 21.6 97.45 18.0 102.35 16.8 102.35 Q20.25 95.5 14.55 100.15 14.4 100.2 14.4 100.5 L13.2 100.5 13.2 98.65 16.8 93.75" fill="#2b323c" fill-rule="evenodd" stroke="none"/>
    <path d="M8.4 98.65 L8.4 97.45 8.4 95.6 Q11.05 95.35 11.7 97.35 L12.0 97.45 Q11.65 98.75 12.6 98.65 L13.2 98.65 13.2 100.5 10.8 100.5 8.4 98.65" fill="#1a1d22" fill-rule="evenodd" stroke="none"/>
    <path d="M13.2 100.5 L14.4 100.5 Q14.55 102.8 16.3 103.5 L16.8 103.6 16.8 105.4 12.0 108.5 13.2 100.5" fill="#1b191b" fill-rule="evenodd" stroke="none"/>
    <path d="M6.0 103.6 L8.4 98.65 10.8 100.5 10.9 101.15 Q13.15 109.3 6.0 105.4 L4.8 105.4 4.75 104.8 Q4.45 103.2 6.0 103.6" fill="#5b4f2c" fill-rule="evenodd" stroke="none"/>
    <path d="M16.8 102.35 L18.0 102.35 Q17.65 103.65 18.6 103.6 L19.2 103.6 22.8 107.25 22.8 108.5 22.8 110.35 21.6 110.35 18.0 107.25 16.8 105.4 16.8 103.6 16.8 102.35 M-48.0 54.55 L-47.9 55.15 Q-47.6 56.75 -49.2 56.35 L-54.0 54.55 -55.2 54.55 -57.6 54.55 -57.6 53.3 -54.0 48.4 -51.6 49.6 -50.4 53.3 Q-50.6 55.05 -48.6 54.6 L-48.0 54.55" fill="#2e343d" fill-rule="evenodd" stroke="none"/>
    <path d="M18.0 102.35 L21.6 97.45 Q22.9 97.05 22.8 98.05 L22.8 98.65 21.6 103.6 19.2 103.6 18.6 103.6 Q17.65 103.65 18.0 102.35" fill="#1a191c" fill-rule="evenodd" stroke="none"/>
    <path d="M1.2 95.6 L1.15 95.05 Q0.75 93.35 2.4 93.75 5.55 93.0 5.95 95.0 L6.0 95.6 1.2 95.6" fill="#4c4630" fill-rule="evenodd" stroke="none"/>
    <path d="M6.0 97.45 L8.4 97.45 8.4 98.65 6.0 103.6 6.0 98.65 6.0 97.45" fill="#323844" fill-rule="evenodd" stroke="none"/>
    <path d="M-1.2 97.45 L0.0 97.45 3.6 98.65 3.0 98.65 Q-0.9 97.2 0.0 100.5 L-1.2 100.5 -1.2 97.45" fill="#1b0d0d" fill-rule="evenodd" stroke="none"/>
    <path d="M0.0 100.5 L1.2 100.5 -2.4 102.35 -4.8 100.5 -4.8 98.65 Q-2.15 98.45 -1.5 100.45 L-1.2 100.5 0.0 100.5" fill="#61522a" fill-rule="evenodd" stroke="none"/>
    <path d="M6.0 105.4 L7.2 108.5 8.4 113.4 6.0 113.4 6.0 112.75 Q5.7 108.55 2.4 107.25 L2.4 105.4 3.6 105.4 4.8 105.4 6.0 105.4" fill="#24262a" fill-rule="evenodd" stroke="none"/>
    <path d="M6.0 98.65 L6.0 103.6 Q4.45 103.2 4.75 104.8 L4.8 105.4 3.6 105.4 3.6 98.65 6.0 98.65" fill="#1f1d20" fill-rule="evenodd" stroke="none"/>
    <path d="M0.0 108.5 L2.4 107.25 Q5.7 108.55 6.0 112.75 L6.0 113.4 0.0 113.4 -1.2 108.5 0.0 108.5" fill="#634e28" fill-rule="evenodd" stroke="none"/>
    <path d="M0.0 115.25 L0.0 118.3 -2.4 118.3 -4.8 115.25 0.0 115.25" fill="#27140f" fill-rule="evenodd" stroke="none"/>
    <path d="M6.0 113.4 L2.4 118.3 0.0 118.3 0.0 115.25 0.0 113.4 6.0 113.4" fill="#2b333c" fill-rule="evenodd" stroke="none"/>
    <path d="M9.6 113.4 L9.85 113.7 Q15.0 115.9 10.8 118.3 L2.4 118.3 6.0 113.4 8.4 113.4 9.6 113.4" fill="#63522e" fill-rule="evenodd" stroke="none"/>
    <path d="M10.8 113.4 L9.6 113.4 8.4 113.4 7.2 108.5 10.8 108.5 10.8 112.15 10.8 113.4" fill="#20222a" fill-rule="evenodd" stroke="none"/>
    <path d="M21.6 110.35 L21.45 110.85 Q20.25 113.25 16.8 113.4 L16.8 110.35 18.0 107.25 21.6 110.35" fill="#383c3b" fill-rule="evenodd" stroke="none"/>
    <path d="M16.8 105.4 L18.0 107.25 16.8 110.35 10.8 112.15 10.8 108.5 12.0 108.5 16.8 105.4" fill="#5c4f31" fill-rule="evenodd" stroke="none"/>
    <path d="M33.6 100.65 L33.6 100.5 36.0 98.65 40.8 97.45 42.0 97.45 Q42.0 102.05 39.9 105.25 37.8 108.45 34.8 108.5 L34.8 107.25 35.2 107.1 Q39.7 100.65 34.8 102.35 L33.6 102.35 33.6 100.65" fill="#2c333f" fill-rule="evenodd" stroke="none"/>
    <path d="M27.6 112.15 L32.4 103.6 Q33.7 103.95 33.6 103.0 L33.6 102.35 34.8 102.35 34.8 107.25 34.8 108.5 34.5 108.55 Q33.55 113.75 27.6 112.15" fill="#1c2029" fill-rule="evenodd" stroke="none"/>
    <path d="M24.0 95.6 L25.2 95.6 Q27.7 94.9 27.6 96.85 L27.6 97.45 25.2 103.6 21.6 103.6 22.8 98.65 24.0 95.6" fill="#67562c" fill-rule="evenodd" stroke="none"/>
    <path d="M22.8 117.0 Q21.9 117.95 20.4 118.3 L21.6 113.4 22.8 117.0" fill="#4e4730" fill-rule="evenodd" stroke="none"/>
    <path d="M34.8 102.35 Q39.7 100.65 35.2 107.1 L34.8 107.25 34.8 102.35" fill="#383d34" fill-rule="evenodd" stroke="none"/>
    <path d="M60.0 72.95 L58.3 80.15 55.2 79.05 55.2 77.8 57.6 72.95 60.0 72.95" fill="#3e4037" fill-rule="evenodd" stroke="none"/>
    <path d="M57.6 64.35 L60.0 72.95 57.6 72.95 57.6 71.1 57.6 64.35" fill="#434134" fill-rule="evenodd" stroke="none"/>
    <path d="M58.3 80.15 Q58.7 82.8 54.0 82.75 L55.2 79.05 58.3 80.15" fill="#353c3c" fill-rule="evenodd" stroke="none"/>
    <path d="M45.6 69.25 Q47.2 68.85 46.9 70.45 L46.8 71.1 48.0 74.15 45.6 74.15 45.0 74.2 Q43.0 74.65 43.2 72.95 45.1 72.1 45.55 69.85 L45.6 69.25" fill="#65542c" fill-rule="evenodd" stroke="none"/>
    <path d="M48.9 70.9 L48.0 76.0 48.0 74.15 46.8 71.1 Q48.4 71.55 48.9 70.9" fill="#5a4f28" fill-rule="evenodd" stroke="none"/>
    <path d="M40.8 72.95 L40.8 71.1 45.6 69.25 45.55 69.85 Q45.1 72.1 43.2 72.95 L40.8 72.95" fill="#17191e" fill-rule="evenodd" stroke="none"/>
    <path d="M43.2 83.95 L43.2 82.75 Q45.7 83.4 45.6 81.5 L45.6 80.9 51.6 80.9 48.0 88.9 46.25 85.8 45.6 83.95 43.2 83.95" fill="#49442f" fill-rule="evenodd" stroke="none"/>
    <path d="M43.2 87.65 L45.6 87.65 48.0 88.9 48.0 90.7 43.2 92.55 Q43.2 92.2 43.35 92.05 45.3 89.7 43.2 88.9 L43.2 87.65" fill="#5a4e2b" fill-rule="evenodd" stroke="none"/>
    <path d="M40.8 93.75 L40.8 92.55 43.2 92.55 48.0 90.7 42.0 97.45 40.8 97.45 40.8 93.75" fill="#2b3436" fill-rule="evenodd" stroke="none"/>
    <path d="M9.6 129.95 L0.7 129.95 Q8.05 128.3 8.35 125.65 L8.4 125.05 9.6 121.95 12.0 121.95 Q11.8 123.7 13.8 123.25 L14.4 123.2 10.35 128.95 Q11.7 127.05 11.7 128.05 11.7 129.25 9.6 129.95" fill="#242a37" fill-rule="evenodd" stroke="none"/>
    <path d="M0.7 129.95 L-3.6 129.95 -4.8 125.05 2.4 121.95 Q3.7 121.55 3.6 122.6 L3.6 123.2 Q3.25 124.8 4.2 124.95 L4.8 125.05 0.7 129.95" fill="#232935" fill-rule="evenodd" stroke="none"/>
    <path d="M-33.6 17.15 L-33.45 16.6 Q-31.8 13.0 -27.6 17.15 L-27.6 17.75 Q-27.5 19.65 -30.0 19.0 L-32.4 19.0 -32.3 18.4 Q-32.0 16.75 -33.6 17.15" fill="#323b46" fill-rule="evenodd" stroke="none"/>
    <path d="M-32.4 19.0 L-30.0 19.0 -26.4 20.2 -24.0 20.2 -26.4 26.95 -27.6 26.95 -31.2 25.15 Q-34.05 24.35 -33.65 26.35 L-33.6 26.95 -34.8 30.0 -37.2 25.15 -34.8 20.2 Q-35.3 18.15 -32.9 18.75 L-32.4 19.0 M-20.4 41.65 L-19.2 41.65 Q-19.7 44.05 -17.4 43.6 L-16.8 43.5 -18.0 48.4 -18.6 48.4 Q-19.35 48.4 -19.2 49.6 L-21.6 49.6 -21.45 49.15 Q-17.45 45.7 -21.6 44.75 L-20.4 41.65" fill="#262d3c" fill-rule="evenodd" stroke="none"/>
    <path d="M-15.6 20.2 L-12.0 15.3 Q-10.4 14.9 -10.7 16.55 L-10.8 17.15 -7.2 25.15 -10.8 30.0 -10.8 25.15 -10.8 24.5 Q-10.55 19.65 -15.6 20.2" fill="#30373e" fill-rule="evenodd" stroke="none"/>
    <path d="M-1.2 15.3 L0.0 20.2 -1.2 23.9 -1.8 23.95 Q-4.1 24.4 -3.6 22.05 L-3.6 20.2 -2.4 15.3 -1.2 15.3" fill="#3d3e38" fill-rule="evenodd" stroke="none"/>
    <path d="M-10.8 30.0 L-7.2 25.15 -6.0 25.15 -4.8 25.15 -3.6 26.95 -3.5 27.55 Q-3.2 29.15 -4.8 28.8 -9.3 23.95 -6.15 33.15 L-6.0 33.7 -7.2 36.75 -7.25 36.15 Q-7.8 33.05 -12.0 33.7 L-12.05 33.1 Q-12.45 31.05 -15.6 31.85 L-15.6 30.0 -10.8 30.0" fill="#232025" fill-rule="evenodd" stroke="none"/>
    <path d="M-4.8 28.8 L-2.4 31.85 -2.7 31.9 Q-3.35 33.9 -6.0 33.7 L-6.15 33.15 Q-9.3 23.95 -4.8 28.8" fill="#3d3e36" fill-rule="evenodd" stroke="none"/>
    <path d="M-10.8 25.15 L-10.8 30.0 -15.6 30.0 -15.6 28.8 Q-11.25 29.35 -11.1 25.15 L-10.8 25.15" fill="#5d4e2e" fill-rule="evenodd" stroke="none"/>
    <path d="M-21.6 36.75 L-16.8 31.85 -15.6 31.85 Q-12.45 31.05 -12.05 33.1 L-12.0 33.7 -12.0 36.75 -14.4 36.75 -21.6 36.75" fill="#363a3c" fill-rule="evenodd" stroke="none"/>
    <path d="M-8.4 36.75 L-9.6 36.75 -12.0 36.75 -12.0 33.7 Q-7.8 33.05 -7.25 36.15 L-7.2 36.75 -8.4 36.75" fill="#2b303d" fill-rule="evenodd" stroke="none"/>
    <path d="M-21.6 38.6 L-21.6 36.75 -14.4 36.75 Q-16.55 37.05 -14.6 39.55 L-14.4 39.85 -19.2 41.65 -19.2 41.05 Q-19.1 39.15 -21.6 39.85 L-21.6 38.6" fill="#252c39" fill-rule="evenodd" stroke="none"/>
    <path d="M-12.0 41.65 L-14.4 43.5 -14.45 42.9 Q-14.9 41.05 -16.8 43.5 L-17.4 43.6 Q-19.7 44.05 -19.2 41.65 L-14.4 39.85 -13.2 39.85 Q-11.6 39.45 -11.9 41.05 L-12.0 41.65" fill="#301810" fill-rule="evenodd" stroke="none"/>
    <path d="M-9.6 38.6 L-9.5 39.2 Q-8.9 42.35 -12.0 41.65 L-11.9 41.05 Q-11.6 39.45 -13.2 39.85 L-9.6 38.6" fill="#3e322e" fill-rule="evenodd" stroke="none"/>
    <path d="M-7.2 38.6 L-7.2 41.65 -7.2 44.75 -9.6 44.75 -14.4 43.5 -12.0 41.65 Q-8.9 42.35 -9.5 39.2 L-9.6 38.6 -9.6 36.75 -8.4 36.75 -7.2 38.6" fill="#2d3441" fill-rule="evenodd" stroke="none"/>
    <path d="M-9.6 44.75 L-7.2 44.75 -7.1 45.35 Q-6.3 49.0 -9.6 48.4 L-10.2 48.5 Q-12.5 48.95 -12.0 46.6 -9.5 47.25 -9.6 45.35 L-9.6 44.75" fill="#30140d" fill-rule="evenodd" stroke="none"/>
    <path d="M-1.2 46.6 L0.0 48.4 -2.4 49.6 -3.6 43.5 -2.4 43.5 -1.2 46.6" fill="#191616" fill-rule="evenodd" stroke="none"/>
    <path d="M-9.6 48.4 Q-6.3 49.0 -7.1 45.35 L-7.2 44.75 -3.6 43.5 -2.4 49.6 Q-6.05 48.55 -4.85 52.7 L-4.8 53.3 -7.2 53.3 -9.6 49.6 -9.6 48.4" fill="#333439" fill-rule="evenodd" stroke="none"/>
    <path d="M-21.6 30.0 L-21.6 30.65 Q-21.5 32.55 -24.0 31.85 L-24.6 31.9 Q-26.9 32.35 -26.4 30.0 L-26.4 26.95 -25.2 26.95 Q-25.2 30.0 -22.2 30.0 L-21.6 30.0" fill="#212630" fill-rule="evenodd" stroke="none"/>
    <path d="M-26.4 30.0 Q-26.9 32.35 -24.6 31.9 L-24.0 31.85 -28.8 34.9 -30.0 34.9 -30.0 33.7 -26.4 30.0" fill="#261610" fill-rule="evenodd" stroke="none"/>
    <path d="M-21.6 23.9 L-19.2 25.15 -20.4 28.8 -21.0 28.8 Q-21.95 28.55 -21.6 30.0 L-22.2 30.0 Q-25.2 30.0 -25.2 26.95 L-21.6 23.9 M-33.6 92.55 L-31.2 92.55 -25.2 93.75 -25.2 94.4 Q-25.95 100.9 -31.2 95.6 L-32.4 95.6 -32.3 95.0 Q-32.0 93.35 -33.6 93.75 L-33.6 92.55" fill="#50482c" fill-rule="evenodd" stroke="none"/>
    <path d="M-39.6 26.95 L-37.2 20.2 -37.2 25.15 -38.4 30.0 -39.6 30.0 -39.6 26.95" fill="#44412c" fill-rule="evenodd" stroke="none"/>
    <path d="M-44.4 31.85 L-39.6 26.95 -39.6 30.0 -43.2 33.7 -43.1 33.1 Q-42.8 31.45 -44.4 31.85" fill="#3f4440" fill-rule="evenodd" stroke="none"/>
    <path d="M-34.8 30.0 L-33.6 26.95 -32.4 30.0 -31.2 33.7 -32.4 33.7 -34.8 33.7 -34.8 31.85 -34.8 30.0" fill="#33393c" fill-rule="evenodd" stroke="none"/>
    <path d="M-33.6 26.95 L-33.65 26.35 Q-34.05 24.35 -31.2 25.15 L-32.4 30.0 -33.6 26.95" fill="#47432e" fill-rule="evenodd" stroke="none"/>
    <path d="M-30.0 33.7 L-30.0 34.9 -31.2 39.85 -34.8 39.85 -34.8 36.75 Q-31.7 37.45 -32.3 34.3 L-32.4 33.7 -31.2 33.7 -30.0 33.7" fill="#151110" fill-rule="evenodd" stroke="none"/>
    <path d="M-39.6 44.75 L-39.65 44.2 Q-41.7 38.65 -37.2 39.85 L-37.2 41.65 -38.4 46.6 -38.3 47.2 Q-38.0 48.8 -39.6 48.4 L-39.6 44.75" fill="#6a3b19" fill-rule="evenodd" stroke="none"/>
    <path d="M-34.8 39.85 L-31.2 39.85 -31.2 40.45 Q-31.5 46.25 -27.6 39.85 L-25.2 39.85 -24.0 43.5 -24.0 44.75 -25.2 44.75 -27.6 44.75 -30.0 44.75 -34.8 46.6 Q-34.8 46.25 -34.95 46.0 -36.3 43.65 -38.4 46.6 L-37.2 41.65 -34.8 39.85" fill="#242a34" fill-rule="evenodd" stroke="none"/>
    <path d="M-28.8 34.9 L-28.8 36.75 -30.0 39.85 -31.2 39.85 -30.0 34.9 -28.8 34.9" fill="#222935" fill-rule="evenodd" stroke="none"/>
    <path d="M-31.2 48.4 L-30.0 44.75 -27.6 44.75 -27.6 46.6 -27.9 46.65 Q-28.55 48.65 -31.2 48.4" fill="#482014" fill-rule="evenodd" stroke="none"/>
    <path d="M-25.2 44.75 L-24.0 44.75 -21.6 44.75 Q-17.45 45.7 -21.45 49.15 L-21.6 49.6 Q-23.25 49.25 -22.85 50.85 L-22.8 51.45 -23.4 51.55 Q-25.7 52.0 -25.2 49.6 L-25.2 44.75" fill="#32373c" fill-rule="evenodd" stroke="none"/>
    <path d="M-24.0 43.5 L-24.0 42.9 Q-24.2 40.5 -20.4 41.65 L-21.6 44.75 -24.0 44.75 -24.0 43.5" fill="#514731" fill-rule="evenodd" stroke="none"/>
    <path d="M-22.8 51.45 L-22.85 50.85 Q-23.25 49.25 -21.6 49.6 L-19.2 49.6 -19.2 51.45 Q-19.5 51.45 -19.55 51.65 -20.85 54.3 -22.8 51.45" fill="#201410" fill-rule="evenodd" stroke="none"/>
    <path d="M-27.6 58.2 L-27.6 54.55 -26.4 49.6 -25.2 49.6 Q-25.7 52.0 -23.4 51.55 L-22.8 51.45 -22.8 54.55 -23.4 54.45 Q-25.2 53.85 -27.6 58.2" fill="#271b1d" fill-rule="evenodd" stroke="none"/>
    <path d="M-19.2 51.45 L-18.0 54.55 -20.4 54.55 -22.8 54.55 -22.8 51.45 Q-20.85 54.3 -19.55 51.65 -19.5 51.45 -19.2 51.45" fill="#2e3545" fill-rule="evenodd" stroke="none"/>
    <path d="M-22.8 54.55 L-20.4 54.55 -20.4 58.2 -20.4 59.45 -26.4 61.3 -27.6 61.3 -28.8 61.3 -27.6 58.2 Q-25.2 53.85 -23.4 54.45 L-22.8 54.55" fill="#30363f" fill-rule="evenodd" stroke="none"/>
    <path d="M-32.4 48.4 L-31.2 48.4 -31.2 49.6 -27.6 54.55 -27.6 58.2 Q-30.3 54.6 -30.0 58.85 L-30.0 59.45 -30.6 59.45 Q-31.55 59.5 -31.2 58.2 L-32.4 48.4" fill="#2f3641" fill-rule="evenodd" stroke="none"/>
    <path d="M-31.2 48.4 L-32.4 48.4 -34.8 51.45 -38.4 54.55 -38.4 51.45 -34.8 46.6 -30.0 44.75 -31.2 48.4" fill="#181210" fill-rule="evenodd" stroke="none"/>
    <path d="M-40.8 49.6 Q-39.5 50.0 -39.6 49.0 L-39.6 48.4 Q-38.0 48.8 -38.3 47.2 L-38.4 46.6 Q-36.3 43.65 -34.95 46.0 -34.8 46.25 -34.8 46.6 L-38.4 51.45 -40.8 51.45 -40.8 49.6" fill="#353839" fill-rule="evenodd" stroke="none"/>
    <path d="M-38.4 54.55 L-34.8 51.45 -32.4 58.2 -33.6 61.3 Q-35.7 60.55 -34.85 63.7 L-34.8 64.35 -36.0 59.45 -35.9 58.85 Q-35.3 55.65 -38.4 56.35 L-38.4 54.55" fill="#383a38" fill-rule="evenodd" stroke="none"/>
    <path d="M-43.2 54.55 L-40.8 51.45 Q-41.6 54.75 -39.0 54.55 L-38.4 54.55 -38.4 56.35 -38.4 59.45 Q-38.7 59.4 -38.75 59.6 -41.15 62.7 -37.2 63.1 L-40.8 64.35 -43.2 54.55" fill="#30373d" fill-rule="evenodd" stroke="none"/>
    <path d="M-31.2 58.2 Q-31.55 59.5 -30.6 59.45 L-30.0 59.45 -30.0 61.3 -31.2 64.35 -31.7 64.3 Q-33.45 63.6 -33.6 61.3 L-32.4 58.2 -31.2 58.2" fill="#211817" fill-rule="evenodd" stroke="none"/>
    <path d="M-45.6 74.15 Q-45.9 72.85 -45.0 72.95 L-44.4 72.95 -43.2 69.25 -39.6 69.25 -38.4 69.25 -38.4 75.7 -37.2 76.0 -38.4 79.05 -38.3 79.65 Q-38.0 81.25 -39.6 80.9 L-39.5 80.3 Q-39.2 78.65 -40.8 79.05 L-43.2 76.0 -45.6 76.0 -45.6 74.15" fill="#202631" fill-rule="evenodd" stroke="none"/>
    <path d="M-37.2 68.05 Q-35.3 67.2 -34.85 64.95 L-34.8 64.35 -34.85 63.7 Q-35.7 60.55 -33.6 61.3 -33.45 63.6 -31.7 64.3 L-31.2 64.35 -34.8 71.1 -36.0 71.1 -35.9 70.45 Q-35.6 68.85 -37.2 69.25 L-37.2 68.05" fill="#3e3e37" fill-rule="evenodd" stroke="none"/>
    <path d="M-18.0 54.55 L-16.8 54.55 Q-13.2 54.2 -14.3 58.85 L-14.4 59.45 -15.0 59.45 Q-15.8 59.65 -15.6 61.3 L-16.8 61.3 -17.1 61.2 Q-17.75 59.2 -20.4 59.45 L-20.4 58.2 Q-13.1 58.6 -17.85 54.9 L-18.0 54.55" fill="#36160d" fill-rule="evenodd" stroke="none"/>
    <path d="M-30.0 59.45 L-30.0 58.85 Q-30.3 54.6 -27.6 58.2 L-28.8 61.3 -30.0 61.3 -30.0 59.45" fill="#703014" fill-rule="evenodd" stroke="none"/>
    <path d="M-28.8 61.3 L-27.6 61.3 -26.4 64.35 -26.4 66.2 -27.0 66.2 Q-28.1 66.5 -27.6 68.05 L-27.6 68.65 Q-27.5 69.65 -28.8 69.25 L-30.0 69.25 -28.8 61.3" fill="#1e100e" fill-rule="evenodd" stroke="none"/>
    <path d="M-30.0 61.3 L-28.8 61.3 -30.0 69.25 Q-31.5 68.85 -31.25 70.45 L-31.2 71.1 -33.6 71.1 -34.8 71.1 -31.2 64.35 -30.0 61.3" fill="#282f3b" fill-rule="evenodd" stroke="none"/>
    <path d="M-22.8 66.2 L-21.6 69.25 -26.4 72.95 -26.25 72.45 Q-23.4 68.7 -27.6 68.05 -28.1 66.5 -27.0 66.2 L-26.4 66.2 -22.8 66.2" fill="#35150b" fill-rule="evenodd" stroke="none"/>
    <path d="M-30.0 69.25 L-28.8 69.25 -28.8 74.15 Q-29.25 77.95 -26.9 79.0 L-26.4 79.05 -26.4 83.95 -28.8 83.95 -29.4 83.95 Q-30.35 84.05 -30.0 82.75 L-30.0 77.8 -31.2 71.1 -31.25 70.45 Q-31.5 68.85 -30.0 69.25" fill="#383333" fill-rule="evenodd" stroke="none"/>
    <path d="M-19.2 64.35 L-19.2 66.2 -19.5 66.1 Q-20.15 64.1 -22.8 64.35 L-22.7 63.7 Q-22.1 61.2 -24.0 61.3 L-26.4 61.3 -20.4 59.45 -19.2 64.35" fill="#25130f" fill-rule="evenodd" stroke="none"/>
    <path d="M-46.8 36.75 Q-46.8 34.7 -46.05 33.3 -45.35 31.85 -44.4 31.85 -42.8 31.45 -43.1 33.1 L-43.2 33.7 -43.2 34.3 Q-43.1 35.3 -44.4 34.9 L-46.8 36.75 M-19.2 66.2 L-18.0 69.25 -21.6 69.25 -22.8 66.2 -22.8 64.35 Q-20.15 64.1 -19.5 66.1 L-19.2 66.2" fill="#30353c" fill-rule="evenodd" stroke="none"/>
    <path d="M-20.4 54.55 L-18.0 54.55 -17.85 54.9 Q-13.1 58.6 -20.4 58.2 L-20.4 54.55" fill="#3a3a35" fill-rule="evenodd" stroke="none"/>
    <path d="M-7.2 53.3 L-7.2 56.35 -9.6 56.35 -9.45 55.9 Q-7.1 53.05 -10.8 53.3 L-10.8 49.6 -9.6 49.6 -7.2 53.3" fill="#24252b" fill-rule="evenodd" stroke="none"/>
    <path d="M-9.6 56.35 L-7.2 56.35 -7.1 57.0 Q-6.5 60.15 -9.6 59.45 L-9.6 58.2 -9.6 56.35" fill="#1f1c20" fill-rule="evenodd" stroke="none"/>
    <path d="M-3.6 56.35 Q-2.0 56.0 -2.3 57.6 L-2.4 58.2 -3.6 63.1 -3.6 64.35 -4.8 68.05 -7.2 64.35 -7.2 63.7 Q-7.1 62.7 -8.4 63.1 L-9.6 59.45 Q-6.5 60.15 -7.1 57.0 L-7.2 56.35 Q-5.1 59.3 -3.75 56.95 L-3.6 56.35" fill="#3a3c3a" fill-rule="evenodd" stroke="none"/>
    <path d="M-3.6 54.55 L-3.6 56.35 -3.75 56.95 Q-5.1 59.3 -7.2 56.35 L-7.2 53.3 -4.8 53.3 Q-5.15 54.6 -4.2 54.55 L-3.6 54.55" fill="#221813" fill-rule="evenodd" stroke="none"/>
    <path d="M-2.4 51.45 L-3.6 54.55 -4.2 54.55 Q-5.15 54.6 -4.8 53.3 L-4.85 52.7 Q-6.05 48.55 -2.4 49.6 L-2.4 51.45 M-54.0 54.55 L-49.2 56.35 -49.2 58.2 -49.8 58.2 Q-50.85 58.05 -50.4 59.45 L-50.3 60.05 Q-50.0 61.65 -51.6 61.3 L-51.5 60.7 Q-51.2 59.05 -52.8 59.45 L-54.0 54.55" fill="#4f472c" fill-rule="evenodd" stroke="none"/>
    <path d="M-16.8 53.3 L-16.8 48.4 Q-17.4 45.05 -13.8 46.6 L-13.2 46.6 Q-13.65 53.2 -11.15 49.75 -11.1 49.6 -10.8 49.6 L-10.8 53.3 -16.8 53.3" fill="#463d2d" fill-rule="evenodd" stroke="none"/>
    <path d="M-19.2 49.6 Q-19.35 48.4 -18.6 48.4 L-18.0 48.4 -16.8 48.4 -16.8 53.3 -16.8 54.55 -18.0 54.55 -19.2 51.45 -19.2 49.6" fill="#363b3e" fill-rule="evenodd" stroke="none"/>
    <path d="M-16.8 54.55 L-16.8 53.3 -10.8 53.3 -10.95 53.8 Q-13.4 56.35 -9.6 56.35 L-9.6 58.2 -14.4 59.45 -14.3 58.85 Q-13.2 54.2 -16.8 54.55" fill="#293037" fill-rule="evenodd" stroke="none"/>
    <path d="M-9.6 58.2 L-9.6 59.45 -8.4 63.1 -12.0 64.35 -12.05 63.7 Q-12.75 61.4 -15.6 61.3 -15.8 59.65 -15.0 59.45 L-14.4 59.45 -9.6 58.2" fill="#45160a" fill-rule="evenodd" stroke="none"/>
    <path d="M-16.8 61.3 L-15.6 61.3 Q-12.75 61.4 -12.05 63.7 L-12.0 64.35 -13.2 68.05 -13.8 68.05 Q-14.75 67.8 -14.4 69.25 L-16.8 68.05 -16.8 66.2 -16.8 61.3" fill="#3e352a" fill-rule="evenodd" stroke="none"/>
    <path d="M-16.8 66.2 L-16.8 68.05 -16.8 68.65 Q-16.7 69.65 -18.0 69.25 L-19.2 66.2 -19.2 64.35 -16.8 66.2" fill="#711804" fill-rule="evenodd" stroke="none"/>
    <path d="M-14.4 69.25 L-18.0 71.1 -18.0 69.25 Q-16.7 69.65 -16.8 68.65 L-16.8 68.05 -14.4 69.25" fill="#1a1412" fill-rule="evenodd" stroke="none"/>
    <path d="M-14.4 69.25 Q-14.75 67.8 -13.8 68.05 L-13.2 68.05 -12.0 68.05 -12.0 72.95 Q-14.4 72.3 -13.25 75.4 L-13.2 76.0 -15.6 74.15 -16.1 74.05 Q-17.85 73.4 -18.0 71.1 L-14.4 69.25" fill="#363a3d" fill-rule="evenodd" stroke="none"/>
    <path d="M-12.0 68.05 L-13.2 68.05 -12.0 64.35 -8.4 63.1 Q-7.1 62.7 -7.2 63.7 L-7.2 64.35 -9.6 68.05 -12.0 68.05" fill="#2e3543" fill-rule="evenodd" stroke="none"/>
    <path d="M-9.6 69.25 L-9.6 68.05 -7.2 64.35 -4.8 68.05 -9.6 69.25" fill="#441e0f" fill-rule="evenodd" stroke="none"/>
    <path d="M-3.6 64.35 L-2.4 68.05 -2.4 69.25 -4.8 68.05 -3.6 64.35" fill="#6a200a" fill-rule="evenodd" stroke="none"/>
    <path d="M-18.0 71.1 Q-17.85 73.4 -16.1 74.05 L-15.6 74.15 -14.4 80.9 -14.7 80.8 Q-15.35 78.8 -18.0 79.05 L-17.9 78.45 Q-17.3 75.9 -19.2 76.0 L-19.1 75.4 Q-18.0 70.8 -21.6 71.1 L-21.6 69.25 -18.0 69.25 -18.0 71.1" fill="#1b1310" fill-rule="evenodd" stroke="none"/>
    <path d="M-54.0 46.6 Q-54.0 44.5 -52.2 43.15 L-50.85 42.05 Q-51.05 42.7 -50.6 43.0 -49.2 43.95 -48.0 39.85 L-48.0 44.75 -48.05 45.35 Q-48.5 47.55 -50.4 48.4 L-50.45 47.8 Q-50.85 45.8 -54.0 46.6" fill="#232a36" fill-rule="evenodd" stroke="none"/>
    <path d="M-50.85 42.05 Q-50.55 40.45 -46.8 36.75 -47.0 39.4 -43.8 38.65 L-43.2 38.6 -43.2 39.85 -43.35 40.35 Q-44.7 42.75 -46.8 39.85 L-48.0 39.85 Q-49.2 43.95 -50.6 43.0 -51.05 42.7 -50.85 42.05" fill="#252d3b" fill-rule="evenodd" stroke="none"/>
    <path d="M-48.0 44.75 L-48.0 39.85 -46.8 39.85 -45.6 44.75 -48.0 44.75" fill="#141518" fill-rule="evenodd" stroke="none"/>
    <path d="M-50.4 48.4 Q-48.5 47.55 -48.05 45.35 L-48.0 44.75 -45.6 44.75 -46.8 48.4 -50.4 53.3 -51.6 49.6 Q-50.3 50.0 -50.4 49.0 L-50.4 48.4 M-13.2 98.65 L-10.8 97.45 Q-7.8 97.6 -8.7 100.5 L-8.4 100.5 -8.4 101.15 Q-8.3 103.05 -10.8 102.35 L-10.8 101.75 Q-10.7 99.8 -13.2 100.5 L-13.2 98.65" fill="#51482d" fill-rule="evenodd" stroke="none"/>
    <path d="M-48.0 54.55 L-45.6 54.55 -44.4 58.2 -49.2 58.2 -49.2 56.35 Q-47.6 56.75 -47.9 55.15 L-48.0 54.55" fill="#1d212a" fill-rule="evenodd" stroke="none"/>
    <path d="M-57.6 53.3 L-54.0 46.6 -54.0 48.4 -57.6 53.3" fill="#1a1d24" fill-rule="evenodd" stroke="none"/>
    <path d="M-60.0 63.1 L-57.6 53.3 -57.6 54.55 -60.0 63.1" fill="#565031" fill-rule="evenodd" stroke="none"/>
    <path d="M-49.2 63.1 Q-49.4 64.85 -47.4 64.45 L-46.8 64.35 -48.0 69.25 -52.8 68.05 -52.8 66.2 -52.8 64.35 -52.85 63.8 Q-54.0 60.55 -51.6 61.3 -51.9 65.8 -49.65 63.25 L-49.2 63.1" fill="#2c323b" fill-rule="evenodd" stroke="none"/>
    <path d="M-50.4 59.45 L-49.2 63.1 -49.65 63.25 Q-51.9 65.8 -51.6 61.3 -50.0 61.65 -50.3 60.05 L-50.4 59.45" fill="#681d07" fill-rule="evenodd" stroke="none"/>
    <path d="M-49.2 58.2 L-44.4 58.2 -46.8 64.35 -47.4 64.45 Q-49.4 64.85 -49.2 63.1 L-50.4 59.45 Q-50.85 58.05 -49.8 58.2 L-49.2 58.2" fill="#3e3f38" fill-rule="evenodd" stroke="none"/>
    <path d="M-44.4 72.95 L-46.8 69.25 -45.6 69.25 -43.2 69.25 -44.4 72.95" fill="#262d39" fill-rule="evenodd" stroke="none"/>
    <path d="M-44.4 64.35 Q-45.05 60.05 -41.15 64.15 L-40.8 64.35 -40.8 66.2 -39.6 69.25 -43.2 69.25 -45.6 69.25 -44.4 64.35" fill="#3a3636" fill-rule="evenodd" stroke="none"/>
    <path d="M-49.2 76.0 Q-50.25 72.85 -46.2 74.15 L-45.6 74.15 -45.6 76.0 Q-48.0 75.35 -46.85 78.45 L-46.8 79.05 -49.2 77.8 -49.2 76.0" fill="#2e1916" fill-rule="evenodd" stroke="none"/>
    <path d="M-49.2 77.8 L-46.8 79.05 -46.8 80.9 -48.0 82.75 -48.6 82.8 Q-50.9 83.25 -50.4 80.9 L-50.4 79.05 Q-49.1 79.45 -49.2 78.45 L-49.2 77.8" fill="#232a37" fill-rule="evenodd" stroke="none"/>
    <path d="M-54.0 98.65 L-52.8 90.7 -52.85 90.1 Q-53.15 88.5 -51.6 88.9 L-49.2 88.9 -48.0 92.55 Q-43.7 92.9 -47.4 93.7 L-48.0 93.75 Q-50.45 100.95 -44.25 95.6 L-44.4 95.6 -44.4 92.95 -44.4 87.65 -42.0 87.65 -39.6 88.9 Q-43.55 88.7 -41.15 92.35 L-40.8 92.55 Q-43.05 97.45 -38.6 95.85 L-38.4 95.6 -33.6 97.45 -36.0 100.5 Q-36.0 100.2 -36.15 100.0 -37.85 96.9 -38.4 100.5 L-44.4 102.35 Q-44.4 102.0 -44.55 101.9 -46.8 99.1 -49.2 102.35 L-54.0 98.65 M-42.0 79.05 L-43.2 83.95 -45.6 83.95 -44.4 80.9 -42.0 79.05" fill="#242b38" fill-rule="evenodd" stroke="none"/>
    <path d="M-57.6 79.05 L-58.8 76.0 Q-55.4 72.7 -57.45 79.05 L-57.6 79.05" fill="#15161a" fill-rule="evenodd" stroke="none"/>
    <path d="M-52.8 90.7 L-57.6 80.9 Q-54.95 80.65 -54.3 82.65 L-54.0 82.75 -54.0 83.95 -51.6 88.9 Q-53.15 88.5 -52.85 90.1 L-52.8 90.7" fill="#403f36" fill-rule="evenodd" stroke="none"/>
    <path d="M-50.4 80.9 Q-50.9 83.25 -48.6 82.8 L-48.0 82.75 Q-48.2 84.5 -46.2 84.05 L-45.6 83.95 -43.2 83.95 -44.4 87.65 -45.0 87.65 Q-47.25 86.95 -46.8 88.9 L-48.0 92.55 -49.2 88.9 -49.05 88.3 Q-46.4 83.7 -54.0 83.95 L-54.0 82.75 -50.4 80.9" fill="#252c36" fill-rule="evenodd" stroke="none"/>
    <path d="M-46.8 88.9 Q-47.25 86.95 -45.0 87.65 L-44.4 87.65 -44.4 92.95 Q-44.45 89.8 -46.8 88.9" fill="#605030" fill-rule="evenodd" stroke="none"/>
    <path d="M-40.8 83.95 Q-40.8 83.65 -40.95 83.45 -42.0 80.45 -39.6 80.9 -40.4 84.2 -37.8 83.95 L-37.2 83.95 -37.2 87.65 -37.2 88.9 -39.6 88.9 -42.0 87.65 -40.8 83.95" fill="#444237" fill-rule="evenodd" stroke="none"/>
    <path d="M-48.0 92.55 L-46.8 88.9 Q-44.45 89.8 -44.4 92.95 L-44.4 95.6 -45.0 95.7 Q-48.2 96.45 -48.0 93.75 L-47.4 93.7 Q-43.7 92.9 -48.0 92.55" fill="#564c27" fill-rule="evenodd" stroke="none"/>
    <path d="M-40.8 92.55 L-41.15 92.35 Q-43.55 88.7 -39.6 88.9 L-39.6 92.55 -40.8 92.55" fill="#302828" fill-rule="evenodd" stroke="none"/>
    <path d="M-44.4 95.6 L-44.25 95.6 Q-50.45 100.95 -48.0 93.75 -48.2 96.45 -45.0 95.7 L-44.4 95.6" fill="#373b3c" fill-rule="evenodd" stroke="none"/>
    <path d="M-50.4 105.4 L-54.0 98.65 -49.2 102.35 -49.2 103.6 -50.4 103.6 -50.4 105.4" fill="#4a4632" fill-rule="evenodd" stroke="none"/>
    <path d="M-44.4 102.35 L-43.2 105.4 Q-41.6 105.05 -41.9 106.65 L-42.0 107.25 -44.4 108.5 -46.8 108.5 -45.6 105.4 -45.6 103.6 Q-45.9 102.25 -45.0 102.35 L-44.4 102.35" fill="#3b3d39" fill-rule="evenodd" stroke="none"/>
    <path d="M-49.2 110.35 Q-52.7 108.15 -50.55 105.8 -50.4 105.7 -50.4 105.4 -48.8 105.05 -49.1 106.65 L-49.2 107.25 -49.2 110.35" fill="#2a3845" fill-rule="evenodd" stroke="none"/>
    <path d="M-38.4 100.5 L-38.3 101.15 Q-37.7 104.25 -40.8 103.6 L-41.4 103.6 Q-43.8 102.65 -43.2 105.4 L-44.4 102.35 -38.4 100.5" fill="#5a4f27" fill-rule="evenodd" stroke="none"/>
    <path d="M-46.8 108.5 L-44.4 108.5 Q-44.35 110.6 -43.7 111.45 -43.15 112.3 -42.1 111.9 L-45.6 113.4 -46.8 108.5" fill="#53492d" fill-rule="evenodd" stroke="none"/>
    <path d="M-37.2 117.1 Q-39.35 117.75 -39.45 116.45 -39.6 114.3 -45.6 113.4 L-42.1 111.9 Q-43.15 112.3 -43.7 111.45 L-40.8 108.5 -38.4 108.5 -38.4 113.4 -37.2 117.1" fill="#4f472b" fill-rule="evenodd" stroke="none"/>
    <path d="M-10.8 72.95 Q-9.2 73.3 -9.5 71.7 L-9.6 71.1 -7.2 72.95 -7.2 76.0 -7.5 76.05 Q-8.55 78.9 -12.0 79.05 L-10.8 72.95" fill="#30363b" fill-rule="evenodd" stroke="none"/>
    <path d="M-4.8 76.0 L-6.0 76.0 -7.2 76.0 -7.2 72.95 Q-6.8 69.6 -6.05 72.3 L-6.0 72.95 -4.8 76.0" fill="#2b100c" fill-rule="evenodd" stroke="none"/>
    <path d="M-12.0 79.05 Q-8.55 78.9 -7.5 76.05 L-7.2 76.0 Q-7.2 79.3 -8.55 81.7 -9.95 83.95 -12.0 83.95 L-13.2 83.95 -13.2 82.75 -13.2 80.9 -13.2 79.05 -12.0 79.05" fill="#34170e" fill-rule="evenodd" stroke="none"/>
    <path d="M-6.0 76.0 L-4.8 80.9 -8.4 85.8 -9.0 85.75 Q-10.85 85.25 -12.0 83.95 -9.95 83.95 -8.55 81.7 -7.2 79.3 -7.2 76.0 L-6.0 76.0" fill="#2e3039" fill-rule="evenodd" stroke="none"/>
    <path d="M-13.2 76.0 L-13.25 75.4 Q-14.4 72.3 -12.0 72.95 L-10.8 72.95 -12.0 79.05 -13.2 79.05 -13.2 76.0" fill="#161211" fill-rule="evenodd" stroke="none"/>
    <path d="M-19.2 76.0 Q-17.3 75.9 -17.9 78.45 L-18.0 79.05 Q-18.3 79.05 -18.35 79.2 -20.55 83.7 -21.6 80.9 L-21.6 74.15 -19.2 76.0" fill="#454236" fill-rule="evenodd" stroke="none"/>
    <path d="M-22.8 80.9 L-21.6 80.9 Q-20.55 83.7 -18.35 79.2 -18.3 79.05 -18.0 79.05 L-16.8 82.75 -19.2 85.8 Q-19.2 85.5 -19.35 85.3 -20.7 82.9 -22.8 85.8 L-22.8 80.9" fill="#181311" fill-rule="evenodd" stroke="none"/>
    <path d="M-15.6 74.15 L-13.2 76.0 -13.2 79.05 -13.2 80.9 -14.4 80.9 -15.6 74.15" fill="#303645" fill-rule="evenodd" stroke="none"/>
    <path d="M-18.0 79.05 Q-15.35 78.8 -14.7 80.8 L-14.4 80.9 -13.2 80.9 -13.2 82.75 -14.4 82.75 -16.8 82.75 -18.0 79.05" fill="#2e3444" fill-rule="evenodd" stroke="none"/>
    <path d="M-13.2 83.95 L-12.0 83.95 Q-10.85 85.25 -9.0 85.75 L-8.4 85.8 -9.6 88.9 -12.0 88.9 -13.2 83.95" fill="#471509" fill-rule="evenodd" stroke="none"/>
    <path d="M-21.6 88.9 L-21.65 88.55 Q-23.85 88.1 -24.0 85.8 L-22.8 85.8 Q-20.7 82.9 -19.35 85.3 -19.2 85.5 -19.2 85.8 L-20.4 88.9 -21.6 88.9" fill="#251712" fill-rule="evenodd" stroke="none"/>
    <path d="M-15.6 92.55 L-13.2 92.55 -10.8 95.6 -10.8 97.45 -13.2 98.65 -13.8 98.75 Q-15.8 99.2 -15.6 97.45 L-15.6 93.75 -15.6 92.55" fill="#2d2d31" fill-rule="evenodd" stroke="none"/>
    <path d="M-22.8 100.5 L-20.4 92.55 -19.2 92.55 -19.2 93.75 -19.2 100.5 Q-20.7 100.05 -20.45 101.75 L-20.4 102.35 -22.8 103.6 -22.8 100.5" fill="#222833" fill-rule="evenodd" stroke="none"/>
    <path d="M-2.4 85.8 L-7.2 90.7 -9.6 88.9 -8.4 85.8 -4.8 80.9 Q-1.7 80.2 -2.3 83.35 L-2.4 83.95 -2.4 85.8" fill="#313436" fill-rule="evenodd" stroke="none"/>
    <path d="M-4.8 88.9 Q-5.0 91.55 -1.8 90.8 L-1.2 90.7 -1.2 91.3 Q-1.1 95.05 -6.0 93.75 L-6.0 92.55 -4.8 88.9" fill="#1d1411" fill-rule="evenodd" stroke="none"/>
    <path d="M-26.4 72.95 L-21.6 69.25 -21.6 71.1 -21.6 74.15 -24.0 74.15 Q-25.5 73.75 -25.25 75.4 L-25.2 76.0 -26.4 76.0 -26.4 74.15 -26.4 72.95" fill="#48372c" fill-rule="evenodd" stroke="none"/>
    <path d="M-26.4 76.0 L-25.2 76.0 Q-21.95 81.35 -23.9 74.8 L-24.0 74.15 -21.6 74.15 -21.6 80.9 -22.8 80.9 -25.2 80.9 -25.1 80.3 Q-24.8 78.65 -26.4 79.05 L-26.4 76.0" fill="#2d3442" fill-rule="evenodd" stroke="none"/>
    <path d="M-26.4 79.05 L-26.9 79.0 Q-29.25 77.95 -28.8 74.15 L-26.4 74.15 -26.4 76.0 -26.4 79.05" fill="#281a21" fill-rule="evenodd" stroke="none"/>
    <path d="M-24.0 85.8 L-25.2 85.8 -25.2 83.95 -25.2 80.9 -22.8 80.9 -22.8 85.8 -24.0 85.8" fill="#5a2c16" fill-rule="evenodd" stroke="none"/>
    <path d="M-26.4 83.95 L-26.4 79.05 Q-24.8 78.65 -25.1 80.3 L-25.2 80.9 -25.2 83.95 -26.4 83.95" fill="#1c0c0c" fill-rule="evenodd" stroke="none"/>
    <path d="M-37.2 76.0 L-36.0 71.1 -34.8 71.1 -33.6 71.1 -33.6 76.0 -36.0 76.0 -37.2 76.0" fill="#2a2830" fill-rule="evenodd" stroke="none"/>
    <path d="M-36.0 76.0 L-33.6 83.95 -32.4 88.9 -34.8 88.9 -34.8 88.25 Q-34.8 84.85 -37.2 83.95 L-38.4 79.05 -37.2 76.0 -36.0 76.0" fill="#42190d" fill-rule="evenodd" stroke="none"/>
    <path d="M-31.2 71.1 L-30.0 77.8 -31.2 77.8 -31.8 77.75 Q-32.75 77.6 -32.4 76.0 L-31.2 71.1" fill="#31120d" fill-rule="evenodd" stroke="none"/>
    <path d="M-32.4 76.0 Q-32.75 77.6 -31.8 77.75 L-31.2 77.8 -32.4 83.95 -33.6 83.95 -36.0 76.0 -33.6 76.0 -32.4 76.0" fill="#31363c" fill-rule="evenodd" stroke="none"/>
    <path d="M-30.0 77.8 L-30.0 82.75 -30.6 82.75 Q-31.5 82.7 -31.2 83.95 L-32.4 83.95 -31.2 77.8 -30.0 77.8" fill="#5e4624" fill-rule="evenodd" stroke="none"/>
    <path d="M-30.0 82.75 Q-30.35 84.05 -29.4 83.95 L-28.8 83.95 -26.4 87.65 -24.0 90.7 -27.6 90.7 -27.9 90.65 Q-28.55 88.65 -31.2 88.9 L-31.2 83.95 Q-31.5 82.7 -30.6 82.75 L-30.0 82.75" fill="#584d29" fill-rule="evenodd" stroke="none"/>
    <path d="M-31.2 92.55 L-32.4 88.9 -31.2 88.9 Q-28.55 88.65 -27.9 90.65 L-27.6 90.7 -21.6 92.55 -24.0 93.75 -25.2 93.75 -31.2 92.55" fill="#1a1d23" fill-rule="evenodd" stroke="none"/>
    <path d="M-33.6 93.75 Q-32.0 93.35 -32.3 95.0 L-32.4 95.6 -32.3 96.25 Q-32.0 97.85 -33.6 97.45 L-38.4 95.6 -39.6 92.55 -33.6 93.75" fill="#29140f" fill-rule="evenodd" stroke="none"/>
    <path d="M-21.6 92.55 L-20.4 92.55 -22.8 100.5 -24.0 98.65 -24.0 93.75 -21.6 92.55" fill="#5f4c26" fill-rule="evenodd" stroke="none"/>
    <path d="M-26.4 105.4 L-26.7 105.5 Q-27.75 108.3 -31.2 108.5 L-31.2 105.4 -30.0 98.65 -25.2 102.35 -26.4 105.4" fill="#60512b" fill-rule="evenodd" stroke="none"/>
    <path d="M-24.0 98.65 L-22.8 100.5 -22.8 103.6 -22.8 108.5 -24.0 108.5 -26.4 107.25 -26.4 105.4 -25.2 102.35 -24.0 98.65" fill="#242a32" fill-rule="evenodd" stroke="none"/>
    <path d="M-18.0 103.6 L-16.8 103.6 -16.8 108.5 -16.8 109.1 Q-16.7 111.0 -19.2 110.35 L-19.8 110.25 Q-21.65 109.8 -22.8 108.5 L-22.8 103.6 -20.4 102.35 -18.0 103.6" fill="#4c462c" fill-rule="evenodd" stroke="none"/>
    <path d="M-32.4 95.6 L-31.2 95.6 -30.0 98.65 -31.2 98.65 -36.0 105.4 -36.0 100.5 -33.6 97.45 Q-32.0 97.85 -32.3 96.25 L-32.4 95.6" fill="#27130d" fill-rule="evenodd" stroke="none"/>
    <path d="M-36.0 100.5 L-36.0 105.4 -36.0 107.25 -37.2 107.25 -37.8 107.2 Q-40.65 106.8 -40.8 103.6 -37.7 104.25 -38.3 101.15 L-38.4 100.5 Q-37.85 96.9 -36.15 100.0 -36.0 100.2 -36.0 100.5" fill="#373a39" fill-rule="evenodd" stroke="none"/>
    <path d="M-26.4 108.5 L-26.4 113.4 -26.75 113.55 Q-31.8 116.7 -26.4 108.5" fill="#271a14" fill-rule="evenodd" stroke="none"/>
    <path d="M-15.6 125.05 L-15.6 126.85 -19.2 121.95 -21.6 115.25 -21.6 113.4 -18.0 113.4 -16.8 120.1 -15.6 125.05" fill="#2a313b" fill-rule="evenodd" stroke="none"/>
    <path d="M-22.8 121.95 L-25.2 120.1 -24.0 117.1 -21.6 115.25 -22.8 121.95" fill="#3d3e34" fill-rule="evenodd" stroke="none"/>
    <path d="M-21.6 112.15 Q-19.1 112.85 -19.2 110.95 L-19.2 110.35 Q-16.7 111.0 -16.8 109.1 L-16.8 108.5 -15.6 108.5 -13.2 113.4 -14.4 113.4 -18.0 113.4 -21.6 113.4 -21.6 112.15" fill="#2d282d" fill-rule="evenodd" stroke="none"/>
    <path d="M-6.0 102.35 L-8.4 105.4 -8.4 107.25 -9.6 107.25 -10.8 103.6 -10.8 102.35 Q-8.3 103.05 -8.4 101.15 L-8.4 100.5 Q-5.9 99.8 -6.0 101.75 L-6.0 102.35" fill="#343a3e" fill-rule="evenodd" stroke="none"/>
    <path d="M-4.8 107.25 L-2.4 103.6 -1.2 103.6 -3.6 108.5 -3.6 110.35 -4.8 110.35 -4.8 107.25" fill="#1b1f26" fill-rule="evenodd" stroke="none"/>
    <path d="M-10.8 102.35 L-10.8 103.6 -11.3 103.45 Q-15.15 102.05 -14.4 105.4 L-16.8 103.6 -18.0 103.6 Q-18.0 102.25 -16.55 101.45 -15.2 100.5 -13.2 100.5 -10.7 99.8 -10.8 101.75 L-10.8 102.35" fill="#212228" fill-rule="evenodd" stroke="none"/>
    <path d="M-13.2 108.5 L-10.8 110.35 -9.6 115.25 -10.8 115.25 -13.2 113.4 -15.6 108.5 -13.2 108.5" fill="#584d28" fill-rule="evenodd" stroke="none"/>
    <path d="M-13.2 113.4 L-10.8 115.25 -10.8 117.1 -11.4 117.15 Q-15.45 117.85 -14.4 113.4 L-13.2 113.4" fill="#242b36" fill-rule="evenodd" stroke="none"/>
    <path d="M-14.4 113.4 Q-15.45 117.85 -11.4 117.15 L-10.8 117.1 -9.6 120.1 Q-11.1 119.65 -10.85 121.35 L-10.8 121.95 -12.0 121.95 -16.8 120.1 -18.0 113.4 -14.4 113.4" fill="#574c29" fill-rule="evenodd" stroke="none"/>
    <path d="M-6.0 112.15 Q-4.4 112.55 -4.7 110.95 L-4.8 110.35 -3.6 110.35 -4.8 115.25 -8.4 115.25 -8.4 113.4 -6.0 112.15" fill="#4e472c" fill-rule="evenodd" stroke="none"/>
    <path d="M-8.4 105.4 Q-7.25 106.7 -5.4 107.2 L-4.8 107.25 -4.8 110.35 -4.7 110.95 Q-4.4 112.55 -6.0 112.15 L-6.0 111.55 Q-5.9 109.6 -8.4 110.35 L-8.4 107.25 -8.4 105.4" fill="#2e160d" fill-rule="evenodd" stroke="none"/>
    <path d="M-15.6 126.85 L-18.0 126.85 -22.8 121.95 -19.2 121.95 -15.6 126.85" fill="#4b4632" fill-rule="evenodd" stroke="none"/>
  </g>
</svg>
