<?xml version="1.0" encoding="UTF-8" standalone="no"?>
<svg xmlns:ffdec="https://www.free-decompiler.com/flash" xmlns:xlink="http://www.w3.org/1999/xlink" ffdec:objectType="shape" height="94.0px" width="64.0px" xmlns="http://www.w3.org/2000/svg">
  <g transform="matrix(1.0, 0.0, 0.0, 1.0, 27.0, 29.5)">
    <path d="M34.65 -17.15 Q37.0 -14.8 37.0 -11.5 L37.0 56.5 Q37.0 59.8 34.65 62.15 32.3 64.5 29.0 64.5 L-9.0 64.5 Q-12.3 64.5 -14.65 62.15 -17.0 59.8 -17.0 56.5 L-17.0 -11.5 Q-17.0 -14.8 -14.65 -17.15 -12.3 -19.5 -9.0 -19.5 L29.0 -19.5 Q32.3 -19.5 34.65 -17.15" fill="#000000" fill-opacity="0.5019608" fill-rule="evenodd" stroke="none"/>
    <path d="M-14.0 -19.5 L-14.0 -24.5 14.0 -24.5 14.0 -19.5 9.0 -19.5 9.0 -11.5 14.0 -11.5 14.0 -3.5 9.0 -3.5 9.0 4.5 14.0 4.5 14.0 12.5 9.0 12.5 9.0 20.5 14.0 20.5 14.0 25.5 -14.0 25.5 -14.0 20.5 -9.0 20.5 -9.0 12.5 -14.0 12.5 -14.0 4.5 -9.0 4.5 -9.0 -3.5 -14.0 -3.5 -14.0 -11.5 -9.0 -11.5 -9.0 -19.5 -14.0 -19.5" fill="#707878" fill-rule="evenodd" stroke="none"/>
    <path d="M14.0 -19.5 L19.0 -19.5 19.0 -11.5 14.0 -11.5 9.0 -11.5 9.0 -19.5 14.0 -19.5 M-19.0 -19.5 L-14.0 -19.5 -9.0 -19.5 -9.0 -11.5 -14.0 -11.5 -19.0 -11.5 -19.0 -19.5 M14.0 -3.5 L19.0 -3.5 19.0 4.5 14.0 4.5 9.0 4.5 9.0 -3.5 14.0 -3.5 M14.0 12.5 L19.0 12.5 19.0 20.5 14.0 20.5 9.0 20.5 9.0 12.5 14.0 12.5 M-14.0 -3.5 L-9.0 -3.5 -9.0 4.5 -14.0 4.5 -19.0 4.5 -19.0 -3.5 -14.0 -3.5 M-14.0 12.5 L-9.0 12.5 -9.0 20.5 -14.0 20.5 -19.0 20.5 -19.0 12.5 -14.0 12.5 M-27.0 46.5 L-19.0 40.5 -19.0 54.5 Q-22.3 54.5 -24.65 52.15 -27.0 49.8 -27.0 46.5" fill="#686870" fill-rule="evenodd" stroke="none"/>
    <path d="M19.0 -19.5 L14.0 -19.5 14.0 -24.5 -14.0 -24.5 -14.0 -19.5 -19.0 -19.5 -19.0 -29.5 19.0 -29.5 19.0 -19.5 27.0 -19.5 27.0 -11.5 19.0 -11.5 19.0 -3.5 27.0 -3.5 27.0 4.5 19.0 4.5 19.0 12.5 14.0 12.5 14.0 4.5 19.0 4.5 19.0 -3.5 14.0 -3.5 14.0 -11.5 19.0 -11.5 19.0 -19.5 M-14.0 -11.5 L-14.0 -3.5 -19.0 -3.5 -19.0 -11.5 -14.0 -11.5 M-14.0 4.5 L-14.0 12.5 -19.0 12.5 -19.0 4.5 -14.0 4.5 M-14.0 20.5 L-14.0 25.5 14.0 25.5 14.0 20.5 19.0 20.5 19.0 40.5 -19.0 40.5 -19.0 20.5 -14.0 20.5 M27.0 12.5 L27.0 20.5 19.0 20.5 19.0 12.5 27.0 12.5" fill="#404838" fill-rule="evenodd" stroke="none"/>
    <path d="M-19.0 -29.5 L-19.0 -19.5 -27.0 -19.5 -27.0 -21.5 Q-27.0 -24.8 -24.65 -27.15 -22.3 -29.5 -19.0 -29.5 M-27.0 -3.5 L-27.0 -11.5 -19.0 -11.5 -19.0 -3.5 -27.0 -3.5 M-27.0 4.5 L-19.0 4.5 -19.0 12.5 -27.0 12.5 -27.0 4.5 M-19.0 20.5 L-19.0 40.5 -27.0 46.5 -27.0 20.5 -19.0 20.5" fill="#888880" fill-rule="evenodd" stroke="none"/>
    <path d="M-27.0 -11.5 L-27.0 -19.5 -19.0 -19.5 -19.0 -11.5 -27.0 -11.5 M-19.0 -3.5 L-19.0 4.5 -27.0 4.5 -27.0 -3.5 -19.0 -3.5 M-19.0 12.5 L-19.0 20.5 -27.0 20.5 -27.0 12.5 -19.0 12.5" fill="#98a880" fill-rule="evenodd" stroke="none"/>
    <path d="M19.0 -19.5 L19.0 -29.5 Q22.3 -29.5 24.65 -27.15 27.0 -24.8 27.0 -21.5 L27.0 -19.5 19.0 -19.5 M19.0 12.5 L19.0 4.5 27.0 4.5 27.0 12.5 19.0 12.5 M27.0 -3.5 L19.0 -3.5 19.0 -11.5 27.0 -11.5 27.0 -3.5 M-19.0 40.5 L19.0 40.5 19.0 20.5 27.0 20.5 27.0 46.5 19.0 40.5 19.0 54.5 -19.0 54.5 -19.0 40.5" fill="#283040" fill-rule="evenodd" stroke="none"/>
    <path d="M27.0 46.5 Q27.0 49.8 24.65 52.15 22.3 54.5 19.0 54.5 L19.0 40.5 27.0 46.5" fill="#101010" fill-rule="evenodd" stroke="none"/>
  </g>
</svg>
