<?xml version="1.0" encoding="UTF-8" standalone="no"?>
<svg xmlns:ffdec="https://www.free-decompiler.com/flash" xmlns:xlink="http://www.w3.org/1999/xlink" ffdec:objectType="shape" height="63.5px" width="37.0px" xmlns="http://www.w3.org/2000/svg">
  <g transform="matrix(1.0, 0.0, 0.0, 1.0, 16.0, 33.55)">
    <path d="M21.0 -28.55 L21.0 29.95 -11.0 29.95 -11.0 -28.55 21.0 -28.55" fill="#000000" fill-opacity="0.5019608" fill-rule="evenodd" stroke="none"/>
    <path d="M0.05 -12.0 L0.05 -12.05 -11.95 -0.05 -11.95 0.0 0.05 11.95 12.05 -0.05 0.05 -12.0 M12.0 -18.55 L4.0 -18.55 12.0 -18.55 M16.0 24.95 L-16.0 24.95 -16.0 -33.55 16.0 -33.55 16.0 24.95 M-4.0 -18.55 L-12.0 -18.55 -4.0 -18.55" fill="#707878" fill-rule="evenodd" stroke="none"/>
    <path d="M0.05 -12.0 L0.05 0.0 -11.95 0.0 -11.95 -0.05 0.05 -12.05 0.05 -12.0" fill="#98a880" fill-rule="evenodd" stroke="none"/>
    <path d="M0.05 11.95 L0.05 0.0 12.05 -0.05 0.05 11.95" fill="#404838" fill-rule="evenodd" stroke="none"/>
    <path d="M-11.95 0.0 L0.05 0.0 0.05 -12.0 12.05 -0.05 0.05 0.0 0.05 11.95 -11.95 0.0" fill="#888880" fill-rule="evenodd" stroke="none"/>
    <path d="M4.0 -18.55 L12.0 -18.55 M-12.0 -18.55 L-4.0 -18.55" fill="none" stroke="#182020" stroke-linecap="round" stroke-linejoin="round" stroke-width="3.0"/>
  </g>
</svg>
